<svg xmlns="http://www.w3.org/2000/svg" viewBox="0 0 240.9 122.19"><defs><style>.cls-1{fill:#4d4e50;}.cls-2{fill:#488e41;}.cls-3{fill:#fff;}</style></defs><g id="Economic_Opportunities_Image" data-name="Economic Opportunities Image"><path class="cls-1" d="M48.25,81.48a1.84,1.84,0,0,0,.33,0l.25,0v.5a1.23,1.23,0,0,1-.31.08l-.37,0c-.83,0-1.24-.43-1.24-1.31V78.16H46.3v-.32l.61-.26.27-.92h.38v1H48.8v.51H47.56v2.52a.89.89,0,0,0,.18.59A.64.64,0,0,0,48.25,81.48Z"/><path class="cls-1" d="M53.38,79.79a2.35,2.35,0,0,1-.52,1.63A1.85,1.85,0,0,1,51.4,82a1.94,1.94,0,0,1-1-.27,1.73,1.73,0,0,1-.69-.77,2.73,2.73,0,0,1-.24-1.18A2.35,2.35,0,0,1,50,78.16a1.86,1.86,0,0,1,1.46-.58,1.79,1.79,0,0,1,1.42.59A2.33,2.33,0,0,1,53.38,79.79Zm-3.26,0A2,2,0,0,0,50.45,81a1.3,1.3,0,0,0,1.93,0,2.51,2.51,0,0,0,0-2.49,1.33,1.33,0,0,0-1.93,0A2,2,0,0,0,50.12,79.79Z"/><path class="cls-1" d="M55.9,81.48a1.69,1.69,0,0,0,.33,0,1.2,1.2,0,0,0,.26,0v.5a1.37,1.37,0,0,1-.31.08l-.37,0c-.83,0-1.24-.43-1.24-1.31V78.16H54v-.32l.62-.26.27-.92h.38v1h1.24v.51H55.22v2.52a.89.89,0,0,0,.18.59A.63.63,0,0,0,55.9,81.48Z"/><path class="cls-1" d="M60,81.93l-.13-.6h0a1.58,1.58,0,0,1-1.44.68,1.41,1.41,0,0,1-1-.33,1.14,1.14,0,0,1-.37-.93c0-.86.7-1.32,2.08-1.36l.72,0V79.1a1.11,1.11,0,0,0-.21-.74.91.91,0,0,0-.7-.24,2.83,2.83,0,0,0-1.21.33l-.2-.5a3.91,3.91,0,0,1,.7-.27,3.22,3.22,0,0,1,.75-.1,1.69,1.69,0,0,1,1.14.34A1.45,1.45,0,0,1,60.46,79v2.92Zm-1.47-.45a1.31,1.31,0,0,0,1-.33,1.26,1.26,0,0,0,.35-.93v-.39l-.65,0a2.34,2.34,0,0,0-1.11.24.72.72,0,0,0-.35.66.64.64,0,0,0,.22.53A.84.84,0,0,0,58.51,81.48Z"/><path class="cls-1" d="M62.44,81.93h-.65V75.86h.65Z"/><path class="cls-1" d="M66,76.22h1.62a3.11,3.11,0,0,1,1.64.34,1.21,1.21,0,0,1,.51,1.08,1.29,1.29,0,0,1-.28.84,1.35,1.35,0,0,1-.83.42v0c.87.15,1.3.61,1.3,1.37a1.47,1.47,0,0,1-.52,1.2,2.24,2.24,0,0,1-1.45.42H66Zm.67,2.45h1.09a1.74,1.74,0,0,0,1-.22.86.86,0,0,0,.31-.75.74.74,0,0,0-.34-.69,2.2,2.2,0,0,0-1.1-.21h-1Zm0,.56v2.14h1.19a1.68,1.68,0,0,0,1-.27,1,1,0,0,0,.35-.84.89.89,0,0,0-.36-.78,2,2,0,0,0-1.09-.25Z"/><path class="cls-1" d="M75.73,79A2.9,2.9,0,0,1,75,81.19a3,3,0,0,1-2.21.74H71.18V76.22h1.75A2.83,2.83,0,0,1,75,77,2.79,2.79,0,0,1,75.73,79Zm-.7,0a2.33,2.33,0,0,0-.56-1.69,2.27,2.27,0,0,0-1.66-.56h-1v4.56h.81a2.43,2.43,0,0,0,1.78-.58A2.32,2.32,0,0,0,75,79.05Z"/><path class="cls-1" d="M82,79.07a3.17,3.17,0,0,1-.7,2.16,2.8,2.8,0,0,1-3.87,0,3.15,3.15,0,0,1-.69-2.18,3.11,3.11,0,0,1,.69-2.16,2.49,2.49,0,0,1,1.95-.77,2.4,2.4,0,0,1,1.92.79A3.14,3.14,0,0,1,82,79.07Zm-4.56,0a2.71,2.71,0,0,0,.5,1.76,2,2,0,0,0,2.87,0,3.45,3.45,0,0,0,0-3.51,2,2,0,0,0-2.87,0A2.67,2.67,0,0,0,77.41,79.07Z"/><path class="cls-1" d="M87.15,78.16H86.06v3.77h-.65V78.16h-.77v-.3l.77-.23v-.24c0-1,.46-1.58,1.38-1.58a2.93,2.93,0,0,1,.8.14l-.17.52a2.2,2.2,0,0,0-.64-.12.64.64,0,0,0-.55.24,1.47,1.47,0,0,0-.17.79v.27h1.09Z"/><path class="cls-1" d="M88.54,77.65v2.78a1.1,1.1,0,0,0,.24.78,1,1,0,0,0,.74.26,1.22,1.22,0,0,0,1-.37,1.88,1.88,0,0,0,.31-1.2V77.65h.65v4.28h-.54l-.09-.57h0a1.29,1.29,0,0,1-.55.48,1.78,1.78,0,0,1-.81.17,1.63,1.63,0,0,1-1.17-.37,1.58,1.58,0,0,1-.39-1.19v-2.8Z"/><path class="cls-1" d="M95.77,81.93V79.17a1.15,1.15,0,0,0-.24-.79,1,1,0,0,0-.74-.25,1.25,1.25,0,0,0-1,.36,1.82,1.82,0,0,0-.31,1.2v2.24h-.65V77.65h.53l.1.59h0a1.41,1.41,0,0,1,.56-.49,1.77,1.77,0,0,1,.8-.17A1.63,1.63,0,0,1,96,78a1.58,1.58,0,0,1,.39,1.19v2.79Z"/><path class="cls-1" d="M100.66,81.36h0a1.51,1.51,0,0,1-1.34.65A1.6,1.6,0,0,1,98,81.44a2.53,2.53,0,0,1-.47-1.63A2.59,2.59,0,0,1,98,78.16a1.58,1.58,0,0,1,1.31-.58,1.55,1.55,0,0,1,1.33.63h0l0-.31v-2h.65v6.07h-.53Zm-1.29.11a1.18,1.18,0,0,0,1-.36,1.82,1.82,0,0,0,.3-1.17v-.13a2.16,2.16,0,0,0-.3-1.3,1.17,1.17,0,0,0-1-.39,1,1,0,0,0-.87.44,2.69,2.69,0,0,0,0,2.49A1,1,0,0,0,99.37,81.47Z"/><path class="cls-1" d="M102.6,76.49a.39.39,0,0,1,.11-.32.37.37,0,0,1,.27-.11.38.38,0,0,1,.38.43.41.41,0,0,1-.11.33.4.4,0,0,1-.27.11.37.37,0,0,1-.27-.11A.41.41,0,0,1,102.6,76.49Zm.7,5.44h-.65V77.65h.65Z"/><path class="cls-1" d="M107.61,81.93V79.17a1.15,1.15,0,0,0-.24-.79,1,1,0,0,0-.75-.25,1.23,1.23,0,0,0-1,.36,1.81,1.81,0,0,0-.32,1.2v2.24h-.64V77.65h.52l.11.59h0a1.34,1.34,0,0,1,.56-.49,1.74,1.74,0,0,1,.8-.17,1.6,1.6,0,0,1,1.16.37,1.58,1.58,0,0,1,.39,1.19v2.79Z"/><path class="cls-1" d="M113.09,77.65v.41l-.79.1a1.62,1.62,0,0,1,.19.35,1.35,1.35,0,0,1,.09.5,1.3,1.3,0,0,1-.43,1,1.74,1.74,0,0,1-1.18.37,2,2,0,0,1-.36,0,.63.63,0,0,0-.41.55.26.26,0,0,0,.14.26,1,1,0,0,0,.5.09h.75a1.66,1.66,0,0,1,1.07.29,1,1,0,0,1,.38.85,1.2,1.2,0,0,1-.57,1.08,3.08,3.08,0,0,1-1.67.38,2.23,2.23,0,0,1-1.29-.32,1,1,0,0,1-.46-.88,1,1,0,0,1,.25-.67,1.3,1.3,0,0,1,.7-.39.67.67,0,0,1-.27-.23.59.59,0,0,1-.11-.36.74.74,0,0,1,.12-.42,1.38,1.38,0,0,1,.4-.33,1.17,1.17,0,0,1-.54-.47,1.53,1.53,0,0,1,.21-1.83,1.69,1.69,0,0,1,1.19-.38,2.27,2.27,0,0,1,.61.07Zm-3.41,5a.57.57,0,0,0,.29.53,1.59,1.59,0,0,0,.84.18,2.39,2.39,0,0,0,1.21-.24.77.77,0,0,0,.39-.67.53.53,0,0,0-.21-.48,1.72,1.72,0,0,0-.81-.13h-.78a1,1,0,0,0-.69.21A.75.75,0,0,0,109.68,82.65ZM110,79a.86.86,0,0,0,.25.68,1,1,0,0,0,.71.23c.63,0,1-.3,1-.92a.85.85,0,0,0-1-1,1,1,0,0,0-.71.24A1,1,0,0,0,110,79Z"/><path class="cls-1" d="M118,78.16h-1.09v3.77h-.65V78.16h-.77v-.3l.77-.23v-.24c0-1,.46-1.58,1.38-1.58a2.87,2.87,0,0,1,.79.14l-.16.52a2.2,2.2,0,0,0-.64-.12.64.64,0,0,0-.55.24,1.47,1.47,0,0,0-.17.79v.27H118Z"/><path class="cls-1" d="M122.45,79.79a2.35,2.35,0,0,1-.52,1.63,1.85,1.85,0,0,1-1.46.59,1.94,1.94,0,0,1-1-.27,1.73,1.73,0,0,1-.69-.77,2.73,2.73,0,0,1-.24-1.18,2.35,2.35,0,0,1,.52-1.63,1.86,1.86,0,0,1,1.46-.58,1.78,1.78,0,0,1,1.42.59A2.33,2.33,0,0,1,122.45,79.79Zm-3.26,0a2,2,0,0,0,.33,1.25,1.3,1.3,0,0,0,1.93,0,2.51,2.51,0,0,0,0-2.49,1.33,1.33,0,0,0-1.93,0A2,2,0,0,0,119.19,79.79Z"/><path class="cls-1" d="M125.54,77.58a2.82,2.82,0,0,1,.52,0l-.09.6a2.15,2.15,0,0,0-.47,0,1.13,1.13,0,0,0-.89.42,1.51,1.51,0,0,0-.37,1v2.29h-.65V77.65h.54l.07.8h0a1.85,1.85,0,0,1,.58-.65A1.26,1.26,0,0,1,125.54,77.58Z"/><path class="cls-1" d="M130.89,77.58a2.64,2.64,0,0,1,.51,0l-.09.6a2.09,2.09,0,0,0-.47,0,1.15,1.15,0,0,0-.89.42,1.56,1.56,0,0,0-.37,1v2.29h-.65V77.65h.54l.07.8h0a1.85,1.85,0,0,1,.58-.65A1.29,1.29,0,0,1,130.89,77.58Z"/><path class="cls-1" d="M134,82a2,2,0,0,1-1.5-.58,2.21,2.21,0,0,1-.55-1.6,2.5,2.5,0,0,1,.51-1.65,1.71,1.71,0,0,1,1.37-.6,1.6,1.6,0,0,1,1.27.52,2,2,0,0,1,.47,1.4v.41h-3a1.76,1.76,0,0,0,.38,1.15,1.32,1.32,0,0,0,1,.39,3.51,3.51,0,0,0,1.37-.29v.58a3.25,3.25,0,0,1-.65.21A4,4,0,0,1,134,82Zm-.18-3.89a1.06,1.06,0,0,0-.82.33,1.57,1.57,0,0,0-.36.93h2.24a1.41,1.41,0,0,0-.28-.94A1,1,0,0,0,133.83,78.12Z"/><path class="cls-1" d="M139.62,81.93V79.17a1.15,1.15,0,0,0-.24-.79,1,1,0,0,0-.75-.25,1.23,1.23,0,0,0-1,.36,1.82,1.82,0,0,0-.31,1.2v2.24h-.65V77.65h.53l.1.59h0a1.34,1.34,0,0,1,.56-.49,1.77,1.77,0,0,1,.8-.17,1.64,1.64,0,0,1,1.17.37,1.58,1.58,0,0,1,.39,1.19v2.79Z"/><path class="cls-1" d="M143.41,82a1.94,1.94,0,0,1-1.5-.58,2.21,2.21,0,0,1-.55-1.6,2.5,2.5,0,0,1,.51-1.65,1.71,1.71,0,0,1,1.37-.6,1.62,1.62,0,0,1,1.27.52,2.06,2.06,0,0,1,.47,1.4v.41H142a1.71,1.71,0,0,0,.38,1.15,1.32,1.32,0,0,0,1,.39,3.51,3.51,0,0,0,1.37-.29v.58a3.25,3.25,0,0,1-.65.21A4,4,0,0,1,143.41,82Zm-.18-3.89a1.06,1.06,0,0,0-.82.33,1.51,1.51,0,0,0-.36.93h2.24a1.46,1.46,0,0,0-.28-.94A1,1,0,0,0,143.23,78.12Z"/><path class="cls-1" d="M149.58,81.93l-.78-2.51c-.05-.15-.15-.5-.28-1h0q-.17.68-.27,1.05l-.81,2.5h-.75l-1.17-4.28h.68q.41,1.62.63,2.46a10.67,10.67,0,0,1,.25,1.14h0c0-.15.07-.34.14-.58s.12-.42.16-.56l.79-2.46h.7l.77,2.46a8.58,8.58,0,0,1,.29,1.13h0a2.94,2.94,0,0,1,.08-.43c0-.2.32-1.25.81-3.16h.68l-1.19,4.28Z"/><path class="cls-1" d="M154.94,81.93l-.13-.6h0a1.81,1.81,0,0,1-.64.54,1.83,1.83,0,0,1-.79.14,1.42,1.42,0,0,1-1-.33,1.17,1.17,0,0,1-.36-.93c0-.86.69-1.32,2.07-1.36l.73,0V79.1a1.06,1.06,0,0,0-.22-.74.87.87,0,0,0-.69-.24,2.8,2.8,0,0,0-1.21.33l-.2-.5a3.54,3.54,0,0,1,.69-.27,3.3,3.3,0,0,1,.76-.1,1.64,1.64,0,0,1,1.13.34,1.41,1.41,0,0,1,.37,1.09v2.92Zm-1.46-.45a1.32,1.32,0,0,0,1-.33,1.25,1.25,0,0,0,.34-.93v-.39l-.64,0a2.42,2.42,0,0,0-1.12.24.71.71,0,0,0-.34.66.66.66,0,0,0,.21.53A.85.85,0,0,0,153.48,81.48Z"/><path class="cls-1" d="M158.75,77.58a1.61,1.61,0,0,1,1.31.58,2.53,2.53,0,0,1,.47,1.63,2.58,2.58,0,0,1-.47,1.64,1.59,1.59,0,0,1-1.31.58,1.87,1.87,0,0,1-.76-.15,1.34,1.34,0,0,1-.58-.48h0l-.14.55h-.46V75.86h.65v1.47c0,.33,0,.63,0,.89h0A1.55,1.55,0,0,1,158.75,77.58Zm-.09.55a1.11,1.11,0,0,0-1,.38,2.1,2.1,0,0,0-.29,1.28,2.15,2.15,0,0,0,.3,1.29,1.13,1.13,0,0,0,1,.39,1,1,0,0,0,.89-.44,2.18,2.18,0,0,0,.3-1.25,2.1,2.1,0,0,0-.3-1.24A1,1,0,0,0,158.66,78.13Z"/><path class="cls-1" d="M162.31,81.93h-.65V75.86h.65Z"/><path class="cls-1" d="M165.49,82a2,2,0,0,1-1.5-.58,2.25,2.25,0,0,1-.54-1.6,2.5,2.5,0,0,1,.51-1.65,1.69,1.69,0,0,1,1.36-.6,1.62,1.62,0,0,1,1.28.52,2.06,2.06,0,0,1,.47,1.4v.41h-2.95a1.71,1.71,0,0,0,.38,1.15,1.32,1.32,0,0,0,1,.39,3.46,3.46,0,0,0,1.36-.29v.58a3.06,3.06,0,0,1-.65.21A3.88,3.88,0,0,1,165.49,82Zm-.17-3.89a1.08,1.08,0,0,0-.83.33,1.63,1.63,0,0,0-.36.93h2.24a1.46,1.46,0,0,0-.27-.94A1,1,0,0,0,165.32,78.12Z"/><path class="cls-1" d="M48.67,91a2,2,0,0,1-1.5-.58,2.25,2.25,0,0,1-.54-1.6,2.5,2.5,0,0,1,.51-1.65,1.69,1.69,0,0,1,1.36-.6,1.62,1.62,0,0,1,1.28.52,2.06,2.06,0,0,1,.47,1.4v.41h-3a1.71,1.71,0,0,0,.38,1.15,1.32,1.32,0,0,0,1,.39,3.46,3.46,0,0,0,1.36-.29v.58a3.06,3.06,0,0,1-.65.21A3.88,3.88,0,0,1,48.67,91Zm-.17-3.89a1.08,1.08,0,0,0-.83.33,1.63,1.63,0,0,0-.36.93h2.24a1.46,1.46,0,0,0-.27-.94A1,1,0,0,0,48.5,87.12Z"/><path class="cls-1" d="M54.28,90.93V88.17a1.15,1.15,0,0,0-.24-.79,1,1,0,0,0-.74-.25,1.25,1.25,0,0,0-1,.36,1.82,1.82,0,0,0-.31,1.2v2.24h-.65V86.65h.53l.1.59h0a1.31,1.31,0,0,1,.55-.49,1.78,1.78,0,0,1,.81-.17,1.62,1.62,0,0,1,1.16.37,1.58,1.58,0,0,1,.39,1.19v2.79Z"/><path class="cls-1" d="M58.07,91a2,2,0,0,1-1.5-.58,2.25,2.25,0,0,1-.55-1.6,2.5,2.5,0,0,1,.51-1.65,1.71,1.71,0,0,1,1.37-.6,1.64,1.64,0,0,1,1.28.52,2.06,2.06,0,0,1,.46,1.4v.41H56.7a1.71,1.71,0,0,0,.38,1.15,1.31,1.31,0,0,0,1,.39,3.48,3.48,0,0,0,1.37-.29v.58a3.06,3.06,0,0,1-.65.21A3.88,3.88,0,0,1,58.07,91Zm-.18-3.89a1.08,1.08,0,0,0-.82.33,1.63,1.63,0,0,0-.36.93H59a1.46,1.46,0,0,0-.27-.94A1,1,0,0,0,57.89,87.12Z"/><path class="cls-1" d="M62.7,86.58a2.82,2.82,0,0,1,.52,0l-.09.6a2.15,2.15,0,0,0-.47,0,1.13,1.13,0,0,0-.89.42,1.51,1.51,0,0,0-.37,1v2.29h-.65V86.65h.54l.07.8h0A1.85,1.85,0,0,1,62,86.8,1.26,1.26,0,0,1,62.7,86.58Z"/><path class="cls-1" d="M67.52,86.65v.41l-.79.1a1.62,1.62,0,0,1,.19.35A1.35,1.35,0,0,1,67,88a1.3,1.3,0,0,1-.43,1,1.74,1.74,0,0,1-1.18.37,2,2,0,0,1-.36,0,.63.63,0,0,0-.41.55.26.26,0,0,0,.14.26,1,1,0,0,0,.5.09H66a1.66,1.66,0,0,1,1.07.29,1,1,0,0,1,.38.85,1.21,1.21,0,0,1-.58,1.08,3,3,0,0,1-1.66.38,2.23,2.23,0,0,1-1.29-.32,1,1,0,0,1-.46-.88,1,1,0,0,1,.25-.67,1.3,1.3,0,0,1,.7-.39.67.67,0,0,1-.27-.23.59.59,0,0,1-.11-.36.74.74,0,0,1,.12-.42,1.38,1.38,0,0,1,.4-.33,1.17,1.17,0,0,1-.54-.47A1.53,1.53,0,0,1,64.24,87a1.69,1.69,0,0,1,1.19-.38,2.27,2.27,0,0,1,.61.07Zm-3.41,5a.57.57,0,0,0,.29.53,1.59,1.59,0,0,0,.84.18,2.39,2.39,0,0,0,1.21-.24.77.77,0,0,0,.39-.67.53.53,0,0,0-.21-.48,1.72,1.72,0,0,0-.81-.13H65a1,1,0,0,0-.69.21A.75.75,0,0,0,64.11,91.65ZM64.46,88a.86.86,0,0,0,.25.68,1,1,0,0,0,.71.23c.63,0,1-.3,1-.92a.85.85,0,0,0-1-1,1,1,0,0,0-.71.24A1,1,0,0,0,64.46,88Z"/><path class="cls-1" d="M67.72,86.65h.69l.94,2.44a8.61,8.61,0,0,1,.38,1.21h0c0-.13.1-.36.21-.68s.46-1.31,1.06-3h.69l-1.84,4.88a2.42,2.42,0,0,1-.63,1,1.35,1.35,0,0,1-.9.31,2.38,2.38,0,0,1-.59-.07v-.52a2.44,2.44,0,0,0,.48,0,1,1,0,0,0,1-.75l.24-.61Z"/><path class="cls-1" d="M76.5,91a1.87,1.87,0,0,1-.76-.15,1.34,1.34,0,0,1-.58-.48h0a6.07,6.07,0,0,1,0,.71v1.77h-.65V86.65H75l.09.59h0a1.56,1.56,0,0,1,.58-.51,1.81,1.81,0,0,1,.76-.15,1.55,1.55,0,0,1,1.31.58,2.55,2.55,0,0,1,.47,1.63,2.58,2.58,0,0,1-.47,1.64A1.59,1.59,0,0,1,76.5,91Zm-.09-3.88a1.15,1.15,0,0,0-1,.36,1.81,1.81,0,0,0-.3,1.16v.14a2.15,2.15,0,0,0,.3,1.29,1.13,1.13,0,0,0,1,.39,1,1,0,0,0,.87-.45,2.13,2.13,0,0,0,.32-1.24,2.07,2.07,0,0,0-.32-1.23A1,1,0,0,0,76.41,87.13Z"/><path class="cls-1" d="M81.36,86.58a2.82,2.82,0,0,1,.52,0l-.09.6a2.15,2.15,0,0,0-.47,0,1.13,1.13,0,0,0-.89.42,1.51,1.51,0,0,0-.37,1v2.29h-.65V86.65H80l.07.8h0a1.85,1.85,0,0,1,.58-.65A1.28,1.28,0,0,1,81.36,86.58Z"/><path class="cls-1" d="M86.37,88.79a2.3,2.3,0,0,1-.53,1.63,1.81,1.81,0,0,1-1.45.59,1.89,1.89,0,0,1-1-.27,1.73,1.73,0,0,1-.69-.77,2.73,2.73,0,0,1-.24-1.18A2.35,2.35,0,0,1,83,87.16a1.84,1.84,0,0,1,1.45-.58,1.8,1.8,0,0,1,1.43.59A2.38,2.38,0,0,1,86.37,88.79Zm-3.26,0A2,2,0,0,0,83.44,90a1.3,1.3,0,0,0,1.93,0,2.51,2.51,0,0,0,0-2.49,1.34,1.34,0,0,0-1.94,0A2.07,2.07,0,0,0,83.11,88.79Z"/><path class="cls-1" d="M87,92.86a1.63,1.63,0,0,1-.6-.1v-.53a2,2,0,0,0,.53.08.55.55,0,0,0,.45-.17.78.78,0,0,0,.14-.5v-5h.65v4.94C88.16,92.43,87.77,92.86,87,92.86Zm.46-7.37a.43.43,0,0,1,.11-.32.41.41,0,0,1,.28-.11.4.4,0,0,1,.27.11.44.44,0,0,1,.11.32.45.45,0,0,1-.11.33.4.4,0,0,1-.27.11.41.41,0,0,1-.28-.11A.45.45,0,0,1,87.45,85.49Z"/><path class="cls-1" d="M91.34,91a2,2,0,0,1-1.5-.58,2.25,2.25,0,0,1-.55-1.6,2.5,2.5,0,0,1,.51-1.65,1.71,1.71,0,0,1,1.37-.6,1.64,1.64,0,0,1,1.28.52,2.06,2.06,0,0,1,.46,1.4v.41H90a1.66,1.66,0,0,0,.38,1.15,1.31,1.31,0,0,0,1,.39,3.51,3.51,0,0,0,1.37-.29v.58a3.25,3.25,0,0,1-.65.21A3.88,3.88,0,0,1,91.34,91Zm-.18-3.89a1.08,1.08,0,0,0-.82.33,1.63,1.63,0,0,0-.36.93h2.24a1.46,1.46,0,0,0-.27-.94A1,1,0,0,0,91.16,87.12Z"/><path class="cls-1" d="M95.73,91a1.83,1.83,0,0,1-1.44-.57,2.35,2.35,0,0,1-.51-1.62,2.41,2.41,0,0,1,.52-1.66,1.86,1.86,0,0,1,1.47-.58,3.26,3.26,0,0,1,.62.06,2.34,2.34,0,0,1,.49.16l-.2.55a2.33,2.33,0,0,0-.47-.14,2,2,0,0,0-.45-.06c-.87,0-1.31.55-1.31,1.66A2,2,0,0,0,94.77,90a1.1,1.1,0,0,0,1,.43,2.92,2.92,0,0,0,1.09-.23v.57A2.28,2.28,0,0,1,95.73,91Z"/><path class="cls-1" d="M99.21,90.48a1.69,1.69,0,0,0,.33,0,1.33,1.33,0,0,0,.26,0v.5a1.37,1.37,0,0,1-.31.08l-.37,0c-.83,0-1.24-.43-1.24-1.31V87.16h-.62v-.32l.62-.26.27-.92h.37v1h1.25v.51H98.52v2.52a.84.84,0,0,0,.19.59A.63.63,0,0,0,99.21,90.48Z"/><path class="cls-1" d="M103.41,89.77a1.06,1.06,0,0,1-.44.92,2.07,2.07,0,0,1-1.25.32,2.72,2.72,0,0,1-1.33-.27v-.6a3.09,3.09,0,0,0,.66.25,2.83,2.83,0,0,0,.68.09,1.7,1.7,0,0,0,.79-.16.55.55,0,0,0,.27-.5.54.54,0,0,0-.22-.43,3.92,3.92,0,0,0-.84-.42,4.22,4.22,0,0,1-.85-.38,1.25,1.25,0,0,1-.38-.38,1,1,0,0,1-.12-.51,1,1,0,0,1,.43-.82,2,2,0,0,1,1.16-.3,3.37,3.37,0,0,1,1.35.28l-.23.52a3.23,3.23,0,0,0-1.16-.26,1.44,1.44,0,0,0-.7.14.44.44,0,0,0-.23.4.52.52,0,0,0,.08.29.78.78,0,0,0,.29.23,5.4,5.4,0,0,0,.75.32,2.84,2.84,0,0,1,1,.56A1,1,0,0,1,103.41,89.77Z"/><path class="cls-1" d="M110,90.93l-.78-2.51c-.05-.15-.14-.5-.28-1h0c-.1.45-.2.8-.27,1.05l-.81,2.5h-.75L106,86.65h.68c.27,1.08.49,1.9.63,2.46a10.67,10.67,0,0,1,.25,1.14h0c0-.15.07-.34.14-.58s.12-.42.16-.56l.79-2.46h.7l.77,2.46a8.58,8.58,0,0,1,.29,1.13h0a2.94,2.94,0,0,1,.08-.43l.81-3.16H112l-1.19,4.28Z"/><path class="cls-1" d="M112.72,85.49a.42.42,0,0,1,.1-.32.41.41,0,0,1,.28-.11.4.4,0,0,1,.27.11.44.44,0,0,1,.11.32.45.45,0,0,1-.11.33.4.4,0,0,1-.27.11.41.41,0,0,1-.28-.11A.45.45,0,0,1,112.72,85.49Zm.7,5.44h-.65V86.65h.65Z"/><path class="cls-1" d="M116.18,90.48a1.84,1.84,0,0,0,.33,0l.25,0v.5a1.23,1.23,0,0,1-.31.08l-.37,0c-.83,0-1.24-.43-1.24-1.31V87.16h-.61v-.32l.61-.26.27-.92h.38v1h1.24v.51h-1.24v2.52a.89.89,0,0,0,.18.59A.64.64,0,0,0,116.18,90.48Z"/><path class="cls-1" d="M120.55,90.93V88.17a1.15,1.15,0,0,0-.24-.79,1,1,0,0,0-.75-.25,1.21,1.21,0,0,0-1,.36,1.87,1.87,0,0,0-.31,1.21v2.23h-.65V84.86h.65V86.7a2.88,2.88,0,0,1,0,.55h0a1.31,1.31,0,0,1,.55-.49,1.73,1.73,0,0,1,.81-.18,1.63,1.63,0,0,1,1.17.38,1.57,1.57,0,0,1,.4,1.18v2.79Z"/><path class="cls-2" d="M59.44,59.9a5,5,0,0,1-1.85,4.17,8.33,8.33,0,0,1-5.29,1.46H50.2v7H48.12V54.7h4.63C57.21,54.7,59.44,56.44,59.44,59.9ZM50.2,63.75h1.87a7,7,0,0,0,4-.89A3.3,3.3,0,0,0,57.29,60a3.06,3.06,0,0,0-1.16-2.63,6,6,0,0,0-3.61-.87H50.2Z"/><path class="cls-2" d="M76.73,72.55H74.65v-8.4h-9.4v8.4H63.18V54.7h2.07v7.6h9.4V54.7h2.08Z"/><path class="cls-2" d="M92.94,59.9a5,5,0,0,1-1.85,4.17,8.36,8.36,0,0,1-5.3,1.46h-2.1v7H81.62V54.7h4.63C90.71,54.7,92.94,56.44,92.94,59.9Zm-9.25,3.85h1.87a7,7,0,0,0,4-.89A3.28,3.28,0,0,0,90.79,60a3.06,3.06,0,0,0-1.16-2.63A6.07,6.07,0,0,0,86,56.5H83.69Z"/><path class="cls-2" d="M108,68.45h-2.65v4.1h-1.94v-4.1H94.74V66.68l8.47-12.07h2.15v12H108Zm-4.59-1.84V60.67c0-1.16,0-2.47.12-3.94h-.09a18.36,18.36,0,0,1-1.1,1.94l-5.58,7.94Z"/><path class="cls-2" d="M120.79,58.9a4.09,4.09,0,0,1-1,2.8,4.79,4.79,0,0,1-2.71,1.45v.1a5.06,5.06,0,0,1,3.18,1.37,4,4,0,0,1,1,2.88,4.66,4.66,0,0,1-1.77,3.92,8,8,0,0,1-5,1.38,14.72,14.72,0,0,1-2.59-.22,8.66,8.66,0,0,1-2.29-.75V69.9a10.34,10.34,0,0,0,2.47.87,11.19,11.19,0,0,0,2.49.3c3.08,0,4.62-1.2,4.62-3.62q0-3.26-5.1-3.25h-1.76V62.46h1.78a5.31,5.31,0,0,0,3.31-.93A3,3,0,0,0,118.69,59a2.53,2.53,0,0,0-.89-2,3.69,3.69,0,0,0-2.44-.75,7.57,7.57,0,0,0-2.21.32,9.89,9.89,0,0,0-2.37,1.17l-1-1.37a8.64,8.64,0,0,1,2.53-1.36,9.19,9.19,0,0,1,3-.49,6.14,6.14,0,0,1,4,1.19A4,4,0,0,1,120.79,58.9Z"/><path class="cls-2" d="M124.66,71.26A1.85,1.85,0,0,1,125,70a1.36,1.36,0,0,1,1.07-.42,1.47,1.47,0,0,1,1.11.42,1.76,1.76,0,0,1,.39,1.24,1.71,1.71,0,0,1-.4,1.22,1.45,1.45,0,0,1-1.1.43,1.44,1.44,0,0,1-1-.39A1.69,1.69,0,0,1,124.66,71.26Z"/><path class="cls-2" d="M143.25,68.45H140.6v4.1h-1.94v-4.1H130V66.68l8.48-12.07h2.14v12h2.65Zm-4.59-1.84V60.67c0-1.16,0-2.47.13-3.94h-.1a18.36,18.36,0,0,1-1.1,1.94L132,66.61Z"/><path class="cls-2" d="M152.13,59a5,5,0,0,1,4.09,1.8,7.86,7.86,0,0,1,1.46,5.1A8,8,0,0,1,156.21,71a4.94,4.94,0,0,1-4.08,1.83,5.84,5.84,0,0,1-2.39-.49,4.45,4.45,0,0,1-1.81-1.48h-.15l-.43,1.72H145.9v-19h2v4.61c0,1,0,2-.1,2.78h.1A4.81,4.81,0,0,1,152.13,59Zm-.3,1.7a3.55,3.55,0,0,0-3,1.19,6.71,6.71,0,0,0-.91,4,6.66,6.66,0,0,0,.94,4,3.56,3.56,0,0,0,3,1.22,3.15,3.15,0,0,0,2.79-1.36,7,7,0,0,0,.91-3.91,6.74,6.74,0,0,0-.91-3.9A3.27,3.27,0,0,0,151.83,60.65Z"/><path class="cls-2" d="M170.38,72.55V63.9a3.46,3.46,0,0,0-.75-2.44,3,3,0,0,0-2.33-.81,3.85,3.85,0,0,0-3.07,1.13,5.69,5.69,0,0,0-1,3.75v7h-2V59.17h1.65L163.2,61h.1A4.06,4.06,0,0,1,165,59.47a5.74,5.74,0,0,1,2.51-.54,5.09,5.09,0,0,1,3.63,1.16,4.94,4.94,0,0,1,1.22,3.73v8.73Z"/><path class="cls-1" d="M128.3,113.71a1.69,1.69,0,0,0,.33,0l.26-.05v.49a1,1,0,0,1-.31.09l-.37,0c-.83,0-1.24-.43-1.24-1.31v-2.54h-.62v-.32l.62-.27.27-.91h.37v1h1.25v.51h-1.25v2.52a.89.89,0,0,0,.19.59A.63.63,0,0,0,128.3,113.71Z"/><path class="cls-1" d="M133.44,112a2.35,2.35,0,0,1-.53,1.63,1.84,1.84,0,0,1-1.46.59,1.94,1.94,0,0,1-1-.27,1.82,1.82,0,0,1-.68-.77,2.73,2.73,0,0,1-.24-1.18,2.35,2.35,0,0,1,.52-1.63,1.85,1.85,0,0,1,1.45-.59,1.81,1.81,0,0,1,1.43.6A2.38,2.38,0,0,1,133.44,112Zm-3.26,0a2,2,0,0,0,.33,1.25,1.12,1.12,0,0,0,1,.43,1.15,1.15,0,0,0,1-.43,2,2,0,0,0,.33-1.25,2,2,0,0,0-.33-1.24,1.18,1.18,0,0,0-1-.43,1.15,1.15,0,0,0-1,.42A2,2,0,0,0,130.18,112Z"/><path class="cls-1" d="M136,113.71a1.84,1.84,0,0,0,.33,0l.25-.05v.49a.89.89,0,0,1-.31.09l-.37,0c-.82,0-1.24-.43-1.24-1.31v-2.54H134v-.32l.61-.27.28-.91h.37v1h1.24v.51h-1.24v2.52a.89.89,0,0,0,.18.59A.65.65,0,0,0,136,113.71Z"/><path class="cls-1" d="M140,114.16l-.13-.61h0a1.76,1.76,0,0,1-.64.55,2,2,0,0,1-.79.14,1.42,1.42,0,0,1-1-.33,1.2,1.2,0,0,1-.36-.93c0-.86.69-1.32,2.07-1.36l.73,0v-.27a1.06,1.06,0,0,0-.22-.74.87.87,0,0,0-.69-.24,2.91,2.91,0,0,0-1.21.32l-.2-.49a2.61,2.61,0,0,1,.69-.27,2.84,2.84,0,0,1,.76-.1,1.59,1.59,0,0,1,1.13.34,1.41,1.41,0,0,1,.37,1.09v2.92Zm-1.46-.45a1.29,1.29,0,0,0,1-.34,1.22,1.22,0,0,0,.34-.93v-.38l-.64,0a2.19,2.19,0,0,0-1.12.24.71.71,0,0,0-.34.66.66.66,0,0,0,.21.53A.85.85,0,0,0,138.57,113.71Z"/><path class="cls-1" d="M142.5,114.16h-.65v-6.07h.65Z"/><path class="cls-1" d="M145.9,108.72a.39.39,0,0,1,.11-.32.37.37,0,0,1,.27-.11.4.4,0,0,1,.27.11.44.44,0,0,1,.11.32.45.45,0,0,1-.11.33.4.4,0,0,1-.27.11.37.37,0,0,1-.27-.11A.41.41,0,0,1,145.9,108.72Zm.7,5.44H146v-4.28h.65Z"/><path class="cls-1" d="M150.9,114.16v-2.77a1.17,1.17,0,0,0-.23-.78,1,1,0,0,0-.75-.26,1.25,1.25,0,0,0-1,.37,1.88,1.88,0,0,0-.31,1.2v2.24H148v-4.28h.53l.11.59h0a1.28,1.28,0,0,1,.56-.49,1.74,1.74,0,0,1,.8-.18,1.62,1.62,0,0,1,1.16.38,1.58,1.58,0,0,1,.39,1.19v2.79Z"/><path class="cls-1" d="M155.65,113a1.08,1.08,0,0,1-.45.92,2.14,2.14,0,0,1-1.25.32,2.72,2.72,0,0,1-1.33-.27v-.6a3.74,3.74,0,0,0,.66.25,2.84,2.84,0,0,0,.69.09,1.56,1.56,0,0,0,.78-.17.56.56,0,0,0,.05-.92,3.15,3.15,0,0,0-.84-.42,4.75,4.75,0,0,1-.85-.39,1.22,1.22,0,0,1-.38-.37,1,1,0,0,1-.12-.51.94.94,0,0,1,.43-.82,2,2,0,0,1,1.16-.31,3.39,3.39,0,0,1,1.36.29l-.23.52a3.23,3.23,0,0,0-1.17-.26,1.44,1.44,0,0,0-.7.14.46.46,0,0,0-.23.4.46.46,0,0,0,.09.29.75.75,0,0,0,.28.23,5.4,5.4,0,0,0,.75.32,2.84,2.84,0,0,1,1,.56A1,1,0,0,1,155.65,113Z"/><path class="cls-1" d="M158.08,113.71a1.87,1.87,0,0,0,.34,0l.25-.05v.49a.89.89,0,0,1-.31.09l-.37,0c-.83,0-1.24-.43-1.24-1.31v-2.54h-.62v-.32l.62-.27.27-.91h.38v1h1.24v.51H157.4v2.52a.89.89,0,0,0,.18.59A.63.63,0,0,0,158.08,113.71Z"/><path class="cls-1" d="M162.16,114.16l-.13-.61h0a1.94,1.94,0,0,1-.64.55,2,2,0,0,1-.8.14,1.41,1.41,0,0,1-1-.33,1.17,1.17,0,0,1-.37-.93c0-.86.7-1.32,2.08-1.36l.73,0v-.27a1.11,1.11,0,0,0-.22-.74.9.9,0,0,0-.69-.24,3,3,0,0,0-1.22.32l-.2-.49a2.82,2.82,0,0,1,.7-.27,2.76,2.76,0,0,1,.75-.1,1.64,1.64,0,0,1,1.14.34,1.41,1.41,0,0,1,.37,1.09v2.92Zm-1.47-.45a1.27,1.27,0,0,0,.95-.34,1.23,1.23,0,0,0,.35-.93v-.38l-.65,0a2.15,2.15,0,0,0-1.11.24.72.72,0,0,0-.35.66.64.64,0,0,0,.22.53A.84.84,0,0,0,160.69,113.71Z"/><path class="cls-1" d="M164.62,114.16H164v-6.07h.65Z"/><path class="cls-1" d="M166.65,114.16H166v-6.07h.65Z"/><path class="cls-1" d="M169.83,114.24a2,2,0,0,1-1.5-.58,2.25,2.25,0,0,1-.55-1.6,2.5,2.5,0,0,1,.51-1.65,1.72,1.72,0,0,1,1.37-.61,1.61,1.61,0,0,1,1.27.53,2,2,0,0,1,.47,1.4v.41h-3a1.68,1.68,0,0,0,.39,1.14,1.28,1.28,0,0,0,1,.39,3.5,3.5,0,0,0,1.37-.28V114a4.16,4.16,0,0,1-.65.22A4,4,0,0,1,169.83,114.24Zm-.18-3.89a1.08,1.08,0,0,0-.82.33,1.63,1.63,0,0,0-.36.93h2.24a1.39,1.39,0,0,0-.28-.94A1,1,0,0,0,169.65,110.35Z"/><path class="cls-1" d="M175.42,113.59h0a1.54,1.54,0,0,1-1.35.65,1.58,1.58,0,0,1-1.3-.57,3.1,3.1,0,0,1,0-3.28,1.58,1.58,0,0,1,1.3-.59,1.55,1.55,0,0,1,1.34.64h.05l0-.31v-2H176v6.07h-.53Zm-1.29.11a1.18,1.18,0,0,0,1-.36,1.82,1.82,0,0,0,.3-1.17V112a2.15,2.15,0,0,0-.3-1.29,1.17,1.17,0,0,0-1-.39,1,1,0,0,0-.87.44,2.69,2.69,0,0,0,0,2.49A1,1,0,0,0,174.13,113.7Z"/><path class="cls-1" d="M181.2,114.24a1.83,1.83,0,0,1-1.44-.57,2.35,2.35,0,0,1-.51-1.62,2.39,2.39,0,0,1,.52-1.66,1.85,1.85,0,0,1,1.47-.59,3.27,3.27,0,0,1,.62.07,2.34,2.34,0,0,1,.49.16l-.2.55a3.23,3.23,0,0,0-.47-.15,2.68,2.68,0,0,0-.45-.05c-.87,0-1.31.55-1.31,1.66a2,2,0,0,0,.32,1.21,1.11,1.11,0,0,0,.94.42,2.75,2.75,0,0,0,1.1-.23V114A2.28,2.28,0,0,1,181.2,114.24Z"/><path class="cls-1" d="M185.93,114.16l-.13-.61h0a1.85,1.85,0,0,1-.64.55,2,2,0,0,1-.79.14,1.42,1.42,0,0,1-1-.33A1.2,1.2,0,0,1,183,113c0-.86.69-1.32,2.07-1.36l.73,0v-.27a1.06,1.06,0,0,0-.22-.74.87.87,0,0,0-.69-.24,2.91,2.91,0,0,0-1.21.32l-.2-.49a2.61,2.61,0,0,1,.69-.27,2.78,2.78,0,0,1,.76-.1,1.59,1.59,0,0,1,1.13.34,1.41,1.41,0,0,1,.37,1.09v2.92Zm-1.46-.45a1.29,1.29,0,0,0,.95-.34,1.22,1.22,0,0,0,.34-.93v-.38l-.65,0a2.17,2.17,0,0,0-1.11.24.71.71,0,0,0-.34.66.66.66,0,0,0,.21.53A.85.85,0,0,0,184.47,113.71Z"/><path class="cls-1" d="M189.74,114.24a1.87,1.87,0,0,1-.76-.15,1.42,1.42,0,0,1-.58-.48h-.05a6.07,6.07,0,0,1,.05.71v1.77h-.65v-6.21h.52l.09.59h0A1.4,1.4,0,0,1,189,110a1.81,1.81,0,0,1,.76-.16,1.56,1.56,0,0,1,1.31.59,2.53,2.53,0,0,1,.47,1.63,2.58,2.58,0,0,1-.47,1.64A1.59,1.59,0,0,1,189.74,114.24Zm-.09-3.89a1.15,1.15,0,0,0-1,.37,1.8,1.8,0,0,0-.3,1.15V112a2.15,2.15,0,0,0,.3,1.29,1.13,1.13,0,0,0,1,.39,1,1,0,0,0,.87-.45,2.13,2.13,0,0,0,.32-1.24,2.07,2.07,0,0,0-.32-1.23A1,1,0,0,0,189.65,110.35Z"/><path class="cls-1" d="M195.28,114.16l-.13-.61h0a1.76,1.76,0,0,1-.64.55,2,2,0,0,1-.79.14,1.42,1.42,0,0,1-1-.33,1.2,1.2,0,0,1-.36-.93c0-.86.69-1.32,2.07-1.36l.73,0v-.27a1.06,1.06,0,0,0-.22-.74.87.87,0,0,0-.69-.24,2.91,2.91,0,0,0-1.21.32l-.2-.49a2.61,2.61,0,0,1,.69-.27,2.84,2.84,0,0,1,.76-.1,1.59,1.59,0,0,1,1.13.34,1.41,1.41,0,0,1,.37,1.09v2.92Zm-1.46-.45a1.29,1.29,0,0,0,1-.34,1.22,1.22,0,0,0,.34-.93v-.38l-.64,0a2.19,2.19,0,0,0-1.12.24.71.71,0,0,0-.34.66.66.66,0,0,0,.21.53A.85.85,0,0,0,193.82,113.71Z"/><path class="cls-1" d="M198.81,114.24a1.83,1.83,0,0,1-1.44-.57,2.35,2.35,0,0,1-.51-1.62,2.39,2.39,0,0,1,.52-1.66,1.85,1.85,0,0,1,1.47-.59,3.27,3.27,0,0,1,.62.07,2,2,0,0,1,.48.16l-.19.55a3.23,3.23,0,0,0-.47-.15,2.68,2.68,0,0,0-.45-.05c-.87,0-1.31.55-1.31,1.66a2,2,0,0,0,.32,1.21,1.11,1.11,0,0,0,.94.42,2.75,2.75,0,0,0,1.1-.23V114A2.34,2.34,0,0,1,198.81,114.24Z"/><path class="cls-1" d="M200.85,108.72a.43.43,0,0,1,.11-.32.39.39,0,0,1,.28-.11.4.4,0,0,1,.27.11.44.44,0,0,1,.11.32.45.45,0,0,1-.11.33.4.4,0,0,1-.27.11.39.39,0,0,1-.28-.11A.45.45,0,0,1,200.85,108.72Zm.71,5.44h-.65v-4.28h.65Z"/><path class="cls-1" d="M204.31,113.71a1.87,1.87,0,0,0,.34,0l.25-.05v.49a.89.89,0,0,1-.31.09l-.37,0c-.83,0-1.24-.43-1.24-1.31v-2.54h-.62v-.32l.62-.27.27-.91h.38v1h1.24v.51h-1.24v2.52a.89.89,0,0,0,.18.59A.63.63,0,0,0,204.31,113.71Z"/><path class="cls-1" d="M205.08,109.88h.69l.94,2.44a10.25,10.25,0,0,1,.38,1.21h0c0-.13.11-.36.22-.68s.46-1.31,1.06-3h.69l-1.84,4.88a2.33,2.33,0,0,1-.64,1,1.36,1.36,0,0,1-.89.31,2.88,2.88,0,0,1-.59-.07v-.52a2.28,2.28,0,0,0,.48,0,1,1,0,0,0,.95-.75l.24-.61Z"/><path class="cls-2" d="M138.68,104.78H127V103l4.7-4.72a35.57,35.57,0,0,0,2.83-3.1,8.15,8.15,0,0,0,1-1.81,5.08,5.08,0,0,0,.35-1.89,3,3,0,0,0-.87-2.26,3.32,3.32,0,0,0-2.41-.84,5.88,5.88,0,0,0-2.1.37,8.1,8.1,0,0,0-2.22,1.33l-1.07-1.38a8.2,8.2,0,0,1,5.37-2A5.7,5.7,0,0,1,136.49,88a4.45,4.45,0,0,1,1.43,3.46,6.7,6.7,0,0,1-.95,3.36A21.45,21.45,0,0,1,133.4,99l-3.9,3.82v.1h9.18Z"/><path class="cls-2" d="M144.29,101.87l.19.29c-.22.81-.52,1.76-.92,2.83s-.81,2.08-1.25,3h-1.52c.22-.84.46-1.89.73-3.13s.44-2.25.55-3Z"/><path class="cls-2" d="M154.88,104.78h-2V92.06c0-1.06,0-2.06.1-3-.18.17-.37.35-.58.53s-1.18,1-2.9,2.38l-1.08-1.39,4.73-3.65h1.71Z"/><path class="cls-2" d="M161.87,97.15q0-5.27,2-7.87a7.25,7.25,0,0,1,6.05-2.6,7.92,7.92,0,0,1,2.18.23v1.74a7.11,7.11,0,0,0-2.15-.3,5.41,5.41,0,0,0-4.38,1.79c-1,1.19-1.57,3.06-1.66,5.62h.14a4.68,4.68,0,0,1,4.25-2.1,5,5,0,0,1,3.79,1.45,5.49,5.49,0,0,1,1.39,3.94,6.09,6.09,0,0,1-1.52,4.38,5.44,5.44,0,0,1-4.11,1.59,5.29,5.29,0,0,1-4.4-2.08A9.23,9.23,0,0,1,161.87,97.15Zm6,6.15a3.4,3.4,0,0,0,2.7-1.09,4.7,4.7,0,0,0,.95-3.16,4.06,4.06,0,0,0-.89-2.78,3.37,3.37,0,0,0-2.66-1,4.49,4.49,0,0,0-2,.45A3.71,3.71,0,0,0,164.49,97,2.84,2.84,0,0,0,164,98.6a5.78,5.78,0,0,0,.48,2.35,4.16,4.16,0,0,0,1.39,1.72A3.47,3.47,0,0,0,167.86,103.3Z"/><path class="cls-2" d="M181.87,86.68a6,6,0,0,1,3.86,1.13A3.77,3.77,0,0,1,187.16,91a3.91,3.91,0,0,1-.81,2.4,7.16,7.16,0,0,1-2.62,2,8.76,8.76,0,0,1,3.09,2.18,4.1,4.1,0,0,1,.92,2.64,4.44,4.44,0,0,1-1.55,3.55,6.36,6.36,0,0,1-4.25,1.32,6.78,6.78,0,0,1-4.4-1.25,4.3,4.3,0,0,1-1.53-3.54q0-3.08,3.73-4.78a7,7,0,0,1-2.42-2,4.45,4.45,0,0,1-.73-2.48A3.76,3.76,0,0,1,178,87.83,5.92,5.92,0,0,1,181.87,86.68ZM178,100.28a2.77,2.77,0,0,0,1,2.28,4.49,4.49,0,0,0,2.86.82,4.25,4.25,0,0,0,2.83-.86,2.88,2.88,0,0,0,1-2.34,2.85,2.85,0,0,0-.95-2.11,9.77,9.77,0,0,0-3.32-1.79A7.17,7.17,0,0,0,178.83,98,3.34,3.34,0,0,0,178,100.28Zm3.83-12a3.58,3.58,0,0,0-2.39.74,2.43,2.43,0,0,0-.87,2,2.8,2.8,0,0,0,.72,1.93A7.55,7.55,0,0,0,182,94.55,6.61,6.61,0,0,0,184.43,93a2.92,2.92,0,0,0,.73-2,2.41,2.41,0,0,0-.88-2A3.78,3.78,0,0,0,181.84,88.32Z"/><path class="cls-2" d="M205.88,104.78,199.82,89h-.1c.12,1.25.17,2.74.17,4.47v11.35H198V86.93h3.12l5.66,14.72h.09l5.7-14.72h3.1v17.85h-2.07V93.28c0-1.32.06-2.75.17-4.3h-.1l-6.1,15.8Z"/><path class="cls-2" d="M236.13,104.78h-2.06l-3.6-12c-.17-.53-.36-1.2-.57-2a12.3,12.3,0,0,1-.33-1.46,27.49,27.49,0,0,1-.85,3.53l-3.49,11.88h-2.06l-4.74-17.85h2.19l2.82,11a40.87,40.87,0,0,1,.86,4.2,30.38,30.38,0,0,1,1-4.37l3.2-10.86h2.2L234,97.88a33.58,33.58,0,0,1,1,4.28,35.54,35.54,0,0,1,.87-4.23l2.81-11h2.2Z"/><rect class="cls-2" y="0.52" width="77.13" height="44.23"/><path class="cls-3" d="M19.63,17.55H23v4.87a12.56,12.56,0,0,1-1.61.38,13.19,13.19,0,0,1-1.9.13A4.62,4.62,0,0,1,16,21.58a5.34,5.34,0,0,1-1.26-3.79,5.82,5.82,0,0,1,.62-2.73,4.23,4.23,0,0,1,1.81-1.79,5.84,5.84,0,0,1,2.75-.62,7.55,7.55,0,0,1,3,.59l-.45,1a6.53,6.53,0,0,0-2.6-.58A3.7,3.7,0,0,0,17,14.78a4.18,4.18,0,0,0-1,3,4.29,4.29,0,0,0,1,3.07,3.79,3.79,0,0,0,2.9,1.05,8.61,8.61,0,0,0,2-.24V18.59H19.63Z"/><path class="cls-3" d="M28.68,15.16a4.74,4.74,0,0,1,.89.08l-.15,1.06a3.87,3.87,0,0,0-.82-.11,2,2,0,0,0-1.56.74,2.7,2.7,0,0,0-.65,1.84v4H25.26V15.3h.94l.13,1.39h.05a3.19,3.19,0,0,1,1-1.13A2.21,2.21,0,0,1,28.68,15.16Z"/><path class="cls-3" d="M34.14,22.93a3.45,3.45,0,0,1-2.62-1,3.93,3.93,0,0,1-1-2.81,4.31,4.31,0,0,1,.89-2.88,3,3,0,0,1,2.4-1.07,2.8,2.8,0,0,1,2.22.93,3.53,3.53,0,0,1,.82,2.44v.72H31.73a3,3,0,0,0,.67,2,2.3,2.3,0,0,0,1.78.69,6,6,0,0,0,2.39-.51v1a5.86,5.86,0,0,1-1.14.38A6.67,6.67,0,0,1,34.14,22.93Zm-.31-6.82a1.87,1.87,0,0,0-1.44.59,2.72,2.72,0,0,0-.63,1.63h3.92a2.5,2.5,0,0,0-.48-1.65A1.7,1.7,0,0,0,33.83,16.11Z"/><path class="cls-3" d="M42,22.93a3.46,3.46,0,0,1-2.62-1,3.93,3.93,0,0,1-1-2.81,4.37,4.37,0,0,1,.89-2.88,3,3,0,0,1,2.4-1.07,2.83,2.83,0,0,1,2.23.93,3.53,3.53,0,0,1,.82,2.44v.72H39.59a2.94,2.94,0,0,0,.66,2,2.32,2.32,0,0,0,1.79.69,6,6,0,0,0,2.39-.51v1a5.86,5.86,0,0,1-1.14.38A6.85,6.85,0,0,1,42,22.93Zm-.3-6.82a1.87,1.87,0,0,0-1.44.59,2.66,2.66,0,0,0-.63,1.63h3.91a2.5,2.5,0,0,0-.48-1.65A1.68,1.68,0,0,0,41.69,16.11Z"/><path class="cls-3" d="M51.81,22.79V17.94a1.93,1.93,0,0,0-.42-1.36,1.68,1.68,0,0,0-1.3-.45,2.14,2.14,0,0,0-1.72.63,3.2,3.2,0,0,0-.55,2.1v3.93H46.68V15.3h.93l.18,1h.06a2.3,2.3,0,0,1,1-.85,3.11,3.11,0,0,1,1.41-.31,2.8,2.8,0,0,1,2,.66A2.74,2.74,0,0,1,53,17.9v4.89Z"/><path class="cls-3" d="M16.4,36.45H15.24v-10h5.57v1H16.4v3.66h4.14v1H16.4Z"/><path class="cls-3" d="M22.2,26.92a.74.74,0,0,1,.19-.57.68.68,0,0,1,.48-.18.64.64,0,0,1,.47.19.73.73,0,0,1,.2.56.78.78,0,0,1-.2.58.67.67,0,0,1-.47.18.68.68,0,0,1-.48-.18A.78.78,0,0,1,22.2,26.92Zm1.23,9.53H22.29V29h1.14Z"/><path class="cls-3" d="M31,36.45V31.6a2,2,0,0,0-.42-1.37,1.68,1.68,0,0,0-1.3-.45,2.11,2.11,0,0,0-1.72.64,3.17,3.17,0,0,0-.55,2.1v3.93H25.83V29h.93l.18,1H27a2.26,2.26,0,0,1,1-.86,3.24,3.24,0,0,1,1.41-.3,2.84,2.84,0,0,1,2,.65,2.77,2.77,0,0,1,.69,2.09v4.89Z"/><path class="cls-3" d="M39,36.45l-.22-1.07h-.06a3,3,0,0,1-1.11.95,3.36,3.36,0,0,1-1.39.25A2.51,2.51,0,0,1,34.5,36a2.1,2.1,0,0,1-.63-1.63q0-2.28,3.63-2.38l1.27,0v-.47a1.9,1.9,0,0,0-.38-1.3,1.56,1.56,0,0,0-1.21-.42,4.93,4.93,0,0,0-2.12.57l-.35-.87A5.64,5.64,0,0,1,35.92,29a5.43,5.43,0,0,1,1.32-.17,2.84,2.84,0,0,1,2,.6,2.47,2.47,0,0,1,.65,1.9v5.12Zm-2.56-.8a2.35,2.35,0,0,0,1.67-.58,2.17,2.17,0,0,0,.6-1.63v-.68l-1.13.05a4.1,4.1,0,0,0-2,.42,1.28,1.28,0,0,0-.59,1.16,1.18,1.18,0,0,0,.37.94A1.56,1.56,0,0,0,36.47,35.65Z"/><path class="cls-3" d="M47.34,36.45V31.6a2,2,0,0,0-.42-1.37,1.69,1.69,0,0,0-1.3-.45,2.15,2.15,0,0,0-1.73.64,3.23,3.23,0,0,0-.54,2.1v3.93H42.21V29h.93l.18,1h.06a2.26,2.26,0,0,1,1-.86,3.23,3.23,0,0,1,1.4-.3,2.85,2.85,0,0,1,2,.65,2.77,2.77,0,0,1,.69,2.09v4.89Z"/><path class="cls-3" d="M53.8,36.58a3.2,3.2,0,0,1-2.52-1,4.14,4.14,0,0,1-.89-2.83,4.29,4.29,0,0,1,.9-2.91,3.29,3.29,0,0,1,2.59-1,5.74,5.74,0,0,1,1.08.11,3.41,3.41,0,0,1,.84.28l-.35,1a5.66,5.66,0,0,0-.82-.25,4,4,0,0,0-.78-.1c-1.52,0-2.29,1-2.29,2.91a3.46,3.46,0,0,0,.56,2.12,1.92,1.92,0,0,0,1.65.74,5,5,0,0,0,1.92-.4v1A4.07,4.07,0,0,1,53.8,36.58Z"/><path class="cls-3" d="M60.64,36.58a3.44,3.44,0,0,1-2.63-1,3.91,3.91,0,0,1-1-2.81,4.32,4.32,0,0,1,.9-2.88,3,3,0,0,1,2.39-1.06,2.85,2.85,0,0,1,2.23.92,3.56,3.56,0,0,1,.82,2.45v.72H58.23a3,3,0,0,0,.67,2,2.31,2.31,0,0,0,1.78.68,6.17,6.17,0,0,0,2.39-.5v1a5.79,5.79,0,0,1-1.14.37A6.08,6.08,0,0,1,60.64,36.58Zm-.31-6.81a1.84,1.84,0,0,0-1.44.59A2.65,2.65,0,0,0,58.26,32h3.91a2.54,2.54,0,0,0-.47-1.64A1.7,1.7,0,0,0,60.33,29.77Z"/></g></svg>