<svg xmlns="http://www.w3.org/2000/svg" viewBox="0 0 96.12 55.87"><defs><style>.cls-1{fill:#4d4e50;}.cls-2{fill:#488e41;}</style></defs><g id="Economic_Opportunities_Image" data-name="Economic Opportunities Image"><path class="cls-1" d="M3.57,33a1.59,1.59,0,0,1,1.31.58,2.47,2.47,0,0,1,.47,1.63,2.58,2.58,0,0,1-.47,1.64,1.58,1.58,0,0,1-1.31.58,1.87,1.87,0,0,1-.76-.15,1.4,1.4,0,0,1-.58-.48h0l-.13.55H1.58V31.32h.65v1.47c0,.33,0,.63,0,.89h0A1.55,1.55,0,0,1,3.57,33Zm-.09.55a1.13,1.13,0,0,0-1,.38,2.17,2.17,0,0,0-.29,1.28,2.15,2.15,0,0,0,.3,1.29,1.14,1.14,0,0,0,1,.39,1,1,0,0,0,.89-.44,2.26,2.26,0,0,0,.29-1.25A2.16,2.16,0,0,0,4.39,34,1,1,0,0,0,3.48,33.59Z"/><path class="cls-1" d="M6.43,32a.39.39,0,0,1,.11-.32.39.39,0,0,1,.54,0,.4.4,0,0,1,.11.32.41.41,0,0,1-.11.33.39.39,0,0,1-.54,0A.41.41,0,0,1,6.43,32Zm.7,5.44H6.48V33.11h.65Z"/><path class="cls-1" d="M10.46,33a2.59,2.59,0,0,1,.51,0l-.09.6a2.09,2.09,0,0,0-.47-.06,1.17,1.17,0,0,0-.89.43,1.56,1.56,0,0,0-.36,1.05v2.29H8.51V33.11H9l.08.8h0a1.92,1.92,0,0,1,.57-.65A1.32,1.32,0,0,1,10.46,33Z"/><path class="cls-1" d="M14.69,36.82h0a1.53,1.53,0,0,1-1.34.65A1.6,1.6,0,0,1,12,36.9a2.53,2.53,0,0,1-.47-1.63A2.59,2.59,0,0,1,12,33.62,1.6,1.6,0,0,1,13.31,33a1.56,1.56,0,0,1,1.33.64h0l0-.31,0-.3V31.32h.65v6.07h-.53Zm-1.3.11a1.18,1.18,0,0,0,1-.36,1.82,1.82,0,0,0,.3-1.17v-.13a2.16,2.16,0,0,0-.3-1.3,1.16,1.16,0,0,0-1-.39,1,1,0,0,0-.87.44,2.22,2.22,0,0,0-.3,1.25,2.12,2.12,0,0,0,.3,1.24A1,1,0,0,0,13.39,36.93Z"/><path class="cls-1" d="M21.51,36.23a1.07,1.07,0,0,1-.44.92,2.14,2.14,0,0,1-1.25.32,2.72,2.72,0,0,1-1.33-.27v-.6a3.09,3.09,0,0,0,.66.25,2.83,2.83,0,0,0,.68.09,1.7,1.7,0,0,0,.79-.16.55.55,0,0,0,.27-.5.53.53,0,0,0-.22-.43,3.5,3.5,0,0,0-.84-.42A4.75,4.75,0,0,1,19,35a1.12,1.12,0,0,1-.38-.37,1,1,0,0,1-.12-.51.94.94,0,0,1,.43-.82A2,2,0,0,1,20.07,33a3.38,3.38,0,0,1,1.35.29l-.23.52A3.23,3.23,0,0,0,20,33.58a1.44,1.44,0,0,0-.7.14.44.44,0,0,0-.23.4.52.52,0,0,0,.08.29.89.89,0,0,0,.29.23,5.4,5.4,0,0,0,.75.32,2.84,2.84,0,0,1,1,.56A1,1,0,0,1,21.51,36.23Z"/><path class="cls-1" d="M24.56,37.47a1.87,1.87,0,0,1-.76-.15,1.34,1.34,0,0,1-.58-.48h0a6.07,6.07,0,0,1,0,.71v1.77h-.65V33.11h.53l.09.59h0a1.47,1.47,0,0,1,.58-.51,1.84,1.84,0,0,1,.76-.16,1.59,1.59,0,0,1,1.32.59,2.61,2.61,0,0,1,.46,1.63,2.58,2.58,0,0,1-.47,1.64A1.59,1.59,0,0,1,24.56,37.47Zm-.09-3.88a1.15,1.15,0,0,0-.95.36,1.81,1.81,0,0,0-.3,1.16v.14a2.15,2.15,0,0,0,.3,1.29,1.13,1.13,0,0,0,1,.39,1,1,0,0,0,.87-.45,2.13,2.13,0,0,0,.32-1.24A2.07,2.07,0,0,0,25.35,34,1,1,0,0,0,24.47,33.59Z"/><path class="cls-1" d="M29.28,37.47a2,2,0,0,1-1.5-.58,2.25,2.25,0,0,1-.55-1.6,2.5,2.5,0,0,1,.51-1.65A1.72,1.72,0,0,1,29.11,33a1.64,1.64,0,0,1,1.28.53,2.06,2.06,0,0,1,.46,1.4v.41H27.91a1.67,1.67,0,0,0,.38,1.15,1.31,1.31,0,0,0,1,.39,3.51,3.51,0,0,0,1.37-.29v.57a4.16,4.16,0,0,1-.65.22A3.88,3.88,0,0,1,29.28,37.47Zm-.18-3.89a1.08,1.08,0,0,0-.82.33,1.63,1.63,0,0,0-.36.93h2.24a1.44,1.44,0,0,0-.27-.94A1,1,0,0,0,29.1,33.58Z"/><path class="cls-1" d="M33.67,37.47a1.83,1.83,0,0,1-1.44-.57,2.35,2.35,0,0,1-.51-1.62,2.41,2.41,0,0,1,.52-1.66A1.86,1.86,0,0,1,33.71,33a3.27,3.27,0,0,1,.62.07,2.34,2.34,0,0,1,.49.16l-.2.55a2.33,2.33,0,0,0-.47-.14,2,2,0,0,0-.45-.06c-.87,0-1.31.55-1.31,1.66a2,2,0,0,0,.32,1.21,1.1,1.1,0,0,0,.95.43,2.92,2.92,0,0,0,1.09-.23v.57A2.28,2.28,0,0,1,33.67,37.47Z"/><path class="cls-1" d="M35.71,32a.43.43,0,0,1,.11-.32.41.41,0,0,1,.28-.11.4.4,0,0,1,.27.11.44.44,0,0,1,.11.32.45.45,0,0,1-.11.33.4.4,0,0,1-.27.11.41.41,0,0,1-.28-.11A.45.45,0,0,1,35.71,32Zm.71,5.44h-.65V33.11h.65Z"/><path class="cls-1" d="M39.6,37.47a2,2,0,0,1-1.5-.58,2.25,2.25,0,0,1-.55-1.6,2.5,2.5,0,0,1,.51-1.65A1.72,1.72,0,0,1,39.43,33a1.64,1.64,0,0,1,1.28.53,2.06,2.06,0,0,1,.46,1.4v.41H38.23a1.72,1.72,0,0,0,.38,1.15,1.31,1.31,0,0,0,1,.39A3.51,3.51,0,0,0,41,36.62v.57a4.16,4.16,0,0,1-.65.22A3.88,3.88,0,0,1,39.6,37.47Zm-.18-3.89a1.08,1.08,0,0,0-.82.33,1.63,1.63,0,0,0-.36.93h2.24a1.44,1.44,0,0,0-.27-.94A1,1,0,0,0,39.42,33.58Z"/><path class="cls-1" d="M45,36.23a1.1,1.1,0,0,1-.44.92,2.16,2.16,0,0,1-1.25.32A2.72,2.72,0,0,1,42,37.2v-.6a2.9,2.9,0,0,0,.66.25,2.77,2.77,0,0,0,.68.09,1.62,1.62,0,0,0,.78-.16.54.54,0,0,0,.28-.5.55.55,0,0,0-.22-.43,3.62,3.62,0,0,0-.85-.42A5.12,5.12,0,0,1,42.5,35a1.19,1.19,0,0,1-.37-.37,1,1,0,0,1-.12-.51,1,1,0,0,1,.42-.82A2,2,0,0,1,43.6,33a3.38,3.38,0,0,1,1.35.29l-.23.52a3.23,3.23,0,0,0-1.17-.26,1.4,1.4,0,0,0-.69.14.45.45,0,0,0-.24.4.46.46,0,0,0,.09.29.89.89,0,0,0,.29.23,4.46,4.46,0,0,0,.75.32,2.77,2.77,0,0,1,1,.56A1,1,0,0,1,45,36.23Z"/><path class="cls-1" d="M50.17,37.47a1.92,1.92,0,0,1-.77-.15,1.4,1.4,0,0,1-.58-.48h0a6,6,0,0,1,0,.71v1.77h-.65V33.11h.53l.09.59h0a1.5,1.5,0,0,1,.59-.51,1.81,1.81,0,0,1,.76-.16,1.59,1.59,0,0,1,1.31.59,2.55,2.55,0,0,1,.46,1.63,2.52,2.52,0,0,1-.47,1.64A1.57,1.57,0,0,1,50.17,37.47Zm-.1-3.88a1.17,1.17,0,0,0-1,.36,1.94,1.94,0,0,0-.3,1.16v.14a2.15,2.15,0,0,0,.3,1.29,1.16,1.16,0,0,0,1,.39,1,1,0,0,0,.87-.45,2.13,2.13,0,0,0,.31-1.24A2.07,2.07,0,0,0,51,34,1.05,1.05,0,0,0,50.07,33.59Z"/><path class="cls-1" d="M55,33a2.59,2.59,0,0,1,.51,0l-.09.6a2.09,2.09,0,0,0-.47-.06,1.17,1.17,0,0,0-.89.43,1.56,1.56,0,0,0-.36,1.05v2.29h-.65V33.11h.53l.08.8h0a1.92,1.92,0,0,1,.57-.65A1.32,1.32,0,0,1,55,33Z"/><path class="cls-1" d="M60,35.25a2.35,2.35,0,0,1-.53,1.63,1.84,1.84,0,0,1-1.46.59,1.94,1.94,0,0,1-1-.27,1.77,1.77,0,0,1-.68-.77,2.73,2.73,0,0,1-.25-1.18,2.35,2.35,0,0,1,.53-1.63A1.85,1.85,0,0,1,58.08,33a1.81,1.81,0,0,1,1.43.6A2.38,2.38,0,0,1,60,35.25Zm-3.26,0a2.1,2.1,0,0,0,.32,1.25,1.13,1.13,0,0,0,1,.43,1.15,1.15,0,0,0,1-.43A2.51,2.51,0,0,0,59,34a1.17,1.17,0,0,0-1-.42,1.14,1.14,0,0,0-1,.41A2,2,0,0,0,56.78,35.25Z"/><path class="cls-1" d="M62.56,36.94a1.84,1.84,0,0,0,.33,0,1.09,1.09,0,0,0,.25,0v.5a1.23,1.23,0,0,1-.31.08l-.37,0c-.82,0-1.24-.43-1.24-1.31V33.62h-.61V33.3l.61-.27.28-.91h.37v1h1.24v.51H61.87v2.52a.89.89,0,0,0,.18.59A.65.65,0,0,0,62.56,36.94Z"/><path class="cls-1" d="M65.81,37.47a2,2,0,0,1-1.5-.58,2.21,2.21,0,0,1-.55-1.6,2.5,2.5,0,0,1,.51-1.65A1.72,1.72,0,0,1,65.64,33a1.61,1.61,0,0,1,1.27.53,2,2,0,0,1,.47,1.4v.41H64.43a1.78,1.78,0,0,0,.38,1.15,1.32,1.32,0,0,0,1,.39,3.51,3.51,0,0,0,1.37-.29v.57a4.16,4.16,0,0,1-.65.22A4,4,0,0,1,65.81,37.47Zm-.18-3.89a1.06,1.06,0,0,0-.82.33,1.57,1.57,0,0,0-.36.93h2.24a1.39,1.39,0,0,0-.28-.94A1,1,0,0,0,65.63,33.58Z"/><path class="cls-1" d="M70.2,37.47a1.83,1.83,0,0,1-1.44-.57,2.35,2.35,0,0,1-.51-1.62,2.41,2.41,0,0,1,.52-1.66A1.85,1.85,0,0,1,70.24,33a3.27,3.27,0,0,1,.62.07,2.22,2.22,0,0,1,.48.16l-.2.55a2.15,2.15,0,0,0-.47-.14,1.85,1.85,0,0,0-.44-.06c-.87,0-1.31.55-1.31,1.66a2,2,0,0,0,.32,1.21,1.09,1.09,0,0,0,.94.43,2.93,2.93,0,0,0,1.1-.23v.57A2.34,2.34,0,0,1,70.2,37.47Z"/><path class="cls-1" d="M73.68,36.94a1.84,1.84,0,0,0,.33,0,1.09,1.09,0,0,0,.25,0v.5a1.23,1.23,0,0,1-.31.08l-.37,0c-.82,0-1.24-.43-1.24-1.31V33.62h-.61V33.3l.61-.27.28-.91H73v1h1.24v.51H73v2.52a.89.89,0,0,0,.18.59A.65.65,0,0,0,73.68,36.94Z"/><path class="cls-1" d="M76.93,37.47a2,2,0,0,1-1.5-.58,2.21,2.21,0,0,1-.55-1.6,2.5,2.5,0,0,1,.51-1.65A1.72,1.72,0,0,1,76.76,33a1.61,1.61,0,0,1,1.27.53A2,2,0,0,1,78.5,35v.41h-3a1.78,1.78,0,0,0,.38,1.15,1.33,1.33,0,0,0,1,.39,3.51,3.51,0,0,0,1.37-.29v.57a4.16,4.16,0,0,1-.65.22A4,4,0,0,1,76.93,37.47Zm-.18-3.89a1.06,1.06,0,0,0-.82.33,1.63,1.63,0,0,0-.36.93h2.24a1.39,1.39,0,0,0-.28-.94A1,1,0,0,0,76.75,33.58Z"/><path class="cls-1" d="M82.52,36.82h0a1.54,1.54,0,0,1-1.35.65,1.58,1.58,0,0,1-1.3-.57,2.53,2.53,0,0,1-.47-1.63,2.59,2.59,0,0,1,.47-1.65,1.72,1.72,0,0,1,2.64.05h0l0-.31v-2h.65v6.07h-.53Zm-1.29.11a1.18,1.18,0,0,0,1-.36,1.82,1.82,0,0,0,.3-1.17v-.13a2.09,2.09,0,0,0-.31-1.3,1.13,1.13,0,0,0-1-.39,1,1,0,0,0-.88.44,2.22,2.22,0,0,0-.3,1.25,2.12,2.12,0,0,0,.3,1.24A1,1,0,0,0,81.23,36.93Z"/><path class="cls-1" d="M86.53,32a.43.43,0,0,1,.11-.32.41.41,0,0,1,.28-.11.4.4,0,0,1,.27.11.44.44,0,0,1,.11.32.45.45,0,0,1-.11.33.4.4,0,0,1-.27.11.41.41,0,0,1-.28-.11A.45.45,0,0,1,86.53,32Zm.71,5.44h-.65V33.11h.65Z"/><path class="cls-1" d="M91.54,37.39V34.62a1.14,1.14,0,0,0-.24-.78,1,1,0,0,0-.74-.25,1.25,1.25,0,0,0-1,.36,1.88,1.88,0,0,0-.31,1.2v2.24h-.65V33.11h.53l.11.59h0a1.31,1.31,0,0,1,.55-.49,1.79,1.79,0,0,1,.81-.18,1.62,1.62,0,0,1,1.16.38,1.58,1.58,0,0,1,.39,1.19v2.79Z"/><path class="cls-1" d="M6,45.67H5.35V43h-3v2.69H1.68V40h.66v2.43h3V40H6Z"/><path class="cls-1" d="M10.12,45.67,10,45.06h0a1.94,1.94,0,0,1-.64.55,2,2,0,0,1-.8.14,1.45,1.45,0,0,1-1-.33,1.2,1.2,0,0,1-.36-.93c0-.87.69-1.32,2.08-1.36l.72,0v-.26a1.12,1.12,0,0,0-.21-.75.91.91,0,0,0-.7-.24,2.83,2.83,0,0,0-1.21.33l-.2-.49a2.68,2.68,0,0,1,.7-.27,2.76,2.76,0,0,1,.75-.1,1.64,1.64,0,0,1,1.14.34,1.45,1.45,0,0,1,.37,1.09v2.92Zm-1.47-.46a1.32,1.32,0,0,0,.95-.33A1.23,1.23,0,0,0,10,44v-.38l-.65,0a2.42,2.42,0,0,0-1.12.24.73.73,0,0,0-.34.66.65.65,0,0,0,.22.54A.89.89,0,0,0,8.65,45.21Z"/><path class="cls-1" d="M17.39,45.67V42.89a1.12,1.12,0,0,0-.22-.77.84.84,0,0,0-.68-.26,1.1,1.1,0,0,0-.89.35,1.61,1.61,0,0,0-.29,1.07v2.39h-.65V42.89a1.12,1.12,0,0,0-.22-.77.85.85,0,0,0-.68-.26,1.06,1.06,0,0,0-.9.37,2,2,0,0,0-.28,1.19v2.25h-.65V41.39h.53l.11.59h0a1.21,1.21,0,0,1,.51-.49,1.6,1.6,0,0,1,.75-.18,1.26,1.26,0,0,1,1.31.73h0a1.28,1.28,0,0,1,.55-.53,1.73,1.73,0,0,1,.83-.2,1.5,1.5,0,0,1,1.09.37,1.69,1.69,0,0,1,.36,1.2v2.79Z"/><path class="cls-1" d="M19.32,40.23a.45.45,0,0,1,.11-.33.41.41,0,0,1,.54,0,.43.43,0,0,1,.11.33.44.44,0,0,1-.11.33.41.41,0,0,1-.54,0A.49.49,0,0,1,19.32,40.23Zm.7,5.44h-.65V41.39H20Z"/><path class="cls-1" d="M22.05,45.67H21.4V39.59h.65Z"/><path class="cls-1" d="M27.12,43.53a2.37,2.37,0,0,1-.53,1.63,1.87,1.87,0,0,1-1.46.59,1.94,1.94,0,0,1-1-.27,1.92,1.92,0,0,1-.69-.77,2.73,2.73,0,0,1-.24-1.18,2.33,2.33,0,0,1,.53-1.63,2,2,0,0,1,2.88,0A2.38,2.38,0,0,1,27.12,43.53Zm-3.27,0a2,2,0,0,0,.33,1.25,1.3,1.3,0,0,0,1.93,0,2,2,0,0,0,.33-1.25,2,2,0,0,0-.33-1.24,1.13,1.13,0,0,0-1-.43,1.12,1.12,0,0,0-1,.42A2,2,0,0,0,23.85,43.53Z"/><path class="cls-1" d="M32.87,40.47a1.86,1.86,0,0,0-1.48.63,2.5,2.5,0,0,0-.55,1.72,2.59,2.59,0,0,0,.53,1.73,1.89,1.89,0,0,0,1.5.61,4.9,4.9,0,0,0,1.36-.22v.59a4.42,4.42,0,0,1-1.47.22A2.46,2.46,0,0,1,30.82,45a3.12,3.12,0,0,1-.69-2.17,3.44,3.44,0,0,1,.33-1.55,2.4,2.4,0,0,1,.95-1,2.91,2.91,0,0,1,1.47-.36,3.52,3.52,0,0,1,1.57.33l-.28.57A2.92,2.92,0,0,0,32.87,40.47Z"/><path class="cls-1" d="M39.07,43.53a2.36,2.36,0,0,1-.52,1.63,1.88,1.88,0,0,1-1.46.59,1.94,1.94,0,0,1-1-.27,1.78,1.78,0,0,1-.69-.77,2.73,2.73,0,0,1-.24-1.18,2.33,2.33,0,0,1,.52-1.63,1.87,1.87,0,0,1,1.46-.59,1.8,1.8,0,0,1,1.42.6A2.33,2.33,0,0,1,39.07,43.53Zm-3.26,0a2,2,0,0,0,.33,1.25,1.3,1.3,0,0,0,1.93,0,2,2,0,0,0,.33-1.25,2,2,0,0,0-.33-1.24,1.13,1.13,0,0,0-1-.43,1.12,1.12,0,0,0-1,.42A2,2,0,0,0,35.81,43.53Z"/><path class="cls-1" d="M42.84,45.67l-.13-.61h0a1.76,1.76,0,0,1-.64.55,2,2,0,0,1-.79.14,1.42,1.42,0,0,1-1-.33,1.2,1.2,0,0,1-.36-.93c0-.87.69-1.32,2.07-1.36l.73,0v-.26a1.07,1.07,0,0,0-.22-.75.87.87,0,0,0-.69-.24,2.8,2.8,0,0,0-1.21.33l-.2-.49a2.61,2.61,0,0,1,.69-.27,2.84,2.84,0,0,1,.76-.1,1.59,1.59,0,0,1,1.13.34,1.41,1.41,0,0,1,.37,1.09v2.92Zm-1.46-.46a1.32,1.32,0,0,0,.95-.33,1.22,1.22,0,0,0,.34-.93v-.38l-.64,0a2.42,2.42,0,0,0-1.12.24.71.71,0,0,0-.34.66.67.67,0,0,0,.21.54A.9.9,0,0,0,41.38,45.21Z"/><path class="cls-1" d="M47.42,44.5a1.07,1.07,0,0,1-.44.92,2.09,2.09,0,0,1-1.25.33,2.7,2.7,0,0,1-1.33-.27v-.6a3.21,3.21,0,0,0,.66.24,2.71,2.71,0,0,0,.68.09,1.51,1.51,0,0,0,.78-.16.52.52,0,0,0,.28-.49.55.55,0,0,0-.22-.43,3.44,3.44,0,0,0-.85-.42,4.75,4.75,0,0,1-.85-.39,1.21,1.21,0,0,1-.37-.38,1.05,1.05,0,0,1,.3-1.33,2,2,0,0,1,1.17-.3,3.37,3.37,0,0,1,1.35.28l-.23.53a3.07,3.07,0,0,0-1.17-.27,1.26,1.26,0,0,0-.69.15.45.45,0,0,0-.24.4.48.48,0,0,0,.09.29.84.84,0,0,0,.28.23,7.06,7.06,0,0,0,.75.32,2.69,2.69,0,0,1,1,.56A1,1,0,0,1,47.42,44.5Z"/><path class="cls-1" d="M49.86,45.21l.33,0,.25,0v.49a1.17,1.17,0,0,1-.31.09l-.37,0c-.82,0-1.24-.44-1.24-1.31V41.89h-.61v-.31l.61-.27.28-.91h.37v1h1.24v.5H49.17v2.52a.9.9,0,0,0,.18.6A.68.68,0,0,0,49.86,45.21Z"/><path class="cls-1" d="M55.19,45.75a1.94,1.94,0,0,1-1.5-.58,2.22,2.22,0,0,1-.55-1.6,2.49,2.49,0,0,1,.51-1.65A1.69,1.69,0,0,1,55,41.31a1.62,1.62,0,0,1,1.27.53,2,2,0,0,1,.47,1.4v.41H53.81a1.68,1.68,0,0,0,.38,1.14,1.32,1.32,0,0,0,1,.39,3.34,3.34,0,0,0,1.37-.29v.58a3.25,3.25,0,0,1-.65.21A3.21,3.21,0,0,1,55.19,45.75ZM55,41.85a1.07,1.07,0,0,0-.82.34,1.46,1.46,0,0,0-.36.93h2.24a1.44,1.44,0,0,0-.28-.94A1,1,0,0,0,55,41.85Z"/><path class="cls-1" d="M60.63,44.5a1.06,1.06,0,0,1-.45.92,2,2,0,0,1-1.25.33,2.75,2.75,0,0,1-1.33-.27v-.6a3.54,3.54,0,0,0,.67.24,2.71,2.71,0,0,0,.68.09,1.51,1.51,0,0,0,.78-.16.53.53,0,0,0,.27-.49.54.54,0,0,0-.21-.43,3.44,3.44,0,0,0-.85-.42,4.75,4.75,0,0,1-.85-.39,1.11,1.11,0,0,1-.37-.38.89.89,0,0,1-.13-.5,1,1,0,0,1,.43-.83,2,2,0,0,1,1.17-.3,3.37,3.37,0,0,1,1.35.28l-.23.53a3.07,3.07,0,0,0-1.17-.27,1.32,1.32,0,0,0-.7.15.46.46,0,0,0-.23.4.48.48,0,0,0,.09.29.84.84,0,0,0,.28.23,7.06,7.06,0,0,0,.75.32,2.69,2.69,0,0,1,1,.56A1,1,0,0,1,60.63,44.5Z"/><path class="cls-1" d="M63.07,45.21l.33,0,.25,0v.49a1.17,1.17,0,0,1-.31.09l-.37,0c-.83,0-1.24-.44-1.24-1.31V41.89h-.61v-.31l.61-.27L62,40.4h.38v1h1.24v.5H62.38v2.52a.9.9,0,0,0,.18.6A.66.66,0,0,0,63.07,45.21Z"/><path class="cls-1" d="M67.14,45.67,67,45.06h0a1.85,1.85,0,0,1-.64.55,2,2,0,0,1-.79.14,1.42,1.42,0,0,1-1-.33,1.2,1.2,0,0,1-.36-.93c0-.87.69-1.32,2.07-1.36l.73,0v-.26a1.12,1.12,0,0,0-.22-.75.89.89,0,0,0-.69-.24,2.8,2.8,0,0,0-1.21.33l-.2-.49a2.61,2.61,0,0,1,.69-.27,2.78,2.78,0,0,1,.76-.1,1.61,1.61,0,0,1,1.13.34,1.41,1.41,0,0,1,.37,1.09v2.92Zm-1.47-.46a1.33,1.33,0,0,0,1-.33A1.22,1.22,0,0,0,67,44v-.38l-.65,0a2.41,2.41,0,0,0-1.11.24.71.71,0,0,0-.34.66.67.67,0,0,0,.21.54A.89.89,0,0,0,65.67,45.21Z"/><path class="cls-1" d="M70.34,45.21l.33,0,.25,0v.49a1.17,1.17,0,0,1-.31.09l-.36,0c-.83,0-1.25-.44-1.25-1.31V41.89h-.61v-.31l.61-.27.28-.91h.37v1h1.24v.5H69.65v2.52a.9.9,0,0,0,.18.6A.68.68,0,0,0,70.34,45.21Z"/><path class="cls-1" d="M73.59,45.75a2,2,0,0,1-1.5-.58,2.22,2.22,0,0,1-.55-1.6,2.49,2.49,0,0,1,.51-1.65,1.69,1.69,0,0,1,1.37-.61,1.61,1.61,0,0,1,1.27.53,2,2,0,0,1,.47,1.4v.41h-3a1.73,1.73,0,0,0,.38,1.14,1.33,1.33,0,0,0,1,.39A3.34,3.34,0,0,0,75,44.89v.58a3.25,3.25,0,0,1-.65.21A3.21,3.21,0,0,1,73.59,45.75Zm-.18-3.9a1.07,1.07,0,0,0-.82.34,1.58,1.58,0,0,0-.36.93h2.24a1.39,1.39,0,0,0-.28-.94A1,1,0,0,0,73.41,41.85Z"/><path class="cls-1" d="M81,45.67l-.13-.61h0a1.85,1.85,0,0,1-.64.55,2,2,0,0,1-.79.14,1.42,1.42,0,0,1-1-.33,1.2,1.2,0,0,1-.36-.93c0-.87.69-1.32,2.07-1.36l.73,0v-.26a1.12,1.12,0,0,0-.22-.75.89.89,0,0,0-.69-.24,2.8,2.8,0,0,0-1.21.33l-.2-.49a2.61,2.61,0,0,1,.69-.27,2.78,2.78,0,0,1,.76-.1,1.61,1.61,0,0,1,1.13.34,1.41,1.41,0,0,1,.37,1.09v2.92Zm-1.47-.46a1.33,1.33,0,0,0,1-.33,1.22,1.22,0,0,0,.34-.93v-.38l-.65,0a2.41,2.41,0,0,0-1.11.24.71.71,0,0,0-.34.66.67.67,0,0,0,.21.54A.89.89,0,0,0,79.51,45.21Z"/><path class="cls-1" d="M85.73,45.67V42.9a1.1,1.1,0,0,0-.24-.78,1,1,0,0,0-.75-.26,1.18,1.18,0,0,0-1,.37,1.8,1.8,0,0,0-.32,1.19v2.25H82.8V41.39h.52l.11.59h0a1.22,1.22,0,0,1,.56-.49,1.77,1.77,0,0,1,.8-.18,1.66,1.66,0,0,1,1.16.37,1.6,1.6,0,0,1,.39,1.2v2.79Z"/><path class="cls-1" d="M90.62,45.1h0a1.51,1.51,0,0,1-1.34.65,1.59,1.59,0,0,1-1.31-.58,3.11,3.11,0,0,1,0-3.27,1.73,1.73,0,0,1,2.64,0h0l0-.3,0-.31V39.59h.65v6.08h-.52Zm-1.3.11a1.16,1.16,0,0,0,1-.37,1.82,1.82,0,0,0,.29-1.16v-.14a2.18,2.18,0,0,0-.3-1.3,1.13,1.13,0,0,0-1-.39,1,1,0,0,0-.88.45,2.2,2.2,0,0,0-.3,1.25,2.12,2.12,0,0,0,.3,1.24A1,1,0,0,0,89.32,45.21Z"/><path class="cls-1" d="M4.12,48.75a1.88,1.88,0,0,0-1.48.62,2.5,2.5,0,0,0-.55,1.72,2.56,2.56,0,0,0,.53,1.73,1.87,1.87,0,0,0,1.5.62,5.31,5.31,0,0,0,1.36-.22v.58A4.16,4.16,0,0,1,4,54a2.46,2.46,0,0,1-1.94-.77,3.15,3.15,0,0,1-.69-2.18,3.39,3.39,0,0,1,.33-1.54,2.37,2.37,0,0,1,1-1,2.91,2.91,0,0,1,1.47-.36,3.52,3.52,0,0,1,1.57.33l-.28.57A3,3,0,0,0,4.12,48.75Z"/><path class="cls-1" d="M9.26,54l-.13-.61h0a1.71,1.71,0,0,1-.64.54,1.86,1.86,0,0,1-.79.15,1.42,1.42,0,0,1-1-.33,1.21,1.21,0,0,1-.36-.94c0-.86.69-1.31,2.07-1.36l.73,0v-.27a1.06,1.06,0,0,0-.22-.74.87.87,0,0,0-.69-.24A2.8,2.8,0,0,0,7,50.46l-.2-.5a3.54,3.54,0,0,1,.69-.27,3.22,3.22,0,0,1,.76-.09,1.59,1.59,0,0,1,1.13.34A1.4,1.4,0,0,1,9.74,51V54ZM7.8,53.49a1.32,1.32,0,0,0,1-.33,1.22,1.22,0,0,0,.34-.93v-.39l-.65,0a2.41,2.41,0,0,0-1.11.24.71.71,0,0,0-.34.66.69.69,0,0,0,.21.54A.9.9,0,0,0,7.8,53.49Z"/><path class="cls-1" d="M13,49.59a2.64,2.64,0,0,1,.51,0l-.09.61a2.09,2.09,0,0,0-.47-.06,1.16,1.16,0,0,0-.89.42,1.56,1.56,0,0,0-.36,1V54h-.65V49.67h.53l.08.79h0a2,2,0,0,1,.57-.65A1.31,1.31,0,0,1,13,49.59Z"/><path class="cls-1" d="M19.8,54V51.16a1.16,1.16,0,0,0-.22-.77.83.83,0,0,0-.68-.25,1.07,1.07,0,0,0-.89.35,1.59,1.59,0,0,0-.29,1.07V54h-.65V51.16a1.16,1.16,0,0,0-.22-.77.83.83,0,0,0-.68-.25,1.08,1.08,0,0,0-.9.36A2.08,2.08,0,0,0,15,51.7V54h-.65V49.67h.53l.11.58h0a1.27,1.27,0,0,1,.51-.49,1.72,1.72,0,0,1,.75-.17,1.26,1.26,0,0,1,1.31.72h0a1.34,1.34,0,0,1,.55-.53,1.72,1.72,0,0,1,.83-.19,1.45,1.45,0,0,1,1.09.37,1.68,1.68,0,0,1,.36,1.19V54Z"/><path class="cls-1" d="M23.59,54a2,2,0,0,1-1.5-.58,2.27,2.27,0,0,1-.54-1.61,2.46,2.46,0,0,1,.51-1.64,1.67,1.67,0,0,1,1.36-.61,1.6,1.6,0,0,1,1.28.53,2,2,0,0,1,.47,1.39v.41h-3a1.69,1.69,0,0,0,.38,1.15,1.32,1.32,0,0,0,1,.39A3.46,3.46,0,0,0,25,53.17v.58a3.06,3.06,0,0,1-.65.21A3.79,3.79,0,0,1,23.59,54Zm-.17-3.9a1.06,1.06,0,0,0-.83.34,1.58,1.58,0,0,0-.36.93h2.24a1.42,1.42,0,0,0-.27-.94A1,1,0,0,0,23.42,50.13Z"/><path class="cls-1" d="M29.2,54V51.18A1.1,1.1,0,0,0,29,50.4a.93.93,0,0,0-.74-.26,1.25,1.25,0,0,0-1,.36,1.88,1.88,0,0,0-.31,1.2V54h-.65V49.67h.53l.11.58h0a1.34,1.34,0,0,1,.56-.49,1.85,1.85,0,0,1,.8-.17,1.62,1.62,0,0,1,1.16.37,1.59,1.59,0,0,1,.39,1.19V54Z"/><path class="cls-1" d="M35.8,48.75a1.88,1.88,0,0,0-1.48.62,2.5,2.5,0,0,0-.55,1.72,2.56,2.56,0,0,0,.53,1.73,1.87,1.87,0,0,0,1.5.62,5.31,5.31,0,0,0,1.36-.22v.58a4.16,4.16,0,0,1-1.47.23,2.46,2.46,0,0,1-1.94-.77,3.15,3.15,0,0,1-.69-2.18,3.39,3.39,0,0,1,.33-1.54,2.37,2.37,0,0,1,1-1,2.91,2.91,0,0,1,1.47-.36,3.52,3.52,0,0,1,1.57.33l-.28.57A3,3,0,0,0,35.8,48.75Z"/><path class="cls-1" d="M42,51.8a2.37,2.37,0,0,1-.52,1.64A1.88,1.88,0,0,1,40,54a1.94,1.94,0,0,1-1-.27,1.75,1.75,0,0,1-.69-.78,2.7,2.7,0,0,1-.24-1.18,2.35,2.35,0,0,1,.52-1.63,1.86,1.86,0,0,1,1.46-.58,1.8,1.8,0,0,1,1.42.6A2.28,2.28,0,0,1,42,51.8Zm-3.26,0a2,2,0,0,0,.33,1.25,1.3,1.3,0,0,0,1.93,0,2.51,2.51,0,0,0,0-2.49,1.15,1.15,0,0,0-1-.42,1.12,1.12,0,0,0-1,.42A2,2,0,0,0,38.74,51.8Z"/><path class="cls-1" d="M45.13,54a1.88,1.88,0,0,1-.76-.16,1.39,1.39,0,0,1-.58-.47h0a5.92,5.92,0,0,1,0,.71v1.76h-.65v-6.2h.53l.09.58h0a1.64,1.64,0,0,1,.58-.51,1.84,1.84,0,0,1,.76-.15,1.59,1.59,0,0,1,1.32.58,2.61,2.61,0,0,1,.46,1.63,2.56,2.56,0,0,1-.47,1.64A1.6,1.6,0,0,1,45.13,54ZM45,50.14a1.15,1.15,0,0,0-.95.36,1.81,1.81,0,0,0-.3,1.16v.14a2.15,2.15,0,0,0,.3,1.29,1.13,1.13,0,0,0,1,.39,1,1,0,0,0,.87-.45,2.13,2.13,0,0,0,.32-1.24,2,2,0,0,0-.32-1.22A1,1,0,0,0,45,50.14Z"/><path class="cls-1" d="M50,54a1.91,1.91,0,0,1-.76-.16,1.46,1.46,0,0,1-.58-.47h0a5.92,5.92,0,0,1,0,.71v1.76H48v-6.2h.53l.09.58h0a1.64,1.64,0,0,1,.58-.51,1.84,1.84,0,0,1,.76-.15,1.59,1.59,0,0,1,1.32.58,3.11,3.11,0,0,1,0,3.27A1.59,1.59,0,0,1,50,54Zm-.09-3.89a1.16,1.16,0,0,0-.95.36,1.94,1.94,0,0,0-.3,1.16v.14a2.15,2.15,0,0,0,.3,1.29,1.14,1.14,0,0,0,1,.39,1,1,0,0,0,.87-.45,2.13,2.13,0,0,0,.31-1.24,2,2,0,0,0-.31-1.22A1,1,0,0,0,49.94,50.14Z"/><path class="cls-1" d="M54.75,54a2,2,0,0,1-1.5-.58,2.27,2.27,0,0,1-.54-1.61,2.46,2.46,0,0,1,.51-1.64,1.67,1.67,0,0,1,1.36-.61,1.6,1.6,0,0,1,1.28.53,2,2,0,0,1,.47,1.39v.41H53.38a1.69,1.69,0,0,0,.38,1.15,1.32,1.32,0,0,0,1,.39,3.46,3.46,0,0,0,1.36-.29v.58a3.06,3.06,0,0,1-.65.21A3.79,3.79,0,0,1,54.75,54Zm-.17-3.9a1.06,1.06,0,0,0-.83.34,1.58,1.58,0,0,0-.36.93h2.24a1.42,1.42,0,0,0-.27-.94A1,1,0,0,0,54.58,50.13Z"/><path class="cls-1" d="M59.39,49.59a2.64,2.64,0,0,1,.51,0l-.09.61a2.23,2.23,0,0,0-.47-.06,1.15,1.15,0,0,0-.89.42,1.51,1.51,0,0,0-.37,1V54h-.65V49.67H58l.07.79h0a1.94,1.94,0,0,1,.58-.65A1.29,1.29,0,0,1,59.39,49.59Z"/><path class="cls-1" d="M65.4,54l-1.94-5.07h0c0,.41.06.88.06,1.43V54h-.62V48.24h1L65.68,53h0l1.83-4.71h1V54h-.66V50.27c0-.42,0-.88,0-1.38h0l-2,5.06Z"/><path class="cls-1" d="M69.94,48.51a.45.45,0,0,1,.11-.33.4.4,0,0,1,.28-.1.39.39,0,0,1,.27.1.45.45,0,0,1,.11.33.44.44,0,0,1-.11.32.4.4,0,0,1-.27.11.41.41,0,0,1-.28-.11A.44.44,0,0,1,69.94,48.51ZM70.65,54H70V49.67h.65Z"/><path class="cls-1" d="M75,54V51.18a1.1,1.1,0,0,0-.24-.78.93.93,0,0,0-.74-.26,1.25,1.25,0,0,0-1,.36,1.88,1.88,0,0,0-.31,1.2V54H72V49.67h.53l.11.58h0a1.34,1.34,0,0,1,.56-.49,1.85,1.85,0,0,1,.8-.17,1.62,1.62,0,0,1,1.16.37,1.59,1.59,0,0,1,.39,1.19V54Z"/><path class="cls-1" d="M78.74,54a2,2,0,0,1-1.5-.58,2.28,2.28,0,0,1-.55-1.61,2.46,2.46,0,0,1,.51-1.64,1.69,1.69,0,0,1,1.37-.61,1.61,1.61,0,0,1,1.28.53,2,2,0,0,1,.47,1.39v.41H77.37a1.69,1.69,0,0,0,.38,1.15,1.31,1.31,0,0,0,1,.39,3.48,3.48,0,0,0,1.37-.29v.58a3.06,3.06,0,0,1-.65.21A3.79,3.79,0,0,1,78.74,54Zm-.17-3.9a1.06,1.06,0,0,0-.83.34,1.58,1.58,0,0,0-.36.93h2.24a1.42,1.42,0,0,0-.27-.94A1,1,0,0,0,78.57,50.13Z"/><path class="cls-1" d="M86.82,52.43a1.38,1.38,0,0,1-.55,1.17,2.37,2.37,0,0,1-1.48.43,3.58,3.58,0,0,1-1.56-.27v-.64a4,4,0,0,0,.76.24,4.65,4.65,0,0,0,.82.08,1.64,1.64,0,0,0,1-.25.81.81,0,0,0,.34-.7A.91.91,0,0,0,86,52a1.18,1.18,0,0,0-.4-.35,7.45,7.45,0,0,0-.85-.36,2.64,2.64,0,0,1-1.14-.68,1.47,1.47,0,0,1-.34-1,1.26,1.26,0,0,1,.5-1.06,2,2,0,0,1,1.31-.39,3.78,3.78,0,0,1,1.56.32l-.2.57a3.68,3.68,0,0,0-1.38-.29,1.33,1.33,0,0,0-.82.22.75.75,0,0,0-.3.63,1,1,0,0,0,.11.49,1,1,0,0,0,.37.35,5.1,5.1,0,0,0,.8.35,3.16,3.16,0,0,1,1.23.68A1.36,1.36,0,0,1,86.82,52.43Z"/><path class="cls-1" d="M87.83,48.51a.45.45,0,0,1,.11-.33.4.4,0,0,1,.28-.1.39.39,0,0,1,.27.1.45.45,0,0,1,.11.33.44.44,0,0,1-.11.32.4.4,0,0,1-.27.11.41.41,0,0,1-.28-.11A.44.44,0,0,1,87.83,48.51ZM88.54,54h-.65V49.67h.65Z"/><path class="cls-1" d="M91.3,53.49l.33,0a1.22,1.22,0,0,0,.25-.05v.5a1.23,1.23,0,0,1-.31.08,2.76,2.76,0,0,1-.37,0c-.83,0-1.24-.44-1.24-1.31V50.17h-.61v-.31l.61-.27.27-.92h.38v1h1.24v.5H90.61v2.52a.85.85,0,0,0,.18.59A.64.64,0,0,0,91.3,53.49Z"/><path class="cls-1" d="M94.55,54a2,2,0,0,1-1.5-.58,2.23,2.23,0,0,1-.55-1.61A2.46,2.46,0,0,1,93,50.2a1.68,1.68,0,0,1,1.37-.61,1.59,1.59,0,0,1,1.27.53,2,2,0,0,1,.47,1.39v.41h-3a1.69,1.69,0,0,0,.38,1.15,1.32,1.32,0,0,0,1,.39,3.51,3.51,0,0,0,1.37-.29v.58a3.25,3.25,0,0,1-.65.21A4,4,0,0,1,94.55,54Zm-.18-3.9a1,1,0,0,0-.82.34,1.46,1.46,0,0,0-.36.93h2.23a1.42,1.42,0,0,0-.27-.94A1,1,0,0,0,94.37,50.13Z"/><path class="cls-2" d="M6.43,28.26h-2V15.54c0-1.06,0-2.06.1-3L4,13.08c-.21.18-1.18,1-2.91,2.38L0,14.06l4.72-3.65H6.43Z"/><path class="cls-2" d="M25,28.26H13.22V26.52l4.7-4.73a34,34,0,0,0,2.83-3.1,7.83,7.83,0,0,0,1-1.81A5.29,5.29,0,0,0,22.12,15a3,3,0,0,0-.87-2.26,3.31,3.31,0,0,0-2.4-.84,5.93,5.93,0,0,0-2.11.37,8.33,8.33,0,0,0-2.21,1.33l-1.08-1.38a8.23,8.23,0,0,1,5.37-2.05,5.69,5.69,0,0,1,3.95,1.29,4.41,4.41,0,0,1,1.42,3.46,6.59,6.59,0,0,1-1,3.35,21,21,0,0,1-3.56,4.2l-3.91,3.82v.1H25Z"/><path class="cls-2" d="M39.25,28.26H27.51V26.52l4.7-4.73a34.54,34.54,0,0,0,2.84-3.1,8.15,8.15,0,0,0,1-1.81A5.08,5.08,0,0,0,36.41,15a3,3,0,0,0-.86-2.26,3.32,3.32,0,0,0-2.41-.84,5.88,5.88,0,0,0-2.1.37,8.21,8.21,0,0,0-2.22,1.33l-1.07-1.38a8.2,8.2,0,0,1,5.37-2.05,5.67,5.67,0,0,1,3.94,1.29,4.42,4.42,0,0,1,1.43,3.46,6.69,6.69,0,0,1-1,3.35A21.45,21.45,0,0,1,34,22.46l-3.9,3.82v.1h9.18Z"/><path class="cls-2" d="M58.35,22.52a5.75,5.75,0,0,1-4,.66,1.89,1.89,0,0,1-1.11,1.51c-.18.08-.17.53-.27.91a3.22,3.22,0,0,1,.85,0c.18,0,.33.22.49.34a1.62,1.62,0,0,1-.47.3,4.07,4.07,0,0,1-.79,0,5.75,5.75,0,0,1,0,.84c0,.13-.2.23-.31.34-.11-.11-.28-.21-.31-.34a4.43,4.43,0,0,1,0-.82,13.47,13.47,0,0,0-1.43,0c-.41,0-.62.31-.72.73,0,.16-.26.28-.4.42-.08-.19-.25-.38-.23-.56a1.44,1.44,0,0,1,1.5-1.28c.4,0,.8,0,1.21,0,.12-.52.1-.85-.43-1.15-.35-.21-.51-.74-.73-1.14-.07-.11,0-.28,0-.42a3.93,3.93,0,0,0-.61-2.58,8.36,8.36,0,0,1-.68-2.19,3,3,0,0,0-.32-.85A7.92,7.92,0,0,1,47.9,13a21.74,21.74,0,0,1,.2-2.6l-.38-.09c-.35.47-.61.89-.94,1.25s-.48.16-.65-.14c-.43-.72-.91-1.42-1.3-2.17a3.19,3.19,0,0,1,.8-4.06A1.31,1.31,0,0,0,46,4.6a3.62,3.62,0,0,1,5.34-2.49,3.09,3.09,0,0,0,4-1.35A3.69,3.69,0,0,1,55.76,0c.35-.44.86-.36,1,.18a3.4,3.4,0,0,1-.65,3.27,4.56,4.56,0,0,1-2.51,1.39c.55.84,1.1,1.62,1.58,2.42.35.59.61,1.22.93,1.83a1.1,1.1,0,0,0,.32.39A93,93,0,0,1,67.3,19.29c.39.4.35.62-.19.79-1.55.47-3.1.9-4.66,1.34-.23.06-.48.08-.81.15a5.27,5.27,0,0,0,.42.32l5,3.39c.58.39.6.55.09,1A4.88,4.88,0,0,1,64,27.52c-1.84.16-1.89.13-3-1.35L58.66,22.9ZM61,14.1c-.62-.55-1.17-1.06-1.75-1.54a29.19,29.19,0,0,0-5.1-3.74,3.58,3.58,0,0,0-5.41,2.36,5.94,5.94,0,0,0,.82,4.75,1.09,1.09,0,0,0,.68.47A15.67,15.67,0,0,0,57,16.08,11.7,11.7,0,0,0,61,14.1Zm-5.8-5.46c0-.14,0-.2,0-.23C54,6.75,53,5.06,51.84,3.44a2.93,2.93,0,0,0-5,2.89,33.79,33.79,0,0,0,1.92,3.13C50.66,7.16,52.81,7.16,55.18,8.64Zm8.4,7.89-2.09-2c-3.32,2.5-7.06,3-11,2.59l-.14.24c.41.33.8.69,1.23,1a2.36,2.36,0,0,0,.9.47,15.69,15.69,0,0,0,6.75-.2A11.38,11.38,0,0,0,63.58,16.53Zm-9.92,3.26A11.81,11.81,0,0,0,60.08,21,20.73,20.73,0,0,0,66.5,19.6L64,17.05A14.72,14.72,0,0,1,53.66,19.79Zm13,6.09a2.49,2.49,0,0,0-.31-.27q-2.79-1.89-5.59-3.77a1.58,1.58,0,0,0-1.83.3l.32.46c.81,1.11,1.69,2.17,2.42,3.32a1.88,1.88,0,0,0,2,.95A4.84,4.84,0,0,0,66.68,25.88Zm-8.55-4c-1.32-.34-2.65-.62-3.94-1a10.81,10.81,0,0,1-3.51-2.18A3.15,3.15,0,0,0,51.15,20a3.9,3.9,0,0,1,.73,2.91,1.45,1.45,0,0,0,0,.36.87.87,0,0,0,.82.83.9.9,0,0,0,1-.73c0-.17,0-.38.06-.51a.83.83,0,0,1,.44-.36c.12,0,.3.06.45.09A4.79,4.79,0,0,0,58.13,21.84ZM46.58,10.9a1.35,1.35,0,0,0,.13-1.33.5.5,0,0,1,.13-.44c.09-.06.31,0,.45.1s.45.33.67.49L48,9.63,45.83,6a2.31,2.31,0,0,0-.46,2.85C45.7,9.52,46.14,10.16,46.58,10.9ZM52.43,3a5.8,5.8,0,0,1,.44.7c.19.43.5.46.9.35A4,4,0,0,0,55.7,2.87,2.73,2.73,0,0,0,56.15.7C55.5,2.39,54.18,3,52.43,3Z"/></g></svg>