<svg xmlns="http://www.w3.org/2000/svg" viewBox="0 0 67.04 68.39"><defs><style>.cls-1{fill:#48773c;}</style></defs><g id="Economic_Opportunities_Image" data-name="Economic Opportunities Image"><path class="cls-1" d="M8,10.65c-.11.06-.44.19-1,.39s-.69.24-.81.29V9.56A9.28,9.28,0,0,0,7.49,9a4.34,4.34,0,0,0,1-.75h1.84V20.63H8Z"/><path class="cls-1" d="M12.35,19.86a4.36,4.36,0,0,1-.78-2.78v-.43h2.34v.42a3.33,3.33,0,0,0,.22,1.36.8.8,0,0,0,.78.42.75.75,0,0,0,.75-.42,3.58,3.58,0,0,0,.19-1.38,3,3,0,0,0-.29-1.48,1.17,1.17,0,0,0-1.06-.5h-.43V13.32h.38a1.26,1.26,0,0,0,1.1-.43,2.5,2.5,0,0,0,.3-1.41,2.42,2.42,0,0,0-.22-1.18.82.82,0,0,0-.78-.38.72.72,0,0,0-.73.41,3.17,3.17,0,0,0-.21,1.23v.55H11.57v-.67a3.48,3.48,0,0,1,.86-2.52A3.22,3.22,0,0,1,14.85,8a3.32,3.32,0,0,1,2.45.86,3.32,3.32,0,0,1,.87,2.47,3.43,3.43,0,0,1-.44,1.8,1.91,1.91,0,0,1-1.12.92c1,.38,1.56,1.36,1.56,2.93a4.47,4.47,0,0,1-.79,2.81,3,3,0,0,1-2.5,1,3,3,0,0,1-2.53-1"/><path class="cls-1" d="M23.33,13a1.69,1.69,0,0,1-.53-.08,1,1,0,0,1-.39-.21,1.16,1.16,0,0,1-.24-.34,1.73,1.73,0,0,1-.14-.44,4.09,4.09,0,0,1,0-.53V9.75a4.29,4.29,0,0,1,0-.55,1.69,1.69,0,0,1,.14-.45,1,1,0,0,1,.24-.33,1.07,1.07,0,0,1,.38-.21,1.81,1.81,0,0,1,.54-.07,1.76,1.76,0,0,1,.6.09.82.82,0,0,1,.39.28,1,1,0,0,1,.21.43,1.93,1.93,0,0,1,.07.57v.41h-.83V9.51a2.57,2.57,0,0,0,0-.48.35.35,0,0,0-.36-.25h-.05a.58.58,0,0,0-.19,0,.57.57,0,0,0-.13.08.83.83,0,0,0-.08.12.58.58,0,0,0-.05.17,1.15,1.15,0,0,0,0,.18,1.41,1.41,0,0,0,0,.22v2a1.27,1.27,0,0,0,.1.6.4.4,0,0,0,.37.18l.16,0,.12-.06a.24.24,0,0,0,.08-.09.61.61,0,0,0,0-.12.49.49,0,0,0,0-.15.92.92,0,0,0,0-.16v-.6h.83v.39a2.33,2.33,0,0,1,0,.48,1.42,1.42,0,0,1-.12.4,1,1,0,0,1-.23.3,1,1,0,0,1-.37.2,1.57,1.57,0,0,1-.51.07"/><polygon class="cls-1" points="25.02 12.94 25.02 8.19 25.87 8.19 25.87 12.34 27 12.34 27 12.94 25.02 12.94"/><rect class="cls-1" x="27.3" y="8.19" width="0.84" height="4.75"/><polygon class="cls-1" points="28.68 12.94 28.76 8.19 29.64 8.19 30.32 11.53 31.02 8.19 31.87 8.19 31.95 12.94 31.31 12.94 31.25 9.67 30.57 12.94 30.07 12.94 29.39 9.66 29.34 12.94 28.68 12.94"/><path class="cls-1" d="M33.32,11.27H34l-.32-1.95Zm-1.09,1.67,1-4.75h.9l1,4.75h-.8L34,11.84h-.81L33,12.94Z"/><polygon class="cls-1" points="35.61 12.94 35.61 8.83 34.82 8.83 34.82 8.19 37.23 8.19 37.23 8.83 36.46 8.83 36.46 12.94 35.61 12.94"/><polygon class="cls-1" points="37.42 12.94 37.42 8.19 39.39 8.19 39.39 8.8 38.28 8.8 38.28 10.16 39.16 10.16 39.16 10.78 38.28 10.78 38.28 12.34 39.4 12.34 39.4 12.94 37.42 12.94"/><path class="cls-1" d="M22.92,19h.63l-.32-1.95ZM21.83,20.7l1-4.75h.89l.95,4.75h-.79l-.19-1.1h-.81l-.2,1.1Z"/><path class="cls-1" d="M26.17,20.76a1.44,1.44,0,0,1-.53-.08.94.94,0,0,1-.63-.55,1.62,1.62,0,0,1-.14-.44,4.05,4.05,0,0,1,0-.52V17.51a3,3,0,0,1,0-.55,1.5,1.5,0,0,1,.13-.44,1,1,0,0,1,.24-.34,1,1,0,0,1,.39-.21,1.7,1.7,0,0,1,.53-.07,1.72,1.72,0,0,1,.6.09,1,1,0,0,1,.4.28,1.44,1.44,0,0,1,.21.43,2.37,2.37,0,0,1,.06.57v.41h-.82v-.41a2.15,2.15,0,0,0,0-.47.36.36,0,0,0-.36-.26h0l-.18,0a.34.34,0,0,0-.14.09.36.36,0,0,0-.08.12.53.53,0,0,0,0,.16,1.37,1.37,0,0,0,0,.19,1.28,1.28,0,0,0,0,.21v2a1.36,1.36,0,0,0,.1.59.4.4,0,0,0,.37.18l.16,0a.34.34,0,0,0,.12-.06.24.24,0,0,0,.08-.09.61.61,0,0,0,0-.12.46.46,0,0,0,0-.14,1,1,0,0,0,0-.16,1,1,0,0,0,0-.18v-.43h.82v.39a2.33,2.33,0,0,1,0,.48,1.42,1.42,0,0,1-.12.4,1,1,0,0,1-.23.31,1.17,1.17,0,0,1-.37.19,1.53,1.53,0,0,1-.51.07"/><polygon class="cls-1" points="28.32 20.7 28.32 16.59 27.53 16.59 27.53 15.95 29.93 15.95 29.93 16.59 29.17 16.59 29.17 20.7 28.32 20.7"/><rect class="cls-1" x="30.16" y="15.95" width="0.84" height="4.75"/><path class="cls-1" d="M32.61,20.08a.48.48,0,0,0,.22,0,.46.46,0,0,0,.21,0,.34.34,0,0,0,.14-.09.8.8,0,0,0,.08-.16,1.42,1.42,0,0,0,0-.2,1.55,1.55,0,0,0,0-.23V17.24a1.14,1.14,0,0,0,0-.28.79.79,0,0,0-.06-.22.36.36,0,0,0-.15-.15.62.62,0,0,0-.25-.05.67.67,0,0,0-.26.05.36.36,0,0,0-.15.15.79.79,0,0,0-.06.22,2,2,0,0,0,0,.28V19.4c0,.09,0,.17,0,.23a1.42,1.42,0,0,0,0,.2.8.8,0,0,0,.08.16.34.34,0,0,0,.14.09m.22.68a1.23,1.23,0,0,1-1-.4,1.82,1.82,0,0,1-.32-1.16V17.44a3,3,0,0,1,.07-.65,1.34,1.34,0,0,1,.23-.48,1,1,0,0,1,.42-.31,1.76,1.76,0,0,1,.64-.1,1.24,1.24,0,0,1,1,.39,1.75,1.75,0,0,1,.32,1.15V19.2a2.54,2.54,0,0,1-.07.65,1.48,1.48,0,0,1-.23.49,1.12,1.12,0,0,1-.42.32,1.74,1.74,0,0,1-.63.1"/><polygon class="cls-1" points="34.63 20.7 34.63 15.95 35.22 15.95 36.37 18.64 36.37 15.95 37.08 15.95 37.08 20.7 36.52 20.7 35.36 17.88 35.36 20.7 34.63 20.7"/><path class="cls-1" d="M43.78,45.78c-.27-.08-1.39-1.65-.5-2.68.15-.17-.3-.67-.17-.68a.83.83,0,0,1,.87.71c0,.19,0,.39,0,.58a10.09,10.09,0,0,1-.21,2.07M41,50.88l-.32-.12c-.54-.28-.48.17-.74.07s.3-.73-.51-.2-.58-.09-.93-1a1.84,1.84,0,0,1,1-2.15A13.66,13.66,0,0,1,41.39,47c1.2-.3,1.46-1,1.67-.58l.12.24a1.52,1.52,0,0,1,.15.65A10.22,10.22,0,0,1,41,50.88m-7,2.93a10,10,0,0,1-2.81-.41.44.44,0,0,1-.12-.5,2.23,2.23,0,0,1,2-1.2c1.62-.16,3.75,1.07,4.09.87s1-1.09,2-1.06a1.56,1.56,0,0,1,.91.24A9.92,9.92,0,0,1,34,53.81m-1.35-6.59c-.14.23-.51,1.93-.77,1.73s.11-2,.18-2.11c.4-.73,1.25-.69.59.38m4.08-2a.88.88,0,0,1-.95-.09c-.25-.2.16-.53.31-.54.33,0,.84.45.64.63m4.41,0c-.11,0-.2-.14-.28-.39s.12-.39.32-.29a1,1,0,0,1,.47.58c0,.17-.4.15-.51.1m.42.31c.34,0,.84.45.65.63a.9.9,0,0,1-1-.09c-.25-.2.16-.52.31-.54m-10.71,4a3,3,0,0,1-.62,1.29,2.06,2.06,0,0,1-1.36.53c-.46,0-.52-1.26-.52-1.9,0-.21-.3.43-.46-.88-.1-.84-.64.09-.67-.48s-.31-.44-.59-.79-.62,0-1,.21-.23.26-.78.09l0,0A10.09,10.09,0,0,1,24,43.69a8.44,8.44,0,0,1,.05-1s0-.07.06-.09c.53-.64.52-.78.52-.78l.58-.21a10,10,0,0,1,1.64.42c.57.22,1.49.72,2,.5.38-.16.68-.37.64-.7s-.35-.5-.74-.23c-.14.1-.44-.61-.67-.57s.29.83.09.87-.6-.84-.67-1-.38-.49-.66-.22c-.59.56-1.54.53-1.74.67-.58.45-.73-.14-.72-.5l.07-.25a1.19,1.19,0,0,1,1.11-.12c.26.18.45,0,.55-.15a.36.36,0,0,0,0-.41c-.06-.14.13-.24.26-.28a6.7,6.7,0,0,0,.76-.46,2.51,2.51,0,0,1,1.52,0,.81.81,0,0,0,1-.2,2.58,2.58,0,0,1,.72-.61c.15-.07-.35-.55-.77,0s-.62.56-.82.56-1.34-.29-1.48-.66.36-.65.78-.85A10.1,10.1,0,0,1,30,37.13c.61-.14,1.38-.44,1.77-.17s-1.63.72-1,1.09c.24.13,1.31-.62,1.67-.81.86-.45-.83-.6-.61-1.51s-2.07-.64-3.23-.55A9.82,9.82,0,0,1,34,33.59a10,10,0,0,1,9.7,7.76,1.65,1.65,0,0,1,0,.47.65.65,0,0,1-1.17.09c-.1-.15-.53-.56-.52.14s.68.77,0,1.19a2.58,2.58,0,0,1-1.05.43c-.3.1-.58.82-.51,1.21s1,1.44.3,1.39a3.89,3.89,0,0,1-1.55-1.36c-.2-.56-.43-1.11-.59-1.53a.59.59,0,0,0-.94-.28c-.36.24.1.49-.16,1s-.44,1-.81.56c-1-1.14-2.39-.58-2.61-1.84-.12-.68-.7-.62-1.19-1s-.76-.6-.84-.32,1.53,1.53,1.64,1.86c.17.49-.48.92-1,1s-.69-.27-1.15-.76-.67-.84-.7-.46a2.2,2.2,0,0,0,.91,1.68c.41.26.86.38.73.8s0,.18-.46.64a1.25,1.25,0,0,0-.51,1.23c0,.63-.13.66-.23,1.19s-.32.07-.51.84M25.48,38.42l.06-.06a1.31,1.31,0,0,1,.78-.29c.25,0,.58.08.62.25s-.62.47-.74.59c-.35.32-.89,1-1.2,1a.32.32,0,0,1-.26,0,11.6,11.6,0,0,1,.74-1.5m.52-1c.13-.19.56-.74.61-.81a.79.79,0,0,1,.48-.2c.16,0,.36.06.38.18a1.39,1.39,0,0,1-.13.64,1.65,1.65,0,0,1-1.06.48c-.23,0-.33-.22-.28-.29m31.74,6a29.39,29.39,0,0,0-47.51-.07l-.18.27.18.27A29.39,29.39,0,0,0,57.74,44l.19-.27a2.78,2.78,0,0,0-.19-.27"/><path class="cls-1" d="M65.73,67.4H1.3V2.23H65.73Zm-63.8-.63H65.1V2.85H1.93Z"/></g></svg>