<svg xmlns="http://www.w3.org/2000/svg" viewBox="0 0 99.78 38.72"><defs><style>.cls-1{fill:#4d4e50;}.cls-2{fill:#488e41;}</style></defs><g id="Economic_Opportunities_Image" data-name="Economic Opportunities Image"><path class="cls-1" d="M2.9,28.46a1.83,1.83,0,0,1-1.44-.57A2.35,2.35,0,0,1,1,26.27a2.39,2.39,0,0,1,.52-1.66A1.88,1.88,0,0,1,2.94,24a3.18,3.18,0,0,1,.62.07,1.87,1.87,0,0,1,.49.16l-.2.55a2.33,2.33,0,0,0-.47-.14,2,2,0,0,0-.45-.06c-.87,0-1.31.55-1.31,1.66a2,2,0,0,0,.32,1.21,1.13,1.13,0,0,0,1,.43A2.92,2.92,0,0,0,4,27.67v.57A2.28,2.28,0,0,1,2.9,28.46Z"/><path class="cls-1" d="M7.63,28.38l-.13-.61h0a1.76,1.76,0,0,1-.64.55,2,2,0,0,1-.79.14,1.42,1.42,0,0,1-1-.33,1.18,1.18,0,0,1-.36-.93c0-.86.69-1.32,2.07-1.36l.73,0v-.27a1.06,1.06,0,0,0-.22-.74.87.87,0,0,0-.69-.24,2.8,2.8,0,0,0-1.21.33l-.2-.5a3.54,3.54,0,0,1,.69-.27,2.84,2.84,0,0,1,.76-.1,1.64,1.64,0,0,1,1.13.34,1.41,1.41,0,0,1,.37,1.09v2.92Zm-1.46-.45a1.29,1.29,0,0,0,1-.34,1.21,1.21,0,0,0,.34-.92v-.39l-.64,0a2.19,2.19,0,0,0-1.12.24.71.71,0,0,0-.34.66.66.66,0,0,0,.21.53A.85.85,0,0,0,6.17,27.93Z"/><path class="cls-1" d="M11.44,28.46a1.87,1.87,0,0,1-.76-.15,1.34,1.34,0,0,1-.58-.48h0a6.07,6.07,0,0,1,0,.71v1.77H9.45V24.1H10l.09.59h0a1.47,1.47,0,0,1,.58-.51,1.81,1.81,0,0,1,.76-.16,1.56,1.56,0,0,1,1.31.59,2.53,2.53,0,0,1,.47,1.63,2.58,2.58,0,0,1-.47,1.64A1.59,1.59,0,0,1,11.44,28.46Zm-.09-3.88a1.15,1.15,0,0,0-.95.36,1.8,1.8,0,0,0-.3,1.15v.15a2.15,2.15,0,0,0,.3,1.29,1.13,1.13,0,0,0,1,.39,1,1,0,0,0,.87-.45,2.13,2.13,0,0,0,.32-1.24A2.07,2.07,0,0,0,12.23,25,1,1,0,0,0,11.35,24.58Z"/><path class="cls-1" d="M17,28.38l-.13-.61h0a1.76,1.76,0,0,1-.64.55,2,2,0,0,1-.79.14,1.44,1.44,0,0,1-1-.33A1.18,1.18,0,0,1,14,27.2c0-.86.69-1.32,2.07-1.36l.73,0v-.27a1.06,1.06,0,0,0-.22-.74.87.87,0,0,0-.69-.24,2.8,2.8,0,0,0-1.21.33l-.2-.5a3.54,3.54,0,0,1,.69-.27A2.89,2.89,0,0,1,16,24a1.64,1.64,0,0,1,1.13.34,1.41,1.41,0,0,1,.37,1.09v2.92Zm-1.46-.45a1.29,1.29,0,0,0,.95-.34,1.22,1.22,0,0,0,.35-.92v-.39l-.65,0a2.19,2.19,0,0,0-1.12.24.71.71,0,0,0-.34.66.66.66,0,0,0,.21.53A.86.86,0,0,0,15.52,27.93Z"/><path class="cls-1" d="M20.51,28.46a1.83,1.83,0,0,1-1.44-.57,2.35,2.35,0,0,1-.51-1.62,2.39,2.39,0,0,1,.52-1.66A1.86,1.86,0,0,1,20.55,24a3.18,3.18,0,0,1,.62.07,1.87,1.87,0,0,1,.49.16l-.2.55a2.33,2.33,0,0,0-.47-.14,2,2,0,0,0-.45-.06c-.87,0-1.31.55-1.31,1.66a2,2,0,0,0,.32,1.21,1.12,1.12,0,0,0,.94.43,2.93,2.93,0,0,0,1.1-.23v.57A2.28,2.28,0,0,1,20.51,28.46Z"/><path class="cls-1" d="M22.55,22.94a.43.43,0,0,1,.11-.32.41.41,0,0,1,.28-.11.4.4,0,0,1,.27.11.44.44,0,0,1,.11.32.45.45,0,0,1-.11.33.4.4,0,0,1-.27.11.41.41,0,0,1-.28-.11A.45.45,0,0,1,22.55,22.94Zm.71,5.44h-.65V24.1h.65Z"/><path class="cls-1" d="M26,27.93a1.87,1.87,0,0,0,.34,0l.25,0v.49a.89.89,0,0,1-.31.09l-.37,0c-.83,0-1.24-.43-1.24-1.31V24.61h-.61v-.32l.61-.27.27-.91h.38v1h1.24v.51H25.33v2.52a.89.89,0,0,0,.18.59A.63.63,0,0,0,26,27.93Z"/><path class="cls-1" d="M26.78,24.1h.69l.94,2.44a10.25,10.25,0,0,1,.38,1.21h0c0-.13.11-.36.22-.68s.46-1.31,1.06-3h.69L29,29a2.33,2.33,0,0,1-.64,1,1.31,1.31,0,0,1-.89.31,2.88,2.88,0,0,1-.59-.07v-.52a2.28,2.28,0,0,0,.48.05,1,1,0,0,0,1-.75l.24-.61Z"/><path class="cls-1" d="M37.26,26.24a2.35,2.35,0,0,1-.53,1.63,1.81,1.81,0,0,1-1.45.59,1.89,1.89,0,0,1-1-.27,1.78,1.78,0,0,1-.69-.77,2.73,2.73,0,0,1-.24-1.18,2.35,2.35,0,0,1,.52-1.63A1.85,1.85,0,0,1,35.3,24a1.81,1.81,0,0,1,1.43.6A2.38,2.38,0,0,1,37.26,26.24Zm-3.26,0a2,2,0,0,0,.33,1.25,1.3,1.3,0,0,0,1.93,0,2,2,0,0,0,.33-1.25A2,2,0,0,0,36.26,25a1.17,1.17,0,0,0-1-.42,1.14,1.14,0,0,0-1,.41A2.07,2.07,0,0,0,34,26.24Z"/><path class="cls-1" d="M40.33,24.61H39.24v3.77h-.65V24.61h-.77v-.3l.77-.23v-.24c0-1.05.46-1.58,1.38-1.58a2.87,2.87,0,0,1,.79.14l-.16.52A2.2,2.2,0,0,0,40,22.8a.64.64,0,0,0-.55.24,1.47,1.47,0,0,0-.17.79v.27h1.09Z"/><path class="cls-1" d="M46,27.22a1.08,1.08,0,0,1-.45.92,2.12,2.12,0,0,1-1.25.32,2.75,2.75,0,0,1-1.33-.27v-.6a3,3,0,0,0,.67.25,2.71,2.71,0,0,0,.68.09,1.5,1.5,0,0,0,.78-.17.52.52,0,0,0,.27-.49.54.54,0,0,0-.21-.43,3.44,3.44,0,0,0-.85-.42,4.75,4.75,0,0,1-.85-.39,1.09,1.09,0,0,1-.37-.37.92.92,0,0,1-.13-.51,1,1,0,0,1,.43-.82A2,2,0,0,1,44.51,24a3.38,3.38,0,0,1,1.35.29l-.23.52a3.23,3.23,0,0,0-1.17-.26,1.44,1.44,0,0,0-.7.14.46.46,0,0,0-.23.4.48.48,0,0,0,.09.29.84.84,0,0,0,.28.23,5.4,5.4,0,0,0,.75.32,2.69,2.69,0,0,1,1,.56A1,1,0,0,1,46,27.22Z"/><path class="cls-1" d="M50.7,26.24a2.35,2.35,0,0,1-.53,1.63,1.84,1.84,0,0,1-1.46.59,1.94,1.94,0,0,1-1-.27,1.82,1.82,0,0,1-.68-.77,2.73,2.73,0,0,1-.25-1.18,2.35,2.35,0,0,1,.53-1.63A1.85,1.85,0,0,1,48.74,24a1.81,1.81,0,0,1,1.43.6A2.38,2.38,0,0,1,50.7,26.24Zm-3.26,0a2.1,2.1,0,0,0,.32,1.25,1.31,1.31,0,0,0,1.94,0A2,2,0,0,0,50,26.24,2,2,0,0,0,49.7,25a1.17,1.17,0,0,0-1-.42,1.14,1.14,0,0,0-1,.41A2,2,0,0,0,47.44,26.24Z"/><path class="cls-1" d="M52.48,28.38h-.65V22.31h.65Z"/><path class="cls-1" d="M56.49,28.38l-.13-.61h0a1.76,1.76,0,0,1-.64.55,2,2,0,0,1-.79.14,1.42,1.42,0,0,1-1-.33,1.18,1.18,0,0,1-.36-.93c0-.86.69-1.32,2.07-1.36l.73,0v-.27a1.06,1.06,0,0,0-.22-.74.87.87,0,0,0-.69-.24,2.8,2.8,0,0,0-1.21.33l-.2-.5a3.54,3.54,0,0,1,.69-.27,2.84,2.84,0,0,1,.76-.1,1.64,1.64,0,0,1,1.13.34A1.41,1.41,0,0,1,57,25.46v2.92ZM55,27.93a1.29,1.29,0,0,0,.95-.34,1.21,1.21,0,0,0,.34-.92v-.39l-.65,0a2.17,2.17,0,0,0-1.11.24.71.71,0,0,0-.34.66.66.66,0,0,0,.21.53A.85.85,0,0,0,55,27.93Z"/><path class="cls-1" d="M60.26,24a2.59,2.59,0,0,1,.51.05l-.09.6a2.09,2.09,0,0,0-.47-.06,1.14,1.14,0,0,0-.89.43A1.56,1.56,0,0,0,59,26.09v2.29h-.65V24.1h.53l.08.8h0a1.92,1.92,0,0,1,.57-.65A1.32,1.32,0,0,1,60.26,24Z"/><path class="cls-1" d="M65.64,28.46a1.87,1.87,0,0,1-.76-.15,1.4,1.4,0,0,1-.58-.48h0a6.07,6.07,0,0,1,0,.71v1.77h-.65V24.1h.53l.09.59h0a1.54,1.54,0,0,1,.58-.51,1.84,1.84,0,0,1,.76-.16,1.59,1.59,0,0,1,1.32.59,2.53,2.53,0,0,1,.46,1.63A2.58,2.58,0,0,1,67,27.88,1.58,1.58,0,0,1,65.64,28.46Zm-.09-3.88a1.16,1.16,0,0,0-1,.36,1.93,1.93,0,0,0-.3,1.15v.15a2.15,2.15,0,0,0,.3,1.29,1.14,1.14,0,0,0,1,.39,1,1,0,0,0,.86-.45,2.13,2.13,0,0,0,.32-1.24A2.07,2.07,0,0,0,66.43,25,1,1,0,0,0,65.55,24.58Z"/><path class="cls-1" d="M71.19,28.38l-.13-.61h0a1.94,1.94,0,0,1-.64.55,2,2,0,0,1-.8.14,1.45,1.45,0,0,1-1-.33,1.18,1.18,0,0,1-.36-.93c0-.86.69-1.32,2.08-1.36l.72,0v-.27a1.11,1.11,0,0,0-.21-.74.91.91,0,0,0-.7-.24,2.83,2.83,0,0,0-1.21.33l-.2-.5a3.64,3.64,0,0,1,.7-.27,2.76,2.76,0,0,1,.75-.1,1.69,1.69,0,0,1,1.14.34,1.45,1.45,0,0,1,.37,1.09v2.92Zm-1.47-.45a1.27,1.27,0,0,0,1-.34,1.22,1.22,0,0,0,.35-.92v-.39l-.65,0a2.19,2.19,0,0,0-1.12.24.73.73,0,0,0-.34.66.64.64,0,0,0,.22.53A.84.84,0,0,0,69.72,27.93Z"/><path class="cls-1" d="M75.93,28.38V25.61a1.12,1.12,0,0,0-.24-.78,1,1,0,0,0-.74-.25,1.25,1.25,0,0,0-1,.36,1.88,1.88,0,0,0-.31,1.2v2.24H73V24.1h.53l.11.59h0a1.28,1.28,0,0,1,.56-.49A1.74,1.74,0,0,1,75,24a1.62,1.62,0,0,1,1.16.38,1.58,1.58,0,0,1,.39,1.19v2.79Z"/><path class="cls-1" d="M79.72,28.46a2,2,0,0,1-1.5-.58,2.25,2.25,0,0,1-.55-1.6,2.5,2.5,0,0,1,.51-1.65A1.72,1.72,0,0,1,79.55,24a1.64,1.64,0,0,1,1.28.53A2.06,2.06,0,0,1,81.3,26v.41h-3a1.68,1.68,0,0,0,.38,1.14,1.28,1.28,0,0,0,1,.4,3.48,3.48,0,0,0,1.37-.29v.57a3.84,3.84,0,0,1-.65.22A3.88,3.88,0,0,1,79.72,28.46Zm-.17-3.89a1.08,1.08,0,0,0-.83.33,1.63,1.63,0,0,0-.36.93H80.6a1.44,1.44,0,0,0-.27-.94A1,1,0,0,0,79.55,24.57Z"/><path class="cls-1" d="M83.05,28.38H82.4V22.31h.65Z"/><path class="cls-1" d="M87.19,27.22a1.08,1.08,0,0,1-.45.92,2.14,2.14,0,0,1-1.25.32,2.72,2.72,0,0,1-1.33-.27v-.6a3.09,3.09,0,0,0,.66.25,2.84,2.84,0,0,0,.69.09,1.5,1.5,0,0,0,.78-.17.56.56,0,0,0,0-.92,3.15,3.15,0,0,0-.84-.42,4.75,4.75,0,0,1-.85-.39,1.22,1.22,0,0,1-.38-.37,1,1,0,0,1-.12-.51.94.94,0,0,1,.43-.82A2,2,0,0,1,85.74,24a3.39,3.39,0,0,1,1.36.29l-.23.52a3.23,3.23,0,0,0-1.17-.26,1.44,1.44,0,0,0-.7.14.46.46,0,0,0-.23.4.48.48,0,0,0,.09.29.75.75,0,0,0,.28.23,5.4,5.4,0,0,0,.75.32,2.69,2.69,0,0,1,1,.56A1,1,0,0,1,87.19,27.22Z"/><path class="cls-1" d="M1.14,31.94a.42.42,0,0,1,.1-.32.41.41,0,0,1,.28-.11.4.4,0,0,1,.27.11.44.44,0,0,1,.11.32.45.45,0,0,1-.11.33.4.4,0,0,1-.27.11.41.41,0,0,1-.28-.11A.45.45,0,0,1,1.14,31.94Zm.7,5.44H1.19V33.1h.65Z"/><path class="cls-1" d="M6.14,37.38V34.61a1.17,1.17,0,0,0-.23-.78,1,1,0,0,0-.75-.25,1.25,1.25,0,0,0-1,.36,1.88,1.88,0,0,0-.31,1.2v2.24H3.21V33.1h.53l.11.59h0a1.28,1.28,0,0,1,.56-.49,1.74,1.74,0,0,1,.8-.18,1.62,1.62,0,0,1,1.16.38,1.58,1.58,0,0,1,.39,1.19v2.79Z"/><path class="cls-1" d="M10.89,36.22a1.08,1.08,0,0,1-.45.92,2.14,2.14,0,0,1-1.25.32,2.72,2.72,0,0,1-1.33-.27v-.6a3.09,3.09,0,0,0,.66.25,2.84,2.84,0,0,0,.69.09,1.53,1.53,0,0,0,.78-.17.56.56,0,0,0,0-.92,3.15,3.15,0,0,0-.84-.42A4.75,4.75,0,0,1,8.35,35,1.22,1.22,0,0,1,8,34.66a1,1,0,0,1-.12-.51.94.94,0,0,1,.43-.82A2,2,0,0,1,9.44,33a3.39,3.39,0,0,1,1.36.29l-.23.52a3.23,3.23,0,0,0-1.17-.26,1.44,1.44,0,0,0-.7.14.46.46,0,0,0-.23.4.48.48,0,0,0,.09.29.75.75,0,0,0,.28.23,5.4,5.4,0,0,0,.75.32,2.69,2.69,0,0,1,1,.56A1,1,0,0,1,10.89,36.22Z"/><path class="cls-1" d="M13.32,36.93a1.87,1.87,0,0,0,.34,0l.25,0v.49a.89.89,0,0,1-.31.09l-.37,0C12.4,37.46,12,37,12,36.15V33.61h-.62v-.32L12,33l.27-.91h.38v1h1.24v.51H12.64v2.52a.89.89,0,0,0,.18.59A.63.63,0,0,0,13.32,36.93Z"/><path class="cls-1" d="M17.4,37.38l-.13-.61h0a1.94,1.94,0,0,1-.64.55,2,2,0,0,1-.8.14,1.41,1.41,0,0,1-1-.33,1.19,1.19,0,0,1-.37-.93c0-.86.7-1.32,2.08-1.36l.72,0v-.27a1.11,1.11,0,0,0-.21-.74.91.91,0,0,0-.7-.24,2.83,2.83,0,0,0-1.21.33l-.2-.5a3.91,3.91,0,0,1,.7-.27,2.76,2.76,0,0,1,.75-.1,1.69,1.69,0,0,1,1.14.34,1.45,1.45,0,0,1,.37,1.09v2.92Zm-1.47-.45a1.27,1.27,0,0,0,.95-.34,1.22,1.22,0,0,0,.35-.92v-.39l-.65,0a2.15,2.15,0,0,0-1.11.24.72.72,0,0,0-.35.66.67.67,0,0,0,.22.53A.84.84,0,0,0,15.93,36.93Z"/><path class="cls-1" d="M19.86,37.38h-.65V31.31h.65Z"/><path class="cls-1" d="M21.89,37.38h-.65V31.31h.65Z"/><path class="cls-1" d="M25.07,37.46a2,2,0,0,1-1.5-.58,2.25,2.25,0,0,1-.55-1.6,2.5,2.5,0,0,1,.51-1.65A1.72,1.72,0,0,1,24.9,33a1.61,1.61,0,0,1,1.27.53,2,2,0,0,1,.47,1.4v.41H23.69a1.73,1.73,0,0,0,.38,1.14,1.32,1.32,0,0,0,1,.4,3.51,3.51,0,0,0,1.37-.29v.57a4.16,4.16,0,0,1-.65.22A3.88,3.88,0,0,1,25.07,37.46Zm-.18-3.89a1.08,1.08,0,0,0-.82.33,1.63,1.63,0,0,0-.36.93H26a1.39,1.39,0,0,0-.28-.94A1,1,0,0,0,24.89,33.57Z"/><path class="cls-1" d="M30.66,36.81h0a1.54,1.54,0,0,1-1.35.65,1.58,1.58,0,0,1-1.3-.57,3.1,3.1,0,0,1,0-3.28,1.72,1.72,0,0,1,2.64,0h.05l0-.31v-2h.65v6.07h-.53Zm-1.29.11a1.18,1.18,0,0,0,1-.36,1.82,1.82,0,0,0,.3-1.17v-.14A2.05,2.05,0,0,0,30.32,34a1.13,1.13,0,0,0-1-.39,1,1,0,0,0-.87.44,2.69,2.69,0,0,0,0,2.49A1,1,0,0,0,29.37,36.92Z"/><path class="cls-1" d="M34.67,31.94a.43.43,0,0,1,.11-.32.41.41,0,0,1,.28-.11.4.4,0,0,1,.27.11.44.44,0,0,1,.11.32.45.45,0,0,1-.11.33.4.4,0,0,1-.27.11.41.41,0,0,1-.28-.11A.45.45,0,0,1,34.67,31.94Zm.71,5.44h-.65V33.1h.65Z"/><path class="cls-1" d="M39.68,37.38V34.61a1.12,1.12,0,0,0-.24-.78,1,1,0,0,0-.74-.25,1.25,1.25,0,0,0-1,.36,1.88,1.88,0,0,0-.31,1.2v2.24h-.65V33.1h.53l.11.59h0A1.28,1.28,0,0,1,38,33.2a1.74,1.74,0,0,1,.8-.18,1.62,1.62,0,0,1,1.16.38,1.58,1.58,0,0,1,.39,1.19v2.79Z"/><path class="cls-1" d="M47.06,35.86A1.39,1.39,0,0,1,46.51,37a2.35,2.35,0,0,1-1.48.42,3.6,3.6,0,0,1-1.56-.26v-.64a3.54,3.54,0,0,0,.76.23,3.88,3.88,0,0,0,.82.09,1.62,1.62,0,0,0,1-.25.81.81,0,0,0,.34-.7.91.91,0,0,0-.12-.49,1.08,1.08,0,0,0-.4-.35,4.66,4.66,0,0,0-.85-.36,2.75,2.75,0,0,1-1.14-.68,1.53,1.53,0,0,1-.34-1A1.27,1.27,0,0,1,44,32a2.06,2.06,0,0,1,1.31-.39,4,4,0,0,1,1.57.31l-.21.58a3.51,3.51,0,0,0-1.38-.3,1.33,1.33,0,0,0-.82.23.74.74,0,0,0-.3.63,1,1,0,0,0,.11.49,1.12,1.12,0,0,0,.37.34,4,4,0,0,0,.8.35,3.21,3.21,0,0,1,1.23.69A1.33,1.33,0,0,1,47.06,35.86Z"/><path class="cls-1" d="M50.76,37.38l-1.94-5.06h0c0,.4.05.88.05,1.43v3.63h-.61V31.67h1L51,36.38h0l1.82-4.71h1v5.71h-.67V33.7c0-.42,0-.88.06-1.37h0l-2,5.05Z"/><path class="cls-1" d="M60.75,35.86A1.4,1.4,0,0,1,60.21,37a2.4,2.4,0,0,1-1.49.42,3.6,3.6,0,0,1-1.56-.26v-.64a3.54,3.54,0,0,0,.76.23,3.88,3.88,0,0,0,.82.09,1.62,1.62,0,0,0,1-.25.81.81,0,0,0,.34-.7.91.91,0,0,0-.12-.49,1.08,1.08,0,0,0-.4-.35,4.66,4.66,0,0,0-.85-.36,2.75,2.75,0,0,1-1.14-.68,1.53,1.53,0,0,1-.34-1,1.27,1.27,0,0,1,.5-1.05A2.06,2.06,0,0,1,59,31.59a4,4,0,0,1,1.57.31l-.21.58a3.5,3.5,0,0,0-1.37-.3,1.34,1.34,0,0,0-.83.23.73.73,0,0,0-.29.63,1,1,0,0,0,.1.49,1.12,1.12,0,0,0,.37.34,4,4,0,0,0,.8.35,3.21,3.21,0,0,1,1.23.69A1.33,1.33,0,0,1,60.75,35.86Z"/><path class="cls-1" d="M62.43,33.1v2.78a1.1,1.1,0,0,0,.24.78,1,1,0,0,0,.75.26,1.21,1.21,0,0,0,1-.37,1.82,1.82,0,0,0,.31-1.2V33.1h.65v4.28h-.54l-.09-.57h0a1.23,1.23,0,0,1-.55.48,1.73,1.73,0,0,1-.81.17,1.35,1.35,0,0,1-1.55-1.56V33.1Z"/><path class="cls-1" d="M68.73,37.46a1.92,1.92,0,0,1-.77-.15,1.4,1.4,0,0,1-.58-.48h0a4.47,4.47,0,0,1,0,.71v1.77h-.65V33.1h.53l.09.59h0a1.54,1.54,0,0,1,.58-.51,1.89,1.89,0,0,1,.77-.16,1.59,1.59,0,0,1,1.31.59,3.11,3.11,0,0,1,0,3.27A1.57,1.57,0,0,1,68.73,37.46Zm-.1-3.88a1.16,1.16,0,0,0-.95.36,1.93,1.93,0,0,0-.3,1.15v.15a2.15,2.15,0,0,0,.3,1.29,1.14,1.14,0,0,0,1,.39,1,1,0,0,0,.87-.45,2.13,2.13,0,0,0,.31-1.24A2.07,2.07,0,0,0,69.52,34,1.05,1.05,0,0,0,68.63,33.58Z"/><path class="cls-1" d="M73.44,37.46A1.93,1.93,0,0,1,72,36.88a2.21,2.21,0,0,1-.55-1.6,2.5,2.5,0,0,1,.51-1.65A1.7,1.7,0,0,1,73.28,33a1.62,1.62,0,0,1,1.27.53A2.06,2.06,0,0,1,75,35v.41h-3a1.68,1.68,0,0,0,.38,1.14,1.29,1.29,0,0,0,1,.4,3.46,3.46,0,0,0,1.36-.29v.57a3.56,3.56,0,0,1-.65.22A3.88,3.88,0,0,1,73.44,37.46Zm-.17-3.89a1,1,0,0,0-.82.33,1.57,1.57,0,0,0-.37.93h2.24a1.44,1.44,0,0,0-.27-.94A1,1,0,0,0,73.27,33.57Z"/><path class="cls-1" d="M78.08,33a2.59,2.59,0,0,1,.51,0l-.09.6a2.16,2.16,0,0,0-.47-.06,1.13,1.13,0,0,0-.89.43,1.56,1.56,0,0,0-.37,1.05v2.29h-.65V33.1h.54l.07.8h0a1.85,1.85,0,0,1,.58-.65A1.3,1.3,0,0,1,78.08,33Z"/><path class="cls-1" d="M84.85,37.38V34.6a1.2,1.2,0,0,0-.22-.77.85.85,0,0,0-.68-.25,1.11,1.11,0,0,0-.9.34A1.67,1.67,0,0,0,82.76,35v2.39h-.64V34.6a1.2,1.2,0,0,0-.22-.77.87.87,0,0,0-.69-.25,1.07,1.07,0,0,0-.89.36,2,2,0,0,0-.28,1.2v2.24h-.65V33.1h.53l.1.59h0a1.36,1.36,0,0,1,.52-.49,1.54,1.54,0,0,1,.75-.18,1.27,1.27,0,0,1,1.31.73h0a1.43,1.43,0,0,1,.56-.53,1.73,1.73,0,0,1,.83-.2,1.43,1.43,0,0,1,1.08.38,1.66,1.66,0,0,1,.36,1.19v2.79Z"/><path class="cls-1" d="M89.46,37.38l-.13-.61h0a1.76,1.76,0,0,1-.64.55,2,2,0,0,1-.79.14,1.44,1.44,0,0,1-1-.33,1.18,1.18,0,0,1-.36-.93c0-.86.69-1.32,2.07-1.36l.73,0v-.27a1.06,1.06,0,0,0-.22-.74.87.87,0,0,0-.69-.24,2.8,2.8,0,0,0-1.21.33l-.2-.5a3.54,3.54,0,0,1,.69-.27,2.89,2.89,0,0,1,.76-.1,1.64,1.64,0,0,1,1.13.34,1.41,1.41,0,0,1,.37,1.09v2.92ZM88,36.93a1.29,1.29,0,0,0,1-.34,1.22,1.22,0,0,0,.35-.92v-.39l-.65,0a2.19,2.19,0,0,0-1.12.24.71.71,0,0,0-.34.66.66.66,0,0,0,.21.53A.86.86,0,0,0,88,36.93Z"/><path class="cls-1" d="M91.93,37.38h-.65V31.31h.65Z"/><path class="cls-1" d="M94,37.38H93.3V31.31H94Z"/><path class="cls-1" d="M98.09,36.22a1.08,1.08,0,0,1-.45.92,2.12,2.12,0,0,1-1.25.32,2.68,2.68,0,0,1-1.32-.27v-.6a2.74,2.74,0,0,0,.66.25,2.71,2.71,0,0,0,.68.09,1.5,1.5,0,0,0,.78-.17.52.52,0,0,0,.27-.49.54.54,0,0,0-.21-.43,3.44,3.44,0,0,0-.85-.42,4.75,4.75,0,0,1-.85-.39,1.09,1.09,0,0,1-.37-.37.92.92,0,0,1-.13-.51,1,1,0,0,1,.43-.82A2,2,0,0,1,96.65,33a3.38,3.38,0,0,1,1.35.29l-.23.52a3.23,3.23,0,0,0-1.17-.26,1.37,1.37,0,0,0-.69.14.45.45,0,0,0-.24.4.48.48,0,0,0,.09.29.84.84,0,0,0,.28.23,5.4,5.4,0,0,0,.75.32,2.69,2.69,0,0,1,1,.56A1,1,0,0,1,98.09,36.22Z"/><path class="cls-2" d="M13,8.77q0,10.47-8.11,10.47A8.34,8.34,0,0,1,2.6,19V17.25a6.92,6.92,0,0,0,2.22.32,5.38,5.38,0,0,0,4.42-1.81,9.15,9.15,0,0,0,1.63-5.56h-.14a4.31,4.31,0,0,1-1.79,1.54,5.63,5.63,0,0,1-2.5.53,5,5,0,0,1-3.76-1.41,5.4,5.4,0,0,1-1.39-4A6,6,0,0,1,2.85,2.51,5.39,5.39,0,0,1,6.94.9a5.49,5.49,0,0,1,3.18.93,5.9,5.9,0,0,1,2.1,2.72A11.29,11.29,0,0,1,13,8.77Zm-6-6.14a3.35,3.35,0,0,0-2.7,1.12,4.72,4.72,0,0,0-1,3.13,4.08,4.08,0,0,0,.88,2.76,3.37,3.37,0,0,0,2.67,1,4.66,4.66,0,0,0,2.05-.45A3.71,3.71,0,0,0,10.36,9a2.84,2.84,0,0,0,.54-1.64A5.69,5.69,0,0,0,10.4,5,4.23,4.23,0,0,0,9,3.25,3.55,3.55,0,0,0,6.94,2.63Z"/><path class="cls-2" d="M16.15,17.71a1.8,1.8,0,0,1,.37-1.24,1.35,1.35,0,0,1,1.07-.42,1.43,1.43,0,0,1,1.1.42,1.71,1.71,0,0,1,.4,1.24,1.76,1.76,0,0,1-.4,1.22,1.46,1.46,0,0,1-1.1.42,1.41,1.41,0,0,1-1-.38A1.65,1.65,0,0,1,16.15,17.71Z"/><path class="cls-2" d="M33.9,19H22.16V17.25l4.7-4.72a34.54,34.54,0,0,0,2.84-3.1,8.15,8.15,0,0,0,1-1.81,5.08,5.08,0,0,0,.34-1.89,3,3,0,0,0-.86-2.26,3.32,3.32,0,0,0-2.41-.84,5.88,5.88,0,0,0-2.1.37,8,8,0,0,0-2.22,1.33L22.4,3A8.2,8.2,0,0,1,27.77.9a5.71,5.71,0,0,1,3.94,1.28,4.46,4.46,0,0,1,1.43,3.47,6.69,6.69,0,0,1-1,3.35,21.45,21.45,0,0,1-3.57,4.2L24.72,17v.1H33.9Z"/><path class="cls-2" d="M52.08,19,46,3.18h-.1c.12,1.25.17,2.74.17,4.47V19H44.19V1.15h3.12L53,15.88h.1l5.7-14.73h3.1V19H59.79V7.5c0-1.32.05-2.75.17-4.3h-.1L53.76,19Z"/><path class="cls-2" d="M82.33,19h-2L76.68,7.05c-.17-.53-.36-1.2-.57-2a12.3,12.3,0,0,1-.33-1.46,27.63,27.63,0,0,1-.86,3.53L71.43,19H69.38L64.63,1.15h2.2l2.82,11a40.63,40.63,0,0,1,.85,4.2,30.4,30.4,0,0,1,1-4.37l3.2-10.86h2.2l3.35,11a34,34,0,0,1,1,4.28,38,38,0,0,1,.88-4.23l2.81-11h2.2Z"/></g></svg>