<svg xmlns="http://www.w3.org/2000/svg" viewBox="0 0 142.47 118.01"><defs><style>.cls-1{fill:#1568a1;}.cls-2{fill:#fff;}.cls-3{fill:#4d4e50;}</style></defs><g id="Economic_Opportunities_Image" data-name="Economic Opportunities Image"><rect class="cls-1" width="142.47" height="46.23"/><path class="cls-2" d="M24.18,13.68a2.79,2.79,0,0,1-1,2.33,4.66,4.66,0,0,1-3,.82H19v3.93H17.84v-10h2.59Q24.18,10.77,24.18,13.68ZM19,15.83h1.05a3.92,3.92,0,0,0,2.24-.5,1.83,1.83,0,0,0,.69-1.6,1.72,1.72,0,0,0-.65-1.47,3.37,3.37,0,0,0-2-.49H19Z"/><path class="cls-2" d="M29.52,13.13a4.74,4.74,0,0,1,.89.08l-.15,1.06a3.87,3.87,0,0,0-.82-.11,2,2,0,0,0-1.56.74,2.7,2.7,0,0,0-.65,1.84v4H26.1V13.27H27l.13,1.39h0a3.19,3.19,0,0,1,1-1.13A2.21,2.21,0,0,1,29.52,13.13Z"/><path class="cls-2" d="M38.28,17a4.16,4.16,0,0,1-.92,2.86,3.28,3.28,0,0,1-2.55,1A3.35,3.35,0,0,1,33,20.42a3,3,0,0,1-1.2-1.35A4.77,4.77,0,0,1,31.4,17a4.13,4.13,0,0,1,.91-2.86,3.25,3.25,0,0,1,2.55-1,3.17,3.17,0,0,1,2.5,1A4.14,4.14,0,0,1,38.28,17Zm-5.71,0a3.5,3.5,0,0,0,.58,2.18,2,2,0,0,0,1.69.76,2,2,0,0,0,1.69-.75A3.57,3.57,0,0,0,37.11,17a3.49,3.49,0,0,0-.58-2.17,2,2,0,0,0-1.71-.75,2,2,0,0,0-1.68.74A3.48,3.48,0,0,0,32.57,17Z"/><path class="cls-2" d="M49.82,20.76V15.89a2.07,2.07,0,0,0-.38-1.35,1.48,1.48,0,0,0-1.19-.45,2,2,0,0,0-1.57.61,3,3,0,0,0-.5,1.88v4.18H45V15.89a2,2,0,0,0-.38-1.35,1.49,1.49,0,0,0-1.2-.45,1.87,1.87,0,0,0-1.56.64,3.49,3.49,0,0,0-.49,2.1v3.93H40.27V13.27h.92l.19,1h0a2.26,2.26,0,0,1,.91-.85,2.72,2.72,0,0,1,1.31-.31,2.21,2.21,0,0,1,2.29,1.27H46a2.42,2.42,0,0,1,1-.93,3,3,0,0,1,1.45-.34,2.54,2.54,0,0,1,1.9.65A2.94,2.94,0,0,1,51,15.87v4.89Z"/><path class="cls-2" d="M59.76,17a4.16,4.16,0,0,1-.92,2.86,3.28,3.28,0,0,1-2.55,1,3.35,3.35,0,0,1-1.79-.48,3,3,0,0,1-1.2-1.35A4.77,4.77,0,0,1,52.88,17a4.13,4.13,0,0,1,.91-2.86,3.24,3.24,0,0,1,2.54-1,3.15,3.15,0,0,1,2.5,1A4.09,4.09,0,0,1,59.76,17Zm-5.71,0a3.5,3.5,0,0,0,.58,2.18,2,2,0,0,0,1.68.76A2,2,0,0,0,58,19.2,3.58,3.58,0,0,0,58.58,17,3.49,3.49,0,0,0,58,14.84a2,2,0,0,0-1.71-.75,2,2,0,0,0-1.68.74A3.48,3.48,0,0,0,54.05,17Z"/><path class="cls-2" d="M64.17,20a2.78,2.78,0,0,0,.58-.05,2.57,2.57,0,0,0,.44-.09v.87a2,2,0,0,1-.54.15,3.93,3.93,0,0,1-.65.06c-1.44,0-2.17-.77-2.17-2.29V14.15H60.76V13.6l1.07-.47.48-1.6H63v1.74h2.17v.88H63v4.41a1.49,1.49,0,0,0,.32,1A1.12,1.12,0,0,0,64.17,20Z"/><path class="cls-2" d="M66.6,11.24a.74.74,0,0,1,.19-.57.66.66,0,0,1,.48-.18.67.67,0,0,1,.47.18.74.74,0,0,1,.2.57.77.77,0,0,1-.2.57.68.68,0,0,1-.47.19.67.67,0,0,1-.48-.19A.77.77,0,0,1,66.6,11.24Zm1.23,9.52H66.69V13.27h1.14Z"/><path class="cls-2" d="M75.36,20.76V15.91a1.93,1.93,0,0,0-.42-1.36,1.65,1.65,0,0,0-1.3-.46,2.18,2.18,0,0,0-1.73.64,3.23,3.23,0,0,0-.54,2.1v3.93H70.23V13.27h.93l.18,1h0a2.42,2.42,0,0,1,1-.86,3.23,3.23,0,0,1,1.4-.3,2.85,2.85,0,0,1,2,.65,2.77,2.77,0,0,1,.68,2.09v4.89Z"/><path class="cls-2" d="M85,13.27V14l-1.39.16a2.4,2.4,0,0,1,.34.62,2.42,2.42,0,0,1,.15.88,2.2,2.2,0,0,1-.75,1.75,3,3,0,0,1-2.06.66,3.06,3.06,0,0,1-.63-.06,1.12,1.12,0,0,0-.73,1,.49.49,0,0,0,.25.45,1.83,1.83,0,0,0,.87.15h1.33a3,3,0,0,1,1.87.51,1.79,1.79,0,0,1,.65,1.49,2.13,2.13,0,0,1-1,1.9,5.27,5.27,0,0,1-2.91.65,4,4,0,0,1-2.26-.54,1.86,1.86,0,0,1-.36-2.73,2.24,2.24,0,0,1,1.23-.68,1.23,1.23,0,0,1-.48-.4,1.08,1.08,0,0,1-.2-.64,1.2,1.2,0,0,1,.22-.72,2.33,2.33,0,0,1,.69-.59,2.06,2.06,0,0,1-1-.81,2.44,2.44,0,0,1-.36-1.32,2.41,2.41,0,0,1,.73-1.89,3,3,0,0,1,2.1-.67,3.89,3.89,0,0,1,1.06.14ZM79,22a1,1,0,0,0,.52.92,2.81,2.81,0,0,0,1.46.31,4.16,4.16,0,0,0,2.12-.42,1.31,1.31,0,0,0,.69-1.16.93.93,0,0,0-.38-.85A3,3,0,0,0,82,20.59H80.62a1.79,1.79,0,0,0-1.21.37A1.33,1.33,0,0,0,79,22Zm.62-6.35A1.55,1.55,0,0,0,80,16.86a1.83,1.83,0,0,0,1.24.4,1.45,1.45,0,0,0,1.66-1.61A1.49,1.49,0,0,0,81.26,14a1.66,1.66,0,0,0-1.23.43A1.72,1.72,0,0,0,79.6,15.67Z"/><path class="cls-2" d="M95.94,18.1a2.47,2.47,0,0,1-1,2.06,4.18,4.18,0,0,1-2.6.74,6.61,6.61,0,0,1-2.74-.46V19.32a7.5,7.5,0,0,0,1.34.41,7.19,7.19,0,0,0,1.44.15,2.93,2.93,0,0,0,1.75-.44,1.47,1.47,0,0,0,.59-1.23,1.55,1.55,0,0,0-.21-.85,1.87,1.87,0,0,0-.7-.61,9.29,9.29,0,0,0-1.49-.64,4.77,4.77,0,0,1-2-1.18,2.62,2.62,0,0,1-.6-1.79,2.19,2.19,0,0,1,.87-1.83,3.6,3.6,0,0,1,2.3-.69,6.67,6.67,0,0,1,2.74.55l-.36,1a6.16,6.16,0,0,0-2.41-.52,2.3,2.3,0,0,0-1.44.4,1.29,1.29,0,0,0-.52,1.1,1.67,1.67,0,0,0,.19.85,1.84,1.84,0,0,0,.65.61,7.82,7.82,0,0,0,1.39.61,5.38,5.38,0,0,1,2.16,1.2A2.35,2.35,0,0,1,95.94,18.1Z"/><path class="cls-2" d="M104.28,17a4.16,4.16,0,0,1-.92,2.86,3.62,3.62,0,0,1-4.33.55,3.12,3.12,0,0,1-1.21-1.35A4.77,4.77,0,0,1,97.4,17a4.13,4.13,0,0,1,.91-2.86,3.26,3.26,0,0,1,2.55-1,3.17,3.17,0,0,1,2.5,1A4.14,4.14,0,0,1,104.28,17Zm-5.71,0a3.56,3.56,0,0,0,.58,2.18,2,2,0,0,0,1.69.76,2,2,0,0,0,1.69-.75,3.57,3.57,0,0,0,.58-2.19,3.49,3.49,0,0,0-.58-2.17,2,2,0,0,0-1.71-.75,2,2,0,0,0-1.68.74A3.48,3.48,0,0,0,98.57,17Z"/><path class="cls-2" d="M109.27,20.9a3.18,3.18,0,0,1-2.52-1,4.07,4.07,0,0,1-.9-2.83,4.25,4.25,0,0,1,.91-2.9,3.23,3.23,0,0,1,2.58-1,5,5,0,0,1,1.08.12,3.15,3.15,0,0,1,.85.27l-.35,1a5.66,5.66,0,0,0-.82-.25,4.07,4.07,0,0,0-.79-.09q-2.28,0-2.28,2.91a3.5,3.5,0,0,0,.56,2.12,1.94,1.94,0,0,0,1.65.74,5.07,5.07,0,0,0,1.92-.41v1A4.07,4.07,0,0,1,109.27,20.9Z"/><path class="cls-2" d="M112.84,11.24a.78.78,0,0,1,.19-.57.68.68,0,0,1,.48-.18.67.67,0,0,1,.47.18.71.71,0,0,1,.2.57.74.74,0,0,1-.2.57.69.69,0,0,1-1,0A.81.81,0,0,1,112.84,11.24Zm1.23,9.52h-1.13V13.27h1.13Z"/><path class="cls-2" d="M121.08,20.76l-.22-1.07h-.06a3.18,3.18,0,0,1-1.11,1,3.53,3.53,0,0,1-1.39.25,2.51,2.51,0,0,1-1.75-.58,2.1,2.1,0,0,1-.63-1.63q0-2.28,3.63-2.38l1.27,0V15.8a1.92,1.92,0,0,0-.38-1.3,1.56,1.56,0,0,0-1.21-.42,4.85,4.85,0,0,0-2.12.58l-.35-.87a5.16,5.16,0,0,1,1.21-.47,5,5,0,0,1,1.32-.18,2.84,2.84,0,0,1,2,.6,2.49,2.49,0,0,1,.65,1.91v5.11Zm-2.56-.8a2.31,2.31,0,0,0,1.67-.58,2.17,2.17,0,0,0,.6-1.63v-.67l-1.13,0a4,4,0,0,0-2,.42,1.27,1.27,0,0,0-.6,1.16,1.18,1.18,0,0,0,.37.94A1.58,1.58,0,0,0,118.52,20Z"/><path class="cls-2" d="M125.4,20.76h-1.14V10.12h1.14Z"/><path class="cls-2" d="M17.84,34.41v-10H19v10Z"/><path class="cls-2" d="M26.7,34.41V29.57a2,2,0,0,0-.42-1.37,1.68,1.68,0,0,0-1.3-.45,2.13,2.13,0,0,0-1.72.64,3.15,3.15,0,0,0-.55,2.09v3.93H21.57V26.92h.93l.18,1h.06a2.26,2.26,0,0,1,1-.86,3.24,3.24,0,0,1,1.41-.3,2.8,2.8,0,0,1,2,.65,2.75,2.75,0,0,1,.69,2.09v4.88Z"/><path class="cls-2" d="M33.16,34.55a3.2,3.2,0,0,1-2.52-1,4.14,4.14,0,0,1-.89-2.83,4.21,4.21,0,0,1,.91-2.91,3.26,3.26,0,0,1,2.58-1,5,5,0,0,1,1.08.11,3.27,3.27,0,0,1,.84.28l-.34,1a6.07,6.07,0,0,0-.82-.25,3.48,3.48,0,0,0-.79-.1q-2.28,0-2.28,2.91a3.48,3.48,0,0,0,.55,2.12,2,2,0,0,0,1.65.74,5,5,0,0,0,1.92-.4v1A4.07,4.07,0,0,1,33.16,34.55Z"/><path class="cls-2" d="M38,34.41H36.83V23.78H38Z"/><path class="cls-2" d="M41.44,26.92v4.86a2,2,0,0,0,.42,1.37,1.68,1.68,0,0,0,1.3.45A2.11,2.11,0,0,0,44.88,33a3.27,3.27,0,0,0,.54-2.1V26.92h1.14v7.49h-.94l-.16-1H45.4a2.3,2.3,0,0,1-1,.85,3.32,3.32,0,0,1-1.41.29A2.88,2.88,0,0,1,41,33.9a2.77,2.77,0,0,1-.68-2.08v-4.9Z"/><path class="cls-2" d="M53.8,32.37A1.86,1.86,0,0,1,53,34a3.66,3.66,0,0,1-2.19.57,4.78,4.78,0,0,1-2.32-.47V33a5.91,5.91,0,0,0,1.16.43,5.07,5.07,0,0,0,1.19.16,2.71,2.71,0,0,0,1.37-.29,1,1,0,0,0,.1-1.61A6.33,6.33,0,0,0,50.85,31a7.5,7.5,0,0,1-1.49-.68,2.08,2.08,0,0,1-.66-.66,1.74,1.74,0,0,1-.21-.88,1.68,1.68,0,0,1,.74-1.44,3.44,3.44,0,0,1,2.05-.53,5.94,5.94,0,0,1,2.36.49l-.4.92a5.4,5.4,0,0,0-2.05-.46A2.32,2.32,0,0,0,50,28a.77.77,0,0,0-.41.7.85.85,0,0,0,.15.51,1.53,1.53,0,0,0,.5.4,11.73,11.73,0,0,0,1.31.56,4.94,4.94,0,0,1,1.8,1A1.74,1.74,0,0,1,53.8,32.37Z"/><path class="cls-2" d="M55.55,24.89a.74.74,0,0,1,.19-.57.68.68,0,0,1,.48-.18.64.64,0,0,1,.47.19.73.73,0,0,1,.2.56.74.74,0,0,1-.2.57.64.64,0,0,1-.47.19.65.65,0,0,1-.48-.19A.74.74,0,0,1,55.55,24.89Zm1.23,9.52H55.64V26.92h1.14Z"/><path class="cls-2" d="M65.65,30.66a4.15,4.15,0,0,1-.92,2.86,3.25,3.25,0,0,1-2.55,1,3.4,3.4,0,0,1-1.78-.47,3.18,3.18,0,0,1-1.21-1.35,4.78,4.78,0,0,1-.42-2.07,4.12,4.12,0,0,1,.91-2.85,3.26,3.26,0,0,1,2.55-1,3.16,3.16,0,0,1,2.5,1A4.15,4.15,0,0,1,65.65,30.66Zm-5.71,0a3.57,3.57,0,0,0,.58,2.19,2,2,0,0,0,1.69.75,2,2,0,0,0,1.69-.75,3.57,3.57,0,0,0,.58-2.19,3.53,3.53,0,0,0-.58-2.17,2,2,0,0,0-1.71-.74,2,2,0,0,0-1.68.73A3.52,3.52,0,0,0,59.94,30.66Z"/><path class="cls-2" d="M72.77,34.41V29.57a2,2,0,0,0-.42-1.37,1.69,1.69,0,0,0-1.3-.45,2.15,2.15,0,0,0-1.73.64,3.21,3.21,0,0,0-.54,2.09v3.93H67.64V26.92h.92l.19,1h0a2.34,2.34,0,0,1,1-.86,3.23,3.23,0,0,1,1.4-.3,2.84,2.84,0,0,1,2,.65,2.75,2.75,0,0,1,.68,2.09v4.88Z"/><path class="cls-3" d="M27.13,91a1.91,1.91,0,0,1-.76-.15,1.4,1.4,0,0,1-.58-.48h-.05a4.47,4.47,0,0,1,.05.71v1.77h-.65V86.65h.53l.09.59h0a1.54,1.54,0,0,1,.58-.51,1.84,1.84,0,0,1,.76-.15,1.59,1.59,0,0,1,1.32.58,2.55,2.55,0,0,1,.46,1.63,2.52,2.52,0,0,1-.47,1.64A1.58,1.58,0,0,1,27.13,91ZM27,87.13a1.16,1.16,0,0,0-.95.36,1.94,1.94,0,0,0-.3,1.16v.14a2.15,2.15,0,0,0,.3,1.29,1.14,1.14,0,0,0,1,.39,1,1,0,0,0,.87-.45,2.2,2.2,0,0,0,.31-1.24,2.15,2.15,0,0,0-.31-1.23A1.05,1.05,0,0,0,27,87.13Z"/><path class="cls-3" d="M32.68,90.93l-.13-.6h0a1.58,1.58,0,0,1-1.44.68,1.41,1.41,0,0,1-1-.33,1.17,1.17,0,0,1-.37-.93c0-.86.7-1.32,2.08-1.36l.73,0V88.1a1.11,1.11,0,0,0-.22-.74.9.9,0,0,0-.69-.24,2.87,2.87,0,0,0-1.22.33l-.19-.5a3.54,3.54,0,0,1,.69-.27,3.22,3.22,0,0,1,.75-.1,1.69,1.69,0,0,1,1.14.34A1.41,1.41,0,0,1,33.16,88v2.92Zm-1.47-.45a1.31,1.31,0,0,0,.95-.33,1.26,1.26,0,0,0,.35-.93v-.39l-.65,0a2.15,2.15,0,0,0-1.11.24.72.72,0,0,0-.35.66.64.64,0,0,0,.22.53A.84.84,0,0,0,31.21,90.48Z"/><path class="cls-3" d="M36.45,86.58a2.64,2.64,0,0,1,.51,0l-.09.6a2.16,2.16,0,0,0-.47-.06,1.16,1.16,0,0,0-.89.43,1.56,1.56,0,0,0-.37,1v2.29h-.65V86.65H35l.07.8h0a1.85,1.85,0,0,1,.58-.65A1.29,1.29,0,0,1,36.45,86.58Z"/><path class="cls-3" d="M39.14,90.48a1.69,1.69,0,0,0,.33,0,1.2,1.2,0,0,0,.26,0v.5a1.37,1.37,0,0,1-.31.08l-.37,0c-.83,0-1.24-.43-1.24-1.31V87.16h-.62v-.32l.62-.26.27-.92h.38v1H39.7v.51H38.46v2.52a.89.89,0,0,0,.18.59A.63.63,0,0,0,39.14,90.48Z"/><path class="cls-3" d="M40.53,85.49a.43.43,0,0,1,.11-.32.39.39,0,0,1,.54,0,.4.4,0,0,1,.11.32.41.41,0,0,1-.11.33.39.39,0,0,1-.54,0A.45.45,0,0,1,40.53,85.49Zm.7,5.44h-.65V86.65h.65Z"/><path class="cls-3" d="M44.32,91a1.83,1.83,0,0,1-1.44-.57,2.35,2.35,0,0,1-.51-1.62,2.41,2.41,0,0,1,.52-1.66,1.84,1.84,0,0,1,1.47-.58,3.26,3.26,0,0,1,.62.06,2.22,2.22,0,0,1,.48.16l-.2.55a2.15,2.15,0,0,0-.47-.14,1.92,1.92,0,0,0-.44-.06c-.87,0-1.31.55-1.31,1.66A2,2,0,0,0,43.36,90a1.09,1.09,0,0,0,.94.43,2.93,2.93,0,0,0,1.1-.23v.57A2.34,2.34,0,0,1,44.32,91Z"/><path class="cls-3" d="M46.36,85.49a.43.43,0,0,1,.11-.32.39.39,0,0,1,.54,0,.41.41,0,0,1,.12.32.42.42,0,0,1-.12.33.39.39,0,0,1-.54,0A.45.45,0,0,1,46.36,85.49Zm.7,5.44h-.64V86.65h.64Z"/><path class="cls-3" d="M50.43,91a1.87,1.87,0,0,1-.76-.15,1.34,1.34,0,0,1-.58-.48H49a6.07,6.07,0,0,1,.05.71v1.77h-.65V86.65H49l.09.59h0a1.47,1.47,0,0,1,.58-.51,1.81,1.81,0,0,1,.76-.15,1.59,1.59,0,0,1,1.32.58,2.61,2.61,0,0,1,.46,1.63,2.58,2.58,0,0,1-.47,1.64A1.59,1.59,0,0,1,50.43,91Zm-.09-3.88a1.15,1.15,0,0,0-1,.36,1.81,1.81,0,0,0-.3,1.16v.14a2.15,2.15,0,0,0,.3,1.29,1.13,1.13,0,0,0,1,.39,1,1,0,0,0,.87-.45,2.13,2.13,0,0,0,.32-1.24,2.07,2.07,0,0,0-.32-1.23A1,1,0,0,0,50.34,87.13Z"/><path class="cls-3" d="M56,90.93l-.12-.6h0a1.78,1.78,0,0,1-.63.54,1.91,1.91,0,0,1-.8.14,1.44,1.44,0,0,1-1-.33,1.17,1.17,0,0,1-.36-.93c0-.86.69-1.32,2.08-1.36l.72,0V88.1a1.11,1.11,0,0,0-.21-.74.91.91,0,0,0-.7-.24,2.8,2.8,0,0,0-1.21.33l-.2-.5a3.4,3.4,0,0,1,.7-.27,3.22,3.22,0,0,1,.75-.1,1.69,1.69,0,0,1,1.14.34A1.45,1.45,0,0,1,56.46,88v2.92Zm-1.46-.45a1.32,1.32,0,0,0,1-.33,1.26,1.26,0,0,0,.35-.93v-.39l-.65,0A2.19,2.19,0,0,0,54,89.1a.71.71,0,0,0-.34.66.66.66,0,0,0,.21.53A.86.86,0,0,0,54.51,90.48Z"/><path class="cls-3" d="M60.72,90.93V88.16a1.14,1.14,0,0,0-.24-.78,1,1,0,0,0-.74-.25,1.25,1.25,0,0,0-1,.36,1.82,1.82,0,0,0-.31,1.2v2.24h-.65V86.65h.53l.1.59h0a1.31,1.31,0,0,1,.55-.49,1.77,1.77,0,0,1,.8-.17A1.63,1.63,0,0,1,61,87a1.58,1.58,0,0,1,.39,1.19v2.79Z"/><path class="cls-3" d="M64.08,90.48a1.87,1.87,0,0,0,.34,0l.25,0v.5a1.23,1.23,0,0,1-.31.08L64,91c-.83,0-1.24-.43-1.24-1.31V87.16h-.62v-.32l.62-.26.27-.92h.38v1h1.24v.51H63.4v2.52a.89.89,0,0,0,.18.59A.63.63,0,0,0,64.08,90.48Z"/><path class="cls-3" d="M68.29,89.77a1.08,1.08,0,0,1-.45.92,2.07,2.07,0,0,1-1.25.32,2.72,2.72,0,0,1-1.33-.27v-.6a3,3,0,0,0,.67.25,2.71,2.71,0,0,0,.68.09,1.62,1.62,0,0,0,.78-.16.55.55,0,0,0,.27-.5.56.56,0,0,0-.21-.43A4.36,4.36,0,0,0,66.6,89a3.65,3.65,0,0,1-.85-.39,1.22,1.22,0,0,1-.38-.37,1,1,0,0,1-.12-.51,1,1,0,0,1,.43-.82,2,2,0,0,1,1.17-.3,3.37,3.37,0,0,1,1.35.28l-.23.52a3.23,3.23,0,0,0-1.17-.26,1.44,1.44,0,0,0-.7.14.46.46,0,0,0-.23.4A.46.46,0,0,0,66,88a.84.84,0,0,0,.28.23,5.4,5.4,0,0,0,.75.32,2.84,2.84,0,0,1,1,.56A1,1,0,0,1,68.29,89.77Z"/><path class="cls-3" d="M73.35,87.16H72.26v3.77h-.65V87.16h-.76v-.3l.76-.23v-.24c0-1,.46-1.58,1.38-1.58a2.93,2.93,0,0,1,.8.14l-.17.52a2.14,2.14,0,0,0-.64-.12.61.61,0,0,0-.54.24,1.38,1.38,0,0,0-.18.79v.27h1.09Z"/><path class="cls-3" d="M77.83,88.79a2.35,2.35,0,0,1-.53,1.63,1.84,1.84,0,0,1-1.46.59,1.94,1.94,0,0,1-1-.27,1.85,1.85,0,0,1-.69-.77,2.73,2.73,0,0,1-.24-1.18,2.35,2.35,0,0,1,.53-1.63,1.84,1.84,0,0,1,1.45-.58,1.81,1.81,0,0,1,1.43.59A2.38,2.38,0,0,1,77.83,88.79Zm-3.27,0A2,2,0,0,0,74.89,90a1.3,1.3,0,0,0,1.93,0,2.51,2.51,0,0,0,0-2.49,1.15,1.15,0,0,0-1-.42,1.17,1.17,0,0,0-1,.41A2,2,0,0,0,74.56,88.79Z"/><path class="cls-3" d="M80.92,86.58a2.64,2.64,0,0,1,.51,0l-.09.6a2.23,2.23,0,0,0-.47-.06,1.16,1.16,0,0,0-.89.43,1.51,1.51,0,0,0-.37,1v2.29H79V86.65h.54l.07.8h0a1.85,1.85,0,0,1,.58-.65A1.29,1.29,0,0,1,80.92,86.58Z"/><path class="cls-3" d="M85.69,90.48a1.84,1.84,0,0,0,.33,0,1.33,1.33,0,0,0,.26,0v.5A1.33,1.33,0,0,1,86,91l-.36,0c-.83,0-1.25-.43-1.25-1.31V87.16h-.61v-.32l.61-.26.28-.92H85v1h1.24v.51H85v2.52a.84.84,0,0,0,.19.59A.63.63,0,0,0,85.69,90.48Z"/><path class="cls-3" d="M90.06,90.93V88.16a1.14,1.14,0,0,0-.24-.78,1,1,0,0,0-.74-.25,1.23,1.23,0,0,0-1,.36,1.87,1.87,0,0,0-.31,1.21v2.23h-.65V84.86h.65V86.7a4.22,4.22,0,0,1,0,.55h0a1.29,1.29,0,0,1,.54-.49,1.79,1.79,0,0,1,.81-.18,1.67,1.67,0,0,1,1.18.38,1.55,1.55,0,0,1,.39,1.18v2.79Z"/><path class="cls-3" d="M93.85,91a2,2,0,0,1-1.5-.58,2.25,2.25,0,0,1-.55-1.6,2.5,2.5,0,0,1,.51-1.65,1.71,1.71,0,0,1,1.37-.6A1.64,1.64,0,0,1,95,87.1a2.06,2.06,0,0,1,.46,1.4v.41h-3a1.76,1.76,0,0,0,.39,1.15,1.31,1.31,0,0,0,1,.39,3.51,3.51,0,0,0,1.37-.29v.58a4.05,4.05,0,0,1-.65.21A4,4,0,0,1,93.85,91Zm-.18-3.89a1.08,1.08,0,0,0-.82.33,1.63,1.63,0,0,0-.36.93h2.24a1.46,1.46,0,0,0-.27-.94A1,1,0,0,0,93.67,87.12Z"/><path class="cls-3" d="M103,90.93h-.66V88.25h-3v2.68h-.66V85.22h.66v2.43h3V85.22H103Z"/><path class="cls-3" d="M107.14,90.93l-.13-.6h0a1.73,1.73,0,0,1-.64.54,1.83,1.83,0,0,1-.79.14,1.42,1.42,0,0,1-1-.33,1.17,1.17,0,0,1-.36-.93c0-.86.69-1.32,2.07-1.36l.73,0V88.1a1.06,1.06,0,0,0-.22-.74.87.87,0,0,0-.69-.24,2.8,2.8,0,0,0-1.21.33l-.2-.5a3.54,3.54,0,0,1,.69-.27,3.38,3.38,0,0,1,.76-.1,1.64,1.64,0,0,1,1.13.34,1.41,1.41,0,0,1,.37,1.09v2.92Zm-1.46-.45a1.32,1.32,0,0,0,.95-.33,1.25,1.25,0,0,0,.34-.93v-.39l-.64,0a2.19,2.19,0,0,0-1.12.24.71.71,0,0,0-.34.66.66.66,0,0,0,.21.53A.85.85,0,0,0,105.68,90.48Z"/><path class="cls-3" d="M111,91a1.87,1.87,0,0,1-.76-.15,1.34,1.34,0,0,1-.58-.48h0a6.07,6.07,0,0,1,0,.71v1.77H109V86.65h.53l.09.59h0a1.47,1.47,0,0,1,.58-.51,1.81,1.81,0,0,1,.76-.15,1.59,1.59,0,0,1,1.32.58,2.61,2.61,0,0,1,.46,1.63,2.58,2.58,0,0,1-.47,1.64A1.59,1.59,0,0,1,111,91Zm-.09-3.88a1.15,1.15,0,0,0-1,.36,1.81,1.81,0,0,0-.3,1.16v.14a2.15,2.15,0,0,0,.3,1.29,1.13,1.13,0,0,0,1,.39,1,1,0,0,0,.87-.45,2.13,2.13,0,0,0,.32-1.24,2.07,2.07,0,0,0-.32-1.23A1,1,0,0,0,110.86,87.13Z"/><path class="cls-3" d="M115.85,91a1.87,1.87,0,0,1-.76-.15,1.4,1.4,0,0,1-.58-.48h-.05a6.07,6.07,0,0,1,.05.71v1.77h-.65V86.65h.53l.09.59h0a1.54,1.54,0,0,1,.58-.51,1.84,1.84,0,0,1,.76-.15,1.59,1.59,0,0,1,1.32.58,2.55,2.55,0,0,1,.46,1.63,2.58,2.58,0,0,1-.47,1.64A1.58,1.58,0,0,1,115.85,91Zm-.09-3.88a1.16,1.16,0,0,0-1,.36,1.94,1.94,0,0,0-.3,1.16v.14a2.15,2.15,0,0,0,.3,1.29,1.14,1.14,0,0,0,1,.39,1,1,0,0,0,.86-.45,2.13,2.13,0,0,0,.32-1.24,2.07,2.07,0,0,0-.32-1.23A1,1,0,0,0,115.76,87.13Z"/><path class="cls-3" d="M118.08,86.65h.7l.94,2.44a10.25,10.25,0,0,1,.38,1.21h0c0-.13.11-.36.21-.68s.46-1.31,1.06-3h.7l-1.84,4.88a2.33,2.33,0,0,1-.64,1,1.31,1.31,0,0,1-.9.31,2.87,2.87,0,0,1-.58-.07v-.52a2.28,2.28,0,0,0,.48,0,1,1,0,0,0,.95-.75l.24-.61Z"/><path class="cls-3" d="M30.22,99.93h-.65l-1.15-3.82c-.06-.17-.12-.38-.19-.64a2.56,2.56,0,0,1-.1-.47,8.08,8.08,0,0,1-.28,1.13l-1.11,3.8h-.66l-1.52-5.71h.7l.91,3.53c.12.5.21.94.27,1.34a9.32,9.32,0,0,1,.31-1.39l1-3.48h.7l1.07,3.51a10.51,10.51,0,0,1,.32,1.36,11.71,11.71,0,0,1,.28-1.35l.9-3.52h.7Z"/><path class="cls-3" d="M35.18,99.93l-.13-.6h0a1.73,1.73,0,0,1-.64.54,1.83,1.83,0,0,1-.79.14,1.42,1.42,0,0,1-1-.33,1.17,1.17,0,0,1-.36-.93c0-.86.69-1.32,2.07-1.36l.73,0V97.1a1.06,1.06,0,0,0-.22-.74.87.87,0,0,0-.69-.24,2.8,2.8,0,0,0-1.21.33l-.2-.5a3.54,3.54,0,0,1,.69-.27,3.3,3.3,0,0,1,.76-.1,1.64,1.64,0,0,1,1.13.34A1.41,1.41,0,0,1,35.66,97v2.92Zm-1.46-.45a1.32,1.32,0,0,0,1-.33,1.25,1.25,0,0,0,.34-.93v-.39l-.64,0a2.19,2.19,0,0,0-1.12.24.71.71,0,0,0-.34.66.66.66,0,0,0,.21.53A.85.85,0,0,0,33.72,99.48Z"/><path class="cls-3" d="M37.65,99.93H37V93.86h.65Z"/><path class="cls-3" d="M39.66,97.74c.11-.16.29-.36.51-.62l1.39-1.47h.77l-1.74,1.83,1.86,2.45h-.79l-1.51-2-.49.42v1.6H39V93.86h.64v3.22q0,.21,0,.66Z"/><path class="cls-3" d="M47.23,96.16H46.14v3.77h-.65V96.16h-.77v-.3l.77-.23v-.24c0-1,.46-1.58,1.38-1.58a2.93,2.93,0,0,1,.8.14l-.17.52a2.14,2.14,0,0,0-.64-.12.64.64,0,0,0-.55.24,1.47,1.47,0,0,0-.17.79v.27h1.09Z"/><path class="cls-3" d="M51.71,97.79a2.35,2.35,0,0,1-.53,1.63,1.84,1.84,0,0,1-1.46.59,1.94,1.94,0,0,1-1-.27A1.79,1.79,0,0,1,48,99a2.73,2.73,0,0,1-.24-1.18,2.4,2.4,0,0,1,.52-1.63,1.86,1.86,0,0,1,1.46-.58,1.81,1.81,0,0,1,1.43.59A2.38,2.38,0,0,1,51.71,97.79Zm-3.27,0A2,2,0,0,0,48.77,99a1.3,1.3,0,0,0,1.93,0,2.51,2.51,0,0,0,0-2.49,1.33,1.33,0,0,0-1.93,0A2,2,0,0,0,48.44,97.79Z"/><path class="cls-3" d="M54.79,95.58a2.75,2.75,0,0,1,.52,0l-.09.6a2.23,2.23,0,0,0-.47-.06,1.16,1.16,0,0,0-.89.43,1.51,1.51,0,0,0-.37,1v2.29h-.65V95.65h.54l.07.8h0a1.85,1.85,0,0,1,.58-.65A1.28,1.28,0,0,1,54.79,95.58Z"/><path class="cls-3" d="M62.84,97a2.86,2.86,0,0,1-.77,2.17,3,3,0,0,1-2.2.74H58.28V94.22H60A2.8,2.8,0,0,1,62.1,95,2.75,2.75,0,0,1,62.84,97Zm-.7,0a2.33,2.33,0,0,0-.56-1.69,2.28,2.28,0,0,0-1.67-.56H59v4.56h.81a2.45,2.45,0,0,0,1.78-.58A2.32,2.32,0,0,0,62.14,97.05Z"/><path class="cls-3" d="M67.71,97.79a2.35,2.35,0,0,1-.52,1.63,1.85,1.85,0,0,1-1.46.59,1.94,1.94,0,0,1-1-.27A1.73,1.73,0,0,1,64,99a2.73,2.73,0,0,1-.24-1.18,2.35,2.35,0,0,1,.52-1.63,1.86,1.86,0,0,1,1.46-.58,1.78,1.78,0,0,1,1.42.59A2.33,2.33,0,0,1,67.71,97.79Zm-3.26,0A2,2,0,0,0,64.78,99a1.3,1.3,0,0,0,1.93,0,2.51,2.51,0,0,0,0-2.49,1.33,1.33,0,0,0-1.93,0A2,2,0,0,0,64.45,97.79Z"/><path class="cls-3" d="M72.35,99.93l-.79-2.51c0-.15-.14-.5-.28-1h0q-.15.68-.27,1.05l-.81,2.5h-.75l-1.17-4.28h.68q.42,1.62.63,2.46a8.57,8.57,0,0,1,.25,1.14h0c0-.15.08-.34.14-.58s.12-.42.17-.56l.78-2.46h.7l.77,2.46a8.84,8.84,0,0,1,.3,1.13h0c0-.09,0-.24.08-.43s.32-1.25.82-3.16h.67l-1.18,4.28Z"/><path class="cls-3" d="M78,99.93V97.16a1.14,1.14,0,0,0-.24-.78,1,1,0,0,0-.74-.25,1.25,1.25,0,0,0-1,.36,1.82,1.82,0,0,0-.31,1.2v2.24h-.65V95.65h.53l.11.59h0a1.31,1.31,0,0,1,.55-.49,1.81,1.81,0,0,1,.81-.17,1.62,1.62,0,0,1,1.16.37,1.58,1.58,0,0,1,.39,1.19v2.79Z"/><path class="cls-3" d="M85.38,98.41a1.39,1.39,0,0,1-.55,1.18,2.37,2.37,0,0,1-1.48.42,3.6,3.6,0,0,1-1.56-.26v-.64a3.54,3.54,0,0,0,.76.23,3.88,3.88,0,0,0,.82.09,1.62,1.62,0,0,0,1-.25.81.81,0,0,0,.34-.7.91.91,0,0,0-.12-.49,1.18,1.18,0,0,0-.4-.35,4.66,4.66,0,0,0-.85-.36,2.75,2.75,0,0,1-1.14-.68,1.48,1.48,0,0,1-.34-1,1.27,1.27,0,0,1,.5-1,2,2,0,0,1,1.31-.39,4,4,0,0,1,1.57.31L85,95a3.49,3.49,0,0,0-1.38-.29,1.33,1.33,0,0,0-.82.22.74.74,0,0,0-.3.63,1,1,0,0,0,.11.49,1,1,0,0,0,.37.34,4,4,0,0,0,.8.35,3.21,3.21,0,0,1,1.23.69A1.33,1.33,0,0,1,85.38,98.41Z"/><path class="cls-3" d="M85.77,95.65h.7l.93,2.44a9,9,0,0,1,.39,1.21h0c0-.13.1-.36.21-.68s.46-1.31,1.06-3h.7L88,100.53a2.42,2.42,0,0,1-.64,1,1.33,1.33,0,0,1-.9.31,2.79,2.79,0,0,1-.58-.07v-.52a2.28,2.28,0,0,0,.48,0,1,1,0,0,0,1-.75l.24-.61Z"/><path class="cls-3" d="M93.41,99.93V97.16a1.14,1.14,0,0,0-.24-.78,1,1,0,0,0-.74-.25,1.25,1.25,0,0,0-1,.36,1.82,1.82,0,0,0-.31,1.2v2.24h-.65V95.65H91l.11.59h0a1.28,1.28,0,0,1,.56-.49,1.74,1.74,0,0,1,.8-.17,1.62,1.62,0,0,1,1.16.37,1.58,1.58,0,0,1,.39,1.19v2.79Z"/><path class="cls-3" d="M98.31,99.36h0a1.51,1.51,0,0,1-1.34.65,1.6,1.6,0,0,1-1.31-.57,2.53,2.53,0,0,1-.47-1.63,2.59,2.59,0,0,1,.47-1.65,1.59,1.59,0,0,1,1.31-.58,1.55,1.55,0,0,1,1.33.63h0l0-.31,0-.3V93.86h.65v6.07h-.53Zm-1.3.11a1.18,1.18,0,0,0,1-.36,1.82,1.82,0,0,0,.3-1.17v-.13a2.16,2.16,0,0,0-.3-1.3,1.14,1.14,0,0,0-1-.39,1,1,0,0,0-.87.44,2.22,2.22,0,0,0-.3,1.25,2.12,2.12,0,0,0,.3,1.24A1,1,0,0,0,97,99.47Z"/><path class="cls-3" d="M102.25,95.58a2.64,2.64,0,0,1,.51,0l-.09.6a2.16,2.16,0,0,0-.47-.06,1.17,1.17,0,0,0-.89.43,1.56,1.56,0,0,0-.37,1v2.29h-.65V95.65h.54l.07.8h0a1.82,1.82,0,0,1,.57-.65A1.29,1.29,0,0,1,102.25,95.58Z"/><path class="cls-3" d="M107.26,97.79a2.35,2.35,0,0,1-.53,1.63,1.84,1.84,0,0,1-1.46.59,1.94,1.94,0,0,1-1-.27,1.85,1.85,0,0,1-.69-.77,2.73,2.73,0,0,1-.24-1.18,2.35,2.35,0,0,1,.53-1.63,1.84,1.84,0,0,1,1.45-.58,1.81,1.81,0,0,1,1.43.59A2.38,2.38,0,0,1,107.26,97.79Zm-3.27,0a2,2,0,0,0,.33,1.25,1.3,1.3,0,0,0,1.93,0,2.51,2.51,0,0,0,0-2.49,1.15,1.15,0,0,0-1-.42,1.17,1.17,0,0,0-1,.41A2,2,0,0,0,104,97.79Z"/><path class="cls-3" d="M113.85,99.93V97.15a1.14,1.14,0,0,0-.22-.77.85.85,0,0,0-.68-.25,1.09,1.09,0,0,0-.89.34,1.63,1.63,0,0,0-.29,1.07v2.39h-.65V97.15a1.14,1.14,0,0,0-.22-.77.85.85,0,0,0-.68-.25,1.08,1.08,0,0,0-.9.36,2,2,0,0,0-.28,1.2v2.24h-.65V95.65h.53l.11.59h0a1.27,1.27,0,0,1,.51-.49,1.59,1.59,0,0,1,.75-.17,1.26,1.26,0,0,1,1.31.72h0a1.34,1.34,0,0,1,.55-.53,1.72,1.72,0,0,1,.83-.19,1.45,1.45,0,0,1,1.09.37,1.66,1.66,0,0,1,.36,1.19v2.79Z"/><path class="cls-3" d="M117.64,100a2,2,0,0,1-1.5-.58,2.25,2.25,0,0,1-.54-1.6,2.5,2.5,0,0,1,.51-1.65,1.69,1.69,0,0,1,1.36-.6,1.62,1.62,0,0,1,1.28.52,2.06,2.06,0,0,1,.47,1.4v.41h-3a1.71,1.71,0,0,0,.38,1.15,1.32,1.32,0,0,0,1,.39,3.46,3.46,0,0,0,1.36-.29v.58a3.76,3.76,0,0,1-.65.21A3.88,3.88,0,0,1,117.64,100Zm-.17-3.89a1.08,1.08,0,0,0-.83.33,1.63,1.63,0,0,0-.36.93h2.24a1.46,1.46,0,0,0-.27-.94A1,1,0,0,0,117.47,96.12Z"/><path class="cls-3" d="M27.78,108.93l-.13-.6h0a1.58,1.58,0,0,1-1.44.68,1.44,1.44,0,0,1-1-.33,1.17,1.17,0,0,1-.36-.93c0-.86.69-1.32,2.08-1.36l.72,0v-.27a1.11,1.11,0,0,0-.21-.74.91.91,0,0,0-.7-.24,2.83,2.83,0,0,0-1.21.33l-.2-.5a3.4,3.4,0,0,1,.7-.27,3.22,3.22,0,0,1,.75-.1,1.69,1.69,0,0,1,1.14.34,1.45,1.45,0,0,1,.37,1.09v2.92Zm-1.47-.45a1.32,1.32,0,0,0,1-.33,1.26,1.26,0,0,0,.35-.93v-.39l-.65,0a2.19,2.19,0,0,0-1.12.24.73.73,0,0,0-.34.66.66.66,0,0,0,.21.53A.86.86,0,0,0,26.31,108.48Z"/><path class="cls-3" d="M32.52,108.93v-2.77a1.14,1.14,0,0,0-.24-.78,1,1,0,0,0-.74-.25,1.25,1.25,0,0,0-1,.36,1.82,1.82,0,0,0-.31,1.2v2.24h-.65v-4.28h.53l.1.59h0a1.31,1.31,0,0,1,.55-.49,1.78,1.78,0,0,1,.81-.17,1.62,1.62,0,0,1,1.16.37,1.58,1.58,0,0,1,.39,1.19v2.79Z"/><path class="cls-3" d="M37.42,108.36h0A1.51,1.51,0,0,1,36,109a1.6,1.6,0,0,1-1.31-.57,2.53,2.53,0,0,1-.47-1.63,2.59,2.59,0,0,1,.47-1.65,1.58,1.58,0,0,1,1.31-.58,1.55,1.55,0,0,1,1.33.63h.05l0-.31,0-.3v-1.74H38v6.07H37.5Zm-1.3.11a1.18,1.18,0,0,0,1-.36,1.82,1.82,0,0,0,.3-1.17v-.13a2.16,2.16,0,0,0-.3-1.3,1.16,1.16,0,0,0-1-.39,1,1,0,0,0-.87.44,2.22,2.22,0,0,0-.3,1.25,2.12,2.12,0,0,0,.3,1.24A1,1,0,0,0,36.12,108.47Z"/><path class="cls-3" d="M42.87,108.48a1.84,1.84,0,0,0,.33,0l.25,0v.5a1.23,1.23,0,0,1-.31.08l-.37,0c-.83,0-1.24-.43-1.24-1.31v-2.54h-.61v-.32l.61-.26.27-.92h.38v1h1.24v.51H42.18v2.52a.89.89,0,0,0,.18.59A.64.64,0,0,0,42.87,108.48Z"/><path class="cls-3" d="M47.24,108.93v-2.77a1.14,1.14,0,0,0-.24-.78,1,1,0,0,0-.75-.25,1.21,1.21,0,0,0-1,.36A1.87,1.87,0,0,0,45,106.7v2.23h-.65v-6.07H45v1.84a2.88,2.88,0,0,1,0,.55h0a1.31,1.31,0,0,1,.55-.49,1.71,1.71,0,0,1,.8-.18,1.64,1.64,0,0,1,1.18.38,1.55,1.55,0,0,1,.39,1.18v2.79Z"/><path class="cls-3" d="M51,109a1.94,1.94,0,0,1-1.5-.58,2.21,2.21,0,0,1-.55-1.6,2.5,2.5,0,0,1,.51-1.65,1.71,1.71,0,0,1,1.37-.6,1.62,1.62,0,0,1,1.27.52,2.06,2.06,0,0,1,.47,1.4v.41h-3a1.71,1.71,0,0,0,.38,1.15,1.32,1.32,0,0,0,1,.39,3.55,3.55,0,0,0,1.37-.29v.58A3.08,3.08,0,0,1,51,109Zm-.18-3.89a1.06,1.06,0,0,0-.82.33,1.51,1.51,0,0,0-.36.93H51.9a1.46,1.46,0,0,0-.27-.94A1,1,0,0,0,50.85,105.12Z"/><path class="cls-3" d="M59.47,108.93l-.71-1.81H56.47l-.7,1.81H55.1l2.25-5.73h.56l2.25,5.73Zm-.92-2.41-.66-1.77a7.9,7.9,0,0,1-.27-.82,7.15,7.15,0,0,1-.24.82l-.67,1.77Z"/><path class="cls-3" d="M63.78,108.93v-2.77a1.14,1.14,0,0,0-.24-.78,1,1,0,0,0-.75-.25,1.23,1.23,0,0,0-1,.36,1.81,1.81,0,0,0-.32,1.2v2.24h-.64v-4.28h.52l.11.59h0a1.34,1.34,0,0,1,.56-.49,1.74,1.74,0,0,1,.8-.17A1.62,1.62,0,0,1,64,105a1.58,1.58,0,0,1,.39,1.19v2.79Z"/><path class="cls-3" d="M69.26,104.65v.41l-.79.1a1.28,1.28,0,0,1,.19.35,1.35,1.35,0,0,1,.09.5,1.27,1.27,0,0,1-.43,1,1.74,1.74,0,0,1-1.18.37,2,2,0,0,1-.36,0,.63.63,0,0,0-.41.55.26.26,0,0,0,.14.26,1,1,0,0,0,.5.08h.75a1.66,1.66,0,0,1,1.07.3,1,1,0,0,1,.38.85,1.19,1.19,0,0,1-.58,1.08,3,3,0,0,1-1.66.38,2.23,2.23,0,0,1-1.29-.32,1,1,0,0,1-.46-.88,1,1,0,0,1,.25-.67,1.3,1.3,0,0,1,.7-.39.67.67,0,0,1-.27-.23.6.6,0,0,1-.11-.37.73.73,0,0,1,.12-.41,1.57,1.57,0,0,1,.4-.34,1.1,1.1,0,0,1-.54-.46A1.53,1.53,0,0,1,66,105a1.69,1.69,0,0,1,1.19-.38,2.27,2.27,0,0,1,.61.07Zm-3.41,5a.57.57,0,0,0,.29.53,1.59,1.59,0,0,0,.84.18,2.39,2.39,0,0,0,1.21-.24.77.77,0,0,0,.39-.67.53.53,0,0,0-.21-.48,1.72,1.72,0,0,0-.81-.13h-.78a1,1,0,0,0-.69.21A.75.75,0,0,0,65.85,109.65ZM66.2,106a.86.86,0,0,0,.25.68,1,1,0,0,0,.71.23c.63,0,1-.3,1-.92a.85.85,0,0,0-1-1,1,1,0,0,0-.71.24A1,1,0,0,0,66.2,106Z"/><path class="cls-3" d="M72,109a1.94,1.94,0,0,1-1.5-.58,2.21,2.21,0,0,1-.55-1.6,2.5,2.5,0,0,1,.51-1.65,1.71,1.71,0,0,1,1.37-.6,1.6,1.6,0,0,1,1.27.52,2,2,0,0,1,.47,1.4v.41h-3a1.76,1.76,0,0,0,.38,1.15,1.32,1.32,0,0,0,1,.39,3.51,3.51,0,0,0,1.37-.29v.58a4.05,4.05,0,0,1-.65.21A4,4,0,0,1,72,109Zm-.18-3.89a1.06,1.06,0,0,0-.82.33,1.51,1.51,0,0,0-.36.93h2.24a1.46,1.46,0,0,0-.28-.94A1,1,0,0,0,71.77,105.12Z"/><path class="cls-3" d="M75.28,108.93h-.65v-6.07h.65Z"/><path class="cls-3" d="M77.21,103.22l-.16,2.07h-.41l-.16-2.07Z"/><path class="cls-3" d="M81.18,107.77a1.1,1.1,0,0,1-.44.92,2.09,2.09,0,0,1-1.25.32,2.72,2.72,0,0,1-1.33-.27v-.6a2.74,2.74,0,0,0,.66.25,2.77,2.77,0,0,0,.68.09,1.62,1.62,0,0,0,.78-.16.56.56,0,0,0,.28-.5.57.57,0,0,0-.22-.43,4.07,4.07,0,0,0-.85-.42,3.87,3.87,0,0,1-.85-.39,1.19,1.19,0,0,1-.37-.37,1,1,0,0,1-.12-.51,1,1,0,0,1,.42-.82,2,2,0,0,1,1.17-.3,3.37,3.37,0,0,1,1.35.28l-.23.52a3.23,3.23,0,0,0-1.17-.26,1.4,1.4,0,0,0-.69.14.45.45,0,0,0-.24.4.46.46,0,0,0,.09.29.84.84,0,0,0,.28.23,6.81,6.81,0,0,0,.75.32,2.75,2.75,0,0,1,1,.56A1,1,0,0,1,81.18,107.77Z"/><path class="cls-3" d="M89.4,108.93h-.66l-1.15-3.82c-.06-.17-.12-.38-.19-.64a4,4,0,0,1-.1-.47,9.62,9.62,0,0,1-.27,1.13l-1.12,3.8h-.66l-1.52-5.71h.71l.9,3.53c.12.5.21.94.27,1.34a10.76,10.76,0,0,1,.31-1.39l1-3.48h.7l1.07,3.51a9.08,9.08,0,0,1,.32,1.36,11.71,11.71,0,0,1,.28-1.35l.9-3.52h.7Z"/><path class="cls-3" d="M94.35,108.93l-.13-.6h0a1.73,1.73,0,0,1-.64.54,1.83,1.83,0,0,1-.79.14,1.44,1.44,0,0,1-1-.33,1.17,1.17,0,0,1-.36-.93c0-.86.69-1.32,2.07-1.36l.73,0v-.27a1.06,1.06,0,0,0-.22-.74.87.87,0,0,0-.69-.24,2.8,2.8,0,0,0-1.21.33l-.2-.5a3.54,3.54,0,0,1,.69-.27,3.38,3.38,0,0,1,.76-.1,1.64,1.64,0,0,1,1.13.34,1.41,1.41,0,0,1,.37,1.09v2.92Zm-1.46-.45a1.32,1.32,0,0,0,1-.33,1.26,1.26,0,0,0,.35-.93v-.39l-.65,0a2.19,2.19,0,0,0-1.12.24.71.71,0,0,0-.34.66.66.66,0,0,0,.21.53A.86.86,0,0,0,92.89,108.48Z"/><path class="cls-3" d="M96.82,108.93h-.65v-6.07h.65Z"/><path class="cls-3" d="M98.83,106.74c.12-.16.29-.36.52-.62l1.38-1.47h.77l-1.74,1.83,1.86,2.45h-.79l-1.51-2-.49.42v1.6h-.64v-6.07h.64v3.22q0,.21,0,.66Z"/><path class="cls-3" d="M106.4,105.16h-1.09v3.77h-.65v-3.77h-.76v-.3l.76-.23v-.24c0-1,.46-1.58,1.38-1.58a2.93,2.93,0,0,1,.8.14l-.17.52a2.14,2.14,0,0,0-.64-.12.62.62,0,0,0-.54.24,1.38,1.38,0,0,0-.18.79v.27h1.09Z"/><path class="cls-3" d="M110.88,106.79a2.35,2.35,0,0,1-.53,1.63,1.84,1.84,0,0,1-1.46.59,1.94,1.94,0,0,1-1-.27,1.77,1.77,0,0,1-.68-.77,2.59,2.59,0,0,1-.25-1.18,2.35,2.35,0,0,1,.53-1.63,1.84,1.84,0,0,1,1.45-.58,1.81,1.81,0,0,1,1.43.59A2.38,2.38,0,0,1,110.88,106.79Zm-3.26,0a2,2,0,0,0,.32,1.25,1.3,1.3,0,0,0,1.93,0,2.45,2.45,0,0,0,0-2.49,1.15,1.15,0,0,0-1-.42,1.17,1.17,0,0,0-1,.41A2,2,0,0,0,107.62,106.79Z"/><path class="cls-3" d="M114,104.58a2.64,2.64,0,0,1,.51,0l-.09.6a2.23,2.23,0,0,0-.47-.06,1.16,1.16,0,0,0-.89.43,1.56,1.56,0,0,0-.37,1v2.29H112v-4.28h.54l.07.8h0a1.85,1.85,0,0,1,.58-.65A1.29,1.29,0,0,1,114,104.58Z"/><path class="cls-3" d="M28.83,117.93l-.71-1.81H25.83l-.7,1.81h-.67l2.25-5.73h.56l2.25,5.73Zm-.92-2.41-.66-1.77a7.9,7.9,0,0,1-.27-.82,7.15,7.15,0,0,1-.24.82l-.68,1.77Z"/><path class="cls-3" d="M30.81,113.65v2.78a1.1,1.1,0,0,0,.24.78,1,1,0,0,0,.75.26,1.2,1.2,0,0,0,1-.37,1.82,1.82,0,0,0,.31-1.2v-2.25h.65v4.28h-.53l-.1-.57h0a1.31,1.31,0,0,1-.56.48,1.71,1.71,0,0,1-.8.17,1.63,1.63,0,0,1-1.17-.37,1.58,1.58,0,0,1-.39-1.19v-2.8Z"/><path class="cls-3" d="M36.5,117.48a1.84,1.84,0,0,0,.33,0,1.09,1.09,0,0,0,.25,0v.5a1.23,1.23,0,0,1-.31.08l-.37,0c-.82,0-1.24-.43-1.24-1.31v-2.54h-.61v-.32l.61-.26.28-.92h.37v1h1.24v.51H35.81v2.52a.89.89,0,0,0,.18.59A.66.66,0,0,0,36.5,117.48Z"/><path class="cls-3" d="M37.88,112.49a.43.43,0,0,1,.11-.32.41.41,0,0,1,.28-.11.4.4,0,0,1,.27.11.44.44,0,0,1,.11.32.45.45,0,0,1-.11.33.4.4,0,0,1-.27.11.41.41,0,0,1-.28-.11A.45.45,0,0,1,37.88,112.49Zm.71,5.44h-.65v-4.28h.65Z"/><path class="cls-3" d="M42.72,116.77a1.07,1.07,0,0,1-.44.92A2.07,2.07,0,0,1,41,118a2.72,2.72,0,0,1-1.33-.27v-.6a3.09,3.09,0,0,0,.66.25,2.83,2.83,0,0,0,.68.09,1.7,1.7,0,0,0,.79-.16.55.55,0,0,0,.27-.5.54.54,0,0,0-.22-.43A3.92,3.92,0,0,0,41,116a3.65,3.65,0,0,1-.85-.39,1.12,1.12,0,0,1-.38-.37,1,1,0,0,1-.12-.51,1,1,0,0,1,.43-.82,2,2,0,0,1,1.16-.3,3.33,3.33,0,0,1,1.35.28l-.23.52a3.19,3.19,0,0,0-1.16-.26,1.44,1.44,0,0,0-.7.14.44.44,0,0,0-.23.4.52.52,0,0,0,.08.29.89.89,0,0,0,.29.23,5.4,5.4,0,0,0,.75.32,2.84,2.84,0,0,1,1,.56A1,1,0,0,1,42.72,116.77Z"/><path class="cls-3" d="M49.24,117.93v-2.78a1.2,1.2,0,0,0-.22-.77.86.86,0,0,0-.68-.25,1.11,1.11,0,0,0-.9.34,1.69,1.69,0,0,0-.29,1.07v2.39h-.64v-2.78a1.2,1.2,0,0,0-.22-.77.87.87,0,0,0-.69-.25,1.07,1.07,0,0,0-.89.36,2,2,0,0,0-.28,1.2v2.24h-.65v-4.28h.53l.1.59h0a1.36,1.36,0,0,1,.52-.49,1.54,1.54,0,0,1,.75-.17,1.26,1.26,0,0,1,1.31.72h0a1.43,1.43,0,0,1,.56-.53,1.7,1.7,0,0,1,.83-.19,1.43,1.43,0,0,1,1.08.37,1.66,1.66,0,0,1,.36,1.19v2.79Z"/><path class="cls-3" d="M53.24,112.49a.43.43,0,0,1,.11-.32.41.41,0,0,1,.28-.11.4.4,0,0,1,.27.11.44.44,0,0,1,.11.32.45.45,0,0,1-.11.33.4.4,0,0,1-.27.11.41.41,0,0,1-.28-.11A.45.45,0,0,1,53.24,112.49Zm.71,5.44H53.3v-4.28H54Z"/><path class="cls-3" d="M58.25,117.93v-2.77a1.14,1.14,0,0,0-.24-.78,1,1,0,0,0-.74-.25,1.25,1.25,0,0,0-1,.36,1.82,1.82,0,0,0-.31,1.2v2.24h-.65v-4.28h.53l.11.59h0a1.31,1.31,0,0,1,.55-.49,1.81,1.81,0,0,1,.81-.17,1.62,1.62,0,0,1,1.16.37,1.58,1.58,0,0,1,.39,1.19v2.79Z"/><path class="cls-3" d="M65.77,117.93H62v-.55l1.51-1.52a9.15,9.15,0,0,0,.9-1,2.3,2.3,0,0,0,.33-.58,1.64,1.64,0,0,0,.11-.6,1,1,0,0,0-.28-.73,1.09,1.09,0,0,0-.77-.26,2.14,2.14,0,0,0-.67.11,2.68,2.68,0,0,0-.71.43l-.34-.44a2.62,2.62,0,0,1,1.72-.66,1.85,1.85,0,0,1,1.26.41,1.45,1.45,0,0,1,.46,1.11,2.22,2.22,0,0,1-.31,1.08,6.68,6.68,0,0,1-1.14,1.34l-1.25,1.22v0h2.94Z"/><path class="cls-3" d="M70.37,115.07a4.16,4.16,0,0,1-.46,2.21,1.57,1.57,0,0,1-1.43.73,1.55,1.55,0,0,1-1.4-.75,4.07,4.07,0,0,1-.48-2.19,4.16,4.16,0,0,1,.46-2.21,1.56,1.56,0,0,1,1.42-.73,1.58,1.58,0,0,1,1.41.76A4.07,4.07,0,0,1,70.37,115.07Zm-3.12,0a4.31,4.31,0,0,0,.29,1.82,1.06,1.06,0,0,0,1.88,0,4.32,4.32,0,0,0,.29-1.81,4.23,4.23,0,0,0-.29-1.8,1.06,1.06,0,0,0-1.88,0A4.25,4.25,0,0,0,67.25,115.07Z"/><path class="cls-3" d="M73.56,117.93h-.63v-4.07q0-.49,0-1l-.18.18-.93.76-.34-.45L73,112.22h.54Z"/><path class="cls-3" d="M79.49,114.66c0,2.24-.87,3.35-2.59,3.35a2.34,2.34,0,0,1-.72-.08v-.55a2.53,2.53,0,0,0,.71.1,1.73,1.73,0,0,0,1.41-.58,2.94,2.94,0,0,0,.53-1.78h0a1.36,1.36,0,0,1-.57.49,1.74,1.74,0,0,1-.8.17,1.59,1.59,0,0,1-1.2-.45,1.71,1.71,0,0,1-.45-1.27,1.93,1.93,0,0,1,.5-1.4,1.72,1.72,0,0,1,1.31-.52,1.77,1.77,0,0,1,1,.3,1.93,1.93,0,0,1,.67.87A3.67,3.67,0,0,1,79.49,114.66Zm-1.92-2a1.06,1.06,0,0,0-.86.36,1.46,1.46,0,0,0-.31,1,1.27,1.27,0,0,0,.28.88,1.06,1.06,0,0,0,.86.32,1.58,1.58,0,0,0,.65-.14,1.16,1.16,0,0,0,.47-.4.85.85,0,0,0,.17-.52,1.76,1.76,0,0,0-.16-.76,1.24,1.24,0,0,0-.44-.54A1.08,1.08,0,0,0,77.57,112.7Z"/><path class="cls-1" d="M33.94,66.48a4,4,0,0,1-1,2.79,4.8,4.8,0,0,1-2.71,1.46v.09a5.11,5.11,0,0,1,3.18,1.37,4,4,0,0,1,1,2.88A4.69,4.69,0,0,1,32.72,79a8.09,8.09,0,0,1-5,1.37,14.76,14.76,0,0,1-2.59-.21,9.45,9.45,0,0,1-2.29-.75V77.48a11.3,11.3,0,0,0,2.47.87,11.1,11.1,0,0,0,2.48.3q4.64,0,4.63-3.63,0-3.24-5.1-3.24H25.53V70h1.78a5.4,5.4,0,0,0,3.31-.92,3,3,0,0,0,1.22-2.56,2.52,2.52,0,0,0-.9-2,3.66,3.66,0,0,0-2.43-.74,7.57,7.57,0,0,0-2.21.31,10.29,10.29,0,0,0-2.37,1.17l-1-1.36a8.41,8.41,0,0,1,2.53-1.36,9.15,9.15,0,0,1,3-.5,6.2,6.2,0,0,1,4,1.19A4,4,0,0,1,33.94,66.48Z"/><path class="cls-1" d="M37.38,72.5q0-5.27,2-7.87a7.21,7.21,0,0,1,6-2.61,8.24,8.24,0,0,1,2.17.23V64a7.06,7.06,0,0,0-2.15-.31,5.43,5.43,0,0,0-4.38,1.79c-1,1.19-1.56,3.07-1.66,5.62h.15A4.66,4.66,0,0,1,43.85,69a5,5,0,0,1,3.79,1.46A5.45,5.45,0,0,1,49,74.4a6.11,6.11,0,0,1-1.52,4.38,5.41,5.41,0,0,1-4.11,1.59A5.26,5.26,0,0,1,39,78.29,9.17,9.17,0,0,1,37.38,72.5Zm6,6.15a3.42,3.42,0,0,0,2.69-1.09,4.65,4.65,0,0,0,1-3.16,4.07,4.07,0,0,0-.89-2.78,3.37,3.37,0,0,0-2.67-1,4.37,4.37,0,0,0-2,.46A3.69,3.69,0,0,0,40,72.3,2.9,2.9,0,0,0,39.46,74,5.55,5.55,0,0,0,40,76.29,4,4,0,0,0,41.33,78,3.42,3.42,0,0,0,43.38,78.65Z"/><path class="cls-1" d="M54.52,77.22l.19.28c-.22.81-.52,1.76-.92,2.84s-.81,2.08-1.25,3H51c.22-.85.46-1.89.72-3.14s.45-2.24.56-3Z"/><path class="cls-1" d="M68.66,66.48a4,4,0,0,1-1,2.79A4.79,4.79,0,0,1,65,70.73v.09a5.11,5.11,0,0,1,3.19,1.37,4,4,0,0,1,1,2.88A4.69,4.69,0,0,1,67.44,79a8.09,8.09,0,0,1-5,1.37,14.88,14.88,0,0,1-2.6-.21,9.52,9.52,0,0,1-2.28-.75V77.48a11.74,11.74,0,0,0,4.95,1.17c3.08,0,4.63-1.21,4.63-3.63q0-3.24-5.11-3.24H60.25V70H62a5.42,5.42,0,0,0,3.31-.92,3,3,0,0,0,1.22-2.56,2.52,2.52,0,0,0-.9-2,3.67,3.67,0,0,0-2.43-.74,7.52,7.52,0,0,0-2.21.31,10.09,10.09,0,0,0-2.37,1.17l-1-1.36a8.59,8.59,0,0,1,2.54-1.36,9.15,9.15,0,0,1,3-.5,6.2,6.2,0,0,1,4,1.19A4,4,0,0,1,68.66,66.48Z"/><path class="cls-1" d="M83.62,69.9q0,10.47-8.1,10.47a8,8,0,0,1-2.25-.25V78.38a7.21,7.21,0,0,0,2.22.32,5.41,5.41,0,0,0,4.43-1.82c1-1.2,1.54-3.06,1.63-5.56H81.4a4.38,4.38,0,0,1-1.78,1.55,5.8,5.8,0,0,1-2.5.53A5,5,0,0,1,73.36,72,5.38,5.38,0,0,1,72,68a6.06,6.06,0,0,1,1.55-4.4A5.95,5.95,0,0,1,80.8,63a5.88,5.88,0,0,1,2.09,2.72A11.06,11.06,0,0,1,83.62,69.9Zm-6-6.14a3.33,3.33,0,0,0-2.7,1.12A4.71,4.71,0,0,0,74,68a4,4,0,0,0,.88,2.77,3.35,3.35,0,0,0,2.67,1,4.63,4.63,0,0,0,2-.46A3.67,3.67,0,0,0,81,70.09a2.88,2.88,0,0,0,.53-1.64,5.46,5.46,0,0,0-.5-2.36,4,4,0,0,0-1.4-1.71A3.45,3.45,0,0,0,77.62,63.76Z"/><path class="cls-1" d="M97.25,66.48a4,4,0,0,1-1,2.79,4.83,4.83,0,0,1-2.72,1.46v.09a5.14,5.14,0,0,1,3.19,1.37,4,4,0,0,1,1,2.88A4.69,4.69,0,0,1,96,79a8.09,8.09,0,0,1-5,1.37,14.88,14.88,0,0,1-2.6-.21,9.59,9.59,0,0,1-2.29-.75V77.48a11.38,11.38,0,0,0,2.48.87,11.1,11.1,0,0,0,2.48.3c3.08,0,4.63-1.21,4.63-3.63q0-3.24-5.11-3.24H88.84V70h1.78a5.42,5.42,0,0,0,3.31-.92,3,3,0,0,0,1.22-2.56,2.52,2.52,0,0,0-.9-2,3.68,3.68,0,0,0-2.44-.74,7.5,7.5,0,0,0-2.2.31,9.91,9.91,0,0,0-2.37,1.17l-1-1.36a8.54,8.54,0,0,1,2.53-1.36,9.26,9.26,0,0,1,3-.5,6.2,6.2,0,0,1,4,1.19A4,4,0,0,1,97.25,66.48Z"/></g></svg>