<svg xmlns="http://www.w3.org/2000/svg" viewBox="0 0 136.76 65.02"><defs><style>.cls-1,.cls-3{fill:none;stroke-miterlimit:10;stroke-width:0.62px;}.cls-1{stroke:#2d9a47;}.cls-2{fill:#2d9a47;}.cls-3{stroke:#c22134;}.cls-4{fill:#c22033;}</style></defs><g id="Layer_3" data-name="Layer 3"><rect class="cls-1" x="0.51" y="0.48" width="63.8" height="64.54"/><path class="cls-2" d="M6.14,17.76A4.41,4.41,0,0,1,5.37,15v-.43H7.71V15a3.42,3.42,0,0,0,.22,1.37.81.81,0,0,0,.78.41.75.75,0,0,0,.75-.42A3.73,3.73,0,0,0,9.65,15a3,3,0,0,0-.29-1.49A1.16,1.16,0,0,0,8.3,13a2.52,2.52,0,0,0-.43,0V11.23h.38a1.25,1.25,0,0,0,1.09-.43,2.47,2.47,0,0,0,.31-1.42A2.55,2.55,0,0,0,9.43,8.2a.84.84,0,0,0-.78-.38.73.73,0,0,0-.73.41,3.17,3.17,0,0,0-.21,1.23V10H5.37V9.34a3.5,3.5,0,0,1,.86-2.52,3.22,3.22,0,0,1,2.42-.89,3.32,3.32,0,0,1,2.45.86A3.32,3.32,0,0,1,12,9.26a3.49,3.49,0,0,1-.44,1.81,1.92,1.92,0,0,1-1.12.91c1,.39,1.56,1.36,1.56,2.93a4.45,4.45,0,0,1-.79,2.81,3,3,0,0,1-2.5,1,3,3,0,0,1-2.54-1"/><path class="cls-2" d="M18.39,10.91a1.1,1.1,0,0,1-1-.42,2.21,2.21,0,0,1-.29-1.23V7.71A3.51,3.51,0,0,1,17.2,7a1.63,1.63,0,0,1,.22-.52,1,1,0,0,1,.41-.34A1.76,1.76,0,0,1,18.48,6a1.29,1.29,0,0,1,1,.34,1.57,1.57,0,0,1,.3,1v.23H19V7.42a1.93,1.93,0,0,0,0-.26.69.69,0,0,0,0-.2.34.34,0,0,0-.08-.16.38.38,0,0,0-.14-.09.62.62,0,0,0-.21,0l-.17,0-.13.06-.09.1a1.12,1.12,0,0,0-.05.13s0,.1,0,.16,0,.12,0,.17V9.43a1.42,1.42,0,0,0,.1.63.41.41,0,0,0,.4.2.53.53,0,0,0,.26-.06.4.4,0,0,0,.16-.18A1.07,1.07,0,0,0,19,9.75a1.9,1.9,0,0,0,0-.37V9h-.51V8.43H19.8v2.41h-.55l-.06-.48a.79.79,0,0,1-.8.55"/><path class="cls-2" d="M21.48,10.22a.51.51,0,0,0,.22,0,.46.46,0,0,0,.21,0,.3.3,0,0,0,.14-.1.36.36,0,0,0,.08-.15.71.71,0,0,0,0-.2,1.55,1.55,0,0,0,0-.23V7.38a2.27,2.27,0,0,0,0-.28,1.42,1.42,0,0,0-.07-.22A.28.28,0,0,0,22,6.73a.62.62,0,0,0-.25-.05.58.58,0,0,0-.25.05.28.28,0,0,0-.15.15.57.57,0,0,0-.07.22,2,2,0,0,0,0,.28V9.54c0,.09,0,.17,0,.23a1.42,1.42,0,0,0,0,.2.53.53,0,0,0,.08.15.45.45,0,0,0,.14.1m.22.68a1.24,1.24,0,0,1-1-.4,1.82,1.82,0,0,1-.32-1.16V7.58a2.46,2.46,0,0,1,.08-.65,1.18,1.18,0,0,1,.22-.48,1,1,0,0,1,.42-.31A1.76,1.76,0,0,1,21.7,6a1.27,1.27,0,0,1,1,.39,1.81,1.81,0,0,1,.31,1.15V9.34A2.54,2.54,0,0,1,23,10a1.48,1.48,0,0,1-.23.49.89.89,0,0,1-.42.31,1.54,1.54,0,0,1-.63.11"/><path class="cls-2" d="M24.71,10.22a.48.48,0,0,0,.22,0,.46.46,0,0,0,.21,0,.36.36,0,0,0,.14-.1.53.53,0,0,0,.08-.15,1.42,1.42,0,0,0,0-.2,1.55,1.55,0,0,0,0-.23V7.38a2,2,0,0,0,0-.28.79.79,0,0,0-.06-.22.36.36,0,0,0-.15-.15.62.62,0,0,0-.25-.05.63.63,0,0,0-.26.05.36.36,0,0,0-.15.15.79.79,0,0,0-.06.22,2,2,0,0,0,0,.28V9.54a1.55,1.55,0,0,0,0,.23,1.42,1.42,0,0,0,0,.2.53.53,0,0,0,.08.15.36.36,0,0,0,.14.1m.22.68a1.23,1.23,0,0,1-1-.4,1.82,1.82,0,0,1-.32-1.16V7.58a3,3,0,0,1,.07-.65,1.34,1.34,0,0,1,.23-.48,1,1,0,0,1,.42-.31,1.76,1.76,0,0,1,.64-.1,1.24,1.24,0,0,1,1,.39,1.81,1.81,0,0,1,.32,1.15V9.34a3.08,3.08,0,0,1-.07.65,1.48,1.48,0,0,1-.23.49,1,1,0,0,1-.42.31,1.54,1.54,0,0,1-.63.11"/><path class="cls-2" d="M27.73,10.24H28a.8.8,0,0,0,.23,0l.16-.05a.35.35,0,0,0,.11-.1.53.53,0,0,0,.06-.14.6.6,0,0,0,0-.18,1.62,1.62,0,0,0,0-.21s0-.14,0-.25V7.54c0-.11,0-.2,0-.27a.76.76,0,0,0,0-.21.34.34,0,0,0-.06-.16.36.36,0,0,0-.11-.1.38.38,0,0,0-.17-.07l-.24,0h-.24Zm-.85.6V6.09H28a2.41,2.41,0,0,1,.71.09,1.1,1.1,0,0,1,.46.27,1.19,1.19,0,0,1,.24.46,2.52,2.52,0,0,1,.07.66V9.29a2.77,2.77,0,0,1-.07.69,1.21,1.21,0,0,1-.24.48,1,1,0,0,1-.45.29,2.31,2.31,0,0,1-.69.09Z"/><polygon class="cls-2" points="31.45 10.84 31.45 6.09 32.3 6.09 32.3 8.08 33.26 8.08 33.26 6.09 34.11 6.09 34.11 10.84 33.26 10.84 33.26 8.7 32.3 8.7 32.3 10.84 31.45 10.84"/><polygon class="cls-2" points="34.8 10.84 34.8 6.09 36.76 6.09 36.76 6.7 35.65 6.7 35.65 8.07 36.53 8.07 36.53 8.68 35.65 8.68 35.65 10.24 36.77 10.24 36.77 10.84 34.8 10.84"/><path class="cls-2" d="M38.08,9.18h.63L38.4,7.23ZM37,10.84l1-4.75h.89l.95,4.75H39l-.19-1.1H38l-.19,1.1Z"/><polygon class="cls-2" points="40.22 10.84 40.22 6.09 41.08 6.09 41.08 10.24 42.2 10.24 42.2 10.84 40.22 10.84"/><polygon class="cls-2" points="42.96 10.84 42.96 6.73 42.18 6.73 42.18 6.09 44.58 6.09 44.58 6.73 43.82 6.73 43.82 10.84 42.96 10.84"/><polygon class="cls-2" points="44.93 10.84 44.93 6.09 45.79 6.09 45.79 8.08 46.74 8.08 46.74 6.09 47.6 6.09 47.6 10.84 46.74 10.84 46.74 8.7 45.79 8.7 45.79 10.84 44.93 10.84"/><path class="cls-2" d="M18.06,16.94h.63l-.31-2ZM17,18.61l1-4.75h.89l.95,4.75H19l-.19-1.11H18l-.19,1.11Z"/><polygon class="cls-2" points="20.2 18.61 20.2 13.86 20.79 13.86 21.94 16.55 21.94 13.86 22.65 13.86 22.65 18.61 22.09 18.61 20.93 15.78 20.93 18.61 20.2 18.61"/><path class="cls-2" d="M24.18,18h.24l.22,0,.17-.06a.26.26,0,0,0,.11-.1,1.39,1.39,0,0,0,.06-.13.61.61,0,0,0,0-.19c0-.08,0-.15,0-.2V15l0-.2a.38.38,0,0,0-.06-.17l-.11-.1-.17-.07h-.48Zm-.86.61V13.86h1.1a2.44,2.44,0,0,1,.71.08,1.1,1.1,0,0,1,.46.27,1.19,1.19,0,0,1,.24.46,2.55,2.55,0,0,1,.07.67v1.71a2.77,2.77,0,0,1-.07.69,1.21,1.21,0,0,1-.24.48,1.06,1.06,0,0,1-.45.29,2,2,0,0,1-.69.1Z"/><polygon class="cls-2" points="28.4 18.61 27.73 13.86 28.45 13.86 28.83 16.92 29.33 13.86 29.91 13.86 30.42 16.92 30.8 13.86 31.51 13.86 30.84 18.61 30.16 18.61 29.63 15.44 29.1 18.61 28.4 18.61"/><polygon class="cls-2" points="32.02 18.61 32.02 13.86 33.99 13.86 33.99 14.47 32.88 14.47 32.88 15.83 33.75 15.83 33.75 16.44 32.88 16.44 32.88 18.01 34 18.01 34 18.61 32.02 18.61"/><polygon class="cls-2" points="34.46 18.61 34.46 13.86 35.32 13.86 35.32 18.01 36.44 18.01 36.44 18.61 34.46 18.61"/><polygon class="cls-2" points="36.87 18.61 36.87 13.86 37.72 13.86 37.72 18.01 38.85 18.01 38.85 18.61 36.87 18.61"/><rect class="cls-2" x="39.24" y="16.46" width="1.4" height="0.56"/><path class="cls-2" d="M42.14,18h.32a.66.66,0,0,0,.53-.18,1,1,0,0,0,.14-.6A.94.94,0,0,0,43,16.6a.7.7,0,0,0-.56-.2h-.27Zm0-2.21h.27a.67.67,0,0,0,.52-.16.87.87,0,0,0,.14-.55,1,1,0,0,0,0-.33.31.31,0,0,0-.16-.18.63.63,0,0,0-.24-.09l-.36,0h-.12Zm-.85,2.82V13.86h1.15a2.49,2.49,0,0,1,.57.06,1.11,1.11,0,0,1,.43.19.84.84,0,0,1,.28.38,1.64,1.64,0,0,1,.09.58c0,.58-.23.91-.69,1a.92.92,0,0,1,.62.37,1.35,1.35,0,0,1,.21.81,1.47,1.47,0,0,1-.33,1,1.32,1.32,0,0,1-1,.35Z"/><polygon class="cls-2" points="44.48 18.61 44.48 13.86 46.44 13.86 46.44 14.47 45.33 14.47 45.33 15.83 46.21 15.83 46.21 16.44 45.33 16.44 45.33 18.01 46.46 18.01 46.46 18.61 44.48 18.61"/><rect class="cls-2" x="46.95" y="13.86" width="0.84" height="4.75"/><polygon class="cls-2" points="48.48 18.61 48.48 13.86 49.07 13.86 50.22 16.55 50.22 13.86 50.93 13.86 50.93 18.61 50.37 18.61 49.21 15.78 49.21 18.61 48.48 18.61"/><path class="cls-2" d="M52.78,18.67a1.08,1.08,0,0,1-1-.42A2.11,2.11,0,0,1,51.53,17V15.48a3.62,3.62,0,0,1,.06-.71,1.42,1.42,0,0,1,.21-.52,1,1,0,0,1,.42-.34,1.71,1.71,0,0,1,.64-.11,1.26,1.26,0,0,1,1,.35,1.56,1.56,0,0,1,.3,1v.24h-.81v-.25c0-.1,0-.19,0-.26a1.77,1.77,0,0,0,0-.2.34.34,0,0,0-.07-.16.47.47,0,0,0-.14-.08.48.48,0,0,0-.22,0,.47.47,0,0,0-.17,0,.23.23,0,0,0-.12.06.18.18,0,0,0-.09.1.61.61,0,0,0-.05.12.41.41,0,0,0,0,.16c0,.07,0,.13,0,.18v2.1a1.39,1.39,0,0,0,.11.63.4.4,0,0,0,.4.2.49.49,0,0,0,.25-.06.44.44,0,0,0,.16-.17,1,1,0,0,0,.09-.28,3.57,3.57,0,0,0,0-.37v-.39h-.51v-.56h1.28v2.42h-.56l-.06-.49a.78.78,0,0,1-.79.55"/><path class="cls-2" d="M54.21,41.21a3.06,3.06,0,0,0-2.93-3.34c-.89,0-2,1-2.54,1.58-.58-.6-1.57-1.58-2.46-1.58a3.12,3.12,0,0,0-3,3.34,3.41,3.41,0,0,0,.94,2.36l4.54,4.59,4.53-4.59h0a3.41,3.41,0,0,0,.94-2.36"/><path class="cls-2" d="M34.9,55.67h0a.73.73,0,0,1-.68-.62L31.86,41.47,28.37,48A.74.74,0,0,1,27,47.76L25.5,37.28l-2.72,6.17a.73.73,0,0,1-.68.44H11.57a.75.75,0,0,1,0-1.5H21.62l3.57-8.11a.73.73,0,0,1,.78-.44.74.74,0,0,1,.63.64l1.53,10.81,3.44-6.46a.74.74,0,0,1,1.39.23L35.1,51.64l7.77-26.15a.75.75,0,0,1,.66-.53.74.74,0,0,1,.73.42L48.35,34A.74.74,0,0,1,48,35a.72.72,0,0,1-1-.35l-3.26-6.84L35.61,55.14a.73.73,0,0,1-.71.53"/><rect class="cls-3" x="72.96" y="0.48" width="63.8" height="64.54"/><path class="cls-4" d="M81.25,13.79V8.51l-1.86,5.28Zm0,1.79h-3.7V13.71l3.2-7.61h2.63v7.69H84.6v1.79H83.38v3H81.25Z"/><path class="cls-4" d="M90.64,10.22a.48.48,0,0,0,.22,0,.46.46,0,0,0,.21,0,.3.3,0,0,0,.14-.1.36.36,0,0,0,.08-.15.71.71,0,0,0,0-.2,1.55,1.55,0,0,0,0-.23V7.38a1.14,1.14,0,0,0,0-.28.79.79,0,0,0-.06-.22.28.28,0,0,0-.15-.15.49.49,0,0,0-.25-.05.53.53,0,0,0-.26.05.29.29,0,0,0-.14.15.57.57,0,0,0-.07.22,2,2,0,0,0,0,.28V9.54c0,.09,0,.17,0,.23a1.42,1.42,0,0,0,0,.2.53.53,0,0,0,.08.15.36.36,0,0,0,.14.1m1.22,1.57a1.51,1.51,0,0,1-.47-.36A3.53,3.53,0,0,1,91,10.9h-.09a1.23,1.23,0,0,1-1-.4,1.82,1.82,0,0,1-.32-1.16V7.58a2.46,2.46,0,0,1,.08-.65,1.18,1.18,0,0,1,.22-.48,1,1,0,0,1,.42-.31,1.76,1.76,0,0,1,.64-.1,1.28,1.28,0,0,1,1,.39,1.81,1.81,0,0,1,.31,1.15V9.34a1.43,1.43,0,0,1-.65,1.42,2.3,2.3,0,0,0,.46.45Z"/><path class="cls-4" d="M94.09,10.9a1.73,1.73,0,0,1-.54-.07.93.93,0,0,1-.62-.56,1.66,1.66,0,0,1-.12-.45,3.32,3.32,0,0,1,0-.57V6.09h.83V9.34a2.35,2.35,0,0,0,0,.28,1.18,1.18,0,0,0,0,.25.4.4,0,0,0,.08.2.35.35,0,0,0,.14.13.4.4,0,0,0,.22.05.4.4,0,0,0,.37-.18.76.76,0,0,0,.08-.2,1.13,1.13,0,0,0,0-.25,2.35,2.35,0,0,0,0-.28V6.09h.83V9.25a3.32,3.32,0,0,1,0,.57,1.66,1.66,0,0,1-.12.45,1,1,0,0,1-.24.35,1,1,0,0,1-.37.21,1.84,1.84,0,0,1-.55.07"/><path class="cls-4" d="M96.89,9.18h.63l-.31-1.95ZM95.8,10.84l1-4.75h.89l.95,4.75h-.8l-.19-1.1H96.8l-.19,1.1Z"/><polygon class="cls-4" points="99.03 10.84 99.03 6.09 99.89 6.09 99.89 10.24 101.01 10.24 101.01 10.84 99.03 10.84"/><rect class="cls-4" x="101.46" y="6.09" width="0.84" height="4.75"/><polygon class="cls-4" points="103.46 10.84 103.46 6.73 102.67 6.73 102.67 6.09 105.07 6.09 105.07 6.73 104.31 6.73 104.31 10.84 103.46 10.84"/><polygon class="cls-4" points="106.08 10.84 106.08 9.04 105.12 6.09 105.92 6.09 106.5 7.98 107.05 6.09 107.84 6.09 106.89 9.04 106.89 10.84 106.08 10.84"/><polygon class="cls-4" points="89.58 18.61 89.58 13.86 91.55 13.86 91.55 14.47 90.44 14.47 90.44 15.83 91.31 15.83 91.31 16.44 90.44 16.44 90.44 18.01 91.56 18.01 91.56 18.61 89.58 18.61"/><path class="cls-4" d="M92.88,18h.24l.23,0,.16-.06a.26.26,0,0,0,.11-.1.49.49,0,0,0,.06-.13.61.61,0,0,0,0-.19c0-.08,0-.15,0-.2V15a1.62,1.62,0,0,0,0-.2.38.38,0,0,0-.06-.17.55.55,0,0,0-.11-.1l-.17-.07h-.48Zm-.86.61V13.86h1.1a2.44,2.44,0,0,1,.71.08,1.1,1.1,0,0,1,.46.27,1.19,1.19,0,0,1,.24.46,2.55,2.55,0,0,1,.07.67v1.71a2.77,2.77,0,0,1-.07.69,1.21,1.21,0,0,1-.24.48,1,1,0,0,1-.45.29,2,2,0,0,1-.69.1Z"/><path class="cls-4" d="M96.49,18.66a1.84,1.84,0,0,1-.55-.07,1.07,1.07,0,0,1-.38-.21.82.82,0,0,1-.23-.34,1.86,1.86,0,0,1-.13-.46,4.67,4.67,0,0,1,0-.57V13.86H96V17.1c0,.11,0,.2,0,.28s0,.16,0,.25a.84.84,0,0,0,.08.21.36.36,0,0,0,.15.12.38.38,0,0,0,.22.06.4.4,0,0,0,.22-.06.33.33,0,0,0,.14-.12.84.84,0,0,0,.08-.21c0-.09,0-.17,0-.25V13.86h.83V17a4.67,4.67,0,0,1,0,.57,1.86,1.86,0,0,1-.13.46.93.93,0,0,1-.23.34,1.07,1.07,0,0,1-.38.21,1.77,1.77,0,0,1-.54.07"/><path class="cls-4" d="M99.7,18.66a1.7,1.7,0,0,1-.53-.07,1,1,0,0,1-.39-.22,1,1,0,0,1-.24-.34,1.51,1.51,0,0,1-.14-.44,3.93,3.93,0,0,1,0-.52V15.41a4.43,4.43,0,0,1,0-.55,1.62,1.62,0,0,1,.14-.44,1,1,0,0,1,.24-.34,1.24,1.24,0,0,1,.38-.2,1.8,1.8,0,0,1,.54-.08,1.57,1.57,0,0,1,.6.1.81.81,0,0,1,.39.27,1.15,1.15,0,0,1,.21.43,2,2,0,0,1,.07.57v.41h-.83v-.4a2.42,2.42,0,0,0,0-.48.36.36,0,0,0-.36-.26h0a.58.58,0,0,0-.19,0,.26.26,0,0,0-.13.08.83.83,0,0,0-.08.12.5.5,0,0,0,0,.16c0,.07,0,.13,0,.19v2.23a1.2,1.2,0,0,0,.1.59.4.4,0,0,0,.37.18.39.39,0,0,0,.16,0A.33.33,0,0,0,100,18a.39.39,0,0,0,.08-.1l0-.11a.61.61,0,0,0,0-.15,1,1,0,0,0,0-.16v-.61H101v.39a2.33,2.33,0,0,1,0,.48,1.33,1.33,0,0,1-.12.4.92.92,0,0,1-.24.31.88.88,0,0,1-.36.19,1.57,1.57,0,0,1-.51.07"/><path class="cls-4" d="M102.38,16.94H103l-.32-2Zm-1.09,1.67.95-4.75h.89l1,4.75h-.8l-.19-1.11h-.81l-.2,1.11Z"/><polygon class="cls-4" points="104.81 18.61 104.81 14.49 104.03 14.49 104.03 13.86 106.43 13.86 106.43 14.49 105.67 14.49 105.67 18.61 104.81 18.61"/><rect class="cls-4" x="106.8" y="13.86" width="0.84" height="4.75"/><path class="cls-4" d="M109.4,18a.46.46,0,0,0,.21,0,.41.41,0,0,0,.21,0,.38.38,0,0,0,.15-.09.6.6,0,0,0,.08-.16,1.62,1.62,0,0,0,0-.19c0-.07,0-.15,0-.24V15.15a2.19,2.19,0,0,0,0-.29.57.57,0,0,0-.07-.22.31.31,0,0,0-.15-.15.58.58,0,0,0-.25-.05.62.62,0,0,0-.25.05.31.31,0,0,0-.15.15.79.79,0,0,0-.06.22,1.23,1.23,0,0,0,0,.29V17.3a1.77,1.77,0,0,0,0,.24,1.62,1.62,0,0,0,0,.19.4.4,0,0,0,.08.16.28.28,0,0,0,.14.09m.21.68a1.27,1.27,0,0,1-1-.39,1.87,1.87,0,0,1-.31-1.17V15.35a2.57,2.57,0,0,1,.07-.66,1.26,1.26,0,0,1,.23-.48.89.89,0,0,1,.42-.31,1.93,1.93,0,0,1,.63-.1,1.27,1.27,0,0,1,1,.39,1.84,1.84,0,0,1,.32,1.16V17.1a2.46,2.46,0,0,1-.08.65,1.11,1.11,0,0,1-.23.49.91.91,0,0,1-.42.32,1.67,1.67,0,0,1-.63.1"/><polygon class="cls-4" points="111.56 18.61 111.56 13.86 112.15 13.86 113.3 16.55 113.3 13.86 114.01 13.86 114.01 18.61 113.45 18.61 112.29 15.78 112.29 18.61 111.56 18.61"/><polygon class="cls-4" points="101.18 35.39 89.57 28.61 89.57 50.55 101.18 54.09 101.18 35.39"/><polygon class="cls-4" points="102.46 35.44 102.46 54.1 114.14 50.55 114.14 28.61 102.46 35.44"/><polygon class="cls-4" points="120.84 50.16 120.5 50.16 121.88 55.02 123.25 50.16 122.91 50.16 123.25 50.16 123.25 30.64 122.91 30.64 122.57 30.64 122.21 30.64 121.52 30.64 121.19 30.64 120.84 30.64 120.5 30.64 120.5 50.16 120.84 50.16"/><polygon class="cls-4" points="116.63 29.55 115.39 28.56 115.39 51.15 102.49 55.36 101.89 55.36 101.78 55.36 101.18 55.36 88.34 51.73 88.34 28.56 87.1 29.55 87.1 52.62 101.12 56.54 101.78 56.54 101.89 56.54 102.55 56.54 115.49 52.39 116.63 52.05 116.63 29.55"/><path class="cls-4" d="M123.25,28.06a1.38,1.38,0,1,0-2.75,0v1.49h2.75Z"/></g></svg>