<svg xmlns="http://www.w3.org/2000/svg" viewBox="0 0 80.48 22.13"><defs><style>.cls-1{fill:#0091b2;}</style></defs><g id="Economic_Opportunities_Image" data-name="Economic Opportunities Image"><path class="cls-1" d="M39,15.24l-1-.22a10.73,10.73,0,0,1,4.56-6.45A9.33,9.33,0,0,1,50,8C50.77,6.24,54,0,61,0h.13s8.14-.53,11,7.26a8.43,8.43,0,0,1,8.77,3.85l-.84.55A7.35,7.35,0,0,0,72,8.35l-.46.14L71.33,8C68.84.55,61.46,1,61.14,1H61C53.57,1,50.9,8.43,50.78,8.75l-.15.45-.47-.14a8.61,8.61,0,0,0-7,.37C40,11.26,39,15.2,39,15.24Z"/><path class="cls-1" d="M1,22.24.06,22a10.73,10.73,0,0,1,4.56-6.45A9.33,9.33,0,0,1,12,15c.75-1.74,4-8,11.09-7.94,0,0,8.14-.53,11,7.26a8.43,8.43,0,0,1,8.77,3.85l-.84.55A7.35,7.35,0,0,0,34,15.35l-.46.14L33.33,15c-2.49-7.48-9.88-7-10.19-7H23c-7.45,0-10.12,7.4-10.24,7.72l-.15.45-.47-.14a8.61,8.61,0,0,0-7,.37C2,18.26,1,22.2,1,22.24Z"/></g></svg>