<svg xmlns="http://www.w3.org/2000/svg" viewBox="0 0 90.76 49.34"><defs><style>.cls-1{fill:#4d4e50;}.cls-2{fill:#1568a1;}</style></defs><g id="Layer_3" data-name="Layer 3"><path class="cls-1" d="M3.9,30.14a1.83,1.83,0,0,1-1.44-.57A2.38,2.38,0,0,1,2,28a2.44,2.44,0,0,1,.51-1.66,1.88,1.88,0,0,1,1.48-.59,2.68,2.68,0,0,1,.62.07,2,2,0,0,1,.48.15l-.2.56a2.88,2.88,0,0,0-.47-.15,1.93,1.93,0,0,0-.45,0c-.87,0-1.3.55-1.3,1.66a1.92,1.92,0,0,0,.32,1.21,1.1,1.1,0,0,0,.94.42A2.79,2.79,0,0,0,5,29.34v.58A2.47,2.47,0,0,1,3.9,30.14Z"/><path class="cls-1" d="M9.69,27.92a2.37,2.37,0,0,1-.53,1.63,1.87,1.87,0,0,1-1.46.59,1.94,1.94,0,0,1-1-.27A1.82,1.82,0,0,1,6,29.1a2.73,2.73,0,0,1-.24-1.18,2.33,2.33,0,0,1,.52-1.63,1.85,1.85,0,0,1,1.45-.59,1.81,1.81,0,0,1,1.43.6A2.38,2.38,0,0,1,9.69,27.92Zm-3.26,0a2,2,0,0,0,.33,1.25,1.14,1.14,0,0,0,1,.43,1.17,1.17,0,0,0,1-.43A2,2,0,0,0,9,27.92a2,2,0,0,0-.33-1.24,1.15,1.15,0,0,0-1-.43,1.15,1.15,0,0,0-1,.42A2,2,0,0,0,6.43,27.92Z"/><path class="cls-1" d="M11.47,30.06h-.64V24h.64Z"/><path class="cls-1" d="M13.5,30.06h-.65V24h.65Z"/><path class="cls-1" d="M16.68,30.14a2,2,0,0,1-1.5-.58,2.25,2.25,0,0,1-.55-1.6,2.5,2.5,0,0,1,.51-1.65,1.69,1.69,0,0,1,1.37-.61,1.64,1.64,0,0,1,1.28.53,2,2,0,0,1,.47,1.4V28h-3a1.68,1.68,0,0,0,.38,1.14,1.31,1.31,0,0,0,1,.39,3.31,3.31,0,0,0,1.37-.29v.58a3.06,3.06,0,0,1-.65.21A3.15,3.15,0,0,1,16.68,30.14Zm-.17-3.9a1.09,1.09,0,0,0-.83.34,1.58,1.58,0,0,0-.36.93h2.24a1.44,1.44,0,0,0-.27-.94A1,1,0,0,0,16.51,26.24Z"/><path class="cls-1" d="M22.86,25.78v.41l-.79.09a1.49,1.49,0,0,1,.2.36,1.54,1.54,0,0,1,.08.5,1.25,1.25,0,0,1-.43,1,1.72,1.72,0,0,1-1.18.38,2.19,2.19,0,0,1-.36,0A.64.64,0,0,0,20,29a.3.3,0,0,0,.14.26,1.2,1.2,0,0,0,.5.08h.76a1.75,1.75,0,0,1,1.07.29,1.05,1.05,0,0,1,.37.86,1.22,1.22,0,0,1-.57,1.08,3,3,0,0,1-1.66.37,2.25,2.25,0,0,1-1.3-.31,1,1,0,0,1-.45-.88,1,1,0,0,1,.25-.68,1.2,1.2,0,0,1,.7-.38.71.71,0,0,1-.28-.24.61.61,0,0,1-.11-.36.67.67,0,0,1,.13-.41,1.22,1.22,0,0,1,.39-.34,1.14,1.14,0,0,1-.54-.46,1.37,1.37,0,0,1-.21-.75,1.41,1.41,0,0,1,.42-1.09,1.74,1.74,0,0,1,1.2-.38,2.23,2.23,0,0,1,.6.08Zm-3.41,5a.6.6,0,0,0,.29.53,1.64,1.64,0,0,0,.84.18,2.35,2.35,0,0,0,1.21-.25.74.74,0,0,0,.39-.66A.53.53,0,0,0,22,30.1a1.64,1.64,0,0,0-.81-.14h-.78a1,1,0,0,0-.68.21A.75.75,0,0,0,19.45,30.78Zm.35-3.63a.87.87,0,0,0,.26.68,1,1,0,0,0,.7.23.83.83,0,0,0,.95-.92.86.86,0,0,0-1-1,.87.87,0,0,0-.95,1Z"/><path class="cls-1" d="M25.55,30.14a2,2,0,0,1-1.5-.58,2.25,2.25,0,0,1-.54-1.6,2.5,2.5,0,0,1,.5-1.65,1.69,1.69,0,0,1,1.37-.61,1.64,1.64,0,0,1,1.28.53,2,2,0,0,1,.47,1.4V28H24.18a1.68,1.68,0,0,0,.38,1.14,1.32,1.32,0,0,0,1,.39,3.3,3.3,0,0,0,1.36-.29v.58a3.06,3.06,0,0,1-.65.21A3.15,3.15,0,0,1,25.55,30.14Zm-.17-3.9a1.09,1.09,0,0,0-.83.34,1.58,1.58,0,0,0-.36.93h2.24a1.44,1.44,0,0,0-.27-.94A1,1,0,0,0,25.38,26.24Z"/><path class="cls-1" d="M32.94,30.06l-.13-.61h0a1.76,1.76,0,0,1-.64.55,2,2,0,0,1-.79.14,1.42,1.42,0,0,1-1-.33,1.2,1.2,0,0,1-.36-.93c0-.87.69-1.32,2.07-1.36l.73,0v-.26a1.07,1.07,0,0,0-.22-.75.87.87,0,0,0-.69-.24,2.8,2.8,0,0,0-1.21.33l-.2-.49a2.61,2.61,0,0,1,.69-.27,2.84,2.84,0,0,1,.76-.1,1.59,1.59,0,0,1,1.13.34,1.41,1.41,0,0,1,.37,1.09v2.92Zm-1.46-.46a1.32,1.32,0,0,0,.95-.33,1.22,1.22,0,0,0,.34-.93V28l-.64,0a2.42,2.42,0,0,0-1.12.24.73.73,0,0,0-.34.67.66.66,0,0,0,.21.53A.9.9,0,0,0,31.48,29.6Z"/><path class="cls-1" d="M37.69,30.06V27.29a1.1,1.1,0,0,0-.24-.78,1,1,0,0,0-.75-.26,1.21,1.21,0,0,0-1,.37,1.81,1.81,0,0,0-.31,1.19v2.25h-.65V25.78h.53l.1.59h0a1.27,1.27,0,0,1,.56-.49,1.77,1.77,0,0,1,.8-.18,1.67,1.67,0,0,1,1.17.37,1.6,1.6,0,0,1,.39,1.2v2.79Z"/><path class="cls-1" d="M42.58,29.49h0a1.54,1.54,0,0,1-1.35.65,1.56,1.56,0,0,1-1.3-.58,2.51,2.51,0,0,1-.47-1.63,2.58,2.58,0,0,1,.47-1.64,1.73,1.73,0,0,1,2.64,0h.05l0-.3V24h.65v6.08h-.53Zm-1.29.11a1.15,1.15,0,0,0,1-.37,1.81,1.81,0,0,0,.3-1.16v-.14a2.16,2.16,0,0,0-.3-1.3,1.17,1.17,0,0,0-1-.39,1,1,0,0,0-.87.45,2.12,2.12,0,0,0-.31,1.25,2.12,2.12,0,0,0,.3,1.24A1,1,0,0,0,41.29,29.6Z"/><path class="cls-1" d="M3.57,38.6a1.83,1.83,0,0,0,.33,0l.25,0V39a1.17,1.17,0,0,1-.31.09l-.37,0c-.82,0-1.24-.44-1.24-1.31V35.28H1.62V35l.61-.27.28-.91h.37v1H4.12v.5H2.88V37.8a.9.9,0,0,0,.18.6A.68.68,0,0,0,3.57,38.6Z"/><path class="cls-1" d="M6.82,39.14a1.94,1.94,0,0,1-1.5-.58A2.21,2.21,0,0,1,4.77,37a2.5,2.5,0,0,1,.51-1.65,1.69,1.69,0,0,1,1.37-.61,1.61,1.61,0,0,1,1.27.53,2,2,0,0,1,.47,1.4V37H5.44a1.73,1.73,0,0,0,.38,1.14,1.32,1.32,0,0,0,1,.39,3.34,3.34,0,0,0,1.37-.29v.58a3.25,3.25,0,0,1-.65.21A3.21,3.21,0,0,1,6.82,39.14Zm-.18-3.9a1.07,1.07,0,0,0-.82.34,1.46,1.46,0,0,0-.36.93H7.7a1.44,1.44,0,0,0-.28-.94A1,1,0,0,0,6.64,35.24Z"/><path class="cls-1" d="M11.21,39.14a1.83,1.83,0,0,1-1.44-.57,2.87,2.87,0,0,1,0-3.28,1.85,1.85,0,0,1,1.47-.59,2.62,2.62,0,0,1,.62.07,1.82,1.82,0,0,1,.48.15l-.2.56a2.88,2.88,0,0,0-.47-.15,1.85,1.85,0,0,0-.44,0c-.87,0-1.31.55-1.31,1.66a2,2,0,0,0,.32,1.21,1.11,1.11,0,0,0,.94.42,2.75,2.75,0,0,0,1.1-.23v.58A2.47,2.47,0,0,1,11.21,39.14Z"/><path class="cls-1" d="M16.24,39.06V36.29a1.1,1.1,0,0,0-.24-.78,1,1,0,0,0-.75-.26,1.22,1.22,0,0,0-1,.37,1.9,1.9,0,0,0-.31,1.2v2.24h-.64V33H14v1.84a4.11,4.11,0,0,1,0,.55h0a1.36,1.36,0,0,1,.55-.48,1.71,1.71,0,0,1,.8-.18,1.64,1.64,0,0,1,1.18.37,1.59,1.59,0,0,1,.39,1.19v2.79Z"/><path class="cls-1" d="M21.15,39.06V36.29a1.1,1.1,0,0,0-.24-.78,1,1,0,0,0-.75-.26,1.18,1.18,0,0,0-1,.37,1.8,1.8,0,0,0-.32,1.19v2.25h-.64V34.78h.52l.11.59h0a1.22,1.22,0,0,1,.56-.49,1.74,1.74,0,0,1,.8-.18,1.65,1.65,0,0,1,1.16.37,1.6,1.6,0,0,1,.39,1.2v2.79Z"/><path class="cls-1" d="M23.07,33.62a.45.45,0,0,1,.11-.33.36.36,0,0,1,.27-.1.37.37,0,0,1,.27.11.39.39,0,0,1,.12.32.43.43,0,0,1-.12.33.41.41,0,0,1-.54,0A.47.47,0,0,1,23.07,33.62Zm.7,5.44h-.64V34.78h.64Z"/><path class="cls-1" d="M26.86,39.14a1.83,1.83,0,0,1-1.44-.57,2.87,2.87,0,0,1,0-3.28,1.85,1.85,0,0,1,1.47-.59,2.62,2.62,0,0,1,.62.07,1.91,1.91,0,0,1,.49.15l-.2.56a3.23,3.23,0,0,0-.47-.15,1.93,1.93,0,0,0-.45,0c-.87,0-1.31.55-1.31,1.66a2,2,0,0,0,.32,1.21,1.11,1.11,0,0,0,.94.42,2.75,2.75,0,0,0,1.1-.23v.58A2.41,2.41,0,0,1,26.86,39.14Z"/><path class="cls-1" d="M31.59,39.06l-.13-.61h0a1.85,1.85,0,0,1-.64.55,2,2,0,0,1-.79.14,1.42,1.42,0,0,1-1-.33,1.2,1.2,0,0,1-.36-.93c0-.87.69-1.32,2.07-1.36l.73,0v-.26a1.07,1.07,0,0,0-.22-.75.87.87,0,0,0-.69-.24,2.8,2.8,0,0,0-1.21.33l-.2-.49a2.61,2.61,0,0,1,.69-.27,2.78,2.78,0,0,1,.76-.1,1.59,1.59,0,0,1,1.13.34,1.41,1.41,0,0,1,.37,1.09v2.92Zm-1.46-.46a1.32,1.32,0,0,0,.95-.33,1.22,1.22,0,0,0,.34-.93V37l-.65,0a2.41,2.41,0,0,0-1.11.24.73.73,0,0,0-.34.67.66.66,0,0,0,.21.53A.9.9,0,0,0,30.13,38.6Z"/><path class="cls-1" d="M34.06,39.06h-.65V33h.65Z"/><path class="cls-1" d="M35.07,37.21v-.59H37v.59Z"/><path class="cls-1" d="M38.94,39.06l-1.62-4.28H38l.92,2.54c.21.59.33,1,.37,1.16h0c0-.14.12-.43.27-.86l1-2.84h.7L39.7,39.06Z"/><path class="cls-1" d="M45.71,36.92a2.37,2.37,0,0,1-.53,1.63,1.87,1.87,0,0,1-1.46.59,1.94,1.94,0,0,1-1-.27A1.82,1.82,0,0,1,42,38.1a2.59,2.59,0,0,1-.25-1.18,2.33,2.33,0,0,1,.53-1.63,1.85,1.85,0,0,1,1.45-.59,1.81,1.81,0,0,1,1.43.6A2.38,2.38,0,0,1,45.71,36.92Zm-3.26,0a2.12,2.12,0,0,0,.32,1.25,1.16,1.16,0,0,0,1,.43,1.17,1.17,0,0,0,1-.43A2,2,0,0,0,45,36.92a2,2,0,0,0-.33-1.24,1.32,1.32,0,0,0-1.94,0A2,2,0,0,0,42.45,36.92Z"/><path class="cls-1" d="M48.56,39.14a1.83,1.83,0,0,1-1.44-.57A2.38,2.38,0,0,1,46.61,37a2.44,2.44,0,0,1,.51-1.66,1.88,1.88,0,0,1,1.48-.59,2.68,2.68,0,0,1,.62.07,2,2,0,0,1,.48.15l-.2.56a2.88,2.88,0,0,0-.47-.15,1.93,1.93,0,0,0-.45,0c-.87,0-1.3.55-1.3,1.66a1.92,1.92,0,0,0,.32,1.21,1.1,1.1,0,0,0,.94.42,2.79,2.79,0,0,0,1.1-.23v.58A2.47,2.47,0,0,1,48.56,39.14Z"/><path class="cls-1" d="M53.29,39.06l-.13-.61h0a1.94,1.94,0,0,1-.64.55,2.08,2.08,0,0,1-.8.14,1.44,1.44,0,0,1-1-.33,1.2,1.2,0,0,1-.36-.93c0-.87.69-1.32,2.08-1.36l.72,0v-.26a1.12,1.12,0,0,0-.21-.75.91.91,0,0,0-.7-.24,2.83,2.83,0,0,0-1.21.33l-.2-.49a2.68,2.68,0,0,1,.7-.27,2.76,2.76,0,0,1,.75-.1,1.64,1.64,0,0,1,1.14.34,1.45,1.45,0,0,1,.37,1.09v2.92Zm-1.47-.46a1.32,1.32,0,0,0,1-.33,1.23,1.23,0,0,0,.35-.93V37l-.65,0a2.42,2.42,0,0,0-1.12.24.75.75,0,0,0-.34.67.64.64,0,0,0,.22.53A.89.89,0,0,0,51.82,38.6Z"/><path class="cls-1" d="M56.49,38.6a1.83,1.83,0,0,0,.33,0l.25,0V39a1.17,1.17,0,0,1-.31.09l-.37,0c-.83,0-1.24-.44-1.24-1.31V35.28h-.61V35l.61-.27.27-.91h.38v1H57v.5H55.8V37.8a.9.9,0,0,0,.18.6A.66.66,0,0,0,56.49,38.6Z"/><path class="cls-1" d="M57.87,33.62a.45.45,0,0,1,.11-.33.39.39,0,0,1,.28-.1.36.36,0,0,1,.26.11.39.39,0,0,1,.12.32.43.43,0,0,1-.12.33.35.35,0,0,1-.26.1A.39.39,0,0,1,58,34,.47.47,0,0,1,57.87,33.62Zm.71,5.44h-.65V34.78h.65Z"/><path class="cls-1" d="M63.65,36.92a2.37,2.37,0,0,1-.53,1.63,1.87,1.87,0,0,1-1.46.59,1.94,1.94,0,0,1-1-.27A1.85,1.85,0,0,1,60,38.1a2.73,2.73,0,0,1-.24-1.18,2.33,2.33,0,0,1,.53-1.63,2,2,0,0,1,2.88,0A2.38,2.38,0,0,1,63.65,36.92Zm-3.27,0a2,2,0,0,0,.33,1.25,1.3,1.3,0,0,0,1.93,0A2,2,0,0,0,63,36.92a2,2,0,0,0-.33-1.24,1.13,1.13,0,0,0-1-.43,1.12,1.12,0,0,0-1,.42A2,2,0,0,0,60.38,36.92Z"/><path class="cls-1" d="M67.71,39.06V36.29a1.1,1.1,0,0,0-.24-.78,1,1,0,0,0-.74-.26,1.22,1.22,0,0,0-1,.37,1.81,1.81,0,0,0-.31,1.19v2.25h-.65V34.78h.53l.11.59h0a1.17,1.17,0,0,1,.56-.49,1.71,1.71,0,0,1,.8-.18,1.66,1.66,0,0,1,1.16.37,1.6,1.6,0,0,1,.39,1.2v2.79Z"/><path class="cls-1" d="M72.33,39.06l-.13-.61h0a1.94,1.94,0,0,1-.64.55,2.08,2.08,0,0,1-.8.14,1.44,1.44,0,0,1-1-.33,1.2,1.2,0,0,1-.36-.93c0-.87.69-1.32,2.08-1.36l.72,0v-.26a1.12,1.12,0,0,0-.21-.75.91.91,0,0,0-.7-.24,2.83,2.83,0,0,0-1.21.33l-.2-.49a2.55,2.55,0,0,1,.7-.27,2.76,2.76,0,0,1,.75-.1,1.64,1.64,0,0,1,1.14.34,1.45,1.45,0,0,1,.37,1.09v2.92Zm-1.47-.46a1.32,1.32,0,0,0,1-.33,1.23,1.23,0,0,0,.35-.93V37l-.65,0a2.42,2.42,0,0,0-1.12.24.75.75,0,0,0-.34.67.66.66,0,0,0,.21.53A.91.91,0,0,0,70.86,38.6Z"/><path class="cls-1" d="M74.79,39.06h-.65V33h.65Z"/><path class="cls-1" d="M5,46.89a1.06,1.06,0,0,1-.45.92,2.06,2.06,0,0,1-1.25.33,2.72,2.72,0,0,1-1.33-.27v-.6a3.54,3.54,0,0,0,.67.24,2.71,2.71,0,0,0,.68.09,1.54,1.54,0,0,0,.78-.16A.53.53,0,0,0,4.32,47a.53.53,0,0,0-.22-.43,3.15,3.15,0,0,0-.84-.42,4.75,4.75,0,0,1-.85-.39A1.15,1.15,0,0,1,2,45.33,1,1,0,0,1,2.34,44a2,2,0,0,1,1.17-.3A3.55,3.55,0,0,1,4.86,44l-.23.53a3.07,3.07,0,0,0-1.17-.27,1.32,1.32,0,0,0-.7.15.45.45,0,0,0-.23.4.48.48,0,0,0,.09.29.75.75,0,0,0,.28.23,7.06,7.06,0,0,0,.75.32,2.69,2.69,0,0,1,1,.56A1,1,0,0,1,5,46.89Z"/><path class="cls-1" d="M7.71,48.14a1.83,1.83,0,0,1-1.44-.57,2.87,2.87,0,0,1,0-3.28,1.88,1.88,0,0,1,1.48-.59,2.54,2.54,0,0,1,.61.07,1.91,1.91,0,0,1,.49.15l-.2.56a3.23,3.23,0,0,0-.47-.15,1.93,1.93,0,0,0-.45,0c-.87,0-1.31.55-1.31,1.66a2,2,0,0,0,.32,1.21,1.13,1.13,0,0,0,1,.42,2.74,2.74,0,0,0,1.09-.23v.58A2.41,2.41,0,0,1,7.71,48.14Z"/><path class="cls-1" d="M12.74,48.06V45.29a1.1,1.1,0,0,0-.24-.78,1,1,0,0,0-.74-.26,1.21,1.21,0,0,0-1,.37,1.84,1.84,0,0,0-.31,1.2v2.24H9.81V42h.65v1.84a4.11,4.11,0,0,1,0,.55h0a1.27,1.27,0,0,1,.54-.48,1.76,1.76,0,0,1,.81-.18,1.67,1.67,0,0,1,1.18.37,1.59,1.59,0,0,1,.39,1.19v2.79Z"/><path class="cls-1" d="M18.42,45.92a2.37,2.37,0,0,1-.53,1.63,1.87,1.87,0,0,1-1.46.59,1.94,1.94,0,0,1-1-.27,1.78,1.78,0,0,1-.69-.77,2.73,2.73,0,0,1-.24-1.18A2.33,2.33,0,0,1,15,44.29a1.83,1.83,0,0,1,1.45-.59,1.82,1.82,0,0,1,1.43.6A2.38,2.38,0,0,1,18.42,45.92Zm-3.27,0a2,2,0,0,0,.33,1.25,1.3,1.3,0,0,0,1.93,0,2,2,0,0,0,.33-1.25,2,2,0,0,0-.33-1.24,1.13,1.13,0,0,0-1-.43,1.12,1.12,0,0,0-1,.42A2,2,0,0,0,15.15,45.92Z"/><path class="cls-1" d="M20.2,48.06h-.65V42h.65Z"/><path class="cls-1" d="M24.21,48.06l-.13-.61h0a1.94,1.94,0,0,1-.64.55,2,2,0,0,1-.8.14,1.41,1.41,0,0,1-1-.33,1.2,1.2,0,0,1-.36-.93c0-.87.69-1.32,2.07-1.36l.73,0v-.26a1.12,1.12,0,0,0-.22-.75.9.9,0,0,0-.69-.24,2.83,2.83,0,0,0-1.22.33l-.19-.49a2.61,2.61,0,0,1,.69-.27,2.76,2.76,0,0,1,.75-.1,1.64,1.64,0,0,1,1.14.34,1.41,1.41,0,0,1,.37,1.09v2.92Zm-1.47-.46a1.31,1.31,0,0,0,1-.33,1.23,1.23,0,0,0,.35-.93V46l-.65,0a2.37,2.37,0,0,0-1.11.24.74.74,0,0,0-.35.67.67.67,0,0,0,.22.53A.89.89,0,0,0,22.74,47.6Z"/><path class="cls-1" d="M28,43.7a2.59,2.59,0,0,1,.51,0l-.09.6a2.16,2.16,0,0,0-.47-.06,1.15,1.15,0,0,0-.89.42,1.56,1.56,0,0,0-.37,1v2.3H26V43.78h.54l.07.79h0a1.7,1.7,0,0,1,.57-.64A1.3,1.3,0,0,1,28,43.7Z"/><path class="cls-1" d="M32.05,46.89a1.07,1.07,0,0,1-.44.92,2.09,2.09,0,0,1-1.25.33A2.72,2.72,0,0,1,29,47.87v-.6a3.21,3.21,0,0,0,.66.24,2.77,2.77,0,0,0,.68.09,1.51,1.51,0,0,0,.78-.16.52.52,0,0,0,.28-.49.55.55,0,0,0-.22-.43,3.26,3.26,0,0,0-.85-.42,5.12,5.12,0,0,1-.85-.39,1.11,1.11,0,0,1-.37-.38,1.05,1.05,0,0,1,.3-1.33,2,2,0,0,1,1.17-.3A3.55,3.55,0,0,1,32,44l-.23.53a3.07,3.07,0,0,0-1.17-.27,1.29,1.29,0,0,0-.69.15.44.44,0,0,0-.24.4.48.48,0,0,0,.09.29.79.79,0,0,0,.29.23,5.54,5.54,0,0,0,.75.32,2.64,2.64,0,0,1,1,.56A1,1,0,0,1,32.05,46.89Z"/><path class="cls-1" d="M38,46.89a1.06,1.06,0,0,1-.45.92,2.06,2.06,0,0,1-1.25.33,2.72,2.72,0,0,1-1.33-.27v-.6a3.54,3.54,0,0,0,.67.24,2.71,2.71,0,0,0,.68.09,1.54,1.54,0,0,0,.78-.16.53.53,0,0,0,.27-.49.53.53,0,0,0-.22-.43,3.15,3.15,0,0,0-.84-.42,4.75,4.75,0,0,1-.85-.39,1.15,1.15,0,0,1-.38-.38A1,1,0,0,1,35.34,44a2,2,0,0,1,1.17-.3,3.55,3.55,0,0,1,1.35.28l-.23.53a3.07,3.07,0,0,0-1.17-.27,1.32,1.32,0,0,0-.7.15.45.45,0,0,0-.23.4.48.48,0,0,0,.09.29.75.75,0,0,0,.28.23,7.06,7.06,0,0,0,.75.32,2.69,2.69,0,0,1,1,.56A1,1,0,0,1,38,46.89Z"/><path class="cls-1" d="M39.61,43.78v2.78a1.1,1.1,0,0,0,.24.78,1,1,0,0,0,.74.26,1.25,1.25,0,0,0,1-.37,1.92,1.92,0,0,0,.31-1.2V43.78h.65v4.28H42l-.09-.57h0a1.29,1.29,0,0,1-.55.48,1.92,1.92,0,0,1-.81.17,1.63,1.63,0,0,1-1.17-.37A1.59,1.59,0,0,1,39,46.58v-2.8Z"/><path class="cls-1" d="M45.9,48.14a1.73,1.73,0,0,1-.76-.16,1.46,1.46,0,0,1-.58-.47h-.05a6.07,6.07,0,0,1,.05.71V50h-.65v-6.2h.53l.09.59h0a1.46,1.46,0,0,1,.58-.51,1.7,1.7,0,0,1,.76-.16,1.59,1.59,0,0,1,1.32.58,3.12,3.12,0,0,1,0,3.28A1.61,1.61,0,0,1,45.9,48.14Zm-.09-3.89a1.13,1.13,0,0,0-1,.37,1.84,1.84,0,0,0-.3,1.15v.15a2.15,2.15,0,0,0,.3,1.29,1.14,1.14,0,0,0,1,.39,1,1,0,0,0,.86-.45A2.15,2.15,0,0,0,47,45.91a2,2,0,0,0-.32-1.23A1,1,0,0,0,45.81,44.25Z"/><path class="cls-1" d="M50.81,48.14A1.77,1.77,0,0,1,50,48a1.46,1.46,0,0,1-.58-.47h0a6,6,0,0,1,0,.71V50h-.65v-6.2h.53l.09.59h0a1.46,1.46,0,0,1,.58-.51,1.71,1.71,0,0,1,.77-.16,1.58,1.58,0,0,1,1.31.58,2.58,2.58,0,0,1,.46,1.64,2.52,2.52,0,0,1-.47,1.64A1.6,1.6,0,0,1,50.81,48.14Zm-.1-3.89a1.13,1.13,0,0,0-1,.37,1.91,1.91,0,0,0-.3,1.15v.15a2.15,2.15,0,0,0,.3,1.29,1.14,1.14,0,0,0,1,.39,1,1,0,0,0,.87-.45,2.15,2.15,0,0,0,.31-1.24,2.05,2.05,0,0,0-.31-1.23A1,1,0,0,0,50.71,44.25Z"/><path class="cls-1" d="M57.41,45.92a2.32,2.32,0,0,1-.53,1.63,1.85,1.85,0,0,1-1.45.59,1.89,1.89,0,0,1-1-.27,1.78,1.78,0,0,1-.69-.77,2.73,2.73,0,0,1-.24-1.18A2.33,2.33,0,0,1,54,44.29a1.85,1.85,0,0,1,1.45-.59,1.81,1.81,0,0,1,1.43.6A2.38,2.38,0,0,1,57.41,45.92Zm-3.26,0a2,2,0,0,0,.33,1.25,1.3,1.3,0,0,0,1.93,0,2,2,0,0,0,.33-1.25,2,2,0,0,0-.33-1.24,1.32,1.32,0,0,0-1.94,0A2.05,2.05,0,0,0,54.15,45.92Z"/><path class="cls-1" d="M60.5,43.7a2.59,2.59,0,0,1,.51,0l-.09.6a2.09,2.09,0,0,0-.47-.06,1.13,1.13,0,0,0-.88.42,1.51,1.51,0,0,0-.37,1v2.3h-.65V43.78h.53l.08.79h0a1.89,1.89,0,0,1,.57-.64A1.32,1.32,0,0,1,60.5,43.7Z"/><path class="cls-1" d="M63.2,47.6a1.83,1.83,0,0,0,.33,0l.25,0V48a1.17,1.17,0,0,1-.31.09l-.37,0c-.83,0-1.24-.44-1.24-1.31V44.28h-.61V44l.61-.27.27-.91h.38v1h1.24v.5H62.51V46.8a.9.9,0,0,0,.18.6A.66.66,0,0,0,63.2,47.6Z"/><path class="cls-1" d="M66.45,48.14a1.94,1.94,0,0,1-1.5-.58A2.21,2.21,0,0,1,64.4,46a2.5,2.5,0,0,1,.51-1.65,1.69,1.69,0,0,1,1.37-.61,1.62,1.62,0,0,1,1.27.53,2,2,0,0,1,.47,1.4V46h-3a1.68,1.68,0,0,0,.38,1.14,1.32,1.32,0,0,0,1,.39,3.34,3.34,0,0,0,1.37-.29v.58a3.25,3.25,0,0,1-.65.21A3.21,3.21,0,0,1,66.45,48.14Zm-.18-3.9a1.07,1.07,0,0,0-.82.34,1.46,1.46,0,0,0-.36.93h2.24a1.44,1.44,0,0,0-.28-.94A1,1,0,0,0,66.27,44.24Z"/><path class="cls-1" d="M72,47.49h0a1.54,1.54,0,0,1-1.35.65,1.59,1.59,0,0,1-1.31-.58,3.11,3.11,0,0,1,0-3.27,1.73,1.73,0,0,1,2.64,0h0l0-.3V42h.64v6.08h-.52Zm-1.3.11a1.16,1.16,0,0,0,1-.37,1.81,1.81,0,0,0,.3-1.16v-.14a2.15,2.15,0,0,0-.31-1.3,1.13,1.13,0,0,0-1-.39,1,1,0,0,0-.88.45,2.2,2.2,0,0,0-.3,1.25,2.12,2.12,0,0,0,.3,1.24A1,1,0,0,0,70.74,47.6Z"/><path class="cls-1" d="M79.6,48.06l-.78-2.51c0-.16-.15-.5-.28-1h0c-.11.46-.2.81-.27,1.06l-.81,2.5h-.75l-1.17-4.28h.68q.41,1.61.63,2.46a11.24,11.24,0,0,1,.25,1.13h0c0-.14.07-.34.14-.57s.12-.43.16-.56l.79-2.46h.7l.77,2.46A8.2,8.2,0,0,1,80,47.37h0a3,3,0,0,1,.08-.44c0-.19.32-1.24.81-3.15h.68l-1.19,4.28Z"/><path class="cls-1" d="M82.27,42.62a.45.45,0,0,1,.11-.33.41.41,0,0,1,.55,0,.43.43,0,0,1,.11.32.47.47,0,0,1-.11.33.39.39,0,0,1-.27.1.4.4,0,0,1-.28-.1A.47.47,0,0,1,82.27,42.62ZM83,48.06h-.65V43.78H83Z"/><path class="cls-1" d="M85.74,47.6a1.83,1.83,0,0,0,.33,0l.25,0V48a1.17,1.17,0,0,1-.31.09l-.37,0c-.83,0-1.24-.44-1.24-1.31V44.28h-.61V44l.61-.27.27-.91h.38v1h1.24v.5H85.05V46.8a.9.9,0,0,0,.18.6A.66.66,0,0,0,85.74,47.6Z"/><path class="cls-1" d="M90.11,48.06V45.29a1.1,1.1,0,0,0-.24-.78,1,1,0,0,0-.75-.26,1.18,1.18,0,0,0-1,.37,1.84,1.84,0,0,0-.31,1.2v2.24h-.65V42h.65v1.84a3.9,3.9,0,0,1,0,.55h0a1.36,1.36,0,0,1,.55-.48,1.71,1.71,0,0,1,.8-.18,1.64,1.64,0,0,1,1.18.37,1.6,1.6,0,0,1,.4,1.19v2.79Z"/><path class="cls-2" d="M13,8.77q0,10.47-8.11,10.47A8.48,8.48,0,0,1,2.59,19V17.25a7,7,0,0,0,2.23.32,5.38,5.38,0,0,0,4.42-1.81,9.15,9.15,0,0,0,1.63-5.56h-.15a4.3,4.3,0,0,1-1.78,1.54,5.63,5.63,0,0,1-2.5.53,5,5,0,0,1-3.76-1.41,5.4,5.4,0,0,1-1.39-4A6,6,0,0,1,2.85,2.51,5.39,5.39,0,0,1,6.94.9a5.51,5.51,0,0,1,3.18.93,5.82,5.82,0,0,1,2.09,2.72A11.09,11.09,0,0,1,13,8.77Zm-6-6.14a3.38,3.38,0,0,0-2.7,1.12,4.72,4.72,0,0,0-1,3.13,4,4,0,0,0,.88,2.76,3.37,3.37,0,0,0,2.67,1,4.66,4.66,0,0,0,2.05-.45A3.71,3.71,0,0,0,10.36,9a2.84,2.84,0,0,0,.54-1.64A5.69,5.69,0,0,0,10.4,5,4.23,4.23,0,0,0,9,3.25,3.58,3.58,0,0,0,6.94,2.63Z"/><path class="cls-2" d="M18.56,16.1l.19.28c-.22.81-.52,1.76-.92,2.83s-.81,2.09-1.25,3H15.06c.22-.84.46-1.89.72-3.13s.45-2.25.56-3Z"/><path class="cls-2" d="M34.21,14.9H31.56V19H29.62V14.9H20.94V13.13L29.41,1.06h2.15v12h2.65Zm-4.59-1.84V7.12c0-1.16,0-2.48.12-3.94h-.09a18.36,18.36,0,0,1-1.1,1.94L23,13.06Z"/><path class="cls-2" d="M47,5.35a4.09,4.09,0,0,1-1,2.8A4.79,4.79,0,0,1,43.32,9.6v.1a5.06,5.06,0,0,1,3.18,1.37,4,4,0,0,1,1,2.88,4.66,4.66,0,0,1-1.77,3.92,8,8,0,0,1-5,1.37A14.76,14.76,0,0,1,38.15,19a8.66,8.66,0,0,1-2.29-.75V16.35a11.3,11.3,0,0,0,2.47.87,11.19,11.19,0,0,0,2.49.3q4.62,0,4.62-3.62,0-3.26-5.1-3.25H38.58V8.9h1.78A5.31,5.31,0,0,0,43.67,8a3,3,0,0,0,1.22-2.55,2.53,2.53,0,0,0-.89-2,3.69,3.69,0,0,0-2.44-.75A7.57,7.57,0,0,0,39.35,3,9.89,9.89,0,0,0,37,4.12L36,2.75a8.64,8.64,0,0,1,2.53-1.36,9.19,9.19,0,0,1,3-.49,6.14,6.14,0,0,1,4,1.19A4,4,0,0,1,47,5.35Z"/><path class="cls-2" d="M62.06,10.05q0,4.64-1.46,6.91a4.94,4.94,0,0,1-4.47,2.28,4.87,4.87,0,0,1-4.38-2.33q-1.5-2.34-1.5-6.86c0-3.11.49-5.41,1.45-6.92a5.39,5.39,0,0,1,8.85.1A12.75,12.75,0,0,1,62.06,10.05Zm-9.76,0a13,13,0,0,0,.92,5.67,3.28,3.28,0,0,0,5.85,0A13.11,13.11,0,0,0,60,10.05a13,13,0,0,0-.91-5.63,3.3,3.3,0,0,0-5.85,0A13,13,0,0,0,52.3,10.05Z"/></g></svg>