<svg xmlns="http://www.w3.org/2000/svg" viewBox="0 0 780.43 131.64"><defs><style>.cls-1{fill:#fff;}.cls-2{fill:#1568a1;}</style></defs><g id="Economic_Opportunities_Image" data-name="Economic Opportunities Image"><path class="cls-1" d="M32.68,44.05a7.61,7.61,0,0,1-3,7.06s-4.06,4.23-10.46.54c0,0-7.75,4.23-11.81-1.44a8.65,8.65,0,0,1-1.8-8.48S1.36,38.66,2,33.61c0,0,.45-8.74,8.93-7.48,0,0,1.62-6.67,8.38-6.4,0,0,6.4.27,7.76,6.49,0,0,7.93-.27,9,8,0,0,.82,6.94-3.78,7.66a9.9,9.9,0,0,1,.39,2.14"/><path class="cls-2" d="M24.33,53.65a10.54,10.54,0,0,1-5.13-1.43C17.79,52.9,10.83,55.87,7,50.5a9.06,9.06,0,0,1-2-8.59,9.6,9.6,0,0,1-3.53-8.36c0-.13.25-4.15,3.09-6.48a7.72,7.72,0,0,1,6-1.49c.52-1.53,2.72-6.56,8.76-6.35.07,0,6.54.35,8.13,6.5a9.29,9.29,0,0,1,9.12,8.45c.29,2.45-.15,7.13-3.66,8.11A11.15,11.15,0,0,1,33.18,44h0A8.07,8.07,0,0,1,30,51.51h0A8.38,8.38,0,0,1,24.33,53.65Zm-15-27.14a6.27,6.27,0,0,0-4.1,1.33c-2.5,2-2.73,5.76-2.73,5.8-.59,4.72,3.36,7.66,3.4,7.68l.29.22-.11.34a8.06,8.06,0,0,0,1.69,8c3.8,5.31,10.91,1.52,11.21,1.36l.25-.13.24.14c6,3.44,9.7-.3,9.85-.46a7.15,7.15,0,0,0,2.87-6.68h0a8.73,8.73,0,0,0-.37-2l-.19-.56.59-.09c4.07-.64,3.37-7.05,3.37-7.12a8.26,8.26,0,0,0-8.5-7.58l-.42,0-.09-.41c-1.25-5.76-7-6.09-7.29-6.1-6.3-.27-7.86,6-7.88,6l-.11.44-.45-.06A10.23,10.23,0,0,0,9.32,26.51Z"/><path class="cls-2" d="M19.21,133.15a.5.5,0,0,1-.5-.5v-96a.5.5,0,0,1,.5-.5.5.5,0,0,1,.5.5v96A.5.5,0,0,1,19.21,133.15Z"/><path class="cls-2" d="M19.12,45.57l-5.3-5a.5.5,0,0,1,.69-.73l4.62,4.37,4.25-3.92a.5.5,0,1,1,.68.73Z"/><path class="cls-2" d="M120.79,99.1l-.23-.93a6.4,6.4,0,0,0-1.88-1.08c-4.82-.56-6.94-2.54-7.55-3.25a3.49,3.49,0,0,1-2.59-.46,1.92,1.92,0,0,1-.78-1.23A2.47,2.47,0,0,1,108,90a2.92,2.92,0,0,1,1.83-1l0-.1c1.52-.41,2-4.38,2-6.79V81.5l.54.06a22.75,22.75,0,0,0,10.24-2c.09,0,6.52-2.33,8.68,2.77a14.1,14.1,0,0,1,1.48,5.78c0,.35-1.07,6.4-9,8.5l-.29.28-.13,0a4.62,4.62,0,0,0-2,1.42Zm-9.23-6.32.17.26s1.78,2.49,7.13,3.1l.13,0a8.61,8.61,0,0,1,2.06,1.15A5.38,5.38,0,0,1,123,96l.29-.29.13,0c7.41-1.9,8.37-7.42,8.41-7.65a13.5,13.5,0,0,0-1.39-5.3c-1.82-4.29-7.22-2.37-7.45-2.29a24.56,24.56,0,0,1-10.17,2.08c0,1.66-.33,6.32-2.55,7.14v.15a2.16,2.16,0,0,0-1.45.69,1.62,1.62,0,0,0-.12,1.43,1,1,0,0,0,.42.64,2.88,2.88,0,0,0,2.12.23Z"/><path class="cls-2" d="M108.1,92.56c-3.28-1-4-6.15-4-6.37-.49-4.8,1.92-6.16,2.93-6.52a7.47,7.47,0,0,1,1.89-4.76c2.21-2.54,6.06-3.93,11.44-4.13.08,0,10.68-.93,13.42,8.54.09.29,2.23,7.44-1.25,9.25l-.45-.85c2.3-1.2,1.33-6.27.77-8.13-2.52-8.69-12-7.88-12.42-7.84-5.12.19-8.74,1.46-10.76,3.78A6.34,6.34,0,0,0,108,80l0,.46-.46.07c-.12,0-3,.54-2.53,5.57,0,0,.64,4.72,3.33,5.55Z"/><path class="cls-2" d="M121.9,112a14.21,14.21,0,0,1-7.18-2.23l-.21-.14,0-7.35a6.76,6.76,0,0,1-2.37.14l-.31,0-.1-.3a22.33,22.33,0,0,1-.29-3.36v-.61l.59.12a6.08,6.08,0,0,0,2.85-.91,5.67,5.67,0,0,1,3.38-1.14l0,1a5,5,0,0,0-2.82,1,8.86,8.86,0,0,1-3,1.08,19.77,19.77,0,0,0,.17,2.27,4.41,4.41,0,0,0,2.15-.33l.74-.45-.06,8.41c1.15.7,6.79,3.8,11.42.23L125,99.91l1.36,2s1,1.38,3.64-.25a1.52,1.52,0,0,0-.25-.23L126,98h0a5,5,0,0,0-3.85-.45l-.37-.89a5.89,5.89,0,0,1,4.81.57l3.73,3.45a1.37,1.37,0,0,1,.65,1.09.76.76,0,0,1-.34.59c-1.86,1.23-3.18,1.19-4,.88l1.32,6.44-.22.19A9,9,0,0,1,121.9,112Zm8.23-10.41h0Z"/><path class="cls-2" d="M117.25,120.53a6.25,6.25,0,0,1-3.8-1.18l-.19-.15V119a51,51,0,0,1,1.47-9.53l.94.24a51.3,51.3,0,0,0-1.43,9.06,6.21,6.21,0,0,0,5.87.22,9.53,9.53,0,0,0,.26-2.16l1-.05a11.16,11.16,0,0,1-.34,2.67l-.05.24-.22.09A8.61,8.61,0,0,1,117.25,120.53Z"/><path class="cls-2" d="M120.81,117.12a1.45,1.45,0,0,1-1-.33l.69-.69-.34.34.32-.36s.28.2,1-.08l.36.89A2.73,2.73,0,0,1,120.81,117.12Z"/><path class="cls-2" d="M122.82,119.9a3.79,3.79,0,0,1-.88-.08c-1.14-.35-1.27-2.5-1.29-3.15l1,0c0,1,.31,2.16.58,2.24h0s2,.41,4.77-1.27c0-1.09.15-5.38-.48-7.45l.93-.28c.77,2.53.51,7.81.5,8v.26l-.21.13A9.27,9.27,0,0,1,122.82,119.9Z"/><path class="cls-2" d="M111.91,102.16a8.59,8.59,0,0,1-5.31-3.61,4.54,4.54,0,0,1-3.29-1.35c-.31-.55-.19-.86,0-1a.63.63,0,0,1,.11-.12,1.38,1.38,0,0,1-.36-.82.91.91,0,0,1,.14-.52.74.74,0,0,1,.37-.37.58.58,0,0,1,.06-.42.83.83,0,0,1,.65-.49h.14l0-.07a.89.89,0,0,1,.82-.48,1.28,1.28,0,0,1,.9.66l.06-.08a1,1,0,0,1,.94-.53c.59.07.88.76.94.9a5.92,5.92,0,0,1,.56,2.47,28.52,28.52,0,0,1,3.47,2.21l-.57.79a20.74,20.74,0,0,0-3.48-2.19l-.39-.08V96.6a5.62,5.62,0,0,0-.49-2.4h0l.42,2.1-1-.87a7,7,0,0,1-1.08-1.13l-.67.44a4.11,4.11,0,0,0,.34.44l-.7.57a2.71,2.71,0,0,0,.34.26l2,1.48-2.4-.61a4.11,4.11,0,0,0,2.46.71h.27l.14.23s1.87,2.94,4.78,3.38Zm-7.51-7.73h0Z"/><path class="cls-2" d="M130.09,105.78c-2.08-.07-3.2-2.39-3.25-2.49l.87-.41s.93,1.89,2.38,1.93a17.08,17.08,0,0,0,4.42-.87l-.52,0,1.07-.17.07,0,.22-.06a2.47,2.47,0,0,1,1-.12l2.33-.38-1-.15,1.38-.66-2.31.24,2.16-1.16.38-.23h0a2.53,2.53,0,0,1-2.15.19l-.59-.21a3.45,3.45,0,0,0-.35.72l-.08.25-.25.07a17.78,17.78,0,0,1-6,.49l.14-1a16.42,16.42,0,0,0,5.33-.41,3.25,3.25,0,0,1,2.09-2.06c.23,0,.88-.16,1.11.34.06.12.19.39-.2.92a2,2,0,0,0,.48-.21l.11-.08h.15c.43,0,1.34-.06,1.51.56a.66.66,0,0,1-.15.64.6.6,0,0,1,.34.39c.05.21,0,.46-.35.79a.59.59,0,0,1,.27.49c0,.21-.06.45-.57.67a.8.8,0,0,1-.1.78l-.09.13-.14,0c-2.41.84-3.52-.17-3.56-.21s-.5,0-.66.06l-.21.06A17.26,17.26,0,0,1,130.09,105.78Zm9.22-1.57Zm-1.73-.15a3,3,0,0,0,.69,0Z"/><path class="cls-2" d="M118.25,126.61l-.61-.38a8.43,8.43,0,0,0-2.51-.41l-.44,0-.23-5.93,1,0,.2,5.06a11.91,11.91,0,0,1,1.91.28l.92-5.14,1,.17Z"/><path class="cls-2" d="M126.83,125.75a8.46,8.46,0,0,1-2.81-.61l-.24-.1-1-5.33.95-.18.92,4.8a5.78,5.78,0,0,0,2.81.39.6.6,0,0,0-.2,0l-.4,0-.64-6.23,1-.1.55,5.46a1.52,1.52,0,0,1,1,.82l.11.29-.2.22A2.32,2.32,0,0,1,126.83,125.75Z"/><path class="cls-2" d="M116.24,131.28a5.39,5.39,0,0,1-2.82-1l-.14-.15c-1.28-2.26,1.23-5.32,1.34-5.45l.75.62s-2.12,2.58-1.3,4.26a3.94,3.94,0,0,0,2.66.68,2.11,2.11,0,0,0,1.36-1.15c.22-1.3.19-2.84-.2-3.11l.56-.79c1.11.78.68,3.59.58,4.14l0,.14a3.07,3.07,0,0,1-2,1.71A2.81,2.81,0,0,1,116.24,131.28Z"/><path class="cls-2" d="M116.54,128.41h-.19a1.79,1.79,0,0,1-1.78-2.15l.05-.52,3.68.67-.08.47A1.78,1.78,0,0,1,116.54,128.41Zm-.16-1a.74.74,0,0,0,.69-.27l-1.51-.27a.9.9,0,0,0,.16.29A1,1,0,0,0,116.38,127.43Z"/><path class="cls-2" d="M127.3,128.2a13.65,13.65,0,0,1-4.12-.74l-.26-.1,0-.26a3.71,3.71,0,0,1,1-2.73l.73.63a3.31,3.31,0,0,0-.77,1.64c1.1.34,5,1.38,6.55-.53a1.7,1.7,0,0,0-2-1l-.14-1a2.71,2.71,0,0,1,3.13,2l0,.2-.12.18A4.51,4.51,0,0,1,127.3,128.2Z"/><path class="cls-2" d="M121.79,111.4l-3.56-3.82,1.83-7.22-.39-.44,0-.11a4.63,4.63,0,0,1,.69-2.23l.86.45a7.27,7.27,0,0,0-.6,1.47l.54.6-1.83,7.21,2.48,2.65,1.88-2.09-2.39-7.94.28-.2a.71.71,0,0,0,.23-.28c-.08-.45-.3-1.12-.62-1.25l.38-.89c1,.42,1.19,1.94,1.21,2.11v.12a1.48,1.48,0,0,1-.36.73l2.36,7.84Z"/><path class="cls-2" d="M109.31,77.07l-1.49-.83.29-3.38.27-.12a45.89,45.89,0,0,0,5-2.5,4.81,4.81,0,0,1,3.44-.92c.51,0,1.14,0,2,0a31.73,31.73,0,0,1,6.85.24c3.4.38,4.71,1.66,4.77,1.71l.06.09,1.58,2.49-.89,2.81-1.53.16c-.17,0-11.32-.24-12.52-.24s-7.64.47-7.71.48Zm-.47-1.37.68.38c1-.07,6.51-.47,7.64-.47s12,.23,12.48.24l.83-.09L131,74l-1.3-2a7.9,7.9,0,0,0-4.16-1.41,31.58,31.58,0,0,0-6.7-.24c-.89,0-1.54,0-2.06,0a3.88,3.88,0,0,0-2.91.77A43.45,43.45,0,0,1,109,73.52Z"/><path class="cls-2" d="M119.88,78.7l-.25-.19a2.91,2.91,0,0,0-1.31-.44l-.24,0a38.15,38.15,0,0,0-6.42-.6,11.9,11.9,0,0,0-3,.25,1,1,0,0,1-.33,0h-.49l-.09-.49V75.07c0-2.46,0-4.93,0-7.4l-6.88-2.32-.51-.18V71.5a1.89,1.89,0,0,1,.66,1.35,1.81,1.81,0,0,1-.48,1.33l.55,1.14a2,2,0,0,1,.09,1.88,2,2,0,0,1-1.61,1,2.54,2.54,0,0,1-1.79-.36,1.68,1.68,0,0,1-.65-2.25l.67-1.39a.22.22,0,0,1,0-.08,2.72,2.72,0,0,1-.36-.7A1.73,1.73,0,0,1,98,71.52c0-2.38,0-4.77,0-7.16-.36-.11-.7-.23-1.06-.36l-1.75-.6,1.61-.57L120,55.61l.33.09.31.12,24.12,7.53-1.67.62-10.93,3.71v10h-.49a1.5,1.5,0,0,1-.43,0,13.1,13.1,0,0,0-3.61-.24,36.17,36.17,0,0,0-6,.62c-.36.07-.72.17-1.08.27l-.2.11ZM111.54,76a40.51,40.51,0,0,1,5.48.41,13,13,0,0,1,2.93.63l.47-.13a9.73,9.73,0,0,1,1.06-.28,32.93,32.93,0,0,1,4.78-.55c1.12,0,2.27,0,3.37,0H130l.71.06v-8.7a.39.39,0,0,0-.11-.31,2.06,2.06,0,0,0-.39-.34l-.18-.08a10.67,10.67,0,0,0-1.39-.63,24.37,24.37,0,0,0-6.19-1,38.59,38.59,0,0,0-7.74.27,17.33,17.33,0,0,0-4.12,1,3.79,3.79,0,0,0-1.25.72.58.58,0,0,0-.22.48v8.65h.06c.41,0,.82-.08,1.22-.1ZM99.15,74.56l-.79,1.66c-.08.17-.08.24.09.38a1.24,1.24,0,0,0,1.4,0c.15-.12.18-.19.09-.4Zm0-2.07h0a.45.45,0,0,0-.43.32c0,.17-.09.31.43.65.52-.36.48-.49.44-.64A.46.46,0,0,0,99.15,72.49ZM120,63.56c1.33,0,2.66.07,4,.2a23.16,23.16,0,0,1,5.16,1,5.37,5.37,0,0,1,2.64,1.56l6.51-2.2-2.54-.8L120,58.42a.24.24,0,0,0-.12,0l-17.42,5.43-.85.26,6.52,2.21a3.54,3.54,0,0,1,1.3-1,9.94,9.94,0,0,1,1.36-.55,27.28,27.28,0,0,1,7.16-1.15C118.61,63.58,119.29,63.56,120,63.56Zm20.48-.09v.37l.1-.34h0Z"/><path class="cls-2" d="M109.84,74.27a.66.66,0,0,1-.49-.19.75.75,0,0,1-.22-.58V69.3a1,1,0,0,1,.18-.55.65.65,0,0,1,.63-.25.7.7,0,0,1,.55.47,1.1,1.1,0,0,1,.05.38v4.17a.69.69,0,0,1-.69.75Z"/><path class="cls-2" d="M110,76l-.29,0a.87.87,0,0,1-.56-.51,1,1,0,0,1,0-.44v-.08h.45l-.45-.06a.9.9,0,0,1,.05-.44.78.78,0,0,1,.65-.5h0a.75.75,0,0,1,.68.62,3.66,3.66,0,0,1,0,.81.72.72,0,0,1-.32.49Zm-.46-.74h0Zm0-.57v0Z"/><path class="cls-2" d="M141.63,103.37l-.34-.59-.17.06a.68.68,0,0,1-.83-.24.75.75,0,0,1-.88-.25,5.08,5.08,0,0,1-1.2-3.6.71.71,0,0,1,.54-.71h0a.66.66,0,0,1,.5-.69l.18-.06-.08-.68.42-.1a128.92,128.92,0,0,0,20.72-7l.39-.17.35.59.2-.07a.65.65,0,0,1,.8.24h0a.69.69,0,0,1,.83.23A5.06,5.06,0,0,1,164.31,94a.65.65,0,0,1-.54.65v0a.65.65,0,0,1-.47.66l-.21.06.09.68-.42.1c-2.86.71-5.56,1.47-8.25,2.33l1.85,2.34-1.2.06-.48,0c0,.15-.08.29-.13.44l-.34,1.18-1.59-2V102l-.54.25-.28-.15-.42-.31-.15-.12-.15.12-1.16.79,0-.89v-1.61c-2.59.94-5.16,2-7.84,3.13Zm-.84-5.78a13.91,13.91,0,0,0,1.4,4.13c2.51-1.08,5.08-2.09,7.65-3a2.32,2.32,0,0,1-.44-2.61l-.3-.89C146.34,96.09,143.56,96.89,140.79,97.59Zm10.45,2.64h.08v-.86l-.14,0v.88ZM153,98.87l.76,1,.11-.09-.76-1Zm-3.08.06a0,0,0,0,0,0,0A0,0,0,0,1,149.89,98.93ZM151.51,96a1,1,0,0,0,0,2.08,1.13,1.13,0,0,0,.73-.3,1,1,0,0,0,.31-.74,1.06,1.06,0,0,0-1-1Zm1.07-1a2.29,2.29,0,0,1,1.24,2.35l2.5-.73,4.14-1.2c.39-.12.79-.22,1.18-.32l.11,0A16.16,16.16,0,0,0,160.34,91c-2.63,1.13-5.33,2.19-8.06,3.16Zm-3.14,1.2h0Zm.89-1.42.08.24a2.34,2.34,0,0,1,.73-.25l-.08-.23Z"/><path class="cls-2" d="M157.58,95l-.25-.17h0a.62.62,0,0,1-.26-.38.62.62,0,0,1,.1-.47l.09-.17,3-1.19a.63.63,0,0,1,.88.34.63.63,0,0,1-.39.81Zm3.1-1.5h0Z"/><path class="cls-2" d="M160.86,93.65l-.23-.17h0a.6.6,0,0,1-.26-.43.67.67,0,0,1,.34-.62l.37-.17.5-.2a.61.61,0,0,1,.83.3.6.6,0,0,1,0,.49.64.64,0,0,1-.36.36Zm.3-.36Zm.53-1h0Z"/><path class="cls-2" d="M217.38,101.52l-.62-.79a4.72,4.72,0,0,0-1.93-1.39l-.13,0-.29-.29c-7.81-2.07-8.83-8-8.86-8.29A13.74,13.74,0,0,1,207,84.9c1.69-4,6.32-3.53,8.53-2.71a22.23,22.23,0,0,0,10.1,2l.56-.06v.56c0,2.37.49,6.27,2,6.66l0,.1a2.86,2.86,0,0,1,1.81,1,2.5,2.5,0,0,1,.27,2.24,1.93,1.93,0,0,1-.76,1.14,3.43,3.43,0,0,1-2.56.46c-.62.71-2.71,2.65-7.43,3.21a5.69,5.69,0,0,0-1.85,1.08Zm-2.17-3.11a5,5,0,0,1,1.91,1.25,7.73,7.73,0,0,1,2-1.12l.13,0c5.3-.6,7-3,7-3l.18-.26.32,0a2.79,2.79,0,0,0,2.06-.22,1,1,0,0,0,.4-.56,1.65,1.65,0,0,0-.1-1.45,2.17,2.17,0,0,0-1.41-.67v-.14c-2.19-.8-2.5-5.38-2.53-7a24.32,24.32,0,0,1-10-2c-.2-.07-5.5-2-7.27,2.21a13.39,13.39,0,0,0-1.37,5.33c0,.14,1,5.56,8.25,7.43l.14,0Z"/><path class="cls-2" d="M232.66,92.49l-.87-.48c1.67-3,2.13-5.4,1.34-7a3.93,3.93,0,0,0-2.75-1.89l-.48-.06,0-.48a6.38,6.38,0,0,0-1.63-4.37c-2-2.28-5.55-3.53-10.56-3.71-.42,0-9.76-.84-12.23,7.7-.56,1.83-1.51,6.8.74,8l-.46.88c-3.44-1.79-1.33-8.85-1.24-9.14,2.7-9.34,13.15-8.42,13.26-8.42,5.28.2,9.08,1.57,11.26,4.08A7.42,7.42,0,0,1,231,82.25,4.72,4.72,0,0,1,234,84.59C235,86.49,234.53,89.15,232.66,92.49Z"/><path class="cls-2" d="M216.28,114.13a8.83,8.83,0,0,1-5.77-2.07l-.23-.19,1.3-6.32c-.83.3-2.13.32-3.94-.88a.76.76,0,0,1-.34-.6A1.4,1.4,0,0,1,208,103l3.58-3.32a5.78,5.78,0,0,1,4.83-.63l-.38.93a4.84,4.84,0,0,0-3.84.49l-3.53,3.29a1.69,1.69,0,0,0-.26.23c2.52,1.57,3.5.28,3.54.22l1.36-1.86-1.89,9.17c4.53,3.48,10.05.47,11.2-.24l-.05-8.31.76.47a4.29,4.29,0,0,0,2.09.33c.08-.54.13-1.46.16-2.2a8.72,8.72,0,0,1-2.86-1,4.88,4.88,0,0,0-2.82-1l0-1a5.81,5.81,0,0,1,3.4,1.16,5.83,5.83,0,0,0,2.73.86l.61-.12V101a20.44,20.44,0,0,1-.29,3.31l-.1.32-.32,0a7,7,0,0,1-2.31-.12l.05,7.21-.22.15A14.15,14.15,0,0,1,216.28,114.13Zm-8.1-10.3h0Z"/><path class="cls-2" d="M219.35,122.58a9.56,9.56,0,0,1-3.82-.76l.41-.92c3.23,1.43,6.81.21,7.85-.21a49.63,49.63,0,0,0-1.4-8.83l1-.26a49.53,49.53,0,0,1,1.45,9.4v.32l-.3.14A12.94,12.94,0,0,1,219.35,122.58Z"/><path class="cls-2" d="M215.39,122a9.12,9.12,0,0,1-4.82-1.57l-.22-.14,0-.26c0-.22-.26-5.42.5-7.92l1,.29c-.62,2-.51,6.23-.47,7.31,2.77,1.66,4.68,1.24,4.7,1.24l.24,1A3.94,3.94,0,0,1,215.39,122Z"/><path class="cls-2" d="M226.13,104.48l-.15-1c2.86-.44,4.68-3.3,4.69-3.33l.15-.23h.28a4.15,4.15,0,0,0,2.3-.62l-2.35.6,2.09-1.53.32-.25-.68-.56c.13-.17.24-.31.33-.44l-.63-.41a7.48,7.48,0,0,1-1.06,1.12l-1.09.91.39-2a6,6,0,0,0-.4,2.19l0,.42-.41.09a20.77,20.77,0,0,0-3.42,2.14l-.59-.81a28.78,28.78,0,0,1,3.41-2.17,6.09,6.09,0,0,1,.58-2.48c0-.09.32-.78.92-.85a1,1,0,0,1,.94.53l0,.05a1.29,1.29,0,0,1,.89-.63.91.91,0,0,1,.83.49l0,.06h.12a.83.83,0,0,1,.66.5.61.61,0,0,1,.06.41.72.72,0,0,1,.36.37.87.87,0,0,1,.14.52,1.43,1.43,0,0,1-.35.81.47.47,0,0,1,.1.1.84.84,0,0,1,0,1,4.42,4.42,0,0,1-3.3,1.42A8.51,8.51,0,0,1,226.13,104.48Z"/><path class="cls-2" d="M208.25,108a17.21,17.21,0,0,1-5.34-1.15l-.13,0c-.14,0-.53-.15-.64-.06s-1.18,1-3.51.2l-.15,0-.09-.12a.83.83,0,0,1-.11-.78c-.5-.22-.56-.45-.56-.67a.59.59,0,0,1,.25-.48c-.37-.32-.39-.57-.32-.79a.58.58,0,0,1,.32-.38.65.65,0,0,1-.14-.63c.17-.63,1.08-.59,1.51-.57h.15l.13.09a1.55,1.55,0,0,0,.39.17c-.34-.49-.22-.75-.16-.87.24-.51.89-.39,1.1-.35a3.22,3.22,0,0,1,2.09,2,15.57,15.57,0,0,0,5.22.41l.15,1a17.24,17.24,0,0,1-5.87-.49l-.26-.07-.09-.25a3,3,0,0,0-.33-.7l-.56.21a2.44,2.44,0,0,1-1.74,0l2.22,1.2-2.25-.23,1.3.62-.88.14,2.15.35a2.41,2.41,0,0,1,1,.12l.14,0,.12,0,1.3.21-.61,0a16.37,16.37,0,0,0,4.24.82c1.4,0,2.29-1.87,2.3-1.89l.9.43C211.4,105.68,210.28,108,208.25,108Z"/><path class="cls-2" d="M219.86,128.57l-1.14-6.36,1-.17.9,5a12,12,0,0,1,1.84-.27l.19-5,1,0-.23,5.87-.46,0a8.5,8.5,0,0,0-2.46.4Z"/><path class="cls-2" d="M211.43,127.71a2.33,2.33,0,0,1-1.77-.63l-.21-.23.12-.29a1.5,1.5,0,0,1,1-.82l.55-5.36,1,.1-.62,6.15-.42,0h-.1a5.94,5.94,0,0,0,2.65-.4l.9-4.71,1,.18-1,5.26-.26.1A8.21,8.21,0,0,1,211.43,127.71Z"/><path class="cls-2" d="M221.86,133.15a2.87,2.87,0,0,1-.71-.08,3,3,0,0,1-2-1.7l0-.14c-.13-.77-.5-3.34.58-4.1l.57.82c-.37.26-.39,1.79-.17,3a2,2,0,0,0,1.31,1.12,3.87,3.87,0,0,0,2.6-.66c.65-1.37-.69-3.46-1.28-4.17l.77-.64c.11.13,2.59,3.16,1.32,5.4l-.14.16A5.48,5.48,0,0,1,221.86,133.15Z"/><path class="cls-2" d="M221.51,130.33a1.76,1.76,0,0,1-1.62-1.54l-.09-.49,3.68-.66.05.54a1.92,1.92,0,0,1-.45,1.58,2,2,0,0,1-1.39.56Zm-.43-1.24a.64.64,0,0,0,.58.23,1,1,0,0,0,.7-.25.55.55,0,0,0,.13-.24Z"/><path class="cls-2" d="M211,130.12A4.48,4.48,0,0,1,207,128.4l-.12-.19,0-.21a2.66,2.66,0,0,1,3.11-2l-.15,1a1.66,1.66,0,0,0-1.92,1c1.51,1.85,5.3.85,6.4.51a3.37,3.37,0,0,0-.75-1.59l.75-.65a3.64,3.64,0,0,1,1,2.71l0,.27-.27.1A13.28,13.28,0,0,1,211,130.12Z"/><path class="cls-2" d="M225.16,109.17c-.63,0-1.3,0-2-.07l.08-1c5.91.45,9-1.24,9.9-1.9-3-4.8-1.47-13.38-1.39-13.76l1,.19c0,.09-1.64,9,1.49,13.38l.25.35-.31.3C234,106.78,231.43,109.17,225.16,109.17Z"/><path class="cls-2" d="M208.17,110.64a13.66,13.66,0,0,1-4.07-.71l-1.13-.4,5.05-2.44c1.66-.66,1.85-1.17,1.87-1.31a.43.43,0,0,0-.15-.33l-2.37-.87,1.13-9,1,.12-1,8.17,1.83.69a1.42,1.42,0,0,1,.59,1.29c-.1.8-.91,1.49-2.46,2.1l-2.74,1.33c1.5.35,4,.67,5.27-.53l.68.73A5,5,0,0,1,208.17,110.64Z"/><rect class="cls-2" x="210.07" y="106.42" width="13.07" height="1" transform="translate(91.86 313.78) rotate(-85.18)"/><path class="cls-2" d="M217.51,102.82a5.74,5.74,0,0,1-.82-.06,3.3,3.3,0,0,1-2.71-.71,3.51,3.51,0,0,1-1-2.5l1,0-.5,0,.5,0a2.52,2.52,0,0,0,.68,1.74,2.41,2.41,0,0,0,2,.44l.09,0,.09,0A3.8,3.8,0,0,0,221,99.66l.89.45A4.72,4.72,0,0,1,217.51,102.82Z"/><path class="cls-2" d="M251.35,101.52l-.62-.79a4.58,4.58,0,0,0-1.93-1.39l-.13,0-.28-.29c-7.82-2.07-8.83-8-8.87-8.29A13.91,13.91,0,0,1,241,84.9c1.69-4,6.32-3.53,8.53-2.71a22.37,22.37,0,0,0,10.1,2l.56-.06v.56c0,2.37.48,6.27,2,6.66l0,.1a2.91,2.91,0,0,1,1.82,1,2.54,2.54,0,0,1,.26,2.24,1.81,1.81,0,0,1-.76,1.14,3.4,3.4,0,0,1-2.55.46c-.62.71-2.72,2.65-7.44,3.21a5.69,5.69,0,0,0-1.85,1.08Zm-2.16-3.11a5.07,5.07,0,0,1,1.9,1.25,7.89,7.89,0,0,1,2-1.12l.13,0c5.3-.6,7-3,7-3l.19-.26.31,0a2.82,2.82,0,0,0,2.07-.22.9.9,0,0,0,.39-.56,1.65,1.65,0,0,0-.1-1.45,2.17,2.17,0,0,0-1.41-.67v-.14c-2.19-.8-2.49-5.38-2.53-7a24.09,24.09,0,0,1-10-2c-.21-.07-5.5-2-7.27,2.21a13.31,13.31,0,0,0-1.38,5.33c0,.14,1,5.56,8.26,7.43l.13,0Z"/><path class="cls-2" d="M266.64,92.49l-.88-.48c1.67-3,2.14-5.4,1.35-7a4,4,0,0,0-2.76-1.89l-.48-.06.05-.48a6.32,6.32,0,0,0-1.63-4.37c-2-2.28-5.55-3.53-10.55-3.71-.43,0-9.77-.84-12.24,7.7-.55,1.83-1.5,6.8.74,8l-.46.88c-3.44-1.79-1.33-8.85-1.23-9.14,2.69-9.34,13.15-8.42,13.25-8.42,5.28.2,9.08,1.57,11.26,4.08a7.39,7.39,0,0,1,1.87,4.64A4.76,4.76,0,0,1,268,84.59C269,86.49,268.5,89.15,266.64,92.49Z"/><path class="cls-2" d="M250.26,114.13a8.81,8.81,0,0,1-5.77-2.07l-.24-.19,1.31-6.32c-.83.3-2.13.32-3.95-.88a.76.76,0,0,1-.33-.6c0-.37.19-.73.67-1.11l3.58-3.32a5.75,5.75,0,0,1,4.82-.63l-.38.93a4.82,4.82,0,0,0-3.84.49l-3.53,3.29a1.18,1.18,0,0,0-.25.23c2.51,1.57,3.49.28,3.53.22l1.36-1.86-1.88,9.17c4.53,3.48,10,.47,11.2-.24l-.06-8.31.77.47a4.23,4.23,0,0,0,2.08.33,21.73,21.73,0,0,0,.16-2.2,8.81,8.81,0,0,1-2.86-1,5,5,0,0,0-2.81-1l0-1a5.81,5.81,0,0,1,3.39,1.16,5.83,5.83,0,0,0,2.73.86l.61-.12V101a20.44,20.44,0,0,1-.29,3.31l-.09.32-.33,0a7,7,0,0,1-2.31-.12l.05,7.21-.22.15A14.14,14.14,0,0,1,250.26,114.13Zm-8.11-10.3h0Z"/><path class="cls-2" d="M253.32,122.58a9.52,9.52,0,0,1-3.81-.76l.4-.92c3.24,1.43,6.82.21,7.86-.21a49.18,49.18,0,0,0-1.41-8.83l1-.26a49.53,49.53,0,0,1,1.45,9.4v.32l-.29.14A13.07,13.07,0,0,1,253.32,122.58Z"/><path class="cls-2" d="M249.36,122a9.12,9.12,0,0,1-4.82-1.57l-.22-.14V120c0-.22-.27-5.42.5-7.92l.95.29c-.62,2-.51,6.23-.47,7.31,2.77,1.66,4.68,1.24,4.7,1.24l.24,1A3.84,3.84,0,0,1,249.36,122Z"/><path class="cls-2" d="M260.11,104.48l-.16-1c2.86-.44,4.68-3.3,4.7-3.33l.14-.23h.28a4.09,4.09,0,0,0,2.3-.62l-2.35.6,2.09-1.53c.13-.09.23-.18.32-.25l-.68-.56c.14-.17.25-.31.33-.43l-.63-.42a7,7,0,0,1-1.06,1.12l-1.09.91.4-2a5.7,5.7,0,0,0-.4,2.19v.42l-.41.09a21.21,21.21,0,0,0-3.42,2.14l-.58-.81a28.54,28.54,0,0,1,3.4-2.17,6.09,6.09,0,0,1,.58-2.48c0-.09.32-.78.92-.85a1,1,0,0,1,.95.53l0,.05a1.29,1.29,0,0,1,.9-.63.93.93,0,0,1,.83.49l0,.06h.12a.83.83,0,0,1,.66.5.56.56,0,0,1,.06.41.72.72,0,0,1,.36.37.75.75,0,0,1,.14.52,1.41,1.41,0,0,1-.34.81.94.94,0,0,1,.1.1.85.85,0,0,1,0,1,4.37,4.37,0,0,1-3.3,1.42A8.48,8.48,0,0,1,260.11,104.48Z"/><path class="cls-2" d="M242.22,108a17.27,17.27,0,0,1-5.34-1.15l-.12,0c-.17,0-.54-.14-.65-.06s-1.17,1-3.51.2l-.15,0-.09-.12a.83.83,0,0,1-.11-.78c-.5-.22-.55-.45-.55-.67a.58.58,0,0,1,.24-.48c-.37-.32-.38-.57-.32-.78a.58.58,0,0,1,.32-.39.71.71,0,0,1-.14-.63c.18-.63,1.08-.59,1.52-.57h.15l.12.09a1.52,1.52,0,0,0,.4.17c-.35-.49-.23-.75-.17-.87.24-.51.89-.39,1.1-.35a3.2,3.2,0,0,1,2.09,2,15.6,15.6,0,0,0,5.23.41l.15,1a17.31,17.31,0,0,1-5.88-.49l-.26-.07-.09-.25a3.05,3.05,0,0,0-.32-.7l-.57.21a2.44,2.44,0,0,1-1.74,0l2.23,1.2-2.26-.23,1.31.62-.89.14,2.16.35a2.62,2.62,0,0,1,.94.12l.14,0,.12,0,1.32.21-.63,0a16.4,16.4,0,0,0,4.25.82c1.39,0,2.28-1.87,2.29-1.89l.91.43C245.37,105.68,244.25,108,242.22,108Z"/><path class="cls-2" d="M253.83,128.57l-1.13-6.36,1-.17.9,5a12,12,0,0,1,1.84-.27l.19-5,1,0-.23,5.87-.45,0a8.58,8.58,0,0,0-2.47.4Z"/><path class="cls-2" d="M245.4,127.71a2.31,2.31,0,0,1-1.76-.63l-.21-.23.12-.29a1.51,1.51,0,0,1,.95-.82l.55-5.36,1,.1-.62,6.15-.42,0h-.09a5.92,5.92,0,0,0,2.64-.4l.9-4.71,1,.18-1,5.26-.25.1A8.29,8.29,0,0,1,245.4,127.71Z"/><path class="cls-2" d="M255.83,133.15a2.92,2.92,0,0,1-.71-.08,3,3,0,0,1-2-1.7l-.05-.14c-.14-.77-.51-3.34.57-4.1l.58.82c-.37.26-.39,1.79-.18,3a2,2,0,0,0,1.32,1.12,3.79,3.79,0,0,0,2.59-.66c.66-1.36-.69-3.46-1.28-4.17l.77-.64c.11.13,2.6,3.16,1.33,5.4l-.14.16A5.53,5.53,0,0,1,255.83,133.15Z"/><path class="cls-2" d="M255.49,130.33a1.77,1.77,0,0,1-1.63-1.54l-.08-.49,3.67-.66.05.54a1.92,1.92,0,0,1-.44,1.58,2,2,0,0,1-1.4.56Zm-.43-1.24a.62.62,0,0,0,.57.23,1,1,0,0,0,.7-.25.57.57,0,0,0,.14-.24Z"/><path class="cls-2" d="M245,130.12a4.49,4.49,0,0,1-4-1.72l-.12-.19,0-.21a2.67,2.67,0,0,1,3.11-2l-.15,1a1.64,1.64,0,0,0-1.91,1c1.5,1.85,5.29.85,6.39.51a3.28,3.28,0,0,0-.75-1.59l.76-.65a3.72,3.72,0,0,1,1,2.71l-.06.27-.26.1A13.43,13.43,0,0,1,245,130.12Z"/><path class="cls-2" d="M259.14,109.17c-.64,0-1.3,0-2-.07l.07-1c5.88.44,8.95-1.24,9.9-1.91-3-4.8-1.46-13.37-1.39-13.75l1,.19c0,.09-1.64,9,1.49,13.38l.26.35-.32.3C268,106.78,265.41,109.17,259.14,109.17Z"/><path class="cls-2" d="M242.14,110.64a13.66,13.66,0,0,1-4.07-.71l-1.13-.4,5.05-2.44c1.66-.66,1.85-1.17,1.87-1.31a.43.43,0,0,0-.14-.33l-2.38-.87,1.13-9,1,.12-1,8.17,1.84.69a1.44,1.44,0,0,1,.58,1.29c-.1.8-.9,1.49-2.46,2.1l-2.74,1.33c1.5.35,4,.67,5.27-.53l.69.73A5,5,0,0,1,242.14,110.64Z"/><rect class="cls-2" x="244.04" y="106.42" width="13.07" height="1" transform="translate(122.98 347.63) rotate(-85.18)"/><path class="cls-2" d="M251.48,102.82a5.88,5.88,0,0,1-.82-.06,3.33,3.33,0,0,1-2.71-.7,3.54,3.54,0,0,1-1-2.51l1,0-.5,0,.5,0a2.52,2.52,0,0,0,.68,1.74,2.42,2.42,0,0,0,2,.44l.09,0,.09,0A3.8,3.8,0,0,0,255,99.66l.89.45A4.71,4.71,0,0,1,251.48,102.82Z"/><path class="cls-2" d="M184.36,108.88l-.34-.6-.17.06a.67.67,0,0,1-.84-.24.76.76,0,0,1-.89-.26,5.16,5.16,0,0,1-1.22-3.62.74.74,0,0,1,.55-.73.67.67,0,0,1,.52-.7l.17-.05-.09-.69.43-.1a130.34,130.34,0,0,0,20.86-7.07l.41-.18.35.6.18-.07a.66.66,0,0,1,.82.25h0a.71.71,0,0,1,.85.22,5.09,5.09,0,0,1,1.24,3.72.65.65,0,0,1-.54.66v0a.65.65,0,0,1-.49.67l-.2.06.09.68-.43.11c-2.87.71-5.58,1.48-8.28,2.33l1.87,2.37-1.27.06-.44,0c0,.14-.08.29-.13.44l-.35,1.2-1.59-2v1.41l-.53.31-.44-.26-.31-.22-.14-.12-.14.11-1.23.84v-2.55c-2.6.94-5.18,2-7.88,3.14Zm-.83-5.82a14,14,0,0,0,1.4,4.12c2.51-1.08,5.1-2.09,7.68-3a2.33,2.33,0,0,1-.44-2.63c-.1-.29-.19-.58-.3-.87Q187.7,102,183.53,103.06Zm10.5,2.63h.08v-.84l-.12,0v.86Zm1.76-1.35.75,1a.39.39,0,0,1,.1-.08l-.76-1Zm-3.13.06v0Zm.09-.1Zm1.55-3.13v.33a1,1,0,0,0-1,1,1,1,0,0,0,1,1,.94.94,0,0,0,.73-.3,1,1,0,0,0,.31-.73,1,1,0,0,0-1-1h0Zm1.1-.73a2.34,2.34,0,0,1,1.25,2.36l6.66-1.94,1.16-.31.13,0a16.39,16.39,0,0,0-1.4-4.13c-2.65,1.14-5.37,2.2-8.1,3.17Zm-3.19,1.22h0Zm3.23-1.11Zm-2.3-.31.07.21a2.15,2.15,0,0,1,.7-.24l-.07-.21Z"/><path class="cls-2" d="M200.43,100.44l-.27-.18h0a.61.61,0,0,1-.27-.39.69.69,0,0,1,.11-.5l.1-.17,3-1.19a.66.66,0,0,1,.55,0,.67.67,0,0,1,.35.37.63.63,0,0,1-.4.83Zm3.11-1.52h0Z"/><path class="cls-2" d="M203.71,99.1l-.23-.18h0a.62.62,0,0,1-.26-.43.67.67,0,0,1,.34-.65l.38-.17.5-.2a.64.64,0,1,1,.5,1.17Z"/><path class="cls-2" d="M292.67,131.85V84.07c0-.83,0-.83-.81-.83-.57,0-1.13,0-1.7,0a1.05,1.05,0,0,1-1-1.63q3.63-8.11,7.27-16.24a1,1,0,0,1,1-.65H298q15.14,0,30.26,0a1.22,1.22,0,0,0,1.08-.53c2-2.63,4.13-5.24,6.18-7.88a1.83,1.83,0,0,0,.34-1c0-7,0-14,0-21,0-.15,0-.3,0-.45a.83.83,0,0,1,.88-.83.79.79,0,0,1,.82.83c0,.45,0,.9,0,1.45h12.63c1.18,0,1.6.6,1.18,1.71s-.92,2.43-1.34,3.66a1.74,1.74,0,0,0,0,1,38.44,38.44,0,0,0,1.41,3.75,1.15,1.15,0,0,1-1.16,1.64c-3.41-.05-6.82,0-10.23,0h-2.47v.7c0,2.52,0,5,0,7.58a1.64,1.64,0,0,0,.34.95c2.07,2.67,4.17,5.31,6.24,8a1.06,1.06,0,0,0,1,.44q15.18,0,30.36,0a1.56,1.56,0,0,1,1.67,1.08c2.3,5.22,4.66,10.42,7,15.62a3.44,3.44,0,0,1,.21.53,1,1,0,0,1-1,1.31c-.73,0-1.47,0-2.2,0-.33,0-.5.1-.47.45s0,.46,0,.68v47.49Zm44-74.29-.48.6q-9.63,12.24-19.26,24.48a1.43,1.43,0,0,1-1.27.61c-6.86,0-13.72,0-20.59,0-.72,0-.73,0-.73.74v45.47c0,.77,0,.77.76.77q16.26,0,32.51,0c.59,0,.72-.16.72-.72q0-10,0-20a2.66,2.66,0,0,1,2.95-2.93h10.8a2.65,2.65,0,0,1,3,3v19.85c0,.79,0,.79.8.79h32.35c.82,0,.82,0,.82-.82V84c0-.75,0-.75-.77-.75-6.84,0-13.69,0-20.53,0a1.42,1.42,0,0,1-1.27-.6q-7.83-10-15.7-20Zm-45.59,24,.57,0h23.46a1,1,0,0,0,.84-.45Q321.54,74,327.15,66.9c.1-.14.18-.29.32-.49l-.57,0q-14.26,0-28.55,0a.71.71,0,0,0-.75.51q-3.12,7-6.27,14C291.24,81.09,291.18,81.28,291.09,81.52Zm91.19,0c-.07-.22-.11-.35-.16-.47q-3.19-7.12-6.4-14.27a.67.67,0,0,0-.74-.43H346.47c-.17,0-.34,0-.61,0,.19.25.29.4.41.55,3.69,4.69,7.4,9.38,11.08,14.09a1.19,1.19,0,0,0,1,.5h23.89Zm-44.72,48.62a2.2,2.2,0,0,0,.27,0c1.7,0,3.4,0,5.09,0,.43,0,.44-.23.44-.53q0-10.09,0-20.19c0-.84-.33-1.17-1.16-1.18h-4.63Zm-1.77-21.85h-4.6c-.86,0-1.18.33-1.18,1.22,0,6.71,0,13.42,0,20.13,0,.46.17.56.59.56,1.55,0,3.1,0,4.64,0l.57,0Zm1.79-63h11.93c-.46-1.24-.92-2.41-1.32-3.61a1.78,1.78,0,0,1,0-1.07c.33-1,.75-2,1.12-3.07.07-.17.11-.34.18-.54-.17,0-.26,0-.35,0H338c-.39,0-.46.16-.46.51q0,3.7,0,7.41A3.66,3.66,0,0,0,337.58,45.34Z"/><path class="cls-2" d="M336.69,93.89a10.68,10.68,0,1,1,10.7-10.61A10.68,10.68,0,0,1,336.69,93.89Zm9-10.61a9,9,0,1,0-9.18,8.93A9,9,0,0,0,345.69,83.28Z"/><path class="cls-2" d="M374.68,97.53v5.37c0,.82-.34,1.17-1.17,1.17h-7.8c-.8,0-1.16-.37-1.16-1.19q0-5.4,0-10.8c0-.77.36-1.18,1.12-1.18q4,0,7.92,0c.74,0,1.08.4,1.09,1.14Zm-8.38,4.82a5.13,5.13,0,0,0,.52,0c1.87,0,3.73,0,5.6,0,.49,0,.59-.16.59-.62,0-2.86,0-5.72,0-8.59,0-.18,0-.36,0-.54H366.3Z"/><path class="cls-2" d="M374.68,117.32v5.32c0,.9-.32,1.25-1.21,1.25q-3.87,0-7.74,0a1,1,0,0,1-1.18-1.18q0-5.38,0-10.79c0-.81.36-1.19,1.16-1.19q3.9,0,7.8,0c.82,0,1.16.35,1.17,1.17Zm-8.38-4.88v9.73H373v-9.73Z"/><path class="cls-2" d="M313.05,97.45c0-1.76,0-3.51,0-5.26,0-.94.35-1.3,1.3-1.3,2.52,0,5.05,0,7.57,0,.92,0,1.26.36,1.26,1.28v10.68c0,.88-.34,1.22-1.24,1.22h-7.63c-.95,0-1.26-.34-1.27-1.31Zm1.74-4.81v9.72l.49,0c1.89,0,3.77,0,5.65,0,.49,0,.59-.17.59-.62,0-2.86,0-5.72,0-8.58,0-.18,0-.36,0-.56Z"/><path class="cls-2" d="M360.3,97.5c0,1.78,0,3.55,0,5.32,0,.91-.34,1.25-1.27,1.25H351.4c-.89,0-1.24-.35-1.24-1.23V92.16c0-.9.36-1.27,1.27-1.27q3.82,0,7.63,0c.88,0,1.24.38,1.24,1.25C360.31,93.93,360.3,95.72,360.3,97.5Zm-8.41,4.86.5,0c1.89,0,3.77,0,5.65,0,.5,0,.59-.18.58-.62,0-2.85,0-5.69,0-8.53,0-.2,0-.4,0-.61h-6.69Z"/><path class="cls-2" d="M298.67,97.45V92.19c0-1,.35-1.3,1.3-1.3,2.52,0,5,0,7.57,0,.91,0,1.27.38,1.27,1.27v10.63c0,.93-.33,1.28-1.24,1.28h-7.69c-.85,0-1.2-.35-1.21-1.2Zm1.77-4.82a.85.85,0,0,0-.06.17c0,3.07,0,6.14,0,9.21,0,.35.19.38.47.38h6.25V92.63Z"/><path class="cls-2" d="M298.67,117.3V112c0-.93.33-1.26,1.26-1.26,2.54,0,5.09,0,7.63,0,.91,0,1.25.35,1.25,1.27v10.63c0,.91-.34,1.26-1.26,1.26-2.54,0-5.09,0-7.63,0-.92,0-1.24-.34-1.25-1.28Zm8.41-4.86-.5,0c-1.88,0-3.76,0-5.65,0-.49,0-.58.18-.58.62,0,2.86,0,5.72,0,8.59,0,.18,0,.36,0,.56h6.69Z"/><path class="cls-2" d="M350.16,117.28V112c0-.89.34-1.23,1.23-1.23,2.56,0,5.13,0,7.69,0,.88,0,1.22.35,1.22,1.24q0,5.34,0,10.68c0,.88-.34,1.24-1.23,1.24q-3.84,0-7.68,0c-.88,0-1.22-.36-1.23-1.24Zm8.46,0c0-1.47,0-2.94,0-4.41,0-.38-.11-.52-.51-.52q-2.88,0-5.76,0c-.42,0-.51.16-.51.53q0,4.38,0,8.76c0,.38.12.52.52.52q2.88,0,5.76,0c.41,0,.51-.15.5-.53C358.61,120.23,358.62,118.78,358.62,117.33Z"/><path class="cls-2" d="M323.19,117.36v5.31c0,.85-.34,1.22-1.19,1.22q-3.87,0-7.74,0c-.85,0-1.2-.37-1.2-1.21q0-5.37,0-10.74c0-.85.35-1.21,1.19-1.21q3.87,0,7.74,0c.86,0,1.2.35,1.2,1.2Zm-1.72-4.92h-6.68v9.73h6.68Z"/><path class="cls-2" d="M337.54,82.37H340a2.6,2.6,0,0,1,.56,0,.78.78,0,0,1,.68.89.73.73,0,0,1-.75.76c-1.23,0-2.45,0-3.68,0a1,1,0,0,1-.94-1q0-2.17,0-4.35a.81.81,0,0,1,.89-.88c.5,0,.81.35.81,1,0,1,0,2,0,2.94Z"/><path class="cls-1" d="M43.11,88.94a9.67,9.67,0,0,1-3.8,8.92s-5.13,5.35-13.22.68c0,0-9.79,5.35-14.92-1.82A10.94,10.94,0,0,1,8.9,86S3.54,82.14,4.34,75.76c0,0,.57-11.05,11.28-9.45,0,0,2.05-8.43,10.59-8.09,0,0,8.08.34,9.79,8.2,0,0,10-.34,11.39,10.14,0,0,1,8.77-4.78,9.68a12.49,12.49,0,0,1,.5,2.7"/><path class="cls-2" d="M32.55,100.94a13.26,13.26,0,0,1-6.47-1.83c-1.61.78-10.46,4.69-15.31-2.1A11.29,11.29,0,0,1,8.32,86.19c-1.15-.93-5.2-4.69-4.48-10.49,0-.18.31-5.2,3.85-8.1a9.62,9.62,0,0,1,7.57-1.84c.58-1.78,3.3-8.34,11-8,.08,0,8.22.44,10.17,8.21,2,.08,10.24,1,11.49,10.56,0,.1,1,8.72-4.65,10.13a13.8,13.8,0,0,1,.36,2.28,10.07,10.07,0,0,1-4,9.36h0A10.41,10.41,0,0,1,32.55,100.94ZM26.1,98l.24.14c7.66,4.42,12.56-.55,12.6-.6A9.16,9.16,0,0,0,42.61,89h0a11.34,11.34,0,0,0-.48-2.58L42,85.84l.58-.09c5.27-.83,4.38-9,4.37-9.13C45.6,66.71,36.41,66.9,36,66.92l-.42,0-.09-.41c-1.6-7.4-9.25-7.81-9.32-7.81H25.7c-7.61,0-9.52,7.4-9.6,7.72l-.11.44-.45-.07c-3-.44-5.39.09-7.21,1.57C5.13,71,4.84,75.74,4.84,75.79c-.75,6,4.3,9.78,4.35,9.82l.29.21-.11.34a10.33,10.33,0,0,0,2.16,10.2c4.86,6.8,14.23,1.79,14.33,1.74Z"/><path class="cls-2" d="M26.09,134a.5.5,0,0,1-.5-.5V79.63a.51.51,0,0,1,.5-.5.5.5,0,0,1,.5.5v53.84A.5.5,0,0,1,26.09,134Z"/><polyline class="cls-1" points="19.71 84.08 25.98 90 31.79 84.64"/><path class="cls-2" d="M26,90.68l-6.61-6.24a.5.5,0,1,1,.69-.73L26,89.31l5.47-5a.5.5,0,0,1,.71,0,.5.5,0,0,1,0,.7Z"/><path class="cls-1" d="M660.2,88.94a9.62,9.62,0,0,1-3.8,8.92s-5.13,5.35-13.21.68c0,0-9.8,5.35-14.92-1.82A10.93,10.93,0,0,1,626,86s-5.35-3.87-4.56-10.25c0,0,.57-11.05,11.28-9.45,0,0,2-8.43,10.59-8.09,0,0,8.09.34,9.8,8.2,0,0,10-.34,11.39,10.14,0,0,1,8.77-4.79,9.68a12.49,12.49,0,0,1,.5,2.7"/><path class="cls-2" d="M649.65,100.94a13.29,13.29,0,0,1-6.48-1.83c-1.6.78-10.46,4.69-15.31-2.1a11.29,11.29,0,0,1-2.45-10.82c-1.14-.93-5.2-4.69-4.47-10.49,0-.18.3-5.2,3.84-8.1a9.63,9.63,0,0,1,7.57-1.84c.59-1.78,3.27-8.34,11-8,.09,0,8.23.44,10.17,8.21,2,.08,10.24,1,11.49,10.56,0,.1.95,8.72-4.65,10.13a14.52,14.52,0,0,1,.37,2.28h0a10.08,10.08,0,0,1-4,9.36h0A10.4,10.4,0,0,1,649.65,100.94Zm-6.46-3,.25.14c7.65,4.42,12.55-.55,12.6-.6A9.18,9.18,0,0,0,659.7,89h0a12.46,12.46,0,0,0-.47-2.58l-.19-.56.58-.09c5.27-.83,4.38-9,4.37-9.13-1.29-9.89-10.47-9.72-10.88-9.7h-.41l-.09-.4c-1.61-7.38-9-7.79-9.33-7.81-8-.32-10,7.38-10.09,7.71l-.1.44-.45-.07c-3-.44-5.4.09-7.22,1.57-3.19,2.61-3.48,7.37-3.49,7.42-.75,6,4.3,9.78,4.35,9.82l.3.21-.12.34a10.33,10.33,0,0,0,2.16,10.2c4.87,6.8,14.23,1.79,14.33,1.74Z"/><path class="cls-2" d="M643.19,134a.5.5,0,0,1-.5-.5V79.63a.5.5,0,0,1,.5-.5.51.51,0,0,1,.5.5v53.84A.5.5,0,0,1,643.19,134Z"/><polyline class="cls-1" points="636.81 84.08 643.07 90 648.88 84.64"/><path class="cls-2" d="M643.07,90.68l-6.61-6.24a.5.5,0,0,1,0-.71.49.49,0,0,1,.7,0l5.93,5.6,5.46-5a.5.5,0,1,1,.68.73Z"/><path class="cls-1" d="M74.88,88.94a9.62,9.62,0,0,1-3.8,8.92s-5.12,5.35-13.21.68c0,0-9.79,5.35-14.92-1.82A10.93,10.93,0,0,1,40.67,86s-5.35-3.87-4.55-10.25c0,0,.57-11.05,11.27-9.45,0,0,2-8.43,10.59-8.09,0,0,8.09.34,9.8,8.2,0,0,10-.34,11.39,10.14,0,0,1,8.77-4.78,9.68a12.17,12.17,0,0,1,.49,2.7"/><path class="cls-2" d="M64.33,100.94a13.26,13.26,0,0,1-6.47-1.83c-1.61.78-10.46,4.69-15.32-2.1a11.29,11.29,0,0,1-2.45-10.82C39,85.26,34.9,81.5,35.62,75.7c0-.18.31-5.2,3.85-8.1A9.62,9.62,0,0,1,47,65.76c.58-1.78,3.27-8.34,11-8,.09,0,8.23.44,10.18,8.21,2,.08,10.24,1,11.48,10.56,0,.1,1,8.72-4.65,10.13a13.42,13.42,0,0,1,.37,2.28h0a10.07,10.07,0,0,1-4,9.36h0A10.45,10.45,0,0,1,64.33,100.94Zm-6.45-3,.24.14c7.66,4.42,12.55-.55,12.6-.6A9.15,9.15,0,0,0,74.38,89h0a11.71,11.71,0,0,0-.47-2.58l-.19-.56.59-.09c5.26-.83,4.37-9,4.36-9.13-1.29-9.89-10.48-9.72-10.87-9.7h-.42l-.09-.4c-1.6-7.38-9-7.79-9.33-7.81-8-.32-10,7.38-10.08,7.71l-.11.44-.45-.07c-3-.44-5.4.09-7.21,1.57-3.2,2.61-3.49,7.37-3.49,7.42-.76,6,4.29,9.78,4.35,9.82l.29.21-.11.34a10.3,10.3,0,0,0,2.16,10.2c4.86,6.8,14.23,1.79,14.32,1.74Z"/><path class="cls-2" d="M57.87,134a.5.5,0,0,1-.5-.5V79.63a.5.5,0,0,1,1,0v53.84A.5.5,0,0,1,57.87,134Z"/><polyline class="cls-1" points="51.49 84.08 57.76 90 63.57 84.64"/><path class="cls-2" d="M57.75,90.68l-6.6-6.24a.5.5,0,0,1,.69-.73l5.92,5.6,5.47-5a.48.48,0,0,1,.7,0,.49.49,0,0,1,0,.7Z"/><path class="cls-1" d="M751.36,50.62c0-2.55-1-5.47-2-7.95-.83-2.06-1.8-6.11-4.89-4.89-1.67,3.86,4.12,9.38,2.85,14.26-.73,2.8-4.78,6.38-9,4.49.46-2.33,5.16-.41,5.5-2.86a14.19,14.19,0,0,1-1.59-3.85,5.33,5.33,0,0,0-1.71-3.64,3.81,3.81,0,0,0-1.59-1.06,6.08,6.08,0,0,0-1.55-.36h-.06l-.53,0h0l-.48,0h-.09a4.78,4.78,0,0,0-.93.18L735,45l-.1,0a5.43,5.43,0,0,0-2.75,2.19,8.24,8.24,0,0,0-1.37,5c-.07,1.09-.85.54-.82,1.42.58,2,4.44.73,4.9,2.86-.49.47-1.83.07-2.65.2-1.38-2-4.77-3.41-5.1-6.11-.23-1.93,1.35-4.59,2.24-6.32.81-1.57,3.09-4.27,2.45-5.71a2.22,2.22,0,0,0-3.06-.61c-2.25,2-6.36,10.06-5.5,14.06.34,1.59,2.17,3.31,3.46,4.69.92,1,3.51,3,3.88,4.28s-.14,2.75-.21,4.28.16,3.37,0,4.69c-.73,6.08-4,13-4.48,17.94H732c1,5.38-.24,9.27-1.22,14.06-.82,4-3.44,10.94,1.22,10.6,2.89-.22,3.24-6.09,3.87-9.18,1.2-5.8,2.22-10.23,1.43-15.48h2.45c1.32,7.07-.48,15.44.2,23.43,6.44,4.38,5-5.95,5.3-13.24a50.55,50.55,0,0,0-.2-10.19c.68-.13,1.89.26,2.24-.21-1.88-8.54-4.94-16-3.67-26.7C746.87,58.86,751.34,56.27,751.36,50.62Z"/><path class="cls-2" d="M731.68,113.08a2.65,2.65,0,0,1-2.14-.87c-1.38-1.64-.51-5.15.26-8.24.19-.74.36-1.46.5-2.09s.31-1.46.46-2.16c.84-3.78,1.56-7,.83-11.31h-6.25l.06-.54a44,44,0,0,1,2.09-8.42,55.16,55.16,0,0,0,2.39-9.53,16.53,16.53,0,0,0,0-2.46c0-.72,0-1.47,0-2.19,0-.56.09-1.11.16-1.64a6.82,6.82,0,0,0,.06-2.49c-.22-.81-1.62-2.08-2.64-3-.45-.41-.85-.78-1.12-1.06l-.58-.62c-1.26-1.32-2.69-2.81-3-4.3-.91-4.27,3.29-12.48,5.67-14.54a2.33,2.33,0,0,1,2.08-.44,2.5,2.5,0,0,1,1.75,1.22c.58,1.31-.59,3.15-1.63,4.77-.32.5-.63,1-.83,1.37l-.34.65c-.86,1.62-2,3.83-1.85,5.38a4.86,4.86,0,0,0,1.88,2.89,1,1,0,0,1,.59-.83c.15-.08.2-.11.22-.4A8.69,8.69,0,0,1,731.74,47a6,6,0,0,1,3-2.38l.11,0,.28-.1a6.24,6.24,0,0,1,1-.19c.28,0,.45,0,.65,0a5.22,5.22,0,0,1,.58,0h.11a6.73,6.73,0,0,1,1.63.38,4.23,4.23,0,0,1,1.78,1.2,5.73,5.73,0,0,1,1.84,3.88l.06.2a12.81,12.81,0,0,0,1.45,3.46l.11.16,0,.19c-.22,1.63-1.88,1.78-3.2,1.9-1.08.1-1.82.2-2.14.62a5.49,5.49,0,0,0,4.22-.28,7,7,0,0,0,3.62-4.06c.59-2.29-.5-4.8-1.56-7.22-1.13-2.57-2.18-5-1.27-7.12l.08-.19.19-.07a3,3,0,0,1,2.35,0c1.53.69,2.27,2.72,2.86,4.34.12.31.22.6.32.85,1.09,2.72,2.09,5.58,2.08,8.14,0,5.61-4.12,8.29-7.41,10.44l-.37.24c-.92,8.1.66,14.26,2.34,20.77.46,1.79.94,3.65,1.35,5.54l.05.22-.14.18c-.38.51-1.1.45-1.75.4l-.32,0a53.32,53.32,0,0,1,.13,9.74c-.06,1.34-.06,2.81-.06,4.23,0,4.72,0,9.17-2.08,10.28-1,.52-2.28.24-3.93-.88l-.19-.13,0-.23a78.53,78.53,0,0,1,.07-10.85,56.64,56.64,0,0,0-.2-12.14h-1.46c.61,4.81-.25,9-1.32,14.17l-.19.92c-.11.54-.21,1.16-.32,1.82-.55,3.36-1.24,7.55-4,7.75Zm-5.24-25.66h6l.08.4c.88,4.66.08,8.28-.76,12.11-.16.7-.32,1.41-.47,2.15s-.31,1.37-.5,2.13c-.68,2.72-1.52,6.11-.46,7.36a1.83,1.83,0,0,0,1.67.51c2-.14,2.63-4.06,3.09-6.91.11-.68.22-1.32.33-1.86l.19-.93c1.1-5.31,2-9.51,1.23-14.39l-.08-.57h3.43l.07.4c.75,4,.52,8.25.29,12.78a81.28,81.28,0,0,0-.1,10.47c1.2.78,2.12,1,2.71.7,1.57-.83,1.57-5.39,1.57-9.41,0-1.43,0-2.91.06-4.28a50.65,50.65,0,0,0-.2-10.09l-.08-.47.47-.09a4.18,4.18,0,0,1,1.06,0c.19,0,.5,0,.71,0-.39-1.74-.83-3.47-1.26-5.14-1.64-6.37-3.33-13-2.33-21.36l0-.22.74-.49c3.1-2,6.94-4.55,7-9.63h0c0-2.39-1-5.14-2-7.76-.11-.26-.22-.56-.33-.88-.53-1.45-1.2-3.26-2.35-3.78a1.87,1.87,0,0,0-1.38,0c-.6,1.7.35,3.85,1.34,6.13,1.13,2.58,2.3,5.25,1.62,7.87a7.93,7.93,0,0,1-4.15,4.7,6.37,6.37,0,0,1-5.5.11l-.36-.16.07-.39c.3-1.51,1.9-1.65,3.19-1.77s2.09-.26,2.28-.88a14.35,14.35,0,0,1-1.46-3.55l-.1-.38a4.8,4.8,0,0,0-1.56-3.3,3.32,3.32,0,0,0-1.41-1,6.24,6.24,0,0,0-1.44-.33,4.89,4.89,0,0,0-1,0,5,5,0,0,0-.93.18l-.2.06-.29-.42.17.46a5,5,0,0,0-2.51,2,7.9,7.9,0,0,0-1.29,4.72,1.32,1.32,0,0,1-.72,1.26l-.09,0v.06c.21.59.91.76,2,1s2.56.46,2.86,1.87l.06.26-.2.19a2.51,2.51,0,0,1-2,.35,4.53,4.53,0,0,0-1,0l-.31.05L731.8,57a11.07,11.07,0,0,0-2.06-2c-1.42-1.19-2.89-2.42-3.12-4.29s1-4.23,2-6l.34-.65c.22-.42.54-.92.88-1.44.81-1.27,1.92-3,1.56-3.83a1.6,1.6,0,0,0-1.06-.66,1.38,1.38,0,0,0-1.22.22c-2.19,1.9-6.15,9.83-5.35,13.58.26,1.22,1.59,2.61,2.75,3.83.21.22.41.42.6.63s.63.61,1,1c1.24,1.12,2.63,2.39,2.93,3.48a7.37,7.37,0,0,1,0,2.88c-.06.51-.13,1-.15,1.55,0,.68,0,1.41,0,2.12a17.22,17.22,0,0,1,0,2.61,56.3,56.3,0,0,1-2.43,9.71A49.61,49.61,0,0,0,726.44,87.42Zm6.18-31.21.7,0a6.58,6.58,0,0,0,.89,0c-.3-.41-1-.56-1.9-.73l-.57-.1a6.32,6.32,0,0,1,.7.78Z"/><path class="cls-1" d="M719.57,47c1.12,1,2.35,3.06,3.26,2.85.39-1.23.59-2.67,1-3.87-1.49-.86-3.35-4.83-5.71-4.69a1.93,1.93,0,0,0-1.83,2.24C716.41,44.86,718.44,45.9,719.57,47Z"/><path class="cls-2" d="M722.69,50.31c-.82,0-1.6-.91-2.42-1.87-.35-.4-.71-.82-1-1.13h0a11,11,0,0,0-1.05-.85c-1.12-.85-2.27-1.73-2.36-2.94a2.63,2.63,0,0,1,.6-2,2.34,2.34,0,0,1,1.69-.79c1.75-.11,3.15,1.58,4.37,3.07a7.7,7.7,0,0,0,1.62,1.68l.35.21-.13.39a16.84,16.84,0,0,0-.55,2c-.14.6-.28,1.23-.47,1.81l-.08.27-.28.06A1,1,0,0,1,722.69,50.31Zm-4.43-8.58h-.09a1.35,1.35,0,0,0-1,.45,1.7,1.7,0,0,0-.36,1.26c.06.77,1.08,1.54,2,2.22.4.3.8.61,1.14.92h0c.37.35.74.78,1.11,1.21a8,8,0,0,0,1.46,1.46c.12-.44.22-.9.33-1.34.13-.6.27-1.22.45-1.8a11.93,11.93,0,0,1-1.55-1.68C720.67,43.17,719.49,41.73,718.26,41.73Z"/><path class="cls-1" d="M746.27,53.47c1.52-2.46.44-6.51-.82-8.56A4.79,4.79,0,0,0,746.27,53.47Z"/><path class="cls-2" d="M746.47,54.08l-.38-.15a5.16,5.16,0,0,1-3.38-4.33,5.43,5.43,0,0,1,2.47-5.1l.43-.28.26.43c1.33,2.17,2.46,6.42.82,9.08Zm-1.17-8.44a4.42,4.42,0,0,0-1.61,3.85,4.2,4.2,0,0,0,2.36,3.35C747.06,50.72,746.28,47.53,745.3,45.64Z"/><path class="cls-1" d="M722.63,51.64c-2.3,1.58-4.93,5-8.56,3.87.39-2.18,2-2,2.85-3.47a5.81,5.81,0,0,0,0-5.5,3.13,3.13,0,0,0-.55-.72,5.5,5.5,0,0,0-4.31-2.08c-2.33,0-4,3.1-4,3.1a5.79,5.79,0,0,0,.44,5.22c.86,1.21,2,1.72,2.09,3.65-.46.56-2.17-.13-2.65.41-1.06-2.81-3.81-5.32-4.48-8.76s.87-7.27.41-11.21c-4.46-4-4.81,6.75-4.48,10.8.4,5,5.08,9.95,6.51,13.45.35,5.51,0,11.12.41,16.92.43,5.59,2.1,11.1,1.63,16.51a56.84,56.84,0,0,1-1.83,8.15c-.83,3.32-3.59,9.71,1,9.58,2.9-.09,3.52-6.13,4.07-8.36.88-3.51,1.91-6.67,2-10.39.18-4.75-1.21-9.68-1.22-13.66h2.24c.94,5.57,2.15,11.28,1.83,18.14-.18,3.95-3,15.64,1.84,15.29,3.15-.24,2.55-5.24,2.85-9.18.23-3,.51-5.79.61-8.15.29-6.3-1.63-11.94-2-17.32-.5-6.54,0-13.65-.62-18.75a39.94,39.94,0,0,0,5.91-4.08C724,53.93,723.33,52.77,722.63,51.64Z"/><path class="cls-2" d="M717.72,113.08a2.52,2.52,0,0,1-1.89-.79c-1.89-2-1.17-7.38-.59-11.7.18-1.35.33-2.51.37-3.32a71,71,0,0,0-1.47-16c-.1-.55-.19-1.1-.29-1.64h-1.32a50.75,50.75,0,0,0,.56,5.24,45.55,45.55,0,0,1,.66,7.93,38.64,38.64,0,0,1-1.56,8.57c-.17.63-.33,1.28-.5,1.93-.09.37-.18.83-.29,1.36-.57,2.9-1.44,7.29-4.25,7.37a2.86,2.86,0,0,1-2.5-1c-1.25-1.62-.32-4.72.49-7.46.19-.63.37-1.23.5-1.75.17-.69.36-1.4.56-2.12a36.12,36.12,0,0,0,1.26-6,41.58,41.58,0,0,0-.81-10.2c-.32-2-.66-4.13-.82-6.22-.24-3.1-.24-6.17-.24-9.14,0-2.66,0-5.17-.16-7.71a31.05,31.05,0,0,0-2.31-4c-1.85-2.89-3.94-6.16-4.22-9.54-.21-2.7-.24-10.69,2.4-12,.85-.43,1.83-.16,2.9.8l.14.12,0,.19a22.83,22.83,0,0,1-.26,5.69,17.55,17.55,0,0,0-.16,5.48,15.08,15.08,0,0,0,2.5,5.18,21.36,21.36,0,0,1,1.76,3,4,4,0,0,1,1.09,0,5.09,5.09,0,0,0,.78,0,3.52,3.52,0,0,0-1.17-2.15,8.54,8.54,0,0,1-.8-.94,6.26,6.26,0,0,1-.51-5.68c.11-.2,1.87-3.42,4.46-3.42a6,6,0,0,1,4.7,2.26,3.67,3.67,0,0,1,.59.8,6.3,6.3,0,0,1,0,6,3.93,3.93,0,0,1-1.42,1.42,2.72,2.72,0,0,0-1.27,1.45c2.37.47,4.31-1.17,6-2.62.57-.48,1.11-.93,1.65-1.3l.43-.29.27.44c.65,1,1.32,2.18,2,3.48l.21.37-.61.48a39.51,39.51,0,0,1-5.41,3.74,88.14,88.14,0,0,1,.33,9.25c0,3,0,6.17.25,9.19a62.76,62.76,0,0,0,.92,6.33,48.7,48.7,0,0,1,1.12,11.06c-.07,1.58-.22,3.37-.38,5.25q-.12,1.41-.24,2.91c0,.75-.08,1.54-.1,2.33-.11,3.48-.22,7.08-3.21,7.3Zm-6.19-34.42h3.16l.07.41c.11.68.23,1.36.35,2.05a71.37,71.37,0,0,1,1.49,16.19c0,.86-.2,2-.38,3.41-.49,3.67-1.24,9.23.33,10.89a1.56,1.56,0,0,0,1.35.47c2-.14,2.18-2.6,2.29-6.34,0-.8,0-1.61.11-2.37.08-1,.16-2,.24-2.92.15-1.88.3-3.65.37-5.22a47.6,47.6,0,0,0-1.1-10.83,64.39,64.39,0,0,1-.94-6.43c-.23-3.06-.24-6.21-.25-9.27a80.73,80.73,0,0,0-.36-9.46l0-.34.3-.16A37.79,37.79,0,0,0,724,55c-.54-1-1-1.82-1.53-2.63-.37.28-.76.6-1.15.94C719.4,54.9,717,56.92,713.92,56l-.42-.13.08-.43a3.54,3.54,0,0,1,1.79-2.53,3.14,3.14,0,0,0,1.12-1.08,5.35,5.35,0,0,0,0-5,3.38,3.38,0,0,0-.47-.62,5,5,0,0,0-4-1.92c-2,0-3.54,2.81-3.56,2.83a5.34,5.34,0,0,0,.41,4.71,10.17,10.17,0,0,0,.72.84,4.41,4.41,0,0,1,1.46,3.07v.19L711,56c-.39.47-1.07.43-1.74.39a2.41,2.41,0,0,0-.92,0l-.54.62-.29-.78A18.21,18.21,0,0,0,705.63,53,15.75,15.75,0,0,1,703,47.45a18,18,0,0,1,.15-5.8,23.54,23.54,0,0,0,.28-5.25c-.68-.57-1.24-.74-1.67-.53-1.7.84-2.17,7.06-1.85,11C700.14,50,702.17,53.2,704,56a30,30,0,0,1,2.41,4.22l0,.16c.16,2.59.16,5.27.17,7.85,0,3,0,6,.23,9.06.16,2,.5,4.13.82,6.15a42.67,42.67,0,0,1,.81,10.44,37.5,37.5,0,0,1-1.29,6.13c-.19.71-.38,1.41-.55,2.1-.13.53-.32,1.14-.51,1.79-.67,2.26-1.6,5.36-.65,6.58a1.85,1.85,0,0,0,1.68.59c2-.06,2.83-4.13,3.31-6.57.11-.55.21-1,.3-1.41.17-.66.34-1.3.51-1.94a37.87,37.87,0,0,0,1.52-8.35,44.82,44.82,0,0,0-.64-7.76,44.49,44.49,0,0,1-.59-5.88Z"/><path class="cls-1" d="M754.57,42.27c0-.33.08-.63.1-.92l0,.1c-.7-3.24-4-1-5.29.2.58,1.25.8,2.86,1.63,3.87C752.07,44.34,753.76,43.75,754.57,42.27Z"/><path class="cls-2" d="M750.93,46.27l-.36-.44a7.75,7.75,0,0,1-1.16-2.52,14.27,14.27,0,0,0-.53-1.45l-.15-.32.26-.25c.27-.26,2.69-2.5,4.58-1.93a2,2,0,0,1,1.12.89l.7-1.36-.23,2.5c0,.3-.06.62-.1,1l-.06.16a6.63,6.63,0,0,1-2.26,2.21,9.13,9.13,0,0,0-1.42,1.15Zm-1-4.49c.16.4.3.81.43,1.22a10.25,10.25,0,0,0,.69,1.76,13.6,13.6,0,0,1,1.14-.86,6,6,0,0,0,1.91-1.79l.06-.52v0c-.15-.7-.43-1.11-.86-1.24C752.46,40.05,751,40.84,749.92,41.78Z"/><path class="cls-1" d="M766.24,34.72c-.88-.87-3-.6-3.46.82-.46,1.58,1,4.09,1.42,5.91,1.27,5,1.42,9.25-1,13-.74-.21-2.37.46-2.45-.41.11-1.5,1.73-1.54,2.45-2.44a6,6,0,0,0,.81-5.51,4.35,4.35,0,0,0-.79-1.27,5.45,5.45,0,0,0-.37-.47l-.1-.12h0a5.5,5.5,0,0,0-4-1.71,5.4,5.4,0,0,0-5.08,3.4,2.3,2.3,0,0,0-.22.58,6,6,0,0,0,1.22,5.3c.8.9,2.77.91,2.86,2.65a5.46,5.46,0,0,1-6.12-1.63c-.3,1.47-1.13,2.4-1.63,3.67a19.7,19.7,0,0,0,2.86,2c.44,6.08.06,12.25.61,18.54.42,4.88,1.82,9.72,1.63,14.47-.11,2.75-1.25,6.39-1.84,9-.68,3-3.82,11.14.82,11,2.63-.08,2.69-3.22,3.26-5.51.33-1.32.92-3,1.22-4.28a57.93,57.93,0,0,0,.41-23.84h2.45c.64,5.13,2,10.93,1.63,17.32-.3,5.29-1.16,10.63-1,15.08.07,2.19,3.51,2.73,4.69,1.43,1.55-1.72,1.1-10.36,1.42-14.67.54-7.2-1.12-13.44-1.63-19.57s-.21-13.09-.61-18.34c1.06-3.37,3.56-6.76,3.67-11.42A28,28,0,0,0,768.08,41C767.69,39.49,767.07,35.53,766.24,34.72Z"/><path class="cls-2" d="M764.58,113a4.27,4.27,0,0,1-1.44-.25,2.64,2.64,0,0,1-1.88-2.35,74.83,74.83,0,0,1,.53-9.12c.19-2,.38-4,.49-6a62.84,62.84,0,0,0-1-13.24c-.19-1.22-.38-2.41-.53-3.57h-1.4a58.73,58.73,0,0,1-.54,23.46c-.16.73-.41,1.55-.66,2.34s-.41,1.35-.56,2c-.1.39-.18.81-.26,1.23-.4,2-.9,4.58-3.47,4.65a2.64,2.64,0,0,1-2.3-.94c-1.45-1.87-.3-6,.54-9,.18-.66.35-1.24.45-1.71.15-.66.34-1.4.54-2.18a35.29,35.29,0,0,0,1.28-6.7,43.14,43.14,0,0,0-.85-8.78c-.3-1.84-.61-3.74-.77-5.62-.3-3.35-.33-6.7-.36-9.93,0-2.76-.05-5.61-.24-8.38l-.26-.17a16.24,16.24,0,0,1-2.46-1.79l-.24-.23.12-.31a12.7,12.7,0,0,1,.71-1.43,7.58,7.58,0,0,0,.9-2.16l.19-.92.65.68a5,5,0,0,0,5.2,1.63c-.17-.53-.65-.79-1.35-1.13a3.85,3.85,0,0,1-1.31-.85,6.53,6.53,0,0,1-1.34-5.73,3.3,3.3,0,0,1,.25-.7,6,6,0,0,1,5.53-3.68,6.05,6.05,0,0,1,4.19,1.68h.05l.29.36c.12.14.26.31.39.48a4.66,4.66,0,0,1,.85,1.41,2,2,0,0,1,.08.26,28.42,28.42,0,0,0-.82-4.67,17.91,17.91,0,0,0-.62-1.82c-.57-1.53-1.17-3.11-.81-4.35A2.35,2.35,0,0,1,764,33.83a2.78,2.78,0,0,1,2.56.54c.68.67,1.14,2.64,1.66,5.15.11.55.22,1,.31,1.4l.23.93a23.31,23.31,0,0,1,1,5.93A20.73,20.73,0,0,1,767.44,56a29.75,29.75,0,0,0-1.31,3.21c.18,2.45.22,5.23.25,8.17,0,3.35.09,6.83.35,10.07.17,2,.45,4,.75,6.08a60,60,0,0,1,.88,13.56c-.09,1.22-.12,2.79-.15,4.46-.09,5.35-.25,9.24-1.4,10.51A2.94,2.94,0,0,1,764.58,113Zm-6.49-35.51h3.49l.06.43c.16,1.28.36,2.6.57,4a63.78,63.78,0,0,1,1.06,13.44c-.11,2-.31,4.07-.5,6a75.18,75.18,0,0,0-.52,9,1.69,1.69,0,0,0,1.23,1.46,2.56,2.56,0,0,0,2.6-.35c1-1.09,1.08-6.17,1.15-9.87,0-1.68.06-3.27.15-4.51a60.1,60.1,0,0,0-.87-13.35c-.31-2.11-.59-4.11-.76-6.14-.27-3.28-.31-6.77-.36-10.14,0-3-.07-5.76-.25-8.2v-.1l0-.09a30.47,30.47,0,0,1,1.38-3.41,19.63,19.63,0,0,0,2.26-7.87,22.26,22.26,0,0,0-1-5.66l-.23-.93c-.1-.37-.2-.88-.32-1.44-.32-1.55-.86-4.13-1.38-4.65h0a1.79,1.79,0,0,0-1.62-.28,1.42,1.42,0,0,0-1,.88c-.27.93.29,2.42.79,3.74.25.68.49,1.32.64,1.91,1.48,5.82,1.15,10-1.08,13.44l-.2.31-.35-.1a2.53,2.53,0,0,0-.86,0,2.21,2.21,0,0,1-1.61-.21.92.92,0,0,1-.33-.65A2.55,2.55,0,0,1,761.9,52a3,3,0,0,0,.9-.64,5.48,5.48,0,0,0,.73-5,3.7,3.7,0,0,0-.7-1.12,4.71,4.71,0,0,0-.36-.45l-.11-.11a5,5,0,0,0-3.66-1.56,4.94,4.94,0,0,0-4.62,3.09,2.17,2.17,0,0,0-.2.51A5.57,5.57,0,0,0,755,51.51a3.17,3.17,0,0,0,1,.62c.85.41,1.91.92,2,2.34l0,.37-.36.12a5.77,5.77,0,0,1-6-1.18,11.59,11.59,0,0,1-.78,1.62c-.18.33-.36.66-.51,1a17,17,0,0,0,2,1.45l.68.44,0,.24c.21,2.88.24,5.83.26,8.69,0,3.21.06,6.54.35,9.85.16,1.85.47,3.73.77,5.55a45.31,45.31,0,0,1,.86,9A36.72,36.72,0,0,1,754,98.51c-.2.76-.38,1.49-.53,2.15-.11.48-.28,1.08-.47,1.76-.7,2.47-1.86,6.61-.71,8.08a1.71,1.71,0,0,0,1.49.56c1.66,0,2.08-1.55,2.53-3.85.09-.43.17-.87.27-1.27.16-.63.37-1.32.58-2s.48-1.57.64-2.27A57.56,57.56,0,0,0,758.22,78ZM761.24,54a3.59,3.59,0,0,0,.85,0,4.84,4.84,0,0,1,.85,0,11.49,11.49,0,0,0,1.29-3.09,5,5,0,0,1-.66,1.07,3.79,3.79,0,0,1-1.19.9C761.71,53.2,761.32,53.45,761.24,54Z"/><line class="cls-1" x1="706.29" y1="76.64" x2="719.3" y2="76.34"/><rect class="cls-2" x="706.29" y="75.99" width="13" height="0.99" transform="translate(-1.49 15.51) rotate(-1.25)"/><line class="cls-1" x1="705.6" y1="52.21" x2="702.36" y2="54.67"/><rect class="cls-2" x="701.94" y="52.95" width="4.08" height="0.99" transform="translate(110.99 436.6) rotate(-37.21)"/><line class="cls-1" x1="719.98" y1="53.98" x2="721.66" y2="57.33"/><rect class="cls-2" x="720.33" y="53.79" width="0.99" height="3.74" transform="translate(51.21 328.24) rotate(-26.57)"/><path class="cls-1" d="M710.6,55.71c0,.24,1.68,4.38,3.47-.2"/><path class="cls-2" d="M712.3,58.15h-.18c-1.3-.17-2-2.21-2-2.37l1-.11-.49.05.49-.09c.08.32.68,1.51,1.19,1.54h0c.29,0,.79-.48,1.32-1.83l.92.36C714.28,56.31,713.57,58.15,712.3,58.15Z"/><path class="cls-1" d="M707.63,49.06c.29-.74,1.77.89,1.77.89l.37-2.44a4.07,4.07,0,0,0,4-.3c2.16-1.33,2.83.22,2.83.22l.74-.15"/><path class="cls-2" d="M709.73,51l-.7-.76a3.46,3.46,0,0,0-1.14-.92.24.24,0,0,0,.19-.12l-.91-.36a.76.76,0,0,1,.58-.5,1.83,1.83,0,0,1,1.3.55l.34-2.21.62.36a3.58,3.58,0,0,0,3.49-.29,2.94,2.94,0,0,1,2.43-.52,1.91,1.91,0,0,1,.89.61l.41-.08.19,1-1.13.22-.16-.36a.85.85,0,0,0-.51-.42,2.12,2.12,0,0,0-1.61.42,4.6,4.6,0,0,1-3.85.56Z"/><path class="cls-1" d="M733.77,55.26a5.2,5.2,0,0,1-.59-3.62,3.91,3.91,0,0,1,2.59-2.58c.51-.15,1.55-1.41,1.55-1.41l1.18,1.41s3.62,3.91.67,6.2"/><path class="cls-2" d="M739.47,55.65l-.61-.78a2.26,2.26,0,0,0,1-1.66c.15-1.8-1.66-3.8-1.68-3.82l-.83-1a4,4,0,0,1-1.4,1.12,3.4,3.4,0,0,0-2.25,2.25A4.68,4.68,0,0,0,734.2,55l-.85.51a5.65,5.65,0,0,1-.64-4,4.43,4.43,0,0,1,2.92-2.93,5.52,5.52,0,0,0,1.31-1.24l.38-.46,1.56,1.86c.07.08,2.11,2.31,1.93,4.55A3.26,3.26,0,0,1,739.47,55.65Z"/><path class="cls-1" d="M738.32,56.53s3.82,4.4-2,4.13c-4.88-.23-1.77-4.14-1.77-4.14"/><path class="cls-2" d="M736.86,61.16h-.52c-1.62-.08-2.65-.56-3-1.44-.67-1.46.74-3.29.9-3.5l.77.61c-.33.43-1.13,1.71-.77,2.49.29.63,1.34.81,2.18.85,1.44.07,2.37-.17,2.61-.66.37-.76-.66-2.2-1-2.65l.74-.65c.2.23,1.9,2.26,1.19,3.73C739.48,60.76,738.49,61.16,736.86,61.16Z"/><line class="cls-1" x1="731.21" y1="55.66" x2="728.46" y2="58.32"/><rect class="cls-2" x="727.92" y="56.49" width="3.83" height="0.99" transform="translate(164.91 522.57) rotate(-43.96)"/><line class="cls-1" x1="745.35" y1="55.12" x2="747.42" y2="58.37"/><rect class="cls-2" x="745.89" y="54.81" width="0.99" height="3.85" transform="translate(86.19 409.52) rotate(-32.47)"/><rect class="cls-2" x="732" y="87.42" width="13.04" height="0.99"/><path class="cls-1" d="M757.48,54.49s1.49,4.54,3.26-.41"/><path class="cls-2" d="M759,56.89h0c-1.21,0-1.88-1.87-2-2.24l.94-.31c.24.73.75,1.56,1.07,1.56h0c.06,0,.57-.06,1.25-2l.93.33C760.56,56.05,759.87,56.89,759,56.89Z"/><line class="cls-1" x1="763.69" y1="39.97" x2="767.68" y2="39.16"/><rect class="cls-2" x="763.65" y="39.07" width="4.07" height="0.99" transform="matrix(0.98, -0.2, 0.2, 0.98, 7.5, 153.58)"/><polyline class="cls-1" points="753.05 74.84 759.26 75.21 766.05 74.54"/><polygon class="cls-2" points="759.31 75.7 753.02 75.33 753.08 74.34 759.29 74.72 766.01 74.05 766.1 75.03 759.31 75.7"/><rect class="cls-1" x="691.9" y="112.81" width="88.54" height="18.83"/><path class="cls-2" d="M780.84,132H691.49V112.4h89.35Zm-88.54-.8H780v-18H692.3Z"/><path class="cls-2" d="M458.89,41.72a3.34,3.34,0,0,1-3.33-3.34v-15a3.34,3.34,0,0,1,3.34-3.33h15a3.33,3.33,0,0,1,3.33,3.33v15a3.33,3.33,0,0,1-3.33,3.33Zm15-20.67h-15a2.34,2.34,0,0,0-2.34,2.33v15a2.33,2.33,0,0,0,2.33,2.34h15a2.34,2.34,0,0,0,2.33-2.33v-15a2.33,2.33,0,0,0-.69-1.65A2.3,2.3,0,0,0,473.89,21.05Z"/><polygon class="cls-2" points="439.89 46.05 439.89 32.63 455.35 32.63 455.35 33.63 440.89 33.63 440.89 45.05 491.56 45.04 491.55 34.04 476.72 34.05 476.72 33.05 492.55 33.04 492.56 46.04 439.89 46.05"/><path class="cls-2" d="M437.39,53.39V45.06l58,0v8.33Zm1-7.33v6.33l56,0V46Z"/><path class="cls-2" d="M409.58,130.73v-6.67l112.5,0v6.67Zm1-5.67v4.67l110.5,0V125Z"/><path class="cls-2" d="M439.91,124.89l0-72.5,52.84,0v72.5Zm1-71.5,0,70.5,50.83,0V53.37Z"/><path class="cls-2" d="M415.73,80.06v-7.5h25.34v7.5Zm1-6.5v5.5h23.34v-5.5Z"/><path class="cls-2" d="M418.91,125.06V79.23h22.17v45.83Zm1-44.83v43.83h20.17V80.22Z"/><path class="cls-2" d="M415.73,80.06v-7.5h25.34v7.5Zm1-6.5v5.5h23.34v-5.5Z"/><path class="cls-2" d="M418.91,125.06V79.23h22.17v45.83Zm1-44.83v43.83h20.17V80.22Z"/><path class="cls-2" d="M491.9,80v-7.5h25.33V80Zm1-6.5V79h23.33v-5.5Z"/><path class="cls-2" d="M491.91,125V79.21h22.17V125Zm1-44.83V124h20.17V80.2Z"/><rect class="cls-2" x="465.39" y="24.8" width="1" height="11.5"/><rect class="cls-2" x="460.39" y="30.05" width="11" height="1"/><path class="cls-2" d="M445.65,79.55V64.05H456.4v15.5Zm1-14.5v13.5h8.75V65.05Z"/><path class="cls-2" d="M460.9,79.55V64.05h10.75v15.5Zm1-14.5v13.5h8.75V65.05Z"/><path class="cls-2" d="M475.9,79.54V64h10.75v15.5Zm1-14.5v13.5h8.75V65Z"/><path class="cls-2" d="M445.66,98.05V82.55H456.4v15.5Zm1-14.5v13.5h8.75V83.55Z"/><path class="cls-2" d="M460.91,98.05V82.55h10.75v15.5Zm1-14.5v13.5h8.75V83.55Z"/><path class="cls-2" d="M455.66,124.3V102.8h10.75v21.5Zm1-20.5v19.5h8.75V103.8Z"/><path class="cls-2" d="M465.66,124.3V102.8h10.75v21.5Zm1-20.5v19.5h8.75v-19.5Z"/><path class="cls-2" d="M475.91,98V82.54h10.75V98Zm1-14.5V97h8.75V83.54Z"/><path class="cls-2" d="M425.9,93.31V84.56h8.75v8.75Zm1-7.75v6.75h6.75V85.56Z"/><path class="cls-2" d="M425.91,105.06V96.31h8.75v8.75Zm1-7.75v6.75h6.75V97.31Z"/><path class="cls-2" d="M425.91,117.06v-8.75h8.75v8.75Zm1-7.75v6.75h6.75v-6.75Z"/><path class="cls-2" d="M498.4,93.29V84.54h8.75v8.75Zm1-7.75v6.75h6.75V85.54Z"/><path class="cls-2" d="M498.41,105V96.29h8.75V105Zm1-7.75V104h6.75V97.29Z"/><path class="cls-2" d="M498.41,117v-8.75h8.75V117Zm1-7.75V116h6.75v-6.75Z"/><path class="cls-2" d="M601.93,78.58H594a2.12,2.12,0,0,1-2.12-2.11V68.58A2.11,2.11,0,0,1,594,66.47h7.89A2.11,2.11,0,0,1,604,68.58v7.89A2.12,2.12,0,0,1,601.93,78.58ZM594,67.47a1.12,1.12,0,0,0-1.12,1.11v7.89A1.12,1.12,0,0,0,594,77.58h7.89A1.11,1.11,0,0,0,603,76.47V68.58a1.11,1.11,0,0,0-1.11-1.11Z"/><path class="cls-2" d="M603.4,74.73h-2.57a.5.5,0,0,1-.5-.5V71.81a.35.35,0,0,0-.12-.29,2.7,2.7,0,0,0-1.63-.35h-6a.5.5,0,0,1,0-1h6a3.61,3.61,0,0,1,2.35.62,1.38,1.38,0,0,1,.43,1v1.92h2.07a.5.5,0,0,1,.5.5A.5.5,0,0,1,603.4,74.73Z"/><path class="cls-2" d="M586.87,99.82a.49.49,0,0,1-.38-.18l-2.85-3.27a.51.51,0,0,1,0-.63l10-13.27a4.77,4.77,0,1,1,6.92,5.65L587.2,99.69A.5.5,0,0,1,586.87,99.82ZM584.66,96l2.26,2.59,13-11.3a3.85,3.85,0,0,0,2-3.31,3.78,3.78,0,0,0-7.38-1.14.51.51,0,0,1-.07.15Z"/><path class="cls-2" d="M602.4,107.65h-9.69a.5.5,0,0,1-.5-.5V94.76a.5.5,0,1,1,1,0v11.89h8.69V84a.5.5,0,0,1,1,0v23.15A.5.5,0,0,1,602.4,107.65Z"/><path class="cls-2" d="M593,127a.51.51,0,0,1-.2,0L587,124.43a.5.5,0,0,1-.27-.62L592.24,107a.49.49,0,0,1,.63-.32.51.51,0,0,1,.32.63l-5.42,16.38,5,2.19,3.88-8a.62.62,0,0,1,.1-.22L602,106.93a.49.49,0,0,1,.47-.28.51.51,0,0,1,.45.33l6.27,16.81a.51.51,0,0,1-.3.65l-5.7,2a.5.5,0,0,1-.57-.18l-5.34-7.3-3.78,7.79A.51.51,0,0,1,593,127Zm4.73-9.09,5.44,7.43,4.87-1.7-5.69-15.25Z"/><path class="cls-2" d="M600.26,130.31a.49.49,0,0,1-.48-.62c0-.15,1-3.56,3-4.2a.49.49,0,0,1,.63.33.5.5,0,0,1-.33.62c-1,.32-1.77,1.78-2.15,2.8l8.8-.87a37.41,37.41,0,0,0-1.56-4.2.5.5,0,0,1,.92-.4,32.73,32.73,0,0,1,1.74,5,.47.47,0,0,1-.09.39.48.48,0,0,1-.35.19l-10.12,1Z"/><path class="cls-2" d="M591.86,130.88l-.16,0-9.27-3.14a.48.48,0,0,1-.32-.34.51.51,0,0,1,.1-.46c.1-.11,2.41-2.83,4.82-3.44a.52.52,0,0,1,.61.37.5.5,0,0,1-.37.6,9.58,9.58,0,0,0-3.79,2.57l8.2,2.77a10,10,0,0,0,.82-3.3A.5.5,0,0,1,593,126a.49.49,0,0,1,.45.54c0,.33-.33,3.2-1.28,4.16A.52.52,0,0,1,591.86,130.88Z"/><path class="cls-2" d="M582.81,102.24A3.29,3.29,0,1,1,586.37,99,3.44,3.44,0,0,1,582.81,102.24Zm0-5.56A2.3,2.3,0,1,0,585.37,99,2.44,2.44,0,0,0,582.81,96.68Z"/><path class="cls-2" d="M566,130.7a16,16,0,0,1-8.26-2.33.5.5,0,0,1,.52-.86c6.62,4,15,2.37,18.63-3.65s1.23-14.14-5.35-18.16l-.21-.06a.48.48,0,0,1-.38-.48V98.89a.5.5,0,0,1,.5-.5h5.84a.5.5,0,0,1,.5.5.5.5,0,0,1-.5.5H572v5.39l0,0c7.1,4.3,9.68,13.08,5.75,19.57A13.5,13.5,0,0,1,566,130.7Z"/><path class="cls-2" d="M566.17,93.26a5.51,5.51,0,0,1-5.5-5.13.39.39,0,0,1,0-.14V82.71a.51.51,0,0,1,.5-.5h5.28l.13,0a5.52,5.52,0,0,1-.38,11Zm-4.53-5.39a.29.29,0,0,1,0,.09,4.52,4.52,0,1,0,4.73-4.74h-4.75Z"/><path class="cls-2" d="M567.77,86.49h-6.41a.5.5,0,0,1,0-1h6.41a.5.5,0,0,1,0,1Z"/><path class="cls-2" d="M554.45,128.17h-.13l-8.12-2.07a.47.47,0,0,1-.32-.25.51.51,0,0,1,0-.4c0-.13,1.1-2.91,3.82-3.17v-9.91a3.14,3.14,0,0,1,3.2-3.21h8.77v-1.5H552a.51.51,0,0,1-.36-.15.55.55,0,0,1-.14-.37,4.38,4.38,0,0,1,3.16-4h7v-5.7A3.18,3.18,0,0,1,564.5,94l4.83-.07a.46.46,0,0,1,.36.14.53.53,0,0,1,.15.36v17.81a3.65,3.65,0,0,1-3.84,3.42H555v12a.52.52,0,0,1-.2.4A.47.47,0,0,1,554.45,128.17Zm-7.41-2.9L554,127v-11.9a.5.5,0,0,1,.5-.5H566a2.63,2.63,0,0,0,2.85-2.44v-4.54h-6.2v2a.5.5,0,0,1-.5.5h-9.26a2.15,2.15,0,0,0-2.21,2.21v10.4a.51.51,0,0,1-.15.36.5.5,0,0,1-.36.14A3.56,3.56,0,0,0,547,125.27Zm5.49-18.62h16.31V94.91l-4.27.06a2.17,2.17,0,0,0-2,2.38v6.24a.5.5,0,0,1-.5.5h-7.28A3.21,3.21,0,0,0,552.53,106.65Z"/><path class="cls-2" d="M556.09,107.44a.5.5,0,0,1-.5-.5V103.8a.5.5,0,0,1,.5-.5.51.51,0,0,1,.5.5v3.14A.5.5,0,0,1,556.09,107.44Z"/><path class="cls-2" d="M598.82,101.81h-5.89a.5.5,0,0,1-.5-.5V99.7a.5.5,0,0,1,.5-.5h5.89a.5.5,0,0,1,.5.5v1.61A.5.5,0,0,1,598.82,101.81Zm-5.39-1h4.89v-.61h-4.89Z"/></g></svg>