<svg xmlns="http://www.w3.org/2000/svg" viewBox="0 0 329.25 96.06"><defs><style>.cls-1{fill:#4d4e50;}.cls-2{fill:#0091b2;}.cls-3{fill:#fff;}</style></defs><g id="Economic_Opportunities_Image" data-name="Economic Opportunities Image"><path class="cls-1" d="M5.6,78.83v3.7A2,2,0,0,1,5,84.06a2.26,2.26,0,0,1-1.62.56,2.19,2.19,0,0,1-1.6-.56,2.12,2.12,0,0,1-.56-1.55V78.83h.66v3.73a1.45,1.45,0,0,0,.39,1.09A1.57,1.57,0,0,0,3.43,84a1.5,1.5,0,0,0,1.11-.39,1.43,1.43,0,0,0,.4-1.1V78.83Z"/><path class="cls-1" d="M11.57,84.54h-.76L7.69,79.75h0c0,.56.06,1.08.06,1.55v3.24H7.11V78.83h.75L11,83.6h0c0-.07,0-.29,0-.67s0-.66,0-.82V78.83h.62Z"/><path class="cls-1" d="M15.65,81.55h2v2.78a7.39,7.39,0,0,1-.93.22,6.91,6.91,0,0,1-1.08.07,2.64,2.64,0,0,1-2-.77,3.06,3.06,0,0,1-.72-2.16,3.21,3.21,0,0,1,.35-1.56,2.44,2.44,0,0,1,1-1,3.41,3.41,0,0,1,1.58-.35,4.37,4.37,0,0,1,1.7.33l-.26.59a3.76,3.76,0,0,0-1.49-.33,2.17,2.17,0,0,0-1.63.62,2.43,2.43,0,0,0-.58,1.73,2.48,2.48,0,0,0,.56,1.75,2.18,2.18,0,0,0,1.66.6,5,5,0,0,0,1.16-.14V82.14H15.65Z"/><path class="cls-1" d="M21.41,79.34a1.84,1.84,0,0,0-1.48.63,2.5,2.5,0,0,0-.55,1.72,2.59,2.59,0,0,0,.53,1.73A1.85,1.85,0,0,0,21.4,84a4.91,4.91,0,0,0,1.37-.22v.59a4.22,4.22,0,0,1-1.47.22,2.46,2.46,0,0,1-1.94-.77,3.12,3.12,0,0,1-.69-2.17A3.44,3.44,0,0,1,19,80.13a2.4,2.4,0,0,1,.95-1,2.91,2.91,0,0,1,1.47-.36,3.52,3.52,0,0,1,1.57.33l-.28.57A3,3,0,0,0,21.41,79.34Z"/><path class="cls-1" d="M23.56,82.69V82.1h1.91v.59Z"/><path class="cls-1" d="M29.1,81.55H31v2.78a7.24,7.24,0,0,1-.92.22,7,7,0,0,1-1.09.07,2.67,2.67,0,0,1-2-.77,3.06,3.06,0,0,1-.72-2.16,3.21,3.21,0,0,1,.36-1.56,2.44,2.44,0,0,1,1-1,3.4,3.4,0,0,1,1.57-.35,4.33,4.33,0,0,1,1.7.33l-.25.59a3.8,3.8,0,0,0-1.49-.33,2.14,2.14,0,0,0-1.63.62,2.9,2.9,0,0,0,0,3.48,2.18,2.18,0,0,0,1.66.6,5,5,0,0,0,1.16-.14V82.14H29.1Z"/><path class="cls-1" d="M33.08,82.17v2.37h-.67V78.83H34a2.44,2.44,0,0,1,1.55.4,1.44,1.44,0,0,1,.5,1.21A1.52,1.52,0,0,1,34.88,82l1.56,2.56h-.79l-1.38-2.37Zm0-.57H34a1.62,1.62,0,0,0,1-.28,1,1,0,0,0,.33-.84,1,1,0,0,0-.34-.82,1.85,1.85,0,0,0-1.07-.25h-.86Z"/><path class="cls-1" d="M37.36,84.54V78.83H38v5.71Z"/><path class="cls-1" d="M42.33,82.17v2.37h-.66V78.83h1.56a2.44,2.44,0,0,1,1.55.4,1.45,1.45,0,0,1,.51,1.21A1.53,1.53,0,0,1,44.14,82l1.55,2.56H44.9l-1.38-2.37Zm0-.57h.91a1.6,1.6,0,0,0,1-.28,1,1,0,0,0,.33-.84,1,1,0,0,0-.33-.82,1.89,1.89,0,0,0-1.08-.25h-.86Z"/><path class="cls-1" d="M48.32,84.62a2,2,0,0,1-1.5-.58,2.25,2.25,0,0,1-.54-1.6,2.5,2.5,0,0,1,.5-1.65,1.72,1.72,0,0,1,1.37-.61,1.64,1.64,0,0,1,1.28.53,2,2,0,0,1,.47,1.4v.41H47a1.68,1.68,0,0,0,.38,1.14,1.32,1.32,0,0,0,1,.39,3.3,3.3,0,0,0,1.36-.29v.58a3.84,3.84,0,0,1-.65.22A3.88,3.88,0,0,1,48.32,84.62Zm-.17-3.89a1.08,1.08,0,0,0-.83.33A1.61,1.61,0,0,0,47,82H49.2a1.44,1.44,0,0,0-.27-.94A1,1,0,0,0,48.15,80.73Z"/><path class="cls-1" d="M54.51,80.26v.41l-.8.09a1.21,1.21,0,0,1,.2.36,1.35,1.35,0,0,1,.08.5,1.25,1.25,0,0,1-.43,1,1.72,1.72,0,0,1-1.18.38A2,2,0,0,1,52,83a.63.63,0,0,0-.42.55.28.28,0,0,0,.15.26,1.11,1.11,0,0,0,.49.08H53a1.75,1.75,0,0,1,1.07.29,1,1,0,0,1,.37.86,1.22,1.22,0,0,1-.57,1.08,3,3,0,0,1-1.66.37,2.29,2.29,0,0,1-1.3-.31,1,1,0,0,1-.45-.88,1,1,0,0,1,.25-.68,1.2,1.2,0,0,1,.7-.38.77.77,0,0,1-.28-.23.69.69,0,0,1,0-.78,1.22,1.22,0,0,1,.39-.34A1.14,1.14,0,0,1,51,82.4a1.37,1.37,0,0,1-.21-.75,1.41,1.41,0,0,1,.42-1.09,1.76,1.76,0,0,1,1.2-.38,2.31,2.31,0,0,1,.61.08Zm-3.42,5a.6.6,0,0,0,.29.53,1.64,1.64,0,0,0,.84.18,2.25,2.25,0,0,0,1.21-.25.75.75,0,0,0,.4-.66.53.53,0,0,0-.22-.48,1.64,1.64,0,0,0-.81-.14H52a1,1,0,0,0-.69.21A.76.76,0,0,0,51.09,85.26Zm.35-3.63a.87.87,0,0,0,.26.68,1,1,0,0,0,.7.23.83.83,0,0,0,1-.92.86.86,0,0,0-1-1,1,1,0,0,0-.7.25A1,1,0,0,0,51.44,81.63Z"/><path class="cls-1" d="M55.33,79.1a.45.45,0,0,1,.11-.33.36.36,0,0,1,.27-.1.37.37,0,0,1,.27.11.39.39,0,0,1,.12.32.43.43,0,0,1-.12.33.41.41,0,0,1-.54,0A.47.47,0,0,1,55.33,79.1Zm.7,5.44h-.65V80.26H56Z"/><path class="cls-1" d="M61.1,82.4A2.35,2.35,0,0,1,60.58,84a1.88,1.88,0,0,1-1.46.59,1.94,1.94,0,0,1-1-.27,1.78,1.78,0,0,1-.69-.77,2.73,2.73,0,0,1-.24-1.18,2.35,2.35,0,0,1,.52-1.63,1.87,1.87,0,0,1,1.46-.59,1.79,1.79,0,0,1,1.42.6A2.33,2.33,0,0,1,61.1,82.4Zm-3.26,0a2,2,0,0,0,.33,1.25,1.3,1.3,0,0,0,1.93,0,2,2,0,0,0,.33-1.25,2,2,0,0,0-.33-1.24,1.13,1.13,0,0,0-1-.43,1.12,1.12,0,0,0-1,.42A2,2,0,0,0,57.84,82.4Z"/><path class="cls-1" d="M65.17,84.54V81.77a1.1,1.1,0,0,0-.24-.78,1,1,0,0,0-.74-.26,1.22,1.22,0,0,0-1,.37,1.82,1.82,0,0,0-.31,1.2v2.24h-.65V80.26h.53l.1.59h0a1.33,1.33,0,0,1,.56-.49,1.77,1.77,0,0,1,.8-.18,1.63,1.63,0,0,1,1.17.38,1.56,1.56,0,0,1,.39,1.19v2.79Z"/><path class="cls-1" d="M69.78,84.54l-.13-.61h0a1.76,1.76,0,0,1-.64.55,2,2,0,0,1-.79.14,1.44,1.44,0,0,1-1-.33,1.2,1.2,0,0,1-.36-.93c0-.87.69-1.32,2.07-1.36l.73,0v-.27a1,1,0,0,0-.22-.74.87.87,0,0,0-.69-.24,2.77,2.77,0,0,0-1.21.32l-.2-.49a2.61,2.61,0,0,1,.69-.27,2.89,2.89,0,0,1,.76-.1,1.59,1.59,0,0,1,1.13.34,1.41,1.41,0,0,1,.37,1.09v2.92Zm-1.46-.46a1.32,1.32,0,0,0,1-.33,1.22,1.22,0,0,0,.34-.93v-.38l-.64,0a2.42,2.42,0,0,0-1.12.24.74.74,0,0,0-.34.67.66.66,0,0,0,.21.53A.9.9,0,0,0,68.32,84.08Z"/><path class="cls-1" d="M72.25,84.54H71.6V78.46h.65Z"/><path class="cls-1" d="M4.51,92.62A1.4,1.4,0,0,1,4,93.8a2.37,2.37,0,0,1-1.48.42A3.76,3.76,0,0,1,.92,94v-.64a4.22,4.22,0,0,0,.76.23,3.88,3.88,0,0,0,.82.09,1.71,1.71,0,0,0,1-.25.83.83,0,0,0,.34-.7.89.89,0,0,0-.12-.49,1.08,1.08,0,0,0-.4-.35,5,5,0,0,0-.85-.36,2.75,2.75,0,0,1-1.14-.68,1.48,1.48,0,0,1-.34-1,1.27,1.27,0,0,1,.5-1.05,2,2,0,0,1,1.31-.39,3.78,3.78,0,0,1,1.56.31l-.2.58a3.51,3.51,0,0,0-1.38-.3,1.33,1.33,0,0,0-.82.23.74.74,0,0,0-.3.63,1,1,0,0,0,.11.48,1,1,0,0,0,.37.35,4.3,4.3,0,0,0,.8.35,3,3,0,0,1,1.23.69A1.32,1.32,0,0,1,4.51,92.62Z"/><path class="cls-1" d="M6.19,89.86v2.78a1.1,1.1,0,0,0,.24.78,1,1,0,0,0,.74.26,1.25,1.25,0,0,0,1-.37,1.9,1.9,0,0,0,.31-1.2V89.86h.64v4.28H8.58l-.09-.57h0a1.29,1.29,0,0,1-.55.48,1.92,1.92,0,0,1-.81.17,1.63,1.63,0,0,1-1.17-.37,1.58,1.58,0,0,1-.39-1.19v-2.8Z"/><path class="cls-1" d="M13.25,93a1.1,1.1,0,0,1-.44.93,2.16,2.16,0,0,1-1.25.32A2.72,2.72,0,0,1,10.23,94v-.6a3.94,3.94,0,0,0,.66.25,3.35,3.35,0,0,0,.68.09,1.5,1.5,0,0,0,.78-.17.52.52,0,0,0,.28-.49.55.55,0,0,0-.22-.43,3.26,3.26,0,0,0-.85-.42,5.12,5.12,0,0,1-.85-.39,1.19,1.19,0,0,1-.37-.37,1,1,0,0,1-.12-.51,1,1,0,0,1,.42-.82,2,2,0,0,1,1.17-.31,3.55,3.55,0,0,1,1.35.28l-.23.53a3,3,0,0,0-1.17-.26,1.29,1.29,0,0,0-.69.14.45.45,0,0,0-.24.4.48.48,0,0,0,.09.29.84.84,0,0,0,.28.23c.14.07.39.18.75.32a2.62,2.62,0,0,1,1,.56A1,1,0,0,1,13.25,93Z"/><path class="cls-1" d="M15.69,93.69a1.84,1.84,0,0,0,.33,0l.26,0v.49a1.41,1.41,0,0,1-.32.09l-.36,0c-.83,0-1.25-.44-1.25-1.31V90.36h-.61v-.31l.61-.27.28-.91H15v1h1.24v.5H15v2.52a.85.85,0,0,0,.19.6A.63.63,0,0,0,15.69,93.69Z"/><path class="cls-1" d="M19.76,94.14l-.13-.61h0a1.76,1.76,0,0,1-.64.55,2,2,0,0,1-.79.14,1.44,1.44,0,0,1-1-.33,1.2,1.2,0,0,1-.36-.93c0-.87.69-1.32,2.07-1.36l.73,0v-.27a1,1,0,0,0-.22-.74.87.87,0,0,0-.69-.24,2.91,2.91,0,0,0-1.21.32l-.2-.49a2.61,2.61,0,0,1,.69-.27,2.89,2.89,0,0,1,.76-.1,1.59,1.59,0,0,1,1.13.34,1.41,1.41,0,0,1,.37,1.09v2.92Zm-1.46-.45a1.33,1.33,0,0,0,.95-.34,1.23,1.23,0,0,0,.35-.93V92l-.65,0a2.42,2.42,0,0,0-1.12.24.74.74,0,0,0-.34.67.66.66,0,0,0,.21.53A.92.92,0,0,0,18.3,93.69Z"/><path class="cls-1" d="M21.53,88.7a.45.45,0,0,1,.1-.33.45.45,0,0,1,.28-.1.4.4,0,0,1,.27.11.43.43,0,0,1,.11.32.47.47,0,0,1-.11.33.39.39,0,0,1-.27.1.4.4,0,0,1-.28-.1A.47.47,0,0,1,21.53,88.7Zm.7,5.44h-.65V89.86h.65Z"/><path class="cls-1" d="M26.53,94.14V91.37a1.1,1.1,0,0,0-.24-.78,1,1,0,0,0-.74-.26,1.22,1.22,0,0,0-1,.37,1.88,1.88,0,0,0-.31,1.2v2.24H23.6V89.86h.53l.11.59h0a1.28,1.28,0,0,1,.56-.49,1.74,1.74,0,0,1,.8-.18,1.62,1.62,0,0,1,1.16.38,1.56,1.56,0,0,1,.39,1.19v2.79Z"/><path class="cls-1" d="M31.15,94.14,31,93.53h0a1.94,1.94,0,0,1-.64.55,2,2,0,0,1-.8.14,1.45,1.45,0,0,1-1-.33,1.2,1.2,0,0,1-.36-.93c0-.87.69-1.32,2.08-1.36l.72,0v-.27a1.09,1.09,0,0,0-.21-.74.91.91,0,0,0-.7-.24,3,3,0,0,0-1.21.32l-.2-.49a2.68,2.68,0,0,1,.7-.27,2.76,2.76,0,0,1,.75-.1,1.64,1.64,0,0,1,1.14.34,1.45,1.45,0,0,1,.37,1.09v2.92Zm-1.47-.45a1.31,1.31,0,0,0,.95-.34,1.23,1.23,0,0,0,.35-.93V92l-.65,0a2.42,2.42,0,0,0-1.12.24.76.76,0,0,0-.34.67.64.64,0,0,0,.22.53A.89.89,0,0,0,29.68,93.69Z"/><path class="cls-1" d="M35,89.79a1.6,1.6,0,0,1,1.32.58,3.11,3.11,0,0,1,0,3.27,1.61,1.61,0,0,1-1.31.58,1.91,1.91,0,0,1-.76-.15,1.58,1.58,0,0,1-.58-.48h0l-.13.55H33V88.06h.65v1.48c0,.33,0,.63,0,.89h0A1.53,1.53,0,0,1,35,89.79Zm-.09.54a1.16,1.16,0,0,0-1,.38A2.23,2.23,0,0,0,33.61,92a2.15,2.15,0,0,0,.3,1.29,1.14,1.14,0,0,0,1,.39,1,1,0,0,0,.89-.44A2.29,2.29,0,0,0,36.06,92a2.22,2.22,0,0,0-.29-1.25A1.06,1.06,0,0,0,34.86,90.33Z"/><path class="cls-1" d="M37.81,88.7a.45.45,0,0,1,.11-.33.41.41,0,0,1,.27-.1.37.37,0,0,1,.27.11.39.39,0,0,1,.12.32.43.43,0,0,1-.12.33.41.41,0,0,1-.54,0A.47.47,0,0,1,37.81,88.7Zm.7,5.44h-.65V89.86h.65Z"/><path class="cls-1" d="M40.54,94.14h-.65V88.06h.65Z"/><path class="cls-1" d="M41.86,88.7a.41.41,0,0,1,.11-.33.4.4,0,0,1,.54,0,.39.39,0,0,1,.11.32.43.43,0,0,1-.11.33.39.39,0,0,1-.27.1A.36.36,0,0,1,42,89,.43.43,0,0,1,41.86,88.7Zm.7,5.44h-.65V89.86h.65Z"/><path class="cls-1" d="M45.32,93.69a1.84,1.84,0,0,0,.33,0l.25,0v.49a1.17,1.17,0,0,1-.31.09l-.37,0c-.82,0-1.24-.44-1.24-1.31V90.36h-.61v-.31l.61-.27.28-.91h.37v1h1.24v.5H44.63v2.52a.9.9,0,0,0,.18.6A.66.66,0,0,0,45.32,93.69Z"/><path class="cls-1" d="M46.08,89.86h.7l.93,2.44a9,9,0,0,1,.39,1.21h0c0-.13.1-.36.21-.68s.46-1.31,1.06-3h.7l-1.84,4.88a2.52,2.52,0,0,1-.64,1,1.4,1.4,0,0,1-.9.3,3,3,0,0,1-.59-.06v-.52a2.45,2.45,0,0,0,.48,0,1,1,0,0,0,1-.75l.24-.6Z"/><path class="cls-1" d="M56.19,92.62a1.4,1.4,0,0,1-.55,1.18,2.37,2.37,0,0,1-1.48.42A3.76,3.76,0,0,1,52.6,94v-.64a4.22,4.22,0,0,0,.76.23,3.88,3.88,0,0,0,.82.09,1.71,1.71,0,0,0,1-.25.83.83,0,0,0,.34-.7.89.89,0,0,0-.12-.49,1.08,1.08,0,0,0-.4-.35,5,5,0,0,0-.85-.36A2.75,2.75,0,0,1,53,90.81a1.48,1.48,0,0,1-.34-1,1.27,1.27,0,0,1,.5-1.05,2,2,0,0,1,1.31-.39,3.78,3.78,0,0,1,1.56.31l-.2.58a3.51,3.51,0,0,0-1.38-.3,1.33,1.33,0,0,0-.82.23.74.74,0,0,0-.3.63,1,1,0,0,0,.11.48,1,1,0,0,0,.37.35,4.46,4.46,0,0,0,.79.35,3,3,0,0,1,1.24.69A1.32,1.32,0,0,1,56.19,92.62Z"/><path class="cls-1" d="M57.87,89.86v2.78a1.1,1.1,0,0,0,.24.78,1,1,0,0,0,.74.26,1.25,1.25,0,0,0,1-.37,1.9,1.9,0,0,0,.31-1.2V89.86h.64v4.28h-.53l-.09-.57h0a1.29,1.29,0,0,1-.55.48,1.92,1.92,0,0,1-.81.17,1.63,1.63,0,0,1-1.17-.37,1.58,1.58,0,0,1-.39-1.19v-2.8Z"/><path class="cls-1" d="M67.63,94.14V91.36a1.2,1.2,0,0,0-.22-.77.85.85,0,0,0-.68-.26,1.12,1.12,0,0,0-.9.35,1.67,1.67,0,0,0-.29,1.07v2.39H64.9V91.36a1.2,1.2,0,0,0-.22-.77.88.88,0,0,0-.69-.26,1,1,0,0,0-.89.37,2,2,0,0,0-.28,1.2v2.24h-.65V89.86h.53l.1.59h0a1.36,1.36,0,0,1,.52-.49,1.54,1.54,0,0,1,.75-.18,1.26,1.26,0,0,1,1.31.73h0A1.36,1.36,0,0,1,66,90a1.73,1.73,0,0,1,.83-.2,1.43,1.43,0,0,1,1.08.38,1.64,1.64,0,0,1,.37,1.19v2.79Z"/><path class="cls-1" d="M75.07,94.14V91.36a1.14,1.14,0,0,0-.22-.77.85.85,0,0,0-.68-.26,1.1,1.1,0,0,0-.89.35A1.61,1.61,0,0,0,73,91.75v2.39h-.65V91.36a1.14,1.14,0,0,0-.22-.77.85.85,0,0,0-.68-.26,1.06,1.06,0,0,0-.9.37,2,2,0,0,0-.28,1.2v2.24h-.65V89.86h.53l.1.59h0a1.27,1.27,0,0,1,.51-.49,1.6,1.6,0,0,1,.75-.18,1.26,1.26,0,0,1,1.31.73h0a1.36,1.36,0,0,1,.56-.53,1.73,1.73,0,0,1,.83-.2,1.47,1.47,0,0,1,1.09.38,1.64,1.64,0,0,1,.36,1.19v2.79Z"/><path class="cls-1" d="M77,88.7a.41.41,0,0,1,.11-.33.4.4,0,0,1,.54,0,.39.39,0,0,1,.11.32.43.43,0,0,1-.11.33.39.39,0,0,1-.27.1.36.36,0,0,1-.27-.1A.43.43,0,0,1,77,88.7Zm.7,5.44h-.65V89.86h.65Z"/><path class="cls-1" d="M80.46,93.69a1.84,1.84,0,0,0,.33,0l.25,0v.49a1.17,1.17,0,0,1-.31.09l-.37,0c-.82,0-1.24-.44-1.24-1.31V90.36h-.61v-.31l.61-.27.28-.91h.37v1H81v.5H79.77v2.52a.9.9,0,0,0,.18.6A.66.66,0,0,0,80.46,93.69Z"/><path class="cls-2" d="M6.71,62.9a3.88,3.88,0,0,0-3.09,1.3,5.24,5.24,0,0,0-1.13,3.56,5.31,5.31,0,0,0,1.09,3.59,3.86,3.86,0,0,0,3.11,1.27,10.47,10.47,0,0,0,2.83-.44v1.21a8.92,8.92,0,0,1-3,.46,5.13,5.13,0,0,1-4-1.59A6.55,6.55,0,0,1,1,67.74a7.09,7.09,0,0,1,.68-3.21,5,5,0,0,1,2-2.12,6,6,0,0,1,3-.75,7.28,7.28,0,0,1,3.26.69L9.4,63.53A6.33,6.33,0,0,0,6.71,62.9Z"/><path class="cls-2" d="M19.57,69.23a5,5,0,0,1-1.09,3.4,3.89,3.89,0,0,1-3,1.22,4,4,0,0,1-2.11-.56,3.68,3.68,0,0,1-1.43-1.61,5.5,5.5,0,0,1-.5-2.45,4.92,4.92,0,0,1,1.08-3.38,3.85,3.85,0,0,1,3-1.21,3.74,3.74,0,0,1,3,1.24A4.88,4.88,0,0,1,19.57,69.23Zm-6.77,0a4.26,4.26,0,0,0,.68,2.6,2.38,2.38,0,0,0,2,.89,2.4,2.4,0,0,0,2-.89,5.25,5.25,0,0,0,0-5.17,2.43,2.43,0,0,0-2-.88,2.38,2.38,0,0,0-2,.87A4.23,4.23,0,0,0,12.8,69.23Z"/><path class="cls-2" d="M21.18,69.85V68.62h4v1.23Z"/><path class="cls-2" d="M33.35,73.69V67.94a2.29,2.29,0,0,0-.5-1.62,2,2,0,0,0-1.54-.54,2.56,2.56,0,0,0-2,.76,3.87,3.87,0,0,0-.64,2.5v4.65H27.27V61.07h1.35v3.82A8.66,8.66,0,0,1,28.55,66h.08a2.85,2.85,0,0,1,1.13-1,3.77,3.77,0,0,1,1.68-.36,3.4,3.4,0,0,1,2.44.77,3.28,3.28,0,0,1,.81,2.46v5.8Z"/><path class="cls-2" d="M45.13,69.23a4.93,4.93,0,0,1-1.1,3.4,3.87,3.87,0,0,1-3,1.22,4,4,0,0,1-2.12-.56,3.72,3.72,0,0,1-1.42-1.61A5.5,5.5,0,0,1,37,69.23a4.87,4.87,0,0,1,1.09-3.38,3.83,3.83,0,0,1,3-1.21,3.74,3.74,0,0,1,3,1.24A4.88,4.88,0,0,1,45.13,69.23Zm-6.77,0a4.2,4.2,0,0,0,.68,2.6,2.37,2.37,0,0,0,2,.89,2.4,2.4,0,0,0,2-.89,5.25,5.25,0,0,0,0-5.17,2.43,2.43,0,0,0-2-.88,2.36,2.36,0,0,0-2,.87A4.16,4.16,0,0,0,38.36,69.23Z"/><path class="cls-2" d="M53.22,71.26a2.2,2.2,0,0,1-.93,1.91,4.33,4.33,0,0,1-2.59.68,5.69,5.69,0,0,1-2.76-.56V72a6.32,6.32,0,0,0,1.38.51,5.89,5.89,0,0,0,1.41.19,3.26,3.26,0,0,0,1.62-.34,1.11,1.11,0,0,0,.57-1,1.1,1.1,0,0,0-.45-.88,6.83,6.83,0,0,0-1.76-.87A9.81,9.81,0,0,1,48,68.81a2.41,2.41,0,0,1-.78-.78,2,2,0,0,1-.25-1,2,2,0,0,1,.88-1.71,4.11,4.11,0,0,1,2.42-.63,7.07,7.07,0,0,1,2.81.58l-.48,1.1a6.38,6.38,0,0,0-2.42-.55,2.83,2.83,0,0,0-1.45.3.92.92,0,0,0-.48.82,1,1,0,0,0,.18.61A1.75,1.75,0,0,0,49,68a14.23,14.23,0,0,0,1.55.66,5.73,5.73,0,0,1,2.14,1.15A2.06,2.06,0,0,1,53.22,71.26Z"/><path class="cls-2" d="M58.27,72.74a3.85,3.85,0,0,0,.69-.06,3.43,3.43,0,0,0,.53-.11v1a2.63,2.63,0,0,1-.65.18,5.5,5.5,0,0,1-.76.07c-1.72,0-2.58-.91-2.58-2.72V65.85H54.23V65.2l1.27-.56.57-1.9h.78V64.8h2.57v1H56.85v5.22a1.79,1.79,0,0,0,.38,1.24A1.33,1.33,0,0,0,58.27,72.74Z"/><path class="cls-1" d="M141.42,78.83v3.7a2,2,0,0,1-.59,1.53,2.29,2.29,0,0,1-1.62.56,2.19,2.19,0,0,1-1.6-.56,2.08,2.08,0,0,1-.56-1.55V78.83h.66v3.73a1.45,1.45,0,0,0,.39,1.09,1.55,1.55,0,0,0,1.15.39,1.5,1.5,0,0,0,1.11-.39,1.46,1.46,0,0,0,.39-1.1V78.83Z"/><path class="cls-1" d="M147.39,84.54h-.76l-3.12-4.79h0c0,.56.06,1.08.06,1.55v3.24h-.61V78.83h.75l3.11,4.77h0c0-.07,0-.29,0-.67s0-.66,0-.82V78.83h.62Z"/><path class="cls-1" d="M153.55,81.55h1.94v2.78a7.24,7.24,0,0,1-.92.22,7,7,0,0,1-1.09.07,2.67,2.67,0,0,1-2-.77,3.06,3.06,0,0,1-.72-2.16,3.21,3.21,0,0,1,.36-1.56,2.44,2.44,0,0,1,1-1,3.4,3.4,0,0,1,1.57-.35,4.33,4.33,0,0,1,1.7.33l-.25.59a3.8,3.8,0,0,0-1.49-.33A2.14,2.14,0,0,0,152,80a2.9,2.9,0,0,0,0,3.48,2.18,2.18,0,0,0,1.66.6,5,5,0,0,0,1.16-.14V82.14h-1.28Z"/><path class="cls-1" d="M157.41,84.54h-.65V78.46h.65Z"/><path class="cls-1" d="M162.48,82.4A2.35,2.35,0,0,1,162,84a1.88,1.88,0,0,1-1.46.59,1.94,1.94,0,0,1-1-.27,1.78,1.78,0,0,1-.69-.77,2.73,2.73,0,0,1-.24-1.18,2.35,2.35,0,0,1,.52-1.63,1.87,1.87,0,0,1,1.46-.59,1.79,1.79,0,0,1,1.42.6A2.33,2.33,0,0,1,162.48,82.4Zm-3.26,0a2,2,0,0,0,.33,1.25,1.3,1.3,0,0,0,1.93,0,2,2,0,0,0,.33-1.25,2,2,0,0,0-.33-1.24,1.13,1.13,0,0,0-1-.43,1.12,1.12,0,0,0-1,.42A2,2,0,0,0,159.22,82.4Z"/><path class="cls-1" d="M165.61,80.19a1.58,1.58,0,0,1,1.31.58,2.51,2.51,0,0,1,.47,1.63,2.58,2.58,0,0,1-.47,1.64,1.58,1.58,0,0,1-1.31.58,1.87,1.87,0,0,1-.76-.15,1.5,1.5,0,0,1-.58-.48h-.05l-.14.55h-.46V78.46h.65v1.48c0,.33,0,.63,0,.89h0A1.53,1.53,0,0,1,165.61,80.19Zm-.09.54a1.16,1.16,0,0,0-1,.38,2.23,2.23,0,0,0-.29,1.29,2.15,2.15,0,0,0,.3,1.29,1.13,1.13,0,0,0,1,.39,1,1,0,0,0,.89-.44,2.2,2.2,0,0,0,.3-1.25,2.13,2.13,0,0,0-.3-1.25A1,1,0,0,0,165.52,80.73Z"/><path class="cls-1" d="M171.15,84.54l-.12-.61h0a1.83,1.83,0,0,1-.63.55,2.08,2.08,0,0,1-.8.14,1.44,1.44,0,0,1-1-.33,1.2,1.2,0,0,1-.36-.93c0-.87.69-1.32,2.08-1.36l.72,0v-.27a1.09,1.09,0,0,0-.21-.74.91.91,0,0,0-.7-.24,2.8,2.8,0,0,0-1.21.32l-.2-.49a2.55,2.55,0,0,1,.7-.27,2.76,2.76,0,0,1,.75-.1,1.64,1.64,0,0,1,1.14.34,1.45,1.45,0,0,1,.37,1.09v2.92Zm-1.46-.46a1.32,1.32,0,0,0,.95-.33,1.23,1.23,0,0,0,.35-.93v-.38l-.65,0a2.42,2.42,0,0,0-1.12.24.76.76,0,0,0-.34.67.66.66,0,0,0,.21.53A.93.93,0,0,0,169.69,84.08Z"/><path class="cls-1" d="M173.62,84.54H173V78.46h.65Z"/><path class="cls-1" d="M179.62,79.34a1.86,1.86,0,0,0-1.49.63,2.55,2.55,0,0,0-.55,1.72,2.59,2.59,0,0,0,.53,1.73,1.86,1.86,0,0,0,1.5.61,4.85,4.85,0,0,0,1.36-.22v.59a4.12,4.12,0,0,1-1.46.22,2.49,2.49,0,0,1-1.95-.77,3.12,3.12,0,0,1-.69-2.17,3.44,3.44,0,0,1,.33-1.55,2.37,2.37,0,0,1,1-1,2.85,2.85,0,0,1,1.46-.36,3.49,3.49,0,0,1,1.57.33l-.28.57A2.91,2.91,0,0,0,179.62,79.34Z"/><path class="cls-1" d="M185.82,82.4a2.35,2.35,0,0,1-.53,1.63,1.87,1.87,0,0,1-1.46.59,1.94,1.94,0,0,1-1-.27,1.85,1.85,0,0,1-.69-.77,2.73,2.73,0,0,1-.24-1.18,2.4,2.4,0,0,1,.52-1.63,1.87,1.87,0,0,1,1.46-.59,1.82,1.82,0,0,1,1.43.6A2.38,2.38,0,0,1,185.82,82.4Zm-3.27,0a2,2,0,0,0,.33,1.25,1.3,1.3,0,0,0,1.93,0,2,2,0,0,0,.33-1.25,2,2,0,0,0-.33-1.24,1.13,1.13,0,0,0-1-.43,1.12,1.12,0,0,0-1,.42A2,2,0,0,0,182.55,82.4Z"/><path class="cls-1" d="M192.41,84.54V81.76a1.14,1.14,0,0,0-.22-.77.85.85,0,0,0-.68-.26,1.1,1.1,0,0,0-.89.35,1.61,1.61,0,0,0-.29,1.07v2.39h-.65V81.76a1.14,1.14,0,0,0-.22-.77.85.85,0,0,0-.68-.26,1.06,1.06,0,0,0-.9.37,2,2,0,0,0-.28,1.2v2.24H187V80.26h.53l.1.59h0a1.27,1.27,0,0,1,.51-.49,1.6,1.6,0,0,1,.75-.18,1.26,1.26,0,0,1,1.31.73h0a1.34,1.34,0,0,1,.55-.53,1.73,1.73,0,0,1,.83-.2,1.46,1.46,0,0,1,1.09.38,1.64,1.64,0,0,1,.36,1.19v2.79Z"/><path class="cls-1" d="M196.39,84.62a1.92,1.92,0,0,1-.77-.15A1.58,1.58,0,0,1,195,84h0a4.47,4.47,0,0,1,0,.71v1.76h-.65v-6.2h.53l.09.59h0a1.46,1.46,0,0,1,.58-.51,1.74,1.74,0,0,1,.77-.16,1.61,1.61,0,0,1,1.31.58,2.58,2.58,0,0,1,.46,1.64,2.52,2.52,0,0,1-.47,1.64A1.57,1.57,0,0,1,196.39,84.62Zm-.1-3.89a1.13,1.13,0,0,0-.95.37,1.91,1.91,0,0,0-.3,1.15v.15a2.15,2.15,0,0,0,.3,1.29,1.14,1.14,0,0,0,1,.39,1,1,0,0,0,.87-.45,2.13,2.13,0,0,0,.31-1.24,2.05,2.05,0,0,0-.31-1.23A1.06,1.06,0,0,0,196.29,80.73Z"/><path class="cls-1" d="M201.93,84.54l-.13-.61h0a1.85,1.85,0,0,1-.64.55,2,2,0,0,1-.8.14,1.41,1.41,0,0,1-1-.33,1.2,1.2,0,0,1-.36-.93c0-.87.69-1.32,2.07-1.36l.73,0v-.27a1.09,1.09,0,0,0-.22-.74.9.9,0,0,0-.69-.24,2.84,2.84,0,0,0-1.22.32l-.19-.49a2.61,2.61,0,0,1,.69-.27,2.76,2.76,0,0,1,.75-.1,1.62,1.62,0,0,1,1.14.34,1.41,1.41,0,0,1,.37,1.09v2.92Zm-1.47-.46a1.31,1.31,0,0,0,.95-.33,1.19,1.19,0,0,0,.35-.93v-.38l-.65,0a2.41,2.41,0,0,0-1.11.24.75.75,0,0,0-.35.67.67.67,0,0,0,.22.53A.89.89,0,0,0,200.46,84.08Z"/><path class="cls-1" d="M205.46,84.62a1.83,1.83,0,0,1-1.44-.57,2.35,2.35,0,0,1-.51-1.62,2.44,2.44,0,0,1,.51-1.66,1.88,1.88,0,0,1,1.48-.59,2.68,2.68,0,0,1,.62.07,2.5,2.5,0,0,1,.48.15l-.2.56a2.88,2.88,0,0,0-.47-.15,1.93,1.93,0,0,0-.45,0c-.87,0-1.3.55-1.3,1.66a1.92,1.92,0,0,0,.32,1.21,1.1,1.1,0,0,0,.94.42,2.79,2.79,0,0,0,1.1-.23v.58A2.34,2.34,0,0,1,205.46,84.62Z"/><path class="cls-1" d="M208.94,84.08a1.83,1.83,0,0,0,.33,0l.25,0v.49a1.17,1.17,0,0,1-.31.09l-.37,0c-.83,0-1.24-.44-1.24-1.31V80.76H207v-.31l.61-.27.27-.91h.38v1h1.24v.5h-1.24v2.52a.9.9,0,0,0,.18.6A.64.64,0,0,0,208.94,84.08Z"/><path class="cls-2" d="M144.14,70.53A2.9,2.9,0,0,1,143,73a4.88,4.88,0,0,1-3.08.88,7.59,7.59,0,0,1-3.24-.55V72a9,9,0,0,0,1.59.48,8.26,8.26,0,0,0,1.7.18,3.4,3.4,0,0,0,2.07-.52,1.72,1.72,0,0,0,.7-1.46,1.82,1.82,0,0,0-.25-1,2.28,2.28,0,0,0-.82-.72,11.79,11.79,0,0,0-1.77-.76,5.63,5.63,0,0,1-2.36-1.4,3.09,3.09,0,0,1-.71-2.11,2.64,2.64,0,0,1,1-2.18,4.31,4.31,0,0,1,2.73-.82,8.1,8.1,0,0,1,3.25.65l-.43,1.2a7.36,7.36,0,0,0-2.86-.61,2.72,2.72,0,0,0-1.71.47,1.53,1.53,0,0,0-.61,1.3,2,2,0,0,0,.22,1,2.25,2.25,0,0,0,.77.72,9.83,9.83,0,0,0,1.65.73,6.66,6.66,0,0,1,2.57,1.42A2.85,2.85,0,0,1,144.14,70.53Z"/><path class="cls-2" d="M146.24,62.39a.89.89,0,0,1,.23-.67.77.77,0,0,1,.57-.22.79.79,0,0,1,.56.22.91.91,0,0,1,.23.67.92.92,0,0,1-.23.68.79.79,0,0,1-.56.22.77.77,0,0,1-.57-.22A.92.92,0,0,1,146.24,62.39Zm1.46,11.3h-1.34V64.8h1.34Z"/><path class="cls-2" d="M157.83,64.8v.85l-1.65.2a2.82,2.82,0,0,1,.41.74,3,3,0,0,1,.17,1,2.62,2.62,0,0,1-.89,2.09,3.63,3.63,0,0,1-2.45.77,4.35,4.35,0,0,1-.74-.06,1.32,1.32,0,0,0-.86,1.14.59.59,0,0,0,.3.54,2.15,2.15,0,0,0,1,.17h1.57a3.58,3.58,0,0,1,2.22.61,2.14,2.14,0,0,1,.77,1.77,2.53,2.53,0,0,1-1.18,2.25,6.39,6.39,0,0,1-3.45.77,4.65,4.65,0,0,1-2.69-.65,2.2,2.2,0,0,1-.43-3.23,2.71,2.71,0,0,1,1.46-.8,1.38,1.38,0,0,1-.57-.48,1.3,1.3,0,0,1-.23-.75,1.48,1.48,0,0,1,.26-.86,2.69,2.69,0,0,1,.82-.7,2.33,2.33,0,0,1-1.12-1,2.81,2.81,0,0,1-.44-1.55,2.87,2.87,0,0,1,.88-2.25,3.55,3.55,0,0,1,2.48-.79,4.41,4.41,0,0,1,1.25.16Zm-7.09,10.38a1.19,1.19,0,0,0,.61,1.09,3.34,3.34,0,0,0,1.74.37,4.84,4.84,0,0,0,2.51-.5,1.57,1.57,0,0,0,.82-1.38,1.09,1.09,0,0,0-.45-1,3.56,3.56,0,0,0-1.68-.28h-1.61a2.14,2.14,0,0,0-1.43.44A1.56,1.56,0,0,0,150.74,75.18Zm.73-7.53a1.82,1.82,0,0,0,.53,1.41,2.1,2.1,0,0,0,1.47.47,1.71,1.71,0,0,0,2-1.91,1.76,1.76,0,0,0-2-2,2,2,0,0,0-1.46.51A2.07,2.07,0,0,0,151.47,67.65Z"/><path class="cls-2" d="M165.73,73.69V67.94a2.29,2.29,0,0,0-.5-1.62,2,2,0,0,0-1.54-.54,2.56,2.56,0,0,0-2.05.76A3.8,3.8,0,0,0,161,69v4.67h-1.35V64.8h1.09L161,66H161a2.69,2.69,0,0,1,1.16-1,3.74,3.74,0,0,1,1.66-.36,3.39,3.39,0,0,1,2.41.77,3.3,3.3,0,0,1,.81,2.48v5.8Z"/><path class="cls-2" d="M175.3,73.69,175,72.42H175a3.72,3.72,0,0,1-1.33,1.13,4,4,0,0,1-1.65.3,3,3,0,0,1-2.07-.68,2.49,2.49,0,0,1-.75-1.94c0-1.79,1.44-2.74,4.31-2.82l1.5,0v-.55a2.28,2.28,0,0,0-.44-1.55,1.86,1.86,0,0,0-1.44-.49,5.82,5.82,0,0,0-2.52.68l-.41-1a6.07,6.07,0,0,1,1.44-.56,6,6,0,0,1,1.57-.2,3.37,3.37,0,0,1,2.35.7,2.94,2.94,0,0,1,.77,2.26v6.07Zm-3-1a2.74,2.74,0,0,0,2-.69,2.57,2.57,0,0,0,.71-1.93v-.8l-1.34.05a5,5,0,0,0-2.32.5,1.52,1.52,0,0,0-.71,1.38,1.39,1.39,0,0,0,.45,1.11A1.83,1.83,0,0,0,172.26,72.74Z"/><path class="cls-2" d="M181.94,72.74a3.85,3.85,0,0,0,.69-.06,3.43,3.43,0,0,0,.53-.11v1a2.63,2.63,0,0,1-.65.18,5.64,5.64,0,0,1-.76.07c-1.72,0-2.58-.91-2.58-2.72V65.85H177.9V65.2l1.27-.56.56-1.9h.78V64.8h2.58v1h-2.58v5.22a1.84,1.84,0,0,0,.38,1.24A1.37,1.37,0,0,0,181.94,72.74Z"/><path class="cls-2" d="M192.6,69.23a4.93,4.93,0,0,1-1.1,3.4,3.84,3.84,0,0,1-3,1.22,4,4,0,0,1-2.11-.56,3.68,3.68,0,0,1-1.43-1.61,5.5,5.5,0,0,1-.5-2.45,4.92,4.92,0,0,1,1.08-3.38,3.85,3.85,0,0,1,3-1.21,3.74,3.74,0,0,1,3,1.24A4.88,4.88,0,0,1,192.6,69.23Zm-6.77,0a4.26,4.26,0,0,0,.68,2.6,2.7,2.7,0,0,0,4,0,5.25,5.25,0,0,0,0-5.17,2.43,2.43,0,0,0-2-.88,2.38,2.38,0,0,0-2,.87A4.23,4.23,0,0,0,185.83,69.23Z"/><path class="cls-2" d="M199,64.64a4.9,4.9,0,0,1,1.06.1L199.89,66a4.73,4.73,0,0,0-1-.12,2.34,2.34,0,0,0-1.84.88,3.19,3.19,0,0,0-.77,2.18v4.77H195V64.8h1.11l.15,1.65h.07a3.82,3.82,0,0,1,1.19-1.34A2.68,2.68,0,0,1,199,64.64Z"/><path class="cls-2" d="M200.32,64.8h1.45l1.94,5.07a20.1,20.1,0,0,1,.8,2.5h.06c.07-.27.22-.75.44-1.41s1-2.72,2.2-6.16h1.45l-3.82,10.12A4.93,4.93,0,0,1,203.51,77a2.79,2.79,0,0,1-1.86.63,5.47,5.47,0,0,1-1.21-.13V76.46a5,5,0,0,0,1,.09,2,2,0,0,0,2-1.55l.5-1.27Z"/><path class="cls-1" d="M256.78,78.83v3.7a2,2,0,0,1-.59,1.53,2.26,2.26,0,0,1-1.62.56,2.17,2.17,0,0,1-1.59-.56,2.08,2.08,0,0,1-.57-1.55V78.83h.67v3.73a1.45,1.45,0,0,0,.39,1.09,1.55,1.55,0,0,0,1.15.39,1.5,1.5,0,0,0,1.11-.39,1.46,1.46,0,0,0,.39-1.1V78.83Z"/><path class="cls-1" d="M262.76,84.54H262l-3.12-4.79h0c0,.56.06,1.08.06,1.55v3.24h-.61V78.83h.75l3.11,4.77h0c0-.07,0-.29,0-.67s0-.66,0-.82V78.83h.62Z"/><path class="cls-1" d="M270,84.54l-.71-1.81H267l-.7,1.81h-.67l2.26-5.73h.56l2.24,5.73Zm-.91-2.41-.67-1.77c-.08-.23-.17-.5-.26-.83a7.47,7.47,0,0,1-.25.83l-.67,1.77Z"/><path class="cls-1" d="M272.13,82.17v2.37h-.66V78.83H273a2.49,2.49,0,0,1,1.56.4,1.47,1.47,0,0,1,.5,1.21A1.52,1.52,0,0,1,273.94,82l1.55,2.56h-.78l-1.39-2.37Zm0-.57H273a1.6,1.6,0,0,0,1-.28,1,1,0,0,0,.33-.84,1,1,0,0,0-.33-.82,1.89,1.89,0,0,0-1.08-.25h-.86Z"/><path class="cls-1" d="M276.41,84.54V78.83h.67v5.71Z"/><path class="cls-1" d="M281.87,83a1.43,1.43,0,0,1-.55,1.18,2.4,2.4,0,0,1-1.49.42,3.82,3.82,0,0,1-1.56-.26v-.64A4.33,4.33,0,0,0,279,84a3.81,3.81,0,0,0,.82.09,1.73,1.73,0,0,0,1-.25.85.85,0,0,0,.33-.71.88.88,0,0,0-.12-.48,1,1,0,0,0-.39-.35,5,5,0,0,0-.85-.36,2.85,2.85,0,0,1-1.14-.68,1.48,1.48,0,0,1-.34-1,1.26,1.26,0,0,1,.49-1,2.06,2.06,0,0,1,1.31-.39,3.86,3.86,0,0,1,1.57.31l-.21.58a3.5,3.5,0,0,0-1.37-.3,1.31,1.31,0,0,0-.82.23.74.74,0,0,0-.3.63,1,1,0,0,0,.11.48.9.9,0,0,0,.37.35,4.15,4.15,0,0,0,.79.35,3.21,3.21,0,0,1,1.24.69A1.36,1.36,0,0,1,281.87,83Z"/><path class="cls-1" d="M286.22,84.54H283V78.83h3.19v.59H283.7v1.84h2.37v.59H283.7V84h2.52Z"/><path class="cls-1" d="M293.18,80.49a1.62,1.62,0,0,1-.59,1.34,2.68,2.68,0,0,1-1.69.47h-.67v2.24h-.67V78.83H291C292.47,78.83,293.18,79.39,293.18,80.49Zm-2.95,1.24h.59a2.22,2.22,0,0,0,1.28-.29,1.06,1.06,0,0,0,.39-.91,1,1,0,0,0-.37-.85A1.94,1.94,0,0,0,291,79.4h-.74Z"/><path class="cls-1" d="M297.21,84.54V81.77A1.1,1.1,0,0,0,297,81a1,1,0,0,0-.74-.26,1.21,1.21,0,0,0-1,.37,1.86,1.86,0,0,0-.31,1.2v2.24h-.65V78.46h.65V80.3a4.11,4.11,0,0,1,0,.55h0a1.27,1.27,0,0,1,.54-.48,1.76,1.76,0,0,1,.81-.18,1.67,1.67,0,0,1,1.18.37,1.59,1.59,0,0,1,.39,1.19v2.79Z"/><path class="cls-1" d="M299.14,79.1a.45.45,0,0,1,.1-.33.41.41,0,0,1,.55,0,.43.43,0,0,1,.11.32.47.47,0,0,1-.11.33.39.39,0,0,1-.27.1.4.4,0,0,1-.28-.1A.47.47,0,0,1,299.14,79.1Zm.7,5.44h-.65V80.26h.65Z"/><path class="cls-1" d="M301.86,84.54h-.65V78.46h.65Z"/><path class="cls-1" d="M303.18,79.1a.45.45,0,0,1,.11-.33.39.39,0,0,1,.28-.1.36.36,0,0,1,.26.11.39.39,0,0,1,.12.32.43.43,0,0,1-.12.33.35.35,0,0,1-.26.1.39.39,0,0,1-.28-.1A.47.47,0,0,1,303.18,79.1Zm.71,5.44h-.65V80.26h.65Z"/><path class="cls-1" d="M307.25,84.62a1.87,1.87,0,0,1-.76-.15,1.58,1.58,0,0,1-.58-.48h-.05a6.07,6.07,0,0,1,.05.71v1.76h-.65v-6.2h.53l.09.59h0a1.4,1.4,0,0,1,.58-.51,1.7,1.7,0,0,1,.76-.16,1.61,1.61,0,0,1,1.32.58,3.12,3.12,0,0,1,0,3.28A1.59,1.59,0,0,1,307.25,84.62Zm-.09-3.89a1.12,1.12,0,0,0-1,.37,1.78,1.78,0,0,0-.3,1.15v.15a2.15,2.15,0,0,0,.3,1.29,1.13,1.13,0,0,0,1,.39,1,1,0,0,0,.87-.45,2.13,2.13,0,0,0,.32-1.24,2,2,0,0,0-.32-1.23A1,1,0,0,0,307.16,80.73Z"/><path class="cls-1" d="M312.15,84.62a1.91,1.91,0,0,1-.76-.15,1.58,1.58,0,0,1-.58-.48h-.05a4.47,4.47,0,0,1,.05.71v1.76h-.65v-6.2h.53l.09.59h0a1.46,1.46,0,0,1,.58-.51,1.7,1.7,0,0,1,.76-.16,1.61,1.61,0,0,1,1.32.58,2.58,2.58,0,0,1,.46,1.64,2.52,2.52,0,0,1-.47,1.64A1.58,1.58,0,0,1,312.15,84.62Zm-.09-3.89a1.13,1.13,0,0,0-.95.37,1.91,1.91,0,0,0-.3,1.15v.15a2.15,2.15,0,0,0,.3,1.29,1.14,1.14,0,0,0,1,.39,1,1,0,0,0,.87-.45,2.2,2.2,0,0,0,.31-1.24,2.12,2.12,0,0,0-.31-1.23A1.06,1.06,0,0,0,312.06,80.73Z"/><path class="cls-1" d="M315,79.1a.45.45,0,0,1,.11-.33.36.36,0,0,1,.27-.1.37.37,0,0,1,.27.11.39.39,0,0,1,.12.32.43.43,0,0,1-.12.33.41.41,0,0,1-.54,0A.47.47,0,0,1,315,79.1Zm.7,5.44h-.64V80.26h.64Z"/><path class="cls-1" d="M320,84.54V81.77a1.1,1.1,0,0,0-.24-.78,1,1,0,0,0-.75-.26,1.21,1.21,0,0,0-1,.37,1.82,1.82,0,0,0-.31,1.2v2.24h-.65V80.26h.53l.1.59h0a1.33,1.33,0,0,1,.56-.49,1.77,1.77,0,0,1,.8-.18,1.63,1.63,0,0,1,1.17.38,1.56,1.56,0,0,1,.39,1.19v2.79Z"/><path class="cls-1" d="M323.81,84.62a1.94,1.94,0,0,1-1.5-.58,2.21,2.21,0,0,1-.55-1.6,2.5,2.5,0,0,1,.51-1.65,1.72,1.72,0,0,1,1.37-.61,1.61,1.61,0,0,1,1.27.53,2,2,0,0,1,.47,1.4v.41h-2.95a1.73,1.73,0,0,0,.38,1.14,1.32,1.32,0,0,0,1,.39,3.34,3.34,0,0,0,1.37-.29v.58a4.16,4.16,0,0,1-.65.22A4,4,0,0,1,323.81,84.62Zm-.18-3.89a1.06,1.06,0,0,0-.82.33,1.48,1.48,0,0,0-.36.93h2.24a1.44,1.44,0,0,0-.28-.94A.94.94,0,0,0,323.63,80.73Z"/><path class="cls-1" d="M329.25,83.37a1.09,1.09,0,0,1-.45.93,2.12,2.12,0,0,1-1.25.32,2.65,2.65,0,0,1-1.32-.27v-.6a3.2,3.2,0,0,0,1.34.33,1.51,1.51,0,0,0,.78-.16.53.53,0,0,0,.27-.49.54.54,0,0,0-.21-.43,3.44,3.44,0,0,0-.85-.42,4.75,4.75,0,0,1-.85-.39,1,1,0,0,1-.37-.38.89.89,0,0,1-.13-.5,1,1,0,0,1,.43-.83,2,2,0,0,1,1.17-.3,3.55,3.55,0,0,1,1.35.28l-.23.53a3,3,0,0,0-1.17-.26,1.27,1.27,0,0,0-.69.14.45.45,0,0,0-.24.4.48.48,0,0,0,.09.29.84.84,0,0,0,.28.23,7.06,7.06,0,0,0,.75.32,2.69,2.69,0,0,1,1,.56A1,1,0,0,1,329.25,83.37Z"/><path class="cls-2" d="M259.5,70.53A2.92,2.92,0,0,1,258.37,73a4.9,4.9,0,0,1-3.08.88,7.53,7.53,0,0,1-3.24-.55V72a8.86,8.86,0,0,0,1.58.48,8.35,8.35,0,0,0,1.71.18,3.42,3.42,0,0,0,2.07-.52,1.72,1.72,0,0,0,.7-1.46,1.82,1.82,0,0,0-.25-1,2.24,2.24,0,0,0-.83-.72,11.14,11.14,0,0,0-1.76-.76,5.57,5.57,0,0,1-2.36-1.4,3.09,3.09,0,0,1-.71-2.11,2.61,2.61,0,0,1,1-2.18,4.26,4.26,0,0,1,2.72-.82,8.06,8.06,0,0,1,3.25.65l-.43,1.2a7.35,7.35,0,0,0-2.85-.61,2.72,2.72,0,0,0-1.71.47,1.54,1.54,0,0,0-.62,1.3,2,2,0,0,0,.23,1,2.16,2.16,0,0,0,.77.72,9.83,9.83,0,0,0,1.65.73,6.61,6.61,0,0,1,2.56,1.42A2.8,2.8,0,0,1,259.5,70.53Z"/><path class="cls-2" d="M261.61,62.39a.89.89,0,0,1,.23-.67.82.82,0,0,1,1.12,0,.87.87,0,0,1,.24.67.88.88,0,0,1-.24.68.82.82,0,0,1-1.12,0A.92.92,0,0,1,261.61,62.39Zm1.46,11.3h-1.35V64.8h1.35Z"/><path class="cls-2" d="M273.19,64.8v.85l-1.64.2a2.82,2.82,0,0,1,.4.74,2.78,2.78,0,0,1,.18,1,2.66,2.66,0,0,1-.89,2.09,3.65,3.65,0,0,1-2.45.77,4.56,4.56,0,0,1-.75-.06,1.31,1.31,0,0,0-.85,1.14.59.59,0,0,0,.3.54,2.15,2.15,0,0,0,1,.17h1.57a3.52,3.52,0,0,1,2.21.61,2.12,2.12,0,0,1,.78,1.77,2.55,2.55,0,0,1-1.18,2.25,6.43,6.43,0,0,1-3.46.77,4.62,4.62,0,0,1-2.68-.65,2.09,2.09,0,0,1-.95-1.83,2,2,0,0,1,.52-1.4,2.67,2.67,0,0,1,1.46-.8,1.32,1.32,0,0,1-.57-.48,1.23,1.23,0,0,1-.23-.75,1.41,1.41,0,0,1,.26-.86,2.76,2.76,0,0,1,.81-.7,2.43,2.43,0,0,1-1.12-1,2.8,2.8,0,0,1-.43-1.55,2.89,2.89,0,0,1,.87-2.25,3.57,3.57,0,0,1,2.48-.79,4.43,4.43,0,0,1,1.26.16Zm-7.08,10.38a1.19,1.19,0,0,0,.61,1.09,3.31,3.31,0,0,0,1.74.37,4.87,4.87,0,0,0,2.51-.5,1.56,1.56,0,0,0,.81-1.38,1.1,1.1,0,0,0-.44-1,3.56,3.56,0,0,0-1.68-.28H268a2.12,2.12,0,0,0-1.42.44A1.56,1.56,0,0,0,266.11,75.18Zm.73-7.53a1.81,1.81,0,0,0,.52,1.41,2.11,2.11,0,0,0,1.47.47,1.71,1.71,0,0,0,2-1.91,1.76,1.76,0,0,0-2-2,2,2,0,0,0-1.46.51A2.07,2.07,0,0,0,266.84,67.65Z"/><path class="cls-2" d="M281.1,73.69V67.94a2.29,2.29,0,0,0-.5-1.62,2,2,0,0,0-1.55-.54,2.52,2.52,0,0,0-2,.76,3.8,3.8,0,0,0-.65,2.48v4.67H275V64.8h1.09l.22,1.22h.06a2.81,2.81,0,0,1,1.16-1,3.78,3.78,0,0,1,1.66-.36,3.41,3.41,0,0,1,2.42.77,3.3,3.3,0,0,1,.81,2.48v5.8Z"/><path class="cls-2" d="M290.67,73.69l-.27-1.27h-.06A3.8,3.8,0,0,1,289,73.55a4,4,0,0,1-1.65.3,3,3,0,0,1-2.07-.68,2.49,2.49,0,0,1-.75-1.94c0-1.79,1.43-2.74,4.3-2.82l1.51,0v-.55a2.28,2.28,0,0,0-.45-1.55,1.86,1.86,0,0,0-1.44-.49,5.78,5.78,0,0,0-2.51.68l-.41-1a5.76,5.76,0,0,1,1.44-.56,6,6,0,0,1,1.56-.2,3.4,3.4,0,0,1,2.36.7,2.94,2.94,0,0,1,.76,2.26v6.07Zm-3-1a2.72,2.72,0,0,0,2-.69,2.54,2.54,0,0,0,.72-1.93v-.8l-1.35.05a5,5,0,0,0-2.31.5,1.52,1.52,0,0,0-.71,1.38,1.42,1.42,0,0,0,.44,1.11A1.87,1.87,0,0,0,287.63,72.74Z"/><path class="cls-2" d="M297.31,72.74a4,4,0,0,0,.69-.06,3.27,3.27,0,0,0,.52-.11v1a2.53,2.53,0,0,1-.64.18,5.78,5.78,0,0,1-.77.07c-1.72,0-2.58-.91-2.58-2.72V65.85h-1.27V65.2l1.27-.56.57-1.9h.78V64.8h2.58v1h-2.58v5.22a1.84,1.84,0,0,0,.38,1.24A1.34,1.34,0,0,0,297.31,72.74Z"/><path class="cls-2" d="M308,69.23a4.93,4.93,0,0,1-1.1,3.4,3.87,3.87,0,0,1-3,1.22,4,4,0,0,1-2.12-.56,3.72,3.72,0,0,1-1.42-1.61,5.5,5.5,0,0,1-.51-2.45,4.87,4.87,0,0,1,1.09-3.38,3.82,3.82,0,0,1,3-1.21,3.76,3.76,0,0,1,3,1.24A4.88,4.88,0,0,1,308,69.23Zm-6.77,0a4.2,4.2,0,0,0,.68,2.6,2.37,2.37,0,0,0,2,.89,2.4,2.4,0,0,0,2-.89,5.25,5.25,0,0,0,0-5.17,2.43,2.43,0,0,0-2-.88,2.36,2.36,0,0,0-2,.87A4.16,4.16,0,0,0,301.2,69.23Z"/><path class="cls-2" d="M314.38,64.64a5,5,0,0,1,1.06.1L315.25,66a4.65,4.65,0,0,0-1-.12,2.34,2.34,0,0,0-1.84.88,3.14,3.14,0,0,0-.77,2.18v4.77h-1.35V64.8h1.11l.16,1.65h.06a3.92,3.92,0,0,1,1.19-1.34A2.74,2.74,0,0,1,314.38,64.64Z"/><path class="cls-2" d="M315.69,64.8h1.44l1.95,5.07a19.6,19.6,0,0,1,.79,2.5h.07c.07-.27.21-.75.44-1.41s1-2.72,2.2-6.16H324L320.2,74.92A4.92,4.92,0,0,1,318.88,77a2.83,2.83,0,0,1-1.86.63,5.56,5.56,0,0,1-1.22-.13V76.46a5.09,5.09,0,0,0,1,.09,2.06,2.06,0,0,0,2-1.55l.49-1.27Z"/><rect class="cls-2" x="0.48" width="179.8" height="46.23"/><path class="cls-3" d="M22.43,10.46a3.28,3.28,0,0,0-2.6,1.1,4.39,4.39,0,0,0-.95,3,4.51,4.51,0,0,0,.92,3,3.26,3.26,0,0,0,2.62,1.06,8.93,8.93,0,0,0,2.38-.37v1a7.3,7.3,0,0,1-2.56.39,4.36,4.36,0,0,1-3.41-1.34,5.54,5.54,0,0,1-1.2-3.81,6,6,0,0,1,.58-2.71,4.19,4.19,0,0,1,1.67-1.79,5,5,0,0,1,2.56-.63,6.09,6.09,0,0,1,2.75.58l-.49,1A5.37,5.37,0,0,0,22.43,10.46Z"/><path class="cls-3" d="M33.28,15.81a4.16,4.16,0,0,1-.92,2.86,3.28,3.28,0,0,1-2.55,1A3.44,3.44,0,0,1,28,19.23a3.12,3.12,0,0,1-1.2-1.36,4.74,4.74,0,0,1-.42-2.06A4.14,4.14,0,0,1,27.31,13a3.25,3.25,0,0,1,2.55-1A3.15,3.15,0,0,1,32.35,13,4.09,4.09,0,0,1,33.28,15.81Zm-5.71,0A3.5,3.5,0,0,0,28.15,18a2,2,0,0,0,1.68.76,2,2,0,0,0,1.7-.75,3.58,3.58,0,0,0,.57-2.19,3.49,3.49,0,0,0-.57-2.17,2,2,0,0,0-1.71-.75,2,2,0,0,0-1.68.74A3.48,3.48,0,0,0,27.57,15.81Z"/><path class="cls-3" d="M40.4,19.56V14.71A1.93,1.93,0,0,0,40,13.35a1.71,1.71,0,0,0-1.31-.46,2.17,2.17,0,0,0-1.72.64,3.22,3.22,0,0,0-.55,2.1v3.93H35.27V12.07h.92l.19,1h0a2.26,2.26,0,0,1,1-.85,3.06,3.06,0,0,1,1.4-.31,2.89,2.89,0,0,1,2,.65,2.82,2.82,0,0,1,.68,2.09v4.89Z"/><path class="cls-3" d="M46.28,18.76a3.6,3.6,0,0,0,.58,0,2.58,2.58,0,0,0,.45-.1v.87a2.22,2.22,0,0,1-.55.15,3.91,3.91,0,0,1-.64.06c-1.45,0-2.18-.77-2.18-2.29V13H42.87V12.4l1.07-.47.48-1.6h.66v1.74h2.17V13H45.08v4.41a1.54,1.54,0,0,0,.32,1A1.12,1.12,0,0,0,46.28,18.76Z"/><path class="cls-3" d="M52.22,11.93a4.94,4.94,0,0,1,.9.08L53,13.07a3.79,3.79,0,0,0-.82-.11,2,2,0,0,0-1.56.74,2.7,2.7,0,0,0-.64,1.84v4H48.8V12.07h.94l.13,1.39h.06a3.17,3.17,0,0,1,1-1.13A2.21,2.21,0,0,1,52.22,11.93Z"/><path class="cls-3" d="M54.42,10a.78.78,0,0,1,.19-.57.68.68,0,0,1,.48-.18.7.7,0,0,1,.48.18.74.74,0,0,1,.19.57.77.77,0,0,1-.19.57.71.71,0,0,1-.48.19.69.69,0,0,1-.48-.19A.81.81,0,0,1,54.42,10Zm1.23,9.52H54.52V12.07h1.13Z"/><path class="cls-3" d="M61.55,11.94a2.79,2.79,0,0,1,2.29,1,4.49,4.49,0,0,1,.82,2.86,4.48,4.48,0,0,1-.83,2.87,2.77,2.77,0,0,1-2.28,1,3.24,3.24,0,0,1-1.34-.27,2.62,2.62,0,0,1-1-.83h-.08l-.24,1h-.81V8.92h1.13v2.59c0,.58,0,1.09,0,1.56h0A2.71,2.71,0,0,1,61.55,11.94Zm-.17,1a2,2,0,0,0-1.67.67,3.78,3.78,0,0,0-.52,2.25,3.77,3.77,0,0,0,.53,2.26,2,2,0,0,0,1.69.68A1.75,1.75,0,0,0,63,18a3.9,3.9,0,0,0,.51-2.19A3.79,3.79,0,0,0,63,13.61,1.81,1.81,0,0,0,61.38,12.89Z"/><path class="cls-3" d="M67.71,12.07v4.86a2,2,0,0,0,.41,1.37,1.72,1.72,0,0,0,1.31.45,2.15,2.15,0,0,0,1.72-.65A3.21,3.21,0,0,0,71.69,16V12.07h1.14v7.49h-.94l-.16-1h-.07a2.25,2.25,0,0,1-1,.84,3.25,3.25,0,0,1-1.42.3,2.85,2.85,0,0,1-2-.65A2.76,2.76,0,0,1,66.56,17v-4.9Z"/><path class="cls-3" d="M77.65,18.76a3.6,3.6,0,0,0,.58,0,2.58,2.58,0,0,0,.45-.1v.87a2.22,2.22,0,0,1-.55.15,3.91,3.91,0,0,1-.64.06c-1.45,0-2.18-.77-2.18-2.29V13H74.24V12.4l1.07-.47.48-1.6h.66v1.74h2.17V13H76.45v4.41a1.54,1.54,0,0,0,.32,1A1.12,1.12,0,0,0,77.65,18.76Z"/><path class="cls-3" d="M80.08,10a.74.74,0,0,1,.19-.57.68.68,0,0,1,.48-.18.67.67,0,0,1,.47.18.74.74,0,0,1,.2.57.77.77,0,0,1-.2.57.69.69,0,0,1-1,0A.77.77,0,0,1,80.08,10Zm1.23,9.52H80.17V12.07h1.14Z"/><path class="cls-3" d="M90.18,15.81a4.16,4.16,0,0,1-.92,2.86,3.28,3.28,0,0,1-2.55,1,3.38,3.38,0,0,1-1.78-.47,3.15,3.15,0,0,1-1.21-1.36,4.74,4.74,0,0,1-.42-2.06A4.14,4.14,0,0,1,84.21,13a3.25,3.25,0,0,1,2.55-1A3.17,3.17,0,0,1,89.26,13,4.14,4.14,0,0,1,90.18,15.81Zm-5.71,0A3.56,3.56,0,0,0,85.05,18a2,2,0,0,0,1.69.76A2,2,0,0,0,88.43,18,3.57,3.57,0,0,0,89,15.81a3.49,3.49,0,0,0-.58-2.17,2,2,0,0,0-1.71-.75,2,2,0,0,0-1.68.74A3.48,3.48,0,0,0,84.47,15.81Z"/><path class="cls-3" d="M97.3,19.56V14.71a1.93,1.93,0,0,0-.42-1.36,1.7,1.7,0,0,0-1.3-.46,2.18,2.18,0,0,0-1.73.64,3.23,3.23,0,0,0-.54,2.1v3.93H92.17V12.07h.92l.19,1h0a2.32,2.32,0,0,1,1-.85,3.09,3.09,0,0,1,1.4-.31,2.89,2.89,0,0,1,2,.65,2.82,2.82,0,0,1,.68,2.09v4.89Z"/><path class="cls-3" d="M106.82,18.76a3.69,3.69,0,0,0,.58,0,2.58,2.58,0,0,0,.45-.1v.87a2.22,2.22,0,0,1-.55.15,3.91,3.91,0,0,1-.64.06c-1.45,0-2.18-.77-2.18-2.29V13h-1.07V12.4l1.07-.47.48-1.6h.66v1.74h2.17V13h-2.17v4.41a1.49,1.49,0,0,0,.32,1A1.12,1.12,0,0,0,106.82,18.76Z"/><path class="cls-3" d="M115.81,15.81a4.16,4.16,0,0,1-.92,2.86,3.28,3.28,0,0,1-2.55,1,3.44,3.44,0,0,1-1.79-.47,3.12,3.12,0,0,1-1.2-1.36,4.74,4.74,0,0,1-.42-2.06,4.14,4.14,0,0,1,.91-2.86,3.25,3.25,0,0,1,2.55-1A3.15,3.15,0,0,1,114.88,13,4.09,4.09,0,0,1,115.81,15.81Zm-5.71,0a3.5,3.5,0,0,0,.58,2.18,2,2,0,0,0,1.68.76,2,2,0,0,0,1.7-.75,3.58,3.58,0,0,0,.57-2.19,3.49,3.49,0,0,0-.57-2.17,2,2,0,0,0-1.71-.75,2,2,0,0,0-1.68.74A3.48,3.48,0,0,0,110.1,15.81Z"/><path class="cls-3" d="M126,14.32h3.4v4.86a11.43,11.43,0,0,1-1.61.39,13.19,13.19,0,0,1-1.9.13,4.6,4.6,0,0,1-3.54-1.35,5.34,5.34,0,0,1-1.26-3.79,5.79,5.79,0,0,1,.62-2.73,4.26,4.26,0,0,1,1.8-1.79,5.91,5.91,0,0,1,2.76-.62,7.55,7.55,0,0,1,3,.59l-.45,1a6.54,6.54,0,0,0-2.61-.58,3.73,3.73,0,0,0-2.85,1.09,4.22,4.22,0,0,0-1,3,4.29,4.29,0,0,0,1,3.07,3.77,3.77,0,0,0,2.9,1.05,8.61,8.61,0,0,0,2-.24V15.36H126Z"/><path class="cls-3" d="M132.76,19.56h-1.13V8.92h1.13Z"/><path class="cls-3" d="M141.64,15.81a4.12,4.12,0,0,1-.93,2.86,3.26,3.26,0,0,1-2.55,1,3.4,3.4,0,0,1-1.78-.47,3.12,3.12,0,0,1-1.2-1.36,4.6,4.6,0,0,1-.43-2.06,4.15,4.15,0,0,1,.92-2.86,3.24,3.24,0,0,1,2.54-1,3.17,3.17,0,0,1,2.5,1.05A4.09,4.09,0,0,1,141.64,15.81Zm-5.71,0A3.56,3.56,0,0,0,136.5,18a2.27,2.27,0,0,0,3.38,0,3.51,3.51,0,0,0,.58-2.19,3.43,3.43,0,0,0-.58-2.17,2,2,0,0,0-1.7-.75,2,2,0,0,0-1.68.74A3.48,3.48,0,0,0,135.93,15.81Z"/><path class="cls-3" d="M147.11,11.94a2.77,2.77,0,0,1,2.29,1,4.43,4.43,0,0,1,.82,2.86,4.48,4.48,0,0,1-.82,2.87,2.78,2.78,0,0,1-2.29,1,3.19,3.19,0,0,1-1.33-.27,2.49,2.49,0,0,1-1-.83h-.08l-.24,1h-.81V8.92h1.13v2.59c0,.58,0,1.09,0,1.56h0A2.69,2.69,0,0,1,147.11,11.94Zm-.16,1a2,2,0,0,0-1.68.67,3.79,3.79,0,0,0-.51,2.25,3.77,3.77,0,0,0,.53,2.26,2,2,0,0,0,1.69.68,1.74,1.74,0,0,0,1.55-.77,3.81,3.81,0,0,0,.52-2.19,3.71,3.71,0,0,0-.52-2.18A1.81,1.81,0,0,0,147,12.89Z"/><path class="cls-3" d="M156.81,19.56l-.22-1.07h-.06a3.11,3.11,0,0,1-1.12,1,3.49,3.49,0,0,1-1.39.25,2.46,2.46,0,0,1-1.74-.58,2.1,2.1,0,0,1-.64-1.63c0-1.51,1.21-2.31,3.63-2.38l1.28,0V14.6a1.92,1.92,0,0,0-.38-1.3,1.58,1.58,0,0,0-1.22-.42,4.88,4.88,0,0,0-2.12.58l-.35-.87a5.24,5.24,0,0,1,1.22-.47,5,5,0,0,1,1.32-.18,2.85,2.85,0,0,1,2,.6,2.49,2.49,0,0,1,.64,1.91v5.11Zm-2.56-.8a2.29,2.29,0,0,0,1.66-.58,2.13,2.13,0,0,0,.61-1.63v-.67l-1.14,0a4.21,4.21,0,0,0-1.95.42,1.27,1.27,0,0,0-.6,1.16,1.18,1.18,0,0,0,.38.94A1.54,1.54,0,0,0,154.25,18.76Z"/><path class="cls-3" d="M161.13,19.56H160V8.92h1.14Z"/><path class="cls-3" d="M23.79,33.7a2.45,2.45,0,0,1-1,2.06,4.13,4.13,0,0,1-2.59.74A6.61,6.61,0,0,1,17.5,36V34.92a7.5,7.5,0,0,0,1.34.41,7,7,0,0,0,1.44.15A2.93,2.93,0,0,0,22,35a1.47,1.47,0,0,0,.59-1.23,1.55,1.55,0,0,0-.21-.85,1.87,1.87,0,0,0-.7-.61,9.72,9.72,0,0,0-1.49-.64,4.77,4.77,0,0,1-2-1.18,2.62,2.62,0,0,1-.6-1.79,2.19,2.19,0,0,1,.87-1.83,3.58,3.58,0,0,1,2.3-.69,6.71,6.71,0,0,1,2.74.55l-.36,1a6.35,6.35,0,0,0-2.41-.52,2.26,2.26,0,0,0-1.44.4,1.29,1.29,0,0,0-.52,1.1,1.67,1.67,0,0,0,.19.85,1.84,1.84,0,0,0,.65.61,7.82,7.82,0,0,0,1.39.61A5.45,5.45,0,0,1,23.2,32,2.4,2.4,0,0,1,23.79,33.7Z"/><path class="cls-3" d="M26.73,28.87v4.86a2,2,0,0,0,.42,1.37,1.69,1.69,0,0,0,1.3.45,2.12,2.12,0,0,0,1.72-.65,3.21,3.21,0,0,0,.55-2.09V28.87h1.13v7.49h-.94l-.16-1h-.06a2.23,2.23,0,0,1-1,.85,3.18,3.18,0,0,1-1.41.3,2.9,2.9,0,0,1-2-.65,2.8,2.8,0,0,1-.68-2.08v-4.9Z"/><path class="cls-3" d="M39.09,34.32a1.88,1.88,0,0,1-.78,1.61,3.66,3.66,0,0,1-2.19.57A4.69,4.69,0,0,1,33.8,36V35A5.54,5.54,0,0,0,35,35.4a4.59,4.59,0,0,0,1.19.16,2.72,2.72,0,0,0,1.37-.28.94.94,0,0,0,.48-.87,1,1,0,0,0-.38-.75,6.41,6.41,0,0,0-1.48-.73,8.13,8.13,0,0,1-1.49-.68,2.3,2.3,0,0,1-.66-.66,1.76,1.76,0,0,1-.21-.88,1.7,1.7,0,0,1,.74-1.45,3.51,3.51,0,0,1,2-.53,5.94,5.94,0,0,1,2.36.49l-.4.93a5.42,5.42,0,0,0-2-.47,2.44,2.44,0,0,0-1.22.25.8.8,0,0,0-.41.7.85.85,0,0,0,.15.51,1.54,1.54,0,0,0,.5.41,10.45,10.45,0,0,0,1.31.55,4.93,4.93,0,0,1,1.8,1A1.74,1.74,0,0,1,39.09,34.32Z"/><path class="cls-3" d="M43.36,35.56a3.69,3.69,0,0,0,.58,0,4.32,4.32,0,0,0,.44-.1v.87a2,2,0,0,1-.54.15,4,4,0,0,1-.65.06c-1.45,0-2.17-.77-2.17-2.29V29.75H39.94V29.2L41,28.73l.48-1.6h.65v1.74h2.18v.88H42.15v4.41a1.54,1.54,0,0,0,.32,1A1.14,1.14,0,0,0,43.36,35.56Z"/><path class="cls-3" d="M50.49,36.36l-.23-1.07h0a3.29,3.29,0,0,1-1.12,1,3.53,3.53,0,0,1-1.39.25A2.47,2.47,0,0,1,46,35.92a2.08,2.08,0,0,1-.63-1.63q0-2.28,3.63-2.38l1.27,0V31.4a1.92,1.92,0,0,0-.38-1.3,1.56,1.56,0,0,0-1.21-.42,4.85,4.85,0,0,0-2.12.58l-.35-.87a5.16,5.16,0,0,1,1.21-.47,5,5,0,0,1,1.32-.18,2.84,2.84,0,0,1,2,.6,2.49,2.49,0,0,1,.65,1.91v5.11Zm-2.57-.8A2.31,2.31,0,0,0,49.59,35a2.17,2.17,0,0,0,.6-1.63v-.67l-1.13,0a4.15,4.15,0,0,0-2,.42,1.27,1.27,0,0,0-.6,1.16,1.18,1.18,0,0,0,.37.94A1.58,1.58,0,0,0,47.92,35.56Z"/><path class="cls-3" d="M53.57,26.84a.74.74,0,0,1,.19-.57.68.68,0,0,1,.48-.18.67.67,0,0,1,.47.18.74.74,0,0,1,.2.57.77.77,0,0,1-.2.57.69.69,0,0,1-1,0A.77.77,0,0,1,53.57,26.84Zm1.23,9.52H53.66V28.87H54.8Z"/><path class="cls-3" d="M62.33,36.36V31.51a2,2,0,0,0-.41-1.36,1.72,1.72,0,0,0-1.31-.46,2.16,2.16,0,0,0-1.72.64,3.17,3.17,0,0,0-.55,2.1v3.93H57.21V28.87h.92l.18,1h.06a2.35,2.35,0,0,1,1-.86,3.16,3.16,0,0,1,1.4-.3,2.84,2.84,0,0,1,2,.65,2.78,2.78,0,0,1,.69,2.09v4.89Z"/><path class="cls-3" d="M70.41,36.36l-.23-1.07h-.05a3.29,3.29,0,0,1-1.12,1,3.53,3.53,0,0,1-1.39.25,2.47,2.47,0,0,1-1.75-.58,2.08,2.08,0,0,1-.63-1.63q0-2.28,3.63-2.38l1.27,0V31.4a1.92,1.92,0,0,0-.38-1.3,1.56,1.56,0,0,0-1.21-.42,4.85,4.85,0,0,0-2.12.58l-.35-.87a5.16,5.16,0,0,1,1.21-.47,5,5,0,0,1,1.32-.18,2.84,2.84,0,0,1,2,.6,2.49,2.49,0,0,1,.65,1.91v5.11Zm-2.57-.8A2.31,2.31,0,0,0,69.51,35a2.17,2.17,0,0,0,.6-1.63v-.67l-1.13,0a4.15,4.15,0,0,0-2,.42,1.27,1.27,0,0,0-.6,1.16,1.18,1.18,0,0,0,.37.94A1.58,1.58,0,0,0,67.84,35.56Z"/><path class="cls-3" d="M77.07,28.74a2.77,2.77,0,0,1,2.29,1,4.43,4.43,0,0,1,.82,2.86,4.43,4.43,0,0,1-.82,2.86,2.76,2.76,0,0,1-2.29,1,3.27,3.27,0,0,1-1.34-.27,2.53,2.53,0,0,1-1-.83h-.08l-.24,1h-.82V25.72h1.14v2.59q0,.87-.06,1.56h.06A2.69,2.69,0,0,1,77.07,28.74Zm-.16,1a2,2,0,0,0-1.68.67,3.79,3.79,0,0,0-.51,2.25,3.7,3.7,0,0,0,.53,2.26,2,2,0,0,0,1.68.68,1.75,1.75,0,0,0,1.56-.77A3.89,3.89,0,0,0,79,32.59a3.79,3.79,0,0,0-.52-2.18A1.81,1.81,0,0,0,76.91,29.69Z"/><path class="cls-3" d="M82.07,26.84a.74.74,0,0,1,.19-.57.68.68,0,0,1,.48-.18.67.67,0,0,1,.47.18.74.74,0,0,1,.2.57.77.77,0,0,1-.2.57.69.69,0,0,1-.95,0A.77.77,0,0,1,82.07,26.84Zm1.23,9.52H82.16V28.87H83.3Z"/><path class="cls-3" d="M86.84,36.36H85.7V25.72h1.14Z"/><path class="cls-3" d="M89.15,26.84a.74.74,0,0,1,.19-.57.68.68,0,0,1,.48-.18.67.67,0,0,1,.47.18.74.74,0,0,1,.2.57.77.77,0,0,1-.2.57.69.69,0,0,1-1,0A.77.77,0,0,1,89.15,26.84Zm1.23,9.52H89.25V28.87h1.13Z"/><path class="cls-3" d="M95.21,35.56a3.69,3.69,0,0,0,.58,0,4.32,4.32,0,0,0,.44-.1v.87a2,2,0,0,1-.54.15,4,4,0,0,1-.65.06c-1.45,0-2.17-.77-2.17-2.29V29.75H91.8V29.2l1.07-.47.48-1.6H94v1.74h2.18v.88H94v4.41a1.54,1.54,0,0,0,.32,1A1.14,1.14,0,0,0,95.21,35.56Z"/><path class="cls-3" d="M96.54,28.87h1.22l1.64,4.27a16.71,16.71,0,0,1,.67,2.11h.05c.06-.23.19-.63.37-1.19s.81-2.29,1.86-5.19h1.22l-3.22,8.53a4.21,4.21,0,0,1-1.12,1.79,2.35,2.35,0,0,1-1.57.53,4.31,4.31,0,0,1-1-.11V38.7a4.28,4.28,0,0,0,.84.08,1.72,1.72,0,0,0,1.66-1.31l.42-1.07Z"/><path class="cls-3" d="M113,31.12h3.39V36a10.8,10.8,0,0,1-1.61.39,13.19,13.19,0,0,1-1.9.13,4.6,4.6,0,0,1-3.53-1.35,5.3,5.3,0,0,1-1.27-3.79,5.67,5.67,0,0,1,.63-2.73,4.15,4.15,0,0,1,1.8-1.79,5.84,5.84,0,0,1,2.75-.62,7.55,7.55,0,0,1,3,.59l-.45,1a6.53,6.53,0,0,0-2.6-.58,3.7,3.7,0,0,0-2.85,1.09,4.18,4.18,0,0,0-1,3,4.31,4.31,0,0,0,1,3.07,3.8,3.8,0,0,0,2.9,1,8.61,8.61,0,0,0,2-.24V32.16H113Z"/><path class="cls-3" d="M125.08,32.61a4.16,4.16,0,0,1-.92,2.86,3.28,3.28,0,0,1-2.55,1,3.35,3.35,0,0,1-1.79-.48,3,3,0,0,1-1.2-1.35,4.74,4.74,0,0,1-.42-2.06,4.14,4.14,0,0,1,.91-2.86,3.24,3.24,0,0,1,2.54-1,3.15,3.15,0,0,1,2.5,1.05A4.09,4.09,0,0,1,125.08,32.61Zm-5.71,0a3.5,3.5,0,0,0,.58,2.18,2,2,0,0,0,1.68.76,2,2,0,0,0,1.7-.75,3.58,3.58,0,0,0,.57-2.19,3.49,3.49,0,0,0-.57-2.17,2,2,0,0,0-1.71-.75,2,2,0,0,0-1.68.74A3.48,3.48,0,0,0,119.37,32.61Z"/><path class="cls-3" d="M131.68,36.36l-.23-1.07h0a3.29,3.29,0,0,1-1.12,1,3.53,3.53,0,0,1-1.39.25,2.47,2.47,0,0,1-1.75-.58,2.08,2.08,0,0,1-.63-1.63q0-2.28,3.63-2.38l1.27,0V31.4a1.92,1.92,0,0,0-.38-1.3,1.56,1.56,0,0,0-1.21-.42,4.85,4.85,0,0,0-2.12.58l-.35-.87a5.16,5.16,0,0,1,1.21-.47,5,5,0,0,1,1.33-.18,2.83,2.83,0,0,1,2,.6,2.49,2.49,0,0,1,.65,1.91v5.11Zm-2.57-.8a2.31,2.31,0,0,0,1.67-.58,2.17,2.17,0,0,0,.6-1.63v-.67l-1.13,0a4.18,4.18,0,0,0-1.95.42,1.27,1.27,0,0,0-.6,1.16,1.18,1.18,0,0,0,.37.94A1.58,1.58,0,0,0,129.11,35.56Z"/><path class="cls-3" d="M136,36.36h-1.13V25.72H136Z"/><path class="cls-3" d="M143.23,34.32a1.88,1.88,0,0,1-.78,1.61,3.66,3.66,0,0,1-2.19.57,4.66,4.66,0,0,1-2.32-.48V35a5.34,5.34,0,0,0,1.16.43,4.59,4.59,0,0,0,1.19.16,2.72,2.72,0,0,0,1.37-.28.94.94,0,0,0,.48-.87,1,1,0,0,0-.38-.75,6.41,6.41,0,0,0-1.48-.73,8.13,8.13,0,0,1-1.49-.68,2.18,2.18,0,0,1-.66-.66,1.76,1.76,0,0,1-.21-.88,1.7,1.7,0,0,1,.74-1.45,3.51,3.51,0,0,1,2.05-.53,5.94,5.94,0,0,1,2.36.49l-.4.93a5.47,5.47,0,0,0-2-.47,2.43,2.43,0,0,0-1.21.25.78.78,0,0,0-.41.7.85.85,0,0,0,.15.51,1.54,1.54,0,0,0,.5.41,9.8,9.8,0,0,0,1.31.55,4.93,4.93,0,0,1,1.8,1A1.74,1.74,0,0,1,143.23,34.32Z"/></g></svg>