<svg xmlns="http://www.w3.org/2000/svg" viewBox="0 0 989.88 115.55"><defs><style>.cls-1{fill:#fff;}.cls-2{fill:#0091b2;}</style></defs><g id="Economic_Opportunities_Image" data-name="Economic Opportunities Image"><rect class="cls-1" x="142.39" y="76.61" width="32.5" height="33.67"/><path class="cls-1" d="M155.22,110.86a4.52,4.52,0,1,1-4.5-4.08A4.31,4.31,0,0,1,155.22,110.86Z"/><path class="cls-2" d="M161.66,77.41a.55.55,0,0,1-.54-.54.54.54,0,0,1,.54-.53h21.87a.54.54,0,0,1,.54.53v33.5a.55.55,0,0,1-.54.54H155.24a.53.53,0,0,1-.53-.54v0a3.88,3.88,0,0,0-3.88-3.65,3.88,3.88,0,0,0-3.85,3.7.54.54,0,0,1-.53.51h-4.53a.54.54,0,0,1-.53-.54V94.89a.52.52,0,0,1,.53-.53.53.53,0,0,1,.54.53v14.93H146a5,5,0,0,1,1.49-2.83,4.92,4.92,0,0,1,8.26,2.83H183V77.41Z"/><path class="cls-2" d="M183.53,83.8h9.36a.48.48,0,0,1,.44.24l10.9,13.68a.6.6,0,0,1,.11.34v12.31a.55.55,0,0,1-.53.54h-4.53a.54.54,0,0,1-.53-.54v0a3.87,3.87,0,0,0-6.53-2.58,4,4,0,0,0-1.2,2.63.55.55,0,0,1-.54.51h-6.95a.54.54,0,0,1-.53-.54v-26a.53.53,0,0,1,.53-.53Zm9.11,1.09h-8.57v24.93h6a4.81,4.81,0,0,1,1.47-2.83,4.94,4.94,0,0,1,6.81,0,5,5,0,0,1,1.47,2.83h3.5V98.23Z"/><rect class="cls-2" x="154.97" y="84.78" width="24.17" height="1.07"/><rect class="cls-2" x="145.67" y="93.09" width="33.47" height="1.07"/><rect class="cls-2" x="141.92" y="101.37" width="37.22" height="1.09"/><rect class="cls-2" x="183.53" y="97.54" width="20.27" height="1.07"/><path class="cls-2" d="M150.83,105.63a4.93,4.93,0,0,1,3.5,1.45l0,0a4.93,4.93,0,1,1-8.44,3.47,5,5,0,0,1,4.92-4.94Zm2.74,2.21a3.85,3.85,0,1,0-5.45,5.45,3.83,3.83,0,0,0,5.45,0,3.84,3.84,0,0,0,0-5.43Z"/><path class="cls-2" d="M194.89,105.63a5,5,0,1,1-3.49,1.45,4.91,4.91,0,0,1,3.49-1.45Zm2.72,2.21a3.81,3.81,0,0,0-2.72-1.14,3.88,3.88,0,0,0-3.87,3.87,3.88,3.88,0,0,0,3.87,3.86,3.89,3.89,0,0,0,3.86-3.86,3.81,3.81,0,0,0-1.14-2.73Z"/><path class="cls-2" d="M185.36,87.43H192a.56.56,0,0,1,.56.54v7.61a.56.56,0,0,1-.56.54h-6.64a.54.54,0,0,1-.53-.54V88a.54.54,0,0,1,.53-.54Zm6.1,1.09h-5.57v6.53h5.57Z"/><polygon class="cls-2" points="142.98 96.07 141.37 96.07 141.37 76.06 161.13 76.06 161.13 77.68 142.98 77.68 142.98 96.07"/><path class="cls-1" d="M39.51,71.48a7.3,7.3,0,0,1-2.88,6.75s-3.88,4-10,.52c0,0-7.42,4-11.3-1.38a8.29,8.29,0,0,1-1.72-8.11s-4-2.93-3.45-7.76c0,0,.43-8.36,8.54-7.15,0,0,1.55-6.38,8-6.12,0,0,6.13.26,7.42,6.2,0,0,7.58-.25,8.62,7.68,0,0,.78,6.64-3.62,7.33a9.46,9.46,0,0,1,.38,2"/><path class="cls-2" d="M31.52,80.54a10,10,0,0,1-4.9-1.39c-1.19.58-7.9,3.57-11.57-1.58a8.51,8.51,0,0,1-1.85-8.18,9,9,0,0,1-3.39-7.93c0-.13.23-3.93,2.9-6.11A7.29,7.29,0,0,1,18.44,54c.43-1.31,2.41-6.34,8.29-6.09.06,0,6.22.33,7.68,6.22a8.76,8.76,0,0,1,8.69,8c0,.08.72,6.6-3.52,7.65a11,11,0,0,1,.28,1.74h0a7.62,7.62,0,0,1-3,7.07A7.9,7.9,0,0,1,31.52,80.54ZM17.17,54.59a6.11,6.11,0,0,0-4,1.3c-2.43,2-2.65,5.6-2.65,5.63-.58,4.6,3.26,7.43,3.3,7.46l.21.15-.08.24a7.94,7.94,0,0,0,1.64,7.75c3.68,5.15,10.58,1.47,10.87,1.32l.17-.1.17.1c5.8,3.35,9.42-.3,9.57-.46a6.94,6.94,0,0,0,2.78-6.47h0a9.24,9.24,0,0,0-.36-2l-.13-.4.41-.06c4-.63,3.34-6.88,3.33-6.94a8.06,8.06,0,0,0-8.26-7.36h-.29l-.07-.29c-1.22-5.6-6.84-5.92-7.08-5.93-6.08-.24-7.6,5.61-7.66,5.85l-.08.32-.32,0A9.44,9.44,0,0,0,17.17,54.59Z"/><rect class="cls-2" x="26.27" y="64.44" width="0.71" height="53.38"/><polyline class="cls-1" points="21.8 67.8 26.54 72.28 30.94 68.23"/><polygon class="cls-2" points="26.54 72.77 21.56 68.06 22.05 67.54 26.54 71.8 30.7 67.97 31.18 68.49 26.54 72.77"/><path class="cls-1" d="M58.49,80.05a6.19,6.19,0,0,1-2.44,5.73s-3.3,3.44-8.49.44c0,0-6.3,3.44-9.59-1.17a7,7,0,0,1-1.47-6.88s-3.44-2.49-2.92-6.59c0,0,.36-7.1,7.24-6.08,0,0,1.32-5.42,6.81-5.2,0,0,5.2.22,6.3,5.28a7.17,7.17,0,0,1,7.32,6.51s.66,5.64-3.08,6.22a7.88,7.88,0,0,1,.32,1.74"/><path class="cls-2" d="M51.71,87.79a8.47,8.47,0,0,1-4.16-1.17c-1.08.53-6.75,3-9.87-1.37a7.28,7.28,0,0,1-1.59-7,7.74,7.74,0,0,1-2.87-6.76,7.93,7.93,0,0,1,2.49-5.22,6.25,6.25,0,0,1,4.86-1.2c.4-1.18,2.16-5.36,7.08-5.16.05,0,5.29.28,6.56,5.28A7.49,7.49,0,0,1,61.6,72c.23,2-.12,5.78-3,6.54A9.22,9.22,0,0,1,58.85,80h0a6.52,6.52,0,0,1-2.59,6h0A6.77,6.77,0,0,1,51.71,87.79Zm-12.18-22a5.17,5.17,0,0,0-3.37,1.09,7.33,7.33,0,0,0-2.23,4.75c-.48,3.86,2.75,6.25,2.78,6.28l.21.15-.08.24a6.7,6.7,0,0,0,1.38,6.53c3.11,4.34,8.92,1.24,9.17,1.11l.17-.1.17.1c4.89,2.82,7.94-.25,8.06-.38a5.85,5.85,0,0,0,2.35-5.46h0a8,8,0,0,0-.3-1.64L57.7,78l.42-.07c3.35-.52,2.78-5.78,2.77-5.83a6.77,6.77,0,0,0-7-6.2h-.3l-.06-.29c-1-4.72-5.76-5-6-5-5.1-.2-6.4,4.72-6.45,4.93l-.08.31-.32-.05A9.05,9.05,0,0,0,39.53,65.76Z"/><rect class="cls-2" x="47.2" y="72.83" width="0.71" height="44.18"/><polyline class="cls-1" points="43.46 76.92 47.48 80.73 51.22 77.29"/><polygon class="cls-2" points="47.48 81.21 43.22 77.18 43.7 76.66 47.49 80.24 50.98 77.03 51.46 77.55 47.48 81.21"/><path class="cls-1" d="M27.26,87.94a4.89,4.89,0,0,1-1.93,4.53s-2.61,2.73-6.72.35c0,0-5,2.73-7.58-.92a5.57,5.57,0,0,1-1.16-5.45,6,6,0,0,1-2.32-5.21s.29-5.61,5.74-4.8c0,0,1-4.29,5.38-4.11a5.43,5.43,0,0,1,5,4.17,5.68,5.68,0,0,1,5.79,5.15S30,86.11,27,86.57a6.09,6.09,0,0,1,.25,1.37"/><path class="cls-2" d="M21.89,94.14a6.87,6.87,0,0,1-3.29-.91c-1,.45-5.4,2.33-7.86-1.13a5.82,5.82,0,0,1-1.28-5.52A6.2,6.2,0,0,1,7.2,81.2a6.31,6.31,0,0,1,2-4.18,4.93,4.93,0,0,1,3.84-1A5.72,5.72,0,0,1,18.68,72c.05,0,4.21.23,5.25,4.18a6,6,0,0,1,5.86,5.45c.18,1.58-.09,4.58-2.34,5.24a6.66,6.66,0,0,1,.16,1.07h0a5.19,5.19,0,0,1-2.07,4.85h0A5.42,5.42,0,0,1,21.89,94.14ZM12.26,76.71a4.08,4.08,0,0,0-2.62.85,5.72,5.72,0,0,0,.44,8.61l.2.15-.07.24a5.18,5.18,0,0,0,1.07,5.09c2.43,3.39,7,1,7.16.86l.18-.09.17.1c3.81,2.2,6.18-.19,6.28-.29A4.59,4.59,0,0,0,26.91,88h0a6.2,6.2,0,0,0-.24-1.29l-.13-.4.41-.06c2.58-.41,2.14-4.49,2.14-4.53a5.31,5.31,0,0,0-5.43-4.84h-.29l-.07-.29a5,5,0,0,0-4.65-3.89c-4-.17-5,3.68-5,3.84l-.08.31-.32,0A6.67,6.67,0,0,0,12.26,76.71Z"/><rect class="cls-2" x="18.26" y="82.23" width="0.71" height="34.95"/><polyline class="cls-1" points="15.37 85.47 18.55 88.48 21.51 85.76"/><polygon class="cls-2" points="18.55 88.97 15.13 85.73 15.61 85.21 18.56 88 21.27 85.5 21.75 86.02 18.55 88.97"/><path class="cls-1" d="M98.61,71.48a7.3,7.3,0,0,1-2.88,6.75s-3.87,4-10,.52c0,0-7.41,4-11.29-1.38a8.27,8.27,0,0,1-1.72-8.11s-4.06-2.93-3.45-7.76c0,0,.43-8.36,8.53-7.15,0,0,1.55-6.38,8-6.12,0,0,6.12.26,7.41,6.2,0,0,7.59-.25,8.63,7.68,0,0,.77,6.64-3.63,7.33a8.77,8.77,0,0,1,.38,2"/><path class="cls-2" d="M90.62,80.54a10,10,0,0,1-4.9-1.39c-1.18.58-7.89,3.57-11.57-1.58a8.51,8.51,0,0,1-1.85-8.18,9.09,9.09,0,0,1-3.39-7.93c0-.13.24-3.93,2.91-6.11A7.28,7.28,0,0,1,77.55,54c.43-1.31,2.41-6.34,8.28-6.09.07,0,6.22.33,7.69,6.22a8.77,8.77,0,0,1,8.69,8c0,.08.72,6.6-3.53,7.65A9.08,9.08,0,0,1,99,71.45h0a7.58,7.58,0,0,1-3,7.07A7.84,7.84,0,0,1,90.62,80.54ZM76.27,54.59a6.14,6.14,0,0,0-4,1.3c-2.43,2-2.65,5.6-2.65,5.63-.57,4.6,3.26,7.43,3.3,7.46l.21.15-.08.24a8,8,0,0,0,1.64,7.75c3.69,5.15,10.58,1.47,10.87,1.32l.18-.1.17.1c5.79,3.35,9.42-.3,9.57-.46a6.94,6.94,0,0,0,2.78-6.47h0a9.24,9.24,0,0,0-.36-2l-.14-.4.42-.06c4-.63,3.33-6.88,3.32-6.94a8,8,0,0,0-8.25-7.36H93l-.06-.29c-1.22-5.6-6.85-5.92-7.09-5.93-6.09-.24-7.59,5.61-7.65,5.85l-.08.32-.32,0A9.57,9.57,0,0,0,76.27,54.59Z"/><rect class="cls-2" x="85.38" y="64.44" width="0.71" height="53.38"/><polyline class="cls-1" points="80.91 67.8 85.65 72.28 90.05 68.23"/><polygon class="cls-2" points="85.64 72.77 80.66 68.06 81.15 67.54 85.65 71.8 89.81 67.97 90.29 68.49 85.64 72.77"/><path class="cls-1" d="M117.6,80.05a6.19,6.19,0,0,1-2.44,5.73s-3.3,3.44-8.5.44c0,0-6.29,3.44-9.59-1.17a7,7,0,0,1-1.46-6.88s-3.44-2.49-2.93-6.59c0,0,.37-7.1,7.25-6.08,0,0,1.32-5.42,6.81-5.2,0,0,5.19.22,6.29,5.28a7.17,7.17,0,0,1,7.32,6.51s.66,5.64-3.07,6.22a7.88,7.88,0,0,1,.32,1.74"/><path class="cls-2" d="M110.82,87.79a8.5,8.5,0,0,1-4.17-1.17c-1.08.53-6.75,3-9.87-1.37a7.29,7.29,0,0,1-1.58-7,7.74,7.74,0,0,1-2.87-6.76,7.89,7.89,0,0,1,2.48-5.22,6.26,6.26,0,0,1,4.87-1.2c.39-1.18,2.15-5.36,7.07-5.16.06,0,5.3.28,6.56,5.28A7.48,7.48,0,0,1,120.7,72c.24,2-.12,5.78-3,6.54A9.22,9.22,0,0,1,118,80h0a6.5,6.5,0,0,1-2.59,6h0A6.77,6.77,0,0,1,110.82,87.79Zm-12.19-22a5.14,5.14,0,0,0-3.36,1.09A7.28,7.28,0,0,0,93,71.6c-.49,3.86,2.74,6.25,2.78,6.28L96,78l-.08.24a6.7,6.7,0,0,0,1.38,6.53c3.1,4.34,8.92,1.24,9.16,1.11l.18-.1.17.1c4.88,2.82,7.93-.25,8.06-.38a5.84,5.84,0,0,0,2.34-5.46h0a7.29,7.29,0,0,0-.3-1.64l-.13-.4.41-.07c3.35-.52,2.79-5.78,2.78-5.83a6.79,6.79,0,0,0-7-6.2h-.29l-.06-.29c-1-4.72-5.77-5-6-5-5.13-.2-6.39,4.72-6.45,4.93l-.07.31-.32-.05A9.19,9.19,0,0,0,98.63,65.76Z"/><rect class="cls-2" x="106.31" y="72.83" width="0.71" height="44.18"/><polyline class="cls-1" points="102.56 76.92 106.59 80.73 110.32 77.29"/><polygon class="cls-2" points="106.59 81.21 102.32 77.18 102.81 76.66 106.59 80.24 110.08 77.03 110.56 77.55 106.59 81.21"/><path class="cls-1" d="M86.37,87.94a4.88,4.88,0,0,1-1.94,4.53s-2.6,2.73-6.71.35c0,0-5,2.73-7.59-.92A5.57,5.57,0,0,1,69,86.45a5.94,5.94,0,0,1-2.31-5.21s.29-5.61,5.73-4.8c0,0,1-4.29,5.39-4.11a5.42,5.42,0,0,1,5,4.17,5.67,5.67,0,0,1,5.79,5.15s.53,4.46-2.43,4.92a6.41,6.41,0,0,1,.26,1.37"/><path class="cls-2" d="M81,94.14a6.84,6.84,0,0,1-3.29-.91c-.95.45-5.4,2.33-7.87-1.13a5.83,5.83,0,0,1-1.27-5.52,6.14,6.14,0,0,1-2.26-5.38,6.26,6.26,0,0,1,2-4.18,4.91,4.91,0,0,1,3.84-1A5.72,5.72,0,0,1,77.79,72S82,72.2,83,76.15A6,6,0,0,1,88.9,81.6c.18,1.58-.1,4.58-2.35,5.24a7.77,7.77,0,0,1,.17,1.07h0a5.22,5.22,0,0,1-2.08,4.85h0A5.38,5.38,0,0,1,81,94.14ZM71.36,76.71a4,4,0,0,0-2.61.85,5.71,5.71,0,0,0,.43,8.61l.21.15-.08.24a5.18,5.18,0,0,0,1.07,5.09c2.43,3.39,7,1,7.17.86l.17-.09.17.1c3.81,2.2,6.19-.19,6.29-.29A4.58,4.58,0,0,0,86,88h0a6.65,6.65,0,0,0-.23-1.29l-.14-.4.42-.06c2.58-.41,2.14-4.49,2.13-4.53a5.3,5.3,0,0,0-5.42-4.84h-.3l-.06-.29a5,5,0,0,0-4.65-3.89c-4-.17-5,3.68-5,3.84l-.08.31-.32,0A6.8,6.8,0,0,0,71.36,76.71Z"/><rect class="cls-2" x="77.36" y="82.23" width="0.71" height="34.95"/><polyline class="cls-1" points="74.47 85.47 77.66 88.48 80.61 85.76"/><polygon class="cls-2" points="77.66 88.97 74.23 85.73 74.72 85.21 77.66 88 80.37 85.5 80.85 86.02 77.66 88.97"/><path class="cls-1" d="M548.12,71.48a7.28,7.28,0,0,1-2.87,6.75s-3.88,4-10,.52c0,0-7.41,4-11.29-1.38a8.29,8.29,0,0,1-1.72-8.11s-4.05-2.93-3.45-7.76c0,0,.43-8.36,8.53-7.15,0,0,1.56-6.38,8-6.12,0,0,6.12.26,7.42,6.2,0,0,7.58-.25,8.62,7.68,0,0,.77,6.64-3.62,7.33a9.14,9.14,0,0,1,.37,2"/><path class="cls-2" d="M540.14,80.54a10,10,0,0,1-4.91-1.39c-1.18.58-7.89,3.57-11.57-1.58a8.49,8.49,0,0,1-1.84-8.18,9,9,0,0,1-3.39-7.93c0-.13.23-3.93,2.9-6.11A7.28,7.28,0,0,1,527.06,54c.43-1.31,2.41-6.35,8.29-6.09.06,0,6.22.33,7.68,6.22a8.76,8.76,0,0,1,8.69,8c0,.08.72,6.6-3.53,7.65a9.78,9.78,0,0,1,.29,1.74h0a7.61,7.61,0,0,1-3,7.07A7.83,7.83,0,0,1,540.14,80.54ZM525.78,54.59a6.09,6.09,0,0,0-4,1.31c-2.43,2-2.64,5.59-2.65,5.62-.57,4.58,3.27,7.43,3.31,7.46l.2.15-.07.24a8,8,0,0,0,1.63,7.75c3.69,5.15,10.58,1.48,10.87,1.32l.18-.1.17.1C541.23,81.8,545,78,545,78a6.94,6.94,0,0,0,2.78-6.47h0a9.24,9.24,0,0,0-.36-2l-.13-.4.41-.06c4-.63,3.33-6.88,3.32-6.94a8,8,0,0,0-8.25-7.36h-.3l-.06-.29c-1.22-5.62-7-5.92-7.08-5.93-6.08-.24-7.65,5.79-7.66,5.85l-.08.32-.32,0A9.57,9.57,0,0,0,525.78,54.59Z"/><rect class="cls-2" x="534.89" y="64.44" width="0.71" height="53.38"/><polyline class="cls-1" points="530.42 67.8 535.16 72.28 539.56 68.23"/><polygon class="cls-2" points="535.16 72.77 530.17 68.06 530.66 67.54 535.16 71.8 539.32 67.97 539.8 68.49 535.16 72.77"/><path class="cls-1" d="M567.11,80.05a6.19,6.19,0,0,1-2.44,5.73s-3.3,3.44-8.5.44c0,0-6.29,3.44-9.58-1.17a7,7,0,0,1-1.47-6.88s-3.44-2.49-2.93-6.59c0,0,.37-7.1,7.25-6.08,0,0,1.32-5.42,6.81-5.2,0,0,5.2.22,6.29,5.28,0,0,6.45-.23,7.32,6.51,0,0,.66,5.64-3.07,6.22a7.88,7.88,0,0,1,.32,1.74"/><path class="cls-2" d="M560.33,87.79a8.53,8.53,0,0,1-4.17-1.17c-1.08.53-6.75,3-9.86-1.37a7.28,7.28,0,0,1-1.59-7,7.74,7.74,0,0,1-2.87-6.76,7.93,7.93,0,0,1,2.49-5.22,6.23,6.23,0,0,1,4.86-1.2c.39-1.18,2.13-5.36,7.07-5.16.06,0,5.3.28,6.57,5.28A7.49,7.49,0,0,1,570.22,72c.23,2-.12,5.78-3,6.54a8.16,8.16,0,0,1,.23,1.44,6.49,6.49,0,0,1-2.58,6h0A6.77,6.77,0,0,1,560.33,87.79Zm-12.19-22a5.14,5.14,0,0,0-3.36,1.09,7.33,7.33,0,0,0-2.23,4.75c-.48,3.86,2.75,6.25,2.78,6.28l.21.15-.08.24a6.62,6.62,0,0,0,1.38,6.53C550,89.14,555.76,86,556,85.91l.18-.1.17.1c4.88,2.82,7.93-.25,8.06-.38a5.87,5.87,0,0,0,2.35-5.46h0a6.94,6.94,0,0,0-.31-1.64l-.13-.4.42-.07c3.35-.52,2.78-5.78,2.77-5.83a6.78,6.78,0,0,0-7-6.2h-.3l-.06-.29c-1-4.72-5.76-5-6-5-5.12-.2-6.39,4.72-6.44,4.93l-.08.31-.32-.05A9.08,9.08,0,0,0,548.14,65.76Z"/><rect class="cls-2" x="555.82" y="72.83" width="0.71" height="44.18"/><polyline class="cls-1" points="552.08 76.92 556.1 80.73 559.84 77.29"/><polygon class="cls-2" points="556.1 81.21 551.83 77.18 552.32 76.66 556.11 80.24 559.6 77.03 560.08 77.55 556.1 81.21"/><path class="cls-1" d="M535.88,87.94A4.89,4.89,0,0,1,534,92.47s-2.61,2.73-6.72.35c0,0-5,2.73-7.59-.92a5.55,5.55,0,0,1-1.15-5.45,5.93,5.93,0,0,1-2.32-5.21s.29-5.61,5.73-4.8c0,0,1-4.29,5.39-4.11a5.43,5.43,0,0,1,5,4.17,5.68,5.68,0,0,1,5.79,5.15s.52,4.46-2.44,4.92a6.41,6.41,0,0,1,.26,1.37"/><path class="cls-2" d="M530.51,94.14a6.84,6.84,0,0,1-3.29-.91c-1,.45-5.4,2.33-7.86-1.13a5.82,5.82,0,0,1-1.28-5.52,6.14,6.14,0,0,1-2.26-5.38,6.31,6.31,0,0,1,2-4.18,4.92,4.92,0,0,1,3.84-1A5.75,5.75,0,0,1,527.3,72c.05,0,4.21.23,5.25,4.18a6,6,0,0,1,5.86,5.45c.18,1.58-.1,4.58-2.35,5.24a6.49,6.49,0,0,1,.17,1.07h0a5.2,5.2,0,0,1-2.08,4.85h0A5.38,5.38,0,0,1,530.51,94.14Zm-9.63-17.43a4,4,0,0,0-2.62.86,5.71,5.71,0,0,0,.44,8.6l.2.15-.07.24a5.13,5.13,0,0,0,1.07,5.09c2.42,3.39,7,1,7.16.86l.17-.09.18.1c3.8,2.2,6.18-.19,6.28-.29A4.58,4.58,0,0,0,535.52,88h0a6.65,6.65,0,0,0-.23-1.29l-.13-.4.41-.06c2.59-.41,2.14-4.49,2.13-4.53a5.3,5.3,0,0,0-5.42-4.84H532l-.06-.29a5,5,0,0,0-4.65-3.89,5,5,0,0,0-5,3.84l-.08.31-.32,0A6.67,6.67,0,0,0,520.88,76.71Z"/><rect class="cls-2" x="526.87" y="82.23" width="0.71" height="34.95"/><polyline class="cls-1" points="523.99 85.47 527.17 88.48 530.12 85.76"/><polygon class="cls-2" points="527.17 88.97 523.74 85.73 524.23 85.21 527.17 88 529.88 85.5 530.37 86.02 527.17 88.97"/><path class="cls-2" d="M864.16,83.67h-3.67V23.77h3.67Zm-2.9-.77h2.13V24.53h-2.13Z"/><path class="cls-2" d="M911,83.67h-3.66V27.35H911Zm-2.89-.77h2.12V28.12h-2.12Z"/><path class="cls-2" d="M949.78,83.67h-3.66V35.29h3.66Zm-2.89-.77H949V36.06h-2.13Z"/><path class="cls-1" d="M866,21.78a3.45,3.45,0,1,1-3.45-3.45A3.45,3.45,0,0,1,866,21.78Z"/><path class="cls-2" d="M862.53,25.7a3.93,3.93,0,1,1,3.93-3.92A3.93,3.93,0,0,1,862.53,25.7Zm0-6.88a3,3,0,1,0,3,3A3,3,0,0,0,862.53,18.82Z"/><path class="cls-1" d="M864.79,21.78a2.26,2.26,0,1,1-2.26-2.26A2.26,2.26,0,0,1,864.79,21.78Z"/><path class="cls-2" d="M862.53,24.52a2.74,2.74,0,1,1,2.74-2.74A2.74,2.74,0,0,1,862.53,24.52Zm0-4.52a1.78,1.78,0,1,0,1.77,1.78A1.78,1.78,0,0,0,862.53,20Z"/><path class="cls-1" d="M905.2,83.63s43.23-33.14,84.68,1"/><path class="cls-2" d="M989.57,85c-21.24-17.49-43-16.83-57.42-13.19A80.77,80.77,0,0,0,905.49,84l-.59-.77a81.89,81.89,0,0,1,27-12.39c14.69-3.7,36.74-4.38,58.31,13.37Z"/><path class="cls-1" d="M840.26,86.48c2.58-.33,60.46-24.53,106.67,14.66"/><path class="cls-2" d="M946.61,101.51c-27-22.91-64-28.29-104.24-15.17a17.12,17.12,0,0,1-2,.62l-.12-1c.18,0,1-.28,1.87-.58,40.54-13.23,77.89-7.78,105.17,15.35Z"/><path class="cls-1" d="M950.66,36.42A2.63,2.63,0,1,1,948,33.79,2.62,2.62,0,0,1,950.66,36.42Z"/><path class="cls-2" d="M948,39.53a3.11,3.11,0,1,1,3.1-3.11A3.11,3.11,0,0,1,948,39.53Zm0-5.25a2.14,2.14,0,1,0,2.14,2.14A2.14,2.14,0,0,0,948,34.28Z"/><path class="cls-1" d="M949.76,36.42A1.72,1.72,0,1,1,948,34.7,1.72,1.72,0,0,1,949.76,36.42Z"/><path class="cls-2" d="M948,38.62a2.21,2.21,0,1,1,2.2-2.2A2.21,2.21,0,0,1,948,38.62Zm0-3.44a1.24,1.24,0,1,0,0,2.47,1.24,1.24,0,0,0,0-2.47Z"/><path class="cls-1" d="M912.18,28.75a3,3,0,1,1-3-3.05A3,3,0,0,1,912.18,28.75Z"/><path class="cls-2" d="M909.13,32.29a3.54,3.54,0,1,1,3.54-3.54A3.55,3.55,0,0,1,909.13,32.29Zm0-6.11a2.57,2.57,0,1,0,2.57,2.57A2.57,2.57,0,0,0,909.13,26.18Z"/><path class="cls-1" d="M911.13,28.75a2,2,0,1,1-2-2A2,2,0,0,1,911.13,28.75Z"/><path class="cls-2" d="M909.13,31.24a2.49,2.49,0,1,1,2.49-2.49A2.49,2.49,0,0,1,909.13,31.24Zm0-4a1.52,1.52,0,1,0,1.52,1.51A1.51,1.51,0,0,0,909.13,27.24Z"/><path class="cls-1" d="M648.32,60.73a2.14,2.14,0,0,1-2.26,2h-4.8a2.14,2.14,0,0,1-2.26-2V53.55a2.14,2.14,0,0,1,2.26-2h4.8a2.14,2.14,0,0,1,2.26,2Z"/><path class="cls-2" d="M646.06,63.13h-4.8a2.55,2.55,0,0,1-2.66-2.4V53.55a2.55,2.55,0,0,1,2.66-2.41h4.8a2.54,2.54,0,0,1,2.66,2.41v7.18A2.54,2.54,0,0,1,646.06,63.13Zm-4.8-11.19a1.75,1.75,0,0,0-1.86,1.61v7.18a1.75,1.75,0,0,0,1.86,1.6h4.8a1.75,1.75,0,0,0,1.86-1.6V53.55a1.75,1.75,0,0,0-1.86-1.61Z"/><path class="cls-1" d="M645.53,55.14s-1.2,2.53-6.53,3.46"/><path class="cls-2" d="M639.07,59l-.14-.79c5-.88,6.23-3.22,6.24-3.24l.72.34C645.83,55.42,644.54,58,639.07,59Z"/><path class="cls-1" d="M645.13,55.67s2.66,1.87,3.19,3.6"/><path class="cls-2" d="M647.94,59.39c-.48-1.58-3-3.37-3-3.39l.46-.65c.11.07,2.78,2,3.35,3.8Z"/><rect class="cls-2" x="647.92" y="60.62" width="0.8" height="5.18"/><rect class="cls-2" x="638.62" y="60.77" width="0.8" height="5.03"/><path class="cls-1" d="M641.56,63.1v1.56s-3.49,1.6-4.56,1.94c0,0-1.26.26-1.23,3.29V89.47l1.1,1"/><path class="cls-2" d="M636.59,90.8l-1.22-1.15V69.89c0-3.26,1.39-3.65,1.55-3.69.84-.26,3.45-1.43,4.24-1.79V63.1h.8v1.82l-.23.11c-.14.06-3.53,1.61-4.61,2,0,0-1,.32-1,2.91V89.3l1,.92Z"/><path class="cls-1" d="M645.76,63.1v1.56s3.5,1.6,4.56,1.94c0,0,1.27.26,1.23,3.29V89.47l-1.1,1"/><path class="cls-2" d="M650.73,90.8l-.55-.58,1-.92V69.89c0-2.59-.92-2.9-.93-2.91-1.1-.34-4.48-1.89-4.63-2l-.23-.11V63.1h.8v1.31c.8.36,3.41,1.53,4.28,1.8.13,0,1.55.42,1.51,3.69V89.65Z"/><path class="cls-1" d="M640.07,65.46l3.29,3A12.15,12.15,0,0,1,644,75s0,4.16,0,5.49"/><path class="cls-2" d="M643.63,80.5c-.07-1.33,0-5.35,0-5.52A12.14,12.14,0,0,0,643,68.7l-3.23-2.94.53-.59,3.4,3.12a12.58,12.58,0,0,1,.66,6.76h0s0,4.11,0,5.41Z"/><path class="cls-1" d="M647.32,65.53s-1.83,2.6-3.59,3.13"/><path class="cls-2" d="M643.84,69l-.23-.76c1.61-.49,3.37-3,3.39-3l.65.46C647.57,65.87,645.72,68.48,643.84,69Z"/><path class="cls-1" d="M639.3,70.69a4.6,4.6,0,0,0-.43,5.43s.7,3.16-.17,5.16c0,0,3.1,3.63,10.32.4,0,0-1-3.63-.7-5.46A4.66,4.66,0,0,0,648,71"/><path class="cls-2" d="M643.47,83.43a6.66,6.66,0,0,1-5.07-1.89l-.17-.19.1-.23c.75-1.72.24-4.46.16-4.86a5.05,5.05,0,0,1,.52-5.85l.58.56a4.17,4.17,0,0,0-.37,5l0,.1a11.24,11.24,0,0,1-.09,5.16c.69.64,3.57,2.74,9.38.26a16.63,16.63,0,0,1-.62-5.29L648,76a4.27,4.27,0,0,0-.28-4.78l.63-.48a5.11,5.11,0,0,1,.37,5.61,18,18,0,0,0,.7,5.21l.09.34-.31.14A14.16,14.16,0,0,1,643.47,83.43Z"/><path class="cls-1" d="M639,81.68s-2.7,10.39-1.94,16.85h13.29a59.7,59.7,0,0,0-1.83-16.41"/><path class="cls-2" d="M650.7,98.93h-14l0-.35c-.77-6.46,1.83-16.57,1.94-17l.77.2c0,.1-2.57,10-2,16.35h12.54a59.38,59.38,0,0,0-1.82-15.9l.76-.22a60.12,60.12,0,0,1,1.85,16.54Z"/><line class="cls-1" x1="639.17" y1="98.73" x2="640.79" y2="114.89"/><rect class="cls-2" x="639.58" y="98.69" width="0.8" height="16.24" transform="translate(-7.47 64.49) rotate(-5.74)"/><line class="cls-1" x1="648.53" y1="98.78" x2="646.63" y2="115.14"/><rect class="cls-2" x="639.35" y="106.56" width="16.47" height="0.8" transform="translate(467.04 738) rotate(-83.41)"/><rect class="cls-2" x="643.26" y="98.76" width="0.8" height="16.51"/><path class="cls-1" d="M688.56,60.73a2.15,2.15,0,0,1-2.27,2H681.5a2.14,2.14,0,0,1-2.27-2V53.55a2.15,2.15,0,0,1,2.27-2h4.79a2.15,2.15,0,0,1,2.27,2Z"/><path class="cls-2" d="M686.29,63.13H681.5a2.55,2.55,0,0,1-2.67-2.4V53.55a2.55,2.55,0,0,1,2.67-2.41h4.79A2.54,2.54,0,0,1,689,53.55v7.18A2.54,2.54,0,0,1,686.29,63.13ZM681.5,51.94a1.76,1.76,0,0,0-1.87,1.61v7.18a1.76,1.76,0,0,0,1.87,1.6h4.79a1.76,1.76,0,0,0,1.87-1.6V53.55a1.76,1.76,0,0,0-1.87-1.61Z"/><path class="cls-1" d="M685.76,55.14s-1.2,2.53-6.53,3.46"/><path class="cls-2" d="M679.3,59l-.14-.79c5-.88,6.23-3.22,6.24-3.24l.72.34C686.07,55.42,684.77,58,679.3,59Z"/><path class="cls-1" d="M685.36,55.67s2.66,1.87,3.2,3.6"/><path class="cls-2" d="M688.17,59.39c-.48-1.59-3-3.37-3-3.39l.46-.65c.11.07,2.78,2,3.35,3.8Z"/><rect class="cls-2" x="688.15" y="60.62" width="0.8" height="5.18"/><rect class="cls-2" x="678.85" y="60.77" width="0.8" height="5.03"/><path class="cls-1" d="M681.79,63.1v1.56s-3.49,1.6-4.56,1.94c0,0-1.26.26-1.23,3.29V89.47l1.1,1"/><path class="cls-2" d="M676.83,90.8l-1.23-1.15V69.89c0-3.26,1.39-3.65,1.55-3.69.84-.26,3.45-1.43,4.24-1.79V63.1h.8v1.82L682,65c-.14.06-3.53,1.61-4.61,2,0,0-1,.32-1,2.91V89.3l1,.92Z"/><path class="cls-1" d="M686,63.1v1.56s3.5,1.6,4.56,1.94c0,0,1.27.26,1.24,3.29V89.47l-1.1,1"/><path class="cls-2" d="M691,90.8l-.55-.58,1-.92V69.89c0-2.59-.93-2.9-.94-2.91-1.09-.34-4.48-1.89-4.63-2l-.23-.11V63.1h.8v1.31c.8.36,3.41,1.53,4.28,1.8.13,0,1.55.42,1.51,3.69V89.65Z"/><path class="cls-1" d="M680.3,65.46l3.29,3a12.15,12.15,0,0,1,.64,6.53s0,4.16,0,5.49"/><path class="cls-2" d="M683.86,80.5c-.07-1.33,0-5.35,0-5.52a12.14,12.14,0,0,0-.57-6.28L680,65.76l.53-.59,3.4,3.12a12.47,12.47,0,0,1,.66,6.76h0s0,4.11,0,5.41Z"/><path class="cls-1" d="M687.56,65.53s-1.84,2.6-3.6,3.13"/><path class="cls-2" d="M684.08,69l-.24-.76c1.62-.49,3.37-3,3.39-3l.65.46C687.81,65.87,686,68.48,684.08,69Z"/><path class="cls-1" d="M679.53,70.69a4.61,4.61,0,0,0-.43,5.43s.7,3.16-.17,5.16c0,0,3.1,3.63,10.32.4,0,0-1-3.63-.69-5.46a4.68,4.68,0,0,0-.3-5.23"/><path class="cls-2" d="M683.7,83.43a6.66,6.66,0,0,1-5.07-1.89l-.17-.19.1-.23c.75-1.72.24-4.46.16-4.86a5.05,5.05,0,0,1,.52-5.85l.58.56a4.17,4.17,0,0,0-.37,5l0,.1a11.09,11.09,0,0,1-.09,5.16c.69.64,3.57,2.74,9.38.26a16.63,16.63,0,0,1-.62-5.29l.06-.15a4.27,4.27,0,0,0-.28-4.78l.63-.48a5.09,5.09,0,0,1,.37,5.61,18,18,0,0,0,.7,5.21l.09.34-.31.14A14.16,14.16,0,0,1,683.7,83.43Z"/><path class="cls-1" d="M679.2,81.68s-2.7,10.39-1.93,16.85h13.28a59.7,59.7,0,0,0-1.83-16.41"/><path class="cls-2" d="M690.94,98.93h-14l0-.35c-.77-6.46,1.83-16.57,1.94-17l.77.2c0,.1-2.57,10-2,16.35h12.54a59.38,59.38,0,0,0-1.82-15.9l.77-.22A60.35,60.35,0,0,1,691,98.55Z"/><line class="cls-1" x1="679.4" y1="98.73" x2="681.02" y2="114.89"/><rect class="cls-2" x="679.81" y="98.69" width="0.8" height="16.24" transform="translate(-7.27 68.55) rotate(-5.74)"/><line class="cls-1" x1="688.76" y1="98.78" x2="686.86" y2="115.14"/><rect class="cls-2" x="679.58" y="106.56" width="16.47" height="0.8" transform="translate(502.65 777.97) rotate(-83.41)"/><rect class="cls-2" x="683.49" y="98.76" width="0.8" height="16.51"/><path class="cls-1" d="M668.47,61.56a2.14,2.14,0,0,1-2.26,2h-4.8a2.14,2.14,0,0,1-2.26-2V54.38a2.14,2.14,0,0,1,2.26-2h4.8a2.14,2.14,0,0,1,2.26,2Z"/><path class="cls-2" d="M666.21,64h-4.8a2.54,2.54,0,0,1-2.66-2.4V54.38a2.54,2.54,0,0,1,2.66-2.4h4.8a2.54,2.54,0,0,1,2.66,2.4v7.18A2.54,2.54,0,0,1,666.21,64Zm-4.8-11.19a1.75,1.75,0,0,0-1.86,1.61v7.18a1.75,1.75,0,0,0,1.86,1.61h4.8a1.75,1.75,0,0,0,1.86-1.61V54.38a1.75,1.75,0,0,0-1.86-1.61Z"/><path class="cls-1" d="M665.68,56s-1.2,2.53-6.53,3.47"/><path class="cls-2" d="M659.22,59.83l-.14-.79c5-.88,6.22-3.22,6.24-3.24l.72.34C666,56.25,664.69,58.87,659.22,59.83Z"/><path class="cls-1" d="M665.28,56.5s2.66,1.87,3.19,3.6"/><path class="cls-2" d="M668.09,60.22c-.49-1.58-3-3.37-3-3.39l.46-.65c.11.08,2.78,2,3.35,3.8Z"/><path class="cls-1" d="M661.31,63.56V65.8l-5,1.39s-2.7,1.3-2.7,3.5l1,19.18L657,93"/><path class="cls-2" d="M656.7,93.22,654.23,90V89.9l-1-19.19c0-2.44,2.8-3.82,2.92-3.88l4.77-1.34V63.56h.8V66.1l-5.28,1.48h0S654,68.78,654,70.69l1,19,2.32,3Z"/><path class="cls-1" d="M666.11,63.56V65.8l5,1.39s2.69,1.3,2.69,3.5l-1,19.18-2.1,3.2"/><path class="cls-2" d="M671,93.29l-.67-.44,2-3.1,1-19.08c0-1.9-2.44-3.1-2.47-3.11l-5.22-1.46V63.56h.8v1.93l4.7,1.32c.19.08,3,1.46,3,3.88L673.2,90Z"/><line class="cls-1" x1="657.22" y1="71.09" x2="656.82" y2="114.85"/><rect class="cls-2" x="635.13" y="92.57" width="43.76" height="0.8" transform="translate(557.62 749.05) rotate(-89.44)"/><line class="cls-1" x1="670.1" y1="71.79" x2="671.2" y2="114.85"/><polygon class="cls-2" points="670.8 114.86 669.71 71.8 670.5 71.78 671.6 114.84 670.8 114.86"/><path class="cls-1" d="M659.91,66.5a4.4,4.4,0,0,0,2.5,2.79L662,83.18l1.7,1.3,1.7-1.3-.8-14a4.83,4.83,0,0,0,3.3-2.5"/><path class="cls-2" d="M663.71,85l-2.1-1.61L662,69.55a4.79,4.79,0,0,1-2.47-3l.77-.19a4.06,4.06,0,0,0,2.26,2.52l.26.1-.4,14,1.29,1L665,83l-.81-14.12.34-.07a4.47,4.47,0,0,0,3-2.25l.74.29A5,5,0,0,1,665,69.5l.79,13.87Z"/><line class="cls-1" x1="657.32" y1="85.98" x2="670.1" y2="86.18"/><rect class="cls-2" x="663.31" y="79.68" width="0.8" height="12.79" transform="translate(567.3 748.37) rotate(-89.11)"/><polyline class="cls-1" points="660.61 114.65 663.41 90.97 664.21 91.07 666.81 114.85"/><polygon class="cls-2" points="666.41 114.89 663.85 91.43 663.76 91.42 661.01 114.7 660.22 114.61 663.06 90.53 664.57 90.72 667.21 114.81 666.41 114.89"/><path class="cls-1" d="M708.44,61.56a2.15,2.15,0,0,1-2.27,2h-4.79a2.15,2.15,0,0,1-2.27-2V54.38a2.15,2.15,0,0,1,2.27-2h4.79a2.15,2.15,0,0,1,2.27,2Z"/><path class="cls-2" d="M706.17,64h-4.79a2.55,2.55,0,0,1-2.67-2.4V54.38a2.55,2.55,0,0,1,2.67-2.4h4.79a2.55,2.55,0,0,1,2.67,2.4v7.18A2.55,2.55,0,0,1,706.17,64Zm-4.79-11.19a1.76,1.76,0,0,0-1.87,1.61v7.18a1.76,1.76,0,0,0,1.87,1.61h4.79A1.76,1.76,0,0,0,708,61.56V54.38a1.76,1.76,0,0,0-1.87-1.61Z"/><path class="cls-1" d="M705.64,56s-1.2,2.53-6.53,3.47"/><path class="cls-2" d="M699.18,59.83,699,59c5-.88,6.23-3.22,6.24-3.24l.72.34C706,56.25,704.65,58.87,699.18,59.83Z"/><path class="cls-1" d="M705.24,56.5s2.66,1.87,3.2,3.6"/><path class="cls-2" d="M708.06,60.22c-.49-1.58-3-3.37-3-3.39l.46-.65c.11.08,2.78,2,3.35,3.8Z"/><path class="cls-1" d="M701.28,63.56V65.8l-5,1.39s-2.7,1.3-2.7,3.5l1,19.18L697,93"/><path class="cls-2" d="M696.66,93.22,694.19,90V89.9l-1-19.19c0-2.44,2.81-3.82,2.93-3.88l4.77-1.34V63.56h.8V66.1l-5.29,1.48h0S694,68.78,694,70.69l1,19,2.32,3Z"/><path class="cls-1" d="M706.07,63.56V65.8l5,1.39s2.7,1.3,2.7,3.5l-1,19.18-2.1,3.2"/><path class="cls-2" d="M711,93.29l-.67-.44,2-3.1,1-19.08c0-1.9-2.45-3.1-2.47-3.11l-5.23-1.46V63.56h.8v1.93l4.71,1.32c.18.08,3,1.46,3,3.88l-1,19.31Z"/><line class="cls-1" x1="697.18" y1="71.09" x2="696.78" y2="114.85"/><rect class="cls-2" x="675.1" y="92.57" width="43.76" height="0.8" transform="translate(597.2 789.01) rotate(-89.44)"/><line class="cls-1" x1="710.07" y1="71.79" x2="711.17" y2="114.85"/><polygon class="cls-2" points="710.77 114.86 709.67 71.8 710.47 71.78 711.57 114.84 710.77 114.86"/><path class="cls-1" d="M699.88,66.5a4.4,4.4,0,0,0,2.5,2.79L702,83.18l1.69,1.3,1.7-1.3-.8-14a4.83,4.83,0,0,0,3.3-2.5"/><path class="cls-2" d="M703.67,85l-2.1-1.61.4-13.82a4.78,4.78,0,0,1-2.48-3l.78-.19a4,4,0,0,0,2.25,2.52l.26.1-.4,14,1.29,1L705,83l-.8-14.12.33-.07a4.45,4.45,0,0,0,3-2.25l.74.29A5,5,0,0,1,705,69.5l.79,13.87Z"/><line class="cls-1" x1="697.28" y1="85.98" x2="710.07" y2="86.18"/><rect class="cls-2" x="703.28" y="79.68" width="0.8" height="12.79" transform="translate(606.65 788.33) rotate(-89.11)"/><polyline class="cls-1" points="700.58 114.65 703.38 90.97 704.17 91.07 706.77 114.85"/><polygon class="cls-2" points="706.38 114.89 703.81 91.43 703.72 91.42 700.97 114.7 700.18 114.61 703.02 90.53 704.54 90.72 707.17 114.81 706.38 114.89"/><path class="cls-2" d="M809.16,114.48H769.71V23.06h39.45Zm-38.5-.94h37.56V24H770.66Z"/><path class="cls-2" d="M809.16,55.56H769.71V38.13h39.45Zm-38.5-.94h37.56V39.07H770.66Z"/><path class="cls-2" d="M809.16,88.64H769.71V71.2h39.45Zm-38.5-1h37.56V72.14H770.66Z"/><path class="cls-2" d="M809.16,114.48H769.71V23.06h39.45Zm-38.5-.94h37.56V24H770.66Z"/><path class="cls-2" d="M840,114.48H808.22V41.29H840Zm-30.8-.94H839V42.23H809.16Z"/><path class="cls-2" d="M840,96.29H808.22V78.85H840Zm-30.8-.94H839V79.8H809.16Z"/><path class="cls-2" d="M840,114.48H808.22V41.29H840Zm-30.8-.94H839V42.23H809.16Z"/><rect class="cls-2" x="823.58" y="48.38" width="0.94" height="61.89"/><rect class="cls-2" x="815.4" y="48.59" width="4.96" height="0.94"/><rect class="cls-2" x="815.39" y="54.09" width="4.96" height="0.94"/><rect class="cls-2" x="815.4" y="59.59" width="4.96" height="0.94"/><rect class="cls-2" x="815.39" y="65.1" width="4.96" height="0.94"/><rect class="cls-2" x="815.4" y="70.6" width="4.96" height="0.94"/><rect class="cls-2" x="815.4" y="76.1" width="4.96" height="0.94"/><rect class="cls-2" x="815.4" y="81.61" width="4.96" height="0.94"/><rect class="cls-2" x="815.4" y="87.11" width="4.96" height="0.94"/><rect class="cls-2" x="815.4" y="92.61" width="4.96" height="0.94"/><rect class="cls-2" x="815.4" y="98.11" width="4.95" height="0.94"/><rect class="cls-2" x="815.4" y="103.62" width="4.96" height="0.94"/><rect class="cls-2" x="815.4" y="109.12" width="4.96" height="0.94"/><rect class="cls-2" x="828.06" y="48.59" width="4.96" height="0.94"/><rect class="cls-2" x="828.06" y="54.09" width="4.96" height="0.94"/><rect class="cls-2" x="828.06" y="59.59" width="4.96" height="0.94"/><rect class="cls-2" x="828.06" y="65.1" width="4.96" height="0.94"/><rect class="cls-2" x="828.06" y="70.6" width="4.96" height="0.94"/><rect class="cls-2" x="828.06" y="76.1" width="4.96" height="0.94"/><rect class="cls-2" x="828.06" y="81.61" width="4.96" height="0.94"/><rect class="cls-2" x="828.06" y="87.11" width="4.96" height="0.94"/><rect class="cls-2" x="828.06" y="92.61" width="4.96" height="0.94"/><rect class="cls-2" x="828.06" y="98.11" width="4.96" height="0.94"/><rect class="cls-2" x="828.06" y="103.62" width="4.96" height="0.94"/><rect class="cls-2" x="828.06" y="109.12" width="4.96" height="0.94"/><path class="cls-2" d="M770.66,114.48H738.91V63.75h31.75Zm-30.81-.94h29.86V64.69H739.85Z"/><path class="cls-2" d="M770.66,96.29H738.91V78.85h31.75Zm-30.81-.94h29.86V79.8H739.85Z"/><path class="cls-2" d="M770.66,114.48H738.91V63.75h31.75Zm-30.81-.94h29.86V64.69H739.85Z"/><rect class="cls-2" x="754.28" y="70.3" width="0.94" height="39.97"/><rect class="cls-2" x="746.09" y="70.6" width="4.96" height="0.94"/><rect class="cls-2" x="746.09" y="76.1" width="4.96" height="0.94"/><rect class="cls-2" x="746.09" y="81.61" width="4.96" height="0.94"/><rect class="cls-2" x="746.09" y="87.11" width="4.96" height="0.94"/><rect class="cls-2" x="746.09" y="92.61" width="4.96" height="0.94"/><rect class="cls-2" x="746.09" y="98.11" width="4.96" height="0.94"/><rect class="cls-2" x="746.09" y="103.62" width="4.96" height="0.94"/><rect class="cls-2" x="746.09" y="109.12" width="4.96" height="0.94"/><rect class="cls-2" x="758.75" y="70.6" width="4.96" height="0.94"/><rect class="cls-2" x="758.75" y="76.1" width="4.96" height="0.94"/><rect class="cls-2" x="758.75" y="81.61" width="4.96" height="0.94"/><rect class="cls-2" x="758.75" y="87.11" width="4.96" height="0.94"/><rect class="cls-2" x="758.75" y="92.61" width="4.96" height="0.94"/><rect class="cls-2" x="758.75" y="98.11" width="4.96" height="0.94"/><rect class="cls-2" x="758.75" y="103.62" width="4.96" height="0.94"/><rect class="cls-2" x="758.75" y="109.12" width="4.96" height="0.94"/><rect class="cls-2" x="795.48" y="29.66" width="0.94" height="78.57"/><rect class="cls-2" x="782.45" y="29.66" width="0.94" height="78.57"/><rect class="cls-2" x="774.26" y="35.37" width="4.96" height="0.94"/><rect class="cls-2" x="774.26" y="40.87" width="4.96" height="0.94"/><rect class="cls-2" x="774.26" y="46.38" width="4.96" height="0.94"/><rect class="cls-2" x="774.26" y="51.88" width="4.96" height="0.94"/><rect class="cls-2" x="774.26" y="57.38" width="4.96" height="0.94"/><rect class="cls-2" x="774.26" y="62.88" width="4.96" height="0.94"/><rect class="cls-2" x="774.26" y="68.38" width="4.96" height="0.94"/><rect class="cls-2" x="774.26" y="73.89" width="4.96" height="0.94"/><rect class="cls-2" x="774.26" y="79.39" width="4.96" height="0.94"/><rect class="cls-2" x="774.26" y="84.89" width="4.96" height="0.94"/><rect class="cls-2" x="774.26" y="90.4" width="4.96" height="0.94"/><rect class="cls-2" x="774.26" y="95.69" width="4.96" height="0.94"/><rect class="cls-2" x="774.26" y="101.19" width="4.96" height="0.94"/><rect class="cls-2" x="774.26" y="106.69" width="4.96" height="0.94"/><rect class="cls-2" x="786.92" y="95.69" width="4.96" height="0.94"/><rect class="cls-2" x="786.92" y="101.19" width="4.96" height="0.94"/><rect class="cls-2" x="799.92" y="95.69" width="4.95" height="0.94"/><rect class="cls-2" x="799.92" y="101.19" width="4.95" height="0.94"/><rect class="cls-2" x="799.92" y="106.69" width="4.95" height="0.94"/><rect class="cls-2" x="786.93" y="29.87" width="4.95" height="0.94"/><rect class="cls-2" x="774.16" y="29.87" width="4.96" height="0.94"/><rect class="cls-2" x="786.93" y="35.37" width="4.95" height="0.94"/><rect class="cls-2" x="786.92" y="40.87" width="4.96" height="0.94"/><rect class="cls-2" x="786.92" y="46.38" width="4.96" height="0.94"/><rect class="cls-2" x="786.93" y="51.88" width="4.95" height="0.94"/><rect class="cls-2" x="786.93" y="57.38" width="4.95" height="0.94"/><rect class="cls-2" x="786.93" y="62.88" width="4.95" height="0.94"/><rect class="cls-2" x="786.92" y="68.38" width="4.96" height="0.94"/><rect class="cls-2" x="786.93" y="73.89" width="4.95" height="0.94"/><rect class="cls-2" x="786.93" y="79.39" width="4.95" height="0.94"/><rect class="cls-2" x="786.93" y="84.89" width="4.95" height="0.94"/><rect class="cls-2" x="786.93" y="90.4" width="4.95" height="0.94"/><rect class="cls-2" x="800.03" y="29.87" width="4.96" height="0.94"/><rect class="cls-2" x="800.03" y="35.37" width="4.96" height="0.94"/><rect class="cls-2" x="800.03" y="40.87" width="4.96" height="0.94"/><rect class="cls-2" x="800.03" y="46.38" width="4.96" height="0.94"/><rect class="cls-2" x="800.03" y="51.88" width="4.96" height="0.94"/><rect class="cls-2" x="800.03" y="57.38" width="4.96" height="0.94"/><rect class="cls-2" x="800.03" y="62.88" width="4.96" height="0.94"/><rect class="cls-2" x="800.03" y="68.38" width="4.96" height="0.94"/><rect class="cls-2" x="800.03" y="73.89" width="4.96" height="0.94"/><rect class="cls-2" x="800.03" y="79.39" width="4.96" height="0.94"/><rect class="cls-2" x="800.03" y="84.89" width="4.96" height="0.94"/><rect class="cls-2" x="800.03" y="90.4" width="4.96" height="0.94"/><path class="cls-2" d="M792.35,114.48h-5.89v-10h5.89Zm-5-.94h4v-8.07h-4Z"/><path class="cls-2" d="M810.61,23.92H768.3V17.85h42.31Zm-41.37-1h40.43V18.79H769.24Z"/><path class="cls-2" d="M770.68,64.78H737.36V58.14h33.32Zm-32.38-.94h31.44V59.08H738.3Z"/><path class="cls-2" d="M841.54,42.05H808.23V34.63h33.31Zm-32.37-.94H840.6V35.58H809.17Z"/><path class="cls-2" d="M364.83,113.52H331.19V5.89h33.64ZM331.75,113h32.52V6.46H331.75Z"/><path class="cls-2" d="M364.83,43.8H331.19V23.72h33.64Zm-33.08-.57h32.52V24.28H331.75Z"/><path class="cls-2" d="M364.83,82.94H331.19V62.85h33.64Zm-33.08-.57h32.52v-19H331.75Z"/><path class="cls-2" d="M364.83,113.52H331.19V5.89h33.64ZM331.75,113h32.52V6.46H331.75Z"/><path class="cls-2" d="M391.3,113.52h-27V27.46h27ZM364.83,113h25.9V28h-25.9Z"/><path class="cls-2" d="M391.3,92h-27V71.91h27Zm-26.47-.56h25.9v-19h-25.9Z"/><path class="cls-2" d="M391.3,113.52h-27V27.46h27ZM364.83,113h25.9V28h-25.9Z"/><rect class="cls-2" x="377.47" y="35.58" width="0.56" height="73.24"/><rect class="cls-2" x="370.31" y="36.1" width="4.26" height="0.56"/><rect class="cls-2" x="370.31" y="42.61" width="4.26" height="0.56"/><rect class="cls-2" x="370.31" y="49.12" width="4.26" height="0.56"/><rect class="cls-2" x="370.31" y="55.63" width="4.26" height="0.56"/><rect class="cls-2" x="370.31" y="62.14" width="4.26" height="0.56"/><rect class="cls-2" x="370.31" y="68.66" width="4.26" height="0.56"/><rect class="cls-2" x="370.31" y="75.17" width="4.26" height="0.56"/><rect class="cls-2" x="370.31" y="81.68" width="4.26" height="0.56"/><rect class="cls-2" x="370.31" y="88.19" width="4.26" height="0.56"/><rect class="cls-2" x="370.31" y="94.7" width="4.26" height="0.56"/><rect class="cls-2" x="370.31" y="101.21" width="4.26" height="0.56"/><rect class="cls-2" x="370.31" y="107.73" width="4.26" height="0.56"/><rect class="cls-2" x="381.2" y="36.1" width="4.26" height="0.56"/><rect class="cls-2" x="381.2" y="42.61" width="4.26" height="0.56"/><rect class="cls-2" x="381.2" y="49.12" width="4.26" height="0.56"/><rect class="cls-2" x="381.2" y="55.63" width="4.26" height="0.56"/><rect class="cls-2" x="381.2" y="62.14" width="4.26" height="0.56"/><rect class="cls-2" x="381.2" y="68.66" width="4.26" height="0.56"/><rect class="cls-2" x="381.2" y="75.17" width="4.26" height="0.56"/><rect class="cls-2" x="381.2" y="81.68" width="4.26" height="0.56"/><rect class="cls-2" x="381.2" y="88.19" width="4.26" height="0.56"/><rect class="cls-2" x="381.2" y="94.7" width="4.26" height="0.56"/><rect class="cls-2" x="381.2" y="101.21" width="4.26" height="0.56"/><rect class="cls-2" x="381.2" y="107.73" width="4.26" height="0.56"/><path class="cls-2" d="M331.75,113.52h-27V54h27ZM305.29,113h25.9V54.61h-25.9Z"/><path class="cls-2" d="M331.75,92h-27V71.91h27Zm-26.46-.56h25.9v-19h-25.9Z"/><path class="cls-2" d="M331.75,113.52h-27V54h27ZM305.29,113h25.9V54.61h-25.9Z"/><rect class="cls-2" x="317.93" y="61.52" width="0.56" height="47.3"/><rect class="cls-2" x="310.77" y="62.14" width="4.26" height="0.56"/><rect class="cls-2" x="310.77" y="68.66" width="4.26" height="0.56"/><rect class="cls-2" x="310.77" y="75.17" width="4.26" height="0.56"/><rect class="cls-2" x="310.77" y="81.68" width="4.26" height="0.56"/><rect class="cls-2" x="310.77" y="88.19" width="4.26" height="0.56"/><rect class="cls-2" x="310.77" y="94.7" width="4.26" height="0.56"/><rect class="cls-2" x="310.77" y="101.21" width="4.26" height="0.56"/><rect class="cls-2" x="310.77" y="107.73" width="4.26" height="0.56"/><rect class="cls-2" x="321.65" y="62.14" width="4.26" height="0.56"/><rect class="cls-2" x="321.65" y="68.66" width="4.26" height="0.56"/><rect class="cls-2" x="321.65" y="75.17" width="4.26" height="0.56"/><rect class="cls-2" x="321.65" y="81.68" width="4.26" height="0.56"/><rect class="cls-2" x="321.65" y="88.19" width="4.26" height="0.56"/><rect class="cls-2" x="321.65" y="94.7" width="4.26" height="0.56"/><rect class="cls-2" x="321.65" y="101.21" width="4.26" height="0.56"/><rect class="cls-2" x="321.65" y="107.73" width="4.26" height="0.56"/><rect class="cls-2" x="353.33" y="13.42" width="0.56" height="92.98"/><rect class="cls-2" x="342.13" y="13.42" width="0.56" height="92.98"/><rect class="cls-2" x="334.97" y="20.45" width="4.26" height="0.56"/><rect class="cls-2" x="334.97" y="26.96" width="4.26" height="0.56"/><rect class="cls-2" x="334.97" y="33.48" width="4.26" height="0.56"/><rect class="cls-2" x="334.97" y="39.99" width="4.26" height="0.56"/><rect class="cls-2" x="334.97" y="46.5" width="4.26" height="0.56"/><rect class="cls-2" x="334.97" y="53.01" width="4.26" height="0.56"/><rect class="cls-2" x="334.97" y="59.52" width="4.26" height="0.56"/><rect class="cls-2" x="334.97" y="66.04" width="4.26" height="0.56"/><rect class="cls-2" x="334.97" y="72.55" width="4.26" height="0.56"/><rect class="cls-2" x="334.97" y="79.06" width="4.26" height="0.56"/><rect class="cls-2" x="334.97" y="85.57" width="4.26" height="0.56"/><rect class="cls-2" x="334.97" y="91.83" width="4.26" height="0.56"/><rect class="cls-2" x="334.97" y="98.34" width="4.26" height="0.56"/><rect class="cls-2" x="334.97" y="104.85" width="4.26" height="0.56"/><rect class="cls-2" x="345.85" y="91.83" width="4.26" height="0.56"/><rect class="cls-2" x="345.85" y="98.34" width="4.26" height="0.56"/><rect class="cls-2" x="357.02" y="91.83" width="4.25" height="0.56"/><rect class="cls-2" x="357.02" y="98.34" width="4.25" height="0.56"/><rect class="cls-2" x="357.02" y="104.85" width="4.25" height="0.56"/><rect class="cls-2" x="345.85" y="13.94" width="4.26" height="0.56"/><rect class="cls-2" x="334.89" y="13.94" width="4.26" height="0.56"/><rect class="cls-2" x="345.85" y="20.45" width="4.26" height="0.56"/><rect class="cls-2" x="345.85" y="26.96" width="4.26" height="0.56"/><rect class="cls-2" x="345.85" y="33.48" width="4.26" height="0.56"/><rect class="cls-2" x="345.85" y="39.99" width="4.26" height="0.56"/><rect class="cls-2" x="345.85" y="46.5" width="4.26" height="0.56"/><rect class="cls-2" x="345.85" y="53.01" width="4.26" height="0.56"/><rect class="cls-2" x="345.85" y="59.52" width="4.26" height="0.56"/><rect class="cls-2" x="345.85" y="66.04" width="4.26" height="0.56"/><rect class="cls-2" x="345.85" y="72.55" width="4.26" height="0.56"/><rect class="cls-2" x="345.85" y="79.06" width="4.26" height="0.56"/><rect class="cls-2" x="345.85" y="85.57" width="4.26" height="0.56"/><rect class="cls-2" x="357.11" y="13.94" width="4.26" height="0.56"/><rect class="cls-2" x="357.11" y="20.45" width="4.26" height="0.56"/><rect class="cls-2" x="357.11" y="26.96" width="4.26" height="0.56"/><rect class="cls-2" x="357.11" y="33.48" width="4.26" height="0.56"/><rect class="cls-2" x="357.11" y="39.99" width="4.26" height="0.56"/><rect class="cls-2" x="357.11" y="46.5" width="4.26" height="0.56"/><rect class="cls-2" x="357.11" y="53.01" width="4.26" height="0.56"/><rect class="cls-2" x="357.11" y="59.52" width="4.26" height="0.56"/><rect class="cls-2" x="357.11" y="66.04" width="4.26" height="0.56"/><rect class="cls-2" x="357.11" y="72.55" width="4.26" height="0.56"/><rect class="cls-2" x="357.11" y="79.06" width="4.26" height="0.56"/><rect class="cls-2" x="357.11" y="85.57" width="4.26" height="0.56"/><path class="cls-2" d="M350.39,113.52h-4.82V102.29h4.82Zm-4.25-.56h3.69v-10.1h-3.69Z"/><path class="cls-2" d="M366.08,6.35H330V-.28h36.11Zm-35.54-.57h35V.28h-35Z"/><path class="cls-2" d="M331.77,54.71H303.39V47.4h28.38ZM304,54.15h27.25V48H304Z"/><path class="cls-2" d="M392.66,27.81H364.28V19.58h28.38Zm-27.82-.56h27.25v-7.1H364.84Z"/><polygon class="cls-1" points="439.6 83.34 410.2 83.34 410.2 41.84 410.2 17.29 439.6 17.29 439.6 83.34"/><path class="cls-2" d="M439.86,83.6H410V17h29.91Zm-29.41-.51h28.9V17.54h-28.9Z"/><polyline class="cls-1" points="410.2 41.84 401.24 41.84 401.24 83.22 448.08 83.22 448.08 42.22 439.6 42.22"/><polygon class="cls-2" points="448.33 83.47 400.99 83.47 400.99 41.59 410.2 41.59 410.2 42.09 401.49 42.09 401.49 82.96 447.83 82.96 447.83 42.47 439.6 42.47 439.6 41.97 448.33 41.97 448.33 83.47"/><rect class="cls-1" x="415.08" y="22.48" width="19.32" height="4.93"/><path class="cls-2" d="M434.65,27.67H414.83V22.23h19.82Zm-19.32-.51h18.81V22.73H415.33Z"/><rect class="cls-1" x="415.08" y="31.78" width="19.32" height="4.94"/><path class="cls-2" d="M434.65,37H414.83V31.53h19.82Zm-19.32-.51h18.81V32H415.33Z"/><rect class="cls-1" x="415.08" y="41.08" width="19.32" height="4.93"/><path class="cls-2" d="M434.65,46.27H414.83V40.83h19.82Zm-19.32-.51h18.81V41.33H415.33Z"/><rect class="cls-1" x="415.08" y="50.76" width="19.32" height="4.93"/><path class="cls-2" d="M434.65,56H414.83V50.51h19.82Zm-19.32-.51h18.81V51H415.33Z"/><rect class="cls-1" x="415.08" y="59.87" width="19.32" height="4.94"/><path class="cls-2" d="M434.65,65.06H414.83V59.62h19.82Zm-19.32-.51h18.81V60.12H415.33Z"/><rect class="cls-1" x="415.08" y="69.74" width="9.82" height="13.1"/><path class="cls-2" d="M425.15,83.09H414.83V69.49h10.32Zm-9.82-.51h9.32V70h-9.32Z"/><rect class="cls-1" x="424.9" y="69.74" width="9.82" height="13.1"/><path class="cls-2" d="M435,83.09H424.65V69.49H435Zm-9.82-.51h9.32V70h-9.32Z"/><rect class="cls-1" x="404.19" y="45.26" width="3.65" height="4.81"/><path class="cls-2" d="M408.09,50.32h-4.15V45h4.15Zm-3.65-.51h3.15v-4.3h-3.15Z"/><rect class="cls-1" x="403.98" y="53.23" width="3.65" height="4.81"/><path class="cls-2" d="M407.88,58.29h-4.16V53h4.16Zm-3.65-.51h3.14v-4.3h-3.14Z"/><rect class="cls-1" x="403.98" y="60.95" width="3.65" height="4.81"/><path class="cls-2" d="M407.88,66h-4.16V60.69h4.16Zm-3.65-.51h3.14V61.2h-3.14Z"/><rect class="cls-1" x="403.98" y="68.92" width="3.65" height="4.81"/><path class="cls-2" d="M407.88,74h-4.16V68.66h4.16Zm-3.65-.51h3.14v-4.3h-3.14Z"/><rect class="cls-1" x="442.07" y="45.26" width="3.65" height="4.81"/><path class="cls-2" d="M446,50.32h-4.15V45H446Zm-3.65-.51h3.15v-4.3h-3.15Z"/><rect class="cls-1" x="441.86" y="53.23" width="3.65" height="4.81"/><path class="cls-2" d="M445.76,58.29H441.6V53h4.16Zm-3.65-.51h3.14v-4.3h-3.14Z"/><rect class="cls-1" x="441.86" y="60.95" width="3.65" height="4.81"/><path class="cls-2" d="M445.76,66H441.6V60.69h4.16Zm-3.65-.51h3.14V61.2h-3.14Z"/><rect class="cls-1" x="441.86" y="68.92" width="3.65" height="4.81"/><path class="cls-2" d="M445.76,74H441.6V68.66h4.16Zm-3.65-.51h3.14v-4.3h-3.14Z"/><rect class="cls-1" x="453.37" y="12.29" width="28.61" height="101.88"/><path class="cls-2" d="M482.3,114.49H453.05V12H482.3Zm-28.61-.64h28V12.61h-28Z"/><rect class="cls-1" x="458.2" y="25.2" width="8.17" height="10.05"/><path class="cls-2" d="M466.7,35.57h-8.82V24.88h8.82Zm-8.18-.65h7.53v-9.4h-7.53Z"/><rect class="cls-1" x="469.72" y="25.2" width="8.17" height="10.05"/><path class="cls-2" d="M478.22,35.57H469.4V24.88h8.82ZM470,34.92h7.53v-9.4H470Z"/><rect class="cls-1" x="458.2" y="41.7" width="8.17" height="10.05"/><path class="cls-2" d="M466.7,52.07h-8.82V41.38h8.82Zm-8.18-.65h7.53V42h-7.53Z"/><rect class="cls-1" x="469.72" y="41.7" width="8.17" height="10.05"/><path class="cls-2" d="M478.22,52.07H469.4V41.38h8.82ZM470,51.42h7.53V42H470Z"/><rect class="cls-1" x="458.2" y="56.77" width="8.17" height="10.05"/><path class="cls-2" d="M466.7,67.14h-8.82V56.45h8.82Zm-8.18-.65h7.53v-9.4h-7.53Z"/><rect class="cls-1" x="469.72" y="56.77" width="8.17" height="10.05"/><path class="cls-2" d="M478.22,67.14H469.4V56.45h8.82ZM470,66.49h7.53v-9.4H470Z"/><rect class="cls-1" x="458.2" y="73.27" width="8.17" height="10.04"/><path class="cls-2" d="M466.7,83.64h-8.82V73h8.82ZM458.52,83h7.53V73.6h-7.53Z"/><rect class="cls-1" x="469.72" y="73.27" width="8.17" height="10.04"/><path class="cls-2" d="M478.22,83.64H469.4V73h8.82ZM470,83h7.53V73.6H470Z"/><rect class="cls-1" x="352.89" y="61.1" width="32.14" height="52.7"/><path class="cls-2" d="M385.31,114.07h-32.7V60.81h32.7Zm-32.14-.56h31.57V61.38H353.17Z"/><rect class="cls-1" x="438.2" y="67.68" width="21.36" height="46.11"/><path class="cls-2" d="M459.84,114.07H437.92V67.4h21.92Zm-21.35-.56h20.79V68H438.49Z"/><rect class="cls-1" x="385.03" y="78.96" width="53.09" height="34.83"/><path class="cls-2" d="M438.4,114.07H384.74V78.68H438.4Zm-53.09-.56h52.53V79.24H385.31Z"/><rect class="cls-1" x="350.09" y="58" width="37.33" height="3.09"/><path class="cls-2" d="M387.7,61.38H349.81V57.72H387.7Zm-37.32-.57h36.76V58.28H350.38Z"/><rect class="cls-1" x="382.43" y="75.67" width="57.59" height="3.29"/><path class="cls-2" d="M440.3,79.24H382.15V75.39H440.3Zm-57.59-.56h57V76h-57Z"/><rect class="cls-1" x="436.08" y="65.49" width="25.5" height="2.2"/><path class="cls-2" d="M461.86,68H435.79V65.21h26.07Zm-25.5-.57h24.93V65.77H436.36Z"/><rect class="cls-1" x="356.78" y="64.99" width="2.89" height="6.14"/><path class="cls-2" d="M360,71.41H356.5v-6.7H360Zm-2.9-.56h2.33V65.27h-2.33Z"/><rect class="cls-1" x="359.73" y="64.99" width="2.89" height="6.14"/><path class="cls-2" d="M362.9,71.41h-3.46v-6.7h3.46ZM360,70.85h2.33V65.27H360Z"/><rect class="cls-1" x="356.78" y="74.92" width="2.89" height="6.14"/><path class="cls-2" d="M360,81.34H356.5v-6.7H360Zm-2.9-.57h2.33V75.2h-2.33Z"/><rect class="cls-1" x="359.73" y="74.92" width="2.89" height="6.14"/><path class="cls-2" d="M362.9,81.34h-3.46v-6.7h3.46ZM360,80.77h2.33V75.2H360Z"/><rect class="cls-1" x="356.78" y="85.05" width="2.89" height="6.14"/><path class="cls-2" d="M360,91.47H356.5v-6.7H360Zm-2.9-.57h2.33V85.33h-2.33Z"/><rect class="cls-1" x="359.73" y="85.05" width="2.89" height="6.14"/><path class="cls-2" d="M362.9,91.47h-3.46v-6.7h3.46ZM360,90.9h2.33V85.33H360Z"/><rect class="cls-1" x="356.78" y="95.18" width="2.89" height="6.14"/><path class="cls-2" d="M360,101.6H356.5V94.9H360Zm-2.9-.56h2.33V95.46h-2.33Z"/><rect class="cls-1" x="359.73" y="95.18" width="2.89" height="6.14"/><path class="cls-2" d="M362.9,101.6h-3.46V94.9h3.46ZM360,101h2.33V95.46H360Z"/><rect class="cls-1" x="365.81" y="64.99" width="2.89" height="6.14"/><path class="cls-2" d="M369,71.41h-3.46v-6.7H369Zm-2.89-.56h2.33V65.27H366.1Z"/><rect class="cls-1" x="368.76" y="64.99" width="2.89" height="6.14"/><path class="cls-2" d="M371.93,71.41h-3.45v-6.7h3.45ZM369,70.85h2.33V65.27H369Z"/><rect class="cls-1" x="365.81" y="74.92" width="2.89" height="6.14"/><path class="cls-2" d="M369,81.34h-3.46v-6.7H369Zm-2.89-.57h2.33V75.2H366.1Z"/><rect class="cls-1" x="368.76" y="74.92" width="2.89" height="6.14"/><path class="cls-2" d="M371.93,81.34h-3.45v-6.7h3.45ZM369,80.77h2.33V75.2H369Z"/><rect class="cls-1" x="365.81" y="85.05" width="2.89" height="6.14"/><path class="cls-2" d="M369,91.47h-3.46v-6.7H369Zm-2.89-.57h2.33V85.33H366.1Z"/><rect class="cls-1" x="368.76" y="85.05" width="2.89" height="6.14"/><path class="cls-2" d="M371.93,91.47h-3.45v-6.7h3.45ZM369,90.9h2.33V85.33H369Z"/><rect class="cls-1" x="365.81" y="95.18" width="2.89" height="6.14"/><path class="cls-2" d="M369,101.6h-3.46V94.9H369ZM366.1,101h2.33V95.46H366.1Z"/><rect class="cls-1" x="368.76" y="95.18" width="2.89" height="6.14"/><path class="cls-2" d="M371.93,101.6h-3.45V94.9h3.45ZM369,101h2.33V95.46H369Z"/><rect class="cls-1" x="375.05" y="64.99" width="2.89" height="6.14"/><path class="cls-2" d="M378.22,71.41h-3.46v-6.7h3.46Zm-2.89-.56h2.33V65.27h-2.33Z"/><rect class="cls-1" x="377.99" y="64.99" width="2.89" height="6.14"/><path class="cls-2" d="M381.17,71.41h-3.46v-6.7h3.46Zm-2.9-.56h2.33V65.27h-2.33Z"/><rect class="cls-1" x="375.05" y="74.92" width="2.89" height="6.14"/><path class="cls-2" d="M378.22,81.34h-3.46v-6.7h3.46Zm-2.89-.57h2.33V75.2h-2.33Z"/><rect class="cls-1" x="377.99" y="74.92" width="2.89" height="6.14"/><path class="cls-2" d="M381.17,81.34h-3.46v-6.7h3.46Zm-2.9-.57h2.33V75.2h-2.33Z"/><rect class="cls-1" x="375.05" y="85.05" width="2.89" height="6.14"/><path class="cls-2" d="M378.22,91.47h-3.46v-6.7h3.46Zm-2.89-.57h2.33V85.33h-2.33Z"/><rect class="cls-1" x="377.99" y="85.05" width="2.89" height="6.14"/><path class="cls-2" d="M381.17,91.47h-3.46v-6.7h3.46Zm-2.9-.57h2.33V85.33h-2.33Z"/><rect class="cls-1" x="387.72" y="81.09" width="3.28" height="10.08"/><path class="cls-2" d="M391.28,91.45h-3.84V80.81h3.84ZM388,90.89h2.72V81.37H388Z"/><rect class="cls-1" x="391.06" y="81.09" width="3.28" height="10.08"/><path class="cls-2" d="M394.62,91.45h-3.84V80.81h3.84Zm-3.28-.56h2.72V81.37h-2.72Z"/><rect class="cls-1" x="397.93" y="81.09" width="3.28" height="10.08"/><path class="cls-2" d="M401.5,91.45h-3.85V80.81h3.85Zm-3.28-.56h2.71V81.37h-2.71Z"/><rect class="cls-1" x="401.27" y="81.09" width="3.28" height="10.08"/><path class="cls-2" d="M404.84,91.45H401V80.81h3.85Zm-3.29-.56h2.72V81.37h-2.72Z"/><rect class="cls-1" x="408.25" y="81.09" width="3.28" height="10.08"/><path class="cls-2" d="M411.81,91.45H408V80.81h3.84Zm-3.28-.56h2.72V81.37h-2.72Z"/><rect class="cls-1" x="411.59" y="81.09" width="3.28" height="10.08"/><path class="cls-2" d="M415.15,91.45H411.3V80.81h3.85Zm-3.28-.56h2.71V81.37h-2.71Z"/><rect class="cls-1" x="418.43" y="81.09" width="3.28" height="10.08"/><path class="cls-2" d="M422,91.45h-3.85V80.81H422Zm-3.28-.56h2.72V81.37h-2.72Z"/><rect class="cls-1" x="421.77" y="81.09" width="3.28" height="10.08"/><path class="cls-2" d="M425.33,91.45h-3.85V80.81h3.85Zm-3.28-.56h2.72V81.37h-2.72Z"/><rect class="cls-1" x="428.31" y="81.09" width="3.28" height="10.08"/><path class="cls-2" d="M431.87,91.45H428V80.81h3.84Zm-3.28-.56h2.72V81.37h-2.72Z"/><rect class="cls-1" x="431.65" y="81.09" width="3.28" height="10.08"/><path class="cls-2" d="M435.21,91.45h-3.85V80.81h3.85Zm-3.28-.56h2.72V81.37h-2.72Z"/><rect class="cls-1" x="428.31" y="94.07" width="3.28" height="6.45"/><path class="cls-2" d="M431.87,100.8H428v-7h3.84Zm-3.28-.56h2.72V94.35h-2.72Z"/><rect class="cls-1" x="431.65" y="94.07" width="3.28" height="6.45"/><path class="cls-2" d="M435.21,100.8h-3.85v-7h3.85Zm-3.28-.56h2.72V94.35h-2.72Z"/><rect class="cls-1" x="387.62" y="94.07" width="3.28" height="6.45"/><path class="cls-2" d="M391.19,100.8h-3.85v-7h3.85Zm-3.29-.56h2.72V94.35H387.9Z"/><rect class="cls-1" x="390.96" y="94.07" width="3.28" height="6.45"/><path class="cls-2" d="M394.52,100.8h-3.84v-7h3.84Zm-3.28-.56H394V94.35h-2.72Z"/><rect class="cls-1" x="375.05" y="95.18" width="2.89" height="6.14"/><path class="cls-2" d="M378.22,101.6h-3.46V94.9h3.46Zm-2.89-.56h2.33V95.46h-2.33Z"/><rect class="cls-1" x="377.99" y="95.18" width="2.89" height="6.14"/><path class="cls-2" d="M381.17,101.6h-3.46V94.9h3.46Zm-2.9-.56h2.33V95.46h-2.33Z"/><path class="cls-2" d="M384.78,107.79H352.89a.29.29,0,0,1,0-.57h31.89a.29.29,0,0,1,0,.57Z"/><path class="cls-2" d="M356.43,111.28h-3.49a.28.28,0,0,1,0-.56h3.49a.28.28,0,1,1,0,.56Z"/><path class="cls-2" d="M352.79,104.29h-8.38a.28.28,0,0,1-.29-.28.29.29,0,0,1,.29-.28h8.38a.28.28,0,0,1,.28.28A.27.27,0,0,1,352.79,104.29Z"/><path class="cls-2" d="M385,111.28h-3.5a.28.28,0,1,1,0-.56H385a.28.28,0,1,1,0,.56Z"/><path class="cls-2" d="M459.46,107.79H438.09a.29.29,0,0,1,0-.57h21.37a.29.29,0,0,1,0,.57Z"/><path class="cls-2" d="M440.46,111.28h-2.34a.28.28,0,1,1,0-.56h2.34a.28.28,0,0,1,0,.56Z"/><path class="cls-2" d="M459.6,111.28h-2.35a.28.28,0,0,1,0-.56h2.35a.28.28,0,1,1,0,.56Z"/><rect class="cls-1" x="334.93" y="97.18" width="17.96" height="3.49"/><path class="cls-2" d="M352.89,101h-18a.29.29,0,0,1-.29-.28V97.18a.29.29,0,0,1,.29-.29h18a.29.29,0,0,1,.28.29v3.49A.29.29,0,0,1,352.89,101Zm-17.68-.56h17.4V97.46h-17.4Z"/><rect class="cls-1" x="335.97" y="100.67" width="3.14" height="13.12"/><path class="cls-2" d="M339.12,114.07H336a.28.28,0,0,1-.28-.28V100.67a.28.28,0,0,1,.28-.28h3.15a.28.28,0,0,1,.28.28v13.12A.28.28,0,0,1,339.12,114.07Zm-2.87-.56h2.58V101h-2.58Z"/><rect class="cls-1" x="442.16" y="70.18" width="2.89" height="6.14"/><path class="cls-2" d="M445.34,76.6h-3.46V69.9h3.46ZM442.45,76h2.33V70.46h-2.33Z"/><rect class="cls-1" x="445.11" y="70.18" width="2.89" height="6.14"/><path class="cls-2" d="M448.28,76.6h-3.45V69.9h3.45ZM445.39,76h2.33V70.46h-2.33Z"/><rect class="cls-1" x="442.16" y="79.41" width="2.89" height="6.14"/><path class="cls-2" d="M445.34,85.83h-3.46v-6.7h3.46Zm-2.89-.56h2.33V79.69h-2.33Z"/><rect class="cls-1" x="445.11" y="79.41" width="2.89" height="6.14"/><path class="cls-2" d="M448.28,85.83h-3.45v-6.7h3.45Zm-2.89-.56h2.33V79.69h-2.33Z"/><rect class="cls-1" x="442.16" y="88.84" width="2.89" height="6.14"/><path class="cls-2" d="M445.34,95.26h-3.46v-6.7h3.46Zm-2.89-.56h2.33V89.12h-2.33Z"/><rect class="cls-1" x="445.11" y="88.84" width="2.89" height="6.14"/><path class="cls-2" d="M448.28,95.26h-3.45v-6.7h3.45Zm-2.89-.56h2.33V89.12h-2.33Z"/><rect class="cls-1" x="442.16" y="98.02" width="2.89" height="6.14"/><path class="cls-2" d="M445.34,104.44h-3.46v-6.7h3.46Zm-2.89-.56h2.33V98.31h-2.33Z"/><rect class="cls-1" x="445.11" y="98.02" width="2.89" height="6.14"/><path class="cls-2" d="M448.28,104.44h-3.45v-6.7h3.45Zm-2.89-.56h2.33V98.31h-2.33Z"/><rect class="cls-1" x="450.55" y="70.18" width="2.89" height="6.14"/><path class="cls-2" d="M453.72,76.6h-3.46V69.9h3.46ZM450.83,76h2.33V70.46h-2.33Z"/><rect class="cls-1" x="453.49" y="70.18" width="2.89" height="6.14"/><path class="cls-2" d="M456.67,76.6h-3.46V69.9h3.46Zm-2.9-.57h2.33V70.46h-2.33Z"/><rect class="cls-1" x="450.55" y="79.41" width="2.89" height="6.14"/><path class="cls-2" d="M453.72,85.83h-3.46v-6.7h3.46Zm-2.89-.56h2.33V79.69h-2.33Z"/><rect class="cls-1" x="453.49" y="79.41" width="2.89" height="6.14"/><path class="cls-2" d="M456.67,85.83h-3.46v-6.7h3.46Zm-2.9-.56h2.33V79.69h-2.33Z"/><rect class="cls-1" x="450.55" y="88.84" width="2.89" height="6.14"/><path class="cls-2" d="M453.72,95.26h-3.46v-6.7h3.46Zm-2.89-.56h2.33V89.12h-2.33Z"/><rect class="cls-1" x="453.49" y="88.84" width="2.89" height="6.14"/><path class="cls-2" d="M456.67,95.26h-3.46v-6.7h3.46Zm-2.9-.56h2.33V89.12h-2.33Z"/><rect class="cls-1" x="450.55" y="98.02" width="2.89" height="6.14"/><path class="cls-2" d="M453.72,104.44h-3.46v-6.7h3.46Zm-2.89-.56h2.33V98.31h-2.33Z"/><rect class="cls-1" x="453.49" y="98.02" width="2.89" height="6.14"/><path class="cls-2" d="M456.67,104.44h-3.46v-6.7h3.46Zm-2.9-.56h2.33V98.31h-2.33Z"/><rect class="cls-1" x="397.85" y="94.13" width="27.2" height="6.54"/><path class="cls-2" d="M425.33,101H397.57v-7.1h27.76Zm-27.2-.56h26.64v-6H398.13Z"/><rect class="cls-1" x="229.46" y="100.35" width="99.84" height="2.77"/><rect class="cls-1" x="232.32" y="90.47" width="32.13" height="22.51"/><rect class="cls-1" x="287.65" y="90.47" width="38.53" height="22.51"/><rect class="cls-1" x="275.01" y="76.19" width="38.53" height="22.51"/><rect class="cls-1" x="244.87" y="76.36" width="20.26" height="18.44"/><rect class="cls-1" x="263.18" y="50.48" width="31.81" height="1.4"/><path class="cls-2" d="M295.25,52.14H262.92V50.22h32.33Zm-31.81-.52h31.29v-.88H263.44Z"/><rect class="cls-1" x="264.5" y="51.88" width="29.45" height="2.8"/><path class="cls-2" d="M294.22,55h-30V51.62h30Zm-29.46-.52H293.7V52.14H264.76Z"/><rect class="cls-1" x="263.18" y="54.69" width="31.81" height="1.4"/><path class="cls-2" d="M295.25,56.35H262.92V54.43h32.33Zm-31.81-.52h31.29V55H263.44Z"/><rect class="cls-1" x="264.5" y="56.09" width="29.45" height="4.21"/><path class="cls-2" d="M294.22,60.56h-30V55.83h30ZM264.76,60H293.7V56.35H264.76Z"/><rect class="cls-1" x="263.18" y="60.22" width="31.81" height="1.4"/><path class="cls-2" d="M295.25,61.89H262.92V60h32.33Zm-31.81-.52h31.29v-.89H263.44Z"/><rect class="cls-1" x="264.5" y="61.63" width="29.45" height="4.21"/><path class="cls-2" d="M294.22,66.09h-30V61.37h30Zm-29.46-.52H293.7V61.89H264.76Z"/><rect class="cls-1" x="263.18" y="65.91" width="31.81" height="1.4"/><path class="cls-2" d="M295.25,67.57H262.92V65.65h32.33Zm-31.81-.52h31.29v-.88H263.44Z"/><rect class="cls-1" x="264.5" y="67.31" width="29.45" height="4.21"/><path class="cls-2" d="M294.22,71.78h-30V67.05h30Zm-29.46-.52H293.7V67.57H264.76Z"/><rect class="cls-1" x="263.18" y="71.44" width="31.81" height="1.4"/><path class="cls-2" d="M295.25,73.1H262.92V71.18h32.33Zm-31.81-.52h31.29V71.7H263.44Z"/><rect class="cls-1" x="264.5" y="72.84" width="29.45" height="4.21"/><path class="cls-2" d="M294.22,77.31h-30V72.58h30Zm-29.46-.52H293.7V73.1H264.76Z"/><rect class="cls-1" x="263.18" y="77.05" width="31.81" height="1.4"/><path class="cls-2" d="M295.25,78.71H262.92V76.79h32.33Zm-31.81-.52h31.29v-.88H263.44Z"/><rect class="cls-1" x="264.5" y="78.45" width="29.45" height="4.21"/><path class="cls-2" d="M294.22,82.92h-30V78.19h30Zm-29.46-.52H293.7V78.71H264.76Z"/><rect class="cls-1" x="263.18" y="82.59" width="31.81" height="1.4"/><path class="cls-2" d="M295.25,84.25H262.92V82.33h32.33Zm-31.81-.52h31.29v-.88H263.44Z"/><rect class="cls-1" x="264.5" y="83.99" width="29.45" height="4.21"/><path class="cls-2" d="M294.22,88.46h-30V83.73h30Zm-29.46-.52H293.7V84.25H264.76Z"/><rect class="cls-1" x="263.18" y="88.12" width="31.81" height="1.4"/><path class="cls-2" d="M295.25,89.79H262.92V87.86h32.33Zm-31.81-.52h31.29v-.89H263.44Z"/><rect class="cls-1" x="264.5" y="89.53" width="29.45" height="4.21"/><path class="cls-2" d="M294.22,94h-30V89.27h30Zm-29.46-.51H293.7V89.79H264.76Z"/><rect class="cls-1" x="263.18" y="93.66" width="31.81" height="1.4"/><path class="cls-2" d="M295.25,95.32H262.92V93.4h32.33Zm-31.81-.52h31.29v-.88H263.44Z"/><rect class="cls-1" x="264.5" y="95.06" width="29.45" height="18.97"/><path class="cls-2" d="M294.22,114.29h-30V94.8h30Zm-29.46-.52H293.7V95.32H264.76Z"/><rect class="cls-1" x="265.69" y="56.09" width="13.51" height="4.06"/><path class="cls-2" d="M279.45,60.41h-14V55.83h14ZM266,59.89h13V56.35H266Z"/><rect class="cls-1" x="279.86" y="56.09" width="13.51" height="4.06"/><path class="cls-2" d="M293.63,60.41h-14V55.83h14Zm-13.51-.52h13V56.35h-13Z"/><rect class="cls-1" x="265.69" y="61.63" width="13.51" height="4.06"/><path class="cls-2" d="M279.45,65.94h-14V61.37h14ZM266,65.43h13V61.89H266Z"/><rect class="cls-1" x="279.86" y="61.63" width="13.51" height="4.06"/><path class="cls-2" d="M293.63,65.94h-14V61.37h14Zm-13.51-.51h13V61.89h-13Z"/><rect class="cls-1" x="265.69" y="67.31" width="13.51" height="4.06"/><path class="cls-2" d="M279.45,71.63h-14V67.05h14ZM266,71.11h13V67.57H266Z"/><rect class="cls-1" x="279.86" y="67.31" width="13.51" height="4.06"/><path class="cls-2" d="M293.63,71.63h-14V67.05h14Zm-13.51-.52h13V67.57h-13Z"/><rect class="cls-1" x="265.69" y="72.92" width="13.51" height="4.06"/><path class="cls-2" d="M279.45,77.24h-14V72.66h14ZM266,76.72h13V73.18H266Z"/><rect class="cls-1" x="279.86" y="72.92" width="13.51" height="4.06"/><path class="cls-2" d="M293.63,77.24h-14V72.66h14Zm-13.51-.52h13V73.18h-13Z"/><rect class="cls-1" x="265.69" y="78.53" width="13.51" height="4.06"/><path class="cls-2" d="M279.45,82.85h-14V78.27h14ZM266,82.33h13V78.79H266Z"/><rect class="cls-1" x="279.86" y="78.53" width="13.51" height="4.06"/><path class="cls-2" d="M293.63,82.85h-14V78.27h14Zm-13.51-.52h13V78.79h-13Z"/><rect class="cls-1" x="265.69" y="83.99" width="13.51" height="4.06"/><path class="cls-2" d="M279.45,88.31h-14V83.73h14ZM266,87.79h13V84.25H266Z"/><rect class="cls-1" x="279.86" y="83.99" width="13.51" height="4.06"/><path class="cls-2" d="M293.63,88.31h-14V83.73h14Zm-13.51-.52h13V84.25h-13Z"/><rect class="cls-1" x="265.69" y="89.6" width="13.51" height="4.06"/><path class="cls-2" d="M279.45,93.92h-14V89.34h14ZM266,93.4h13V89.86H266Z"/><rect class="cls-1" x="279.86" y="89.6" width="13.51" height="4.06"/><path class="cls-2" d="M293.63,93.92h-14V89.34h14Zm-13.51-.52h13V89.86h-13Z"/><rect class="cls-1" x="265.69" y="95.06" width="13.51" height="4.06"/><path class="cls-2" d="M279.45,99.38h-14V94.8h14ZM266,98.86h13V95.32H266Z"/><rect class="cls-1" x="279.86" y="95.06" width="13.51" height="4.06"/><path class="cls-2" d="M293.63,99.38h-14V94.8h14Zm-13.51-.52h13V95.32h-13Z"/><rect class="cls-1" x="266.42" y="99.12" width="25.91" height="4.06"/><path class="cls-2" d="M292.59,103.44H266.16V98.86h26.43Zm-25.91-.52h25.39V99.38H266.68Z"/><rect class="cls-1" x="268.79" y="103.18" width="1.7" height="10.93"/><path class="cls-2" d="M270.74,114.37h-2.21V102.92h2.21Zm-1.69-.52h1.17V103.44h-1.17Z"/><rect class="cls-1" x="270.48" y="103.18" width="2.51" height="10.93"/><path class="cls-2" d="M273.25,114.37h-3V102.92h3Zm-2.51-.52h2V103.44h-2Z"/><rect class="cls-1" x="288.57" y="103.18" width="1.7" height="10.93"/><path class="cls-2" d="M290.53,114.37h-2.22V102.92h2.22Zm-1.7-.52H290V103.44h-1.18Z"/><rect class="cls-1" x="286.06" y="103.18" width="2.51" height="10.93"/><path class="cls-2" d="M288.83,114.37h-3V102.92h3Zm-2.51-.52h2V103.44h-2Z"/><rect class="cls-1" x="273.07" y="111.89" width="12.99" height="1.11"/><path class="cls-2" d="M286.32,113.26H272.81v-1.63h13.51Zm-13-.52H285.8v-.59H273.33Z"/><rect class="cls-1" x="274.84" y="103.18" width="4.43" height="8.71"/><path class="cls-2" d="M279.53,112.15h-4.95v-9.23h4.95Zm-4.43-.52H279v-8.19H275.1Z"/><rect class="cls-1" x="280.01" y="103.18" width="4.43" height="8.71"/><path class="cls-2" d="M284.69,112.15h-4.95v-9.23h4.95Zm-4.43-.52h3.91v-8.19h-3.91Z"/><polyline class="cls-1" points="264.36 76.24 244.72 76.24 244.72 89.53"/><polygon class="cls-2" points="244.98 89.53 244.46 89.53 244.46 75.98 264.36 75.98 264.36 76.5 244.98 76.5 244.98 89.53"/><polyline class="cls-1" points="263.18 89.53 231.73 89.53 231.73 90.64 264.43 90.64"/><polygon class="cls-2" points="264.43 90.89 231.47 90.89 231.47 89.27 263.18 89.27 263.18 89.79 231.99 89.79 231.99 90.38 264.43 90.38 264.43 90.89"/><rect class="cls-2" x="232.14" y="90.71" width="0.52" height="9.45"/><rect class="cls-2" x="232.14" y="103.11" width="0.52" height="8.86"/><rect class="cls-2" x="241.88" y="103.11" width="0.52" height="8.86"/><rect class="cls-2" x="242.91" y="103.11" width="0.52" height="8.86"/><rect class="cls-2" x="253.69" y="103.11" width="0.52" height="8.86"/><rect class="cls-2" x="254.72" y="103.11" width="0.52" height="8.86"/><polyline class="cls-1" points="264.5 100.3 229.37 100.3 229.37 103.11 264.43 103.11"/><polygon class="cls-2" points="264.43 103.37 229.11 103.37 229.11 100.04 264.5 100.04 264.5 100.56 229.63 100.56 229.63 102.85 264.43 102.85 264.43 103.37"/><rect class="cls-1" x="230.77" y="111.82" width="33.73" height="2.21"/><path class="cls-2" d="M264.76,114.29H230.51v-2.73h34.25ZM231,113.77h33.21v-1.69H231Z"/><rect class="cls-1" x="247.53" y="79.49" width="3.4" height="2.73"/><path class="cls-2" d="M251.18,82.48h-3.91V79.23h3.91ZM247.79,82h2.87V79.75h-2.87Z"/><rect class="cls-1" x="253.8" y="79.49" width="3.4" height="2.73"/><path class="cls-2" d="M257.46,82.48h-3.92V79.23h3.92Zm-3.4-.52h2.88V79.75h-2.88Z"/><rect class="cls-1" x="260.08" y="79.49" width="3.4" height="2.73"/><path class="cls-2" d="M263.73,82.48h-3.91V79.23h3.91Zm-3.4-.52h2.88V79.75h-2.88Z"/><rect class="cls-1" x="247.53" y="84.58" width="3.4" height="2.73"/><path class="cls-2" d="M251.18,87.57h-3.91V84.32h3.91Zm-3.39-.52h2.87V84.84h-2.87Z"/><rect class="cls-1" x="253.8" y="84.58" width="3.4" height="2.73"/><path class="cls-2" d="M257.46,87.57h-3.92V84.32h3.92Zm-3.4-.52h2.88V84.84h-2.88Z"/><rect class="cls-1" x="260.08" y="84.58" width="3.4" height="2.73"/><path class="cls-2" d="M263.73,87.57h-3.91V84.32h3.91Zm-3.4-.52h2.88V84.84h-2.88Z"/><rect class="cls-1" x="235.64" y="92.26" width="2.8" height="2.81"/><path class="cls-2" d="M238.71,95.32h-3.33V92h3.33Zm-2.81-.52h2.29V92.52H235.9Z"/><rect class="cls-1" x="241.55" y="92.26" width="2.81" height="2.81"/><path class="cls-2" d="M244.61,95.32h-3.32V92h3.32Zm-2.8-.52h2.28V92.52h-2.28Z"/><rect class="cls-1" x="247.53" y="92.26" width="2.8" height="2.81"/><path class="cls-2" d="M250.59,95.32h-3.32V92h3.32Zm-2.8-.52h2.28V92.52h-2.28Z"/><rect class="cls-1" x="253.36" y="92.26" width="2.8" height="2.81"/><path class="cls-2" d="M256.42,95.32H253.1V92h3.32Zm-2.8-.52h2.28V92.52h-2.28Z"/><rect class="cls-1" x="259.34" y="92.26" width="2.8" height="2.81"/><path class="cls-2" d="M262.4,95.32h-3.32V92h3.32Zm-2.8-.52h2.28V92.52H259.6Z"/><polyline class="cls-1" points="294.1 76.24 313.74 76.24 313.74 89.53"/><polygon class="cls-2" points="314 89.53 313.48 89.53 313.48 76.5 294.1 76.5 294.1 75.98 314 75.98 314 89.53"/><polyline class="cls-1" points="295.29 89.53 326.73 89.53 326.73 90.64 294.03 90.64"/><polygon class="cls-2" points="326.99 90.89 294.03 90.89 294.03 90.38 326.47 90.38 326.47 89.79 295.29 89.79 295.29 89.27 326.99 89.27 326.99 90.89"/><rect class="cls-2" x="325.81" y="90.71" width="0.52" height="9.45"/><rect class="cls-2" x="325.81" y="103.11" width="0.52" height="8.86"/><rect class="cls-2" x="316.06" y="103.11" width="0.52" height="8.86"/><rect class="cls-2" x="315.03" y="103.11" width="0.52" height="8.86"/><rect class="cls-2" x="304.25" y="103.11" width="0.52" height="8.86"/><rect class="cls-2" x="303.22" y="103.11" width="0.52" height="8.86"/><polyline class="cls-1" points="293.96 100.3 329.09 100.3 329.09 103.11 294.03 103.11"/><polygon class="cls-2" points="329.35 103.37 294.03 103.37 294.03 102.85 328.83 102.85 328.83 100.56 293.96 100.56 293.96 100.04 329.35 100.04 329.35 103.37"/><rect class="cls-1" x="293.96" y="111.82" width="33.73" height="2.21"/><path class="cls-2" d="M328,114.29H293.7v-2.73H328Zm-33.73-.52h33.21v-1.69H294.22Z"/><rect class="cls-1" x="307.54" y="79.49" width="3.4" height="2.73"/><path class="cls-2" d="M311.19,82.48h-3.91V79.23h3.91ZM307.8,82h2.87V79.75H307.8Z"/><rect class="cls-1" x="301.26" y="79.49" width="3.4" height="2.73"/><path class="cls-2" d="M304.92,82.48H301V79.23h3.92Zm-3.4-.52h2.88V79.75h-2.88Z"/><rect class="cls-1" x="294.99" y="79.49" width="3.4" height="2.73"/><path class="cls-2" d="M298.64,82.48h-3.91V79.23h3.91ZM295.25,82h2.87V79.75h-2.87Z"/><rect class="cls-1" x="307.54" y="84.58" width="3.4" height="2.73"/><path class="cls-2" d="M311.19,87.57h-3.91V84.32h3.91Zm-3.39-.52h2.87V84.84H307.8Z"/><rect class="cls-1" x="301.26" y="84.58" width="3.4" height="2.73"/><path class="cls-2" d="M304.92,87.57H301V84.32h3.92Zm-3.4-.52h2.88V84.84h-2.88Z"/><rect class="cls-1" x="294.99" y="84.58" width="3.4" height="2.73"/><path class="cls-2" d="M298.64,87.57h-3.91V84.32h3.91Zm-3.39-.52h2.87V84.84h-2.87Z"/><rect class="cls-1" x="320.01" y="92.26" width="2.81" height="2.81"/><path class="cls-2" d="M323.08,95.32h-3.33V92h3.33Zm-2.81-.52h2.29V92.52h-2.29Z"/><rect class="cls-1" x="314.11" y="92.26" width="2.8" height="2.81"/><path class="cls-2" d="M317.17,95.32h-3.32V92h3.32Zm-2.8-.52h2.28V92.52h-2.28Z"/><rect class="cls-1" x="308.13" y="92.26" width="2.8" height="2.81"/><path class="cls-2" d="M311.19,95.32h-3.32V92h3.32Zm-2.8-.52h2.28V92.52h-2.28Z"/><rect class="cls-1" x="302.3" y="92.26" width="2.8" height="2.81"/><path class="cls-2" d="M305.36,95.32H302V92h3.32Zm-2.8-.52h2.28V92.52h-2.28Z"/><rect class="cls-1" x="296.32" y="92.26" width="2.81" height="2.81"/><path class="cls-2" d="M299.38,95.32h-3.32V92h3.32Zm-2.8-.52h2.28V92.52h-2.28Z"/></g></svg>