<svg xmlns="http://www.w3.org/2000/svg" viewBox="0 0 65.87 66.16"><defs><style>.cls-1{fill:#1a3668;}.cls-2{fill:none;stroke:#1e3768;stroke-miterlimit:10;stroke-width:0.62px;}</style></defs><g id="Layer_3" data-name="Layer 3"><path class="cls-1" d="M7.47,8.86a9.06,9.06,0,0,1-1,.38c-.42.14-.69.24-.8.29V7.77A9.48,9.48,0,0,0,7,7.15,3.93,3.93,0,0,0,8,6.4H9.82V18.83H7.47Z"/><polygon class="cls-1" points="14.55 8.21 11.22 8.21 11.22 6.4 16.84 6.4 16.84 7.95 14.25 18.83 11.98 18.83 14.55 8.21"/><path class="cls-1" d="M22.3,8.42h.27a.61.61,0,0,0,.49-.15.79.79,0,0,0,.13-.53,1.57,1.57,0,0,0,0-.34.57.57,0,0,0-.07-.22A.38.38,0,0,0,22.91,7a1.42,1.42,0,0,0-.33,0H22.3Zm-.85,2.73V6.4H22.8c.8,0,1.2.45,1.2,1.34a1.29,1.29,0,0,1-.33,1,1.33,1.33,0,0,1-.93.3H22.3v2.13Z"/><path class="cls-1" d="M24.94,9.48h.63l-.31-1.95Zm-1.09,1.67,1-4.75h.89l.95,4.75h-.8L25.66,10h-.81l-.19,1.11Z"/><path class="cls-1" d="M27.84,8.42H28a.71.71,0,0,0,.54-.16.77.77,0,0,0,.16-.56.86.86,0,0,0-.13-.54A.66.66,0,0,0,28.1,7h-.26ZM27,11.15V6.4h1.08a3,3,0,0,1,.64.06,1.37,1.37,0,0,1,.46.2.85.85,0,0,1,.29.4,1.51,1.51,0,0,1,.1.6,1.7,1.7,0,0,1-.13.73A.77.77,0,0,1,29,8.8l.66,2.35h-.86L28.22,9h-.38v2.17Z"/><polygon class="cls-1" points="30.53 11.14 30.53 7.03 29.74 7.03 29.74 6.4 32.15 6.4 32.15 7.03 31.39 7.03 31.39 11.14 30.53 11.14"/><polygon class="cls-1" points="32.39 11.14 32.39 6.4 32.98 6.4 34.13 9.09 34.13 6.4 34.84 6.4 34.84 11.14 34.28 11.14 33.12 8.32 33.12 11.14 32.39 11.14"/><polygon class="cls-1" points="35.41 11.14 35.41 6.4 37.38 6.4 37.38 7.01 36.27 7.01 36.27 8.37 37.15 8.37 37.15 8.98 36.27 8.98 36.27 10.55 37.39 10.55 37.39 11.14 35.41 11.14"/><path class="cls-1" d="M38.61,8.42h.21a.74.74,0,0,0,.54-.16.77.77,0,0,0,.16-.56.85.85,0,0,0-.14-.54A.64.64,0,0,0,38.87,7h-.26Zm-.85,2.73V6.4h1.07a3,3,0,0,1,.64.06,1.29,1.29,0,0,1,.46.2.94.94,0,0,1,.3.4,1.71,1.71,0,0,1,.1.6,1.69,1.69,0,0,1-.14.73.75.75,0,0,1-.43.41l.65,2.35h-.86L39,9h-.38v2.17Z"/><path class="cls-1" d="M42,11.2c-.83,0-1.26-.48-1.3-1.45l.74-.15c0,.62.2.94.53.94a.34.34,0,0,0,.29-.12.48.48,0,0,0,.1-.33.86.86,0,0,0-.07-.36.89.89,0,0,0-.17-.27c-.06-.07-.15-.15-.26-.26l-.62-.54a1.63,1.63,0,0,1-.4-.5,1.39,1.39,0,0,1-.14-.65,1.15,1.15,0,0,1,.32-.86,1.31,1.31,0,0,1,.89-.31,1.25,1.25,0,0,1,.45.07.88.88,0,0,1,.33.18.74.74,0,0,1,.21.28,1.48,1.48,0,0,1,.13.35,2.4,2.4,0,0,1,.06.4l-.73.15a1.81,1.81,0,0,0,0-.25.78.78,0,0,0,0-.21.61.61,0,0,0-.08-.18A.47.47,0,0,0,42.12,7a.6.6,0,0,0-.2,0,.41.41,0,0,0-.29.13.5.5,0,0,0-.1.31.74.74,0,0,0,.09.38,1.28,1.28,0,0,0,.28.31l.61.54.27.27q.11.13.21.3a1.28,1.28,0,0,1,.16.38,1.49,1.49,0,0,1,.05.43,1.13,1.13,0,0,1-.32.84,1.18,1.18,0,0,1-.85.32"/><polygon class="cls-1" points="43.59 11.14 43.59 6.4 44.44 6.4 44.44 8.38 45.4 8.38 45.4 6.4 46.25 6.4 46.25 11.14 45.4 11.14 45.4 9 44.44 9 44.44 11.14 43.59 11.14"/><rect class="cls-1" x="46.86" y="6.4" width="0.84" height="4.75"/><path class="cls-1" d="M49.15,8.42h.28a.64.64,0,0,0,.49-.15A.86.86,0,0,0,50,7.74a3.13,3.13,0,0,0,0-.34A.58.58,0,0,0,50,7.18.34.34,0,0,0,49.76,7a1.42,1.42,0,0,0-.33,0h-.28Zm-.85,2.73V6.4h1.35c.8,0,1.2.45,1.2,1.34a1.29,1.29,0,0,1-.33,1,1.33,1.33,0,0,1-.93.3h-.44v2.13Z"/><path class="cls-1" d="M52.36,11.2c-.83,0-1.26-.48-1.3-1.45l.74-.15c0,.62.2.94.53.94a.36.36,0,0,0,.3-.12.54.54,0,0,0,.09-.33.86.86,0,0,0-.07-.36.89.89,0,0,0-.17-.27c-.06-.07-.15-.15-.26-.26l-.62-.54a1.79,1.79,0,0,1-.4-.5,1.39,1.39,0,0,1-.14-.65,1.15,1.15,0,0,1,.32-.86,1.31,1.31,0,0,1,.89-.31,1.25,1.25,0,0,1,.45.07.88.88,0,0,1,.33.18.74.74,0,0,1,.21.28,1.14,1.14,0,0,1,.13.35,2.4,2.4,0,0,1,.06.4l-.73.15a1.81,1.81,0,0,0,0-.25.78.78,0,0,0,0-.21.61.61,0,0,0-.08-.18A.47.47,0,0,0,52.45,7a.6.6,0,0,0-.2,0,.41.41,0,0,0-.29.13.5.5,0,0,0-.1.31.74.74,0,0,0,.09.38,1.28,1.28,0,0,0,.28.31l.61.54.27.27a2.28,2.28,0,0,1,.21.3,1.28,1.28,0,0,1,.16.38,1.49,1.49,0,0,1,.06.43,1.14,1.14,0,0,1-.33.84,1.16,1.16,0,0,1-.85.32"/><polygon class="cls-1" points="21.45 18.91 21.45 14.16 23.37 14.16 23.37 14.76 22.3 14.76 22.3 16.14 23.16 16.14 23.16 16.75 22.3 16.75 22.3 18.91 21.45 18.91"/><path class="cls-1" d="M24.71,18.29a.69.69,0,0,0,.22,0,.66.66,0,0,0,.21,0,.5.5,0,0,0,.14-.1.48.48,0,0,0,.08-.16,1.29,1.29,0,0,0,0-.19,1.77,1.77,0,0,0,0-.24V15.45a2.19,2.19,0,0,0,0-.29.9.9,0,0,0-.06-.22.54.54,0,0,0-.15-.15.62.62,0,0,0-.25,0,.63.63,0,0,0-.26,0,.54.54,0,0,0-.15.15.9.9,0,0,0-.06.22,2.19,2.19,0,0,0,0,.29V17.6c0,.09,0,.17,0,.24a1.29,1.29,0,0,0,0,.19.48.48,0,0,0,.08.16.5.5,0,0,0,.14.1m.22.68a1.26,1.26,0,0,1-1-.4,1.87,1.87,0,0,1-.32-1.17V15.65a3.18,3.18,0,0,1,.07-.66,1.53,1.53,0,0,1,.23-.48,1,1,0,0,1,.42-.3,1.75,1.75,0,0,1,.64-.11,1.22,1.22,0,0,1,1,.4,1.79,1.79,0,0,1,.32,1.15V17.4a2.62,2.62,0,0,1-.07.66,1.58,1.58,0,0,1-.23.49,1.1,1.1,0,0,1-.42.31,1.73,1.73,0,0,1-.63.11"/><path class="cls-1" d="M27.59,16.19h.2a.71.71,0,0,0,.54-.17.77.77,0,0,0,.16-.56.79.79,0,0,0-.14-.54.64.64,0,0,0-.51-.17h-.25Zm-.86,2.72V14.16h1.08a2.86,2.86,0,0,1,.63.06,1.19,1.19,0,0,1,.47.21.78.78,0,0,1,.29.39,1.54,1.54,0,0,1,.1.6,1.75,1.75,0,0,1-.13.74.88.88,0,0,1-.44.41l.65,2.34h-.85L28,16.74h-.38v2.17Z"/><polygon class="cls-1" points="31.47 18.91 31.47 14.8 30.69 14.8 30.69 14.16 33.09 14.16 33.09 14.8 32.33 14.8 32.33 18.91 31.47 18.91"/><polygon class="cls-1" points="33.3 18.91 33.3 14.16 34.15 14.16 34.15 16.14 35.11 16.14 35.11 14.16 35.96 14.16 35.96 18.91 35.11 18.91 35.11 16.76 34.15 16.76 34.15 18.91 33.3 18.91"/><polygon class="cls-1" points="36.5 18.91 36.5 14.16 38.47 14.16 38.47 14.77 37.35 14.77 37.35 16.13 38.23 16.13 38.23 16.74 37.35 16.74 37.35 18.31 38.48 18.31 38.48 18.91 36.5 18.91"/><path class="cls-1" d="M41.21,19a1.07,1.07,0,0,1-1-.42,2.11,2.11,0,0,1-.3-1.23V15.78a2.94,2.94,0,0,1,.07-.71,1.42,1.42,0,0,1,.21-.52.89.89,0,0,1,.41-.33,1.57,1.57,0,0,1,.65-.12,1.28,1.28,0,0,1,1,.35,1.57,1.57,0,0,1,.3,1.05v.23h-.82v-.51a1.77,1.77,0,0,0,0-.2.27.27,0,0,0-.08-.15.3.3,0,0,0-.13-.09.48.48,0,0,0-.22,0,.47.47,0,0,0-.17,0,.31.31,0,0,0-.13.06.27.27,0,0,0-.08.1.75.75,0,0,0-.06.13,1.57,1.57,0,0,0,0,.16c0,.06,0,.12,0,.17V17.5a1.39,1.39,0,0,0,.1.62.4.4,0,0,0,.4.2.63.63,0,0,0,.26-.05.4.4,0,0,0,.16-.18.77.77,0,0,0,.08-.27,2.09,2.09,0,0,0,0-.38v-.39h-.51V16.5h1.28v2.41h-.56L42,18.43a.79.79,0,0,1-.8.54"/><path class="cls-1" d="M44.16,18.29a.69.69,0,0,0,.22,0,.66.66,0,0,0,.21,0,.5.5,0,0,0,.14-.1.48.48,0,0,0,.08-.16,1.29,1.29,0,0,0,0-.19,1.77,1.77,0,0,0,0-.24V15.45a2.19,2.19,0,0,0,0-.29.9.9,0,0,0-.06-.22.54.54,0,0,0-.15-.15.62.62,0,0,0-.25,0,.63.63,0,0,0-.26,0,.43.43,0,0,0-.15.15.9.9,0,0,0-.06.22,2.19,2.19,0,0,0,0,.29V17.6a1.77,1.77,0,0,0,0,.24,1.29,1.29,0,0,0,0,.19.48.48,0,0,0,.08.16.39.39,0,0,0,.14.1m.22.68a1.26,1.26,0,0,1-1-.4A1.87,1.87,0,0,1,43,17.4V15.65a3.18,3.18,0,0,1,.07-.66,1.53,1.53,0,0,1,.23-.48,1,1,0,0,1,.42-.3,1.75,1.75,0,0,1,.64-.11,1.22,1.22,0,0,1,1,.4,1.79,1.79,0,0,1,.32,1.15V17.4a3.18,3.18,0,0,1-.07.66,1.58,1.58,0,0,1-.23.49,1.1,1.1,0,0,1-.42.31,1.73,1.73,0,0,1-.63.11"/><path class="cls-1" d="M47,17.24h.63l-.32-1.95Zm-1.09,1.67,1-4.75h.89l.95,4.75h-.79l-.19-1.1h-.81l-.2,1.1Z"/><polygon class="cls-1" points="49.02 18.91 49.02 14.16 49.88 14.16 49.88 18.31 51 18.31 51 18.91 49.02 18.91"/><path class="cls-1" d="M52.46,19c-.82,0-1.26-.49-1.3-1.45l.75-.16c0,.63.19.94.53.94a.36.36,0,0,0,.29-.12.53.53,0,0,0,.09-.32.9.9,0,0,0-.07-.37,1.05,1.05,0,0,0-.16-.26,2.31,2.31,0,0,0-.27-.26l-.62-.55a1.66,1.66,0,0,1-.4-.5,1.35,1.35,0,0,1-.13-.64,1.1,1.1,0,0,1,.32-.86,1.25,1.25,0,0,1,.88-.32,1.35,1.35,0,0,1,.46.07.77.77,0,0,1,.32.18.88.88,0,0,1,.22.28,1.48,1.48,0,0,1,.13.35,4,4,0,0,1,.06.41l-.73.14c0-.09,0-.17,0-.25a1.6,1.6,0,0,0-.05-.21.49.49,0,0,0-.08-.18.27.27,0,0,0-.13-.1.41.41,0,0,0-.19,0,.38.38,0,0,0-.29.13.45.45,0,0,0-.11.31.71.71,0,0,0,.09.38,1.87,1.87,0,0,0,.28.32l.61.53a3.43,3.43,0,0,1,.27.28,1.46,1.46,0,0,1,.22.3,1.11,1.11,0,0,1,.15.37,1.54,1.54,0,0,1,.06.43,1.11,1.11,0,0,1-.33.84,1.13,1.13,0,0,1-.85.33"/><path class="cls-1" d="M39.18,40.87a8.57,8.57,0,0,0,2.7-6.25,9.66,9.66,0,0,0-.07-1.09,6.82,6.82,0,0,1,3.8,11.8,8.46,8.46,0,0,0-6.43-4.46m5.72,8.46a6.78,6.78,0,0,1-6.73,6.81,6.57,6.57,0,0,1-3.32-.89,8.55,8.55,0,0,0,2.31-5.86A8.75,8.75,0,0,0,37,47.76a8.29,8.29,0,0,0,7.75.21,6.82,6.82,0,0,1,.14,1.36M22,49.39A6.48,6.48,0,0,1,22.15,48a8.34,8.34,0,0,0,3.66.85,8.23,8.23,0,0,0,4.07-1.07,9.08,9.08,0,0,0-.14,1.57,8.53,8.53,0,0,0,2.38,5.93,6.54,6.54,0,0,1-3.39.94A6.78,6.78,0,0,1,22,49.39M19.08,40.3a6.79,6.79,0,0,1,6-6.77A9.66,9.66,0,0,0,25,34.62a8.53,8.53,0,0,0,2.76,6.3,8.44,8.44,0,0,0-6.47,4.43,6.85,6.85,0,0,1-2.23-5.05M33.45,27.8a6.74,6.74,0,0,1,6.17,4.1,8.49,8.49,0,0,0-6.17,4.79,8.47,8.47,0,0,0-6.17-4.79,6.74,6.74,0,0,1,6.17-4.1m1.6,15.5a6.59,6.59,0,0,1,3.12-.78,6.73,6.73,0,0,1,6,3.81,6.55,6.55,0,0,1-3.11.78,6.74,6.74,0,0,1-6-3.81m-3.22,0a6.74,6.74,0,0,1-6,3.77,6.61,6.61,0,0,1-3.09-.77,6.69,6.69,0,0,1,9.11-3m-5-9.77a6.79,6.79,0,0,1,5.74,6.73,7.18,7.18,0,0,1-.09,1,6.78,6.78,0,0,1-5.74-6.72,6,6,0,0,1,.09-1m6.67,20.64a6.83,6.83,0,0,1-.06-9.7,6.83,6.83,0,0,1,.06,9.7m6.7-19.59a6.78,6.78,0,0,1-5.74,6.72,7.17,7.17,0,0,1-.08-1,6.78,6.78,0,0,1,5.73-6.73,6,6,0,0,1,.09,1m9.34,5.68a8.49,8.49,0,0,0-8.12-8.52,8.4,8.4,0,0,0-15.9,0A8.54,8.54,0,0,0,20.64,47a8.52,8.52,0,0,0,8.09,10.9,8.31,8.31,0,0,0,4.76-1.5,8.3,8.3,0,0,0,4.68,1.44,8.5,8.5,0,0,0,8.43-8.53A8.9,8.9,0,0,0,46.28,47a8.55,8.55,0,0,0,3.24-6.71"/><rect class="cls-2" x="1.19" y="0.75" width="63.8" height="64.54"/></g></svg>