<svg xmlns="http://www.w3.org/2000/svg" viewBox="0 0 305.72 107.93"><defs><style>.cls-1{fill:#4d4e50;}.cls-2{fill:#0091b2;}.cls-3{fill:#fff;}</style></defs><g id="Layer_3" data-name="Layer 3"><path class="cls-1" d="M182.36,88h-.65V81.93h.65Z"/><path class="cls-1" d="M187.43,85.86a2.35,2.35,0,0,1-.53,1.64,1.84,1.84,0,0,1-1.45.58,1.89,1.89,0,0,1-1-.27,1.73,1.73,0,0,1-.69-.77,2.73,2.73,0,0,1-.24-1.18,2.35,2.35,0,0,1,.52-1.63,1.85,1.85,0,0,1,1.45-.58,1.83,1.83,0,0,1,1.43.59A2.33,2.33,0,0,1,187.43,85.86Zm-3.26,0a2,2,0,0,0,.33,1.25,1.3,1.3,0,0,0,1.93,0,2.51,2.51,0,0,0,0-2.49,1.34,1.34,0,0,0-1.94,0A2.07,2.07,0,0,0,184.17,85.86Z"/><path class="cls-1" d="M191.2,88l-.13-.61h0a1.73,1.73,0,0,1-.64.54,1.83,1.83,0,0,1-.79.14,1.46,1.46,0,0,1-1-.32,1.21,1.21,0,0,1-.36-.94c0-.86.69-1.32,2.07-1.36l.73,0v-.27a1.06,1.06,0,0,0-.22-.74.87.87,0,0,0-.69-.24,2.8,2.8,0,0,0-1.21.33l-.2-.5a3.54,3.54,0,0,1,.69-.27,3.3,3.3,0,0,1,.76-.1,1.64,1.64,0,0,1,1.13.34,1.41,1.41,0,0,1,.37,1.09V88Zm-1.46-.46a1.32,1.32,0,0,0,.95-.33,1.24,1.24,0,0,0,.34-.93V85.9l-.65,0a2.17,2.17,0,0,0-1.11.24.71.71,0,0,0-.34.66.66.66,0,0,0,.21.53A.85.85,0,0,0,189.74,87.55Z"/><path class="cls-1" d="M196,88V85.24a1.15,1.15,0,0,0-.24-.79,1,1,0,0,0-.75-.25,1.24,1.24,0,0,0-1,.36,1.82,1.82,0,0,0-.31,1.2V88H193V83.72h.53l.1.59h0a1.34,1.34,0,0,1,.56-.49,1.77,1.77,0,0,1,.8-.17,1.63,1.63,0,0,1,1.17.37,1.59,1.59,0,0,1,.39,1.19V88Z"/><path class="cls-1" d="M200.69,86.84a1.07,1.07,0,0,1-.45.92,2,2,0,0,1-1.25.32,2.68,2.68,0,0,1-1.32-.27v-.6a2.74,2.74,0,0,0,.66.25,2.71,2.71,0,0,0,.68.09,1.62,1.62,0,0,0,.78-.16.55.55,0,0,0,.27-.5.56.56,0,0,0-.21-.43A4.36,4.36,0,0,0,199,86a4.22,4.22,0,0,1-.85-.38,1.2,1.2,0,0,1-.37-.38,1,1,0,0,1-.13-.51,1,1,0,0,1,.43-.82,2,2,0,0,1,1.17-.3,3.37,3.37,0,0,1,1.35.28l-.23.52a3.23,3.23,0,0,0-1.17-.26,1.37,1.37,0,0,0-.69.14.45.45,0,0,0-.24.4.46.46,0,0,0,.09.29.86.86,0,0,0,.28.24,7.71,7.71,0,0,0,.75.31,2.84,2.84,0,0,1,1,.56A1,1,0,0,1,200.69,86.84Z"/><path class="cls-1" d="M206.74,87.43h0a1.51,1.51,0,0,1-1.34.65,1.6,1.6,0,0,1-1.31-.57,2.53,2.53,0,0,1-.47-1.63,2.59,2.59,0,0,1,.47-1.65,1.59,1.59,0,0,1,1.31-.58,1.55,1.55,0,0,1,1.33.63h.05l0-.31,0-.3V81.93h.65V88h-.53Zm-1.3.11a1.18,1.18,0,0,0,1-.36,1.82,1.82,0,0,0,.3-1.17v-.13a2.16,2.16,0,0,0-.3-1.3,1.14,1.14,0,0,0-1-.39,1,1,0,0,0-.87.44,2.24,2.24,0,0,0-.3,1.25,2.12,2.12,0,0,0,.3,1.24A1,1,0,0,0,205.44,87.54Z"/><path class="cls-1" d="M208.67,82.56a.44.44,0,0,1,.11-.32.39.39,0,0,1,.54,0,.41.41,0,0,1,.12.32.42.42,0,0,1-.12.33.39.39,0,0,1-.54,0A.45.45,0,0,1,208.67,82.56Zm.7,5.45h-.65V83.72h.65Z"/><path class="cls-1" d="M213.51,86.84a1.07,1.07,0,0,1-.45.92,2,2,0,0,1-1.25.32,2.68,2.68,0,0,1-1.32-.27v-.6a2.74,2.74,0,0,0,.66.25,2.71,2.71,0,0,0,.68.09,1.62,1.62,0,0,0,.78-.16.55.55,0,0,0,.27-.5.56.56,0,0,0-.21-.43,4.36,4.36,0,0,0-.85-.42,4.22,4.22,0,0,1-.85-.38,1.2,1.2,0,0,1-.37-.38,1,1,0,0,1-.13-.51,1,1,0,0,1,.43-.82,2,2,0,0,1,1.17-.3,3.37,3.37,0,0,1,1.35.28l-.23.52a3.23,3.23,0,0,0-1.17-.26,1.4,1.4,0,0,0-.69.14.45.45,0,0,0-.24.4.46.46,0,0,0,.09.29.86.86,0,0,0,.28.24,7.71,7.71,0,0,0,.75.31,2.84,2.84,0,0,1,1,.56A1,1,0,0,1,213.51,86.84Z"/><path class="cls-1" d="M216.56,83.65a1.61,1.61,0,0,1,1.31.58,3.11,3.11,0,0,1,0,3.27,1.57,1.57,0,0,1-1.3.58,1.92,1.92,0,0,1-.77-.15,1.4,1.4,0,0,1-.58-.48h0L215,88h-.47V81.93h.65V83.4c0,.33,0,.63,0,.89h0A1.57,1.57,0,0,1,216.56,83.65Zm-.1.55a1.1,1.1,0,0,0-1,.38,2.09,2.09,0,0,0-.3,1.28,2.15,2.15,0,0,0,.3,1.29,1.17,1.17,0,0,0,1,.39,1,1,0,0,0,.89-.43,2.32,2.32,0,0,0,.29-1.26,2.18,2.18,0,0,0-.29-1.24A1,1,0,0,0,216.46,84.2Z"/><path class="cls-1" d="M220.08,83.72V86.5a1.15,1.15,0,0,0,.23.78,1,1,0,0,0,.75.26,1.18,1.18,0,0,0,1-.37,1.82,1.82,0,0,0,.31-1.2V83.72H223V88h-.53l-.1-.58h0a1.38,1.38,0,0,1-.55.49,1.92,1.92,0,0,1-.81.16,1.63,1.63,0,0,1-1.17-.37,1.58,1.58,0,0,1-.39-1.19v-2.8Z"/><path class="cls-1" d="M226.33,83.65a2.64,2.64,0,0,1,.51,0l-.09.6a2.79,2.79,0,0,0-.47-.05,1.16,1.16,0,0,0-.89.42,1.56,1.56,0,0,0-.36,1V88h-.65V83.72h.53l.08.8h0a1.92,1.92,0,0,1,.57-.65A1.31,1.31,0,0,1,226.33,83.65Z"/><path class="cls-1" d="M230.4,86.84a1.06,1.06,0,0,1-.44.92,2.07,2.07,0,0,1-1.25.32,2.72,2.72,0,0,1-1.33-.27v-.6a3.09,3.09,0,0,0,.66.25,2.83,2.83,0,0,0,.68.09,1.7,1.7,0,0,0,.79-.16.55.55,0,0,0,.27-.5.54.54,0,0,0-.22-.43,3.92,3.92,0,0,0-.84-.42,4.22,4.22,0,0,1-.85-.38,1.25,1.25,0,0,1-.38-.38,1,1,0,0,1-.12-.51,1,1,0,0,1,.43-.82,2,2,0,0,1,1.16-.3,3.33,3.33,0,0,1,1.35.28l-.23.52a3.19,3.19,0,0,0-1.16-.26,1.44,1.44,0,0,0-.7.14.44.44,0,0,0-.23.4.52.52,0,0,0,.08.29.9.9,0,0,0,.29.24,7.71,7.71,0,0,0,.75.31,2.84,2.84,0,0,1,1,.56A1,1,0,0,1,230.4,86.84Z"/><path class="cls-1" d="M233.27,88.08a2,2,0,0,1-1.5-.57,2.25,2.25,0,0,1-.55-1.61,2.46,2.46,0,0,1,.51-1.64,1.69,1.69,0,0,1,1.37-.61,1.58,1.58,0,0,1,1.27.53,2,2,0,0,1,.47,1.39V86h-3a1.76,1.76,0,0,0,.38,1.15,1.32,1.32,0,0,0,1,.39,3.51,3.51,0,0,0,1.37-.29v.58A4.05,4.05,0,0,1,234,88,4,4,0,0,1,233.27,88.08Zm-.18-3.89a1.06,1.06,0,0,0-.82.33,1.63,1.63,0,0,0-.36.93h2.24a1.36,1.36,0,0,0-.28-.93A1,1,0,0,0,233.09,84.19Z"/><path class="cls-1" d="M238.86,87.43h0a1.52,1.52,0,0,1-1.35.65,1.58,1.58,0,0,1-1.3-.57,2.53,2.53,0,0,1-.47-1.63,2.59,2.59,0,0,1,.47-1.65,1.74,1.74,0,0,1,2.64,0h.05l0-.31v-2h.64V88H239Zm-1.3.11a1.19,1.19,0,0,0,1-.36,1.82,1.82,0,0,0,.3-1.17v-.13a2.09,2.09,0,0,0-.31-1.3,1.13,1.13,0,0,0-1-.39,1,1,0,0,0-.88.44,2.24,2.24,0,0,0-.3,1.25,2.12,2.12,0,0,0,.3,1.24A1,1,0,0,0,237.56,87.54Z"/><path class="cls-1" d="M244.92,83.65a1.61,1.61,0,0,1,1.31.58,2.53,2.53,0,0,1,.47,1.63,2.58,2.58,0,0,1-.47,1.64,1.59,1.59,0,0,1-1.31.58,1.87,1.87,0,0,1-.76-.15,1.34,1.34,0,0,1-.58-.48h-.05l-.14.56h-.46V81.93h.65V83.4c0,.33,0,.63,0,.89h0A1.55,1.55,0,0,1,244.92,83.65Zm-.09.55a1.11,1.11,0,0,0-1,.38,2.1,2.1,0,0,0-.29,1.28,2.15,2.15,0,0,0,.3,1.29,1.13,1.13,0,0,0,1,.39,1,1,0,0,0,.89-.43,2.23,2.23,0,0,0,.3-1.26,2.1,2.1,0,0,0-.3-1.24A1,1,0,0,0,244.83,84.2Z"/><path class="cls-1" d="M247.15,83.72h.7l.93,2.45a8.59,8.59,0,0,1,.39,1.2h0c0-.13.1-.36.21-.68s.46-1.31,1.06-3h.7l-1.84,4.88a2.52,2.52,0,0,1-.64,1,1.33,1.33,0,0,1-.9.31,2.79,2.79,0,0,1-.58-.07v-.52a2.28,2.28,0,0,0,.48,0,1,1,0,0,0,.95-.75l.24-.61Z"/><path class="cls-1" d="M254,82.29h1.61a3.13,3.13,0,0,1,1.65.34,1.41,1.41,0,0,1,.22,1.92,1.32,1.32,0,0,1-.83.42v0c.87.15,1.3.61,1.3,1.37a1.49,1.49,0,0,1-.51,1.2A2.26,2.26,0,0,1,256,88h-2Zm.66,2.45h1.1a1.78,1.78,0,0,0,1-.22.88.88,0,0,0,.31-.75.75.75,0,0,0-.35-.69,2.16,2.16,0,0,0-1.09-.21h-1Zm0,.56v2.14h1.19a1.68,1.68,0,0,0,1-.27,1,1,0,0,0,.35-.84.91.91,0,0,0-.35-.78,2,2,0,0,0-1.09-.25Z"/><path class="cls-1" d="M263.78,85.1a2.89,2.89,0,0,1-.77,2.16,3,3,0,0,1-2.21.75h-1.58V82.29H261a2.57,2.57,0,0,1,2.81,2.81Zm-.7,0a2.29,2.29,0,0,0-.56-1.68,2.25,2.25,0,0,0-1.67-.57h-1v4.56h.81a2.46,2.46,0,0,0,1.79-.58A2.32,2.32,0,0,0,263.08,85.12Z"/><path class="cls-1" d="M270,85.14a3.17,3.17,0,0,1-.69,2.16,2.82,2.82,0,0,1-3.88,0,3.8,3.8,0,0,1,0-4.34,2.5,2.5,0,0,1,2-.77,2.4,2.4,0,0,1,1.92.79A3.14,3.14,0,0,1,270,85.14Zm-4.55,0A2.7,2.7,0,0,0,266,86.9a1.76,1.76,0,0,0,1.44.6,1.73,1.73,0,0,0,1.43-.6,3.39,3.39,0,0,0,0-3.51,1.73,1.73,0,0,0-1.42-.59,1.77,1.77,0,0,0-1.45.6A2.67,2.67,0,0,0,265.46,85.14Z"/><path class="cls-1" d="M273.21,82.56a.44.44,0,0,1,.11-.32.39.39,0,0,1,.54,0,.4.4,0,0,1,.11.32.41.41,0,0,1-.11.33.39.39,0,0,1-.54,0A.45.45,0,0,1,273.21,82.56Zm.7,5.45h-.65V83.72h.65Z"/><path class="cls-1" d="M278.22,88V85.24a1.15,1.15,0,0,0-.24-.79,1,1,0,0,0-.75-.25,1.24,1.24,0,0,0-1,.36,1.82,1.82,0,0,0-.31,1.2V88h-.65V83.72h.52l.11.59h0a1.34,1.34,0,0,1,.56-.49,1.77,1.77,0,0,1,.8-.17,1.59,1.59,0,0,1,1.16.37,1.56,1.56,0,0,1,.4,1.19V88Z"/><path class="cls-1" d="M283.66,87.55a1.84,1.84,0,0,0,.33,0,1.09,1.09,0,0,0,.25,0V88a1.23,1.23,0,0,1-.31.08l-.37,0c-.82,0-1.24-.43-1.24-1.31V84.23h-.61v-.31l.61-.27.28-.92H283v1h1.24v.51H283v2.52a.87.87,0,0,0,.18.59A.66.66,0,0,0,283.66,87.55Z"/><path class="cls-1" d="M288,88V85.24a1.15,1.15,0,0,0-.24-.79,1,1,0,0,0-.74-.25,1.23,1.23,0,0,0-1,.36,1.87,1.87,0,0,0-.31,1.21V88h-.65V81.93h.65v1.84a4.22,4.22,0,0,1,0,.55h0a1.29,1.29,0,0,1,.54-.49,1.79,1.79,0,0,1,.81-.18,1.67,1.67,0,0,1,1.18.38,1.55,1.55,0,0,1,.39,1.18V88Z"/><path class="cls-1" d="M291.82,88.08a2,2,0,0,1-1.5-.57,2.29,2.29,0,0,1-.55-1.61,2.46,2.46,0,0,1,.51-1.64,1.69,1.69,0,0,1,1.37-.61,1.58,1.58,0,0,1,1.27.53,2,2,0,0,1,.47,1.39V86h-2.95a1.76,1.76,0,0,0,.38,1.15,1.33,1.33,0,0,0,1,.39,3.51,3.51,0,0,0,1.37-.29v.58a4.05,4.05,0,0,1-.65.21A4,4,0,0,1,291.82,88.08Zm-.18-3.89a1.08,1.08,0,0,0-.82.33,1.63,1.63,0,0,0-.36.93h2.24a1.36,1.36,0,0,0-.28-.93A1,1,0,0,0,291.64,84.19Z"/><path class="cls-1" d="M183.71,97.08a1.92,1.92,0,0,1-.77-.15,1.4,1.4,0,0,1-.58-.48h-.05a4.51,4.51,0,0,1,.05.72v1.76h-.65V92.72h.53l.09.59h0a1.64,1.64,0,0,1,.58-.51,1.89,1.89,0,0,1,.77-.15,1.58,1.58,0,0,1,1.31.58,2.55,2.55,0,0,1,.46,1.63A2.52,2.52,0,0,1,185,96.5,1.57,1.57,0,0,1,183.71,97.08Zm-.1-3.88a1.16,1.16,0,0,0-1,.36,1.94,1.94,0,0,0-.3,1.16v.14a2.15,2.15,0,0,0,.3,1.29,1.14,1.14,0,0,0,1,.39,1,1,0,0,0,.87-.45,2.13,2.13,0,0,0,.31-1.24,2.07,2.07,0,0,0-.31-1.23A1.05,1.05,0,0,0,183.61,93.2Z"/><path class="cls-1" d="M189.25,97l-.13-.61h0a1.81,1.81,0,0,1-.64.54,1.88,1.88,0,0,1-.8.14,1.45,1.45,0,0,1-1-.32,1.21,1.21,0,0,1-.36-.94c0-.86.69-1.32,2.07-1.36l.73,0v-.27a1.11,1.11,0,0,0-.22-.74.9.9,0,0,0-.69-.24,2.87,2.87,0,0,0-1.22.33l-.19-.5a3.54,3.54,0,0,1,.69-.27,3.22,3.22,0,0,1,.75-.1,1.67,1.67,0,0,1,1.14.34,1.41,1.41,0,0,1,.37,1.09V97Zm-1.47-.46a1.31,1.31,0,0,0,.95-.33,1.21,1.21,0,0,0,.35-.93V94.9l-.65,0a2.17,2.17,0,0,0-1.11.24.72.72,0,0,0-.35.66.67.67,0,0,0,.22.53A.84.84,0,0,0,187.78,96.55Z"/><path class="cls-1" d="M193.83,95.84a1.07,1.07,0,0,1-.45.92,2.07,2.07,0,0,1-1.25.32,2.72,2.72,0,0,1-1.33-.27v-.6a3,3,0,0,0,.67.25,2.71,2.71,0,0,0,.68.09,1.62,1.62,0,0,0,.78-.16.55.55,0,0,0,.27-.5.54.54,0,0,0-.22-.43,3.92,3.92,0,0,0-.84-.42,4.22,4.22,0,0,1-.85-.38,1.37,1.37,0,0,1-.38-.38,1,1,0,0,1-.12-.51,1,1,0,0,1,.43-.82,2,2,0,0,1,1.16-.3,3.38,3.38,0,0,1,1.36.28l-.23.52a3.23,3.23,0,0,0-1.17-.26,1.44,1.44,0,0,0-.7.14.46.46,0,0,0-.23.4.46.46,0,0,0,.09.29.76.76,0,0,0,.28.24,7.71,7.71,0,0,0,.75.31,2.84,2.84,0,0,1,1,.56A1,1,0,0,1,193.83,95.84Z"/><path class="cls-1" d="M196.26,96.55a1.87,1.87,0,0,0,.34,0,1.22,1.22,0,0,0,.25,0V97a1.23,1.23,0,0,1-.31.08l-.37,0c-.83,0-1.24-.43-1.24-1.31V93.23h-.62v-.31l.62-.27.27-.92h.38v1h1.24v.51h-1.24v2.52a.87.87,0,0,0,.18.59A.63.63,0,0,0,196.26,96.55Z"/><path class="cls-1" d="M201.27,93.52a2.13,2.13,0,0,1,1.42.44,1.53,1.53,0,0,1,.52,1.23,1.77,1.77,0,0,1-.57,1.39,2.21,2.21,0,0,1-1.55.5,2.8,2.8,0,0,1-1.47-.31v-.62a2.14,2.14,0,0,0,.68.28,3.63,3.63,0,0,0,.8.09,1.56,1.56,0,0,0,1.06-.32,1.16,1.16,0,0,0,.39-.94c0-.79-.49-1.19-1.47-1.19a6.28,6.28,0,0,0-1,.11l-.34-.21.22-2.68h2.84v.6h-2.29l-.14,1.72A4.48,4.48,0,0,1,201.27,93.52Z"/><path class="cls-1" d="M205.76,92.72h.69l.94,2.45a9.69,9.69,0,0,1,.38,1.2h0c0-.13.11-.36.22-.68s.46-1.31,1.06-3h.69l-1.84,4.88a2.33,2.33,0,0,1-.64,1,1.31,1.31,0,0,1-.89.31,2.88,2.88,0,0,1-.59-.07v-.52a2.28,2.28,0,0,0,.48,0,1,1,0,0,0,1-.75l.24-.61Z"/><path class="cls-1" d="M212.28,97.08a2,2,0,0,1-1.5-.57,2.25,2.25,0,0,1-.55-1.61,2.46,2.46,0,0,1,.51-1.64,1.69,1.69,0,0,1,1.37-.61,1.59,1.59,0,0,1,1.27.53,2,2,0,0,1,.47,1.39V95H210.9a1.71,1.71,0,0,0,.38,1.15,1.32,1.32,0,0,0,1,.39,3.51,3.51,0,0,0,1.37-.29v.58a3.08,3.08,0,0,1-1.39.27Zm-.18-3.89a1.06,1.06,0,0,0-.82.33,1.51,1.51,0,0,0-.36.93h2.23a1.41,1.41,0,0,0-.27-.93A1,1,0,0,0,212.1,93.19Z"/><path class="cls-1" d="M217.59,97l-.13-.61h0a1.81,1.81,0,0,1-.64.54,1.88,1.88,0,0,1-.8.14,1.45,1.45,0,0,1-1-.32,1.21,1.21,0,0,1-.37-.94c0-.86.7-1.32,2.08-1.36l.73,0v-.27a1.11,1.11,0,0,0-.22-.74.9.9,0,0,0-.69-.24,2.87,2.87,0,0,0-1.22.33l-.19-.5a3.54,3.54,0,0,1,.69-.27,3.22,3.22,0,0,1,.75-.1,1.67,1.67,0,0,1,1.14.34,1.41,1.41,0,0,1,.37,1.09V97Zm-1.47-.46a1.31,1.31,0,0,0,.95-.33,1.24,1.24,0,0,0,.35-.93V94.9l-.65,0a2.15,2.15,0,0,0-1.11.24.72.72,0,0,0-.35.66.67.67,0,0,0,.22.53A.84.84,0,0,0,216.12,96.55Z"/><path class="cls-1" d="M221.36,92.65a2.64,2.64,0,0,1,.51,0l-.09.6a2.9,2.9,0,0,0-.47-.05,1.16,1.16,0,0,0-.89.42,1.56,1.56,0,0,0-.37,1V97h-.65V92.72h.54l.07.8h0a1.82,1.82,0,0,1,.57-.65A1.29,1.29,0,0,1,221.36,92.65Z"/><path class="cls-1" d="M225.43,95.84a1.08,1.08,0,0,1-.44.92,2.09,2.09,0,0,1-1.25.32,2.72,2.72,0,0,1-1.33-.27v-.6a2.9,2.9,0,0,0,.66.25,2.77,2.77,0,0,0,.68.09,1.62,1.62,0,0,0,.78-.16.54.54,0,0,0,.28-.5.57.57,0,0,0-.22-.43,4.07,4.07,0,0,0-.85-.42,4.51,4.51,0,0,1-.85-.38,1.32,1.32,0,0,1-.37-.38,1,1,0,0,1-.12-.51,1,1,0,0,1,.42-.82,2,2,0,0,1,1.17-.3,3.37,3.37,0,0,1,1.35.28l-.23.52a3.23,3.23,0,0,0-1.17-.26,1.4,1.4,0,0,0-.69.14.45.45,0,0,0-.24.4.46.46,0,0,0,.09.29,1,1,0,0,0,.28.24c.14.07.39.17.75.31a2.75,2.75,0,0,1,1,.56A1,1,0,0,1,225.43,95.84Z"/><path class="cls-1" d="M230.49,93.23H229.4V97h-.64V93.23H228v-.29l.77-.24v-.24c0-1,.46-1.58,1.37-1.58a2.87,2.87,0,0,1,.8.14l-.17.52a2.14,2.14,0,0,0-.64-.12.63.63,0,0,0-.54.24,1.38,1.38,0,0,0-.18.79v.27h1.09Z"/><path class="cls-1" d="M235,94.86a2.35,2.35,0,0,1-.53,1.64,1.84,1.84,0,0,1-1.45.58,1.89,1.89,0,0,1-1-.27,1.73,1.73,0,0,1-.69-.77,2.73,2.73,0,0,1-.24-1.18,2.35,2.35,0,0,1,.52-1.63,2.06,2.06,0,0,1,2.88,0A2.33,2.33,0,0,1,235,94.86Zm-3.26,0a2,2,0,0,0,.33,1.25,1.3,1.3,0,0,0,1.93,0,2.51,2.51,0,0,0,0-2.49,1.34,1.34,0,0,0-1.94,0A2.07,2.07,0,0,0,231.71,94.86Z"/><path class="cls-1" d="M238.06,92.65a2.64,2.64,0,0,1,.51,0l-.09.6a2.79,2.79,0,0,0-.47-.05,1.13,1.13,0,0,0-.88.42,1.51,1.51,0,0,0-.37,1V97h-.65V92.72h.53l.08.8h0a1.92,1.92,0,0,1,.57-.65A1.31,1.31,0,0,1,238.06,92.65Z"/><path class="cls-1" d="M244.38,97V94.24a1.15,1.15,0,0,0-.24-.79,1,1,0,0,0-.74-.25,1.25,1.25,0,0,0-1,.36,1.82,1.82,0,0,0-.31,1.2V97h-.65V92.72H242l.1.59h0a1.31,1.31,0,0,1,.55-.49,1.77,1.77,0,0,1,.8-.17,1.63,1.63,0,0,1,1.17.37,1.59,1.59,0,0,1,.39,1.19V97Z"/><path class="cls-1" d="M249,97l-.12-.61h0a1.78,1.78,0,0,1-.63.54,1.91,1.91,0,0,1-.8.14,1.48,1.48,0,0,1-1-.32,1.21,1.21,0,0,1-.36-.94c0-.86.69-1.32,2.08-1.36l.72,0v-.27a1.11,1.11,0,0,0-.21-.74.91.91,0,0,0-.7-.24,2.83,2.83,0,0,0-1.21.33l-.2-.5a3.4,3.4,0,0,1,.7-.27,3.22,3.22,0,0,1,.75-.1,1.69,1.69,0,0,1,1.14.34,1.45,1.45,0,0,1,.36,1.09V97Zm-1.46-.46a1.32,1.32,0,0,0,.95-.33,1.24,1.24,0,0,0,.35-.93V94.9l-.65,0a2.19,2.19,0,0,0-1.12.24.73.73,0,0,0-.34.66.66.66,0,0,0,.21.53A.86.86,0,0,0,247.53,96.55Z"/><path class="cls-1" d="M252.19,96.55a1.87,1.87,0,0,0,.34,0,1.22,1.22,0,0,0,.25,0V97a1.23,1.23,0,0,1-.31.08l-.37,0c-.83,0-1.24-.43-1.24-1.31V93.23h-.62v-.31l.62-.27.27-.92h.38v1h1.24v.51h-1.24v2.52a.87.87,0,0,0,.18.59A.63.63,0,0,0,252.19,96.55Z"/><path class="cls-1" d="M253.58,91.56a.44.44,0,0,1,.11-.32.39.39,0,0,1,.54,0,.41.41,0,0,1,.12.32.42.42,0,0,1-.12.33.39.39,0,0,1-.54,0A.45.45,0,0,1,253.58,91.56Zm.7,5.45h-.65V92.72h.65Z"/><path class="cls-1" d="M259.35,94.86a2.39,2.39,0,0,1-.52,1.64,1.88,1.88,0,0,1-1.46.58,1.94,1.94,0,0,1-1-.27,1.73,1.73,0,0,1-.69-.77,2.73,2.73,0,0,1-.24-1.18,2.35,2.35,0,0,1,.52-1.63,1.86,1.86,0,0,1,1.46-.58,1.81,1.81,0,0,1,1.42.59A2.33,2.33,0,0,1,259.35,94.86Zm-3.26,0a2,2,0,0,0,.33,1.25,1.3,1.3,0,0,0,1.93,0,2.51,2.51,0,0,0,0-2.49,1.33,1.33,0,0,0-1.93,0A2,2,0,0,0,256.09,94.86Z"/><path class="cls-1" d="M263.42,97V94.24a1.15,1.15,0,0,0-.24-.79,1,1,0,0,0-.74-.25,1.25,1.25,0,0,0-1,.36,1.82,1.82,0,0,0-.31,1.2V97h-.65V92.72H261l.1.59h0a1.41,1.41,0,0,1,.56-.49,1.77,1.77,0,0,1,.8-.17,1.63,1.63,0,0,1,1.17.37,1.59,1.59,0,0,1,.39,1.19V97Z"/><path class="cls-1" d="M268,97l-.13-.61h0a1.73,1.73,0,0,1-.64.54,1.83,1.83,0,0,1-.79.14,1.48,1.48,0,0,1-1-.32,1.21,1.21,0,0,1-.36-.94c0-.86.69-1.32,2.07-1.36l.73,0v-.27a1.06,1.06,0,0,0-.22-.74.87.87,0,0,0-.69-.24,2.8,2.8,0,0,0-1.21.33l-.2-.5a3.54,3.54,0,0,1,.69-.27,3.38,3.38,0,0,1,.76-.1,1.64,1.64,0,0,1,1.13.34,1.41,1.41,0,0,1,.37,1.09V97Zm-1.46-.46a1.32,1.32,0,0,0,.95-.33,1.24,1.24,0,0,0,.35-.93V94.9l-.65,0a2.19,2.19,0,0,0-1.12.24.71.71,0,0,0-.34.66.66.66,0,0,0,.21.53A.86.86,0,0,0,266.57,96.55Z"/><path class="cls-1" d="M270.5,97h-.65V90.93h.65Z"/><path class="cls-1" d="M275.94,97.08a1.91,1.91,0,0,1-.76-.15,1.4,1.4,0,0,1-.58-.48h-.05a6.09,6.09,0,0,1,.05.72v1.76H274V92.72h.53l.09.59h0a1.64,1.64,0,0,1,.58-.51,1.84,1.84,0,0,1,.76-.15,1.59,1.59,0,0,1,1.32.58,2.55,2.55,0,0,1,.46,1.63,2.58,2.58,0,0,1-.47,1.64A1.58,1.58,0,0,1,275.94,97.08Zm-.09-3.88a1.16,1.16,0,0,0-1,.36,1.94,1.94,0,0,0-.3,1.16v.14a2.15,2.15,0,0,0,.3,1.29,1.14,1.14,0,0,0,1,.39,1,1,0,0,0,.86-.45,2.13,2.13,0,0,0,.32-1.24,2.07,2.07,0,0,0-.32-1.23A1,1,0,0,0,275.85,93.2Z"/><path class="cls-1" d="M280.81,92.65a2.64,2.64,0,0,1,.51,0l-.09.6a2.9,2.9,0,0,0-.47-.05,1.15,1.15,0,0,0-.89.42,1.56,1.56,0,0,0-.37,1V97h-.65V92.72h.54l.07.8h0a1.85,1.85,0,0,1,.58-.65A1.29,1.29,0,0,1,280.81,92.65Z"/><path class="cls-1" d="M285.81,94.86a2.39,2.39,0,0,1-.52,1.64,1.86,1.86,0,0,1-1.46.58,1.94,1.94,0,0,1-1-.27,1.79,1.79,0,0,1-.69-.77,2.73,2.73,0,0,1-.24-1.18,2.4,2.4,0,0,1,.52-1.63,2.08,2.08,0,0,1,2.89,0A2.37,2.37,0,0,1,285.81,94.86Zm-3.26,0a2,2,0,0,0,.33,1.25,1.3,1.3,0,0,0,1.93,0,2.51,2.51,0,0,0,0-2.49,1.33,1.33,0,0,0-1.93,0A2,2,0,0,0,282.55,94.86Z"/><path class="cls-1" d="M286.43,98.93a1.63,1.63,0,0,1-.6-.1V98.3a2,2,0,0,0,.53.08.58.58,0,0,0,.45-.17.76.76,0,0,0,.14-.5v-5h.65v4.94C287.6,98.51,287.21,98.93,286.43,98.93Zm.47-7.37a.4.4,0,0,1,.11-.32.37.37,0,0,1,.27-.11.38.38,0,0,1,.38.43.41.41,0,0,1-.11.33.4.4,0,0,1-.27.11.37.37,0,0,1-.27-.11A.41.41,0,0,1,286.9,91.56Z"/><path class="cls-1" d="M290.78,97.08a2,2,0,0,1-1.49-.57,2.25,2.25,0,0,1-.55-1.61,2.46,2.46,0,0,1,.51-1.64,1.68,1.68,0,0,1,1.37-.61,1.59,1.59,0,0,1,1.27.53,2,2,0,0,1,.47,1.39V95h-2.95a1.71,1.71,0,0,0,.38,1.15,1.32,1.32,0,0,0,1,.39,3.46,3.46,0,0,0,1.36-.29v.58a3.5,3.5,0,0,1-.65.21A3.88,3.88,0,0,1,290.78,97.08Zm-.17-3.89a1,1,0,0,0-.82.33,1.57,1.57,0,0,0-.37.93h2.24a1.41,1.41,0,0,0-.27-.93A1,1,0,0,0,290.61,93.19Z"/><path class="cls-1" d="M295.17,97.08a1.83,1.83,0,0,1-1.44-.57,2.35,2.35,0,0,1-.51-1.62,2.46,2.46,0,0,1,.52-1.66,1.88,1.88,0,0,1,1.48-.58,3.15,3.15,0,0,1,.61.06,2.34,2.34,0,0,1,.49.16l-.2.55a2.15,2.15,0,0,0-.47-.14,2,2,0,0,0-.45-.06c-.87,0-1.3.55-1.3,1.66a2,2,0,0,0,.32,1.22,1.1,1.1,0,0,0,.94.42,3,3,0,0,0,1.1-.23v.57A2.35,2.35,0,0,1,295.17,97.08Z"/><path class="cls-1" d="M298.65,96.55a1.87,1.87,0,0,0,.34,0,1.22,1.22,0,0,0,.25,0V97a1.23,1.23,0,0,1-.31.08l-.37,0c-.83,0-1.24-.43-1.24-1.31V93.23h-.61v-.31l.61-.27.27-.92H298v1h1.24v.51H298v2.52a.87.87,0,0,0,.18.59A.63.63,0,0,0,298.65,96.55Z"/><path class="cls-1" d="M302.86,95.84a1.07,1.07,0,0,1-.45.92,2,2,0,0,1-1.25.32,2.72,2.72,0,0,1-1.33-.27v-.6a3,3,0,0,0,.67.25,2.71,2.71,0,0,0,.68.09,1.62,1.62,0,0,0,.78-.16.55.55,0,0,0,.27-.5.56.56,0,0,0-.21-.43,4.36,4.36,0,0,0-.85-.42,4.22,4.22,0,0,1-.85-.38,1.2,1.2,0,0,1-.37-.38.92.92,0,0,1-.13-.51,1,1,0,0,1,.43-.82,2,2,0,0,1,1.17-.3,3.37,3.37,0,0,1,1.35.28l-.23.52a3.23,3.23,0,0,0-1.17-.26,1.44,1.44,0,0,0-.7.14.46.46,0,0,0-.23.4.46.46,0,0,0,.09.29.86.86,0,0,0,.28.24,7.71,7.71,0,0,0,.75.31,2.84,2.84,0,0,1,1,.56A1,1,0,0,1,302.86,95.84Z"/><path class="cls-1" d="M304.59,96.08l.06.09a9.1,9.1,0,0,1-.29.9c-.13.35-.26.67-.4,1h-.49c.07-.27.15-.61.23-1s.15-.72.18-1Z"/><path class="cls-1" d="M184.35,106l-.13-.61h0a1.58,1.58,0,0,1-1.44.68,1.5,1.5,0,0,1-1-.32,1.21,1.21,0,0,1-.36-.94c0-.86.69-1.32,2.08-1.36l.72,0v-.27a1.11,1.11,0,0,0-.21-.74.91.91,0,0,0-.7-.24,2.83,2.83,0,0,0-1.21.33l-.2-.5a3.64,3.64,0,0,1,.7-.27,3.22,3.22,0,0,1,.75-.1,1.69,1.69,0,0,1,1.14.34,1.45,1.45,0,0,1,.37,1.09V106Zm-1.47-.46a1.31,1.31,0,0,0,1-.33,1.24,1.24,0,0,0,.35-.93v-.39l-.65,0a2.19,2.19,0,0,0-1.12.24.73.73,0,0,0-.34.66.64.64,0,0,0,.22.53A.84.84,0,0,0,182.88,105.55Z"/><path class="cls-1" d="M186.11,100.56a.4.4,0,0,1,.11-.32.37.37,0,0,1,.27-.11.38.38,0,0,1,.38.43.41.41,0,0,1-.11.33.4.4,0,0,1-.27.11.37.37,0,0,1-.27-.11A.41.41,0,0,1,186.11,100.56Zm.7,5.45h-.65v-4.29h.65Z"/><path class="cls-1" d="M190.14,101.65a2.64,2.64,0,0,1,.51,0l-.09.6a2.9,2.9,0,0,0-.47-.05,1.16,1.16,0,0,0-.89.42,1.56,1.56,0,0,0-.37,1V106h-.64v-4.29h.53l.08.8h0a1.92,1.92,0,0,1,.57-.65A1.31,1.31,0,0,1,190.14,101.65Z"/><path class="cls-1" d="M193.44,106.08a1.91,1.91,0,0,1-.76-.15,1.4,1.4,0,0,1-.58-.48h0a6.09,6.09,0,0,1,0,.72v1.76h-.65v-6.21H192l.09.59h0a1.64,1.64,0,0,1,.58-.51,1.84,1.84,0,0,1,.76-.15,1.59,1.59,0,0,1,1.32.58,2.55,2.55,0,0,1,.46,1.63,2.58,2.58,0,0,1-.47,1.64A1.58,1.58,0,0,1,193.44,106.08Zm-.09-3.88a1.16,1.16,0,0,0-.95.36,1.94,1.94,0,0,0-.3,1.16v.14a2.15,2.15,0,0,0,.3,1.29,1.14,1.14,0,0,0,1,.39,1,1,0,0,0,.86-.45,2.13,2.13,0,0,0,.32-1.24,2.07,2.07,0,0,0-.32-1.23A1,1,0,0,0,193.35,102.2Z"/><path class="cls-1" d="M200.05,103.86a2.39,2.39,0,0,1-.53,1.64,1.86,1.86,0,0,1-1.46.58,1.88,1.88,0,0,1-1-.27,1.73,1.73,0,0,1-.69-.77,2.73,2.73,0,0,1-.24-1.18,2.35,2.35,0,0,1,.52-1.63,2.06,2.06,0,0,1,2.88,0A2.38,2.38,0,0,1,200.05,103.86Zm-3.26,0a2,2,0,0,0,.33,1.25,1.12,1.12,0,0,0,1,.43,1.13,1.13,0,0,0,1-.43,2.51,2.51,0,0,0,0-2.49,1.34,1.34,0,0,0-1.94,0A2.07,2.07,0,0,0,196.79,103.86Z"/><path class="cls-1" d="M203.14,101.65a2.64,2.64,0,0,1,.51,0l-.09.6a2.9,2.9,0,0,0-.47-.05,1.16,1.16,0,0,0-.89.42,1.56,1.56,0,0,0-.37,1V106h-.64v-4.29h.53l.08.8h0a1.92,1.92,0,0,1,.57-.65A1.31,1.31,0,0,1,203.14,101.65Z"/><path class="cls-1" d="M205.83,105.55a1.87,1.87,0,0,0,.34,0,1.22,1.22,0,0,0,.25,0v.5a1.23,1.23,0,0,1-.31.08l-.37,0c-.83,0-1.24-.43-1.24-1.31v-2.54h-.62v-.31l.62-.27.27-.92h.38v1h1.24v.51h-1.24v2.52a.87.87,0,0,0,.18.59A.63.63,0,0,0,205.83,105.55Z"/><path class="cls-1" d="M210,104.84a1.07,1.07,0,0,1-.45.92,2,2,0,0,1-1.25.32,2.72,2.72,0,0,1-1.33-.27v-.6a3,3,0,0,0,.67.25,2.71,2.71,0,0,0,.68.09,1.62,1.62,0,0,0,.78-.16.55.55,0,0,0,.27-.5.56.56,0,0,0-.21-.43,4.36,4.36,0,0,0-.85-.42,4.22,4.22,0,0,1-.85-.38,1.2,1.2,0,0,1-.37-.38.92.92,0,0,1-.13-.51,1,1,0,0,1,.43-.82,2,2,0,0,1,1.17-.3,3.37,3.37,0,0,1,1.35.28l-.23.52a3.23,3.23,0,0,0-1.17-.26,1.44,1.44,0,0,0-.7.14.46.46,0,0,0-.23.4.46.46,0,0,0,.09.29.86.86,0,0,0,.28.24,7.71,7.71,0,0,0,.75.31,2.84,2.84,0,0,1,1,.56A1,1,0,0,1,210,104.84Z"/><path class="cls-1" d="M215.8,106l-.13-.61h0a1.73,1.73,0,0,1-.64.54,1.83,1.83,0,0,1-.79.14,1.48,1.48,0,0,1-1-.32,1.21,1.21,0,0,1-.36-.94c0-.86.69-1.32,2.07-1.36l.73,0v-.27a1.06,1.06,0,0,0-.22-.74.87.87,0,0,0-.69-.24,2.8,2.8,0,0,0-1.21.33l-.2-.5a3.54,3.54,0,0,1,.69-.27,3.38,3.38,0,0,1,.76-.1,1.64,1.64,0,0,1,1.13.34,1.41,1.41,0,0,1,.37,1.09V106Zm-1.46-.46a1.32,1.32,0,0,0,.95-.33,1.24,1.24,0,0,0,.34-.93v-.39l-.64,0a2.19,2.19,0,0,0-1.12.24.71.71,0,0,0-.34.66.66.66,0,0,0,.21.53A.85.85,0,0,0,214.34,105.55Z"/><path class="cls-1" d="M220.55,106v-2.77a1.15,1.15,0,0,0-.24-.79,1,1,0,0,0-.75-.25,1.24,1.24,0,0,0-1,.36,1.82,1.82,0,0,0-.31,1.2V106h-.65v-4.29h.53l.1.59h0a1.41,1.41,0,0,1,.56-.49,1.77,1.77,0,0,1,.8-.17,1.63,1.63,0,0,1,1.17.37,1.59,1.59,0,0,1,.39,1.19V106Z"/><path class="cls-1" d="M225.44,105.43h0a1.52,1.52,0,0,1-1.35.65,1.59,1.59,0,0,1-1.3-.57,2.53,2.53,0,0,1-.47-1.63,2.59,2.59,0,0,1,.47-1.65,1.57,1.57,0,0,1,1.3-.58,1.56,1.56,0,0,1,1.34.63h0l0-.31v-2h.65V106h-.53Zm-1.29.11a1.18,1.18,0,0,0,1-.36,1.82,1.82,0,0,0,.3-1.17v-.13a2.16,2.16,0,0,0-.3-1.3,1.17,1.17,0,0,0-1-.39,1,1,0,0,0-.87.44,2.16,2.16,0,0,0-.31,1.25,2.12,2.12,0,0,0,.3,1.24A1,1,0,0,0,224.15,105.54Z"/><path class="cls-1" d="M231.46,101.65a2.64,2.64,0,0,1,.51,0l-.09.6a2.79,2.79,0,0,0-.46-.05,1.13,1.13,0,0,0-.89.42,1.51,1.51,0,0,0-.37,1V106h-.65v-4.29h.54l.07.8h0a1.92,1.92,0,0,1,.57-.65A1.33,1.33,0,0,1,231.46,101.65Z"/><path class="cls-1" d="M236.47,103.86a2.35,2.35,0,0,1-.53,1.64,1.84,1.84,0,0,1-1.45.58,1.89,1.89,0,0,1-1-.27,1.73,1.73,0,0,1-.69-.77,2.73,2.73,0,0,1-.24-1.18,2.35,2.35,0,0,1,.52-1.63,2.06,2.06,0,0,1,2.88,0A2.33,2.33,0,0,1,236.47,103.86Zm-3.26,0a2,2,0,0,0,.33,1.25,1.3,1.3,0,0,0,1.93,0,2.51,2.51,0,0,0,0-2.49,1.34,1.34,0,0,0-1.94,0A2.07,2.07,0,0,0,233.21,103.86Z"/><path class="cls-1" d="M240.24,106l-.13-.61h0a1.81,1.81,0,0,1-.64.54,1.83,1.83,0,0,1-.79.14,1.46,1.46,0,0,1-1-.32,1.21,1.21,0,0,1-.36-.94c0-.86.69-1.32,2.07-1.36l.73,0v-.27a1.06,1.06,0,0,0-.22-.74.87.87,0,0,0-.69-.24,2.8,2.8,0,0,0-1.21.33l-.2-.5a3.54,3.54,0,0,1,.69-.27,3.3,3.3,0,0,1,.76-.1,1.64,1.64,0,0,1,1.13.34,1.41,1.41,0,0,1,.37,1.09V106Zm-1.46-.46a1.32,1.32,0,0,0,.95-.33,1.24,1.24,0,0,0,.34-.93v-.39l-.65,0a2.17,2.17,0,0,0-1.11.24.71.71,0,0,0-.34.66.66.66,0,0,0,.21.53A.85.85,0,0,0,238.78,105.55Z"/><path class="cls-1" d="M245,105.43h0a1.52,1.52,0,0,1-1.35.65,1.58,1.58,0,0,1-1.3-.57,2.47,2.47,0,0,1-.47-1.63,2.53,2.53,0,0,1,.47-1.65,1.74,1.74,0,0,1,2.64,0h0l0-.31v-2h.64V106h-.52Zm-1.3.11a1.19,1.19,0,0,0,1-.36,1.82,1.82,0,0,0,.3-1.17v-.13a2.09,2.09,0,0,0-.31-1.3,1.13,1.13,0,0,0-1-.39,1,1,0,0,0-.88.44,2.24,2.24,0,0,0-.3,1.25,2.12,2.12,0,0,0,.3,1.24A1,1,0,0,0,243.67,105.54Z"/><path class="cls-1" d="M252,106v-2.77a1.15,1.15,0,0,0-.24-.79,1,1,0,0,0-.75-.25,1.24,1.24,0,0,0-1,.36,1.82,1.82,0,0,0-.31,1.2V106H249v-4.29h.52l.11.59h0a1.34,1.34,0,0,1,.56-.49,1.77,1.77,0,0,1,.8-.17,1.59,1.59,0,0,1,1.16.37,1.56,1.56,0,0,1,.4,1.19V106Z"/><path class="cls-1" d="M255.76,106.08a2,2,0,0,1-1.5-.57,2.25,2.25,0,0,1-.55-1.61,2.46,2.46,0,0,1,.51-1.64,1.69,1.69,0,0,1,1.37-.61,1.58,1.58,0,0,1,1.27.53,2,2,0,0,1,.47,1.39V104h-2.95a1.71,1.71,0,0,0,.38,1.15,1.32,1.32,0,0,0,1,.39,3.51,3.51,0,0,0,1.37-.29v.58a4.05,4.05,0,0,1-.65.21A4,4,0,0,1,255.76,106.08Zm-.18-3.89a1.06,1.06,0,0,0-.82.33,1.51,1.51,0,0,0-.36.93h2.23a1.41,1.41,0,0,0-.27-.93A1,1,0,0,0,255.58,102.19Z"/><path class="cls-1" d="M259.82,105.55a1.84,1.84,0,0,0,.33,0,1.09,1.09,0,0,0,.25,0v.5a1.23,1.23,0,0,1-.31.08l-.37,0c-.82,0-1.24-.43-1.24-1.31v-2.54h-.61v-.31l.61-.27.28-.92h.37v1h1.24v.51h-1.24v2.52a.87.87,0,0,0,.18.59A.66.66,0,0,0,259.82,105.55Z"/><path class="cls-1" d="M264.76,106l-.79-2.52c-.05-.15-.14-.5-.28-1h0q-.15.67-.27,1l-.81,2.51h-.75l-1.17-4.29h.68q.42,1.62.63,2.46a8.57,8.57,0,0,1,.25,1.14h0c0-.15.08-.34.14-.58s.12-.42.17-.56l.78-2.46h.71l.76,2.46a7.75,7.75,0,0,1,.3,1.13h0c0-.09,0-.24.08-.43s.32-1.25.82-3.16h.67L265.53,106Z"/><path class="cls-1" d="M271.18,103.86a2.39,2.39,0,0,1-.53,1.64,1.86,1.86,0,0,1-1.46.58,1.94,1.94,0,0,1-1-.27,1.77,1.77,0,0,1-.68-.77,2.73,2.73,0,0,1-.25-1.18,2.35,2.35,0,0,1,.53-1.63,2.06,2.06,0,0,1,2.88,0A2.38,2.38,0,0,1,271.18,103.86Zm-3.26,0a2.1,2.1,0,0,0,.32,1.25,1.31,1.31,0,0,0,1.94,0,2.51,2.51,0,0,0,0-2.49,1.34,1.34,0,0,0-1.94,0A2,2,0,0,0,267.92,103.86Z"/><path class="cls-1" d="M274.27,101.65a2.64,2.64,0,0,1,.51,0l-.09.6a2.9,2.9,0,0,0-.47-.05,1.16,1.16,0,0,0-.89.42,1.56,1.56,0,0,0-.37,1V106h-.65v-4.29h.54l.07.8h0a1.82,1.82,0,0,1,.57-.65A1.29,1.29,0,0,1,274.27,101.65Z"/><path class="cls-1" d="M276.22,103.81a7.22,7.22,0,0,1,.51-.62l1.39-1.47h.76l-1.73,1.83L279,106h-.79l-1.51-2-.49.42V106h-.64V99.93h.64v3.22q0,.21,0,.66Z"/><path class="cls-1" d="M282.54,104.84a1.08,1.08,0,0,1-.44.92,2.09,2.09,0,0,1-1.25.32,2.72,2.72,0,0,1-1.33-.27v-.6a2.74,2.74,0,0,0,.66.25,2.77,2.77,0,0,0,.68.09,1.62,1.62,0,0,0,.78-.16.54.54,0,0,0,.28-.5.57.57,0,0,0-.22-.43,4.36,4.36,0,0,0-.85-.42,4.51,4.51,0,0,1-.85-.38,1.32,1.32,0,0,1-.37-.38,1,1,0,0,1-.12-.51,1,1,0,0,1,.42-.82,2,2,0,0,1,1.17-.3,3.37,3.37,0,0,1,1.35.28l-.23.52a3.23,3.23,0,0,0-1.17-.26,1.4,1.4,0,0,0-.69.14.45.45,0,0,0-.24.4.46.46,0,0,0,.09.29.86.86,0,0,0,.28.24c.14.07.39.17.75.31a2.75,2.75,0,0,1,1,.56A1,1,0,0,1,282.54,104.84Z"/><path class="cls-2" d="M192.75,65.37a5,5,0,0,1-1.85,4.17A8.39,8.39,0,0,1,185.61,71h-2.1v7h-2.08V60.17h4.63Q192.75,60.17,192.75,65.37Zm-9.24,3.84h1.87a6.88,6.88,0,0,0,4-.89,3.27,3.27,0,0,0,1.23-2.85,3.1,3.1,0,0,0-1.16-2.64,6,6,0,0,0-3.61-.87h-2.32Z"/><path class="cls-2" d="M210,78H208V69.62h-9.4V78h-2.08V60.17h2.08v7.59H208V60.17H210Z"/><path class="cls-2" d="M226.25,65.37a5,5,0,0,1-1.85,4.17A8.42,8.42,0,0,1,219.1,71H217v7h-2.08V60.17h4.63Q226.25,60.17,226.25,65.37ZM217,69.21h1.86a6.88,6.88,0,0,0,4-.89,3.25,3.25,0,0,0,1.24-2.85,3.1,3.1,0,0,0-1.16-2.64,6.07,6.07,0,0,0-3.62-.87H217Z"/><path class="cls-2" d="M229,70.38c0-3.5.68-6.13,2-7.86a7.21,7.21,0,0,1,6.05-2.61,8.24,8.24,0,0,1,2.17.23v1.75a7.06,7.06,0,0,0-2.15-.31,5.43,5.43,0,0,0-4.38,1.79c-1,1.19-1.56,3.07-1.66,5.62h.15a4.67,4.67,0,0,1,4.25-2.1,5,5,0,0,1,3.79,1.46,5.47,5.47,0,0,1,1.38,3.94,6.13,6.13,0,0,1-1.52,4.38A5.41,5.41,0,0,1,235,78.26a5.3,5.3,0,0,1-4.39-2.08A9.24,9.24,0,0,1,229,70.38Zm6,6.16a3.4,3.4,0,0,0,2.69-1.1,4.62,4.62,0,0,0,1-3.15,4.07,4.07,0,0,0-.89-2.78,3.35,3.35,0,0,0-2.66-1,4.5,4.5,0,0,0-2,.45,3.87,3.87,0,0,0-1.46,1.25,2.9,2.9,0,0,0-.54,1.65,5.55,5.55,0,0,0,.49,2.34,4.08,4.08,0,0,0,1.38,1.72A3.42,3.42,0,0,0,235,76.54Z"/><path class="cls-2" d="M254.77,78H243V76.27l4.7-4.73a32.64,32.64,0,0,0,2.83-3.1,7.78,7.78,0,0,0,1-1.8,5.17,5.17,0,0,0,.34-1.9,3,3,0,0,0-.87-2.26,3.28,3.28,0,0,0-2.4-.84,6.2,6.2,0,0,0-2.11.37,8.33,8.33,0,0,0-2.21,1.33L243.27,62a8.24,8.24,0,0,1,5.38-2.05,5.67,5.67,0,0,1,3.94,1.29A4.44,4.44,0,0,1,254,64.66a6.67,6.67,0,0,1-1,3.36,21.55,21.55,0,0,1-3.56,4.2L245.59,76v.09h9.18Z"/><path class="cls-2" d="M258,76.72a1.87,1.87,0,0,1,.37-1.24,1.36,1.36,0,0,1,1.07-.42,1.47,1.47,0,0,1,1.11.42,1.77,1.77,0,0,1,.39,1.24,1.69,1.69,0,0,1-.4,1.22,1.42,1.42,0,0,1-1.1.43,1.44,1.44,0,0,1-1-.39A1.66,1.66,0,0,1,258,76.72Z"/><path class="cls-2" d="M271.5,78h-2V65.29c0-1.05,0-2.05.1-3-.17.17-.36.35-.58.54s-1.18,1-2.9,2.38l-1.08-1.39,4.73-3.65h1.71Z"/><path class="cls-2" d="M285.44,64.42a5,5,0,0,1,4.09,1.8A7.83,7.83,0,0,1,291,71.31a7.94,7.94,0,0,1-1.47,5.12,4.94,4.94,0,0,1-4.08,1.83,5.83,5.83,0,0,1-2.39-.48,4.56,4.56,0,0,1-1.81-1.49h-.15L280.66,78h-1.45V59h2v4.61c0,1,0,2-.1,2.79h.1A4.79,4.79,0,0,1,285.44,64.42Zm-.3,1.69a3.55,3.55,0,0,0-3,1.19,6.73,6.73,0,0,0-.91,4,6.69,6.69,0,0,0,.94,4,3.56,3.56,0,0,0,3,1.21A3.12,3.12,0,0,0,288,75.2a7,7,0,0,0,.91-3.91,6.77,6.77,0,0,0-.91-3.9A3.27,3.27,0,0,0,285.14,66.11Z"/><path class="cls-2" d="M303.69,78V69.36a3.46,3.46,0,0,0-.75-2.44,3,3,0,0,0-2.33-.81,3.86,3.86,0,0,0-3.08,1.14,5.71,5.71,0,0,0-1,3.74v7h-2V64.64h1.65l.33,1.83h.1a4.15,4.15,0,0,1,1.74-1.54,5.69,5.69,0,0,1,2.5-.54,5.06,5.06,0,0,1,3.64,1.17,4.93,4.93,0,0,1,1.22,3.73V78Z"/><path class="cls-2" d="M16.12,66.37a5,5,0,0,1-1.85,4.17A8.39,8.39,0,0,1,9,72H6.88v7H4.8V61.17H9.43Q16.12,61.17,16.12,66.37ZM6.88,70.21H8.75a6.93,6.93,0,0,0,4-.89A3.27,3.27,0,0,0,14,66.47a3.1,3.1,0,0,0-1.16-2.64A6,6,0,0,0,9.2,63H6.88Z"/><path class="cls-2" d="M33.4,79H31.33v-8.4h-9.4V79H19.85V61.17h2.08v7.59h9.4V61.17H33.4Z"/><path class="cls-2" d="M49.61,66.37a5,5,0,0,1-1.85,4.17A8.37,8.37,0,0,1,42.47,72h-2.1v7H38.3V61.17h4.63Q49.61,61.17,49.61,66.37Zm-9.24,3.84h1.87a6.88,6.88,0,0,0,4-.89,3.28,3.28,0,0,0,1.24-2.85,3.1,3.1,0,0,0-1.16-2.64A6.07,6.07,0,0,0,42.69,63H40.37Z"/><path class="cls-2" d="M63.85,79H52.12V77.27l4.7-4.72a35.25,35.25,0,0,0,2.83-3.11,7.71,7.71,0,0,0,1-1.8A5.16,5.16,0,0,0,61,65.75a3,3,0,0,0-.87-2.27,3.32,3.32,0,0,0-2.41-.83,6.1,6.1,0,0,0-2.1.36,8.64,8.64,0,0,0-2.22,1.33L52.35,63a8.25,8.25,0,0,1,5.37-2.05,5.65,5.65,0,0,1,3.94,1.29,4.4,4.4,0,0,1,1.43,3.46,6.75,6.75,0,0,1-1,3.36,21.68,21.68,0,0,1-3.57,4.2L54.67,77v.1h9.18Z"/><path class="cls-2" d="M72,68.11a6.58,6.58,0,0,1,4.44,1.4,4.79,4.79,0,0,1,1.62,3.83,5.52,5.52,0,0,1-1.77,4.35,7.1,7.1,0,0,1-4.86,1.57,9,9,0,0,1-4.61-1v-2a7,7,0,0,0,2.13.86,10.31,10.31,0,0,0,2.5.31,5,5,0,0,0,3.34-1A3.63,3.63,0,0,0,76,73.57q0-3.73-4.58-3.73a17.84,17.84,0,0,0-3.1.35l-1.05-.67.67-8.35h8.88V63H69.65l-.46,5.36A14.09,14.09,0,0,1,72,68.11Z"/><path class="cls-2" d="M81.34,77.72a1.87,1.87,0,0,1,.37-1.24,1.36,1.36,0,0,1,1.07-.42,1.43,1.43,0,0,1,1.1.42,1.73,1.73,0,0,1,.4,1.24,1.69,1.69,0,0,1-.4,1.22,1.59,1.59,0,0,1-2.13,0A1.66,1.66,0,0,1,81.34,77.72Z"/><path class="cls-2" d="M99.09,68.79q0,10.47-8.11,10.47A8.34,8.34,0,0,1,88.74,79V77.27a7.21,7.21,0,0,0,2.22.32,5.39,5.39,0,0,0,4.42-1.82c1-1.2,1.54-3.06,1.63-5.56h-.14a4.38,4.38,0,0,1-1.78,1.55,5.84,5.84,0,0,1-2.51.53,5,5,0,0,1-3.76-1.42,5.42,5.42,0,0,1-1.39-4A6.07,6.07,0,0,1,89,62.52a5.94,5.94,0,0,1,7.27-.67,5.9,5.9,0,0,1,2.1,2.72A11.06,11.06,0,0,1,99.09,68.79Zm-6-6.14a3.32,3.32,0,0,0-2.69,1.12,4.66,4.66,0,0,0-1,3.12,4.09,4.09,0,0,0,.88,2.77,3.38,3.38,0,0,0,2.68,1,4.49,4.49,0,0,0,2-.46A3.71,3.71,0,0,0,96.5,69,2.81,2.81,0,0,0,97,67.35a5.62,5.62,0,0,0-.5-2.37,4.1,4.1,0,0,0-1.4-1.71A3.48,3.48,0,0,0,93.08,62.65Z"/><path class="cls-2" d="M108.81,65.42a5,5,0,0,1,4.09,1.8,7.91,7.91,0,0,1,1.46,5.09,7.94,7.94,0,0,1-1.47,5.12,4.94,4.94,0,0,1-4.08,1.83,5.83,5.83,0,0,1-2.39-.48,4.48,4.48,0,0,1-1.81-1.49h-.15L104,79h-1.45V60h2v4.62c0,1,0,2-.1,2.78h.1A4.79,4.79,0,0,1,108.81,65.42Zm-.3,1.69a3.55,3.55,0,0,0-3,1.19,6.73,6.73,0,0,0-.91,4,6.69,6.69,0,0,0,.94,4,3.56,3.56,0,0,0,3,1.21,3.14,3.14,0,0,0,2.79-1.36,7,7,0,0,0,.91-3.91,6.71,6.71,0,0,0-.91-3.89A3.26,3.26,0,0,0,108.51,67.11Z"/><path class="cls-2" d="M127.06,79V70.36a3.48,3.48,0,0,0-.75-2.44,3,3,0,0,0-2.33-.81,3.84,3.84,0,0,0-3.08,1.14,5.76,5.76,0,0,0-1,3.75v7h-2V65.64h1.65l.33,1.83h.1a4.06,4.06,0,0,1,1.74-1.53,5.56,5.56,0,0,1,2.5-.55,5.06,5.06,0,0,1,3.64,1.17,4.94,4.94,0,0,1,1.22,3.73V79Z"/><path class="cls-1" d="M6.27,89a1.42,1.42,0,0,1-.54,1.18,2.4,2.4,0,0,1-1.49.42,3.79,3.79,0,0,1-1.56-.26v-.64a5,5,0,0,0,.77.23,3.81,3.81,0,0,0,.82.09,1.66,1.66,0,0,0,1-.26A.82.82,0,0,0,5.6,89a.85.85,0,0,0-.12-.48,1,1,0,0,0-.4-.35,5.35,5.35,0,0,0-.85-.37,2.63,2.63,0,0,1-1.13-.67,1.49,1.49,0,0,1-.35-1,1.27,1.27,0,0,1,.5-1,2.06,2.06,0,0,1,1.31-.39A3.86,3.86,0,0,1,6.13,85l-.21.58a3.5,3.5,0,0,0-1.37-.3,1.36,1.36,0,0,0-.83.23.73.73,0,0,0-.29.63.88.88,0,0,0,.11.48A1,1,0,0,0,3.9,87a4.63,4.63,0,0,0,.8.35A3.09,3.09,0,0,1,5.94,88,1.36,1.36,0,0,1,6.27,89Z"/><path class="cls-1" d="M10,90.48,8,85.42H8c0,.4.05.88.05,1.43v3.63H7.44V84.77h1l1.81,4.71h0l1.83-4.71h1v5.71h-.67V86.8c0-.42,0-.88.06-1.37h0l-2,5Z"/><path class="cls-1" d="M14.66,90.48V84.77h.67v5.71Z"/><path class="cls-1" d="M19.34,85.28a1.88,1.88,0,0,0-1.49.63,2.54,2.54,0,0,0-.54,1.71,2.6,2.6,0,0,0,.52,1.74,1.89,1.89,0,0,0,1.5.61,5,5,0,0,0,1.37-.22v.59a4.46,4.46,0,0,1-1.47.22,2.49,2.49,0,0,1-1.95-.77,3.17,3.17,0,0,1-.68-2.17,3.44,3.44,0,0,1,.33-1.55,2.4,2.4,0,0,1,.95-1,2.91,2.91,0,0,1,1.47-.36,3.52,3.52,0,0,1,1.57.33l-.28.57A3,3,0,0,0,19.34,85.28Z"/><path class="cls-1" d="M25.3,90l.34,0,.25-.06v.5a.91.91,0,0,1-.31.08,1.73,1.73,0,0,1-.37,0c-.83,0-1.24-.44-1.24-1.31V86.7h-.61v-.31l.61-.27.27-.91h.38v1h1.24v.5H24.62v2.52a.9.9,0,0,0,.18.6A.65.65,0,0,0,25.3,90Z"/><path class="cls-1" d="M29.38,90.48l-.13-.61h0a1.85,1.85,0,0,1-.64.55,2,2,0,0,1-.79.14,1.42,1.42,0,0,1-1-.33,1.2,1.2,0,0,1-.36-.93c0-.87.69-1.32,2.07-1.36l.73,0v-.26A1.12,1.12,0,0,0,29,86.9a.89.89,0,0,0-.69-.24,2.8,2.8,0,0,0-1.21.33l-.2-.49a2.61,2.61,0,0,1,.69-.27,2.78,2.78,0,0,1,.76-.1,1.61,1.61,0,0,1,1.13.34,1.4,1.4,0,0,1,.37,1.09v2.92ZM27.91,90a1.35,1.35,0,0,0,1-.33,1.22,1.22,0,0,0,.34-.93v-.39l-.65,0a2.41,2.41,0,0,0-1.11.24.71.71,0,0,0-.34.66.67.67,0,0,0,.21.54A.89.89,0,0,0,27.91,90Z"/><path class="cls-1" d="M32.23,88.29,30.74,86.2h.74l1.13,1.64,1.12-1.64h.73L33,88.29l1.57,2.19H33.8l-1.19-1.73-1.22,1.73h-.73Z"/><path class="cls-1" d="M37.2,90.56A1.94,1.94,0,0,1,35.7,90a2.23,2.23,0,0,1-.55-1.61,2.48,2.48,0,0,1,.51-1.64A1.68,1.68,0,0,1,37,86.12a1.62,1.62,0,0,1,1.27.53,2,2,0,0,1,.47,1.4v.41h-3a1.68,1.68,0,0,0,.38,1.14,1.32,1.32,0,0,0,1,.39,3.34,3.34,0,0,0,1.37-.29v.58a3.28,3.28,0,0,1-1.39.28ZM37,86.66a1.07,1.07,0,0,0-.82.34,1.46,1.46,0,0,0-.36.93h2.23A1.44,1.44,0,0,0,37.8,87,1,1,0,0,0,37,86.66Z"/><path class="cls-1" d="M42.64,89.31a1.06,1.06,0,0,1-.45.92,2.06,2.06,0,0,1-1.25.33,2.72,2.72,0,0,1-1.33-.27v-.6a3.54,3.54,0,0,0,.67.24A2.71,2.71,0,0,0,41,90a1.51,1.51,0,0,0,.78-.16.53.53,0,0,0,.27-.49.54.54,0,0,0-.21-.43,3.44,3.44,0,0,0-.85-.42,4.75,4.75,0,0,1-.85-.39,1.25,1.25,0,0,1-.38-.38,1,1,0,0,1-.12-.5,1,1,0,0,1,.43-.83,2,2,0,0,1,1.17-.3,3.37,3.37,0,0,1,1.35.28l-.23.53a3.07,3.07,0,0,0-1.17-.27,1.32,1.32,0,0,0-.7.15.45.45,0,0,0-.23.4.48.48,0,0,0,.09.29.84.84,0,0,0,.28.23,7.06,7.06,0,0,0,.75.32,2.69,2.69,0,0,1,1,.56A1,1,0,0,1,42.64,89.31Z"/><path class="cls-1" d="M47.76,90.56A1.73,1.73,0,0,1,47,90.4a1.39,1.39,0,0,1-.58-.47h-.05a6.07,6.07,0,0,1,.05.71V92.4h-.65V86.2h.53l.09.58h0a1.51,1.51,0,0,1,.58-.5,1.7,1.7,0,0,1,.76-.16,1.59,1.59,0,0,1,1.32.58,2.64,2.64,0,0,1,.46,1.64A2.55,2.55,0,0,1,49.07,90,1.59,1.59,0,0,1,47.76,90.56Zm-.09-3.89a1.15,1.15,0,0,0-1,.36,1.83,1.83,0,0,0-.3,1.16v.15a2.15,2.15,0,0,0,.3,1.29,1.13,1.13,0,0,0,1,.39,1,1,0,0,0,.87-.45,2.15,2.15,0,0,0,.32-1.24,2,2,0,0,0-.32-1.23A1,1,0,0,0,47.67,86.67Z"/><path class="cls-1" d="M53.3,90.48l-.12-.61h0a1.83,1.83,0,0,1-.63.55,2.08,2.08,0,0,1-.8.14,1.44,1.44,0,0,1-1-.33,1.2,1.2,0,0,1-.36-.93c0-.87.69-1.32,2.08-1.36l.72,0v-.26a1.12,1.12,0,0,0-.21-.75.91.91,0,0,0-.7-.24A2.83,2.83,0,0,0,51,87l-.2-.49a2.55,2.55,0,0,1,.7-.27,2.76,2.76,0,0,1,.75-.1,1.64,1.64,0,0,1,1.14.34,1.43,1.43,0,0,1,.37,1.09v2.92ZM51.84,90a1.32,1.32,0,0,0,.95-.33,1.23,1.23,0,0,0,.35-.93v-.39l-.65,0a2.42,2.42,0,0,0-1.12.24.73.73,0,0,0-.34.66.67.67,0,0,0,.21.54A.93.93,0,0,0,51.84,90Z"/><path class="cls-1" d="M55.07,85a.41.41,0,0,1,.11-.33.36.36,0,0,1,.27-.1.39.39,0,0,1,.27.1.45.45,0,0,1,.11.33.44.44,0,0,1-.11.32.36.36,0,0,1-.27.11.33.33,0,0,1-.27-.11A.4.4,0,0,1,55.07,85Zm.7,5.44h-.65V86.2h.65Z"/><path class="cls-1" d="M60.06,89.91h0a1.52,1.52,0,0,1-1.34.65A1.58,1.58,0,0,1,57.37,90a3.11,3.11,0,0,1,0-3.27,1.73,1.73,0,0,1,2.64,0h0l0-.31,0-.3V84.4h.65v6.08h-.53Zm-1.3.11a1.14,1.14,0,0,0,1-.37,1.81,1.81,0,0,0,.3-1.16v-.14a2.16,2.16,0,0,0-.3-1.3,1.14,1.14,0,0,0-1-.39,1,1,0,0,0-.87.45,2.2,2.2,0,0,0-.3,1.25,2.12,2.12,0,0,0,.3,1.24A1,1,0,0,0,58.76,90Z"/><path class="cls-1" d="M64.07,85a.45.45,0,0,1,.11-.33.41.41,0,0,1,.54,0,.42.42,0,0,1,.12.33.41.41,0,0,1-.12.32.39.39,0,0,1-.54,0A.44.44,0,0,1,64.07,85Zm.7,5.44h-.64V86.2h.64Z"/><path class="cls-1" d="M69.08,90.48V87.71a1.1,1.1,0,0,0-.24-.78,1,1,0,0,0-.75-.26,1.24,1.24,0,0,0-1,.36,1.86,1.86,0,0,0-.31,1.2v2.25h-.65V86.2h.53l.1.58h0a1.41,1.41,0,0,1,.56-.49,1.91,1.91,0,0,1,.8-.17,1.63,1.63,0,0,1,1.17.37,1.6,1.6,0,0,1,.39,1.2v2.79Z"/><path class="cls-1" d="M76.59,90.48H72.84v-.56l1.5-1.51a11,11,0,0,0,.91-1,2.3,2.3,0,0,0,.33-.58,1.74,1.74,0,0,0,.11-.61,1,1,0,0,0-.28-.72,1,1,0,0,0-.77-.27,1.85,1.85,0,0,0-.67.12,2.9,2.9,0,0,0-.71.42l-.35-.44a2.68,2.68,0,0,1,1.72-.65,1.77,1.77,0,0,1,1.26.41,1.39,1.39,0,0,1,.46,1.11,2.14,2.14,0,0,1-.3,1.07,7.11,7.11,0,0,1-1.14,1.34l-1.25,1.23v0h2.93Z"/><path class="cls-1" d="M81.2,87.62a4.2,4.2,0,0,1-.47,2.21,1.58,1.58,0,0,1-1.43.73,1.56,1.56,0,0,1-1.4-.75,4.09,4.09,0,0,1-.48-2.19,4.17,4.17,0,0,1,.47-2.22,1.73,1.73,0,0,1,2.83,0A4.11,4.11,0,0,1,81.2,87.62Zm-3.12,0a4.25,4.25,0,0,0,.29,1.81,1,1,0,0,0,.93.57,1,1,0,0,0,.94-.58,4.06,4.06,0,0,0,.3-1.8,4.14,4.14,0,0,0-.3-1.81,1,1,0,0,0-.94-.57,1,1,0,0,0-.93.57A4.22,4.22,0,0,0,78.08,87.62Z"/><path class="cls-1" d="M84.39,90.48h-.63V86.41q0-.51,0-1l-.18.17-.93.76-.35-.44,1.51-1.17h.55Z"/><path class="cls-1" d="M90.32,87.21c0,2.23-.87,3.35-2.6,3.35a2.75,2.75,0,0,1-.72-.08v-.56a2.28,2.28,0,0,0,.72.1,1.72,1.72,0,0,0,1.41-.58,2.92,2.92,0,0,0,.52-1.78h0a1.52,1.52,0,0,1-.57.5,1.92,1.92,0,0,1-.81.17,1.59,1.59,0,0,1-1.2-.46,1.7,1.7,0,0,1-.44-1.26,2,2,0,0,1,.49-1.41A1.91,1.91,0,0,1,89.41,85a1.86,1.86,0,0,1,.67.87A3.46,3.46,0,0,1,90.32,87.21Zm-1.93-2a1.06,1.06,0,0,0-.86.36,1.51,1.51,0,0,0-.3,1,1.3,1.3,0,0,0,.28.89,1.09,1.09,0,0,0,.85.32,1.45,1.45,0,0,0,.66-.15,1.12,1.12,0,0,0,.47-.39,1,1,0,0,0,.17-.52A1.73,1.73,0,0,0,89.5,86a1.37,1.37,0,0,0-.45-.55A1.14,1.14,0,0,0,88.39,85.24Z"/><rect class="cls-2" y="0.33" width="188.47" height="46.23"/><path class="cls-3" d="M21,10.79a3.28,3.28,0,0,0-2.6,1.1,4.45,4.45,0,0,0-1,3,4.55,4.55,0,0,0,.92,3A3.26,3.26,0,0,0,20.94,19a8.92,8.92,0,0,0,2.38-.38v1a7.3,7.3,0,0,1-2.56.39,4.36,4.36,0,0,1-3.41-1.34,5.51,5.51,0,0,1-1.2-3.81,6.11,6.11,0,0,1,.58-2.71,4.19,4.19,0,0,1,1.67-1.79A5,5,0,0,1,21,9.75a6.29,6.29,0,0,1,2.75.58l-.5,1A5.21,5.21,0,0,0,21,10.79Z"/><path class="cls-3" d="M31.8,16.14A4.16,4.16,0,0,1,30.88,19a3.25,3.25,0,0,1-2.55,1,3.38,3.38,0,0,1-1.78-.47,3.15,3.15,0,0,1-1.21-1.36,4.7,4.7,0,0,1-.42-2.06,4.12,4.12,0,0,1,.91-2.85,3.22,3.22,0,0,1,2.55-1,3.17,3.17,0,0,1,2.5,1.05A4.15,4.15,0,0,1,31.8,16.14Zm-5.71,0a3.57,3.57,0,0,0,.58,2.19,2,2,0,0,0,1.69.75,2,2,0,0,0,1.69-.75,3.57,3.57,0,0,0,.58-2.19A3.51,3.51,0,0,0,30.05,14a2,2,0,0,0-1.71-.74,2,2,0,0,0-1.68.73A3.5,3.5,0,0,0,26.09,16.14Z"/><path class="cls-3" d="M38.92,19.89V15.05a1.94,1.94,0,0,0-.42-1.37,1.69,1.69,0,0,0-1.3-.45,2.18,2.18,0,0,0-1.73.63,3.27,3.27,0,0,0-.54,2.1v3.93H33.79V12.4h.92l.19,1H35a2.34,2.34,0,0,1,1-.86,3.09,3.09,0,0,1,1.4-.31,2.84,2.84,0,0,1,2,.66A2.78,2.78,0,0,1,40.05,15v4.89Z"/><path class="cls-3" d="M44.8,19.09a3.6,3.6,0,0,0,.58,0l.45-.09v.86a2.12,2.12,0,0,1-.54.15,4,4,0,0,1-.65.06c-1.45,0-2.17-.76-2.17-2.29V13.28H41.39v-.55l1.08-.47.47-1.6h.66V12.4h2.17v.88H43.6v4.41a1.54,1.54,0,0,0,.32,1A1.13,1.13,0,0,0,44.8,19.09Z"/><path class="cls-3" d="M50.74,12.26a4,4,0,0,1,.9.09l-.16,1.05a3.72,3.72,0,0,0-.82-.1,2,2,0,0,0-1.55.73,2.72,2.72,0,0,0-.65,1.84v4H47.33V12.4h.93l.13,1.39h.06a3.17,3.17,0,0,1,1-1.13A2.29,2.29,0,0,1,50.74,12.26Z"/><path class="cls-3" d="M53,10.37a.74.74,0,0,1,.19-.57.65.65,0,0,1,.48-.18.69.69,0,0,1,.47.18.76.76,0,0,1,.2.57.76.76,0,0,1-.2.57.66.66,0,0,1-.47.19.62.62,0,0,1-.48-.19A.76.76,0,0,1,53,10.37Zm1.23,9.52H53V12.4h1.14Z"/><path class="cls-3" d="M60.07,12.28a2.76,2.76,0,0,1,2.29,1,4.38,4.38,0,0,1,.82,2.85A4.46,4.46,0,0,1,62.35,19a2.77,2.77,0,0,1-2.28,1,3.24,3.24,0,0,1-1.34-.27,2.53,2.53,0,0,1-1-.83h-.09l-.24,1h-.81V9.26h1.14v2.58q0,.87-.06,1.56h.06A2.68,2.68,0,0,1,60.07,12.28Zm-.17,1a2,2,0,0,0-1.67.66,3.81,3.81,0,0,0-.51,2.25,3.78,3.78,0,0,0,.52,2.26,2,2,0,0,0,1.69.68,1.76,1.76,0,0,0,1.56-.76A3.94,3.94,0,0,0,62,16.13a3.81,3.81,0,0,0-.51-2.19A1.83,1.83,0,0,0,59.9,13.23Z"/><path class="cls-3" d="M66.23,12.4v4.86a2,2,0,0,0,.41,1.37,1.72,1.72,0,0,0,1.31.45,2.16,2.16,0,0,0,1.72-.64,3.27,3.27,0,0,0,.54-2.1V12.4h1.14v7.49h-.94l-.16-1h-.06a2.27,2.27,0,0,1-1,.84,3.21,3.21,0,0,1-1.41.3,2.86,2.86,0,0,1-2-.65,2.74,2.74,0,0,1-.68-2.08V12.4Z"/><path class="cls-3" d="M76.17,19.09a3.6,3.6,0,0,0,.58,0L77.2,19v.86a2.12,2.12,0,0,1-.54.15A4,4,0,0,1,76,20c-1.45,0-2.17-.76-2.17-2.29V13.28H72.76v-.55l1.08-.47.47-1.6H75V12.4h2.17v.88H75v4.41a1.54,1.54,0,0,0,.32,1A1.13,1.13,0,0,0,76.17,19.09Z"/><path class="cls-3" d="M78.6,10.37a.74.74,0,0,1,.19-.57.68.68,0,0,1,.48-.18.67.67,0,0,1,.47.18.76.76,0,0,1,.2.57.76.76,0,0,1-.2.57.64.64,0,0,1-.47.19.65.65,0,0,1-.48-.19A.76.76,0,0,1,78.6,10.37Zm1.23,9.52H78.7V12.4h1.13Z"/><path class="cls-3" d="M88.7,16.14A4.12,4.12,0,0,1,87.78,19a3.22,3.22,0,0,1-2.55,1,3.4,3.4,0,0,1-1.78-.47,3.21,3.21,0,0,1-1.21-1.36,4.7,4.7,0,0,1-.42-2.06,4.12,4.12,0,0,1,.92-2.85,3.2,3.2,0,0,1,2.54-1,3.17,3.17,0,0,1,2.5,1.05A4.15,4.15,0,0,1,88.7,16.14Zm-5.7,0a3.58,3.58,0,0,0,.57,2.19,2.28,2.28,0,0,0,3.38,0,3.51,3.51,0,0,0,.58-2.19A3.44,3.44,0,0,0,87,14a2,2,0,0,0-1.71-.74,2,2,0,0,0-1.68.73A3.51,3.51,0,0,0,83,16.14Z"/><path class="cls-3" d="M95.82,19.89V15.05a1.94,1.94,0,0,0-.42-1.37,1.68,1.68,0,0,0-1.3-.45,2.14,2.14,0,0,0-1.72.63,3.2,3.2,0,0,0-.55,2.1v3.93H90.69V12.4h.93l.18,1h.06a2.26,2.26,0,0,1,1-.86,3.09,3.09,0,0,1,1.4-.31,2.81,2.81,0,0,1,2,.66A2.74,2.74,0,0,1,97,15v4.89Z"/><path class="cls-3" d="M105.34,19.09a3.6,3.6,0,0,0,.58,0l.45-.09v.86a2.22,2.22,0,0,1-.55.15,3.81,3.81,0,0,1-.64.06c-1.45,0-2.18-.76-2.18-2.29V13.28h-1.07v-.55l1.07-.47.48-1.6h.66V12.4h2.17v.88h-2.17v4.41a1.54,1.54,0,0,0,.32,1A1.13,1.13,0,0,0,105.34,19.09Z"/><path class="cls-3" d="M114.33,16.14a4.16,4.16,0,0,1-.92,2.86,3.25,3.25,0,0,1-2.55,1,3.44,3.44,0,0,1-1.79-.47,3.12,3.12,0,0,1-1.2-1.36,4.7,4.7,0,0,1-.42-2.06,4.12,4.12,0,0,1,.91-2.85,3.22,3.22,0,0,1,2.55-1,3.17,3.17,0,0,1,2.5,1.05A4.15,4.15,0,0,1,114.33,16.14Zm-5.71,0a3.51,3.51,0,0,0,.58,2.19,2,2,0,0,0,1.69.75,2,2,0,0,0,1.69-.75,3.57,3.57,0,0,0,.58-2.19,3.51,3.51,0,0,0-.58-2.17,2,2,0,0,0-1.71-.74,2,2,0,0,0-1.68.73A3.5,3.5,0,0,0,108.62,16.14Z"/><path class="cls-3" d="M127.94,19.89h-1.33l-5.46-8.39h-.06c.08,1,.11,1.89.11,2.71v5.68h-1.07V9.9h1.31l5.45,8.35h0c0-.12,0-.52-.06-1.18s0-1.15,0-1.44V9.9h1.09Z"/><path class="cls-3" d="M135.12,19.89l-.23-1.06h0a3.26,3.26,0,0,1-1.12,1,3.32,3.32,0,0,1-1.39.25,2.5,2.5,0,0,1-1.75-.58,2.08,2.08,0,0,1-.63-1.63c0-1.51,1.21-2.31,3.63-2.38l1.27,0v-.46a1.88,1.88,0,0,0-.38-1.31,1.54,1.54,0,0,0-1.21-.42,4.88,4.88,0,0,0-2.12.58l-.35-.87a5.24,5.24,0,0,1,1.22-.47,5,5,0,0,1,1.32-.17,2.87,2.87,0,0,1,2,.59,2.45,2.45,0,0,1,.65,1.91v5.11Zm-2.56-.8a2.29,2.29,0,0,0,1.66-.58,2.17,2.17,0,0,0,.61-1.63v-.67l-1.14.05a4.09,4.09,0,0,0-1.95.42,1.25,1.25,0,0,0-.6,1.15,1.2,1.2,0,0,0,.37.94A1.53,1.53,0,0,0,132.56,19.09Z"/><path class="cls-3" d="M140.72,19.09a3.69,3.69,0,0,0,.58,0l.44-.09v.86a2,2,0,0,1-.54.15,3.93,3.93,0,0,1-.65.06c-1.44,0-2.17-.76-2.17-2.29V13.28h-1.07v-.55l1.07-.47.48-1.6h.66V12.4h2.17v.88h-2.17v4.41a1.49,1.49,0,0,0,.32,1A1.1,1.1,0,0,0,140.72,19.09Z"/><path class="cls-3" d="M143.14,10.37a.74.74,0,0,1,.2-.57.64.64,0,0,1,.47-.18.7.7,0,0,1,.48.18.76.76,0,0,1,.19.57.76.76,0,0,1-.19.57.66.66,0,0,1-.48.19.61.61,0,0,1-.47-.19A.76.76,0,0,1,143.14,10.37Zm1.24,9.52h-1.14V12.4h1.14Z"/><path class="cls-3" d="M153.25,16.14a4.16,4.16,0,0,1-.92,2.86,3.25,3.25,0,0,1-2.55,1,3.44,3.44,0,0,1-1.79-.47,3.12,3.12,0,0,1-1.2-1.36,4.7,4.7,0,0,1-.42-2.06,4.12,4.12,0,0,1,.91-2.85,3.22,3.22,0,0,1,2.54-1,3.15,3.15,0,0,1,2.5,1.05A4.11,4.11,0,0,1,153.25,16.14Zm-5.71,0a3.51,3.51,0,0,0,.58,2.19,2,2,0,0,0,1.68.75,2,2,0,0,0,1.7-.75,3.58,3.58,0,0,0,.57-2.19A3.51,3.51,0,0,0,151.5,14a2,2,0,0,0-1.71-.74,2,2,0,0,0-1.68.73A3.5,3.5,0,0,0,147.54,16.14Z"/><path class="cls-3" d="M160.37,19.89V15.05a1.94,1.94,0,0,0-.42-1.37,1.72,1.72,0,0,0-1.31-.45,2.16,2.16,0,0,0-1.72.63,3.2,3.2,0,0,0-.55,2.1v3.93h-1.13V12.4h.92l.19,1h.05a2.29,2.29,0,0,1,1-.86,3.06,3.06,0,0,1,1.4-.31,2.84,2.84,0,0,1,2,.66A2.78,2.78,0,0,1,161.5,15v4.89Z"/><path class="cls-3" d="M168.44,19.89l-.23-1.06h-.05a2.77,2.77,0,0,1-2.51,1.2,2.48,2.48,0,0,1-1.75-.58,2.08,2.08,0,0,1-.63-1.63c0-1.51,1.21-2.31,3.63-2.38l1.27,0v-.46a1.88,1.88,0,0,0-.38-1.31,1.56,1.56,0,0,0-1.21-.42,4.85,4.85,0,0,0-2.12.58l-.35-.87a5.16,5.16,0,0,1,1.21-.47,5.06,5.06,0,0,1,1.33-.17,2.87,2.87,0,0,1,2,.59,2.49,2.49,0,0,1,.65,1.91v5.11Zm-2.56-.8a2.29,2.29,0,0,0,1.66-.58,2.17,2.17,0,0,0,.6-1.63v-.67l-1.13.05a4.09,4.09,0,0,0-1.95.42,1.25,1.25,0,0,0-.6,1.15,1.16,1.16,0,0,0,.37.94A1.53,1.53,0,0,0,165.88,19.09Z"/><path class="cls-3" d="M172.75,19.89h-1.13V9.26h1.13Z"/><path class="cls-3" d="M24.65,31.6a5.05,5.05,0,0,1-1.34,3.78,5.3,5.3,0,0,1-3.87,1.31H16.67v-10h3.07A4.9,4.9,0,0,1,23.36,28,4.88,4.88,0,0,1,24.65,31.6Zm-1.23,0a4.05,4.05,0,0,0-1-2.95,3.94,3.94,0,0,0-2.92-1H17.84v8h1.41a4.32,4.32,0,0,0,3.13-1A4.09,4.09,0,0,0,23.42,31.64Z"/><path class="cls-3" d="M29.87,36.83a3.46,3.46,0,0,1-2.62-1,3.93,3.93,0,0,1-1-2.81,4.37,4.37,0,0,1,.89-2.88,3,3,0,0,1,2.4-1.07,2.83,2.83,0,0,1,2.23.93,3.53,3.53,0,0,1,.82,2.44v.72H27.47a2.94,2.94,0,0,0,.66,2,2.3,2.3,0,0,0,1.78.69,6,6,0,0,0,2.4-.51v1a5.86,5.86,0,0,1-1.14.38A6.85,6.85,0,0,1,29.87,36.83ZM29.57,30a1.85,1.85,0,0,0-1.44.59,2.75,2.75,0,0,0-.64,1.63h3.92a2.5,2.5,0,0,0-.48-1.65A1.68,1.68,0,0,0,29.57,30Z"/><path class="cls-3" d="M36.2,36.69,33.36,29.2h1.22l1.61,4.44a20.94,20.94,0,0,1,.64,2h.06c0-.24.21-.74.47-1.5s.87-2.42,1.8-5h1.21l-2.84,7.49Z"/><path class="cls-3" d="M44.74,36.83a3.45,3.45,0,0,1-2.62-1,3.93,3.93,0,0,1-1-2.81,4.37,4.37,0,0,1,.89-2.88,3,3,0,0,1,2.4-1.07,2.83,2.83,0,0,1,2.23.93,3.58,3.58,0,0,1,.82,2.44v.72H42.34a2.94,2.94,0,0,0,.66,2,2.3,2.3,0,0,0,1.78.69,6,6,0,0,0,2.4-.51v1a6.34,6.34,0,0,1-1.14.38A6.85,6.85,0,0,1,44.74,36.83ZM44.43,30A1.83,1.83,0,0,0,43,30.6a2.75,2.75,0,0,0-.64,1.63h3.92a2.5,2.5,0,0,0-.48-1.65A1.68,1.68,0,0,0,44.43,30Z"/><path class="cls-3" d="M50.57,36.69H49.43V26.06h1.14Z"/><path class="cls-3" d="M59.44,32.94a4.16,4.16,0,0,1-.92,2.86,3.25,3.25,0,0,1-2.55,1,3.44,3.44,0,0,1-1.79-.47A3.12,3.12,0,0,1,53,35a4.7,4.7,0,0,1-.43-2.06,4.12,4.12,0,0,1,.92-2.85,3.22,3.22,0,0,1,2.54-1,3.17,3.17,0,0,1,2.5,1.05A4.11,4.11,0,0,1,59.44,32.94Zm-5.71,0a3.58,3.58,0,0,0,.57,2.19,2.29,2.29,0,0,0,3.39,0,3.58,3.58,0,0,0,.57-2.19,3.51,3.51,0,0,0-.57-2.17A2,2,0,0,0,56,30a2,2,0,0,0-1.68.73A3.5,3.5,0,0,0,53.73,32.94Z"/><path class="cls-3" d="M64.91,36.83a3.23,3.23,0,0,1-1.33-.27,2.62,2.62,0,0,1-1-.83h-.08A9.09,9.09,0,0,1,62.56,37v3.09H61.43V29.2h.92l.16,1h.05a2.52,2.52,0,0,1,1-.89,3,3,0,0,1,1.33-.28,2.78,2.78,0,0,1,2.31,1A4.49,4.49,0,0,1,68,32.94a4.46,4.46,0,0,1-.83,2.87A2.78,2.78,0,0,1,64.91,36.83ZM64.75,30a2,2,0,0,0-1.66.63,3.31,3.31,0,0,0-.53,2v.25a3.77,3.77,0,0,0,.53,2.26,2,2,0,0,0,1.69.68,1.74,1.74,0,0,0,1.52-.79,3.67,3.67,0,0,0,.55-2.16,3.54,3.54,0,0,0-.55-2.15A1.81,1.81,0,0,0,64.75,30Z"/><path class="cls-3" d="M79.56,36.69V31.82a2,2,0,0,0-.39-1.35A1.5,1.5,0,0,0,78,30a1.91,1.91,0,0,0-1.56.61,2.86,2.86,0,0,0-.51,1.87v4.18H74.78V31.82a2.07,2.07,0,0,0-.38-1.35A1.53,1.53,0,0,0,73.2,30a1.84,1.84,0,0,0-1.56.64,3.43,3.43,0,0,0-.5,2.09v3.93H70V29.2h.92l.19,1h0a2.22,2.22,0,0,1,.91-.86,2.8,2.8,0,0,1,1.3-.31,2.23,2.23,0,0,1,2.3,1.27h.06a2.36,2.36,0,0,1,1-.93,3.07,3.07,0,0,1,1.45-.34,2.52,2.52,0,0,1,1.9.66,2.91,2.91,0,0,1,.63,2.08v4.89Z"/><path class="cls-3" d="M86.2,36.83a3.47,3.47,0,0,1-2.63-1,3.93,3.93,0,0,1-1-2.81,4.32,4.32,0,0,1,.9-2.88,3,3,0,0,1,2.39-1.07,2.83,2.83,0,0,1,2.23.93A3.53,3.53,0,0,1,89,32.43v.72H83.79a2.9,2.9,0,0,0,.67,2,2.28,2.28,0,0,0,1.78.69,6,6,0,0,0,2.39-.51v1a5.86,5.86,0,0,1-1.14.38A6.82,6.82,0,0,1,86.2,36.83ZM85.89,30a1.87,1.87,0,0,0-1.44.59,2.68,2.68,0,0,0-.63,1.63h3.91a2.5,2.5,0,0,0-.48-1.65A1.66,1.66,0,0,0,85.89,30Z"/><path class="cls-3" d="M96,36.69V31.85a1.94,1.94,0,0,0-.42-1.37,1.68,1.68,0,0,0-1.3-.45,2.16,2.16,0,0,0-1.72.63,3.2,3.2,0,0,0-.55,2.1v3.93H90.88V29.2h.93l.18,1h.06a2.26,2.26,0,0,1,1-.86,3.11,3.11,0,0,1,1.41-.31,2.8,2.8,0,0,1,2,.66,2.74,2.74,0,0,1,.69,2.08v4.89Z"/><path class="cls-3" d="M101.9,35.89a3.69,3.69,0,0,0,.58,0l.44-.09v.86a2,2,0,0,1-.54.15,4,4,0,0,1-.65.06c-1.45,0-2.17-.76-2.17-2.29V30.08H98.49v-.55l1.07-.47.48-1.6h.65V29.2h2.18v.88h-2.18v4.41a1.49,1.49,0,0,0,.33,1A1.1,1.1,0,0,0,101.9,35.89Z"/><path class="cls-3" d="M112.62,31.46H116v4.86a13,13,0,0,1-1.61.38,11.89,11.89,0,0,1-1.9.13A4.62,4.62,0,0,1,109,35.48a5.34,5.34,0,0,1-1.26-3.79,5.84,5.84,0,0,1,.62-2.73,4.31,4.31,0,0,1,1.8-1.79,5.91,5.91,0,0,1,2.76-.62,7.55,7.55,0,0,1,3,.59l-.45,1a6.54,6.54,0,0,0-2.61-.58A3.77,3.77,0,0,0,110,28.68a4.22,4.22,0,0,0-1,3,4.29,4.29,0,0,0,1,3.07,3.77,3.77,0,0,0,2.9,1.05,8.61,8.61,0,0,0,2-.24V32.49h-2.24Z"/><path class="cls-3" d="M124.72,32.94a4.12,4.12,0,0,1-.93,2.86,3.22,3.22,0,0,1-2.55,1,3.4,3.4,0,0,1-1.78-.47,3.12,3.12,0,0,1-1.2-1.36,4.57,4.57,0,0,1-.43-2.06,4.12,4.12,0,0,1,.92-2.85,3.22,3.22,0,0,1,2.54-1,3.17,3.17,0,0,1,2.5,1.05A4.11,4.11,0,0,1,124.72,32.94Zm-5.71,0a3.58,3.58,0,0,0,.57,2.19,2.28,2.28,0,0,0,3.38,0,3.51,3.51,0,0,0,.58-2.19,3.44,3.44,0,0,0-.58-2.17,2.32,2.32,0,0,0-3.39,0A3.57,3.57,0,0,0,119,32.94Z"/><path class="cls-3" d="M131.31,36.69l-.22-1.06H131a3.07,3.07,0,0,1-1.12.95,3.32,3.32,0,0,1-1.39.25,2.46,2.46,0,0,1-1.74-.58,2.09,2.09,0,0,1-.64-1.63c0-1.51,1.21-2.31,3.63-2.38l1.28,0v-.46a1.93,1.93,0,0,0-.38-1.31,1.58,1.58,0,0,0-1.22-.42,4.88,4.88,0,0,0-2.12.58l-.35-.87a5.24,5.24,0,0,1,1.22-.47,5,5,0,0,1,1.32-.17,2.85,2.85,0,0,1,2,.59,2.49,2.49,0,0,1,.64,1.91v5.11Zm-2.56-.8a2.27,2.27,0,0,0,1.66-.58,2.13,2.13,0,0,0,.61-1.63V33l-1.14.05a4.09,4.09,0,0,0-1.95.42,1.25,1.25,0,0,0-.6,1.15,1.17,1.17,0,0,0,.38.94A1.51,1.51,0,0,0,128.75,35.89Z"/><path class="cls-3" d="M135.63,36.69h-1.14V26.06h1.14Z"/><path class="cls-3" d="M142.87,34.65a1.87,1.87,0,0,1-.78,1.61,3.66,3.66,0,0,1-2.19.57,4.83,4.83,0,0,1-2.33-.47V35.3a5,5,0,0,0,1.16.43,4.61,4.61,0,0,0,1.2.16,2.68,2.68,0,0,0,1.36-.28.94.94,0,0,0,.48-.87.92.92,0,0,0-.38-.74,5.6,5.6,0,0,0-1.48-.74,8.29,8.29,0,0,1-1.48-.68,1.89,1.89,0,0,1-.66-.66,1.77,1.77,0,0,1-.22-.88,1.69,1.69,0,0,1,.75-1.45,3.5,3.5,0,0,1,2-.53,6,6,0,0,1,2.37.5l-.41.92a5.42,5.42,0,0,0-2-.47,2.35,2.35,0,0,0-1.22.26.77.77,0,0,0-.41.69.83.83,0,0,0,.16.52,1.48,1.48,0,0,0,.49.4,10.8,10.8,0,0,0,1.32.55,5.11,5.11,0,0,1,1.8,1A1.74,1.74,0,0,1,142.87,34.65Z"/></g></svg>