<svg id="Layer_1" data-name="Layer 1" xmlns="http://www.w3.org/2000/svg" viewBox="0 0 178.12 60.58"><defs><style>.cls-1{fill:#414042;}.cls-2{fill:#939598;}.cls-3{fill:#58595b;}.cls-4{fill:#a0926a;}</style></defs><path class="cls-1" d="M24.11,14.5l0-.05a3.1,3.1,0,0,1-1.13.44,6.24,6.24,0,0,1-1.29.15,5.44,5.44,0,0,1-2.11-.41,5.08,5.08,0,0,1-2.81-2.82,5.48,5.48,0,0,1-.41-2.17,5.57,5.57,0,0,1,.42-2.2,5,5,0,0,1,1.18-1.7,5.34,5.34,0,0,1,1.8-1.11,6.64,6.64,0,0,1,4.54,0,5.34,5.34,0,0,1,1.8,1.11,5,5,0,0,1,1.19,1.7,5.57,5.57,0,0,1,.42,2.2,7,7,0,0,1-.43,2.54,14.32,14.32,0,0,1-1.08,2.14L21.45,22h-2.1Zm1.78-4.86a4,4,0,0,0-.28-1.53,3.52,3.52,0,0,0-.8-1.19,3.82,3.82,0,0,0-1.24-.77,4.45,4.45,0,0,0-3.16,0,3.88,3.88,0,0,0-1.23.77,3.38,3.38,0,0,0-.8,1.19,4.18,4.18,0,0,0,0,3.06,3.38,3.38,0,0,0,.8,1.19,3.58,3.58,0,0,0,1.23.78,4.76,4.76,0,0,0,3.16,0,3.5,3.5,0,0,0,2-2A4,4,0,0,0,25.89,9.64Z"/><path class="cls-1" d="M33.61,20.81a1.32,1.32,0,0,1-.37.93,1.22,1.22,0,0,1-1,.41,1.25,1.25,0,0,1-1-.41,1.34,1.34,0,0,1,0-1.85,1.25,1.25,0,0,1,1-.41,1.22,1.22,0,0,1,1,.41A1.32,1.32,0,0,1,33.61,20.81Z"/><path class="cls-1" d="M42.57,4.23a4.91,4.91,0,0,1,3,.87,5.66,5.66,0,0,1,1.8,2.19,9.88,9.88,0,0,1,.87,2.93,23.27,23.27,0,0,1,.22,3,23.42,23.42,0,0,1-.22,3,9.73,9.73,0,0,1-.87,2.92,5.76,5.76,0,0,1-1.8,2.2,5,5,0,0,1-3,.86,5,5,0,0,1-3-.86,6,6,0,0,1-1.8-2.2,9.72,9.72,0,0,1-.86-2.92,21.18,21.18,0,0,1,0-6.09,9.87,9.87,0,0,1,.86-2.93,5.84,5.84,0,0,1,1.8-2.19A5,5,0,0,1,42.57,4.23Zm0,1.63a3.19,3.19,0,0,0-2.26.77,4.69,4.69,0,0,0-1.24,1.9,9,9,0,0,0-.54,2.41c-.07.86-.11,1.63-.11,2.32s0,1.47.11,2.32A9.08,9.08,0,0,0,39.07,18a4.69,4.69,0,0,0,1.24,1.9,3.73,3.73,0,0,0,4.51,0A4.71,4.71,0,0,0,46.07,18a9.07,9.07,0,0,0,.53-2.42c.08-.85.11-1.63.11-2.32s0-1.46-.11-2.32a9,9,0,0,0-.53-2.41,4.71,4.71,0,0,0-1.25-1.9A3.18,3.18,0,0,0,42.57,5.86Z"/><path class="cls-1" d="M59.05,8.55a4.16,4.16,0,0,1-.34,1.7,4.08,4.08,0,0,1-.92,1.37,4.63,4.63,0,0,1-1.38.92,4.57,4.57,0,0,1-3.41,0,4.63,4.63,0,0,1-1.38-.92,4.08,4.08,0,0,1-.92-1.37,4.16,4.16,0,0,1-.34-1.7,4.32,4.32,0,0,1,1.26-3.07,4.43,4.43,0,0,1,6.17,0,4.32,4.32,0,0,1,1.26,3.07Zm-1.48,0a2.63,2.63,0,0,0-.24-1.13,2.86,2.86,0,0,0-.61-.9,2.73,2.73,0,0,0-.9-.6,3.07,3.07,0,0,0-2.23,0,2.73,2.73,0,0,0-.9.6,2.86,2.86,0,0,0-.61.9,2.63,2.63,0,0,0-.24,1.13,2.71,2.71,0,0,0,.24,1.14,3.11,3.11,0,0,0,.61.9,2.87,2.87,0,0,0,.9.59,3.07,3.07,0,0,0,2.23,0,2.87,2.87,0,0,0,.9-.59,3.11,3.11,0,0,0,.61-.9A2.71,2.71,0,0,0,57.57,8.55ZM54.78,22.76,53.5,22.1,64.62,3.77l1.26.66ZM69,18a4.23,4.23,0,0,1-.34,1.7,4.29,4.29,0,0,1-.92,1.37A4.48,4.48,0,0,1,66.4,22,4.57,4.57,0,0,1,63,22a4.6,4.6,0,0,1-1.38-.91,4.29,4.29,0,0,1-.92-1.37,4.45,4.45,0,0,1,0-3.41,4.29,4.29,0,0,1,.92-1.37A4.6,4.6,0,0,1,63,14a4.57,4.57,0,0,1,3.41,0,4.48,4.48,0,0,1,1.38.91,4.29,4.29,0,0,1,.92,1.37A4.25,4.25,0,0,1,69,18Zm-1.48,0a2.68,2.68,0,0,0-.24-1.14,3,3,0,0,0-.61-.9,2.87,2.87,0,0,0-.9-.59,3,3,0,0,0-1.11-.21,2.89,2.89,0,0,0-1.11.21,2.66,2.66,0,0,0-.9.59,3,3,0,0,0-.62.9A2.68,2.68,0,0,0,61.83,18a2.63,2.63,0,0,0,.24,1.13,2.89,2.89,0,0,0,.62.9,2.52,2.52,0,0,0,.9.59,2.89,2.89,0,0,0,1.11.21,3,3,0,0,0,1.11-.21,2.7,2.7,0,0,0,.9-.59,2.86,2.86,0,0,0,.61-.9A2.63,2.63,0,0,0,67.56,18Z"/><path class="cls-1" d="M19.42,30.29H15.33V28.68h9.91v1.61H21.15V41.38H19.42Z"/><path class="cls-1" d="M24.27,37.13a4.23,4.23,0,0,1,.35-1.74,4.45,4.45,0,0,1,1-1.42A4.39,4.39,0,0,1,27,33a4.7,4.7,0,0,1,3.56,0A4.29,4.29,0,0,1,32,34a4.45,4.45,0,0,1,1,1.42,4.23,4.23,0,0,1,.35,1.74A4.43,4.43,0,0,1,32,40.3a4.64,4.64,0,0,1-5,1,4.7,4.7,0,0,1-1.43-1,4.43,4.43,0,0,1-1.31-3.17Zm1.72,0a3.5,3.5,0,0,0,.2,1.19,2.67,2.67,0,0,0,.55.93,2.49,2.49,0,0,0,.88.61,3.09,3.09,0,0,0,2.34,0,2.49,2.49,0,0,0,.88-.61,2.67,2.67,0,0,0,.55-.93,3.64,3.64,0,0,0,0-2.38,2.81,2.81,0,0,0-.55-.94,2.62,2.62,0,0,0-.88-.61,3.22,3.22,0,0,0-2.34,0,2.62,2.62,0,0,0-.88.61,2.81,2.81,0,0,0-.55.94A3.5,3.5,0,0,0,26,37.13Z"/><path class="cls-1" d="M39.9,34.27H37.58v3.86c0,.24,0,.48,0,.71a1.77,1.77,0,0,0,.14.63.92.92,0,0,0,.35.45,1.28,1.28,0,0,0,.71.17,4.28,4.28,0,0,0,.6-.05,2,2,0,0,0,.55-.2v1.47a2,2,0,0,1-.74.22,4.61,4.61,0,0,1-.71.07,3.36,3.36,0,0,1-1.45-.26,1.78,1.78,0,0,1-.75-.68,2.16,2.16,0,0,1-.29-.92c0-.34,0-.69,0-1V34.27H34.1V32.88H36V30.49h1.61v2.39H39.9Z"/><path class="cls-1" d="M42,33.92a4.5,4.5,0,0,1,1.57-1,5.68,5.68,0,0,1,1.8-.31,5.12,5.12,0,0,1,1.61.23,3.34,3.34,0,0,1,1.1.63,2.48,2.48,0,0,1,.64.91,3,3,0,0,1,.2,1.07v4.34c0,.3,0,.57,0,.82s0,.49,0,.72H47.58c0-.43,0-.86,0-1.29h0a3.15,3.15,0,0,1-1.28,1.17,4.09,4.09,0,0,1-1.7.34,4.17,4.17,0,0,1-1.13-.16,2.72,2.72,0,0,1-.94-.49,2.6,2.6,0,0,1-.5-3.28,2.75,2.75,0,0,1,1-.91,4.84,4.84,0,0,1,1.49-.5,10.48,10.48,0,0,1,1.82-.15h1.19v-.36a1.88,1.88,0,0,0-.13-.65,1.67,1.67,0,0,0-.38-.58,1.57,1.57,0,0,0-.63-.41,2.21,2.21,0,0,0-.89-.16,3.32,3.32,0,0,0-.82.09,4,4,0,0,0-.64.23,3,3,0,0,0-.52.31l-.44.34Zm4.55,3.37q-.57,0-1.17.06a5.07,5.07,0,0,0-1.1.25,1.86,1.86,0,0,0-.8.5,1.12,1.12,0,0,0-.32.82,1.17,1.17,0,0,0,.5,1.06A2.34,2.34,0,0,0,45,40.3a2.59,2.59,0,0,0,1.13-.22,2.23,2.23,0,0,0,.76-.58,2.25,2.25,0,0,0,.41-.8,3.27,3.27,0,0,0,.13-.87v-.54Z"/><path class="cls-1" d="M51.42,27.81H53V41.38H51.42Z"/><path class="cls-1" d="M60.59,32.88H62.2V34.1h0A3,3,0,0,1,63.52,33a4,4,0,0,1,1.68-.38A4.5,4.5,0,0,1,67,33a4.11,4.11,0,0,1,1.36,1,4.16,4.16,0,0,1,.87,1.43,5,5,0,0,1,.31,1.75,5.14,5.14,0,0,1-.31,1.77A4.09,4.09,0,0,1,67,41.26a4.68,4.68,0,0,1-1.79.34,3.9,3.9,0,0,1-1.72-.39,3,3,0,0,1-1.24-1.05h0v6.28H60.59ZM65,34.17a2.86,2.86,0,0,0-1.16.22A2.52,2.52,0,0,0,63,35a2.67,2.67,0,0,0-.56.94,3.64,3.64,0,0,0,0,2.38,2.54,2.54,0,0,0,.56.93,2.4,2.4,0,0,0,.88.61,2.7,2.7,0,0,0,1.16.23,2.78,2.78,0,0,0,1.17-.23,2.4,2.4,0,0,0,.88-.61,2.69,2.69,0,0,0,.56-.93,3.82,3.82,0,0,0,0-2.38,2.83,2.83,0,0,0-.56-.94,2.52,2.52,0,0,0-.88-.61A2.94,2.94,0,0,0,65,34.17Z"/><path class="cls-1" d="M71.59,33.92a4.45,4.45,0,0,1,1.58-1A5.62,5.62,0,0,1,75,32.66a5.12,5.12,0,0,1,1.61.23,3.15,3.15,0,0,1,1.1.63,2.48,2.48,0,0,1,.64.91,2.76,2.76,0,0,1,.21,1.07v4.34c0,.3,0,.57,0,.82s0,.49.06.72H77.15c0-.43-.05-.86-.05-1.29h0a3.13,3.13,0,0,1-1.27,1.17,4.14,4.14,0,0,1-1.71.34A4.23,4.23,0,0,1,73,41.44,2.72,2.72,0,0,1,72,41a2.39,2.39,0,0,1-.64-.8,2.51,2.51,0,0,1-.23-1.1,2.41,2.41,0,0,1,.37-1.38,2.75,2.75,0,0,1,1-.91,4.93,4.93,0,0,1,1.49-.5,10.56,10.56,0,0,1,1.82-.15H77v-.36a1.68,1.68,0,0,0-.13-.65,1.79,1.79,0,0,0-.37-.58,1.72,1.72,0,0,0-.63-.41A2.23,2.23,0,0,0,75,34a3.37,3.37,0,0,0-.82.09,3.58,3.58,0,0,0-.63.23,2.65,2.65,0,0,0-.52.31l-.45.34Zm4.56,3.37a11.81,11.81,0,0,0-1.18.06,5,5,0,0,0-1.09.25,2,2,0,0,0-.81.5,1.12,1.12,0,0,0-.31.82A1.16,1.16,0,0,0,73.25,40a2.37,2.37,0,0,0,1.34.32,2.59,2.59,0,0,0,1.13-.22,2.1,2.1,0,0,0,.75-.58,2.25,2.25,0,0,0,.41-.8,2.91,2.91,0,0,0,.13-.87v-.54Z"/><path class="cls-1" d="M79.86,32.88h1.87l2.52,6.64h0l2.42-6.64h1.72l-4,10.33c-.14.37-.29.71-.44,1a3.24,3.24,0,0,1-.56.78,2.28,2.28,0,0,1-.77.5,3.09,3.09,0,0,1-1.12.18,6.11,6.11,0,0,1-.73,0,2.42,2.42,0,0,1-.7-.19l.2-1.47a2.54,2.54,0,0,0,1,.2,1.67,1.67,0,0,0,.63-.1,1.31,1.31,0,0,0,.45-.28,1.94,1.94,0,0,0,.31-.44c.08-.17.17-.36.25-.58l.52-1.34Z"/><path class="cls-1" d="M89.84,32.88h1.51V34.2h0a1.49,1.49,0,0,1,.28-.45,3,3,0,0,1,.58-.51,3.31,3.31,0,0,1,.82-.41,3.21,3.21,0,0,1,1-.17,3,3,0,0,1,1.6.4,2.92,2.92,0,0,1,1.06,1.18,2.65,2.65,0,0,1,1.16-1.18,3.21,3.21,0,0,1,1.53-.4,3.57,3.57,0,0,1,1.61.32,2.6,2.6,0,0,1,1,.86,3.2,3.2,0,0,1,.49,1.2,7,7,0,0,1,.14,1.39v5h-1.62V36.64a7,7,0,0,0-.06-.93,2.16,2.16,0,0,0-.26-.79,1.48,1.48,0,0,0-.56-.55,2,2,0,0,0-1-.2,1.9,1.9,0,0,0-1.67.72,3.15,3.15,0,0,0-.5,1.84v4.65H95.46V36.93a7.5,7.5,0,0,0-.07-1.11,2.41,2.41,0,0,0-.25-.87,1.32,1.32,0,0,0-.54-.58,1.9,1.9,0,0,0-.94-.2,2,2,0,0,0-.83.17,1.87,1.87,0,0,0-.71.51,2.44,2.44,0,0,0-.49.87A3.88,3.88,0,0,0,91.45,37v4.41H89.84Z"/><path class="cls-1" d="M106.35,37.72a2.12,2.12,0,0,0,.24,1,2.45,2.45,0,0,0,.64.79,3.08,3.08,0,0,0,.91.5,3.31,3.31,0,0,0,1.08.18,2.44,2.44,0,0,0,1.31-.35,4.22,4.22,0,0,0,1-.93l1.22.94A4.48,4.48,0,0,1,109,41.6a4.84,4.84,0,0,1-1.82-.34,4,4,0,0,1-2.25-2.36,5.14,5.14,0,0,1-.3-1.77,4.68,4.68,0,0,1,.33-1.77,4.38,4.38,0,0,1,.91-1.42,4.32,4.32,0,0,1,1.39-.94,4.45,4.45,0,0,1,1.76-.34,4.09,4.09,0,0,1,1.91.4,3.75,3.75,0,0,1,1.29,1,4.1,4.1,0,0,1,.72,1.43,6.05,6.05,0,0,1,.23,1.63v.57Zm5.1-1.29a3.41,3.41,0,0,0-.18-1,2.16,2.16,0,0,0-.45-.78,2.23,2.23,0,0,0-.77-.52A2.86,2.86,0,0,0,109,34a2.59,2.59,0,0,0-1.09.23,2.52,2.52,0,0,0-.83.58,2.59,2.59,0,0,0-.53.8,2.1,2.1,0,0,0-.19.87Z"/><path class="cls-1" d="M115.11,32.88h1.61v1.31h0a2.31,2.31,0,0,1,1.06-1.11,3.5,3.5,0,0,1,1.74-.42,3.59,3.59,0,0,1,1.17.19,2.59,2.59,0,0,1,1,.58,2.79,2.79,0,0,1,.67,1,3.81,3.81,0,0,1,.25,1.46v5.47H121v-5a3,3,0,0,0-.16-1,2,2,0,0,0-.43-.68,1.73,1.73,0,0,0-.62-.38,2.58,2.58,0,0,0-.73-.11,2.52,2.52,0,0,0-.93.16,2,2,0,0,0-.76.51,2.46,2.46,0,0,0-.5.89,4,4,0,0,0-.18,1.27v4.38h-1.61Z"/><path class="cls-1" d="M129.64,34.27h-2.31v3.86c0,.24,0,.48,0,.71a2,2,0,0,0,.14.63,1,1,0,0,0,.36.45,1.26,1.26,0,0,0,.71.17,4,4,0,0,0,.59-.05,2.07,2.07,0,0,0,.56-.2v1.47a2.08,2.08,0,0,1-.75.22,4.5,4.5,0,0,1-.71.07,3.28,3.28,0,0,1-1.44-.26,1.81,1.81,0,0,1-.76-.68,2.16,2.16,0,0,1-.28-.92c0-.34-.05-.69-.05-1V34.27h-1.86V32.88h1.86V30.49h1.62v2.39h2.31Z"/><path class="cls-1" d="M136.24,35a2.4,2.4,0,0,0-.7-.6,2.1,2.1,0,0,0-1-.24,2,2,0,0,0-1,.24.77.77,0,0,0-.42.71.82.82,0,0,0,.24.61,2.1,2.1,0,0,0,.57.38,3.91,3.91,0,0,0,.71.21l.65.13a7,7,0,0,1,1,.3,3,3,0,0,1,.79.47,2,2,0,0,1,.52.7,2.48,2.48,0,0,1,.18,1,2.39,2.39,0,0,1-.3,1.23,2.64,2.64,0,0,1-.79.84,3.28,3.28,0,0,1-1.1.46,5.34,5.34,0,0,1-1.25.15,4.83,4.83,0,0,1-1.86-.33A3.27,3.27,0,0,1,131,40.09l1.22-1a4.53,4.53,0,0,0,.87.7,2.15,2.15,0,0,0,1.19.31,3.34,3.34,0,0,0,.62-.06,2.09,2.09,0,0,0,.55-.2,1.12,1.12,0,0,0,.4-.34A.81.81,0,0,0,136,39a.82.82,0,0,0-.22-.59,1.73,1.73,0,0,0-.54-.37,3.49,3.49,0,0,0-.67-.21L134,37.7c-.35-.08-.68-.18-1-.28a3.12,3.12,0,0,1-.83-.44,1.81,1.81,0,0,1-.57-.68,2.2,2.2,0,0,1-.22-1,2.3,2.3,0,0,1,1-2,3.22,3.22,0,0,1,1-.49,4.29,4.29,0,0,1,1.17-.16,4.37,4.37,0,0,1,1.65.32,2.65,2.65,0,0,1,1.26,1.08Z"/><path class="cls-1" d="M25.19,49.49H23.13v3.43c0,.21,0,.42,0,.63a1.59,1.59,0,0,0,.12.56,1,1,0,0,0,.32.4,1.13,1.13,0,0,0,.63.15,2.44,2.44,0,0,0,.53,0,1.58,1.58,0,0,0,.49-.17v1.31a1.85,1.85,0,0,1-.66.19,4.6,4.6,0,0,1-.63.06,2.93,2.93,0,0,1-1.28-.23,1.52,1.52,0,0,1-.67-.6,1.89,1.89,0,0,1-.26-.82c0-.3,0-.61,0-.92V49.49H20V48.25h1.66V46.13h1.44v2.12h2.06Z"/><path class="cls-1" d="M26.67,52A3.83,3.83,0,0,1,27,50.48a3.93,3.93,0,0,1,2.13-2.11,4.18,4.18,0,0,1,3.16,0,4,4,0,0,1,1.27.85,3.92,3.92,0,0,1,.86,1.26,4,4,0,0,1,0,3.1,3.71,3.71,0,0,1-.86,1.26A4,4,0,0,1,30.69,56a3.94,3.94,0,0,1-1.58-.31,4,4,0,0,1-1.28-.85A3.94,3.94,0,0,1,26.67,52Zm1.53,0a3,3,0,0,0,.18,1.06,2.37,2.37,0,0,0,.49.83,2.18,2.18,0,0,0,.78.54,2.8,2.8,0,0,0,2.08,0,2.37,2.37,0,0,0,.78-.54,2.53,2.53,0,0,0,.49-.83A3.21,3.21,0,0,0,33,51a2.43,2.43,0,0,0-.49-.83,2.37,2.37,0,0,0-.78-.54,2.8,2.8,0,0,0-2.08,0,2.18,2.18,0,0,0-.78.54,2.29,2.29,0,0,0-.49.83A3,3,0,0,0,28.2,52Z"/><path class="cls-1" d="M41,48.25h1.43v1.08h0a2.78,2.78,0,0,1,1.14-.94A3.58,3.58,0,0,1,45,48.06a4,4,0,0,1,1.59.3,3.36,3.36,0,0,1,1.21.85,3.71,3.71,0,0,1,.78,1.26,4.67,4.67,0,0,1,0,3.13,3.71,3.71,0,0,1-.78,1.26,3.46,3.46,0,0,1-1.21.84A4,4,0,0,1,45,56a3.49,3.49,0,0,1-1.53-.34,2.61,2.61,0,0,1-1.1-.94h0v5.59H41Zm3.92,1.15a2.51,2.51,0,0,0-1,.2,2.18,2.18,0,0,0-.78.54,2.29,2.29,0,0,0-.49.83,3.21,3.21,0,0,0,0,2.12,2.37,2.37,0,0,0,.49.83,2.18,2.18,0,0,0,.78.54,2.8,2.8,0,0,0,2.08,0,2.37,2.37,0,0,0,.78-.54,2.53,2.53,0,0,0,.49-.83,3.21,3.21,0,0,0,0-2.12,2.43,2.43,0,0,0-.49-.83,2.37,2.37,0,0,0-.78-.54A2.51,2.51,0,0,0,44.87,49.4Z"/><path class="cls-1" d="M50.69,48.25h1.44v1.16h0a2,2,0,0,1,.38-.55,2.79,2.79,0,0,1,.54-.42,2.64,2.64,0,0,1,.64-.28,2.47,2.47,0,0,1,.7-.1,2.11,2.11,0,0,1,.64.09L55,49.7l-.35-.08-.35,0a2.11,2.11,0,0,0-1.62.59A2.58,2.58,0,0,0,52.13,52v3.8H50.69Z"/><path class="cls-1" d="M56,52a3.84,3.84,0,0,1,.32-1.55,3.89,3.89,0,0,1,.85-1.26,4.1,4.1,0,0,1,1.27-.85,4.18,4.18,0,0,1,3.16,0,4,4,0,0,1,1.28.85,3.89,3.89,0,0,1,.85,1.26,4,4,0,0,1,0,3.1,3.69,3.69,0,0,1-.85,1.26,4,4,0,0,1-1.28.85,4.18,4.18,0,0,1-3.16,0,4.1,4.1,0,0,1-1.27-.85,3.69,3.69,0,0,1-.85-1.26A3.84,3.84,0,0,1,56,52Zm1.54,0a3,3,0,0,0,.17,1.06,2.39,2.39,0,0,0,.5.83,2.18,2.18,0,0,0,.78.54,2.59,2.59,0,0,0,1,.2,2.64,2.64,0,0,0,1-.2,2.18,2.18,0,0,0,.78-.54,2.56,2.56,0,0,0,.5-.83,3.39,3.39,0,0,0,0-2.12,2.45,2.45,0,0,0-.5-.83A2.18,2.18,0,0,0,61,49.6a2.48,2.48,0,0,0-1-.2,2.43,2.43,0,0,0-1,.2,2.18,2.18,0,0,0-.78.54,2.3,2.3,0,0,0-.5.83A3,3,0,0,0,57.49,52Z"/><path class="cls-1" d="M64.89,48.25h1.66L68.81,54,71,48.25h1.53l-3,7.56H68Z"/><path class="cls-1" d="M73.55,45.54a1,1,0,0,1,.31-.75,1,1,0,0,1,.74-.31,1.05,1.05,0,0,1,.74,1.8,1,1,0,0,1-.74.31,1,1,0,0,1-.74-.31A1,1,0,0,1,73.55,45.54Zm.33,2.71h1.44v7.56H73.88Z"/><path class="cls-1" d="M85.18,55.81H83.74V54.72h0a2.81,2.81,0,0,1-1.14,1,3.58,3.58,0,0,1-1.49.33,4,4,0,0,1-1.59-.3,3.49,3.49,0,0,1-1.21-.85,3.87,3.87,0,0,1-.78-1.26A4.41,4.41,0,0,1,77.23,52a4.46,4.46,0,0,1,.27-1.57,3.67,3.67,0,0,1,.78-1.26,3.46,3.46,0,0,1,1.21-.84,4,4,0,0,1,1.59-.3,3.49,3.49,0,0,1,1.53.34,2.66,2.66,0,0,1,1.1.93h0V43.75h1.44Zm-3.93-1.15a2.64,2.64,0,0,0,1-.2,2.18,2.18,0,0,0,.78-.54,2.56,2.56,0,0,0,.5-.83,3.39,3.39,0,0,0,0-2.12,2.45,2.45,0,0,0-.5-.83,2.18,2.18,0,0,0-.78-.54,2.48,2.48,0,0,0-1-.2,2.43,2.43,0,0,0-1,.2,2.31,2.31,0,0,0-.79.54,2.43,2.43,0,0,0-.49.83,3.21,3.21,0,0,0,0,2.12,2.53,2.53,0,0,0,.49.83,2.31,2.31,0,0,0,.79.54A2.59,2.59,0,0,0,81.25,54.66Z"/><path class="cls-1" d="M88.43,52.56a1.82,1.82,0,0,0,.22.9,2.21,2.21,0,0,0,.56.69,2.83,2.83,0,0,0,.82.45,3,3,0,0,0,1,.16,2.14,2.14,0,0,0,1.17-.32,3.66,3.66,0,0,0,.91-.82l1.08.83A4,4,0,0,1,90.79,56a4.25,4.25,0,0,1-1.62-.3,3.54,3.54,0,0,1-1.23-.84,3.85,3.85,0,0,1-.77-1.26A4.46,4.46,0,0,1,86.9,52a4.07,4.07,0,0,1,.3-1.57A3.6,3.6,0,0,1,88,49.2a3.64,3.64,0,0,1,1.23-.84,4,4,0,0,1,1.57-.3,3.68,3.68,0,0,1,1.7.35,3.43,3.43,0,0,1,1.14.91,3.76,3.76,0,0,1,.64,1.28,5.06,5.06,0,0,1,.2,1.44v.52ZM93,51.41a3.06,3.06,0,0,0-.15-.88,1.84,1.84,0,0,0-.41-.69,1.76,1.76,0,0,0-.68-.47,2.47,2.47,0,0,0-.94-.16,2.33,2.33,0,0,0-1,.19,2.36,2.36,0,0,0-1.21,1.23,2,2,0,0,0-.17.78Z"/><path class="cls-1" d="M96.21,48.25h1.44v1.16h0a2.57,2.57,0,0,1,.38-.55,2.79,2.79,0,0,1,.54-.42,2.82,2.82,0,0,1,.64-.28,2.48,2.48,0,0,1,.71-.1,2.08,2.08,0,0,1,.63.09l-.06,1.55-.35-.08a2.41,2.41,0,0,0-2,.56A2.59,2.59,0,0,0,97.65,52v3.8H96.21Z"/><path class="cls-1" d="M106.14,50.15a2.2,2.2,0,0,0-.63-.54,1.87,1.87,0,0,0-.92-.21,1.8,1.8,0,0,0-.89.21.75.75,0,0,0-.16,1.17,2,2,0,0,0,.51.34,3.28,3.28,0,0,0,.63.19l.58.11a8.93,8.93,0,0,1,.87.27,2.55,2.55,0,0,1,.7.42,1.76,1.76,0,0,1,.46.62,2.17,2.17,0,0,1,.17.89,2.14,2.14,0,0,1-.27,1.1,2.36,2.36,0,0,1-.7.74,3,3,0,0,1-1,.41,4.67,4.67,0,0,1-1.11.13,4.38,4.38,0,0,1-1.65-.29,2.91,2.91,0,0,1-1.27-1.05l1.08-.89a5.18,5.18,0,0,0,.78.62,2,2,0,0,0,1.06.27,3.51,3.51,0,0,0,.55,0,1.78,1.78,0,0,0,.49-.18,1,1,0,0,0,.35-.3.76.76,0,0,0-.06-1,1.37,1.37,0,0,0-.48-.33,3.4,3.4,0,0,0-.59-.19l-.55-.12c-.31-.08-.6-.16-.88-.26a2.53,2.53,0,0,1-.73-.38,1.79,1.79,0,0,1-.51-.61,1.87,1.87,0,0,1-.19-.9,2.09,2.09,0,0,1,.24-1,2.21,2.21,0,0,1,.66-.73,3.11,3.11,0,0,1,.92-.43,4.21,4.21,0,0,1,1-.14,3.88,3.88,0,0,1,1.47.28,2.35,2.35,0,0,1,1.11,1Z"/><path class="cls-1" d="M113.27,52a3.83,3.83,0,0,1,.31-1.55,3.89,3.89,0,0,1,.85-1.26,4,4,0,0,1,1.28-.85,3.94,3.94,0,0,1,1.58-.31,3.89,3.89,0,0,1,1.57.31,4,4,0,0,1,1.28.85,3.89,3.89,0,0,1,.85,1.26,3.91,3.91,0,0,1,0,3.1,3.69,3.69,0,0,1-.85,1.26,4,4,0,0,1-1.28.85,3.89,3.89,0,0,1-1.57.31,3.94,3.94,0,0,1-1.58-.31,4,4,0,0,1-1.28-.85,3.69,3.69,0,0,1-.85-1.26A3.83,3.83,0,0,1,113.27,52Zm1.53,0a3.27,3.27,0,0,0,.17,1.06,2.39,2.39,0,0,0,.5.83,2.18,2.18,0,0,0,.78.54,2.78,2.78,0,0,0,2.07,0,2.18,2.18,0,0,0,.78-.54,2.39,2.39,0,0,0,.5-.83,3.39,3.39,0,0,0,0-2.12,2.3,2.3,0,0,0-.5-.83,2.18,2.18,0,0,0-.78-.54,2.78,2.78,0,0,0-2.07,0,2.18,2.18,0,0,0-.78.54,2.3,2.3,0,0,0-.5.83A3.27,3.27,0,0,0,114.8,52Z"/><path class="cls-1" d="M123.67,49.49H122V48.25h1.63V46.56a3.62,3.62,0,0,1,.58-2.26,2.41,2.41,0,0,1,2-.74h.5a4.28,4.28,0,0,1,.57.1L127.16,45a2.25,2.25,0,0,0-.4-.12,2.73,2.73,0,0,0-.41,0,1.43,1.43,0,0,0-.64.12.92.92,0,0,0-.38.35,1.19,1.19,0,0,0-.17.53,5,5,0,0,0,0,.71v1.74h1.7v1.24H125.1v6.32h-1.43Z"/><path class="cls-1" d="M138.26,50.26a2.72,2.72,0,0,0-.84-.63,2.54,2.54,0,0,0-2.07,0,2,2,0,0,0-.73.59,2.62,2.62,0,0,0-.45.86,3.38,3.38,0,0,0-.15,1,3,3,0,0,0,.17,1,2.62,2.62,0,0,0,.5.82,2.18,2.18,0,0,0,.76.55,2.53,2.53,0,0,0,1,.2,2.25,2.25,0,0,0,1-.22,2.55,2.55,0,0,0,.79-.63l1,1a3.19,3.19,0,0,1-1.3.89,4.5,4.5,0,0,1-1.57.27,4.34,4.34,0,0,1-1.6-.29,3.77,3.77,0,0,1-1.25-.8,3.72,3.72,0,0,1-.82-1.25,4.3,4.3,0,0,1-.28-1.6,4.43,4.43,0,0,1,.28-1.61,3.74,3.74,0,0,1,.81-1.26,3.63,3.63,0,0,1,1.24-.82,4.44,4.44,0,0,1,3.21,0,3.46,3.46,0,0,1,1.32.9Z"/><path class="cls-1" d="M140.57,49.17a4,4,0,0,1,1.41-.83,4.68,4.68,0,0,1,1.59-.28,4.61,4.61,0,0,1,1.43.2,2.8,2.8,0,0,1,1,.56,2.14,2.14,0,0,1,.57.81,2.55,2.55,0,0,1,.18.95v3.86c0,.26,0,.51,0,.73a6.39,6.39,0,0,0,.05.64h-1.28c0-.38-.05-.77-.05-1.15h0a2.78,2.78,0,0,1-1.13,1,3.62,3.62,0,0,1-1.52.3,3.66,3.66,0,0,1-1-.14,2.57,2.57,0,0,1-.84-.43,2.34,2.34,0,0,1-.45-2.92,2.53,2.53,0,0,1,.9-.81,4.1,4.1,0,0,1,1.32-.44,8.29,8.29,0,0,1,1.62-.14h1V50.8a1.65,1.65,0,0,0-.11-.57,1.49,1.49,0,0,0-.33-.52,1.57,1.57,0,0,0-.56-.37,2.17,2.17,0,0,0-.8-.13,3.17,3.17,0,0,0-.73.07,4.08,4.08,0,0,0-.56.2,3.07,3.07,0,0,0-.47.28l-.39.31Zm4.06,3a9.51,9.51,0,0,0-1,.06,4.48,4.48,0,0,0-1,.21,2,2,0,0,0-.72.45,1,1,0,0,0-.28.73,1,1,0,0,0,.44.94,2.08,2.08,0,0,0,1.19.29,2.18,2.18,0,0,0,1-.2,1.76,1.76,0,0,0,.67-.52,1.86,1.86,0,0,0,.37-.71,2.92,2.92,0,0,0,.11-.77v-.48Z"/><path class="cls-1" d="M148.82,48.25h1.44v1.08h0a2.72,2.72,0,0,1,1.14-.94,3.55,3.55,0,0,1,1.49-.33,4.09,4.09,0,0,1,1.59.3,3.45,3.45,0,0,1,1.21.85,3.85,3.85,0,0,1,.77,1.26,4.67,4.67,0,0,1,0,3.13,3.85,3.85,0,0,1-.77,1.26,3.56,3.56,0,0,1-1.21.84,4.09,4.09,0,0,1-1.59.3,3.49,3.49,0,0,1-1.53-.34,2.55,2.55,0,0,1-1.1-.94h0v5.59h-1.44Zm3.92,1.15a2.46,2.46,0,0,0-1,.2,2.18,2.18,0,0,0-.78.54,2.3,2.3,0,0,0-.5.83,3.39,3.39,0,0,0,0,2.12,2.39,2.39,0,0,0,.5.83,2.18,2.18,0,0,0,.78.54,2.78,2.78,0,0,0,2.07,0,2.18,2.18,0,0,0,.78-.54,2.39,2.39,0,0,0,.5-.83,3.39,3.39,0,0,0,0-2.12,2.3,2.3,0,0,0-.5-.83,2.18,2.18,0,0,0-.78-.54A2.48,2.48,0,0,0,152.74,49.4Z"/><path class="cls-1" d="M158.34,45.54a1.08,1.08,0,0,1,1.06-1.06,1.05,1.05,0,0,1,.74.31,1.06,1.06,0,0,1-.74,1.8,1,1,0,0,1-.74-.31A1,1,0,0,1,158.34,45.54Zm.34,2.71h1.43v7.56h-1.43Z"/><path class="cls-1" d="M166.45,49.49h-2.06v3.43c0,.21,0,.42,0,.63a1.59,1.59,0,0,0,.11.56,1,1,0,0,0,.32.4,1.13,1.13,0,0,0,.63.15,2.44,2.44,0,0,0,.53,0,1.5,1.5,0,0,0,.49-.17v1.31a1.85,1.85,0,0,1-.66.19,4.6,4.6,0,0,1-.63.06,2.93,2.93,0,0,1-1.28-.23,1.52,1.52,0,0,1-.67-.6,2,2,0,0,1-.26-.82c0-.3,0-.61,0-.92V49.49h-1.66V48.25H163V46.13h1.44v2.12h2.06Z"/><path class="cls-1" d="M168.33,49.17a3.89,3.89,0,0,1,1.4-.83,4.73,4.73,0,0,1,1.6-.28,4.65,4.65,0,0,1,1.43.2,3,3,0,0,1,1,.56,2.23,2.23,0,0,1,.56.81,2.37,2.37,0,0,1,.19.95v3.86c0,.26,0,.51,0,.73s0,.44.05.64h-1.28c0-.38,0-.77,0-1.15h0a2.66,2.66,0,0,1-1.13,1,3.57,3.57,0,0,1-1.51.3,3.73,3.73,0,0,1-1-.14,2.57,2.57,0,0,1-.84-.43,2.15,2.15,0,0,1-.56-.71,2.43,2.43,0,0,1,.12-2.21,2.49,2.49,0,0,1,.89-.81,4.27,4.27,0,0,1,1.32-.44,8.43,8.43,0,0,1,1.62-.14h1.06V50.8a1.46,1.46,0,0,0-.12-.57,1.36,1.36,0,0,0-.33-.52,1.57,1.57,0,0,0-.56-.37,2.13,2.13,0,0,0-.8-.13,3.14,3.14,0,0,0-.72.07,3.79,3.79,0,0,0-.57.2,3,3,0,0,0-.46.28l-.4.31Zm4,3a9.2,9.2,0,0,0-1,.06,4.71,4.71,0,0,0-1,.21,1.88,1.88,0,0,0-.71.45,1,1,0,0,0-.28.73,1,1,0,0,0,.43.94,2.1,2.1,0,0,0,1.19.29,2.22,2.22,0,0,0,1-.2,1.88,1.88,0,0,0,1-1.23,2.58,2.58,0,0,0,.12-.77v-.48Z"/><path class="cls-1" d="M176.69,43.75h1.43V55.81h-1.43Z"/><rect class="cls-2" y="30.45" width="10.45" height="10.45"/><path class="cls-3" d="M89.67,26.42a3.29,3.29,0,0,1-1.51-.28c-1.16-.3-2.08-.59-2.89-.85a11.46,11.46,0,0,0-5.87-.74.29.29,0,0,1-.32-.25.28.28,0,0,1,.25-.32,12,12,0,0,1,6.11.77c.82.26,1.74.55,2.9.85l.07,0a6.34,6.34,0,0,0,5-.82L102.65,19a.76.76,0,0,0,.42-.68.82.82,0,0,0-.45-.73c-.54-.27-1.39,0-2.33.64a.27.27,0,0,1-.34,0,.28.28,0,0,1-.09-.33c.22-.55.18-1-.1-1.23S98.71,16.47,98,17l-.59.41a.3.3,0,0,1-.45-.24c0-.36-.09-.59-.25-.69s-.94,0-1.76.4l-3.22,1.72h.55c.54,0,1.17,0,2,.07a1.23,1.23,0,0,1,1.1,1,1.36,1.36,0,0,1-1,1.45c-3.75,1.72-6.06.81-9.14-.77A.27.27,0,0,1,85,20a.28.28,0,0,1,.38-.13c2.94,1.51,5.12,2.37,8.66.75.48-.19.72-.48.67-.83a.67.67,0,0,0-.57-.55c-.77-.05-1.39-.06-1.92-.07-2.07,0-2.85-.05-5.47-2l-2.31-1.71a3.05,3.05,0,0,0-2.48,0l-4.26,1.73a.28.28,0,0,1-.37-.15.29.29,0,0,1,.16-.38l4.25-1.73a3.57,3.57,0,0,1,3,.05l2.3,1.71c1.9,1.4,2.7,1.74,3.9,1.83a.28.28,0,0,1,.14-.32l3.5-1.86c1-.55,1.82-.69,2.32-.39a1.05,1.05,0,0,1,.48.68l.2-.14a2.12,2.12,0,0,1,2.45-.31,1.32,1.32,0,0,1,.45,1.16,2.4,2.4,0,0,1,2.31-.3,1.39,1.39,0,0,1,.76,1.24,1.27,1.27,0,0,1-.71,1.17L93.68,25.3A7.85,7.85,0,0,1,89.67,26.42Zm.82-12.22A7.16,7.16,0,1,1,97.66,7,7.16,7.16,0,0,1,90.49,14.2Zm0-13.75A6.59,6.59,0,1,0,97.08,7,6.59,6.59,0,0,0,90.49.45Z"/><path class="cls-4" d="M89.14,4.07H91.4A1.21,1.21,0,0,1,92,4.2a1.53,1.53,0,0,1,.46.34,1.65,1.65,0,0,1,.31.53,1.8,1.8,0,0,1,.12.66,2,2,0,0,1-.1.64,1.78,1.78,0,0,1-.28.53,1.24,1.24,0,0,1-.43.36,1.2,1.2,0,0,1-.57.13H89.14Zm0,7.09V8.29h2.39a2.18,2.18,0,0,0,1-.21,2.47,2.47,0,0,0,.74-.58,2.68,2.68,0,0,0,.48-.82,2.75,2.75,0,0,0,.17-.95,2.48,2.48,0,0,0-.18-.93A2.74,2.74,0,0,0,93.2,4a2.47,2.47,0,0,0-.77-.59,2.26,2.26,0,0,0-1-.22H88.13v8Z"/><path class="cls-3" d="M89.38,11.39H87.89V2.94h3.57a2.43,2.43,0,0,1,1.07.24,2.68,2.68,0,0,1,.84.64,3.12,3.12,0,0,1,.54.89,2.76,2.76,0,0,1,.2,1,3,3,0,0,1-.18,1,3,3,0,0,1-.52.9,2.81,2.81,0,0,1-.82.63,2.36,2.36,0,0,1-1.06.24H89.38Zm-1-.47h.55V8.06h2.62a1.87,1.87,0,0,0,.85-.2,2.09,2.09,0,0,0,.67-.51,2.45,2.45,0,0,0,.59-1.62,2.29,2.29,0,0,0-.16-.85A3,3,0,0,0,93,4.13a2.23,2.23,0,0,0-.69-.53,2,2,0,0,0-.87-.19h-3.1Zm3.11-3.29H88.91V3.84H91.4a1.66,1.66,0,0,1,.66.14,1.76,1.76,0,0,1,.53.41A2,2,0,0,1,93,5a2,2,0,0,1,.14.74,2.45,2.45,0,0,1-.11.71,2.35,2.35,0,0,1-.32.61,1.68,1.68,0,0,1-.51.42A1.51,1.51,0,0,1,91.47,7.63Zm-2.09-.48h2.09a1,1,0,0,0,.46-.1,1.24,1.24,0,0,0,.36-.29,1.76,1.76,0,0,0,.33-1,1.52,1.52,0,0,0-.11-.57,1.24,1.24,0,0,0-.27-.46,1.07,1.07,0,0,0-.38-.29,1.06,1.06,0,0,0-.46-.1h-2Z"/></svg>