<?xml version="1.0" encoding="utf-8"?>
<!-- Generator: Adobe Illustrator 24.3.0, SVG Export Plug-In . SVG Version: 6.00 Build 0)  -->
<svg version="1.1" id="Layer_1" xmlns="http://www.w3.org/2000/svg" xmlns:xlink="http://www.w3.org/1999/xlink" x="0px" y="0px"
	 viewBox="0 0 84.71 75.38" style="enable-background:new 0 0 84.71 75.38;" xml:space="preserve">
<style type="text/css">
	.st0{fill:#F7F5F2;}
	.st1{fill:#F1EEE9;}
	.st2{fill:#A0926A;}
	.st3{fill:#0092B2;}
	.st4{fill:#1568A1;}
	.st5{fill:#FFFFFF;}
	.st6{fill:#2D77AA;}
	.st7{fill:#32A7C2;}
	.st8{fill:#AA9D78;}
	.st9{fill:#A1A94F;}
	.st10{fill:#8B9638;}
	.st11{fill:none;stroke:#A0926A;}
	.st12{fill:none;stroke:#FFFFFF;stroke-width:1.25;stroke-miterlimit:10;}
	.st13{fill:none;stroke:#000000;stroke-width:0.25;stroke-miterlimit:10;}
	.st14{fill:#DDDEE0;}
	.st15{fill:#E8F0F5;}
	.st16{fill:#D1E1EB;}
	.st17{fill:#F7F5F1;}
	.st18{fill:#ECE9E1;}
	.st19{fill:#F4F4E9;}
	.st20{fill:#E6F5F8;}
	.st21{fill:none;stroke:#FFFFFF;stroke-width:0.25;stroke-miterlimit:10;}
	.st22{fill:#282829;}
	.st23{fill:none;stroke:#FFFFFF;stroke-width:0.3;stroke-miterlimit:10;}
	.st24{fill:none;stroke:#FFFFFF;stroke-width:0.447;stroke-miterlimit:10;}
	.st25{fill:none;stroke:#FFFFFF;stroke-width:0.652;stroke-miterlimit:10;}
	.st26{fill:none;stroke:#FFFFFF;stroke-width:0.558;stroke-miterlimit:10;}
	.st27{fill:none;stroke:#FFFFFF;stroke-width:0.363;stroke-miterlimit:10;}
	.st28{fill:none;stroke:#FFFFFF;stroke-width:0.628;stroke-linecap:round;stroke-linejoin:round;stroke-miterlimit:22.926;}
	.st29{clip-path:url(#SVGID_2_);fill:#ECE9E1;}
	.st30{clip-path:url(#SVGID_2_);fill:#F7F5F1;}
	.st31{clip-path:url(#SVGID_2_);fill:#FFFFFF;}
	.st32{fill:none;stroke:#A0926A;stroke-width:1.5;}
	.st33{fill:none;stroke:#FFFFFF;stroke-width:0.333;stroke-miterlimit:10;}
	.st34{fill:none;stroke:#FFFFFF;stroke-width:0.497;stroke-miterlimit:10;}
	.st35{fill:none;stroke:#FFFFFF;stroke-width:0.724;stroke-miterlimit:10;}
	.st36{fill:none;stroke:#FFFFFF;stroke-width:0.62;stroke-miterlimit:10;}
	.st37{fill:none;stroke:#FFFFFF;stroke-width:0.4;stroke-miterlimit:10;}
	.st38{fill:none;stroke:#FFFFFF;stroke-width:0.403;stroke-miterlimit:10;}
	.st39{fill:#B4A888;}
	.st40{fill:none;stroke:#FFFFFF;stroke-miterlimit:10;}
	.st41{fill:none;stroke:#A0926A;stroke-width:1.19;stroke-linejoin:round;stroke-miterlimit:10;}
	.st42{fill:none;stroke:#A0926A;stroke-width:1.265;stroke-miterlimit:10;}
	.st43{fill:none;stroke:#A0926A;stroke-width:1.265;stroke-linecap:round;stroke-linejoin:round;stroke-miterlimit:10;}
	.st44{fill:none;stroke:#A0926A;stroke-width:1.265;stroke-linejoin:round;stroke-miterlimit:10;}
	.st45{fill:none;stroke:#A0926A;stroke-width:1.22;stroke-linecap:round;stroke-linejoin:round;stroke-miterlimit:22.926;}
	.st46{fill:none;stroke:#A0926A;stroke-width:1.314;stroke-linecap:round;stroke-linejoin:round;stroke-miterlimit:22.926;}
	.st47{clip-path:url(#SVGID_4_);}
	.st48{clip-path:url(#SVGID_4_);fill:#B4A888;}
	.st49{clip-path:url(#SVGID_4_);fill:#F7F5F1;}
	.st50{clip-path:url(#SVGID_4_);fill:#ECE9E1;}
	.st51{clip-path:url(#SVGID_4_);fill:none;stroke:#FFFFFF;stroke-miterlimit:10;}
	
		.st52{clip-path:url(#SVGID_8_);fill:none;stroke:#A0926A;stroke-width:1.148;stroke-linecap:round;stroke-linejoin:round;stroke-miterlimit:10;}
	
		.st53{clip-path:url(#SVGID_4_);fill:none;stroke:#A0926A;stroke-width:1.148;stroke-linecap:round;stroke-linejoin:round;stroke-miterlimit:10;stroke-dasharray:0.047,2.088;}
	
		.st54{clip-path:url(#SVGID_4_);fill:none;stroke:#A0926A;stroke-width:1.148;stroke-linecap:round;stroke-linejoin:round;stroke-miterlimit:10;}
	.st55{clip-path:url(#SVGID_4_);fill:#282829;}
	.st56{clip-path:url(#SVGID_10_);fill:none;stroke:#A0926A;stroke-width:1.397;stroke-miterlimit:10;}
	.st57{clip-path:url(#SVGID_10_);fill:none;stroke:#A0926A;stroke-width:1.397;stroke-linejoin:round;stroke-miterlimit:10;}
	
		.st58{clip-path:url(#SVGID_12_);fill:none;stroke:#A0926A;stroke-width:1.252;stroke-linecap:round;stroke-linejoin:round;stroke-miterlimit:10;}
	.st59{clip-path:url(#SVGID_14_);fill:none;stroke:#A0926A;stroke-width:1.2112;stroke-linejoin:round;stroke-miterlimit:10;}
	.st60{clip-path:url(#SVGID_16_);fill:none;stroke:#FFFFFF;stroke-width:1.25;stroke-miterlimit:10;}
	.st61{clip-path:url(#SVGID_16_);fill:none;stroke:#000000;stroke-width:0.25;stroke-miterlimit:10;}
	.st62{clip-path:url(#SVGID_16_);fill:none;stroke:#FFFFFF;stroke-width:0.4;stroke-miterlimit:10;}
	.st63{clip-path:url(#SVGID_18_);fill:none;stroke:#FFFFFF;stroke-width:0.4;stroke-miterlimit:10;}
</style>
<g>
	<g>
		<rect class="st4" width="84.71" height="75.38"/>
	</g>
	<g>
		<path class="st5" d="M21.97,28.97v-5.74h1.22v5.74H21.97z"/>
		<path class="st5" d="M29.8,28.97h-1.55l-2.5-4.34h-0.04c0.05,0.77,0.07,1.31,0.07,1.64v2.7h-1.09v-5.74h1.54l2.49,4.3h0.03
			c-0.04-0.75-0.06-1.27-0.06-1.58v-2.72h1.1V28.97z"/>
		<path class="st5" d="M33.76,24.16c-0.46,0-0.81,0.17-1.06,0.52c-0.25,0.34-0.38,0.82-0.38,1.44c0,1.28,0.48,1.92,1.44,1.92
			c0.4,0,0.89-0.1,1.46-0.3v1.02c-0.47,0.2-1,0.29-1.58,0.29c-0.83,0-1.47-0.25-1.92-0.76c-0.44-0.51-0.66-1.23-0.66-2.18
			c0-0.6,0.11-1.12,0.33-1.57c0.22-0.45,0.53-0.79,0.94-1.03c0.41-0.24,0.88-0.36,1.43-0.36c0.56,0,1.12,0.13,1.68,0.4l-0.39,0.99
			c-0.21-0.1-0.43-0.19-0.65-0.27C34.19,24.2,33.97,24.16,33.76,24.16z"/>
		<path class="st5" d="M36.52,28.97v-5.74h1.22v4.74h2.33v1H36.52z"/>
		<path class="st5" d="M45.82,23.23v3.71c0,0.42-0.09,0.8-0.28,1.12s-0.46,0.56-0.82,0.73c-0.36,0.17-0.78,0.25-1.27,0.25
			c-0.74,0-1.31-0.19-1.72-0.57c-0.41-0.38-0.61-0.9-0.61-1.55v-3.7h1.21v3.51c0,0.44,0.09,0.77,0.27,0.97
			c0.18,0.21,0.47,0.31,0.88,0.31c0.4,0,0.69-0.1,0.87-0.31s0.27-0.53,0.27-0.98v-3.51H45.82z"/>
		<path class="st5" d="M50.69,27.38c0,0.52-0.19,0.93-0.56,1.23s-0.89,0.45-1.56,0.45c-0.61,0-1.15-0.12-1.63-0.34v-1.13
			c0.39,0.17,0.72,0.29,0.98,0.37c0.27,0.07,0.51,0.11,0.74,0.11c0.27,0,0.47-0.05,0.61-0.15c0.14-0.1,0.21-0.25,0.21-0.46
			c0-0.11-0.03-0.21-0.09-0.3c-0.06-0.09-0.15-0.17-0.28-0.25c-0.12-0.08-0.37-0.21-0.74-0.39c-0.35-0.17-0.61-0.32-0.79-0.48
			c-0.18-0.15-0.32-0.33-0.42-0.53c-0.1-0.2-0.16-0.44-0.16-0.71c0-0.51,0.17-0.91,0.52-1.2c0.34-0.29,0.82-0.44,1.43-0.44
			c0.3,0,0.58,0.04,0.85,0.11c0.27,0.07,0.55,0.17,0.85,0.3l-0.39,0.95c-0.31-0.13-0.56-0.21-0.76-0.26
			c-0.2-0.05-0.4-0.07-0.59-0.07c-0.23,0-0.41,0.05-0.53,0.16c-0.12,0.11-0.18,0.25-0.18,0.42c0,0.11,0.02,0.2,0.07,0.28
			c0.05,0.08,0.13,0.16,0.24,0.23c0.11,0.07,0.37,0.21,0.77,0.4c0.54,0.26,0.9,0.51,1.1,0.77C50.59,26.69,50.69,27,50.69,27.38z"/>
		<path class="st5" d="M51.81,28.97v-5.74h1.22v5.74H51.81z"/>
		<path class="st5" d="M57.82,23.23h1.23l-1.95,5.74h-1.33l-1.95-5.74h1.23l1.08,3.42c0.06,0.2,0.12,0.44,0.19,0.71
			s0.1,0.46,0.12,0.56c0.03-0.24,0.13-0.66,0.29-1.26L57.82,23.23z"/>
		<path class="st5" d="M63.16,28.97h-3.31v-5.74h3.31v1h-2.09v1.26h1.94v1h-1.94v1.48h2.09V28.97z"/>
	</g>
	<g>
		<path class="st5" d="M24.03,38.36h-3.31v-5.74h3.31v1h-2.09v1.26h1.94v1h-1.94v1.48h2.09V38.36z"/>
		<path class="st5" d="M27.74,33.55c-0.46,0-0.81,0.17-1.06,0.52c-0.25,0.34-0.38,0.82-0.38,1.44c0,1.28,0.48,1.92,1.44,1.92
			c0.4,0,0.89-0.1,1.46-0.3v1.02c-0.47,0.2-1,0.29-1.58,0.29c-0.83,0-1.47-0.25-1.92-0.76c-0.44-0.51-0.66-1.23-0.66-2.18
			c0-0.6,0.11-1.12,0.33-1.57c0.22-0.45,0.53-0.79,0.94-1.03c0.41-0.24,0.88-0.36,1.43-0.36c0.56,0,1.12,0.13,1.68,0.4l-0.39,0.99
			c-0.21-0.1-0.43-0.19-0.65-0.27C28.16,33.59,27.95,33.55,27.74,33.55z"/>
		<path class="st5" d="M35.71,35.48c0,0.95-0.24,1.68-0.71,2.19c-0.47,0.51-1.15,0.77-2.03,0.77c-0.88,0-1.56-0.25-2.03-0.77
			c-0.47-0.51-0.71-1.24-0.71-2.2c0-0.96,0.24-1.68,0.71-2.19c0.47-0.5,1.15-0.76,2.03-0.76c0.88,0,1.56,0.25,2.02,0.76
			C35.47,33.8,35.71,34.53,35.71,35.48z M31.52,35.48c0,0.64,0.12,1.13,0.37,1.45c0.24,0.33,0.61,0.49,1.09,0.49
			c0.97,0,1.46-0.65,1.46-1.94c0-1.29-0.48-1.94-1.45-1.94c-0.48,0-0.85,0.16-1.1,0.49C31.64,34.35,31.52,34.84,31.52,35.48z"/>
		<path class="st5" d="M42.07,38.36h-1.55l-2.5-4.34h-0.04c0.05,0.77,0.07,1.31,0.07,1.64v2.7h-1.09v-5.74h1.54l2.49,4.3h0.03
			c-0.04-0.75-0.06-1.27-0.06-1.58v-2.72h1.1V38.36z"/>
		<path class="st5" d="M48.81,35.48c0,0.95-0.24,1.68-0.71,2.19c-0.47,0.51-1.15,0.77-2.03,0.77c-0.88,0-1.56-0.25-2.03-0.77
			c-0.47-0.51-0.71-1.24-0.71-2.2c0-0.96,0.24-1.68,0.71-2.19c0.47-0.5,1.15-0.76,2.03-0.76c0.88,0,1.56,0.25,2.02,0.76
			C48.58,33.8,48.81,34.53,48.81,35.48z M44.62,35.48c0,0.64,0.12,1.13,0.37,1.45c0.24,0.33,0.61,0.49,1.09,0.49
			c0.97,0,1.46-0.65,1.46-1.94c0-1.29-0.48-1.94-1.45-1.94c-0.48,0-0.85,0.16-1.1,0.49C44.74,34.35,44.62,34.84,44.62,35.48z"/>
		<path class="st5" d="M52.51,38.36l-1.38-4.5h-0.04c0.05,0.92,0.07,1.53,0.07,1.83v2.67h-1.09v-5.74h1.66l1.36,4.39h0.02l1.44-4.39
			h1.66v5.74h-1.13v-2.72c0-0.13,0-0.28,0.01-0.44s0.02-0.61,0.05-1.33h-0.04l-1.48,4.5H52.51z"/>
		<path class="st5" d="M57.74,38.36v-5.74h1.22v5.74H57.74z"/>
		<path class="st5" d="M62.92,33.55c-0.46,0-0.81,0.17-1.06,0.52c-0.25,0.34-0.38,0.82-0.38,1.44c0,1.28,0.48,1.92,1.44,1.92
			c0.4,0,0.89-0.1,1.46-0.3v1.02c-0.47,0.2-1,0.29-1.58,0.29c-0.83,0-1.47-0.25-1.92-0.76c-0.44-0.51-0.66-1.23-0.66-2.18
			c0-0.6,0.11-1.12,0.33-1.57c0.22-0.45,0.53-0.79,0.94-1.03c0.41-0.24,0.88-0.36,1.43-0.36c0.56,0,1.12,0.13,1.68,0.4l-0.39,0.99
			c-0.21-0.1-0.43-0.19-0.65-0.27C63.34,33.59,63.13,33.55,62.92,33.55z"/>
	</g>
	<g>
		<path class="st5" d="M17.07,44.86c0,0.95-0.24,1.68-0.71,2.19c-0.47,0.51-1.15,0.77-2.03,0.77c-0.88,0-1.56-0.25-2.03-0.77
			c-0.47-0.51-0.71-1.24-0.71-2.2c0-0.96,0.24-1.68,0.71-2.19c0.47-0.5,1.15-0.76,2.03-0.76c0.88,0,1.56,0.25,2.02,0.76
			C16.84,43.18,17.07,43.91,17.07,44.86z M12.88,44.86c0,0.64,0.12,1.13,0.37,1.45c0.24,0.33,0.61,0.49,1.09,0.49
			c0.97,0,1.46-0.65,1.46-1.94c0-1.29-0.48-1.94-1.45-1.94c-0.48,0-0.85,0.16-1.1,0.49C13,43.74,12.88,44.22,12.88,44.86z"/>
		<path class="st5" d="M22.31,43.79c0,0.62-0.19,1.09-0.58,1.42s-0.94,0.49-1.65,0.49h-0.52v2.04h-1.22V42h1.83
			c0.7,0,1.23,0.15,1.59,0.45C22.13,42.75,22.31,43.2,22.31,43.79z M19.56,44.7h0.4c0.37,0,0.65-0.07,0.84-0.22
			c0.19-0.15,0.28-0.36,0.28-0.65c0-0.29-0.08-0.5-0.23-0.63c-0.16-0.14-0.4-0.2-0.73-0.2h-0.55V44.7z"/>
		<path class="st5" d="M27.44,43.79c0,0.62-0.19,1.09-0.58,1.42s-0.94,0.49-1.65,0.49h-0.52v2.04h-1.22V42h1.83
			c0.7,0,1.23,0.15,1.59,0.45C27.26,42.75,27.44,43.2,27.44,43.79z M24.69,44.7h0.4c0.37,0,0.65-0.07,0.84-0.22
			c0.19-0.15,0.28-0.36,0.28-0.65c0-0.29-0.08-0.5-0.23-0.63c-0.16-0.14-0.4-0.2-0.73-0.2h-0.55V44.7z"/>
		<path class="st5" d="M33.81,44.86c0,0.95-0.24,1.68-0.71,2.19c-0.47,0.51-1.15,0.77-2.03,0.77c-0.88,0-1.56-0.25-2.03-0.77
			c-0.47-0.51-0.71-1.24-0.71-2.2c0-0.96,0.24-1.68,0.71-2.19c0.47-0.5,1.15-0.76,2.03-0.76c0.88,0,1.56,0.25,2.02,0.76
			C33.58,43.18,33.81,43.91,33.81,44.86z M29.62,44.86c0,0.64,0.12,1.13,0.37,1.45c0.24,0.33,0.61,0.49,1.09,0.49
			c0.97,0,1.46-0.65,1.46-1.94c0-1.29-0.48-1.94-1.45-1.94c-0.48,0-0.85,0.16-1.1,0.49C29.75,43.74,29.62,44.22,29.62,44.86z"/>
		<path class="st5" d="M36.3,45.54v2.2h-1.22V42h1.67c0.78,0,1.36,0.14,1.73,0.43c0.37,0.28,0.56,0.72,0.56,1.29
			c0,0.34-0.09,0.64-0.28,0.9c-0.19,0.26-0.45,0.47-0.79,0.62c0.86,1.29,1.43,2.13,1.69,2.5h-1.35l-1.37-2.2H36.3z M36.3,44.55h0.39
			c0.38,0,0.67-0.06,0.85-0.19c0.18-0.13,0.27-0.33,0.27-0.61c0-0.27-0.09-0.47-0.28-0.58C37.35,43.06,37.06,43,36.67,43H36.3V44.55
			z"/>
		<path class="st5" d="M42.68,47.74h-1.22v-4.73H39.9V42h4.34v1.01h-1.56V47.74z"/>
		<path class="st5" d="M49.87,42v3.71c0,0.42-0.09,0.8-0.28,1.12s-0.46,0.56-0.82,0.73c-0.36,0.17-0.78,0.25-1.27,0.25
			c-0.74,0-1.31-0.19-1.72-0.57c-0.41-0.38-0.61-0.9-0.61-1.55V42h1.21v3.51c0,0.44,0.09,0.77,0.27,0.97
			c0.18,0.21,0.47,0.31,0.88,0.31c0.4,0,0.69-0.1,0.87-0.31s0.27-0.53,0.27-0.98V42H49.87z"/>
		<path class="st5" d="M56.45,47.74H54.9l-2.5-4.34h-0.04c0.05,0.77,0.07,1.31,0.07,1.64v2.7h-1.09V42h1.54l2.49,4.3h0.03
			c-0.04-0.75-0.06-1.27-0.06-1.58V42h1.1V47.74z"/>
		<path class="st5" d="M57.97,47.74V42h1.22v5.74H57.97z"/>
		<path class="st5" d="M62.92,47.74h-1.22v-4.73h-1.56V42h4.34v1.01h-1.56V47.74z"/>
		<path class="st5" d="M68.75,47.74h-3.31V42h3.31v1h-2.09v1.26h1.94v1h-1.94v1.48h2.09V47.74z"/>
		<path class="st5" d="M73.4,46.15c0,0.52-0.19,0.93-0.56,1.23s-0.89,0.45-1.56,0.45c-0.61,0-1.15-0.12-1.63-0.34v-1.13
			c0.39,0.17,0.72,0.29,0.98,0.37c0.27,0.07,0.51,0.11,0.74,0.11c0.27,0,0.47-0.05,0.61-0.15c0.14-0.1,0.21-0.25,0.21-0.46
			c0-0.11-0.03-0.21-0.09-0.3c-0.06-0.09-0.15-0.17-0.28-0.25c-0.12-0.08-0.37-0.21-0.74-0.39c-0.35-0.17-0.61-0.32-0.79-0.48
			c-0.18-0.15-0.32-0.33-0.42-0.53c-0.1-0.2-0.16-0.44-0.16-0.71c0-0.51,0.17-0.91,0.52-1.2c0.34-0.29,0.82-0.44,1.43-0.44
			c0.3,0,0.58,0.04,0.85,0.11c0.27,0.07,0.55,0.17,0.85,0.3l-0.39,0.95c-0.31-0.13-0.56-0.21-0.76-0.26
			c-0.2-0.05-0.4-0.07-0.59-0.07c-0.23,0-0.41,0.05-0.53,0.16c-0.12,0.11-0.18,0.25-0.18,0.42c0,0.11,0.02,0.2,0.07,0.28
			c0.05,0.08,0.13,0.16,0.24,0.23c0.11,0.07,0.37,0.21,0.77,0.4c0.54,0.26,0.9,0.51,1.1,0.77C73.31,45.46,73.4,45.77,73.4,46.15z"/>
	</g>
</g>
<g>
	<path class="st12" d="M356.36-518.84v-15 M-238.91-518.84v-15 M362.36,329.05h15 M-244.91,329.05h-15 M362.36-512.84h15
		 M-244.91-512.84h-15"/>
	<path class="st13" d="M356.36-518.84v-15 M-238.91-518.84v-15 M362.36,329.05h15 M-244.91,329.05h-15 M362.36-512.84h15
		 M-244.91-512.84h-15"/>
</g>
</svg>
