<?xml version="1.0" encoding="utf-8"?>
<!-- Generator: Adobe Illustrator 24.3.0, SVG Export Plug-In . SVG Version: 6.00 Build 0)  -->
<svg version="1.1" id="Layer_1" xmlns="http://www.w3.org/2000/svg" xmlns:xlink="http://www.w3.org/1999/xlink" x="0px" y="0px"
	 viewBox="0 0 103.68 66.69" style="enable-background:new 0 0 103.68 66.69;" xml:space="preserve">
<style type="text/css">
	.st0{fill:#F7F5F2;}
	.st1{fill:#F1EEE9;}
	.st2{fill:#A0926A;}
	.st3{fill:#0092B2;}
	.st4{fill:#1568A1;}
	.st5{fill:#FFFFFF;}
	.st6{fill:#2D77AA;}
	.st7{fill:#32A7C2;}
	.st8{fill:#AA9D78;}
	.st9{fill:#A1A94F;}
	.st10{fill:#8B9638;}
	.st11{fill:none;stroke:#A0926A;}
	.st12{fill:none;stroke:#FFFFFF;stroke-width:1.25;stroke-miterlimit:10;}
	.st13{fill:none;stroke:#000000;stroke-width:0.25;stroke-miterlimit:10;}
	.st14{fill:#DDDEE0;}
	.st15{fill:#E8F0F5;}
	.st16{fill:#D1E1EB;}
	.st17{fill:#F7F5F1;}
	.st18{fill:#ECE9E1;}
	.st19{fill:#F4F4E9;}
	.st20{fill:#E6F5F8;}
	.st21{fill:none;stroke:#FFFFFF;stroke-width:0.25;stroke-miterlimit:10;}
	.st22{fill:#282829;}
	.st23{fill:none;stroke:#FFFFFF;stroke-width:0.3;stroke-miterlimit:10;}
	.st24{fill:none;stroke:#FFFFFF;stroke-width:0.447;stroke-miterlimit:10;}
	.st25{fill:none;stroke:#FFFFFF;stroke-width:0.652;stroke-miterlimit:10;}
	.st26{fill:none;stroke:#FFFFFF;stroke-width:0.558;stroke-miterlimit:10;}
	.st27{fill:none;stroke:#FFFFFF;stroke-width:0.363;stroke-miterlimit:10;}
	.st28{fill:none;stroke:#FFFFFF;stroke-width:0.628;stroke-linecap:round;stroke-linejoin:round;stroke-miterlimit:22.926;}
	.st29{clip-path:url(#SVGID_2_);fill:#ECE9E1;}
	.st30{clip-path:url(#SVGID_2_);fill:#F7F5F1;}
	.st31{clip-path:url(#SVGID_2_);fill:#FFFFFF;}
	.st32{fill:none;stroke:#A0926A;stroke-width:1.5;}
	.st33{fill:none;stroke:#FFFFFF;stroke-width:0.333;stroke-miterlimit:10;}
	.st34{fill:none;stroke:#FFFFFF;stroke-width:0.497;stroke-miterlimit:10;}
	.st35{fill:none;stroke:#FFFFFF;stroke-width:0.724;stroke-miterlimit:10;}
	.st36{fill:none;stroke:#FFFFFF;stroke-width:0.62;stroke-miterlimit:10;}
	.st37{fill:none;stroke:#FFFFFF;stroke-width:0.4;stroke-miterlimit:10;}
	.st38{fill:none;stroke:#FFFFFF;stroke-width:0.403;stroke-miterlimit:10;}
	.st39{fill:#B4A888;}
	.st40{fill:none;stroke:#FFFFFF;stroke-miterlimit:10;}
	.st41{fill:none;stroke:#A0926A;stroke-width:1.19;stroke-linejoin:round;stroke-miterlimit:10;}
	.st42{fill:none;stroke:#A0926A;stroke-width:1.265;stroke-miterlimit:10;}
	.st43{fill:none;stroke:#A0926A;stroke-width:1.265;stroke-linecap:round;stroke-linejoin:round;stroke-miterlimit:10;}
	.st44{fill:none;stroke:#A0926A;stroke-width:1.265;stroke-linejoin:round;stroke-miterlimit:10;}
	.st45{fill:none;stroke:#A0926A;stroke-width:1.22;stroke-linecap:round;stroke-linejoin:round;stroke-miterlimit:22.926;}
	.st46{fill:none;stroke:#A0926A;stroke-width:1.314;stroke-linecap:round;stroke-linejoin:round;stroke-miterlimit:22.926;}
	.st47{clip-path:url(#SVGID_4_);}
	.st48{clip-path:url(#SVGID_4_);fill:#B4A888;}
	.st49{clip-path:url(#SVGID_4_);fill:#F7F5F1;}
	.st50{clip-path:url(#SVGID_4_);fill:#ECE9E1;}
	.st51{clip-path:url(#SVGID_4_);fill:none;stroke:#FFFFFF;stroke-miterlimit:10;}
	
		.st52{clip-path:url(#SVGID_8_);fill:none;stroke:#A0926A;stroke-width:1.148;stroke-linecap:round;stroke-linejoin:round;stroke-miterlimit:10;}
	
		.st53{clip-path:url(#SVGID_4_);fill:none;stroke:#A0926A;stroke-width:1.148;stroke-linecap:round;stroke-linejoin:round;stroke-miterlimit:10;stroke-dasharray:0.047,2.088;}
	
		.st54{clip-path:url(#SVGID_4_);fill:none;stroke:#A0926A;stroke-width:1.148;stroke-linecap:round;stroke-linejoin:round;stroke-miterlimit:10;}
	.st55{clip-path:url(#SVGID_4_);fill:#282829;}
	.st56{clip-path:url(#SVGID_10_);fill:none;stroke:#A0926A;stroke-width:1.397;stroke-miterlimit:10;}
	.st57{clip-path:url(#SVGID_10_);fill:none;stroke:#A0926A;stroke-width:1.397;stroke-linejoin:round;stroke-miterlimit:10;}
	
		.st58{clip-path:url(#SVGID_12_);fill:none;stroke:#A0926A;stroke-width:1.252;stroke-linecap:round;stroke-linejoin:round;stroke-miterlimit:10;}
	.st59{clip-path:url(#SVGID_14_);fill:none;stroke:#A0926A;stroke-width:1.2112;stroke-linejoin:round;stroke-miterlimit:10;}
	.st60{clip-path:url(#SVGID_16_);fill:none;stroke:#FFFFFF;stroke-width:1.25;stroke-miterlimit:10;}
	.st61{clip-path:url(#SVGID_16_);fill:none;stroke:#000000;stroke-width:0.25;stroke-miterlimit:10;}
	.st62{clip-path:url(#SVGID_16_);fill:none;stroke:#FFFFFF;stroke-width:0.4;stroke-miterlimit:10;}
	.st63{clip-path:url(#SVGID_18_);fill:none;stroke:#FFFFFF;stroke-width:0.4;stroke-miterlimit:10;}
</style>
<g>
	<g>
		<rect class="st8" width="103.68" height="66.69"/>
	</g>
	<g>
		<path class="st5" d="M4.46,10.11c0-0.33,0.07-0.58,0.21-0.76s0.34-0.26,0.6-0.26c0.26,0,0.46,0.09,0.6,0.26
			C6,9.53,6.07,9.78,6.07,10.11c0,0.32-0.07,0.57-0.21,0.75s-0.34,0.27-0.6,0.27c-0.25,0-0.45-0.09-0.6-0.26S4.46,10.44,4.46,10.11z
			"/>
	</g>
	<g>
		<path class="st5" d="M12.28,9.13c0,0.55-0.16,0.97-0.48,1.26s-0.77,0.44-1.36,0.44H9.96v1.97H9.2V7.54h1.34
			c0.58,0,1.02,0.13,1.31,0.4S12.28,8.61,12.28,9.13z M9.96,10.11h0.4c0.39,0,0.68-0.08,0.86-0.23c0.18-0.15,0.27-0.39,0.27-0.72
			c0-0.3-0.08-0.53-0.25-0.68c-0.16-0.15-0.42-0.22-0.76-0.22H9.96V10.11z"/>
		<path class="st5" d="M14.73,12.87c-0.55,0-0.98-0.18-1.28-0.54c-0.31-0.36-0.46-0.86-0.46-1.49c0-0.65,0.14-1.16,0.43-1.53
			s0.68-0.56,1.18-0.56c0.46,0,0.83,0.16,1.1,0.48s0.4,0.76,0.4,1.32V11h-2.35c0.01,0.39,0.1,0.68,0.28,0.89
			c0.17,0.21,0.42,0.31,0.74,0.31c0.21,0,0.4-0.02,0.58-0.07c0.18-0.04,0.37-0.12,0.58-0.22v0.69c-0.18,0.1-0.37,0.17-0.55,0.21
			C15.18,12.85,14.97,12.87,14.73,12.87z M14.59,9.39c-0.24,0-0.43,0.08-0.57,0.25c-0.14,0.17-0.23,0.42-0.26,0.75h1.6
			c0-0.33-0.07-0.58-0.21-0.75C15.01,9.47,14.83,9.39,14.59,9.39z"/>
		<path class="st5" d="M18.79,8.75c0.15,0,0.27,0.01,0.37,0.04l-0.07,0.79c-0.11-0.03-0.22-0.04-0.33-0.04
			c-0.3,0-0.54,0.11-0.73,0.33c-0.19,0.22-0.28,0.51-0.28,0.86v2.08H17V8.82h0.59l0.1,0.7h0.04C17.84,9.29,18,9.1,18.18,8.96
			C18.37,8.82,18.57,8.75,18.79,8.75z"/>
		<path class="st5" d="M21.64,9.46h-0.86v3.34h-0.75V9.46h-0.58v-0.4l0.58-0.26V8.55c0-0.47,0.1-0.82,0.29-1.05
			c0.2-0.23,0.49-0.34,0.89-0.34c0.26,0,0.52,0.05,0.78,0.15l-0.2,0.64c-0.18-0.07-0.36-0.1-0.53-0.1c-0.17,0-0.29,0.06-0.37,0.18
			c-0.08,0.12-0.12,0.3-0.12,0.54v0.26h0.86V9.46z"/>
		<path class="st5" d="M25.42,10.8c0,0.65-0.15,1.16-0.44,1.52c-0.29,0.37-0.71,0.55-1.23,0.55c-0.33,0-0.62-0.08-0.87-0.25
			s-0.45-0.41-0.58-0.72s-0.2-0.68-0.2-1.09c0-0.65,0.15-1.15,0.44-1.51c0.29-0.36,0.71-0.54,1.24-0.54c0.51,0,0.91,0.19,1.21,0.56
			C25.27,9.68,25.42,10.17,25.42,10.8z M22.86,10.8c0,0.92,0.3,1.38,0.9,1.38c0.59,0,0.89-0.46,0.89-1.38c0-0.91-0.3-1.36-0.9-1.36
			c-0.31,0-0.54,0.12-0.68,0.35C22.93,10.03,22.86,10.37,22.86,10.8z"/>
		<path class="st5" d="M28.12,8.75c0.15,0,0.27,0.01,0.37,0.04l-0.07,0.79c-0.11-0.03-0.22-0.04-0.33-0.04
			c-0.3,0-0.54,0.11-0.73,0.33c-0.19,0.22-0.28,0.51-0.28,0.86v2.08h-0.75V8.82h0.59l0.1,0.7h0.04c0.12-0.24,0.27-0.43,0.46-0.57
			C27.71,8.82,27.91,8.75,28.12,8.75z"/>
		<path class="st5" d="M32.17,12.8h-0.75v-2.46c0-0.3-0.05-0.53-0.15-0.68c-0.1-0.15-0.26-0.23-0.48-0.23
			c-0.29,0-0.5,0.11-0.64,0.32c-0.13,0.21-0.2,0.57-0.2,1.06v1.98h-0.75V8.82h0.59l0.1,0.52h0.04c0.1-0.19,0.24-0.34,0.42-0.44
			c0.19-0.1,0.39-0.16,0.61-0.16c0.54,0,0.9,0.21,1.08,0.63h0.05c0.1-0.2,0.25-0.35,0.44-0.46s0.41-0.17,0.65-0.17
			c0.42,0,0.73,0.12,0.92,0.36c0.19,0.24,0.29,0.61,0.29,1.1v2.6h-0.75v-2.46c0-0.3-0.05-0.53-0.15-0.68
			c-0.1-0.15-0.26-0.23-0.48-0.23c-0.29,0-0.5,0.1-0.64,0.31s-0.2,0.52-0.2,0.95V12.8z"/>
		<path class="st5" d="M37.7,12.8l-0.15-0.55h-0.03c-0.17,0.24-0.34,0.41-0.51,0.5c-0.17,0.09-0.39,0.13-0.66,0.13
			c-0.35,0-0.62-0.11-0.81-0.32c-0.19-0.21-0.29-0.51-0.29-0.9c0-0.41,0.13-0.72,0.4-0.93c0.27-0.21,0.68-0.32,1.23-0.34l0.61-0.02
			v-0.21c0-0.25-0.05-0.45-0.16-0.57S37.07,9.4,36.85,9.4c-0.18,0-0.35,0.03-0.52,0.09c-0.17,0.06-0.32,0.13-0.48,0.21l-0.24-0.61
			c0.19-0.11,0.4-0.2,0.63-0.26s0.44-0.09,0.64-0.09c0.45,0,0.79,0.11,1.01,0.33c0.23,0.22,0.34,0.57,0.34,1.04v2.68H37.7z
			 M36.59,12.23c0.27,0,0.49-0.09,0.65-0.26c0.16-0.17,0.25-0.41,0.25-0.72V10.9l-0.45,0.02c-0.35,0.01-0.61,0.08-0.77,0.2
			c-0.16,0.12-0.24,0.3-0.24,0.55c0,0.18,0.05,0.31,0.14,0.41C36.26,12.18,36.4,12.23,36.59,12.23z"/>
		<path class="st5" d="M42.44,12.8h-0.75v-2.45c0-0.31-0.05-0.54-0.16-0.69C41.41,9.52,41.24,9.44,41,9.44
			c-0.32,0-0.55,0.11-0.69,0.32c-0.15,0.21-0.22,0.56-0.22,1.06v1.98h-0.75V8.82h0.59l0.1,0.52h0.04c0.11-0.19,0.26-0.34,0.45-0.44
			s0.41-0.16,0.65-0.16c0.84,0,1.27,0.49,1.27,1.46V12.8z"/>
		<path class="st5" d="M44.96,12.87c-0.53,0-0.94-0.18-1.21-0.53s-0.42-0.86-0.42-1.51c0-0.67,0.15-1.18,0.43-1.54
			c0.29-0.36,0.71-0.54,1.26-0.54c0.37,0,0.71,0.08,1,0.23l-0.23,0.68c-0.32-0.14-0.58-0.21-0.78-0.21c-0.61,0-0.91,0.46-0.91,1.37
			c0,0.45,0.08,0.78,0.23,1.01c0.15,0.22,0.37,0.34,0.67,0.34c0.33,0,0.65-0.09,0.95-0.28v0.74c-0.13,0.09-0.28,0.15-0.43,0.19
			C45.36,12.85,45.17,12.87,44.96,12.87z"/>
		<path class="st5" d="M48.36,12.87c-0.55,0-0.98-0.18-1.28-0.54c-0.31-0.36-0.46-0.86-0.46-1.49c0-0.65,0.14-1.16,0.43-1.53
			s0.68-0.56,1.18-0.56c0.46,0,0.83,0.16,1.1,0.48s0.4,0.76,0.4,1.32V11h-2.35c0.01,0.39,0.1,0.68,0.28,0.89
			c0.17,0.21,0.42,0.31,0.74,0.31c0.21,0,0.4-0.02,0.58-0.07c0.18-0.04,0.37-0.12,0.58-0.22v0.69c-0.18,0.1-0.37,0.17-0.55,0.21
			C48.81,12.85,48.6,12.87,48.36,12.87z M48.22,9.39c-0.24,0-0.43,0.08-0.57,0.25c-0.14,0.17-0.23,0.42-0.26,0.75h1.6
			c0-0.33-0.07-0.58-0.21-0.75C48.65,9.47,48.46,9.39,48.22,9.39z"/>
	</g>
	<g>
		<path class="st5" d="M11.21,21.65l-1.35-4.4H9.84c0.04,0.65,0.05,1.26,0.05,1.84v2.56H9.2v-5.26h1.07l1.29,4.19h0.02l1.33-4.19
			h1.08v5.26h-0.73v-2.6c0-0.26,0.01-0.6,0.02-1.02s0.02-0.67,0.03-0.76h-0.03l-1.4,4.39H11.21z"/>
		<path class="st5" d="M17.4,21.65l-0.15-0.55h-0.03c-0.17,0.24-0.34,0.41-0.51,0.5c-0.17,0.09-0.39,0.13-0.66,0.13
			c-0.35,0-0.62-0.11-0.81-0.32c-0.19-0.21-0.29-0.51-0.29-0.9c0-0.41,0.13-0.72,0.4-0.93c0.27-0.21,0.68-0.32,1.23-0.34l0.61-0.02
			V19c0-0.25-0.05-0.45-0.16-0.57s-0.27-0.19-0.49-0.19c-0.18,0-0.35,0.03-0.52,0.09c-0.17,0.06-0.32,0.13-0.48,0.21l-0.24-0.61
			c0.19-0.11,0.4-0.2,0.63-0.26s0.44-0.09,0.64-0.09c0.45,0,0.79,0.11,1.01,0.33c0.23,0.22,0.34,0.57,0.34,1.04v2.68H17.4z
			 M16.28,21.07c0.27,0,0.49-0.09,0.65-0.26c0.16-0.17,0.25-0.41,0.25-0.72v-0.35l-0.45,0.02c-0.35,0.01-0.61,0.08-0.77,0.2
			c-0.16,0.12-0.24,0.3-0.24,0.55c0,0.18,0.05,0.31,0.14,0.41C15.96,21.02,16.1,21.07,16.28,21.07z"/>
		<path class="st5" d="M22.13,21.65h-0.75V19.2c0-0.31-0.05-0.54-0.16-0.69c-0.11-0.15-0.28-0.23-0.52-0.23
			c-0.32,0-0.55,0.11-0.69,0.32c-0.15,0.21-0.22,0.56-0.22,1.06v1.98h-0.75v-3.98h0.59l0.1,0.52h0.04c0.11-0.19,0.26-0.34,0.45-0.44
			s0.41-0.16,0.65-0.16c0.84,0,1.27,0.49,1.27,1.46V21.65z"/>
		<path class="st5" d="M25.43,21.65l-0.15-0.55h-0.03c-0.17,0.24-0.34,0.41-0.51,0.5c-0.17,0.09-0.39,0.13-0.66,0.13
			c-0.35,0-0.62-0.11-0.81-0.32c-0.19-0.21-0.29-0.51-0.29-0.9c0-0.41,0.13-0.72,0.4-0.93c0.27-0.21,0.68-0.32,1.23-0.34l0.61-0.02
			V19c0-0.25-0.05-0.45-0.16-0.57s-0.27-0.19-0.49-0.19c-0.18,0-0.35,0.03-0.52,0.09c-0.17,0.06-0.32,0.13-0.48,0.21l-0.24-0.61
			c0.19-0.11,0.4-0.2,0.63-0.26s0.44-0.09,0.64-0.09c0.45,0,0.79,0.11,1.01,0.33c0.23,0.22,0.34,0.57,0.34,1.04v2.68H25.43z
			 M24.32,21.07c0.27,0,0.49-0.09,0.65-0.26c0.16-0.17,0.25-0.41,0.25-0.72v-0.35l-0.45,0.02c-0.35,0.01-0.61,0.08-0.77,0.2
			c-0.16,0.12-0.24,0.3-0.24,0.55c0,0.18,0.05,0.31,0.14,0.41C23.99,21.02,24.13,21.07,24.32,21.07z"/>
		<path class="st5" d="M30.05,17.67v0.46l-0.6,0.13c0.06,0.08,0.1,0.19,0.14,0.31c0.04,0.12,0.05,0.25,0.05,0.39
			c0,0.41-0.13,0.73-0.38,0.97c-0.25,0.24-0.6,0.35-1.03,0.35c-0.11,0-0.21-0.01-0.31-0.03c-0.16,0.11-0.24,0.25-0.24,0.4
			c0,0.09,0.04,0.16,0.11,0.21c0.08,0.04,0.21,0.07,0.42,0.07h0.61c0.39,0,0.68,0.09,0.89,0.28c0.2,0.19,0.3,0.46,0.3,0.81
			c0,0.45-0.16,0.8-0.49,1.04c-0.33,0.24-0.8,0.37-1.43,0.37c-0.48,0-0.85-0.1-1.1-0.29c-0.25-0.19-0.38-0.47-0.38-0.82
			c0-0.24,0.07-0.45,0.21-0.62c0.14-0.17,0.33-0.28,0.57-0.35c-0.1-0.05-0.18-0.13-0.25-0.23c-0.06-0.11-0.1-0.22-0.1-0.34
			c0-0.15,0.04-0.27,0.11-0.38s0.18-0.21,0.33-0.31c-0.18-0.09-0.33-0.23-0.44-0.43c-0.11-0.2-0.17-0.43-0.17-0.7
			c0-0.43,0.12-0.77,0.36-1c0.24-0.24,0.58-0.36,1.03-0.36c0.1,0,0.2,0.01,0.31,0.02s0.19,0.03,0.25,0.05H30.05z M27.28,22.27
			c0,0.18,0.07,0.32,0.22,0.42c0.15,0.1,0.35,0.15,0.61,0.15c0.41,0,0.71-0.07,0.91-0.2s0.3-0.31,0.3-0.53
			c0-0.17-0.05-0.3-0.16-0.37s-0.31-0.11-0.61-0.11h-0.57c-0.21,0-0.38,0.06-0.51,0.17C27.34,21.92,27.28,22.07,27.28,22.27z
			 M27.6,18.96c0,0.25,0.06,0.44,0.17,0.58c0.11,0.13,0.28,0.2,0.49,0.2c0.43,0,0.65-0.26,0.65-0.79c0-0.26-0.05-0.46-0.16-0.6
			c-0.11-0.14-0.27-0.21-0.49-0.21c-0.22,0-0.38,0.07-0.49,0.21C27.66,18.49,27.6,18.69,27.6,18.96z"/>
		<path class="st5" d="M32.29,21.72c-0.55,0-0.98-0.18-1.28-0.54c-0.31-0.36-0.46-0.86-0.46-1.49c0-0.65,0.14-1.16,0.43-1.53
			s0.68-0.56,1.18-0.56c0.46,0,0.83,0.16,1.1,0.48s0.4,0.76,0.4,1.32v0.46h-2.35c0.01,0.39,0.1,0.68,0.28,0.89
			c0.17,0.21,0.42,0.31,0.74,0.31c0.21,0,0.4-0.02,0.58-0.07c0.18-0.04,0.37-0.12,0.58-0.22v0.69c-0.18,0.1-0.37,0.17-0.55,0.21
			C32.75,21.7,32.53,21.72,32.29,21.72z M32.16,18.24c-0.24,0-0.43,0.08-0.57,0.25c-0.14,0.17-0.23,0.42-0.26,0.75h1.6
			c0-0.33-0.07-0.58-0.21-0.75C32.58,18.32,32.39,18.24,32.16,18.24z"/>
		<path class="st5" d="M37.54,21.65h-0.75v-2.46c0-0.3-0.05-0.53-0.15-0.68c-0.1-0.15-0.26-0.23-0.48-0.23
			c-0.29,0-0.5,0.11-0.64,0.32c-0.13,0.21-0.2,0.57-0.2,1.06v1.98h-0.75v-3.98h0.59l0.1,0.52h0.04c0.1-0.19,0.24-0.34,0.42-0.44
			c0.19-0.1,0.39-0.16,0.61-0.16c0.54,0,0.9,0.21,1.08,0.63h0.05c0.1-0.2,0.25-0.35,0.44-0.46s0.41-0.17,0.65-0.17
			c0.42,0,0.73,0.12,0.92,0.36c0.19,0.24,0.29,0.61,0.29,1.1v2.6h-0.75v-2.46c0-0.3-0.05-0.53-0.15-0.68
			c-0.1-0.15-0.26-0.23-0.48-0.23c-0.29,0-0.5,0.1-0.64,0.31s-0.2,0.52-0.2,0.95V21.65z"/>
		<path class="st5" d="M42.4,21.72c-0.55,0-0.98-0.18-1.28-0.54c-0.31-0.36-0.46-0.86-0.46-1.49c0-0.65,0.14-1.16,0.43-1.53
			s0.68-0.56,1.18-0.56c0.46,0,0.83,0.16,1.1,0.48s0.4,0.76,0.4,1.32v0.46h-2.35c0.01,0.39,0.1,0.68,0.28,0.89
			c0.17,0.21,0.42,0.31,0.74,0.31c0.21,0,0.4-0.02,0.58-0.07c0.18-0.04,0.37-0.12,0.58-0.22v0.69c-0.18,0.1-0.37,0.17-0.55,0.21
			C42.85,21.7,42.64,21.72,42.4,21.72z M42.26,18.24c-0.24,0-0.43,0.08-0.57,0.25c-0.14,0.17-0.23,0.42-0.26,0.75h1.6
			c0-0.33-0.07-0.58-0.21-0.75C42.69,18.32,42.5,18.24,42.26,18.24z"/>
		<path class="st5" d="M47.78,21.65h-0.75V19.2c0-0.31-0.05-0.54-0.16-0.69c-0.11-0.15-0.28-0.23-0.52-0.23
			c-0.32,0-0.55,0.11-0.69,0.32c-0.15,0.21-0.22,0.56-0.22,1.06v1.98h-0.75v-3.98h0.59l0.1,0.52h0.04c0.11-0.19,0.26-0.34,0.45-0.44
			s0.41-0.16,0.65-0.16c0.84,0,1.27,0.49,1.27,1.46V21.65z"/>
		<path class="st5" d="M50.19,21.04c0.18,0,0.37-0.03,0.55-0.1v0.64c-0.08,0.04-0.19,0.08-0.32,0.1c-0.13,0.03-0.27,0.04-0.41,0.04
			c-0.71,0-1.06-0.42-1.06-1.27v-2.15h-0.48v-0.37l0.52-0.31l0.25-0.84h0.46v0.89h1v0.64h-1v2.13c0,0.2,0.05,0.36,0.14,0.45
			C49.92,20.99,50.04,21.04,50.19,21.04z"/>
		<path class="st5" d="M56.01,20.22c0,0.47-0.15,0.83-0.45,1.1c-0.3,0.27-0.71,0.4-1.24,0.4s-0.96-0.09-1.29-0.28v-0.81
			c0.21,0.11,0.44,0.2,0.68,0.27c0.24,0.06,0.46,0.1,0.67,0.1c0.3,0,0.52-0.06,0.67-0.19c0.14-0.13,0.21-0.3,0.21-0.52
			c0-0.2-0.07-0.36-0.2-0.5c-0.13-0.14-0.4-0.3-0.81-0.49c-0.42-0.19-0.72-0.42-0.9-0.67c-0.17-0.25-0.26-0.55-0.26-0.9
			c0-0.44,0.14-0.78,0.41-1.04s0.65-0.38,1.11-0.38c0.45,0,0.89,0.11,1.33,0.33l-0.24,0.7c-0.41-0.2-0.78-0.29-1.11-0.29
			c-0.25,0-0.43,0.06-0.56,0.18s-0.19,0.28-0.19,0.48c0,0.14,0.03,0.25,0.08,0.35c0.05,0.1,0.13,0.19,0.25,0.28
			c0.12,0.09,0.33,0.2,0.63,0.34c0.34,0.16,0.59,0.31,0.75,0.45c0.16,0.14,0.28,0.3,0.35,0.47C55.97,19.78,56.01,19.98,56.01,20.22z
			"/>
		<path class="st5" d="M56.36,17.67h0.81l0.72,2.26c0.11,0.32,0.18,0.62,0.22,0.91h0.03c0.02-0.13,0.05-0.29,0.1-0.48
			c0.05-0.19,0.32-1.08,0.81-2.68h0.81l-1.51,4.51c-0.27,0.83-0.73,1.24-1.37,1.24c-0.17,0-0.33-0.02-0.48-0.06v-0.67
			c0.11,0.03,0.24,0.04,0.39,0.04c0.36,0,0.61-0.24,0.76-0.71l0.13-0.37L56.36,17.67z"/>
		<path class="st5" d="M62.81,20.51c0,0.39-0.13,0.69-0.38,0.89c-0.25,0.21-0.61,0.31-1.08,0.31c-0.47,0-0.85-0.08-1.13-0.24v-0.73
			c0.41,0.22,0.8,0.32,1.16,0.32c0.46,0,0.69-0.16,0.69-0.47c0-0.1-0.03-0.18-0.08-0.25c-0.05-0.07-0.13-0.14-0.25-0.21
			c-0.12-0.07-0.28-0.15-0.49-0.25c-0.41-0.18-0.68-0.36-0.82-0.53s-0.21-0.41-0.21-0.69c0-0.34,0.12-0.61,0.36-0.79
			c0.24-0.19,0.57-0.28,0.99-0.28c0.41,0,0.81,0.1,1.17,0.29l-0.24,0.64c-0.38-0.18-0.7-0.27-0.96-0.27c-0.39,0-0.59,0.13-0.59,0.38
			c0,0.13,0.05,0.23,0.15,0.32c0.1,0.09,0.33,0.21,0.67,0.36c0.29,0.13,0.5,0.24,0.63,0.35c0.13,0.11,0.23,0.23,0.29,0.37
			C62.78,20.16,62.81,20.32,62.81,20.51z"/>
		<path class="st5" d="M64.99,21.04c0.18,0,0.37-0.03,0.55-0.1v0.64c-0.08,0.04-0.19,0.08-0.32,0.1c-0.13,0.03-0.27,0.04-0.41,0.04
			c-0.71,0-1.06-0.42-1.06-1.27v-2.15h-0.48v-0.37l0.52-0.31l0.25-0.84h0.46v0.89h1v0.64h-1v2.13c0,0.2,0.05,0.36,0.14,0.45
			C64.72,20.99,64.84,21.04,64.99,21.04z"/>
		<path class="st5" d="M67.84,21.72c-0.55,0-0.98-0.18-1.28-0.54c-0.31-0.36-0.46-0.86-0.46-1.49c0-0.65,0.14-1.16,0.43-1.53
			s0.68-0.56,1.18-0.56c0.46,0,0.83,0.16,1.1,0.48s0.4,0.76,0.4,1.32v0.46h-2.35c0.01,0.39,0.1,0.68,0.28,0.89
			c0.17,0.21,0.42,0.31,0.74,0.31c0.21,0,0.4-0.02,0.58-0.07c0.18-0.04,0.37-0.12,0.58-0.22v0.69c-0.18,0.1-0.37,0.17-0.55,0.21
			C68.29,21.7,68.08,21.72,67.84,21.72z M67.7,18.24c-0.24,0-0.43,0.08-0.57,0.25c-0.14,0.17-0.23,0.42-0.26,0.75h1.6
			c0-0.33-0.07-0.58-0.21-0.75C68.12,18.32,67.94,18.24,67.7,18.24z"/>
		<path class="st5" d="M73.08,21.65h-0.75v-2.46c0-0.3-0.05-0.53-0.15-0.68c-0.1-0.15-0.26-0.23-0.48-0.23
			c-0.29,0-0.5,0.11-0.64,0.32c-0.13,0.21-0.2,0.57-0.2,1.06v1.98h-0.75v-3.98h0.59l0.1,0.52h0.04c0.1-0.19,0.24-0.34,0.42-0.44
			c0.19-0.1,0.39-0.16,0.61-0.16c0.54,0,0.9,0.21,1.08,0.63h0.05c0.1-0.2,0.25-0.35,0.44-0.46s0.41-0.17,0.65-0.17
			c0.42,0,0.73,0.12,0.92,0.36c0.19,0.24,0.29,0.61,0.29,1.1v2.6h-0.75v-2.46c0-0.3-0.05-0.53-0.15-0.68
			c-0.1-0.15-0.26-0.23-0.48-0.23c-0.29,0-0.5,0.1-0.64,0.31s-0.2,0.52-0.2,0.95V21.65z"/>
	</g>
	<g>
		<path class="st5" d="M4.46,27.8c0-0.33,0.07-0.58,0.21-0.76s0.34-0.26,0.6-0.26c0.26,0,0.46,0.09,0.6,0.26
			C6,27.22,6.07,27.47,6.07,27.8c0,0.32-0.07,0.57-0.21,0.75s-0.34,0.27-0.6,0.27c-0.25,0-0.45-0.09-0.6-0.26S4.46,28.13,4.46,27.8z
			"/>
	</g>
	<g>
		<path class="st5" d="M11.18,25.89c-0.44,0-0.78,0.18-1.03,0.53c-0.25,0.35-0.38,0.83-0.38,1.45c0,0.65,0.12,1.13,0.36,1.46
			c0.24,0.33,0.59,0.5,1.05,0.5c0.2,0,0.39-0.02,0.57-0.07c0.18-0.04,0.38-0.1,0.58-0.17v0.74c-0.37,0.16-0.78,0.23-1.24,0.23
			c-0.68,0-1.2-0.23-1.57-0.7c-0.36-0.47-0.55-1.13-0.55-2c0-0.55,0.09-1.03,0.27-1.44c0.18-0.41,0.43-0.72,0.77-0.94
			c0.33-0.22,0.73-0.33,1.18-0.33c0.48,0,0.91,0.11,1.32,0.34l-0.27,0.72c-0.16-0.08-0.32-0.16-0.5-0.22
			C11.56,25.93,11.37,25.89,11.18,25.89z"/>
		<path class="st5" d="M15.79,30.49l-0.1-0.52h-0.04c-0.1,0.18-0.25,0.33-0.44,0.44c-0.19,0.11-0.41,0.16-0.66,0.16
			c-0.43,0-0.74-0.12-0.96-0.36c-0.21-0.24-0.31-0.6-0.31-1.09v-2.6h0.75v2.46c0,0.3,0.06,0.53,0.17,0.69s0.28,0.23,0.52,0.23
			c0.31,0,0.54-0.11,0.69-0.32c0.15-0.21,0.22-0.57,0.22-1.07v-1.98h0.75v3.98H15.79z"/>
		<path class="st5" d="M19.87,29.36c0,0.39-0.13,0.69-0.38,0.89c-0.25,0.21-0.61,0.31-1.08,0.31c-0.47,0-0.85-0.08-1.13-0.24v-0.73
			c0.41,0.22,0.8,0.32,1.16,0.32c0.46,0,0.69-0.16,0.69-0.47c0-0.1-0.03-0.18-0.08-0.25c-0.05-0.07-0.13-0.14-0.25-0.21
			c-0.12-0.07-0.28-0.15-0.49-0.25c-0.41-0.18-0.68-0.36-0.82-0.53s-0.21-0.41-0.21-0.69c0-0.34,0.12-0.61,0.36-0.79
			c0.24-0.19,0.57-0.28,0.99-0.28c0.41,0,0.81,0.1,1.17,0.29l-0.24,0.64c-0.38-0.18-0.7-0.27-0.96-0.27c-0.39,0-0.59,0.13-0.59,0.38
			c0,0.13,0.05,0.23,0.15,0.32c0.1,0.09,0.33,0.21,0.67,0.36c0.29,0.13,0.5,0.24,0.63,0.35c0.13,0.11,0.23,0.23,0.29,0.37
			C19.84,29,19.87,29.17,19.87,29.36z"/>
		<path class="st5" d="M22.05,29.88c0.18,0,0.37-0.03,0.55-0.1v0.64c-0.08,0.04-0.19,0.08-0.32,0.1c-0.13,0.03-0.27,0.04-0.41,0.04
			c-0.71,0-1.06-0.42-1.06-1.27v-2.15h-0.48v-0.37l0.52-0.31l0.25-0.84h0.46v0.89h1v0.64h-1v2.13c0,0.2,0.05,0.36,0.14,0.45
			C21.79,29.83,21.9,29.88,22.05,29.88z"/>
		<path class="st5" d="M26.48,28.5c0,0.65-0.15,1.16-0.44,1.52c-0.29,0.37-0.71,0.55-1.23,0.55c-0.33,0-0.62-0.08-0.87-0.25
			s-0.45-0.41-0.58-0.72s-0.2-0.68-0.2-1.09c0-0.65,0.15-1.15,0.44-1.51c0.29-0.36,0.71-0.54,1.24-0.54c0.51,0,0.91,0.19,1.21,0.56
			C26.33,27.37,26.48,27.87,26.48,28.5z M23.92,28.5c0,0.92,0.3,1.38,0.9,1.38c0.59,0,0.89-0.46,0.89-1.38c0-0.91-0.3-1.36-0.9-1.36
			c-0.31,0-0.54,0.12-0.68,0.35C23.99,27.72,23.92,28.06,23.92,28.5z"/>
		<path class="st5" d="M30.37,30.49h-0.75v-2.46c0-0.3-0.05-0.53-0.15-0.68c-0.1-0.15-0.26-0.23-0.48-0.23
			c-0.29,0-0.5,0.11-0.64,0.32c-0.13,0.21-0.2,0.57-0.2,1.06v1.98H27.4v-3.98h0.59l0.1,0.52h0.04c0.1-0.19,0.24-0.34,0.42-0.44
			c0.19-0.1,0.39-0.16,0.61-0.16c0.54,0,0.9,0.21,1.08,0.63h0.05c0.1-0.2,0.25-0.35,0.44-0.46s0.41-0.17,0.65-0.17
			c0.42,0,0.73,0.12,0.92,0.36c0.19,0.24,0.29,0.61,0.29,1.1v2.6h-0.75v-2.46c0-0.3-0.05-0.53-0.15-0.68
			c-0.1-0.15-0.26-0.23-0.48-0.23c-0.29,0-0.5,0.1-0.64,0.31s-0.2,0.52-0.2,0.95V30.49z"/>
		<path class="st5" d="M35.23,30.57c-0.55,0-0.98-0.18-1.28-0.54c-0.31-0.36-0.46-0.86-0.46-1.49c0-0.65,0.14-1.16,0.43-1.53
			s0.68-0.56,1.18-0.56c0.46,0,0.83,0.16,1.1,0.48s0.4,0.76,0.4,1.32v0.46h-2.35c0.01,0.39,0.1,0.68,0.28,0.89
			c0.17,0.21,0.42,0.31,0.74,0.31c0.21,0,0.4-0.02,0.58-0.07c0.18-0.04,0.37-0.12,0.58-0.22v0.69c-0.18,0.1-0.37,0.17-0.55,0.21
			C35.68,30.55,35.47,30.57,35.23,30.57z M35.09,27.08c-0.24,0-0.43,0.08-0.57,0.25c-0.14,0.17-0.23,0.42-0.26,0.75h1.6
			c0-0.33-0.07-0.58-0.21-0.75C35.52,27.17,35.33,27.08,35.09,27.08z"/>
		<path class="st5" d="M39.29,26.44c0.15,0,0.27,0.01,0.37,0.04l-0.07,0.79c-0.11-0.03-0.22-0.04-0.33-0.04
			c-0.3,0-0.54,0.11-0.73,0.33c-0.19,0.22-0.28,0.51-0.28,0.86v2.08h-0.75v-3.98h0.59l0.1,0.7h0.04c0.12-0.24,0.27-0.43,0.46-0.57
			C38.87,26.51,39.08,26.44,39.29,26.44z"/>
		<path class="st5" d="M44.89,29.07c0,0.47-0.15,0.83-0.45,1.1c-0.3,0.27-0.71,0.4-1.24,0.4s-0.96-0.09-1.29-0.28v-0.81
			c0.21,0.11,0.44,0.2,0.68,0.27c0.24,0.06,0.46,0.1,0.67,0.1c0.3,0,0.52-0.06,0.67-0.19c0.14-0.13,0.21-0.3,0.21-0.52
			c0-0.2-0.07-0.36-0.2-0.5c-0.13-0.14-0.4-0.3-0.81-0.49c-0.42-0.19-0.72-0.42-0.9-0.67c-0.17-0.25-0.26-0.55-0.26-0.9
			c0-0.44,0.14-0.78,0.41-1.04s0.65-0.38,1.11-0.38c0.45,0,0.89,0.11,1.33,0.33l-0.24,0.7c-0.41-0.2-0.78-0.29-1.11-0.29
			c-0.25,0-0.43,0.06-0.56,0.18s-0.19,0.28-0.19,0.48c0,0.14,0.03,0.25,0.08,0.35c0.05,0.1,0.13,0.19,0.25,0.28
			c0.12,0.09,0.33,0.2,0.63,0.34c0.34,0.16,0.59,0.31,0.75,0.45c0.16,0.14,0.28,0.3,0.35,0.47C44.86,28.62,44.89,28.83,44.89,29.07z
			"/>
		<path class="st5" d="M47.31,30.57c-0.55,0-0.98-0.18-1.28-0.54c-0.31-0.36-0.46-0.86-0.46-1.49c0-0.65,0.14-1.16,0.43-1.53
			s0.68-0.56,1.18-0.56c0.46,0,0.83,0.16,1.1,0.48s0.4,0.76,0.4,1.32v0.46h-2.35c0.01,0.39,0.1,0.68,0.28,0.89
			c0.17,0.21,0.42,0.31,0.74,0.31c0.21,0,0.4-0.02,0.58-0.07c0.18-0.04,0.37-0.12,0.58-0.22v0.69c-0.18,0.1-0.37,0.17-0.55,0.21
			C47.76,30.55,47.55,30.57,47.31,30.57z M47.17,27.08c-0.24,0-0.43,0.08-0.57,0.25c-0.14,0.17-0.23,0.42-0.26,0.75h1.6
			c0-0.33-0.07-0.58-0.21-0.75C47.6,27.17,47.41,27.08,47.17,27.08z"/>
		<path class="st5" d="M51.37,26.44c0.15,0,0.27,0.01,0.37,0.04l-0.07,0.79c-0.11-0.03-0.22-0.04-0.33-0.04
			c-0.3,0-0.54,0.11-0.73,0.33c-0.19,0.22-0.28,0.51-0.28,0.86v2.08h-0.75v-3.98h0.59l0.1,0.7h0.04c0.12-0.24,0.27-0.43,0.46-0.57
			C50.95,26.51,51.16,26.44,51.37,26.44z"/>
		<path class="st5" d="M53.26,30.49l-1.34-3.98h0.79l0.72,2.31c0.12,0.39,0.2,0.7,0.22,0.94h0.03c0.02-0.17,0.09-0.49,0.22-0.94
			l0.72-2.31h0.8l-1.34,3.98H53.26z"/>
		<path class="st5" d="M55.96,25.46c0-0.15,0.04-0.27,0.11-0.35c0.07-0.08,0.18-0.12,0.31-0.12c0.13,0,0.23,0.04,0.31,0.12
			c0.07,0.08,0.11,0.2,0.11,0.35c0,0.14-0.04,0.26-0.11,0.34c-0.07,0.08-0.18,0.13-0.31,0.13c-0.14,0-0.24-0.04-0.31-0.13
			C56,25.72,55.96,25.6,55.96,25.46z M56.75,30.49H56v-3.98h0.75V30.49z"/>
		<path class="st5" d="M59.3,30.57c-0.53,0-0.94-0.18-1.21-0.53s-0.42-0.86-0.42-1.51c0-0.67,0.15-1.18,0.43-1.54
			c0.29-0.36,0.71-0.54,1.26-0.54c0.37,0,0.71,0.08,1,0.23l-0.23,0.68c-0.32-0.14-0.58-0.21-0.78-0.21c-0.61,0-0.91,0.46-0.91,1.37
			c0,0.45,0.08,0.78,0.23,1.01c0.15,0.22,0.37,0.34,0.67,0.34c0.33,0,0.65-0.09,0.95-0.28v0.74c-0.13,0.09-0.28,0.15-0.43,0.19
			C59.7,30.55,59.52,30.57,59.3,30.57z"/>
		<path class="st5" d="M62.7,30.57c-0.55,0-0.98-0.18-1.28-0.54c-0.31-0.36-0.46-0.86-0.46-1.49c0-0.65,0.14-1.16,0.43-1.53
			s0.68-0.56,1.18-0.56c0.46,0,0.83,0.16,1.1,0.48s0.4,0.76,0.4,1.32v0.46h-2.35c0.01,0.39,0.1,0.68,0.28,0.89
			c0.17,0.21,0.42,0.31,0.74,0.31c0.21,0,0.4-0.02,0.58-0.07c0.18-0.04,0.37-0.12,0.58-0.22v0.69c-0.18,0.1-0.37,0.17-0.55,0.21
			C63.16,30.55,62.94,30.57,62.7,30.57z M62.57,27.08c-0.24,0-0.43,0.08-0.57,0.25c-0.14,0.17-0.23,0.42-0.26,0.75h1.6
			c0-0.33-0.07-0.58-0.21-0.75C62.99,27.17,62.8,27.08,62.57,27.08z"/>
		<path class="st5" d="M69.9,26.82c0,0.55-0.16,0.97-0.48,1.26s-0.77,0.44-1.36,0.44h-0.48v1.97h-0.76v-5.26h1.34
			c0.58,0,1.02,0.13,1.31,0.4S69.9,26.3,69.9,26.82z M67.57,27.8h0.4c0.39,0,0.68-0.08,0.86-0.23c0.18-0.15,0.27-0.39,0.27-0.72
			c0-0.3-0.08-0.53-0.25-0.68c-0.16-0.15-0.42-0.22-0.76-0.22h-0.53V27.8z"/>
		<path class="st5" d="M72.59,26.44c0.15,0,0.27,0.01,0.37,0.04l-0.07,0.79c-0.11-0.03-0.22-0.04-0.33-0.04
			c-0.3,0-0.54,0.11-0.73,0.33c-0.19,0.22-0.28,0.51-0.28,0.86v2.08H70.8v-3.98h0.59l0.1,0.7h0.04c0.12-0.24,0.27-0.43,0.46-0.57
			C72.17,26.51,72.37,26.44,72.59,26.44z"/>
		<path class="st5" d="M76.8,28.5c0,0.65-0.15,1.16-0.44,1.52c-0.29,0.37-0.71,0.55-1.23,0.55c-0.33,0-0.62-0.08-0.87-0.25
			s-0.45-0.41-0.58-0.72s-0.2-0.68-0.2-1.09c0-0.65,0.15-1.15,0.44-1.51c0.29-0.36,0.71-0.54,1.24-0.54c0.51,0,0.91,0.19,1.21,0.56
			C76.65,27.37,76.8,27.87,76.8,28.5z M74.23,28.5c0,0.92,0.3,1.38,0.9,1.38c0.59,0,0.89-0.46,0.89-1.38c0-0.91-0.3-1.36-0.9-1.36
			c-0.31,0-0.54,0.12-0.68,0.35C74.3,27.72,74.23,28.06,74.23,28.5z"/>
		<path class="st5" d="M80.69,26.51v0.46l-0.6,0.13c0.06,0.08,0.1,0.19,0.14,0.31c0.04,0.12,0.05,0.25,0.05,0.39
			c0,0.41-0.13,0.73-0.38,0.97c-0.25,0.24-0.6,0.35-1.03,0.35c-0.11,0-0.21-0.01-0.31-0.03c-0.16,0.11-0.24,0.25-0.24,0.4
			c0,0.09,0.04,0.16,0.11,0.21c0.08,0.04,0.21,0.07,0.42,0.07h0.61c0.39,0,0.68,0.09,0.89,0.28c0.2,0.19,0.3,0.46,0.3,0.81
			c0,0.45-0.16,0.8-0.49,1.04c-0.33,0.24-0.8,0.37-1.43,0.37c-0.48,0-0.85-0.1-1.1-0.29c-0.25-0.19-0.38-0.47-0.38-0.82
			c0-0.24,0.07-0.45,0.21-0.62c0.14-0.17,0.33-0.28,0.57-0.35c-0.1-0.05-0.18-0.13-0.25-0.23c-0.06-0.11-0.1-0.22-0.1-0.34
			c0-0.15,0.04-0.27,0.11-0.38s0.18-0.21,0.33-0.31c-0.18-0.09-0.33-0.23-0.44-0.43c-0.11-0.2-0.17-0.43-0.17-0.7
			c0-0.43,0.12-0.77,0.36-1c0.24-0.24,0.58-0.36,1.03-0.36c0.1,0,0.2,0.01,0.31,0.02s0.19,0.03,0.25,0.05H80.69z M77.92,31.11
			c0,0.18,0.07,0.32,0.22,0.42c0.15,0.1,0.35,0.15,0.61,0.15c0.41,0,0.71-0.07,0.91-0.2s0.3-0.31,0.3-0.53
			c0-0.17-0.05-0.3-0.16-0.37s-0.31-0.11-0.61-0.11h-0.57c-0.21,0-0.38,0.06-0.51,0.17C77.98,30.76,77.92,30.92,77.92,31.11z
			 M78.24,27.8c0,0.25,0.06,0.44,0.17,0.58c0.11,0.13,0.28,0.2,0.49,0.2c0.43,0,0.65-0.26,0.65-0.79c0-0.26-0.05-0.46-0.16-0.6
			c-0.11-0.14-0.27-0.21-0.49-0.21c-0.22,0-0.38,0.07-0.49,0.21C78.3,27.33,78.24,27.54,78.24,27.8z"/>
		<path class="st5" d="M83.18,26.44c0.15,0,0.27,0.01,0.37,0.04l-0.07,0.79c-0.11-0.03-0.22-0.04-0.33-0.04
			c-0.3,0-0.54,0.11-0.73,0.33c-0.19,0.22-0.28,0.51-0.28,0.86v2.08H81.4v-3.98h0.59l0.1,0.7h0.04c0.12-0.24,0.27-0.43,0.46-0.57
			C82.77,26.51,82.97,26.44,83.18,26.44z"/>
		<path class="st5" d="M86.47,30.49l-0.15-0.55H86.3c-0.17,0.24-0.34,0.41-0.51,0.5c-0.17,0.09-0.39,0.13-0.66,0.13
			c-0.35,0-0.62-0.11-0.81-0.32c-0.19-0.21-0.29-0.51-0.29-0.9c0-0.41,0.13-0.72,0.4-0.93c0.27-0.21,0.68-0.32,1.23-0.34l0.61-0.02
			v-0.21c0-0.25-0.05-0.45-0.16-0.57s-0.27-0.19-0.49-0.19c-0.18,0-0.35,0.03-0.52,0.09c-0.17,0.06-0.32,0.13-0.48,0.21l-0.24-0.61
			c0.19-0.11,0.4-0.2,0.63-0.26s0.44-0.09,0.64-0.09c0.45,0,0.79,0.11,1.01,0.33c0.23,0.22,0.34,0.57,0.34,1.04v2.68H86.47z
			 M85.36,29.92c0.27,0,0.49-0.09,0.65-0.26c0.16-0.17,0.25-0.41,0.25-0.72v-0.35l-0.45,0.02c-0.35,0.01-0.61,0.08-0.77,0.2
			c-0.16,0.12-0.24,0.3-0.24,0.55c0,0.18,0.05,0.31,0.14,0.41C85.03,29.87,85.17,29.92,85.36,29.92z"/>
		<path class="st5" d="M91.07,30.49h-0.75v-2.46c0-0.3-0.05-0.53-0.15-0.68c-0.1-0.15-0.26-0.23-0.48-0.23
			c-0.29,0-0.5,0.11-0.64,0.32c-0.13,0.21-0.2,0.57-0.2,1.06v1.98h-0.75v-3.98h0.59l0.1,0.52h0.04c0.1-0.19,0.24-0.34,0.42-0.44
			c0.19-0.1,0.39-0.16,0.61-0.16c0.54,0,0.9,0.21,1.08,0.63H91c0.1-0.2,0.25-0.35,0.44-0.46s0.41-0.17,0.65-0.17
			c0.42,0,0.73,0.12,0.92,0.36c0.19,0.24,0.29,0.61,0.29,1.1v2.6h-0.75v-2.46c0-0.3-0.05-0.53-0.15-0.68
			c-0.1-0.15-0.26-0.23-0.48-0.23c-0.29,0-0.5,0.1-0.64,0.31s-0.2,0.52-0.2,0.95V30.49z"/>
	</g>
	<g>
		<path class="st5" d="M4.46,36.65c0-0.33,0.07-0.58,0.21-0.76s0.34-0.26,0.6-0.26c0.26,0,0.46,0.09,0.6,0.26
			c0.14,0.17,0.21,0.42,0.21,0.75c0,0.32-0.07,0.57-0.21,0.75s-0.34,0.27-0.6,0.27c-0.25,0-0.45-0.09-0.6-0.26
			S4.46,36.98,4.46,36.65z"/>
	</g>
	<g>
		<path class="st5" d="M11.83,39.34H9.2v-5.26h2.63v0.73H9.96v1.43h1.75v0.72H9.96v1.65h1.87V39.34z"/>
		<path class="st5" d="M14,39.41c-0.44,0-0.78-0.18-1.03-0.54c-0.25-0.36-0.37-0.87-0.37-1.52c0-0.65,0.12-1.16,0.37-1.52
			s0.59-0.55,1.04-0.55c0.46,0,0.81,0.19,1.06,0.58h0.04c-0.04-0.29-0.05-0.51-0.05-0.68v-1.45h0.75v5.6h-0.59l-0.13-0.52h-0.04
			C14.82,39.21,14.47,39.41,14,39.41z M14.2,38.73c0.31,0,0.53-0.1,0.67-0.29s0.21-0.51,0.22-0.95v-0.12c0-0.5-0.07-0.86-0.22-1.07
			c-0.14-0.21-0.37-0.32-0.68-0.32c-0.26,0-0.47,0.12-0.61,0.36c-0.14,0.24-0.21,0.58-0.21,1.03c0,0.44,0.07,0.78,0.21,1.01
			C13.72,38.61,13.93,38.73,14.2,38.73z"/>
		<path class="st5" d="M19.42,39.34l-0.1-0.52h-0.04c-0.1,0.18-0.25,0.33-0.44,0.44c-0.19,0.11-0.41,0.16-0.66,0.16
			c-0.43,0-0.74-0.12-0.96-0.36c-0.21-0.24-0.31-0.6-0.31-1.09v-2.6h0.75v2.46c0,0.3,0.06,0.53,0.17,0.69s0.28,0.23,0.52,0.23
			c0.31,0,0.54-0.11,0.69-0.32c0.15-0.21,0.22-0.57,0.22-1.07v-1.98h0.75v3.98H19.42z"/>
		<path class="st5" d="M22.55,39.41c-0.53,0-0.94-0.18-1.21-0.53s-0.42-0.86-0.42-1.51c0-0.67,0.15-1.18,0.43-1.54
			c0.29-0.36,0.71-0.54,1.26-0.54c0.37,0,0.71,0.08,1,0.23l-0.23,0.68c-0.32-0.14-0.58-0.21-0.78-0.21c-0.61,0-0.91,0.46-0.91,1.37
			c0,0.45,0.08,0.78,0.23,1.01c0.15,0.22,0.37,0.34,0.67,0.34c0.33,0,0.65-0.09,0.95-0.28v0.74c-0.13,0.09-0.28,0.15-0.43,0.19
			C22.95,39.39,22.77,39.41,22.55,39.41z"/>
		<path class="st5" d="M26.62,39.34l-0.15-0.55h-0.03c-0.17,0.24-0.34,0.41-0.51,0.5c-0.17,0.09-0.39,0.13-0.66,0.13
			c-0.35,0-0.62-0.11-0.81-0.32c-0.19-0.21-0.29-0.51-0.29-0.9c0-0.41,0.13-0.72,0.4-0.93c0.27-0.21,0.68-0.32,1.23-0.34l0.61-0.02
			V36.7c0-0.25-0.05-0.45-0.16-0.57s-0.27-0.19-0.49-0.19c-0.18,0-0.35,0.03-0.52,0.09c-0.17,0.06-0.32,0.13-0.48,0.21l-0.24-0.61
			c0.19-0.11,0.4-0.2,0.63-0.26s0.44-0.09,0.64-0.09c0.45,0,0.79,0.11,1.01,0.33c0.23,0.22,0.34,0.57,0.34,1.04v2.68H26.62z
			 M25.51,38.76c0.27,0,0.49-0.09,0.65-0.26c0.16-0.17,0.25-0.41,0.25-0.72v-0.35l-0.45,0.02c-0.35,0.01-0.61,0.08-0.77,0.2
			c-0.16,0.12-0.24,0.3-0.24,0.55c0,0.18,0.05,0.31,0.14,0.41C25.18,38.72,25.32,38.76,25.51,38.76z"/>
		<path class="st5" d="M29.57,38.73c0.18,0,0.37-0.03,0.55-0.1v0.64c-0.08,0.04-0.19,0.08-0.32,0.1c-0.13,0.03-0.27,0.04-0.41,0.04
			c-0.71,0-1.06-0.42-1.06-1.27V36h-0.48v-0.37l0.52-0.31l0.25-0.84h0.46v0.89h1V36h-1v2.13c0,0.2,0.05,0.36,0.14,0.45
			C29.31,38.68,29.43,38.73,29.57,38.73z"/>
		<path class="st5" d="M30.84,34.3c0-0.15,0.04-0.27,0.11-0.35c0.07-0.08,0.18-0.12,0.31-0.12c0.13,0,0.23,0.04,0.31,0.12
			c0.07,0.08,0.11,0.2,0.11,0.35c0,0.14-0.04,0.26-0.11,0.34c-0.07,0.08-0.18,0.13-0.31,0.13c-0.14,0-0.24-0.04-0.31-0.13
			C30.87,34.56,30.84,34.45,30.84,34.3z M31.63,39.34h-0.75v-3.98h0.75V39.34z"/>
		<path class="st5" d="M35.88,37.34c0,0.65-0.15,1.16-0.44,1.52c-0.29,0.37-0.71,0.55-1.23,0.55c-0.33,0-0.62-0.08-0.87-0.25
			s-0.45-0.41-0.58-0.72s-0.2-0.68-0.2-1.09c0-0.65,0.15-1.15,0.44-1.51c0.29-0.36,0.71-0.54,1.24-0.54c0.51,0,0.91,0.19,1.21,0.56
			C35.73,36.21,35.88,36.71,35.88,37.34z M33.32,37.34c0,0.92,0.3,1.38,0.9,1.38c0.59,0,0.89-0.46,0.89-1.38
			c0-0.91-0.3-1.36-0.9-1.36c-0.31,0-0.54,0.12-0.68,0.35C33.39,36.57,33.32,36.9,33.32,37.34z"/>
		<path class="st5" d="M39.9,39.34h-0.75v-2.45c0-0.31-0.05-0.54-0.16-0.69c-0.11-0.15-0.28-0.23-0.52-0.23
			c-0.32,0-0.55,0.11-0.69,0.32c-0.15,0.21-0.22,0.56-0.22,1.06v1.98H36.8v-3.98h0.59l0.1,0.52h0.04c0.11-0.19,0.26-0.34,0.45-0.44
			s0.41-0.16,0.65-0.16c0.84,0,1.27,0.49,1.27,1.46V39.34z"/>
		<path class="st5" d="M45.91,35.67c0,0.55-0.16,0.97-0.48,1.26s-0.77,0.44-1.36,0.44h-0.48v1.97h-0.76v-5.26h1.34
			c0.58,0,1.02,0.13,1.31,0.4S45.91,35.15,45.91,35.67z M43.59,36.65h0.4c0.39,0,0.68-0.08,0.86-0.23c0.18-0.15,0.27-0.39,0.27-0.72
			c0-0.3-0.08-0.53-0.25-0.68c-0.16-0.15-0.42-0.22-0.76-0.22h-0.53V36.65z"/>
		<path class="st5" d="M48.6,35.29c0.15,0,0.27,0.01,0.37,0.04l-0.07,0.79c-0.11-0.03-0.22-0.04-0.33-0.04
			c-0.3,0-0.54,0.11-0.73,0.33c-0.19,0.22-0.28,0.51-0.28,0.86v2.08h-0.75v-3.98h0.59l0.1,0.7h0.04c0.12-0.24,0.27-0.43,0.46-0.57
			C48.18,35.36,48.39,35.29,48.6,35.29z"/>
		<path class="st5" d="M52.81,37.34c0,0.65-0.15,1.16-0.44,1.52c-0.29,0.37-0.71,0.55-1.23,0.55c-0.33,0-0.62-0.08-0.87-0.25
			s-0.45-0.41-0.58-0.72s-0.2-0.68-0.2-1.09c0-0.65,0.15-1.15,0.44-1.51c0.29-0.36,0.71-0.54,1.24-0.54c0.51,0,0.91,0.19,1.21,0.56
			C52.66,36.21,52.81,36.71,52.81,37.34z M50.25,37.34c0,0.92,0.3,1.38,0.9,1.38c0.59,0,0.89-0.46,0.89-1.38
			c0-0.91-0.3-1.36-0.9-1.36c-0.31,0-0.54,0.12-0.68,0.35C50.32,36.57,50.25,36.9,50.25,37.34z"/>
		<path class="st5" d="M56.7,35.36v0.46l-0.6,0.13c0.06,0.08,0.1,0.19,0.14,0.31c0.04,0.12,0.05,0.25,0.05,0.39
			c0,0.41-0.13,0.73-0.38,0.97c-0.25,0.24-0.6,0.35-1.03,0.35c-0.11,0-0.21-0.01-0.31-0.03c-0.16,0.11-0.24,0.25-0.24,0.4
			c0,0.09,0.04,0.16,0.11,0.21c0.08,0.04,0.21,0.07,0.42,0.07h0.61c0.39,0,0.68,0.09,0.89,0.28c0.2,0.19,0.3,0.46,0.3,0.81
			c0,0.45-0.16,0.8-0.49,1.04c-0.33,0.24-0.8,0.37-1.43,0.37c-0.48,0-0.85-0.1-1.1-0.29c-0.25-0.19-0.38-0.47-0.38-0.82
			c0-0.24,0.07-0.45,0.21-0.62c0.14-0.17,0.33-0.28,0.57-0.35c-0.1-0.05-0.18-0.13-0.25-0.23c-0.06-0.11-0.1-0.22-0.1-0.34
			c0-0.15,0.04-0.27,0.11-0.38s0.18-0.21,0.33-0.31c-0.18-0.09-0.33-0.23-0.44-0.43c-0.11-0.2-0.17-0.43-0.17-0.7
			c0-0.43,0.12-0.77,0.36-1c0.24-0.24,0.58-0.36,1.03-0.36c0.1,0,0.2,0.01,0.31,0.02s0.19,0.03,0.25,0.05H56.7z M53.94,39.96
			c0,0.18,0.07,0.32,0.22,0.42c0.15,0.1,0.35,0.15,0.61,0.15c0.41,0,0.71-0.07,0.91-0.2s0.3-0.31,0.3-0.53
			c0-0.17-0.05-0.3-0.16-0.37s-0.31-0.11-0.61-0.11h-0.57c-0.21,0-0.38,0.06-0.51,0.17C54,39.61,53.94,39.77,53.94,39.96z
			 M54.26,36.65c0,0.25,0.06,0.44,0.17,0.58c0.11,0.13,0.28,0.2,0.49,0.2c0.43,0,0.65-0.26,0.65-0.79c0-0.26-0.05-0.46-0.16-0.6
			c-0.11-0.14-0.27-0.21-0.49-0.21c-0.22,0-0.38,0.07-0.49,0.21C54.31,36.18,54.26,36.38,54.26,36.65z"/>
		<path class="st5" d="M59.2,35.29c0.15,0,0.27,0.01,0.37,0.04l-0.07,0.79c-0.11-0.03-0.22-0.04-0.33-0.04
			c-0.3,0-0.54,0.11-0.73,0.33c-0.19,0.22-0.28,0.51-0.28,0.86v2.08h-0.75v-3.98H58l0.1,0.7h0.04c0.12-0.24,0.27-0.43,0.46-0.57
			C58.78,35.36,58.98,35.29,59.2,35.29z"/>
		<path class="st5" d="M62.48,39.34l-0.15-0.55h-0.03c-0.17,0.24-0.34,0.41-0.51,0.5c-0.17,0.09-0.39,0.13-0.66,0.13
			c-0.35,0-0.62-0.11-0.81-0.32c-0.19-0.21-0.29-0.51-0.29-0.9c0-0.41,0.13-0.72,0.4-0.93c0.27-0.21,0.68-0.32,1.23-0.34l0.61-0.02
			V36.7c0-0.25-0.05-0.45-0.16-0.57s-0.27-0.19-0.49-0.19c-0.18,0-0.35,0.03-0.52,0.09c-0.17,0.06-0.32,0.13-0.48,0.21l-0.24-0.61
			c0.19-0.11,0.4-0.2,0.63-0.26s0.44-0.09,0.64-0.09c0.45,0,0.79,0.11,1.01,0.33c0.23,0.22,0.34,0.57,0.34,1.04v2.68H62.48z
			 M61.37,38.76c0.27,0,0.49-0.09,0.65-0.26c0.16-0.17,0.25-0.41,0.25-0.72v-0.35l-0.45,0.02c-0.35,0.01-0.61,0.08-0.77,0.2
			c-0.16,0.12-0.24,0.3-0.24,0.55c0,0.18,0.05,0.31,0.14,0.41C61.04,38.72,61.18,38.76,61.37,38.76z"/>
		<path class="st5" d="M67.09,39.34h-0.75v-2.46c0-0.3-0.05-0.53-0.15-0.68c-0.1-0.15-0.26-0.23-0.48-0.23
			c-0.29,0-0.5,0.11-0.64,0.32c-0.13,0.21-0.2,0.57-0.2,1.06v1.98h-0.75v-3.98h0.59l0.1,0.52h0.04c0.1-0.19,0.24-0.34,0.42-0.44
			c0.19-0.1,0.39-0.16,0.61-0.16c0.54,0,0.9,0.21,1.08,0.63h0.05c0.1-0.2,0.25-0.35,0.44-0.46s0.41-0.17,0.65-0.17
			c0.42,0,0.73,0.12,0.92,0.36c0.19,0.24,0.29,0.61,0.29,1.1v2.6h-0.75v-2.46c0-0.3-0.05-0.53-0.15-0.68
			c-0.1-0.15-0.26-0.23-0.48-0.23c-0.29,0-0.5,0.1-0.64,0.31s-0.2,0.52-0.2,0.95V39.34z"/>
		<path class="st5" d="M72.78,38.21c0,0.39-0.13,0.69-0.38,0.89c-0.25,0.21-0.61,0.31-1.08,0.31c-0.47,0-0.85-0.08-1.13-0.24v-0.73
			c0.41,0.22,0.8,0.32,1.16,0.32c0.46,0,0.69-0.16,0.69-0.47c0-0.1-0.03-0.18-0.08-0.25c-0.05-0.07-0.13-0.14-0.25-0.21
			c-0.12-0.07-0.28-0.15-0.49-0.25c-0.41-0.18-0.68-0.36-0.82-0.53s-0.21-0.41-0.21-0.69c0-0.34,0.12-0.61,0.36-0.79
			c0.24-0.19,0.57-0.28,0.99-0.28c0.41,0,0.81,0.1,1.17,0.29l-0.24,0.64c-0.38-0.18-0.7-0.27-0.96-0.27c-0.39,0-0.59,0.13-0.59,0.38
			c0,0.13,0.05,0.23,0.15,0.32c0.1,0.09,0.33,0.21,0.67,0.36c0.29,0.13,0.5,0.24,0.63,0.35c0.13,0.11,0.23,0.23,0.29,0.37
			C72.75,37.85,72.78,38.01,72.78,38.21z"/>
	</g>
	<g>
		<path class="st5" d="M4.46,45.5c0-0.33,0.07-0.58,0.21-0.76s0.34-0.26,0.6-0.26c0.26,0,0.46,0.09,0.6,0.26
			C6,44.91,6.07,45.17,6.07,45.5c0,0.32-0.07,0.57-0.21,0.75s-0.34,0.27-0.6,0.27c-0.25,0-0.45-0.09-0.6-0.26S4.46,45.83,4.46,45.5z
			"/>
		<path class="st5" d="M12.59,48.19h-0.76v-2.37H9.68v2.37H8.92v-5.26h0.76v2.15h2.15v-2.15h0.76V48.19z"/>
		<path class="st5" d="M15.33,48.26c-0.55,0-0.98-0.18-1.28-0.54c-0.31-0.36-0.46-0.86-0.46-1.49c0-0.65,0.14-1.16,0.43-1.53
			s0.68-0.56,1.18-0.56c0.46,0,0.83,0.16,1.1,0.48s0.4,0.76,0.4,1.32v0.46h-2.35c0.01,0.39,0.1,0.68,0.28,0.89
			c0.17,0.21,0.42,0.31,0.74,0.31c0.21,0,0.4-0.02,0.58-0.07c0.18-0.04,0.37-0.12,0.58-0.22v0.69c-0.18,0.1-0.37,0.17-0.55,0.21
			C15.78,48.24,15.57,48.26,15.33,48.26z M15.19,44.78c-0.24,0-0.43,0.08-0.57,0.25c-0.14,0.17-0.23,0.42-0.26,0.75h1.6
			c0-0.33-0.07-0.58-0.21-0.75C15.62,44.86,15.43,44.78,15.19,44.78z"/>
		<path class="st5" d="M19.81,48.19l-0.15-0.55h-0.03c-0.17,0.24-0.34,0.41-0.51,0.5c-0.17,0.09-0.39,0.13-0.66,0.13
			c-0.35,0-0.62-0.11-0.81-0.32c-0.19-0.21-0.29-0.51-0.29-0.9c0-0.41,0.13-0.72,0.4-0.93c0.27-0.21,0.68-0.32,1.23-0.34l0.61-0.02
			v-0.21c0-0.25-0.05-0.45-0.16-0.57s-0.27-0.19-0.49-0.19c-0.18,0-0.35,0.03-0.52,0.09c-0.17,0.06-0.32,0.13-0.48,0.21l-0.24-0.61
			c0.19-0.11,0.4-0.2,0.63-0.26s0.44-0.09,0.64-0.09c0.45,0,0.79,0.11,1.01,0.33c0.23,0.22,0.34,0.57,0.34,1.04v2.68H19.81z
			 M18.69,47.61c0.27,0,0.49-0.09,0.65-0.26c0.16-0.17,0.25-0.41,0.25-0.72v-0.35l-0.45,0.02c-0.35,0.01-0.61,0.08-0.77,0.2
			c-0.16,0.12-0.24,0.3-0.24,0.55c0,0.18,0.05,0.31,0.14,0.41C18.37,47.56,18.51,47.61,18.69,47.61z"/>
		<path class="st5" d="M22.19,48.19h-0.75v-5.6h0.75V48.19z"/>
		<path class="st5" d="M24.63,47.58c0.18,0,0.37-0.03,0.55-0.1v0.64c-0.08,0.04-0.19,0.08-0.32,0.1c-0.13,0.03-0.27,0.04-0.41,0.04
			c-0.71,0-1.06-0.42-1.06-1.27v-2.15h-0.48v-0.37l0.52-0.31l0.25-0.84h0.46v0.89h1v0.64h-1v2.13c0,0.2,0.05,0.36,0.14,0.45
			C24.37,47.53,24.49,47.58,24.63,47.58z"/>
		<path class="st5" d="M29.04,48.19h-0.75v-2.45c0-0.31-0.05-0.54-0.16-0.69c-0.11-0.15-0.28-0.23-0.52-0.23
			c-0.31,0-0.54,0.11-0.69,0.32c-0.15,0.21-0.22,0.57-0.22,1.07v1.98h-0.75v-5.6h0.75v1.42c0,0.23-0.01,0.47-0.04,0.73h0.05
			c0.1-0.19,0.24-0.34,0.42-0.45c0.18-0.11,0.39-0.16,0.64-0.16c0.85,0,1.28,0.49,1.28,1.46V48.19z"/>
		<path class="st5" d="M35.05,44.52c0,0.55-0.16,0.97-0.48,1.26s-0.77,0.44-1.36,0.44h-0.48v1.97h-0.76v-5.26h1.34
			c0.58,0,1.02,0.13,1.31,0.4S35.05,43.99,35.05,44.52z M32.73,45.5h0.4c0.39,0,0.68-0.08,0.86-0.23c0.18-0.15,0.27-0.39,0.27-0.72
			c0-0.3-0.08-0.53-0.25-0.68c-0.16-0.15-0.42-0.22-0.76-0.22h-0.53V45.5z"/>
		<path class="st5" d="M37.75,44.13c0.15,0,0.27,0.01,0.37,0.04l-0.07,0.79c-0.11-0.03-0.22-0.04-0.33-0.04
			c-0.3,0-0.54,0.11-0.73,0.33c-0.19,0.22-0.28,0.51-0.28,0.86v2.08h-0.75v-3.98h0.59l0.1,0.7h0.04c0.12-0.24,0.27-0.43,0.46-0.57
			C37.33,44.2,37.53,44.13,37.75,44.13z"/>
		<path class="st5" d="M41.95,46.19c0,0.65-0.15,1.16-0.44,1.52c-0.29,0.37-0.71,0.55-1.23,0.55c-0.33,0-0.62-0.08-0.87-0.25
			s-0.45-0.41-0.58-0.72s-0.2-0.68-0.2-1.09c0-0.65,0.15-1.15,0.44-1.51c0.29-0.36,0.71-0.54,1.24-0.54c0.51,0,0.91,0.19,1.21,0.56
			C41.81,45.06,41.95,45.56,41.95,46.19z M39.39,46.19c0,0.92,0.3,1.38,0.9,1.38c0.59,0,0.89-0.46,0.89-1.38
			c0-0.91-0.3-1.36-0.9-1.36c-0.31,0-0.54,0.12-0.68,0.35C39.46,45.41,39.39,45.75,39.39,46.19z"/>
		<path class="st5" d="M45.85,44.21v0.46l-0.6,0.13c0.06,0.08,0.1,0.19,0.14,0.31c0.04,0.12,0.05,0.25,0.05,0.39
			c0,0.41-0.13,0.73-0.38,0.97c-0.25,0.24-0.6,0.35-1.03,0.35c-0.11,0-0.21-0.01-0.31-0.03c-0.16,0.11-0.24,0.25-0.24,0.4
			c0,0.09,0.04,0.16,0.11,0.21c0.08,0.04,0.21,0.07,0.42,0.07h0.61c0.39,0,0.68,0.09,0.89,0.28c0.2,0.19,0.3,0.46,0.3,0.81
			c0,0.45-0.16,0.8-0.49,1.04c-0.33,0.24-0.8,0.37-1.43,0.37c-0.48,0-0.85-0.1-1.1-0.29c-0.25-0.19-0.38-0.47-0.38-0.82
			c0-0.24,0.07-0.45,0.21-0.62c0.14-0.17,0.33-0.28,0.57-0.35c-0.1-0.05-0.18-0.13-0.25-0.23c-0.06-0.11-0.1-0.22-0.1-0.34
			c0-0.15,0.04-0.27,0.11-0.38s0.18-0.21,0.33-0.31c-0.18-0.09-0.33-0.23-0.44-0.43c-0.11-0.2-0.17-0.43-0.17-0.7
			c0-0.43,0.12-0.77,0.36-1c0.24-0.24,0.58-0.36,1.03-0.36c0.1,0,0.2,0.01,0.31,0.02s0.19,0.03,0.25,0.05H45.85z M43.08,48.81
			c0,0.18,0.07,0.32,0.22,0.42c0.15,0.1,0.35,0.15,0.61,0.15c0.41,0,0.71-0.07,0.91-0.2s0.3-0.31,0.3-0.53
			c0-0.17-0.05-0.3-0.16-0.37s-0.31-0.11-0.61-0.11h-0.57c-0.21,0-0.38,0.06-0.51,0.17C43.14,48.46,43.08,48.61,43.08,48.81z
			 M43.4,45.5c0,0.25,0.06,0.44,0.17,0.58c0.11,0.13,0.28,0.2,0.49,0.2c0.43,0,0.65-0.26,0.65-0.79c0-0.26-0.05-0.46-0.16-0.6
			c-0.11-0.14-0.27-0.21-0.49-0.21c-0.22,0-0.38,0.07-0.49,0.21C43.46,45.03,43.4,45.23,43.4,45.5z"/>
		<path class="st5" d="M48.34,44.13c0.15,0,0.27,0.01,0.37,0.04l-0.07,0.79c-0.11-0.03-0.22-0.04-0.33-0.04
			c-0.3,0-0.54,0.11-0.73,0.33c-0.19,0.22-0.28,0.51-0.28,0.86v2.08h-0.75v-3.98h0.59l0.1,0.7h0.04c0.12-0.24,0.27-0.43,0.46-0.57
			C47.92,44.2,48.13,44.13,48.34,44.13z"/>
		<path class="st5" d="M51.63,48.19l-0.15-0.55h-0.03c-0.17,0.24-0.34,0.41-0.51,0.5c-0.17,0.09-0.39,0.13-0.66,0.13
			c-0.35,0-0.62-0.11-0.81-0.32c-0.19-0.21-0.29-0.51-0.29-0.9c0-0.41,0.13-0.72,0.4-0.93c0.27-0.21,0.68-0.32,1.23-0.34l0.61-0.02
			v-0.21c0-0.25-0.05-0.45-0.16-0.57s-0.27-0.19-0.49-0.19c-0.18,0-0.35,0.03-0.52,0.09c-0.17,0.06-0.32,0.13-0.48,0.21l-0.24-0.61
			c0.19-0.11,0.4-0.2,0.63-0.26s0.44-0.09,0.64-0.09c0.45,0,0.79,0.11,1.01,0.33c0.23,0.22,0.34,0.57,0.34,1.04v2.68H51.63z
			 M50.52,47.61c0.27,0,0.49-0.09,0.65-0.26c0.16-0.17,0.25-0.41,0.25-0.72v-0.35l-0.45,0.02c-0.35,0.01-0.61,0.08-0.77,0.2
			c-0.16,0.12-0.24,0.3-0.24,0.55c0,0.18,0.05,0.31,0.14,0.41C50.19,47.56,50.33,47.61,50.52,47.61z"/>
		<path class="st5" d="M56.23,48.19h-0.75v-2.46c0-0.3-0.05-0.53-0.15-0.68c-0.1-0.15-0.26-0.23-0.48-0.23
			c-0.29,0-0.5,0.11-0.64,0.32c-0.13,0.21-0.2,0.57-0.2,1.06v1.98h-0.75v-3.98h0.59l0.1,0.52H54c0.1-0.19,0.24-0.34,0.42-0.44
			c0.19-0.1,0.39-0.16,0.61-0.16c0.54,0,0.9,0.21,1.08,0.63h0.05c0.1-0.2,0.25-0.35,0.44-0.46s0.41-0.17,0.65-0.17
			c0.42,0,0.73,0.12,0.92,0.36c0.19,0.24,0.29,0.61,0.29,1.1v2.6h-0.75v-2.46c0-0.3-0.05-0.53-0.15-0.68
			c-0.1-0.15-0.26-0.23-0.48-0.23c-0.29,0-0.5,0.1-0.64,0.31s-0.2,0.52-0.2,0.95V48.19z"/>
		<path class="st5" d="M61.92,47.05c0,0.39-0.13,0.69-0.38,0.89c-0.25,0.21-0.61,0.31-1.08,0.31c-0.47,0-0.85-0.08-1.13-0.24v-0.73
			c0.41,0.22,0.8,0.32,1.16,0.32c0.46,0,0.69-0.16,0.69-0.47c0-0.1-0.03-0.18-0.08-0.25c-0.05-0.07-0.13-0.14-0.25-0.21
			c-0.12-0.07-0.28-0.15-0.49-0.25c-0.41-0.18-0.68-0.36-0.82-0.53s-0.21-0.41-0.21-0.69c0-0.34,0.12-0.61,0.36-0.79
			c0.24-0.19,0.57-0.28,0.99-0.28c0.41,0,0.81,0.1,1.17,0.29l-0.24,0.64c-0.38-0.18-0.7-0.27-0.96-0.27c-0.39,0-0.59,0.13-0.59,0.38
			c0,0.13,0.05,0.23,0.15,0.32c0.1,0.09,0.33,0.21,0.67,0.36c0.29,0.13,0.5,0.24,0.63,0.35c0.13,0.11,0.23,0.23,0.29,0.37
			C61.89,46.7,61.92,46.86,61.92,47.05z"/>
	</g>
	<g>
		<path class="st5" d="M4.46,54.34c0-0.33,0.07-0.58,0.21-0.76s0.34-0.26,0.6-0.26c0.26,0,0.46,0.09,0.6,0.26
			c0.14,0.17,0.21,0.42,0.21,0.75c0,0.32-0.07,0.57-0.21,0.75s-0.34,0.27-0.6,0.27c-0.25,0-0.45-0.09-0.6-0.26
			S4.46,54.67,4.46,54.34z"/>
		<path class="st5" d="M11.6,55.61c0,0.47-0.15,0.83-0.45,1.1c-0.3,0.27-0.71,0.4-1.24,0.4s-0.96-0.09-1.29-0.28v-0.81
			c0.21,0.11,0.44,0.2,0.68,0.27c0.24,0.06,0.46,0.1,0.67,0.1c0.3,0,0.52-0.06,0.67-0.19c0.14-0.13,0.21-0.3,0.21-0.52
			c0-0.2-0.07-0.36-0.2-0.5c-0.13-0.14-0.4-0.3-0.81-0.49c-0.42-0.19-0.72-0.42-0.9-0.67c-0.17-0.25-0.26-0.55-0.26-0.9
			c0-0.44,0.14-0.78,0.41-1.04s0.65-0.38,1.11-0.38c0.45,0,0.89,0.11,1.33,0.33l-0.24,0.7c-0.41-0.2-0.78-0.29-1.11-0.29
			c-0.25,0-0.43,0.06-0.56,0.18S9.43,52.9,9.43,53.1c0,0.14,0.03,0.25,0.08,0.35c0.05,0.1,0.13,0.19,0.25,0.28
			c0.12,0.09,0.33,0.2,0.63,0.34c0.34,0.16,0.59,0.31,0.75,0.45c0.16,0.14,0.28,0.3,0.35,0.47C11.56,55.16,11.6,55.37,11.6,55.61z"
			/>
		<path class="st5" d="M14.57,57.03l-1.35-4.4H13.2c0.04,0.65,0.05,1.26,0.05,1.84v2.56h-0.69v-5.26h1.07l1.29,4.19h0.02l1.33-4.19
			h1.08v5.26h-0.73v-2.6c0-0.26,0.01-0.6,0.02-1.02s0.02-0.67,0.03-0.76h-0.03l-1.4,4.39H14.57z"/>
		<path class="st5" d="M22.37,52.43c-0.44,0-0.78,0.18-1.03,0.53c-0.25,0.35-0.38,0.83-0.38,1.45c0,0.65,0.12,1.13,0.36,1.46
			c0.24,0.33,0.59,0.5,1.05,0.5c0.2,0,0.39-0.02,0.57-0.07c0.18-0.04,0.38-0.1,0.58-0.17v0.74c-0.37,0.16-0.78,0.23-1.24,0.23
			c-0.68,0-1.2-0.23-1.57-0.7c-0.36-0.47-0.55-1.13-0.55-2c0-0.55,0.09-1.03,0.27-1.44c0.18-0.41,0.43-0.72,0.77-0.94
			c0.33-0.22,0.73-0.33,1.18-0.33c0.48,0,0.91,0.11,1.32,0.34l-0.27,0.72c-0.16-0.08-0.32-0.16-0.5-0.22
			C22.74,52.47,22.56,52.43,22.37,52.43z"/>
		<path class="st5" d="M26.7,57.03l-0.15-0.55h-0.03c-0.17,0.24-0.34,0.41-0.51,0.5c-0.17,0.09-0.39,0.13-0.66,0.13
			c-0.35,0-0.62-0.11-0.81-0.32c-0.19-0.21-0.29-0.51-0.29-0.9c0-0.41,0.13-0.72,0.4-0.93c0.27-0.21,0.68-0.32,1.23-0.34l0.61-0.02
			v-0.21c0-0.25-0.05-0.45-0.16-0.57s-0.27-0.19-0.49-0.19c-0.18,0-0.35,0.03-0.52,0.09c-0.17,0.06-0.32,0.13-0.48,0.21l-0.24-0.61
			c0.19-0.11,0.4-0.2,0.63-0.26s0.44-0.09,0.64-0.09c0.45,0,0.79,0.11,1.01,0.33c0.23,0.22,0.34,0.57,0.34,1.04v2.68H26.7z
			 M25.59,56.46c0.27,0,0.49-0.09,0.65-0.26c0.16-0.17,0.25-0.41,0.25-0.72v-0.35l-0.45,0.02c-0.35,0.01-0.61,0.08-0.77,0.2
			c-0.16,0.12-0.24,0.3-0.24,0.55c0,0.18,0.05,0.31,0.14,0.41C25.26,56.41,25.4,56.46,25.59,56.46z"/>
		<path class="st5" d="M30.12,52.98c0.15,0,0.27,0.01,0.37,0.04l-0.07,0.79c-0.11-0.03-0.22-0.04-0.33-0.04
			c-0.3,0-0.54,0.11-0.73,0.33c-0.19,0.22-0.28,0.51-0.28,0.86v2.08h-0.75v-3.98h0.59l0.1,0.7h0.04c0.12-0.24,0.27-0.43,0.46-0.57
			C29.7,53.05,29.91,52.98,30.12,52.98z"/>
		<path class="st5" d="M32.74,57.11c-0.55,0-0.98-0.18-1.28-0.54C31.15,56.2,31,55.71,31,55.07c0-0.65,0.14-1.16,0.43-1.53
			s0.68-0.56,1.18-0.56c0.46,0,0.83,0.16,1.1,0.48s0.4,0.76,0.4,1.32v0.46h-2.35c0.01,0.39,0.1,0.68,0.28,0.89
			c0.17,0.21,0.42,0.31,0.74,0.31c0.21,0,0.4-0.02,0.58-0.07c0.18-0.04,0.37-0.12,0.58-0.22v0.69c-0.18,0.1-0.37,0.17-0.55,0.21
			C33.2,57.09,32.98,57.11,32.74,57.11z M32.61,53.62c-0.24,0-0.43,0.08-0.57,0.25c-0.14,0.17-0.23,0.42-0.26,0.75h1.6
			c0-0.33-0.07-0.58-0.21-0.75C33.03,53.71,32.84,53.62,32.61,53.62z"/>
		<path class="st5" d="M37.39,55.9c0,0.39-0.13,0.69-0.38,0.89c-0.25,0.21-0.61,0.31-1.08,0.31c-0.47,0-0.85-0.08-1.13-0.24v-0.73
			c0.41,0.22,0.8,0.32,1.16,0.32c0.46,0,0.69-0.16,0.69-0.47c0-0.1-0.03-0.18-0.08-0.25c-0.05-0.07-0.13-0.14-0.25-0.21
			c-0.12-0.07-0.28-0.15-0.49-0.25c-0.41-0.18-0.68-0.36-0.82-0.53s-0.21-0.41-0.21-0.69c0-0.34,0.12-0.61,0.36-0.79
			c0.24-0.19,0.57-0.28,0.99-0.28c0.41,0,0.81,0.1,1.17,0.29l-0.24,0.64c-0.38-0.18-0.7-0.27-0.96-0.27c-0.39,0-0.59,0.13-0.59,0.38
			c0,0.13,0.05,0.23,0.15,0.32c0.1,0.09,0.33,0.21,0.67,0.36c0.29,0.13,0.5,0.24,0.63,0.35c0.13,0.11,0.23,0.23,0.29,0.37
			C37.36,55.54,37.39,55.71,37.39,55.9z"/>
		<path class="st5" d="M42.77,55.61c0,0.47-0.15,0.83-0.45,1.1c-0.3,0.27-0.71,0.4-1.24,0.4s-0.96-0.09-1.29-0.28v-0.81
			c0.21,0.11,0.44,0.2,0.68,0.27c0.24,0.06,0.46,0.1,0.67,0.1c0.3,0,0.52-0.06,0.67-0.19c0.14-0.13,0.21-0.3,0.21-0.52
			c0-0.2-0.07-0.36-0.2-0.5c-0.13-0.14-0.4-0.3-0.81-0.49c-0.42-0.19-0.72-0.42-0.9-0.67c-0.17-0.25-0.26-0.55-0.26-0.9
			c0-0.44,0.14-0.78,0.41-1.04s0.65-0.38,1.11-0.38c0.45,0,0.89,0.11,1.33,0.33l-0.24,0.7c-0.41-0.2-0.78-0.29-1.11-0.29
			c-0.25,0-0.43,0.06-0.56,0.18S40.6,52.9,40.6,53.1c0,0.14,0.03,0.25,0.08,0.35c0.05,0.1,0.13,0.19,0.25,0.28
			c0.12,0.09,0.33,0.2,0.63,0.34c0.34,0.16,0.59,0.31,0.75,0.45c0.16,0.14,0.28,0.3,0.35,0.47C42.73,55.16,42.77,55.37,42.77,55.61z
			"/>
		<path class="st5" d="M46.77,55.04c0,0.65-0.15,1.16-0.44,1.52c-0.29,0.37-0.71,0.55-1.23,0.55c-0.33,0-0.62-0.08-0.87-0.25
			s-0.45-0.41-0.58-0.72s-0.2-0.68-0.2-1.09c0-0.65,0.15-1.15,0.44-1.51c0.29-0.36,0.71-0.54,1.24-0.54c0.51,0,0.91,0.19,1.21,0.56
			C46.62,53.91,46.77,54.41,46.77,55.04z M44.21,55.04c0,0.92,0.3,1.38,0.9,1.38c0.59,0,0.89-0.46,0.89-1.38
			c0-0.91-0.3-1.36-0.9-1.36c-0.31,0-0.54,0.12-0.68,0.35C44.28,54.26,44.21,54.6,44.21,55.04z"/>
		<path class="st5" d="M49.11,57.11c-0.53,0-0.94-0.18-1.21-0.53s-0.42-0.86-0.42-1.51c0-0.67,0.15-1.18,0.43-1.54
			c0.29-0.36,0.71-0.54,1.26-0.54c0.37,0,0.71,0.08,1,0.23l-0.23,0.68c-0.32-0.14-0.58-0.21-0.78-0.21c-0.61,0-0.91,0.46-0.91,1.37
			c0,0.45,0.08,0.78,0.23,1.01c0.15,0.22,0.37,0.34,0.67,0.34c0.33,0,0.65-0.09,0.95-0.28v0.74c-0.13,0.09-0.28,0.15-0.43,0.19
			C49.51,57.09,49.33,57.11,49.11,57.11z"/>
		<path class="st5" d="M50.93,52c0-0.15,0.04-0.27,0.11-0.35c0.07-0.08,0.18-0.12,0.31-0.12c0.13,0,0.23,0.04,0.31,0.12
			c0.07,0.08,0.11,0.2,0.11,0.35c0,0.14-0.04,0.26-0.11,0.34c-0.07,0.08-0.18,0.13-0.31,0.13c-0.14,0-0.24-0.04-0.31-0.13
			C50.97,52.26,50.93,52.14,50.93,52z M51.72,57.03h-0.75v-3.98h0.75V57.03z"/>
		<path class="st5" d="M55.06,57.03l-0.15-0.55h-0.03c-0.17,0.24-0.34,0.41-0.51,0.5c-0.17,0.09-0.39,0.13-0.66,0.13
			c-0.35,0-0.62-0.11-0.81-0.32c-0.19-0.21-0.29-0.51-0.29-0.9c0-0.41,0.13-0.72,0.4-0.93c0.27-0.21,0.68-0.32,1.23-0.34l0.61-0.02
			v-0.21c0-0.25-0.05-0.45-0.16-0.57s-0.27-0.19-0.49-0.19c-0.18,0-0.35,0.03-0.52,0.09c-0.17,0.06-0.32,0.13-0.48,0.21l-0.24-0.61
			c0.19-0.11,0.4-0.2,0.63-0.26s0.44-0.09,0.64-0.09c0.45,0,0.79,0.11,1.01,0.33c0.23,0.22,0.34,0.57,0.34,1.04v2.68H55.06z
			 M53.94,56.46c0.27,0,0.49-0.09,0.65-0.26c0.16-0.17,0.25-0.41,0.25-0.72v-0.35l-0.45,0.02c-0.35,0.01-0.61,0.08-0.77,0.2
			c-0.16,0.12-0.24,0.3-0.24,0.55c0,0.18,0.05,0.31,0.14,0.41C53.61,56.41,53.76,56.46,53.94,56.46z"/>
		<path class="st5" d="M57.44,57.03h-0.75v-5.6h0.75V57.03z"/>
		<path class="st5" d="M63.48,53.36c0,0.55-0.16,0.97-0.48,1.26s-0.77,0.44-1.36,0.44h-0.48v1.97H60.4v-5.26h1.34
			c0.58,0,1.02,0.13,1.31,0.4S63.48,52.84,63.48,53.36z M61.16,54.34h0.4c0.39,0,0.68-0.08,0.86-0.23c0.18-0.15,0.27-0.39,0.27-0.72
			c0-0.3-0.08-0.53-0.25-0.68c-0.16-0.15-0.42-0.22-0.76-0.22h-0.53V54.34z"/>
		<path class="st5" d="M66.18,52.98c0.15,0,0.27,0.01,0.37,0.04l-0.07,0.79c-0.11-0.03-0.22-0.04-0.33-0.04
			c-0.3,0-0.54,0.11-0.73,0.33c-0.19,0.22-0.28,0.51-0.28,0.86v2.08h-0.75v-3.98h0.59l0.1,0.7h0.04c0.12-0.24,0.27-0.43,0.46-0.57
			C65.76,53.05,65.96,52.98,66.18,52.98z"/>
		<path class="st5" d="M70.38,55.04c0,0.65-0.15,1.16-0.44,1.52c-0.29,0.37-0.71,0.55-1.23,0.55c-0.33,0-0.62-0.08-0.87-0.25
			s-0.45-0.41-0.58-0.72s-0.2-0.68-0.2-1.09c0-0.65,0.15-1.15,0.44-1.51c0.29-0.36,0.71-0.54,1.24-0.54c0.51,0,0.91,0.19,1.21,0.56
			C70.23,53.91,70.38,54.41,70.38,55.04z M67.82,55.04c0,0.92,0.3,1.38,0.9,1.38c0.59,0,0.89-0.46,0.89-1.38
			c0-0.91-0.3-1.36-0.9-1.36c-0.31,0-0.54,0.12-0.68,0.35C67.89,54.26,67.82,54.6,67.82,55.04z"/>
		<path class="st5" d="M74.28,53.05v0.46l-0.6,0.13c0.06,0.08,0.1,0.19,0.14,0.31c0.04,0.12,0.05,0.25,0.05,0.39
			c0,0.41-0.13,0.73-0.38,0.97c-0.25,0.24-0.6,0.35-1.03,0.35c-0.11,0-0.21-0.01-0.31-0.03c-0.16,0.11-0.24,0.25-0.24,0.4
			c0,0.09,0.04,0.16,0.11,0.21c0.08,0.04,0.21,0.07,0.42,0.07h0.61c0.39,0,0.68,0.09,0.89,0.28c0.2,0.19,0.3,0.46,0.3,0.81
			c0,0.45-0.16,0.8-0.49,1.04c-0.33,0.24-0.8,0.37-1.43,0.37c-0.48,0-0.85-0.1-1.1-0.29c-0.25-0.19-0.38-0.47-0.38-0.82
			c0-0.24,0.07-0.45,0.21-0.62c0.14-0.17,0.33-0.28,0.57-0.35c-0.1-0.05-0.18-0.13-0.25-0.23c-0.06-0.11-0.1-0.22-0.1-0.34
			c0-0.15,0.04-0.27,0.11-0.38s0.18-0.21,0.33-0.31c-0.18-0.09-0.33-0.23-0.44-0.43c-0.11-0.2-0.17-0.43-0.17-0.7
			c0-0.43,0.12-0.77,0.36-1c0.24-0.24,0.58-0.36,1.03-0.36c0.1,0,0.2,0.01,0.31,0.02s0.19,0.03,0.25,0.05H74.28z M71.51,57.65
			c0,0.18,0.07,0.32,0.22,0.42c0.15,0.1,0.35,0.15,0.61,0.15c0.41,0,0.71-0.07,0.91-0.2s0.3-0.31,0.3-0.53
			c0-0.17-0.05-0.3-0.16-0.37s-0.31-0.11-0.61-0.11h-0.57c-0.21,0-0.38,0.06-0.51,0.17C71.57,57.3,71.51,57.46,71.51,57.65z
			 M71.83,54.34c0,0.25,0.06,0.44,0.17,0.58c0.11,0.13,0.28,0.2,0.49,0.2c0.43,0,0.65-0.26,0.65-0.79c0-0.26-0.05-0.46-0.16-0.6
			c-0.11-0.14-0.27-0.21-0.49-0.21c-0.22,0-0.38,0.07-0.49,0.21C71.89,53.87,71.83,54.08,71.83,54.34z"/>
		<path class="st5" d="M76.77,52.98c0.15,0,0.27,0.01,0.37,0.04l-0.07,0.79c-0.11-0.03-0.22-0.04-0.33-0.04
			c-0.3,0-0.54,0.11-0.73,0.33c-0.19,0.22-0.28,0.51-0.28,0.86v2.08h-0.75v-3.98h0.59l0.1,0.7h0.04c0.12-0.24,0.27-0.43,0.46-0.57
			C76.35,53.05,76.56,52.98,76.77,52.98z"/>
		<path class="st5" d="M80.06,57.03l-0.15-0.55h-0.03c-0.17,0.24-0.34,0.41-0.51,0.5c-0.17,0.09-0.39,0.13-0.66,0.13
			c-0.35,0-0.62-0.11-0.81-0.32c-0.19-0.21-0.29-0.51-0.29-0.9c0-0.41,0.13-0.72,0.4-0.93c0.27-0.21,0.68-0.32,1.23-0.34l0.61-0.02
			v-0.21c0-0.25-0.05-0.45-0.16-0.57s-0.27-0.19-0.49-0.19c-0.18,0-0.35,0.03-0.52,0.09c-0.17,0.06-0.32,0.13-0.48,0.21l-0.24-0.61
			c0.19-0.11,0.4-0.2,0.63-0.26s0.44-0.09,0.64-0.09c0.45,0,0.79,0.11,1.01,0.33c0.23,0.22,0.34,0.57,0.34,1.04v2.68H80.06z
			 M78.94,56.46c0.27,0,0.49-0.09,0.65-0.26c0.16-0.17,0.25-0.41,0.25-0.72v-0.35l-0.45,0.02c-0.35,0.01-0.61,0.08-0.77,0.2
			c-0.16,0.12-0.24,0.3-0.24,0.55c0,0.18,0.05,0.31,0.14,0.41C78.62,56.41,78.76,56.46,78.94,56.46z"/>
		<path class="st5" d="M84.66,57.03h-0.75v-2.46c0-0.3-0.05-0.53-0.15-0.68c-0.1-0.15-0.26-0.23-0.48-0.23
			c-0.29,0-0.5,0.11-0.64,0.32c-0.13,0.21-0.2,0.57-0.2,1.06v1.98H81.7v-3.98h0.59l0.1,0.52h0.04c0.1-0.19,0.24-0.34,0.42-0.44
			c0.19-0.1,0.39-0.16,0.61-0.16c0.54,0,0.9,0.21,1.08,0.63h0.05c0.1-0.2,0.25-0.35,0.44-0.46s0.41-0.17,0.65-0.17
			c0.42,0,0.73,0.12,0.92,0.36c0.19,0.24,0.29,0.61,0.29,1.1v2.6h-0.75v-2.46c0-0.3-0.05-0.53-0.15-0.68
			c-0.1-0.15-0.26-0.23-0.48-0.23c-0.29,0-0.5,0.1-0.64,0.31s-0.2,0.52-0.2,0.95V57.03z"/>
		<path class="st5" d="M90.35,55.9c0,0.39-0.13,0.69-0.38,0.89c-0.25,0.21-0.61,0.31-1.08,0.31c-0.47,0-0.85-0.08-1.13-0.24v-0.73
			c0.41,0.22,0.8,0.32,1.16,0.32c0.46,0,0.69-0.16,0.69-0.47c0-0.1-0.03-0.18-0.08-0.25c-0.05-0.07-0.13-0.14-0.25-0.21
			c-0.12-0.07-0.28-0.15-0.49-0.25c-0.41-0.18-0.68-0.36-0.82-0.53s-0.21-0.41-0.21-0.69c0-0.34,0.12-0.61,0.36-0.79
			c0.24-0.19,0.57-0.28,0.99-0.28c0.41,0,0.81,0.1,1.17,0.29l-0.24,0.64c-0.38-0.18-0.7-0.27-0.96-0.27c-0.39,0-0.59,0.13-0.59,0.38
			c0,0.13,0.05,0.23,0.15,0.32c0.1,0.09,0.33,0.21,0.67,0.36c0.29,0.13,0.5,0.24,0.63,0.35c0.13,0.11,0.23,0.23,0.29,0.37
			C90.32,55.54,90.35,55.71,90.35,55.9z"/>
	</g>
</g>
<g>
	<path class="st12" d="M267.29-661.06v-15 M-327.98-661.06v-15 M273.29,186.83h15 M-333.98,186.83h-15 M273.29-655.06h15
		 M-333.98-655.06h-15"/>
	<path class="st13" d="M267.29-661.06v-15 M-327.98-661.06v-15 M273.29,186.83h15 M-333.98,186.83h-15 M273.29-655.06h15
		 M-333.98-655.06h-15"/>
</g>
</svg>
