<?xml version="1.0" encoding="utf-8"?>
<!-- Generator: Adobe Illustrator 24.3.0, SVG Export Plug-In . SVG Version: 6.00 Build 0)  -->
<svg version="1.1" id="Layer_1" xmlns="http://www.w3.org/2000/svg" xmlns:xlink="http://www.w3.org/1999/xlink" x="0px" y="0px"
	 viewBox="0 0 81.25 22.68" style="enable-background:new 0 0 81.25 22.68;" xml:space="preserve">
<style type="text/css">
	.st0{fill:#F7F5F2;}
	.st1{fill:#F1EEE9;}
	.st2{fill:#A0926A;}
	.st3{fill:#0092B2;}
	.st4{fill:#1568A1;}
	.st5{fill:#FFFFFF;}
	.st6{fill:#2D77AA;}
	.st7{fill:#32A7C2;}
	.st8{fill:#AA9D78;}
	.st9{fill:#A1A94F;}
	.st10{fill:#8B9638;}
	.st11{fill:none;stroke:#A0926A;}
	.st12{fill:none;stroke:#FFFFFF;stroke-width:1.25;stroke-miterlimit:10;}
	.st13{fill:none;stroke:#000000;stroke-width:0.25;stroke-miterlimit:10;}
	.st14{fill:#DDDEE0;}
	.st15{fill:#E8F0F5;}
	.st16{fill:#D1E1EB;}
	.st17{fill:#F7F5F1;}
	.st18{fill:#ECE9E1;}
	.st19{fill:#F4F4E9;}
	.st20{fill:#E6F5F8;}
	.st21{fill:none;stroke:#FFFFFF;stroke-width:0.25;stroke-miterlimit:10;}
	.st22{fill:#282829;}
	.st23{fill:none;stroke:#FFFFFF;stroke-width:0.3;stroke-miterlimit:10;}
	.st24{fill:none;stroke:#FFFFFF;stroke-width:0.447;stroke-miterlimit:10;}
	.st25{fill:none;stroke:#FFFFFF;stroke-width:0.652;stroke-miterlimit:10;}
	.st26{fill:none;stroke:#FFFFFF;stroke-width:0.558;stroke-miterlimit:10;}
	.st27{fill:none;stroke:#FFFFFF;stroke-width:0.363;stroke-miterlimit:10;}
	.st28{fill:none;stroke:#FFFFFF;stroke-width:0.628;stroke-linecap:round;stroke-linejoin:round;stroke-miterlimit:22.926;}
	.st29{clip-path:url(#SVGID_2_);fill:#ECE9E1;}
	.st30{clip-path:url(#SVGID_2_);fill:#F7F5F1;}
	.st31{clip-path:url(#SVGID_2_);fill:#FFFFFF;}
	.st32{fill:none;stroke:#A0926A;stroke-width:1.5;}
	.st33{fill:none;stroke:#FFFFFF;stroke-width:0.333;stroke-miterlimit:10;}
	.st34{fill:none;stroke:#FFFFFF;stroke-width:0.497;stroke-miterlimit:10;}
	.st35{fill:none;stroke:#FFFFFF;stroke-width:0.724;stroke-miterlimit:10;}
	.st36{fill:none;stroke:#FFFFFF;stroke-width:0.62;stroke-miterlimit:10;}
	.st37{fill:none;stroke:#FFFFFF;stroke-width:0.4;stroke-miterlimit:10;}
	.st38{fill:none;stroke:#FFFFFF;stroke-width:0.403;stroke-miterlimit:10;}
	.st39{fill:#B4A888;}
	.st40{fill:none;stroke:#FFFFFF;stroke-miterlimit:10;}
	.st41{fill:none;stroke:#A0926A;stroke-width:1.19;stroke-linejoin:round;stroke-miterlimit:10;}
	.st42{fill:none;stroke:#A0926A;stroke-width:1.265;stroke-miterlimit:10;}
	.st43{fill:none;stroke:#A0926A;stroke-width:1.265;stroke-linecap:round;stroke-linejoin:round;stroke-miterlimit:10;}
	.st44{fill:none;stroke:#A0926A;stroke-width:1.265;stroke-linejoin:round;stroke-miterlimit:10;}
	.st45{fill:none;stroke:#A0926A;stroke-width:1.22;stroke-linecap:round;stroke-linejoin:round;stroke-miterlimit:22.926;}
	.st46{fill:none;stroke:#A0926A;stroke-width:1.314;stroke-linecap:round;stroke-linejoin:round;stroke-miterlimit:22.926;}
	.st47{clip-path:url(#SVGID_4_);}
	.st48{clip-path:url(#SVGID_4_);fill:#B4A888;}
	.st49{clip-path:url(#SVGID_4_);fill:#F7F5F1;}
	.st50{clip-path:url(#SVGID_4_);fill:#ECE9E1;}
	.st51{clip-path:url(#SVGID_4_);fill:none;stroke:#FFFFFF;stroke-miterlimit:10;}
	
		.st52{clip-path:url(#SVGID_8_);fill:none;stroke:#A0926A;stroke-width:1.148;stroke-linecap:round;stroke-linejoin:round;stroke-miterlimit:10;}
	
		.st53{clip-path:url(#SVGID_4_);fill:none;stroke:#A0926A;stroke-width:1.148;stroke-linecap:round;stroke-linejoin:round;stroke-miterlimit:10;stroke-dasharray:0.047,2.088;}
	
		.st54{clip-path:url(#SVGID_4_);fill:none;stroke:#A0926A;stroke-width:1.148;stroke-linecap:round;stroke-linejoin:round;stroke-miterlimit:10;}
	.st55{clip-path:url(#SVGID_4_);fill:#282829;}
	.st56{clip-path:url(#SVGID_10_);fill:none;stroke:#A0926A;stroke-width:1.397;stroke-miterlimit:10;}
	.st57{clip-path:url(#SVGID_10_);fill:none;stroke:#A0926A;stroke-width:1.397;stroke-linejoin:round;stroke-miterlimit:10;}
	
		.st58{clip-path:url(#SVGID_12_);fill:none;stroke:#A0926A;stroke-width:1.252;stroke-linecap:round;stroke-linejoin:round;stroke-miterlimit:10;}
	.st59{clip-path:url(#SVGID_14_);fill:none;stroke:#A0926A;stroke-width:1.2112;stroke-linejoin:round;stroke-miterlimit:10;}
	.st60{clip-path:url(#SVGID_16_);fill:none;stroke:#FFFFFF;stroke-width:1.25;stroke-miterlimit:10;}
	.st61{clip-path:url(#SVGID_16_);fill:none;stroke:#000000;stroke-width:0.25;stroke-miterlimit:10;}
	.st62{clip-path:url(#SVGID_16_);fill:none;stroke:#FFFFFF;stroke-width:0.4;stroke-miterlimit:10;}
	.st63{clip-path:url(#SVGID_18_);fill:none;stroke:#FFFFFF;stroke-width:0.4;stroke-miterlimit:10;}
</style>
<g>
	<g>
		<polygon class="st4" points="0,0 0,22.68 81.25,22.68 77.83,0 		"/>
	</g>
	<g>
		<path class="st5" d="M23.27,12.5v2.94h-1.62V7.79h2.23c1.04,0,1.81,0.19,2.31,0.57s0.75,0.95,0.75,1.73c0,0.45-0.12,0.85-0.37,1.2
			c-0.25,0.35-0.6,0.63-1.05,0.83c1.15,1.72,1.9,2.83,2.25,3.33h-1.8l-1.83-2.94H23.27z M23.27,11.19h0.52
			c0.51,0,0.89-0.09,1.14-0.26c0.24-0.17,0.37-0.44,0.37-0.81c0-0.36-0.12-0.62-0.37-0.78c-0.25-0.15-0.64-0.23-1.16-0.23h-0.49
			V11.19z"/>
		<path class="st5" d="M33.23,15.44h-4.41V7.79h4.41v1.33h-2.79v1.68h2.59v1.33h-2.59v1.97h2.79V15.44z"/>
		<path class="st5" d="M39.45,13.32c0,0.69-0.25,1.24-0.75,1.63c-0.5,0.4-1.19,0.6-2.08,0.6c-0.82,0-1.54-0.15-2.17-0.46v-1.51
			c0.52,0.23,0.95,0.39,1.31,0.49c0.36,0.09,0.69,0.14,0.98,0.14c0.36,0,0.63-0.07,0.82-0.2c0.19-0.14,0.29-0.34,0.29-0.61
			c0-0.15-0.04-0.28-0.13-0.4c-0.08-0.12-0.21-0.23-0.37-0.34c-0.16-0.11-0.49-0.28-0.99-0.52c-0.47-0.22-0.82-0.43-1.05-0.63
			c-0.23-0.2-0.42-0.44-0.56-0.71c-0.14-0.27-0.21-0.58-0.21-0.94c0-0.68,0.23-1.21,0.69-1.6s1.09-0.58,1.9-0.58
			c0.4,0,0.78,0.05,1.14,0.14c0.36,0.09,0.74,0.23,1.13,0.4l-0.52,1.26c-0.41-0.17-0.75-0.28-1.01-0.35s-0.53-0.1-0.79-0.1
			c-0.31,0-0.54,0.07-0.71,0.21c-0.16,0.14-0.25,0.33-0.25,0.56c0,0.14,0.03,0.27,0.1,0.37s0.17,0.21,0.32,0.31s0.49,0.28,1.03,0.54
			c0.72,0.34,1.21,0.68,1.47,1.03C39.31,12.4,39.45,12.82,39.45,13.32z"/>
		<path class="st5" d="M47.17,7.79v4.95c0,0.57-0.13,1.06-0.38,1.49c-0.25,0.43-0.62,0.75-1.1,0.98c-0.48,0.23-1.04,0.34-1.7,0.34
			c-0.98,0-1.75-0.25-2.29-0.76c-0.54-0.5-0.82-1.19-0.82-2.07V7.79h1.62v4.69c0,0.59,0.12,1.02,0.36,1.3
			c0.24,0.28,0.63,0.41,1.18,0.41c0.53,0,0.92-0.14,1.15-0.42c0.24-0.28,0.36-0.71,0.36-1.31V7.79H47.17z"/>
		<path class="st5" d="M49.15,15.44V7.79h1.62v6.31h3.1v1.34H49.15z"/>
		<path class="st5" d="M58.27,15.44h-1.62v-6.3h-2.08V7.79h5.78v1.35h-2.08V15.44z"/>
	</g>
</g>
<g>
	<path class="st12" d="M159.57-491.74v-15 M-435.7-491.74v-15 M165.57,356.15h15 M-441.7,356.15h-15 M165.57-485.74h15
		 M-441.7-485.74h-15"/>
	<path class="st13" d="M159.57-491.74v-15 M-435.7-491.74v-15 M165.57,356.15h15 M-441.7,356.15h-15 M165.57-485.74h15
		 M-441.7-485.74h-15"/>
</g>
</svg>
