<?xml version="1.0" encoding="utf-8"?>
<!-- Generator: Adobe Illustrator 24.3.0, SVG Export Plug-In . SVG Version: 6.00 Build 0)  -->
<svg version="1.1" id="Layer_1" xmlns="http://www.w3.org/2000/svg" xmlns:xlink="http://www.w3.org/1999/xlink" x="0px" y="0px"
	 viewBox="0 0 84.71 22.68" style="enable-background:new 0 0 84.71 22.68;" xml:space="preserve">
<style type="text/css">
	.st0{fill:#F7F5F2;}
	.st1{fill:#F1EEE9;}
	.st2{fill:#A0926A;}
	.st3{fill:#0092B2;}
	.st4{fill:#1568A1;}
	.st5{fill:#FFFFFF;}
	.st6{fill:#2D77AA;}
	.st7{fill:#32A7C2;}
	.st8{fill:#AA9D78;}
	.st9{fill:#A1A94F;}
	.st10{fill:#8B9638;}
	.st11{fill:none;stroke:#A0926A;}
	.st12{fill:none;stroke:#FFFFFF;stroke-width:1.25;stroke-miterlimit:10;}
	.st13{fill:none;stroke:#000000;stroke-width:0.25;stroke-miterlimit:10;}
	.st14{fill:#DDDEE0;}
	.st15{fill:#E8F0F5;}
	.st16{fill:#D1E1EB;}
	.st17{fill:#F7F5F1;}
	.st18{fill:#ECE9E1;}
	.st19{fill:#F4F4E9;}
	.st20{fill:#E6F5F8;}
	.st21{fill:none;stroke:#FFFFFF;stroke-width:0.25;stroke-miterlimit:10;}
	.st22{fill:#282829;}
	.st23{fill:none;stroke:#FFFFFF;stroke-width:0.3;stroke-miterlimit:10;}
	.st24{fill:none;stroke:#FFFFFF;stroke-width:0.447;stroke-miterlimit:10;}
	.st25{fill:none;stroke:#FFFFFF;stroke-width:0.652;stroke-miterlimit:10;}
	.st26{fill:none;stroke:#FFFFFF;stroke-width:0.558;stroke-miterlimit:10;}
	.st27{fill:none;stroke:#FFFFFF;stroke-width:0.363;stroke-miterlimit:10;}
	.st28{fill:none;stroke:#FFFFFF;stroke-width:0.628;stroke-linecap:round;stroke-linejoin:round;stroke-miterlimit:22.926;}
	.st29{clip-path:url(#SVGID_2_);fill:#ECE9E1;}
	.st30{clip-path:url(#SVGID_2_);fill:#F7F5F1;}
	.st31{clip-path:url(#SVGID_2_);fill:#FFFFFF;}
	.st32{fill:none;stroke:#A0926A;stroke-width:1.5;}
	.st33{fill:none;stroke:#FFFFFF;stroke-width:0.333;stroke-miterlimit:10;}
	.st34{fill:none;stroke:#FFFFFF;stroke-width:0.497;stroke-miterlimit:10;}
	.st35{fill:none;stroke:#FFFFFF;stroke-width:0.724;stroke-miterlimit:10;}
	.st36{fill:none;stroke:#FFFFFF;stroke-width:0.62;stroke-miterlimit:10;}
	.st37{fill:none;stroke:#FFFFFF;stroke-width:0.4;stroke-miterlimit:10;}
	.st38{fill:none;stroke:#FFFFFF;stroke-width:0.403;stroke-miterlimit:10;}
	.st39{fill:#B4A888;}
	.st40{fill:none;stroke:#FFFFFF;stroke-miterlimit:10;}
	.st41{fill:none;stroke:#A0926A;stroke-width:1.19;stroke-linejoin:round;stroke-miterlimit:10;}
	.st42{fill:none;stroke:#A0926A;stroke-width:1.265;stroke-miterlimit:10;}
	.st43{fill:none;stroke:#A0926A;stroke-width:1.265;stroke-linecap:round;stroke-linejoin:round;stroke-miterlimit:10;}
	.st44{fill:none;stroke:#A0926A;stroke-width:1.265;stroke-linejoin:round;stroke-miterlimit:10;}
	.st45{fill:none;stroke:#A0926A;stroke-width:1.22;stroke-linecap:round;stroke-linejoin:round;stroke-miterlimit:22.926;}
	.st46{fill:none;stroke:#A0926A;stroke-width:1.314;stroke-linecap:round;stroke-linejoin:round;stroke-miterlimit:22.926;}
	.st47{clip-path:url(#SVGID_4_);}
	.st48{clip-path:url(#SVGID_4_);fill:#B4A888;}
	.st49{clip-path:url(#SVGID_4_);fill:#F7F5F1;}
	.st50{clip-path:url(#SVGID_4_);fill:#ECE9E1;}
	.st51{clip-path:url(#SVGID_4_);fill:none;stroke:#FFFFFF;stroke-miterlimit:10;}
	
		.st52{clip-path:url(#SVGID_8_);fill:none;stroke:#A0926A;stroke-width:1.148;stroke-linecap:round;stroke-linejoin:round;stroke-miterlimit:10;}
	
		.st53{clip-path:url(#SVGID_4_);fill:none;stroke:#A0926A;stroke-width:1.148;stroke-linecap:round;stroke-linejoin:round;stroke-miterlimit:10;stroke-dasharray:0.047,2.088;}
	
		.st54{clip-path:url(#SVGID_4_);fill:none;stroke:#A0926A;stroke-width:1.148;stroke-linecap:round;stroke-linejoin:round;stroke-miterlimit:10;}
	.st55{clip-path:url(#SVGID_4_);fill:#282829;}
	.st56{clip-path:url(#SVGID_10_);fill:none;stroke:#A0926A;stroke-width:1.397;stroke-miterlimit:10;}
	.st57{clip-path:url(#SVGID_10_);fill:none;stroke:#A0926A;stroke-width:1.397;stroke-linejoin:round;stroke-miterlimit:10;}
	
		.st58{clip-path:url(#SVGID_12_);fill:none;stroke:#A0926A;stroke-width:1.252;stroke-linecap:round;stroke-linejoin:round;stroke-miterlimit:10;}
	.st59{clip-path:url(#SVGID_14_);fill:none;stroke:#A0926A;stroke-width:1.2112;stroke-linejoin:round;stroke-miterlimit:10;}
	.st60{clip-path:url(#SVGID_16_);fill:none;stroke:#FFFFFF;stroke-width:1.25;stroke-miterlimit:10;}
	.st61{clip-path:url(#SVGID_16_);fill:none;stroke:#000000;stroke-width:0.25;stroke-miterlimit:10;}
	.st62{clip-path:url(#SVGID_16_);fill:none;stroke:#FFFFFF;stroke-width:0.4;stroke-miterlimit:10;}
	.st63{clip-path:url(#SVGID_18_);fill:none;stroke:#FFFFFF;stroke-width:0.4;stroke-miterlimit:10;}
</style>
<g>
	<g>
		<rect class="st4" width="84.71" height="22.68"/>
	</g>
	<g>
		<path class="st5" d="M27.08,15.44h-1.6V7.79h4.39v1.33h-2.79v1.97h2.6v1.33h-2.6V15.44z"/>
		<path class="st5" d="M38.42,11.6c0,1.27-0.31,2.24-0.94,2.92s-1.53,1.02-2.7,1.02c-1.17,0-2.07-0.34-2.7-1.02
			s-0.94-1.66-0.94-2.93c0-1.27,0.31-2.25,0.95-2.92c0.63-0.67,1.53-1.01,2.71-1.01s2.08,0.34,2.7,1.02
			C38.11,9.36,38.42,10.33,38.42,11.6z M32.83,11.6c0,0.86,0.16,1.5,0.49,1.93c0.32,0.43,0.81,0.65,1.46,0.65
			c1.3,0,1.94-0.86,1.94-2.58c0-1.72-0.64-2.59-1.93-2.59c-0.65,0-1.13,0.22-1.46,0.65S32.83,10.75,32.83,11.6z"/>
		<path class="st5" d="M43.36,9.03c-0.61,0-1.08,0.23-1.42,0.69c-0.33,0.46-0.5,1.1-0.5,1.92c0,1.71,0.64,2.56,1.92,2.56
			c0.54,0,1.19-0.13,1.95-0.4v1.36c-0.63,0.26-1.33,0.39-2.1,0.39c-1.11,0-1.97-0.34-2.56-1.01c-0.59-0.68-0.88-1.65-0.88-2.91
			c0-0.8,0.15-1.49,0.43-2.09s0.71-1.06,1.25-1.38c0.54-0.32,1.18-0.48,1.91-0.48c0.74,0,1.49,0.18,2.24,0.54l-0.52,1.32
			c-0.29-0.14-0.57-0.25-0.86-0.36C43.93,9.08,43.64,9.03,43.36,9.03z"/>
		<path class="st5" d="M53.27,7.79v4.95c0,0.57-0.13,1.06-0.38,1.49c-0.25,0.43-0.62,0.75-1.1,0.98c-0.48,0.23-1.04,0.34-1.7,0.34
			c-0.98,0-1.75-0.25-2.29-0.76c-0.54-0.5-0.82-1.19-0.82-2.07V7.79h1.62v4.69c0,0.59,0.12,1.02,0.36,1.3
			c0.24,0.28,0.63,0.41,1.18,0.41c0.53,0,0.92-0.14,1.15-0.42c0.24-0.28,0.36-0.71,0.36-1.31V7.79H53.27z"/>
		<path class="st5" d="M59.77,13.32c0,0.69-0.25,1.24-0.75,1.63c-0.5,0.4-1.19,0.6-2.08,0.6c-0.82,0-1.54-0.15-2.17-0.46v-1.51
			c0.52,0.23,0.95,0.39,1.31,0.49c0.36,0.09,0.69,0.14,0.98,0.14c0.36,0,0.63-0.07,0.82-0.2c0.19-0.14,0.29-0.34,0.29-0.61
			c0-0.15-0.04-0.28-0.13-0.4c-0.08-0.12-0.21-0.23-0.37-0.34c-0.16-0.11-0.49-0.28-0.99-0.52c-0.47-0.22-0.82-0.43-1.05-0.63
			c-0.23-0.2-0.42-0.44-0.56-0.71c-0.14-0.27-0.21-0.58-0.21-0.94c0-0.68,0.23-1.21,0.69-1.6s1.09-0.58,1.9-0.58
			c0.4,0,0.78,0.05,1.14,0.14c0.36,0.09,0.74,0.23,1.13,0.4l-0.52,1.26c-0.41-0.17-0.75-0.28-1.01-0.35s-0.53-0.1-0.79-0.1
			c-0.31,0-0.54,0.07-0.71,0.21c-0.16,0.14-0.25,0.33-0.25,0.56c0,0.14,0.03,0.27,0.1,0.37s0.17,0.21,0.32,0.31s0.49,0.28,1.03,0.54
			c0.72,0.34,1.21,0.68,1.47,1.03C59.64,12.39,59.77,12.82,59.77,13.32z"/>
	</g>
</g>
<g>
	<path class="st12" d="M356.36-491.74v-15 M-238.91-491.74v-15 M362.36,356.15h15 M-244.91,356.15h-15 M362.36-485.74h15
		 M-244.91-485.74h-15"/>
	<path class="st13" d="M356.36-491.74v-15 M-238.91-491.74v-15 M362.36,356.15h15 M-244.91,356.15h-15 M362.36-485.74h15
		 M-244.91-485.74h-15"/>
</g>
</svg>
