<?xml version="1.0" encoding="utf-8"?>
<!-- Generator: Adobe Illustrator 24.3.0, SVG Export Plug-In . SVG Version: 6.00 Build 0)  -->
<svg version="1.1" id="Layer_1" xmlns="http://www.w3.org/2000/svg" xmlns:xlink="http://www.w3.org/1999/xlink" x="0px" y="0px"
	 viewBox="0 0 93.66 58.1" style="enable-background:new 0 0 93.66 58.1;" xml:space="preserve">
<style type="text/css">
	.st0{fill:#F7F5F2;}
	.st1{fill:#F1EEE9;}
	.st2{fill:#A0926A;}
	.st3{fill:#0092B2;}
	.st4{fill:#1568A1;}
	.st5{fill:#FFFFFF;}
	.st6{fill:#2D77AA;}
	.st7{fill:#32A7C2;}
	.st8{fill:#AA9D78;}
	.st9{fill:#A1A94F;}
	.st10{fill:#8B9638;}
	.st11{fill:none;stroke:#A0926A;}
	.st12{fill:none;stroke:#FFFFFF;stroke-width:1.25;stroke-miterlimit:10;}
	.st13{fill:none;stroke:#000000;stroke-width:0.25;stroke-miterlimit:10;}
	.st14{fill:#DDDEE0;}
	.st15{fill:#E8F0F5;}
	.st16{fill:#D1E1EB;}
	.st17{fill:#F7F5F1;}
	.st18{fill:#ECE9E1;}
	.st19{fill:#F4F4E9;}
	.st20{fill:#E6F5F8;}
	.st21{fill:none;stroke:#FFFFFF;stroke-width:0.25;stroke-miterlimit:10;}
	.st22{fill:#282829;}
	.st23{fill:none;stroke:#FFFFFF;stroke-width:0.3;stroke-miterlimit:10;}
	.st24{fill:none;stroke:#FFFFFF;stroke-width:0.447;stroke-miterlimit:10;}
	.st25{fill:none;stroke:#FFFFFF;stroke-width:0.652;stroke-miterlimit:10;}
	.st26{fill:none;stroke:#FFFFFF;stroke-width:0.558;stroke-miterlimit:10;}
	.st27{fill:none;stroke:#FFFFFF;stroke-width:0.363;stroke-miterlimit:10;}
	.st28{fill:none;stroke:#FFFFFF;stroke-width:0.628;stroke-linecap:round;stroke-linejoin:round;stroke-miterlimit:22.926;}
	.st29{clip-path:url(#SVGID_2_);fill:#ECE9E1;}
	.st30{clip-path:url(#SVGID_2_);fill:#F7F5F1;}
	.st31{clip-path:url(#SVGID_2_);fill:#FFFFFF;}
	.st32{fill:none;stroke:#A0926A;stroke-width:1.5;}
	.st33{fill:none;stroke:#FFFFFF;stroke-width:0.333;stroke-miterlimit:10;}
	.st34{fill:none;stroke:#FFFFFF;stroke-width:0.497;stroke-miterlimit:10;}
	.st35{fill:none;stroke:#FFFFFF;stroke-width:0.724;stroke-miterlimit:10;}
	.st36{fill:none;stroke:#FFFFFF;stroke-width:0.62;stroke-miterlimit:10;}
	.st37{fill:none;stroke:#FFFFFF;stroke-width:0.4;stroke-miterlimit:10;}
	.st38{fill:none;stroke:#FFFFFF;stroke-width:0.403;stroke-miterlimit:10;}
	.st39{fill:#B4A888;}
	.st40{fill:none;stroke:#FFFFFF;stroke-miterlimit:10;}
	.st41{fill:none;stroke:#A0926A;stroke-width:1.19;stroke-linejoin:round;stroke-miterlimit:10;}
	.st42{fill:none;stroke:#A0926A;stroke-width:1.265;stroke-miterlimit:10;}
	.st43{fill:none;stroke:#A0926A;stroke-width:1.265;stroke-linecap:round;stroke-linejoin:round;stroke-miterlimit:10;}
	.st44{fill:none;stroke:#A0926A;stroke-width:1.265;stroke-linejoin:round;stroke-miterlimit:10;}
	.st45{fill:none;stroke:#A0926A;stroke-width:1.22;stroke-linecap:round;stroke-linejoin:round;stroke-miterlimit:22.926;}
	.st46{fill:none;stroke:#A0926A;stroke-width:1.314;stroke-linecap:round;stroke-linejoin:round;stroke-miterlimit:22.926;}
	.st47{clip-path:url(#SVGID_4_);}
	.st48{clip-path:url(#SVGID_4_);fill:#B4A888;}
	.st49{clip-path:url(#SVGID_4_);fill:#F7F5F1;}
	.st50{clip-path:url(#SVGID_4_);fill:#ECE9E1;}
	.st51{clip-path:url(#SVGID_4_);fill:none;stroke:#FFFFFF;stroke-miterlimit:10;}
	
		.st52{clip-path:url(#SVGID_8_);fill:none;stroke:#A0926A;stroke-width:1.148;stroke-linecap:round;stroke-linejoin:round;stroke-miterlimit:10;}
	
		.st53{clip-path:url(#SVGID_4_);fill:none;stroke:#A0926A;stroke-width:1.148;stroke-linecap:round;stroke-linejoin:round;stroke-miterlimit:10;stroke-dasharray:0.047,2.088;}
	
		.st54{clip-path:url(#SVGID_4_);fill:none;stroke:#A0926A;stroke-width:1.148;stroke-linecap:round;stroke-linejoin:round;stroke-miterlimit:10;}
	.st55{clip-path:url(#SVGID_4_);fill:#282829;}
	.st56{clip-path:url(#SVGID_10_);fill:none;stroke:#A0926A;stroke-width:1.397;stroke-miterlimit:10;}
	.st57{clip-path:url(#SVGID_10_);fill:none;stroke:#A0926A;stroke-width:1.397;stroke-linejoin:round;stroke-miterlimit:10;}
	
		.st58{clip-path:url(#SVGID_12_);fill:none;stroke:#A0926A;stroke-width:1.252;stroke-linecap:round;stroke-linejoin:round;stroke-miterlimit:10;}
	.st59{clip-path:url(#SVGID_14_);fill:none;stroke:#A0926A;stroke-width:1.2112;stroke-linejoin:round;stroke-miterlimit:10;}
	.st60{clip-path:url(#SVGID_16_);fill:none;stroke:#FFFFFF;stroke-width:1.25;stroke-miterlimit:10;}
	.st61{clip-path:url(#SVGID_16_);fill:none;stroke:#000000;stroke-width:0.25;stroke-miterlimit:10;}
	.st62{clip-path:url(#SVGID_16_);fill:none;stroke:#FFFFFF;stroke-width:0.4;stroke-miterlimit:10;}
	.st63{clip-path:url(#SVGID_18_);fill:none;stroke:#FFFFFF;stroke-width:0.4;stroke-miterlimit:10;}
</style>
<g>
	<g>
		<rect class="st9" width="93.66" height="58.1"/>
	</g>
	<g>
		<path class="st5" d="M6.32,18.72v-5.26h0.76v5.26H6.32z"/>
		<path class="st5" d="M11.38,18.72h-0.75v-2.45c0-0.31-0.05-0.54-0.16-0.69c-0.11-0.15-0.28-0.23-0.52-0.23
			c-0.32,0-0.55,0.11-0.69,0.32c-0.15,0.21-0.22,0.56-0.22,1.06v1.98H8.29v-3.98h0.59l0.1,0.52h0.04c0.11-0.19,0.26-0.34,0.45-0.44
			s0.41-0.16,0.65-0.16c0.84,0,1.27,0.49,1.27,1.46V18.72z"/>
		<path class="st5" d="M13.8,18.11c0.18,0,0.37-0.03,0.55-0.1v0.64c-0.08,0.04-0.19,0.08-0.32,0.1c-0.13,0.03-0.27,0.04-0.41,0.04
			c-0.71,0-1.06-0.42-1.06-1.27v-2.15h-0.48v-0.37l0.52-0.31l0.25-0.84h0.46v0.89h1v0.64h-1v2.13c0,0.2,0.05,0.36,0.14,0.45
			C13.54,18.06,13.66,18.11,13.8,18.11z"/>
		<path class="st5" d="M16.65,18.79c-0.55,0-0.98-0.18-1.28-0.54c-0.31-0.36-0.46-0.86-0.46-1.49c0-0.65,0.14-1.16,0.43-1.53
			s0.68-0.56,1.18-0.56c0.46,0,0.83,0.16,1.1,0.48s0.4,0.76,0.4,1.32v0.46h-2.35c0.01,0.39,0.1,0.68,0.28,0.89
			c0.17,0.21,0.42,0.31,0.74,0.31c0.21,0,0.4-0.02,0.58-0.07c0.18-0.04,0.37-0.12,0.58-0.22v0.69c-0.18,0.1-0.37,0.17-0.55,0.21
			C17.1,18.77,16.89,18.79,16.65,18.79z M16.51,15.31c-0.24,0-0.43,0.08-0.57,0.25c-0.14,0.17-0.23,0.42-0.26,0.75h1.6
			c0-0.33-0.07-0.58-0.21-0.75C16.94,15.39,16.75,15.31,16.51,15.31z"/>
		<path class="st5" d="M21.9,14.74v0.46l-0.6,0.13c0.06,0.08,0.1,0.19,0.14,0.31c0.04,0.12,0.05,0.25,0.05,0.39
			c0,0.41-0.13,0.73-0.38,0.97c-0.25,0.24-0.6,0.35-1.03,0.35c-0.11,0-0.21-0.01-0.31-0.03c-0.16,0.11-0.24,0.25-0.24,0.4
			c0,0.09,0.04,0.16,0.11,0.21c0.08,0.04,0.21,0.07,0.42,0.07h0.61c0.39,0,0.68,0.09,0.89,0.28c0.2,0.19,0.3,0.46,0.3,0.81
			c0,0.45-0.16,0.8-0.49,1.04c-0.33,0.24-0.8,0.37-1.43,0.37c-0.48,0-0.85-0.1-1.1-0.29c-0.25-0.19-0.38-0.47-0.38-0.82
			c0-0.24,0.07-0.45,0.21-0.62c0.14-0.17,0.33-0.28,0.57-0.35c-0.1-0.05-0.18-0.13-0.25-0.23c-0.06-0.11-0.1-0.22-0.1-0.34
			c0-0.15,0.04-0.27,0.11-0.38s0.18-0.21,0.33-0.31c-0.18-0.09-0.33-0.23-0.44-0.43c-0.11-0.2-0.17-0.43-0.17-0.7
			c0-0.43,0.12-0.77,0.36-1c0.24-0.24,0.58-0.36,1.03-0.36c0.1,0,0.2,0.01,0.31,0.02s0.19,0.03,0.25,0.05H21.9z M19.13,19.34
			c0,0.18,0.07,0.32,0.22,0.42c0.15,0.1,0.35,0.15,0.61,0.15c0.41,0,0.71-0.07,0.91-0.2s0.3-0.31,0.3-0.53
			c0-0.17-0.05-0.3-0.16-0.37s-0.31-0.11-0.61-0.11h-0.57c-0.21,0-0.38,0.06-0.51,0.17C19.2,18.99,19.13,19.15,19.13,19.34z
			 M19.45,16.03c0,0.25,0.06,0.44,0.17,0.58c0.11,0.13,0.28,0.2,0.49,0.2c0.43,0,0.65-0.26,0.65-0.79c0-0.26-0.05-0.46-0.16-0.6
			c-0.11-0.14-0.27-0.21-0.49-0.21c-0.22,0-0.38,0.07-0.49,0.21C19.51,15.56,19.45,15.76,19.45,16.03z"/>
		<path class="st5" d="M24.4,14.67c0.15,0,0.27,0.01,0.37,0.04l-0.07,0.79c-0.11-0.03-0.22-0.04-0.33-0.04
			c-0.3,0-0.54,0.11-0.73,0.33c-0.19,0.22-0.28,0.51-0.28,0.86v2.08h-0.75v-3.98h0.59l0.1,0.7h0.04c0.12-0.24,0.27-0.43,0.46-0.57
			C23.98,14.74,24.18,14.67,24.4,14.67z"/>
		<path class="st5" d="M27.68,18.72l-0.15-0.55h-0.03c-0.17,0.24-0.34,0.41-0.51,0.5c-0.17,0.09-0.39,0.13-0.66,0.13
			c-0.35,0-0.62-0.11-0.81-0.32c-0.19-0.21-0.29-0.51-0.29-0.9c0-0.41,0.13-0.72,0.4-0.93c0.27-0.21,0.68-0.32,1.23-0.34l0.61-0.02
			v-0.21c0-0.25-0.05-0.45-0.16-0.57s-0.27-0.19-0.49-0.19c-0.18,0-0.35,0.03-0.52,0.09c-0.17,0.06-0.32,0.13-0.48,0.21l-0.24-0.61
			c0.19-0.11,0.4-0.2,0.63-0.26s0.44-0.09,0.64-0.09c0.45,0,0.79,0.11,1.01,0.33c0.23,0.22,0.34,0.57,0.34,1.04v2.68H27.68z
			 M26.57,18.15c0.27,0,0.49-0.09,0.65-0.26c0.16-0.17,0.25-0.41,0.25-0.72v-0.35l-0.45,0.02c-0.35,0.01-0.61,0.08-0.77,0.2
			c-0.16,0.12-0.24,0.3-0.24,0.55c0,0.18,0.05,0.31,0.14,0.41C26.24,18.1,26.38,18.15,26.57,18.15z"/>
		<path class="st5" d="M30.63,18.11c0.18,0,0.37-0.03,0.55-0.1v0.64c-0.08,0.04-0.19,0.08-0.32,0.1c-0.13,0.03-0.27,0.04-0.41,0.04
			c-0.71,0-1.06-0.42-1.06-1.27v-2.15h-0.48v-0.37l0.52-0.31l0.25-0.84h0.46v0.89h1v0.64h-1v2.13c0,0.2,0.05,0.36,0.14,0.45
			C30.37,18.06,30.49,18.11,30.63,18.11z"/>
		<path class="st5" d="M33.48,18.79c-0.55,0-0.98-0.18-1.28-0.54c-0.31-0.36-0.46-0.86-0.46-1.49c0-0.65,0.14-1.16,0.43-1.53
			s0.68-0.56,1.18-0.56c0.46,0,0.83,0.16,1.1,0.48s0.4,0.76,0.4,1.32v0.46H32.5c0.01,0.39,0.1,0.68,0.28,0.89
			c0.17,0.21,0.42,0.31,0.74,0.31c0.21,0,0.4-0.02,0.58-0.07c0.18-0.04,0.37-0.12,0.58-0.22v0.69c-0.18,0.1-0.37,0.17-0.55,0.21
			C33.93,18.77,33.72,18.79,33.48,18.79z M33.34,15.31c-0.24,0-0.43,0.08-0.57,0.25c-0.14,0.17-0.23,0.42-0.26,0.75h1.6
			c0-0.33-0.07-0.58-0.21-0.75C33.77,15.39,33.58,15.31,33.34,15.31z"/>
		<path class="st5" d="M38.7,18.79c-0.44,0-0.78-0.18-1.03-0.54c-0.25-0.36-0.37-0.87-0.37-1.52c0-0.65,0.12-1.16,0.37-1.52
			s0.59-0.55,1.04-0.55c0.46,0,0.81,0.19,1.06,0.58h0.04c-0.04-0.29-0.05-0.51-0.05-0.68v-1.45h0.75v5.6h-0.59l-0.13-0.52h-0.04
			C39.52,18.6,39.17,18.79,38.7,18.79z M38.9,18.11c0.31,0,0.53-0.1,0.67-0.29s0.21-0.51,0.22-0.95v-0.12c0-0.5-0.07-0.86-0.22-1.07
			c-0.14-0.21-0.37-0.32-0.68-0.32c-0.26,0-0.47,0.12-0.61,0.36c-0.14,0.24-0.21,0.58-0.21,1.03c0,0.44,0.07,0.78,0.21,1.01
			C38.42,17.99,38.63,18.11,38.9,18.11z"/>
		<path class="st5" d="M41.59,13.69c0-0.15,0.04-0.27,0.11-0.35c0.07-0.08,0.18-0.12,0.31-0.12c0.13,0,0.23,0.04,0.31,0.12
			c0.07,0.08,0.11,0.2,0.11,0.35c0,0.14-0.04,0.26-0.11,0.34c-0.07,0.08-0.18,0.13-0.31,0.13c-0.14,0-0.24-0.04-0.31-0.13
			C41.63,13.94,41.59,13.83,41.59,13.69z M42.38,18.72h-0.75v-3.98h0.75V18.72z"/>
		<path class="st5" d="M45.88,17.59c0,0.39-0.13,0.69-0.38,0.89c-0.25,0.21-0.61,0.31-1.08,0.31c-0.47,0-0.85-0.08-1.13-0.24v-0.73
			c0.41,0.22,0.8,0.32,1.16,0.32c0.46,0,0.69-0.16,0.69-0.47c0-0.1-0.03-0.18-0.08-0.25c-0.05-0.07-0.13-0.14-0.25-0.21
			c-0.12-0.07-0.28-0.15-0.49-0.25c-0.41-0.18-0.68-0.36-0.82-0.53s-0.21-0.41-0.21-0.69c0-0.34,0.12-0.61,0.36-0.79
			c0.24-0.19,0.57-0.28,0.99-0.28c0.41,0,0.81,0.1,1.17,0.29l-0.24,0.64c-0.38-0.18-0.7-0.27-0.96-0.27c-0.39,0-0.59,0.13-0.59,0.38
			c0,0.13,0.05,0.23,0.15,0.32c0.1,0.09,0.33,0.21,0.67,0.36c0.29,0.13,0.5,0.24,0.63,0.35c0.13,0.11,0.23,0.23,0.29,0.37
			C45.85,17.23,45.88,17.4,45.88,17.59z"/>
		<path class="st5" d="M48.96,18.72l-0.15-0.55h-0.03c-0.17,0.24-0.34,0.41-0.51,0.5c-0.17,0.09-0.39,0.13-0.66,0.13
			c-0.35,0-0.62-0.11-0.81-0.32c-0.19-0.21-0.29-0.51-0.29-0.9c0-0.41,0.13-0.72,0.4-0.93c0.27-0.21,0.68-0.32,1.23-0.34l0.61-0.02
			v-0.21c0-0.25-0.05-0.45-0.16-0.57s-0.27-0.19-0.49-0.19c-0.18,0-0.35,0.03-0.52,0.09c-0.17,0.06-0.32,0.13-0.48,0.21l-0.24-0.61
			c0.19-0.11,0.4-0.2,0.63-0.26s0.44-0.09,0.64-0.09c0.45,0,0.79,0.11,1.01,0.33c0.23,0.22,0.34,0.57,0.34,1.04v2.68H48.96z
			 M47.85,18.15c0.27,0,0.49-0.09,0.65-0.26c0.16-0.17,0.25-0.41,0.25-0.72v-0.35l-0.45,0.02c-0.35,0.01-0.61,0.08-0.77,0.2
			c-0.16,0.12-0.24,0.3-0.24,0.55c0,0.18,0.05,0.31,0.14,0.41C47.52,18.1,47.66,18.15,47.85,18.15z"/>
		<path class="st5" d="M52.96,17.59c0,0.39-0.13,0.69-0.38,0.89c-0.25,0.21-0.61,0.31-1.08,0.31c-0.47,0-0.85-0.08-1.13-0.24v-0.73
			c0.41,0.22,0.8,0.32,1.16,0.32c0.46,0,0.69-0.16,0.69-0.47c0-0.1-0.03-0.18-0.08-0.25c-0.05-0.07-0.13-0.14-0.25-0.21
			c-0.12-0.07-0.28-0.15-0.49-0.25c-0.41-0.18-0.68-0.36-0.82-0.53s-0.21-0.41-0.21-0.69c0-0.34,0.12-0.61,0.36-0.79
			c0.24-0.19,0.57-0.28,0.99-0.28c0.41,0,0.81,0.1,1.17,0.29l-0.24,0.64c-0.38-0.18-0.7-0.27-0.96-0.27c-0.39,0-0.59,0.13-0.59,0.38
			c0,0.13,0.05,0.23,0.15,0.32c0.1,0.09,0.33,0.21,0.67,0.36c0.29,0.13,0.5,0.24,0.63,0.35c0.13,0.11,0.23,0.23,0.29,0.37
			C52.93,17.23,52.96,17.4,52.96,17.59z"/>
		<path class="st5" d="M55.15,18.11c0.18,0,0.37-0.03,0.55-0.1v0.64c-0.08,0.04-0.19,0.08-0.32,0.1c-0.13,0.03-0.27,0.04-0.41,0.04
			c-0.71,0-1.06-0.42-1.06-1.27v-2.15h-0.48v-0.37l0.52-0.31l0.25-0.84h0.46v0.89h1v0.64h-1v2.13c0,0.2,0.05,0.36,0.14,0.45
			C54.88,18.06,55,18.11,55.15,18.11z"/>
		<path class="st5" d="M58,18.79c-0.55,0-0.98-0.18-1.28-0.54c-0.31-0.36-0.46-0.86-0.46-1.49c0-0.65,0.14-1.16,0.43-1.53
			s0.68-0.56,1.18-0.56c0.46,0,0.83,0.16,1.1,0.48s0.4,0.76,0.4,1.32v0.46h-2.35c0.01,0.39,0.1,0.68,0.28,0.89
			c0.17,0.21,0.42,0.31,0.74,0.31c0.21,0,0.4-0.02,0.58-0.07c0.18-0.04,0.37-0.12,0.58-0.22v0.69c-0.18,0.1-0.37,0.17-0.55,0.21
			C58.45,18.77,58.24,18.79,58,18.79z M57.86,15.31c-0.24,0-0.43,0.08-0.57,0.25c-0.14,0.17-0.23,0.42-0.26,0.75h1.6
			c0-0.33-0.07-0.58-0.21-0.75C58.28,15.39,58.1,15.31,57.86,15.31z"/>
		<path class="st5" d="M62.06,14.67c0.15,0,0.27,0.01,0.37,0.04l-0.07,0.79c-0.11-0.03-0.22-0.04-0.33-0.04
			c-0.3,0-0.54,0.11-0.73,0.33c-0.19,0.22-0.28,0.51-0.28,0.86v2.08h-0.75v-3.98h0.59l0.1,0.7H61c0.12-0.24,0.27-0.43,0.46-0.57
			C61.64,14.74,61.84,14.67,62.06,14.67z"/>
	</g>
	<g>
		<path class="st5" d="M8.02,23.51c0.15,0,0.27,0.01,0.37,0.04l-0.07,0.79c-0.11-0.03-0.22-0.04-0.33-0.04
			c-0.3,0-0.54,0.11-0.73,0.33c-0.19,0.22-0.28,0.51-0.28,0.86v2.08H6.24v-3.98h0.59l0.1,0.7h0.04c0.12-0.24,0.27-0.43,0.46-0.57
			C7.61,23.58,7.81,23.51,8.02,23.51z"/>
		<path class="st5" d="M10.65,27.64c-0.55,0-0.98-0.18-1.28-0.54c-0.31-0.36-0.46-0.86-0.46-1.49c0-0.65,0.14-1.16,0.43-1.53
			s0.68-0.56,1.18-0.56c0.46,0,0.83,0.16,1.1,0.48s0.4,0.76,0.4,1.32v0.46H9.67c0.01,0.39,0.1,0.68,0.28,0.89
			c0.17,0.21,0.42,0.31,0.74,0.31c0.21,0,0.4-0.02,0.58-0.07c0.18-0.04,0.37-0.12,0.58-0.22v0.69c-0.18,0.1-0.37,0.17-0.55,0.21
			C11.1,27.62,10.89,27.64,10.65,27.64z M10.51,24.16c-0.24,0-0.43,0.08-0.57,0.25c-0.14,0.17-0.23,0.42-0.26,0.75h1.6
			c0-0.33-0.07-0.58-0.21-0.75C10.93,24.24,10.75,24.16,10.51,24.16z"/>
		<path class="st5" d="M15.29,26.43c0,0.39-0.13,0.69-0.38,0.89c-0.25,0.21-0.61,0.31-1.08,0.31c-0.47,0-0.85-0.08-1.13-0.24v-0.73
			c0.41,0.22,0.8,0.32,1.16,0.32c0.46,0,0.69-0.16,0.69-0.47c0-0.1-0.03-0.18-0.08-0.25c-0.05-0.07-0.13-0.14-0.25-0.21
			c-0.12-0.07-0.28-0.15-0.49-0.25c-0.41-0.18-0.68-0.36-0.82-0.53s-0.21-0.41-0.21-0.69c0-0.34,0.12-0.61,0.36-0.79
			c0.24-0.19,0.57-0.28,0.99-0.28c0.41,0,0.81,0.1,1.17,0.29l-0.24,0.64c-0.38-0.18-0.7-0.27-0.96-0.27c-0.39,0-0.59,0.13-0.59,0.38
			c0,0.13,0.05,0.23,0.15,0.32c0.1,0.09,0.33,0.21,0.67,0.36c0.29,0.13,0.5,0.24,0.63,0.35c0.13,0.11,0.23,0.23,0.29,0.37
			C15.26,26.08,15.29,26.24,15.29,26.43z"/>
		<path class="st5" d="M16.12,22.53c0-0.15,0.04-0.27,0.11-0.35c0.07-0.08,0.18-0.12,0.31-0.12c0.13,0,0.23,0.04,0.31,0.12
			c0.07,0.08,0.11,0.2,0.11,0.35c0,0.14-0.04,0.26-0.11,0.34C16.78,22.95,16.67,23,16.54,23c-0.14,0-0.24-0.04-0.31-0.13
			C16.15,22.79,16.12,22.68,16.12,22.53z M16.91,27.57h-0.75v-3.98h0.75V27.57z"/>
		<path class="st5" d="M18.79,27.57h-0.75v-5.6h0.75V27.57z"/>
		<path class="st5" d="M19.88,22.53c0-0.15,0.04-0.27,0.11-0.35c0.07-0.08,0.18-0.12,0.31-0.12c0.13,0,0.23,0.04,0.31,0.12
			c0.07,0.08,0.11,0.2,0.11,0.35c0,0.14-0.04,0.26-0.11,0.34C20.54,22.95,20.44,23,20.31,23c-0.14,0-0.24-0.04-0.31-0.13
			C19.92,22.79,19.88,22.68,19.88,22.53z M20.68,27.57h-0.75v-3.98h0.75V27.57z"/>
		<path class="st5" d="M23.35,27.64c-0.55,0-0.98-0.18-1.28-0.54c-0.31-0.36-0.46-0.86-0.46-1.49c0-0.65,0.14-1.16,0.43-1.53
			s0.68-0.56,1.18-0.56c0.46,0,0.83,0.16,1.1,0.48s0.4,0.76,0.4,1.32v0.46h-2.35c0.01,0.39,0.1,0.68,0.28,0.89
			c0.17,0.21,0.42,0.31,0.74,0.31c0.21,0,0.4-0.02,0.58-0.07c0.18-0.04,0.37-0.12,0.58-0.22v0.69c-0.18,0.1-0.37,0.17-0.55,0.21
			C23.8,27.62,23.59,27.64,23.35,27.64z M23.21,24.16c-0.24,0-0.43,0.08-0.57,0.25c-0.14,0.17-0.23,0.42-0.26,0.75h1.6
			c0-0.33-0.07-0.58-0.21-0.75C23.64,24.24,23.45,24.16,23.21,24.16z"/>
		<path class="st5" d="M28.72,27.57h-0.75v-2.45c0-0.31-0.05-0.54-0.16-0.69c-0.11-0.15-0.28-0.23-0.52-0.23
			c-0.32,0-0.55,0.11-0.69,0.32c-0.15,0.21-0.22,0.56-0.22,1.06v1.98h-0.75v-3.98h0.59l0.1,0.52h0.04c0.11-0.19,0.26-0.34,0.45-0.44
			s0.41-0.16,0.65-0.16c0.84,0,1.27,0.49,1.27,1.46V27.57z"/>
		<path class="st5" d="M31.25,27.64c-0.53,0-0.94-0.18-1.21-0.53s-0.42-0.86-0.42-1.51c0-0.67,0.15-1.18,0.43-1.54
			c0.29-0.36,0.71-0.54,1.26-0.54c0.37,0,0.71,0.08,1,0.23l-0.23,0.68c-0.32-0.14-0.58-0.21-0.78-0.21c-0.61,0-0.91,0.46-0.91,1.37
			c0,0.45,0.08,0.78,0.23,1.01c0.15,0.22,0.37,0.34,0.67,0.34c0.33,0,0.65-0.09,0.95-0.28v0.74c-0.13,0.09-0.28,0.15-0.43,0.19
			C31.65,27.62,31.47,27.64,31.25,27.64z"/>
		<path class="st5" d="M34.65,27.64c-0.55,0-0.98-0.18-1.28-0.54c-0.31-0.36-0.46-0.86-0.46-1.49c0-0.65,0.14-1.16,0.43-1.53
			s0.68-0.56,1.18-0.56c0.46,0,0.83,0.16,1.1,0.48s0.4,0.76,0.4,1.32v0.46h-2.35c0.01,0.39,0.1,0.68,0.28,0.89
			c0.17,0.21,0.42,0.31,0.74,0.31c0.21,0,0.4-0.02,0.58-0.07c0.18-0.04,0.37-0.12,0.58-0.22v0.69c-0.18,0.1-0.37,0.17-0.55,0.21
			C35.11,27.62,34.89,27.64,34.65,27.64z M34.52,24.16c-0.24,0-0.43,0.08-0.57,0.25c-0.14,0.17-0.23,0.42-0.26,0.75h1.6
			c0-0.33-0.07-0.58-0.21-0.75C34.94,24.24,34.75,24.16,34.52,24.16z"/>
		<path class="st5" d="M40.89,27.57l-0.15-0.55h-0.03c-0.17,0.24-0.34,0.41-0.51,0.5c-0.17,0.09-0.39,0.13-0.66,0.13
			c-0.35,0-0.62-0.11-0.81-0.32c-0.19-0.21-0.29-0.51-0.29-0.9c0-0.41,0.13-0.72,0.4-0.93c0.27-0.21,0.68-0.32,1.23-0.34l0.61-0.02
			v-0.21c0-0.25-0.05-0.45-0.16-0.57s-0.27-0.19-0.49-0.19c-0.18,0-0.35,0.03-0.52,0.09c-0.17,0.06-0.32,0.13-0.48,0.21l-0.24-0.61
			c0.19-0.11,0.4-0.2,0.63-0.26s0.44-0.09,0.64-0.09c0.45,0,0.79,0.11,1.01,0.33c0.23,0.22,0.34,0.57,0.34,1.04v2.68H40.89z
			 M39.78,26.99c0.27,0,0.49-0.09,0.65-0.26c0.16-0.17,0.25-0.41,0.25-0.72v-0.35l-0.45,0.02c-0.35,0.01-0.61,0.08-0.77,0.2
			c-0.16,0.12-0.24,0.3-0.24,0.55c0,0.18,0.05,0.31,0.14,0.41C39.45,26.94,39.59,26.99,39.78,26.99z"/>
		<path class="st5" d="M45.63,27.57h-0.75v-2.45c0-0.31-0.05-0.54-0.16-0.69c-0.11-0.15-0.28-0.23-0.52-0.23
			c-0.32,0-0.55,0.11-0.69,0.32c-0.15,0.21-0.22,0.56-0.22,1.06v1.98h-0.75v-3.98h0.59l0.1,0.52h0.04c0.11-0.19,0.26-0.34,0.45-0.44
			s0.41-0.16,0.65-0.16c0.84,0,1.27,0.49,1.27,1.46V27.57z"/>
		<path class="st5" d="M47.92,27.64c-0.44,0-0.78-0.18-1.03-0.54c-0.25-0.36-0.37-0.87-0.37-1.52c0-0.65,0.12-1.16,0.37-1.52
			s0.59-0.55,1.04-0.55c0.46,0,0.81,0.19,1.06,0.58h0.04c-0.04-0.29-0.05-0.51-0.05-0.68v-1.45h0.75v5.6h-0.59l-0.13-0.52h-0.04
			C48.73,27.44,48.38,27.64,47.92,27.64z M48.12,26.96c0.31,0,0.53-0.1,0.67-0.29s0.21-0.51,0.22-0.95v-0.12
			c0-0.5-0.07-0.86-0.22-1.07c-0.14-0.21-0.37-0.32-0.68-0.32c-0.26,0-0.47,0.12-0.61,0.36c-0.14,0.24-0.21,0.58-0.21,1.03
			c0,0.44,0.07,0.78,0.21,1.01C47.64,26.84,47.85,26.96,48.12,26.96z"/>
	</g>
	<g>
		<path class="st5" d="M8.6,35.28c0,0.39-0.13,0.69-0.38,0.89c-0.25,0.21-0.61,0.31-1.08,0.31c-0.47,0-0.85-0.08-1.13-0.24v-0.73
			c0.41,0.22,0.8,0.32,1.16,0.32c0.46,0,0.69-0.16,0.69-0.47c0-0.1-0.03-0.18-0.08-0.25c-0.05-0.07-0.13-0.14-0.25-0.21
			c-0.12-0.07-0.28-0.15-0.49-0.25c-0.41-0.18-0.68-0.36-0.82-0.53s-0.21-0.41-0.21-0.69c0-0.34,0.12-0.61,0.36-0.79
			c0.24-0.19,0.57-0.28,0.99-0.28c0.41,0,0.81,0.1,1.17,0.29L8.3,33.28c-0.38-0.18-0.7-0.27-0.96-0.27c-0.39,0-0.59,0.13-0.59,0.38
			c0,0.13,0.05,0.23,0.15,0.32c0.1,0.09,0.33,0.21,0.67,0.36c0.29,0.13,0.5,0.24,0.63,0.35c0.13,0.11,0.23,0.23,0.29,0.37
			C8.57,34.92,8.6,35.09,8.6,35.28z"/>
		<path class="st5" d="M11.96,36.41l-0.1-0.52h-0.04c-0.1,0.18-0.25,0.33-0.44,0.44c-0.19,0.11-0.41,0.16-0.66,0.16
			c-0.43,0-0.74-0.12-0.96-0.36c-0.21-0.24-0.31-0.6-0.31-1.09v-2.6h0.75v2.46c0,0.3,0.06,0.53,0.17,0.69s0.28,0.23,0.52,0.23
			c0.31,0,0.54-0.11,0.69-0.32c0.15-0.21,0.22-0.57,0.22-1.07v-1.98h0.75v3.98H11.96z"/>
		<path class="st5" d="M16.05,35.28c0,0.39-0.13,0.69-0.38,0.89c-0.25,0.21-0.61,0.31-1.08,0.31c-0.47,0-0.85-0.08-1.13-0.24v-0.73
			c0.41,0.22,0.8,0.32,1.16,0.32c0.46,0,0.69-0.16,0.69-0.47c0-0.1-0.03-0.18-0.08-0.25c-0.05-0.07-0.13-0.14-0.25-0.21
			c-0.12-0.07-0.28-0.15-0.49-0.25c-0.41-0.18-0.68-0.36-0.82-0.53s-0.21-0.41-0.21-0.69c0-0.34,0.12-0.61,0.36-0.79
			c0.24-0.19,0.57-0.28,0.99-0.28c0.41,0,0.81,0.1,1.17,0.29l-0.24,0.64c-0.38-0.18-0.7-0.27-0.96-0.27c-0.39,0-0.59,0.13-0.59,0.38
			c0,0.13,0.05,0.23,0.15,0.32c0.1,0.09,0.33,0.21,0.67,0.36c0.29,0.13,0.5,0.24,0.63,0.35c0.13,0.11,0.23,0.23,0.29,0.37
			C16.01,34.92,16.05,35.09,16.05,35.28z"/>
		<path class="st5" d="M18.23,35.8c0.18,0,0.37-0.03,0.55-0.1v0.64c-0.08,0.04-0.19,0.08-0.32,0.1c-0.13,0.03-0.27,0.04-0.41,0.04
			c-0.71,0-1.06-0.42-1.06-1.27v-2.15h-0.48V32.7l0.52-0.31l0.25-0.84h0.46v0.89h1v0.64h-1v2.13c0,0.2,0.05,0.36,0.14,0.45
			C17.97,35.75,18.09,35.8,18.23,35.8z"/>
		<path class="st5" d="M21.74,36.41l-0.15-0.55h-0.03c-0.17,0.24-0.34,0.41-0.51,0.5c-0.17,0.09-0.39,0.13-0.66,0.13
			c-0.35,0-0.62-0.11-0.81-0.32c-0.19-0.21-0.29-0.51-0.29-0.9c0-0.41,0.13-0.72,0.4-0.93c0.27-0.21,0.68-0.32,1.23-0.34l0.61-0.02
			v-0.21c0-0.25-0.05-0.45-0.16-0.57s-0.27-0.19-0.49-0.19c-0.18,0-0.35,0.03-0.52,0.09c-0.17,0.06-0.32,0.13-0.48,0.21l-0.24-0.61
			c0.19-0.11,0.4-0.2,0.63-0.26s0.44-0.09,0.64-0.09c0.45,0,0.79,0.11,1.01,0.33c0.23,0.22,0.34,0.57,0.34,1.04v2.68H21.74z
			 M20.63,35.84c0.27,0,0.49-0.09,0.65-0.26c0.16-0.17,0.25-0.41,0.25-0.72v-0.35l-0.45,0.02c-0.35,0.01-0.61,0.08-0.77,0.2
			c-0.16,0.12-0.24,0.3-0.24,0.55c0,0.18,0.05,0.31,0.14,0.41C20.3,35.79,20.44,35.84,20.63,35.84z"/>
		<path class="st5" d="M23.34,31.38c0-0.15,0.04-0.27,0.11-0.35c0.07-0.08,0.18-0.12,0.31-0.12c0.13,0,0.23,0.04,0.31,0.12
			c0.07,0.08,0.11,0.2,0.11,0.35c0,0.14-0.04,0.26-0.11,0.34c-0.07,0.08-0.18,0.13-0.31,0.13c-0.14,0-0.24-0.04-0.31-0.13
			C23.37,31.64,23.34,31.52,23.34,31.38z M24.13,36.41h-0.75v-3.98h0.75V36.41z"/>
		<path class="st5" d="M28.36,36.41h-0.75v-2.45c0-0.31-0.05-0.54-0.16-0.69c-0.11-0.15-0.28-0.23-0.52-0.23
			c-0.32,0-0.55,0.11-0.69,0.32c-0.15,0.21-0.22,0.56-0.22,1.06v1.98h-0.75v-3.98h0.59l0.1,0.52h0.04c0.11-0.19,0.26-0.34,0.45-0.44
			s0.41-0.16,0.65-0.16c0.84,0,1.27,0.49,1.27,1.46V36.41z"/>
		<path class="st5" d="M31.67,36.41l-0.15-0.55H31.5c-0.17,0.24-0.34,0.41-0.51,0.5c-0.17,0.09-0.39,0.13-0.66,0.13
			c-0.35,0-0.62-0.11-0.81-0.32c-0.19-0.21-0.29-0.51-0.29-0.9c0-0.41,0.13-0.72,0.4-0.93c0.27-0.21,0.68-0.32,1.23-0.34l0.61-0.02
			v-0.21c0-0.25-0.05-0.45-0.16-0.57s-0.27-0.19-0.49-0.19c-0.18,0-0.35,0.03-0.52,0.09c-0.17,0.06-0.32,0.13-0.48,0.21l-0.24-0.61
			c0.19-0.11,0.4-0.2,0.63-0.26s0.44-0.09,0.64-0.09c0.45,0,0.79,0.11,1.01,0.33c0.23,0.22,0.34,0.57,0.34,1.04v2.68H31.67z
			 M30.56,35.84c0.27,0,0.49-0.09,0.65-0.26c0.16-0.17,0.25-0.41,0.25-0.72v-0.35l-0.45,0.02c-0.35,0.01-0.61,0.08-0.77,0.2
			c-0.16,0.12-0.24,0.3-0.24,0.55c0,0.18,0.05,0.31,0.14,0.41C30.23,35.79,30.37,35.84,30.56,35.84z"/>
		<path class="st5" d="M35.11,32.36c0.44,0,0.78,0.18,1.03,0.54c0.25,0.36,0.37,0.87,0.37,1.52c0,0.65-0.12,1.16-0.37,1.52
			c-0.25,0.36-0.59,0.55-1.03,0.55c-0.45,0-0.79-0.18-1.04-0.54h-0.05l-0.14,0.47h-0.56v-5.6h0.75v1.33c0,0.1,0,0.25-0.01,0.44
			c-0.01,0.19-0.01,0.32-0.02,0.37h0.03C34.29,32.56,34.64,32.36,35.11,32.36z M34.91,33.05c-0.3,0-0.52,0.1-0.65,0.3
			c-0.13,0.2-0.2,0.54-0.21,1.01v0.06c0,0.49,0.07,0.84,0.2,1.05c0.14,0.22,0.36,0.33,0.67,0.33c0.27,0,0.47-0.12,0.6-0.36
			c0.14-0.24,0.21-0.58,0.21-1.03C35.73,33.5,35.46,33.05,34.91,33.05z"/>
		<path class="st5" d="M38.18,36.41h-0.75v-5.6h0.75V36.41z"/>
		<path class="st5" d="M40.85,36.49c-0.55,0-0.98-0.18-1.28-0.54c-0.31-0.36-0.46-0.86-0.46-1.49c0-0.65,0.14-1.16,0.43-1.53
			s0.68-0.56,1.18-0.56c0.46,0,0.83,0.16,1.1,0.48s0.4,0.76,0.4,1.32v0.46h-2.35c0.01,0.39,0.1,0.68,0.28,0.89
			c0.17,0.21,0.42,0.31,0.74,0.31c0.21,0,0.4-0.02,0.58-0.07c0.18-0.04,0.37-0.12,0.58-0.22v0.69c-0.18,0.1-0.37,0.17-0.55,0.21
			C41.3,36.47,41.09,36.49,40.85,36.49z M40.71,33c-0.24,0-0.43,0.08-0.57,0.25C40,33.43,39.91,33.68,39.89,34h1.6
			c0-0.33-0.07-0.58-0.21-0.75C41.14,33.09,40.95,33,40.71,33z"/>
		<path class="st5" d="M46.67,36.49c-0.45,0-0.79-0.18-1.04-0.54h-0.04c0.03,0.34,0.04,0.54,0.04,0.61v1.63h-0.75v-5.75h0.6
			c0.02,0.07,0.05,0.25,0.1,0.53h0.04c0.23-0.4,0.58-0.61,1.05-0.61c0.44,0,0.78,0.18,1.03,0.54c0.25,0.36,0.37,0.87,0.37,1.52
			s-0.12,1.16-0.37,1.52C47.45,36.3,47.11,36.49,46.67,36.49z M46.49,33.05c-0.3,0-0.51,0.1-0.65,0.29
			c-0.14,0.2-0.21,0.51-0.21,0.94v0.13c0,0.49,0.07,0.84,0.2,1.05c0.14,0.22,0.36,0.33,0.67,0.33c0.26,0,0.46-0.12,0.6-0.36
			c0.14-0.24,0.21-0.58,0.21-1.03c0-0.45-0.07-0.78-0.21-1.01C46.96,33.17,46.76,33.05,46.49,33.05z"/>
		<path class="st5" d="M50.79,32.36c0.15,0,0.27,0.01,0.37,0.04l-0.07,0.79c-0.11-0.03-0.22-0.04-0.33-0.04
			c-0.3,0-0.54,0.11-0.73,0.33c-0.19,0.22-0.28,0.51-0.28,0.86v2.08h-0.75v-3.98h0.59l0.1,0.7h0.04c0.12-0.24,0.27-0.43,0.46-0.57
			C50.37,32.43,50.58,32.36,50.79,32.36z"/>
		<path class="st5" d="M54.08,36.41l-0.15-0.55H53.9c-0.17,0.24-0.34,0.41-0.51,0.5c-0.17,0.09-0.39,0.13-0.66,0.13
			c-0.35,0-0.62-0.11-0.81-0.32c-0.19-0.21-0.29-0.51-0.29-0.9c0-0.41,0.13-0.72,0.4-0.93c0.27-0.21,0.68-0.32,1.23-0.34l0.61-0.02
			v-0.21c0-0.25-0.05-0.45-0.16-0.57s-0.27-0.19-0.49-0.19c-0.18,0-0.35,0.03-0.52,0.09c-0.17,0.06-0.32,0.13-0.48,0.21l-0.24-0.61
			c0.19-0.11,0.4-0.2,0.63-0.26s0.44-0.09,0.64-0.09c0.45,0,0.79,0.11,1.01,0.33c0.23,0.22,0.34,0.57,0.34,1.04v2.68H54.08z
			 M52.97,35.84c0.27,0,0.49-0.09,0.65-0.26c0.16-0.17,0.25-0.41,0.25-0.72v-0.35l-0.45,0.02c-0.35,0.01-0.61,0.08-0.77,0.2
			c-0.16,0.12-0.24,0.3-0.24,0.55c0,0.18,0.05,0.31,0.14,0.41C52.64,35.79,52.78,35.84,52.97,35.84z"/>
		<path class="st5" d="M57.14,36.49c-0.53,0-0.94-0.18-1.21-0.53s-0.42-0.86-0.42-1.51c0-0.67,0.15-1.18,0.43-1.54
			c0.29-0.36,0.71-0.54,1.26-0.54c0.37,0,0.71,0.08,1,0.23l-0.23,0.68c-0.32-0.14-0.58-0.21-0.78-0.21c-0.61,0-0.91,0.46-0.91,1.37
			c0,0.45,0.08,0.78,0.23,1.01c0.15,0.22,0.37,0.34,0.67,0.34c0.33,0,0.65-0.09,0.95-0.28v0.74c-0.13,0.09-0.28,0.15-0.43,0.19
			C57.54,36.47,57.35,36.49,57.14,36.49z"/>
		<path class="st5" d="M60.31,35.8c0.18,0,0.37-0.03,0.55-0.1v0.64c-0.08,0.04-0.19,0.08-0.32,0.1c-0.13,0.03-0.27,0.04-0.41,0.04
			c-0.71,0-1.06-0.42-1.06-1.27v-2.15h-0.48V32.7l0.52-0.31l0.25-0.84h0.46v0.89h1v0.64h-1v2.13c0,0.2,0.05,0.36,0.14,0.45
			C60.05,35.75,60.17,35.8,60.31,35.8z"/>
		<path class="st5" d="M61.58,31.38c0-0.15,0.04-0.27,0.11-0.35c0.07-0.08,0.18-0.12,0.31-0.12c0.13,0,0.23,0.04,0.31,0.12
			c0.07,0.08,0.11,0.2,0.11,0.35c0,0.14-0.04,0.26-0.11,0.34c-0.07,0.08-0.18,0.13-0.31,0.13c-0.14,0-0.24-0.04-0.31-0.13
			C61.62,31.64,61.58,31.52,61.58,31.38z M62.37,36.41h-0.75v-3.98h0.75V36.41z"/>
		<path class="st5" d="M64.93,36.49c-0.53,0-0.94-0.18-1.21-0.53s-0.42-0.86-0.42-1.51c0-0.67,0.15-1.18,0.43-1.54
			c0.29-0.36,0.71-0.54,1.26-0.54c0.37,0,0.71,0.08,1,0.23l-0.23,0.68c-0.32-0.14-0.58-0.21-0.78-0.21c-0.61,0-0.91,0.46-0.91,1.37
			c0,0.45,0.08,0.78,0.23,1.01c0.15,0.22,0.37,0.34,0.67,0.34c0.33,0,0.65-0.09,0.95-0.28v0.74c-0.13,0.09-0.28,0.15-0.43,0.19
			C65.33,36.47,65.14,36.49,64.93,36.49z"/>
		<path class="st5" d="M68.33,36.49c-0.55,0-0.98-0.18-1.28-0.54c-0.31-0.36-0.46-0.86-0.46-1.49c0-0.65,0.14-1.16,0.43-1.53
			s0.68-0.56,1.18-0.56c0.46,0,0.83,0.16,1.1,0.48s0.4,0.76,0.4,1.32v0.46h-2.35c0.01,0.39,0.1,0.68,0.28,0.89
			c0.17,0.21,0.42,0.31,0.74,0.31c0.21,0,0.4-0.02,0.58-0.07c0.18-0.04,0.37-0.12,0.58-0.22v0.69c-0.18,0.1-0.37,0.17-0.55,0.21
			C68.78,36.47,68.57,36.49,68.33,36.49z M68.2,33c-0.24,0-0.43,0.08-0.57,0.25c-0.14,0.17-0.23,0.42-0.26,0.75h1.6
			c0-0.33-0.07-0.58-0.21-0.75C68.62,33.09,68.43,33,68.2,33z"/>
		<path class="st5" d="M72.97,35.28c0,0.39-0.13,0.69-0.38,0.89c-0.25,0.21-0.61,0.31-1.08,0.31c-0.47,0-0.85-0.08-1.13-0.24v-0.73
			c0.41,0.22,0.8,0.32,1.16,0.32c0.46,0,0.69-0.16,0.69-0.47c0-0.1-0.03-0.18-0.08-0.25c-0.05-0.07-0.13-0.14-0.25-0.21
			c-0.12-0.07-0.28-0.15-0.49-0.25c-0.41-0.18-0.68-0.36-0.82-0.53s-0.21-0.41-0.21-0.69c0-0.34,0.12-0.61,0.36-0.79
			c0.24-0.19,0.57-0.28,0.99-0.28c0.41,0,0.81,0.1,1.17,0.29l-0.24,0.64c-0.38-0.18-0.7-0.27-0.96-0.27c-0.39,0-0.59,0.13-0.59,0.38
			c0,0.13,0.05,0.23,0.15,0.32c0.1,0.09,0.33,0.21,0.67,0.36c0.29,0.13,0.5,0.24,0.63,0.35c0.13,0.11,0.23,0.23,0.29,0.37
			C72.94,34.92,72.97,35.09,72.97,35.28z"/>
	</g>
	<g>
		<path class="st5" d="M6.19,40.23c0-0.15,0.04-0.27,0.11-0.35c0.07-0.08,0.18-0.12,0.31-0.12c0.13,0,0.23,0.04,0.31,0.12
			c0.07,0.08,0.11,0.2,0.11,0.35c0,0.14-0.04,0.26-0.11,0.34c-0.07,0.08-0.18,0.13-0.31,0.13c-0.14,0-0.24-0.04-0.31-0.13
			C6.23,40.48,6.19,40.37,6.19,40.23z M6.99,45.26H6.24v-3.98h0.75V45.26z"/>
		<path class="st5" d="M11.22,45.26h-0.75v-2.45c0-0.31-0.05-0.54-0.16-0.69c-0.11-0.15-0.28-0.23-0.52-0.23
			c-0.32,0-0.55,0.11-0.69,0.32c-0.15,0.21-0.22,0.56-0.22,1.06v1.98H8.12v-3.98h0.59l0.1,0.52h0.04c0.11-0.19,0.26-0.34,0.45-0.44
			s0.41-0.16,0.65-0.16c0.84,0,1.27,0.49,1.27,1.46V45.26z"/>
		<path class="st5" d="M17.21,43.26c0,0.65-0.15,1.16-0.44,1.52c-0.29,0.37-0.71,0.55-1.23,0.55c-0.33,0-0.62-0.08-0.87-0.25
			s-0.45-0.41-0.58-0.72s-0.2-0.68-0.2-1.09c0-0.65,0.15-1.15,0.44-1.51c0.29-0.36,0.71-0.54,1.24-0.54c0.51,0,0.91,0.19,1.21,0.56
			C17.06,42.14,17.21,42.63,17.21,43.26z M14.64,43.26c0,0.92,0.3,1.38,0.9,1.38c0.59,0,0.89-0.46,0.89-1.38
			c0-0.91-0.3-1.36-0.9-1.36c-0.31,0-0.54,0.12-0.68,0.35C14.71,42.49,14.64,42.82,14.64,43.26z"/>
		<path class="st5" d="M20.61,45.26l-0.1-0.52h-0.04c-0.1,0.18-0.25,0.33-0.44,0.44c-0.19,0.11-0.41,0.16-0.66,0.16
			c-0.43,0-0.74-0.12-0.96-0.36c-0.21-0.24-0.31-0.6-0.31-1.09v-2.6h0.75v2.46c0,0.3,0.06,0.53,0.17,0.69s0.28,0.23,0.52,0.23
			c0.31,0,0.54-0.11,0.69-0.32c0.15-0.21,0.22-0.57,0.22-1.07v-1.98h0.75v3.98H20.61z"/>
		<path class="st5" d="M24.12,41.21c0.15,0,0.27,0.01,0.37,0.04l-0.07,0.79c-0.11-0.03-0.22-0.04-0.33-0.04
			c-0.3,0-0.54,0.11-0.73,0.33c-0.19,0.22-0.28,0.51-0.28,0.86v2.08h-0.75v-3.98h0.59l0.1,0.7h0.04c0.12-0.24,0.27-0.43,0.46-0.57
			C23.7,41.28,23.9,41.21,24.12,41.21z"/>
		<path class="st5" d="M30.09,43.26c0,0.65-0.15,1.16-0.44,1.52c-0.29,0.37-0.71,0.55-1.23,0.55c-0.33,0-0.62-0.08-0.87-0.25
			s-0.45-0.41-0.58-0.72s-0.2-0.68-0.2-1.09c0-0.65,0.15-1.15,0.44-1.51c0.29-0.36,0.71-0.54,1.24-0.54c0.51,0,0.91,0.19,1.21,0.56
			C29.94,42.14,30.09,42.63,30.09,43.26z M27.52,43.26c0,0.92,0.3,1.38,0.9,1.38c0.59,0,0.89-0.46,0.89-1.38
			c0-0.91-0.3-1.36-0.9-1.36c-0.31,0-0.54,0.12-0.68,0.35C27.59,42.49,27.52,42.82,27.52,43.26z"/>
		<path class="st5" d="M32.8,45.33c-0.45,0-0.79-0.18-1.04-0.54h-0.04c0.03,0.34,0.04,0.54,0.04,0.61v1.63h-0.75v-5.75h0.6
			c0.02,0.07,0.05,0.25,0.1,0.53h0.04c0.23-0.4,0.58-0.61,1.05-0.61c0.44,0,0.78,0.18,1.03,0.54c0.25,0.36,0.37,0.87,0.37,1.52
			s-0.12,1.16-0.37,1.52C33.58,45.15,33.24,45.33,32.8,45.33z M32.61,41.9c-0.3,0-0.51,0.1-0.65,0.29c-0.14,0.2-0.21,0.51-0.21,0.94
			v0.13c0,0.49,0.07,0.84,0.2,1.05c0.14,0.22,0.36,0.33,0.67,0.33c0.26,0,0.46-0.12,0.6-0.36c0.14-0.24,0.21-0.58,0.21-1.03
			c0-0.45-0.07-0.78-0.21-1.01C33.09,42.01,32.88,41.9,32.61,41.9z"/>
		<path class="st5" d="M36.67,45.33c-0.55,0-0.98-0.18-1.28-0.54c-0.31-0.36-0.46-0.86-0.46-1.49c0-0.65,0.14-1.16,0.43-1.53
			s0.68-0.56,1.18-0.56c0.46,0,0.83,0.16,1.1,0.48s0.4,0.76,0.4,1.32v0.46h-2.35c0.01,0.39,0.1,0.68,0.28,0.89
			c0.17,0.21,0.42,0.31,0.74,0.31c0.21,0,0.4-0.02,0.58-0.07c0.18-0.04,0.37-0.12,0.58-0.22v0.69c-0.18,0.1-0.37,0.17-0.55,0.21
			C37.12,45.31,36.91,45.33,36.67,45.33z M36.53,41.85c-0.24,0-0.43,0.08-0.57,0.25c-0.14,0.17-0.23,0.42-0.26,0.75h1.6
			c0-0.33-0.07-0.58-0.21-0.75C36.96,41.93,36.77,41.85,36.53,41.85z"/>
		<path class="st5" d="M40.73,41.21c0.15,0,0.27,0.01,0.37,0.04l-0.07,0.79c-0.11-0.03-0.22-0.04-0.33-0.04
			c-0.3,0-0.54,0.11-0.73,0.33c-0.19,0.22-0.28,0.51-0.28,0.86v2.08h-0.75v-3.98h0.59l0.1,0.7h0.04c0.12-0.24,0.27-0.43,0.46-0.57
			C40.31,41.28,40.52,41.21,40.73,41.21z"/>
		<path class="st5" d="M44.02,45.26l-0.15-0.55h-0.03c-0.17,0.24-0.34,0.41-0.51,0.5c-0.17,0.09-0.39,0.13-0.66,0.13
			c-0.35,0-0.62-0.11-0.81-0.32c-0.19-0.21-0.29-0.51-0.29-0.9c0-0.41,0.13-0.72,0.4-0.93c0.27-0.21,0.68-0.32,1.23-0.34l0.61-0.02
			v-0.21c0-0.25-0.05-0.45-0.16-0.57s-0.27-0.19-0.49-0.19c-0.18,0-0.35,0.03-0.52,0.09c-0.17,0.06-0.32,0.13-0.48,0.21l-0.24-0.61
			c0.19-0.11,0.4-0.2,0.63-0.26s0.44-0.09,0.64-0.09c0.45,0,0.79,0.11,1.01,0.33c0.23,0.22,0.34,0.57,0.34,1.04v2.68H44.02z
			 M42.9,44.69c0.27,0,0.49-0.09,0.65-0.26c0.16-0.17,0.25-0.41,0.25-0.72v-0.35l-0.45,0.02c-0.35,0.01-0.61,0.08-0.77,0.2
			c-0.16,0.12-0.24,0.3-0.24,0.55c0,0.18,0.05,0.31,0.14,0.41C42.58,44.64,42.72,44.69,42.9,44.69z"/>
		<path class="st5" d="M46.97,44.65c0.18,0,0.37-0.03,0.55-0.1v0.64c-0.08,0.04-0.19,0.08-0.32,0.1c-0.13,0.03-0.27,0.04-0.41,0.04
			c-0.71,0-1.06-0.42-1.06-1.27v-2.15h-0.48v-0.37l0.52-0.31l0.25-0.84h0.46v0.89h1v0.64h-1v2.13c0,0.2,0.05,0.36,0.14,0.45
			C46.7,44.6,46.82,44.65,46.97,44.65z"/>
		<path class="st5" d="M48.23,40.23c0-0.15,0.04-0.27,0.11-0.35c0.07-0.08,0.18-0.12,0.31-0.12c0.13,0,0.23,0.04,0.31,0.12
			c0.07,0.08,0.11,0.2,0.11,0.35c0,0.14-0.04,0.26-0.11,0.34c-0.07,0.08-0.18,0.13-0.31,0.13c-0.14,0-0.24-0.04-0.31-0.13
			C48.27,40.48,48.23,40.37,48.23,40.23z M49.03,45.26h-0.75v-3.98h0.75V45.26z"/>
		<path class="st5" d="M53.28,43.26c0,0.65-0.15,1.16-0.44,1.52c-0.29,0.37-0.71,0.55-1.23,0.55c-0.33,0-0.62-0.08-0.87-0.25
			s-0.45-0.41-0.58-0.72s-0.2-0.68-0.2-1.09c0-0.65,0.15-1.15,0.44-1.51c0.29-0.36,0.71-0.54,1.24-0.54c0.51,0,0.91,0.19,1.21,0.56
			C53.13,42.14,53.28,42.63,53.28,43.26z M50.72,43.26c0,0.92,0.3,1.38,0.9,1.38c0.59,0,0.89-0.46,0.89-1.38
			c0-0.91-0.3-1.36-0.9-1.36c-0.31,0-0.54,0.12-0.68,0.35C50.79,42.49,50.72,42.82,50.72,43.26z"/>
		<path class="st5" d="M57.31,45.26h-0.75v-2.45c0-0.31-0.05-0.54-0.16-0.69c-0.11-0.15-0.28-0.23-0.52-0.23
			c-0.32,0-0.55,0.11-0.69,0.32c-0.15,0.21-0.22,0.56-0.22,1.06v1.98h-0.75v-3.98h0.59l0.1,0.52h0.04c0.11-0.19,0.26-0.34,0.45-0.44
			s0.41-0.16,0.65-0.16c0.84,0,1.27,0.49,1.27,1.46V45.26z"/>
		<path class="st5" d="M60.78,44.13c0,0.39-0.13,0.69-0.38,0.89c-0.25,0.21-0.61,0.31-1.08,0.31c-0.47,0-0.85-0.08-1.13-0.24v-0.73
			c0.41,0.22,0.8,0.32,1.16,0.32c0.46,0,0.69-0.16,0.69-0.47c0-0.1-0.03-0.18-0.08-0.25c-0.05-0.07-0.13-0.14-0.25-0.21
			c-0.12-0.07-0.28-0.15-0.49-0.25c-0.41-0.18-0.68-0.36-0.82-0.53s-0.21-0.41-0.21-0.69c0-0.34,0.12-0.61,0.36-0.79
			c0.24-0.19,0.57-0.28,0.99-0.28c0.41,0,0.81,0.1,1.17,0.29l-0.24,0.64c-0.38-0.18-0.7-0.27-0.96-0.27c-0.39,0-0.59,0.13-0.59,0.38
			c0,0.13,0.05,0.23,0.15,0.32c0.1,0.09,0.33,0.21,0.67,0.36c0.29,0.13,0.5,0.24,0.63,0.35c0.13,0.11,0.23,0.23,0.29,0.37
			C60.74,43.77,60.78,43.94,60.78,44.13z"/>
	</g>
</g>
<g>
	<path class="st12" d="M454.28-598.54v-15 M-141-598.54v-15 M460.28,249.35h15 M-147,249.35h-15 M460.28-592.54h15 M-147-592.54h-15
		"/>
	<path class="st13" d="M454.28-598.54v-15 M-141-598.54v-15 M460.28,249.35h15 M-147,249.35h-15 M460.28-592.54h15 M-147-592.54h-15
		"/>
</g>
</svg>
