<?xml version="1.0" encoding="utf-8"?>
<!-- Generator: Adobe Illustrator 24.3.0, SVG Export Plug-In . SVG Version: 6.00 Build 0)  -->
<svg version="1.1" id="Layer_1" xmlns="http://www.w3.org/2000/svg" xmlns:xlink="http://www.w3.org/1999/xlink" x="0px" y="0px"
	 viewBox="0 0 89.4 280.01" style="enable-background:new 0 0 89.4 280.01;" xml:space="preserve">
<style type="text/css">
	.st0{fill:#F7F5F2;}
	.st1{fill:#F1EEE9;}
	.st2{fill:#A0926A;}
	.st3{fill:#0092B2;}
	.st4{fill:#1568A1;}
	.st5{fill:#FFFFFF;}
	.st6{fill:#2D77AA;}
	.st7{fill:#32A7C2;}
	.st8{fill:#AA9D78;}
	.st9{fill:#A1A94F;}
	.st10{fill:#8B9638;}
	.st11{fill:none;stroke:#A0926A;}
	.st12{fill:none;stroke:#FFFFFF;stroke-width:1.25;stroke-miterlimit:10;}
	.st13{fill:none;stroke:#000000;stroke-width:0.25;stroke-miterlimit:10;}
	.st14{fill:#DDDEE0;}
	.st15{fill:#E8F0F5;}
	.st16{fill:#D1E1EB;}
	.st17{fill:#F7F5F1;}
	.st18{fill:#ECE9E1;}
	.st19{fill:#F4F4E9;}
	.st20{fill:#E6F5F8;}
	.st21{fill:none;stroke:#FFFFFF;stroke-width:0.25;stroke-miterlimit:10;}
	.st22{fill:#282829;}
	.st23{fill:none;stroke:#FFFFFF;stroke-width:0.3;stroke-miterlimit:10;}
	.st24{fill:none;stroke:#FFFFFF;stroke-width:0.447;stroke-miterlimit:10;}
	.st25{fill:none;stroke:#FFFFFF;stroke-width:0.652;stroke-miterlimit:10;}
	.st26{fill:none;stroke:#FFFFFF;stroke-width:0.558;stroke-miterlimit:10;}
	.st27{fill:none;stroke:#FFFFFF;stroke-width:0.363;stroke-miterlimit:10;}
	.st28{fill:none;stroke:#FFFFFF;stroke-width:0.628;stroke-linecap:round;stroke-linejoin:round;stroke-miterlimit:22.926;}
	.st29{clip-path:url(#SVGID_2_);fill:#ECE9E1;}
	.st30{clip-path:url(#SVGID_2_);fill:#F7F5F1;}
	.st31{clip-path:url(#SVGID_2_);fill:#FFFFFF;}
	.st32{fill:none;stroke:#A0926A;stroke-width:1.5;}
	.st33{fill:none;stroke:#FFFFFF;stroke-width:0.333;stroke-miterlimit:10;}
	.st34{fill:none;stroke:#FFFFFF;stroke-width:0.497;stroke-miterlimit:10;}
	.st35{fill:none;stroke:#FFFFFF;stroke-width:0.724;stroke-miterlimit:10;}
	.st36{fill:none;stroke:#FFFFFF;stroke-width:0.62;stroke-miterlimit:10;}
	.st37{fill:none;stroke:#FFFFFF;stroke-width:0.4;stroke-miterlimit:10;}
	.st38{fill:none;stroke:#FFFFFF;stroke-width:0.403;stroke-miterlimit:10;}
	.st39{fill:#B4A888;}
	.st40{fill:none;stroke:#FFFFFF;stroke-miterlimit:10;}
	.st41{fill:none;stroke:#A0926A;stroke-width:1.19;stroke-linejoin:round;stroke-miterlimit:10;}
	.st42{fill:none;stroke:#A0926A;stroke-width:1.265;stroke-miterlimit:10;}
	.st43{fill:none;stroke:#A0926A;stroke-width:1.265;stroke-linecap:round;stroke-linejoin:round;stroke-miterlimit:10;}
	.st44{fill:none;stroke:#A0926A;stroke-width:1.265;stroke-linejoin:round;stroke-miterlimit:10;}
	.st45{fill:none;stroke:#A0926A;stroke-width:1.22;stroke-linecap:round;stroke-linejoin:round;stroke-miterlimit:22.926;}
	.st46{fill:none;stroke:#A0926A;stroke-width:1.314;stroke-linecap:round;stroke-linejoin:round;stroke-miterlimit:22.926;}
	.st47{clip-path:url(#SVGID_4_);}
	.st48{clip-path:url(#SVGID_4_);fill:#B4A888;}
	.st49{clip-path:url(#SVGID_4_);fill:#F7F5F1;}
	.st50{clip-path:url(#SVGID_4_);fill:#ECE9E1;}
	.st51{clip-path:url(#SVGID_4_);fill:none;stroke:#FFFFFF;stroke-miterlimit:10;}
	
		.st52{clip-path:url(#SVGID_8_);fill:none;stroke:#A0926A;stroke-width:1.148;stroke-linecap:round;stroke-linejoin:round;stroke-miterlimit:10;}
	
		.st53{clip-path:url(#SVGID_4_);fill:none;stroke:#A0926A;stroke-width:1.148;stroke-linecap:round;stroke-linejoin:round;stroke-miterlimit:10;stroke-dasharray:0.047,2.088;}
	
		.st54{clip-path:url(#SVGID_4_);fill:none;stroke:#A0926A;stroke-width:1.148;stroke-linecap:round;stroke-linejoin:round;stroke-miterlimit:10;}
	.st55{clip-path:url(#SVGID_4_);fill:#282829;}
	.st56{clip-path:url(#SVGID_10_);fill:none;stroke:#A0926A;stroke-width:1.397;stroke-miterlimit:10;}
	.st57{clip-path:url(#SVGID_10_);fill:none;stroke:#A0926A;stroke-width:1.397;stroke-linejoin:round;stroke-miterlimit:10;}
	
		.st58{clip-path:url(#SVGID_12_);fill:none;stroke:#A0926A;stroke-width:1.252;stroke-linecap:round;stroke-linejoin:round;stroke-miterlimit:10;}
	.st59{clip-path:url(#SVGID_14_);fill:none;stroke:#A0926A;stroke-width:1.2112;stroke-linejoin:round;stroke-miterlimit:10;}
	.st60{clip-path:url(#SVGID_16_);fill:none;stroke:#FFFFFF;stroke-width:1.25;stroke-miterlimit:10;}
	.st61{clip-path:url(#SVGID_16_);fill:none;stroke:#000000;stroke-width:0.25;stroke-miterlimit:10;}
	.st62{clip-path:url(#SVGID_16_);fill:none;stroke:#FFFFFF;stroke-width:0.4;stroke-miterlimit:10;}
	.st63{clip-path:url(#SVGID_18_);fill:none;stroke:#FFFFFF;stroke-width:0.4;stroke-miterlimit:10;}
</style>
<g>
	<g>
		<polygon class="st4" points="0,280.01 10.52,140 0,0 89.4,0 89.4,280.01 		"/>
	</g>
	<g>
		<path class="st5" d="M20.33,103.13h-1.22V98.4h-1.56v-1.01h4.34v1.01h-1.56V103.13z"/>
		<path class="st5" d="M26.74,100.93c0,0.71-0.19,1.27-0.57,1.68s-0.9,0.6-1.57,0.6c-0.42,0-0.79-0.09-1.12-0.28
			c-0.32-0.18-0.57-0.45-0.74-0.79s-0.26-0.75-0.26-1.21c0-0.72,0.19-1.27,0.56-1.67c0.37-0.4,0.9-0.6,1.58-0.6
			c0.42,0,0.79,0.09,1.12,0.27c0.32,0.18,0.57,0.45,0.74,0.79C26.66,100.07,26.74,100.47,26.74,100.93z M23.71,100.93
			c0,0.43,0.07,0.76,0.21,0.99c0.14,0.22,0.38,0.33,0.7,0.33c0.32,0,0.55-0.11,0.69-0.33c0.14-0.22,0.21-0.55,0.21-0.99
			c0-0.43-0.07-0.76-0.21-0.98c-0.14-0.22-0.37-0.33-0.69-0.33c-0.32,0-0.55,0.11-0.69,0.32C23.78,100.17,23.71,100.49,23.71,100.93
			z"/>
		<path class="st5" d="M32.42,98.66c0.52,0,0.92,0.2,1.22,0.61c0.29,0.4,0.44,0.96,0.44,1.66c0,0.73-0.15,1.29-0.45,1.68
			c-0.3,0.4-0.71,0.6-1.23,0.6c-0.52,0-0.92-0.19-1.21-0.56h-0.08l-0.2,0.48h-0.92v-6.11h1.2v1.42c0,0.18-0.02,0.47-0.05,0.87h0.05
			C31.45,98.88,31.87,98.66,32.42,98.66z M32.03,99.62c-0.3,0-0.51,0.09-0.65,0.27c-0.14,0.18-0.21,0.48-0.21,0.9v0.13
			c0,0.47,0.07,0.81,0.21,1.01c0.14,0.2,0.36,0.31,0.67,0.31c0.25,0,0.44-0.11,0.59-0.34c0.15-0.23,0.22-0.56,0.22-0.99
			s-0.07-0.76-0.22-0.97C32.49,99.73,32.29,99.62,32.03,99.62z"/>
		<path class="st5" d="M38.26,103.13l-0.16-0.56h-0.06c-0.13,0.2-0.31,0.36-0.55,0.47c-0.24,0.11-0.5,0.17-0.81,0.17
			c-0.52,0-0.9-0.14-1.17-0.41s-0.39-0.67-0.39-1.19v-2.86h1.2v2.56c0,0.32,0.06,0.55,0.17,0.71c0.11,0.16,0.29,0.24,0.54,0.24
			c0.33,0,0.58-0.11,0.73-0.34c0.15-0.22,0.22-0.59,0.22-1.11v-2.07h1.2v4.39H38.26z"/>
		<path class="st5" d="M40.45,97.61c0-0.39,0.22-0.58,0.65-0.58s0.65,0.2,0.65,0.58c0,0.19-0.05,0.33-0.16,0.43
			c-0.11,0.1-0.27,0.15-0.49,0.15C40.67,98.2,40.45,98,40.45,97.61z M41.7,103.13h-1.2v-4.39h1.2V103.13z"/>
		<path class="st5" d="M44.23,103.13h-1.2v-6.11h1.2V103.13z"/>
		<path class="st5" d="M46.95,103.21c-0.52,0-0.92-0.2-1.22-0.6c-0.29-0.4-0.44-0.96-0.44-1.67c0-0.72,0.15-1.28,0.45-1.68
			c0.3-0.4,0.71-0.6,1.24-0.6c0.55,0,0.97,0.21,1.26,0.64h0.04c-0.06-0.33-0.09-0.62-0.09-0.88v-1.41h1.2v6.11h-0.92l-0.23-0.57
			h-0.05C47.92,102.99,47.51,103.21,46.95,103.21z M47.37,102.26c0.31,0,0.53-0.09,0.67-0.27c0.14-0.18,0.22-0.48,0.23-0.91v-0.13
			c0-0.47-0.07-0.81-0.22-1.01c-0.15-0.2-0.38-0.31-0.71-0.31c-0.27,0-0.47,0.11-0.62,0.34s-0.22,0.56-0.22,0.99
			c0,0.43,0.07,0.76,0.22,0.97C46.88,102.15,47.09,102.26,47.37,102.26z"/>
	</g>
	<g>
		<path class="st5" d="M21.63,113.85l-0.34-1.54l-0.46-1.94h-0.03l-0.8,3.48h-1.29l-1.25-4.39h1.19l0.51,1.94
			c0.08,0.35,0.16,0.83,0.25,1.44h0.02c0.01-0.2,0.06-0.51,0.14-0.95l0.06-0.33l0.54-2.11h1.32l0.51,2.11
			c0.01,0.06,0.03,0.14,0.05,0.25c0.02,0.11,0.04,0.23,0.06,0.36s0.04,0.25,0.06,0.37s0.03,0.22,0.03,0.29h0.02
			c0.02-0.19,0.07-0.45,0.13-0.78c0.06-0.33,0.1-0.55,0.13-0.67l0.53-1.94h1.17l-1.26,4.39H21.63z"/>
		<path class="st5" d="M28.98,111.65c0,0.71-0.19,1.27-0.57,1.68s-0.9,0.6-1.57,0.6c-0.42,0-0.79-0.09-1.12-0.28
			c-0.32-0.18-0.57-0.45-0.74-0.79s-0.26-0.75-0.26-1.21c0-0.72,0.19-1.27,0.56-1.67c0.37-0.4,0.9-0.6,1.58-0.6
			c0.42,0,0.79,0.09,1.12,0.27c0.32,0.18,0.57,0.45,0.74,0.79C28.89,110.79,28.98,111.19,28.98,111.65z M25.94,111.65
			c0,0.43,0.07,0.76,0.21,0.99c0.14,0.22,0.38,0.33,0.7,0.33c0.32,0,0.55-0.11,0.69-0.33c0.14-0.22,0.21-0.55,0.21-0.99
			c0-0.43-0.07-0.76-0.21-0.98c-0.14-0.22-0.37-0.33-0.69-0.33c-0.32,0-0.55,0.11-0.69,0.32C26.01,110.89,25.94,111.21,25.94,111.65
			z"/>
		<path class="st5" d="M32.49,109.38c0.16,0,0.3,0.01,0.4,0.04l-0.09,1.12c-0.1-0.03-0.21-0.04-0.35-0.04
			c-0.38,0-0.68,0.1-0.89,0.29c-0.21,0.2-0.32,0.47-0.32,0.83v2.23h-1.2v-4.39h0.91l0.18,0.74h0.06c0.14-0.25,0.32-0.44,0.55-0.59
			C31.97,109.46,32.22,109.38,32.49,109.38z"/>
		<path class="st5" d="M34.96,113.85h-1.2v-6.11h1.2V113.85z"/>
		<path class="st5" d="M37.68,113.93c-0.52,0-0.92-0.2-1.22-0.6c-0.29-0.4-0.44-0.96-0.44-1.67c0-0.72,0.15-1.28,0.45-1.68
			c0.3-0.4,0.71-0.6,1.24-0.6c0.55,0,0.97,0.21,1.26,0.64h0.04c-0.06-0.33-0.09-0.62-0.09-0.88v-1.41h1.2v6.11h-0.92l-0.23-0.57
			h-0.05C38.65,113.72,38.24,113.93,37.68,113.93z M38.1,112.98c0.31,0,0.53-0.09,0.67-0.27c0.14-0.18,0.22-0.48,0.23-0.91v-0.13
			c0-0.47-0.07-0.81-0.22-1.01c-0.15-0.2-0.38-0.31-0.71-0.31c-0.27,0-0.47,0.11-0.62,0.34s-0.22,0.56-0.22,0.99
			c0,0.43,0.07,0.76,0.22,0.97C37.61,112.87,37.82,112.98,38.1,112.98z"/>
		<path class="st5" d="M41.07,112.19v-0.98h2.11v0.98H41.07z"/>
		<path class="st5" d="M45.91,113.93c-1.37,0-2.05-0.75-2.05-2.25c0-0.75,0.19-1.32,0.56-1.71c0.37-0.39,0.9-0.59,1.6-0.59
			c0.51,0,0.96,0.1,1.37,0.3l-0.35,0.93c-0.19-0.08-0.36-0.14-0.53-0.19c-0.16-0.05-0.32-0.07-0.49-0.07
			c-0.62,0-0.93,0.44-0.93,1.33c0,0.86,0.31,1.29,0.93,1.29c0.23,0,0.44-0.03,0.64-0.09s0.39-0.16,0.59-0.29v1.03
			c-0.19,0.12-0.39,0.21-0.59,0.25S46.21,113.93,45.91,113.93z"/>
		<path class="st5" d="M49.54,113.85h-1.2v-6.11h1.2V113.85z"/>
		<path class="st5" d="M53.65,113.85l-0.23-0.6h-0.03c-0.2,0.25-0.41,0.43-0.62,0.53c-0.21,0.1-0.49,0.15-0.83,0.15
			c-0.42,0-0.75-0.12-1-0.36c-0.24-0.24-0.36-0.58-0.36-1.03c0-0.47,0.16-0.81,0.49-1.03c0.33-0.22,0.82-0.34,1.47-0.37l0.76-0.02
			v-0.19c0-0.45-0.23-0.67-0.68-0.67c-0.35,0-0.76,0.11-1.24,0.32l-0.4-0.81c0.51-0.26,1.07-0.4,1.68-0.4
			c0.59,0,1.04,0.13,1.35,0.38c0.31,0.26,0.47,0.65,0.47,1.17v2.93H53.65z M53.3,111.82l-0.46,0.02c-0.35,0.01-0.61,0.07-0.78,0.19
			c-0.17,0.12-0.26,0.29-0.26,0.53c0,0.34,0.19,0.51,0.58,0.51c0.28,0,0.5-0.08,0.67-0.24c0.17-0.16,0.25-0.37,0.25-0.64V111.82z"/>
		<path class="st5" d="M58.86,112.55c0,0.45-0.16,0.79-0.47,1.03c-0.31,0.24-0.78,0.35-1.4,0.35c-0.32,0-0.59-0.02-0.82-0.06
			s-0.44-0.11-0.63-0.19v-0.99c0.22,0.1,0.47,0.19,0.75,0.26c0.28,0.07,0.52,0.11,0.74,0.11c0.43,0,0.65-0.13,0.65-0.38
			c0-0.09-0.03-0.17-0.09-0.23c-0.06-0.06-0.16-0.13-0.3-0.2c-0.14-0.07-0.33-0.16-0.57-0.26c-0.34-0.14-0.59-0.27-0.74-0.39
			c-0.16-0.12-0.27-0.26-0.35-0.41c-0.07-0.16-0.11-0.35-0.11-0.58c0-0.39,0.15-0.69,0.45-0.9c0.3-0.21,0.73-0.32,1.29-0.32
			c0.53,0,1.04,0.12,1.54,0.35l-0.36,0.86c-0.22-0.09-0.43-0.17-0.62-0.23c-0.19-0.06-0.39-0.09-0.59-0.09
			c-0.35,0-0.53,0.1-0.53,0.29c0,0.11,0.06,0.2,0.17,0.28c0.11,0.08,0.36,0.19,0.75,0.35c0.34,0.14,0.59,0.27,0.75,0.39
			c0.16,0.12,0.28,0.26,0.35,0.42C58.82,112.15,58.86,112.33,58.86,112.55z"/>
		<path class="st5" d="M62.93,112.55c0,0.45-0.16,0.79-0.47,1.03c-0.31,0.24-0.78,0.35-1.4,0.35c-0.32,0-0.59-0.02-0.82-0.06
			s-0.44-0.11-0.63-0.19v-0.99c0.22,0.1,0.47,0.19,0.75,0.26c0.28,0.07,0.52,0.11,0.74,0.11c0.43,0,0.65-0.13,0.65-0.38
			c0-0.09-0.03-0.17-0.09-0.23c-0.06-0.06-0.16-0.13-0.3-0.2c-0.14-0.07-0.33-0.16-0.57-0.26c-0.34-0.14-0.59-0.27-0.74-0.39
			c-0.16-0.12-0.27-0.26-0.35-0.41c-0.07-0.16-0.11-0.35-0.11-0.58c0-0.39,0.15-0.69,0.45-0.9c0.3-0.21,0.73-0.32,1.29-0.32
			c0.53,0,1.04,0.12,1.54,0.35l-0.36,0.86c-0.22-0.09-0.43-0.17-0.62-0.23c-0.19-0.06-0.39-0.09-0.59-0.09
			c-0.35,0-0.53,0.1-0.53,0.29c0,0.11,0.06,0.2,0.17,0.28c0.11,0.08,0.36,0.19,0.75,0.35c0.34,0.14,0.59,0.27,0.75,0.39
			c0.16,0.12,0.28,0.26,0.35,0.42C62.89,112.15,62.93,112.33,62.93,112.55z"/>
	</g>
	<g>
		<path class="st5" d="M20.47,120.1c0.52,0,0.92,0.2,1.22,0.61c0.29,0.4,0.44,0.96,0.44,1.66c0,0.73-0.15,1.29-0.45,1.68
			c-0.3,0.4-0.71,0.6-1.23,0.6c-0.52,0-0.92-0.19-1.21-0.56h-0.08l-0.2,0.48h-0.92v-6.11h1.2v1.42c0,0.18-0.02,0.47-0.05,0.87h0.05
			C19.5,120.32,19.92,120.1,20.47,120.1z M20.08,121.06c-0.3,0-0.51,0.09-0.65,0.27c-0.14,0.18-0.21,0.48-0.21,0.9v0.13
			c0,0.47,0.07,0.81,0.21,1.01c0.14,0.2,0.36,0.31,0.67,0.31c0.25,0,0.44-0.11,0.59-0.34c0.15-0.23,0.22-0.56,0.22-0.99
			s-0.07-0.76-0.22-0.97C20.54,121.17,20.34,121.06,20.08,121.06z"/>
		<path class="st5" d="M26.31,124.57l-0.16-0.56h-0.06c-0.13,0.2-0.31,0.36-0.55,0.47c-0.24,0.11-0.5,0.17-0.81,0.17
			c-0.52,0-0.9-0.14-1.17-0.41s-0.39-0.67-0.39-1.19v-2.86h1.2v2.56c0,0.32,0.06,0.55,0.17,0.71c0.11,0.16,0.29,0.24,0.54,0.24
			c0.33,0,0.58-0.11,0.73-0.34c0.15-0.22,0.22-0.59,0.22-1.11v-2.07h1.2v4.39H26.31z"/>
		<path class="st5" d="M31.62,123.27c0,0.45-0.16,0.79-0.47,1.03c-0.31,0.24-0.78,0.35-1.4,0.35c-0.32,0-0.59-0.02-0.82-0.06
			s-0.44-0.11-0.63-0.19v-0.99c0.22,0.1,0.47,0.19,0.75,0.26c0.28,0.07,0.52,0.11,0.74,0.11c0.43,0,0.65-0.13,0.65-0.38
			c0-0.09-0.03-0.17-0.09-0.23c-0.06-0.06-0.16-0.13-0.3-0.2c-0.14-0.07-0.33-0.16-0.57-0.26c-0.34-0.14-0.59-0.27-0.74-0.39
			c-0.16-0.12-0.27-0.26-0.35-0.41c-0.07-0.16-0.11-0.35-0.11-0.58c0-0.39,0.15-0.69,0.45-0.9c0.3-0.21,0.73-0.32,1.29-0.32
			c0.53,0,1.04,0.12,1.54,0.35l-0.36,0.86c-0.22-0.09-0.43-0.17-0.62-0.23c-0.19-0.06-0.39-0.09-0.59-0.09
			c-0.35,0-0.53,0.1-0.53,0.29c0,0.11,0.06,0.2,0.17,0.28c0.11,0.08,0.36,0.19,0.75,0.35c0.34,0.14,0.59,0.27,0.75,0.39
			c0.16,0.12,0.28,0.26,0.35,0.42C31.58,122.86,31.62,123.05,31.62,123.27z"/>
		<path class="st5" d="M32.57,119.05c0-0.39,0.22-0.58,0.65-0.58s0.65,0.2,0.65,0.58c0,0.19-0.05,0.33-0.16,0.43
			c-0.11,0.1-0.27,0.15-0.49,0.15C32.79,119.64,32.57,119.44,32.57,119.05z M33.82,124.57h-1.2v-4.39h1.2V124.57z"/>
		<path class="st5" d="M39.2,124.57H38v-2.56c0-0.32-0.06-0.55-0.17-0.71c-0.11-0.16-0.29-0.24-0.54-0.24
			c-0.33,0-0.58,0.11-0.73,0.34c-0.15,0.22-0.22,0.59-0.22,1.11v2.07h-1.2v-4.39h0.92l0.16,0.56h0.07c0.13-0.21,0.32-0.37,0.55-0.48
			s0.5-0.16,0.8-0.16c0.51,0,0.9,0.14,1.16,0.41c0.26,0.28,0.4,0.67,0.4,1.2V124.57z"/>
		<path class="st5" d="M42.49,124.65c-0.71,0-1.26-0.19-1.66-0.58c-0.4-0.39-0.6-0.94-0.6-1.66c0-0.74,0.18-1.3,0.55-1.71
			c0.37-0.4,0.88-0.6,1.53-0.6c0.62,0,1.1,0.18,1.45,0.53s0.52,0.84,0.52,1.46v0.58h-2.83c0.01,0.34,0.11,0.61,0.3,0.8
			s0.45,0.29,0.79,0.29c0.26,0,0.51-0.03,0.75-0.08c0.24-0.05,0.48-0.14,0.74-0.26v0.93c-0.21,0.1-0.43,0.18-0.67,0.23
			C43.13,124.63,42.84,124.65,42.49,124.65z M42.33,120.95c-0.25,0-0.45,0.08-0.6,0.24s-0.23,0.39-0.25,0.68h1.68
			c0-0.29-0.08-0.52-0.23-0.68S42.58,120.95,42.33,120.95z"/>
		<path class="st5" d="M48.4,123.27c0,0.45-0.16,0.79-0.47,1.03c-0.31,0.24-0.78,0.35-1.4,0.35c-0.32,0-0.59-0.02-0.82-0.06
			s-0.44-0.11-0.63-0.19v-0.99c0.22,0.1,0.47,0.19,0.75,0.26c0.28,0.07,0.52,0.11,0.74,0.11c0.43,0,0.65-0.13,0.65-0.38
			c0-0.09-0.03-0.17-0.09-0.23c-0.06-0.06-0.16-0.13-0.3-0.2c-0.14-0.07-0.33-0.16-0.57-0.26c-0.34-0.14-0.59-0.27-0.74-0.39
			c-0.16-0.12-0.27-0.26-0.35-0.41c-0.07-0.16-0.11-0.35-0.11-0.58c0-0.39,0.15-0.69,0.45-0.9c0.3-0.21,0.73-0.32,1.29-0.32
			c0.53,0,1.04,0.12,1.54,0.35l-0.36,0.86c-0.22-0.09-0.43-0.17-0.62-0.23c-0.19-0.06-0.39-0.09-0.59-0.09
			c-0.35,0-0.53,0.1-0.53,0.29c0,0.11,0.06,0.2,0.17,0.28c0.11,0.08,0.36,0.19,0.75,0.35c0.34,0.14,0.59,0.27,0.75,0.39
			c0.16,0.12,0.28,0.26,0.35,0.42C48.36,122.86,48.4,123.05,48.4,123.27z"/>
		<path class="st5" d="M52.47,123.27c0,0.45-0.16,0.79-0.47,1.03c-0.31,0.24-0.78,0.35-1.4,0.35c-0.32,0-0.59-0.02-0.82-0.06
			s-0.44-0.11-0.63-0.19v-0.99c0.22,0.1,0.47,0.19,0.75,0.26c0.28,0.07,0.52,0.11,0.74,0.11c0.43,0,0.65-0.13,0.65-0.38
			c0-0.09-0.03-0.17-0.09-0.23c-0.06-0.06-0.16-0.13-0.3-0.2c-0.14-0.07-0.33-0.16-0.57-0.26c-0.34-0.14-0.59-0.27-0.74-0.39
			c-0.16-0.12-0.27-0.26-0.35-0.41c-0.07-0.16-0.11-0.35-0.11-0.58c0-0.39,0.15-0.69,0.45-0.9c0.3-0.21,0.73-0.32,1.29-0.32
			c0.53,0,1.04,0.12,1.54,0.35l-0.36,0.86c-0.22-0.09-0.43-0.17-0.62-0.23c-0.19-0.06-0.39-0.09-0.59-0.09
			c-0.35,0-0.53,0.1-0.53,0.29c0,0.11,0.06,0.2,0.17,0.28c0.11,0.08,0.36,0.19,0.75,0.35c0.34,0.14,0.59,0.27,0.75,0.39
			c0.16,0.12,0.28,0.26,0.35,0.42C52.43,122.86,52.47,123.05,52.47,123.27z"/>
		<path class="st5" d="M55.47,124.65c-0.71,0-1.26-0.19-1.66-0.58c-0.4-0.39-0.6-0.94-0.6-1.66c0-0.74,0.18-1.3,0.55-1.71
			c0.37-0.4,0.88-0.6,1.53-0.6c0.62,0,1.1,0.18,1.45,0.53s0.52,0.84,0.52,1.46v0.58h-2.83c0.01,0.34,0.11,0.61,0.3,0.8
			s0.45,0.29,0.79,0.29c0.26,0,0.51-0.03,0.75-0.08c0.24-0.05,0.48-0.14,0.74-0.26v0.93c-0.21,0.1-0.43,0.18-0.67,0.23
			C56.1,124.63,55.81,124.65,55.47,124.65z M55.3,120.95c-0.25,0-0.45,0.08-0.6,0.24s-0.23,0.39-0.25,0.68h1.68
			c0-0.29-0.08-0.52-0.23-0.68S55.55,120.95,55.3,120.95z"/>
		<path class="st5" d="M61.37,123.27c0,0.45-0.16,0.79-0.47,1.03c-0.31,0.24-0.78,0.35-1.4,0.35c-0.32,0-0.59-0.02-0.82-0.06
			s-0.44-0.11-0.63-0.19v-0.99c0.22,0.1,0.47,0.19,0.75,0.26c0.28,0.07,0.52,0.11,0.74,0.11c0.43,0,0.65-0.13,0.65-0.38
			c0-0.09-0.03-0.17-0.09-0.23c-0.06-0.06-0.16-0.13-0.3-0.2c-0.14-0.07-0.33-0.16-0.57-0.26c-0.34-0.14-0.59-0.27-0.74-0.39
			c-0.16-0.12-0.27-0.26-0.35-0.41c-0.07-0.16-0.11-0.35-0.11-0.58c0-0.39,0.15-0.69,0.45-0.9c0.3-0.21,0.73-0.32,1.29-0.32
			c0.53,0,1.04,0.12,1.54,0.35l-0.36,0.86c-0.22-0.09-0.43-0.17-0.62-0.23c-0.19-0.06-0.39-0.09-0.59-0.09
			c-0.35,0-0.53,0.1-0.53,0.29c0,0.11,0.06,0.2,0.17,0.28c0.11,0.08,0.36,0.19,0.75,0.35c0.34,0.14,0.59,0.27,0.75,0.39
			c0.16,0.12,0.28,0.26,0.35,0.42C61.34,122.86,61.37,123.05,61.37,123.27z"/>
		<path class="st5" d="M66.4,123.7c0.21,0,0.46-0.05,0.75-0.14v0.89c-0.3,0.13-0.67,0.2-1.1,0.2c-0.48,0-0.83-0.12-1.05-0.36
			c-0.22-0.24-0.33-0.6-0.33-1.09v-2.12h-0.57v-0.51l0.66-0.4l0.35-0.93h0.77v0.93h1.23v0.9h-1.23v2.12c0,0.17,0.05,0.3,0.14,0.38
			C66.12,123.66,66.24,123.7,66.4,123.7z"/>
		<path class="st5" d="M72.17,124.57h-1.2v-2.56c0-0.63-0.24-0.95-0.71-0.95c-0.33,0-0.58,0.11-0.73,0.34
			c-0.15,0.23-0.22,0.6-0.22,1.11v2.07h-1.2v-6.11h1.2v1.25c0,0.1-0.01,0.32-0.03,0.68l-0.03,0.35h0.06
			c0.27-0.43,0.69-0.64,1.27-0.64c0.52,0,0.91,0.14,1.17,0.42s0.4,0.68,0.4,1.19V124.57z"/>
		<path class="st5" d="M76.26,124.57l-0.23-0.6H76c-0.2,0.25-0.41,0.43-0.62,0.53c-0.21,0.1-0.49,0.15-0.83,0.15
			c-0.42,0-0.75-0.12-1-0.36c-0.24-0.24-0.36-0.58-0.36-1.03c0-0.47,0.16-0.81,0.49-1.03c0.33-0.22,0.82-0.34,1.47-0.37l0.76-0.02
			v-0.19c0-0.45-0.23-0.67-0.68-0.67c-0.35,0-0.76,0.11-1.24,0.32l-0.4-0.81c0.51-0.26,1.07-0.4,1.68-0.4
			c0.59,0,1.04,0.13,1.35,0.38c0.31,0.26,0.47,0.65,0.47,1.17v2.93H76.26z M75.91,122.54l-0.46,0.02c-0.35,0.01-0.61,0.07-0.78,0.19
			c-0.17,0.12-0.26,0.29-0.26,0.53c0,0.34,0.19,0.51,0.58,0.51c0.28,0,0.5-0.08,0.67-0.24c0.17-0.16,0.25-0.37,0.25-0.64V122.54z"/>
		<path class="st5" d="M80.25,123.7c0.21,0,0.46-0.05,0.75-0.14v0.89c-0.3,0.13-0.67,0.2-1.1,0.2c-0.48,0-0.83-0.12-1.05-0.36
			c-0.22-0.24-0.33-0.6-0.33-1.09v-2.12h-0.57v-0.51l0.66-0.4l0.35-0.93h0.77v0.93h1.23v0.9h-1.23v2.12c0,0.17,0.05,0.3,0.14,0.38
			C79.97,123.66,80.09,123.7,80.25,123.7z"/>
	</g>
	<g>
		<path class="st5" d="M20.81,135.29l-0.23-0.6h-0.03c-0.2,0.25-0.41,0.43-0.62,0.53c-0.21,0.1-0.49,0.15-0.83,0.15
			c-0.42,0-0.75-0.12-1-0.36c-0.24-0.24-0.36-0.58-0.36-1.03c0-0.47,0.16-0.81,0.49-1.03c0.33-0.22,0.82-0.34,1.47-0.37l0.76-0.02
			v-0.19c0-0.45-0.23-0.67-0.68-0.67c-0.35,0-0.76,0.11-1.24,0.32l-0.4-0.81c0.51-0.26,1.07-0.4,1.68-0.4
			c0.59,0,1.04,0.13,1.35,0.38c0.31,0.26,0.47,0.65,0.47,1.17v2.93H20.81z M20.46,133.26L20,133.28c-0.35,0.01-0.61,0.07-0.78,0.19
			c-0.17,0.12-0.26,0.29-0.26,0.53c0,0.34,0.19,0.51,0.58,0.51c0.28,0,0.5-0.08,0.67-0.24c0.17-0.16,0.25-0.37,0.25-0.64V133.26z"/>
		<path class="st5" d="M25.41,130.82c0.16,0,0.3,0.01,0.4,0.04l-0.09,1.12c-0.1-0.03-0.21-0.04-0.35-0.04
			c-0.38,0-0.68,0.1-0.89,0.29c-0.21,0.2-0.32,0.47-0.32,0.83v2.23h-1.2v-4.39h0.91l0.18,0.74h0.06c0.14-0.25,0.32-0.44,0.55-0.59
			C24.88,130.9,25.13,130.82,25.41,130.82z"/>
		<path class="st5" d="M28.67,135.37c-0.71,0-1.26-0.19-1.66-0.58c-0.4-0.39-0.6-0.94-0.6-1.66c0-0.74,0.18-1.3,0.55-1.71
			c0.37-0.4,0.88-0.6,1.53-0.6c0.62,0,1.1,0.18,1.45,0.53s0.52,0.84,0.52,1.46v0.58h-2.83c0.01,0.34,0.11,0.61,0.3,0.8
			s0.45,0.29,0.79,0.29c0.26,0,0.51-0.03,0.75-0.08c0.24-0.05,0.48-0.14,0.74-0.26v0.93c-0.21,0.1-0.43,0.18-0.67,0.23
			C29.3,135.35,29.01,135.37,28.67,135.37z M28.5,131.67c-0.25,0-0.45,0.08-0.6,0.24s-0.23,0.39-0.25,0.68h1.68
			c0-0.29-0.08-0.52-0.23-0.68S28.75,131.67,28.5,131.67z"/>
		<path class="st5" d="M35.46,135.37c-1.37,0-2.05-0.75-2.05-2.25c0-0.75,0.19-1.32,0.56-1.71c0.37-0.39,0.9-0.59,1.6-0.59
			c0.51,0,0.96,0.1,1.37,0.3l-0.35,0.93c-0.19-0.08-0.36-0.14-0.53-0.19c-0.16-0.05-0.32-0.07-0.49-0.07
			c-0.62,0-0.93,0.44-0.93,1.33c0,0.86,0.31,1.29,0.93,1.29c0.23,0,0.44-0.03,0.64-0.09s0.39-0.16,0.59-0.29v1.03
			c-0.19,0.12-0.39,0.21-0.59,0.25S35.77,135.37,35.46,135.37z"/>
		<path class="st5" d="M40.68,135.29l-0.23-0.6h-0.03c-0.2,0.25-0.41,0.43-0.62,0.53c-0.21,0.1-0.49,0.15-0.83,0.15
			c-0.42,0-0.75-0.12-1-0.36c-0.24-0.24-0.36-0.58-0.36-1.03c0-0.47,0.16-0.81,0.49-1.03c0.33-0.22,0.82-0.34,1.47-0.37l0.76-0.02
			v-0.19c0-0.45-0.23-0.67-0.68-0.67c-0.35,0-0.76,0.11-1.24,0.32l-0.4-0.81c0.51-0.26,1.07-0.4,1.68-0.4
			c0.59,0,1.04,0.13,1.35,0.38c0.31,0.26,0.47,0.65,0.47,1.17v2.93H40.68z M40.32,133.26l-0.46,0.02c-0.35,0.01-0.61,0.07-0.78,0.19
			c-0.17,0.12-0.26,0.29-0.26,0.53c0,0.34,0.19,0.51,0.58,0.51c0.28,0,0.5-0.08,0.67-0.24c0.17-0.16,0.25-0.37,0.25-0.64V133.26z"/>
		<path class="st5" d="M44.67,134.42c0.21,0,0.46-0.05,0.75-0.14v0.89c-0.3,0.13-0.67,0.2-1.1,0.2c-0.48,0-0.83-0.12-1.05-0.36
			c-0.22-0.24-0.33-0.6-0.33-1.09v-2.12h-0.57v-0.51l0.66-0.4l0.35-0.93h0.77v0.93h1.23v0.9h-1.23v2.12c0,0.17,0.05,0.3,0.14,0.38
			C44.38,134.38,44.51,134.42,44.67,134.42z"/>
		<path class="st5" d="M49.17,135.29l-0.23-0.6h-0.03c-0.2,0.25-0.41,0.43-0.62,0.53c-0.21,0.1-0.49,0.15-0.83,0.15
			c-0.42,0-0.75-0.12-1-0.36c-0.24-0.24-0.36-0.58-0.36-1.03c0-0.47,0.16-0.81,0.49-1.03c0.33-0.22,0.82-0.34,1.47-0.37l0.76-0.02
			v-0.19c0-0.45-0.23-0.67-0.68-0.67c-0.35,0-0.76,0.11-1.24,0.32l-0.4-0.81c0.51-0.26,1.07-0.4,1.68-0.4
			c0.59,0,1.04,0.13,1.35,0.38c0.31,0.26,0.47,0.65,0.47,1.17v2.93H49.17z M48.82,133.26l-0.46,0.02c-0.35,0.01-0.61,0.07-0.78,0.19
			c-0.17,0.12-0.26,0.29-0.26,0.53c0,0.34,0.19,0.51,0.58,0.51c0.28,0,0.5-0.08,0.67-0.24c0.17-0.16,0.25-0.37,0.25-0.64V133.26z"/>
		<path class="st5" d="M52.51,135.29h-1.2v-6.11h1.2V135.29z"/>
		<path class="st5" d="M53.21,130.9h1.31l0.83,2.47c0.07,0.21,0.12,0.47,0.15,0.76h0.02c0.03-0.27,0.08-0.52,0.17-0.76l0.81-2.47
			h1.28l-1.86,4.95c-0.17,0.46-0.41,0.8-0.73,1.03c-0.32,0.23-0.68,0.34-1.1,0.34c-0.21,0-0.41-0.02-0.61-0.07v-0.95
			c0.14,0.03,0.3,0.05,0.47,0.05c0.21,0,0.4-0.06,0.56-0.19s0.28-0.33,0.37-0.59l0.07-0.22L53.21,130.9z"/>
		<path class="st5" d="M61.56,133.99c0,0.45-0.16,0.79-0.47,1.03c-0.31,0.24-0.78,0.35-1.4,0.35c-0.32,0-0.59-0.02-0.82-0.06
			s-0.44-0.11-0.63-0.19v-0.99c0.22,0.1,0.47,0.19,0.75,0.26c0.28,0.07,0.52,0.11,0.74,0.11c0.43,0,0.65-0.13,0.65-0.38
			c0-0.09-0.03-0.17-0.09-0.23c-0.06-0.06-0.16-0.13-0.3-0.2c-0.14-0.07-0.33-0.16-0.57-0.26c-0.34-0.14-0.59-0.27-0.74-0.39
			c-0.16-0.12-0.27-0.26-0.35-0.41c-0.07-0.16-0.11-0.35-0.11-0.58c0-0.39,0.15-0.69,0.45-0.9c0.3-0.21,0.73-0.32,1.29-0.32
			c0.53,0,1.04,0.12,1.54,0.35l-0.36,0.86c-0.22-0.09-0.43-0.17-0.62-0.23c-0.19-0.06-0.39-0.09-0.59-0.09
			c-0.35,0-0.53,0.1-0.53,0.29c0,0.11,0.06,0.2,0.17,0.28c0.11,0.08,0.36,0.19,0.75,0.35c0.34,0.14,0.59,0.27,0.75,0.39
			c0.16,0.12,0.28,0.26,0.35,0.42C61.52,133.59,61.56,133.77,61.56,133.99z"/>
		<path class="st5" d="M64.41,134.42c0.21,0,0.46-0.05,0.75-0.14v0.89c-0.3,0.13-0.67,0.2-1.1,0.2c-0.48,0-0.83-0.12-1.05-0.36
			c-0.22-0.24-0.33-0.6-0.33-1.09v-2.12h-0.57v-0.51l0.66-0.4l0.35-0.93h0.77v0.93h1.23v0.9h-1.23v2.12c0,0.17,0.05,0.3,0.14,0.38
			C64.13,134.38,64.26,134.42,64.41,134.42z"/>
		<path class="st5" d="M69.19,133.99c0,0.45-0.16,0.79-0.47,1.03c-0.31,0.24-0.78,0.35-1.4,0.35c-0.32,0-0.59-0.02-0.82-0.06
			s-0.44-0.11-0.63-0.19v-0.99c0.22,0.1,0.47,0.19,0.75,0.26c0.28,0.07,0.52,0.11,0.74,0.11c0.43,0,0.65-0.13,0.65-0.38
			c0-0.09-0.03-0.17-0.09-0.23c-0.06-0.06-0.16-0.13-0.3-0.2c-0.14-0.07-0.33-0.16-0.57-0.26c-0.34-0.14-0.59-0.27-0.74-0.39
			c-0.16-0.12-0.27-0.26-0.35-0.41c-0.07-0.16-0.11-0.35-0.11-0.58c0-0.39,0.15-0.69,0.45-0.9c0.3-0.21,0.73-0.32,1.29-0.32
			c0.53,0,1.04,0.12,1.54,0.35l-0.36,0.86c-0.22-0.09-0.43-0.17-0.62-0.23c-0.19-0.06-0.39-0.09-0.59-0.09
			c-0.35,0-0.53,0.1-0.53,0.29c0,0.11,0.06,0.2,0.17,0.28c0.11,0.08,0.36,0.19,0.75,0.35c0.34,0.14,0.59,0.27,0.75,0.39
			c0.16,0.12,0.28,0.26,0.35,0.42C69.15,133.59,69.19,133.77,69.19,133.99z"/>
		<path class="st5" d="M74.79,131.8h-1.04v3.49h-1.2v-3.49H71.9v-0.58l0.66-0.32v-0.32c0-0.5,0.12-0.87,0.37-1.1
			s0.64-0.35,1.18-0.35c0.41,0,0.78,0.06,1.1,0.18l-0.31,0.88c-0.24-0.08-0.46-0.11-0.67-0.11c-0.17,0-0.29,0.05-0.37,0.15
			c-0.08,0.1-0.11,0.23-0.11,0.39v0.27h1.04V131.8z"/>
		<path class="st5" d="M79.54,133.09c0,0.71-0.19,1.27-0.57,1.68s-0.9,0.6-1.57,0.6c-0.42,0-0.79-0.09-1.12-0.28
			c-0.32-0.18-0.57-0.45-0.74-0.79s-0.26-0.75-0.26-1.21c0-0.72,0.19-1.27,0.56-1.67c0.37-0.4,0.9-0.6,1.58-0.6
			c0.42,0,0.79,0.09,1.12,0.27c0.32,0.18,0.57,0.45,0.74,0.79C79.46,132.23,79.54,132.63,79.54,133.09z M76.51,133.09
			c0,0.43,0.07,0.76,0.21,0.99c0.14,0.22,0.38,0.33,0.7,0.33c0.32,0,0.55-0.11,0.69-0.33c0.14-0.22,0.21-0.55,0.21-0.99
			c0-0.43-0.07-0.76-0.21-0.98c-0.14-0.22-0.37-0.33-0.69-0.33c-0.32,0-0.55,0.11-0.69,0.32C76.58,132.33,76.51,132.65,76.51,133.09
			z"/>
		<path class="st5" d="M83.06,130.82c0.16,0,0.3,0.01,0.4,0.04l-0.09,1.12c-0.1-0.03-0.21-0.04-0.35-0.04
			c-0.38,0-0.68,0.1-0.89,0.29c-0.21,0.2-0.32,0.47-0.32,0.83v2.23h-1.2v-4.39h0.91l0.18,0.74h0.06c0.14-0.25,0.32-0.44,0.55-0.59
			C82.53,130.9,82.78,130.82,83.06,130.82z"/>
	</g>
	<g>
		<path class="st5" d="M19.42,146.09c-0.52,0-0.92-0.2-1.22-0.6c-0.29-0.4-0.44-0.96-0.44-1.67c0-0.72,0.15-1.28,0.45-1.68
			c0.3-0.4,0.71-0.6,1.24-0.6c0.55,0,0.97,0.21,1.26,0.64h0.04c-0.06-0.33-0.09-0.62-0.09-0.88v-1.41h1.2v6.11h-0.92l-0.23-0.57
			h-0.05C20.39,145.88,19.97,146.09,19.42,146.09z M19.84,145.14c0.31,0,0.53-0.09,0.67-0.27c0.14-0.18,0.22-0.48,0.23-0.91v-0.13
			c0-0.47-0.07-0.81-0.22-1.01c-0.15-0.2-0.38-0.31-0.71-0.31c-0.27,0-0.47,0.11-0.62,0.34s-0.22,0.56-0.22,0.99
			c0,0.43,0.07,0.76,0.22,0.97C19.34,145.03,19.56,145.14,19.84,145.14z"/>
		<path class="st5" d="M25.18,146.09c-0.71,0-1.26-0.19-1.66-0.58c-0.4-0.39-0.6-0.94-0.6-1.66c0-0.74,0.18-1.3,0.55-1.71
			c0.37-0.4,0.88-0.6,1.53-0.6c0.62,0,1.1,0.18,1.45,0.53s0.52,0.84,0.52,1.46v0.58h-2.83c0.01,0.34,0.11,0.61,0.3,0.8
			s0.45,0.29,0.79,0.29c0.26,0,0.51-0.03,0.75-0.08c0.24-0.05,0.48-0.14,0.74-0.26v0.93c-0.21,0.1-0.43,0.18-0.67,0.23
			C25.82,146.07,25.53,146.09,25.18,146.09z M25.01,142.39c-0.25,0-0.45,0.08-0.6,0.24s-0.23,0.39-0.25,0.68h1.68
			c0-0.29-0.08-0.52-0.23-0.68S25.27,142.39,25.01,142.39z"/>
		<path class="st5" d="M29.07,146.01l-1.67-4.39h1.25l0.85,2.5c0.09,0.32,0.15,0.62,0.18,0.9h0.02c0.01-0.25,0.07-0.55,0.18-0.9
			l0.84-2.5h1.25l-1.67,4.39H29.07z"/>
		<path class="st5" d="M34.67,146.09c-0.71,0-1.26-0.19-1.66-0.58c-0.4-0.39-0.6-0.94-0.6-1.66c0-0.74,0.18-1.3,0.55-1.71
			c0.37-0.4,0.88-0.6,1.53-0.6c0.62,0,1.1,0.18,1.45,0.53s0.52,0.84,0.52,1.46v0.58h-2.83c0.01,0.34,0.11,0.61,0.3,0.8
			s0.45,0.29,0.79,0.29c0.26,0,0.51-0.03,0.75-0.08c0.24-0.05,0.48-0.14,0.74-0.26v0.93c-0.21,0.1-0.43,0.18-0.67,0.23
			C35.3,146.07,35.01,146.09,34.67,146.09z M34.5,142.39c-0.25,0-0.45,0.08-0.6,0.24s-0.23,0.39-0.25,0.68h1.68
			c0-0.29-0.08-0.52-0.23-0.68S34.75,142.39,34.5,142.39z"/>
		<path class="st5" d="M38.71,146.01h-1.2v-6.11h1.2V146.01z"/>
		<path class="st5" d="M44.03,143.81c0,0.71-0.19,1.27-0.57,1.68s-0.9,0.6-1.57,0.6c-0.42,0-0.79-0.09-1.12-0.28
			c-0.32-0.18-0.57-0.45-0.74-0.79s-0.26-0.75-0.26-1.21c0-0.72,0.19-1.27,0.56-1.67c0.37-0.4,0.9-0.6,1.58-0.6
			c0.42,0,0.79,0.09,1.12,0.27c0.32,0.18,0.57,0.45,0.74,0.79C43.94,142.95,44.03,143.35,44.03,143.81z M41,143.81
			c0,0.43,0.07,0.76,0.21,0.99c0.14,0.22,0.38,0.33,0.7,0.33c0.32,0,0.55-0.11,0.69-0.33c0.14-0.22,0.21-0.55,0.21-0.99
			c0-0.43-0.07-0.76-0.21-0.98c-0.14-0.22-0.37-0.33-0.69-0.33c-0.32,0-0.55,0.11-0.69,0.32C41.07,143.05,41,143.37,41,143.81z"/>
		<path class="st5" d="M47.5,146.09c-0.52,0-0.92-0.19-1.21-0.56h-0.06c0.04,0.37,0.06,0.58,0.06,0.64v1.78h-1.2v-6.32h0.97
			l0.17,0.57h0.06c0.28-0.43,0.69-0.65,1.24-0.65c0.52,0,0.92,0.2,1.22,0.6c0.29,0.4,0.44,0.96,0.44,1.67
			c0,0.47-0.07,0.88-0.21,1.22c-0.14,0.35-0.33,0.61-0.59,0.79S47.85,146.09,47.5,146.09z M47.15,142.5c-0.3,0-0.51,0.09-0.65,0.27
			c-0.14,0.18-0.21,0.48-0.21,0.9v0.13c0,0.47,0.07,0.81,0.21,1.01c0.14,0.2,0.36,0.31,0.67,0.31c0.54,0,0.81-0.44,0.81-1.33
			c0-0.43-0.07-0.76-0.2-0.97C47.64,142.61,47.43,142.5,47.15,142.5z"/>
		<path class="st5" d="M54.19,146.01H53v-2.56c0-0.32-0.05-0.55-0.16-0.71c-0.11-0.16-0.27-0.24-0.5-0.24
			c-0.31,0-0.53,0.11-0.67,0.34c-0.14,0.22-0.21,0.6-0.21,1.11v2.07h-1.2v-4.39h0.92l0.16,0.56h0.07c0.12-0.2,0.29-0.36,0.51-0.47
			c0.22-0.11,0.48-0.17,0.77-0.17c0.66,0,1.1,0.21,1.33,0.64h0.11c0.12-0.2,0.29-0.36,0.52-0.47s0.49-0.17,0.78-0.17
			c0.5,0,0.87,0.13,1.13,0.38c0.25,0.25,0.38,0.66,0.38,1.23v2.86h-1.2v-2.56c0-0.32-0.05-0.55-0.16-0.71
			c-0.11-0.16-0.27-0.24-0.5-0.24c-0.29,0-0.51,0.1-0.66,0.31c-0.15,0.21-0.22,0.54-0.22,1V146.01z"/>
		<path class="st5" d="M60.23,146.09c-0.71,0-1.26-0.19-1.66-0.58c-0.4-0.39-0.6-0.94-0.6-1.66c0-0.74,0.18-1.3,0.55-1.71
			c0.37-0.4,0.88-0.6,1.53-0.6c0.62,0,1.1,0.18,1.45,0.53s0.52,0.84,0.52,1.46v0.58h-2.83c0.01,0.34,0.11,0.61,0.3,0.8
			s0.45,0.29,0.79,0.29c0.26,0,0.51-0.03,0.75-0.08c0.24-0.05,0.48-0.14,0.74-0.26v0.93c-0.21,0.1-0.43,0.18-0.67,0.23
			C60.86,146.07,60.57,146.09,60.23,146.09z M60.06,142.39c-0.25,0-0.45,0.08-0.6,0.24s-0.23,0.39-0.25,0.68h1.68
			c0-0.29-0.08-0.52-0.23-0.68S60.31,142.39,60.06,142.39z"/>
		<path class="st5" d="M67.12,146.01h-1.2v-2.56c0-0.32-0.06-0.55-0.17-0.71c-0.11-0.16-0.29-0.24-0.54-0.24
			c-0.33,0-0.58,0.11-0.73,0.34c-0.15,0.22-0.22,0.59-0.22,1.11v2.07h-1.2v-4.39h0.92l0.16,0.56h0.07c0.13-0.21,0.32-0.37,0.55-0.48
			s0.5-0.16,0.8-0.16c0.51,0,0.9,0.14,1.16,0.41c0.26,0.28,0.4,0.67,0.4,1.2V146.01z"/>
		<path class="st5" d="M70.28,145.14c0.21,0,0.46-0.05,0.75-0.14v0.89c-0.3,0.13-0.67,0.2-1.1,0.2c-0.48,0-0.83-0.12-1.05-0.36
			c-0.22-0.24-0.33-0.6-0.33-1.09v-2.12h-0.57v-0.51l0.66-0.4l0.35-0.93h0.77v0.93h1.23v0.9h-1.23v2.12c0,0.17,0.05,0.3,0.14,0.38
			C70,145.1,70.12,145.14,70.28,145.14z"/>
	</g>
	<g>
		<path class="st5" d="M17.97,151.21c0-0.39,0.22-0.58,0.65-0.58s0.65,0.2,0.65,0.58c0,0.19-0.05,0.33-0.16,0.43
			c-0.11,0.1-0.27,0.15-0.49,0.15C18.19,151.8,17.97,151.6,17.97,151.21z M19.22,156.74h-1.2v-4.39h1.2V156.74z"/>
		<path class="st5" d="M24.6,156.74h-1.2v-2.56c0-0.32-0.06-0.55-0.17-0.71c-0.11-0.16-0.29-0.24-0.54-0.24
			c-0.33,0-0.58,0.11-0.73,0.34c-0.15,0.22-0.22,0.59-0.22,1.11v2.07h-1.2v-4.39h0.92l0.16,0.56h0.07c0.13-0.21,0.32-0.37,0.55-0.48
			s0.5-0.16,0.8-0.16c0.51,0,0.9,0.14,1.16,0.41c0.26,0.28,0.4,0.67,0.4,1.2V156.74z"/>
		<path class="st5" d="M29.93,155.86c0.21,0,0.46-0.05,0.75-0.14v0.89c-0.3,0.13-0.67,0.2-1.1,0.2c-0.48,0-0.83-0.12-1.05-0.36
			c-0.22-0.24-0.33-0.6-0.33-1.09v-2.12h-0.57v-0.51l0.66-0.4l0.35-0.93h0.77v0.93h1.23v0.9h-1.23v2.12c0,0.17,0.05,0.3,0.14,0.38
			C29.65,155.82,29.77,155.86,29.93,155.86z"/>
		<path class="st5" d="M35.7,156.74h-1.2v-2.56c0-0.63-0.24-0.95-0.71-0.95c-0.33,0-0.58,0.11-0.73,0.34
			c-0.15,0.23-0.22,0.6-0.22,1.11v2.07h-1.2v-6.11h1.2v1.25c0,0.1-0.01,0.32-0.03,0.68l-0.03,0.35h0.06
			c0.27-0.43,0.69-0.64,1.27-0.64c0.52,0,0.91,0.14,1.17,0.42s0.4,0.68,0.4,1.19V156.74z"/>
		<path class="st5" d="M38.99,156.81c-0.71,0-1.26-0.19-1.66-0.58c-0.4-0.39-0.6-0.94-0.6-1.66c0-0.74,0.18-1.3,0.55-1.71
			c0.37-0.4,0.88-0.6,1.53-0.6c0.62,0,1.1,0.18,1.45,0.53s0.52,0.84,0.52,1.46v0.58h-2.83c0.01,0.34,0.11,0.61,0.3,0.8
			s0.45,0.29,0.79,0.29c0.26,0,0.51-0.03,0.75-0.08c0.24-0.05,0.48-0.14,0.74-0.26v0.93c-0.21,0.1-0.43,0.18-0.67,0.23
			C39.62,156.79,39.33,156.81,38.99,156.81z M38.82,153.11c-0.25,0-0.45,0.08-0.6,0.24s-0.23,0.39-0.25,0.68h1.68
			c0-0.29-0.08-0.52-0.23-0.68S39.07,153.11,38.82,153.11z"/>
	</g>
	<g>
		<path class="st5" d="M19.81,167.53c-1.37,0-2.05-0.75-2.05-2.25c0-0.75,0.19-1.32,0.56-1.71c0.37-0.39,0.9-0.59,1.6-0.59
			c0.51,0,0.96,0.1,1.37,0.3l-0.35,0.93c-0.19-0.08-0.36-0.14-0.53-0.19c-0.16-0.05-0.32-0.07-0.49-0.07
			c-0.62,0-0.93,0.44-0.93,1.33c0,0.86,0.31,1.29,0.93,1.29c0.23,0,0.44-0.03,0.64-0.09s0.39-0.16,0.59-0.29v1.03
			c-0.19,0.12-0.39,0.21-0.59,0.25S20.11,167.53,19.81,167.53z"/>
		<path class="st5" d="M26.22,165.25c0,0.71-0.19,1.27-0.57,1.68s-0.9,0.6-1.57,0.6c-0.42,0-0.79-0.09-1.12-0.28
			c-0.32-0.18-0.57-0.45-0.74-0.79s-0.26-0.75-0.26-1.21c0-0.72,0.19-1.27,0.56-1.67c0.37-0.4,0.9-0.6,1.58-0.6
			c0.42,0,0.79,0.09,1.12,0.27c0.32,0.18,0.57,0.45,0.74,0.79C26.14,164.39,26.22,164.79,26.22,165.25z M23.19,165.25
			c0,0.43,0.07,0.76,0.21,0.99c0.14,0.22,0.38,0.33,0.7,0.33c0.32,0,0.55-0.11,0.69-0.33c0.14-0.22,0.21-0.55,0.21-0.99
			c0-0.43-0.07-0.76-0.21-0.98c-0.14-0.22-0.37-0.33-0.69-0.33c-0.32,0-0.55,0.11-0.69,0.32C23.26,164.49,23.19,164.82,23.19,165.25
			z"/>
		<path class="st5" d="M31.22,167.46h-1.2v-2.56c0-0.32-0.05-0.55-0.16-0.71c-0.11-0.16-0.27-0.24-0.5-0.24
			c-0.31,0-0.53,0.11-0.67,0.34c-0.14,0.22-0.21,0.6-0.21,1.11v2.07h-1.2v-4.39h0.92l0.16,0.56h0.07c0.12-0.2,0.29-0.36,0.51-0.47
			c0.22-0.11,0.48-0.17,0.77-0.17c0.66,0,1.1,0.21,1.33,0.64h0.11c0.12-0.2,0.29-0.36,0.52-0.47s0.49-0.17,0.78-0.17
			c0.5,0,0.87,0.13,1.13,0.38c0.25,0.25,0.38,0.66,0.38,1.23v2.86h-1.2v-2.56c0-0.32-0.05-0.55-0.16-0.71
			c-0.11-0.16-0.27-0.24-0.5-0.24c-0.29,0-0.51,0.1-0.66,0.31c-0.15,0.21-0.22,0.54-0.22,1V167.46z"/>
		<path class="st5" d="M39.19,167.46H38v-2.56c0-0.32-0.05-0.55-0.16-0.71c-0.11-0.16-0.27-0.24-0.5-0.24
			c-0.31,0-0.53,0.11-0.67,0.34c-0.14,0.22-0.21,0.6-0.21,1.11v2.07h-1.2v-4.39h0.92l0.16,0.56h0.07c0.12-0.2,0.29-0.36,0.51-0.47
			c0.22-0.11,0.48-0.17,0.77-0.17c0.66,0,1.1,0.21,1.33,0.64h0.11c0.12-0.2,0.29-0.36,0.52-0.47s0.49-0.17,0.78-0.17
			c0.5,0,0.87,0.13,1.13,0.38c0.25,0.25,0.38,0.66,0.38,1.23v2.86h-1.2v-2.56c0-0.32-0.05-0.55-0.16-0.71
			c-0.11-0.16-0.27-0.24-0.5-0.24c-0.29,0-0.51,0.1-0.66,0.31c-0.15,0.21-0.22,0.54-0.22,1V167.46z"/>
		<path class="st5" d="M46.35,167.46l-0.16-0.56h-0.06c-0.13,0.2-0.31,0.36-0.55,0.47c-0.24,0.11-0.5,0.17-0.81,0.17
			c-0.52,0-0.9-0.14-1.17-0.41s-0.39-0.67-0.39-1.19v-2.86h1.2v2.56c0,0.32,0.06,0.55,0.17,0.71c0.11,0.16,0.29,0.24,0.54,0.24
			c0.33,0,0.58-0.11,0.73-0.34c0.15-0.22,0.22-0.59,0.22-1.11v-2.07h1.2v4.39H46.35z"/>
		<path class="st5" d="M52.65,167.46h-1.2v-2.56c0-0.32-0.06-0.55-0.17-0.71c-0.11-0.16-0.29-0.24-0.54-0.24
			c-0.33,0-0.58,0.11-0.73,0.34c-0.15,0.22-0.22,0.59-0.22,1.11v2.07h-1.2v-4.39h0.92l0.16,0.56h0.07c0.13-0.21,0.32-0.37,0.55-0.48
			s0.5-0.16,0.8-0.16c0.51,0,0.9,0.14,1.16,0.41c0.26,0.28,0.4,0.67,0.4,1.2V167.46z"/>
		<path class="st5" d="M53.9,161.93c0-0.39,0.22-0.58,0.65-0.58s0.65,0.2,0.65,0.58c0,0.19-0.05,0.33-0.16,0.43
			c-0.11,0.1-0.27,0.15-0.49,0.15C54.12,162.52,53.9,162.32,53.9,161.93z M55.15,167.46h-1.2v-4.39h1.2V167.46z"/>
		<path class="st5" d="M58.33,166.58c0.21,0,0.46-0.05,0.75-0.14v0.89c-0.3,0.13-0.67,0.2-1.1,0.2c-0.48,0-0.83-0.12-1.05-0.36
			c-0.22-0.24-0.33-0.6-0.33-1.09v-2.12h-0.57v-0.51l0.66-0.4l0.35-0.93h0.77v0.93h1.23v0.9h-1.23v2.12c0,0.17,0.05,0.3,0.14,0.38
			C58.05,166.54,58.17,166.58,58.33,166.58z"/>
		<path class="st5" d="M59.99,161.93c0-0.39,0.22-0.58,0.65-0.58s0.65,0.2,0.65,0.58c0,0.19-0.05,0.33-0.16,0.43
			c-0.11,0.1-0.27,0.15-0.49,0.15C60.21,162.52,59.99,162.32,59.99,161.93z M61.24,167.46h-1.2v-4.39h1.2V167.46z"/>
		<path class="st5" d="M64.56,167.53c-0.71,0-1.26-0.19-1.66-0.58c-0.4-0.39-0.6-0.94-0.6-1.66c0-0.74,0.18-1.3,0.55-1.71
			c0.37-0.4,0.88-0.6,1.53-0.6c0.62,0,1.1,0.18,1.45,0.53s0.52,0.84,0.52,1.46v0.58h-2.83c0.01,0.34,0.11,0.61,0.3,0.8
			s0.45,0.29,0.79,0.29c0.26,0,0.51-0.03,0.75-0.08c0.24-0.05,0.48-0.14,0.74-0.26v0.93c-0.21,0.1-0.43,0.18-0.67,0.23
			C65.19,167.51,64.9,167.53,64.56,167.53z M64.39,163.83c-0.25,0-0.45,0.08-0.6,0.24s-0.23,0.39-0.25,0.68h1.68
			c0-0.29-0.08-0.52-0.23-0.68S64.64,163.83,64.39,163.83z"/>
		<path class="st5" d="M70.47,166.15c0,0.45-0.16,0.79-0.47,1.03c-0.31,0.24-0.78,0.35-1.4,0.35c-0.32,0-0.59-0.02-0.82-0.06
			s-0.44-0.11-0.63-0.19v-0.99c0.22,0.1,0.47,0.19,0.75,0.26c0.28,0.07,0.52,0.11,0.74,0.11c0.43,0,0.65-0.13,0.65-0.38
			c0-0.09-0.03-0.17-0.09-0.23c-0.06-0.06-0.16-0.13-0.3-0.2c-0.14-0.07-0.33-0.16-0.57-0.26c-0.34-0.14-0.59-0.27-0.74-0.39
			c-0.16-0.12-0.27-0.26-0.35-0.41c-0.07-0.16-0.11-0.35-0.11-0.58c0-0.39,0.15-0.69,0.45-0.9c0.3-0.21,0.73-0.32,1.29-0.32
			c0.53,0,1.04,0.12,1.54,0.35l-0.36,0.86c-0.22-0.09-0.43-0.17-0.62-0.23c-0.19-0.06-0.39-0.09-0.59-0.09
			c-0.35,0-0.53,0.1-0.53,0.29c0,0.11,0.06,0.2,0.17,0.28c0.11,0.08,0.36,0.19,0.75,0.35c0.34,0.14,0.59,0.27,0.75,0.39
			c0.16,0.12,0.28,0.26,0.35,0.42C70.43,165.75,70.47,165.93,70.47,166.15z"/>
	</g>
	<g>
		<path class="st5" d="M21.63,178.18l-0.34-1.54l-0.46-1.94h-0.03l-0.8,3.48h-1.29l-1.25-4.39h1.19l0.51,1.94
			c0.08,0.35,0.16,0.83,0.25,1.44h0.02c0.01-0.2,0.06-0.51,0.14-0.95l0.06-0.33l0.54-2.1h1.32l0.51,2.1
			c0.01,0.06,0.03,0.14,0.05,0.26c0.02,0.11,0.04,0.23,0.06,0.36c0.02,0.13,0.04,0.25,0.06,0.37c0.02,0.12,0.03,0.22,0.03,0.29h0.02
			c0.02-0.19,0.07-0.45,0.13-0.78c0.06-0.33,0.1-0.55,0.13-0.67l0.53-1.94h1.17l-1.26,4.39H21.63z M26.98,178.25
			c-0.71,0-1.26-0.19-1.66-0.59c-0.4-0.39-0.6-0.94-0.6-1.66c0-0.74,0.18-1.3,0.55-1.71c0.37-0.4,0.88-0.6,1.53-0.6
			c0.62,0,1.1,0.18,1.45,0.53c0.35,0.35,0.52,0.84,0.52,1.46v0.58h-2.83c0.01,0.34,0.11,0.61,0.3,0.8c0.19,0.19,0.45,0.29,0.79,0.29
			c0.26,0,0.51-0.03,0.75-0.08c0.24-0.05,0.48-0.14,0.74-0.26v0.93c-0.21,0.1-0.43,0.18-0.67,0.23
			C27.61,178.23,27.32,178.25,26.98,178.25z M26.81,174.56c-0.25,0-0.45,0.08-0.6,0.24c-0.14,0.16-0.23,0.39-0.25,0.69h1.68
			c-0.01-0.3-0.08-0.52-0.23-0.69C27.26,174.64,27.06,174.56,26.81,174.56z M35.06,176.87c0,0.45-0.16,0.79-0.47,1.03
			c-0.31,0.24-0.78,0.35-1.4,0.35c-0.32,0-0.59-0.02-0.82-0.06c-0.23-0.04-0.44-0.11-0.63-0.19v-0.99c0.22,0.1,0.47,0.19,0.75,0.26
			c0.28,0.07,0.52,0.11,0.74,0.11c0.43,0,0.65-0.13,0.65-0.38c0-0.09-0.03-0.17-0.09-0.23c-0.06-0.06-0.16-0.13-0.3-0.2
			s-0.33-0.16-0.57-0.26c-0.34-0.14-0.59-0.27-0.74-0.39c-0.16-0.12-0.27-0.26-0.35-0.41c-0.07-0.16-0.11-0.35-0.11-0.58
			c0-0.39,0.15-0.69,0.45-0.91c0.3-0.21,0.73-0.32,1.29-0.32c0.53,0,1.04,0.12,1.54,0.35l-0.36,0.86c-0.22-0.09-0.43-0.17-0.62-0.23
			c-0.19-0.06-0.39-0.09-0.59-0.09c-0.35,0-0.53,0.1-0.53,0.29c0,0.11,0.06,0.2,0.17,0.28c0.11,0.08,0.36,0.2,0.75,0.35
			c0.34,0.14,0.59,0.27,0.75,0.39c0.16,0.12,0.28,0.26,0.35,0.42C35.02,176.47,35.06,176.65,35.06,176.87z M38.06,178.25
			c-0.71,0-1.26-0.19-1.66-0.59c-0.4-0.39-0.6-0.94-0.6-1.66c0-0.74,0.18-1.3,0.55-1.71c0.37-0.4,0.88-0.6,1.53-0.6
			c0.62,0,1.1,0.18,1.45,0.53c0.35,0.35,0.52,0.84,0.52,1.46v0.58h-2.83c0.01,0.34,0.11,0.61,0.3,0.8c0.19,0.19,0.45,0.29,0.79,0.29
			c0.26,0,0.51-0.03,0.75-0.08c0.24-0.05,0.48-0.14,0.74-0.26v0.93c-0.21,0.1-0.43,0.18-0.67,0.23
			C38.69,178.23,38.4,178.25,38.06,178.25z M37.89,174.56c-0.25,0-0.45,0.08-0.6,0.24c-0.14,0.16-0.23,0.39-0.25,0.69h1.68
			c-0.01-0.3-0.08-0.52-0.23-0.69C38.35,174.64,38.14,174.56,37.89,174.56z M43.36,173.7c0.16,0,0.3,0.01,0.4,0.04l-0.09,1.12
			c-0.1-0.03-0.21-0.04-0.35-0.04c-0.38,0-0.68,0.1-0.89,0.29c-0.21,0.2-0.32,0.47-0.32,0.82v2.23h-1.2v-4.39h0.91l0.18,0.74h0.06
			c0.14-0.25,0.32-0.44,0.55-0.59C42.83,173.78,43.08,173.7,43.36,173.7z M45.68,178.18l-1.67-4.39h1.25l0.85,2.5
			c0.09,0.32,0.15,0.62,0.18,0.9h0.02c0.01-0.25,0.07-0.55,0.18-0.9l0.84-2.5h1.25l-1.67,4.39H45.68z M51.28,178.25
			c-0.71,0-1.26-0.19-1.66-0.59c-0.4-0.39-0.6-0.94-0.6-1.66c0-0.74,0.18-1.3,0.55-1.71c0.37-0.4,0.88-0.6,1.53-0.6
			c0.62,0,1.1,0.18,1.45,0.53c0.35,0.35,0.52,0.84,0.52,1.46v0.58h-2.83c0.01,0.34,0.11,0.61,0.3,0.8c0.19,0.19,0.45,0.29,0.79,0.29
			c0.26,0,0.51-0.03,0.75-0.08c0.24-0.05,0.48-0.14,0.74-0.26v0.93c-0.21,0.1-0.43,0.18-0.67,0.23
			C51.91,178.23,51.62,178.25,51.28,178.25z M51.11,174.56c-0.25,0-0.45,0.08-0.6,0.24c-0.14,0.16-0.23,0.39-0.25,0.69h1.68
			c-0.01-0.3-0.08-0.52-0.23-0.69C51.57,174.64,51.37,174.56,51.11,174.56z"/>
	</g>
</g>
<g>
	<path class="st12" d="M547.88-518.84v-15 M-47.4-518.84v-15 M553.88,329.05h15 M-53.4,329.05h-15 M553.88-512.84h15 M-53.4-512.84
		h-15"/>
	<path class="st13" d="M547.88-518.84v-15 M-47.4-518.84v-15 M553.88,329.05h15 M-53.4,329.05h-15 M553.88-512.84h15 M-53.4-512.84
		h-15"/>
</g>
</svg>
