<svg xmlns="http://www.w3.org/2000/svg" viewBox="0 0 175.6 111.94"><defs><style>.cls-1{fill:#1568a1;}.cls-2{fill:#4d4e50;}.cls-3{fill:#fff;}</style></defs><g id="Economic_Opportunities_Image" data-name="Economic Opportunities Image"><rect class="cls-1" width="175.6" height="46.23"/><path class="cls-2" d="M56.65,90.09a1.06,1.06,0,0,1-.45.92,2.06,2.06,0,0,1-1.25.33,2.72,2.72,0,0,1-1.33-.27v-.6a3.54,3.54,0,0,0,.67.24,2.71,2.71,0,0,0,.68.09,1.54,1.54,0,0,0,.78-.16.53.53,0,0,0,.27-.49.53.53,0,0,0-.22-.43A3.15,3.15,0,0,0,55,89.3a4.75,4.75,0,0,1-.85-.39,1.25,1.25,0,0,1-.38-.38,1,1,0,0,1-.12-.5A1,1,0,0,1,54,87.2a2,2,0,0,1,1.17-.3,3.37,3.37,0,0,1,1.35.28l-.23.53a3.07,3.07,0,0,0-1.17-.27,1.32,1.32,0,0,0-.7.15.43.43,0,0,0-.23.39.49.49,0,0,0,.09.3.75.75,0,0,0,.28.23,5.76,5.76,0,0,0,.75.31,3,3,0,0,1,1,.56A1,1,0,0,1,56.65,90.09Z"/><path class="cls-2" d="M59.08,90.8l.34,0,.25-.06v.5a1.23,1.23,0,0,1-.31.08,2.76,2.76,0,0,1-.37,0c-.83,0-1.24-.44-1.24-1.31V87.48h-.62v-.31l.62-.27L58,86h.38v1h1.24v.5H58.4V90a.85.85,0,0,0,.18.59A.63.63,0,0,0,59.08,90.8Z"/><path class="cls-2" d="M61.13,87v2.77a1.15,1.15,0,0,0,.24.79,1,1,0,0,0,.75.25,1.23,1.23,0,0,0,1-.36,1.86,1.86,0,0,0,.31-1.2V87h.65v4.28h-.53l-.1-.58h0a1.27,1.27,0,0,1-.56.49,1.85,1.85,0,0,1-.8.17A1.67,1.67,0,0,1,60.87,91a1.59,1.59,0,0,1-.39-1.19V87Z"/><path class="cls-2" d="M68.35,90.68h0a1.51,1.51,0,0,1-1.34.66,1.58,1.58,0,0,1-1.31-.58,3.12,3.12,0,0,1,0-3.28,1.74,1.74,0,0,1,2.64,0h0l0-.31,0-.3V85.18H69v6.08h-.52Zm-1.3.11a1.19,1.19,0,0,0,1-.36,1.88,1.88,0,0,0,.29-1.16v-.14a2.16,2.16,0,0,0-.3-1.3,1.14,1.14,0,0,0-1-.39,1,1,0,0,0-.87.45,2.2,2.2,0,0,0-.3,1.25,2.14,2.14,0,0,0,.3,1.24A1,1,0,0,0,67.05,90.79Z"/><path class="cls-2" d="M72.15,91.34a2,2,0,0,1-1.5-.58,2.23,2.23,0,0,1-.55-1.61,2.46,2.46,0,0,1,.51-1.64A1.69,1.69,0,0,1,72,86.9a1.59,1.59,0,0,1,1.27.53,2,2,0,0,1,.47,1.39v.41h-3a1.69,1.69,0,0,0,.38,1.15,1.32,1.32,0,0,0,1,.39,3.51,3.51,0,0,0,1.37-.29v.58a3.25,3.25,0,0,1-.65.21A3.88,3.88,0,0,1,72.15,91.34ZM72,87.44a1,1,0,0,0-.82.34,1.46,1.46,0,0,0-.36.93H73a1.42,1.42,0,0,0-.28-.94A1,1,0,0,0,72,87.44Z"/><path class="cls-2" d="M77.76,91.26V88.49a1.1,1.1,0,0,0-.24-.78,1,1,0,0,0-.75-.26,1.23,1.23,0,0,0-1,.36,1.83,1.83,0,0,0-.32,1.2v2.25h-.64V87h.52l.11.58h0a1.34,1.34,0,0,1,.56-.49,1.88,1.88,0,0,1,.8-.17,1.36,1.36,0,0,1,1.55,1.57v2.79Z"/><path class="cls-2" d="M81.12,90.8l.33,0,.26-.06v.5a1.48,1.48,0,0,1-.32.08,2.63,2.63,0,0,1-.36,0c-.83,0-1.25-.44-1.25-1.31V87.48h-.61v-.31l.61-.27.28-.92h.37v1h1.24v.5H80.43V90a.81.81,0,0,0,.19.59A.63.63,0,0,0,81.12,90.8Z"/><path class="cls-2" d="M85.32,90.09a1.07,1.07,0,0,1-.44.92,2.09,2.09,0,0,1-1.25.33,2.72,2.72,0,0,1-1.33-.27v-.6a3.21,3.21,0,0,0,.66.24,2.77,2.77,0,0,0,.68.09,1.51,1.51,0,0,0,.78-.16.52.52,0,0,0,.28-.49.55.55,0,0,0-.22-.43,3.26,3.26,0,0,0-.85-.42,4.57,4.57,0,0,1-.84-.39,1.15,1.15,0,0,1-.38-.38,1,1,0,0,1-.12-.5,1,1,0,0,1,.42-.83,2,2,0,0,1,1.17-.3,3.37,3.37,0,0,1,1.35.28l-.23.53a3.07,3.07,0,0,0-1.17-.27,1.29,1.29,0,0,0-.69.15.43.43,0,0,0-.24.39.49.49,0,0,0,.09.3.79.79,0,0,0,.29.23,5.76,5.76,0,0,0,.75.31,2.93,2.93,0,0,1,1,.56A1,1,0,0,1,85.32,90.09Z"/><path class="cls-2" d="M90.45,86.91a1.6,1.6,0,0,1,1.31.57,2.55,2.55,0,0,1,.46,1.63,2.5,2.5,0,0,1-.47,1.64,1.58,1.58,0,0,1-1.3.59,1.93,1.93,0,0,1-.77-.16,1.46,1.46,0,0,1-.58-.47h0l-.14.55h-.46V85.18h.64v1.48c0,.33,0,.62,0,.89h0A1.55,1.55,0,0,1,90.45,86.91Zm-.1.54a1.12,1.12,0,0,0-.95.38,2.9,2.9,0,0,0,0,2.57,1.16,1.16,0,0,0,1,.39,1,1,0,0,0,.89-.43,2.2,2.2,0,0,0,.29-1.25,2.12,2.12,0,0,0-.29-1.25A1.06,1.06,0,0,0,90.35,87.45Z"/><path class="cls-2" d="M95.17,91.34a2,2,0,0,1-1.5-.58,2.23,2.23,0,0,1-.55-1.61,2.46,2.46,0,0,1,.51-1.64A1.68,1.68,0,0,1,95,86.9a1.59,1.59,0,0,1,1.27.53,2,2,0,0,1,.47,1.39v.41H93.79a1.69,1.69,0,0,0,.38,1.15,1.32,1.32,0,0,0,1,.39,3.51,3.51,0,0,0,1.37-.29v.58a3.25,3.25,0,0,1-.65.21A3.88,3.88,0,0,1,95.17,91.34ZM95,87.44a1,1,0,0,0-.82.34,1.46,1.46,0,0,0-.36.93H96a1.42,1.42,0,0,0-.27-.94A1,1,0,0,0,95,87.44Z"/><path class="cls-2" d="M100.78,91.26V88.49a1.1,1.1,0,0,0-.24-.78,1,1,0,0,0-.75-.26,1.21,1.21,0,0,0-1,.36,1.83,1.83,0,0,0-.32,1.2v2.25h-.64V87h.52l.11.58h0a1.34,1.34,0,0,1,.56-.49,1.88,1.88,0,0,1,.8-.17,1.36,1.36,0,0,1,1.55,1.57v2.79Z"/><path class="cls-2" d="M104.56,91.34a2,2,0,0,1-1.49-.58,2.23,2.23,0,0,1-.55-1.61,2.46,2.46,0,0,1,.51-1.64,1.68,1.68,0,0,1,1.37-.61,1.59,1.59,0,0,1,1.27.53,2,2,0,0,1,.47,1.39v.41h-3a1.69,1.69,0,0,0,.38,1.15,1.32,1.32,0,0,0,1,.39,3.55,3.55,0,0,0,1.37-.29v.58a3.13,3.13,0,0,1-.66.21A3.79,3.79,0,0,1,104.56,91.34Zm-.17-3.9a1,1,0,0,0-.82.34,1.46,1.46,0,0,0-.36.93h2.23a1.42,1.42,0,0,0-.27-.94A1,1,0,0,0,104.39,87.44Z"/><path class="cls-2" d="M109.17,87.48h-1.09v3.78h-.64V87.48h-.77v-.29l.77-.24v-.23c0-1.06.45-1.58,1.37-1.58a2.82,2.82,0,0,1,.8.13l-.17.52a2.14,2.14,0,0,0-.64-.12.61.61,0,0,0-.54.25,1.32,1.32,0,0,0-.18.78V87h1.09Zm.73-1.66a.45.45,0,0,1,.11-.33.41.41,0,0,1,.54,0,.42.42,0,0,1,.12.33.41.41,0,0,1-.12.32.39.39,0,0,1-.54,0A.44.44,0,0,1,109.9,85.82Zm.7,5.44H110V87h.64Z"/><path class="cls-2" d="M113.36,90.8l.33,0,.26-.06v.5a1.37,1.37,0,0,1-.31.08,2.76,2.76,0,0,1-.37,0c-.83,0-1.24-.44-1.24-1.31V87.48h-.62v-.31l.62-.27.27-.92h.37v1h1.25v.5h-1.25V90a.81.81,0,0,0,.19.59A.63.63,0,0,0,113.36,90.8Z"/><path class="cls-2" d="M116.19,90.8l.33,0,.25-.06v.5a1.23,1.23,0,0,1-.31.08,2.76,2.76,0,0,1-.37,0c-.83,0-1.24-.44-1.24-1.31V87.48h-.61v-.31l.61-.27.27-.92h.38v1h1.24v.5H115.5V90a.85.85,0,0,0,.18.59A.64.64,0,0,0,116.19,90.8Z"/><path class="cls-2" d="M119.44,91.34a2,2,0,0,1-1.5-.58,2.23,2.23,0,0,1-.55-1.61,2.46,2.46,0,0,1,.51-1.64,1.68,1.68,0,0,1,1.37-.61,1.59,1.59,0,0,1,1.27.53,2,2,0,0,1,.47,1.39v.41h-3a1.69,1.69,0,0,0,.38,1.15,1.32,1.32,0,0,0,1,.39,3.55,3.55,0,0,0,1.37-.29v.58a3.25,3.25,0,0,1-.65.21A4,4,0,0,1,119.44,91.34Zm-.18-3.9a1,1,0,0,0-.82.34,1.46,1.46,0,0,0-.36.93h2.23a1.42,1.42,0,0,0-.27-.94A1,1,0,0,0,119.26,87.44Z"/><path class="cls-2" d="M125,90.68h0a1.51,1.51,0,0,1-1.34.66,1.58,1.58,0,0,1-1.31-.58,3.12,3.12,0,0,1,0-3.28,1.74,1.74,0,0,1,2.64,0H125l0-.31,0-.3V85.18h.65v6.08h-.52Zm-1.3.11a1.2,1.2,0,0,0,1-.36,1.88,1.88,0,0,0,.29-1.16v-.14a2.16,2.16,0,0,0-.3-1.3,1.14,1.14,0,0,0-1-.39,1,1,0,0,0-.87.45,2.2,2.2,0,0,0-.3,1.25,2.14,2.14,0,0,0,.3,1.24A1,1,0,0,0,123.73,90.79Z"/><path class="cls-2" d="M55.81,96.48H54.72v3.78h-.64V96.48h-.77v-.29l.77-.24v-.23c0-1.06.46-1.58,1.38-1.58a2.81,2.81,0,0,1,.79.13l-.17.52a2.14,2.14,0,0,0-.64-.12.61.61,0,0,0-.54.25,1.32,1.32,0,0,0-.18.78V96h1.09Z"/><path class="cls-2" d="M58.55,95.9a2,2,0,0,1,.51,0l-.09.6a2.16,2.16,0,0,0-.47-.06,1.16,1.16,0,0,0-.89.42,1.56,1.56,0,0,0-.37,1v2.3H56.6V96h.53l.08.79h0a1.79,1.79,0,0,1,.57-.64A1.23,1.23,0,0,1,58.55,95.9Z"/><path class="cls-2" d="M63.56,98.11A2.38,2.38,0,0,1,63,99.75a1.87,1.87,0,0,1-1.46.59,1.94,1.94,0,0,1-1-.27,1.79,1.79,0,0,1-.68-.78,2.57,2.57,0,0,1-.25-1.18,2.37,2.37,0,0,1,.53-1.63,1.84,1.84,0,0,1,1.45-.58,1.82,1.82,0,0,1,1.43.6A2.35,2.35,0,0,1,63.56,98.11Zm-3.27,0a2,2,0,0,0,.33,1.25,1.13,1.13,0,0,0,1,.43,1.15,1.15,0,0,0,1-.42,2.06,2.06,0,0,0,.33-1.26,2,2,0,0,0-.33-1.24,1.15,1.15,0,0,0-1-.42,1.14,1.14,0,0,0-1,.42A2,2,0,0,0,60.29,98.11Z"/><path class="cls-2" d="M70.15,100.26V97.47a1.11,1.11,0,0,0-.22-.76.81.81,0,0,0-.68-.26,1.07,1.07,0,0,0-.89.35,1.61,1.61,0,0,0-.29,1.07v2.39h-.65V97.47a1.11,1.11,0,0,0-.22-.76.82.82,0,0,0-.68-.26,1.08,1.08,0,0,0-.9.36,2.08,2.08,0,0,0-.28,1.2v2.25h-.65V96h.53l.11.58h0a1.27,1.27,0,0,1,.51-.49,1.72,1.72,0,0,1,.75-.17,1.28,1.28,0,0,1,1.32.73h0a1.3,1.3,0,0,1,.55-.54,1.72,1.72,0,0,1,.83-.19,1.45,1.45,0,0,1,1.09.37,1.69,1.69,0,0,1,.36,1.2v2.79Z"/><path class="cls-2" d="M76.21,100.34a1.93,1.93,0,0,1-.77-.16,1.46,1.46,0,0,1-.58-.47h0a4.39,4.39,0,0,1,0,.71v1.76h-.65V96h.53l.09.58h0a1.51,1.51,0,0,1,.58-.5,1.71,1.71,0,0,1,.77-.16,1.58,1.58,0,0,1,1.31.58A2.55,2.55,0,0,1,78,98.11a2.5,2.5,0,0,1-.47,1.64A1.58,1.58,0,0,1,76.21,100.34Zm-.1-3.89a1.16,1.16,0,0,0-1,.36,2,2,0,0,0-.3,1.16v.14a2.11,2.11,0,0,0,.3,1.29,1.14,1.14,0,0,0,1,.39,1,1,0,0,0,.87-.45,2.11,2.11,0,0,0,.31-1.23A2,2,0,0,0,77,96.88,1,1,0,0,0,76.11,96.45Z"/><path class="cls-2" d="M79.72,96v2.77a1.15,1.15,0,0,0,.24.79,1,1,0,0,0,.75.25,1.23,1.23,0,0,0,1-.36,1.86,1.86,0,0,0,.31-1.2V96h.65v4.28h-.53l-.1-.58h0a1.27,1.27,0,0,1-.56.49,1.85,1.85,0,0,1-.8.17,1.67,1.67,0,0,1-1.17-.37,1.59,1.59,0,0,1-.39-1.19V96Z"/><path class="cls-2" d="M86,95.91a1.6,1.6,0,0,1,1.31.57,2.55,2.55,0,0,1,.46,1.63,2.5,2.5,0,0,1-.47,1.64,1.58,1.58,0,0,1-1.3.59,1.93,1.93,0,0,1-.77-.16,1.46,1.46,0,0,1-.58-.47h0l-.14.55H84V94.18h.64v1.48c0,.33,0,.62,0,.89h0A1.55,1.55,0,0,1,86,95.91Zm-.1.54a1.12,1.12,0,0,0-1,.38,2.9,2.9,0,0,0,0,2.57,1.16,1.16,0,0,0,1,.39,1,1,0,0,0,.89-.43,2.2,2.2,0,0,0,.29-1.25,2.12,2.12,0,0,0-.29-1.25A1.06,1.06,0,0,0,85.92,96.45Z"/><path class="cls-2" d="M89.58,100.26h-.65V94.18h.65Z"/><path class="cls-2" d="M90.9,94.82a.41.41,0,0,1,.11-.33.36.36,0,0,1,.27-.1.39.39,0,0,1,.27.1.45.45,0,0,1,.11.33.44.44,0,0,1-.11.32.4.4,0,0,1-.27.11.37.37,0,0,1-.27-.11A.4.4,0,0,1,90.9,94.82Zm.7,5.44H91V96h.65Z"/><path class="cls-2" d="M94.69,100.34a1.81,1.81,0,0,1-1.44-.58,2.34,2.34,0,0,1-.51-1.61,2.49,2.49,0,0,1,.51-1.67,1.88,1.88,0,0,1,1.48-.58,2.68,2.68,0,0,1,.62.07,2,2,0,0,1,.48.15l-.2.55a2.89,2.89,0,0,0-.47-.14,2,2,0,0,0-.45-.06c-.87,0-1.3.56-1.3,1.67a1.94,1.94,0,0,0,.32,1.21,1.1,1.1,0,0,0,.94.42,3,3,0,0,0,1.1-.23v.57A2.33,2.33,0,0,1,94.69,100.34Z"/><path class="cls-2" d="M101.62,99.09a1.07,1.07,0,0,1-.44.92,2.09,2.09,0,0,1-1.25.33,2.72,2.72,0,0,1-1.33-.27v-.6a3.44,3.44,0,0,0,.66.24,2.77,2.77,0,0,0,.68.09,1.51,1.51,0,0,0,.78-.16.55.55,0,0,0,.06-.92,3.33,3.33,0,0,0-.84-.42,4.43,4.43,0,0,1-.85-.39,1.15,1.15,0,0,1-.38-.38,1,1,0,0,1-.12-.5A1,1,0,0,1,99,96.2a2,2,0,0,1,1.17-.3,3.37,3.37,0,0,1,1.35.28l-.23.53a3.07,3.07,0,0,0-1.17-.27,1.31,1.31,0,0,0-.69.15.42.42,0,0,0-.23.39.48.48,0,0,0,.08.3.89.89,0,0,0,.29.23,5.76,5.76,0,0,0,.75.31,3.1,3.1,0,0,1,1,.56A1,1,0,0,1,101.62,99.09Z"/><path class="cls-2" d="M104.39,100.34a1.81,1.81,0,0,1-1.44-.58,2.34,2.34,0,0,1-.51-1.61,2.44,2.44,0,0,1,.52-1.67,1.84,1.84,0,0,1,1.47-.58,2.62,2.62,0,0,1,.62.07,1.82,1.82,0,0,1,.48.15l-.2.55a3.09,3.09,0,0,0-.46-.14,2,2,0,0,0-.45-.06c-.87,0-1.31.56-1.31,1.67a2,2,0,0,0,.32,1.21,1.11,1.11,0,0,0,.94.42,2.93,2.93,0,0,0,1.1-.23v.57A2.33,2.33,0,0,1,104.39,100.34Z"/><path class="cls-2" d="M109.42,100.26V97.49a1.1,1.1,0,0,0-.24-.78,1,1,0,0,0-.75-.26,1.18,1.18,0,0,0-1,.37,1.81,1.81,0,0,0-.32,1.2v2.24h-.64V94.18h.64V96a4.22,4.22,0,0,1,0,.55h0a1.31,1.31,0,0,1,.55-.49,1.85,1.85,0,0,1,.8-.17,1.64,1.64,0,0,1,1.18.37,1.58,1.58,0,0,1,.39,1.19v2.79Z"/><path class="cls-2" d="M115.09,98.11a2.33,2.33,0,0,1-.53,1.64,1.85,1.85,0,0,1-1.45.59,1.89,1.89,0,0,1-1-.27,1.75,1.75,0,0,1-.69-.78,2.7,2.7,0,0,1-.24-1.18,2.36,2.36,0,0,1,.52-1.63,1.84,1.84,0,0,1,1.45-.58,1.81,1.81,0,0,1,1.43.6A2.3,2.3,0,0,1,115.09,98.11Zm-3.26,0a2,2,0,0,0,.33,1.25,1.13,1.13,0,0,0,1,.43,1.15,1.15,0,0,0,1-.42,2.06,2.06,0,0,0,.33-1.26,2,2,0,0,0-.33-1.24,1.17,1.17,0,0,0-1-.42,1.15,1.15,0,0,0-1,.42A2,2,0,0,0,111.83,98.11Z"/><path class="cls-2" d="M119.92,98.11a2.37,2.37,0,0,1-.52,1.64,1.88,1.88,0,0,1-1.46.59,1.94,1.94,0,0,1-1-.27,1.75,1.75,0,0,1-.69-.78,2.7,2.7,0,0,1-.24-1.18,2.36,2.36,0,0,1,.52-1.63A1.86,1.86,0,0,1,118,95.9a1.79,1.79,0,0,1,1.42.6A2.3,2.3,0,0,1,119.92,98.11Zm-3.26,0a2,2,0,0,0,.33,1.25,1.13,1.13,0,0,0,1,.43,1.15,1.15,0,0,0,1-.42,2.06,2.06,0,0,0,.33-1.26,2,2,0,0,0-.33-1.24,1.15,1.15,0,0,0-1-.42,1.12,1.12,0,0,0-1,.42A2,2,0,0,0,116.66,98.11Z"/><path class="cls-2" d="M121.71,100.26h-.65V94.18h.65Z"/><path class="cls-2" d="M55.88,104.91a1.6,1.6,0,0,1,1.31.57,2.55,2.55,0,0,1,.46,1.63,2.5,2.5,0,0,1-.47,1.64,1.58,1.58,0,0,1-1.3.59,1.93,1.93,0,0,1-.77-.16,1.46,1.46,0,0,1-.58-.47h0l-.14.55h-.47v-6.08h.65v1.48c0,.33,0,.62,0,.89h0A1.53,1.53,0,0,1,55.88,104.91Zm-.1.54a1.12,1.12,0,0,0-1,.38,2.9,2.9,0,0,0,0,2.57,1.16,1.16,0,0,0,1,.39,1,1,0,0,0,.89-.43,2.29,2.29,0,0,0,.29-1.25,2.2,2.2,0,0,0-.29-1.25A1.06,1.06,0,0,0,55.78,105.45Z"/><path class="cls-2" d="M59.4,105v2.77a1.2,1.2,0,0,0,.23.79,1,1,0,0,0,.75.25,1.21,1.21,0,0,0,1-.36,1.86,1.86,0,0,0,.31-1.2V105h.65v4.28h-.53l-.1-.58h0a1.24,1.24,0,0,1-.55.49,1.92,1.92,0,0,1-.81.17,1.67,1.67,0,0,1-1.17-.37,1.59,1.59,0,0,1-.39-1.19V105Z"/><path class="cls-2" d="M63.64,103.82a.45.45,0,0,1,.11-.33.39.39,0,0,1,.28-.1.35.35,0,0,1,.26.1.42.42,0,0,1,.12.33.41.41,0,0,1-.12.32.36.36,0,0,1-.26.11.39.39,0,0,1-.28-.11A.44.44,0,0,1,63.64,103.82Zm.71,5.44H63.7V105h.65Z"/><path class="cls-2" d="M66.37,109.26h-.65v-6.08h.65Z"/><path class="cls-2" d="M70.66,108.68h0a1.52,1.52,0,0,1-1.34.66,1.58,1.58,0,0,1-1.31-.58,2.53,2.53,0,0,1-.46-1.63,2.61,2.61,0,0,1,.46-1.65,1.75,1.75,0,0,1,2.65,0h0l0-.31,0-.3v-1.74h.65v6.08h-.53Zm-1.3.11a1.18,1.18,0,0,0,1-.36,1.81,1.81,0,0,0,.3-1.16v-.14a2.16,2.16,0,0,0-.3-1.3,1.14,1.14,0,0,0-1-.39,1,1,0,0,0-.87.45,2.2,2.2,0,0,0-.3,1.25,2.14,2.14,0,0,0,.3,1.24A1,1,0,0,0,69.36,108.79Z"/><path class="cls-2" d="M72.59,103.82a.45.45,0,0,1,.11-.33.38.38,0,0,1,.27-.1.36.36,0,0,1,.27.1.42.42,0,0,1,.12.33.41.41,0,0,1-.12.32.37.37,0,0,1-.27.11.39.39,0,0,1-.27-.11A.44.44,0,0,1,72.59,103.82Zm.7,5.44h-.64V105h.64Z"/><path class="cls-2" d="M77.6,109.26v-2.77a1.1,1.1,0,0,0-.24-.78,1,1,0,0,0-.74-.26,1.25,1.25,0,0,0-1,.36,1.84,1.84,0,0,0-.31,1.2v2.25h-.65V105h.53l.1.58h0a1.41,1.41,0,0,1,.56-.49,1.91,1.91,0,0,1,.8-.17,1.63,1.63,0,0,1,1.17.37,1.6,1.6,0,0,1,.39,1.2v2.79Z"/><path class="cls-2" d="M83.08,105v.41l-.79.09a1.32,1.32,0,0,1,.28.86,1.25,1.25,0,0,1-.43,1,1.72,1.72,0,0,1-1.18.38,2,2,0,0,1-.36,0,.65.65,0,0,0-.41.55.28.28,0,0,0,.14.26,1,1,0,0,0,.5.09h.76a1.75,1.75,0,0,1,1.07.29,1,1,0,0,1,.37.85,1.22,1.22,0,0,1-.57,1.09,3.06,3.06,0,0,1-1.67.37,2.24,2.24,0,0,1-1.29-.31A1,1,0,0,1,79,110a1,1,0,0,1,.25-.67,1.33,1.33,0,0,1,.71-.39.68.68,0,0,1-.28-.23.61.61,0,0,1-.11-.36.65.65,0,0,1,.13-.41,1.22,1.22,0,0,1,.39-.34,1.16,1.16,0,0,1-.54-.47,1.32,1.32,0,0,1-.21-.75,1.39,1.39,0,0,1,.42-1.08,1.74,1.74,0,0,1,1.2-.38,1.9,1.9,0,0,1,.6.08Zm-3.41,5a.58.58,0,0,0,.29.52,1.64,1.64,0,0,0,.84.18,2.36,2.36,0,0,0,1.21-.24.74.74,0,0,0,.39-.66.53.53,0,0,0-.21-.48,1.64,1.64,0,0,0-.81-.14H80.6a1,1,0,0,0-.68.21A.74.74,0,0,0,79.67,110Zm.35-3.63a.88.88,0,0,0,.26.68,1,1,0,0,0,.7.23.83.83,0,0,0,1-.92.85.85,0,0,0-1-1,.92.92,0,0,0-.7.25A1,1,0,0,0,80,106.35Z"/><path class="cls-2" d="M86.72,108.09a1,1,0,0,1-.44.92,2.06,2.06,0,0,1-1.25.33,2.72,2.72,0,0,1-1.33-.27v-.6a3.71,3.71,0,0,0,.66.24,2.83,2.83,0,0,0,.68.09,1.58,1.58,0,0,0,.79-.16.53.53,0,0,0,.27-.49.53.53,0,0,0-.22-.43,3.15,3.15,0,0,0-.84-.42,4.75,4.75,0,0,1-.85-.39,1.15,1.15,0,0,1-.38-.38,1,1,0,0,1-.12-.5,1,1,0,0,1,.43-.83,2,2,0,0,1,1.16-.3,3.37,3.37,0,0,1,1.35.28l-.23.53a3.06,3.06,0,0,0-1.16-.27,1.32,1.32,0,0,0-.7.15.42.42,0,0,0-.23.39.56.56,0,0,0,.08.3.89.89,0,0,0,.29.23,5.76,5.76,0,0,0,.75.31,3,3,0,0,1,1,.56A1,1,0,0,1,86.72,108.09Z"/><path class="cls-2" d="M91.24,108.8l.33,0,.26-.06v.5a1.37,1.37,0,0,1-.31.08,2.76,2.76,0,0,1-.37,0c-.83,0-1.25-.44-1.25-1.31v-2.55h-.61v-.31l.61-.27.28-.92h.37v1h1.24v.5H90.55V108a.81.81,0,0,0,.19.59A.63.63,0,0,0,91.24,108.8Z"/><path class="cls-2" d="M96.38,107.11a2.38,2.38,0,0,1-.53,1.64,1.87,1.87,0,0,1-1.46.59,1.94,1.94,0,0,1-1-.27,1.79,1.79,0,0,1-.68-.78,2.57,2.57,0,0,1-.25-1.18,2.37,2.37,0,0,1,.53-1.63,1.84,1.84,0,0,1,1.45-.58,1.82,1.82,0,0,1,1.43.6A2.35,2.35,0,0,1,96.38,107.11Zm-3.26,0a2,2,0,0,0,.32,1.25,1.13,1.13,0,0,0,1,.43,1.15,1.15,0,0,0,1-.42,2.06,2.06,0,0,0,.34-1.26,2,2,0,0,0-.34-1.24,1.32,1.32,0,0,0-1.93,0A2,2,0,0,0,93.12,107.11Z"/><path class="cls-2" d="M102.51,108.68h0a1.52,1.52,0,0,1-1.34.66,1.58,1.58,0,0,1-1.31-.58,2.53,2.53,0,0,1-.47-1.63,2.61,2.61,0,0,1,.47-1.65,1.58,1.58,0,0,1,1.31-.58,1.55,1.55,0,0,1,1.33.63h.05l0-.31,0-.3v-1.74h.65v6.08h-.53Zm-1.3.11a1.18,1.18,0,0,0,1-.36,1.81,1.81,0,0,0,.3-1.16v-.14a2.16,2.16,0,0,0-.3-1.3,1.16,1.16,0,0,0-1-.39,1,1,0,0,0-.87.45,2.2,2.2,0,0,0-.3,1.25,2.07,2.07,0,0,0,.3,1.24A1,1,0,0,0,101.21,108.79Z"/><path class="cls-2" d="M107.13,109.26l-.13-.61h0a1.79,1.79,0,0,1-.64.54,1.87,1.87,0,0,1-.8.15,1.41,1.41,0,0,1-1-.33,1.18,1.18,0,0,1-.37-.94c0-.86.7-1.31,2.08-1.35l.72,0v-.26a1.12,1.12,0,0,0-.21-.75.91.91,0,0,0-.7-.24,2.83,2.83,0,0,0-1.21.33l-.2-.5a3.91,3.91,0,0,1,.7-.27,3.2,3.2,0,0,1,.75-.09,1.64,1.64,0,0,1,1.14.34,1.43,1.43,0,0,1,.37,1.09v2.92Zm-1.47-.46a1.31,1.31,0,0,0,1-.33,1.23,1.23,0,0,0,.35-.93v-.39l-.65,0a2.34,2.34,0,0,0-1.11.24.72.72,0,0,0-.35.66.66.66,0,0,0,.22.54A.89.89,0,0,0,105.66,108.8Z"/><path class="cls-2" d="M110.33,108.8l.33,0,.25-.06v.5a1.23,1.23,0,0,1-.31.08,2.76,2.76,0,0,1-.37,0c-.83,0-1.24-.44-1.24-1.31v-2.55h-.61v-.31l.61-.27.27-.92h.38v1h1.24v.5h-1.24V108a.85.85,0,0,0,.18.59A.64.64,0,0,0,110.33,108.8Z"/><path class="cls-2" d="M113.58,109.34a2,2,0,0,1-1.5-.58,2.23,2.23,0,0,1-.55-1.61,2.46,2.46,0,0,1,.51-1.64,1.68,1.68,0,0,1,1.37-.61,1.59,1.59,0,0,1,1.27.53,2,2,0,0,1,.47,1.39v.41h-3a1.69,1.69,0,0,0,.38,1.15,1.32,1.32,0,0,0,1,.39,3.51,3.51,0,0,0,1.37-.29v.58a3.25,3.25,0,0,1-.65.21A3.88,3.88,0,0,1,113.58,109.34Zm-.18-3.9a1,1,0,0,0-.82.34,1.46,1.46,0,0,0-.36.93h2.24a1.42,1.42,0,0,0-.28-.94A1,1,0,0,0,113.4,105.44Z"/><path class="cls-1" d="M53.62,72.65c0-3.51.69-6.13,2.05-7.87a7.23,7.23,0,0,1,6-2.6,7.84,7.84,0,0,1,2.17.23v1.74a7.07,7.07,0,0,0-2.15-.3,5.43,5.43,0,0,0-4.38,1.79q-1.52,1.78-1.66,5.62h.15a4.66,4.66,0,0,1,4.24-2.1,5,5,0,0,1,3.8,1.45,5.51,5.51,0,0,1,1.38,4,6.08,6.08,0,0,1-1.52,4.37,5.41,5.41,0,0,1-4.11,1.59,5.27,5.27,0,0,1-4.39-2.08A9.19,9.19,0,0,1,53.62,72.65Zm6,6.15a3.39,3.39,0,0,0,2.69-1.09,4.64,4.64,0,0,0,1-3.15,4.12,4.12,0,0,0-.89-2.79,3.38,3.38,0,0,0-2.66-1,4.5,4.5,0,0,0-2,.45,3.78,3.78,0,0,0-1.46,1.25,2.84,2.84,0,0,0-.54,1.64,5.62,5.62,0,0,0,.49,2.35,4.14,4.14,0,0,0,1.38,1.72A3.48,3.48,0,0,0,59.62,78.8Z"/><path class="cls-1" d="M80.29,76.18H77.64v4.1H75.7v-4.1H67V74.41l8.47-12.07h2.15v12h2.65ZM75.7,74.34V68.4c0-1.16,0-2.48.12-3.94h-.1a18.36,18.36,0,0,1-1.1,1.94L69,74.34Z"/><path class="cls-1" d="M85.06,77.38l.18.28c-.21.81-.52,1.76-.91,2.83s-.82,2.08-1.25,3H81.55c.22-.84.47-1.89.73-3.13s.45-2.25.56-3Z"/><path class="cls-1" d="M100,71.33c0,3.09-.48,5.39-1.46,6.91a5.39,5.39,0,0,1-8.84,0q-1.5-2.34-1.5-6.86c0-3.11.48-5.41,1.45-6.92a5.39,5.39,0,0,1,8.85.1A12.75,12.75,0,0,1,100,71.33Zm-9.75,0A13.06,13.06,0,0,0,91.12,77,3.29,3.29,0,0,0,97,77a13.27,13.27,0,0,0,.91-5.65A13.16,13.16,0,0,0,97,65.7a3.31,3.31,0,0,0-5.86,0A13,13,0,0,0,90.21,71.33Z"/><path class="cls-1" d="M104.69,80.28l7.39-16h-9.72V62.43h11.87v1.63l-7.3,16.22Z"/><path class="cls-1" d="M116.93,72.65q0-5.27,2-7.87a7.21,7.21,0,0,1,6-2.6,7.92,7.92,0,0,1,2.18.23v1.74a7.11,7.11,0,0,0-2.15-.3,5.41,5.41,0,0,0-4.38,1.79c-1,1.19-1.57,3.06-1.66,5.62h.14a4.68,4.68,0,0,1,4.25-2.1,5,5,0,0,1,3.79,1.45,5.52,5.52,0,0,1,1.39,4,6.08,6.08,0,0,1-1.52,4.37A5.44,5.44,0,0,1,123,80.52a5.29,5.29,0,0,1-4.4-2.08A9.19,9.19,0,0,1,116.93,72.65Zm6,6.15a3.4,3.4,0,0,0,2.7-1.09,4.69,4.69,0,0,0,.95-3.15,4.07,4.07,0,0,0-.89-2.79,3.37,3.37,0,0,0-2.66-1,4.49,4.49,0,0,0-2,.45,3.71,3.71,0,0,0-1.46,1.25A2.84,2.84,0,0,0,119,74.1a5.78,5.78,0,0,0,.48,2.35,4.16,4.16,0,0,0,1.39,1.72A3.47,3.47,0,0,0,122.92,78.8Z"/><path class="cls-3" d="M32.12,21.93H31V17.22H25.69v4.71H24.53v-10h1.16v4.25H31V11.93h1.17Z"/><path class="cls-3" d="M41.15,18.17A4.13,4.13,0,0,1,40.23,21a3.25,3.25,0,0,1-2.55,1,3.31,3.31,0,0,1-1.78-.47,3.12,3.12,0,0,1-1.21-1.35,4.78,4.78,0,0,1-.42-2.07,4.12,4.12,0,0,1,.91-2.85,3.26,3.26,0,0,1,2.55-1,3.19,3.19,0,0,1,2.5,1A4.15,4.15,0,0,1,41.15,18.17Zm-5.71,0A3.57,3.57,0,0,0,36,20.36a2,2,0,0,0,1.69.75,2,2,0,0,0,1.69-.75A3.53,3.53,0,0,0,40,18.17,3.53,3.53,0,0,0,39.4,16a2,2,0,0,0-1.71-.74A2,2,0,0,0,36,16,3.52,3.52,0,0,0,35.44,18.17Z"/><path class="cls-3" d="M44.28,21.93H43.14V11.29h1.14Z"/><path class="cls-3" d="M46.59,12.4a.74.74,0,0,1,.19-.57.68.68,0,0,1,.48-.18.64.64,0,0,1,.47.19.73.73,0,0,1,.2.56.78.78,0,0,1-.2.58.67.67,0,0,1-.47.18.68.68,0,0,1-.48-.18A.78.78,0,0,1,46.59,12.4Zm1.23,9.53H46.68v-7.5h1.14Z"/><path class="cls-3" d="M55.06,19.88a1.89,1.89,0,0,1-.78,1.62,3.73,3.73,0,0,1-2.19.56,4.67,4.67,0,0,1-2.32-.47V20.54a6.06,6.06,0,0,0,1.15.43,5.22,5.22,0,0,0,1.2.16,2.71,2.71,0,0,0,1.37-.29A.94.94,0,0,0,54,20a.93.93,0,0,0-.38-.75,5.93,5.93,0,0,0-1.48-.74,7.63,7.63,0,0,1-1.48-.68,1.89,1.89,0,0,1-.66-.66,1.74,1.74,0,0,1-.21-.88,1.66,1.66,0,0,1,.74-1.44,3.43,3.43,0,0,1,2-.53,6,6,0,0,1,2.37.49l-.4.92a5.44,5.44,0,0,0-2-.46,2.32,2.32,0,0,0-1.21.25.77.77,0,0,0-.41.7.85.85,0,0,0,.15.51,1.41,1.41,0,0,0,.5.4,9.45,9.45,0,0,0,1.31.56,4.78,4.78,0,0,1,1.8,1A1.71,1.71,0,0,1,55.06,19.88Z"/><path class="cls-3" d="M59.32,21.13a3.58,3.58,0,0,0,.58-.05l.45-.09v.87a2.09,2.09,0,0,1-.55.15,5.12,5.12,0,0,1-.64,0c-1.45,0-2.17-.76-2.17-2.29V15.32H55.91v-.55L57,14.3l.47-1.6h.66v1.73h2.17v.89H58.12v4.41a1.51,1.51,0,0,0,.32,1A1.11,1.11,0,0,0,59.32,21.13Z"/><path class="cls-3" d="M61.75,12.4a.74.74,0,0,1,.19-.57.68.68,0,0,1,.48-.18.64.64,0,0,1,.47.19.73.73,0,0,1,.2.56.78.78,0,0,1-.2.58.67.67,0,0,1-.47.18.68.68,0,0,1-.48-.18A.78.78,0,0,1,61.75,12.4ZM63,21.93H61.84v-7.5H63Z"/><path class="cls-3" d="M68.38,22.06a3.2,3.2,0,0,1-2.52-1A4.14,4.14,0,0,1,65,18.23a4.29,4.29,0,0,1,.9-2.91,3.29,3.29,0,0,1,2.59-1,5.65,5.65,0,0,1,1.08.11,3.27,3.27,0,0,1,.84.28l-.35,1a5.66,5.66,0,0,0-.82-.25,4,4,0,0,0-.78-.1q-2.28,0-2.28,2.91a3.46,3.46,0,0,0,.55,2.12,1.92,1.92,0,0,0,1.65.74,5,5,0,0,0,1.92-.4v1A4.07,4.07,0,0,1,68.38,22.06Z"/><path class="cls-3" d="M80.14,12.83a3.23,3.23,0,0,0-2.6,1.1,4.39,4.39,0,0,0-1,3,4.52,4.52,0,0,0,.92,3A3.29,3.29,0,0,0,80.12,21a8.6,8.6,0,0,0,2.39-.38v1a7.33,7.33,0,0,1-2.56.39,4.31,4.31,0,0,1-3.41-1.34,5.5,5.5,0,0,1-1.2-3.8,5.94,5.94,0,0,1,.58-2.71,4.11,4.11,0,0,1,1.66-1.79,5.07,5.07,0,0,1,2.57-.63,6.22,6.22,0,0,1,2.75.57l-.49,1A5.41,5.41,0,0,0,80.14,12.83Z"/><path class="cls-3" d="M91,18.17A4.09,4.09,0,0,1,90.06,21a3.22,3.22,0,0,1-2.55,1,3.31,3.31,0,0,1-1.78-.47,3,3,0,0,1-1.2-1.35,4.64,4.64,0,0,1-.43-2.07A4.12,4.12,0,0,1,85,15.32a3.24,3.24,0,0,1,2.54-1,3.19,3.19,0,0,1,2.5,1A4.11,4.11,0,0,1,91,18.17Zm-5.71,0a3.58,3.58,0,0,0,.57,2.19,2.28,2.28,0,0,0,3.38,0,3.47,3.47,0,0,0,.58-2.19A3.46,3.46,0,0,0,89.23,16a2.31,2.31,0,0,0-3.38,0A3.52,3.52,0,0,0,85.28,18.17Z"/><path class="cls-3" d="M102.53,21.93V17.05a2,2,0,0,0-.39-1.34,1.47,1.47,0,0,0-1.19-.45,1.91,1.91,0,0,0-1.56.61,2.88,2.88,0,0,0-.51,1.87v4.19H97.75V17.05a2,2,0,0,0-.39-1.34,1.47,1.47,0,0,0-1.19-.45,1.84,1.84,0,0,0-1.56.64,3.46,3.46,0,0,0-.5,2.1v3.93H93v-7.5h.92l.18,1h.06a2.17,2.17,0,0,1,.9-.85,2.72,2.72,0,0,1,1.31-.31,2.23,2.23,0,0,1,2.3,1.27h0a2.48,2.48,0,0,1,1-.93,3,3,0,0,1,1.45-.34A2.57,2.57,0,0,1,103,15a2.94,2.94,0,0,1,.63,2.09v4.89Z"/><path class="cls-3" d="M115.55,21.93V17.05a2.06,2.06,0,0,0-.38-1.34,1.5,1.5,0,0,0-1.19-.45,1.92,1.92,0,0,0-1.57.61,2.88,2.88,0,0,0-.5,1.87v4.19h-1.14V17.05a2.06,2.06,0,0,0-.38-1.34,1.5,1.5,0,0,0-1.2-.45,1.84,1.84,0,0,0-1.56.64,3.46,3.46,0,0,0-.5,2.1v3.93H106v-7.5h.92l.19,1h0a2.2,2.2,0,0,1,.91-.85,2.7,2.7,0,0,1,1.31-.31,2.21,2.21,0,0,1,2.29,1.27h.06a2.36,2.36,0,0,1,1-.93,3,3,0,0,1,1.45-.34,2.54,2.54,0,0,1,1.9.65,2.94,2.94,0,0,1,.63,2.09v4.89Z"/><path class="cls-3" d="M120.09,14.43v4.86a2,2,0,0,0,.41,1.37,1.72,1.72,0,0,0,1.31.45,2.13,2.13,0,0,0,1.72-.64,3.27,3.27,0,0,0,.54-2.1V14.43h1.14v7.5h-.94l-.16-1h-.06a2.36,2.36,0,0,1-1,.85,3.17,3.17,0,0,1-1.41.29,2.82,2.82,0,0,1-2-.65,2.76,2.76,0,0,1-.68-2.07V14.43Z"/><path class="cls-3" d="M132.74,21.93V17.08a2,2,0,0,0-.42-1.37,1.68,1.68,0,0,0-1.3-.45,2.11,2.11,0,0,0-1.72.64,3.17,3.17,0,0,0-.55,2.1v3.93h-1.14v-7.5h.93l.18,1h.06a2.26,2.26,0,0,1,1-.86,3.24,3.24,0,0,1,1.41-.3,2.84,2.84,0,0,1,2,.65,2.77,2.77,0,0,1,.69,2.09v4.89Z"/><path class="cls-3" d="M136.11,12.4a.74.74,0,0,1,.19-.57.68.68,0,0,1,.48-.18.64.64,0,0,1,.47.19.73.73,0,0,1,.2.56.78.78,0,0,1-.2.58.67.67,0,0,1-.47.18.68.68,0,0,1-.48-.18A.78.78,0,0,1,136.11,12.4Zm1.23,9.53h-1.13v-7.5h1.13Z"/><path class="cls-3" d="M142.17,21.13a3.68,3.68,0,0,0,.58-.05l.44-.09v.87a2,2,0,0,1-.54.15,5.42,5.42,0,0,1-.65,0c-1.45,0-2.17-.76-2.17-2.29V15.32h-1.07v-.55l1.07-.47.48-1.6H141v1.73h2.18v.89H141v4.41a1.47,1.47,0,0,0,.33,1A1.08,1.08,0,0,0,142.17,21.13Z"/><path class="cls-3" d="M143.5,14.43h1.22l1.64,4.28a16.71,16.71,0,0,1,.67,2.11h.05c.06-.23.19-.63.38-1.19s.8-2.3,1.85-5.2h1.22L147.31,23a4.21,4.21,0,0,1-1.12,1.79,2.4,2.4,0,0,1-1.57.53,4.38,4.38,0,0,1-1-.12v-.91a3.61,3.61,0,0,0,.84.09A1.72,1.72,0,0,0,146.1,23l.42-1.06Z"/><path class="cls-3" d="M32.5,30.49a5,5,0,0,1-1.34,3.78,5.26,5.26,0,0,1-3.86,1.31H24.53v-10h3.06a4.9,4.9,0,0,1,3.62,1.29A4.84,4.84,0,0,1,32.5,30.49Zm-1.23,0a4,4,0,0,0-1-3,3.91,3.91,0,0,0-2.91-1H25.69v8H27.1a4.32,4.32,0,0,0,3.13-1A4.05,4.05,0,0,0,31.27,30.53Z"/><path class="cls-3" d="M37.73,35.72a3.45,3.45,0,0,1-2.62-1,3.93,3.93,0,0,1-1-2.81A4.31,4.31,0,0,1,35,29,3,3,0,0,1,37.43,28a2.81,2.81,0,0,1,2.23.93,3.53,3.53,0,0,1,.82,2.44V32H35.32A2.94,2.94,0,0,0,36,34a2.28,2.28,0,0,0,1.78.69,6,6,0,0,0,2.39-.51v1a5.86,5.86,0,0,1-1.14.38A6.74,6.74,0,0,1,37.73,35.72Zm-.31-6.82a1.87,1.87,0,0,0-1.44.59,2.68,2.68,0,0,0-.63,1.63h3.92a2.5,2.5,0,0,0-.48-1.65A1.7,1.7,0,0,0,37.42,28.9Z"/><path class="cls-3" d="M44.06,35.58l-2.85-7.49h1.22L44,32.53c.37,1,.58,1.72.65,2h.05a13.51,13.51,0,0,1,.48-1.5q.39-1.14,1.79-5h1.22l-2.85,7.49Z"/><path class="cls-3" d="M52.6,35.72a3.47,3.47,0,0,1-2.63-1,3.93,3.93,0,0,1-1-2.81,4.32,4.32,0,0,1,.9-2.88A3,3,0,0,1,52.3,28a2.83,2.83,0,0,1,2.23.93,3.53,3.53,0,0,1,.82,2.44V32H50.19a2.9,2.9,0,0,0,.67,2,2.28,2.28,0,0,0,1.78.69A6,6,0,0,0,55,34.22v1a5.86,5.86,0,0,1-1.14.38A6.82,6.82,0,0,1,52.6,35.72Zm-.31-6.82a1.87,1.87,0,0,0-1.44.59,2.68,2.68,0,0,0-.63,1.63h3.91a2.55,2.55,0,0,0-.47-1.65A1.7,1.7,0,0,0,52.29,28.9Z"/><path class="cls-3" d="M58.42,35.58H57.29V24.94h1.13Z"/><path class="cls-3" d="M67.29,31.83a4.12,4.12,0,0,1-.92,2.86,3.24,3.24,0,0,1-2.55,1A3.4,3.4,0,0,1,62,35.25a3.21,3.21,0,0,1-1.21-1.36,4.7,4.7,0,0,1-.42-2.06A4.07,4.07,0,0,1,61.33,29a3.2,3.2,0,0,1,2.54-1A3.17,3.17,0,0,1,66.37,29,4.1,4.1,0,0,1,67.29,31.83Zm-5.71,0A3.57,3.57,0,0,0,62.16,34a2.28,2.28,0,0,0,3.38,0,3.57,3.57,0,0,0,.58-2.19,3.51,3.51,0,0,0-.58-2.17,2.32,2.32,0,0,0-3.39,0A3.5,3.5,0,0,0,61.58,31.83Z"/><path class="cls-3" d="M72.77,35.72a3.27,3.27,0,0,1-1.34-.27,2.53,2.53,0,0,1-1-.83h-.09a9.16,9.16,0,0,1,.09,1.24v3.08H69.28V28.09h.93l.15,1h.06a2.57,2.57,0,0,1,1-.88A3,3,0,0,1,72.77,28a2.77,2.77,0,0,1,2.3,1,4.49,4.49,0,0,1,.81,2.86,4.52,4.52,0,0,1-.82,2.87A2.79,2.79,0,0,1,72.77,35.72Zm-.17-6.8a2,2,0,0,0-1.66.63,3.32,3.32,0,0,0-.52,2v.25a3.78,3.78,0,0,0,.52,2.26,2,2,0,0,0,1.69.68A1.73,1.73,0,0,0,74.15,34a3.69,3.69,0,0,0,.55-2.17,3.52,3.52,0,0,0-.55-2.14A1.8,1.8,0,0,0,72.6,28.92Z"/><path class="cls-3" d="M87.41,35.58V30.71A2.07,2.07,0,0,0,87,29.36a1.51,1.51,0,0,0-1.19-.44,1.94,1.94,0,0,0-1.57.6,3,3,0,0,0-.5,1.88v4.18H82.63V30.71a2,2,0,0,0-.38-1.35,1.51,1.51,0,0,0-1.2-.44,1.84,1.84,0,0,0-1.56.64A3.44,3.44,0,0,0,79,31.65v3.93H77.86V28.09h.92l.19,1h0a2.33,2.33,0,0,1,.91-.85A2.84,2.84,0,0,1,81.24,28a2.24,2.24,0,0,1,2.3,1.27h0a2.42,2.42,0,0,1,1-.93A3.13,3.13,0,0,1,86,28a2.51,2.51,0,0,1,1.9.66,2.91,2.91,0,0,1,.64,2.08v4.89Z"/><path class="cls-3" d="M94.05,35.72a3.45,3.45,0,0,1-2.62-1,3.93,3.93,0,0,1-1-2.81A4.31,4.31,0,0,1,91.36,29,3,3,0,0,1,93.75,28a2.81,2.81,0,0,1,2.23.93,3.53,3.53,0,0,1,.82,2.44V32H91.64a3,3,0,0,0,.67,2,2.3,2.3,0,0,0,1.78.69,6,6,0,0,0,2.39-.51v1a5.86,5.86,0,0,1-1.14.38A6.67,6.67,0,0,1,94.05,35.72Zm-.31-6.82a1.87,1.87,0,0,0-1.44.59,2.68,2.68,0,0,0-.63,1.63h3.92a2.5,2.5,0,0,0-.48-1.65A1.7,1.7,0,0,0,93.74,28.9Z"/><path class="cls-3" d="M103.87,35.58V30.73a1.93,1.93,0,0,0-.42-1.36,1.7,1.7,0,0,0-1.31-.45,2.17,2.17,0,0,0-1.72.63,3.26,3.26,0,0,0-.55,2.1v3.93H98.74V28.09h.92l.19,1h.05a2.33,2.33,0,0,1,1-.85,3.06,3.06,0,0,1,1.4-.31,2.84,2.84,0,0,1,2,.66,2.78,2.78,0,0,1,.68,2.08v4.89Z"/><path class="cls-3" d="M109.75,34.78a3.6,3.6,0,0,0,.58,0l.45-.09v.86a2.22,2.22,0,0,1-.55.15,3.91,3.91,0,0,1-.64.06c-1.45,0-2.18-.76-2.18-2.29V29h-1.07v-.55l1.07-.47.48-1.6h.66v1.74h2.17V29h-2.17v4.41a1.54,1.54,0,0,0,.32,1A1.12,1.12,0,0,0,109.75,34.78Z"/></g></svg>