<svg xmlns="http://www.w3.org/2000/svg" viewBox="0 0 76.14 41.29"><defs><style>.cls-1{fill:#4d4e50;}.cls-2{fill:#1568a1;}</style></defs><g id="Economic_Opportunities_Image" data-name="Economic Opportunities Image"><path class="cls-1" d="M2.62,26H1.53v3.78H.88V26H.11v-.29l.77-.23v-.24c0-1.06.46-1.58,1.38-1.58a2.53,2.53,0,0,1,.79.14l-.16.52a2,2,0,0,0-.64-.13.65.65,0,0,0-.55.25,1.41,1.41,0,0,0-.17.78v.28H2.62Z"/><path class="cls-1" d="M6,29.81,5.9,29.2h0a1.85,1.85,0,0,1-.64.55,2,2,0,0,1-.79.14,1.42,1.42,0,0,1-1-.33,1.2,1.2,0,0,1-.36-.93c0-.87.69-1.32,2.07-1.36l.73,0V27a1.07,1.07,0,0,0-.22-.75A.87.87,0,0,0,5,26a2.8,2.8,0,0,0-1.21.33l-.2-.49a2.61,2.61,0,0,1,.69-.27,2.84,2.84,0,0,1,.76-.1,1.59,1.59,0,0,1,1.13.34,1.4,1.4,0,0,1,.37,1.09v2.92Zm-1.46-.46A1.32,1.32,0,0,0,5.52,29a1.22,1.22,0,0,0,.34-.93V27.7l-.65,0A2.41,2.41,0,0,0,4.1,28a.71.71,0,0,0-.34.66.67.67,0,0,0,.21.54A.9.9,0,0,0,4.57,29.35Z"/><path class="cls-1" d="M9.8,25.45a2.59,2.59,0,0,1,.51.05l-.09.6A2.09,2.09,0,0,0,9.75,26a1.16,1.16,0,0,0-.89.42,1.56,1.56,0,0,0-.36,1.05v2.3H7.85V25.53h.53l.08.79h0a1.89,1.89,0,0,1,.57-.64A1.32,1.32,0,0,1,9.8,25.45Z"/><path class="cls-1" d="M16.57,29.81V27a1.11,1.11,0,0,0-.22-.76.84.84,0,0,0-.68-.26,1.1,1.1,0,0,0-.89.35,1.61,1.61,0,0,0-.29,1.07v2.39h-.65V27a1.11,1.11,0,0,0-.22-.76.84.84,0,0,0-.68-.26,1.06,1.06,0,0,0-.9.37,2,2,0,0,0-.28,1.19v2.25h-.65V25.53h.53l.11.58h0a1.24,1.24,0,0,1,.51-.48,1.6,1.6,0,0,1,.75-.18,1.28,1.28,0,0,1,1.32.73h0a1.28,1.28,0,0,1,.55-.53,1.73,1.73,0,0,1,.83-.2,1.45,1.45,0,0,1,1.09.37,1.69,1.69,0,0,1,.36,1.2v2.79Z"/><path class="cls-1" d="M20.36,29.89a2,2,0,0,1-1.5-.58,2.27,2.27,0,0,1-.54-1.61,2.48,2.48,0,0,1,.51-1.64,1.67,1.67,0,0,1,1.36-.61,1.63,1.63,0,0,1,1.28.53,2,2,0,0,1,.47,1.4v.41H19a1.68,1.68,0,0,0,.38,1.14,1.32,1.32,0,0,0,1,.39A3.3,3.3,0,0,0,21.75,29v.58a3.06,3.06,0,0,1-.65.21A3.15,3.15,0,0,1,20.36,29.89ZM20.19,26a1.06,1.06,0,0,0-.83.34,1.58,1.58,0,0,0-.36.93h2.24a1.44,1.44,0,0,0-.27-.94A1,1,0,0,0,20.19,26Z"/><path class="cls-1" d="M25,25.45a2.59,2.59,0,0,1,.51.05l-.09.6A2.23,2.23,0,0,0,25,26a1.15,1.15,0,0,0-.89.42,1.51,1.51,0,0,0-.37,1.05v2.3H23V25.53h.54l.07.79h0a1.81,1.81,0,0,1,.58-.64A1.3,1.3,0,0,1,25,25.45Z"/><path class="cls-1" d="M29.07,28.64a1.06,1.06,0,0,1-.45.92,2,2,0,0,1-1.25.33,2.68,2.68,0,0,1-1.32-.27V29a3.21,3.21,0,0,0,.66.24,2.71,2.71,0,0,0,.68.09,1.51,1.51,0,0,0,.78-.16.53.53,0,0,0,.27-.49.54.54,0,0,0-.21-.43,3.44,3.44,0,0,0-.85-.42,4.75,4.75,0,0,1-.85-.39,1.11,1.11,0,0,1-.37-.38,1,1,0,0,1-.13-.5,1,1,0,0,1,.43-.83,2,2,0,0,1,1.17-.3,3.37,3.37,0,0,1,1.35.28l-.23.53A3.07,3.07,0,0,0,27.58,26a1.26,1.26,0,0,0-.69.15.44.44,0,0,0-.24.4.48.48,0,0,0,.09.29.84.84,0,0,0,.28.23,7.06,7.06,0,0,0,.75.32,2.85,2.85,0,0,1,1,.55A1,1,0,0,1,29.07,28.64Z"/><path class="cls-1" d="M33.59,29.35l.33,0,.25-.06v.5a1.23,1.23,0,0,1-.31.08,1.73,1.73,0,0,1-.37,0c-.83,0-1.24-.44-1.24-1.31V26h-.61v-.31l.61-.27.27-.91h.38v1h1.24V26H32.9v2.52a.9.9,0,0,0,.18.6A.66.66,0,0,0,33.59,29.35Z"/><path class="cls-1" d="M37,25.45a2.59,2.59,0,0,1,.51.05l-.09.6a2.09,2.09,0,0,0-.47-.06,1.16,1.16,0,0,0-.89.42,1.56,1.56,0,0,0-.36,1.05v2.3H35V25.53h.53l.08.79h0a1.89,1.89,0,0,1,.57-.64A1.32,1.32,0,0,1,37,25.45Z"/><path class="cls-1" d="M40.93,29.81l-.13-.61h0a1.94,1.94,0,0,1-.64.55,2.08,2.08,0,0,1-.8.14,1.44,1.44,0,0,1-1-.33,1.2,1.2,0,0,1-.36-.93c0-.87.69-1.32,2.08-1.36l.72,0V27a1.12,1.12,0,0,0-.21-.75.91.91,0,0,0-.7-.24,2.83,2.83,0,0,0-1.21.33l-.2-.49a2.68,2.68,0,0,1,.7-.27,2.76,2.76,0,0,1,.75-.1A1.64,1.64,0,0,1,41,25.8a1.43,1.43,0,0,1,.37,1.09v2.92Zm-1.47-.46a1.32,1.32,0,0,0,.95-.33,1.23,1.23,0,0,0,.35-.93V27.7l-.65,0A2.42,2.42,0,0,0,39,28a.73.73,0,0,0-.34.66.67.67,0,0,0,.21.54A.93.93,0,0,0,39.46,29.35Z"/><path class="cls-1" d="M42.69,24.37A.41.41,0,0,1,42.8,24a.36.36,0,0,1,.27-.1.39.39,0,0,1,.27.1.41.41,0,0,1,.11.33.4.4,0,0,1-.11.32.36.36,0,0,1-.27.11.33.33,0,0,1-.27-.11A.4.4,0,0,1,42.69,24.37Zm.7,5.44h-.65V25.53h.65Z"/><path class="cls-1" d="M47.69,29.81V27a1.1,1.1,0,0,0-.23-.78,1,1,0,0,0-.75-.26,1.23,1.23,0,0,0-1,.36,1.85,1.85,0,0,0-.32,1.2v2.25h-.64V25.53h.52l.11.58h0a1.34,1.34,0,0,1,.56-.49,1.88,1.88,0,0,1,.8-.17A1.36,1.36,0,0,1,48.34,27v2.79Z"/><path class="cls-1" d="M51.48,29.89A2,2,0,0,1,50,29.31a2.23,2.23,0,0,1-.55-1.61A2.48,2.48,0,0,1,50,26.06a1.68,1.68,0,0,1,1.37-.61,1.62,1.62,0,0,1,1.27.53,2,2,0,0,1,.47,1.4v.41h-3a1.68,1.68,0,0,0,.38,1.14,1.32,1.32,0,0,0,1,.39A3.3,3.3,0,0,0,52.87,29v.58a2.89,2.89,0,0,1-.65.21A3.15,3.15,0,0,1,51.48,29.89ZM51.31,26a1,1,0,0,0-.82.34,1.52,1.52,0,0,0-.37.93h2.24a1.44,1.44,0,0,0-.27-.94A1,1,0,0,0,51.31,26Z"/><path class="cls-1" d="M57.08,29.24h0a1.52,1.52,0,0,1-1.34.65,1.58,1.58,0,0,1-1.31-.58,2.51,2.51,0,0,1-.46-1.63A2.58,2.58,0,0,1,54.39,26a1.6,1.6,0,0,1,1.31-.59,1.54,1.54,0,0,1,1.33.63h.06l0-.31,0-.3V23.73h.65v6.08h-.53Zm-1.3.11a1.19,1.19,0,0,0,1-.37,1.81,1.81,0,0,0,.3-1.16v-.14a2.16,2.16,0,0,0-.3-1.3,1.14,1.14,0,0,0-1-.39,1,1,0,0,0-.87.45,2.2,2.2,0,0,0-.3,1.25,2.12,2.12,0,0,0,.3,1.24A1,1,0,0,0,55.78,29.35Z"/><path class="cls-1" d="M2.07,38.35l.33,0,.26-.06v.5a1.37,1.37,0,0,1-.31.08,1.73,1.73,0,0,1-.37,0c-.83,0-1.25-.44-1.25-1.31V35H.12v-.31l.61-.27L1,33.54h.37v1H2.62V35H1.38v2.52a.85.85,0,0,0,.19.6A.65.65,0,0,0,2.07,38.35Z"/><path class="cls-1" d="M7.21,36.67a2.37,2.37,0,0,1-.53,1.63,1.87,1.87,0,0,1-1.46.59,1.94,1.94,0,0,1-1-.27,1.82,1.82,0,0,1-.68-.77,2.59,2.59,0,0,1-.25-1.18A2.38,2.38,0,0,1,3.8,35a1.84,1.84,0,0,1,1.45-.58,1.82,1.82,0,0,1,1.43.6A2.38,2.38,0,0,1,7.21,36.67Zm-3.27,0a2,2,0,0,0,.33,1.25,1.16,1.16,0,0,0,1,.43,1.15,1.15,0,0,0,1-.43,2,2,0,0,0,.33-1.25,1.91,1.91,0,0,0-.33-1.24,1.13,1.13,0,0,0-1-.43,1.15,1.15,0,0,0-1,.42A2,2,0,0,0,3.94,36.67Z"/><path class="cls-1" d="M13.34,38.24h0a1.53,1.53,0,0,1-1.34.65,1.58,1.58,0,0,1-1.31-.58,2.51,2.51,0,0,1-.47-1.63A2.58,2.58,0,0,1,10.65,35,1.59,1.59,0,0,1,12,34.45a1.55,1.55,0,0,1,1.33.63h.05l0-.31,0-.3V32.73H14v6.08h-.53Zm-1.3.11A1.19,1.19,0,0,0,13,38a1.81,1.81,0,0,0,.3-1.16v-.14a2.16,2.16,0,0,0-.3-1.3A1.16,1.16,0,0,0,12,35a1,1,0,0,0-.87.45,2.2,2.2,0,0,0-.3,1.25,2.12,2.12,0,0,0,.3,1.24A1,1,0,0,0,12,38.35Z"/><path class="cls-1" d="M18,38.81l-.13-.61h0a1.94,1.94,0,0,1-.64.55,2,2,0,0,1-.8.14,1.45,1.45,0,0,1-1-.33,1.2,1.2,0,0,1-.36-.93c0-.87.69-1.32,2.08-1.36l.72,0V36a1.12,1.12,0,0,0-.21-.75.91.91,0,0,0-.7-.24,2.83,2.83,0,0,0-1.21.33l-.2-.49a2.68,2.68,0,0,1,.7-.27,2.76,2.76,0,0,1,.75-.1,1.64,1.64,0,0,1,1.14.34,1.43,1.43,0,0,1,.37,1.09v2.92Zm-1.47-.46a1.31,1.31,0,0,0,1-.33,1.23,1.23,0,0,0,.35-.93V36.7l-.65,0A2.42,2.42,0,0,0,16,37a.73.73,0,0,0-.34.66.65.65,0,0,0,.22.54A.89.89,0,0,0,16.49,38.35Z"/><path class="cls-1" d="M21.16,38.35l.33,0,.25-.06v.5a1.23,1.23,0,0,1-.31.08,1.73,1.73,0,0,1-.37,0c-.83,0-1.24-.44-1.24-1.31V35h-.61v-.31l.61-.27.27-.91h.38v1h1.24V35H20.47v2.52a.9.9,0,0,0,.18.6A.66.66,0,0,0,21.16,38.35Z"/><path class="cls-1" d="M24.41,38.89a2,2,0,0,1-1.5-.58,2.23,2.23,0,0,1-.55-1.61,2.48,2.48,0,0,1,.51-1.64,1.69,1.69,0,0,1,1.37-.61,1.62,1.62,0,0,1,1.27.53,2,2,0,0,1,.47,1.4v.41H23a1.68,1.68,0,0,0,.38,1.14,1.32,1.32,0,0,0,1,.39A3.34,3.34,0,0,0,25.8,38v.58a3.28,3.28,0,0,1-1.39.28ZM24.23,35a1,1,0,0,0-.82.34,1.46,1.46,0,0,0-.36.93h2.23a1.44,1.44,0,0,0-.27-.94A1,1,0,0,0,24.23,35Z"/><path class="cls-2" d="M13,19H1.22V17.25l4.7-4.72a34,34,0,0,0,2.83-3.1,7.83,7.83,0,0,0,1-1.81,5.08,5.08,0,0,0,.34-1.89,3,3,0,0,0-.87-2.26,3.31,3.31,0,0,0-2.4-.84A6,6,0,0,0,4.74,3,8.07,8.07,0,0,0,2.53,4.33L1.45,3A8.23,8.23,0,0,1,6.82.9a5.74,5.74,0,0,1,3.95,1.28,4.45,4.45,0,0,1,1.42,3.47A6.59,6.59,0,0,1,11.24,9a21,21,0,0,1-3.56,4.2L3.77,17v.1H13Z"/><path class="cls-2" d="M15.72,11.37q0-5.26,2-7.87A7.23,7.23,0,0,1,23.82.9,8.3,8.3,0,0,1,26,1.13V2.87a7.07,7.07,0,0,0-2.15-.3,5.43,5.43,0,0,0-4.38,1.79Q17.95,6.15,17.8,10h.14a4.69,4.69,0,0,1,4.25-2.1A5,5,0,0,1,26,9.33a5.45,5.45,0,0,1,1.39,3.94,6.09,6.09,0,0,1-1.52,4.38,5.41,5.41,0,0,1-4.11,1.59,5.26,5.26,0,0,1-4.39-2.08A9.13,9.13,0,0,1,15.72,11.37Zm6,6.15a3.39,3.39,0,0,0,2.69-1.09,4.65,4.65,0,0,0,1-3.16,4.11,4.11,0,0,0-.89-2.78,3.4,3.4,0,0,0-2.67-1,4.49,4.49,0,0,0-2,.45,3.71,3.71,0,0,0-1.46,1.25,2.84,2.84,0,0,0-.54,1.64,5.62,5.62,0,0,0,.49,2.35,4.07,4.07,0,0,0,1.38,1.72A3.48,3.48,0,0,0,21.72,17.52Z"/><path class="cls-2" d="M32.86,16.1l.18.28a28.93,28.93,0,0,1-.91,2.83c-.4,1.08-.82,2.09-1.25,3H29.36c.22-.84.46-1.89.72-3.13s.45-2.25.56-3Z"/><path class="cls-2" d="M47.67,8.77q0,10.47-8.11,10.47A8.34,8.34,0,0,1,37.32,19V17.25a6.92,6.92,0,0,0,2.22.32A5.38,5.38,0,0,0,44,15.76a9.15,9.15,0,0,0,1.63-5.56h-.14a4.39,4.39,0,0,1-1.79,1.54,5.63,5.63,0,0,1-2.5.53,5,5,0,0,1-3.76-1.41A5.4,5.4,0,0,1,36,6.9a6,6,0,0,1,1.56-4.39A5.39,5.39,0,0,1,41.66.9a5.49,5.49,0,0,1,3.18.93,5.9,5.9,0,0,1,2.1,2.72A11.29,11.29,0,0,1,47.67,8.77Zm-6-6.14A3.38,3.38,0,0,0,39,3.75a4.72,4.72,0,0,0-1,3.13,4.08,4.08,0,0,0,.88,2.76,3.37,3.37,0,0,0,2.67,1,4.63,4.63,0,0,0,2-.45A3.71,3.71,0,0,0,45.08,9a2.84,2.84,0,0,0,.54-1.64A5.69,5.69,0,0,0,45.12,5a4.23,4.23,0,0,0-1.4-1.71A3.55,3.55,0,0,0,41.66,2.63Z"/><path class="cls-2" d="M62.06,10.05q0,4.64-1.46,6.91a4.93,4.93,0,0,1-4.46,2.28,4.87,4.87,0,0,1-4.38-2.33q-1.5-2.34-1.5-6.86c0-3.11.48-5.41,1.45-6.92a5.38,5.38,0,0,1,8.84.1Q62.07,5.58,62.06,10.05Zm-9.75,0a13.06,13.06,0,0,0,.91,5.67,3.29,3.29,0,0,0,5.86,0,13.3,13.3,0,0,0,.9-5.65,13.19,13.19,0,0,0-.9-5.63,3.31,3.31,0,0,0-5.86,0A13,13,0,0,0,52.31,10.05Z"/><path class="cls-2" d="M75.59,5.35a4.09,4.09,0,0,1-1,2.8A4.82,4.82,0,0,1,71.91,9.6v.1a5.09,5.09,0,0,1,3.19,1.37,4,4,0,0,1,1,2.88,4.67,4.67,0,0,1-1.78,3.92,8,8,0,0,1-5,1.37,14.88,14.88,0,0,1-2.6-.21,8.78,8.78,0,0,1-2.29-.75V16.35a11.49,11.49,0,0,0,2.47.87,11.26,11.26,0,0,0,2.49.3c3.08,0,4.63-1.21,4.63-3.62,0-2.17-1.71-3.25-5.11-3.25H67.18V8.9H69A5.35,5.35,0,0,0,72.27,8a3,3,0,0,0,1.22-2.55,2.51,2.51,0,0,0-.9-2,3.69,3.69,0,0,0-2.44-.75A7.62,7.62,0,0,0,67.94,3a9.67,9.67,0,0,0-2.36,1.17l-1-1.37a8.77,8.77,0,0,1,2.53-1.36,9.25,9.25,0,0,1,3-.49,6.14,6.14,0,0,1,4,1.19A4,4,0,0,1,75.59,5.35Z"/></g></svg>