<svg xmlns="http://www.w3.org/2000/svg" viewBox="0 0 67.44 38.71"><defs><style>.cls-1{fill:#4d4e50;}.cls-2{fill:#1568a1;}</style></defs><g id="Economic_Opportunities_Image" data-name="Economic Opportunities Image"><path class="cls-1" d="M2.68,28.89a1.73,1.73,0,0,1-.76-.16,1.39,1.39,0,0,1-.58-.47H1.29a6.07,6.07,0,0,1,.05.71v1.76H.69v-6.2h.52l.09.58h0a1.44,1.44,0,0,1,.58-.5,1.67,1.67,0,0,1,.76-.16A1.55,1.55,0,0,1,4,25a2.56,2.56,0,0,1,.47,1.64A2.53,2.53,0,0,1,4,28.3,1.6,1.6,0,0,1,2.68,28.89ZM2.59,25a1.15,1.15,0,0,0-.95.36,1.83,1.83,0,0,0-.3,1.16v.15A2.15,2.15,0,0,0,1.64,28a1.13,1.13,0,0,0,1,.38,1,1,0,0,0,.87-.44,2.15,2.15,0,0,0,.31-1.24,2,2,0,0,0-.31-1.23A1,1,0,0,0,2.59,25Z"/><path class="cls-1" d="M8.22,28.81l-.13-.61h0a1.76,1.76,0,0,1-.64.55,2,2,0,0,1-.79.14,1.42,1.42,0,0,1-1-.33,1.2,1.2,0,0,1-.36-.93c0-.87.69-1.32,2.07-1.36l.73,0V26a1.07,1.07,0,0,0-.22-.75A.87.87,0,0,0,7.16,25,2.8,2.8,0,0,0,6,25.32l-.2-.49a2.61,2.61,0,0,1,.69-.27,2.84,2.84,0,0,1,.76-.1,1.59,1.59,0,0,1,1.13.34,1.4,1.4,0,0,1,.37,1.09v2.92Zm-1.46-.46a1.32,1.32,0,0,0,1-.33,1.22,1.22,0,0,0,.34-.93V26.7l-.64,0A2.42,2.42,0,0,0,6.29,27a.71.71,0,0,0-.34.66.67.67,0,0,0,.21.54A.9.9,0,0,0,6.76,28.35Z"/><path class="cls-1" d="M11.42,28.35l.33,0,.26-.06v.5a1.37,1.37,0,0,1-.31.08,1.73,1.73,0,0,1-.37,0c-.83,0-1.24-.44-1.24-1.31V25H9.47v-.31l.62-.27.27-.91h.37v1H12V25H10.73v2.52a.9.9,0,0,0,.19.6A.65.65,0,0,0,11.42,28.35Z"/><path class="cls-1" d="M12.81,23.37a.45.45,0,0,1,.11-.33.41.41,0,0,1,.54,0,.41.41,0,0,1,.11.33.4.4,0,0,1-.11.32.39.39,0,0,1-.54,0A.44.44,0,0,1,12.81,23.37Zm.7,5.44h-.65V24.53h.65Z"/><path class="cls-1" d="M16.69,28.89a1.93,1.93,0,0,1-1.49-.58,2.23,2.23,0,0,1-.55-1.61,2.48,2.48,0,0,1,.51-1.64,1.68,1.68,0,0,1,1.37-.61A1.62,1.62,0,0,1,17.8,25a2,2,0,0,1,.47,1.4v.41H15.32a1.68,1.68,0,0,0,.38,1.14,1.32,1.32,0,0,0,1,.39A3.34,3.34,0,0,0,18.09,28v.58a3.25,3.25,0,0,1-.65.21A3.3,3.3,0,0,1,16.69,28.89ZM16.52,25a1.07,1.07,0,0,0-.82.34,1.46,1.46,0,0,0-.36.93h2.23a1.44,1.44,0,0,0-.27-.94A1,1,0,0,0,16.52,25Z"/><path class="cls-1" d="M22.3,28.81V26a1.1,1.1,0,0,0-.23-.78,1,1,0,0,0-.75-.26,1.21,1.21,0,0,0-1,.36,1.85,1.85,0,0,0-.32,1.2v2.25h-.65V24.53h.53l.11.58h0a1.34,1.34,0,0,1,.56-.49,1.88,1.88,0,0,1,.8-.17,1.66,1.66,0,0,1,1.16.37A1.6,1.6,0,0,1,23,26v2.79Z"/><path class="cls-1" d="M25.67,28.35l.33,0,.25-.06v.5a1.23,1.23,0,0,1-.31.08,1.67,1.67,0,0,1-.37,0c-.82,0-1.24-.44-1.24-1.31V25h-.61v-.31l.61-.27.28-.91H25v1h1.24V25H25v2.52a.9.9,0,0,0,.18.6A.68.68,0,0,0,25.67,28.35Z"/><path class="cls-1" d="M29.87,27.64a1.07,1.07,0,0,1-.44.92,2.09,2.09,0,0,1-1.25.33,2.72,2.72,0,0,1-1.33-.27V28a3.21,3.21,0,0,0,.66.24,2.77,2.77,0,0,0,.68.09,1.51,1.51,0,0,0,.78-.16.54.54,0,0,0,.28-.49.55.55,0,0,0-.22-.43,3.44,3.44,0,0,0-.85-.42,4.75,4.75,0,0,1-.85-.39,1.21,1.21,0,0,1-.37-.38,1,1,0,0,1-.12-.5,1,1,0,0,1,.42-.83,2,2,0,0,1,1.17-.3,3.37,3.37,0,0,1,1.35.28l-.23.53A3.07,3.07,0,0,0,28.38,25a1.29,1.29,0,0,0-.69.15.44.44,0,0,0-.24.4.48.48,0,0,0,.09.29.84.84,0,0,0,.28.23,7.06,7.06,0,0,0,.75.32,2.76,2.76,0,0,1,1,.55A1,1,0,0,1,29.87,27.64Z"/><path class="cls-1" d="M35.77,27.64a1.06,1.06,0,0,1-.45.92,2.06,2.06,0,0,1-1.25.33,2.72,2.72,0,0,1-1.33-.27V28a3.71,3.71,0,0,0,.66.24,2.84,2.84,0,0,0,.69.09,1.54,1.54,0,0,0,.78-.16.53.53,0,0,0,.27-.49.53.53,0,0,0-.22-.43,3.15,3.15,0,0,0-.84-.42,4.75,4.75,0,0,1-.85-.39,1.25,1.25,0,0,1-.38-.38,1,1,0,0,1-.12-.5,1,1,0,0,1,.43-.83,2,2,0,0,1,1.16-.3,3.42,3.42,0,0,1,1.36.28l-.24.53A3,3,0,0,0,34.28,25a1.32,1.32,0,0,0-.7.15.45.45,0,0,0-.23.4.48.48,0,0,0,.09.29.75.75,0,0,0,.28.23,7.06,7.06,0,0,0,.75.32,2.85,2.85,0,0,1,1,.55A1,1,0,0,1,35.77,27.64Z"/><path class="cls-1" d="M38.63,28.89a2,2,0,0,1-1.5-.58,2.28,2.28,0,0,1-.55-1.61,2.48,2.48,0,0,1,.51-1.64,1.69,1.69,0,0,1,1.37-.61,1.61,1.61,0,0,1,1.27.53,2,2,0,0,1,.47,1.4v.41h-3a1.73,1.73,0,0,0,.38,1.14,1.33,1.33,0,0,0,1,.39A3.34,3.34,0,0,0,40,28v.58a3.25,3.25,0,0,1-.65.21A3.21,3.21,0,0,1,38.63,28.89ZM38.45,25a1.08,1.08,0,0,0-.82.34,1.58,1.58,0,0,0-.36.93h2.24a1.39,1.39,0,0,0-.28-.94A1,1,0,0,0,38.45,25Z"/><path class="cls-1" d="M43.26,24.45a2.59,2.59,0,0,1,.51.05l-.09.6a2.09,2.09,0,0,0-.47-.06,1.13,1.13,0,0,0-.88.42A1.51,1.51,0,0,0,42,26.51v2.3h-.65V24.53h.53l.08.79h0a1.89,1.89,0,0,1,.57-.64A1.32,1.32,0,0,1,43.26,24.45Z"/><path class="cls-1" d="M45.51,28.81l-1.62-4.28h.69l.92,2.54c.21.59.33,1,.37,1.15h0c0-.13.12-.42.27-.85l1-2.84h.69l-1.62,4.28Z"/><path class="cls-1" d="M50.39,28.89a2,2,0,0,1-1.5-.58,2.28,2.28,0,0,1-.55-1.61,2.48,2.48,0,0,1,.51-1.64,1.69,1.69,0,0,1,1.37-.61A1.64,1.64,0,0,1,51.5,25a2,2,0,0,1,.46,1.4v.41H49a1.68,1.68,0,0,0,.38,1.14,1.31,1.31,0,0,0,1,.39A3.34,3.34,0,0,0,51.78,28v.58a3.06,3.06,0,0,1-.65.21A3.15,3.15,0,0,1,50.39,28.89ZM50.21,25a1.08,1.08,0,0,0-.82.34,1.58,1.58,0,0,0-.36.93h2.24a1.44,1.44,0,0,0-.27-.94A1,1,0,0,0,50.21,25Z"/><path class="cls-1" d="M56,28.24h0a1.53,1.53,0,0,1-1.34.65,1.58,1.58,0,0,1-1.31-.58,2.51,2.51,0,0,1-.47-1.63A2.58,2.58,0,0,1,53.3,25a1.59,1.59,0,0,1,1.31-.59,1.55,1.55,0,0,1,1.33.63H56l0-.31v-2h.65v6.08h-.53Zm-1.29.1a1.18,1.18,0,0,0,1-.36,1.81,1.81,0,0,0,.3-1.16v-.14a2.16,2.16,0,0,0-.3-1.3,1.17,1.17,0,0,0-1-.39,1,1,0,0,0-.87.45,2.2,2.2,0,0,0-.31,1.25,2.12,2.12,0,0,0,.3,1.24A1,1,0,0,0,54.69,28.34Z"/><path class="cls-1" d="M2.07,37.35l.33,0,.26-.06v.5a1.37,1.37,0,0,1-.31.08,1.73,1.73,0,0,1-.37,0c-.83,0-1.25-.44-1.25-1.31V34H.12v-.31l.61-.27L1,32.54h.37v1H2.62V34H1.38v2.52a.85.85,0,0,0,.19.6A.65.65,0,0,0,2.07,37.35Z"/><path class="cls-1" d="M6.44,37.81V35a1.1,1.1,0,0,0-.24-.78A1,1,0,0,0,5.46,34a1.22,1.22,0,0,0-1,.37,1.82,1.82,0,0,0-.31,1.2v2.24H3.51V31.73h.65v1.84a4.11,4.11,0,0,1,0,.55h0a1.33,1.33,0,0,1,.54-.48,1.79,1.79,0,0,1,.81-.18,1.65,1.65,0,0,1,1.18.37A1.59,1.59,0,0,1,7.09,35v2.79Z"/><path class="cls-1" d="M10.37,33.45a2.62,2.62,0,0,1,.52,0l-.09.6a2.23,2.23,0,0,0-.47-.06,1.15,1.15,0,0,0-.89.42,1.51,1.51,0,0,0-.37,1v2.3H8.42V33.53H9l.07.79h0a1.81,1.81,0,0,1,.58-.64A1.29,1.29,0,0,1,10.37,33.45Z"/><path class="cls-1" d="M15.38,35.67a2.36,2.36,0,0,1-.52,1.63,1.88,1.88,0,0,1-1.46.59,1.94,1.94,0,0,1-1-.27,1.75,1.75,0,0,1-.69-.78,2.66,2.66,0,0,1-.24-1.17A2.37,2.37,0,0,1,12,34a1.9,1.9,0,0,1,1.46-.58,1.8,1.8,0,0,1,1.42.6A2.33,2.33,0,0,1,15.38,35.67Zm-3.26,0a2,2,0,0,0,.33,1.25,1.15,1.15,0,0,0,1,.42,1.15,1.15,0,0,0,1-.42,2.53,2.53,0,0,0,0-2.5,1.15,1.15,0,0,0-1-.42,1.15,1.15,0,0,0-1,.42A2.05,2.05,0,0,0,12.12,35.67Z"/><path class="cls-1" d="M17.13,33.53v2.78a1.1,1.1,0,0,0,.24.78,1,1,0,0,0,.74.25,1.25,1.25,0,0,0,1-.36,1.92,1.92,0,0,0,.31-1.2V33.53h.64v4.28h-.53l-.09-.57h0a1.29,1.29,0,0,1-.55.48,1.92,1.92,0,0,1-.81.17,1.67,1.67,0,0,1-1.17-.37,1.59,1.59,0,0,1-.39-1.19v-2.8Z"/><path class="cls-1" d="M24.93,33.53v.41l-.79.09a1.49,1.49,0,0,1,.2.36,1.54,1.54,0,0,1,.08.5,1.25,1.25,0,0,1-.43,1,1.72,1.72,0,0,1-1.18.38l-.36,0a.64.64,0,0,0-.41.55.3.3,0,0,0,.14.26,1.17,1.17,0,0,0,.5.08h.76a1.75,1.75,0,0,1,1.07.29,1,1,0,0,1,.37.85,1.22,1.22,0,0,1-.57,1.09,3.06,3.06,0,0,1-1.67.37,2.24,2.24,0,0,1-1.29-.31,1,1,0,0,1-.46-.88,1,1,0,0,1,.25-.68,1.33,1.33,0,0,1,.71-.39.68.68,0,0,1-.28-.23.61.61,0,0,1-.11-.36.65.65,0,0,1,.13-.41,1.22,1.22,0,0,1,.39-.34,1.2,1.2,0,0,1-.54-.46,1.37,1.37,0,0,1-.21-.75,1.39,1.39,0,0,1,.42-1.09,1.74,1.74,0,0,1,1.2-.38,2.23,2.23,0,0,1,.6.08Zm-3.41,5a.6.6,0,0,0,.29.53,1.64,1.64,0,0,0,.84.18A2.35,2.35,0,0,0,23.86,39a.74.74,0,0,0,.39-.66.53.53,0,0,0-.21-.48,1.64,1.64,0,0,0-.81-.14h-.78a1,1,0,0,0-.68.21A.75.75,0,0,0,21.52,38.53Zm.35-3.63a.9.9,0,0,0,.25.68,1,1,0,0,0,.71.23.83.83,0,0,0,1-.92.86.86,0,0,0-1-1,.92.92,0,0,0-.7.25A1,1,0,0,0,21.87,34.9Z"/><path class="cls-1" d="M28.74,37.81V35a1.1,1.1,0,0,0-.24-.78,1,1,0,0,0-.74-.26,1.22,1.22,0,0,0-1,.37,1.82,1.82,0,0,0-.31,1.2v2.24h-.65V31.73h.65v1.84a4.11,4.11,0,0,1,0,.55h0a1.33,1.33,0,0,1,.54-.48,1.79,1.79,0,0,1,.81-.18,1.65,1.65,0,0,1,1.18.37A1.59,1.59,0,0,1,29.39,35v2.79Z"/><path class="cls-2" d="M8.73,19h-2V6.28c0-1.06,0-2.06.1-3a7.8,7.8,0,0,1-.58.53c-.21.19-1.18,1-2.9,2.39L2.29,4.8,7,1.15H8.73Z"/><path class="cls-2" d="M16.15,17.71a1.8,1.8,0,0,1,.37-1.24,1.36,1.36,0,0,1,1.07-.42,1.43,1.43,0,0,1,1.1.42,1.71,1.71,0,0,1,.4,1.24,1.71,1.71,0,0,1-.4,1.22,1.46,1.46,0,0,1-1.1.42,1.43,1.43,0,0,1-1-.38A1.69,1.69,0,0,1,16.15,17.71Z"/><path class="cls-2" d="M33.9,19H22.17V17.25l4.7-4.72a35.57,35.57,0,0,0,2.83-3.1,8.21,8.21,0,0,0,1-1.81,5.29,5.29,0,0,0,.34-1.89,3,3,0,0,0-.87-2.26,3.31,3.31,0,0,0-2.4-.84A5.89,5.89,0,0,0,25.69,3a8.25,8.25,0,0,0-2.22,1.33L22.4,3A8.2,8.2,0,0,1,27.77.9a5.7,5.7,0,0,1,3.94,1.28,4.42,4.42,0,0,1,1.43,3.47,6.69,6.69,0,0,1-1,3.35,21,21,0,0,1-3.56,4.2L24.72,17v.1H33.9Z"/><path class="cls-2" d="M45.59,19,39.54,3.18h-.1c.11,1.25.17,2.74.17,4.47V19H37.69V1.15h3.13l5.65,14.73h.1l5.7-14.73h3.1V19H53.3V7.5c0-1.32.05-2.75.17-4.3h-.1L47.27,19Z"/></g></svg>