<svg xmlns="http://www.w3.org/2000/svg" viewBox="0 0 62.01 31.98"><defs><style>.cls-1{fill:#4d4e50;}.cls-2{fill:#1568a1;}</style></defs><g id="Layer_3" data-name="Layer 3"><path class="cls-1" d="M5.69,25.78v.41l-.79.09a1.49,1.49,0,0,1,.19.36,1.31,1.31,0,0,1,.09.5,1.28,1.28,0,0,1-.43,1,1.74,1.74,0,0,1-1.18.38,2,2,0,0,1-.36,0,.63.63,0,0,0-.42.55.29.29,0,0,0,.15.26,1.11,1.11,0,0,0,.49.08h.76a1.73,1.73,0,0,1,1.07.29,1,1,0,0,1,.37.86,1.22,1.22,0,0,1-.57,1.08A3,3,0,0,1,3.4,32a2.29,2.29,0,0,1-1.3-.31,1,1,0,0,1-.45-.88,1,1,0,0,1,.25-.68,1.3,1.3,0,0,1,.7-.39.54.54,0,0,1-.27-.23.55.55,0,0,1-.11-.36.71.71,0,0,1,.12-.41,1.27,1.27,0,0,1,.4-.34,1.12,1.12,0,0,1-.55-.46,1.45,1.45,0,0,1-.2-.75,1.41,1.41,0,0,1,.42-1.09A1.73,1.73,0,0,1,3.6,25.7a2.25,2.25,0,0,1,.61.08Zm-3.42,5a.58.58,0,0,0,.3.53,1.59,1.59,0,0,0,.84.18,2.4,2.4,0,0,0,1.21-.25A.74.74,0,0,0,5,30.58a.51.51,0,0,0-.22-.48A1.62,1.62,0,0,0,4,30H3.21a1,1,0,0,0-.69.21A.78.78,0,0,0,2.27,30.78Zm.36-3.63a.86.86,0,0,0,.25.68,1,1,0,0,0,.71.23.83.83,0,0,0,1-.92.86.86,0,0,0-1-1,1,1,0,0,0-.71.25A1,1,0,0,0,2.63,27.15Z"/><path class="cls-1" d="M8.52,25.7a2.59,2.59,0,0,1,.51.05l-.09.6a2.09,2.09,0,0,0-.47-.06,1.16,1.16,0,0,0-.89.42,1.56,1.56,0,0,0-.36,1.05v2.3H6.57V25.78H7.1l.08.79h0a1.89,1.89,0,0,1,.57-.64A1.32,1.32,0,0,1,8.52,25.7Z"/><path class="cls-1" d="M12.47,30.06l-.13-.61h0a1.94,1.94,0,0,1-.64.55,2.08,2.08,0,0,1-.8.14,1.45,1.45,0,0,1-1-.33,1.2,1.2,0,0,1-.36-.93c0-.87.69-1.32,2.08-1.36l.72,0v-.26a1.12,1.12,0,0,0-.21-.75.91.91,0,0,0-.7-.24,2.83,2.83,0,0,0-1.21.33l-.2-.49a2.68,2.68,0,0,1,.7-.27,2.76,2.76,0,0,1,.75-.1,1.64,1.64,0,0,1,1.14.34A1.45,1.45,0,0,1,13,27.14v2.92ZM11,29.6a1.31,1.31,0,0,0,.95-.33,1.23,1.23,0,0,0,.35-.93V28l-.65,0a2.42,2.42,0,0,0-1.12.24.75.75,0,0,0-.34.67.64.64,0,0,0,.22.53A.89.89,0,0,0,11,29.6Z"/><path class="cls-1" d="M17.2,29.49h0a1.53,1.53,0,0,1-1.34.65,1.58,1.58,0,0,1-1.31-.58A2.51,2.51,0,0,1,14,27.93a2.58,2.58,0,0,1,.47-1.64,1.6,1.6,0,0,1,1.31-.59,1.55,1.55,0,0,1,1.33.63h.05l0-.3,0-.31V24h.65v6.08h-.53Zm-1.3.11a1.19,1.19,0,0,0,1-.37,1.81,1.81,0,0,0,.3-1.16v-.14a2.16,2.16,0,0,0-.3-1.3,1.16,1.16,0,0,0-1-.39,1,1,0,0,0-.87.45,2.2,2.2,0,0,0-.3,1.25,2.12,2.12,0,0,0,.3,1.24A1,1,0,0,0,15.9,29.6Z"/><path class="cls-1" d="M19.79,25.78v2.78a1.1,1.1,0,0,0,.24.78,1,1,0,0,0,.75.26,1.23,1.23,0,0,0,1-.37,1.86,1.86,0,0,0,.31-1.2V25.78h.65v4.28h-.54l-.09-.57h0a1.31,1.31,0,0,1-.56.48,1.85,1.85,0,0,1-.8.17,1.67,1.67,0,0,1-1.17-.37,1.59,1.59,0,0,1-.39-1.19v-2.8Z"/><path class="cls-1" d="M26.73,30.06l-.13-.61h0a1.94,1.94,0,0,1-.64.55,2,2,0,0,1-.8.14,1.41,1.41,0,0,1-1-.33,1.2,1.2,0,0,1-.37-.93c0-.87.7-1.32,2.08-1.36l.73,0v-.26a1.12,1.12,0,0,0-.22-.75.91.91,0,0,0-.7-.24,2.87,2.87,0,0,0-1.21.33l-.2-.49a2.82,2.82,0,0,1,.7-.27,2.76,2.76,0,0,1,.75-.1,1.64,1.64,0,0,1,1.14.34,1.45,1.45,0,0,1,.37,1.09v2.92Zm-1.47-.46a1.31,1.31,0,0,0,.95-.33,1.23,1.23,0,0,0,.35-.93V28l-.65,0a2.37,2.37,0,0,0-1.11.24.74.74,0,0,0-.35.67.67.67,0,0,0,.22.53A.89.89,0,0,0,25.26,29.6Z"/><path class="cls-1" d="M29.93,29.6a1.83,1.83,0,0,0,.33,0l.25,0V30a1.74,1.74,0,0,1-.31.09l-.37,0c-.83,0-1.24-.44-1.24-1.31V26.28H28V26l.61-.27.27-.91h.38v1h1.24v.5H29.24V28.8a.9.9,0,0,0,.18.6A.68.68,0,0,0,29.93,29.6Z"/><path class="cls-1" d="M33.18,30.14a1.94,1.94,0,0,1-1.5-.58,2.21,2.21,0,0,1-.55-1.6,2.49,2.49,0,0,1,.51-1.65A1.69,1.69,0,0,1,33,25.7a1.61,1.61,0,0,1,1.27.53,2,2,0,0,1,.47,1.4V28H31.8a1.73,1.73,0,0,0,.38,1.14,1.32,1.32,0,0,0,1,.39,3.34,3.34,0,0,0,1.37-.29v.58a3.25,3.25,0,0,1-.65.21A3.21,3.21,0,0,1,33.18,30.14ZM33,26.24a1.07,1.07,0,0,0-.82.34,1.46,1.46,0,0,0-.36.93h2.24a1.44,1.44,0,0,0-.28-.94A1,1,0,0,0,33,26.24Z"/><path class="cls-1" d="M38.62,28.89a1.06,1.06,0,0,1-.45.92,2,2,0,0,1-1.25.33,2.75,2.75,0,0,1-1.33-.27v-.6a3.54,3.54,0,0,0,.67.24,2.71,2.71,0,0,0,.68.09,1.51,1.51,0,0,0,.78-.16A.53.53,0,0,0,38,29a.54.54,0,0,0-.21-.43,3.44,3.44,0,0,0-.85-.42,4.75,4.75,0,0,1-.85-.39,1.11,1.11,0,0,1-.37-.38.89.89,0,0,1-.13-.5A1,1,0,0,1,36,26a2,2,0,0,1,1.17-.3,3.55,3.55,0,0,1,1.35.28l-.23.53a3.07,3.07,0,0,0-1.17-.27,1.32,1.32,0,0,0-.7.15.45.45,0,0,0-.23.4.48.48,0,0,0,.09.29.84.84,0,0,0,.28.23,7.06,7.06,0,0,0,.75.32,2.69,2.69,0,0,1,1,.56A1,1,0,0,1,38.62,28.89Z"/><path class="cls-2" d="M6.79,8.1a6.53,6.53,0,0,1,4.44,1.4,4.77,4.77,0,0,1,1.62,3.82,5.52,5.52,0,0,1-1.77,4.35,7,7,0,0,1-4.86,1.57,9,9,0,0,1-4.6-1v-2a7.27,7.27,0,0,0,2.12.86,10.89,10.89,0,0,0,2.5.31,5,5,0,0,0,3.34-1,3.63,3.63,0,0,0,1.19-2.93q0-3.74-4.57-3.74a18.66,18.66,0,0,0-3.1.35L2.05,9.5l.67-8.35h8.87V3H4.45L4,8.38A14,14,0,0,1,6.79,8.1Z"/><path class="cls-2" d="M18.56,16.1l.18.28a28.93,28.93,0,0,1-.91,2.83c-.4,1.08-.81,2.09-1.25,3H15.06c.22-.84.46-1.89.72-3.13s.45-2.25.56-3Z"/><path class="cls-2" d="M34.21,14.9H31.56V19H29.62V14.9H20.94V13.13L29.41,1.06h2.15v12h2.65Zm-4.59-1.85V7.12c0-1.16,0-2.48.12-3.94h-.09a18.36,18.36,0,0,1-1.1,1.94L23,13.05Z"/><path class="cls-2" d="M48.51,14.9H45.86V19H43.92V14.9H35.24V13.13L43.71,1.06h2.15v12h2.65Zm-4.59-1.85V7.12c0-1.16,0-2.48.12-3.94h-.1a18.36,18.36,0,0,1-1.1,1.94l-5.58,7.93Z"/><path class="cls-2" d="M56.14.9A6.07,6.07,0,0,1,60,2a3.78,3.78,0,0,1,1.43,3.14,3.91,3.91,0,0,1-.81,2.4,7.16,7.16,0,0,1-2.62,2,8.76,8.76,0,0,1,3.09,2.18A4.1,4.1,0,0,1,62,14.37a4.44,4.44,0,0,1-1.55,3.55,6.36,6.36,0,0,1-4.25,1.32A6.78,6.78,0,0,1,51.81,18a4.3,4.3,0,0,1-1.53-3.54q0-3.07,3.73-4.78a7,7,0,0,1-2.42-2,4.45,4.45,0,0,1-.73-2.48A3.76,3.76,0,0,1,52.3,2.05,5.92,5.92,0,0,1,56.14.9ZM52.28,14.5a2.77,2.77,0,0,0,1,2.28,4.49,4.49,0,0,0,2.86.82A4.25,4.25,0,0,0,59,16.74a2.88,2.88,0,0,0,1-2.34,2.85,2.85,0,0,0-1-2.11,9.77,9.77,0,0,0-3.32-1.79,7.17,7.17,0,0,0-2.63,1.73A3.34,3.34,0,0,0,52.28,14.5ZM56.11,2.55a3.58,3.58,0,0,0-2.39.73,2.43,2.43,0,0,0-.87,2,2.8,2.8,0,0,0,.72,1.93,7.55,7.55,0,0,0,2.66,1.61A6.61,6.61,0,0,0,58.7,7.2a2.92,2.92,0,0,0,.73-2,2.41,2.41,0,0,0-.88-2A3.77,3.77,0,0,0,56.11,2.55Z"/></g></svg>