<svg xmlns="http://www.w3.org/2000/svg" viewBox="0 0 67.44 41.29"><defs><style>.cls-1{fill:#4d4e50;}.cls-2{fill:#1568a1;}</style></defs><g id="Economic_Opportunities_Image" data-name="Economic Opportunities Image"><path class="cls-1" d="M6.14,29.81V27a1.17,1.17,0,0,0-.21-.76A.87.87,0,0,0,5.25,26a1.1,1.1,0,0,0-.9.35,1.67,1.67,0,0,0-.29,1.07v2.39H3.41V27a1.11,1.11,0,0,0-.22-.76A.84.84,0,0,0,2.51,26a1,1,0,0,0-.89.37,2,2,0,0,0-.28,1.19v2.25H.69V25.53h.52l.11.58h0a1.27,1.27,0,0,1,.52-.48,1.54,1.54,0,0,1,.75-.18,1.27,1.27,0,0,1,1.31.73H4a1.31,1.31,0,0,1,.56-.53,1.69,1.69,0,0,1,.82-.2,1.44,1.44,0,0,1,1.09.37A1.69,1.69,0,0,1,6.79,27v2.79Z"/><path class="cls-1" d="M9.94,29.89a2,2,0,0,1-1.5-.58,2.23,2.23,0,0,1-.55-1.61,2.48,2.48,0,0,1,.51-1.64,1.69,1.69,0,0,1,1.37-.61A1.61,1.61,0,0,1,11,26a2,2,0,0,1,.47,1.4v.41H8.56a1.73,1.73,0,0,0,.38,1.14,1.32,1.32,0,0,0,1,.39A3.34,3.34,0,0,0,11.33,29v.58a3.25,3.25,0,0,1-.65.21A3.21,3.21,0,0,1,9.94,29.89ZM9.76,26a1,1,0,0,0-.82.34,1.46,1.46,0,0,0-.36.93h2.24a1.39,1.39,0,0,0-.28-.94A1,1,0,0,0,9.76,26Z"/><path class="cls-1" d="M15.53,29.24h0a1.54,1.54,0,0,1-1.35.65,1.56,1.56,0,0,1-1.3-.58,2.46,2.46,0,0,1-.47-1.63A2.52,2.52,0,0,1,12.85,26a1.58,1.58,0,0,1,1.3-.59,1.57,1.57,0,0,1,1.34.63h0l0-.31v-2h.64v6.08h-.52Zm-1.3.11a1.19,1.19,0,0,0,1-.37,1.81,1.81,0,0,0,.3-1.16v-.14a2.09,2.09,0,0,0-.31-1.3,1.13,1.13,0,0,0-1-.39,1,1,0,0,0-.88.45,2.2,2.2,0,0,0-.3,1.25,2.12,2.12,0,0,0,.3,1.24A1,1,0,0,0,14.23,29.35Z"/><path class="cls-1" d="M17.46,24.37a.45.45,0,0,1,.11-.33.4.4,0,0,1,.28-.1.39.39,0,0,1,.27.1.45.45,0,0,1,.11.33.44.44,0,0,1-.11.32.36.36,0,0,1-.27.11.37.37,0,0,1-.28-.11A.44.44,0,0,1,17.46,24.37Zm.71,5.44h-.65V25.53h.65Z"/><path class="cls-1" d="M21.25,29.89a1.83,1.83,0,0,1-1.44-.57,2.38,2.38,0,0,1-.51-1.62A2.44,2.44,0,0,1,19.82,26a1.88,1.88,0,0,1,1.48-.59,2.54,2.54,0,0,1,.61.07,1.91,1.91,0,0,1,.49.15l-.2.55a4.41,4.41,0,0,0-.47-.14,2,2,0,0,0-.45-.06c-.87,0-1.3.56-1.3,1.67a2,2,0,0,0,.31,1.21,1.13,1.13,0,0,0,.95.42,3,3,0,0,0,1.1-.23v.58A2.49,2.49,0,0,1,21.25,29.89Z"/><path class="cls-1" d="M26,29.81l-.12-.61h0a1.83,1.83,0,0,1-.63.55,2.08,2.08,0,0,1-.8.14,1.44,1.44,0,0,1-1-.33,1.2,1.2,0,0,1-.36-.93c0-.87.69-1.32,2.08-1.36l.72,0V27a1.07,1.07,0,0,0-.22-.75.87.87,0,0,0-.69-.24,2.83,2.83,0,0,0-1.21.33l-.2-.49a2.61,2.61,0,0,1,.69-.27,2.89,2.89,0,0,1,.76-.1,1.64,1.64,0,0,1,1.14.34,1.43,1.43,0,0,1,.36,1.09v2.92Zm-1.46-.46a1.32,1.32,0,0,0,.95-.33,1.23,1.23,0,0,0,.35-.93V27.7l-.65,0a2.42,2.42,0,0,0-1.12.24.71.71,0,0,0-.34.66.67.67,0,0,0,.21.54A.91.91,0,0,0,24.52,29.35Z"/><path class="cls-1" d="M28.45,29.81H27.8V23.73h.65Z"/><path class="cls-1" d="M37.36,29.81V27a1.11,1.11,0,0,0-.22-.76.85.85,0,0,0-.68-.26,1.1,1.1,0,0,0-.89.35,1.61,1.61,0,0,0-.29,1.07v2.39h-.65V27a1.11,1.11,0,0,0-.22-.76.85.85,0,0,0-.68-.26,1.06,1.06,0,0,0-.9.37,2,2,0,0,0-.28,1.19v2.25H31.9V25.53h.53l.1.58h0a1.24,1.24,0,0,1,.51-.48,1.6,1.6,0,0,1,.75-.18,1.26,1.26,0,0,1,1.31.73h0a1.28,1.28,0,0,1,.55-.53,1.73,1.73,0,0,1,.83-.2,1.45,1.45,0,0,1,1.09.37A1.69,1.69,0,0,1,38,27v2.79Z"/><path class="cls-1" d="M39.29,24.37A.45.45,0,0,1,39.4,24a.41.41,0,0,1,.54,0,.41.41,0,0,1,.11.33.4.4,0,0,1-.11.32.39.39,0,0,1-.54,0A.44.44,0,0,1,39.29,24.37Zm.7,5.44h-.65V25.53H40Z"/><path class="cls-1" d="M44.13,28.64a1.06,1.06,0,0,1-.45.92,2,2,0,0,1-1.25.33,2.68,2.68,0,0,1-1.32-.27V29a3.21,3.21,0,0,0,.66.24,2.71,2.71,0,0,0,.68.09,1.51,1.51,0,0,0,.78-.16.53.53,0,0,0,.27-.49.54.54,0,0,0-.21-.43,3.44,3.44,0,0,0-.85-.42,4.75,4.75,0,0,1-.85-.39,1.11,1.11,0,0,1-.37-.38.91.91,0,0,1-.13-.5,1,1,0,0,1,.43-.83,2,2,0,0,1,1.17-.3,3.37,3.37,0,0,1,1.35.28l-.23.53A3.07,3.07,0,0,0,42.64,26a1.32,1.32,0,0,0-.7.15.45.45,0,0,0-.23.4.48.48,0,0,0,.09.29.84.84,0,0,0,.28.23,7.06,7.06,0,0,0,.75.32,2.85,2.85,0,0,1,1,.55A1,1,0,0,1,44.13,28.64Z"/><path class="cls-1" d="M47.94,28.64a1,1,0,0,1-.44.92,2.06,2.06,0,0,1-1.25.33,2.72,2.72,0,0,1-1.33-.27V29a3.71,3.71,0,0,0,.66.24,2.84,2.84,0,0,0,.69.09,1.56,1.56,0,0,0,.78-.16.53.53,0,0,0,.27-.49.53.53,0,0,0-.22-.43,3.15,3.15,0,0,0-.84-.42,4.75,4.75,0,0,1-.85-.39,1.15,1.15,0,0,1-.38-.38,1,1,0,0,1-.12-.5,1,1,0,0,1,.43-.83,2,2,0,0,1,1.16-.3,3.42,3.42,0,0,1,1.36.28l-.24.53A3,3,0,0,0,46.46,26a1.32,1.32,0,0,0-.7.15.45.45,0,0,0-.23.4.55.55,0,0,0,.08.29.89.89,0,0,0,.29.23,7.06,7.06,0,0,0,.75.32,2.85,2.85,0,0,1,1,.55A1,1,0,0,1,47.94,28.64Z"/><path class="cls-1" d="M48.94,24.37a.45.45,0,0,1,.11-.33.4.4,0,0,1,.28-.1.39.39,0,0,1,.27.1.45.45,0,0,1,.11.33.44.44,0,0,1-.11.32.36.36,0,0,1-.27.11.37.37,0,0,1-.28-.11A.44.44,0,0,1,48.94,24.37Zm.71,5.44H49V25.53h.65Z"/><path class="cls-1" d="M54.72,27.67a2.37,2.37,0,0,1-.53,1.63,1.87,1.87,0,0,1-1.46.59,1.94,1.94,0,0,1-1-.27,1.82,1.82,0,0,1-.68-.77,2.73,2.73,0,0,1-.25-1.18A2.38,2.38,0,0,1,51.31,26a1.84,1.84,0,0,1,1.45-.58,1.81,1.81,0,0,1,1.43.6A2.38,2.38,0,0,1,54.72,27.67Zm-3.26,0a2.12,2.12,0,0,0,.32,1.25,1.31,1.31,0,0,0,1.94,0,2,2,0,0,0,.33-1.25,2,2,0,0,0-.33-1.24,1.32,1.32,0,0,0-1.94,0A2.05,2.05,0,0,0,51.46,27.67Z"/><path class="cls-1" d="M58.78,29.81V27a1.1,1.1,0,0,0-.23-.78A1,1,0,0,0,57.8,26a1.21,1.21,0,0,0-1,.36,1.85,1.85,0,0,0-.32,1.2v2.25h-.64V25.53h.52l.11.58h0a1.34,1.34,0,0,1,.56-.49,1.88,1.88,0,0,1,.8-.17A1.36,1.36,0,0,1,59.43,27v2.79Z"/><path class="cls-1" d="M63.53,28.64a1.06,1.06,0,0,1-.45.92,2.06,2.06,0,0,1-1.25.33,2.72,2.72,0,0,1-1.33-.27V29a3.54,3.54,0,0,0,.67.24,2.71,2.71,0,0,0,.68.09,1.51,1.51,0,0,0,.78-.16.53.53,0,0,0,.27-.49.54.54,0,0,0-.21-.43,3.44,3.44,0,0,0-.85-.42,4.75,4.75,0,0,1-.85-.39,1.25,1.25,0,0,1-.38-.38,1,1,0,0,1-.12-.5,1,1,0,0,1,.43-.83,2,2,0,0,1,1.17-.3,3.37,3.37,0,0,1,1.35.28l-.23.53A3.07,3.07,0,0,0,62,26a1.32,1.32,0,0,0-.7.15.45.45,0,0,0-.23.4.48.48,0,0,0,.09.29.84.84,0,0,0,.28.23,7.06,7.06,0,0,0,.75.32,2.85,2.85,0,0,1,1,.55A1,1,0,0,1,63.53,28.64Z"/><path class="cls-1" d="M2.4,38.89A1.83,1.83,0,0,1,1,38.32,2.87,2.87,0,0,1,1,35a1.85,1.85,0,0,1,1.47-.59,2.62,2.62,0,0,1,.62.07,1.82,1.82,0,0,1,.48.15l-.2.55a4.41,4.41,0,0,0-.47-.14A1.85,1.85,0,0,0,2.43,35c-.87,0-1.31.56-1.31,1.67a2,2,0,0,0,.32,1.21,1.11,1.11,0,0,0,.94.42,2.93,2.93,0,0,0,1.1-.23v.58A2.47,2.47,0,0,1,2.4,38.89Z"/><path class="cls-1" d="M8.19,36.67a2.32,2.32,0,0,1-.53,1.63,1.85,1.85,0,0,1-1.45.59,1.89,1.89,0,0,1-1-.27,1.78,1.78,0,0,1-.69-.77,2.73,2.73,0,0,1-.24-1.18A2.37,2.37,0,0,1,4.78,35a1.84,1.84,0,0,1,1.45-.58,1.81,1.81,0,0,1,1.43.6A2.33,2.33,0,0,1,8.19,36.67Zm-3.26,0a2,2,0,0,0,.33,1.25,1.15,1.15,0,0,0,1,.43,1.16,1.16,0,0,0,1-.43,2,2,0,0,0,.33-1.25,2,2,0,0,0-.33-1.24,1.15,1.15,0,0,0-1-.43,1.15,1.15,0,0,0-1,.42A2.05,2.05,0,0,0,4.93,36.67Z"/><path class="cls-1" d="M12.26,38.81V36a1.1,1.1,0,0,0-.24-.78,1,1,0,0,0-.75-.26,1.24,1.24,0,0,0-1,.36,1.86,1.86,0,0,0-.31,1.2v2.25H9.33V34.53h.53l.1.58h0a1.34,1.34,0,0,1,.56-.49,1.91,1.91,0,0,1,.8-.17,1.63,1.63,0,0,1,1.17.37,1.6,1.6,0,0,1,.39,1.2v2.79Z"/><path class="cls-1" d="M17.15,38.24h0a1.54,1.54,0,0,1-1.35.65,1.56,1.56,0,0,1-1.3-.58A2.51,2.51,0,0,1,14,36.68,2.58,2.58,0,0,1,14.47,35a1.73,1.73,0,0,1,2.64,0h.05l0-.31v-2h.65v6.08h-.53Zm-1.29.11a1.19,1.19,0,0,0,1-.37,1.81,1.81,0,0,0,.3-1.16v-.14a2.09,2.09,0,0,0-.31-1.3,1.13,1.13,0,0,0-1-.39,1,1,0,0,0-.88.45,2.2,2.2,0,0,0-.3,1.25,2.12,2.12,0,0,0,.3,1.24A1,1,0,0,0,15.86,38.35Z"/><path class="cls-1" d="M19.75,34.53v2.78a1.12,1.12,0,0,0,.24.78,1,1,0,0,0,.74.26,1.25,1.25,0,0,0,1-.37,1.92,1.92,0,0,0,.31-1.2V34.53h.65v4.28h-.54l-.09-.57h0a1.29,1.29,0,0,1-.55.48,1.92,1.92,0,0,1-.81.17,1.67,1.67,0,0,1-1.17-.37,1.59,1.59,0,0,1-.39-1.19v-2.8Z"/><path class="cls-1" d="M25.76,38.89a1.83,1.83,0,0,1-1.44-.57,2.87,2.87,0,0,1,0-3.28,1.88,1.88,0,0,1,1.47-.59,2.56,2.56,0,0,1,.62.07,1.91,1.91,0,0,1,.49.15l-.2.55c-.15,0-.3-.1-.47-.14a2,2,0,0,0-.45-.06c-.87,0-1.31.56-1.31,1.67a2,2,0,0,0,.32,1.21,1.13,1.13,0,0,0,.95.42,2.92,2.92,0,0,0,1.09-.23v.58A2.41,2.41,0,0,1,25.76,38.89Z"/><path class="cls-1" d="M29.24,38.35l.33,0,.26-.06v.5a1.37,1.37,0,0,1-.31.08,1.73,1.73,0,0,1-.37,0c-.83,0-1.24-.44-1.24-1.31V35h-.62v-.31l.62-.27.27-.91h.37v1H29.8V35H28.55v2.52a.9.9,0,0,0,.19.6A.65.65,0,0,0,29.24,38.35Z"/><path class="cls-1" d="M32.49,38.89a2,2,0,0,1-1.5-.58,2.28,2.28,0,0,1-.55-1.61A2.48,2.48,0,0,1,31,35.06a1.69,1.69,0,0,1,1.37-.61A1.64,1.64,0,0,1,33.6,35a2,2,0,0,1,.47,1.4v.41H31.12a1.68,1.68,0,0,0,.38,1.14,1.32,1.32,0,0,0,1,.39A3.3,3.3,0,0,0,33.88,38v.58a3.06,3.06,0,0,1-.65.21A3.15,3.15,0,0,1,32.49,38.89ZM32.32,35a1.06,1.06,0,0,0-.83.34,1.58,1.58,0,0,0-.36.93h2.24a1.44,1.44,0,0,0-.27-.94A1,1,0,0,0,32.32,35Z"/><path class="cls-1" d="M38.09,38.24h0a1.53,1.53,0,0,1-1.34.65,1.58,1.58,0,0,1-1.31-.58,2.51,2.51,0,0,1-.47-1.63A2.58,2.58,0,0,1,35.4,35a1.59,1.59,0,0,1,1.31-.59,1.55,1.55,0,0,1,1.33.63h.05l0-.31,0-.3V32.73h.65v6.08h-.53Zm-1.3.11a1.19,1.19,0,0,0,1-.37,1.81,1.81,0,0,0,.3-1.16v-.14a2.16,2.16,0,0,0-.3-1.3,1.16,1.16,0,0,0-1-.39,1,1,0,0,0-.87.45,2.2,2.2,0,0,0-.3,1.25,2.12,2.12,0,0,0,.3,1.24A1,1,0,0,0,36.79,38.35Z"/><path class="cls-1" d="M43.53,38.35l.34,0,.25-.06v.5a1.23,1.23,0,0,1-.31.08,1.73,1.73,0,0,1-.37,0c-.83,0-1.24-.44-1.24-1.31V35h-.61v-.31l.61-.27.27-.91h.38v1h1.24V35H42.85v2.52a.9.9,0,0,0,.18.6A.65.65,0,0,0,43.53,38.35Z"/><path class="cls-1" d="M48.67,36.67a2.32,2.32,0,0,1-.53,1.63,1.85,1.85,0,0,1-1.45.59,1.89,1.89,0,0,1-1-.27,1.78,1.78,0,0,1-.69-.77,2.73,2.73,0,0,1-.24-1.18A2.37,2.37,0,0,1,45.26,35a1.85,1.85,0,0,1,1.45-.58,1.81,1.81,0,0,1,1.43.6A2.33,2.33,0,0,1,48.67,36.67Zm-3.26,0a2,2,0,0,0,.33,1.25,1.3,1.3,0,0,0,1.93,0A2,2,0,0,0,48,36.67a2,2,0,0,0-.33-1.24,1.32,1.32,0,0,0-1.94,0A2.05,2.05,0,0,0,45.41,36.67Z"/><path class="cls-1" d="M54.8,38.24h0a1.54,1.54,0,0,1-1.35.65,1.59,1.59,0,0,1-1.31-.58,3.11,3.11,0,0,1,0-3.27,1.73,1.73,0,0,1,2.64,0h.05l0-.31v-2h.64v6.08h-.52Zm-1.3.11a1.19,1.19,0,0,0,1-.37,1.81,1.81,0,0,0,.3-1.16v-.14a2.15,2.15,0,0,0-.31-1.3,1.13,1.13,0,0,0-1-.39,1,1,0,0,0-.88.45,2.2,2.2,0,0,0-.3,1.25,2.12,2.12,0,0,0,.3,1.24A1,1,0,0,0,53.5,38.35Z"/><path class="cls-1" d="M59.42,38.81l-.13-.61h0a1.76,1.76,0,0,1-.64.55,2,2,0,0,1-.79.14,1.42,1.42,0,0,1-1-.33,1.2,1.2,0,0,1-.36-.93c0-.87.69-1.32,2.07-1.36l.73,0V36a1.07,1.07,0,0,0-.22-.75.87.87,0,0,0-.69-.24,2.8,2.8,0,0,0-1.21.33l-.2-.49a2.61,2.61,0,0,1,.69-.27,2.84,2.84,0,0,1,.76-.1,1.59,1.59,0,0,1,1.13.34,1.4,1.4,0,0,1,.37,1.09v2.92ZM58,38.35a1.32,1.32,0,0,0,.95-.33,1.22,1.22,0,0,0,.34-.93V36.7l-.64,0a2.42,2.42,0,0,0-1.12.24.71.71,0,0,0-.34.66.67.67,0,0,0,.21.54A.9.9,0,0,0,58,38.35Z"/><path class="cls-1" d="M62.62,38.35l.33,0,.26-.06v.5a1.37,1.37,0,0,1-.31.08,1.73,1.73,0,0,1-.37,0c-.83,0-1.25-.44-1.25-1.31V35h-.61v-.31l.61-.27.28-.91h.37v1h1.25V35H61.93v2.52a.85.85,0,0,0,.19.6A.65.65,0,0,0,62.62,38.35Z"/><path class="cls-1" d="M65.87,38.89a2,2,0,0,1-1.5-.58,2.28,2.28,0,0,1-.55-1.61,2.48,2.48,0,0,1,.51-1.64,1.69,1.69,0,0,1,1.37-.61A1.64,1.64,0,0,1,67,35a2,2,0,0,1,.46,1.4v.41H64.5a1.68,1.68,0,0,0,.38,1.14,1.31,1.31,0,0,0,1,.39A3.31,3.31,0,0,0,67.26,38v.58a3.06,3.06,0,0,1-.65.21A3.15,3.15,0,0,1,65.87,38.89ZM65.69,35a1.05,1.05,0,0,0-.82.34,1.58,1.58,0,0,0-.36.93h2.24a1.44,1.44,0,0,0-.27-.94A1,1,0,0,0,65.69,35Z"/><path class="cls-2" d="M13,19H1.22V17.25l4.7-4.72a34,34,0,0,0,2.83-3.1,7.83,7.83,0,0,0,1-1.81,5.08,5.08,0,0,0,.34-1.89,3,3,0,0,0-.87-2.26,3.31,3.31,0,0,0-2.4-.84A6,6,0,0,0,4.74,3,8.07,8.07,0,0,0,2.53,4.33L1.45,3A8.23,8.23,0,0,1,6.82.9a5.74,5.74,0,0,1,3.95,1.28,4.45,4.45,0,0,1,1.42,3.47A6.59,6.59,0,0,1,11.24,9a21,21,0,0,1-3.56,4.2L3.77,17v.1H13Z"/><path class="cls-2" d="M21.09,8.1a6.53,6.53,0,0,1,4.44,1.4,4.77,4.77,0,0,1,1.62,3.82,5.52,5.52,0,0,1-1.77,4.35,7,7,0,0,1-4.86,1.57,9,9,0,0,1-4.6-1v-2a7.16,7.16,0,0,0,2.12.86,10.89,10.89,0,0,0,2.5.31,5,5,0,0,0,3.34-1,3.63,3.63,0,0,0,1.19-2.93q0-3.74-4.57-3.74a18.66,18.66,0,0,0-3.1.35l-1-.67L17,1.15h8.87V3H18.75L18.3,8.38A14,14,0,0,1,21.09,8.1Z"/><path class="cls-2" d="M35.39,8.1a6.49,6.49,0,0,1,4.43,1.4,4.77,4.77,0,0,1,1.62,3.82,5.52,5.52,0,0,1-1.76,4.35,7.06,7.06,0,0,1-4.87,1.57,9,9,0,0,1-4.6-1v-2a7.23,7.23,0,0,0,2.13.86,10.83,10.83,0,0,0,2.5.31,5,5,0,0,0,3.34-1,3.66,3.66,0,0,0,1.19-2.93q0-3.74-4.58-3.74a18.77,18.77,0,0,0-3.1.35L30.64,9.5l.67-8.35h8.88V3H33l-.45,5.36A14.07,14.07,0,0,1,35.39,8.1Z"/></g></svg>