<svg xmlns="http://www.w3.org/2000/svg" viewBox="0 0 131 38.89"><defs><style>.cls-1{fill:#4d4e50;}.cls-2{fill:#1568a1;}</style></defs><g id="Economic_Opportunities_Image" data-name="Economic Opportunities Image"><path class="cls-1" d="M2.68,26.31a1.87,1.87,0,0,1-.76-.15,1.34,1.34,0,0,1-.58-.48H1.29a6.09,6.09,0,0,1,.05.72v1.76H.69V22h.52l.09.59h0A1.56,1.56,0,0,1,1.92,22a1.81,1.81,0,0,1,.76-.15A1.55,1.55,0,0,1,4,22.46a2.55,2.55,0,0,1,.47,1.63A2.58,2.58,0,0,1,4,25.73,1.59,1.59,0,0,1,2.68,26.31Zm-.09-3.88a1.15,1.15,0,0,0-.95.36A1.81,1.81,0,0,0,1.34,24v.14a2.15,2.15,0,0,0,.3,1.29,1.13,1.13,0,0,0,1,.39,1,1,0,0,0,.87-.45,2.13,2.13,0,0,0,.31-1.24,2.07,2.07,0,0,0-.31-1.23A1,1,0,0,0,2.59,22.43Z"/><path class="cls-1" d="M8.22,26.23l-.13-.6h0a1.73,1.73,0,0,1-.64.54,1.83,1.83,0,0,1-.79.14,1.42,1.42,0,0,1-1-.33,1.17,1.17,0,0,1-.36-.93c0-.86.69-1.32,2.07-1.36l.73,0V23.4a1.06,1.06,0,0,0-.22-.74.87.87,0,0,0-.69-.24A2.8,2.8,0,0,0,6,22.75l-.2-.5A3.54,3.54,0,0,1,6.44,22a3.3,3.3,0,0,1,.76-.1,1.64,1.64,0,0,1,1.13.34,1.41,1.41,0,0,1,.37,1.09v2.92Zm-1.46-.45a1.32,1.32,0,0,0,1-.33,1.24,1.24,0,0,0,.34-.93v-.39l-.64,0a2.42,2.42,0,0,0-1.12.24.71.71,0,0,0-.34.66.66.66,0,0,0,.21.53A.85.85,0,0,0,6.76,25.78Z"/><path class="cls-1" d="M11.42,25.78a1.69,1.69,0,0,0,.33,0A1.33,1.33,0,0,0,12,25.7v.5a1.37,1.37,0,0,1-.31.08l-.37,0c-.83,0-1.24-.43-1.24-1.31V22.46H9.47v-.31l.62-.27.27-.92h.37v1H12v.51H10.73V25a.89.89,0,0,0,.19.59A.63.63,0,0,0,11.42,25.78Z"/><path class="cls-1" d="M12.81,20.79a.44.44,0,0,1,.11-.32.39.39,0,0,1,.54,0,.4.4,0,0,1,.11.32.41.41,0,0,1-.11.33.39.39,0,0,1-.54,0A.45.45,0,0,1,12.81,20.79Zm.7,5.44h-.65V22h.65Z"/><path class="cls-1" d="M16.69,26.31a1.93,1.93,0,0,1-1.49-.58,2.21,2.21,0,0,1-.55-1.6,2.5,2.5,0,0,1,.51-1.65,1.7,1.7,0,0,1,1.37-.6,1.62,1.62,0,0,1,1.27.52,2.06,2.06,0,0,1,.47,1.4v.41H15.32a1.71,1.71,0,0,0,.38,1.15,1.32,1.32,0,0,0,1,.39,3.51,3.51,0,0,0,1.37-.29V26a3.25,3.25,0,0,1-.65.21A4.06,4.06,0,0,1,16.69,26.31Zm-.17-3.89a1.06,1.06,0,0,0-.82.33,1.51,1.51,0,0,0-.36.93h2.23a1.46,1.46,0,0,0-.27-.94A1,1,0,0,0,16.52,22.42Z"/><path class="cls-1" d="M22.3,26.23V23.47a1.15,1.15,0,0,0-.23-.79,1,1,0,0,0-.75-.25,1.21,1.21,0,0,0-1,.36A1.81,1.81,0,0,0,20,24v2.24h-.65V22h.53l.11.59h0a1.34,1.34,0,0,1,.56-.49,1.74,1.74,0,0,1,.8-.17,1.62,1.62,0,0,1,1.16.37A1.59,1.59,0,0,1,23,23.44v2.79Z"/><path class="cls-1" d="M25.67,25.78a1.84,1.84,0,0,0,.33,0,1.09,1.09,0,0,0,.25-.05v.5a1.23,1.23,0,0,1-.31.08l-.37,0c-.82,0-1.24-.43-1.24-1.31V22.46h-.61v-.31l.61-.27.28-.92H25v1h1.24v.51H25V25a.89.89,0,0,0,.18.59A.65.65,0,0,0,25.67,25.78Z"/><path class="cls-1" d="M29.87,25.07a1.08,1.08,0,0,1-.44.92,2.09,2.09,0,0,1-1.25.32A2.72,2.72,0,0,1,26.85,26v-.6a2.74,2.74,0,0,0,.66.25,2.77,2.77,0,0,0,.68.09,1.62,1.62,0,0,0,.78-.16.56.56,0,0,0,.28-.5.57.57,0,0,0-.22-.43,4.36,4.36,0,0,0-.85-.42,4.22,4.22,0,0,1-.85-.38,1.32,1.32,0,0,1-.37-.38,1,1,0,0,1-.12-.51,1,1,0,0,1,.42-.82,2,2,0,0,1,1.17-.3,3.37,3.37,0,0,1,1.35.28l-.23.52a3.23,3.23,0,0,0-1.17-.26,1.4,1.4,0,0,0-.69.14.45.45,0,0,0-.24.4.46.46,0,0,0,.09.29.74.74,0,0,0,.28.23,5.4,5.4,0,0,0,.75.32,2.75,2.75,0,0,1,1,.56A1,1,0,0,1,29.87,25.07Z"/><path class="cls-1" d="M35.77,25.07a1.07,1.07,0,0,1-.45.92,2.07,2.07,0,0,1-1.25.32A2.72,2.72,0,0,1,32.74,26v-.6a3.09,3.09,0,0,0,.66.25,2.84,2.84,0,0,0,.69.09,1.65,1.65,0,0,0,.78-.16.55.55,0,0,0,.27-.5.54.54,0,0,0-.22-.43,3.92,3.92,0,0,0-.84-.42,4.22,4.22,0,0,1-.85-.38,1.37,1.37,0,0,1-.38-.38,1,1,0,0,1-.12-.51,1,1,0,0,1,.43-.82,2,2,0,0,1,1.16-.3,3.42,3.42,0,0,1,1.36.28l-.24.52a3.14,3.14,0,0,0-1.16-.26,1.44,1.44,0,0,0-.7.14.46.46,0,0,0-.23.4.46.46,0,0,0,.09.29.67.67,0,0,0,.28.23,5.4,5.4,0,0,0,.75.32,2.84,2.84,0,0,1,1,.56A1,1,0,0,1,35.77,25.07Z"/><path class="cls-1" d="M38.63,26.31a2,2,0,0,1-1.5-.58,2.25,2.25,0,0,1-.55-1.6,2.5,2.5,0,0,1,.51-1.65,1.71,1.71,0,0,1,1.37-.6,1.6,1.6,0,0,1,1.27.52,2,2,0,0,1,.47,1.4v.41h-3a1.76,1.76,0,0,0,.38,1.15,1.33,1.33,0,0,0,1,.39A3.51,3.51,0,0,0,40,25.46V26a3.25,3.25,0,0,1-.65.21A4,4,0,0,1,38.63,26.31Zm-.18-3.89a1.08,1.08,0,0,0-.82.33,1.63,1.63,0,0,0-.36.93h2.24a1.41,1.41,0,0,0-.28-.94A1,1,0,0,0,38.45,22.42Z"/><path class="cls-1" d="M43.26,21.88a2.64,2.64,0,0,1,.51,0l-.09.6a2,2,0,0,0-.47-.05,1.13,1.13,0,0,0-.88.42A1.51,1.51,0,0,0,42,23.94v2.29h-.65V22h.53l.08.8h0a1.92,1.92,0,0,1,.57-.65A1.31,1.31,0,0,1,43.26,21.88Z"/><path class="cls-1" d="M45.51,26.23,43.89,22h.69l.92,2.54c.21.6.33,1,.37,1.16h0c0-.14.12-.42.27-.86s.5-1.38,1-2.84h.69l-1.62,4.28Z"/><path class="cls-1" d="M50.39,26.31a2,2,0,0,1-1.5-.58,2.25,2.25,0,0,1-.55-1.6,2.5,2.5,0,0,1,.51-1.65,1.71,1.71,0,0,1,1.37-.6,1.64,1.64,0,0,1,1.28.52A2.06,2.06,0,0,1,52,23.8v.41H49a1.71,1.71,0,0,0,.38,1.15,1.31,1.31,0,0,0,1,.39,3.51,3.51,0,0,0,1.37-.29V26a3.06,3.06,0,0,1-.65.21A3.88,3.88,0,0,1,50.39,26.31Zm-.18-3.89a1.08,1.08,0,0,0-.82.33,1.63,1.63,0,0,0-.36.93h2.24a1.46,1.46,0,0,0-.27-.94A1,1,0,0,0,50.21,22.42Z"/><path class="cls-1" d="M56,25.66h0a1.51,1.51,0,0,1-1.34.65,1.6,1.6,0,0,1-1.31-.57,2.53,2.53,0,0,1-.47-1.63,2.59,2.59,0,0,1,.47-1.65,1.58,1.58,0,0,1,1.31-.58,1.55,1.55,0,0,1,1.33.63H56l0-.31v-2h.65v6.07h-.53Zm-1.29.11a1.18,1.18,0,0,0,1-.36,1.82,1.82,0,0,0,.3-1.17v-.13a2.16,2.16,0,0,0-.3-1.3,1.17,1.17,0,0,0-1-.39,1,1,0,0,0-.87.44,2.22,2.22,0,0,0-.31,1.25,2.12,2.12,0,0,0,.3,1.24A1,1,0,0,0,54.69,25.77Z"/><path class="cls-1" d="M61.43,25.78a1.87,1.87,0,0,0,.34,0L62,25.7v.5a1.23,1.23,0,0,1-.31.08l-.37,0c-.83,0-1.24-.43-1.24-1.31V22.46h-.62v-.31l.62-.27.27-.92h.38v1H62v.51H60.75V25a.89.89,0,0,0,.18.59A.63.63,0,0,0,61.43,25.78Z"/><path class="cls-1" d="M65.8,26.23V23.47a1.15,1.15,0,0,0-.23-.79,1,1,0,0,0-.75-.25,1.25,1.25,0,0,0-1,.36A1.93,1.93,0,0,0,63.52,24v2.23h-.65V20.16h.65V22a4.22,4.22,0,0,1,0,.55h0a1.31,1.31,0,0,1,.55-.49,1.71,1.71,0,0,1,.8-.18,1.64,1.64,0,0,1,1.18.38,1.57,1.57,0,0,1,.39,1.18v2.79Z"/><path class="cls-1" d="M69.74,21.88a2.64,2.64,0,0,1,.51,0l-.09.6a2.09,2.09,0,0,0-.47-.05,1.16,1.16,0,0,0-.89.42,1.56,1.56,0,0,0-.37,1.05v2.29h-.65V22h.54l.07.8h0A1.82,1.82,0,0,1,69,22.1,1.29,1.29,0,0,1,69.74,21.88Z"/><path class="cls-1" d="M74.75,24.09a2.39,2.39,0,0,1-.53,1.64,1.86,1.86,0,0,1-1.46.58,1.94,1.94,0,0,1-1-.27,1.79,1.79,0,0,1-.69-.77,2.73,2.73,0,0,1-.24-1.18,2.35,2.35,0,0,1,.53-1.63,1.84,1.84,0,0,1,1.45-.58,1.81,1.81,0,0,1,1.43.59A2.38,2.38,0,0,1,74.75,24.09Zm-3.27,0a2,2,0,0,0,.33,1.25,1.3,1.3,0,0,0,1.93,0,2,2,0,0,0,.33-1.25,2,2,0,0,0-.33-1.24,1.33,1.33,0,0,0-1.93,0A2,2,0,0,0,71.48,24.09Z"/><path class="cls-1" d="M76.49,22v2.78a1.1,1.1,0,0,0,.24.78,1,1,0,0,0,.75.26,1.21,1.21,0,0,0,1-.37,1.82,1.82,0,0,0,.31-1.2V22h.65v4.28h-.54l-.09-.57h0a1.31,1.31,0,0,1-.55.49,1.86,1.86,0,0,1-.81.16,1.35,1.35,0,0,1-1.55-1.56V22Z"/><path class="cls-1" d="M84.3,22v.41l-.8.1a1.29,1.29,0,0,1,.2.35,1.35,1.35,0,0,1,.08.5,1.29,1.29,0,0,1-.42,1,1.74,1.74,0,0,1-1.18.37,2,2,0,0,1-.36,0c-.28.15-.42.33-.42.55a.27.27,0,0,0,.15.26,1,1,0,0,0,.49.09h.76a1.68,1.68,0,0,1,1.07.29,1,1,0,0,1,.37.85,1.2,1.2,0,0,1-.57,1.08,3,3,0,0,1-1.66.38,2.29,2.29,0,0,1-1.3-.32,1,1,0,0,1-.45-.88,1,1,0,0,1,.25-.67,1.27,1.27,0,0,1,.7-.39.67.67,0,0,1-.27-.23.6.6,0,0,1-.12-.36A.69.69,0,0,1,81,24.9a1.11,1.11,0,0,1,.39-.34,1.22,1.22,0,0,1-.54-.47,1.37,1.37,0,0,1-.21-.75A1.35,1.35,0,0,1,81,22.26a1.67,1.67,0,0,1,1.19-.38,2.27,2.27,0,0,1,.61.07Zm-3.42,5a.57.57,0,0,0,.3.53,1.59,1.59,0,0,0,.84.18,2.35,2.35,0,0,0,1.2-.24.76.76,0,0,0,.4-.67.51.51,0,0,0-.22-.48,1.67,1.67,0,0,0-.81-.13h-.77a1,1,0,0,0-.69.21A.73.73,0,0,0,80.88,27Zm.35-3.63a.87.87,0,0,0,.26.68,1,1,0,0,0,.7.23c.64,0,1-.3,1-.92a.85.85,0,0,0-1-1,1,1,0,0,0-.7.24A1,1,0,0,0,81.23,23.32Z"/><path class="cls-1" d="M88.11,26.23V23.47a1.15,1.15,0,0,0-.24-.79,1,1,0,0,0-.75-.25,1.25,1.25,0,0,0-1,.36A1.93,1.93,0,0,0,85.82,24v2.23h-.64V20.16h.64V22a4.22,4.22,0,0,1,0,.55h0a1.31,1.31,0,0,1,.55-.49,1.71,1.71,0,0,1,.8-.18,1.64,1.64,0,0,1,1.18.38,1.57,1.57,0,0,1,.39,1.18v2.79Z"/><path class="cls-1" d="M2.64,30.88a2.64,2.64,0,0,1,.51,0l-.09.6a2,2,0,0,0-.47-.05,1.16,1.16,0,0,0-.89.42,1.56,1.56,0,0,0-.36,1v2.29H.69V31h.53l.08.8h0a1.92,1.92,0,0,1,.57-.65A1.31,1.31,0,0,1,2.64,30.88Z"/><path class="cls-1" d="M5.76,35.31a2,2,0,0,1-1.5-.58,2.25,2.25,0,0,1-.55-1.6,2.5,2.5,0,0,1,.51-1.65,1.71,1.71,0,0,1,1.37-.6,1.64,1.64,0,0,1,1.28.52,2.06,2.06,0,0,1,.47,1.4v.41H4.39a1.71,1.71,0,0,0,.38,1.15,1.31,1.31,0,0,0,1,.39,3.48,3.48,0,0,0,1.37-.29V35a3.06,3.06,0,0,1-.65.21A3.88,3.88,0,0,1,5.76,35.31Zm-.17-3.89a1.08,1.08,0,0,0-.83.33,1.63,1.63,0,0,0-.36.93H6.64a1.46,1.46,0,0,0-.27-.94A1,1,0,0,0,5.59,31.42Z"/><path class="cls-1" d="M11.37,35.23V32.47a1.15,1.15,0,0,0-.24-.79,1,1,0,0,0-.74-.25,1.25,1.25,0,0,0-1,.36A1.87,1.87,0,0,0,9.09,33v2.23H8.44V29.16h.65V31a4.22,4.22,0,0,1,0,.55h0a1.35,1.35,0,0,1,.54-.49,1.79,1.79,0,0,1,.81-.18,1.67,1.67,0,0,1,1.18.38A1.57,1.57,0,0,1,12,32.44v2.79Z"/><path class="cls-1" d="M16,35.23l-.12-.6h0a1.78,1.78,0,0,1-.63.54,1.91,1.91,0,0,1-.8.14,1.44,1.44,0,0,1-1-.33,1.17,1.17,0,0,1-.36-.93c0-.86.69-1.32,2.08-1.36l.72,0V32.4a1.06,1.06,0,0,0-.22-.74.87.87,0,0,0-.69-.24,2.83,2.83,0,0,0-1.21.33l-.2-.5A3.54,3.54,0,0,1,14.2,31a3.38,3.38,0,0,1,.76-.1,1.69,1.69,0,0,1,1.14.34,1.45,1.45,0,0,1,.36,1.09v2.92Zm-1.46-.45a1.32,1.32,0,0,0,1-.33,1.24,1.24,0,0,0,.35-.93v-.39l-.65,0a2.42,2.42,0,0,0-1.12.24.71.71,0,0,0-.34.66.66.66,0,0,0,.21.53A.86.86,0,0,0,14.52,34.78Z"/><path class="cls-1" d="M19.79,30.88a1.59,1.59,0,0,1,1.31.58,2.53,2.53,0,0,1,.47,1.63,2.58,2.58,0,0,1-.47,1.64,1.58,1.58,0,0,1-1.31.58,1.87,1.87,0,0,1-.76-.15,1.4,1.4,0,0,1-.58-.48H18.4l-.13.55H17.8V29.16h.65v1.47c0,.33,0,.63,0,.89h0A1.55,1.55,0,0,1,19.79,30.88Zm-.09.55a1.13,1.13,0,0,0-1,.38,2.17,2.17,0,0,0-.29,1.28,2.15,2.15,0,0,0,.3,1.29,1.13,1.13,0,0,0,1,.39,1,1,0,0,0,.9-.44,2.26,2.26,0,0,0,.29-1.25,2.18,2.18,0,0,0-.29-1.24A1,1,0,0,0,19.7,31.43Z"/><path class="cls-1" d="M22.65,29.79a.44.44,0,0,1,.11-.32.39.39,0,0,1,.54,0,.4.4,0,0,1,.11.32.41.41,0,0,1-.11.33.39.39,0,0,1-.54,0A.45.45,0,0,1,22.65,29.79Zm.7,5.44H22.7V31h.65Z"/><path class="cls-1" d="M25.37,35.23h-.64V29.16h.64Z"/><path class="cls-1" d="M26.69,29.79a.44.44,0,0,1,.11-.32.41.41,0,0,1,.28-.11.4.4,0,0,1,.27.11.44.44,0,0,1,.11.32.45.45,0,0,1-.11.33.4.4,0,0,1-.27.11.41.41,0,0,1-.28-.11A.45.45,0,0,1,26.69,29.79Zm.71,5.44h-.65V31h.65Z"/><path class="cls-1" d="M30.16,34.78a1.84,1.84,0,0,0,.33,0,1.09,1.09,0,0,0,.25,0v.5a1.23,1.23,0,0,1-.31.08l-.37,0c-.83,0-1.24-.43-1.24-1.31V31.46h-.61v-.31l.61-.27.27-.92h.38v1h1.24v.51H29.47V34a.89.89,0,0,0,.18.59A.64.64,0,0,0,30.16,34.78Z"/><path class="cls-1" d="M34.23,35.23l-.13-.6h0a1.81,1.81,0,0,1-.64.54,1.86,1.86,0,0,1-.79.14,1.42,1.42,0,0,1-1-.33,1.17,1.17,0,0,1-.36-.93c0-.86.69-1.32,2.07-1.36l.73,0V32.4a1.06,1.06,0,0,0-.22-.74.87.87,0,0,0-.69-.24,2.8,2.8,0,0,0-1.21.33l-.2-.5a3.54,3.54,0,0,1,.69-.27,3.23,3.23,0,0,1,.76-.1,1.64,1.64,0,0,1,1.13.34,1.41,1.41,0,0,1,.37,1.09v2.92Zm-1.46-.45a1.32,1.32,0,0,0,.95-.33,1.24,1.24,0,0,0,.34-.93v-.39l-.65,0a2.41,2.41,0,0,0-1.11.24.71.71,0,0,0-.34.66.66.66,0,0,0,.21.53A.85.85,0,0,0,32.77,34.78Z"/><path class="cls-1" d="M37.43,34.78a1.84,1.84,0,0,0,.33,0,1.33,1.33,0,0,0,.26,0v.5a1.48,1.48,0,0,1-.32.08l-.36,0c-.83,0-1.25-.43-1.25-1.31V31.46h-.61v-.31l.61-.27.28-.92h.37v1H38v.51H36.74V34a.84.84,0,0,0,.19.59A.63.63,0,0,0,37.43,34.78Z"/><path class="cls-1" d="M40.68,35.31a2,2,0,0,1-1.5-.58,2.25,2.25,0,0,1-.55-1.6,2.5,2.5,0,0,1,.51-1.65,1.71,1.71,0,0,1,1.37-.6,1.6,1.6,0,0,1,1.27.52,2,2,0,0,1,.47,1.4v.41h-3a1.71,1.71,0,0,0,.39,1.15,1.31,1.31,0,0,0,1,.39,3.51,3.51,0,0,0,1.37-.29V35a3.25,3.25,0,0,1-.65.21A3.88,3.88,0,0,1,40.68,35.31Zm-.18-3.89a1.08,1.08,0,0,0-.82.33,1.63,1.63,0,0,0-.36.93h2.24a1.41,1.41,0,0,0-.28-.94A1,1,0,0,0,40.5,31.42Z"/><path class="cls-1" d="M46.27,34.66h0a1.52,1.52,0,0,1-1.35.65,1.58,1.58,0,0,1-1.3-.57,2.53,2.53,0,0,1-.47-1.63,2.59,2.59,0,0,1,.47-1.65,1.57,1.57,0,0,1,1.3-.58,1.56,1.56,0,0,1,1.34.63h.05l0-.31v-2h.65v6.07h-.53ZM45,34.77a1.18,1.18,0,0,0,1-.36,1.82,1.82,0,0,0,.3-1.17v-.13a2.16,2.16,0,0,0-.3-1.3,1.17,1.17,0,0,0-1-.39,1,1,0,0,0-.87.44,2.69,2.69,0,0,0,0,2.49A1,1,0,0,0,45,34.77Z"/><path class="cls-1" d="M53.27,35.23V32.47a1.15,1.15,0,0,0-.24-.79,1,1,0,0,0-.75-.25,1.23,1.23,0,0,0-1,.36A1.87,1.87,0,0,0,51,33v2.23h-.65V29.16H51V31a4.22,4.22,0,0,1,0,.55h0a1.29,1.29,0,0,1,.54-.49,1.79,1.79,0,0,1,.81-.18,1.63,1.63,0,0,1,1.17.38,1.53,1.53,0,0,1,.4,1.18v2.79Z"/><path class="cls-1" d="M57.06,35.31a2,2,0,0,1-1.5-.58,2.21,2.21,0,0,1-.55-1.6,2.5,2.5,0,0,1,.51-1.65,1.71,1.71,0,0,1,1.37-.6,1.6,1.6,0,0,1,1.27.52,2,2,0,0,1,.47,1.4v.41h-3a1.76,1.76,0,0,0,.38,1.15,1.33,1.33,0,0,0,1,.39,3.51,3.51,0,0,0,1.37-.29V35a3.25,3.25,0,0,1-.65.21A4,4,0,0,1,57.06,35.31Zm-.18-3.89a1.08,1.08,0,0,0-.82.33,1.63,1.63,0,0,0-.36.93h2.24a1.41,1.41,0,0,0-.28-.94A1,1,0,0,0,56.88,31.42Z"/><path class="cls-1" d="M62.37,35.23l-.13-.6h0a1.81,1.81,0,0,1-.64.54,1.83,1.83,0,0,1-.79.14,1.42,1.42,0,0,1-1-.33,1.17,1.17,0,0,1-.36-.93c0-.86.69-1.32,2.07-1.36l.73,0V32.4a1.06,1.06,0,0,0-.22-.74.87.87,0,0,0-.69-.24,2.8,2.8,0,0,0-1.21.33l-.2-.5a3.54,3.54,0,0,1,.69-.27,3.3,3.3,0,0,1,.76-.1,1.64,1.64,0,0,1,1.13.34,1.41,1.41,0,0,1,.37,1.09v2.92Zm-1.46-.45a1.32,1.32,0,0,0,1-.33,1.24,1.24,0,0,0,.34-.93v-.39l-.65,0a2.41,2.41,0,0,0-1.11.24.71.71,0,0,0-.34.66.66.66,0,0,0,.21.53A.85.85,0,0,0,60.91,34.78Z"/><path class="cls-1" d="M64.84,35.23h-.65V29.16h.65Z"/><path class="cls-1" d="M67.59,34.78a1.87,1.87,0,0,0,.34,0l.25,0v.5a1.23,1.23,0,0,1-.31.08l-.37,0c-.83,0-1.24-.43-1.24-1.31V31.46h-.62v-.31l.62-.27.27-.92h.38v1h1.24v.51H66.91V34a.89.89,0,0,0,.18.59A.63.63,0,0,0,67.59,34.78Z"/><path class="cls-1" d="M72,35.23V32.47a1.15,1.15,0,0,0-.23-.79,1,1,0,0,0-.75-.25,1.25,1.25,0,0,0-1,.36A1.93,1.93,0,0,0,69.68,33v2.23H69V29.16h.65V31a4.22,4.22,0,0,1,0,.55h0a1.31,1.31,0,0,1,.55-.49,1.71,1.71,0,0,1,.8-.18,1.64,1.64,0,0,1,1.18.38,1.57,1.57,0,0,1,.39,1.18v2.79Z"/><path class="cls-1" d="M77.73,35.31a1.83,1.83,0,0,1-1.44-.57,2.35,2.35,0,0,1-.51-1.62,2.46,2.46,0,0,1,.52-1.66,1.88,1.88,0,0,1,1.48-.58,3.15,3.15,0,0,1,.61.06,2.34,2.34,0,0,1,.49.16l-.2.55a2.15,2.15,0,0,0-.47-.14,2,2,0,0,0-.45-.06c-.87,0-1.3.55-1.3,1.66a2,2,0,0,0,.31,1.21,1.11,1.11,0,0,0,1,.43,3,3,0,0,0,1.1-.23v.57A2.35,2.35,0,0,1,77.73,35.31Z"/><path class="cls-1" d="M81.64,35.31a2,2,0,0,1-1.5-.58,2.25,2.25,0,0,1-.55-1.6,2.5,2.5,0,0,1,.51-1.65,1.71,1.71,0,0,1,1.37-.6,1.64,1.64,0,0,1,1.28.52,2.06,2.06,0,0,1,.46,1.4v.41H80.27a1.71,1.71,0,0,0,.38,1.15,1.31,1.31,0,0,0,1,.39A3.51,3.51,0,0,0,83,34.46V35a3.06,3.06,0,0,1-.65.21A3.88,3.88,0,0,1,81.64,35.31Zm-.18-3.89a1.08,1.08,0,0,0-.82.33,1.63,1.63,0,0,0-.36.93h2.24a1.46,1.46,0,0,0-.27-.94A1,1,0,0,0,81.46,31.42Z"/><path class="cls-1" d="M87.25,35.23V32.47a1.15,1.15,0,0,0-.24-.79,1,1,0,0,0-.74-.25,1.25,1.25,0,0,0-1,.36A1.82,1.82,0,0,0,85,33v2.24h-.65V31h.53l.1.59h0a1.41,1.41,0,0,1,.56-.49,1.77,1.77,0,0,1,.8-.17,1.63,1.63,0,0,1,1.17.37,1.59,1.59,0,0,1,.39,1.19v2.79Z"/><path class="cls-1" d="M90.61,34.78a1.69,1.69,0,0,0,.33,0,1.2,1.2,0,0,0,.26,0v.5a1.37,1.37,0,0,1-.31.08l-.37,0c-.83,0-1.24-.43-1.24-1.31V31.46h-.62v-.31l.62-.27.27-.92h.38v1h1.24v.51H89.93V34a.89.89,0,0,0,.18.59A.63.63,0,0,0,90.61,34.78Z"/><path class="cls-1" d="M93.86,35.31a2,2,0,0,1-1.5-.58,2.25,2.25,0,0,1-.54-1.6,2.5,2.5,0,0,1,.51-1.65,1.69,1.69,0,0,1,1.36-.6A1.62,1.62,0,0,1,95,31.4a2.06,2.06,0,0,1,.47,1.4v.41h-3a1.71,1.71,0,0,0,.38,1.15,1.32,1.32,0,0,0,1,.39,3.46,3.46,0,0,0,1.36-.29V35a3.06,3.06,0,0,1-.65.21A3.88,3.88,0,0,1,93.86,35.31Zm-.17-3.89a1.08,1.08,0,0,0-.83.33,1.63,1.63,0,0,0-.36.93h2.24a1.46,1.46,0,0,0-.27-.94A1,1,0,0,0,93.69,31.42Z"/><path class="cls-1" d="M98.5,30.88a2.64,2.64,0,0,1,.51,0l-.09.6a2.15,2.15,0,0,0-.47-.05,1.15,1.15,0,0,0-.89.42,1.51,1.51,0,0,0-.37,1v2.29h-.65V31h.54l.07.8h0a1.85,1.85,0,0,1,.58-.65A1.29,1.29,0,0,1,98.5,30.88Z"/><path class="cls-1" d="M102.57,34.07a1.07,1.07,0,0,1-.45.92,2,2,0,0,1-1.25.32A2.68,2.68,0,0,1,99.55,35v-.6a2.74,2.74,0,0,0,.66.25,2.71,2.71,0,0,0,.68.09,1.62,1.62,0,0,0,.78-.16.55.55,0,0,0,.27-.5.56.56,0,0,0-.21-.43,4.36,4.36,0,0,0-.85-.42,4.22,4.22,0,0,1-.85-.38,1.2,1.2,0,0,1-.37-.38,1,1,0,0,1-.13-.51,1,1,0,0,1,.43-.82,2,2,0,0,1,1.17-.3,3.37,3.37,0,0,1,1.35.28l-.23.52a3.23,3.23,0,0,0-1.17-.26,1.37,1.37,0,0,0-.69.14.45.45,0,0,0-.24.4.46.46,0,0,0,.09.29.74.74,0,0,0,.28.23,5.4,5.4,0,0,0,.75.32,2.84,2.84,0,0,1,1,.56A1,1,0,0,1,102.57,34.07Z"/><path class="cls-1" d="M107.09,34.78a1.84,1.84,0,0,0,.33,0l.25,0v.5a1.23,1.23,0,0,1-.31.08l-.37,0c-.83,0-1.24-.43-1.24-1.31V31.46h-.61v-.31l.61-.27L106,30h.38v1h1.24v.51H106.4V34a.89.89,0,0,0,.18.59A.64.64,0,0,0,107.09,34.78Z"/><path class="cls-1" d="M112.22,33.09a2.35,2.35,0,0,1-.53,1.64,1.84,1.84,0,0,1-1.45.58,1.94,1.94,0,0,1-1-.27,1.73,1.73,0,0,1-.69-.77,2.73,2.73,0,0,1-.24-1.18,2.35,2.35,0,0,1,.52-1.63,1.86,1.86,0,0,1,1.46-.58,1.79,1.79,0,0,1,1.42.59A2.33,2.33,0,0,1,112.22,33.09Zm-3.26,0a2,2,0,0,0,.33,1.25,1.3,1.3,0,0,0,1.93,0,2.51,2.51,0,0,0,0-2.49,1.15,1.15,0,0,0-1-.42,1.18,1.18,0,0,0-1,.41A2.07,2.07,0,0,0,109,33.09Z"/><path class="cls-1" d="M118.35,34.66h0a1.52,1.52,0,0,1-1.35.65,1.58,1.58,0,0,1-1.3-.57,2.53,2.53,0,0,1-.47-1.63,2.59,2.59,0,0,1,.47-1.65,1.74,1.74,0,0,1,2.64.05h0l0-.31v-2H119v6.07h-.52Zm-1.3.11a1.19,1.19,0,0,0,1-.36,1.82,1.82,0,0,0,.3-1.17v-.13a2.09,2.09,0,0,0-.31-1.3,1.13,1.13,0,0,0-1-.39,1,1,0,0,0-.88.44,2.22,2.22,0,0,0-.3,1.25,2.12,2.12,0,0,0,.3,1.24A1,1,0,0,0,117.05,34.77Z"/><path class="cls-1" d="M123,35.23l-.13-.6h0a1.73,1.73,0,0,1-.64.54,1.83,1.83,0,0,1-.79.14,1.42,1.42,0,0,1-1-.33,1.17,1.17,0,0,1-.36-.93c0-.86.69-1.32,2.07-1.36l.73,0V32.4a1.06,1.06,0,0,0-.22-.74.87.87,0,0,0-.69-.24,2.8,2.8,0,0,0-1.21.33l-.2-.5a3.54,3.54,0,0,1,.69-.27,3.3,3.3,0,0,1,.76-.1,1.64,1.64,0,0,1,1.13.34,1.41,1.41,0,0,1,.37,1.09v2.92Zm-1.46-.45a1.32,1.32,0,0,0,.95-.33,1.24,1.24,0,0,0,.34-.93v-.39l-.64,0a2.42,2.42,0,0,0-1.12.24.71.71,0,0,0-.34.66.66.66,0,0,0,.21.53A.85.85,0,0,0,121.51,34.78Z"/><path class="cls-1" d="M126.17,34.78a1.69,1.69,0,0,0,.33,0,1.33,1.33,0,0,0,.26,0v.5a1.37,1.37,0,0,1-.31.08l-.37,0c-.83,0-1.24-.43-1.24-1.31V31.46h-.62v-.31l.62-.27.27-.92h.37v1h1.25v.51h-1.25V34a.89.89,0,0,0,.19.59A.63.63,0,0,0,126.17,34.78Z"/><path class="cls-1" d="M129.42,35.31a2,2,0,0,1-1.5-.58,2.25,2.25,0,0,1-.55-1.6,2.5,2.5,0,0,1,.51-1.65,1.71,1.71,0,0,1,1.37-.6,1.64,1.64,0,0,1,1.28.52,2.06,2.06,0,0,1,.47,1.4v.41h-2.95a1.71,1.71,0,0,0,.38,1.15,1.31,1.31,0,0,0,1,.39,3.48,3.48,0,0,0,1.37-.29V35a3.06,3.06,0,0,1-.65.21A3.88,3.88,0,0,1,129.42,35.31Zm-.17-3.89a1.08,1.08,0,0,0-.83.33,1.63,1.63,0,0,0-.36.93h2.24a1.46,1.46,0,0,0-.27-.94A1,1,0,0,0,129.25,31.42Z"/><path class="cls-2" d="M7.13.9A6,6,0,0,1,11,2a3.81,3.81,0,0,1,1.43,3.14,3.92,3.92,0,0,1-.82,2.4A7.21,7.21,0,0,1,9,9.55a8.81,8.81,0,0,1,3.08,2.18A4.1,4.1,0,0,1,13,14.37a4.43,4.43,0,0,1-1.55,3.55A6.34,6.34,0,0,1,7.2,19.24,6.75,6.75,0,0,1,2.81,18a4.28,4.28,0,0,1-1.54-3.54q0-3.07,3.73-4.78a6.92,6.92,0,0,1-2.41-2,4.37,4.37,0,0,1-.73-2.47,3.76,3.76,0,0,1,1.43-3.1A5.94,5.94,0,0,1,7.13.9ZM3.27,14.5a2.77,2.77,0,0,0,1,2.28,4.49,4.49,0,0,0,2.86.82A4.23,4.23,0,0,0,10,16.74a3,3,0,0,0,.07-4.45A10,10,0,0,0,6.73,10.5a7.13,7.13,0,0,0-2.64,1.73A3.34,3.34,0,0,0,3.27,14.5Zm3.83-12a3.6,3.6,0,0,0-2.39.74,2.42,2.42,0,0,0-.86,2,2.76,2.76,0,0,0,.72,1.93A7.46,7.46,0,0,0,7.23,8.77,6.78,6.78,0,0,0,9.7,7.2a3,3,0,0,0,.72-2,2.41,2.41,0,0,0-.88-2A3.76,3.76,0,0,0,7.1,2.54Z"/><path class="cls-2" d="M16.15,17.71a1.8,1.8,0,0,1,.37-1.24,1.36,1.36,0,0,1,1.07-.42,1.43,1.43,0,0,1,1.1.42,1.71,1.71,0,0,1,.4,1.24,1.71,1.71,0,0,1-.4,1.22,1.46,1.46,0,0,1-1.1.42,1.43,1.43,0,0,1-1-.38A1.69,1.69,0,0,1,16.15,17.71Z"/><path class="cls-2" d="M28.08.9A6.06,6.06,0,0,1,32,2a3.8,3.8,0,0,1,1.42,3.14,3.91,3.91,0,0,1-.81,2.4,7.16,7.16,0,0,1-2.62,2A8.76,8.76,0,0,1,33,11.73,4.1,4.1,0,0,1,34,14.37a4.43,4.43,0,0,1-1.55,3.55,6.36,6.36,0,0,1-4.25,1.32A6.78,6.78,0,0,1,23.75,18a4.3,4.3,0,0,1-1.53-3.54q0-3.07,3.73-4.78a7,7,0,0,1-2.42-2,4.44,4.44,0,0,1-.73-2.47,3.76,3.76,0,0,1,1.44-3.1A5.92,5.92,0,0,1,28.08.9ZM24.22,14.5a2.77,2.77,0,0,0,1,2.28,4.49,4.49,0,0,0,2.86.82,4.25,4.25,0,0,0,2.83-.86A3,3,0,0,0,31,12.29a9.77,9.77,0,0,0-3.32-1.79A7.17,7.17,0,0,0,25,12.23,3.34,3.34,0,0,0,24.22,14.5Zm3.83-12a3.58,3.58,0,0,0-2.39.74,2.43,2.43,0,0,0-.87,2,2.8,2.8,0,0,0,.72,1.93,7.55,7.55,0,0,0,2.66,1.61A6.75,6.75,0,0,0,30.65,7.2a3,3,0,0,0,.72-2,2.41,2.41,0,0,0-.88-2A3.78,3.78,0,0,0,28.05,2.54Z"/><path class="cls-2" d="M45.59,19,39.54,3.18h-.1c.11,1.25.17,2.74.17,4.47V19H37.69V1.15h3.13l5.65,14.72h.1l5.7-14.72h3.1V19H53.3V7.5c0-1.32.05-2.75.17-4.3h-.1L47.27,19Z"/></g></svg>