<svg xmlns="http://www.w3.org/2000/svg" viewBox="0 0 259.76 104.18"><defs><style>.cls-1{fill:#ee8122;}.cls-2{fill:#fff;}.cls-3{fill:#4d4e50;}</style></defs><g id="Economic_Opportunities_Image" data-name="Economic Opportunities Image"><rect class="cls-1" x="46.89" width="131.99" height="44.23"/><path class="cls-2" d="M67.52,19.33v-10h1.16v10Z"/><path class="cls-2" d="M76.38,19.33V14.48A2,2,0,0,0,76,13.11a1.72,1.72,0,0,0-1.31-.45,2.14,2.14,0,0,0-1.72.64,3.17,3.17,0,0,0-.55,2.1v3.93H71.25v-7.5h.92l.19,1h0a2.35,2.35,0,0,1,1-.86,3.19,3.19,0,0,1,1.4-.3,2.89,2.89,0,0,1,2,.65,2.81,2.81,0,0,1,.68,2.09v4.89Z"/><path class="cls-2" d="M82.26,18.53a3.68,3.68,0,0,0,.58-.05l.45-.09v.87a2.22,2.22,0,0,1-.55.15,5.27,5.27,0,0,1-.64.05c-1.45,0-2.18-.76-2.18-2.29V12.72H78.85v-.55l1.07-.47.48-1.6h.66v1.73h2.17v.89H81.06v4.41a1.51,1.51,0,0,0,.32,1A1.12,1.12,0,0,0,82.26,18.53Z"/><path class="cls-2" d="M88,19.46a3.41,3.41,0,0,1-2.62-1,3.91,3.91,0,0,1-1-2.81,4.35,4.35,0,0,1,.89-2.88,3,3,0,0,1,2.39-1.06,2.84,2.84,0,0,1,2.23.92,3.56,3.56,0,0,1,.82,2.45v.72H85.54a3,3,0,0,0,.67,2,2.31,2.31,0,0,0,1.78.68,6.14,6.14,0,0,0,2.39-.5v1a5.79,5.79,0,0,1-1.14.37A6,6,0,0,1,88,19.46Zm-.31-6.81a1.84,1.84,0,0,0-1.44.59,2.65,2.65,0,0,0-.63,1.62h3.92A2.49,2.49,0,0,0,89,13.22,1.7,1.7,0,0,0,87.64,12.65Z"/><path class="cls-2" d="M98.77,11.83v.72l-1.39.17a2.24,2.24,0,0,1,.34.62,2.41,2.41,0,0,1,.15.87A2.22,2.22,0,0,1,97.12,16a3,3,0,0,1-2.06.66,3.13,3.13,0,0,1-.63-.06,1.14,1.14,0,0,0-.73,1A.49.49,0,0,0,94,18a1.83,1.83,0,0,0,.87.15h1.32a3,3,0,0,1,1.87.51,1.77,1.77,0,0,1,.65,1.49,2.14,2.14,0,0,1-1,1.9,5.42,5.42,0,0,1-2.92.65,3.91,3.91,0,0,1-2.26-.55,1.76,1.76,0,0,1-.8-1.54,1.73,1.73,0,0,1,.44-1.18,2.18,2.18,0,0,1,1.23-.68,1.23,1.23,0,0,1-.48-.4,1.1,1.1,0,0,1-.2-.64,1.28,1.28,0,0,1,.22-.72,2.46,2.46,0,0,1,.69-.59,2.07,2.07,0,0,1-.95-.82,2.41,2.41,0,0,1-.36-1.31,2.45,2.45,0,0,1,.74-1.9,3,3,0,0,1,2.09-.66,3.9,3.9,0,0,1,1.06.13Zm-6,8.75a1,1,0,0,0,.51.93,2.82,2.82,0,0,0,1.47.31,4,4,0,0,0,2.11-.43,1.3,1.3,0,0,0,.69-1.15.91.91,0,0,0-.38-.85,2.88,2.88,0,0,0-1.41-.23H94.43a1.74,1.74,0,0,0-1.2.37A1.28,1.28,0,0,0,92.8,20.58Zm.61-6.35a1.54,1.54,0,0,0,.44,1.19,1.78,1.78,0,0,0,1.24.41,1.45,1.45,0,0,0,1.66-1.62,1.48,1.48,0,0,0-1.68-1.68,1.66,1.66,0,0,0-1.23.43A1.7,1.7,0,0,0,93.41,14.23Z"/><path class="cls-2" d="M103.73,11.7a4.74,4.74,0,0,1,.89.08l-.16,1.05a3.72,3.72,0,0,0-.82-.1,2,2,0,0,0-1.55.74,2.69,2.69,0,0,0-.65,1.84v4h-1.13v-7.5h.93l.13,1.39h.06a3.36,3.36,0,0,1,1-1.13A2.33,2.33,0,0,1,103.73,11.7Z"/><path class="cls-2" d="M110.63,19.33l-.23-1.07h-.05a3.05,3.05,0,0,1-1.12.95,3.32,3.32,0,0,1-1.39.25,2.54,2.54,0,0,1-1.75-.57,2.1,2.1,0,0,1-.63-1.63q0-2.28,3.63-2.38l1.27,0v-.47a1.85,1.85,0,0,0-.38-1.3,1.54,1.54,0,0,0-1.21-.42,5,5,0,0,0-2.12.57l-.35-.87a5.72,5.72,0,0,1,1.22-.47,5.43,5.43,0,0,1,1.32-.17,2.83,2.83,0,0,1,2,.6,2.43,2.43,0,0,1,.65,1.9v5.12Zm-2.56-.8a2.33,2.33,0,0,0,1.66-.58,2.13,2.13,0,0,0,.61-1.63v-.68l-1.14,0a4.09,4.09,0,0,0-2,.42,1.27,1.27,0,0,0-.6,1.16,1.21,1.21,0,0,0,.37.94A1.59,1.59,0,0,0,108.07,18.53Z"/><path class="cls-2" d="M116.23,18.53a3.68,3.68,0,0,0,.58-.05l.44-.09v.87a2,2,0,0,1-.54.15,5.27,5.27,0,0,1-.65.05c-1.44,0-2.17-.76-2.17-2.29V12.72h-1.07v-.55l1.07-.47.48-1.6H115v1.73h2.17v.89H115v4.41a1.51,1.51,0,0,0,.32,1A1.12,1.12,0,0,0,116.23,18.53Z"/><path class="cls-2" d="M121.92,19.46a3.4,3.4,0,0,1-2.62-1,3.87,3.87,0,0,1-1-2.81,4.35,4.35,0,0,1,.9-2.88,3,3,0,0,1,2.39-1.06,2.85,2.85,0,0,1,2.23.92,3.56,3.56,0,0,1,.82,2.45v.72h-5.16a3,3,0,0,0,.67,2,2.31,2.31,0,0,0,1.78.68,6.17,6.17,0,0,0,2.39-.5v1a5.79,5.79,0,0,1-1.14.37A6.08,6.08,0,0,1,121.92,19.46Zm-.31-6.81a1.84,1.84,0,0,0-1.44.59,2.65,2.65,0,0,0-.63,1.62h3.91a2.49,2.49,0,0,0-.47-1.64A1.7,1.7,0,0,0,121.61,12.65Z"/><path class="cls-2" d="M131.71,18.32h-.07a2.65,2.65,0,0,1-2.35,1.14,2.76,2.76,0,0,1-2.28-1,4.39,4.39,0,0,1-.82-2.86,4.51,4.51,0,0,1,.82-2.88,2.77,2.77,0,0,1,2.28-1,2.72,2.72,0,0,1,2.34,1.11h.09l-.05-.54,0-.53V8.69h1.14V19.33h-.92Zm-2.27.19a2.07,2.07,0,0,0,1.68-.63,3.18,3.18,0,0,0,.52-2V15.6a3.7,3.7,0,0,0-.53-2.27,2,2,0,0,0-1.69-.68,1.77,1.77,0,0,0-1.53.77,3.91,3.91,0,0,0-.53,2.2,3.7,3.7,0,0,0,.53,2.16A1.78,1.78,0,0,0,129.44,18.51Z"/><path class="cls-2" d="M67.52,36.13v-10h1.16v8.94h4.41v1.06Z"/><path class="cls-2" d="M74.52,26.6a.74.74,0,0,1,.19-.57.65.65,0,0,1,.48-.18.64.64,0,0,1,.47.19.73.73,0,0,1,.2.56.78.78,0,0,1-.2.58.67.67,0,0,1-.47.18.65.65,0,0,1-.48-.18A.78.78,0,0,1,74.52,26.6Zm1.23,9.53H74.61v-7.5h1.14Z"/><path class="cls-2" d="M81.53,29.52H79.62v6.61H78.49V29.52H77.15V29l1.34-.41v-.41c0-1.84.8-2.76,2.41-2.76a5,5,0,0,1,1.4.23l-.3.91a3.79,3.79,0,0,0-1.12-.21,1.08,1.08,0,0,0-.95.43,2.41,2.41,0,0,0-.31,1.37v.48h1.91Z"/><path class="cls-2" d="M86.06,36.26a3.41,3.41,0,0,1-2.62-1,3.91,3.91,0,0,1-1-2.81,4.39,4.39,0,0,1,.89-2.88,3,3,0,0,1,2.4-1.06,2.85,2.85,0,0,1,2.23.92,3.61,3.61,0,0,1,.82,2.45v.72H83.66a3,3,0,0,0,.66,2,2.33,2.33,0,0,0,1.78.68,6.18,6.18,0,0,0,2.4-.5v1a6,6,0,0,1-1.14.37A6.12,6.12,0,0,1,86.06,36.26Zm-.31-6.81a1.84,1.84,0,0,0-1.44.59,2.78,2.78,0,0,0-.63,1.62H87.6A2.49,2.49,0,0,0,87.12,30,1.68,1.68,0,0,0,85.75,29.45Z"/><path class="cls-2" d="M95.58,34.08a1.9,1.9,0,0,1-.77,1.62,3.73,3.73,0,0,1-2.19.56,4.71,4.71,0,0,1-2.33-.47v-1a6.16,6.16,0,0,0,1.16.43,5.07,5.07,0,0,0,1.19.16A2.69,2.69,0,0,0,94,35a.93.93,0,0,0,.48-.86,1,1,0,0,0-.38-.75,5.66,5.66,0,0,0-1.48-.73A8.47,8.47,0,0,1,91.14,32a2.14,2.14,0,0,1-.65-.66A1.81,1.81,0,0,1,91,29a3.41,3.41,0,0,1,2-.53,6,6,0,0,1,2.37.49l-.41.92a5.39,5.39,0,0,0-2-.46,2.36,2.36,0,0,0-1.22.25.83.83,0,0,0-.25,1.21,1.37,1.37,0,0,0,.49.4,10.73,10.73,0,0,0,1.31.56,4.93,4.93,0,0,1,1.81,1A1.71,1.71,0,0,1,95.58,34.08Z"/><path class="cls-2" d="M99.85,35.33a3.68,3.68,0,0,0,.58,0l.45-.09v.87a2.22,2.22,0,0,1-.55.15,5.27,5.27,0,0,1-.64,0c-1.45,0-2.18-.76-2.18-2.29V29.52H96.44V29l1.07-.47L98,26.9h.66v1.73h2.17v.89H98.65v4.41A1.46,1.46,0,0,0,99,35,1.09,1.09,0,0,0,99.85,35.33Z"/><path class="cls-2" d="M101.18,28.63h1.22L104,32.91a16.71,16.71,0,0,1,.67,2.11h.06c0-.23.18-.63.37-1.19s.81-2.3,1.85-5.2h1.22L105,37.17A4.21,4.21,0,0,1,103.87,39a2.39,2.39,0,0,1-1.57.53,4.44,4.44,0,0,1-1-.12v-.91a3.61,3.61,0,0,0,.84.09,1.73,1.73,0,0,0,1.67-1.32l.41-1.06Z"/><path class="cls-2" d="M110.56,36.13h-1.13V25.49h1.13Z"/><path class="cls-2" d="M116.13,36.26a3.43,3.43,0,0,1-2.62-1,3.91,3.91,0,0,1-1-2.81,4.39,4.39,0,0,1,.89-2.88,3,3,0,0,1,2.4-1.06,2.85,2.85,0,0,1,2.23.92,3.61,3.61,0,0,1,.82,2.45v.72h-5.16a3,3,0,0,0,.66,2,2.33,2.33,0,0,0,1.78.68,6.18,6.18,0,0,0,2.4-.5v1a5.79,5.79,0,0,1-1.14.37A6.12,6.12,0,0,1,116.13,36.26Zm-.3-6.81a1.81,1.81,0,0,0-1.44.59,2.72,2.72,0,0,0-.64,1.62h3.92a2.49,2.49,0,0,0-.48-1.64A1.68,1.68,0,0,0,115.83,29.45Z"/><path class="cls-2" d="M128.91,27a3.23,3.23,0,0,0-2.6,1.1,4.39,4.39,0,0,0-1,3,4.52,4.52,0,0,0,.92,3,3.3,3.3,0,0,0,2.63,1.07,8.93,8.93,0,0,0,2.38-.37v1a7.33,7.33,0,0,1-2.56.39,4.32,4.32,0,0,1-3.41-1.34,5.5,5.5,0,0,1-1.2-3.8,5.94,5.94,0,0,1,.58-2.71,4.08,4.08,0,0,1,1.67-1.79,5,5,0,0,1,2.56-.63,6.22,6.22,0,0,1,2.75.57l-.49,1A5.37,5.37,0,0,0,128.91,27Z"/><path class="cls-2" d="M133.2,26.6a.74.74,0,0,1,.19-.57.65.65,0,0,1,.48-.18.64.64,0,0,1,.47.19.73.73,0,0,1,.2.56.78.78,0,0,1-.2.58.67.67,0,0,1-.47.18.65.65,0,0,1-.48-.18A.78.78,0,0,1,133.2,26.6Zm1.23,9.53h-1.14v-7.5h1.14Z"/><path class="cls-2" d="M139.25,35.33a3.58,3.58,0,0,0,.58,0l.45-.09v.87a2.22,2.22,0,0,1-.55.15,5.27,5.27,0,0,1-.64,0c-1.45,0-2.18-.76-2.18-2.29V29.52h-1.07V29l1.07-.47.48-1.6h.66v1.73h2.17v.89h-2.17v4.41a1.51,1.51,0,0,0,.32,1A1.09,1.09,0,0,0,139.25,35.33Z"/><path class="cls-2" d="M141.68,26.6a.74.74,0,0,1,.19-.57.68.68,0,0,1,.48-.18.64.64,0,0,1,.47.19.73.73,0,0,1,.2.56.78.78,0,0,1-.2.58.67.67,0,0,1-.47.18.68.68,0,0,1-.48-.18A.78.78,0,0,1,141.68,26.6Zm1.23,9.53h-1.14v-7.5h1.14Z"/><path class="cls-2" d="M148.48,36.26a3.41,3.41,0,0,1-2.62-1,3.91,3.91,0,0,1-1-2.81,4.39,4.39,0,0,1,.89-2.88,3,3,0,0,1,2.4-1.06,2.85,2.85,0,0,1,2.23.92,3.61,3.61,0,0,1,.82,2.45v.72h-5.17a3,3,0,0,0,.67,2,2.33,2.33,0,0,0,1.78.68,6.1,6.1,0,0,0,2.39-.5v1a5.93,5.93,0,0,1-1.13.37A6.12,6.12,0,0,1,148.48,36.26Zm-.31-6.81a1.84,1.84,0,0,0-1.44.59,2.78,2.78,0,0,0-.63,1.62H150a2.49,2.49,0,0,0-.48-1.64A1.68,1.68,0,0,0,148.17,29.45Z"/><path class="cls-2" d="M158,34.08a1.89,1.89,0,0,1-.78,1.62,3.7,3.7,0,0,1-2.18.56,4.71,4.71,0,0,1-2.33-.47v-1a6.16,6.16,0,0,0,1.16.43,5.07,5.07,0,0,0,1.19.16,2.69,2.69,0,0,0,1.37-.29.93.93,0,0,0,.48-.86,1,1,0,0,0-.38-.75,5.83,5.83,0,0,0-1.48-.73,8.47,8.47,0,0,1-1.49-.68,2.14,2.14,0,0,1-.65-.66,1.81,1.81,0,0,1,.53-2.33,3.41,3.41,0,0,1,2-.53,6,6,0,0,1,2.37.49l-.41.92a5.39,5.39,0,0,0-2-.46,2.36,2.36,0,0,0-1.22.25.83.83,0,0,0-.25,1.21,1.37,1.37,0,0,0,.49.4,10.73,10.73,0,0,0,1.31.56,4.93,4.93,0,0,1,1.81,1A1.71,1.71,0,0,1,158,34.08Z"/><path class="cls-3" d="M156.78,84.88V82.09a1.11,1.11,0,0,0-.22-.76.83.83,0,0,0-.67-.26,1.1,1.1,0,0,0-.9.35,1.67,1.67,0,0,0-.29,1.07v2.39h-.65V82.09a1.11,1.11,0,0,0-.22-.76.84.84,0,0,0-.68-.26,1,1,0,0,0-.89.37,2,2,0,0,0-.28,1.19v2.25h-.65V80.6h.52l.11.58h0a1.27,1.27,0,0,1,.52-.48,1.54,1.54,0,0,1,.75-.18,1.27,1.27,0,0,1,1.31.73h0a1.34,1.34,0,0,1,.55-.53,1.65,1.65,0,0,1,.83-.2,1.44,1.44,0,0,1,1.09.37,1.69,1.69,0,0,1,.36,1.2v2.79Z"/><path class="cls-3" d="M161.4,84.88l-.13-.61h0a1.71,1.71,0,0,1-.64.54,1.86,1.86,0,0,1-.79.15,1.42,1.42,0,0,1-1-.33,1.2,1.2,0,0,1-.36-.93c0-.87.69-1.32,2.07-1.36l.73,0v-.26a1.07,1.07,0,0,0-.22-.75.87.87,0,0,0-.69-.24,2.8,2.8,0,0,0-1.21.33l-.2-.5a3,3,0,0,1,.69-.26,2.78,2.78,0,0,1,.76-.1,1.59,1.59,0,0,1,1.13.34,1.4,1.4,0,0,1,.37,1.09v2.92Zm-1.46-.46a1.32,1.32,0,0,0,.95-.33,1.22,1.22,0,0,0,.34-.93v-.39l-.65,0a2.41,2.41,0,0,0-1.11.24.71.71,0,0,0-.34.66.67.67,0,0,0,.21.54A.9.9,0,0,0,159.94,84.42Z"/><path class="cls-3" d="M163.87,84.88h-.65V78.8h.65Z"/><path class="cls-3" d="M165.89,84.88h-.65V78.8h.65Z"/><path class="cls-3" d="M170,83.71a1.06,1.06,0,0,1-.45.92,2.06,2.06,0,0,1-1.25.33,2.72,2.72,0,0,1-1.33-.27v-.6a3.71,3.71,0,0,0,.66.24,2.84,2.84,0,0,0,.69.09,1.56,1.56,0,0,0,.78-.16.53.53,0,0,0,.27-.49.53.53,0,0,0-.22-.43,3.15,3.15,0,0,0-.84-.42,4.75,4.75,0,0,1-.85-.39,1.25,1.25,0,0,1-.38-.38,1,1,0,0,1-.12-.5,1,1,0,0,1,.43-.83,2,2,0,0,1,1.16-.3,3.38,3.38,0,0,1,1.36.28l-.23.53a3.07,3.07,0,0,0-1.17-.27,1.32,1.32,0,0,0-.7.15.45.45,0,0,0-.23.4.48.48,0,0,0,.09.29.75.75,0,0,0,.28.23,7.06,7.06,0,0,0,.75.32,2.85,2.85,0,0,1,1,.55A1,1,0,0,1,170,83.71Z"/><path class="cls-3" d="M173.1,79.44a.45.45,0,0,1,.11-.33.4.4,0,0,1,.28-.1.39.39,0,0,1,.27.1.45.45,0,0,1,.11.33.44.44,0,0,1-.11.32.36.36,0,0,1-.27.11.37.37,0,0,1-.28-.11A.44.44,0,0,1,173.1,79.44Zm.71,5.44h-.65V80.6h.65Z"/><path class="cls-3" d="M178.11,84.88V82.11a1.1,1.1,0,0,0-.24-.78,1,1,0,0,0-.74-.26,1.25,1.25,0,0,0-1,.36,1.86,1.86,0,0,0-.31,1.2v2.25h-.65V80.6h.53l.1.58h0a1.31,1.31,0,0,1,.55-.49,1.92,1.92,0,0,1,.81-.17,1.36,1.36,0,0,1,1.55,1.57v2.79Z"/><path class="cls-3" d="M183.55,84.42l.34,0,.25-.06v.5a1.23,1.23,0,0,1-.31.08,1.73,1.73,0,0,1-.37,0c-.83,0-1.24-.44-1.24-1.31V81.1h-.62v-.31l.62-.27.27-.91h.38v1h1.24v.5h-1.24v2.52a.9.9,0,0,0,.18.6A.65.65,0,0,0,183.55,84.42Z"/><path class="cls-3" d="M187.92,84.88V82.11a1.15,1.15,0,0,0-.23-.78,1,1,0,0,0-.75-.26,1.22,1.22,0,0,0-1,.37,1.88,1.88,0,0,0-.31,1.2v2.24H185V78.8h.65v1.84a4.11,4.11,0,0,1,0,.55h0a1.29,1.29,0,0,1,.55-.48,1.71,1.71,0,0,1,.8-.18,1.64,1.64,0,0,1,1.18.37,1.58,1.58,0,0,1,.39,1.19v2.79Z"/><path class="cls-3" d="M191.71,85a2,2,0,0,1-1.49-.58,2.23,2.23,0,0,1-.55-1.61,2.48,2.48,0,0,1,.51-1.64,1.68,1.68,0,0,1,1.37-.61,1.62,1.62,0,0,1,1.27.53,2,2,0,0,1,.47,1.4v.41h-2.95a1.68,1.68,0,0,0,.38,1.14,1.32,1.32,0,0,0,1,.39,3.46,3.46,0,0,0,1.36-.29v.58a3.06,3.06,0,0,1-.65.21A3.15,3.15,0,0,1,191.71,85Zm-.17-3.9a1,1,0,0,0-.82.34,1.52,1.52,0,0,0-.37.93h2.24a1.44,1.44,0,0,0-.27-.94A1,1,0,0,0,191.54,81.06Z"/><path class="cls-3" d="M155.05,89.83a1.6,1.6,0,0,1-.6,1.34,2.68,2.68,0,0,1-1.69.46h-.67v2.25h-.67V88.17h1.48C154.33,88.17,155.05,88.72,155.05,89.83Zm-3,1.23h.6a2.21,2.21,0,0,0,1.27-.28,1,1,0,0,0,.4-.92A1,1,0,0,0,154,89a1.93,1.93,0,0,0-1.16-.28h-.74Z"/><path class="cls-3" d="M159.07,93.88V91.11a1.1,1.1,0,0,0-.24-.78,1,1,0,0,0-.74-.26,1.22,1.22,0,0,0-1,.37,1.82,1.82,0,0,0-.31,1.2v2.24h-.65V87.8h.65v1.84a4.11,4.11,0,0,1,0,.55h0a1.33,1.33,0,0,1,.54-.48,1.79,1.79,0,0,1,.81-.18,1.65,1.65,0,0,1,1.18.37,1.58,1.58,0,0,1,.39,1.19v2.79Z"/><path class="cls-3" d="M161,88.44a.41.41,0,0,1,.11-.33.36.36,0,0,1,.27-.1.39.39,0,0,1,.27.1.41.41,0,0,1,.11.33.4.4,0,0,1-.11.32.36.36,0,0,1-.27.11.33.33,0,0,1-.27-.11A.4.4,0,0,1,161,88.44Zm.7,5.44h-.65V89.6h.65Z"/><path class="cls-3" d="M163.73,93.88h-.65V87.8h.65Z"/><path class="cls-3" d="M165.05,88.44a.45.45,0,0,1,.1-.33.4.4,0,0,1,.28-.1.39.39,0,0,1,.27.1.45.45,0,0,1,.11.33.44.44,0,0,1-.11.32.36.36,0,0,1-.27.11.37.37,0,0,1-.28-.11A.44.44,0,0,1,165.05,88.44Zm.7,5.44h-.65V89.6h.65Z"/><path class="cls-3" d="M169.12,94a1.77,1.77,0,0,1-.77-.16,1.46,1.46,0,0,1-.58-.47h0a6,6,0,0,1,0,.71V95.8h-.65V89.6h.53l.09.58h0a1.51,1.51,0,0,1,.58-.5,1.71,1.71,0,0,1,.77-.16,1.58,1.58,0,0,1,1.31.58,2.55,2.55,0,0,1,.46,1.63,2.5,2.5,0,0,1-.47,1.64A1.58,1.58,0,0,1,169.12,94Zm-.1-3.89a1.16,1.16,0,0,0-1,.36,2,2,0,0,0-.3,1.16v.14a2.16,2.16,0,0,0,.3,1.3,1.14,1.14,0,0,0,1,.38,1,1,0,0,0,.87-.44,2.15,2.15,0,0,0,.31-1.24,2,2,0,0,0-.31-1.23A1,1,0,0,0,169,90.07Z"/><path class="cls-3" d="M174,94a1.77,1.77,0,0,1-.77-.16,1.46,1.46,0,0,1-.58-.47h0a6,6,0,0,1,0,.71V95.8H172V89.6h.52l.09.58h0a1.47,1.47,0,0,1,.59-.5,1.67,1.67,0,0,1,.76-.16,1.57,1.57,0,0,1,1.31.58,2.55,2.55,0,0,1,.47,1.63,2.51,2.51,0,0,1-.48,1.64A1.58,1.58,0,0,1,174,94Zm-.1-3.89a1.14,1.14,0,0,0-.94.36,1.89,1.89,0,0,0-.31,1.16v.14A2.09,2.09,0,0,0,173,93a1.13,1.13,0,0,0,1,.38,1,1,0,0,0,.87-.44,2.15,2.15,0,0,0,.31-1.24,2,2,0,0,0-.31-1.23A1,1,0,0,0,173.92,90.07Z"/><path class="cls-3" d="M176.87,88.44a.45.45,0,0,1,.11-.33.4.4,0,0,1,.28-.1.39.39,0,0,1,.27.1.45.45,0,0,1,.11.33.44.44,0,0,1-.11.32.36.36,0,0,1-.27.11.37.37,0,0,1-.28-.11A.44.44,0,0,1,176.87,88.44Zm.71,5.44h-.65V89.6h.65Z"/><path class="cls-3" d="M181.88,93.88V91.11a1.1,1.1,0,0,0-.24-.78,1,1,0,0,0-.74-.26,1.25,1.25,0,0,0-1,.36,1.86,1.86,0,0,0-.31,1.2v2.25H179V89.6h.53l.1.58h0a1.31,1.31,0,0,1,.55-.49,1.92,1.92,0,0,1,.81-.17,1.36,1.36,0,0,1,1.55,1.57v2.79Z"/><path class="cls-3" d="M185.67,94a2,2,0,0,1-1.5-.58,2.28,2.28,0,0,1-.55-1.61,2.48,2.48,0,0,1,.51-1.64,1.69,1.69,0,0,1,1.37-.61,1.64,1.64,0,0,1,1.28.53,2,2,0,0,1,.46,1.4v.41H184.3a1.63,1.63,0,0,0,.38,1.14,1.31,1.31,0,0,0,1,.39,3.51,3.51,0,0,0,1.37-.29v.58a3.25,3.25,0,0,1-.65.21A3.15,3.15,0,0,1,185.67,94Zm-.18-3.9a1.05,1.05,0,0,0-.82.34,1.58,1.58,0,0,0-.36.93h2.24a1.44,1.44,0,0,0-.27-.94A1,1,0,0,0,185.49,90.06Z"/><path class="cls-3" d="M191.11,92.71a1.07,1.07,0,0,1-.44.92,2.09,2.09,0,0,1-1.25.33,2.72,2.72,0,0,1-1.33-.27v-.6a3.21,3.21,0,0,0,.66.24,2.77,2.77,0,0,0,.68.09,1.51,1.51,0,0,0,.78-.16.54.54,0,0,0,.28-.49.55.55,0,0,0-.22-.43,3.26,3.26,0,0,0-.85-.42,5.12,5.12,0,0,1-.85-.39,1.21,1.21,0,0,1-.37-.38,1,1,0,0,1-.12-.5,1,1,0,0,1,.42-.83,2,2,0,0,1,1.17-.3,3.37,3.37,0,0,1,1.35.28l-.23.53a3.07,3.07,0,0,0-1.17-.27,1.29,1.29,0,0,0-.69.15.44.44,0,0,0-.24.4.48.48,0,0,0,.09.29.84.84,0,0,0,.28.23,7.06,7.06,0,0,0,.75.32,2.76,2.76,0,0,1,1,.55A1,1,0,0,1,191.11,92.71Z"/><path class="cls-1" d="M154.36,75.76l7.39-16H152V57.91H163.9v1.62l-7.3,16.23Z"/><path class="cls-1" d="M179,71.65h-2.65v4.11h-1.94V71.65H165.7V69.88l8.47-12.07h2.15v12H179Zm-4.59-1.84V63.88c0-1.17,0-2.48.12-3.94h-.1a19.44,19.44,0,0,1-1.1,1.94l-5.58,7.93Z"/><path class="cls-3" d="M211,80a.45.45,0,0,1,.11-.33.41.41,0,0,1,.55,0,.43.43,0,0,1,.11.32.47.47,0,0,1-.11.33.39.39,0,0,1-.27.1.4.4,0,0,1-.28-.1A.47.47,0,0,1,211,80Zm.71,5.44H211V81.2h.65Z"/><path class="cls-3" d="M216,85.48V82.71a1.1,1.1,0,0,0-.24-.78,1,1,0,0,0-.74-.26,1.22,1.22,0,0,0-1,.37,1.82,1.82,0,0,0-.31,1.2v2.24h-.65V81.2h.53l.11.59h0a1.28,1.28,0,0,1,.56-.49,1.71,1.71,0,0,1,.8-.18,1.62,1.62,0,0,1,1.16.38,1.56,1.56,0,0,1,.39,1.19v2.79Z"/><path class="cls-3" d="M219.36,85a1.83,1.83,0,0,0,.33,0l.25,0v.49a1.17,1.17,0,0,1-.31.09l-.37,0c-.83,0-1.24-.44-1.24-1.31V81.7h-.61v-.31l.61-.27.27-.91h.38v1h1.24v.5h-1.24v2.52a.9.9,0,0,0,.18.6A.63.63,0,0,0,219.36,85Z"/><path class="cls-3" d="M222.61,85.56a1.94,1.94,0,0,1-1.5-.58,2.21,2.21,0,0,1-.55-1.6,2.5,2.5,0,0,1,.51-1.65,1.7,1.7,0,0,1,1.37-.61,1.62,1.62,0,0,1,1.27.53,2,2,0,0,1,.47,1.4v.41h-3a1.68,1.68,0,0,0,.38,1.14,1.32,1.32,0,0,0,1,.39A3.34,3.34,0,0,0,224,84.7v.58a4.16,4.16,0,0,1-.65.22A4,4,0,0,1,222.61,85.56Zm-.18-3.89a1.06,1.06,0,0,0-.82.33,1.48,1.48,0,0,0-.36.93h2.23a1.44,1.44,0,0,0-.27-.94A.94.94,0,0,0,222.43,81.67Z"/><path class="cls-3" d="M228.79,81.2v.41l-.79.09a1.71,1.71,0,0,1,.19.36,1.31,1.31,0,0,1,.09.5,1.28,1.28,0,0,1-.43,1,1.74,1.74,0,0,1-1.18.38,2,2,0,0,1-.36,0,.63.63,0,0,0-.42.55.28.28,0,0,0,.15.26,1.17,1.17,0,0,0,.5.08h.75a1.73,1.73,0,0,1,1.07.29,1,1,0,0,1,.37.86,1.22,1.22,0,0,1-.57,1.08,3,3,0,0,1-1.66.37,2.24,2.24,0,0,1-1.29-.31,1.06,1.06,0,0,1-.21-1.56,1.23,1.23,0,0,1,.7-.38.67.67,0,0,1-.27-.23.6.6,0,0,1-.11-.37.73.73,0,0,1,.12-.41,1.27,1.27,0,0,1,.4-.34,1.05,1.05,0,0,1-.54-.46,1.37,1.37,0,0,1-.21-.75,1.41,1.41,0,0,1,.42-1.09,1.73,1.73,0,0,1,1.19-.38,2.25,2.25,0,0,1,.61.08Zm-3.41,5a.58.58,0,0,0,.29.53,1.59,1.59,0,0,0,.84.18,2.28,2.28,0,0,0,1.21-.25.74.74,0,0,0,.39-.66.51.51,0,0,0-.22-.48,1.62,1.62,0,0,0-.8-.14h-.78a1,1,0,0,0-.69.21A.79.79,0,0,0,225.38,86.2Zm.35-3.63a.86.86,0,0,0,.25.68,1,1,0,0,0,.71.23.83.83,0,0,0,.95-.92.86.86,0,0,0-1-1,1,1,0,0,0-.71.25A1,1,0,0,0,225.73,82.57Z"/><path class="cls-3" d="M231.62,81.12a2.59,2.59,0,0,1,.51,0l-.09.6a2.09,2.09,0,0,0-.47-.06,1.13,1.13,0,0,0-.88.42,1.55,1.55,0,0,0-.37,1.05v2.3h-.65V81.2h.53l.08.79h0a1.89,1.89,0,0,1,.57-.64A1.32,1.32,0,0,1,231.62,81.12Z"/><path class="cls-3" d="M235.57,85.48l-.13-.61h0a1.94,1.94,0,0,1-.64.55,2,2,0,0,1-.8.14,1.41,1.41,0,0,1-1-.33,1.17,1.17,0,0,1-.37-.93c0-.87.7-1.32,2.08-1.36l.72,0v-.27a1.09,1.09,0,0,0-.21-.74.91.91,0,0,0-.7-.24,2.8,2.8,0,0,0-1.21.32l-.2-.49a2.82,2.82,0,0,1,.7-.27,2.76,2.76,0,0,1,.75-.1,1.64,1.64,0,0,1,1.14.34,1.45,1.45,0,0,1,.37,1.09v2.92ZM234.1,85a1.31,1.31,0,0,0,1-.33,1.23,1.23,0,0,0,.35-.93v-.38l-.65,0a2.34,2.34,0,0,0-1.11.24.75.75,0,0,0-.35.67.64.64,0,0,0,.22.53A.89.89,0,0,0,234.1,85Z"/><path class="cls-3" d="M238.77,85a1.83,1.83,0,0,0,.33,0l.25,0v.49a1.17,1.17,0,0,1-.31.09l-.37,0c-.83,0-1.24-.44-1.24-1.31V81.7h-.61v-.31l.61-.27.27-.91h.38v1h1.24v.5h-1.24v2.52a.9.9,0,0,0,.18.6A.63.63,0,0,0,238.77,85Z"/><path class="cls-3" d="M242,85.56a1.94,1.94,0,0,1-1.5-.58,2.21,2.21,0,0,1-.55-1.6,2.5,2.5,0,0,1,.51-1.65,1.7,1.7,0,0,1,1.37-.61,1.62,1.62,0,0,1,1.27.53,2,2,0,0,1,.47,1.4v.41h-3A1.68,1.68,0,0,0,241,84.6a1.32,1.32,0,0,0,1,.39,3.34,3.34,0,0,0,1.37-.29v.58a4.16,4.16,0,0,1-.65.22A4,4,0,0,1,242,85.56Zm-.18-3.89A1.06,1.06,0,0,0,241,82a1.48,1.48,0,0,0-.36.93h2.23a1.44,1.44,0,0,0-.27-.94A.94.94,0,0,0,241.84,81.67Z"/><path class="cls-3" d="M247.61,84.91h0a1.52,1.52,0,0,1-1.34.65,1.6,1.6,0,0,1-1.31-.57,2.56,2.56,0,0,1-.46-1.64,2.52,2.52,0,0,1,.47-1.64,1.73,1.73,0,0,1,2.64,0h.05l0-.3,0-.3V79.4h.65v6.08h-.52Zm-1.3.11a1.19,1.19,0,0,0,1-.36,1.85,1.85,0,0,0,.29-1.17v-.14a2.18,2.18,0,0,0-.3-1.3,1.13,1.13,0,0,0-1-.38,1,1,0,0,0-.88.44,2.2,2.2,0,0,0-.3,1.25,2.12,2.12,0,0,0,.3,1.24A1,1,0,0,0,246.31,85Z"/><path class="cls-3" d="M211.69,94.48H211V88.4h.65Z"/><path class="cls-3" d="M213,89a.41.41,0,0,1,.11-.33.36.36,0,0,1,.27-.1.4.4,0,0,1,.27.11.39.39,0,0,1,.11.32.43.43,0,0,1-.11.33.39.39,0,0,1-.27.1.36.36,0,0,1-.27-.1A.43.43,0,0,1,213,89Zm.7,5.44h-.65V90.2h.65Z"/><path class="cls-3" d="M217,90.7h-1.09v3.78h-.65V90.7h-.77v-.29l.77-.23v-.24c0-1,.46-1.58,1.38-1.58a2.87,2.87,0,0,1,.79.14l-.16.52a2.2,2.2,0,0,0-.65-.12.63.63,0,0,0-.54.24,1.33,1.33,0,0,0-.17.78v.28H217Z"/><path class="cls-3" d="M219.61,94.56a1.94,1.94,0,0,1-1.5-.58,2.21,2.21,0,0,1-.55-1.6,2.5,2.5,0,0,1,.51-1.65,1.7,1.7,0,0,1,1.37-.61,1.62,1.62,0,0,1,1.27.53,2,2,0,0,1,.47,1.4v.41h-3a1.68,1.68,0,0,0,.38,1.14,1.32,1.32,0,0,0,1,.39A3.34,3.34,0,0,0,221,93.7v.58a4.16,4.16,0,0,1-.65.22A4,4,0,0,1,219.61,94.56Zm-.18-3.89a1.06,1.06,0,0,0-.82.33,1.48,1.48,0,0,0-.36.93h2.23a1.44,1.44,0,0,0-.27-.94A.94.94,0,0,0,219.43,90.67Z"/><path class="cls-3" d="M225.05,93.31a1.09,1.09,0,0,1-.45.93,2.12,2.12,0,0,1-1.25.32,2.72,2.72,0,0,1-1.33-.27v-.6a3.54,3.54,0,0,0,.67.24,2.71,2.71,0,0,0,.68.09,1.51,1.51,0,0,0,.78-.16.53.53,0,0,0,.27-.49.54.54,0,0,0-.21-.43,3.44,3.44,0,0,0-.85-.42,4.75,4.75,0,0,1-.85-.39,1,1,0,0,1-.37-.38.89.89,0,0,1-.13-.5,1,1,0,0,1,.43-.83,2,2,0,0,1,1.17-.3,3.55,3.55,0,0,1,1.35.28l-.23.53a3,3,0,0,0-1.17-.26,1.33,1.33,0,0,0-.7.14.46.46,0,0,0-.23.4.48.48,0,0,0,.09.29.84.84,0,0,0,.28.23,7.06,7.06,0,0,0,.75.32,2.69,2.69,0,0,1,1,.56A1,1,0,0,1,225.05,93.31Z"/><path class="cls-3" d="M227.48,94a1.88,1.88,0,0,0,.34,0l.25,0v.49a1.17,1.17,0,0,1-.31.09l-.37,0c-.83,0-1.24-.44-1.24-1.31V90.7h-.61v-.31l.61-.27.27-.91h.38v1H228v.5H226.8v2.52a.9.9,0,0,0,.18.6A.62.62,0,0,0,227.48,94Z"/><path class="cls-3" d="M228.25,90.2h.69l.94,2.44a10.25,10.25,0,0,1,.38,1.21h0c0-.13.11-.36.22-.68s.46-1.31,1.06-3h.69l-1.84,4.88a2.33,2.33,0,0,1-.64,1,1.35,1.35,0,0,1-.89.3,2.88,2.88,0,0,1-.59-.06v-.52a2.33,2.33,0,0,0,.48,0,1,1,0,0,0,.95-.75l.24-.61Z"/><path class="cls-3" d="M233.61,94.48H233V88.4h.65Z"/><path class="cls-3" d="M236.79,94.56a2,2,0,0,1-1.5-.58,2.25,2.25,0,0,1-.55-1.6,2.5,2.5,0,0,1,.51-1.65,1.72,1.72,0,0,1,1.37-.61,1.61,1.61,0,0,1,1.27.53,2,2,0,0,1,.47,1.4v.41h-3a1.68,1.68,0,0,0,.39,1.14,1.31,1.31,0,0,0,1,.39,3.34,3.34,0,0,0,1.37-.29v.58a4.16,4.16,0,0,1-.65.22A4,4,0,0,1,236.79,94.56Zm-.18-3.89a1.08,1.08,0,0,0-.82.33,1.61,1.61,0,0,0-.36.93h2.24a1.39,1.39,0,0,0-.28-.94A.94.94,0,0,0,236.61,90.67Z"/><path class="cls-3" d="M243.26,94.56a1.83,1.83,0,0,1-1.44-.57,2.35,2.35,0,0,1-.51-1.62,2.39,2.39,0,0,1,.52-1.66,1.85,1.85,0,0,1,1.47-.59,2.62,2.62,0,0,1,.62.07,1.82,1.82,0,0,1,.48.15l-.2.56a2.88,2.88,0,0,0-.47-.15,2.58,2.58,0,0,0-.44,0c-.87,0-1.31.55-1.31,1.66a2,2,0,0,0,.32,1.21,1.11,1.11,0,0,0,.94.42,2.75,2.75,0,0,0,1.1-.23v.58A2.34,2.34,0,0,1,243.26,94.56Z"/><path class="cls-3" d="M245.3,89a.45.45,0,0,1,.11-.33.36.36,0,0,1,.27-.1.37.37,0,0,1,.27.11.39.39,0,0,1,.12.32.43.43,0,0,1-.12.33.41.41,0,0,1-.54,0A.47.47,0,0,1,245.3,89Zm.7,5.44h-.64V90.2H246Z"/><path class="cls-3" d="M248.76,94a1.72,1.72,0,0,0,.33,0l.26,0v.49a1.3,1.3,0,0,1-.31.09l-.37,0c-.83,0-1.24-.44-1.24-1.31V90.7h-.62v-.31l.62-.27.27-.91h.37v1h1.25v.5h-1.25v2.52a.9.9,0,0,0,.19.6A.62.62,0,0,0,248.76,94Z"/><path class="cls-3" d="M250.15,89a.41.41,0,0,1,.11-.33.36.36,0,0,1,.27-.1.37.37,0,0,1,.27.11.39.39,0,0,1,.11.32.43.43,0,0,1-.11.33.41.41,0,0,1-.54,0A.43.43,0,0,1,250.15,89Zm.7,5.44h-.65V90.2h.65Z"/><path class="cls-3" d="M254,94.56a1.94,1.94,0,0,1-1.5-.58,2.21,2.21,0,0,1-.55-1.6,2.5,2.5,0,0,1,.51-1.65,1.7,1.7,0,0,1,1.37-.61,1.62,1.62,0,0,1,1.27.53,2,2,0,0,1,.47,1.4v.41h-3A1.68,1.68,0,0,0,253,93.6a1.32,1.32,0,0,0,1,.39,3.34,3.34,0,0,0,1.37-.29v.58a4.16,4.16,0,0,1-.65.22A4,4,0,0,1,254,94.56Zm-.18-3.89A1.06,1.06,0,0,0,253,91a1.48,1.48,0,0,0-.36.93h2.23a1.44,1.44,0,0,0-.27-.94A.94.94,0,0,0,253.86,90.67Z"/><path class="cls-3" d="M259.48,93.31a1.09,1.09,0,0,1-.45.93,2.14,2.14,0,0,1-1.25.32,2.72,2.72,0,0,1-1.33-.27v-.6a3.54,3.54,0,0,0,.67.24,2.71,2.71,0,0,0,.68.09,1.51,1.51,0,0,0,.78-.16.53.53,0,0,0,.27-.49.54.54,0,0,0-.21-.43,3.44,3.44,0,0,0-.85-.42,4.75,4.75,0,0,1-.85-.39,1.15,1.15,0,0,1-.38-.38,1,1,0,0,1,.31-1.33,2,2,0,0,1,1.17-.3,3.55,3.55,0,0,1,1.35.28l-.23.53a3,3,0,0,0-1.17-.26,1.33,1.33,0,0,0-.7.14.46.46,0,0,0-.23.4.48.48,0,0,0,.09.29.84.84,0,0,0,.28.23,7.06,7.06,0,0,0,.75.32,2.69,2.69,0,0,1,1,.56A1,1,0,0,1,259.48,93.31Z"/><path class="cls-3" d="M213,99.13a1.58,1.58,0,0,1,1.31.58,2.51,2.51,0,0,1,.47,1.63,2.58,2.58,0,0,1-.47,1.64,1.62,1.62,0,0,1-1.31.58,1.87,1.87,0,0,1-.76-.15,1.5,1.5,0,0,1-.58-.48h-.05l-.14.55H211V97.4h.65v1.48c0,.33,0,.63,0,.89h0A1.53,1.53,0,0,1,213,99.13Zm-.09.54a1.15,1.15,0,0,0-1,.38,2.23,2.23,0,0,0-.29,1.29,2.15,2.15,0,0,0,.3,1.29,1.13,1.13,0,0,0,1,.39,1,1,0,0,0,.89-.44,2.2,2.2,0,0,0,.3-1.25,2.13,2.13,0,0,0-.3-1.25A1,1,0,0,0,212.94,99.67Z"/><path class="cls-3" d="M216.55,99.2V102a1.1,1.1,0,0,0,.24.78,1,1,0,0,0,.75.26,1.24,1.24,0,0,0,1-.37,1.86,1.86,0,0,0,.31-1.2V99.2h.65v4.28h-.54l-.09-.57h0a1.23,1.23,0,0,1-.55.48,1.89,1.89,0,0,1-.81.17,1.63,1.63,0,0,1-1.17-.37,1.58,1.58,0,0,1-.39-1.19V99.2Z"/><path class="cls-3" d="M220.8,98a.41.41,0,0,1,.11-.33.36.36,0,0,1,.27-.1.4.4,0,0,1,.27.11.43.43,0,0,1,.11.32.47.47,0,0,1-.11.33.39.39,0,0,1-.27.1.36.36,0,0,1-.27-.1A.43.43,0,0,1,220.8,98Zm.7,5.44h-.65V99.2h.65Z"/><path class="cls-3" d="M223.52,103.48h-.64V97.4h.64Z"/><path class="cls-3" d="M226.28,103a1.72,1.72,0,0,0,.33,0l.26,0v.49a1.3,1.3,0,0,1-.31.09l-.37,0c-.83,0-1.24-.44-1.24-1.31V99.7h-.62v-.31l.62-.27.27-.91h.37v1h1.25v.5h-1.25v2.52a.85.85,0,0,0,.19.6A.62.62,0,0,0,226.28,103Z"/><path class="cls-1" d="M217.32,64.34a6.54,6.54,0,0,1,4.43,1.4,4.79,4.79,0,0,1,1.62,3.83,5.54,5.54,0,0,1-1.76,4.34,7.06,7.06,0,0,1-4.87,1.58,8.87,8.87,0,0,1-4.6-1v-2a7,7,0,0,0,2.13.86,10.31,10.31,0,0,0,2.5.31,5,5,0,0,0,3.34-1,3.65,3.65,0,0,0,1.19-2.93q0-3.73-4.58-3.74a17.92,17.92,0,0,0-3.1.36l-1.05-.67.67-8.35h8.87v1.86H215l-.45,5.36A14.85,14.85,0,0,1,217.32,64.34Z"/><path class="cls-3" d="M99.47,81.1a2.59,2.59,0,0,1,.51.05l-.09.6a2.16,2.16,0,0,0-.47-.06,1.15,1.15,0,0,0-.89.42,1.56,1.56,0,0,0-.37,1.06v2.29h-.65V81.18h.54l.07.79h0a1.9,1.9,0,0,1,.58-.64A1.3,1.3,0,0,1,99.47,81.1Z"/><path class="cls-3" d="M102.59,85.54a2,2,0,0,1-1.5-.58,2.21,2.21,0,0,1-.55-1.6,2.5,2.5,0,0,1,.51-1.65,1.72,1.72,0,0,1,1.37-.61,1.61,1.61,0,0,1,1.27.53,2,2,0,0,1,.47,1.4v.41h-3a1.73,1.73,0,0,0,.38,1.14,1.32,1.32,0,0,0,1,.39,3.5,3.5,0,0,0,1.37-.28v.57a4.16,4.16,0,0,1-.65.22A4,4,0,0,1,102.59,85.54Zm-.18-3.89a1.06,1.06,0,0,0-.82.33,1.57,1.57,0,0,0-.36.93h2.24a1.39,1.39,0,0,0-.28-.94A.94.94,0,0,0,102.41,81.65Z"/><path class="cls-3" d="M108,84.29a1.09,1.09,0,0,1-.45.93,2.12,2.12,0,0,1-1.25.32,2.68,2.68,0,0,1-1.32-.27v-.6a3.23,3.23,0,0,0,.66.25,2.71,2.71,0,0,0,.68.09,1.5,1.5,0,0,0,.78-.17.52.52,0,0,0,.27-.49.54.54,0,0,0-.21-.43,3.44,3.44,0,0,0-.85-.42,4.75,4.75,0,0,1-.85-.39,1.09,1.09,0,0,1-.37-.37.92.92,0,0,1-.13-.51,1,1,0,0,1,.43-.82,1.91,1.91,0,0,1,1.17-.31,3.55,3.55,0,0,1,1.35.28l-.23.53a3,3,0,0,0-1.17-.26,1.27,1.27,0,0,0-.69.14.45.45,0,0,0-.24.4.48.48,0,0,0,.09.29.84.84,0,0,0,.28.23,5.4,5.4,0,0,0,.75.32,2.69,2.69,0,0,1,1,.56A1,1,0,0,1,108,84.29Z"/><path class="cls-3" d="M109,80a.41.41,0,0,1,.11-.33.41.41,0,0,1,.27-.1.37.37,0,0,1,.27.11.39.39,0,0,1,.11.32.41.41,0,0,1-.11.33.41.41,0,0,1-.54,0A.41.41,0,0,1,109,80Zm.7,5.44h-.65V81.18h.65Z"/><path class="cls-3" d="M114,84.89h0a1.54,1.54,0,0,1-1.35.65,1.58,1.58,0,0,1-1.3-.57,3.1,3.1,0,0,1,0-3.28,1.72,1.72,0,0,1,2.64,0h0l0-.31V79.38h.64v6.08h-.52Zm-1.3.11a1.19,1.19,0,0,0,1-.36,1.82,1.82,0,0,0,.3-1.17v-.14a2.11,2.11,0,0,0-.31-1.3,1.16,1.16,0,0,0-1-.38,1,1,0,0,0-.88.44,2.2,2.2,0,0,0-.3,1.25,2.12,2.12,0,0,0,.3,1.24A1,1,0,0,0,112.72,85Z"/><path class="cls-3" d="M117.82,85.54a2,2,0,0,1-1.5-.58,2.21,2.21,0,0,1-.55-1.6,2.5,2.5,0,0,1,.51-1.65,1.72,1.72,0,0,1,1.37-.61,1.61,1.61,0,0,1,1.27.53,2,2,0,0,1,.47,1.4v.41h-3a1.73,1.73,0,0,0,.38,1.14,1.32,1.32,0,0,0,1,.39,3.5,3.5,0,0,0,1.37-.28v.57a4.16,4.16,0,0,1-.65.22A4,4,0,0,1,117.82,85.54Zm-.18-3.89a1.06,1.06,0,0,0-.82.33,1.57,1.57,0,0,0-.36.93h2.24a1.39,1.39,0,0,0-.28-.94A.94.94,0,0,0,117.64,81.65Z"/><path class="cls-3" d="M123.43,85.46V82.69a1.1,1.1,0,0,0-.24-.78,1,1,0,0,0-.75-.26,1.2,1.2,0,0,0-1,.37,1.82,1.82,0,0,0-.31,1.2v2.24h-.65V81.18H121l.11.59h0a1.28,1.28,0,0,1,.56-.49,1.77,1.77,0,0,1,.8-.18,1.6,1.6,0,0,1,1.16.38,1.53,1.53,0,0,1,.4,1.19v2.79Z"/><path class="cls-3" d="M126.79,85a1.76,1.76,0,0,0,.33,0l.26,0v.49a1,1,0,0,1-.31.09l-.37,0c-.83,0-1.25-.44-1.25-1.31V81.69h-.61v-.32l.61-.27.28-.91h.37v1h1.25v.51H126.1V84.2a.85.85,0,0,0,.19.6A.63.63,0,0,0,126.79,85Z"/><path class="cls-3" d="M128.18,80a.41.41,0,0,1,.11-.33.4.4,0,0,1,.54,0,.43.43,0,0,1,.11.32.45.45,0,0,1-.11.33.39.39,0,0,1-.27.1.36.36,0,0,1-.27-.1A.41.41,0,0,1,128.18,80Zm.7,5.44h-.65V81.18h.65Z"/><path class="cls-3" d="M132.89,85.46l-.13-.61h0a1.94,1.94,0,0,1-.64.55,2,2,0,0,1-.8.14,1.41,1.41,0,0,1-1-.33,1.2,1.2,0,0,1-.37-.93c0-.87.7-1.32,2.08-1.36l.73,0v-.27a1.09,1.09,0,0,0-.22-.74.9.9,0,0,0-.69-.24,3,3,0,0,0-1.22.32l-.19-.49a2.61,2.61,0,0,1,.69-.27,2.76,2.76,0,0,1,.75-.1,1.62,1.62,0,0,1,1.14.34,1.41,1.41,0,0,1,.37,1.09v2.92ZM131.42,85a1.31,1.31,0,0,0,1-.34,1.23,1.23,0,0,0,.35-.93v-.38l-.65,0a2.37,2.37,0,0,0-1.11.24.75.75,0,0,0-.35.67.67.67,0,0,0,.22.53A.89.89,0,0,0,131.42,85Z"/><path class="cls-3" d="M135.35,85.46h-.65V79.38h.65Z"/><path class="cls-3" d="M99.51,94.54a1.92,1.92,0,0,1-.77-.15,1.58,1.58,0,0,1-.58-.48h0a4.47,4.47,0,0,1,0,.71v1.76h-.65v-6.2H98l.09.59h0a1.46,1.46,0,0,1,.58-.51,1.89,1.89,0,0,1,.77-.16,1.59,1.59,0,0,1,1.31.59,3.11,3.11,0,0,1,0,3.27A1.57,1.57,0,0,1,99.51,94.54Zm-.1-3.89a1.13,1.13,0,0,0-1,.37,1.91,1.91,0,0,0-.3,1.15v.15a2.15,2.15,0,0,0,.3,1.29,1.14,1.14,0,0,0,1,.39,1,1,0,0,0,.87-.45,2.13,2.13,0,0,0,.31-1.24,2.07,2.07,0,0,0-.31-1.23A1.06,1.06,0,0,0,99.41,90.65Z"/><path class="cls-3" d="M104.37,90.1a2.59,2.59,0,0,1,.51.05l-.09.6a2.16,2.16,0,0,0-.47-.06,1.16,1.16,0,0,0-.89.42,1.61,1.61,0,0,0-.37,1.06v2.29h-.64V90.18H103L103,91h0a2,2,0,0,1,.57-.64A1.3,1.3,0,0,1,104.37,90.1Z"/><path class="cls-3" d="M109.38,92.32a2.35,2.35,0,0,1-.53,1.63,1.87,1.87,0,0,1-1.46.59,1.94,1.94,0,0,1-1-.27,1.92,1.92,0,0,1-.69-.77,2.73,2.73,0,0,1-.24-1.18,2.35,2.35,0,0,1,.53-1.63,2,2,0,0,1,2.88,0A2.38,2.38,0,0,1,109.38,92.32Zm-3.27,0a2,2,0,0,0,.33,1.25,1.3,1.3,0,0,0,1.93,0,2,2,0,0,0,.33-1.25,2,2,0,0,0-.33-1.24,1.31,1.31,0,0,0-1.93,0A2,2,0,0,0,106.11,92.32Z"/><path class="cls-3" d="M110,96.38a1.72,1.72,0,0,1-.6-.09v-.53a2,2,0,0,0,.53.08.55.55,0,0,0,.45-.17.73.73,0,0,0,.14-.5v-5h.65v4.94Q111.16,96.38,110,96.38Zm.47-7.36a.41.41,0,0,1,.11-.33.41.41,0,0,1,.27-.1.37.37,0,0,1,.27.11.39.39,0,0,1,.11.32.41.41,0,0,1-.11.33.41.41,0,0,1-.54,0A.41.41,0,0,1,110.46,89Z"/><path class="cls-3" d="M114.35,94.54a1.94,1.94,0,0,1-1.5-.58,2.21,2.21,0,0,1-.55-1.6,2.5,2.5,0,0,1,.51-1.65,1.7,1.7,0,0,1,1.37-.61,1.62,1.62,0,0,1,1.27.53,2.06,2.06,0,0,1,.47,1.4v.41h-3a1.68,1.68,0,0,0,.38,1.14,1.32,1.32,0,0,0,1,.39,3.5,3.5,0,0,0,1.37-.28v.57a4.16,4.16,0,0,1-.65.22A4,4,0,0,1,114.35,94.54Zm-.18-3.89a1.06,1.06,0,0,0-.82.33,1.51,1.51,0,0,0-.36.93h2.23A1.44,1.44,0,0,0,115,91,.94.94,0,0,0,114.17,90.65Z"/><path class="cls-3" d="M118.74,94.54A1.83,1.83,0,0,1,117.3,94a2.35,2.35,0,0,1-.51-1.62,2.44,2.44,0,0,1,.51-1.66,1.88,1.88,0,0,1,1.48-.59,2.68,2.68,0,0,1,.62.07,1.92,1.92,0,0,1,.48.16l-.2.55a2.88,2.88,0,0,0-.47-.15,2.68,2.68,0,0,0-.45,0c-.87,0-1.3.55-1.3,1.66a1.92,1.92,0,0,0,.32,1.21,1.1,1.1,0,0,0,.94.42,2.79,2.79,0,0,0,1.1-.23v.58A2.34,2.34,0,0,1,118.74,94.54Z"/><path class="cls-3" d="M122.22,94a1.84,1.84,0,0,0,.33,0l.25,0v.49a.89.89,0,0,1-.31.09l-.37,0c-.83,0-1.24-.44-1.24-1.31V90.69h-.61v-.32l.61-.27.27-.91h.38v1h1.24v.51h-1.24V93.2a.9.9,0,0,0,.18.6A.64.64,0,0,0,122.22,94Z"/><path class="cls-3" d="M126.42,93.29a1.09,1.09,0,0,1-.45.93,2.12,2.12,0,0,1-1.25.32,2.68,2.68,0,0,1-1.32-.27v-.6a3.23,3.23,0,0,0,.66.25,2.71,2.71,0,0,0,.68.09,1.5,1.5,0,0,0,.78-.17.52.52,0,0,0,.27-.49.54.54,0,0,0-.21-.43,3.44,3.44,0,0,0-.85-.42,4.75,4.75,0,0,1-.85-.39,1.09,1.09,0,0,1-.37-.37,1,1,0,0,1-.13-.51,1,1,0,0,1,.43-.82A1.91,1.91,0,0,1,125,90.1a3.55,3.55,0,0,1,1.35.28l-.23.53a3,3,0,0,0-1.17-.26,1.27,1.27,0,0,0-.69.14.45.45,0,0,0-.24.4.48.48,0,0,0,.09.29.84.84,0,0,0,.28.23,5.4,5.4,0,0,0,.75.32,2.69,2.69,0,0,1,1,.56A1,1,0,0,1,126.42,93.29Z"/><path class="cls-1" d="M98.38,75.76l7.4-16H96.05V57.91h11.88v1.62l-7.3,16.23Z"/><path class="cls-1" d="M122.25,66.81c0,3.08-.49,5.39-1.46,6.91A4.94,4.94,0,0,1,116.32,76a4.88,4.88,0,0,1-4.38-2.34q-1.5-2.34-1.5-6.85c0-3.11.49-5.42,1.45-6.92a5.4,5.4,0,0,1,8.85.09A12.78,12.78,0,0,1,122.25,66.81Zm-9.76,0a13.1,13.1,0,0,0,.92,5.67,3.29,3.29,0,0,0,5.85,0,13.09,13.09,0,0,0,.91-5.64,13.06,13.06,0,0,0-.91-5.64,3.3,3.3,0,0,0-5.85,0A13,13,0,0,0,112.49,66.81Z"/><path class="cls-3" d="M58.92,84.88V82.11a1.1,1.1,0,0,0-.24-.78,1,1,0,0,0-.75-.26,1.18,1.18,0,0,0-1,.37,1.82,1.82,0,0,0-.31,1.2v2.24H56V78.8h.65v1.84a3.9,3.9,0,0,1,0,.55h0a1.29,1.29,0,0,1,.55-.48,1.71,1.71,0,0,1,.8-.18,1.64,1.64,0,0,1,1.18.37,1.58,1.58,0,0,1,.39,1.19v2.79Z"/><path class="cls-3" d="M64.59,82.73a2.33,2.33,0,0,1-.53,1.64,1.85,1.85,0,0,1-1.45.59,1.94,1.94,0,0,1-1-.27,1.75,1.75,0,0,1-.69-.78,2.67,2.67,0,0,1-.24-1.18,2.36,2.36,0,0,1,.52-1.63,1.86,1.86,0,0,1,1.46-.58,1.8,1.8,0,0,1,1.42.6A2.32,2.32,0,0,1,64.59,82.73Zm-3.26,0A2,2,0,0,0,61.66,84a1.13,1.13,0,0,0,1,.43,1.15,1.15,0,0,0,1-.42,2.06,2.06,0,0,0,.33-1.26,2,2,0,0,0-.33-1.24,1.33,1.33,0,0,0-1.94,0A2,2,0,0,0,61.33,82.73Z"/><path class="cls-3" d="M67.11,84.42l.33,0,.26-.06v.5a1.37,1.37,0,0,1-.31.08A1.73,1.73,0,0,1,67,85c-.83,0-1.24-.44-1.24-1.31V81.1h-.62v-.31l.62-.27.27-.91h.37v1h1.25v.5H66.42v2.52a.85.85,0,0,0,.19.6A.65.65,0,0,0,67.11,84.42Z"/><path class="cls-3" d="M70.36,85a2,2,0,0,1-1.5-.58,2.28,2.28,0,0,1-.55-1.61,2.48,2.48,0,0,1,.51-1.64,1.69,1.69,0,0,1,1.37-.61,1.64,1.64,0,0,1,1.28.53,2,2,0,0,1,.47,1.4v.41H69A1.68,1.68,0,0,0,69.37,84a1.32,1.32,0,0,0,1,.39,3.46,3.46,0,0,0,1.36-.29v.58a3.06,3.06,0,0,1-.65.21A3.15,3.15,0,0,1,70.36,85Zm-.17-3.9a1.06,1.06,0,0,0-.83.34,1.58,1.58,0,0,0-.36.93h2.24a1.44,1.44,0,0,0-.27-.94A1,1,0,0,0,70.19,81.06Z"/><path class="cls-3" d="M73.69,84.88H73V78.8h.65Z"/><path class="cls-3" d="M77.83,83.71a1.06,1.06,0,0,1-.45.92,2.06,2.06,0,0,1-1.25.33,2.72,2.72,0,0,1-1.33-.27v-.6a3.54,3.54,0,0,0,.67.24,2.71,2.71,0,0,0,.68.09,1.54,1.54,0,0,0,.78-.16.53.53,0,0,0,.27-.49.53.53,0,0,0-.22-.43,3.15,3.15,0,0,0-.84-.42,4.75,4.75,0,0,1-.85-.39,1.25,1.25,0,0,1-.38-.38,1,1,0,0,1-.12-.5,1,1,0,0,1,.43-.83,2,2,0,0,1,1.17-.3,3.37,3.37,0,0,1,1.35.28l-.23.53a3.07,3.07,0,0,0-1.17-.27,1.32,1.32,0,0,0-.7.15.45.45,0,0,0-.23.4.48.48,0,0,0,.09.29.84.84,0,0,0,.28.23,7.06,7.06,0,0,0,.75.32,2.85,2.85,0,0,1,1,.55A1,1,0,0,1,77.83,83.71Z"/><path class="cls-1" d="M62.67,57.65a6,6,0,0,1,3.87,1.14A3.78,3.78,0,0,1,68,61.92a3.94,3.94,0,0,1-.82,2.41,7.43,7.43,0,0,1-2.61,2,8.81,8.81,0,0,1,3.08,2.18,4.1,4.1,0,0,1,.92,2.64A4.46,4.46,0,0,1,67,74.68,6.34,6.34,0,0,1,62.74,76a6.81,6.81,0,0,1-4.39-1.25,4.31,4.31,0,0,1-1.54-3.55q0-3.06,3.73-4.77a6.93,6.93,0,0,1-2.41-2.06,4.35,4.35,0,0,1-.74-2.47,3.75,3.75,0,0,1,1.44-3.09A5.94,5.94,0,0,1,62.67,57.65Zm-3.86,13.6a2.75,2.75,0,0,0,1,2.28,4.43,4.43,0,0,0,2.86.82,4.25,4.25,0,0,0,2.83-.85,2.9,2.9,0,0,0,1-2.35,2.85,2.85,0,0,0-1-2.1,9.79,9.79,0,0,0-3.32-1.79A7.13,7.13,0,0,0,59.63,69,3.31,3.31,0,0,0,58.81,71.25Zm3.83-12a3.59,3.59,0,0,0-2.39.73,2.43,2.43,0,0,0-.87,2,2.78,2.78,0,0,0,.72,1.92,7.51,7.51,0,0,0,2.67,1.62A6.78,6.78,0,0,0,65.24,64,2.93,2.93,0,0,0,66,62a2.38,2.38,0,0,0-.88-2A3.7,3.7,0,0,0,62.64,59.3Z"/><path class="cls-3" d="M4.32,85.54A1.83,1.83,0,0,1,2.88,85a2.35,2.35,0,0,1-.51-1.62,2.44,2.44,0,0,1,.52-1.66,1.88,1.88,0,0,1,1.48-.59,2.54,2.54,0,0,1,.61.07,1.87,1.87,0,0,1,.49.16l-.2.55a3.23,3.23,0,0,0-.47-.15,2.68,2.68,0,0,0-.45,0c-.87,0-1.3.55-1.3,1.66a2,2,0,0,0,.31,1.21,1.13,1.13,0,0,0,.95.42,2.74,2.74,0,0,0,1.09-.23v.58A2.28,2.28,0,0,1,4.32,85.54Z"/><path class="cls-3" d="M10.12,83.32A2.35,2.35,0,0,1,9.59,85a1.87,1.87,0,0,1-1.46.59,1.94,1.94,0,0,1-1-.27,1.85,1.85,0,0,1-.69-.77,2.73,2.73,0,0,1-.24-1.18,2.35,2.35,0,0,1,.53-1.63,1.83,1.83,0,0,1,1.45-.59,1.82,1.82,0,0,1,1.43.6A2.38,2.38,0,0,1,10.12,83.32Zm-3.27,0a2,2,0,0,0,.33,1.25,1.16,1.16,0,0,0,1,.43,1.15,1.15,0,0,0,1-.43,2,2,0,0,0,.33-1.25,2,2,0,0,0-.33-1.24,1.13,1.13,0,0,0-1-.43,1.12,1.12,0,0,0-1,.42A2,2,0,0,0,6.85,83.32Z"/><path class="cls-3" d="M14.18,85.46V82.69a1.1,1.1,0,0,0-.24-.78,1,1,0,0,0-.74-.26,1.22,1.22,0,0,0-1,.37,1.82,1.82,0,0,0-.31,1.2v2.24h-.65V81.18h.53l.11.59h0a1.22,1.22,0,0,1,.56-.49,1.71,1.71,0,0,1,.8-.18,1.62,1.62,0,0,1,1.16.38,1.56,1.56,0,0,1,.39,1.19v2.79Z"/><path class="cls-3" d="M17.1,85.46l-1.62-4.28h.69l.92,2.54c.21.59.33,1,.37,1.16h0c0-.14.12-.43.27-.86s.5-1.38,1-2.84h.69l-1.62,4.28Z"/><path class="cls-3" d="M22,85.54a2,2,0,0,1-1.5-.58,2.21,2.21,0,0,1-.55-1.6,2.5,2.5,0,0,1,.51-1.65,1.72,1.72,0,0,1,1.37-.61,1.61,1.61,0,0,1,1.27.53,2,2,0,0,1,.47,1.4v.41H20.6A1.73,1.73,0,0,0,21,84.58,1.33,1.33,0,0,0,22,85a3.5,3.5,0,0,0,1.37-.28v.57a4.16,4.16,0,0,1-.65.22A4,4,0,0,1,22,85.54Zm-.18-3.89A1.06,1.06,0,0,0,21,82a1.63,1.63,0,0,0-.36.93h2.24a1.39,1.39,0,0,0-.28-.94A.94.94,0,0,0,21.8,81.65Z"/><path class="cls-3" d="M27.59,85.46V82.69a1.1,1.1,0,0,0-.24-.78,1,1,0,0,0-.75-.26,1.21,1.21,0,0,0-1,.37,1.82,1.82,0,0,0-.31,1.2v2.24h-.65V81.18h.53l.1.59h0a1.33,1.33,0,0,1,.56-.49,1.77,1.77,0,0,1,.8-.18,1.63,1.63,0,0,1,1.17.38,1.56,1.56,0,0,1,.39,1.19v2.79Z"/><path class="cls-3" d="M31,85a1.69,1.69,0,0,0,.33,0l.26,0v.49a1,1,0,0,1-.31.09l-.37,0c-.83,0-1.24-.44-1.24-1.31V81.69H29v-.32l.62-.27.27-.91h.37v1h1.25v.51H30.26V84.2a.85.85,0,0,0,.19.6A.63.63,0,0,0,31,85Z"/><path class="cls-3" d="M32.34,80a.41.41,0,0,1,.11-.33.4.4,0,0,1,.54,0,.39.39,0,0,1,.11.32.41.41,0,0,1-.11.33.39.39,0,0,1-.27.1.36.36,0,0,1-.27-.1A.41.41,0,0,1,32.34,80Zm.7,5.44h-.65V81.18H33Z"/><path class="cls-3" d="M38.11,83.32A2.3,2.3,0,0,1,37.58,85a1.85,1.85,0,0,1-1.45.59,1.89,1.89,0,0,1-1-.27,1.78,1.78,0,0,1-.69-.77,2.73,2.73,0,0,1-.24-1.18,2.35,2.35,0,0,1,.52-1.63,1.85,1.85,0,0,1,1.45-.59,1.81,1.81,0,0,1,1.43.6A2.38,2.38,0,0,1,38.11,83.32Zm-3.26,0a2,2,0,0,0,.33,1.25,1.3,1.3,0,0,0,1.93,0,2,2,0,0,0,.33-1.25,2,2,0,0,0-.33-1.24,1.32,1.32,0,0,0-1.94,0A2.07,2.07,0,0,0,34.85,83.32Z"/><path class="cls-3" d="M42.18,85.46V82.69a1.1,1.1,0,0,0-.24-.78,1,1,0,0,0-.75-.26,1.21,1.21,0,0,0-1,.37,1.82,1.82,0,0,0-.31,1.2v2.24h-.65V81.18h.53l.1.59h0a1.33,1.33,0,0,1,.56-.49,1.77,1.77,0,0,1,.8-.18,1.63,1.63,0,0,1,1.17.38,1.56,1.56,0,0,1,.39,1.19v2.79Z"/><path class="cls-3" d="M4.32,94.54A1.83,1.83,0,0,1,2.88,94a2.35,2.35,0,0,1-.51-1.62,2.44,2.44,0,0,1,.52-1.66,1.88,1.88,0,0,1,1.48-.59,2.54,2.54,0,0,1,.61.07,1.87,1.87,0,0,1,.49.16l-.2.55a3.23,3.23,0,0,0-.47-.15,2.68,2.68,0,0,0-.45,0c-.87,0-1.3.55-1.3,1.66a2,2,0,0,0,.31,1.21,1.13,1.13,0,0,0,.95.42,2.74,2.74,0,0,0,1.09-.23v.58A2.28,2.28,0,0,1,4.32,94.54Z"/><path class="cls-3" d="M8.23,94.54A2,2,0,0,1,6.73,94a2.21,2.21,0,0,1-.55-1.6,2.5,2.5,0,0,1,.51-1.65,1.72,1.72,0,0,1,1.37-.61,1.61,1.61,0,0,1,1.27.53A2,2,0,0,1,9.8,92v.41h-3a1.73,1.73,0,0,0,.38,1.14,1.33,1.33,0,0,0,1,.39,3.5,3.5,0,0,0,1.37-.28v.57a4.16,4.16,0,0,1-.65.22A4,4,0,0,1,8.23,94.54Zm-.18-3.89a1.06,1.06,0,0,0-.82.33,1.63,1.63,0,0,0-.36.93H9.11A1.39,1.39,0,0,0,8.83,91,.94.94,0,0,0,8.05,90.65Z"/><path class="cls-3" d="M13.84,94.46V91.69a1.1,1.1,0,0,0-.24-.78,1,1,0,0,0-.75-.26,1.21,1.21,0,0,0-1,.37,1.82,1.82,0,0,0-.31,1.2v2.24h-.65V90.18h.53l.1.59h0a1.33,1.33,0,0,1,.56-.49,1.77,1.77,0,0,1,.8-.18,1.63,1.63,0,0,1,1.17.38,1.56,1.56,0,0,1,.39,1.19v2.79Z"/><path class="cls-3" d="M17.2,94a1.69,1.69,0,0,0,.33,0l.26,0v.49a1,1,0,0,1-.31.09l-.37,0c-.83,0-1.24-.44-1.24-1.31V90.69h-.62v-.32l.62-.27.27-.91h.37v1h1.25v.51H16.51V93.2a.85.85,0,0,0,.19.6A.63.63,0,0,0,17.2,94Z"/><path class="cls-3" d="M20.45,94.54A2,2,0,0,1,19,94a2.25,2.25,0,0,1-.55-1.6,2.5,2.5,0,0,1,.51-1.65,1.72,1.72,0,0,1,1.37-.61,1.64,1.64,0,0,1,1.28.53A2.06,2.06,0,0,1,22,92v.41h-3a1.68,1.68,0,0,0,.38,1.14,1.32,1.32,0,0,0,1,.39,3.45,3.45,0,0,0,1.36-.28v.57a3.84,3.84,0,0,1-.65.22A3.88,3.88,0,0,1,20.45,94.54Zm-.17-3.89a1.08,1.08,0,0,0-.83.33,1.63,1.63,0,0,0-.36.93h2.24a1.44,1.44,0,0,0-.27-.94A1,1,0,0,0,20.28,90.65Z"/><path class="cls-3" d="M25.08,90.1a2.78,2.78,0,0,1,.52.05l-.09.6a2.23,2.23,0,0,0-.47-.06,1.13,1.13,0,0,0-.89.42,1.56,1.56,0,0,0-.37,1.06v2.29h-.65V90.18h.54l.07.79h0a1.9,1.9,0,0,1,.58-.64A1.29,1.29,0,0,1,25.08,90.1Z"/><path class="cls-3" d="M29.16,93.29a1.09,1.09,0,0,1-.45.93,2.12,2.12,0,0,1-1.25.32,2.65,2.65,0,0,1-1.32-.27v-.6a3.23,3.23,0,0,0,.66.25,2.71,2.71,0,0,0,.68.09,1.5,1.5,0,0,0,.78-.17.52.52,0,0,0,.27-.49.54.54,0,0,0-.21-.43,3.44,3.44,0,0,0-.85-.42,4.75,4.75,0,0,1-.85-.39,1.09,1.09,0,0,1-.37-.37.92.92,0,0,1-.13-.51,1,1,0,0,1,.43-.82,1.91,1.91,0,0,1,1.17-.31,3.55,3.55,0,0,1,1.35.28l-.23.53a3,3,0,0,0-1.17-.26,1.27,1.27,0,0,0-.69.14.45.45,0,0,0-.24.4.48.48,0,0,0,.09.29.84.84,0,0,0,.28.23,5.4,5.4,0,0,0,.75.32,2.69,2.69,0,0,1,1,.56A1,1,0,0,1,29.16,93.29Z"/><path class="cls-1" d="M13.79,71.65H11.14v4.11H9.2V71.65H.52V69.88L9,57.81h2.14v12h2.65ZM9.2,69.81V63.88c0-1.17,0-2.48.13-3.94h-.1a19.44,19.44,0,0,1-1.1,1.94L2.55,69.81Z"/></g></svg>