<svg xmlns="http://www.w3.org/2000/svg" viewBox="0 0 196.05 48.7"><defs><style>.cls-1{fill:#4d4e50;}.cls-2{fill:#ee8122;}</style></defs><g id="Economic_Opportunities_Image" data-name="Economic Opportunities Image"><path class="cls-1" d="M136.45,27.26a1.41,1.41,0,0,1-.55,1.18,2.35,2.35,0,0,1-1.48.42,3.76,3.76,0,0,1-1.56-.26V28a4.23,4.23,0,0,0,.76.24,3.86,3.86,0,0,0,.82.08,1.62,1.62,0,0,0,1-.25.81.81,0,0,0,.34-.7.85.85,0,0,0-.12-.48,1,1,0,0,0-.4-.35,5.35,5.35,0,0,0-.85-.37,2.74,2.74,0,0,1-1.14-.67,1.53,1.53,0,0,1-.34-1,1.27,1.27,0,0,1,.5-1.05,2.06,2.06,0,0,1,1.31-.39,3.86,3.86,0,0,1,1.57.31l-.21.58a3.51,3.51,0,0,0-1.38-.3,1.33,1.33,0,0,0-.82.23.74.74,0,0,0-.3.63,1,1,0,0,0,.11.48,1.14,1.14,0,0,0,.37.35,5.57,5.57,0,0,0,.8.35,3,3,0,0,1,1.23.69A1.32,1.32,0,0,1,136.45,27.26Z"/><path class="cls-1" d="M142,28.78h-.67V26.09h-3v2.69h-.66V23.07h.66V25.5h3V23.07H142Z"/><path class="cls-1" d="M148.08,25.87a2.89,2.89,0,0,1-.77,2.16,3,3,0,0,1-2.21.75h-1.58V23.07h1.75a2.76,2.76,0,0,1,2.07.74A2.79,2.79,0,0,1,148.08,25.87Zm-.7,0a2.32,2.32,0,0,0-.56-1.68,2.25,2.25,0,0,0-1.67-.57h-1V28.2h.8a2.46,2.46,0,0,0,1.79-.58A2.3,2.3,0,0,0,147.38,25.89Z"/><path class="cls-1" d="M151.8,23.58a1.88,1.88,0,0,0-1.49.63,2.52,2.52,0,0,0-.54,1.71,2.6,2.6,0,0,0,.52,1.74,1.89,1.89,0,0,0,1.5.61,4.85,4.85,0,0,0,1.36-.22v.58a4.1,4.1,0,0,1-1.46.23,2.49,2.49,0,0,1-1.95-.77,3.17,3.17,0,0,1-.68-2.17,3.44,3.44,0,0,1,.33-1.55,2.29,2.29,0,0,1,1-1,2.89,2.89,0,0,1,1.47-.36,3.67,3.67,0,0,1,1.57.32l-.28.57A3.11,3.11,0,0,0,151.8,23.58Z"/><path class="cls-1" d="M156.18,22.7,156,24.24l1.56-.43.1.71-1.49.12,1,1.28-.67.36-.69-1.41-.62,1.41-.69-.36.94-1.28L154,24.52l.11-.71,1.53.43-.17-1.54Z"/><path class="cls-1" d="M163.56,27.61a1.06,1.06,0,0,1-.45.92,2.06,2.06,0,0,1-1.25.33,2.72,2.72,0,0,1-1.33-.27V28a3.54,3.54,0,0,0,.67.24,2.71,2.71,0,0,0,.68.09,1.54,1.54,0,0,0,.78-.16.53.53,0,0,0,.27-.49.53.53,0,0,0-.22-.43,3.15,3.15,0,0,0-.84-.42,4.75,4.75,0,0,1-.85-.39,1.25,1.25,0,0,1-.38-.38,1,1,0,0,1-.12-.5,1,1,0,0,1,.43-.83,2,2,0,0,1,1.17-.3,3.37,3.37,0,0,1,1.35.28l-.23.53a3.07,3.07,0,0,0-1.17-.27,1.32,1.32,0,0,0-.7.15.45.45,0,0,0-.23.4.48.48,0,0,0,.09.29.84.84,0,0,0,.28.23,7.06,7.06,0,0,0,.75.32,2.85,2.85,0,0,1,1,.55A1,1,0,0,1,163.56,27.61Z"/><path class="cls-1" d="M168.31,26.63a2.38,2.38,0,0,1-.53,1.64,1.87,1.87,0,0,1-1.46.59,1.94,1.94,0,0,1-1-.27,1.79,1.79,0,0,1-.68-.78,2.57,2.57,0,0,1-.25-1.18A2.37,2.37,0,0,1,164.9,25a1.84,1.84,0,0,1,1.45-.58,1.82,1.82,0,0,1,1.43.6A2.35,2.35,0,0,1,168.31,26.63Zm-3.26,0a2,2,0,0,0,.32,1.25,1.13,1.13,0,0,0,1,.43,1.15,1.15,0,0,0,1-.42,2.06,2.06,0,0,0,.33-1.26,2,2,0,0,0-.33-1.24,1.32,1.32,0,0,0-1.93,0A2,2,0,0,0,165.05,26.63Z"/><path class="cls-1" d="M171.15,28.86a1.81,1.81,0,0,1-1.44-.58,2.39,2.39,0,0,1-.5-1.61,2.44,2.44,0,0,1,.51-1.66,1.85,1.85,0,0,1,1.48-.59,2.54,2.54,0,0,1,.61.07,1.91,1.91,0,0,1,.49.15l-.2.55a4.41,4.41,0,0,0-.47-.14,2,2,0,0,0-.45-.06c-.87,0-1.3.56-1.3,1.67a1.94,1.94,0,0,0,.32,1.21,1.1,1.1,0,0,0,.94.42,3,3,0,0,0,1.1-.23v.57A2.35,2.35,0,0,1,171.15,28.86Z"/><path class="cls-1" d="M173.2,23.34a.41.41,0,0,1,.11-.33.36.36,0,0,1,.27-.1.39.39,0,0,1,.27.1.45.45,0,0,1,.11.33.44.44,0,0,1-.11.32.36.36,0,0,1-.27.11.33.33,0,0,1-.27-.11A.4.4,0,0,1,173.2,23.34Zm.7,5.44h-.65V24.5h.65Z"/><path class="cls-1" d="M177.91,28.78l-.13-.61h0a1.79,1.79,0,0,1-.64.54,1.87,1.87,0,0,1-.8.15,1.41,1.41,0,0,1-1-.33,1.2,1.2,0,0,1-.36-.93c0-.87.69-1.32,2.07-1.36l.73,0V26a1.12,1.12,0,0,0-.22-.75.9.9,0,0,0-.69-.24,2.87,2.87,0,0,0-1.22.33l-.19-.5a3.54,3.54,0,0,1,.69-.27,3.2,3.2,0,0,1,.75-.09,1.64,1.64,0,0,1,1.14.34,1.4,1.4,0,0,1,.37,1.09v2.92Zm-1.47-.46a1.31,1.31,0,0,0,.95-.33,1.19,1.19,0,0,0,.35-.93v-.39l-.65,0a2.37,2.37,0,0,0-1.11.24.72.72,0,0,0-.35.66.68.68,0,0,0,.22.54A.89.89,0,0,0,176.44,28.32Z"/><path class="cls-1" d="M180.37,28.78h-.65V22.7h.65Z"/><path class="cls-1" d="M181.69,23.34a.45.45,0,0,1,.11-.33.4.4,0,0,1,.28-.1.39.39,0,0,1,.27.1.45.45,0,0,1,.11.33.44.44,0,0,1-.11.32.36.36,0,0,1-.27.11.37.37,0,0,1-.28-.11A.44.44,0,0,1,181.69,23.34Zm.71,5.44h-.65V24.5h.65Z"/><path class="cls-1" d="M186.51,28.78H183.4v-.44L185.74,25h-2.19v-.5h2.9V25l-2.3,3.27h2.36Z"/><path class="cls-1" d="M189.32,28.86a2,2,0,0,1-1.5-.58,2.27,2.27,0,0,1-.54-1.61,2.48,2.48,0,0,1,.51-1.64,1.67,1.67,0,0,1,1.36-.61,1.63,1.63,0,0,1,1.28.53,2,2,0,0,1,.47,1.4v.41h-3a1.68,1.68,0,0,0,.38,1.14,1.32,1.32,0,0,0,1,.39,3.46,3.46,0,0,0,1.36-.29v.58a3.06,3.06,0,0,1-.65.21A3.15,3.15,0,0,1,189.32,28.86Zm-.17-3.9a1.06,1.06,0,0,0-.83.34,1.58,1.58,0,0,0-.36.93h2.24a1.44,1.44,0,0,0-.27-.94A1,1,0,0,0,189.15,25Z"/><path class="cls-1" d="M194.92,28.2h0a1.52,1.52,0,0,1-1.34.66,1.58,1.58,0,0,1-1.31-.58,2.51,2.51,0,0,1-.47-1.63,2.56,2.56,0,0,1,.47-1.64,1.57,1.57,0,0,1,1.31-.59,1.55,1.55,0,0,1,1.33.63h0l0-.31,0-.3V22.7h.65v6.08H195Zm-1.3.11a1.18,1.18,0,0,0,1-.36,1.81,1.81,0,0,0,.3-1.16v-.14a2.16,2.16,0,0,0-.3-1.3,1.16,1.16,0,0,0-1-.39,1,1,0,0,0-.87.45,2.2,2.2,0,0,0-.3,1.25,2.14,2.14,0,0,0,.3,1.24A1,1,0,0,0,193.62,28.31Z"/><path class="cls-1" d="M126.13,37.78V35a1.1,1.1,0,0,0-.24-.78,1,1,0,0,0-.75-.26,1.18,1.18,0,0,0-1,.37,1.82,1.82,0,0,0-.31,1.2v2.24h-.65V31.7h.65v1.84a2.81,2.81,0,0,1,0,.55h0a1.38,1.38,0,0,1,.55-.49,1.86,1.86,0,0,1,.81-.17,1.63,1.63,0,0,1,1.17.37,1.58,1.58,0,0,1,.4,1.19v2.79Z"/><path class="cls-1" d="M131.8,35.63a2.37,2.37,0,0,1-.52,1.64,1.88,1.88,0,0,1-1.46.59,1.94,1.94,0,0,1-1-.27,1.75,1.75,0,0,1-.69-.78,2.7,2.7,0,0,1-.24-1.18,2.36,2.36,0,0,1,.52-1.63,1.86,1.86,0,0,1,1.46-.58,1.8,1.8,0,0,1,1.42.6A2.3,2.3,0,0,1,131.8,35.63Zm-3.26,0a2,2,0,0,0,.33,1.25,1.13,1.13,0,0,0,1,.43,1.15,1.15,0,0,0,1-.42,2.06,2.06,0,0,0,.33-1.26,2,2,0,0,0-.33-1.24,1.15,1.15,0,0,0-1-.42,1.12,1.12,0,0,0-1,.42A2,2,0,0,0,128.54,35.63Z"/><path class="cls-1" d="M133.55,33.5v2.77a1.15,1.15,0,0,0,.24.79,1,1,0,0,0,.74.25,1.25,1.25,0,0,0,1-.36,1.92,1.92,0,0,0,.31-1.2V33.5h.64v4.28h-.53l-.09-.58h0a1.24,1.24,0,0,1-.55.49,1.92,1.92,0,0,1-.81.17,1.67,1.67,0,0,1-1.17-.37,1.59,1.59,0,0,1-.39-1.19V33.5Z"/><path class="cls-1" d="M140.61,36.61a1.07,1.07,0,0,1-.44.92,2.09,2.09,0,0,1-1.25.33,2.72,2.72,0,0,1-1.33-.27V37a3.21,3.21,0,0,0,.66.24,2.77,2.77,0,0,0,.68.09,1.51,1.51,0,0,0,.78-.16.54.54,0,0,0,.28-.49.55.55,0,0,0-.22-.43,3.26,3.26,0,0,0-.85-.42,5.12,5.12,0,0,1-.85-.39,1.21,1.21,0,0,1-.37-.38,1,1,0,0,1-.12-.5,1,1,0,0,1,.42-.83,2,2,0,0,1,1.17-.3,3.37,3.37,0,0,1,1.35.28l-.23.53a3.07,3.07,0,0,0-1.17-.27,1.29,1.29,0,0,0-.69.15.44.44,0,0,0-.24.4.48.48,0,0,0,.09.29.84.84,0,0,0,.28.23,7.06,7.06,0,0,0,.75.32,2.76,2.76,0,0,1,1,.55A1,1,0,0,1,140.61,36.61Z"/><path class="cls-1" d="M141.61,32.34a.45.45,0,0,1,.11-.33.41.41,0,0,1,.54,0,.42.42,0,0,1,.12.33.41.41,0,0,1-.12.32.39.39,0,0,1-.54,0A.44.44,0,0,1,141.61,32.34Zm.7,5.44h-.64V33.5h.64Z"/><path class="cls-1" d="M146.62,37.78V35a1.1,1.1,0,0,0-.24-.78,1,1,0,0,0-.75-.26,1.24,1.24,0,0,0-1,.36,1.86,1.86,0,0,0-.31,1.2v2.25h-.65V33.5h.53l.1.58h0a1.41,1.41,0,0,1,.56-.49,1.91,1.91,0,0,1,.8-.17,1.63,1.63,0,0,1,1.17.37,1.6,1.6,0,0,1,.39,1.2v2.79Z"/><path class="cls-1" d="M152.1,33.5v.41l-.79.09a1.49,1.49,0,0,1,.2.36,1.54,1.54,0,0,1,.08.5,1.25,1.25,0,0,1-.43,1,1.72,1.72,0,0,1-1.18.38,1.37,1.37,0,0,1-.36,0,.65.65,0,0,0-.41.56.3.3,0,0,0,.14.26,1.2,1.2,0,0,0,.5.08h.76a1.75,1.75,0,0,1,1.07.29,1,1,0,0,1,.37.85,1.22,1.22,0,0,1-.57,1.09,3.06,3.06,0,0,1-1.67.37,2.24,2.24,0,0,1-1.29-.31,1,1,0,0,1-.46-.88,1,1,0,0,1,.25-.68,1.3,1.3,0,0,1,.71-.39.68.68,0,0,1-.28-.23.61.61,0,0,1-.11-.36.65.65,0,0,1,.13-.41,1.22,1.22,0,0,1,.39-.34,1.16,1.16,0,0,1-.54-.47,1.32,1.32,0,0,1-.21-.75,1.39,1.39,0,0,1,.42-1.08,1.74,1.74,0,0,1,1.2-.38,2.23,2.23,0,0,1,.6.08Zm-3.41,5A.57.57,0,0,0,149,39a1.64,1.64,0,0,0,.84.18A2.36,2.36,0,0,0,151,39a.74.74,0,0,0,.39-.66.53.53,0,0,0-.21-.48,1.64,1.64,0,0,0-.81-.14h-.78a1,1,0,0,0-.68.21A.74.74,0,0,0,148.69,38.5Zm.35-3.63a.88.88,0,0,0,.26.68,1,1,0,0,0,.7.23.83.83,0,0,0,.95-.92.85.85,0,0,0-1-1,.92.92,0,0,0-.7.25A1,1,0,0,0,149,34.87Z"/><path class="cls-1" d="M155.67,33.5v2.77a1.15,1.15,0,0,0,.24.79,1,1,0,0,0,.74.25,1.25,1.25,0,0,0,1-.36,1.92,1.92,0,0,0,.31-1.2V33.5h.65v4.28h-.54L158,37.2h0a1.24,1.24,0,0,1-.55.49,1.92,1.92,0,0,1-.81.17,1.67,1.67,0,0,1-1.17-.37A1.59,1.59,0,0,1,155,36.3V33.5Z"/><path class="cls-1" d="M162.9,37.78V35a1.1,1.1,0,0,0-.24-.78,1,1,0,0,0-.74-.26,1.25,1.25,0,0,0-1,.36,1.86,1.86,0,0,0-.31,1.2v2.25H160V33.5h.53l.1.58h0a1.41,1.41,0,0,1,.56-.49,1.91,1.91,0,0,1,.8-.17,1.63,1.63,0,0,1,1.17.37,1.6,1.6,0,0,1,.39,1.2v2.79Z"/><path class="cls-1" d="M164.83,32.34a.41.41,0,0,1,.11-.33.36.36,0,0,1,.27-.1.39.39,0,0,1,.27.1.45.45,0,0,1,.11.33.44.44,0,0,1-.11.32.36.36,0,0,1-.27.11.33.33,0,0,1-.27-.11A.4.4,0,0,1,164.83,32.34Zm.7,5.44h-.65V33.5h.65Z"/><path class="cls-1" d="M168.29,37.32l.33,0,.25-.06v.5a1.23,1.23,0,0,1-.31.08,1.67,1.67,0,0,1-.37,0c-.82,0-1.24-.44-1.24-1.31V34h-.61v-.31l.61-.27.27-.91h.38v1h1.24V34H167.6v2.52a.85.85,0,0,0,.18.59A.65.65,0,0,0,168.29,37.32Z"/><path class="cls-1" d="M172.49,36.61a1.07,1.07,0,0,1-.44.92,2.09,2.09,0,0,1-1.25.33,2.7,2.7,0,0,1-1.33-.27V37a3.21,3.21,0,0,0,.66.24,2.71,2.71,0,0,0,.68.09,1.51,1.51,0,0,0,.78-.16.54.54,0,0,0,.28-.49.55.55,0,0,0-.22-.43,3.44,3.44,0,0,0-.85-.42,4.75,4.75,0,0,1-.85-.39,1.21,1.21,0,0,1-.37-.38,1,1,0,0,1-.12-.5,1,1,0,0,1,.42-.83,2,2,0,0,1,1.17-.3,3.37,3.37,0,0,1,1.35.28l-.23.53A3.07,3.07,0,0,0,171,34a1.26,1.26,0,0,0-.69.15.44.44,0,0,0-.24.4.48.48,0,0,0,.09.29.84.84,0,0,0,.28.23,7.06,7.06,0,0,0,.75.32,2.85,2.85,0,0,1,1,.55A1,1,0,0,1,172.49,36.61Z"/><path class="cls-1" d="M181.08,37.78V35a1.11,1.11,0,0,0-.22-.76.85.85,0,0,0-.68-.26,1.1,1.1,0,0,0-.89.35,1.61,1.61,0,0,0-.29,1.07v2.39h-.65V35a1.11,1.11,0,0,0-.22-.76.85.85,0,0,0-.68-.26,1.06,1.06,0,0,0-.9.37,2,2,0,0,0-.28,1.19v2.25h-.65V33.5h.53l.11.58h0a1.24,1.24,0,0,1,.51-.48,1.6,1.6,0,0,1,.75-.18,1.28,1.28,0,0,1,1.32.73h0a1.36,1.36,0,0,1,.55-.54,1.72,1.72,0,0,1,.83-.19,1.45,1.45,0,0,1,1.09.37,1.69,1.69,0,0,1,.36,1.2v2.79Z"/><path class="cls-1" d="M185.7,37.78l-.13-.61h0a1.79,1.79,0,0,1-.64.54,1.87,1.87,0,0,1-.8.15,1.41,1.41,0,0,1-1-.33,1.17,1.17,0,0,1-.37-.93c0-.87.7-1.32,2.08-1.36l.73,0V35a1.12,1.12,0,0,0-.22-.75.91.91,0,0,0-.7-.24,2.83,2.83,0,0,0-1.21.33l-.2-.5a3.91,3.91,0,0,1,.7-.27,3.2,3.2,0,0,1,.75-.09,1.64,1.64,0,0,1,1.14.34,1.43,1.43,0,0,1,.37,1.09v2.92Zm-1.47-.46a1.31,1.31,0,0,0,1-.33,1.23,1.23,0,0,0,.35-.93v-.39l-.65,0a2.37,2.37,0,0,0-1.11.24.72.72,0,0,0-.35.66.65.65,0,0,0,.22.54A.89.89,0,0,0,184.23,37.32Z"/><path class="cls-1" d="M190.43,37.2h0a1.52,1.52,0,0,1-1.34.66,1.58,1.58,0,0,1-1.31-.58,2.51,2.51,0,0,1-.46-1.63,2.56,2.56,0,0,1,.46-1.64,1.57,1.57,0,0,1,1.31-.59,1.55,1.55,0,0,1,1.33.63h.06l0-.31,0-.3V31.7H191v6.08h-.53Zm-1.3.11a1.18,1.18,0,0,0,1-.36,1.81,1.81,0,0,0,.3-1.16v-.14a2.16,2.16,0,0,0-.3-1.3,1.14,1.14,0,0,0-1-.39,1,1,0,0,0-.87.45,2.2,2.2,0,0,0-.3,1.25,2.14,2.14,0,0,0,.3,1.24A1,1,0,0,0,189.13,37.31Z"/><path class="cls-1" d="M194.22,37.86a2,2,0,0,1-1.49-.58,2.23,2.23,0,0,1-.55-1.61,2.48,2.48,0,0,1,.51-1.64,1.68,1.68,0,0,1,1.37-.61,1.62,1.62,0,0,1,1.27.53,2,2,0,0,1,.47,1.4v.41h-3a1.68,1.68,0,0,0,.38,1.14,1.32,1.32,0,0,0,1,.39,3.55,3.55,0,0,0,1.37-.29v.58a3.37,3.37,0,0,1-1.4.28Zm-.17-3.9a1,1,0,0,0-.82.34,1.46,1.46,0,0,0-.36.93h2.23a1.44,1.44,0,0,0-.27-.94A1,1,0,0,0,194.05,34Z"/><path class="cls-1" d="M113.94,46.78l-.13-.61h0a1.71,1.71,0,0,1-.64.54,1.86,1.86,0,0,1-.79.15,1.42,1.42,0,0,1-1-.33,1.2,1.2,0,0,1-.36-.93c0-.87.69-1.32,2.07-1.36l.73,0V44a1.12,1.12,0,0,0-.22-.75.89.89,0,0,0-.69-.24,2.8,2.8,0,0,0-1.21.33l-.2-.5a3.54,3.54,0,0,1,.69-.27,3.22,3.22,0,0,1,.76-.09,1.61,1.61,0,0,1,1.13.34,1.4,1.4,0,0,1,.37,1.09v2.92Zm-1.47-.46a1.33,1.33,0,0,0,1-.33,1.22,1.22,0,0,0,.34-.93v-.39l-.65,0a2.41,2.41,0,0,0-1.11.24.71.71,0,0,0-.34.66.67.67,0,0,0,.21.54A.89.89,0,0,0,112.47,46.32Z"/><path class="cls-1" d="M116.69,46.78l-1.62-4.28h.69l.93,2.54c.2.59.33,1,.36,1.15h0a7.59,7.59,0,0,1,.28-.85c.15-.44.49-1.38,1-2.84h.7l-1.63,4.28Z"/><path class="cls-1" d="M122.4,46.78l-.13-.61h0a1.79,1.79,0,0,1-.64.54,1.9,1.9,0,0,1-.8.15,1.45,1.45,0,0,1-1-.33,1.2,1.2,0,0,1-.36-.93c0-.87.69-1.32,2.08-1.36l.72,0V44a1.12,1.12,0,0,0-.21-.75.91.91,0,0,0-.7-.24,2.83,2.83,0,0,0-1.21.33l-.2-.5a3.64,3.64,0,0,1,.7-.27,3.2,3.2,0,0,1,.75-.09,1.64,1.64,0,0,1,1.14.34,1.43,1.43,0,0,1,.37,1.09v2.92Zm-1.47-.46a1.31,1.31,0,0,0,.95-.33,1.23,1.23,0,0,0,.35-.93v-.39l-.65,0a2.42,2.42,0,0,0-1.12.24.73.73,0,0,0-.34.66.65.65,0,0,0,.22.54A.89.89,0,0,0,120.93,46.32Z"/><path class="cls-1" d="M124.16,41.34a.41.41,0,0,1,.11-.33.36.36,0,0,1,.27-.1.39.39,0,0,1,.27.1.41.41,0,0,1,.11.33.4.4,0,0,1-.11.32.36.36,0,0,1-.27.11.33.33,0,0,1-.27-.11A.4.4,0,0,1,124.16,41.34Zm.7,5.44h-.65V42.5h.65Z"/><path class="cls-1" d="M126.88,46.78h-.64V40.7h.64Z"/><path class="cls-1" d="M130.89,46.78l-.13-.61h0a1.64,1.64,0,0,1-.64.54,1.82,1.82,0,0,1-.79.15,1.42,1.42,0,0,1-1-.33,1.2,1.2,0,0,1-.36-.93c0-.87.69-1.32,2.07-1.36l.73,0V44a1.07,1.07,0,0,0-.22-.75.87.87,0,0,0-.69-.24,2.8,2.8,0,0,0-1.21.33l-.2-.5a3.54,3.54,0,0,1,.69-.27,3.29,3.29,0,0,1,.76-.09,1.59,1.59,0,0,1,1.13.34,1.4,1.4,0,0,1,.37,1.09v2.92Zm-1.46-.46a1.32,1.32,0,0,0,.95-.33,1.22,1.22,0,0,0,.34-.93v-.39l-.64,0a2.42,2.42,0,0,0-1.12.24.71.71,0,0,0-.34.66.67.67,0,0,0,.21.54A.9.9,0,0,0,129.43,46.32Z"/><path class="cls-1" d="M134.7,42.43A1.6,1.6,0,0,1,136,43a3.08,3.08,0,0,1,0,3.27,1.6,1.6,0,0,1-1.31.59,1.73,1.73,0,0,1-.76-.16,1.39,1.39,0,0,1-.58-.47h-.05l-.14.55h-.46V40.7h.65v1.48c0,.33,0,.62,0,.89h0A1.53,1.53,0,0,1,134.7,42.43Zm-.09.54a1.15,1.15,0,0,0-1,.38,3,3,0,0,0,0,2.58,1.16,1.16,0,0,0,1,.38,1,1,0,0,0,.89-.43,2.2,2.2,0,0,0,.3-1.25,2.11,2.11,0,0,0-.3-1.25A1,1,0,0,0,134.61,43Z"/><path class="cls-1" d="M138.26,46.78h-.65V40.7h.65Z"/><path class="cls-1" d="M141.44,46.86a2,2,0,0,1-1.49-.58,2.23,2.23,0,0,1-.55-1.61,2.48,2.48,0,0,1,.51-1.64,1.68,1.68,0,0,1,1.37-.61,1.62,1.62,0,0,1,1.27.53,2,2,0,0,1,.47,1.4v.41h-3a1.68,1.68,0,0,0,.38,1.14,1.32,1.32,0,0,0,1,.39,3.46,3.46,0,0,0,1.36-.29v.58a3.06,3.06,0,0,1-.65.21A3.15,3.15,0,0,1,141.44,46.86Zm-.17-3.9a1,1,0,0,0-.82.34,1.52,1.52,0,0,0-.37.93h2.24a1.44,1.44,0,0,0-.27-.94A1,1,0,0,0,141.27,43Z"/><path class="cls-1" d="M147.58,46.32l.34,0,.25-.06v.5a1.23,1.23,0,0,1-.31.08,1.73,1.73,0,0,1-.37,0c-.83,0-1.24-.44-1.24-1.31V43h-.62v-.31l.62-.27.27-.91h.38v1h1.24V43H146.9v2.52a.85.85,0,0,0,.18.59A.63.63,0,0,0,147.58,46.32Z"/><path class="cls-1" d="M152.72,44.63a2.33,2.33,0,0,1-.53,1.64,1.85,1.85,0,0,1-1.45.59,1.89,1.89,0,0,1-1-.27,1.75,1.75,0,0,1-.69-.78,2.7,2.7,0,0,1-.24-1.18,2.36,2.36,0,0,1,.52-1.63,1.84,1.84,0,0,1,1.45-.58,1.81,1.81,0,0,1,1.43.6A2.35,2.35,0,0,1,152.72,44.63Zm-3.26,0a2,2,0,0,0,.33,1.25,1.13,1.13,0,0,0,1,.43,1.15,1.15,0,0,0,1-.42,2.06,2.06,0,0,0,.33-1.26,2,2,0,0,0-.33-1.24,1.17,1.17,0,0,0-1-.42,1.15,1.15,0,0,0-1,.42A2,2,0,0,0,149.46,44.63Z"/><path class="cls-1" d="M157.32,46.32l.33,0,.25-.06v.5a1.23,1.23,0,0,1-.31.08,1.67,1.67,0,0,1-.37,0c-.82,0-1.24-.44-1.24-1.31V43h-.61v-.31l.61-.27.28-.91h.37v1h1.24V43h-1.24v2.52a.85.85,0,0,0,.18.59A.65.65,0,0,0,157.32,46.32Z"/><path class="cls-1" d="M161.69,46.78V44a1.1,1.1,0,0,0-.24-.78,1,1,0,0,0-.74-.26,1.21,1.21,0,0,0-1,.37,1.82,1.82,0,0,0-.31,1.2v2.24h-.65V40.7h.65v1.84a4.11,4.11,0,0,1,0,.55h0a1.29,1.29,0,0,1,.54-.49,1.89,1.89,0,0,1,.81-.17,1.67,1.67,0,0,1,1.18.37,1.58,1.58,0,0,1,.39,1.19v2.79Z"/><path class="cls-1" d="M165.48,46.86a2,2,0,0,1-1.5-.58,2.23,2.23,0,0,1-.55-1.61,2.48,2.48,0,0,1,.51-1.64,1.69,1.69,0,0,1,1.37-.61,1.61,1.61,0,0,1,1.27.53,2,2,0,0,1,.47,1.4v.41h-3a1.73,1.73,0,0,0,.38,1.14,1.32,1.32,0,0,0,1,.39,3.51,3.51,0,0,0,1.37-.29v.58a3.25,3.25,0,0,1-.65.21A3.21,3.21,0,0,1,165.48,46.86ZM165.3,43a1,1,0,0,0-.82.34,1.58,1.58,0,0,0-.36.93h2.24a1.39,1.39,0,0,0-.28-.94A1,1,0,0,0,165.3,43Z"/><path class="cls-1" d="M175.69,46.78V44a1.11,1.11,0,0,0-.22-.76.83.83,0,0,0-.67-.26,1.1,1.1,0,0,0-.9.35,1.67,1.67,0,0,0-.29,1.07v2.39H173V44a1.11,1.11,0,0,0-.22-.76.84.84,0,0,0-.68-.26,1,1,0,0,0-.89.37,1.94,1.94,0,0,0-.29,1.19v2.25h-.64V42.5h.52l.11.58h0a1.27,1.27,0,0,1,.52-.48,1.54,1.54,0,0,1,.75-.18,1.27,1.27,0,0,1,1.31.73h0a1.43,1.43,0,0,1,.55-.54,1.75,1.75,0,0,1,.83-.19,1.44,1.44,0,0,1,1.09.37,1.69,1.69,0,0,1,.36,1.2v2.79Z"/><path class="cls-1" d="M180.31,46.78l-.13-.61h0a1.71,1.71,0,0,1-.64.54,1.86,1.86,0,0,1-.79.15,1.42,1.42,0,0,1-1-.33,1.2,1.2,0,0,1-.36-.93c0-.87.69-1.32,2.07-1.36l.73,0V44a1.07,1.07,0,0,0-.22-.75.87.87,0,0,0-.69-.24,2.8,2.8,0,0,0-1.21.33l-.2-.5a3.54,3.54,0,0,1,.69-.27,3.22,3.22,0,0,1,.76-.09,1.59,1.59,0,0,1,1.13.34,1.4,1.4,0,0,1,.37,1.09v2.92Zm-1.46-.46a1.32,1.32,0,0,0,1-.33,1.22,1.22,0,0,0,.34-.93v-.39l-.65,0a2.41,2.41,0,0,0-1.11.24.71.71,0,0,0-.34.66.67.67,0,0,0,.21.54A.9.9,0,0,0,178.85,46.32Z"/><path class="cls-1" d="M184.08,42.42a2.59,2.59,0,0,1,.51,0l-.09.6A2.16,2.16,0,0,0,184,43a1.16,1.16,0,0,0-.89.42,1.56,1.56,0,0,0-.36,1v2.3h-.65V42.5h.53l.08.79h0a1.89,1.89,0,0,1,.57-.64A1.32,1.32,0,0,1,184.08,42.42Z"/><path class="cls-1" d="M186,44.59a7.55,7.55,0,0,1,.52-.63l1.38-1.46h.77L187,44.32l1.86,2.46H188l-1.51-2-.49.42v1.6h-.64V40.7H186v3.22c0,.15,0,.37,0,.67Z"/><path class="cls-1" d="M191.4,46.86a2,2,0,0,1-1.5-.58,2.28,2.28,0,0,1-.55-1.61,2.48,2.48,0,0,1,.51-1.64,1.69,1.69,0,0,1,1.37-.61,1.64,1.64,0,0,1,1.28.53,2,2,0,0,1,.46,1.4v.41H190a1.68,1.68,0,0,0,.38,1.14,1.31,1.31,0,0,0,1,.39,3.51,3.51,0,0,0,1.37-.29v.58a3.25,3.25,0,0,1-.65.21A3.15,3.15,0,0,1,191.4,46.86Zm-.18-3.9a1.05,1.05,0,0,0-.82.34,1.58,1.58,0,0,0-.36.93h2.24a1.44,1.44,0,0,0-.27-.94A1,1,0,0,0,191.22,43Z"/><path class="cls-1" d="M195.46,46.32l.34,0,.25-.06v.5a1.23,1.23,0,0,1-.31.08,1.73,1.73,0,0,1-.37,0c-.83,0-1.24-.44-1.24-1.31V43h-.62v-.31l.62-.27.27-.91h.38v1H196V43h-1.24v2.52a.85.85,0,0,0,.18.59A.63.63,0,0,0,195.46,46.32Z"/><path class="cls-2" d="M127.77,18.13h-2V5.41c0-1.06,0-2.06.09-3-.17.18-.36.35-.57.54s-1.18,1-2.91,2.38l-1.07-1.39L126.06.28h1.71Z"/><path class="cls-2" d="M146.29,18.13H134.56V16.38l4.7-4.72a34,34,0,0,0,2.83-3.1,7.83,7.83,0,0,0,1-1.81,5.37,5.37,0,0,0,.34-1.89,3,3,0,0,0-.87-2.27,3.35,3.35,0,0,0-2.4-.83,6.2,6.2,0,0,0-2.11.36,8.61,8.61,0,0,0-2.21,1.33l-1.08-1.37A8.23,8.23,0,0,1,140.16,0a5.69,5.69,0,0,1,4,1.29,4.43,4.43,0,0,1,1.42,3.46,6.65,6.65,0,0,1-.95,3.36,21,21,0,0,1-3.56,4.2l-3.91,3.82v.1h9.18Z"/><path class="cls-2" d="M151.91,15.22l.18.28a29.37,29.37,0,0,1-.92,2.84c-.4,1.08-.81,2.08-1.24,3H148.4c.22-.85.46-1.89.73-3.14s.45-2.24.55-3Z"/><path class="cls-2" d="M155.19,10.5q0-5.26,2-7.87A7.23,7.23,0,0,1,163.28,0a7.86,7.86,0,0,1,2.18.24V2a7.11,7.11,0,0,0-2.15-.3,5.43,5.43,0,0,0-4.39,1.78c-1,1.2-1.56,3.07-1.66,5.63h.15A4.68,4.68,0,0,1,161.66,7a5,5,0,0,1,3.79,1.45,5.49,5.49,0,0,1,1.39,3.94,6.09,6.09,0,0,1-1.52,4.38,5.44,5.44,0,0,1-4.11,1.59,5.29,5.29,0,0,1-4.4-2.08A9.23,9.23,0,0,1,155.19,10.5Zm6,6.15a3.36,3.36,0,0,0,2.69-1.09,4.65,4.65,0,0,0,1-3.16,4,4,0,0,0-.89-2.78,3.33,3.33,0,0,0-2.66-1,4.49,4.49,0,0,0-2,.45,3.69,3.69,0,0,0-1.46,1.24,2.91,2.91,0,0,0-.55,1.65,5.7,5.7,0,0,0,.49,2.34A4.19,4.19,0,0,0,159.14,16,3.47,3.47,0,0,0,161.18,16.65Z"/><path class="cls-2" d="M174.85,7.23a6.56,6.56,0,0,1,4.44,1.39,4.81,4.81,0,0,1,1.62,3.83,5.55,5.55,0,0,1-1.76,4.35,7.06,7.06,0,0,1-4.87,1.57,9,9,0,0,1-4.6-1v-2a6.76,6.76,0,0,0,2.12.86,10.41,10.41,0,0,0,2.51.32,5,5,0,0,0,3.33-1,3.61,3.61,0,0,0,1.2-2.93q0-3.73-4.58-3.73a18.66,18.66,0,0,0-3.1.35l-1-.67.67-8.35h8.87V2.15h-7.14l-.45,5.36A14,14,0,0,1,174.85,7.23Z"/><path class="cls-2" d="M195.3,7.9q0,10.47-8.1,10.47a8.37,8.37,0,0,1-2.25-.24V16.38a7.21,7.21,0,0,0,2.22.32,5.4,5.4,0,0,0,4.43-1.81,9.24,9.24,0,0,0,1.63-5.56h-.15a4.36,4.36,0,0,1-1.78,1.54,5.8,5.8,0,0,1-2.5.53A5,5,0,0,1,185,10a5.42,5.42,0,0,1-1.4-4,6,6,0,0,1,1.56-4.39A5.42,5.42,0,0,1,189.3,0a5.52,5.52,0,0,1,3.18.94,6,6,0,0,1,2.09,2.72A11.06,11.06,0,0,1,195.3,7.9Zm-6-6.14a3.33,3.33,0,0,0-2.7,1.12A4.67,4.67,0,0,0,185.65,6a4.08,4.08,0,0,0,.87,2.76,3.38,3.38,0,0,0,2.68,1,4.62,4.62,0,0,0,2-.45,3.6,3.6,0,0,0,1.47-1.24,2.81,2.81,0,0,0,.54-1.63,5.62,5.62,0,0,0-.5-2.37,4.15,4.15,0,0,0-1.4-1.71A3.52,3.52,0,0,0,189.3,1.76Z"/><path class="cls-1" d="M3.27,28.78V26A1.1,1.1,0,0,0,3,25.23,1,1,0,0,0,2.29,25a1.21,1.21,0,0,0-1,.37A1.82,1.82,0,0,0,1,26.54v2.24H.34V22.7H1v1.84a4.11,4.11,0,0,1,0,.55H1a1.29,1.29,0,0,1,.54-.49,1.92,1.92,0,0,1,.81-.17,1.67,1.67,0,0,1,1.18.37A1.58,1.58,0,0,1,3.92,26v2.79Z"/><path class="cls-1" d="M9,26.63a2.38,2.38,0,0,1-.53,1.64A1.87,1.87,0,0,1,7,28.86a1.94,1.94,0,0,1-1-.27,1.81,1.81,0,0,1-.69-.78A2.7,2.7,0,0,1,5,26.63,2.37,2.37,0,0,1,5.54,25,1.83,1.83,0,0,1,7,24.42a1.82,1.82,0,0,1,1.43.6A2.35,2.35,0,0,1,9,26.63Zm-3.27,0A2,2,0,0,0,6,27.88a1.13,1.13,0,0,0,1,.43,1.15,1.15,0,0,0,1-.42,2.06,2.06,0,0,0,.33-1.26,2,2,0,0,0-.33-1.24A1.15,1.15,0,0,0,7,25a1.12,1.12,0,0,0-1,.42A2,2,0,0,0,5.68,26.63Z"/><path class="cls-1" d="M10.69,24.5v2.77a1.15,1.15,0,0,0,.24.79,1,1,0,0,0,.75.25,1.24,1.24,0,0,0,1-.36,1.86,1.86,0,0,0,.31-1.2V24.5h.65v4.28h-.54L13,28.2h0a1.19,1.19,0,0,1-.55.49,1.89,1.89,0,0,1-.81.17,1.67,1.67,0,0,1-1.17-.37A1.59,1.59,0,0,1,10,27.3V24.5Z"/><path class="cls-1" d="M17.75,27.61a1,1,0,0,1-.44.92,2.09,2.09,0,0,1-1.25.33,2.72,2.72,0,0,1-1.33-.27V28a3.71,3.71,0,0,0,.66.24,2.83,2.83,0,0,0,.68.09,1.58,1.58,0,0,0,.79-.16.53.53,0,0,0,.27-.49.53.53,0,0,0-.22-.43,3.15,3.15,0,0,0-.84-.42,4.43,4.43,0,0,1-.85-.39,1.15,1.15,0,0,1-.38-.38,1,1,0,0,1-.12-.5,1,1,0,0,1,.42-.83,2,2,0,0,1,1.17-.3,3.37,3.37,0,0,1,1.35.28l-.23.53A3.06,3.06,0,0,0,16.27,25a1.32,1.32,0,0,0-.7.15.43.43,0,0,0-.23.4.55.55,0,0,0,.08.29.89.89,0,0,0,.29.23,7.06,7.06,0,0,0,.75.32,3,3,0,0,1,1,.55A1,1,0,0,1,17.75,27.61Z"/><path class="cls-1" d="M20.62,28.86a2,2,0,0,1-1.5-.58,2.23,2.23,0,0,1-.55-1.61A2.48,2.48,0,0,1,19.08,25a1.69,1.69,0,0,1,1.37-.61,1.61,1.61,0,0,1,1.27.53,2,2,0,0,1,.47,1.4v.41h-3a1.73,1.73,0,0,0,.38,1.14,1.32,1.32,0,0,0,1,.39A3.51,3.51,0,0,0,22,28v.58a3.25,3.25,0,0,1-.65.21A3.21,3.21,0,0,1,20.62,28.86ZM20.44,25a1,1,0,0,0-.82.34,1.46,1.46,0,0,0-.36.93H21.5a1.44,1.44,0,0,0-.28-.94A1,1,0,0,0,20.44,25Z"/><path class="cls-1" d="M26.06,27.61a1.06,1.06,0,0,1-.45.92,2,2,0,0,1-1.25.33A2.68,2.68,0,0,1,23,28.59V28a3.21,3.21,0,0,0,.66.24,2.71,2.71,0,0,0,.68.09,1.51,1.51,0,0,0,.78-.16.53.53,0,0,0,.27-.49.54.54,0,0,0-.21-.43,3.44,3.44,0,0,0-.85-.42,4.75,4.75,0,0,1-.85-.39,1.11,1.11,0,0,1-.37-.38.91.91,0,0,1-.13-.5,1,1,0,0,1,.43-.83,2,2,0,0,1,1.17-.3A3.37,3.37,0,0,1,26,24.7l-.23.53A3.07,3.07,0,0,0,24.57,25a1.26,1.26,0,0,0-.69.15.44.44,0,0,0-.24.4.48.48,0,0,0,.09.29A.84.84,0,0,0,24,26a7.06,7.06,0,0,0,.75.32,2.85,2.85,0,0,1,1,.55A1,1,0,0,1,26.06,27.61Z"/><path class="cls-1" d="M30.57,28.32l.34,0,.25-.06v.5a1.23,1.23,0,0,1-.31.08,1.73,1.73,0,0,1-.37,0c-.83,0-1.24-.44-1.24-1.31V25h-.61v-.31l.61-.27.27-.91h.38v1h1.24V25H29.89v2.52a.85.85,0,0,0,.18.59A.63.63,0,0,0,30.57,28.32Z"/><path class="cls-1" d="M32.63,24.5v2.77a1.15,1.15,0,0,0,.23.79,1,1,0,0,0,.75.25,1.23,1.23,0,0,0,1-.36,1.86,1.86,0,0,0,.31-1.2V24.5h.65v4.28H35l-.1-.58h0a1.27,1.27,0,0,1-.56.49,1.85,1.85,0,0,1-.8.17,1.67,1.67,0,0,1-1.17-.37A1.59,1.59,0,0,1,32,27.3V24.5Z"/><path class="cls-1" d="M38.88,24.42a2.59,2.59,0,0,1,.51,0l-.09.6a2.16,2.16,0,0,0-.47-.06,1.16,1.16,0,0,0-.89.42,1.56,1.56,0,0,0-.37,1.05v2.3h-.64V24.5h.53l.08.79h0a1.79,1.79,0,0,1,.57-.64A1.3,1.3,0,0,1,38.88,24.42Z"/><path class="cls-1" d="M43.12,28.78V26a1.1,1.1,0,0,0-.24-.78,1,1,0,0,0-.74-.26,1.25,1.25,0,0,0-1,.36,1.86,1.86,0,0,0-.31,1.2v2.25h-.65V24.5h.53l.1.58h0a1.31,1.31,0,0,1,.55-.49,1.91,1.91,0,0,1,.8-.17,1.63,1.63,0,0,1,1.17.37,1.6,1.6,0,0,1,.39,1.2v2.79Z"/><path class="cls-1" d="M46.91,28.86a2,2,0,0,1-1.5-.58,2.28,2.28,0,0,1-.55-1.61A2.48,2.48,0,0,1,45.37,25a1.69,1.69,0,0,1,1.37-.61A1.64,1.64,0,0,1,48,25a2,2,0,0,1,.46,1.4v.41H45.54a1.63,1.63,0,0,0,.38,1.14,1.31,1.31,0,0,0,1,.39A3.51,3.51,0,0,0,48.3,28v.58a3.25,3.25,0,0,1-.65.21A3.15,3.15,0,0,1,46.91,28.86ZM46.73,25a1.05,1.05,0,0,0-.82.34,1.58,1.58,0,0,0-.36.93h2.24a1.44,1.44,0,0,0-.27-.94A1,1,0,0,0,46.73,25Z"/><path class="cls-1" d="M52.5,28.2h0a1.52,1.52,0,0,1-1.34.66,1.57,1.57,0,0,1-1.31-.58,2.51,2.51,0,0,1-.47-1.63A2.56,2.56,0,0,1,49.82,25a1.73,1.73,0,0,1,2.64,0h0l0-.31v-2h.65v6.08h-.53Zm-1.29.11a1.18,1.18,0,0,0,1-.36,1.81,1.81,0,0,0,.3-1.16v-.14a2.16,2.16,0,0,0-.3-1.3,1.17,1.17,0,0,0-1-.39,1,1,0,0,0-.87.45A2.12,2.12,0,0,0,50,26.66a2.14,2.14,0,0,0,.3,1.24A1,1,0,0,0,51.21,28.31Z"/><path class="cls-1" d="M60.27,26.63a2.38,2.38,0,0,1-.53,1.64,1.87,1.87,0,0,1-1.46.59,1.94,1.94,0,0,1-1-.27,1.81,1.81,0,0,1-.69-.78,2.7,2.7,0,0,1-.24-1.18A2.37,2.37,0,0,1,56.86,25a2.05,2.05,0,0,1,2.88,0A2.35,2.35,0,0,1,60.27,26.63Zm-3.27,0a2,2,0,0,0,.33,1.25,1.13,1.13,0,0,0,1,.43,1.15,1.15,0,0,0,1-.42,2.06,2.06,0,0,0,.33-1.26,2,2,0,0,0-.33-1.24,1.15,1.15,0,0,0-1-.42,1.12,1.12,0,0,0-1,.42A2,2,0,0,0,57,26.63Z"/><path class="cls-1" d="M62.34,28.78,60.71,24.5h.7L62.33,27c.21.59.33,1,.37,1.15h0c0-.14.12-.42.27-.85s.5-1.38,1-2.84h.69L63.1,28.78Z"/><path class="cls-1" d="M67.22,28.86a2,2,0,0,1-1.5-.58,2.23,2.23,0,0,1-.55-1.61A2.48,2.48,0,0,1,65.68,25a1.69,1.69,0,0,1,1.37-.61,1.61,1.61,0,0,1,1.27.53,2,2,0,0,1,.47,1.4v.41h-3a1.73,1.73,0,0,0,.38,1.14,1.32,1.32,0,0,0,1,.39A3.51,3.51,0,0,0,68.61,28v.58a3.25,3.25,0,0,1-.65.21A3.21,3.21,0,0,1,67.22,28.86ZM67,25a1,1,0,0,0-.82.34,1.58,1.58,0,0,0-.36.93H68.1a1.39,1.39,0,0,0-.28-.94A1,1,0,0,0,67,25Z"/><path class="cls-1" d="M71.85,24.42a2.59,2.59,0,0,1,.51,0l-.09.6A2.09,2.09,0,0,0,71.8,25a1.13,1.13,0,0,0-.88.42,1.51,1.51,0,0,0-.37,1.05v2.3H69.9V24.5h.53l.08.79h0a1.89,1.89,0,0,1,.57-.64A1.32,1.32,0,0,1,71.85,24.42Z"/><path class="cls-1" d="M77.23,24.43a1.62,1.62,0,0,1,1.32.57A2.55,2.55,0,0,1,79,26.63a2.56,2.56,0,0,1-.47,1.64,1.59,1.59,0,0,1-1.31.59,1.76,1.76,0,0,1-.76-.16,1.46,1.46,0,0,1-.58-.47h0l-.13.55h-.47V22.7h.65v1.48c0,.33,0,.62,0,.89h0A1.53,1.53,0,0,1,77.23,24.43Zm-.09.54a1.16,1.16,0,0,0-1,.38,2.17,2.17,0,0,0-.29,1.28,2.16,2.16,0,0,0,.3,1.3,1.17,1.17,0,0,0,1,.38,1,1,0,0,0,.89-.43,2.29,2.29,0,0,0,.29-1.25,2.2,2.2,0,0,0-.29-1.25A1.06,1.06,0,0,0,77.14,25Z"/><path class="cls-1" d="M79.46,24.5h.7l.94,2.44a10.25,10.25,0,0,1,.38,1.21h0l.21-.69c.11-.32.47-1.31,1.07-3h.69l-1.84,4.87a2.37,2.37,0,0,1-.64,1,1.35,1.35,0,0,1-.89.3,2.32,2.32,0,0,1-.59-.07v-.52a1.77,1.77,0,0,0,.48.05,1,1,0,0,0,1-.75l.24-.61Z"/><path class="cls-1" d="M7.73,36.26a1.44,1.44,0,0,1-.55,1.18,2.39,2.39,0,0,1-1.48.42,3.84,3.84,0,0,1-1.57-.26V37a4.34,4.34,0,0,0,.77.24,3.8,3.8,0,0,0,.82.08,1.66,1.66,0,0,0,1-.25.83.83,0,0,0,.33-.7,1,1,0,0,0-.11-.48,1.08,1.08,0,0,0-.4-.35,5.8,5.8,0,0,0-.85-.37,2.74,2.74,0,0,1-1.14-.67,1.48,1.48,0,0,1-.34-1,1.26,1.26,0,0,1,.49-1A2.07,2.07,0,0,1,6,32a3.81,3.81,0,0,1,1.56.31l-.2.58A3.55,3.55,0,0,0,6,32.58a1.31,1.31,0,0,0-.82.23.74.74,0,0,0-.3.63,1,1,0,0,0,.11.48,1,1,0,0,0,.37.35,5.35,5.35,0,0,0,.79.35,3.09,3.09,0,0,1,1.24.69A1.36,1.36,0,0,1,7.73,36.26Z"/><path class="cls-1" d="M11.42,37.78,9.48,32.72h0c0,.4.06.87.06,1.43v3.63H8.89V32.07h1l1.81,4.71h0l1.83-4.71h1v5.71h-.66V34.1c0-.42,0-.88,0-1.38h0L12,37.78Z"/><path class="cls-1" d="M20.64,32.58a1.88,1.88,0,0,0-1.49.63,2.52,2.52,0,0,0-.54,1.71,2.6,2.6,0,0,0,.52,1.74,1.89,1.89,0,0,0,1.5.61A4.91,4.91,0,0,0,22,37.05v.58a4.2,4.2,0,0,1-1.47.23,2.49,2.49,0,0,1-2-.77,3.17,3.17,0,0,1-.68-2.17,3.44,3.44,0,0,1,.33-1.55,2.35,2.35,0,0,1,.95-1A2.91,2.91,0,0,1,20.65,32a3.67,3.67,0,0,1,1.57.32l-.28.57A3.08,3.08,0,0,0,20.64,32.58Z"/><path class="cls-1" d="M25.78,37.78l-.13-.61h0a1.79,1.79,0,0,1-.64.54,1.87,1.87,0,0,1-.8.15,1.41,1.41,0,0,1-1-.33,1.17,1.17,0,0,1-.37-.93c0-.87.7-1.32,2.08-1.36l.73,0V35a1.12,1.12,0,0,0-.22-.75.91.91,0,0,0-.7-.24,2.83,2.83,0,0,0-1.21.33l-.2-.5a3.91,3.91,0,0,1,.7-.27,3.2,3.2,0,0,1,.75-.09,1.64,1.64,0,0,1,1.14.34,1.43,1.43,0,0,1,.37,1.09v2.92Zm-1.47-.46a1.31,1.31,0,0,0,1-.33,1.23,1.23,0,0,0,.35-.93v-.39l-.65,0a2.37,2.37,0,0,0-1.11.24.72.72,0,0,0-.35.66.65.65,0,0,0,.22.54A.89.89,0,0,0,24.31,37.32Z"/><path class="cls-1" d="M29.55,33.42a2.59,2.59,0,0,1,.51,0l-.09.6A2.23,2.23,0,0,0,29.5,34a1.15,1.15,0,0,0-.89.42,1.56,1.56,0,0,0-.37,1v2.3h-.65V33.5h.54l.07.79h0a1.81,1.81,0,0,1,.58-.64A1.3,1.3,0,0,1,29.55,33.42Z"/><path class="cls-1" d="M32.67,37.86a2,2,0,0,1-1.5-.58,2.23,2.23,0,0,1-.55-1.61A2.48,2.48,0,0,1,31.13,34a1.69,1.69,0,0,1,1.37-.61,1.61,1.61,0,0,1,1.27.53,2,2,0,0,1,.47,1.4v.41h-3a1.73,1.73,0,0,0,.38,1.14,1.32,1.32,0,0,0,1,.39A3.51,3.51,0,0,0,34.06,37v.58a3.25,3.25,0,0,1-.65.21A3.21,3.21,0,0,1,32.67,37.86ZM32.49,34a1,1,0,0,0-.82.34,1.46,1.46,0,0,0-.36.93h2.24a1.39,1.39,0,0,0-.28-.94A1,1,0,0,0,32.49,34Z"/><path class="cls-1" d="M38.11,36.61a1.06,1.06,0,0,1-.45.92,2,2,0,0,1-1.25.33,2.68,2.68,0,0,1-1.32-.27V37a3.21,3.21,0,0,0,.66.24,2.71,2.71,0,0,0,.68.09,1.51,1.51,0,0,0,.78-.16.53.53,0,0,0,.27-.49.54.54,0,0,0-.21-.43,3.44,3.44,0,0,0-.85-.42,4.75,4.75,0,0,1-.85-.39,1.11,1.11,0,0,1-.37-.38,1,1,0,0,1-.13-.5,1,1,0,0,1,.43-.83,2,2,0,0,1,1.17-.3A3.37,3.37,0,0,1,38,33.7l-.23.53A3.07,3.07,0,0,0,36.62,34a1.26,1.26,0,0,0-.69.15.44.44,0,0,0-.24.4.48.48,0,0,0,.09.29.84.84,0,0,0,.28.23,7.06,7.06,0,0,0,.75.32,2.85,2.85,0,0,1,1,.55A1,1,0,0,1,38.11,36.61Z"/><path class="cls-1" d="M43.17,34H42.08v3.78h-.65V34h-.76v-.29l.76-.24v-.23c0-1.06.46-1.58,1.38-1.58a2.87,2.87,0,0,1,.8.13l-.17.52a2.14,2.14,0,0,0-.64-.12.61.61,0,0,0-.54.25,1.32,1.32,0,0,0-.18.78v.28h1.09Z"/><path class="cls-1" d="M47.65,35.63a2.38,2.38,0,0,1-.53,1.64,1.87,1.87,0,0,1-1.46.59,1.94,1.94,0,0,1-1-.27,1.79,1.79,0,0,1-.68-.78,2.7,2.7,0,0,1-.25-1.18A2.37,2.37,0,0,1,44.24,34a1.84,1.84,0,0,1,1.45-.58,1.81,1.81,0,0,1,1.43.6A2.35,2.35,0,0,1,47.65,35.63Zm-3.26,0a2.07,2.07,0,0,0,.32,1.25,1.15,1.15,0,0,0,1,.43,1.17,1.17,0,0,0,1-.42A2.06,2.06,0,0,0,47,35.63a2,2,0,0,0-.33-1.24,1.17,1.17,0,0,0-1-.42,1.15,1.15,0,0,0-1,.42A2,2,0,0,0,44.39,35.63Z"/><path class="cls-1" d="M50.74,33.42a2.59,2.59,0,0,1,.51,0l-.09.6a2.16,2.16,0,0,0-.47-.06,1.15,1.15,0,0,0-.89.42,1.56,1.56,0,0,0-.37,1v2.3h-.64V33.5h.53l.07.79h0a1.79,1.79,0,0,1,.57-.64A1.3,1.3,0,0,1,50.74,33.42Z"/><path class="cls-1" d="M55.68,34.92l1.52-2.85h.72L56,35.56v2.22h-.68V35.6l-1.9-3.53h.73Z"/><path class="cls-1" d="M62.3,35.63a2.37,2.37,0,0,1-.52,1.64,1.87,1.87,0,0,1-1.46.59,1.94,1.94,0,0,1-1-.27,1.75,1.75,0,0,1-.69-.78,2.7,2.7,0,0,1-.24-1.18A2.41,2.41,0,0,1,58.89,34a1.86,1.86,0,0,1,1.46-.58,1.82,1.82,0,0,1,1.43.6A2.34,2.34,0,0,1,62.3,35.63Zm-3.26,0a2,2,0,0,0,.33,1.25,1.13,1.13,0,0,0,1,.43,1.15,1.15,0,0,0,1-.42,2.06,2.06,0,0,0,.33-1.26,2,2,0,0,0-.33-1.24,1.15,1.15,0,0,0-1-.42,1.12,1.12,0,0,0-1,.42A2,2,0,0,0,59,35.63Z"/><path class="cls-1" d="M64.09,37.78h-.65V31.7h.65Z"/><path class="cls-1" d="M68.1,37.78,68,37.17h0a1.79,1.79,0,0,1-.64.54,1.87,1.87,0,0,1-.8.15,1.41,1.41,0,0,1-1-.33,1.17,1.17,0,0,1-.37-.93c0-.87.7-1.32,2.08-1.36l.73,0V35a1.12,1.12,0,0,0-.22-.75A.9.9,0,0,0,67,34a2.83,2.83,0,0,0-1.22.33l-.19-.5a3.54,3.54,0,0,1,.69-.27,3.2,3.2,0,0,1,.75-.09,1.64,1.64,0,0,1,1.14.34,1.4,1.4,0,0,1,.37,1.09v2.92Zm-1.47-.46a1.31,1.31,0,0,0,1-.33,1.23,1.23,0,0,0,.35-.93v-.39l-.65,0a2.37,2.37,0,0,0-1.11.24.72.72,0,0,0-.35.66.65.65,0,0,0,.22.54A.89.89,0,0,0,66.63,37.32Z"/><path class="cls-1" d="M72.84,37.78V35a1.15,1.15,0,0,0-.23-.78,1,1,0,0,0-.75-.26,1.21,1.21,0,0,0-1,.36,1.85,1.85,0,0,0-.32,1.2v2.25h-.65V33.5h.53l.11.58h0a1.34,1.34,0,0,1,.56-.49,1.88,1.88,0,0,1,.8-.17A1.36,1.36,0,0,1,73.49,35v2.79Z"/><path class="cls-1" d="M77.74,37.2h0a1.51,1.51,0,0,1-1.34.66,1.58,1.58,0,0,1-1.31-.58,2.51,2.51,0,0,1-.46-1.63A2.56,2.56,0,0,1,75.05,34a1.74,1.74,0,0,1,2.65,0h0l0-.31,0-.3V31.7h.65v6.08h-.53Zm-1.3.11a1.17,1.17,0,0,0,1-.36,1.81,1.81,0,0,0,.3-1.16v-.14a2.16,2.16,0,0,0-.3-1.3,1.14,1.14,0,0,0-1-.39,1,1,0,0,0-.87.45,2.2,2.2,0,0,0-.3,1.25,2.14,2.14,0,0,0,.3,1.24A1,1,0,0,0,76.44,37.31Z"/><path class="cls-1" d="M82.36,37.78l-.13-.61h0a1.71,1.71,0,0,1-.64.54,1.86,1.86,0,0,1-.79.15,1.42,1.42,0,0,1-1-.33,1.2,1.2,0,0,1-.36-.93c0-.87.69-1.32,2.07-1.36l.73,0V35A1.12,1.12,0,0,0,82,34.2.89.89,0,0,0,81.3,34a2.8,2.8,0,0,0-1.21.33l-.2-.5a3.54,3.54,0,0,1,.69-.27,3.22,3.22,0,0,1,.76-.09,1.61,1.61,0,0,1,1.13.34,1.4,1.4,0,0,1,.37,1.09v2.92Zm-1.47-.46a1.33,1.33,0,0,0,1-.33,1.22,1.22,0,0,0,.34-.93v-.39l-.65,0a2.41,2.41,0,0,0-1.11.24.71.71,0,0,0-.34.66.67.67,0,0,0,.21.54A.89.89,0,0,0,80.89,37.32Z"/><path class="cls-1" d="M29.7,46.78H29V44.09H26v2.69h-.66V41.07H26V43.5h3V41.07h.67Z"/><path class="cls-1" d="M34.86,44.63a2.38,2.38,0,0,1-.53,1.64,1.86,1.86,0,0,1-1.45.59,1.89,1.89,0,0,1-1-.27,1.75,1.75,0,0,1-.69-.78,2.7,2.7,0,0,1-.24-1.18A2.36,2.36,0,0,1,31.45,43a1.84,1.84,0,0,1,1.45-.58,1.81,1.81,0,0,1,1.43.6A2.35,2.35,0,0,1,34.86,44.63Zm-3.26,0a2,2,0,0,0,.33,1.25,1.12,1.12,0,0,0,1,.43,1.17,1.17,0,0,0,1-.42,2.06,2.06,0,0,0,.33-1.26,2,2,0,0,0-.33-1.24,1.17,1.17,0,0,0-1-.42,1.15,1.15,0,0,0-1,.42A2,2,0,0,0,31.6,44.63Z"/><path class="cls-1" d="M36.61,42.5v2.77a1.15,1.15,0,0,0,.23.79,1,1,0,0,0,.75.25,1.21,1.21,0,0,0,1-.36,1.86,1.86,0,0,0,.31-1.2V42.5h.65v4.28H39l-.1-.58h0a1.27,1.27,0,0,1-.56.49,1.85,1.85,0,0,1-.8.17,1.67,1.67,0,0,1-1.17-.37A1.59,1.59,0,0,1,36,45.3V42.5Z"/><path class="cls-1" d="M43.67,45.61a1.06,1.06,0,0,1-.45.92,2,2,0,0,1-1.25.33,2.72,2.72,0,0,1-1.33-.27V46a3.54,3.54,0,0,0,.67.24,2.71,2.71,0,0,0,.68.09,1.51,1.51,0,0,0,.78-.16.53.53,0,0,0,.27-.49.54.54,0,0,0-.21-.43,3.44,3.44,0,0,0-.85-.42,4.75,4.75,0,0,1-.85-.39,1.11,1.11,0,0,1-.37-.38.91.91,0,0,1-.13-.5,1,1,0,0,1,.43-.83,2,2,0,0,1,1.17-.3,3.37,3.37,0,0,1,1.35.28l-.23.53A3.07,3.07,0,0,0,42.18,43a1.32,1.32,0,0,0-.7.15.45.45,0,0,0-.23.4.48.48,0,0,0,.09.29.84.84,0,0,0,.28.23,7.06,7.06,0,0,0,.75.32,2.85,2.85,0,0,1,1,.55A1,1,0,0,1,43.67,45.61Z"/><path class="cls-1" d="M44.67,41.34a.41.41,0,0,1,.11-.33.36.36,0,0,1,.27-.1.39.39,0,0,1,.27.1.41.41,0,0,1,.11.33.4.4,0,0,1-.11.32.36.36,0,0,1-.27.11.33.33,0,0,1-.27-.11A.4.4,0,0,1,44.67,41.34Zm.7,5.44h-.65V42.5h.65Z"/><path class="cls-1" d="M49.68,46.78V44a1.1,1.1,0,0,0-.24-.78,1,1,0,0,0-.75-.26,1.23,1.23,0,0,0-1,.36,1.85,1.85,0,0,0-.32,1.2v2.25h-.64V42.5h.52l.11.58h0a1.34,1.34,0,0,1,.56-.49,1.88,1.88,0,0,1,.8-.17A1.36,1.36,0,0,1,50.32,44v2.79Z"/><path class="cls-1" d="M55.16,42.5v.41l-.79.09a1.21,1.21,0,0,1,.19.36,1.31,1.31,0,0,1,.09.5,1.25,1.25,0,0,1-.43,1,1.74,1.74,0,0,1-1.18.38,1.37,1.37,0,0,1-.36,0,.63.63,0,0,0-.41.56.28.28,0,0,0,.14.26,1.17,1.17,0,0,0,.5.08h.75a1.73,1.73,0,0,1,1.07.29,1,1,0,0,1,.38.85,1.22,1.22,0,0,1-.57,1.09,3.09,3.09,0,0,1-1.67.37,2.24,2.24,0,0,1-1.29-.31,1.06,1.06,0,0,1-.21-1.56,1.3,1.3,0,0,1,.7-.39.6.6,0,0,1-.27-.23.55.55,0,0,1-.11-.36.71.71,0,0,1,.12-.41,1.4,1.4,0,0,1,.4-.34,1.12,1.12,0,0,1-.54-.47,1.32,1.32,0,0,1-.21-.75,1.39,1.39,0,0,1,.42-1.08,1.73,1.73,0,0,1,1.19-.38,2.25,2.25,0,0,1,.61.08Zm-3.41,5A.55.55,0,0,0,52,48a1.59,1.59,0,0,0,.84.18A2.39,2.39,0,0,0,54.09,48a.74.74,0,0,0,.39-.66.53.53,0,0,0-.21-.48,1.69,1.69,0,0,0-.81-.14h-.78a1,1,0,0,0-.69.21A.76.76,0,0,0,51.75,47.5Zm.35-3.63a.88.88,0,0,0,.25.68,1,1,0,0,0,.71.23.83.83,0,0,0,.95-.92.85.85,0,0,0-1-1,1,1,0,0,0-.71.25A1,1,0,0,0,52.1,43.87Z"/><path class="cls-1" d="M61.84,42.73a1.61,1.61,0,0,1-.6,1.34,2.66,2.66,0,0,1-1.69.46h-.67v2.25h-.67V41.07H59.7C61.12,41.07,61.84,41.62,61.84,42.73Zm-3,1.23h.6a2.21,2.21,0,0,0,1.27-.28,1,1,0,0,0,.4-.92,1,1,0,0,0-.37-.84,1.93,1.93,0,0,0-1.16-.28h-.74Z"/><path class="cls-1" d="M64.89,42.42a2.59,2.59,0,0,1,.51,0l-.09.6a2.23,2.23,0,0,0-.47-.06,1.15,1.15,0,0,0-.89.42,1.56,1.56,0,0,0-.37,1v2.3h-.65V42.5h.54l.07.79h0a1.81,1.81,0,0,1,.58-.64A1.3,1.3,0,0,1,64.89,42.42Z"/><path class="cls-1" d="M69.89,44.63a2.37,2.37,0,0,1-.52,1.64,1.87,1.87,0,0,1-1.46.59,1.94,1.94,0,0,1-1-.27,1.75,1.75,0,0,1-.69-.78A2.7,2.7,0,0,1,66,44.63,2.36,2.36,0,0,1,66.48,43a1.86,1.86,0,0,1,1.46-.58,1.82,1.82,0,0,1,1.43.6A2.34,2.34,0,0,1,69.89,44.63Zm-3.26,0A2,2,0,0,0,67,45.88a1.13,1.13,0,0,0,1,.43,1.15,1.15,0,0,0,1-.42,2.06,2.06,0,0,0,.33-1.26,2,2,0,0,0-.33-1.24,1.15,1.15,0,0,0-1-.42,1.12,1.12,0,0,0-1,.42A2,2,0,0,0,66.63,44.63Z"/><path class="cls-1" d="M70.51,48.7a1.44,1.44,0,0,1-.6-.1v-.52a2,2,0,0,0,.53.07.58.58,0,0,0,.45-.16.8.8,0,0,0,.14-.51v-5h.65v4.94Q71.68,48.7,70.51,48.7ZM71,41.34a.41.41,0,0,1,.11-.33.36.36,0,0,1,.27-.1.39.39,0,0,1,.27.1.45.45,0,0,1,.11.33.44.44,0,0,1-.11.32.36.36,0,0,1-.27.11.33.33,0,0,1-.27-.11A.4.4,0,0,1,71,41.34Z"/><path class="cls-1" d="M74.86,46.86a2,2,0,0,1-1.49-.58,2.23,2.23,0,0,1-.55-1.61A2.48,2.48,0,0,1,73.33,43a1.68,1.68,0,0,1,1.37-.61A1.62,1.62,0,0,1,76,43a2,2,0,0,1,.47,1.4v.41h-3a1.68,1.68,0,0,0,.38,1.14,1.32,1.32,0,0,0,1,.39A3.46,3.46,0,0,0,76.25,46v.58a3.06,3.06,0,0,1-.65.21A3.15,3.15,0,0,1,74.86,46.86ZM74.69,43a1,1,0,0,0-.82.34,1.52,1.52,0,0,0-.37.93h2.24a1.44,1.44,0,0,0-.27-.94A1,1,0,0,0,74.69,43Z"/><path class="cls-1" d="M79.25,46.86a1.81,1.81,0,0,1-1.44-.58,2.34,2.34,0,0,1-.51-1.61A2.44,2.44,0,0,1,77.82,43a1.85,1.85,0,0,1,1.48-.59,2.54,2.54,0,0,1,.61.07,1.91,1.91,0,0,1,.49.15l-.2.55a4.41,4.41,0,0,0-.47-.14,2,2,0,0,0-.45-.06c-.87,0-1.3.56-1.3,1.67a1.94,1.94,0,0,0,.32,1.21,1.1,1.1,0,0,0,.94.42,3,3,0,0,0,1.1-.23v.57A2.35,2.35,0,0,1,79.25,46.86Z"/><path class="cls-1" d="M82.73,46.32l.34,0,.25-.06v.5a1.23,1.23,0,0,1-.31.08,1.73,1.73,0,0,1-.37,0c-.83,0-1.24-.44-1.24-1.31V43h-.61v-.31l.61-.27.27-.91h.38v1h1.24V43H82.05v2.52a.85.85,0,0,0,.18.59A.63.63,0,0,0,82.73,46.32Z"/><path class="cls-2" d="M29.9,18.13h-2V5.41c0-1.06,0-2.06.1-3a7.82,7.82,0,0,1-.58.54c-.21.19-1.18,1-2.9,2.38L23.46,3.93,28.19.28H29.9Z"/><path class="cls-2" d="M39.74,15.22l.18.28c-.21.82-.52,1.76-.91,2.84s-.82,2.08-1.25,3H36.23c.22-.85.47-1.89.73-3.14s.45-2.24.56-3Z"/><path class="cls-2" d="M54.64,9.18c0,3.08-.48,5.39-1.46,6.91a4.93,4.93,0,0,1-4.46,2.28A4.88,4.88,0,0,1,44.34,16c-1-1.55-1.5-3.84-1.5-6.85s.48-5.42,1.45-6.92A4.9,4.9,0,0,1,48.72,0a4.9,4.9,0,0,1,4.41,2.36Q54.65,4.72,54.64,9.18Zm-9.75,0a13.06,13.06,0,0,0,.91,5.67,3.29,3.29,0,0,0,5.86,0,13.3,13.3,0,0,0,.91-5.65,13.16,13.16,0,0,0-.91-5.63,3.31,3.31,0,0,0-5.86,0A13,13,0,0,0,44.89,9.18Z"/><path class="cls-2" d="M68.94,9.18c0,3.08-.49,5.39-1.46,6.91A5.39,5.39,0,0,1,58.63,16c-1-1.55-1.5-3.84-1.5-6.85s.49-5.42,1.46-6.92A4.88,4.88,0,0,1,63,0a4.93,4.93,0,0,1,4.41,2.36A12.75,12.75,0,0,1,68.94,9.18Zm-9.76,0a13,13,0,0,0,.92,5.67,3.28,3.28,0,0,0,5.85,0,13.14,13.14,0,0,0,.91-5.65A13,13,0,0,0,66,3.55a3.3,3.3,0,0,0-5.85,0A13,13,0,0,0,59.18,9.18Z"/><path class="cls-2" d="M83.23,9.18c0,3.08-.49,5.39-1.46,6.91A5.38,5.38,0,0,1,72.93,16c-1-1.55-1.5-3.84-1.5-6.85s.48-5.42,1.45-6.92a5.38,5.38,0,0,1,8.84.1Q83.24,4.72,83.23,9.18Zm-9.75,0a13.06,13.06,0,0,0,.91,5.67,3.29,3.29,0,0,0,5.86,0,13.3,13.3,0,0,0,.91-5.65,13.16,13.16,0,0,0-.91-5.63,3.31,3.31,0,0,0-5.86,0A13,13,0,0,0,73.48,9.18Z"/></g></svg>