<svg xmlns="http://www.w3.org/2000/svg" viewBox="0 0 266.88 100.57"><defs><style>.cls-1{fill:#ee8122;}.cls-2{fill:#fff;}.cls-3{fill:#4d4e50;}.cls-4{fill:#f99d25;}.cls-5{fill:#f99e26;}</style></defs><g id="Layer_3" data-name="Layer 3"><rect class="cls-1" x="84.64" y="1" width="182.24" height="44.23"/><path class="cls-2" d="M102.66,20.83v-10h1.16v10Z"/><path class="cls-2" d="M111.52,20.83V16a2,2,0,0,0-.42-1.37,1.69,1.69,0,0,0-1.3-.45,2.15,2.15,0,0,0-1.73.64,3.23,3.23,0,0,0-.54,2.1v3.93h-1.14v-7.5h.93l.18,1h0a2.34,2.34,0,0,1,1-.86,3.23,3.23,0,0,1,1.4-.3,2.84,2.84,0,0,1,2,.65,2.75,2.75,0,0,1,.68,2.09v4.89Z"/><path class="cls-2" d="M118.36,14.22h-1.91v6.61h-1.13V14.22H114V13.7l1.34-.41v-.41c0-1.85.8-2.77,2.41-2.77a5,5,0,0,1,1.4.24l-.3.91a3.74,3.74,0,0,0-1.12-.21,1.08,1.08,0,0,0-.95.43,2.41,2.41,0,0,0-.31,1.37v.48h1.91Z"/><path class="cls-2" d="M123.15,13.2a4,4,0,0,1,.89.08l-.15,1.05a3.79,3.79,0,0,0-.82-.1,2,2,0,0,0-1.56.74,2.69,2.69,0,0,0-.65,1.84v4h-1.13v-7.5h.93l.14,1.39h0a3.36,3.36,0,0,1,1-1.13A2.33,2.33,0,0,1,123.15,13.2Z"/><path class="cls-2" d="M130.05,20.83l-.22-1.07h-.06a3.05,3.05,0,0,1-1.12.95,3.32,3.32,0,0,1-1.39.25,2.5,2.5,0,0,1-1.74-.57,2.07,2.07,0,0,1-.64-1.64q0-2.27,3.63-2.37l1.27-.05v-.46a1.9,1.9,0,0,0-.37-1.3,1.58,1.58,0,0,0-1.22-.42,5,5,0,0,0-2.12.57l-.35-.87a5.72,5.72,0,0,1,1.22-.47,5.43,5.43,0,0,1,1.32-.17,2.85,2.85,0,0,1,2,.6,2.46,2.46,0,0,1,.64,1.9v5.12Zm-2.56-.8a2.33,2.33,0,0,0,1.66-.58,2.13,2.13,0,0,0,.61-1.63v-.68l-1.14.05a4.09,4.09,0,0,0-2,.42,1.26,1.26,0,0,0-.6,1.16,1.15,1.15,0,0,0,.38.93A1.49,1.49,0,0,0,127.49,20Z"/><path class="cls-2" d="M138.06,18.78a1.89,1.89,0,0,1-.78,1.62,3.7,3.7,0,0,1-2.18.56,4.71,4.71,0,0,1-2.33-.47v-1a6.16,6.16,0,0,0,1.16.43,5.07,5.07,0,0,0,1.19.16,2.69,2.69,0,0,0,1.37-.29.93.93,0,0,0,.48-.86,1,1,0,0,0-.38-.75,6.12,6.12,0,0,0-1.48-.74,7.79,7.79,0,0,1-1.49-.68,1.94,1.94,0,0,1-.65-.66,1.64,1.64,0,0,1-.22-.88,1.66,1.66,0,0,1,.75-1.44,3.39,3.39,0,0,1,2-.53,6,6,0,0,1,2.37.49l-.41.92a5.39,5.39,0,0,0-2-.46,2.34,2.34,0,0,0-1.22.25.83.83,0,0,0-.25,1.21,1.37,1.37,0,0,0,.49.4,10.73,10.73,0,0,0,1.31.56,4.94,4.94,0,0,1,1.8,1A1.71,1.71,0,0,1,138.06,18.78Z"/><path class="cls-2" d="M142.33,20a3.68,3.68,0,0,0,.58-.05l.44-.09v.87a2,2,0,0,1-.54.15,5.27,5.27,0,0,1-.65.05c-1.44,0-2.17-.76-2.17-2.29V14.22h-1.07v-.55L140,13.2l.48-1.6h.66v1.73h2.17v.89h-2.17v4.4a1.47,1.47,0,0,0,.32,1A1.08,1.08,0,0,0,142.33,20Z"/><path class="cls-2" d="M148.27,13.2a4,4,0,0,1,.89.08L149,14.33a3.79,3.79,0,0,0-.82-.1,2,2,0,0,0-1.56.74,2.68,2.68,0,0,0-.64,1.84v4h-1.14v-7.5h.94l.13,1.39H146a3.28,3.28,0,0,1,1-1.13A2.28,2.28,0,0,1,148.27,13.2Z"/><path class="cls-2" d="M151.63,13.33v4.86a1.94,1.94,0,0,0,.42,1.37,1.69,1.69,0,0,0,1.3.45,2.11,2.11,0,0,0,1.72-.64,3.2,3.2,0,0,0,.55-2.1V13.33h1.13v7.5h-.93l-.17-1h-.06a2.24,2.24,0,0,1-1,.85,3.32,3.32,0,0,1-1.41.29,2.85,2.85,0,0,1-2.05-.65,2.76,2.76,0,0,1-.68-2.07V13.33Z"/><path class="cls-2" d="M162.15,21a3.2,3.2,0,0,1-2.52-1,4.14,4.14,0,0,1-.89-2.83,4.23,4.23,0,0,1,.91-2.91,3.26,3.26,0,0,1,2.58-1,5.65,5.65,0,0,1,1.08.11,3.51,3.51,0,0,1,.85.28l-.35,1a6.07,6.07,0,0,0-.82-.25,4.15,4.15,0,0,0-.79-.1q-2.28,0-2.28,2.91a3.48,3.48,0,0,0,.55,2.12,2,2,0,0,0,1.66.74,5,5,0,0,0,1.92-.4v1A4.15,4.15,0,0,1,162.15,21Z"/><path class="cls-2" d="M168.24,20a3.81,3.81,0,0,0,.59-.05l.44-.09v.87a2.12,2.12,0,0,1-.54.15,5.42,5.42,0,0,1-.65.05c-1.45,0-2.17-.76-2.17-2.29V14.22h-1.08v-.55l1.08-.47.47-1.6H167v1.73h2.17v.89H167v4.4a1.52,1.52,0,0,0,.32,1A1.11,1.11,0,0,0,168.24,20Z"/><path class="cls-2" d="M171.83,13.33v4.86a1.94,1.94,0,0,0,.42,1.37,1.7,1.7,0,0,0,1.31.45,2.11,2.11,0,0,0,1.71-.64,3.2,3.2,0,0,0,.55-2.1V13.33H177v7.5H176l-.17-1h-.06a2.24,2.24,0,0,1-1,.85,3.32,3.32,0,0,1-1.41.29,2.85,2.85,0,0,1-2-.65,2.76,2.76,0,0,1-.68-2.07V13.33Z"/><path class="cls-2" d="M182.78,13.2a4,4,0,0,1,.89.08l-.16,1.05a3.72,3.72,0,0,0-.82-.1,2,2,0,0,0-1.55.74,2.69,2.69,0,0,0-.65,1.84v4h-1.13v-7.5h.94l.12,1.39h.06a3.28,3.28,0,0,1,1-1.13A2.28,2.28,0,0,1,182.78,13.2Z"/><path class="cls-2" d="M188.24,21a3.41,3.41,0,0,1-2.62-1,3.91,3.91,0,0,1-1-2.81,4.31,4.31,0,0,1,.89-2.88,3,3,0,0,1,2.39-1.06,2.84,2.84,0,0,1,2.23.92,3.56,3.56,0,0,1,.82,2.45v.71h-5.16a3,3,0,0,0,.67,2,2.31,2.31,0,0,0,1.78.68,6.14,6.14,0,0,0,2.39-.5v1a5.79,5.79,0,0,1-1.14.37A6,6,0,0,1,188.24,21Zm-.31-6.81a1.84,1.84,0,0,0-1.44.59,2.65,2.65,0,0,0-.63,1.62h3.92a2.49,2.49,0,0,0-.48-1.64A1.7,1.7,0,0,0,187.93,14.15Z"/><path class="cls-2" d="M196.74,10.83h2.82a5.31,5.31,0,0,1,2.88.6,2.09,2.09,0,0,1,.89,1.88,2.16,2.16,0,0,1-.5,1.46,2.33,2.33,0,0,1-1.45.75v.07c1.52.26,2.28,1.06,2.28,2.39a2.54,2.54,0,0,1-.91,2.09,3.78,3.78,0,0,1-2.53.76h-3.48Zm1.16,4.28h1.91a3.18,3.18,0,0,0,1.77-.38,1.51,1.51,0,0,0,.54-1.31,1.32,1.32,0,0,0-.6-1.21,3.74,3.74,0,0,0-1.91-.37H197.9Zm0,1v3.73H200a3,3,0,0,0,1.82-.46,1.74,1.74,0,0,0,.62-1.47,1.55,1.55,0,0,0-.63-1.37,3.36,3.36,0,0,0-1.9-.43Z"/><path class="cls-2" d="M206.7,13.33v4.86a1.94,1.94,0,0,0,.42,1.37,1.69,1.69,0,0,0,1.3.45,2.11,2.11,0,0,0,1.72-.64,3.2,3.2,0,0,0,.55-2.1V13.33h1.13v7.5h-.93l-.17-1h-.06a2.24,2.24,0,0,1-1,.85,3.32,3.32,0,0,1-1.41.29,2.85,2.85,0,0,1-2.05-.65,2.76,2.76,0,0,1-.68-2.07V13.33Z"/><path class="cls-2" d="M214.13,11.3a.74.74,0,0,1,.2-.57.64.64,0,0,1,.47-.18.63.63,0,0,1,.47.19.7.7,0,0,1,.2.56.71.71,0,0,1-.2.57.63.63,0,0,1-.47.19.61.61,0,0,1-.47-.19A.74.74,0,0,1,214.13,11.3Zm1.23,9.53h-1.13v-7.5h1.13Z"/><path class="cls-2" d="M218.91,20.83h-1.14V10.19h1.14Z"/><path class="cls-2" d="M226.41,19.82h-.06A2.66,2.66,0,0,1,224,21a2.78,2.78,0,0,1-2.29-1,4.45,4.45,0,0,1-.82-2.86,4.57,4.57,0,0,1,.82-2.88,2.78,2.78,0,0,1,2.29-1,2.73,2.73,0,0,1,2.33,1.1h.09l0-.54,0-.52V10.19h1.13V20.83h-.92Zm-2.27.19a2.08,2.08,0,0,0,1.69-.63,3.24,3.24,0,0,0,.52-2V17.1a3.77,3.77,0,0,0-.53-2.27,2,2,0,0,0-1.69-.68,1.74,1.74,0,0,0-1.53.77,3.89,3.89,0,0,0-.53,2.19,3.64,3.64,0,0,0,.53,2.17A1.76,1.76,0,0,0,224.14,20Z"/><path class="cls-2" d="M229.79,11.3a.74.74,0,0,1,.2-.57.64.64,0,0,1,.47-.18.66.66,0,0,1,.48.19.73.73,0,0,1,.19.56.74.74,0,0,1-.19.57.66.66,0,0,1-.48.19.61.61,0,0,1-.47-.19A.74.74,0,0,1,229.79,11.3ZM231,20.83h-1.13v-7.5H231Z"/><path class="cls-2" d="M238.56,20.83V16a2,2,0,0,0-.42-1.37,1.7,1.7,0,0,0-1.31-.45,2.14,2.14,0,0,0-1.72.64,3.23,3.23,0,0,0-.54,2.1v3.93h-1.14v-7.5h.92l.19,1h.05a2.34,2.34,0,0,1,1-.86,3.23,3.23,0,0,1,1.4-.3,2.84,2.84,0,0,1,2,.65,2.79,2.79,0,0,1,.68,2.09v4.89Z"/><path class="cls-2" d="M248.16,13.33v.72l-1.39.17a2.24,2.24,0,0,1,.34.62,2.41,2.41,0,0,1,.15.87,2.22,2.22,0,0,1-.75,1.76,3.5,3.5,0,0,1-2.69.6,1.12,1.12,0,0,0-.73,1,.49.49,0,0,0,.25.46,1.83,1.83,0,0,0,.87.15h1.33a3,3,0,0,1,1.87.51,1.79,1.79,0,0,1,.65,1.49,2.13,2.13,0,0,1-1,1.9,5.36,5.36,0,0,1-2.91.65,4,4,0,0,1-2.27-.55,1.88,1.88,0,0,1-.36-2.73,2.31,2.31,0,0,1,1.23-.67,1.18,1.18,0,0,1-.48-.41,1,1,0,0,1-.19-.63,1.2,1.2,0,0,1,.22-.72,2.2,2.2,0,0,1,.69-.59,2,2,0,0,1-1-.82,2.42,2.42,0,0,1-.37-1.31,2.45,2.45,0,0,1,.74-1.9,3,3,0,0,1,2.09-.66,3.92,3.92,0,0,1,1.07.13Zm-6,8.75a1,1,0,0,0,.51.93,2.87,2.87,0,0,0,1.47.31,4,4,0,0,0,2.12-.43,1.3,1.3,0,0,0,.69-1.15.93.93,0,0,0-.38-.85,2.9,2.9,0,0,0-1.42-.23h-1.35a1.84,1.84,0,0,0-1.21.36A1.35,1.35,0,0,0,242.18,22.08Zm.62-6.35a1.5,1.5,0,0,0,.44,1.19,1.78,1.78,0,0,0,1.24.41,1.45,1.45,0,0,0,1.66-1.62A1.49,1.49,0,0,0,244.46,14a1.67,1.67,0,0,0-1.23.43A1.74,1.74,0,0,0,242.8,15.73Z"/><path class="cls-2" d="M107.1,37.63l-.23-1.07h-.05a3.14,3.14,0,0,1-1.12.95,3.36,3.36,0,0,1-1.39.25,2.51,2.51,0,0,1-1.75-.57,2.1,2.1,0,0,1-.63-1.64q0-2.27,3.63-2.37l1.27,0v-.46a1.9,1.9,0,0,0-.38-1.3,1.56,1.56,0,0,0-1.21-.42,5,5,0,0,0-2.12.57l-.35-.87a5.64,5.64,0,0,1,1.21-.47,5.45,5.45,0,0,1,1.33-.17,2.83,2.83,0,0,1,2,.6,2.47,2.47,0,0,1,.65,1.9v5.12Zm-2.57-.8a2.31,2.31,0,0,0,1.67-.59,2.13,2.13,0,0,0,.6-1.62v-.68l-1.13.05a4,4,0,0,0-2,.42,1.26,1.26,0,0,0-.6,1.16,1.14,1.14,0,0,0,.37.93A1.53,1.53,0,0,0,104.53,36.83Z"/><path class="cls-2" d="M115.4,37.63V32.78a2,2,0,0,0-.41-1.37,1.72,1.72,0,0,0-1.31-.45,2.13,2.13,0,0,0-1.72.64,3.17,3.17,0,0,0-.55,2.1v3.93h-1.14v-7.5h.93l.18,1h.06a2.26,2.26,0,0,1,1-.86,3.24,3.24,0,0,1,1.41-.3,2.8,2.8,0,0,1,2,.65,2.75,2.75,0,0,1,.69,2.09v4.89Z"/><path class="cls-2" d="M124,36.62h-.06a2.68,2.68,0,0,1-2.36,1.14,2.76,2.76,0,0,1-2.28-1,4.39,4.39,0,0,1-.82-2.86,4.51,4.51,0,0,1,.82-2.88,2.77,2.77,0,0,1,2.28-1,2.74,2.74,0,0,1,2.34,1.1H124l0-.54,0-.52V27H125V37.63h-.92Zm-2.27.19a2.07,2.07,0,0,0,1.68-.63,3.18,3.18,0,0,0,.53-2V33.9a3.77,3.77,0,0,0-.53-2.27,2,2,0,0,0-1.7-.68,1.74,1.74,0,0,0-1.52.77,3.81,3.81,0,0,0-.53,2.19,3.72,3.72,0,0,0,.52,2.17A1.78,1.78,0,0,0,121.7,36.81Z"/><path class="cls-2" d="M132.42,33.47v4.16h-1.17v-10H134a4.3,4.3,0,0,1,2.72.71,2.53,2.53,0,0,1,.88,2.11,2.64,2.64,0,0,1-2,2.68l2.72,4.5h-1.38l-2.42-4.16Zm0-1H134a2.71,2.71,0,0,0,1.8-.49,1.78,1.78,0,0,0,.58-1.46,1.67,1.67,0,0,0-.59-1.43,3.16,3.16,0,0,0-1.87-.44h-1.51Z"/><path class="cls-2" d="M142.9,37.76a3.43,3.43,0,0,1-2.62-1,3.91,3.91,0,0,1-1-2.81,4.37,4.37,0,0,1,.89-2.88,3,3,0,0,1,2.4-1.06,2.85,2.85,0,0,1,2.23.92,3.61,3.61,0,0,1,.82,2.45v.71H140.5a3,3,0,0,0,.66,2,2.33,2.33,0,0,0,1.78.68,6.18,6.18,0,0,0,2.4-.5v1a6.54,6.54,0,0,1-1.14.37A6.12,6.12,0,0,1,142.9,37.76ZM142.59,31a1.83,1.83,0,0,0-1.43.58,2.78,2.78,0,0,0-.64,1.63h3.92a2.49,2.49,0,0,0-.48-1.64A1.68,1.68,0,0,0,142.59,31Z"/><path class="cls-2" d="M152.72,37.63V32.78a2,2,0,0,0-.42-1.37A1.69,1.69,0,0,0,151,31a2.17,2.17,0,0,0-1.73.64,3.28,3.28,0,0,0-.54,2.11v3.92h-1.14V27h1.14v3.22a6.28,6.28,0,0,1-.06,1h.07a2.31,2.31,0,0,1,.95-.85,3.12,3.12,0,0,1,1.42-.31,2.92,2.92,0,0,1,2.06.65,2.8,2.8,0,0,1,.68,2.08v4.89Z"/><path class="cls-2" d="M160.79,37.63l-.22-1.07h-.06a3,3,0,0,1-1.12.95,3.32,3.32,0,0,1-1.39.25,2.5,2.5,0,0,1-1.74-.57,2.07,2.07,0,0,1-.64-1.64q0-2.27,3.63-2.37l1.28,0v-.46a1.9,1.9,0,0,0-.38-1.3,1.58,1.58,0,0,0-1.22-.42,5,5,0,0,0-2.12.57l-.34-.87A5.44,5.44,0,0,1,159,30a2.85,2.85,0,0,1,2,.6,2.46,2.46,0,0,1,.64,1.9v5.12Zm-2.56-.8a2.27,2.27,0,0,0,1.66-.59,2.1,2.1,0,0,0,.61-1.62v-.68l-1.14.05a4.09,4.09,0,0,0-2,.42,1.26,1.26,0,0,0-.6,1.16,1.15,1.15,0,0,0,.38.93A1.49,1.49,0,0,0,158.23,36.83Z"/><path class="cls-2" d="M167.46,30a2.79,2.79,0,0,1,2.29,1,4.38,4.38,0,0,1,.82,2.85,4.46,4.46,0,0,1-.83,2.87,2.77,2.77,0,0,1-2.28,1,3.24,3.24,0,0,1-1.34-.27,2.45,2.45,0,0,1-1-.83H165l-.24,1H164V27h1.14v2.58q0,.87-.06,1.56h.06A2.67,2.67,0,0,1,167.46,30Zm-.17.95a2,2,0,0,0-1.67.67,3.75,3.75,0,0,0-.51,2.24,3.74,3.74,0,0,0,.52,2.26,2,2,0,0,0,1.69.68,1.74,1.74,0,0,0,1.56-.76,3.94,3.94,0,0,0,.51-2.19,3.77,3.77,0,0,0-.51-2.18A1.81,1.81,0,0,0,167.29,31Z"/><path class="cls-2" d="M172.45,28.1a.74.74,0,0,1,.2-.57.64.64,0,0,1,.47-.18.66.66,0,0,1,.48.19.73.73,0,0,1,.19.56.74.74,0,0,1-.19.57.66.66,0,0,1-.48.19.61.61,0,0,1-.47-.19A.74.74,0,0,1,172.45,28.1Zm1.23,9.53h-1.13v-7.5h1.13Z"/><path class="cls-2" d="M177.23,37.63h-1.14V27h1.14Z"/><path class="cls-2" d="M179.54,28.1a.74.74,0,0,1,.19-.57.66.66,0,0,1,.48-.18.64.64,0,0,1,.47.19.73.73,0,0,1,.2.56.74.74,0,0,1-.2.57.64.64,0,0,1-.47.19.63.63,0,0,1-.48-.19A.74.74,0,0,1,179.54,28.1Zm1.23,9.53h-1.14v-7.5h1.14Z"/><path class="cls-2" d="M185.59,36.83a3.58,3.58,0,0,0,.58,0l.45-.09v.87a1.9,1.9,0,0,1-.54.14,4,4,0,0,1-.65.06c-1.45,0-2.18-.76-2.18-2.29V31h-1.07v-.55l1.07-.47.48-1.6h.66v1.73h2.17V31h-2.17v4.4a1.52,1.52,0,0,0,.32,1A1.11,1.11,0,0,0,185.59,36.83Z"/><path class="cls-2" d="M192.72,37.63l-.22-1.07h-.06a3,3,0,0,1-1.11.95,3.41,3.41,0,0,1-1.4.25,2.5,2.5,0,0,1-1.74-.57,2.1,2.1,0,0,1-.63-1.64c0-1.51,1.2-2.3,3.62-2.37l1.28,0v-.46a1.9,1.9,0,0,0-.38-1.3,1.58,1.58,0,0,0-1.22-.42,5,5,0,0,0-2.12.57l-.34-.87a5.44,5.44,0,0,1,2.53-.64,2.84,2.84,0,0,1,2,.6,2.46,2.46,0,0,1,.64,1.9v5.12Zm-2.56-.8a2.27,2.27,0,0,0,1.66-.59,2.1,2.1,0,0,0,.61-1.62v-.68l-1.14.05a4.09,4.09,0,0,0-1.95.42,1.26,1.26,0,0,0-.6,1.16,1.15,1.15,0,0,0,.38.93A1.51,1.51,0,0,0,190.16,36.83Z"/><path class="cls-2" d="M198.32,36.83a3.58,3.58,0,0,0,.58,0l.45-.09v.87a1.89,1.89,0,0,1-.55.14,3.91,3.91,0,0,1-.64.06c-1.45,0-2.18-.76-2.18-2.29V31h-1.07v-.55L196,30l.48-1.6h.66v1.73h2.17V31h-2.17v4.4a1.52,1.52,0,0,0,.32,1A1.09,1.09,0,0,0,198.32,36.83Z"/><path class="cls-2" d="M200.75,28.1a.74.74,0,0,1,.19-.57.68.68,0,0,1,.48-.18.64.64,0,0,1,.47.19.73.73,0,0,1,.2.56.74.74,0,0,1-.2.57.64.64,0,0,1-.47.19.65.65,0,0,1-.48-.19A.74.74,0,0,1,200.75,28.1ZM202,37.63h-1.14v-7.5H202Z"/><path class="cls-2" d="M210.85,33.87a4.15,4.15,0,0,1-.92,2.86,3.25,3.25,0,0,1-2.55,1,3.35,3.35,0,0,1-1.79-.47,3.1,3.1,0,0,1-1.2-1.35,4.78,4.78,0,0,1-.42-2.07,4.12,4.12,0,0,1,.91-2.85,3.25,3.25,0,0,1,2.55-1,3.19,3.19,0,0,1,2.5,1A4.15,4.15,0,0,1,210.85,33.87Zm-5.71,0a3.51,3.51,0,0,0,.58,2.19,2,2,0,0,0,1.69.75,2,2,0,0,0,1.69-.75,3.55,3.55,0,0,0,.58-2.19,3.53,3.53,0,0,0-.58-2.17,2,2,0,0,0-1.71-.74,2,2,0,0,0-1.68.73A3.52,3.52,0,0,0,205.14,33.87Z"/><path class="cls-2" d="M218,37.63V32.78a2,2,0,0,0-.42-1.37,1.7,1.7,0,0,0-1.31-.45,2.14,2.14,0,0,0-1.72.64,3.23,3.23,0,0,0-.54,2.1v3.93h-1.14v-7.5h.92l.19,1H214a2.34,2.34,0,0,1,1-.86,3.23,3.23,0,0,1,1.4-.3,2.84,2.84,0,0,1,2,.65,2.79,2.79,0,0,1,.68,2.09v4.89Z"/><path class="cls-3" d="M125.13,89.73a1.88,1.88,0,0,1-.76-.16,1.33,1.33,0,0,1-.58-.47h-.05a5.92,5.92,0,0,1,.05.71v1.76h-.65v-6.2h.52l.09.58h0a1.56,1.56,0,0,1,.58-.51,1.81,1.81,0,0,1,.76-.15,1.57,1.57,0,0,1,1.31.58,3.08,3.08,0,0,1,0,3.27A1.6,1.6,0,0,1,125.13,89.73ZM125,85.84a1.15,1.15,0,0,0-1,.36,1.81,1.81,0,0,0-.3,1.16v.14a2.08,2.08,0,0,0,.3,1.29,1.13,1.13,0,0,0,1,.39,1,1,0,0,0,.87-.45,2.13,2.13,0,0,0,.31-1.24,2,2,0,0,0-.31-1.22A1,1,0,0,0,125,85.84Z"/><path class="cls-3" d="M128.65,85.37v2.77a1.1,1.1,0,0,0,.24.78.91.91,0,0,0,.74.26,1.25,1.25,0,0,0,1-.36,1.92,1.92,0,0,0,.31-1.2V85.37h.64v4.28H131l-.09-.58h0a1.31,1.31,0,0,1-.55.49,1.92,1.92,0,0,1-.81.17,1.63,1.63,0,0,1-1.17-.38,1.55,1.55,0,0,1-.39-1.18v-2.8Z"/><path class="cls-3" d="M134.94,85.3a1.6,1.6,0,0,1,1.31.57,3.08,3.08,0,0,1,0,3.27,1.6,1.6,0,0,1-1.31.59,1.88,1.88,0,0,1-.76-.16,1.39,1.39,0,0,1-.58-.47h0l-.14.55H133V83.57h.65v1.48c0,.33,0,.62,0,.89h0A1.53,1.53,0,0,1,134.94,85.3Zm-.09.54a1.15,1.15,0,0,0-1,.38,2.17,2.17,0,0,0-.29,1.28,2.15,2.15,0,0,0,.3,1.29,1.13,1.13,0,0,0,1,.39,1,1,0,0,0,.89-.43,2.21,2.21,0,0,0,.3-1.26,2.1,2.1,0,0,0-.3-1.24A1,1,0,0,0,134.85,85.84Z"/><path class="cls-3" d="M138.5,89.65h-.65V83.57h.65Z"/><path class="cls-3" d="M139.82,84.21a.45.45,0,0,1,.11-.33.41.41,0,0,1,.54,0,.42.42,0,0,1,.12.33.41.41,0,0,1-.12.32.39.39,0,0,1-.54,0A.44.44,0,0,1,139.82,84.21Zm.7,5.44h-.65V85.37h.65Z"/><path class="cls-3" d="M143.61,89.73a1.84,1.84,0,0,1-1.44-.58,2.35,2.35,0,0,1-.51-1.62,2.41,2.41,0,0,1,.52-1.66,1.84,1.84,0,0,1,1.47-.58,3.26,3.26,0,0,1,.62.06,2.22,2.22,0,0,1,.48.16l-.2.55a3.09,3.09,0,0,0-.46-.14,2,2,0,0,0-.45-.06c-.87,0-1.31.56-1.31,1.67a2,2,0,0,0,.32,1.21,1.11,1.11,0,0,0,.94.42,2.93,2.93,0,0,0,1.1-.23v.57A2.33,2.33,0,0,1,143.61,89.73Z"/><path class="cls-3" d="M150.55,88.48a1.07,1.07,0,0,1-.45.92,2.06,2.06,0,0,1-1.25.33,2.72,2.72,0,0,1-1.33-.27v-.61a3,3,0,0,0,.67.25,2.71,2.71,0,0,0,.68.09,1.54,1.54,0,0,0,.78-.16.55.55,0,0,0,.27-.5.51.51,0,0,0-.22-.42,3.15,3.15,0,0,0-.84-.42,4.75,4.75,0,0,1-.85-.39,1.25,1.25,0,0,1-.38-.38,1,1,0,0,1-.12-.5,1,1,0,0,1,.43-.83,2,2,0,0,1,1.17-.3,3.37,3.37,0,0,1,1.35.28l-.23.53a3.07,3.07,0,0,0-1.17-.27,1.32,1.32,0,0,0-.7.15.43.43,0,0,0-.23.39.49.49,0,0,0,.09.3,1,1,0,0,0,.28.23,7.71,7.71,0,0,0,.75.31,2.84,2.84,0,0,1,1,.56A1,1,0,0,1,150.55,88.48Z"/><path class="cls-3" d="M153.31,89.73a1.84,1.84,0,0,1-1.44-.58,2.35,2.35,0,0,1-.51-1.62,2.46,2.46,0,0,1,.52-1.66,1.88,1.88,0,0,1,1.48-.58,3.15,3.15,0,0,1,.61.06,2.34,2.34,0,0,1,.49.16l-.2.55a3.23,3.23,0,0,0-.47-.14,2,2,0,0,0-.45-.06c-.87,0-1.3.56-1.3,1.67a2,2,0,0,0,.31,1.21,1.13,1.13,0,0,0,1,.42,2.92,2.92,0,0,0,1.09-.23v.57A2.28,2.28,0,0,1,153.31,89.73Z"/><path class="cls-3" d="M158.34,89.65V86.88a1.1,1.1,0,0,0-.24-.78.94.94,0,0,0-.74-.26,1.21,1.21,0,0,0-1,.37,1.82,1.82,0,0,0-.31,1.2v2.24h-.65V83.57h.65v1.84a4.22,4.22,0,0,1,0,.55h0a1.23,1.23,0,0,1,.54-.49,1.78,1.78,0,0,1,.81-.17,1.67,1.67,0,0,1,1.18.37,1.57,1.57,0,0,1,.39,1.18v2.8Z"/><path class="cls-3" d="M164,87.5a2.39,2.39,0,0,1-.53,1.64,1.87,1.87,0,0,1-1.46.59,1.94,1.94,0,0,1-1-.27,1.81,1.81,0,0,1-.69-.78,2.7,2.7,0,0,1-.24-1.18,2.35,2.35,0,0,1,.53-1.63,2.05,2.05,0,0,1,2.88,0A2.33,2.33,0,0,1,164,87.5Zm-3.27,0a2,2,0,0,0,.33,1.25,1.3,1.3,0,0,0,1.93,0,2.51,2.51,0,0,0,0-2.49,1.15,1.15,0,0,0-1-.42,1.12,1.12,0,0,0-1,.42A2,2,0,0,0,160.75,87.5Z"/><path class="cls-3" d="M168.85,87.5a2.39,2.39,0,0,1-.53,1.64,1.87,1.87,0,0,1-1.46.59,1.94,1.94,0,0,1-1-.27,1.79,1.79,0,0,1-.68-.78,2.57,2.57,0,0,1-.25-1.18,2.35,2.35,0,0,1,.53-1.63,1.84,1.84,0,0,1,1.45-.58,1.82,1.82,0,0,1,1.43.6A2.33,2.33,0,0,1,168.85,87.5Zm-3.26,0a2.07,2.07,0,0,0,.32,1.25,1.13,1.13,0,0,0,1,.43,1.16,1.16,0,0,0,1-.43,2.51,2.51,0,0,0,0-2.49,1.19,1.19,0,0,0-1-.42,1.15,1.15,0,0,0-1,.42A2,2,0,0,0,165.59,87.5Z"/><path class="cls-3" d="M170.63,89.65H170V83.57h.65Z"/><path class="cls-3" d="M122.05,94.3a1.6,1.6,0,0,1,1.31.57,2.55,2.55,0,0,1,.46,1.63,2.5,2.5,0,0,1-.47,1.64,1.58,1.58,0,0,1-1.3.59,1.93,1.93,0,0,1-.77-.16,1.46,1.46,0,0,1-.58-.47h0l-.14.55h-.47V92.57h.65v1.48c0,.33,0,.62,0,.89h0A1.53,1.53,0,0,1,122.05,94.3Zm-.1.54a1.12,1.12,0,0,0-1,.38,2.09,2.09,0,0,0-.3,1.28,2.15,2.15,0,0,0,.3,1.29,1.16,1.16,0,0,0,1,.39,1,1,0,0,0,.89-.43,2.3,2.3,0,0,0,.29-1.26,2.18,2.18,0,0,0-.29-1.24A1.06,1.06,0,0,0,122,94.84Z"/><path class="cls-3" d="M125.57,94.37v2.77a1.15,1.15,0,0,0,.23.78,1,1,0,0,0,.75.26,1.21,1.21,0,0,0,1-.36,1.86,1.86,0,0,0,.31-1.2V94.37h.65v4.28H128l-.1-.58h0a1.31,1.31,0,0,1-.55.49,1.92,1.92,0,0,1-.81.17,1.63,1.63,0,0,1-1.17-.38,1.55,1.55,0,0,1-.39-1.18v-2.8Z"/><path class="cls-3" d="M129.81,93.21a.45.45,0,0,1,.11-.33.39.39,0,0,1,.28-.1.35.35,0,0,1,.26.1.42.42,0,0,1,.12.33.41.41,0,0,1-.12.32.36.36,0,0,1-.26.11.39.39,0,0,1-.28-.11A.44.44,0,0,1,129.81,93.21Zm.71,5.44h-.65V94.37h.65Z"/><path class="cls-3" d="M132.54,98.65h-.65V92.57h.65Z"/><path class="cls-3" d="M136.83,98.07h0a1.52,1.52,0,0,1-1.34.66,1.61,1.61,0,0,1-1.31-.58,2.53,2.53,0,0,1-.46-1.63,2.59,2.59,0,0,1,.46-1.65,1.75,1.75,0,0,1,2.65,0h.05l0-.31,0-.3V92.57h.65v6.08h-.53Zm-1.3.11a1.18,1.18,0,0,0,1-.36,1.81,1.81,0,0,0,.3-1.16v-.14a2.16,2.16,0,0,0-.3-1.3,1.14,1.14,0,0,0-1-.39,1,1,0,0,0-.87.44,2.26,2.26,0,0,0-.3,1.26,2.09,2.09,0,0,0,.3,1.23A1,1,0,0,0,135.53,98.18Z"/><path class="cls-3" d="M138.76,93.21a.45.45,0,0,1,.11-.33.38.38,0,0,1,.27-.1.36.36,0,0,1,.27.1.42.42,0,0,1,.12.33.41.41,0,0,1-.12.32.37.37,0,0,1-.27.11.39.39,0,0,1-.27-.11A.44.44,0,0,1,138.76,93.21Zm.7,5.44h-.64V94.37h.64Z"/><path class="cls-3" d="M143.77,98.65V95.88a1.1,1.1,0,0,0-.24-.78.94.94,0,0,0-.74-.26,1.25,1.25,0,0,0-1,.36,1.82,1.82,0,0,0-.31,1.2v2.25h-.65V94.37h.53l.1.58h0a1.41,1.41,0,0,1,.56-.49,1.91,1.91,0,0,1,.8-.17,1.63,1.63,0,0,1,1.17.37,1.59,1.59,0,0,1,.39,1.19v2.8Z"/><path class="cls-3" d="M149.25,94.37v.41l-.79.09a1.32,1.32,0,0,1,.28.86,1.26,1.26,0,0,1-.43,1,1.72,1.72,0,0,1-1.18.37,2,2,0,0,1-.36,0,.65.65,0,0,0-.41.55.28.28,0,0,0,.14.26,1,1,0,0,0,.5.09h.76a1.75,1.75,0,0,1,1.07.29,1,1,0,0,1,.37.85,1.22,1.22,0,0,1-.57,1.09,3.15,3.15,0,0,1-1.67.37,2.32,2.32,0,0,1-1.29-.31,1,1,0,0,1-.46-.89,1,1,0,0,1,.25-.67,1.33,1.33,0,0,1,.71-.39.77.77,0,0,1-.28-.23.61.61,0,0,1-.11-.36.63.63,0,0,1,.13-.41,1.22,1.22,0,0,1,.39-.34,1.16,1.16,0,0,1-.54-.47,1.53,1.53,0,0,1,.21-1.83,1.7,1.7,0,0,1,1.2-.38,1.9,1.9,0,0,1,.6.08Zm-3.41,5a.58.58,0,0,0,.29.52,1.64,1.64,0,0,0,.84.18,2.36,2.36,0,0,0,1.21-.24.74.74,0,0,0,.39-.66.53.53,0,0,0-.21-.49,1.67,1.67,0,0,0-.81-.13h-.78a1,1,0,0,0-.68.21A.74.74,0,0,0,145.84,99.37Zm.35-3.63a.88.88,0,0,0,.26.68,1,1,0,0,0,.7.23.83.83,0,0,0,.95-.92.85.85,0,0,0-1-1,.92.92,0,0,0-.7.25A1,1,0,0,0,146.19,95.74Z"/><path class="cls-3" d="M152.89,97.48a1.06,1.06,0,0,1-.44.92,2.06,2.06,0,0,1-1.25.33,2.72,2.72,0,0,1-1.33-.27v-.61a3.09,3.09,0,0,0,.66.25,2.83,2.83,0,0,0,.68.09A1.58,1.58,0,0,0,152,98a.55.55,0,0,0,.27-.5.51.51,0,0,0-.22-.42,3.15,3.15,0,0,0-.84-.42,4.75,4.75,0,0,1-.85-.39,1.15,1.15,0,0,1-.38-.38,1,1,0,0,1-.12-.5,1,1,0,0,1,.43-.83,2,2,0,0,1,1.16-.3,3.37,3.37,0,0,1,1.35.28l-.23.53a3.06,3.06,0,0,0-1.16-.27,1.32,1.32,0,0,0-.7.15.42.42,0,0,0-.23.39.56.56,0,0,0,.08.3,1,1,0,0,0,.29.23,7.71,7.71,0,0,0,.75.31,2.84,2.84,0,0,1,1,.56A1,1,0,0,1,152.89,97.48Z"/><path class="cls-3" d="M159.52,98.65l-.78-2.51c-.05-.16-.14-.51-.28-1h0c-.1.45-.2.81-.27,1l-.81,2.51h-.75l-1.17-4.28h.68c.27,1.07.49,1.89.63,2.45A11.23,11.23,0,0,1,157,98h0c0-.15.07-.34.14-.58s.12-.42.16-.56l.79-2.45h.7l.77,2.45a9,9,0,0,1,.29,1.13h0a2.94,2.94,0,0,1,.08-.43l.81-3.15h.68l-1.19,4.28Z"/><path class="cls-3" d="M162.2,93.21a.45.45,0,0,1,.1-.33.4.4,0,0,1,.28-.1.39.39,0,0,1,.27.1.45.45,0,0,1,.11.33.44.44,0,0,1-.11.32.4.4,0,0,1-.27.11.41.41,0,0,1-.28-.11A.44.44,0,0,1,162.2,93.21Zm.7,5.44h-.65V94.37h.65Z"/><path class="cls-3" d="M165.66,98.19a1.84,1.84,0,0,0,.33,0,1.22,1.22,0,0,0,.25,0v.5a1.23,1.23,0,0,1-.31.08,2.76,2.76,0,0,1-.37,0c-.83,0-1.24-.44-1.24-1.31V94.87h-.61v-.31l.61-.27.27-.92H165v1h1.24v.5H165v2.52a.87.87,0,0,0,.18.59A.64.64,0,0,0,165.66,98.19Z"/><path class="cls-3" d="M170,98.65V95.88a1.1,1.1,0,0,0-.24-.78,1,1,0,0,0-.75-.26,1.18,1.18,0,0,0-1,.37,1.82,1.82,0,0,0-.31,1.2v2.24h-.65V92.57h.65v1.84a2.88,2.88,0,0,1,0,.55h0a1.31,1.31,0,0,1,.55-.49,1.73,1.73,0,0,1,.81-.17,1.63,1.63,0,0,1,1.17.37,1.57,1.57,0,0,1,.4,1.18v2.8Z"/><path class="cls-1" d="M139.47,80.18h-2V67.46q0-1.58.09-3L137,65c-.21.19-1.18,1-2.9,2.38L133,66l4.73-3.65h1.7Z"/><path class="cls-1" d="M151.84,69.28a6.58,6.58,0,0,1,4.44,1.4,4.79,4.79,0,0,1,1.62,3.83,5.52,5.52,0,0,1-1.77,4.34,7.05,7.05,0,0,1-4.86,1.58,8.91,8.91,0,0,1-4.61-1V77.51a7,7,0,0,0,2.13.86,10.31,10.31,0,0,0,2.5.31,5,5,0,0,0,3.34-1,3.65,3.65,0,0,0,1.19-2.93q0-3.73-4.58-3.74a18,18,0,0,0-3.1.36l-1-.67.67-8.35h8.88V64.2H149.5L149,69.56A14.85,14.85,0,0,1,151.84,69.28Z"/><path class="cls-1" d="M160.76,72.55c0-3.5.69-6.13,2.05-7.86a7.21,7.21,0,0,1,6.05-2.61,8.24,8.24,0,0,1,2.17.23v1.75a6.76,6.76,0,0,0-2.15-.31,5.43,5.43,0,0,0-4.38,1.79c-1,1.19-1.56,3.07-1.66,5.62H163a4.66,4.66,0,0,1,4.24-2.1A5,5,0,0,1,171,70.52a5.43,5.43,0,0,1,1.39,3.94,6.08,6.08,0,0,1-1.52,4.37,5.38,5.38,0,0,1-4.11,1.6,5.28,5.28,0,0,1-4.39-2.08A9.18,9.18,0,0,1,160.76,72.55Zm6,6.16a3.4,3.4,0,0,0,2.69-1.1,4.62,4.62,0,0,0,1-3.15,4.12,4.12,0,0,0-.89-2.79,3.4,3.4,0,0,0-2.67-1,4.49,4.49,0,0,0-2,.45,3.71,3.71,0,0,0-1.46,1.25,2.9,2.9,0,0,0-.54,1.65,5.58,5.58,0,0,0,.49,2.34,4.07,4.07,0,0,0,1.38,1.72A3.49,3.49,0,0,0,166.76,78.71Z"/><path class="cls-4" d="M7.28,9.05a9.06,9.06,0,0,1-1,.38c-.42.14-.69.24-.8.29V8a10.93,10.93,0,0,0,1.25-.62,4.11,4.11,0,0,0,1-.75H9.63V19H7.28Z"/><path class="cls-4" d="M12.42,9.05a9.06,9.06,0,0,1-1,.38c-.42.14-.69.24-.8.29V8a10.93,10.93,0,0,0,1.25-.62,4.11,4.11,0,0,0,1-.75h1.83V19H12.42Z"/><path class="cls-4" d="M19.22,11.39c-.82,0-1.26-.48-1.3-1.45l.75-.16c0,.63.19,1,.53,1a.36.36,0,0,0,.29-.12.54.54,0,0,0,.09-.33.86.86,0,0,0-.07-.36,1.13,1.13,0,0,0-.16-.27,3.59,3.59,0,0,0-.27-.26l-.62-.54a1.79,1.79,0,0,1-.4-.5,1.39,1.39,0,0,1-.13-.65,1.12,1.12,0,0,1,.32-.86,1.24,1.24,0,0,1,.88-.31,1.65,1.65,0,0,1,.46.06.91.91,0,0,1,.32.19.78.78,0,0,1,.22.28,1.48,1.48,0,0,1,.13.35,3.8,3.8,0,0,1,.06.4L19.59,8c0-.1,0-.18,0-.25a1.6,1.6,0,0,0-.05-.21.38.38,0,0,0-.08-.18.28.28,0,0,0-.13-.11.4.4,0,0,0-.19,0,.38.38,0,0,0-.29.13.45.45,0,0,0-.11.31.74.74,0,0,0,.09.38,1.86,1.86,0,0,0,.28.31l.61.54a2.29,2.29,0,0,1,.27.27,2.32,2.32,0,0,1,.22.3,1.26,1.26,0,0,1,.15.38,1.44,1.44,0,0,1,.06.43,1.14,1.14,0,0,1-.33.84,1.16,1.16,0,0,1-.85.32"/><path class="cls-4" d="M22,11.39a1.84,1.84,0,0,1-.55-.07,1.07,1.07,0,0,1-.38-.21,1,1,0,0,1-.24-.35,2.12,2.12,0,0,1-.12-.45,4.78,4.78,0,0,1,0-.57V6.58h.83V9.83c0,.11,0,.2,0,.28s0,.16,0,.25a.76.76,0,0,0,.08.2.35.35,0,0,0,.14.13.43.43,0,0,0,.23.05.4.4,0,0,0,.22-.05.29.29,0,0,0,.14-.13.76.76,0,0,0,.08-.2c0-.09,0-.17,0-.25V6.58h.83V9.74a4.91,4.91,0,0,1,0,.57,2.13,2.13,0,0,1-.13.45,1,1,0,0,1-.23.35,1.07,1.07,0,0,1-.38.21,1.77,1.77,0,0,1-.54.07"/><path class="cls-4" d="M24.87,11.39c-.82,0-1.26-.48-1.3-1.45l.75-.16c0,.63.19,1,.53,1a.34.34,0,0,0,.29-.12.54.54,0,0,0,.09-.33.86.86,0,0,0-.07-.36A.88.88,0,0,0,25,9.65a3.59,3.59,0,0,0-.27-.26l-.61-.54a1.67,1.67,0,0,1-.41-.5,1.39,1.39,0,0,1-.13-.65,1.12,1.12,0,0,1,.32-.86,1.24,1.24,0,0,1,.88-.31,1.65,1.65,0,0,1,.46.06.91.91,0,0,1,.32.19.78.78,0,0,1,.22.28,1.48,1.48,0,0,1,.13.35,2.25,2.25,0,0,1,.06.4L25.24,8c0-.1,0-.18,0-.25a.8.8,0,0,0,0-.21.38.38,0,0,0-.08-.18A.28.28,0,0,0,25,7.21a.4.4,0,0,0-.19,0,.38.38,0,0,0-.29.13.45.45,0,0,0-.1.31.74.74,0,0,0,.09.38,1.74,1.74,0,0,0,.27.31l.62.54a2.17,2.17,0,0,1,.26.27,2.32,2.32,0,0,1,.22.3A1.61,1.61,0,0,1,26,9.8a1.88,1.88,0,0,1,.05.43,1.17,1.17,0,0,1-.32.84,1.19,1.19,0,0,1-.86.32"/><polygon class="cls-4" points="26.77 11.34 26.77 7.22 25.98 7.22 25.98 6.58 28.39 6.58 28.39 7.22 27.63 7.22 27.63 11.34 26.77 11.34"/><path class="cls-4" d="M29.35,9.67H30l-.32-1.95Zm-1.09,1.66.95-4.75h.89l1,4.75h-.8l-.19-1.1h-.81l-.2,1.1Z"/><rect class="cls-4" x="31.3" y="6.58" width="0.84" height="4.75"/><polygon class="cls-4" points="32.63 11.34 32.63 6.58 33.22 6.58 34.37 9.28 34.37 6.58 35.08 6.58 35.08 11.34 34.52 11.34 33.36 8.51 33.36 11.34 32.63 11.34"/><path class="cls-4" d="M36.39,9.67H37L36.7,7.72ZM35.3,11.33l1-4.75h.9l1,4.75h-.8l-.19-1.1H36.3l-.19,1.1Z"/><path class="cls-4" d="M39.18,10.72h.31a.66.66,0,0,0,.53-.18.93.93,0,0,0,.15-.59A1,1,0,0,0,40,9.32a.74.74,0,0,0-.56-.19h-.26Zm0-2.2h.26A.66.66,0,0,0,40,8.36a.87.87,0,0,0,.14-.55.79.79,0,0,0-.05-.33.34.34,0,0,0-.15-.18.75.75,0,0,0-.25-.09l-.36,0h-.11Zm-.86,2.81V6.58h1.15a2.37,2.37,0,0,1,.57.06,1.3,1.3,0,0,1,.43.2.81.81,0,0,1,.28.37,1.52,1.52,0,0,1,.1.59c0,.58-.24.91-.7,1a.92.92,0,0,1,.63.37A1.42,1.42,0,0,1,41,10a1.38,1.38,0,0,1-.33,1,1.26,1.26,0,0,1-1,.35Z"/><polygon class="cls-4" points="41.3 11.34 41.3 6.58 42.16 6.58 42.16 10.74 43.28 10.74 43.28 11.34 41.3 11.34"/><polygon class="cls-4" points="43.5 11.34 43.5 6.58 45.46 6.58 45.46 7.2 44.35 7.2 44.35 8.56 45.23 8.56 45.23 9.17 44.35 9.17 44.35 10.74 45.48 10.74 45.48 11.34 43.5 11.34"/><path class="cls-4" d="M48.17,11.39a1.53,1.53,0,0,1-.54-.08,1.07,1.07,0,0,1-.38-.21,1.25,1.25,0,0,1-.25-.34,2,2,0,0,1-.13-.44,2.75,2.75,0,0,1,0-.52V8.14a3,3,0,0,1,0-.55A1.89,1.89,0,0,1,47,7.15a1.11,1.11,0,0,1,.25-.34.92.92,0,0,1,.38-.2,1.46,1.46,0,0,1,.54-.08,1.8,1.8,0,0,1,.6.09,1,1,0,0,1,.39.28,1.15,1.15,0,0,1,.21.43,2.34,2.34,0,0,1,.07.57v.41h-.83v-.4a2.42,2.42,0,0,0,0-.48.36.36,0,0,0-.36-.26h0l-.19,0a.3.3,0,0,0-.13.09.36.36,0,0,0-.08.12.5.5,0,0,0-.05.16,1.37,1.37,0,0,0,0,.19V10a1.22,1.22,0,0,0,.1.59.39.39,0,0,0,.37.18l.16,0a.34.34,0,0,0,.12-.06.36.36,0,0,0,.08-.09l0-.12a.46.46,0,0,0,0-.14,1,1,0,0,0,0-.16V9.55h.83v.39a3.32,3.32,0,0,1,0,.48,1.87,1.87,0,0,1-.13.4.9.9,0,0,1-.23.31.88.88,0,0,1-.36.19,1.61,1.61,0,0,1-.51.07"/><rect class="cls-4" x="49.82" y="6.58" width="0.84" height="4.75"/><polygon class="cls-4" points="51.6 11.34 51.6 7.22 50.81 7.22 50.81 6.58 53.22 6.58 53.22 7.22 52.46 7.22 52.46 11.34 51.6 11.34"/><rect class="cls-4" x="53.38" y="6.58" width="0.84" height="4.75"/><polygon class="cls-4" points="54.71 11.34 54.71 6.58 56.67 6.58 56.67 7.2 55.56 7.2 55.56 8.56 56.44 8.56 56.44 9.17 55.56 9.17 55.56 10.74 56.69 10.74 56.69 11.34 54.71 11.34"/><path class="cls-4" d="M58.13,11.39c-.83,0-1.27-.48-1.31-1.45l.75-.16c0,.63.19,1,.53,1a.34.34,0,0,0,.29-.12.54.54,0,0,0,.09-.33.86.86,0,0,0-.07-.36.88.88,0,0,0-.16-.27A3.59,3.59,0,0,0,58,9.39l-.61-.54a1.84,1.84,0,0,1-.41-.5,1.39,1.39,0,0,1-.13-.65,1.15,1.15,0,0,1,.32-.86A1.24,1.24,0,0,1,58,6.53a1.6,1.6,0,0,1,.46.06.91.91,0,0,1,.32.19.78.78,0,0,1,.22.28,1.48,1.48,0,0,1,.13.35,2.25,2.25,0,0,1,.06.4L58.49,8c0-.1,0-.18,0-.25a1.55,1.55,0,0,0,0-.21.5.5,0,0,0-.09-.18.28.28,0,0,0-.13-.11.45.45,0,0,0-.48.1.45.45,0,0,0-.1.31.74.74,0,0,0,.09.38,1.5,1.5,0,0,0,.28.31l.61.54a2.17,2.17,0,0,1,.26.27,2.32,2.32,0,0,1,.22.3,1.61,1.61,0,0,1,.16.38,1.88,1.88,0,0,1,0,.43,1.1,1.1,0,0,1-1.17,1.16"/><path class="cls-4" d="M18.89,17.43h.62l-.31-1.95ZM17.8,19.1l.95-4.75h.89l.95,4.75H19.8L19.61,18H18.8l-.2,1.11Z"/><polygon class="cls-4" points="20.82 19.1 20.82 14.35 21.41 14.35 22.56 17.04 22.56 14.35 23.26 14.35 23.26 19.1 22.7 19.1 21.54 16.27 21.54 19.1 20.82 19.1"/><path class="cls-4" d="M24.58,18.49h.25l.22,0,.16-.06a.26.26,0,0,0,.11-.1l.07-.13a1.64,1.64,0,0,0,0-.18c0-.09,0-.15,0-.21v-2a1.94,1.94,0,0,0,0-.27,1.49,1.49,0,0,0,0-.21.4.4,0,0,0-.07-.16.29.29,0,0,0-.11-.11.38.38,0,0,0-.17-.06.86.86,0,0,0-.24,0h-.24Zm-.85.61V14.35h1.09a2.84,2.84,0,0,1,.71.08,1,1,0,0,1,.46.28,1.1,1.1,0,0,1,.25.45,3.06,3.06,0,0,1,.07.67v1.71a2.73,2.73,0,0,1-.08.69,1.21,1.21,0,0,1-.24.48.88.88,0,0,1-.45.29,1.94,1.94,0,0,1-.69.1Z"/><path class="cls-4" d="M29.14,19.15a1.77,1.77,0,0,1-.54-.07,1.09,1.09,0,0,1-.38-.22,1,1,0,0,1-.25-.34,1.5,1.5,0,0,1-.13-.44,2.75,2.75,0,0,1,0-.52V15.9a3.09,3.09,0,0,1,0-.55,2,2,0,0,1,.13-.44,1,1,0,0,1,.25-.34,1.24,1.24,0,0,1,.38-.2,1.71,1.71,0,0,1,.54-.08,1.57,1.57,0,0,1,.6.1.85.85,0,0,1,.39.28,1,1,0,0,1,.21.42,2.52,2.52,0,0,1,.06.58v.4h-.82v-.4a1.69,1.69,0,0,0,0-.48.36.36,0,0,0-.36-.26h0A.54.54,0,0,0,29,15a.22.22,0,0,0-.13.08.42.42,0,0,0-.08.12.6.6,0,0,0,0,.16,1.37,1.37,0,0,0,0,.19v2.23a1.27,1.27,0,0,0,.1.6.4.4,0,0,0,.37.17.41.41,0,0,0,.16,0l.11,0a.25.25,0,0,0,.08-.1.34.34,0,0,0,.05-.11s0-.09,0-.15,0-.12,0-.16v-.6h.82v.39a3.38,3.38,0,0,1,0,.47,1.57,1.57,0,0,1-.13.4.93.93,0,0,1-.23.31.88.88,0,0,1-.36.19,1.61,1.61,0,0,1-.51.07"/><path class="cls-4" d="M31.82,18.48a.66.66,0,0,0,.21,0,.69.69,0,0,0,.22,0,.5.5,0,0,0,.14-.1.48.48,0,0,0,.08-.16,1.29,1.29,0,0,0,0-.19,1.77,1.77,0,0,0,0-.24V15.64a2.19,2.19,0,0,0,0-.29.79.79,0,0,0-.06-.22.54.54,0,0,0-.15-.15.63.63,0,0,0-.26-.05.62.62,0,0,0-.25.05.36.36,0,0,0-.15.15.79.79,0,0,0-.06.22,2.19,2.19,0,0,0,0,.29v2.15a1.77,1.77,0,0,0,0,.24,1.29,1.29,0,0,0,0,.19.48.48,0,0,0,.08.16.5.5,0,0,0,.14.1m.21.67a1.24,1.24,0,0,1-1-.39,1.87,1.87,0,0,1-.32-1.17V15.84a3.11,3.11,0,0,1,.07-.66A1.53,1.53,0,0,1,31,14.7a1,1,0,0,1,.42-.31,2,2,0,0,1,.63-.1,1.23,1.23,0,0,1,1,.4,1.79,1.79,0,0,1,.32,1.15v1.75a3,3,0,0,1-.07.65,1.53,1.53,0,0,1-.23.5,1.1,1.1,0,0,1-.42.31,1.76,1.76,0,0,1-.64.1"/><polygon class="cls-4" points="33.77 19.1 33.84 14.35 34.72 14.35 35.4 17.68 36.1 14.35 36.96 14.35 37.04 19.1 36.39 19.1 36.34 15.83 35.66 19.1 35.16 19.1 34.47 15.81 34.42 19.1 33.77 19.1"/><polygon class="cls-4" points="37.48 19.1 37.56 14.35 38.44 14.35 39.12 17.68 39.82 14.35 40.68 14.35 40.76 19.1 40.11 19.1 40.05 15.83 39.38 19.1 38.88 19.1 38.19 15.81 38.14 19.1 37.48 19.1"/><path class="cls-4" d="M42.5,19.15a1.84,1.84,0,0,1-.55-.07,1.07,1.07,0,0,1-.38-.21,1,1,0,0,1-.24-.34,1.73,1.73,0,0,1-.12-.46,4.48,4.48,0,0,1,0-.57V14.35H42v3.24c0,.11,0,.21,0,.28s0,.16,0,.25a.58.58,0,0,0,.08.21.44.44,0,0,0,.14.13.56.56,0,0,0,.23.05.51.51,0,0,0,.22-.05.44.44,0,0,0,.14-.13.84.84,0,0,0,.08-.21c0-.09,0-.17,0-.24V14.35h.83V17.5a4.67,4.67,0,0,1,0,.57,2.23,2.23,0,0,1-.13.46.9.9,0,0,1-.61.55,1.81,1.81,0,0,1-.54.07"/><polygon class="cls-4" points="44.24 19.1 44.24 14.35 44.83 14.35 45.98 17.04 45.98 14.35 46.69 14.35 46.69 19.1 46.13 19.1 44.97 16.27 44.97 19.1 44.24 19.1"/><rect class="cls-4" x="47.18" y="14.35" width="0.84" height="4.75"/><polygon class="cls-4" points="48.96 19.1 48.96 14.99 48.18 14.99 48.18 14.35 50.58 14.35 50.58 14.99 49.82 14.99 49.82 19.1 48.96 19.1"/><rect class="cls-4" x="50.74" y="14.35" width="0.84" height="4.75"/><polygon class="cls-4" points="52.07 19.1 52.07 14.35 54.03 14.35 54.03 14.96 52.92 14.96 52.92 16.32 53.8 16.32 53.8 16.93 52.92 16.93 52.92 18.5 54.05 18.5 54.05 19.1 52.07 19.1"/><path class="cls-4" d="M55.49,19.15c-.83,0-1.26-.48-1.31-1.44l.75-.16c0,.63.19.94.53.94a.34.34,0,0,0,.29-.12.53.53,0,0,0,.1-.32,1.06,1.06,0,0,0-.07-.37,1.14,1.14,0,0,0-.17-.27,2.37,2.37,0,0,0-.27-.25l-.61-.55a1.71,1.71,0,0,1-.41-.5,1.39,1.39,0,0,1-.13-.65,1.13,1.13,0,0,1,.32-.85,1.25,1.25,0,0,1,.88-.32,1.31,1.31,0,0,1,.46.07.88.88,0,0,1,.33.18,1,1,0,0,1,.21.28,1.48,1.48,0,0,1,.13.35,2.37,2.37,0,0,1,.06.41l-.73.14a1.81,1.81,0,0,0,0-.25,1.55,1.55,0,0,0,0-.21.75.75,0,0,0-.08-.18.53.53,0,0,0-.14-.11.54.54,0,0,0-.19,0,.4.4,0,0,0-.29.13.45.45,0,0,0-.1.31.74.74,0,0,0,.09.38,1.28,1.28,0,0,0,.28.31l.61.54a3.2,3.2,0,0,1,.26.28,1.46,1.46,0,0,1,.22.3,1.38,1.38,0,0,1,.16.37,2,2,0,0,1,0,.43,1.15,1.15,0,0,1-.32.84,1.14,1.14,0,0,1-.85.32"/><path class="cls-4" d="M11.65,50.63h9.74a.25.25,0,0,0,.24-.25.26.26,0,0,0-.07-.16h0l-4.84-6.34-.05,0a.23.23,0,0,0-.18-.08.2.2,0,0,0-.15.06l0,0-.05.06-4.72,6.27-.08.09a.28.28,0,0,0,0,.13.25.25,0,0,0,.24.25"/><path class="cls-4" d="M21.36,51.52H11.6a.23.23,0,0,0-.23.24v7.73a.23.23,0,0,0,.23.24h3.14V54.87a.24.24,0,0,1,.24-.24H17.9a.24.24,0,0,1,.24.24v4.86h3.22a.24.24,0,0,0,.24-.24V51.76a.24.24,0,0,0-.24-.24"/><path class="cls-4" d="M54.19,52.66a.23.23,0,0,1-.23.23H51.07a.23.23,0,0,1-.23-.23V50.89a.23.23,0,0,1,.23-.24H54a.23.23,0,0,1,.23.24Zm0,3.28a.23.23,0,0,1-.23.23H51.07a.23.23,0,0,1-.23-.23V54.16a.23.23,0,0,1,.23-.23H54a.23.23,0,0,1,.23.23Zm-4.4-3.28a.23.23,0,0,1-.24.23H46.67a.23.23,0,0,1-.24-.23V50.89a.24.24,0,0,1,.24-.24h2.88a.24.24,0,0,1,.24.24Zm0,3.28a.23.23,0,0,1-.24.23H46.67a.23.23,0,0,1-.24-.23V54.16a.24.24,0,0,1,.24-.23h2.88a.24.24,0,0,1,.24.23Zm5.28-6.44H45.41a.23.23,0,0,0-.23.23v9.86a.23.23,0,0,0,.23.24h9.66a.24.24,0,0,0,.24-.24V49.73a.23.23,0,0,0-.24-.23"/><path class="cls-4" d="M31.25,33.61a.13.13,0,0,1-.13.13H29a.12.12,0,0,1-.12-.13V31.17a.12.12,0,0,1,.12-.12h2.16a.12.12,0,0,1,.13.12Zm0,5.6a.13.13,0,0,1-.13.13H29a.12.12,0,0,1-.12-.13V36.77a.12.12,0,0,1,.12-.12h2.16a.12.12,0,0,1,.13.12Zm0,5.61a.13.13,0,0,1-.13.12H29a.12.12,0,0,1-.12-.12V42.38a.12.12,0,0,1,.12-.13h2.16a.13.13,0,0,1,.13.13Zm0,5.6a.12.12,0,0,1-.13.12H29a.12.12,0,0,1-.12-.12V48a.12.12,0,0,1,.12-.13h2.16a.13.13,0,0,1,.13.13Zm0,5.6a.12.12,0,0,1-.13.12H29a.12.12,0,0,1-.12-.12V53.58a.12.12,0,0,1,.12-.13h2.16a.13.13,0,0,1,.13.13ZM27,33.61a.13.13,0,0,1-.13.13H24.72a.12.12,0,0,1-.12-.13V31.17a.12.12,0,0,1,.12-.12h2.16a.12.12,0,0,1,.13.12Zm0,5.6a.13.13,0,0,1-.13.13H24.72a.12.12,0,0,1-.12-.13V36.77a.12.12,0,0,1,.12-.12h2.16a.12.12,0,0,1,.13.12Zm0,5.61a.13.13,0,0,1-.13.12H24.72a.12.12,0,0,1-.12-.12V42.38a.12.12,0,0,1,.12-.13h2.16a.13.13,0,0,1,.13.13Zm0,5.6a.12.12,0,0,1-.13.12H24.72a.12.12,0,0,1-.12-.12V48a.12.12,0,0,1,.12-.13h2.16A.13.13,0,0,1,27,48ZM27,56a.12.12,0,0,1-.13.12H24.72A.12.12,0,0,1,24.6,56V53.58a.12.12,0,0,1,.12-.13h2.16a.13.13,0,0,1,.13.13ZM32.63,26.6H23.18a.23.23,0,0,0-.23.24V59.51a.23.23,0,0,0,.23.23h9.45a.23.23,0,0,0,.23-.23V26.84a.24.24,0,0,0-.23-.24"/><path class="cls-4" d="M45.39,46.34H55.1a.19.19,0,0,1,.19.19v2a.2.2,0,0,1-.2.2H45.38a.19.19,0,0,1-.19-.19v-2a.2.2,0,0,1,.2-.2Z"/><path class="cls-4" d="M43,42.75a.23.23,0,0,1-.23.24H39.92a.23.23,0,0,1-.23-.24V41a.23.23,0,0,1,.23-.23h2.81A.23.23,0,0,1,43,41Zm0,3.3a.23.23,0,0,1-.23.23H39.92a.23.23,0,0,1-.23-.23V44.27a.23.23,0,0,1,.23-.24h2.81a.23.23,0,0,1,.23.24Zm0,3.3a.23.23,0,0,1-.23.23H39.92a.23.23,0,0,1-.23-.23V47.56a.23.23,0,0,1,.23-.23h2.81a.23.23,0,0,1,.23.23Zm0,3.29a.23.23,0,0,1-.23.23H39.92a.23.23,0,0,1-.23-.23V50.86a.23.23,0,0,1,.23-.24h2.81a.23.23,0,0,1,.23.24Zm0,3.3a.23.23,0,0,1-.23.23H39.92a.23.23,0,0,1-.23-.23V54.15a.23.23,0,0,1,.23-.23h2.81a.23.23,0,0,1,.23.23ZM38.67,42.12v3.93a.24.24,0,0,1-.23.24H35.62a.23.23,0,0,1-.23-.24v-.49a.29.29,0,0,1,0-.09v0l0,0,0,0c.36-.53,2-2.55,2.66-3.4l.07-.08a.28.28,0,0,1,.21-.1.28.28,0,0,1,.26.22Zm0,7.23a.23.23,0,0,1-.23.23H35.61a.24.24,0,0,1-.23-.23V47.56a.23.23,0,0,1,.23-.23h2.82a.23.23,0,0,1,.23.23Zm0,3.29a.23.23,0,0,1-.23.23H35.61a.23.23,0,0,1-.23-.23V50.86a.24.24,0,0,1,.23-.24h2.82a.23.23,0,0,1,.23.24Zm0,3.3a.23.23,0,0,1-.23.23H35.61a.23.23,0,0,1-.23-.23V54.15a.23.23,0,0,1,.23-.23h2.82a.23.23,0,0,1,.23.23Zm1.47-16.7.07-.08c.63-.82,1.7-2.16,2.22-2.81l.07-.08a.28.28,0,0,1,.21-.1.28.28,0,0,1,.26.22v3a.26.26,0,0,1-.26.26H40.33a.26.26,0,0,1-.25-.26.31.31,0,0,1,.05-.17M44,32.77a.25.25,0,0,0-.24-.18.28.28,0,0,0-.13,0l0,0-.08.1L34.28,44.67l0,0a.27.27,0,0,0-.08.19V59.56a.23.23,0,0,0,.23.23h9.44a.23.23,0,0,0,.23-.23V32.87a.3.3,0,0,0,0-.1"/><path class="cls-5" d="M65.12,65.86H.69V.69H65.12ZM1.31,65.23H64.49V1.31H1.31Z"/></g></svg>