<svg xmlns="http://www.w3.org/2000/svg" viewBox="0 0 192.69 51.54"><defs><style>.cls-1{fill:#4d4e50;}.cls-2{fill:#ee8122;}</style></defs><g id="Economic_Opportunities_Image" data-name="Economic Opportunities Image"><path class="cls-1" d="M106.58,29.74a1.41,1.41,0,0,1-.55,1.18,2.37,2.37,0,0,1-1.48.42,3.84,3.84,0,0,1-1.57-.26v-.64a3.64,3.64,0,0,0,.77.23,3.81,3.81,0,0,0,.82.09,1.64,1.64,0,0,0,1-.25.83.83,0,0,0,.33-.7.91.91,0,0,0-.11-.49,1.17,1.17,0,0,0-.4-.35,5,5,0,0,0-.85-.36,2.75,2.75,0,0,1-1.14-.68,1.48,1.48,0,0,1-.34-1,1.26,1.26,0,0,1,.49-1.05,2.07,2.07,0,0,1,1.32-.39,3.81,3.81,0,0,1,1.56.31l-.21.58a3.46,3.46,0,0,0-1.37-.3,1.31,1.31,0,0,0-.82.23.74.74,0,0,0-.3.63,1,1,0,0,0,.11.49,1,1,0,0,0,.37.34,3.83,3.83,0,0,0,.79.35,3.35,3.35,0,0,1,1.24.69A1.38,1.38,0,0,1,106.58,29.74Z"/><path class="cls-1" d="M110.27,31.26l-1.94-5.06h0c0,.4.06.88.06,1.43v3.63h-.62V25.55h1l1.81,4.71h0l1.83-4.71h1v5.71h-.66V27.58c0-.42,0-.88.05-1.37h0l-2,5.05Z"/><path class="cls-1" d="M122.4,31.26V28.48a1.2,1.2,0,0,0-.21-.77.86.86,0,0,0-.68-.25,1.11,1.11,0,0,0-.9.34,1.67,1.67,0,0,0-.29,1.07v2.39h-.65V28.48a1.2,1.2,0,0,0-.21-.77.87.87,0,0,0-.69-.25,1.07,1.07,0,0,0-.89.36,2,2,0,0,0-.28,1.2v2.24H117V27h.52l.11.59h0a1.29,1.29,0,0,1,.52-.49,1.54,1.54,0,0,1,.75-.18,1.28,1.28,0,0,1,1.31.73h0a1.37,1.37,0,0,1,.56-.53,1.69,1.69,0,0,1,.82-.2,1.44,1.44,0,0,1,1.09.38,1.66,1.66,0,0,1,.36,1.19v2.79Z"/><path class="cls-1" d="M127,31.26l-.13-.61h0a1.76,1.76,0,0,1-.64.55,2,2,0,0,1-.79.14,1.42,1.42,0,0,1-1-.33,1.2,1.2,0,0,1-.36-.93c0-.86.69-1.32,2.07-1.36l.73,0v-.27a1.06,1.06,0,0,0-.22-.74.87.87,0,0,0-.69-.24,2.8,2.8,0,0,0-1.21.33l-.2-.5a2.61,2.61,0,0,1,.69-.27,2.84,2.84,0,0,1,.76-.1,1.64,1.64,0,0,1,1.13.34,1.41,1.41,0,0,1,.37,1.09v2.92Zm-1.46-.45a1.29,1.29,0,0,0,1-.34,1.22,1.22,0,0,0,.34-.93v-.38l-.64,0a2.19,2.19,0,0,0-1.12.24.71.71,0,0,0-.34.66.66.66,0,0,0,.21.53A.85.85,0,0,0,125.56,30.81Z"/><path class="cls-1" d="M129.49,31.26h-.65V25.19h.65Z"/><path class="cls-1" d="M131.51,31.26h-.65V25.19h.65Z"/><path class="cls-1" d="M135.65,30.1a1.08,1.08,0,0,1-.45.92,2.14,2.14,0,0,1-1.25.32,2.72,2.72,0,0,1-1.33-.27v-.6a3.56,3.56,0,0,0,.67.25,2.71,2.71,0,0,0,.68.09,1.5,1.5,0,0,0,.78-.17.52.52,0,0,0,.27-.49.54.54,0,0,0-.21-.43,3.44,3.44,0,0,0-.85-.42,4.75,4.75,0,0,1-.85-.39,1.22,1.22,0,0,1-.38-.37,1,1,0,0,1-.12-.51.94.94,0,0,1,.43-.82,2,2,0,0,1,1.17-.31,3.38,3.38,0,0,1,1.35.29l-.23.52a3.23,3.23,0,0,0-1.17-.26,1.44,1.44,0,0,0-.7.14.46.46,0,0,0-.23.4.48.48,0,0,0,.09.29.84.84,0,0,0,.28.23,5.4,5.4,0,0,0,.75.32,2.84,2.84,0,0,1,1,.56A1,1,0,0,1,135.65,30.1Z"/><path class="cls-1" d="M141.41,31.26l-.13-.61h0a1.76,1.76,0,0,1-.64.55,2,2,0,0,1-.79.14,1.42,1.42,0,0,1-1-.33,1.2,1.2,0,0,1-.36-.93c0-.86.69-1.32,2.07-1.36l.73,0v-.27a1.06,1.06,0,0,0-.22-.74.87.87,0,0,0-.69-.24,2.8,2.8,0,0,0-1.21.33l-.2-.5a2.61,2.61,0,0,1,.69-.27,2.89,2.89,0,0,1,.76-.1,1.64,1.64,0,0,1,1.13.34,1.41,1.41,0,0,1,.37,1.09v2.92ZM140,30.81a1.29,1.29,0,0,0,1-.34,1.22,1.22,0,0,0,.34-.93v-.38l-.64,0a2.19,2.19,0,0,0-1.12.24.71.71,0,0,0-.34.66.66.66,0,0,0,.21.53A.85.85,0,0,0,140,30.81Z"/><path class="cls-1" d="M145.18,26.9a2.59,2.59,0,0,1,.51.05l-.09.6a2.08,2.08,0,0,0-.46-.06,1.11,1.11,0,0,0-.89.43,1.51,1.51,0,0,0-.37,1v2.29h-.65V27h.53l.08.8h0a1.92,1.92,0,0,1,.57-.65A1.32,1.32,0,0,1,145.18,26.9Z"/><path class="cls-1" d="M148.3,31.34a1.93,1.93,0,0,1-1.49-.58,2.21,2.21,0,0,1-.55-1.6,2.5,2.5,0,0,1,.51-1.65,1.7,1.7,0,0,1,1.37-.61,1.62,1.62,0,0,1,1.27.53,2.06,2.06,0,0,1,.47,1.4v.41h-2.95a1.68,1.68,0,0,0,.38,1.14,1.29,1.29,0,0,0,1,.4,3.46,3.46,0,0,0,1.36-.29v.57a3.56,3.56,0,0,1-.65.22A3.88,3.88,0,0,1,148.3,31.34Zm-.17-3.89a1,1,0,0,0-.82.33,1.57,1.57,0,0,0-.37.93h2.24a1.44,1.44,0,0,0-.27-.94A1,1,0,0,0,148.13,27.45Z"/><path class="cls-1" d="M153.16,25.55h1.61a3.13,3.13,0,0,1,1.65.34,1.4,1.4,0,0,1,.22,1.91,1.33,1.33,0,0,1-.83.43v0c.87.15,1.31.61,1.31,1.37a1.47,1.47,0,0,1-.52,1.19,2.2,2.2,0,0,1-1.45.43h-2Zm.66,2.45h1.1a1.84,1.84,0,0,0,1-.22.88.88,0,0,0,.31-.75.75.75,0,0,0-.35-.69,2.16,2.16,0,0,0-1.09-.21h-1Zm0,.56V30.7H155a1.73,1.73,0,0,0,1.05-.27,1,1,0,0,0,.34-.84.88.88,0,0,0-.35-.78,1.89,1.89,0,0,0-1.09-.25Z"/><path class="cls-1" d="M158.85,27v2.78a1.1,1.1,0,0,0,.24.78,1,1,0,0,0,.75.26,1.2,1.2,0,0,0,1-.37,1.82,1.82,0,0,0,.31-1.2V27h.65v4.28h-.54l-.09-.57h0a1.31,1.31,0,0,1-.56.48,1.71,1.71,0,0,1-.8.17,1.63,1.63,0,0,1-1.17-.37,1.58,1.58,0,0,1-.39-1.19V27Z"/><path class="cls-1" d="M165.92,30.1a1.08,1.08,0,0,1-.45.92,2.14,2.14,0,0,1-1.25.32,2.72,2.72,0,0,1-1.33-.27v-.6a3.56,3.56,0,0,0,.67.25,2.71,2.71,0,0,0,.68.09,1.5,1.5,0,0,0,.78-.17.56.56,0,0,0,0-.92,3.15,3.15,0,0,0-.84-.42,4.75,4.75,0,0,1-.85-.39,1.22,1.22,0,0,1-.38-.37,1,1,0,0,1-.12-.51.94.94,0,0,1,.43-.82,2,2,0,0,1,1.16-.31,3.39,3.39,0,0,1,1.36.29l-.23.52a3.23,3.23,0,0,0-1.17-.26,1.44,1.44,0,0,0-.7.14.46.46,0,0,0-.23.4.48.48,0,0,0,.09.29.75.75,0,0,0,.28.23,5.4,5.4,0,0,0,.75.32,2.84,2.84,0,0,1,1,.56A1,1,0,0,1,165.92,30.1Z"/><path class="cls-1" d="M166.92,25.82a.38.38,0,0,1,.11-.32.37.37,0,0,1,.27-.11.4.4,0,0,1,.27.11.44.44,0,0,1,.11.32.45.45,0,0,1-.11.33.4.4,0,0,1-.27.11.37.37,0,0,1-.27-.11A.41.41,0,0,1,166.92,25.82Zm.7,5.44H167V27h.65Z"/><path class="cls-1" d="M171.92,31.26V28.49a1.12,1.12,0,0,0-.23-.78,1,1,0,0,0-.75-.25,1.21,1.21,0,0,0-1,.36,1.81,1.81,0,0,0-.32,1.2v2.24H169V27h.53l.11.59h0a1.28,1.28,0,0,1,.56-.49,1.74,1.74,0,0,1,.8-.18,1.62,1.62,0,0,1,1.16.38,1.58,1.58,0,0,1,.39,1.19v2.79Z"/><path class="cls-1" d="M175.71,31.34a1.93,1.93,0,0,1-1.49-.58,2.21,2.21,0,0,1-.55-1.6,2.5,2.5,0,0,1,.51-1.65,1.7,1.7,0,0,1,1.37-.61,1.62,1.62,0,0,1,1.27.53,2.06,2.06,0,0,1,.47,1.4v.41h-2.95a1.68,1.68,0,0,0,.38,1.14,1.29,1.29,0,0,0,1,.4,3.46,3.46,0,0,0,1.36-.29v.57a3.56,3.56,0,0,1-.65.22A3.88,3.88,0,0,1,175.71,31.34Zm-.17-3.89a1,1,0,0,0-.82.33,1.57,1.57,0,0,0-.37.93h2.24a1.44,1.44,0,0,0-.27-.94A1,1,0,0,0,175.54,27.45Z"/><path class="cls-1" d="M181.15,30.1a1.07,1.07,0,0,1-.44.92,2.14,2.14,0,0,1-1.25.32,2.72,2.72,0,0,1-1.33-.27v-.6a3.74,3.74,0,0,0,.66.25,2.83,2.83,0,0,0,.68.09,1.57,1.57,0,0,0,.79-.17.56.56,0,0,0,.05-.92,3.15,3.15,0,0,0-.84-.42,4.75,4.75,0,0,1-.85-.39,1.12,1.12,0,0,1-.38-.37,1,1,0,0,1-.12-.51.94.94,0,0,1,.43-.82,2,2,0,0,1,1.16-.31,3.34,3.34,0,0,1,1.35.29l-.23.52a3.19,3.19,0,0,0-1.16-.26,1.44,1.44,0,0,0-.7.14.44.44,0,0,0-.23.4.55.55,0,0,0,.08.29.89.89,0,0,0,.29.23,5.4,5.4,0,0,0,.75.32,2.84,2.84,0,0,1,1,.56A1,1,0,0,1,181.15,30.1Z"/><path class="cls-1" d="M185,30.1a1.1,1.1,0,0,1-.44.92,2.16,2.16,0,0,1-1.25.32,2.72,2.72,0,0,1-1.33-.27v-.6a3.23,3.23,0,0,0,.66.25,2.77,2.77,0,0,0,.68.09,1.5,1.5,0,0,0,.78-.17.51.51,0,0,0,.28-.49.55.55,0,0,0-.22-.43,3.44,3.44,0,0,0-.85-.42,5.12,5.12,0,0,1-.85-.39,1.19,1.19,0,0,1-.37-.37,1,1,0,0,1-.12-.51,1,1,0,0,1,.42-.82,2,2,0,0,1,1.17-.31,3.38,3.38,0,0,1,1.35.29l-.23.52a3.23,3.23,0,0,0-1.17-.26,1.4,1.4,0,0,0-.69.14.45.45,0,0,0-.24.4.48.48,0,0,0,.09.29.84.84,0,0,0,.28.23,6.81,6.81,0,0,0,.75.32,2.75,2.75,0,0,1,1,.56A1,1,0,0,1,185,30.1Z"/><path class="cls-1" d="M105.8,35.06a1.88,1.88,0,0,0-1.49.63,3.07,3.07,0,0,0,0,3.45,1.86,1.86,0,0,0,1.5.61,5.19,5.19,0,0,0,1.36-.21v.58a4.12,4.12,0,0,1-1.46.22,2.49,2.49,0,0,1-2-.76,3.2,3.2,0,0,1-.68-2.18,3.47,3.47,0,0,1,.33-1.55,2.4,2.4,0,0,1,1-1,2.89,2.89,0,0,1,1.47-.36,3.52,3.52,0,0,1,1.57.33l-.28.57A3.13,3.13,0,0,0,105.8,35.06Z"/><path class="cls-1" d="M112,38.12a2.35,2.35,0,0,1-.53,1.63,1.84,1.84,0,0,1-1.46.59,1.94,1.94,0,0,1-1-.27,1.82,1.82,0,0,1-.68-.77,2.73,2.73,0,0,1-.25-1.18,2.35,2.35,0,0,1,.53-1.63A1.85,1.85,0,0,1,110,35.9a1.81,1.81,0,0,1,1.43.6A2.38,2.38,0,0,1,112,38.12Zm-3.26,0a2.1,2.1,0,0,0,.32,1.25,1.31,1.31,0,0,0,1.94,0,2,2,0,0,0,.33-1.25,2,2,0,0,0-.33-1.24,1.17,1.17,0,0,0-1-.42,1.14,1.14,0,0,0-1,.41A2.07,2.07,0,0,0,108.74,38.12Z"/><path class="cls-1" d="M116.06,40.26V37.49a1.12,1.12,0,0,0-.23-.78,1,1,0,0,0-.75-.25,1.23,1.23,0,0,0-1,.36,1.81,1.81,0,0,0-.32,1.2v2.24h-.64V36h.52l.11.59h0a1.28,1.28,0,0,1,.56-.49,1.74,1.74,0,0,1,.8-.18,1.62,1.62,0,0,1,1.16.38,1.58,1.58,0,0,1,.39,1.19v2.79Z"/><path class="cls-1" d="M119.43,39.81l.33,0,.25-.05v.49a.89.89,0,0,1-.31.09l-.37,0c-.82,0-1.24-.43-1.24-1.31V36.49h-.61v-.32l.61-.27.28-.91h.37v1H120v.51h-1.24V39a.89.89,0,0,0,.18.59A.66.66,0,0,0,119.43,39.81Z"/><path class="cls-1" d="M120.81,34.82a.38.38,0,0,1,.39-.43.4.4,0,0,1,.27.11.44.44,0,0,1,.11.32.45.45,0,0,1-.11.33.4.4,0,0,1-.27.11.41.41,0,0,1-.28-.11A.45.45,0,0,1,120.81,34.82Zm.71,5.44h-.65V36h.65Z"/><path class="cls-1" d="M125.82,40.26V37.49a1.12,1.12,0,0,0-.24-.78,1,1,0,0,0-.74-.25,1.25,1.25,0,0,0-1,.36,1.88,1.88,0,0,0-.31,1.2v2.24h-.65V36h.53l.11.59h0a1.28,1.28,0,0,1,.56-.49,1.74,1.74,0,0,1,.8-.18,1.62,1.62,0,0,1,1.16.38,1.58,1.58,0,0,1,.39,1.19v2.79Z"/><path class="cls-1" d="M128.41,36v2.78a1.1,1.1,0,0,0,.24.78,1,1,0,0,0,.75.26,1.2,1.2,0,0,0,1-.37,1.82,1.82,0,0,0,.31-1.2V36h.65v4.28h-.54l-.09-.57h0a1.23,1.23,0,0,1-.55.48,1.73,1.73,0,0,1-.81.17,1.35,1.35,0,0,1-1.55-1.56V36Z"/><path class="cls-1" d="M132.66,34.82a.41.41,0,0,1,.11-.32.39.39,0,0,1,.54,0,.4.4,0,0,1,.11.32.41.41,0,0,1-.11.33.39.39,0,0,1-.54,0A.45.45,0,0,1,132.66,34.82Zm.7,5.44h-.65V36h.65Z"/><path class="cls-1" d="M136.12,39.81a1.76,1.76,0,0,0,.33,0l.26-.05v.49a1,1,0,0,1-.32.09l-.36,0c-.83,0-1.25-.43-1.25-1.31V36.49h-.61v-.32l.61-.27.28-.91h.37v1h1.24v.51h-1.24V39a.84.84,0,0,0,.19.59A.63.63,0,0,0,136.12,39.81Z"/><path class="cls-1" d="M136.88,36h.7l.93,2.44a9,9,0,0,1,.39,1.21h0c0-.13.1-.36.21-.68s.46-1.31,1.06-3h.7l-1.84,4.88a2.42,2.42,0,0,1-.64,1,1.36,1.36,0,0,1-.9.31,2.79,2.79,0,0,1-.58-.07V41.6a2.28,2.28,0,0,0,.48,0,1,1,0,0,0,1-.75l.24-.61Z"/><path class="cls-1" d="M146.3,40.26l-1.94-5.06h0c0,.4,0,.88,0,1.43v3.63h-.61V34.55h1l1.81,4.71h0l1.82-4.71h1v5.71h-.66V36.58c0-.42,0-.88.05-1.37h0l-1.95,5Z"/><path class="cls-1" d="M153.53,40.26l-.13-.61h0a1.94,1.94,0,0,1-.64.55,2.08,2.08,0,0,1-.8.14,1.45,1.45,0,0,1-1-.33,1.2,1.2,0,0,1-.36-.93c0-.86.69-1.32,2.08-1.36l.72,0v-.27a1.11,1.11,0,0,0-.21-.74.91.91,0,0,0-.7-.24,2.83,2.83,0,0,0-1.21.33l-.2-.5a2.68,2.68,0,0,1,.7-.27,2.76,2.76,0,0,1,.75-.1,1.69,1.69,0,0,1,1.14.34,1.45,1.45,0,0,1,.37,1.09v2.92Zm-1.47-.45a1.27,1.27,0,0,0,.95-.34,1.23,1.23,0,0,0,.35-.93v-.38l-.65,0a2.19,2.19,0,0,0-1.12.24.73.73,0,0,0-.34.66.64.64,0,0,0,.22.53A.84.84,0,0,0,152.06,39.81Z"/><path class="cls-1" d="M158.27,40.26V37.49a1.12,1.12,0,0,0-.24-.78,1,1,0,0,0-.74-.25,1.25,1.25,0,0,0-1,.36A1.88,1.88,0,0,0,156,38v2.24h-.65V36h.53l.1.59h0a1.31,1.31,0,0,1,.55-.49,1.82,1.82,0,0,1,.81-.18,1.62,1.62,0,0,1,1.16.38,1.58,1.58,0,0,1,.39,1.19v2.79Z"/><path class="cls-1" d="M162.89,40.26l-.13-.61h0a1.83,1.83,0,0,1-.63.55,2.08,2.08,0,0,1-.8.14,1.44,1.44,0,0,1-1-.33,1.2,1.2,0,0,1-.36-.93c0-.86.69-1.32,2.08-1.36l.72,0v-.27a1.11,1.11,0,0,0-.21-.74.91.91,0,0,0-.7-.24,2.83,2.83,0,0,0-1.21.33l-.2-.5a2.55,2.55,0,0,1,.7-.27,2.76,2.76,0,0,1,.75-.1,1.69,1.69,0,0,1,1.14.34,1.45,1.45,0,0,1,.37,1.09v2.92Zm-1.47-.45a1.29,1.29,0,0,0,1-.34,1.23,1.23,0,0,0,.35-.93v-.38l-.65,0a2.19,2.19,0,0,0-1.12.24.73.73,0,0,0-.34.66.66.66,0,0,0,.21.53A.88.88,0,0,0,161.42,39.81Z"/><path class="cls-1" d="M168.21,36v.41l-.8.1a1.29,1.29,0,0,1,.2.35,1.35,1.35,0,0,1,.08.5,1.27,1.27,0,0,1-.43,1,1.72,1.72,0,0,1-1.18.37,2.19,2.19,0,0,1-.36,0,.65.65,0,0,0-.41.55.28.28,0,0,0,.15.26,1,1,0,0,0,.49.08h.76a1.68,1.68,0,0,1,1.07.3,1,1,0,0,1,.37.85,1.22,1.22,0,0,1-.57,1.08,3,3,0,0,1-1.66.38,2.29,2.29,0,0,1-1.3-.32,1,1,0,0,1-.45-.88,1,1,0,0,1,.25-.68,1.26,1.26,0,0,1,.7-.38.77.77,0,0,1-.28-.23.69.69,0,0,1,0-.78,1.35,1.35,0,0,1,.39-.34,1.14,1.14,0,0,1-.54-.46,1.53,1.53,0,0,1,.21-1.83,1.72,1.72,0,0,1,1.2-.39,2.18,2.18,0,0,1,.6.08Zm-3.42,5a.6.6,0,0,0,.29.53,1.64,1.64,0,0,0,.84.18,2.36,2.36,0,0,0,1.21-.24.78.78,0,0,0,.4-.67.53.53,0,0,0-.22-.48,1.67,1.67,0,0,0-.81-.13h-.78a1,1,0,0,0-.68.21A.73.73,0,0,0,164.79,41Zm.35-3.63a.87.87,0,0,0,.26.68,1,1,0,0,0,.7.23c.64,0,1-.3,1-.92a.85.85,0,0,0-1-1,1,1,0,0,0-.7.24A1,1,0,0,0,165.14,37.35Z"/><path class="cls-1" d="M170.89,40.34a2,2,0,0,1-1.5-.58,2.25,2.25,0,0,1-.54-1.6,2.5,2.5,0,0,1,.51-1.65,1.7,1.7,0,0,1,1.36-.61,1.63,1.63,0,0,1,1.28.53,2.06,2.06,0,0,1,.47,1.4v.41h-2.95a1.68,1.68,0,0,0,.38,1.14,1.29,1.29,0,0,0,1,.4,3.46,3.46,0,0,0,1.36-.29v.57a3.56,3.56,0,0,1-.65.22A3.88,3.88,0,0,1,170.89,40.34Zm-.17-3.89a1.08,1.08,0,0,0-.83.33,1.63,1.63,0,0,0-.36.93h2.24a1.44,1.44,0,0,0-.27-.94A1,1,0,0,0,170.72,36.45Z"/><path class="cls-1" d="M179,40.26V37.48a1.14,1.14,0,0,0-.22-.77.83.83,0,0,0-.68-.25,1.09,1.09,0,0,0-.89.34,1.61,1.61,0,0,0-.29,1.07v2.39h-.65V37.48a1.14,1.14,0,0,0-.22-.77.85.85,0,0,0-.68-.25,1.08,1.08,0,0,0-.9.36,2,2,0,0,0-.28,1.2v2.24h-.65V36h.53l.11.59h0a1.27,1.27,0,0,1,.51-.49,1.6,1.6,0,0,1,.75-.18,1.27,1.27,0,0,1,1.31.73h0a1.34,1.34,0,0,1,.55-.53,1.73,1.73,0,0,1,.83-.2,1.46,1.46,0,0,1,1.09.38,1.66,1.66,0,0,1,.36,1.19v2.79Z"/><path class="cls-1" d="M182.82,40.34a2,2,0,0,1-1.5-.58,2.25,2.25,0,0,1-.54-1.6,2.5,2.5,0,0,1,.51-1.65,1.7,1.7,0,0,1,1.36-.61,1.63,1.63,0,0,1,1.28.53,2.06,2.06,0,0,1,.47,1.4v.41h-3a1.68,1.68,0,0,0,.38,1.14,1.29,1.29,0,0,0,1,.4,3.46,3.46,0,0,0,1.36-.29v.57a3.84,3.84,0,0,1-.65.22A3.88,3.88,0,0,1,182.82,40.34Zm-.17-3.89a1.08,1.08,0,0,0-.83.33,1.63,1.63,0,0,0-.36.93h2.24a1.44,1.44,0,0,0-.27-.94A1,1,0,0,0,182.65,36.45Z"/><path class="cls-1" d="M188.43,40.26V37.49a1.12,1.12,0,0,0-.24-.78,1,1,0,0,0-.74-.25,1.25,1.25,0,0,0-1,.36,1.88,1.88,0,0,0-.31,1.2v2.24h-.65V36H186l.11.59h0a1.31,1.31,0,0,1,.55-.49,1.82,1.82,0,0,1,.81-.18,1.62,1.62,0,0,1,1.16.38,1.58,1.58,0,0,1,.39,1.19v2.79Z"/><path class="cls-1" d="M191.8,39.81l.33,0,.25-.05v.49a.89.89,0,0,1-.31.09l-.37,0c-.83,0-1.24-.43-1.24-1.31V36.49h-.61v-.32l.61-.27.27-.91h.38v1h1.24v.51h-1.24V39a.89.89,0,0,0,.18.59A.64.64,0,0,0,191.8,39.81Z"/><path class="cls-1" d="M106.58,47.74a1.41,1.41,0,0,1-.55,1.18,2.37,2.37,0,0,1-1.48.42,3.84,3.84,0,0,1-1.57-.26v-.64a3.64,3.64,0,0,0,.77.23,3.81,3.81,0,0,0,.82.09,1.64,1.64,0,0,0,1-.25.83.83,0,0,0,.33-.7.91.91,0,0,0-.11-.49,1.17,1.17,0,0,0-.4-.35,5,5,0,0,0-.85-.36,2.75,2.75,0,0,1-1.14-.68,1.48,1.48,0,0,1-.34-1,1.26,1.26,0,0,1,.49-1,2.07,2.07,0,0,1,1.32-.39,3.81,3.81,0,0,1,1.56.31l-.21.58a3.46,3.46,0,0,0-1.37-.3,1.31,1.31,0,0,0-.82.23.74.74,0,0,0-.3.63,1,1,0,0,0,.11.49,1,1,0,0,0,.37.34,3.83,3.83,0,0,0,.79.35,3.35,3.35,0,0,1,1.24.69A1.38,1.38,0,0,1,106.58,47.74Z"/><path class="cls-1" d="M107,45h.69l.94,2.44a8.61,8.61,0,0,1,.38,1.21h0c0-.13.11-.36.22-.68s.46-1.31,1.06-3H111l-1.84,4.88a2.33,2.33,0,0,1-.64,1,1.36,1.36,0,0,1-.89.31,3,3,0,0,1-.59-.07V50.6a2.44,2.44,0,0,0,.48,0,1,1,0,0,0,1-.75l.23-.61Z"/><path class="cls-1" d="M114.44,48.1A1.08,1.08,0,0,1,114,49a2.12,2.12,0,0,1-1.25.32,2.68,2.68,0,0,1-1.32-.27v-.6a3.23,3.23,0,0,0,.66.25,2.71,2.71,0,0,0,.68.09,1.5,1.5,0,0,0,.78-.17.52.52,0,0,0,.27-.49.54.54,0,0,0-.21-.43,3.44,3.44,0,0,0-.85-.42,4.75,4.75,0,0,1-.85-.39,1.09,1.09,0,0,1-.37-.37,1,1,0,0,1-.13-.51,1,1,0,0,1,.43-.82A2,2,0,0,1,113,44.9a3.38,3.38,0,0,1,1.35.29l-.23.52a3.23,3.23,0,0,0-1.17-.26,1.37,1.37,0,0,0-.69.14.45.45,0,0,0-.24.4.48.48,0,0,0,.09.29.84.84,0,0,0,.28.23,5.4,5.4,0,0,0,.75.32,2.84,2.84,0,0,1,1,.56A1,1,0,0,1,114.44,48.1Z"/><path class="cls-1" d="M116.88,48.81l.33,0,.25-.05v.49a.89.89,0,0,1-.31.09l-.37,0c-.82,0-1.24-.43-1.24-1.31V45.49h-.61v-.32l.61-.27.27-.91h.38v1h1.24v.51h-1.24V48a.89.89,0,0,0,.18.59A.65.65,0,0,0,116.88,48.81Z"/><path class="cls-1" d="M120.13,49.34a2,2,0,0,1-1.5-.58,2.21,2.21,0,0,1-.55-1.6,2.5,2.5,0,0,1,.51-1.65A1.72,1.72,0,0,1,120,44.9a1.61,1.61,0,0,1,1.27.53,2,2,0,0,1,.47,1.4v.41h-3a1.73,1.73,0,0,0,.38,1.14,1.29,1.29,0,0,0,1,.4,3.51,3.51,0,0,0,1.37-.29v.57a4.16,4.16,0,0,1-.65.22A4,4,0,0,1,120.13,49.34ZM120,45.45a1.06,1.06,0,0,0-.82.33,1.63,1.63,0,0,0-.36.93H121a1.39,1.39,0,0,0-.28-.94A1,1,0,0,0,120,45.45Z"/><path class="cls-1" d="M128.26,49.26V46.48a1.2,1.2,0,0,0-.21-.77.86.86,0,0,0-.68-.25,1.1,1.1,0,0,0-.9.34,1.67,1.67,0,0,0-.29,1.07v2.39h-.65V46.48a1.14,1.14,0,0,0-.22-.77.83.83,0,0,0-.68-.25,1.06,1.06,0,0,0-.89.36,2,2,0,0,0-.28,1.2v2.24h-.65V45h.52l.11.59h0a1.29,1.29,0,0,1,.52-.49,1.54,1.54,0,0,1,.75-.18,1.28,1.28,0,0,1,1.31.73h0a1.37,1.37,0,0,1,.56-.53,1.69,1.69,0,0,1,.82-.2,1.44,1.44,0,0,1,1.09.38,1.66,1.66,0,0,1,.36,1.19v2.79Z"/><path class="cls-1" d="M132,47.07a6.16,6.16,0,0,1,.3-1.94,4.88,4.88,0,0,1,.88-1.58h.63a5.56,5.56,0,0,0-.85,1.66,6.11,6.11,0,0,0,0,3.69,5.7,5.7,0,0,0,.83,1.63h-.62a4.47,4.47,0,0,1-.88-1.55A5.93,5.93,0,0,1,132,47.07Z"/><path class="cls-1" d="M134.79,43.55h1.61a3.13,3.13,0,0,1,1.65.34,1.37,1.37,0,0,1,.22,1.91,1.31,1.31,0,0,1-.82.43v0c.86.15,1.3.61,1.3,1.37a1.44,1.44,0,0,1-.52,1.19,2.18,2.18,0,0,1-1.45.43h-2Zm.67,2.45h1.09a1.82,1.82,0,0,0,1-.22.86.86,0,0,0,.31-.75.74.74,0,0,0-.34-.69,2.2,2.2,0,0,0-1.1-.21h-1Zm0,.56V48.7h1.19a1.68,1.68,0,0,0,1-.27,1,1,0,0,0,.35-.84.89.89,0,0,0-.36-.78,1.89,1.89,0,0,0-1.09-.25Z"/><path class="cls-1" d="M142.42,44.06a1.88,1.88,0,0,0-1.49.63,3.07,3.07,0,0,0,0,3.45,1.86,1.86,0,0,0,1.5.61,5.26,5.26,0,0,0,1.37-.21v.58a4.22,4.22,0,0,1-1.47.22,2.49,2.49,0,0,1-1.95-.76,3.2,3.2,0,0,1-.68-2.18,3.47,3.47,0,0,1,.33-1.55,2.4,2.4,0,0,1,1-1,2.91,2.91,0,0,1,1.47-.36,3.52,3.52,0,0,1,1.57.33l-.28.57A3.09,3.09,0,0,0,142.42,44.06Z"/><path class="cls-1" d="M147.55,49.26l-1.94-5.06h0c0,.4.06.88.06,1.43v3.63H145V43.55h1l1.81,4.71h0l1.83-4.71h1v5.71H150V45.58c0-.42,0-.88.06-1.37h0l-2,5Z"/><path class="cls-1" d="M155.47,47.74a1.39,1.39,0,0,1-.55,1.18,2.37,2.37,0,0,1-1.48.42,3.84,3.84,0,0,1-1.57-.26v-.64a3.64,3.64,0,0,0,.77.23,3.88,3.88,0,0,0,.82.09,1.64,1.64,0,0,0,1-.25.84.84,0,0,0,.34-.7.91.91,0,0,0-.12-.49,1.17,1.17,0,0,0-.4-.35,5,5,0,0,0-.85-.36,2.75,2.75,0,0,1-1.14-.68,1.48,1.48,0,0,1-.34-1,1.26,1.26,0,0,1,.49-1,2.07,2.07,0,0,1,1.32-.39,3.81,3.81,0,0,1,1.56.31l-.2.58a3.55,3.55,0,0,0-1.38-.3,1.31,1.31,0,0,0-.82.23.74.74,0,0,0-.3.63,1,1,0,0,0,.11.49,1,1,0,0,0,.37.34,3.83,3.83,0,0,0,.79.35,3.35,3.35,0,0,1,1.24.69A1.38,1.38,0,0,1,155.47,47.74Z"/><path class="cls-1" d="M157.9,47.07a5.69,5.69,0,0,1-.31,1.92,4.57,4.57,0,0,1-.87,1.54h-.62a5.57,5.57,0,0,0,.83-1.63,6,6,0,0,0,.29-1.84,6.11,6.11,0,0,0-.29-1.85,5.53,5.53,0,0,0-.84-1.66h.63a4.93,4.93,0,0,1,.88,1.59A6.1,6.1,0,0,1,157.9,47.07Z"/><path class="cls-1" d="M162.69,49.34a1.83,1.83,0,0,1-1.44-.57,2.35,2.35,0,0,1-.51-1.62,2.44,2.44,0,0,1,.52-1.66,1.88,1.88,0,0,1,1.48-.59,3.17,3.17,0,0,1,.61.07,2.34,2.34,0,0,1,.49.16l-.2.55a2.15,2.15,0,0,0-.47-.14,2,2,0,0,0-.45-.06c-.87,0-1.3.55-1.3,1.66a2,2,0,0,0,.31,1.21,1.13,1.13,0,0,0,1,.43,2.8,2.8,0,0,0,1.1-.24v.58A2.35,2.35,0,0,1,162.69,49.34Z"/><path class="cls-1" d="M166.6,49.34a2,2,0,0,1-1.5-.58,2.25,2.25,0,0,1-.55-1.6,2.5,2.5,0,0,1,.51-1.65,1.72,1.72,0,0,1,1.37-.61,1.64,1.64,0,0,1,1.28.53,2.06,2.06,0,0,1,.46,1.4v.41h-2.95a1.73,1.73,0,0,0,.39,1.14,1.28,1.28,0,0,0,1,.4,3.51,3.51,0,0,0,1.37-.29v.57a3.84,3.84,0,0,1-.65.22A3.88,3.88,0,0,1,166.6,49.34Zm-.18-3.89a1.08,1.08,0,0,0-.82.33,1.63,1.63,0,0,0-.36.93h2.24a1.44,1.44,0,0,0-.27-.94A1,1,0,0,0,166.42,45.45Z"/><path class="cls-1" d="M171.23,44.9a2.59,2.59,0,0,1,.51.05l-.09.6a2.08,2.08,0,0,0-.46-.06,1.11,1.11,0,0,0-.89.43,1.51,1.51,0,0,0-.37,1v2.29h-.65V45h.53l.08.8h0a1.92,1.92,0,0,1,.57-.65A1.34,1.34,0,0,1,171.23,44.9Z"/><path class="cls-1" d="M173.93,48.81l.33,0,.25-.05v.49a.89.89,0,0,1-.31.09l-.37,0c-.82,0-1.24-.43-1.24-1.31V45.49H172v-.32l.61-.27.28-.91h.37v1h1.24v.51h-1.24V48a.89.89,0,0,0,.18.59A.66.66,0,0,0,173.93,48.81Z"/><path class="cls-1" d="M175.31,43.82a.38.38,0,0,1,.39-.43.4.4,0,0,1,.27.11.44.44,0,0,1,.11.32.45.45,0,0,1-.11.33.4.4,0,0,1-.27.11.41.41,0,0,1-.28-.11A.45.45,0,0,1,175.31,43.82Zm.71,5.44h-.65V45H176Z"/><path class="cls-1" d="M179.32,45.49h-1.09v3.77h-.65V45.49h-.76v-.3l.76-.23v-.24c0-1,.46-1.58,1.38-1.58a2.87,2.87,0,0,1,.8.14l-.17.52a2.14,2.14,0,0,0-.64-.12.63.63,0,0,0-.54.24,1.35,1.35,0,0,0-.18.79V45h1.09Zm.73-1.67a.41.41,0,0,1,.11-.32.39.39,0,0,1,.54,0,.4.4,0,0,1,.11.32.41.41,0,0,1-.11.33.39.39,0,0,1-.54,0A.45.45,0,0,1,180.05,43.82Zm.7,5.44h-.65V45h.65Z"/><path class="cls-1" d="M183.94,49.34a1.94,1.94,0,0,1-1.5-.58,2.21,2.21,0,0,1-.55-1.6,2.5,2.5,0,0,1,.51-1.65,1.72,1.72,0,0,1,1.37-.61,1.61,1.61,0,0,1,1.27.53,2.06,2.06,0,0,1,.47,1.4v.41h-2.95a1.68,1.68,0,0,0,.38,1.14,1.29,1.29,0,0,0,1,.4,3.51,3.51,0,0,0,1.37-.29v.57a4.16,4.16,0,0,1-.65.22A4,4,0,0,1,183.94,49.34Zm-.18-3.89a1.06,1.06,0,0,0-.82.33,1.51,1.51,0,0,0-.36.93h2.23a1.44,1.44,0,0,0-.27-.94A1,1,0,0,0,183.76,45.45Z"/><path class="cls-1" d="M189.53,48.69h0a1.51,1.51,0,0,1-1.34.65,1.61,1.61,0,0,1-1.31-.57,2.56,2.56,0,0,1-.46-1.64,2.52,2.52,0,0,1,.47-1.64,1.72,1.72,0,0,1,2.64,0h0l0-.31,0-.3V43.19h.65v6.07h-.52Zm-1.3.11a1.19,1.19,0,0,0,1-.36,1.89,1.89,0,0,0,.29-1.17v-.14a2.15,2.15,0,0,0-.3-1.29,1.14,1.14,0,0,0-1-.39,1,1,0,0,0-.87.44,2.22,2.22,0,0,0-.3,1.25,2.12,2.12,0,0,0,.3,1.24A1,1,0,0,0,188.23,48.8Z"/><path class="cls-2" d="M114.85,4.71a4.09,4.09,0,0,1-1,2.8A4.76,4.76,0,0,1,111.18,9v.1a5.06,5.06,0,0,1,3.18,1.37,4,4,0,0,1,1,2.88,4.66,4.66,0,0,1-1.77,3.92,8,8,0,0,1-5,1.37,14.76,14.76,0,0,1-2.59-.21,8.66,8.66,0,0,1-2.29-.75V15.71a11.3,11.3,0,0,0,2.47.87,11.19,11.19,0,0,0,2.49.3q4.62,0,4.62-3.62,0-3.26-5.1-3.25h-1.76V8.27h1.78a5.31,5.31,0,0,0,3.31-.93,3,3,0,0,0,1.22-2.55,2.53,2.53,0,0,0-.89-2A3.69,3.69,0,0,0,109.42,2a7.57,7.57,0,0,0-2.21.32,9.89,9.89,0,0,0-2.37,1.17l-1-1.37A8.64,8.64,0,0,1,106.35.75a9.19,9.19,0,0,1,3-.49,6.14,6.14,0,0,1,4,1.19A4,4,0,0,1,114.85,4.71Z"/><path class="cls-2" d="M120.35,18.36l7.39-16H118V.51h11.88V2.14l-7.3,16.22Z"/><path class="cls-1" d="M4,28.7a2.35,2.35,0,0,1-.53,1.63A1.84,1.84,0,0,1,2,30.92a1.94,1.94,0,0,1-1-.27,1.77,1.77,0,0,1-.68-.77A2.59,2.59,0,0,1,.07,28.7,2.35,2.35,0,0,1,.6,27.07a1.85,1.85,0,0,1,1.45-.59,1.81,1.81,0,0,1,1.43.6A2.38,2.38,0,0,1,4,28.7Zm-3.26,0A2.1,2.1,0,0,0,1.07,30a1.13,1.13,0,0,0,1,.43A1.15,1.15,0,0,0,3,30a2.51,2.51,0,0,0,0-2.49A1.17,1.17,0,0,0,2,27a1.14,1.14,0,0,0-1,.41A2,2,0,0,0,.75,28.7Z"/><path class="cls-1" d="M7.07,27.07H6v3.77H5.34V27.07H4.57v-.3l.77-.23V26.3c0-1.05.46-1.58,1.38-1.58a2.87,2.87,0,0,1,.79.14l-.17.52a2.14,2.14,0,0,0-.64-.12.63.63,0,0,0-.54.24,1.38,1.38,0,0,0-.18.79v.27H7.07Z"/><path class="cls-1" d="M12.48,25.65a1.86,1.86,0,0,0-1.49.62A2.55,2.55,0,0,0,10.45,28,2.57,2.57,0,0,0,11,29.72a1.86,1.86,0,0,0,1.5.61,5.19,5.19,0,0,0,1.36-.21v.58a4.12,4.12,0,0,1-1.46.22,2.49,2.49,0,0,1-1.95-.76A3.15,3.15,0,0,1,9.73,28a3.47,3.47,0,0,1,.33-1.55,2.37,2.37,0,0,1,1-1,2.85,2.85,0,0,1,1.46-.36,3.57,3.57,0,0,1,1.58.33l-.29.57A3,3,0,0,0,12.48,25.65Z"/><path class="cls-1" d="M17.61,30.84l-.13-.61h0a1.76,1.76,0,0,1-.64.55,1.83,1.83,0,0,1-.79.14,1.44,1.44,0,0,1-1-.33,1.18,1.18,0,0,1-.36-.93c0-.86.69-1.32,2.07-1.36l.73,0V28a1.06,1.06,0,0,0-.22-.74.87.87,0,0,0-.69-.24,2.8,2.8,0,0,0-1.21.33l-.2-.5a3.54,3.54,0,0,1,.69-.27,3.38,3.38,0,0,1,.76-.1,1.64,1.64,0,0,1,1.13.34,1.41,1.41,0,0,1,.37,1.09v2.92Zm-1.46-.45a1.32,1.32,0,0,0,1-.33,1.26,1.26,0,0,0,.35-.93v-.39l-.65,0a2.19,2.19,0,0,0-1.12.24.71.71,0,0,0-.34.66.66.66,0,0,0,.21.53A.85.85,0,0,0,16.15,30.39Z"/><path class="cls-1" d="M21.42,30.92a1.87,1.87,0,0,1-.76-.15,1.34,1.34,0,0,1-.58-.48h0a6.07,6.07,0,0,1,0,.71v1.77h-.65V26.56H20l.09.59h0a1.47,1.47,0,0,1,.58-.51,1.84,1.84,0,0,1,.76-.16,1.59,1.59,0,0,1,1.32.59,2.55,2.55,0,0,1,.46,1.63,2.58,2.58,0,0,1-.47,1.64A1.59,1.59,0,0,1,21.42,30.92ZM21.33,27a1.15,1.15,0,0,0-.95.36,1.81,1.81,0,0,0-.3,1.16v.14a2.15,2.15,0,0,0,.3,1.29,1.13,1.13,0,0,0,1,.39,1,1,0,0,0,.87-.45,2.13,2.13,0,0,0,.32-1.24,2.07,2.07,0,0,0-.32-1.23A1,1,0,0,0,21.33,27Z"/><path class="cls-1" d="M27.61,30.84H24.43V25.13h3.18v.59H25.09v1.84h2.37v.59H25.09v2.1h2.52Z"/><path class="cls-1" d="M29.81,28.65l-1.49-2.09h.74l1.13,1.64,1.13-1.64h.73l-1.49,2.09,1.57,2.19h-.74l-1.2-1.73L29,30.84h-.73Z"/><path class="cls-1" d="M37.68,30.84l-.12-.61h0a1.83,1.83,0,0,1-.63.55,1.91,1.91,0,0,1-.8.14,1.44,1.44,0,0,1-1-.33,1.18,1.18,0,0,1-.36-.93c0-.86.69-1.32,2.08-1.36l.72,0V28a1.06,1.06,0,0,0-.22-.74.87.87,0,0,0-.69-.24,2.8,2.8,0,0,0-1.21.33l-.2-.5a3.54,3.54,0,0,1,.69-.27,3.38,3.38,0,0,1,.76-.1,1.69,1.69,0,0,1,1.14.34,1.45,1.45,0,0,1,.36,1.09v2.92Zm-1.46-.45a1.32,1.32,0,0,0,1-.33,1.26,1.26,0,0,0,.35-.93v-.39l-.65,0a2.19,2.19,0,0,0-1.12.24.71.71,0,0,0-.34.66.66.66,0,0,0,.21.53A.85.85,0,0,0,36.22,30.39Z"/><path class="cls-1" d="M40.15,30.84H39.5V24.77h.65Z"/><path class="cls-1" d="M42.17,30.84h-.65V24.77h.65Z"/><path class="cls-1" d="M47.24,28.7a2.35,2.35,0,0,1-.52,1.63,1.85,1.85,0,0,1-1.46.59,1.94,1.94,0,0,1-1-.27,1.73,1.73,0,0,1-.69-.77,2.73,2.73,0,0,1-.24-1.18,2.35,2.35,0,0,1,.52-1.63,1.87,1.87,0,0,1,1.46-.59,1.8,1.8,0,0,1,1.42.6A2.33,2.33,0,0,1,47.24,28.7ZM44,28.7A2,2,0,0,0,44.31,30a1.3,1.3,0,0,0,1.93,0,2.51,2.51,0,0,0,0-2.49,1.15,1.15,0,0,0-1-.42,1.12,1.12,0,0,0-1,.41A2,2,0,0,0,44,28.7Z"/><path class="cls-1" d="M50.09,30.92a1.83,1.83,0,0,1-1.44-.57,2.35,2.35,0,0,1-.51-1.62,2.39,2.39,0,0,1,.52-1.66,1.85,1.85,0,0,1,1.47-.59,3.27,3.27,0,0,1,.62.07,2,2,0,0,1,.48.16l-.19.55a2.33,2.33,0,0,0-.47-.14,2,2,0,0,0-.45-.06c-.87,0-1.31.55-1.31,1.66a2,2,0,0,0,.32,1.21,1.09,1.09,0,0,0,.94.43,2.93,2.93,0,0,0,1.1-.23v.57A2.31,2.31,0,0,1,50.09,30.92Z"/><path class="cls-1" d="M54.82,30.84l-.13-.61h0a1.56,1.56,0,0,1-1.43.69,1.42,1.42,0,0,1-1-.33,1.18,1.18,0,0,1-.36-.93c0-.86.69-1.32,2.07-1.36l.73,0V28a1.06,1.06,0,0,0-.22-.74.87.87,0,0,0-.69-.24,2.8,2.8,0,0,0-1.21.33l-.2-.5a3.54,3.54,0,0,1,.69-.27,3.23,3.23,0,0,1,.76-.1,1.64,1.64,0,0,1,1.13.34,1.41,1.41,0,0,1,.37,1.09v2.92Zm-1.46-.45a1.32,1.32,0,0,0,1-.33,1.25,1.25,0,0,0,.34-.93v-.39l-.65,0a2.17,2.17,0,0,0-1.11.24.71.71,0,0,0-.34.66.66.66,0,0,0,.21.53A.85.85,0,0,0,53.36,30.39Z"/><path class="cls-1" d="M58,30.39a1.84,1.84,0,0,0,.33,0l.26-.05v.5a1.37,1.37,0,0,1-.31.08l-.37,0c-.83,0-1.25-.43-1.25-1.31V27.07h-.61v-.32l.61-.27.28-.91h.37v1h1.24v.51H57.33v2.52a.84.84,0,0,0,.19.59A.63.63,0,0,0,58,30.39Z"/><path class="cls-1" d="M61.27,30.92a2,2,0,0,1-1.5-.58,2.25,2.25,0,0,1-.55-1.6,2.5,2.5,0,0,1,.51-1.65,1.72,1.72,0,0,1,1.37-.61,1.64,1.64,0,0,1,1.28.53,2.06,2.06,0,0,1,.46,1.4v.41h-3A1.71,1.71,0,0,0,60.28,30a1.31,1.31,0,0,0,1,.39,3.51,3.51,0,0,0,1.37-.29v.58a5.39,5.39,0,0,1-.65.21A3.88,3.88,0,0,1,61.27,30.92ZM61.09,27a1.08,1.08,0,0,0-.82.33,1.63,1.63,0,0,0-.36.93h2.24a1.44,1.44,0,0,0-.27-.94A1,1,0,0,0,61.09,27Z"/><path class="cls-1" d="M66.86,30.27h0a1.52,1.52,0,0,1-1.35.65,1.58,1.58,0,0,1-1.3-.57,2.53,2.53,0,0,1-.47-1.63,2.59,2.59,0,0,1,.47-1.65,1.72,1.72,0,0,1,2.64.05h.05l0-.31v-2h.65v6.07H67Zm-1.29.11a1.18,1.18,0,0,0,1-.36,1.82,1.82,0,0,0,.3-1.17v-.13a2.16,2.16,0,0,0-.3-1.3,1.17,1.17,0,0,0-1-.39,1,1,0,0,0-.87.44,2.69,2.69,0,0,0,0,2.49A1,1,0,0,0,65.57,30.38Z"/><path class="cls-1" d="M72.31,30.39a1.69,1.69,0,0,0,.33,0l.26-.05v.5a1.37,1.37,0,0,1-.31.08l-.37,0c-.83,0-1.24-.43-1.24-1.31V27.07h-.62v-.32l.62-.27.27-.91h.38v1h1.24v.51H71.63v2.52a.89.89,0,0,0,.18.59A.63.63,0,0,0,72.31,30.39Z"/><path class="cls-1" d="M77.45,28.7a2.35,2.35,0,0,1-.53,1.63,1.83,1.83,0,0,1-1.45.59,1.89,1.89,0,0,1-1-.27,1.73,1.73,0,0,1-.69-.77,2.73,2.73,0,0,1-.24-1.18A2.35,2.35,0,0,1,74,27.07a1.85,1.85,0,0,1,1.45-.59,1.81,1.81,0,0,1,1.43.6A2.38,2.38,0,0,1,77.45,28.7Zm-3.26,0A2,2,0,0,0,74.52,30a1.12,1.12,0,0,0,1,.43,1.15,1.15,0,0,0,1-.43,2.51,2.51,0,0,0,0-2.49,1.17,1.17,0,0,0-1-.42,1.14,1.14,0,0,0-1,.41A2.07,2.07,0,0,0,74.19,28.7Z"/><path class="cls-1" d="M.26,34.4a.39.39,0,0,1,.11-.32A.37.37,0,0,1,.64,34a.4.4,0,0,1,.27.11A.4.4,0,0,1,1,34.4a.41.41,0,0,1-.11.33.4.4,0,0,1-.27.11.37.37,0,0,1-.27-.11A.41.41,0,0,1,.26,34.4ZM1,39.84H.31V35.56H1Z"/><path class="cls-1" d="M5.27,39.84V37.07A1.14,1.14,0,0,0,5,36.29,1,1,0,0,0,4.28,36a1.23,1.23,0,0,0-1,.36A1.81,1.81,0,0,0,3,37.6v2.24H2.34V35.56h.52l.11.59H3a1.28,1.28,0,0,1,.56-.49,1.74,1.74,0,0,1,.8-.18,1.6,1.6,0,0,1,1.16.38,1.58,1.58,0,0,1,.39,1.19v2.79Z"/><path class="cls-1" d="M9,39.92a1.83,1.83,0,0,1-1.44-.57A2.35,2.35,0,0,1,7,37.73a2.39,2.39,0,0,1,.52-1.66A1.85,1.85,0,0,1,9,35.48a3.27,3.27,0,0,1,.62.07,2.43,2.43,0,0,1,.48.16l-.2.55a2.15,2.15,0,0,0-.47-.14A2,2,0,0,0,9,36.06c-.87,0-1.3.55-1.3,1.66A2,2,0,0,0,8,38.93a1.08,1.08,0,0,0,.94.43,3,3,0,0,0,1.1-.23v.57A2.34,2.34,0,0,1,9,39.92Z"/><path class="cls-1" d="M14.75,37.7a2.35,2.35,0,0,1-.53,1.63,1.81,1.81,0,0,1-1.45.59,1.89,1.89,0,0,1-1-.27,1.73,1.73,0,0,1-.69-.77,2.73,2.73,0,0,1-.24-1.18,2.35,2.35,0,0,1,.52-1.63,1.85,1.85,0,0,1,1.45-.59,1.81,1.81,0,0,1,1.43.6A2.38,2.38,0,0,1,14.75,37.7Zm-3.26,0A2,2,0,0,0,11.82,39a1.13,1.13,0,0,0,1,.43,1.13,1.13,0,0,0,1-.43,2.51,2.51,0,0,0,0-2.49,1.17,1.17,0,0,0-1-.42,1.14,1.14,0,0,0-1,.41A2.07,2.07,0,0,0,11.49,37.7Z"/><path class="cls-1" d="M17.84,35.48a2.59,2.59,0,0,1,.51.05l-.09.6a2.16,2.16,0,0,0-.47-.06,1.17,1.17,0,0,0-.89.43,1.56,1.56,0,0,0-.36,1v2.29h-.65V35.56h.53l.08.8h0a1.92,1.92,0,0,1,.57-.65A1.32,1.32,0,0,1,17.84,35.48Z"/><path class="cls-1" d="M21.14,39.92a1.91,1.91,0,0,1-.76-.15,1.4,1.4,0,0,1-.58-.48h-.05a4.47,4.47,0,0,1,.05.71v1.77h-.65V35.56h.53l.09.59h0a1.54,1.54,0,0,1,.58-.51,1.84,1.84,0,0,1,.76-.16,1.59,1.59,0,0,1,1.32.59,2.55,2.55,0,0,1,.46,1.63,2.58,2.58,0,0,1-.47,1.64A1.58,1.58,0,0,1,21.14,39.92ZM21.05,36a1.16,1.16,0,0,0-.95.36,1.94,1.94,0,0,0-.3,1.16v.14A2.15,2.15,0,0,0,20.1,39a1.14,1.14,0,0,0,1,.39,1,1,0,0,0,.87-.45,2.2,2.2,0,0,0,.31-1.24,2.15,2.15,0,0,0-.31-1.23A1.05,1.05,0,0,0,21.05,36Z"/><path class="cls-1" d="M27.75,37.7a2.35,2.35,0,0,1-.53,1.63,1.81,1.81,0,0,1-1.45.59,1.89,1.89,0,0,1-1-.27,1.73,1.73,0,0,1-.69-.77,2.73,2.73,0,0,1-.24-1.18,2.35,2.35,0,0,1,.52-1.63,1.85,1.85,0,0,1,1.45-.59,1.81,1.81,0,0,1,1.43.6A2.38,2.38,0,0,1,27.75,37.7Zm-3.26,0A2,2,0,0,0,24.82,39a1.3,1.3,0,0,0,1.93,0,2.51,2.51,0,0,0,0-2.49,1.17,1.17,0,0,0-1-.42,1.14,1.14,0,0,0-1,.41A2.07,2.07,0,0,0,24.49,37.7Z"/><path class="cls-1" d="M30.84,35.48a2.59,2.59,0,0,1,.51.05l-.09.6a2.16,2.16,0,0,0-.47-.06,1.17,1.17,0,0,0-.89.43,1.56,1.56,0,0,0-.36,1v2.29h-.65V35.56h.53l.08.8h0a1.92,1.92,0,0,1,.57-.65A1.32,1.32,0,0,1,30.84,35.48Z"/><path class="cls-1" d="M34.79,39.84l-.13-.61h0a1.94,1.94,0,0,1-.64.55,1.91,1.91,0,0,1-.8.14,1.44,1.44,0,0,1-1-.33,1.18,1.18,0,0,1-.36-.93c0-.86.69-1.32,2.08-1.36l.72,0V37a1.11,1.11,0,0,0-.21-.74.91.91,0,0,0-.7-.24,2.83,2.83,0,0,0-1.21.33l-.2-.5a3.4,3.4,0,0,1,.7-.27,3.22,3.22,0,0,1,.75-.1,1.69,1.69,0,0,1,1.14.34,1.45,1.45,0,0,1,.37,1.09v2.92Zm-1.47-.45a1.32,1.32,0,0,0,1-.33,1.26,1.26,0,0,0,.35-.93v-.39l-.65,0a2.19,2.19,0,0,0-1.12.24.73.73,0,0,0-.34.66.66.66,0,0,0,.21.53A.86.86,0,0,0,33.32,39.39Z"/><path class="cls-1" d="M38,39.39a1.87,1.87,0,0,0,.34,0l.25,0v.5a1.23,1.23,0,0,1-.31.08l-.37,0c-.83,0-1.24-.43-1.24-1.31V36.07H36v-.32l.61-.27.27-.91h.38v1h1.24v.51H37.3v2.52a.89.89,0,0,0,.18.59A.63.63,0,0,0,38,39.39Z"/><path class="cls-1" d="M41.23,39.92a1.93,1.93,0,0,1-1.49-.58,2.21,2.21,0,0,1-.55-1.6,2.5,2.5,0,0,1,.51-1.65,1.7,1.7,0,0,1,1.37-.61,1.62,1.62,0,0,1,1.27.53,2.06,2.06,0,0,1,.47,1.4v.41h-3A1.71,1.71,0,0,0,40.24,39a1.32,1.32,0,0,0,1,.39,3.55,3.55,0,0,0,1.37-.29v.58a5,5,0,0,1-.66.21A3.88,3.88,0,0,1,41.23,39.92ZM41.06,36a1.06,1.06,0,0,0-.82.33,1.51,1.51,0,0,0-.36.93h2.23a1.44,1.44,0,0,0-.27-.94A1,1,0,0,0,41.06,36Z"/><path class="cls-1" d="M48.91,39.27h0a1.51,1.51,0,0,1-1.34.65,1.6,1.6,0,0,1-1.31-.57,2.53,2.53,0,0,1-.47-1.63,2.59,2.59,0,0,1,.47-1.65,1.6,1.6,0,0,1,1.31-.59,1.56,1.56,0,0,1,1.33.64h0l0-.31,0-.3V33.77h.65v6.07H49Zm-1.3.11a1.18,1.18,0,0,0,1-.36,1.82,1.82,0,0,0,.3-1.17v-.13a2.16,2.16,0,0,0-.3-1.3,1.16,1.16,0,0,0-1-.39,1,1,0,0,0-.87.44,2.22,2.22,0,0,0-.3,1.25,2.12,2.12,0,0,0,.3,1.24A1,1,0,0,0,47.61,39.38Z"/><path class="cls-1" d="M50.84,34.4a.43.43,0,0,1,.11-.32.39.39,0,0,1,.54,0,.41.41,0,0,1,.12.32.42.42,0,0,1-.12.33.39.39,0,0,1-.54,0A.45.45,0,0,1,50.84,34.4Zm.7,5.44h-.65V35.56h.65Z"/><path class="cls-1" d="M55.68,38.68a1.08,1.08,0,0,1-.45.92,2.12,2.12,0,0,1-1.25.32,2.68,2.68,0,0,1-1.32-.27v-.6a2.74,2.74,0,0,0,.66.25,2.71,2.71,0,0,0,.68.09,1.62,1.62,0,0,0,.78-.16.56.56,0,0,0,.06-.93,3.44,3.44,0,0,0-.85-.42,4.13,4.13,0,0,1-.85-.39,1.09,1.09,0,0,1-.37-.37,1,1,0,0,1-.13-.51,1,1,0,0,1,.43-.82,2,2,0,0,1,1.17-.31,3.38,3.38,0,0,1,1.35.29l-.23.52A3.23,3.23,0,0,0,54.19,36a1.37,1.37,0,0,0-.69.14.45.45,0,0,0-.24.4.46.46,0,0,0,.09.29.84.84,0,0,0,.28.23,5.4,5.4,0,0,0,.75.32,2.84,2.84,0,0,1,1,.56A1,1,0,0,1,55.68,38.68Z"/><path class="cls-1" d="M59.37,39.84l-.13-.61h0a1.94,1.94,0,0,1-.64.55,1.88,1.88,0,0,1-.8.14,1.41,1.41,0,0,1-1-.33,1.16,1.16,0,0,1-.37-.93c0-.86.7-1.32,2.08-1.36l.73,0V37a1.11,1.11,0,0,0-.22-.74.9.9,0,0,0-.69-.24,2.83,2.83,0,0,0-1.22.33l-.2-.5a3.91,3.91,0,0,1,.7-.27,3.22,3.22,0,0,1,.75-.1,1.69,1.69,0,0,1,1.14.34,1.45,1.45,0,0,1,.37,1.09v2.92Zm-1.47-.45a1.31,1.31,0,0,0,1-.33,1.26,1.26,0,0,0,.35-.93v-.39l-.65,0a2.15,2.15,0,0,0-1.11.24.72.72,0,0,0-.35.66.64.64,0,0,0,.22.53A.84.84,0,0,0,57.9,39.39Z"/><path class="cls-1" d="M64,38.68a1.08,1.08,0,0,1-.45.92,2.14,2.14,0,0,1-1.25.32,2.72,2.72,0,0,1-1.33-.27v-.6a3.09,3.09,0,0,0,.66.25,2.84,2.84,0,0,0,.69.09,1.68,1.68,0,0,0,.78-.16.55.55,0,0,0,.27-.5.53.53,0,0,0-.22-.43,3.15,3.15,0,0,0-.84-.42,4.13,4.13,0,0,1-.85-.39,1.22,1.22,0,0,1-.38-.37,1,1,0,0,1-.12-.51.94.94,0,0,1,.43-.82,2,2,0,0,1,1.16-.31,3.39,3.39,0,0,1,1.36.29l-.23.52A3.23,3.23,0,0,0,62.46,36a1.44,1.44,0,0,0-.7.14.46.46,0,0,0-.23.4.46.46,0,0,0,.09.29.75.75,0,0,0,.28.23,5.4,5.4,0,0,0,.75.32,2.84,2.84,0,0,1,1,.56A1,1,0,0,1,64,38.68Z"/><path class="cls-1" d="M66.38,39.39a1.87,1.87,0,0,0,.34,0l.25,0v.5a1.23,1.23,0,0,1-.31.08l-.37,0c-.83,0-1.24-.43-1.24-1.31V36.07h-.62v-.32l.62-.27.27-.91h.38v1h1.24v.51H65.7v2.52a.89.89,0,0,0,.18.59A.63.63,0,0,0,66.38,39.39Z"/><path class="cls-1" d="M69.63,39.92a1.93,1.93,0,0,1-1.49-.58,2.21,2.21,0,0,1-.55-1.6,2.5,2.5,0,0,1,.51-1.65,1.7,1.7,0,0,1,1.37-.61,1.62,1.62,0,0,1,1.27.53,2.06,2.06,0,0,1,.47,1.4v.41H68.26A1.71,1.71,0,0,0,68.64,39a1.32,1.32,0,0,0,1,.39A3.46,3.46,0,0,0,71,39.07v.58a4.87,4.87,0,0,1-.65.21A3.88,3.88,0,0,1,69.63,39.92ZM69.46,36a1,1,0,0,0-.82.33,1.57,1.57,0,0,0-.37.93h2.24a1.44,1.44,0,0,0-.27-.94A1,1,0,0,0,69.46,36Z"/><path class="cls-1" d="M74.27,35.48a2.59,2.59,0,0,1,.51.05l-.09.6a2.23,2.23,0,0,0-.47-.06,1.16,1.16,0,0,0-.89.43,1.51,1.51,0,0,0-.37,1v2.29h-.65V35.56h.54l.07.8h0a1.85,1.85,0,0,1,.58-.65A1.3,1.3,0,0,1,74.27,35.48Z"/><path class="cls-1" d="M2.27,44.48a2.59,2.59,0,0,1,.51.05l-.09.6a2.23,2.23,0,0,0-.47-.06,1.16,1.16,0,0,0-.89.43,1.51,1.51,0,0,0-.37,1v2.29H.31V44.56H.85l.07.8H1a1.85,1.85,0,0,1,.58-.65A1.3,1.3,0,0,1,2.27,44.48Z"/><path class="cls-1" d="M5.39,48.92a1.94,1.94,0,0,1-1.5-.58,2.21,2.21,0,0,1-.55-1.6,2.5,2.5,0,0,1,.51-1.65,1.72,1.72,0,0,1,1.37-.61A1.61,1.61,0,0,1,6.49,45,2,2,0,0,1,7,46.41v.41H4A1.71,1.71,0,0,0,4.39,48a1.32,1.32,0,0,0,1,.39,3.51,3.51,0,0,0,1.37-.29v.58a5.39,5.39,0,0,1-.65.21A4,4,0,0,1,5.39,48.92ZM5.21,45a1.06,1.06,0,0,0-.82.33,1.51,1.51,0,0,0-.36.93H6.27A1.44,1.44,0,0,0,6,45.35,1,1,0,0,0,5.21,45Z"/><path class="cls-1" d="M10.83,47.68a1.08,1.08,0,0,1-.45.92,2.12,2.12,0,0,1-1.25.32,2.65,2.65,0,0,1-1.32-.27v-.6a2.74,2.74,0,0,0,.66.25,2.71,2.71,0,0,0,.68.09,1.62,1.62,0,0,0,.78-.16.55.55,0,0,0,.27-.5A.54.54,0,0,0,10,47.3a3.44,3.44,0,0,0-.85-.42,4.13,4.13,0,0,1-.85-.39,1.09,1.09,0,0,1-.37-.37.92.92,0,0,1-.13-.51.94.94,0,0,1,.43-.82,2,2,0,0,1,1.17-.31,3.38,3.38,0,0,1,1.35.29l-.23.52A3.23,3.23,0,0,0,9.34,45a1.44,1.44,0,0,0-.7.14.46.46,0,0,0-.23.4.46.46,0,0,0,.09.29.84.84,0,0,0,.28.23,5.4,5.4,0,0,0,.75.32,2.84,2.84,0,0,1,1,.56A1,1,0,0,1,10.83,47.68Z"/><path class="cls-1" d="M11.83,43.4a.39.39,0,0,1,.11-.32.37.37,0,0,1,.27-.11.38.38,0,0,1,.38.43.41.41,0,0,1-.11.33.4.4,0,0,1-.27.11.37.37,0,0,1-.27-.11A.41.41,0,0,1,11.83,43.4Zm.7,5.44h-.65V44.56h.65Z"/><path class="cls-1" d="M14.56,48.84h-.65V42.77h.65Z"/><path class="cls-1" d="M15.88,43.4a.42.42,0,0,1,.1-.32.41.41,0,0,1,.28-.11.4.4,0,0,1,.27.11.44.44,0,0,1,.11.32.45.45,0,0,1-.11.33.4.4,0,0,1-.27.11.41.41,0,0,1-.28-.11A.45.45,0,0,1,15.88,43.4Zm.7,5.44h-.65V44.56h.65Z"/><path class="cls-1" d="M19.76,48.92a2,2,0,0,1-1.5-.58,2.25,2.25,0,0,1-.54-1.6,2.56,2.56,0,0,1,.5-1.65,1.72,1.72,0,0,1,1.37-.61,1.63,1.63,0,0,1,1.28.53,2.06,2.06,0,0,1,.47,1.4v.41H18.39A1.71,1.71,0,0,0,18.77,48a1.32,1.32,0,0,0,1,.39,3.46,3.46,0,0,0,1.36-.29v.58a4.87,4.87,0,0,1-.65.21A3.88,3.88,0,0,1,19.76,48.92ZM19.59,45a1.08,1.08,0,0,0-.83.33,1.63,1.63,0,0,0-.36.93h2.24a1.44,1.44,0,0,0-.27-.94A1,1,0,0,0,19.59,45Z"/><path class="cls-1" d="M25.37,48.84V46.07a1.14,1.14,0,0,0-.24-.78,1,1,0,0,0-.74-.25,1.25,1.25,0,0,0-1,.36,1.82,1.82,0,0,0-.31,1.2v2.24h-.65V44.56H23l.1.59h0a1.25,1.25,0,0,1,.55-.49,1.79,1.79,0,0,1,.81-.18,1.62,1.62,0,0,1,1.16.38A1.58,1.58,0,0,1,26,46.05v2.79Z"/><path class="cls-1" d="M28.73,48.39a1.87,1.87,0,0,0,.34,0l.25,0v.5a1.23,1.23,0,0,1-.31.08l-.37,0c-.83,0-1.24-.43-1.24-1.31V45.07h-.61v-.32l.61-.27.27-.91h.38v1h1.24v.51H28.05v2.52a.89.89,0,0,0,.18.59A.63.63,0,0,0,28.73,48.39Z"/><path class="cls-1" d="M34.18,45.07H33.09v3.77h-.64V45.07h-.77v-.3l.77-.23V44.3c0-1,.45-1.58,1.37-1.58a2.87,2.87,0,0,1,.8.14l-.17.52a2.14,2.14,0,0,0-.64-.12.63.63,0,0,0-.54.24,1.38,1.38,0,0,0-.18.79v.27h1.09Z"/><path class="cls-1" d="M36.77,48.92a1.93,1.93,0,0,1-1.49-.58,2.21,2.21,0,0,1-.55-1.6,2.5,2.5,0,0,1,.51-1.65,1.7,1.7,0,0,1,1.37-.61,1.62,1.62,0,0,1,1.27.53,2.06,2.06,0,0,1,.47,1.4v.41h-3A1.71,1.71,0,0,0,35.78,48a1.32,1.32,0,0,0,1,.39,3.46,3.46,0,0,0,1.36-.29v.58a4.87,4.87,0,0,1-.65.21A3.88,3.88,0,0,1,36.77,48.92ZM36.6,45a1,1,0,0,0-.82.33,1.57,1.57,0,0,0-.37.93h2.24a1.44,1.44,0,0,0-.27-.94A1,1,0,0,0,36.6,45Z"/><path class="cls-1" d="M42.09,48.84,42,48.23h0a1.94,1.94,0,0,1-.64.55,1.91,1.91,0,0,1-.8.14,1.44,1.44,0,0,1-1-.33,1.18,1.18,0,0,1-.36-.93c0-.86.69-1.32,2.08-1.36l.72,0V46a1.11,1.11,0,0,0-.21-.74A.91.91,0,0,0,41,45a2.83,2.83,0,0,0-1.21.33l-.2-.5a3.64,3.64,0,0,1,.7-.27,3.22,3.22,0,0,1,.75-.1,1.69,1.69,0,0,1,1.14.34,1.45,1.45,0,0,1,.37,1.09v2.92Zm-1.47-.45a1.32,1.32,0,0,0,1-.33,1.26,1.26,0,0,0,.35-.93v-.39l-.65,0a2.19,2.19,0,0,0-1.12.24.73.73,0,0,0-.34.66.64.64,0,0,0,.22.53A.84.84,0,0,0,40.62,48.39Z"/><path class="cls-1" d="M45.29,48.39a1.84,1.84,0,0,0,.33,0l.25,0v.5a1.23,1.23,0,0,1-.31.08l-.37,0c-.83,0-1.24-.43-1.24-1.31V45.07h-.61v-.32l.61-.27.27-.91h.38v1h1.24v.51H44.6v2.52a.89.89,0,0,0,.18.59A.64.64,0,0,0,45.29,48.39Z"/><path class="cls-1" d="M47.34,44.56v2.78a1.15,1.15,0,0,0,.23.78,1,1,0,0,0,.75.26,1.18,1.18,0,0,0,1-.37,1.82,1.82,0,0,0,.31-1.2V44.56h.65v4.28h-.53l-.1-.57h0a1.29,1.29,0,0,1-.55.48,1.78,1.78,0,0,1-.81.17,1.63,1.63,0,0,1-1.17-.37,1.58,1.58,0,0,1-.39-1.19v-2.8Z"/><path class="cls-1" d="M53.59,44.48a2.59,2.59,0,0,1,.51.05l-.09.6a2.16,2.16,0,0,0-.47-.06,1.17,1.17,0,0,0-.89.43,1.56,1.56,0,0,0-.36,1v2.29h-.65V44.56h.53l.08.8h0a1.92,1.92,0,0,1,.57-.65A1.32,1.32,0,0,1,53.59,44.48Z"/><path class="cls-1" d="M56.71,48.92a2,2,0,0,1-1.5-.58,2.25,2.25,0,0,1-.55-1.6,2.5,2.5,0,0,1,.51-1.65,1.72,1.72,0,0,1,1.37-.61,1.64,1.64,0,0,1,1.28.53,2.06,2.06,0,0,1,.47,1.4v.41H55.34A1.71,1.71,0,0,0,55.72,48a1.31,1.31,0,0,0,1,.39,3.48,3.48,0,0,0,1.37-.29v.58a4.87,4.87,0,0,1-.65.21A3.88,3.88,0,0,1,56.71,48.92ZM56.54,45a1.08,1.08,0,0,0-.83.33,1.63,1.63,0,0,0-.36.93h2.24a1.44,1.44,0,0,0-.27-.94A1,1,0,0,0,56.54,45Z"/><path class="cls-1" d="M62.15,47.68a1.1,1.1,0,0,1-.44.92,2.16,2.16,0,0,1-1.25.32,2.72,2.72,0,0,1-1.33-.27v-.6a2.9,2.9,0,0,0,.66.25,2.77,2.77,0,0,0,.68.09,1.62,1.62,0,0,0,.78-.16.54.54,0,0,0,.28-.5.53.53,0,0,0-.22-.43,3.33,3.33,0,0,0-.84-.42,3.88,3.88,0,0,1-.85-.39,1.12,1.12,0,0,1-.38-.37,1,1,0,0,1-.12-.51,1,1,0,0,1,.42-.82,2,2,0,0,1,1.17-.31,3.38,3.38,0,0,1,1.35.29l-.23.52A3.23,3.23,0,0,0,60.66,45a1.42,1.42,0,0,0-.69.14.45.45,0,0,0-.24.4.46.46,0,0,0,.09.29.79.79,0,0,0,.29.23,5.4,5.4,0,0,0,.75.32,2.93,2.93,0,0,1,1,.56A1,1,0,0,1,62.15,47.68Z"/><path class="cls-2" d="M7.69,18.21h-2V5.49q0-1.59.09-3c-.17.17-.36.35-.57.53S4.06,4,2.33,5.4L1.26,4,6,.36H7.69Z"/><path class="cls-2" d="M26.31,9.26q0,4.64-1.46,6.91a4.93,4.93,0,0,1-4.46,2.28A4.89,4.89,0,0,1,16,16.12Q14.5,13.78,14.5,9.26c0-3.11.49-5.41,1.46-6.92A4.91,4.91,0,0,1,20.39.08,4.92,4.92,0,0,1,24.8,2.44Q26.32,4.8,26.31,9.26Zm-9.75,0a13.06,13.06,0,0,0,.91,5.67,3.05,3.05,0,0,0,2.92,1.78,3.05,3.05,0,0,0,2.93-1.8,13.11,13.11,0,0,0,.91-5.65,13,13,0,0,0-.91-5.63,3.06,3.06,0,0,0-2.93-1.79A3.07,3.07,0,0,0,17.47,3.6,13,13,0,0,0,16.56,9.26Z"/><path class="cls-2" d="M36.1,5.69a7.64,7.64,0,0,1-.94,4.2,3.06,3.06,0,0,1-2.74,1.42,3,3,0,0,1-2.65-1.45,7.66,7.66,0,0,1-.95-4.17,7.83,7.83,0,0,1,.91-4.18A3,3,0,0,1,32.42.11a3.08,3.08,0,0,1,2.73,1.45A7.56,7.56,0,0,1,36.1,5.69Zm-5.59,0A8.2,8.2,0,0,0,31,8.8a1.52,1.52,0,0,0,1.46,1c1.34,0,2-1.39,2-4.15s-.67-4.13-2-4.13a1.52,1.52,0,0,0-1.46,1A8.17,8.17,0,0,0,30.51,5.69ZM43.7.36,33.8,18.21H32L41.91.36Zm3.15,12.48A7.7,7.7,0,0,1,45.92,17a3.07,3.07,0,0,1-2.74,1.42A3,3,0,0,1,40.51,17a7.72,7.72,0,0,1-.93-4.16,7.74,7.74,0,0,1,.91-4.18,3,3,0,0,1,2.69-1.4,3.1,3.1,0,0,1,2.7,1.43A7.38,7.38,0,0,1,46.85,12.84Zm-5.6,0A8.22,8.22,0,0,0,41.7,16a1.52,1.52,0,0,0,1.48,1,1.59,1.59,0,0,0,1.51-1,7.52,7.52,0,0,0,.49-3.13,7.42,7.42,0,0,0-.49-3.1,1.58,1.58,0,0,0-1.51-1,1.52,1.52,0,0,0-1.48,1A8.07,8.07,0,0,0,41.25,12.84Z"/></g></svg>