<svg xmlns="http://www.w3.org/2000/svg" viewBox="0 0 46.71 46.46"><defs><style>.cls-1{fill:#4d4e50;}.cls-2{fill:#488e41;}</style></defs><g id="Economic_Opportunities_Image" data-name="Economic Opportunities Image"><path class="cls-1" d="M7.23,28V25.22A1.15,1.15,0,0,0,7,24.43a1,1,0,0,0-.74-.25,1.25,1.25,0,0,0-1,.36A1.87,1.87,0,0,0,5,25.75V28H4.3V21.91H5v1.84a4.22,4.22,0,0,1,0,.55H5a1.29,1.29,0,0,1,.54-.49,1.79,1.79,0,0,1,.81-.18A1.67,1.67,0,0,1,7.49,24a1.57,1.57,0,0,1,.39,1.18V28Z"/><path class="cls-1" d="M11,28.06a2,2,0,0,1-1.5-.57A2.25,2.25,0,0,1,9,25.88a2.46,2.46,0,0,1,.51-1.64,1.69,1.69,0,0,1,1.37-.61,1.58,1.58,0,0,1,1.27.53,2,2,0,0,1,.47,1.39V26H9.64A1.76,1.76,0,0,0,10,27.11a1.35,1.35,0,0,0,1,.39,3.51,3.51,0,0,0,1.37-.29v.58a4.05,4.05,0,0,1-.65.21A3.88,3.88,0,0,1,11,28.06Zm-.18-3.89a1.08,1.08,0,0,0-.82.33,1.63,1.63,0,0,0-.36.93H11.9a1.36,1.36,0,0,0-.28-.93A1,1,0,0,0,10.84,24.17Z"/><path class="cls-1" d="M15.41,28.06A1.83,1.83,0,0,1,14,27.49a2.35,2.35,0,0,1-.51-1.62A2.41,2.41,0,0,1,14,24.21a1.86,1.86,0,0,1,1.47-.58,3.26,3.26,0,0,1,.62.06,2,2,0,0,1,.48.16l-.19.55a2.33,2.33,0,0,0-.47-.14,2,2,0,0,0-.45-.06c-.87,0-1.31.55-1.31,1.66a2,2,0,0,0,.32,1.22,1.11,1.11,0,0,0,.94.42,2.93,2.93,0,0,0,1.1-.23v.57A2.31,2.31,0,0,1,15.41,28.06Z"/><path class="cls-1" d="M18.89,27.53a1.76,1.76,0,0,0,.33,0,1.33,1.33,0,0,0,.26-.05V28a1.37,1.37,0,0,1-.31.08l-.37,0c-.83,0-1.25-.43-1.25-1.31V24.21h-.61V23.9l.61-.27.28-.92h.37v1h1.24v.51H18.2v2.52a.82.82,0,0,0,.19.59A.63.63,0,0,0,18.89,27.53Z"/><path class="cls-1" d="M23,28l-.12-.61h0a1.78,1.78,0,0,1-.63.54,1.91,1.91,0,0,1-.8.14,1.48,1.48,0,0,1-1-.32A1.21,1.21,0,0,1,20,26.8c0-.86.69-1.32,2.08-1.36l.72,0v-.27a1.11,1.11,0,0,0-.21-.74.91.91,0,0,0-.7-.24,2.83,2.83,0,0,0-1.21.33l-.2-.5a3.4,3.4,0,0,1,.7-.27,3.22,3.22,0,0,1,.75-.1,1.69,1.69,0,0,1,1.14.34,1.45,1.45,0,0,1,.36,1.09V28Zm-1.46-.46a1.32,1.32,0,0,0,.95-.33,1.24,1.24,0,0,0,.35-.93v-.39l-.65,0a2.42,2.42,0,0,0-1.12.24.73.73,0,0,0-.34.66.66.66,0,0,0,.21.53A.86.86,0,0,0,21.5,27.53Z"/><path class="cls-1" d="M26.73,23.63a2.82,2.82,0,0,1,.52,0l-.09.6a3,3,0,0,0-.47-.05,1.13,1.13,0,0,0-.89.42,1.51,1.51,0,0,0-.37,1.05V28h-.65V23.7h.54l.07.8h0a1.85,1.85,0,0,1,.58-.65A1.28,1.28,0,0,1,26.73,23.63Z"/><path class="cls-1" d="M29.86,28.06a2,2,0,0,1-1.5-.57,2.25,2.25,0,0,1-.55-1.61,2.46,2.46,0,0,1,.51-1.64,1.68,1.68,0,0,1,1.37-.61,1.59,1.59,0,0,1,1.27.53,2,2,0,0,1,.47,1.39V26H28.48a1.71,1.71,0,0,0,.38,1.15,1.32,1.32,0,0,0,1,.39,3.51,3.51,0,0,0,1.37-.29v.58a3.08,3.08,0,0,1-1.39.27Zm-.18-3.89a1.06,1.06,0,0,0-.82.33,1.51,1.51,0,0,0-.36.93h2.23a1.41,1.41,0,0,0-.27-.93A1,1,0,0,0,29.68,24.17Z"/><path class="cls-1" d="M35.3,26.82a1.07,1.07,0,0,1-.45.92,2.07,2.07,0,0,1-1.25.32,2.72,2.72,0,0,1-1.33-.27v-.6a3,3,0,0,0,.67.25,2.71,2.71,0,0,0,.68.09,1.62,1.62,0,0,0,.78-.16.55.55,0,0,0,.27-.5.54.54,0,0,0-.22-.43,3.92,3.92,0,0,0-.84-.42,4.22,4.22,0,0,1-.85-.38,1.25,1.25,0,0,1-.38-.38,1,1,0,0,1-.12-.51,1,1,0,0,1,.43-.82,2,2,0,0,1,1.17-.3,3.37,3.37,0,0,1,1.35.28l-.23.52a3.23,3.23,0,0,0-1.17-.26,1.44,1.44,0,0,0-.7.14.46.46,0,0,0-.23.4A.46.46,0,0,0,33,25a.76.76,0,0,0,.28.24,7.71,7.71,0,0,0,.75.31,2.84,2.84,0,0,1,1,.56A1,1,0,0,1,35.3,26.82Z"/><path class="cls-1" d="M42.12,25.84a2.39,2.39,0,0,1-.52,1.64,1.86,1.86,0,0,1-1.46.58,1.94,1.94,0,0,1-1-.27,1.73,1.73,0,0,1-.69-.77,2.73,2.73,0,0,1-.24-1.18,2.4,2.4,0,0,1,.52-1.63,2.08,2.08,0,0,1,2.89,0A2.37,2.37,0,0,1,42.12,25.84Zm-3.26,0a2,2,0,0,0,.33,1.25,1.3,1.3,0,0,0,1.93,0,2,2,0,0,0,.33-1.25,2,2,0,0,0-.33-1.24,1.33,1.33,0,0,0-1.93,0A2,2,0,0,0,38.86,25.84Z"/><path class="cls-1" d="M45.19,24.21H44.1V28h-.65V24.21h-.76v-.29l.76-.24v-.24c0-1.05.46-1.58,1.38-1.58a2.93,2.93,0,0,1,.8.14l-.17.52a2.14,2.14,0,0,0-.64-.12.61.61,0,0,0-.54.24,1.38,1.38,0,0,0-.18.79v.27h1.09Z"/><path class="cls-1" d="M9.76,36.26V33.48a1.2,1.2,0,0,0-.22-.77.85.85,0,0,0-.68-.26,1.13,1.13,0,0,0-.9.35,1.67,1.67,0,0,0-.28,1.07v2.39H7V33.48a1.2,1.2,0,0,0-.22-.77.88.88,0,0,0-.69-.26,1.08,1.08,0,0,0-.89.37A2,2,0,0,0,5,34v2.24H4.3V32h.53l.1.59H5a1.36,1.36,0,0,1,.52-.49,1.54,1.54,0,0,1,.75-.18,1.26,1.26,0,0,1,1.31.73h0a1.43,1.43,0,0,1,.56-.53A1.73,1.73,0,0,1,9,31.9a1.43,1.43,0,0,1,1.08.38,1.6,1.6,0,0,1,.37,1.19v2.79Z"/><path class="cls-1" d="M14.37,36.26l-.12-.61h0a1.83,1.83,0,0,1-.63.55,2.08,2.08,0,0,1-.8.14,1.44,1.44,0,0,1-1-.33,1.2,1.2,0,0,1-.36-.93c0-.87.69-1.32,2.08-1.36l.72,0v-.27a1.09,1.09,0,0,0-.21-.74.91.91,0,0,0-.7-.24,2.8,2.8,0,0,0-1.21.32l-.2-.49a2.55,2.55,0,0,1,.7-.27,2.76,2.76,0,0,1,.75-.1,1.64,1.64,0,0,1,1.14.34,1.45,1.45,0,0,1,.37,1.09v2.92Zm-1.46-.46a1.32,1.32,0,0,0,.95-.33,1.23,1.23,0,0,0,.35-.93v-.38l-.65,0a2.42,2.42,0,0,0-1.12.24.76.76,0,0,0-.34.67.66.66,0,0,0,.21.53A.91.91,0,0,0,12.91,35.8Z"/><path class="cls-1" d="M19.12,36.26V33.49a1.1,1.1,0,0,0-.24-.78,1,1,0,0,0-.74-.26,1.22,1.22,0,0,0-1,.37,1.82,1.82,0,0,0-.31,1.2v2.24h-.65V32h.53l.1.59h0a1.25,1.25,0,0,1,.55-.49,1.77,1.77,0,0,1,.8-.18,1.63,1.63,0,0,1,1.17.38,1.56,1.56,0,0,1,.39,1.19v2.79Z"/><path class="cls-1" d="M24.61,32v.41l-.8.09a1.32,1.32,0,0,1,.28.86,1.25,1.25,0,0,1-.43,1,1.72,1.72,0,0,1-1.18.38,2.19,2.19,0,0,1-.36,0,.64.64,0,0,0-.41.55.28.28,0,0,0,.15.26,1.11,1.11,0,0,0,.49.08h.76a1.68,1.68,0,0,1,1.07.3,1,1,0,0,1,.37.85A1.22,1.22,0,0,1,24,37.81a3,3,0,0,1-1.66.37,2.27,2.27,0,0,1-1.3-.31,1,1,0,0,1-.45-.88,1,1,0,0,1,.25-.68,1.2,1.2,0,0,1,.7-.38.77.77,0,0,1-.28-.23.69.69,0,0,1,0-.78,1.22,1.22,0,0,1,.39-.34,1.14,1.14,0,0,1-.54-.46,1.37,1.37,0,0,1-.21-.75,1.41,1.41,0,0,1,.42-1.09,1.76,1.76,0,0,1,1.2-.38,2.23,2.23,0,0,1,.6.08Zm-3.42,5a.6.6,0,0,0,.29.53,1.64,1.64,0,0,0,.84.18,2.25,2.25,0,0,0,1.21-.25.75.75,0,0,0,.4-.66.53.53,0,0,0-.22-.48,1.64,1.64,0,0,0-.81-.14h-.78a1,1,0,0,0-.68.22A.73.73,0,0,0,21.19,37Zm.35-3.63a.87.87,0,0,0,.26.68,1,1,0,0,0,.7.23.83.83,0,0,0,.95-.92.85.85,0,0,0-1-1,1,1,0,0,0-.7.24A1,1,0,0,0,21.54,33.35Z"/><path class="cls-1" d="M27.44,31.9A2.59,2.59,0,0,1,28,32l-.09.6a2.16,2.16,0,0,0-.47-.06,1.15,1.15,0,0,0-.89.42A1.6,1.6,0,0,0,26.13,34v2.3h-.65V32H26l.07.79h0a2,2,0,0,1,.58-.64A1.3,1.3,0,0,1,27.44,31.9Z"/><path class="cls-1" d="M32.44,34.12a2.35,2.35,0,0,1-.52,1.63,1.87,1.87,0,0,1-1.46.59,1.94,1.94,0,0,1-1-.27,1.78,1.78,0,0,1-.69-.77,2.73,2.73,0,0,1-.24-1.18A2.4,2.4,0,0,1,29,32.49a1.87,1.87,0,0,1,1.46-.59,1.82,1.82,0,0,1,1.43.6A2.37,2.37,0,0,1,32.44,34.12Zm-3.26,0a2,2,0,0,0,.33,1.25,1.3,1.3,0,0,0,1.93,0,2,2,0,0,0,.33-1.25,2,2,0,0,0-.33-1.24,1.13,1.13,0,0,0-1-.43,1.12,1.12,0,0,0-1,.42A2,2,0,0,0,29.18,34.12Z"/><path class="cls-1" d="M34.52,36.26,32.89,32h.7l.92,2.54c.21.59.33,1,.37,1.16h0c0-.14.12-.43.27-.86s.5-1.38,1-2.84h.69l-1.62,4.28Z"/><path class="cls-1" d="M39.4,36.34a2,2,0,0,1-1.5-.58,2.21,2.21,0,0,1-.55-1.6,2.5,2.5,0,0,1,.51-1.65,1.72,1.72,0,0,1,1.37-.61,1.61,1.61,0,0,1,1.27.53,2,2,0,0,1,.47,1.4v.41H38a1.73,1.73,0,0,0,.38,1.14,1.33,1.33,0,0,0,1,.39,3.34,3.34,0,0,0,1.37-.29v.58a4.16,4.16,0,0,1-.65.22A4,4,0,0,1,39.4,36.34Zm-.18-3.89a1.06,1.06,0,0,0-.82.33,1.54,1.54,0,0,0-.36.93h2.24a1.39,1.39,0,0,0-.28-.94A.94.94,0,0,0,39.22,32.45Z"/><path class="cls-1" d="M44.84,35.09a1.09,1.09,0,0,1-.45.93,2.12,2.12,0,0,1-1.25.32,2.68,2.68,0,0,1-1.32-.27v-.6a3.2,3.2,0,0,0,1.34.33,1.51,1.51,0,0,0,.78-.16.53.53,0,0,0,.27-.49.54.54,0,0,0-.21-.43,3.44,3.44,0,0,0-.85-.42,4.75,4.75,0,0,1-.85-.39,1.09,1.09,0,0,1-.37-.37A1,1,0,0,1,41.8,33a1,1,0,0,1,.43-.82,1.91,1.91,0,0,1,1.17-.31,3.55,3.55,0,0,1,1.35.28l-.23.53a3,3,0,0,0-1.17-.26,1.27,1.27,0,0,0-.69.14.45.45,0,0,0-.24.4.48.48,0,0,0,.09.29.84.84,0,0,0,.28.23,5.4,5.4,0,0,0,.75.32,2.69,2.69,0,0,1,1,.56A1,1,0,0,1,44.84,35.09Z"/><path class="cls-1" d="M6.29,44.62a1.88,1.88,0,0,1-.76-.16A1.46,1.46,0,0,1,5,44h0a5.92,5.92,0,0,1,0,.71v1.76H4.3v-6.2h.53l.09.58H5a1.51,1.51,0,0,1,.58-.5,1.7,1.7,0,0,1,.76-.16,1.59,1.59,0,0,1,1.32.58A3.11,3.11,0,0,1,7.6,44,1.59,1.59,0,0,1,6.29,44.62ZM6.2,40.73a1.15,1.15,0,0,0-1,.36A1.83,1.83,0,0,0,5,42.25v.14a2.11,2.11,0,0,0,.3,1.29,1.13,1.13,0,0,0,1,.39,1,1,0,0,0,.87-.45,2.11,2.11,0,0,0,.32-1.23,2,2,0,0,0-.32-1.23A1,1,0,0,0,6.2,40.73Z"/><path class="cls-1" d="M11.16,40.18a2,2,0,0,1,.51,0l-.09.6a2.23,2.23,0,0,0-.47-.06,1.15,1.15,0,0,0-.89.42,1.51,1.51,0,0,0-.37,1.05v2.3H9.2V40.26h.54l.07.79h0a1.81,1.81,0,0,1,.58-.64A1.23,1.23,0,0,1,11.16,40.18Z"/><path class="cls-1" d="M14.28,44.62a2,2,0,0,1-1.5-.58,2.23,2.23,0,0,1-.55-1.61,2.46,2.46,0,0,1,.51-1.64,1.69,1.69,0,0,1,1.37-.61,1.61,1.61,0,0,1,1.27.53,2,2,0,0,1,.47,1.39v.41H12.9a1.69,1.69,0,0,0,.38,1.15,1.32,1.32,0,0,0,1,.39,3.51,3.51,0,0,0,1.37-.29v.58a3.25,3.25,0,0,1-.65.21A3.88,3.88,0,0,1,14.28,44.62Zm-.18-3.9a1,1,0,0,0-.82.34,1.46,1.46,0,0,0-.36.93h2.24a1.39,1.39,0,0,0-.28-.94A1,1,0,0,0,14.1,40.72Z"/><path class="cls-1" d="M19.72,43.37a1.06,1.06,0,0,1-.45.92,2,2,0,0,1-1.25.33,2.75,2.75,0,0,1-1.33-.27v-.6a3.54,3.54,0,0,0,.67.24,2.71,2.71,0,0,0,.68.09,1.51,1.51,0,0,0,.78-.16.56.56,0,0,0,.06-.92,3.44,3.44,0,0,0-.85-.42,4.75,4.75,0,0,1-.85-.39,1.11,1.11,0,0,1-.37-.38.91.91,0,0,1-.13-.5,1,1,0,0,1,.43-.83,2,2,0,0,1,1.17-.3,3.37,3.37,0,0,1,1.35.28L19.4,41a3.07,3.07,0,0,0-1.17-.27,1.32,1.32,0,0,0-.7.15.45.45,0,0,0-.23.39.49.49,0,0,0,.09.3,1,1,0,0,0,.28.23,5.76,5.76,0,0,0,.75.31,3,3,0,0,1,1,.56A1,1,0,0,1,19.72,43.37Z"/><path class="cls-1" d="M22.58,44.62a2,2,0,0,1-1.5-.58,2.28,2.28,0,0,1-.55-1.61A2.46,2.46,0,0,1,21,40.79a1.69,1.69,0,0,1,1.37-.61,1.64,1.64,0,0,1,1.28.53,2,2,0,0,1,.47,1.39v.41H21.21a1.69,1.69,0,0,0,.38,1.15,1.32,1.32,0,0,0,1,.39A3.46,3.46,0,0,0,24,43.76v.58a3.06,3.06,0,0,1-.65.21A3.79,3.79,0,0,1,22.58,44.62Zm-.17-3.9a1.06,1.06,0,0,0-.83.34,1.58,1.58,0,0,0-.36.93h2.24a1.44,1.44,0,0,0-.27-.94A1,1,0,0,0,22.41,40.72Z"/><path class="cls-1" d="M27.21,40.18a2.14,2.14,0,0,1,.52,0l-.09.6a2.23,2.23,0,0,0-.47-.06,1.13,1.13,0,0,0-.89.42,1.51,1.51,0,0,0-.37,1.05v2.3h-.65V40.26h.54l.07.79h0a1.81,1.81,0,0,1,.58-.64A1.22,1.22,0,0,1,27.21,40.18Z"/><path class="cls-1" d="M29.46,44.54l-1.62-4.28h.69l.93,2.54c.2.59.33,1,.36,1.15h0a5.74,5.74,0,0,1,.27-.86c.15-.43.49-1.38,1-2.83h.7l-1.63,4.28Z"/><path class="cls-1" d="M34.34,44.62A2,2,0,0,1,32.85,44a2.23,2.23,0,0,1-.55-1.61,2.46,2.46,0,0,1,.51-1.64,1.68,1.68,0,0,1,1.37-.61,1.62,1.62,0,0,1,1.27.53,2,2,0,0,1,.47,1.39v.41H33a1.69,1.69,0,0,0,.38,1.15,1.32,1.32,0,0,0,1,.39,3.46,3.46,0,0,0,1.36-.29v.58a3.06,3.06,0,0,1-.65.21A3.79,3.79,0,0,1,34.34,44.62Zm-.17-3.9a1,1,0,0,0-.82.34A1.52,1.52,0,0,0,33,42h2.24a1.44,1.44,0,0,0-.27-.94A1,1,0,0,0,34.17,40.72Z"/><path class="cls-1" d="M39.94,44h0a1.52,1.52,0,0,1-1.34.66A1.61,1.61,0,0,1,37.25,44a2.51,2.51,0,0,1-.47-1.63,2.61,2.61,0,0,1,.47-1.65,1.59,1.59,0,0,1,1.31-.58,1.55,1.55,0,0,1,1.33.63h0l0-.31,0-.3V38.46h.65v6.08H40Zm-1.3.11a1.18,1.18,0,0,0,1-.36,1.81,1.81,0,0,0,.3-1.16v-.14a2.16,2.16,0,0,0-.3-1.3,1.16,1.16,0,0,0-1-.39,1,1,0,0,0-.87.45,2.2,2.2,0,0,0-.3,1.25,2.14,2.14,0,0,0,.3,1.24A1,1,0,0,0,38.64,44.07Z"/><path class="cls-2" d="M6.43,20.35h-2V7.63c0-1.06,0-2.06.1-3-.17.17-.36.35-.57.53s-1.18,1-2.91,2.38L0,6.15,4.72,2.5H6.43Z"/><path class="cls-2" d="M25.05,11.4q0,4.64-1.46,6.91a4.93,4.93,0,0,1-4.46,2.28,4.88,4.88,0,0,1-4.38-2.34c-1-1.55-1.51-3.84-1.51-6.85S13.73,6,14.7,4.48a4.89,4.89,0,0,1,4.43-2.26,4.92,4.92,0,0,1,4.41,2.36Q25.06,6.94,25.05,11.4Zm-9.76,0a13,13,0,0,0,.92,5.67,3.07,3.07,0,0,0,2.92,1.78,3.05,3.05,0,0,0,2.93-1.8A13.14,13.14,0,0,0,23,11.4a13,13,0,0,0-.91-5.63A3.06,3.06,0,0,0,19.13,4a3.07,3.07,0,0,0-2.92,1.76A13,13,0,0,0,15.29,11.4Z"/></g></svg>