<svg xmlns="http://www.w3.org/2000/svg" viewBox="0 0 74.98 33.54"><defs><style>.cls-1{fill:#488e41;}</style></defs><g id="Economic_Opportunities_Image" data-name="Economic Opportunities Image"><path class="cls-1" d="M1.84,33.65l-1-.22c0-.18,1-4.51,4.67-6.62a9.56,9.56,0,0,1,7.6-.61c.77-1.78,4-8.16,11.25-8.16h.14s8.35-.54,11.31,7.45a8.68,8.68,0,0,1,9,4L44,30a7.54,7.54,0,0,0-8.33-3.42l-.47.14L35,26.26c-2.57-7.71-10.38-7.2-10.46-7.19H24.4c-7.64,0-10.39,7.6-10.5,7.92l-.17.47-.47-.15c-2.83-.88-5.26-.75-7.22.38C2.79,29.57,1.85,33.61,1.84,33.65Z"/><rect class="cls-1" x="44.42" y="29.2" width="17.45" height="1.03"/><path class="cls-1" d="M32.33,21.68l-1-.22A10.74,10.74,0,0,1,35.91,15a9.31,9.31,0,0,1,7.41-.6c.75-1.73,3.93-7.94,11-7.94h.14s8.13-.54,11,7.25a8.44,8.44,0,0,1,8.76,3.85l-.83.55a7.36,7.36,0,0,0-8.11-3.33l-.46.13-.16-.45c-2.5-7.51-10.12-7-10.19-7h-.12c-7.45,0-10.13,7.4-10.24,7.72l-.16.46-.46-.15c-2.75-.85-5.12-.73-7,.38C33.26,17.71,32.34,21.64,32.33,21.68Z"/></g></svg>