<svg xmlns="http://www.w3.org/2000/svg" viewBox="0 0 258.85 43.45"><defs><style>.cls-1{fill:#488e41;}.cls-2{fill:#fff;}</style></defs><g id="Economic_Opportunities_Image" data-name="Economic Opportunities Image"><rect class="cls-1" x="0.4" width="258.66" height="43.39"/><path class="cls-2" d="M23.77,11.56a3.27,3.27,0,0,0-2.6,1.09,4.49,4.49,0,0,0-1,3,4.46,4.46,0,0,0,.92,3,3.26,3.26,0,0,0,2.62,1.07,8.92,8.92,0,0,0,2.38-.38v1a7.3,7.3,0,0,1-2.56.39,4.32,4.32,0,0,1-3.41-1.34,5.5,5.5,0,0,1-1.2-3.8,6.08,6.08,0,0,1,.58-2.71,4.13,4.13,0,0,1,1.67-1.79,5,5,0,0,1,2.57-.63,6.21,6.21,0,0,1,2.74.57l-.49,1A5.34,5.34,0,0,0,23.77,11.56Z"/><path class="cls-2" d="M34.62,16.9a4.15,4.15,0,0,1-.92,2.86,3.25,3.25,0,0,1-2.55,1,3.35,3.35,0,0,1-1.79-.47A3,3,0,0,1,28.16,19a4.78,4.78,0,0,1-.42-2.07,4.12,4.12,0,0,1,.91-2.85,3.25,3.25,0,0,1,2.55-1,3.17,3.17,0,0,1,2.49,1A4.11,4.11,0,0,1,34.62,16.9Zm-5.71,0a3.51,3.51,0,0,0,.58,2.19,2,2,0,0,0,1.69.75,2,2,0,0,0,1.69-.75,3.57,3.57,0,0,0,.58-2.19,3.53,3.53,0,0,0-.58-2.17A2.06,2.06,0,0,0,31.16,14a2,2,0,0,0-1.68.73A3.52,3.52,0,0,0,28.91,16.9Z"/><path class="cls-2" d="M41.74,20.66V15.81a2,2,0,0,0-.42-1.37A1.7,1.7,0,0,0,40,14a2.14,2.14,0,0,0-1.72.64,3.23,3.23,0,0,0-.54,2.1v3.93H36.61v-7.5h.92l.19,1h.05a2.29,2.29,0,0,1,1-.86,3.23,3.23,0,0,1,1.4-.3,2.89,2.89,0,0,1,2,.65,2.81,2.81,0,0,1,.68,2.09v4.89Z"/><path class="cls-2" d="M50,18.61a1.89,1.89,0,0,1-.78,1.62,3.73,3.73,0,0,1-2.19.56,4.67,4.67,0,0,1-2.32-.47V19.27a5.82,5.82,0,0,0,1.15.43,5.15,5.15,0,0,0,1.2.16,2.64,2.64,0,0,0,1.36-.29.94.94,0,0,0,.48-.86.93.93,0,0,0-.38-.75,5.93,5.93,0,0,0-1.48-.74,7.63,7.63,0,0,1-1.48-.68,1.89,1.89,0,0,1-.66-.66,1.74,1.74,0,0,1-.22-.88,1.66,1.66,0,0,1,.75-1.44,3.43,3.43,0,0,1,2-.53,6,6,0,0,1,2.37.49l-.4.92a5.48,5.48,0,0,0-2-.46,2.36,2.36,0,0,0-1.22.25.79.79,0,0,0-.41.7.86.86,0,0,0,.16.51,1.46,1.46,0,0,0,.49.4,10.38,10.38,0,0,0,1.32.56,4.78,4.78,0,0,1,1.8,1A1.71,1.71,0,0,1,50,18.61Z"/><path class="cls-2" d="M55.05,20.79a3.41,3.41,0,0,1-2.62-1,3.91,3.91,0,0,1-1-2.81,4.32,4.32,0,0,1,.9-2.88A3,3,0,0,1,54.75,13,2.85,2.85,0,0,1,57,14a3.56,3.56,0,0,1,.82,2.45v.72H52.64a3,3,0,0,0,.67,2,2.31,2.31,0,0,0,1.78.68,6.17,6.17,0,0,0,2.39-.5v1a6.54,6.54,0,0,1-1.14.37A6.08,6.08,0,0,1,55.05,20.79ZM54.74,14a1.84,1.84,0,0,0-1.44.59,2.65,2.65,0,0,0-.63,1.62h3.91a2.49,2.49,0,0,0-.47-1.64A1.7,1.7,0,0,0,54.74,14Z"/><path class="cls-2" d="M63.15,13a4.07,4.07,0,0,1,.9.08l-.16,1.05a3.72,3.72,0,0,0-.82-.1,2,2,0,0,0-1.55.74,2.69,2.69,0,0,0-.65,1.84v4H59.74v-7.5h.93l.13,1.39h.06a3.36,3.36,0,0,1,1-1.13A2.3,2.3,0,0,1,63.15,13Z"/><path class="cls-2" d="M67.09,20.66l-2.84-7.5h1.21l1.62,4.45a21.09,21.09,0,0,1,.64,2h.06a14,14,0,0,1,.47-1.5c.27-.76.87-2.41,1.79-5h1.22l-2.84,7.5Z"/><path class="cls-2" d="M77.07,20.66l-.22-1.07h-.06a3,3,0,0,1-1.12.95,3.32,3.32,0,0,1-1.39.25,2.5,2.5,0,0,1-1.74-.57,2.1,2.1,0,0,1-.64-1.63q0-2.28,3.63-2.38l1.28,0V15.7a1.9,1.9,0,0,0-.38-1.3A1.58,1.58,0,0,0,75.21,14a5,5,0,0,0-2.12.57l-.34-.87A5.44,5.44,0,0,1,75.28,13a2.85,2.85,0,0,1,2,.6,2.46,2.46,0,0,1,.64,1.9v5.12Zm-2.56-.8a2.31,2.31,0,0,0,1.66-.58,2.13,2.13,0,0,0,.61-1.63V17L75.64,17a4.09,4.09,0,0,0-2,.42,1.26,1.26,0,0,0-.6,1.16,1.18,1.18,0,0,0,.38.94A1.54,1.54,0,0,0,74.51,19.86Z"/><path class="cls-2" d="M82.67,19.86a3.68,3.68,0,0,0,.58-.05l.45-.09v.87a1.89,1.89,0,0,1-.55.14,3.91,3.91,0,0,1-.64.06c-1.45,0-2.18-.76-2.18-2.29V14.05H79.26V13.5L80.33,13l.48-1.6h.66v1.73h2.17v.89H81.47v4.41a1.46,1.46,0,0,0,.32,1A1.09,1.09,0,0,0,82.67,19.86Z"/><path class="cls-2" d="M85.1,11.13a.74.74,0,0,1,.19-.57.68.68,0,0,1,.48-.18.64.64,0,0,1,.47.19.73.73,0,0,1,.2.56.74.74,0,0,1-.2.57.64.64,0,0,1-.47.19.65.65,0,0,1-.48-.19A.74.74,0,0,1,85.1,11.13Zm1.23,9.53H85.19v-7.5h1.14Z"/><path class="cls-2" d="M95.2,16.9a4.15,4.15,0,0,1-.92,2.86,3.25,3.25,0,0,1-2.55,1,3.35,3.35,0,0,1-1.79-.47A3,3,0,0,1,88.74,19a4.78,4.78,0,0,1-.42-2.07,4.12,4.12,0,0,1,.91-2.85,3.25,3.25,0,0,1,2.55-1,3.17,3.17,0,0,1,2.49,1A4.11,4.11,0,0,1,95.2,16.9Zm-5.71,0a3.51,3.51,0,0,0,.58,2.19,2,2,0,0,0,1.69.75,2,2,0,0,0,1.69-.75A3.57,3.57,0,0,0,94,16.9a3.53,3.53,0,0,0-.58-2.17A2.06,2.06,0,0,0,91.74,14a2,2,0,0,0-1.68.73A3.52,3.52,0,0,0,89.49,16.9Z"/><path class="cls-2" d="M102.32,20.66V15.81a2,2,0,0,0-.42-1.37,1.7,1.7,0,0,0-1.31-.45,2.14,2.14,0,0,0-1.72.64,3.23,3.23,0,0,0-.54,2.1v3.93H97.19v-7.5h.92l.19,1h0a2.29,2.29,0,0,1,1-.86,3.23,3.23,0,0,1,1.4-.3,2.89,2.89,0,0,1,2,.65,2.81,2.81,0,0,1,.68,2.09v4.89Z"/><path class="cls-2" d="M114,20.66l-.23-1.07h0a3.14,3.14,0,0,1-1.12.95,3.36,3.36,0,0,1-1.39.25,2.53,2.53,0,0,1-1.75-.57,2.1,2.1,0,0,1-.63-1.63q0-2.28,3.63-2.38l1.27,0V15.7a1.9,1.9,0,0,0-.38-1.3,1.56,1.56,0,0,0-1.21-.42,5,5,0,0,0-2.12.57l-.35-.87a5.64,5.64,0,0,1,1.21-.47,5.45,5.45,0,0,1,1.33-.17,2.83,2.83,0,0,1,2,.6,2.47,2.47,0,0,1,.65,1.9v5.12Zm-2.57-.8a2.34,2.34,0,0,0,1.67-.58,2.17,2.17,0,0,0,.6-1.63V17L112.6,17a4.09,4.09,0,0,0-1.95.42,1.26,1.26,0,0,0-.6,1.16,1.18,1.18,0,0,0,.37.94A1.58,1.58,0,0,0,111.46,19.86Z"/><path class="cls-2" d="M122.33,20.66V15.81a2,2,0,0,0-.41-1.37,1.72,1.72,0,0,0-1.31-.45,2.13,2.13,0,0,0-1.72.64,3.17,3.17,0,0,0-.55,2.1v3.93h-1.13v-7.5h.92l.18,1h.06a2.29,2.29,0,0,1,1-.86,3.19,3.19,0,0,1,1.4-.3,2.84,2.84,0,0,1,2,.65,2.77,2.77,0,0,1,.69,2.09v4.89Z"/><path class="cls-2" d="M130.9,19.65h-.06a2.68,2.68,0,0,1-2.35,1.14,2.78,2.78,0,0,1-2.29-1,4.39,4.39,0,0,1-.82-2.86,4.57,4.57,0,0,1,.82-2.88,2.78,2.78,0,0,1,2.29-1,2.73,2.73,0,0,1,2.33,1.1h.09l0-.54,0-.52V10H132V20.66h-.92Zm-2.27.19a2.05,2.05,0,0,0,1.68-.63,3.18,3.18,0,0,0,.53-2v-.24a3.77,3.77,0,0,0-.53-2.27,2,2,0,0,0-1.69-.68,1.74,1.74,0,0,0-1.53.77,3.81,3.81,0,0,0-.53,2.19,3.72,3.72,0,0,0,.52,2.17A1.79,1.79,0,0,0,128.63,19.84Z"/><path class="cls-2" d="M144.52,13.57a2.8,2.8,0,0,1-1,2.34,4.73,4.73,0,0,1-3,.82h-1.17v3.93h-1.16v-10h2.59Q144.52,10.66,144.52,13.57Zm-5.17,2.16h1a3.92,3.92,0,0,0,2.24-.5,1.84,1.84,0,0,0,.69-1.6,1.75,1.75,0,0,0-.65-1.48,3.42,3.42,0,0,0-2-.48h-1.3Z"/><path class="cls-2" d="M149.86,13a4.19,4.19,0,0,1,.9.08l-.16,1.05a3.72,3.72,0,0,0-.82-.1,2,2,0,0,0-1.56.74,2.68,2.68,0,0,0-.64,1.84v4h-1.14v-7.5h.94l.13,1.39h.05a3.39,3.39,0,0,1,1-1.13A2.28,2.28,0,0,1,149.86,13Z"/><path class="cls-2" d="M155.32,20.79a3.43,3.43,0,0,1-2.62-1,3.91,3.91,0,0,1-1-2.81,4.37,4.37,0,0,1,.89-2.88A3,3,0,0,1,155,13a2.85,2.85,0,0,1,2.23.92,3.61,3.61,0,0,1,.82,2.45v.72h-5.16a3,3,0,0,0,.66,2,2.33,2.33,0,0,0,1.78.68,6.18,6.18,0,0,0,2.4-.5v1a6.54,6.54,0,0,1-1.14.37A6.12,6.12,0,0,1,155.32,20.79ZM155,14a1.81,1.81,0,0,0-1.44.59,2.72,2.72,0,0,0-.64,1.62h3.92a2.49,2.49,0,0,0-.48-1.64A1.68,1.68,0,0,0,155,14Z"/><path class="cls-2" d="M164.85,18.61a1.89,1.89,0,0,1-.78,1.62,3.73,3.73,0,0,1-2.19.56,4.74,4.74,0,0,1-2.33-.47V19.27a6.16,6.16,0,0,0,1.16.43,5.15,5.15,0,0,0,1.2.16,2.67,2.67,0,0,0,1.36-.29.94.94,0,0,0,.48-.86.93.93,0,0,0-.38-.75,5.93,5.93,0,0,0-1.48-.74,7.63,7.63,0,0,1-1.48-.68,1.89,1.89,0,0,1-.66-.66,1.74,1.74,0,0,1-.22-.88,1.66,1.66,0,0,1,.75-1.44,3.43,3.43,0,0,1,2-.53,6,6,0,0,1,2.37.49l-.4.92a5.48,5.48,0,0,0-2-.46,2.36,2.36,0,0,0-1.22.25.79.79,0,0,0-.41.7.86.86,0,0,0,.16.51,1.46,1.46,0,0,0,.49.4,10.38,10.38,0,0,0,1.32.56,4.87,4.87,0,0,1,1.8,1A1.71,1.71,0,0,1,164.85,18.61Z"/><path class="cls-2" d="M169.86,20.79a3.44,3.44,0,0,1-2.63-1,3.91,3.91,0,0,1-1-2.81,4.32,4.32,0,0,1,.9-2.88A3,3,0,0,1,169.56,13a2.85,2.85,0,0,1,2.23.92,3.56,3.56,0,0,1,.82,2.45v.72h-5.16a3,3,0,0,0,.67,2,2.31,2.31,0,0,0,1.78.68,6.17,6.17,0,0,0,2.39-.5v1a6.54,6.54,0,0,1-1.14.37A6.08,6.08,0,0,1,169.86,20.79ZM169.55,14a1.84,1.84,0,0,0-1.44.59,2.65,2.65,0,0,0-.63,1.62h3.91a2.54,2.54,0,0,0-.47-1.64A1.7,1.7,0,0,0,169.55,14Z"/><path class="cls-2" d="M178,13a4.07,4.07,0,0,1,.9.08l-.16,1.05a3.72,3.72,0,0,0-.82-.1,2,2,0,0,0-1.55.74,2.69,2.69,0,0,0-.65,1.84v4h-1.13v-7.5h.93l.13,1.39h.06a3.26,3.26,0,0,1,1-1.13A2.28,2.28,0,0,1,178,13Z"/><path class="cls-2" d="M181.9,20.66l-2.84-7.5h1.21l1.62,4.45a21.09,21.09,0,0,1,.64,2h.05c.06-.24.21-.74.48-1.5s.86-2.41,1.79-5h1.22l-2.84,7.5Z"/><path class="cls-2" d="M191.88,20.66l-.22-1.07h-.06a3,3,0,0,1-1.12.95,3.32,3.32,0,0,1-1.39.25,2.5,2.5,0,0,1-1.74-.57,2.07,2.07,0,0,1-.64-1.63q0-2.28,3.63-2.38l1.28,0V15.7a1.9,1.9,0,0,0-.38-1.3A1.58,1.58,0,0,0,190,14a5,5,0,0,0-2.12.57l-.35-.87a5.72,5.72,0,0,1,1.22-.47,5.43,5.43,0,0,1,1.32-.17,2.85,2.85,0,0,1,2,.6,2.46,2.46,0,0,1,.64,1.9v5.12Zm-2.56-.8a2.33,2.33,0,0,0,1.66-.58,2.13,2.13,0,0,0,.61-1.63V17l-1.14.05a4.09,4.09,0,0,0-1.95.42,1.26,1.26,0,0,0-.6,1.16,1.18,1.18,0,0,0,.38.94A1.54,1.54,0,0,0,189.32,19.86Z"/><path class="cls-2" d="M197.48,19.86a3.68,3.68,0,0,0,.58-.05l.45-.09v.87a1.89,1.89,0,0,1-.55.14,3.91,3.91,0,0,1-.64.06c-1.45,0-2.18-.76-2.18-2.29V14.05h-1.07V13.5l1.07-.47.48-1.6h.66v1.73h2.17v.89h-2.17v4.41a1.46,1.46,0,0,0,.32,1A1.09,1.09,0,0,0,197.48,19.86Z"/><path class="cls-2" d="M199.91,11.13a.74.74,0,0,1,.19-.57.68.68,0,0,1,.48-.18.64.64,0,0,1,.47.19.73.73,0,0,1,.2.56.74.74,0,0,1-.2.57.64.64,0,0,1-.47.19.65.65,0,0,1-.48-.19A.74.74,0,0,1,199.91,11.13Zm1.23,9.53H200v-7.5h1.14Z"/><path class="cls-2" d="M210,16.9a4.15,4.15,0,0,1-.92,2.86,3.25,3.25,0,0,1-2.55,1,3.35,3.35,0,0,1-1.79-.47,3,3,0,0,1-1.2-1.35,4.78,4.78,0,0,1-.42-2.07,4.12,4.12,0,0,1,.91-2.85,3.25,3.25,0,0,1,2.55-1,3.17,3.17,0,0,1,2.49,1A4.11,4.11,0,0,1,210,16.9Zm-5.71,0a3.51,3.51,0,0,0,.58,2.19,2,2,0,0,0,1.69.75,2,2,0,0,0,1.69-.75,3.58,3.58,0,0,0,.57-2.19,3.53,3.53,0,0,0-.57-2.17,2.06,2.06,0,0,0-1.71-.74,2,2,0,0,0-1.68.73A3.52,3.52,0,0,0,204.3,16.9Z"/><path class="cls-2" d="M217.13,20.66V15.81a2,2,0,0,0-.42-1.37A1.7,1.7,0,0,0,215.4,14a2.14,2.14,0,0,0-1.72.64,3.22,3.22,0,0,0-.55,2.1v3.93H212v-7.5h.92l.19,1h0a2.29,2.29,0,0,1,1-.86,3.23,3.23,0,0,1,1.4-.3,2.89,2.89,0,0,1,2,.65,2.81,2.81,0,0,1,.68,2.09v4.89Z"/><path class="cls-2" d="M230.7,16.9a4.1,4.1,0,0,1-.93,2.86,3.22,3.22,0,0,1-2.55,1,3.31,3.31,0,0,1-1.78-.47,3,3,0,0,1-1.2-1.35,4.64,4.64,0,0,1-.43-2.07,4.12,4.12,0,0,1,.92-2.85,3.24,3.24,0,0,1,2.54-1,3.19,3.19,0,0,1,2.5,1A4.11,4.11,0,0,1,230.7,16.9Zm-5.71,0a3.58,3.58,0,0,0,.57,2.19,2.28,2.28,0,0,0,3.38,0,3.51,3.51,0,0,0,.58-2.19,3.46,3.46,0,0,0-.58-2.17,2,2,0,0,0-1.7-.74,2,2,0,0,0-1.68.73A3.52,3.52,0,0,0,225,16.9Z"/><path class="cls-2" d="M236.06,14.05h-1.9v6.61H233V14.05h-1.34v-.52l1.34-.41v-.41c0-1.85.8-2.77,2.41-2.77a5,5,0,0,1,1.4.24l-.3.91a3.74,3.74,0,0,0-1.12-.21,1.08,1.08,0,0,0-.95.43,2.42,2.42,0,0,0-.3,1.37v.48h1.9Z"/><path class="cls-2" d="M27.3,34.31H26l-5.46-8.39h-.05c.07,1,.11,1.89.11,2.71v5.68H19.49v-10h1.32l5.44,8.35h.06c0-.12,0-.52-.06-1.19s-.05-1.14,0-1.43V24.32H27.3Z"/><path class="cls-2" d="M34.48,34.31l-.22-1.06H34.2a3.24,3.24,0,0,1-1.11,1,3.39,3.39,0,0,1-1.39.25A2.47,2.47,0,0,1,30,33.87a2.08,2.08,0,0,1-.63-1.63c0-1.51,1.21-2.31,3.63-2.38l1.27,0v-.46a1.93,1.93,0,0,0-.38-1.31,1.57,1.57,0,0,0-1.22-.42,4.81,4.81,0,0,0-2.11.58l-.35-.87a5.16,5.16,0,0,1,1.21-.47,5,5,0,0,1,1.32-.17,2.84,2.84,0,0,1,2,.59,2.49,2.49,0,0,1,.65,1.91v5.11Zm-2.56-.8a2.31,2.31,0,0,0,1.67-.58,2.17,2.17,0,0,0,.6-1.63v-.67l-1.13,0a4.36,4.36,0,0,0-2,.42,1.29,1.29,0,0,0-.59,1.16,1.16,1.16,0,0,0,.37.94A1.56,1.56,0,0,0,31.92,33.51Z"/><path class="cls-2" d="M40.08,33.51a3.6,3.6,0,0,0,.58,0l.45-.09v.86a2.09,2.09,0,0,1-.55.15,3.81,3.81,0,0,1-.64.06c-1.45,0-2.17-.77-2.17-2.29V27.7H36.67v-.55l1.08-.47.47-1.6h.66v1.74h2.17v.88H38.88v4.41a1.54,1.54,0,0,0,.32,1A1.13,1.13,0,0,0,40.08,33.51Z"/><path class="cls-2" d="M43.67,26.82v4.86a2,2,0,0,0,.42,1.37,1.69,1.69,0,0,0,1.3.45,2.15,2.15,0,0,0,1.72-.64,3.2,3.2,0,0,0,.55-2.1V26.82h1.13v7.49h-.93l-.17-1h-.06a2.16,2.16,0,0,1-1,.84,3.18,3.18,0,0,1-1.41.3,2.9,2.9,0,0,1-2-.65,2.78,2.78,0,0,1-.68-2.08v-4.9Z"/><path class="cls-2" d="M54.62,26.68a4.74,4.74,0,0,1,.89.08l-.16,1.06a3.79,3.79,0,0,0-.82-.11,2,2,0,0,0-1.55.74,2.72,2.72,0,0,0-.65,1.84v4H51.2V26.82h.93l.13,1.39h.06a3.27,3.27,0,0,1,1-1.13A2.27,2.27,0,0,1,54.62,26.68Z"/><path class="cls-2" d="M61.52,34.31l-.23-1.06h0a3.26,3.26,0,0,1-1.12,1,3.32,3.32,0,0,1-1.39.25A2.5,2.5,0,0,1,57,33.87a2.08,2.08,0,0,1-.63-1.63c0-1.51,1.21-2.31,3.63-2.38l1.27,0v-.46a1.88,1.88,0,0,0-.38-1.31,1.54,1.54,0,0,0-1.21-.42,4.88,4.88,0,0,0-2.12.58l-.35-.87a5.24,5.24,0,0,1,1.22-.47,5,5,0,0,1,1.32-.17,2.87,2.87,0,0,1,2,.59,2.49,2.49,0,0,1,.64,1.91v5.11ZM59,33.51a2.29,2.29,0,0,0,1.66-.58,2.17,2.17,0,0,0,.61-1.63v-.67l-1.14,0a4.34,4.34,0,0,0-2,.42,1.27,1.27,0,0,0-.6,1.16,1.2,1.2,0,0,0,.37.94A1.59,1.59,0,0,0,59,33.51Z"/><path class="cls-2" d="M65.83,34.31H64.7V23.67h1.13Z"/><path class="cls-2" d="M77.62,34.31H72.05v-10h5.57v1H73.21v3.22h4.14v1H73.21v3.68h4.41Z"/><path class="cls-2" d="M84.79,34.31V29.46a1.93,1.93,0,0,0-.42-1.36,1.68,1.68,0,0,0-1.3-.45,2.18,2.18,0,0,0-1.73.63,3.27,3.27,0,0,0-.54,2.1v3.93H79.66V26.82h.93l.18,1h.06a2.3,2.3,0,0,1,1-.85,3.09,3.09,0,0,1,1.4-.31,2.81,2.81,0,0,1,2,.66,2.74,2.74,0,0,1,.68,2.08v4.89Z"/><path class="cls-2" d="M89.9,34.31l-2.85-7.49h1.22l1.61,4.44c.37,1,.58,1.72.65,2h0a13.51,13.51,0,0,1,.48-1.5q.39-1.14,1.79-5h1.22l-2.85,7.49Z"/><path class="cls-2" d="M95.17,24.79a.74.74,0,0,1,.2-.57.64.64,0,0,1,.47-.18.7.7,0,0,1,.48.18.74.74,0,0,1,.19.57.77.77,0,0,1-.19.57.66.66,0,0,1-.48.19.61.61,0,0,1-.47-.19A.77.77,0,0,1,95.17,24.79Zm1.23,9.52H95.27V26.82H96.4Z"/><path class="cls-2" d="M102.23,26.68a4.74,4.74,0,0,1,.89.08L103,27.82a3.87,3.87,0,0,0-.82-.11,2,2,0,0,0-1.56.74,2.71,2.71,0,0,0-.64,1.84v4H98.81V26.82h.94l.13,1.39h.05a3.19,3.19,0,0,1,1-1.13A2.21,2.21,0,0,1,102.23,26.68Z"/><path class="cls-2" d="M111,30.56a4.16,4.16,0,0,1-.92,2.86,3.25,3.25,0,0,1-2.55,1,3.38,3.38,0,0,1-1.78-.47,3.15,3.15,0,0,1-1.21-1.36,4.7,4.7,0,0,1-.42-2.06A4.16,4.16,0,0,1,105,27.7a3.26,3.26,0,0,1,2.55-1,3.17,3.17,0,0,1,2.5,1.05A4.15,4.15,0,0,1,111,30.56Zm-5.71,0a3.59,3.59,0,0,0,.58,2.19,2,2,0,0,0,1.69.75,2,2,0,0,0,1.69-.75,3.57,3.57,0,0,0,.58-2.19,3.51,3.51,0,0,0-.58-2.17,2,2,0,0,0-1.71-.74,2,2,0,0,0-1.68.73A3.5,3.5,0,0,0,105.28,30.56Z"/><path class="cls-2" d="M118.11,34.31V29.46a1.93,1.93,0,0,0-.42-1.36,1.69,1.69,0,0,0-1.3-.45,2.18,2.18,0,0,0-1.73.63,3.27,3.27,0,0,0-.54,2.1v3.93H113V26.82h.92l.19,1h0a2.39,2.39,0,0,1,1-.85,3.09,3.09,0,0,1,1.4-.31,2.84,2.84,0,0,1,2,.66,2.74,2.74,0,0,1,.68,2.08v4.89Z"/><path class="cls-2" d="M126.41,32.27a1.88,1.88,0,0,1-.78,1.61,3.66,3.66,0,0,1-2.19.57,4.78,4.78,0,0,1-2.32-.47V32.92a5,5,0,0,0,1.15.43,4.67,4.67,0,0,0,1.2.16,2.65,2.65,0,0,0,1.36-.28.94.94,0,0,0,.48-.87.93.93,0,0,0-.38-.75,6,6,0,0,0-1.48-.73A8.29,8.29,0,0,1,122,30.2a1.89,1.89,0,0,1-.66-.66,1.76,1.76,0,0,1-.21-.88,1.69,1.69,0,0,1,.74-1.45,3.5,3.5,0,0,1,2-.53,6.13,6.13,0,0,1,2.37.49l-.4.93a5.51,5.51,0,0,0-2-.47,2.31,2.31,0,0,0-1.21.26.76.76,0,0,0-.41.69.91.91,0,0,0,.15.52,1.53,1.53,0,0,0,.5.4,9.8,9.8,0,0,0,1.31.55,4.93,4.93,0,0,1,1.8,1A1.74,1.74,0,0,1,126.41,32.27Z"/><path class="cls-2" d="M136.5,34.31l-.23-1.06h-.05a2.77,2.77,0,0,1-2.51,1.2,2.48,2.48,0,0,1-1.75-.58,2.08,2.08,0,0,1-.63-1.63c0-1.51,1.21-2.31,3.63-2.38l1.27,0v-.46a1.93,1.93,0,0,0-.38-1.31,1.56,1.56,0,0,0-1.21-.42,4.85,4.85,0,0,0-2.12.58l-.35-.87a5.16,5.16,0,0,1,1.21-.47,5,5,0,0,1,1.33-.17,2.82,2.82,0,0,1,2,.59,2.49,2.49,0,0,1,.65,1.91v5.11Zm-2.57-.8a2.31,2.31,0,0,0,1.67-.58,2.17,2.17,0,0,0,.6-1.63v-.67l-1.13,0a4.34,4.34,0,0,0-1.95.42,1.27,1.27,0,0,0-.6,1.16,1.16,1.16,0,0,0,.37.94A1.58,1.58,0,0,0,133.93,33.51Z"/><path class="cls-2" d="M144.8,34.31V29.46a2,2,0,0,0-.41-1.36,1.72,1.72,0,0,0-1.31-.45,2.16,2.16,0,0,0-1.72.63,3.2,3.2,0,0,0-.55,2.1v3.93h-1.13V26.82h.92l.18,1h.06a2.33,2.33,0,0,1,1-.85,3,3,0,0,1,1.4-.31,2.8,2.8,0,0,1,2,.66,2.74,2.74,0,0,1,.69,2.08v4.89Z"/><path class="cls-2" d="M153.37,33.31h-.06A2.68,2.68,0,0,1,151,34.45a2.79,2.79,0,0,1-2.29-1,4.38,4.38,0,0,1-.82-2.85,4.47,4.47,0,0,1,.82-2.88,2.76,2.76,0,0,1,2.29-1,2.71,2.71,0,0,1,2.33,1.11h.09l0-.54,0-.53v-3h1.13V34.31h-.92Zm-2.27.19a2.05,2.05,0,0,0,1.68-.63,3.22,3.22,0,0,0,.53-2v-.24a3.8,3.8,0,0,0-.53-2.28,2,2,0,0,0-1.7-.68,1.72,1.72,0,0,0-1.52.78A3.81,3.81,0,0,0,149,30.6a3.72,3.72,0,0,0,.52,2.17A1.81,1.81,0,0,0,151.1,33.5Z"/><path class="cls-2" d="M160.66,24.32h2.82a5.43,5.43,0,0,1,2.88.59,2.11,2.11,0,0,1,.89,1.88,2.2,2.2,0,0,1-.5,1.47,2.44,2.44,0,0,1-1.45.75v.07c1.52.26,2.28,1.05,2.28,2.39a2.55,2.55,0,0,1-.91,2.09,3.84,3.84,0,0,1-2.53.75h-3.48Zm1.16,4.28h1.91a3.09,3.09,0,0,0,1.77-.39,1.49,1.49,0,0,0,.54-1.3,1.33,1.33,0,0,0-.6-1.22,3.85,3.85,0,0,0-1.91-.37h-1.71Zm0,1v3.74h2.08a3,3,0,0,0,1.82-.47,1.72,1.72,0,0,0,.62-1.46,1.55,1.55,0,0,0-.63-1.37,3.35,3.35,0,0,0-1.9-.44Z"/><path class="cls-2" d="M169.46,24.79a.74.74,0,0,1,.19-.57.68.68,0,0,1,.48-.18.67.67,0,0,1,.47.18.74.74,0,0,1,.2.57.77.77,0,0,1-.2.57.64.64,0,0,1-.47.19.65.65,0,0,1-.48-.19A.77.77,0,0,1,169.46,24.79Zm1.23,9.52h-1.13V26.82h1.13Z"/><path class="cls-2" d="M179.56,30.56a4.12,4.12,0,0,1-.92,2.86,3.22,3.22,0,0,1-2.55,1,3.4,3.4,0,0,1-1.78-.47,3.21,3.21,0,0,1-1.21-1.36,4.7,4.7,0,0,1-.42-2.06,4.12,4.12,0,0,1,.92-2.86,3.23,3.23,0,0,1,2.54-1,3.17,3.17,0,0,1,2.5,1.05A4.15,4.15,0,0,1,179.56,30.56Zm-5.7,0a3.6,3.6,0,0,0,.57,2.19,2.28,2.28,0,0,0,3.38,0,3.51,3.51,0,0,0,.58-2.19,3.44,3.44,0,0,0-.58-2.17,2,2,0,0,0-1.71-.74,2,2,0,0,0-1.68.73A3.51,3.51,0,0,0,173.86,30.56Z"/><path class="cls-2" d="M186.65,33.31h-.06a2.66,2.66,0,0,1-2.35,1.14,2.8,2.8,0,0,1-2.29-1,4.44,4.44,0,0,1-.81-2.85,4.47,4.47,0,0,1,.82-2.88,3,3,0,0,1,4.62.08h.09l0-.54,0-.53v-3h1.14V34.31h-.93Zm-2.27.19a2.08,2.08,0,0,0,1.69-.63,3.22,3.22,0,0,0,.52-2v-.24a3.8,3.8,0,0,0-.53-2.28,2,2,0,0,0-1.69-.68,1.73,1.73,0,0,0-1.53.78,3.89,3.89,0,0,0-.53,2.19,3.71,3.71,0,0,0,.53,2.17A1.79,1.79,0,0,0,184.38,33.5Z"/><path class="cls-2" d="M190,24.79a.74.74,0,0,1,.19-.57.65.65,0,0,1,.48-.18.67.67,0,0,1,.47.18.74.74,0,0,1,.2.57.77.77,0,0,1-.2.57.64.64,0,0,1-.47.19.62.62,0,0,1-.48-.19A.77.77,0,0,1,190,24.79Zm1.23,9.52h-1.14V26.82h1.14Z"/><path class="cls-2" d="M195.31,34.31l-2.84-7.49h1.22l1.61,4.44a20.94,20.94,0,0,1,.64,2H196a15.12,15.12,0,0,1,.47-1.5q.41-1.14,1.8-5h1.21l-2.84,7.49Z"/><path class="cls-2" d="M203.85,34.45a3.45,3.45,0,0,1-2.62-1,3.93,3.93,0,0,1-1-2.81,4.37,4.37,0,0,1,.89-2.88,3,3,0,0,1,2.4-1.07,2.83,2.83,0,0,1,2.23.93,3.58,3.58,0,0,1,.82,2.44v.72h-5.16a2.94,2.94,0,0,0,.66,2,2.3,2.3,0,0,0,1.78.69,6,6,0,0,0,2.4-.51v1a6.34,6.34,0,0,1-1.14.38A6.85,6.85,0,0,1,203.85,34.45Zm-.31-6.82a1.87,1.87,0,0,0-1.44.59,2.78,2.78,0,0,0-.63,1.63h3.92a2.5,2.5,0,0,0-.48-1.65A1.68,1.68,0,0,0,203.54,27.63Z"/><path class="cls-2" d="M212,26.68a4.74,4.74,0,0,1,.89.08l-.15,1.06a3.87,3.87,0,0,0-.82-.11,2,2,0,0,0-1.56.74,2.71,2.71,0,0,0-.64,1.84v4h-1.14V26.82h.94l.13,1.39h0a3.19,3.19,0,0,1,1-1.13A2.21,2.21,0,0,1,212,26.68Z"/><path class="cls-2" d="M219.09,32.27a1.88,1.88,0,0,1-.78,1.61,3.66,3.66,0,0,1-2.19.57A4.78,4.78,0,0,1,213.8,34V32.92a4.87,4.87,0,0,0,1.16.43,4.59,4.59,0,0,0,1.19.16,2.72,2.72,0,0,0,1.37-.28.94.94,0,0,0,.48-.87,1,1,0,0,0-.38-.75,6.41,6.41,0,0,0-1.48-.73,8.13,8.13,0,0,1-1.49-.68,2,2,0,0,1-.66-.66,1.76,1.76,0,0,1-.21-.88,1.71,1.71,0,0,1,.74-1.45,3.51,3.51,0,0,1,2-.53,6.12,6.12,0,0,1,2.36.49l-.4.93a5.42,5.42,0,0,0-2.05-.47,2.31,2.31,0,0,0-1.21.26.76.76,0,0,0-.41.69.91.91,0,0,0,.15.52,1.53,1.53,0,0,0,.5.4,9.8,9.8,0,0,0,1.31.55,4.93,4.93,0,0,1,1.8,1A1.74,1.74,0,0,1,219.09,32.27Z"/><path class="cls-2" d="M220.84,24.79a.74.74,0,0,1,.19-.57.68.68,0,0,1,.48-.18.67.67,0,0,1,.47.18.74.74,0,0,1,.2.57.77.77,0,0,1-.2.57.64.64,0,0,1-.47.19.65.65,0,0,1-.48-.19A.77.77,0,0,1,220.84,24.79Zm1.23,9.52h-1.14V26.82h1.14Z"/><path class="cls-2" d="M226.9,33.51a3.69,3.69,0,0,0,.58,0l.44-.09v.86a2,2,0,0,1-.54.15,4,4,0,0,1-.65.06c-1.45,0-2.17-.77-2.17-2.29V27.7h-1.08v-.55l1.08-.47.48-1.6h.65v1.74h2.18v.88h-2.18v4.41a1.54,1.54,0,0,0,.32,1A1.14,1.14,0,0,0,226.9,33.51Z"/><path class="cls-2" d="M228.23,26.82h1.22l1.64,4.27a17.24,17.24,0,0,1,.67,2.11h.05c.06-.23.18-.63.37-1.19s.81-2.29,1.86-5.19h1.22L232,35.35a4.31,4.31,0,0,1-1.12,1.79,2.35,2.35,0,0,1-1.57.53,4.45,4.45,0,0,1-1-.11v-.91a4.31,4.31,0,0,0,.85.08,1.73,1.73,0,0,0,1.66-1.31l.42-1.07Z"/></g></svg>