<svg xmlns="http://www.w3.org/2000/svg" viewBox="0 0 188.57 152.66"><defs><style>.cls-1{fill:#488e41;}.cls-2{fill:#4d4e50;}.cls-3{fill:#fff;}</style></defs><g id="Economic_Opportunities_Image" data-name="Economic Opportunities Image"><rect class="cls-1" width="112.37" height="44.23"/><path class="cls-2" d="M16.71,80.39A2.39,2.39,0,0,1,16.18,82a1.86,1.86,0,0,1-1.46.58,1.94,1.94,0,0,1-1-.27,1.71,1.71,0,0,1-.68-.77,2.57,2.57,0,0,1-.25-1.18,2.35,2.35,0,0,1,.53-1.63,1.84,1.84,0,0,1,1.45-.58,1.83,1.83,0,0,1,1.43.59A2.38,2.38,0,0,1,16.71,80.39Zm-3.26,0a2.07,2.07,0,0,0,.32,1.25,1.13,1.13,0,0,0,1,.43,1.15,1.15,0,0,0,1-.43,2.51,2.51,0,0,0,0-2.49,1.17,1.17,0,0,0-1-.42,1.15,1.15,0,0,0-1,.42A2,2,0,0,0,13.45,80.39Z"/><path class="cls-2" d="M19.77,78.76H18.68v3.78H18V78.76h-.77v-.29l.77-.24V78c0-1,.45-1.57,1.37-1.57a2.82,2.82,0,0,1,.8.13l-.17.52A2.14,2.14,0,0,0,19.4,77a.63.63,0,0,0-.54.24,1.38,1.38,0,0,0-.18.79v.28h1.09Z"/><path class="cls-2" d="M26.32,82.54l-.71-1.82H23.32l-.7,1.82H22L24.2,76.8h.56L27,82.54Zm-.92-2.42-.66-1.77a7.9,7.9,0,0,1-.27-.82,7.15,7.15,0,0,1-.24.82l-.67,1.77Z"/><path class="cls-2" d="M29.08,82.08a1.84,1.84,0,0,0,.33,0,1.09,1.09,0,0,0,.25,0v.5a1.23,1.23,0,0,1-.31.08l-.37,0c-.82,0-1.24-.43-1.24-1.3V78.76h-.61v-.31l.61-.27.28-.92h.37v1h1.24v.5H28.39v2.52a.87.87,0,0,0,.18.59A.66.66,0,0,0,29.08,82.08Z"/><path class="cls-2" d="M31.17,82.54h-.65V76.46h.65Z"/><path class="cls-2" d="M35.18,82.54l-.13-.61h0a1.79,1.79,0,0,1-.64.54,1.91,1.91,0,0,1-.8.14,1.45,1.45,0,0,1-1-.32,1.21,1.21,0,0,1-.36-.94c0-.86.69-1.31,2.08-1.36L35,80V79.7a1.11,1.11,0,0,0-.21-.74.91.91,0,0,0-.7-.24,2.83,2.83,0,0,0-1.21.33l-.2-.5a3.64,3.64,0,0,1,.7-.27,3.22,3.22,0,0,1,.75-.1,1.69,1.69,0,0,1,1.14.34,1.45,1.45,0,0,1,.37,1.09v2.93Zm-1.47-.46a1.31,1.31,0,0,0,.95-.33,1.23,1.23,0,0,0,.35-.93v-.39l-.65,0a2.42,2.42,0,0,0-1.12.24.73.73,0,0,0-.34.66.67.67,0,0,0,.22.54A.89.89,0,0,0,33.71,82.08Z"/><path class="cls-2" d="M39.75,81.37a1.06,1.06,0,0,1-.44.92,2.07,2.07,0,0,1-1.25.32,2.72,2.72,0,0,1-1.33-.27v-.6a3.09,3.09,0,0,0,.66.25,2.83,2.83,0,0,0,.68.09,1.58,1.58,0,0,0,.79-.16.55.55,0,0,0,.27-.5.51.51,0,0,0-.22-.42,3.15,3.15,0,0,0-.84-.42,4.75,4.75,0,0,1-.85-.39,1.15,1.15,0,0,1-.38-.38,1,1,0,0,1-.12-.5,1,1,0,0,1,.42-.83,2,2,0,0,1,1.17-.3,3.37,3.37,0,0,1,1.35.28l-.23.53a3,3,0,0,0-1.16-.27,1.44,1.44,0,0,0-.7.14.44.44,0,0,0-.23.4.56.56,0,0,0,.08.3,1,1,0,0,0,.29.23,5.76,5.76,0,0,0,.75.31,2.84,2.84,0,0,1,1,.56A1,1,0,0,1,39.75,81.37Z"/><path class="cls-2" d="M45.51,82.54l-1.94-5.07h0c0,.41.06.88.06,1.43v3.64H43V76.83h1l1.81,4.71h0l1.83-4.71h1v5.71H48V78.86c0-.43,0-.88.05-1.38h0l-2,5.06Z"/><path class="cls-2" d="M50.06,77.09a.44.44,0,0,1,.1-.32.4.4,0,0,1,.28-.1.39.39,0,0,1,.27.1.44.44,0,0,1,.11.32.45.45,0,0,1-.11.33.4.4,0,0,1-.27.11.41.41,0,0,1-.28-.11A.45.45,0,0,1,50.06,77.09Zm.7,5.45h-.65V78.26h.65Z"/><path class="cls-2" d="M55.06,82.54V79.77a1.1,1.1,0,0,0-.24-.78.91.91,0,0,0-.74-.26,1.25,1.25,0,0,0-1,.36,1.88,1.88,0,0,0-.31,1.2v2.25h-.65V78.26h.53l.11.58h0a1.34,1.34,0,0,1,.56-.49,1.88,1.88,0,0,1,.8-.17,1.62,1.62,0,0,1,1.16.37,1.59,1.59,0,0,1,.39,1.19v2.8Z"/><path class="cls-2" d="M57,77.09a.44.44,0,0,1,.11-.32.41.41,0,0,1,.54,0,.4.4,0,0,1,.11.32.41.41,0,0,1-.11.33.39.39,0,0,1-.54,0A.45.45,0,0,1,57,77.09Zm.7,5.45H57V78.26h.65Z"/><path class="cls-2" d="M62,82.54V79.77a1.1,1.1,0,0,0-.24-.78,1,1,0,0,0-.75-.26,1.23,1.23,0,0,0-1,.36,1.82,1.82,0,0,0-.31,1.2v2.25h-.65V78.26h.52l.11.58h0a1.34,1.34,0,0,1,.56-.49,1.91,1.91,0,0,1,.8-.17,1.36,1.36,0,0,1,1.55,1.56v2.8Z"/><path class="cls-2" d="M67.48,78.26v.41l-.79.09a1.21,1.21,0,0,1,.19.36,1.39,1.39,0,0,1-.34,1.5,1.74,1.74,0,0,1-1.18.37A2,2,0,0,1,65,81a.63.63,0,0,0-.41.55.26.26,0,0,0,.14.26,1,1,0,0,0,.5.09H66a1.66,1.66,0,0,1,1.07.29,1,1,0,0,1,.38.85,1.22,1.22,0,0,1-.57,1.09,3.15,3.15,0,0,1-1.67.37,2.32,2.32,0,0,1-1.29-.31,1.06,1.06,0,0,1-.21-1.56,1.3,1.3,0,0,1,.7-.39.74.74,0,0,1-.27-.23.61.61,0,0,1-.11-.36.69.69,0,0,1,.12-.41,1.4,1.4,0,0,1,.4-.34,1.16,1.16,0,0,1-.54-.47,1.53,1.53,0,0,1,.21-1.83,1.69,1.69,0,0,1,1.19-.38,1.92,1.92,0,0,1,.61.08Zm-3.41,5a.56.56,0,0,0,.29.52,1.61,1.61,0,0,0,.84.18,2.39,2.39,0,0,0,1.21-.24.74.74,0,0,0,.39-.66.53.53,0,0,0-.21-.49,1.72,1.72,0,0,0-.81-.13H65a1.05,1.05,0,0,0-.69.21A.76.76,0,0,0,64.07,83.26Zm.35-3.63a.88.88,0,0,0,.25.68,1,1,0,0,0,.71.23.83.83,0,0,0,1-.93.85.85,0,0,0-1-1,1,1,0,0,0-.71.25A1,1,0,0,0,64.42,79.63Z"/><path class="cls-2" d="M68.92,76.83l-.16,2.06h-.41l-.16-2.06Z"/><path class="cls-2" d="M72.89,81.37a1.08,1.08,0,0,1-.44.92,2.09,2.09,0,0,1-1.25.32,2.72,2.72,0,0,1-1.33-.27v-.6a2.74,2.74,0,0,0,.66.25,2.77,2.77,0,0,0,.68.09,1.51,1.51,0,0,0,.78-.16.56.56,0,0,0,.28-.5.54.54,0,0,0-.22-.42,3.44,3.44,0,0,0-.85-.42,5.12,5.12,0,0,1-.85-.39,1.21,1.21,0,0,1-.37-.38,1,1,0,0,1-.12-.5,1,1,0,0,1,.42-.83,2,2,0,0,1,1.17-.3,3.37,3.37,0,0,1,1.35.28l-.23.53a3.07,3.07,0,0,0-1.17-.27,1.4,1.4,0,0,0-.69.14.45.45,0,0,0-.24.4.49.49,0,0,0,.09.3,1,1,0,0,0,.28.23,5.76,5.76,0,0,0,.75.31,2.75,2.75,0,0,1,1,.56A1,1,0,0,1,72.89,81.37Z"/><path class="cls-2" d="M77.41,82.08a1.84,1.84,0,0,0,.33,0A1.09,1.09,0,0,0,78,82v.5a1.23,1.23,0,0,1-.31.08l-.37,0c-.83,0-1.24-.43-1.24-1.3V78.76h-.61v-.31l.61-.27.27-.92h.38v1H78v.5H76.72v2.52a.87.87,0,0,0,.18.59A.65.65,0,0,0,77.41,82.08Z"/><path class="cls-2" d="M82.54,80.39A2.39,2.39,0,0,1,82,82a1.88,1.88,0,0,1-1.46.58,1.94,1.94,0,0,1-1-.27,1.68,1.68,0,0,1-.69-.77,2.7,2.7,0,0,1-.24-1.18,2.35,2.35,0,0,1,.52-1.63,1.86,1.86,0,0,1,1.46-.58,1.81,1.81,0,0,1,1.42.59A2.33,2.33,0,0,1,82.54,80.39Zm-3.26,0a2,2,0,0,0,.33,1.25,1.3,1.3,0,0,0,1.93,0,2.51,2.51,0,0,0,0-2.49,1.15,1.15,0,0,0-1-.42,1.12,1.12,0,0,0-1,.42A2,2,0,0,0,79.28,80.39Z"/><path class="cls-2" d="M85.06,82.08a1.69,1.69,0,0,0,.33,0,1.2,1.2,0,0,0,.26,0v.5a1.37,1.37,0,0,1-.31.08l-.37,0c-.83,0-1.24-.43-1.24-1.3V78.76h-.62v-.31l.62-.27.27-.92h.38v1h1.24v.5H84.38v2.52a.87.87,0,0,0,.18.59A.63.63,0,0,0,85.06,82.08Z"/><path class="cls-2" d="M89.14,82.54,89,81.93h0a1.79,1.79,0,0,1-.64.54,1.88,1.88,0,0,1-.8.14,1.41,1.41,0,0,1-1-.32,1.18,1.18,0,0,1-.37-.94c0-.86.7-1.31,2.08-1.36L89,80V79.7a1.11,1.11,0,0,0-.21-.74.91.91,0,0,0-.7-.24,2.83,2.83,0,0,0-1.21.33l-.2-.5a3.91,3.91,0,0,1,.7-.27,3.22,3.22,0,0,1,.75-.1,1.69,1.69,0,0,1,1.14.34,1.45,1.45,0,0,1,.37,1.09v2.93Zm-1.47-.46a1.31,1.31,0,0,0,1-.33,1.23,1.23,0,0,0,.35-.93v-.39l-.65,0a2.37,2.37,0,0,0-1.11.24.72.72,0,0,0-.35.66.67.67,0,0,0,.22.54A.89.89,0,0,0,87.67,82.08Z"/><path class="cls-2" d="M91.6,82.54H91V76.46h.65Z"/><path class="cls-2" d="M16.51,91.54,15.72,89c-.05-.15-.14-.5-.27-1h0c-.1.45-.19.81-.27,1l-.81,2.51h-.75l-1.17-4.28h.68c.28,1.07.49,1.89.63,2.45A8.57,8.57,0,0,1,14,90.85h0c0-.15.08-.34.14-.58s.12-.42.17-.56l.78-2.45h.71l.76,2.45a7.75,7.75,0,0,1,.3,1.13h0c0-.09,0-.24.08-.43s.32-1.25.82-3.15h.67l-1.18,4.28Z"/><path class="cls-2" d="M21.87,91.54l-.13-.61h0a1.79,1.79,0,0,1-.64.54,1.88,1.88,0,0,1-.8.14,1.41,1.41,0,0,1-1-.32,1.21,1.21,0,0,1-.37-.94c0-.86.7-1.31,2.08-1.36l.73,0V88.7A1.11,1.11,0,0,0,21.5,88a.9.9,0,0,0-.69-.24,2.83,2.83,0,0,0-1.22.33l-.2-.5a3.91,3.91,0,0,1,.7-.27,3.22,3.22,0,0,1,.75-.1,1.69,1.69,0,0,1,1.14.34,1.45,1.45,0,0,1,.37,1.09v2.93Zm-1.47-.46a1.31,1.31,0,0,0,1-.33,1.23,1.23,0,0,0,.35-.93v-.39l-.65,0a2.37,2.37,0,0,0-1.11.24.72.72,0,0,0-.35.66.67.67,0,0,0,.22.54A.89.89,0,0,0,20.4,91.08Z"/><path class="cls-2" d="M25.07,91.08a1.84,1.84,0,0,0,.33,0,1.09,1.09,0,0,0,.25,0v.5a1.23,1.23,0,0,1-.31.08l-.37,0c-.83,0-1.24-.43-1.24-1.3V87.76h-.61v-.31l.61-.27.27-.92h.38v1h1.24v.5H24.38v2.52a.87.87,0,0,0,.18.59A.65.65,0,0,0,25.07,91.08Z"/><path class="cls-2" d="M28.32,91.61a2,2,0,0,1-1.5-.57,2.23,2.23,0,0,1-.55-1.61,2.46,2.46,0,0,1,.51-1.64,1.69,1.69,0,0,1,1.37-.61,1.58,1.58,0,0,1,1.27.53,2,2,0,0,1,.47,1.39v.41H26.94a1.69,1.69,0,0,0,.38,1.15,1.32,1.32,0,0,0,1,.39,3.51,3.51,0,0,0,1.37-.29v.58a3.25,3.25,0,0,1-.65.21A4,4,0,0,1,28.32,91.61Zm-.18-3.89a1,1,0,0,0-.82.34A1.46,1.46,0,0,0,27,89H29.2a1.42,1.42,0,0,0-.28-.94A1,1,0,0,0,28.14,87.72Z"/><path class="cls-2" d="M33,87.18a2.64,2.64,0,0,1,.51,0l-.09.61a2.16,2.16,0,0,0-.47-.06,1.16,1.16,0,0,0-.89.42,1.56,1.56,0,0,0-.37,1v2.3H31V87.26h.53l.08.79h0a1.92,1.92,0,0,1,.57-.65A1.31,1.31,0,0,1,33,87.18Z"/><path class="cls-2" d="M38.05,91.61A1.83,1.83,0,0,1,36.61,91a2.35,2.35,0,0,1-.51-1.62,2.41,2.41,0,0,1,.52-1.66,1.86,1.86,0,0,1,1.47-.58,3.18,3.18,0,0,1,.62.06,2.34,2.34,0,0,1,.49.16L39,88a3.23,3.23,0,0,0-.47-.14,2,2,0,0,0-.45-.06c-.87,0-1.31.56-1.31,1.67a2,2,0,0,0,.32,1.21,1.12,1.12,0,0,0,.95.42,2.92,2.92,0,0,0,1.09-.23v.57A2.28,2.28,0,0,1,38.05,91.61Z"/><path class="cls-2" d="M43.84,89.39A2.39,2.39,0,0,1,43.32,91a1.86,1.86,0,0,1-1.46.58,1.94,1.94,0,0,1-1-.27,1.68,1.68,0,0,1-.69-.77,2.7,2.7,0,0,1-.24-1.18,2.35,2.35,0,0,1,.52-1.63,1.86,1.86,0,0,1,1.46-.58,1.81,1.81,0,0,1,1.42.59A2.33,2.33,0,0,1,43.84,89.39Zm-3.26,0a2,2,0,0,0,.33,1.25,1.3,1.3,0,0,0,1.93,0,2.51,2.51,0,0,0,0-2.49,1.15,1.15,0,0,0-1-.42,1.12,1.12,0,0,0-1,.42A2,2,0,0,0,40.58,89.39Z"/><path class="cls-2" d="M47.91,91.54V88.77a1.1,1.1,0,0,0-.24-.78.94.94,0,0,0-.74-.26,1.25,1.25,0,0,0-1,.36,1.82,1.82,0,0,0-.31,1.2v2.25H45V87.26h.53l.1.58h0a1.41,1.41,0,0,1,.56-.49,1.91,1.91,0,0,1,.8-.17,1.63,1.63,0,0,1,1.17.37,1.59,1.59,0,0,1,.39,1.19v2.8Z"/><path class="cls-2" d="M52.65,90.37a1.08,1.08,0,0,1-.44.92,2.09,2.09,0,0,1-1.25.32,2.72,2.72,0,0,1-1.33-.27v-.6a2.9,2.9,0,0,0,.66.25,2.77,2.77,0,0,0,.68.09,1.51,1.51,0,0,0,.78-.16.54.54,0,0,0,.28-.5.51.51,0,0,0-.22-.42,3.33,3.33,0,0,0-.84-.42,4.43,4.43,0,0,1-.85-.39,1.15,1.15,0,0,1-.38-.38,1,1,0,0,1-.12-.5,1,1,0,0,1,.42-.83,2,2,0,0,1,1.17-.3,3.37,3.37,0,0,1,1.35.28l-.23.53a3.07,3.07,0,0,0-1.17-.27,1.42,1.42,0,0,0-.69.14.45.45,0,0,0-.24.4.49.49,0,0,0,.09.3,1,1,0,0,0,.29.23,5.76,5.76,0,0,0,.75.31,2.93,2.93,0,0,1,1,.56A1,1,0,0,1,52.65,90.37Z"/><path class="cls-2" d="M54.32,87.26V90a1.1,1.1,0,0,0,.24.78.91.91,0,0,0,.74.26,1.18,1.18,0,0,0,1-.37,1.81,1.81,0,0,0,.31-1.19V87.26h.65v4.28h-.53l-.1-.58h0a1.31,1.31,0,0,1-.55.49,1.92,1.92,0,0,1-.81.16,1.63,1.63,0,0,1-1.17-.37,1.55,1.55,0,0,1-.39-1.18v-2.8Z"/><path class="cls-2" d="M64.07,91.54V88.75a1.2,1.2,0,0,0-.21-.77.86.86,0,0,0-.68-.25,1.07,1.07,0,0,0-.9.35A1.65,1.65,0,0,0,62,89.15v2.39h-.65V88.75a1.2,1.2,0,0,0-.21-.77.87.87,0,0,0-.69-.25,1.07,1.07,0,0,0-.89.36,2,2,0,0,0-.28,1.2v2.25h-.65V87.26h.52l.11.58h0a1.29,1.29,0,0,1,.52-.49,1.66,1.66,0,0,1,.75-.17,1.27,1.27,0,0,1,1.31.72h0a1.37,1.37,0,0,1,.56-.53,1.68,1.68,0,0,1,.82-.19,1.44,1.44,0,0,1,1.09.37,1.68,1.68,0,0,1,.36,1.19v2.8Z"/><path class="cls-2" d="M68.05,91.61a1.87,1.87,0,0,1-.76-.15,1.39,1.39,0,0,1-.58-.47h0a5.92,5.92,0,0,1,0,.71v1.76h-.65v-6.2h.53l.09.58h0a1.56,1.56,0,0,1,.58-.51,1.81,1.81,0,0,1,.76-.15,1.59,1.59,0,0,1,1.32.58,2.61,2.61,0,0,1,.46,1.63A2.58,2.58,0,0,1,69.36,91,1.59,1.59,0,0,1,68.05,91.61ZM68,87.73a1.15,1.15,0,0,0-.95.36,1.81,1.81,0,0,0-.3,1.16v.14a2.15,2.15,0,0,0,.3,1.29,1.13,1.13,0,0,0,1,.39,1,1,0,0,0,.87-.45,2.13,2.13,0,0,0,.32-1.24,2,2,0,0,0-.32-1.22A1,1,0,0,0,68,87.73Z"/><path class="cls-2" d="M72.34,91.08a1.87,1.87,0,0,0,.34,0,1.22,1.22,0,0,0,.25,0v.5a1.23,1.23,0,0,1-.31.08l-.37,0c-.83,0-1.24-.43-1.24-1.3V87.76h-.62v-.31l.62-.27.27-.92h.38v1H72.9v.5H71.66v2.52a.87.87,0,0,0,.18.59A.63.63,0,0,0,72.34,91.08Z"/><path class="cls-2" d="M73.73,86.09a.44.44,0,0,1,.11-.32.41.41,0,0,1,.54,0,.41.41,0,0,1,.12.32.42.42,0,0,1-.12.33.39.39,0,0,1-.54,0A.45.45,0,0,1,73.73,86.09Zm.7,5.45h-.64V87.26h.64Z"/><path class="cls-2" d="M79.5,89.39A2.39,2.39,0,0,1,79,91a1.86,1.86,0,0,1-1.46.58,1.94,1.94,0,0,1-1-.27,1.68,1.68,0,0,1-.69-.77,2.7,2.7,0,0,1-.24-1.18,2.35,2.35,0,0,1,.52-1.63,1.86,1.86,0,0,1,1.46-.58,1.81,1.81,0,0,1,1.42.59A2.33,2.33,0,0,1,79.5,89.39Zm-3.26,0a2,2,0,0,0,.33,1.25,1.3,1.3,0,0,0,1.93,0,2.51,2.51,0,0,0,0-2.49,1.15,1.15,0,0,0-1-.42,1.12,1.12,0,0,0-1,.42A2,2,0,0,0,76.24,89.39Z"/><path class="cls-2" d="M83.57,91.54V88.77a1.1,1.1,0,0,0-.24-.78.94.94,0,0,0-.74-.26,1.25,1.25,0,0,0-1,.36,1.82,1.82,0,0,0-.31,1.2v2.25h-.65V87.26h.53l.1.58h0a1.31,1.31,0,0,1,.55-.49,1.91,1.91,0,0,1,.8-.17,1.63,1.63,0,0,1,1.17.37,1.59,1.59,0,0,1,.39,1.19v2.8Z"/><path class="cls-2" d="M87.57,86.09a.44.44,0,0,1,.11-.32.4.4,0,0,1,.28-.1.39.39,0,0,1,.27.1.44.44,0,0,1,.11.32.45.45,0,0,1-.11.33.4.4,0,0,1-.27.11.41.41,0,0,1-.28-.11A.45.45,0,0,1,87.57,86.09Zm.71,5.45h-.65V87.26h.65Z"/><path class="cls-2" d="M92.58,91.54V88.77a1.1,1.1,0,0,0-.24-.78.91.91,0,0,0-.74-.26,1.25,1.25,0,0,0-1,.36,1.88,1.88,0,0,0-.31,1.2v2.25h-.65V87.26h.53l.11.58h0a1.34,1.34,0,0,1,.56-.49,1.88,1.88,0,0,1,.8-.17,1.62,1.62,0,0,1,1.16.37,1.59,1.59,0,0,1,.39,1.19v2.8Z"/><path class="cls-2" d="M16.47,100.54H12.72V100l1.5-1.51a12.17,12.17,0,0,0,.91-1,2.54,2.54,0,0,0,.32-.57,1.54,1.54,0,0,0,.11-.61,1,1,0,0,0-.27-.72,1.08,1.08,0,0,0-.77-.27,1.91,1.91,0,0,0-.68.12,2.62,2.62,0,0,0-.71.42l-.34-.44a2.63,2.63,0,0,1,1.72-.66,1.79,1.79,0,0,1,1.26.42,1.42,1.42,0,0,1,.46,1.1,2.09,2.09,0,0,1-.31,1.08,6.68,6.68,0,0,1-1.14,1.34L13.53,99.9v0h2.94Z"/><path class="cls-2" d="M21.07,97.67a4.16,4.16,0,0,1-.46,2.21,1.57,1.57,0,0,1-1.43.73,1.56,1.56,0,0,1-1.4-.74,4.1,4.1,0,0,1-.48-2.2,4.16,4.16,0,0,1,.46-2.21,1.73,1.73,0,0,1,2.83,0A4.07,4.07,0,0,1,21.07,97.67Zm-3.12,0a4.13,4.13,0,0,0,.3,1.82,1,1,0,0,0,.93.57,1,1,0,0,0,.94-.58,4.29,4.29,0,0,0,.29-1.81,4.23,4.23,0,0,0-.29-1.8,1.06,1.06,0,0,0-1.87,0A4.08,4.08,0,0,0,18,97.67Z"/><path class="cls-2" d="M24.27,100.54h-.64V96.47q0-.51,0-1l-.18.17-.93.76L22.21,96l1.51-1.16h.55Z"/><path class="cls-2" d="M30.19,97.26c0,2.24-.86,3.35-2.59,3.35a2.81,2.81,0,0,1-.72-.07V100a2.21,2.21,0,0,0,.71.1A1.72,1.72,0,0,0,29,99.5a2.94,2.94,0,0,0,.52-1.78h-.05a1.3,1.3,0,0,1-.57.49,1.74,1.74,0,0,1-.8.17,1.59,1.59,0,0,1-1.2-.45,1.7,1.7,0,0,1-.45-1.26,1.94,1.94,0,0,1,.5-1.41A1.9,1.9,0,0,1,29.29,95a1.93,1.93,0,0,1,.67.87A3.74,3.74,0,0,1,30.19,97.26Zm-1.92-2a1.06,1.06,0,0,0-.86.36,1.46,1.46,0,0,0-.31,1,1.33,1.33,0,0,0,.28.88,1.07,1.07,0,0,0,.86.32,1.41,1.41,0,0,0,.65-.14,1.22,1.22,0,0,0,.47-.39.91.91,0,0,0,.18-.53,2,2,0,0,0-.16-.76,1.34,1.34,0,0,0-.45-.54A1.08,1.08,0,0,0,28.27,95.3Z"/><path class="cls-2" d="M36.88,100.54,36.1,98c-.05-.15-.14-.5-.28-1h0c-.1.45-.2.81-.27,1l-.81,2.51H34l-1.17-4.28h.68c.27,1.07.49,1.89.63,2.45a10.67,10.67,0,0,1,.25,1.14h0c0-.15.07-.34.14-.58s.12-.42.16-.56l.79-2.45h.7l.77,2.45a9,9,0,0,1,.29,1.13h0a2.94,2.94,0,0,1,.08-.43l.81-3.15h.68l-1.19,4.28Z"/><path class="cls-2" d="M42.24,100.54l-.13-.61h0a1.64,1.64,0,0,1-.64.54,1.83,1.83,0,0,1-.79.14,1.42,1.42,0,0,1-1-.32,1.21,1.21,0,0,1-.36-.94c0-.86.69-1.31,2.07-1.36l.73,0V97.7a1.06,1.06,0,0,0-.22-.74.87.87,0,0,0-.69-.24,2.8,2.8,0,0,0-1.21.33l-.2-.5a3.54,3.54,0,0,1,.69-.27,3.3,3.3,0,0,1,.76-.1,1.64,1.64,0,0,1,1.13.34,1.41,1.41,0,0,1,.37,1.09v2.93Zm-1.46-.46a1.32,1.32,0,0,0,.95-.33,1.22,1.22,0,0,0,.34-.93v-.39l-.64,0a2.42,2.42,0,0,0-1.12.24.71.71,0,0,0-.34.66.7.7,0,0,0,.21.54A.9.9,0,0,0,40.78,100.08Z"/><path class="cls-2" d="M46.82,99.37a1.08,1.08,0,0,1-.44.92,2.09,2.09,0,0,1-1.25.32,2.72,2.72,0,0,1-1.33-.27v-.6a2.74,2.74,0,0,0,.66.25,2.77,2.77,0,0,0,.68.09,1.51,1.51,0,0,0,.78-.16.56.56,0,0,0,.28-.5A.54.54,0,0,0,46,99a3.44,3.44,0,0,0-.85-.42,4.75,4.75,0,0,1-.85-.39,1.21,1.21,0,0,1-.37-.38,1,1,0,0,1-.12-.5,1,1,0,0,1,.42-.83,2,2,0,0,1,1.17-.3,3.37,3.37,0,0,1,1.35.28L46.5,97a3.07,3.07,0,0,0-1.17-.27,1.4,1.4,0,0,0-.69.14.45.45,0,0,0-.24.4.49.49,0,0,0,.09.3,1,1,0,0,0,.28.23,5.76,5.76,0,0,0,.75.31,2.84,2.84,0,0,1,1,.56A1,1,0,0,1,46.82,99.37Z"/><path class="cls-2" d="M51.91,96.18a2.64,2.64,0,0,1,.51,0l-.09.61a2.23,2.23,0,0,0-.47-.06,1.15,1.15,0,0,0-.89.42,1.51,1.51,0,0,0-.37,1v2.3H50V96.26h.54l.07.79h0a1.85,1.85,0,0,1,.58-.65A1.29,1.29,0,0,1,51.91,96.18Z"/><path class="cls-2" d="M55,100.61a2,2,0,0,1-1.5-.57A2.23,2.23,0,0,1,53,98.43a2.46,2.46,0,0,1,.51-1.64,1.69,1.69,0,0,1,1.37-.61,1.58,1.58,0,0,1,1.27.53,2,2,0,0,1,.47,1.39v.41h-3A1.74,1.74,0,0,0,54,99.66a1.32,1.32,0,0,0,1,.39,3.51,3.51,0,0,0,1.37-.29v.58a3.25,3.25,0,0,1-.65.21A4,4,0,0,1,55,100.61Zm-.18-3.89a1,1,0,0,0-.82.34,1.52,1.52,0,0,0-.36.93h2.24a1.37,1.37,0,0,0-.28-.94A1,1,0,0,0,54.85,96.72Z"/><path class="cls-2" d="M59.42,100.61A1.83,1.83,0,0,1,58,100a2.35,2.35,0,0,1-.51-1.62A2.41,2.41,0,0,1,58,96.76a1.84,1.84,0,0,1,1.47-.58,3.26,3.26,0,0,1,.62.06,2.22,2.22,0,0,1,.48.16l-.2.55a2.89,2.89,0,0,0-.47-.14,1.85,1.85,0,0,0-.44-.06c-.87,0-1.31.56-1.31,1.67a2,2,0,0,0,.32,1.21,1.11,1.11,0,0,0,.94.42,2.93,2.93,0,0,0,1.1-.23v.57A2.34,2.34,0,0,1,59.42,100.61Z"/><path class="cls-2" d="M60.84,96.26h.69l.94,2.44a10.26,10.26,0,0,1,.38,1.2h0c0-.13.11-.36.22-.68s.46-1.31,1.06-3h.69L63,101.13a2.43,2.43,0,0,1-.64,1,1.35,1.35,0,0,1-.89.3,2.32,2.32,0,0,1-.59-.07v-.52a2.28,2.28,0,0,0,.48,0,1,1,0,0,0,1-.75l.24-.61Z"/><path class="cls-2" d="M67.26,100.61a1.83,1.83,0,0,1-1.44-.57,2.35,2.35,0,0,1-.51-1.62,2.41,2.41,0,0,1,.52-1.66,1.84,1.84,0,0,1,1.47-.58,3.26,3.26,0,0,1,.62.06,2.22,2.22,0,0,1,.48.16l-.2.55a2.89,2.89,0,0,0-.47-.14,1.85,1.85,0,0,0-.44-.06c-.87,0-1.31.56-1.31,1.67a2,2,0,0,0,.32,1.21,1.11,1.11,0,0,0,.94.42,2.93,2.93,0,0,0,1.1-.23v.57A2.34,2.34,0,0,1,67.26,100.61Z"/><path class="cls-2" d="M70,100.54h-.64V94.46H70Z"/><path class="cls-2" d="M73.19,100.61a2,2,0,0,1-1.5-.57,2.23,2.23,0,0,1-.55-1.61,2.46,2.46,0,0,1,.51-1.64A1.69,1.69,0,0,1,73,96.18a1.58,1.58,0,0,1,1.27.53,2,2,0,0,1,.47,1.39v.41h-3a1.74,1.74,0,0,0,.38,1.15,1.32,1.32,0,0,0,1,.39,3.51,3.51,0,0,0,1.37-.29v.58a3.25,3.25,0,0,1-.65.21A4,4,0,0,1,73.19,100.61ZM73,96.72a1,1,0,0,0-.82.34,1.58,1.58,0,0,0-.36.93h2.24a1.37,1.37,0,0,0-.28-.94A1,1,0,0,0,73,96.72Z"/><path class="cls-2" d="M78.78,100h0a1.52,1.52,0,0,1-1.35.65,1.58,1.58,0,0,1-1.3-.57,2.53,2.53,0,0,1-.47-1.63,2.59,2.59,0,0,1,.47-1.65,1.74,1.74,0,0,1,2.64,0h.05l0-.31v-2h.64v6.08h-.52Zm-1.3.11a1.19,1.19,0,0,0,1-.36,1.82,1.82,0,0,0,.3-1.17v-.13a2.09,2.09,0,0,0-.31-1.3,1.13,1.13,0,0,0-1-.39,1,1,0,0,0-.88.44,2.26,2.26,0,0,0-.3,1.26,2.09,2.09,0,0,0,.3,1.23A1,1,0,0,0,77.48,100.07Z"/><path class="cls-2" d="M14.82,109.61a2,2,0,0,1-1.5-.57,2.28,2.28,0,0,1-.55-1.61,2.46,2.46,0,0,1,.51-1.64,1.69,1.69,0,0,1,1.37-.61,1.61,1.61,0,0,1,1.28.53,2,2,0,0,1,.46,1.39v.41H13.45a1.69,1.69,0,0,0,.38,1.15,1.31,1.31,0,0,0,1,.39,3.48,3.48,0,0,0,1.37-.29v.58a3.06,3.06,0,0,1-.65.21A3.88,3.88,0,0,1,14.82,109.61Zm-.18-3.89a1.05,1.05,0,0,0-.82.34,1.58,1.58,0,0,0-.36.93H15.7a1.42,1.42,0,0,0-.27-.94A1,1,0,0,0,14.64,105.72Z"/><path class="cls-2" d="M19,109.61a1.55,1.55,0,0,1-1.29-.58,2.54,2.54,0,0,1-.47-1.62,2.58,2.58,0,0,1,.47-1.64,1.73,1.73,0,0,1,2.66.07h0l.1-.58H21v6.2h-.65v-1.83a4.3,4.3,0,0,1,0-.67h-.05A1.52,1.52,0,0,1,19,109.61Zm.1-.54a1.13,1.13,0,0,0,.94-.35,1.84,1.84,0,0,0,.32-1.17v-.14a2.13,2.13,0,0,0-.31-1.3,1.13,1.13,0,0,0-1-.39,1,1,0,0,0-.87.44,2.25,2.25,0,0,0-.31,1.26,2.13,2.13,0,0,0,.3,1.23A1,1,0,0,0,19.12,109.07Z"/><path class="cls-2" d="M23,105.26V108a1.1,1.1,0,0,0,.24.78,1,1,0,0,0,.75.26,1.21,1.21,0,0,0,1-.37,1.81,1.81,0,0,0,.31-1.19v-2.25h.65v4.28H25.4l-.09-.58h0a1.31,1.31,0,0,1-.55.49,1.86,1.86,0,0,1-.81.16,1.63,1.63,0,0,1-1.17-.37,1.59,1.59,0,0,1-.38-1.18v-2.8Z"/><path class="cls-2" d="M27.26,104.09a.4.4,0,0,1,.11-.32.36.36,0,0,1,.27-.1.39.39,0,0,1,.27.1.4.4,0,0,1,.11.32.41.41,0,0,1-.11.33.4.4,0,0,1-.27.11.37.37,0,0,1-.27-.11A.41.41,0,0,1,27.26,104.09Zm.7,5.45h-.65v-4.28H28Z"/><path class="cls-2" d="M30.27,109.54l-1.62-4.28h.69l.93,2.53a12,12,0,0,1,.36,1.16h0a8.23,8.23,0,0,1,.28-.86c.15-.43.49-1.38,1-2.83h.7L31,109.54Z"/><path class="cls-2" d="M36,109.54l-.13-.61h0a1.79,1.79,0,0,1-.64.54,1.88,1.88,0,0,1-.8.14,1.41,1.41,0,0,1-1-.32,1.18,1.18,0,0,1-.37-.94c0-.86.7-1.31,2.08-1.36l.72,0v-.27a1.11,1.11,0,0,0-.21-.74.91.91,0,0,0-.7-.24,2.83,2.83,0,0,0-1.21.33l-.2-.5a3.91,3.91,0,0,1,.7-.27,3.22,3.22,0,0,1,.75-.1,1.69,1.69,0,0,1,1.14.34,1.45,1.45,0,0,1,.37,1.09v2.93Zm-1.47-.46a1.31,1.31,0,0,0,1-.33,1.23,1.23,0,0,0,.35-.93v-.39l-.65,0a2.34,2.34,0,0,0-1.11.24.72.72,0,0,0-.35.66.67.67,0,0,0,.22.54A.89.89,0,0,0,34.51,109.08Z"/><path class="cls-2" d="M38.44,109.54h-.65v-6.08h.65Z"/><path class="cls-2" d="M41.63,109.61a2,2,0,0,1-1.5-.57,2.23,2.23,0,0,1-.55-1.61,2.46,2.46,0,0,1,.51-1.64,1.68,1.68,0,0,1,1.37-.61,1.59,1.59,0,0,1,1.27.53,2,2,0,0,1,.47,1.39v.41h-3a1.69,1.69,0,0,0,.38,1.15,1.32,1.32,0,0,0,1,.39,3.51,3.51,0,0,0,1.37-.29v.58a3.25,3.25,0,0,1-.65.21A4,4,0,0,1,41.63,109.61Zm-.18-3.89a1,1,0,0,0-.82.34,1.46,1.46,0,0,0-.36.93H42.5a1.42,1.42,0,0,0-.27-.94A1,1,0,0,0,41.45,105.72Z"/><path class="cls-2" d="M47.23,109.54v-2.77A1.1,1.1,0,0,0,47,106a1,1,0,0,0-.75-.26,1.21,1.21,0,0,0-1,.36,1.81,1.81,0,0,0-.32,1.2v2.25h-.64v-4.28h.52l.11.58h0a1.34,1.34,0,0,1,.56-.49,1.74,1.74,0,0,1,.8-.17,1.62,1.62,0,0,1,1.16.37,1.59,1.59,0,0,1,.39,1.19v2.8Z"/><path class="cls-2" d="M50.6,109.08a1.84,1.84,0,0,0,.33,0,1.09,1.09,0,0,0,.25,0v.5a1.23,1.23,0,0,1-.31.08l-.37,0c-.82,0-1.24-.43-1.24-1.3v-2.55h-.61v-.31l.61-.27.28-.92h.37v1h1.24v.5H49.91v2.52a.87.87,0,0,0,.18.59A.65.65,0,0,0,50.6,109.08Z"/><path class="cls-2" d="M55.5,109.08a1.69,1.69,0,0,0,.33,0,1.33,1.33,0,0,0,.26,0v.5a1.37,1.37,0,0,1-.31.08l-.37,0c-.83,0-1.25-.43-1.25-1.3v-2.55h-.61v-.31l.61-.27.28-.92h.37v1h1.25v.5H54.81v2.52a.82.82,0,0,0,.19.59A.63.63,0,0,0,55.5,109.08Z"/><path class="cls-2" d="M60.64,107.39a2.39,2.39,0,0,1-.53,1.64,1.86,1.86,0,0,1-1.46.58,1.94,1.94,0,0,1-1-.27,1.71,1.71,0,0,1-.68-.77,2.57,2.57,0,0,1-.25-1.18,2.35,2.35,0,0,1,.53-1.63,2.06,2.06,0,0,1,2.88,0A2.38,2.38,0,0,1,60.64,107.39Zm-3.26,0a2,2,0,0,0,.32,1.25,1.13,1.13,0,0,0,1,.43,1.16,1.16,0,0,0,1-.43,2.51,2.51,0,0,0,0-2.49,1.19,1.19,0,0,0-1-.42,1.15,1.15,0,0,0-1,.42A2,2,0,0,0,57.38,107.39Z"/><path class="cls-1" d="M19.48,63a6.58,6.58,0,0,1,4.44,1.4,4.79,4.79,0,0,1,1.62,3.83,5.52,5.52,0,0,1-1.77,4.34,7,7,0,0,1-4.86,1.58,8.85,8.85,0,0,1-4.6-1v-2a6.8,6.8,0,0,0,2.12.86,10.37,10.37,0,0,0,2.5.31,5,5,0,0,0,3.34-1,3.65,3.65,0,0,0,1.19-2.93q0-3.73-4.58-3.74a18,18,0,0,0-3.1.36l-1-.67.67-8.35h8.88v1.86H17.14l-.45,5.36A14.67,14.67,0,0,1,19.48,63Z"/><path class="cls-1" d="M33.78,63a6.55,6.55,0,0,1,4.43,1.4,4.79,4.79,0,0,1,1.62,3.83,5.54,5.54,0,0,1-1.76,4.34,7.06,7.06,0,0,1-4.87,1.58,8.87,8.87,0,0,1-4.6-1v-2a7,7,0,0,0,2.12.86,10.39,10.39,0,0,0,2.51.31,5,5,0,0,0,3.33-1,3.62,3.62,0,0,0,1.19-2.93q0-3.73-4.57-3.74a17.82,17.82,0,0,0-3.1.36l-1-.67.67-8.35h8.87v1.86H31.43L31,63.28A14.85,14.85,0,0,1,33.78,63Z"/><path class="cls-1" d="M49.82,61.38a7.71,7.71,0,0,1-.94,4.2A3.06,3.06,0,0,1,46.14,67a3,3,0,0,1-2.65-1.46,7.64,7.64,0,0,1-1-4.17,7.74,7.74,0,0,1,.91-4.18,3,3,0,0,1,2.69-1.4,3,3,0,0,1,2.72,1.45A7.49,7.49,0,0,1,49.82,61.38Zm-5.6,0a8,8,0,0,0,.46,3.11,1.52,1.52,0,0,0,1.46,1c1.34,0,2-1.38,2-4.15s-.66-4.13-2-4.13a1.51,1.51,0,0,0-1.46,1A7.89,7.89,0,0,0,44.22,61.38Zm13.2-5.32L47.52,73.9H45.73l9.9-17.84Zm3.15,12.47a7.67,7.67,0,0,1-.93,4.19,3.09,3.09,0,0,1-2.74,1.43,3,3,0,0,1-2.67-1.46,7.69,7.69,0,0,1-.94-4.16,7.77,7.77,0,0,1,.91-4.17A3,3,0,0,1,56.9,63a3.09,3.09,0,0,1,2.7,1.44A7.32,7.32,0,0,1,60.57,68.53Zm-5.6,0a8.22,8.22,0,0,0,.45,3.12,1.52,1.52,0,0,0,1.48,1,1.6,1.6,0,0,0,1.51-1,7.69,7.69,0,0,0,.49-3.13,7.5,7.5,0,0,0-.49-3.09,1.6,1.6,0,0,0-1.51-1,1.53,1.53,0,0,0-1.48,1A8,8,0,0,0,55,68.53Z"/><path class="cls-2" d="M18.07,137.22a3.09,3.09,0,0,1-.7,2.15,2.4,2.4,0,0,1-1.92.79,2.47,2.47,0,0,1-1.95-.77,3.17,3.17,0,0,1-.69-2.18,3.11,3.11,0,0,1,.69-2.16,2.46,2.46,0,0,1,1.95-.77,2.43,2.43,0,0,1,1.92.78A3.1,3.1,0,0,1,18.07,137.22Zm-4.55,0A2.71,2.71,0,0,0,14,139a1.76,1.76,0,0,0,1.44.6,1.73,1.73,0,0,0,1.43-.6,2.78,2.78,0,0,0,.48-1.76,2.73,2.73,0,0,0-.48-1.75,1.73,1.73,0,0,0-1.43-.6,1.76,1.76,0,0,0-1.44.6A2.68,2.68,0,0,0,13.52,137.22Z"/><path class="cls-2" d="M19.89,140.08h-.65V134h.65Z"/><path class="cls-2" d="M20.59,135.8h.69l.94,2.44a10.25,10.25,0,0,1,.38,1.21h0c0-.14.11-.36.22-.69s.46-1.31,1.06-3h.69l-1.84,4.87a2.37,2.37,0,0,1-.64,1,1.35,1.35,0,0,1-.89.3,2.32,2.32,0,0,1-.59-.07v-.51a2.33,2.33,0,0,0,.48,0,1,1,0,0,0,.95-.75l.24-.61Z"/><path class="cls-2" d="M30.75,140.08v-2.79a1.17,1.17,0,0,0-.21-.76.87.87,0,0,0-.68-.26,1.1,1.1,0,0,0-.9.35,1.67,1.67,0,0,0-.29,1.07v2.39H28v-2.79a1.11,1.11,0,0,0-.22-.76.84.84,0,0,0-.68-.26,1,1,0,0,0-.89.37,2,2,0,0,0-.28,1.19v2.25H25.3V135.8h.52l.11.58h0a1.21,1.21,0,0,1,.52-.48,1.54,1.54,0,0,1,.75-.18,1.27,1.27,0,0,1,1.31.73h0a1.34,1.34,0,0,1,.55-.53,1.65,1.65,0,0,1,.83-.2,1.44,1.44,0,0,1,1.09.37,1.69,1.69,0,0,1,.36,1.2v2.79Z"/><path class="cls-2" d="M34.73,140.16A1.73,1.73,0,0,1,34,140a1.39,1.39,0,0,1-.58-.47h0a5.92,5.92,0,0,1,0,.71V142h-.65v-6.2h.53l.09.58h0a1.44,1.44,0,0,1,.58-.5,1.67,1.67,0,0,1,.76-.16,1.55,1.55,0,0,1,1.31.58,3.08,3.08,0,0,1,0,3.27A1.6,1.6,0,0,1,34.73,140.16Zm-.09-3.89a1.15,1.15,0,0,0-1,.36,1.83,1.83,0,0,0-.3,1.16v.14a2.16,2.16,0,0,0,.3,1.3,1.16,1.16,0,0,0,1,.38,1,1,0,0,0,.87-.44,2.15,2.15,0,0,0,.32-1.24,2,2,0,0,0-.32-1.23A1,1,0,0,0,34.64,136.27Z"/><path class="cls-2" d="M37.59,134.64a.41.41,0,0,1,.11-.33.36.36,0,0,1,.27-.1.39.39,0,0,1,.27.1.45.45,0,0,1,.11.33.44.44,0,0,1-.11.32.36.36,0,0,1-.27.11.33.33,0,0,1-.27-.11A.4.4,0,0,1,37.59,134.64Zm.7,5.44h-.65V135.8h.65Z"/><path class="cls-2" d="M41.37,140.16a1.82,1.82,0,0,1-1.43-.57,2.38,2.38,0,0,1-.51-1.62,2.44,2.44,0,0,1,.51-1.66,1.88,1.88,0,0,1,1.48-.59,2.68,2.68,0,0,1,.62.07,2,2,0,0,1,.48.15l-.2.55a4.41,4.41,0,0,0-.47-.14,2,2,0,0,0-.45-.06c-.87,0-1.3.56-1.3,1.67a1.94,1.94,0,0,0,.32,1.21,1.1,1.1,0,0,0,.94.42,3,3,0,0,0,1.1-.23v.57A2.35,2.35,0,0,1,41.37,140.16Z"/><path class="cls-2" d="M43.11,138.23v-.59H45v.59Z"/><path class="cls-2" d="M48.81,138.91a1.06,1.06,0,0,1-.45.92,2,2,0,0,1-1.25.33,2.68,2.68,0,0,1-1.32-.27v-.6a3.21,3.21,0,0,0,.66.24,2.71,2.71,0,0,0,.68.09,1.51,1.51,0,0,0,.78-.16.53.53,0,0,0,.27-.49.54.54,0,0,0-.21-.43,3.44,3.44,0,0,0-.85-.42,4.75,4.75,0,0,1-.85-.39,1.11,1.11,0,0,1-.37-.38.91.91,0,0,1-.13-.5,1,1,0,0,1,.43-.83,2,2,0,0,1,1.17-.3,3.37,3.37,0,0,1,1.35.28l-.23.53a3.07,3.07,0,0,0-1.17-.27,1.32,1.32,0,0,0-.7.15.45.45,0,0,0-.23.4.48.48,0,0,0,.09.29.84.84,0,0,0,.28.23,7.06,7.06,0,0,0,.75.32,2.85,2.85,0,0,1,1,.55A1,1,0,0,1,48.81,138.91Z"/><path class="cls-2" d="M49.81,134.64a.45.45,0,0,1,.11-.33.41.41,0,0,1,.54,0,.41.41,0,0,1,.11.33.4.4,0,0,1-.11.32.39.39,0,0,1-.54,0A.44.44,0,0,1,49.81,134.64Zm.7,5.44h-.65V135.8h.65Z"/><path class="cls-2" d="M54.62,140.08h-3.1v-.44l2.34-3.34h-2.2v-.5h2.91v.5l-2.31,3.28h2.36Z"/><path class="cls-2" d="M57.44,140.16a2,2,0,0,1-1.5-.58,2.23,2.23,0,0,1-.55-1.61,2.48,2.48,0,0,1,.51-1.64,1.69,1.69,0,0,1,1.37-.61,1.61,1.61,0,0,1,1.27.53,2,2,0,0,1,.47,1.4v.41H56.06a1.73,1.73,0,0,0,.38,1.14,1.32,1.32,0,0,0,1,.39,3.51,3.51,0,0,0,1.37-.29v.58a3.25,3.25,0,0,1-.65.21A3.21,3.21,0,0,1,57.44,140.16Zm-.18-3.9a1,1,0,0,0-.82.34,1.46,1.46,0,0,0-.36.93h2.24a1.44,1.44,0,0,0-.28-.94A1,1,0,0,0,57.26,136.26Z"/><path class="cls-2" d="M15.77,147.91a1.07,1.07,0,0,1-.44.92,2.09,2.09,0,0,1-1.25.33,2.72,2.72,0,0,1-1.33-.27v-.6a3.71,3.71,0,0,0,.66.24,2.77,2.77,0,0,0,.68.09,1.51,1.51,0,0,0,.78-.16.55.55,0,0,0,.06-.92,3.15,3.15,0,0,0-.84-.42,4.43,4.43,0,0,1-.85-.39,1.15,1.15,0,0,1-.38-.38,1,1,0,0,1-.12-.5,1,1,0,0,1,.42-.83,2,2,0,0,1,1.17-.3,3.37,3.37,0,0,1,1.35.28l-.23.53a3.06,3.06,0,0,0-1.16-.27,1.32,1.32,0,0,0-.7.15.43.43,0,0,0-.23.4.47.47,0,0,0,.08.29.89.89,0,0,0,.29.23,7.06,7.06,0,0,0,.75.32,3,3,0,0,1,1,.55A1,1,0,0,1,15.77,147.91Z"/><path class="cls-2" d="M20.32,149.08l-.78-2.51c-.05-.16-.14-.51-.28-1h0c-.1.46-.19.81-.27,1.06l-.81,2.5H17.4l-1.17-4.28h.68q.42,1.6.63,2.46a8.9,8.9,0,0,1,.25,1.13h0a5.74,5.74,0,0,1,.14-.57c.06-.24.12-.43.16-.56l.79-2.46h.7l.77,2.46a10.81,10.81,0,0,1,.3,1.12h0c0-.09,0-.23.08-.43s.32-1.25.82-3.15h.67l-1.19,4.28Z"/><path class="cls-2" d="M23,143.64a.41.41,0,0,1,.11-.33.36.36,0,0,1,.27-.1.39.39,0,0,1,.27.1.45.45,0,0,1,.11.33.44.44,0,0,1-.11.32.36.36,0,0,1-.27.11.33.33,0,0,1-.27-.11A.4.4,0,0,1,23,143.64Zm.7,5.44h-.65V144.8h.65Z"/><path class="cls-2" d="M30.53,149.08v-2.79a1.11,1.11,0,0,0-.22-.76.84.84,0,0,0-.68-.26,1.1,1.1,0,0,0-.89.35,1.67,1.67,0,0,0-.29,1.07v2.39H27.8v-2.79a1.11,1.11,0,0,0-.22-.76.84.84,0,0,0-.68-.26,1,1,0,0,0-.89.37,1.94,1.94,0,0,0-.29,1.19v2.25h-.65V144.8h.53l.11.58h0a1.15,1.15,0,0,1,.52-.48,1.53,1.53,0,0,1,.74-.18,1.28,1.28,0,0,1,1.32.73h0a1.28,1.28,0,0,1,.55-.53,1.62,1.62,0,0,1,.83-.2,1.45,1.45,0,0,1,1.09.37,1.69,1.69,0,0,1,.36,1.2v2.79Z"/><path class="cls-2" d="M38,149.08v-2.79a1.11,1.11,0,0,0-.22-.76.84.84,0,0,0-.68-.26,1.1,1.1,0,0,0-.89.35,1.67,1.67,0,0,0-.29,1.07v2.39h-.65v-2.79a1.11,1.11,0,0,0-.22-.76.84.84,0,0,0-.68-.26,1,1,0,0,0-.89.37,1.94,1.94,0,0,0-.29,1.19v2.25h-.64V144.8H33l.11.58h0a1.15,1.15,0,0,1,.52-.48,1.54,1.54,0,0,1,.75-.18,1.27,1.27,0,0,1,1.31.73h0a1.34,1.34,0,0,1,.55-.53,1.65,1.65,0,0,1,.83-.2,1.44,1.44,0,0,1,1.09.37,1.69,1.69,0,0,1,.36,1.2v2.79Z"/><path class="cls-2" d="M39.9,143.64a.45.45,0,0,1,.11-.33.39.39,0,0,1,.28-.1.35.35,0,0,1,.26.1.42.42,0,0,1,.12.33.41.41,0,0,1-.12.32.33.33,0,0,1-.26.11A.36.36,0,0,1,40,144,.44.44,0,0,1,39.9,143.64Zm.71,5.44H40V144.8h.65Z"/><path class="cls-2" d="M44.91,149.08v-2.77a1.1,1.1,0,0,0-.24-.78,1,1,0,0,0-.74-.26,1.25,1.25,0,0,0-1,.36,1.86,1.86,0,0,0-.31,1.2v2.25H42V144.8h.53l.1.58h0a1.41,1.41,0,0,1,.56-.49,1.91,1.91,0,0,1,.8-.17,1.63,1.63,0,0,1,1.17.37,1.6,1.6,0,0,1,.39,1.2v2.79Z"/><path class="cls-2" d="M50.39,144.8v.41l-.79.09a1.49,1.49,0,0,1,.2.36,1.54,1.54,0,0,1,.08.5,1.25,1.25,0,0,1-.43,1,1.72,1.72,0,0,1-1.18.38,2.19,2.19,0,0,1-.36,0,.63.63,0,0,0-.41.55.3.3,0,0,0,.14.26,1.2,1.2,0,0,0,.5.08h.76a1.75,1.75,0,0,1,1.07.29,1,1,0,0,1,.37.85,1.22,1.22,0,0,1-.57,1.09,3,3,0,0,1-1.66.37,2.27,2.27,0,0,1-1.3-.31,1,1,0,0,1-.45-.88,1,1,0,0,1,.25-.68,1.27,1.27,0,0,1,.7-.39.68.68,0,0,1-.28-.23.61.61,0,0,1-.11-.36.65.65,0,0,1,.13-.41,1.22,1.22,0,0,1,.39-.34,1.16,1.16,0,0,1-.54-.47,1.32,1.32,0,0,1-.21-.75,1.39,1.39,0,0,1,.42-1.08,1.74,1.74,0,0,1,1.2-.38,2.23,2.23,0,0,1,.6.08Zm-3.41,5a.6.6,0,0,0,.29.53,1.75,1.75,0,0,0,.84.18,2.35,2.35,0,0,0,1.21-.25.74.74,0,0,0,.39-.66.53.53,0,0,0-.21-.48,1.64,1.64,0,0,0-.81-.14h-.78a1,1,0,0,0-.68.21A.74.74,0,0,0,47,149.8Zm.35-3.63a.88.88,0,0,0,.26.68,1,1,0,0,0,.7.23.83.83,0,0,0,1-.92.85.85,0,0,0-1-1,.92.92,0,0,0-.7.25A1,1,0,0,0,47.33,146.17Z"/><path class="cls-2" d="M55.34,149.16a1.73,1.73,0,0,1-.76-.16,1.46,1.46,0,0,1-.58-.47h0a5.92,5.92,0,0,1,0,.71V151h-.65v-6.2h.53l.09.58h0a1.51,1.51,0,0,1,.58-.5,1.7,1.7,0,0,1,.76-.16,1.59,1.59,0,0,1,1.32.58,3.11,3.11,0,0,1,0,3.27A1.59,1.59,0,0,1,55.34,149.16Zm-.09-3.89a1.16,1.16,0,0,0-1,.36,2,2,0,0,0-.3,1.16v.14a2.16,2.16,0,0,0,.3,1.3,1.17,1.17,0,0,0,1,.38,1,1,0,0,0,.86-.44,2.15,2.15,0,0,0,.32-1.24,2,2,0,0,0-.32-1.23A1,1,0,0,0,55.25,145.27Z"/><path class="cls-2" d="M62,146.93a2.38,2.38,0,0,1-.53,1.64,2.07,2.07,0,0,1-2.47.32,1.75,1.75,0,0,1-.69-.78,2.7,2.7,0,0,1-.24-1.18,2.36,2.36,0,0,1,.52-1.63,1.84,1.84,0,0,1,1.45-.58,1.81,1.81,0,0,1,1.43.6A2.37,2.37,0,0,1,62,146.93Zm-3.26,0a2,2,0,0,0,.33,1.25,1.12,1.12,0,0,0,1,.43,1.17,1.17,0,0,0,1-.42,2.06,2.06,0,0,0,.33-1.26,2,2,0,0,0-.33-1.24,1.17,1.17,0,0,0-1-.42,1.15,1.15,0,0,0-1,.42A2,2,0,0,0,58.69,146.93Z"/><path class="cls-2" d="M66.78,146.93a2.33,2.33,0,0,1-.53,1.64,1.85,1.85,0,0,1-1.45.59,1.89,1.89,0,0,1-1-.27,1.75,1.75,0,0,1-.69-.78,2.7,2.7,0,0,1-.24-1.18,2.36,2.36,0,0,1,.52-1.63,1.84,1.84,0,0,1,1.45-.58,1.81,1.81,0,0,1,1.43.6A2.37,2.37,0,0,1,66.78,146.93Zm-3.26,0a2,2,0,0,0,.33,1.25,1.13,1.13,0,0,0,1,.43,1.15,1.15,0,0,0,1-.42,2.06,2.06,0,0,0,.33-1.26,2,2,0,0,0-.33-1.24,1.17,1.17,0,0,0-1-.42,1.15,1.15,0,0,0-1,.42A2,2,0,0,0,63.52,146.93Z"/><path class="cls-2" d="M68.57,149.08h-.65V143h.65Z"/><path class="cls-2" d="M72.7,147.91a1.07,1.07,0,0,1-.44.92,2.09,2.09,0,0,1-1.25.33,2.72,2.72,0,0,1-1.33-.27v-.6a3.71,3.71,0,0,0,.66.24,2.77,2.77,0,0,0,.68.09,1.51,1.51,0,0,0,.78-.16.55.55,0,0,0,.06-.92,3.33,3.33,0,0,0-.84-.42,4.43,4.43,0,0,1-.85-.39,1.15,1.15,0,0,1-.38-.38,1,1,0,0,1-.12-.5,1,1,0,0,1,.42-.83,2,2,0,0,1,1.17-.3,3.37,3.37,0,0,1,1.35.28l-.23.53a3.07,3.07,0,0,0-1.17-.27,1.31,1.31,0,0,0-.69.15.43.43,0,0,0-.23.4.47.47,0,0,0,.08.29.89.89,0,0,0,.29.23,7.06,7.06,0,0,0,.75.32,3,3,0,0,1,1,.55A1,1,0,0,1,72.7,147.91Z"/><path class="cls-1" d="M25,117.8a4,4,0,0,1-1,2.79,4.8,4.8,0,0,1-2.71,1.46v.09a5.11,5.11,0,0,1,3.18,1.37,4,4,0,0,1,1,2.88,4.69,4.69,0,0,1-1.77,3.93,8.09,8.09,0,0,1-5,1.37,14.76,14.76,0,0,1-2.59-.21,9.45,9.45,0,0,1-2.29-.75V128.8a11.74,11.74,0,0,0,5,1.17q4.62,0,4.62-3.63,0-3.24-5.1-3.24H16.55v-1.75h1.78a5.4,5.4,0,0,0,3.31-.92,3,3,0,0,0,1.22-2.56,2.52,2.52,0,0,0-.9-2.05,3.64,3.64,0,0,0-2.43-.74,7.57,7.57,0,0,0-2.21.31A10.37,10.37,0,0,0,15,116.57l-1-1.37a8.41,8.41,0,0,1,2.53-1.36,9.2,9.2,0,0,1,3-.5,6.2,6.2,0,0,1,4,1.19A4,4,0,0,1,25,117.8Z"/><path class="cls-1" d="M31.25,128.54l.18.28c-.21.81-.52,1.76-.91,2.84s-.82,2.08-1.25,3H27.74c.22-.85.47-1.89.73-3.14s.45-2.24.56-3Z"/><path class="cls-1" d="M45.38,117.8a4.09,4.09,0,0,1-1,2.79,4.83,4.83,0,0,1-2.72,1.46v.09a5.17,5.17,0,0,1,3.19,1.37,4,4,0,0,1,1,2.88,4.69,4.69,0,0,1-1.77,3.93,8.07,8.07,0,0,1-5,1.37,14.85,14.85,0,0,1-2.59-.21,9.45,9.45,0,0,1-2.29-.75V128.8a11.74,11.74,0,0,0,5,1.17q4.62,0,4.62-3.63,0-3.24-5.1-3.24H37v-1.75h1.79a5.36,5.36,0,0,0,3.3-.92,3,3,0,0,0,1.22-2.56,2.51,2.51,0,0,0-.89-2.05,3.68,3.68,0,0,0-2.44-.74,7.57,7.57,0,0,0-2.21.31,10.37,10.37,0,0,0-2.37,1.18l-1-1.37a8.54,8.54,0,0,1,2.53-1.36,9.24,9.24,0,0,1,3-.5,6.18,6.18,0,0,1,4,1.19A4,4,0,0,1,45.38,117.8Z"/><path class="cls-1" d="M50.88,131.45l7.39-16H48.55V113.6H60.42v1.62l-7.3,16.23Z"/><path class="cls-1" d="M63.12,123.82q0-5.26,2.05-7.87a7.19,7.19,0,0,1,6-2.61,8.33,8.33,0,0,1,2.18.23v1.75a7.1,7.1,0,0,0-2.15-.31,5.43,5.43,0,0,0-4.38,1.79c-1,1.2-1.57,3.07-1.66,5.62h.14a4.69,4.69,0,0,1,4.25-2.09,5,5,0,0,1,3.79,1.45,5.49,5.49,0,0,1,1.39,3.94,6.11,6.11,0,0,1-1.52,4.38,5.44,5.44,0,0,1-4.11,1.59,5.29,5.29,0,0,1-4.4-2.08A9.23,9.23,0,0,1,63.12,123.82Zm6,6.15a3.43,3.43,0,0,0,2.7-1.09,4.64,4.64,0,0,0,1-3.16,4,4,0,0,0-.89-2.78,3.34,3.34,0,0,0-2.66-1,4.5,4.5,0,0,0-2,.46,3.69,3.69,0,0,0-1.46,1.24,2.9,2.9,0,0,0-.54,1.65,5.7,5.7,0,0,0,.48,2.34,4.1,4.1,0,0,0,1.39,1.72A3.41,3.41,0,0,0,69.11,130Z"/><path class="cls-1" d="M119.26,60.26a4.06,4.06,0,0,1-1,2.79,4.73,4.73,0,0,1-2.71,1.45v.1A5.11,5.11,0,0,1,118.77,66a4,4,0,0,1,1,2.88A4.66,4.66,0,0,1,118,72.77a8,8,0,0,1-5,1.38,13.82,13.82,0,0,1-2.59-.22,8.66,8.66,0,0,1-2.29-.75V71.25a10.82,10.82,0,0,0,2.47.88,11.1,11.1,0,0,0,2.48.3q4.64,0,4.63-3.63c0-2.16-1.7-3.25-5.1-3.25h-1.76V63.81h1.78a5.4,5.4,0,0,0,3.31-.92,3,3,0,0,0,1.22-2.56,2.51,2.51,0,0,0-.9-2,3.66,3.66,0,0,0-2.43-.75,7.57,7.57,0,0,0-2.21.32A9.89,9.89,0,0,0,109.25,59l-1-1.36a8.44,8.44,0,0,1,2.53-1.37,9.19,9.19,0,0,1,3-.49,6.2,6.2,0,0,1,4,1.19A4,4,0,0,1,119.26,60.26Z"/><path class="cls-1" d="M133.56,60.26a4.06,4.06,0,0,1-1,2.79,4.76,4.76,0,0,1-2.72,1.45v.1A5.14,5.14,0,0,1,133.07,66a4,4,0,0,1,1,2.88,4.66,4.66,0,0,1-1.77,3.92,8,8,0,0,1-5,1.38,13.93,13.93,0,0,1-2.6-.22,8.78,8.78,0,0,1-2.29-.75V71.25a11,11,0,0,0,2.47.88,11.26,11.26,0,0,0,2.49.3c3.08,0,4.63-1.21,4.63-3.63,0-2.16-1.71-3.25-5.11-3.25h-1.76V63.81h1.79a5.42,5.42,0,0,0,3.31-.92,3,3,0,0,0,1.22-2.56,2.51,2.51,0,0,0-.9-2,3.69,3.69,0,0,0-2.44-.75,7.62,7.62,0,0,0-2.21.32A9.67,9.67,0,0,0,123.55,59l-1-1.36a8.56,8.56,0,0,1,2.53-1.37,9.24,9.24,0,0,1,3-.49A6.23,6.23,0,0,1,132.12,57,4,4,0,0,1,133.56,60.26Z"/><path class="cls-1" d="M137.43,72.61a1.8,1.8,0,0,1,.37-1.24,1.35,1.35,0,0,1,1.07-.42,1.43,1.43,0,0,1,1.1.42,1.76,1.76,0,0,1,.4,1.24,1.7,1.7,0,0,1-.41,1.22,1.43,1.43,0,0,1-1.09.43,1.46,1.46,0,0,1-1-.39A1.67,1.67,0,0,1,137.43,72.61Z"/><path class="cls-1" d="M143.65,66.27c0-3.5.68-6.13,2-7.86a7.19,7.19,0,0,1,6-2.61,8.33,8.33,0,0,1,2.18.23v1.75a6.8,6.8,0,0,0-2.15-.31,5.41,5.41,0,0,0-4.38,1.79c-1,1.19-1.57,3.07-1.66,5.62h.14a4.68,4.68,0,0,1,4.25-2.1,5,5,0,0,1,3.79,1.45,5.52,5.52,0,0,1,1.39,4,6.08,6.08,0,0,1-1.52,4.37,5.41,5.41,0,0,1-4.11,1.6,5.32,5.32,0,0,1-4.4-2.08A9.24,9.24,0,0,1,143.65,66.27Zm6,6.16a3.4,3.4,0,0,0,2.7-1.1,4.69,4.69,0,0,0,.95-3.15,4.07,4.07,0,0,0-.89-2.79,3.37,3.37,0,0,0-2.66-1,4.49,4.49,0,0,0-2,.45,3.71,3.71,0,0,0-1.46,1.25,2.9,2.9,0,0,0-.54,1.65,5.73,5.73,0,0,0,.48,2.34,4.16,4.16,0,0,0,1.39,1.72A3.48,3.48,0,0,0,149.64,72.43Z"/><path class="cls-1" d="M165.06,61.38a7.71,7.71,0,0,1-.93,4.2A3.07,3.07,0,0,1,161.39,67a3,3,0,0,1-2.66-1.46,7.64,7.64,0,0,1-.94-4.17,7.74,7.74,0,0,1,.91-4.18,3,3,0,0,1,2.69-1.4,3.06,3.06,0,0,1,2.72,1.45A7.58,7.58,0,0,1,165.06,61.38Zm-5.59,0a8.2,8.2,0,0,0,.45,3.11,1.53,1.53,0,0,0,1.47,1q2,0,2-4.15t-2-4.13a1.52,1.52,0,0,0-1.47,1A8.11,8.11,0,0,0,159.47,61.38Zm13.2-5.32-9.9,17.84H161l9.9-17.84Zm3.15,12.47a7.58,7.58,0,0,1-.94,4.19,3.06,3.06,0,0,1-2.74,1.43,3,3,0,0,1-2.67-1.46,7.7,7.7,0,0,1-.93-4.16,7.68,7.68,0,0,1,.91-4.17A3,3,0,0,1,172.14,63a3.09,3.09,0,0,1,2.71,1.44A7.4,7.4,0,0,1,175.82,68.53Zm-5.61,0a8.22,8.22,0,0,0,.45,3.12,1.54,1.54,0,0,0,1.48,1,1.6,1.6,0,0,0,1.52-1,7.71,7.71,0,0,0,.48-3.13,7.53,7.53,0,0,0-.48-3.09,1.61,1.61,0,0,0-1.52-1,1.55,1.55,0,0,0-1.48,1A8,8,0,0,0,170.21,68.53Z"/><path class="cls-2" d="M112,80.39a2.35,2.35,0,0,1-.53,1.64,1.84,1.84,0,0,1-1.45.58,1.89,1.89,0,0,1-1-.27,1.68,1.68,0,0,1-.69-.77,2.7,2.7,0,0,1-.24-1.18,2.35,2.35,0,0,1,.52-1.63,2.06,2.06,0,0,1,2.88,0A2.33,2.33,0,0,1,112,80.39Zm-3.26,0a2,2,0,0,0,.33,1.25,1.3,1.3,0,0,0,1.93,0,2.51,2.51,0,0,0,0-2.49,1.17,1.17,0,0,0-1-.42,1.15,1.15,0,0,0-1,.42A2,2,0,0,0,108.78,80.39Z"/><path class="cls-2" d="M115.11,78.76H114v3.78h-.65V78.76h-.77v-.29l.77-.24V78c0-1,.46-1.57,1.38-1.57a2.93,2.93,0,0,1,.8.13l-.17.52a2.2,2.2,0,0,0-.64-.12.64.64,0,0,0-.55.24A1.47,1.47,0,0,0,114,78v.28h1.09Z"/><path class="cls-2" d="M121.29,81a1.38,1.38,0,0,1-.55,1.17,2.37,2.37,0,0,1-1.48.42,3.68,3.68,0,0,1-1.57-.26v-.64a4.34,4.34,0,0,0,.77.24,4.65,4.65,0,0,0,.82.08,1.64,1.64,0,0,0,1-.25.84.84,0,0,0,.34-.7.91.91,0,0,0-.12-.49,1.29,1.29,0,0,0-.4-.35,7.45,7.45,0,0,0-.85-.36,2.64,2.64,0,0,1-1.14-.68,1.48,1.48,0,0,1-.34-1,1.28,1.28,0,0,1,.49-1.05,2.07,2.07,0,0,1,1.32-.39,3.82,3.82,0,0,1,1.56.32l-.2.57a3.72,3.72,0,0,0-1.38-.29,1.31,1.31,0,0,0-.82.22.75.75,0,0,0-.3.63,1,1,0,0,0,.11.49,1,1,0,0,0,.37.35,5.35,5.35,0,0,0,.79.35,3.22,3.22,0,0,1,1.24.68A1.41,1.41,0,0,1,121.29,81Z"/><path class="cls-2" d="M125,82.54l-1.93-5.07h0c0,.41.06.88.06,1.43v3.64h-.61V76.83h1l1.8,4.71h0l1.82-4.71h1v5.71h-.66V78.86c0-.43,0-.88,0-1.38h0l-2,5.06Z"/><path class="cls-2" d="M135.38,78.49a1.6,1.6,0,0,1-.59,1.33,2.71,2.71,0,0,1-1.7.47h-.67v2.25h-.66V76.83h1.48C134.66,76.83,135.38,77.38,135.38,78.49Zm-3,1.23h.6a2.16,2.16,0,0,0,1.28-.29,1,1,0,0,0,.39-.91,1,1,0,0,0-.37-.84,1.91,1.91,0,0,0-1.16-.28h-.74Z"/><path class="cls-2" d="M138.43,78.18a2.64,2.64,0,0,1,.51,0l-.09.61a2.16,2.16,0,0,0-.47-.06,1.16,1.16,0,0,0-.89.42,1.56,1.56,0,0,0-.37,1v2.3h-.65V78.26H137l.07.79h0a1.82,1.82,0,0,1,.57-.65A1.29,1.29,0,0,1,138.43,78.18Z"/><path class="cls-2" d="M139.69,77.09a.4.4,0,0,1,.11-.32.36.36,0,0,1,.27-.1.39.39,0,0,1,.27.1.44.44,0,0,1,.11.32.45.45,0,0,1-.11.33.4.4,0,0,1-.27.11.37.37,0,0,1-.27-.11A.41.41,0,0,1,139.69,77.09Zm.7,5.45h-.65V78.26h.65Z"/><path class="cls-2" d="M147.22,82.54V79.75A1.14,1.14,0,0,0,147,79a.83.83,0,0,0-.68-.25,1.07,1.07,0,0,0-.89.35,1.65,1.65,0,0,0-.29,1.07v2.39h-.65V79.75a1.14,1.14,0,0,0-.22-.77.83.83,0,0,0-.68-.25,1,1,0,0,0-.89.36,2,2,0,0,0-.29,1.2v2.25h-.65V78.26h.53l.11.58h0a1.23,1.23,0,0,1,.52-.49,1.64,1.64,0,0,1,.74-.17,1.29,1.29,0,0,1,1.32.72h0a1.34,1.34,0,0,1,.55-.53,1.72,1.72,0,0,1,.83-.19,1.45,1.45,0,0,1,1.09.37,1.68,1.68,0,0,1,.36,1.19v2.8Z"/><path class="cls-2" d="M151,82.61a2,2,0,0,1-1.49-.57,2.23,2.23,0,0,1-.55-1.61,2.46,2.46,0,0,1,.51-1.64,1.68,1.68,0,0,1,1.37-.61,1.59,1.59,0,0,1,1.27.53,2,2,0,0,1,.47,1.39v.41h-3a1.69,1.69,0,0,0,.38,1.15,1.32,1.32,0,0,0,1,.39,3.46,3.46,0,0,0,1.36-.29v.58a2.89,2.89,0,0,1-.65.21A3.88,3.88,0,0,1,151,82.61Zm-.17-3.89a1,1,0,0,0-.82.34,1.52,1.52,0,0,0-.37.93h2.24a1.42,1.42,0,0,0-.27-.94A1,1,0,0,0,150.84,78.72Z"/><path class="cls-2" d="M154.25,76.83l-.15,2.06h-.41l-.16-2.06Z"/><path class="cls-2" d="M158.22,81.37a1.06,1.06,0,0,1-.44.92,2.07,2.07,0,0,1-1.25.32,2.72,2.72,0,0,1-1.33-.27v-.6a3.09,3.09,0,0,0,.66.25,2.84,2.84,0,0,0,.69.09,1.56,1.56,0,0,0,.78-.16.55.55,0,0,0,.27-.5.51.51,0,0,0-.22-.42,3.15,3.15,0,0,0-.84-.42,4.75,4.75,0,0,1-.85-.39,1.15,1.15,0,0,1-.38-.38,1,1,0,0,1-.12-.5,1,1,0,0,1,.43-.83,2,2,0,0,1,1.16-.3,3.42,3.42,0,0,1,1.36.28l-.24.53a3,3,0,0,0-1.16-.27,1.44,1.44,0,0,0-.7.14.46.46,0,0,0-.23.4.56.56,0,0,0,.08.3,1,1,0,0,0,.29.23,5.76,5.76,0,0,0,.75.31,2.84,2.84,0,0,1,1,.56A1,1,0,0,1,158.22,81.37Z"/><path class="cls-2" d="M162.74,82.08a1.69,1.69,0,0,0,.33,0,1.33,1.33,0,0,0,.26,0v.5a1.37,1.37,0,0,1-.31.08l-.37,0c-.83,0-1.25-.43-1.25-1.3V78.76h-.61v-.31l.61-.27.28-.92h.37v1h1.25v.5h-1.25v2.52a.82.82,0,0,0,.19.59A.63.63,0,0,0,162.74,82.08Z"/><path class="cls-2" d="M167.88,80.39a2.39,2.39,0,0,1-.53,1.64,1.86,1.86,0,0,1-1.46.58,1.94,1.94,0,0,1-1-.27,1.71,1.71,0,0,1-.68-.77,2.57,2.57,0,0,1-.25-1.18,2.35,2.35,0,0,1,.53-1.63,2.06,2.06,0,0,1,2.88,0A2.38,2.38,0,0,1,167.88,80.39Zm-3.26,0a2,2,0,0,0,.32,1.25,1.13,1.13,0,0,0,1,.43,1.15,1.15,0,0,0,1-.43,2.51,2.51,0,0,0,0-2.49,1.17,1.17,0,0,0-1-.42,1.15,1.15,0,0,0-1,.42A2,2,0,0,0,164.62,80.39Z"/><path class="cls-2" d="M170.4,82.08a1.84,1.84,0,0,0,.33,0,1.09,1.09,0,0,0,.25,0v.5a1.23,1.23,0,0,1-.31.08l-.37,0c-.83,0-1.24-.43-1.24-1.3V78.76h-.61v-.31l.61-.27.27-.92h.38v1H171v.5h-1.24v2.52a.87.87,0,0,0,.18.59A.65.65,0,0,0,170.4,82.08Z"/><path class="cls-2" d="M174.47,82.54l-.13-.61h0a1.71,1.71,0,0,1-.64.54,1.83,1.83,0,0,1-.79.14,1.42,1.42,0,0,1-1-.32,1.21,1.21,0,0,1-.36-.94c0-.86.69-1.31,2.07-1.36l.73,0V79.7a1.06,1.06,0,0,0-.22-.74.87.87,0,0,0-.69-.24,2.8,2.8,0,0,0-1.21.33l-.2-.5a3.54,3.54,0,0,1,.69-.27,3.3,3.3,0,0,1,.76-.1,1.64,1.64,0,0,1,1.13.34,1.41,1.41,0,0,1,.37,1.09v2.93ZM173,82.08a1.32,1.32,0,0,0,1-.33,1.22,1.22,0,0,0,.34-.93v-.39l-.65,0a2.41,2.41,0,0,0-1.11.24.71.71,0,0,0-.34.66.7.7,0,0,0,.21.54A.9.9,0,0,0,173,82.08Z"/><path class="cls-2" d="M176.94,82.54h-.65V76.46h.65Z"/><path class="cls-2" d="M111.84,91.54,111.06,89c0-.15-.15-.5-.28-1h0c-.11.45-.2.81-.28,1l-.8,2.51h-.75l-1.17-4.28h.68c.27,1.07.48,1.89.63,2.45a10.67,10.67,0,0,1,.25,1.14h0c0-.15.07-.34.14-.58s.12-.42.16-.56l.79-2.45h.7l.77,2.45a9,9,0,0,1,.29,1.13h0c0-.09,0-.24.09-.43s.32-1.25.81-3.15h.68l-1.19,4.28Z"/><path class="cls-2" d="M117.2,91.54l-.13-.61h0a1.64,1.64,0,0,1-.64.54,1.83,1.83,0,0,1-.79.14,1.42,1.42,0,0,1-1-.32,1.21,1.21,0,0,1-.36-.94c0-.86.69-1.31,2.07-1.36l.73,0V88.7a1.06,1.06,0,0,0-.22-.74.87.87,0,0,0-.69-.24,2.8,2.8,0,0,0-1.21.33l-.2-.5a3.54,3.54,0,0,1,.69-.27,3.3,3.3,0,0,1,.76-.1,1.64,1.64,0,0,1,1.13.34,1.41,1.41,0,0,1,.37,1.09v2.93Zm-1.46-.46a1.32,1.32,0,0,0,1-.33,1.22,1.22,0,0,0,.34-.93v-.39l-.64,0a2.42,2.42,0,0,0-1.12.24.71.71,0,0,0-.34.66.7.7,0,0,0,.21.54A.9.9,0,0,0,115.74,91.08Z"/><path class="cls-2" d="M120.4,91.08a1.69,1.69,0,0,0,.33,0,1.33,1.33,0,0,0,.26,0v.5a1.37,1.37,0,0,1-.31.08l-.37,0c-.83,0-1.25-.43-1.25-1.3V87.76h-.61v-.31l.61-.27.28-.92h.37v1H121v.5h-1.25v2.52a.82.82,0,0,0,.19.59A.63.63,0,0,0,120.4,91.08Z"/><path class="cls-2" d="M123.65,91.61a2,2,0,0,1-1.5-.57,2.28,2.28,0,0,1-.55-1.61,2.46,2.46,0,0,1,.51-1.64,1.69,1.69,0,0,1,1.37-.61,1.61,1.61,0,0,1,1.28.53,2,2,0,0,1,.46,1.39v.41h-2.94a1.69,1.69,0,0,0,.38,1.15,1.31,1.31,0,0,0,1,.39,3.48,3.48,0,0,0,1.37-.29v.58a3.06,3.06,0,0,1-.65.21A3.88,3.88,0,0,1,123.65,91.61Zm-.18-3.89a1.05,1.05,0,0,0-.82.34,1.58,1.58,0,0,0-.36.93h2.24a1.42,1.42,0,0,0-.27-.94A1,1,0,0,0,123.47,87.72Z"/><path class="cls-2" d="M128.28,87.18a2.82,2.82,0,0,1,.52,0l-.09.61a2.23,2.23,0,0,0-.47-.06,1.13,1.13,0,0,0-.89.42,1.51,1.51,0,0,0-.37,1v2.3h-.65V87.26h.54l.07.79h0a1.85,1.85,0,0,1,.58-.65A1.28,1.28,0,0,1,128.28,87.18Z"/><path class="cls-2" d="M133.39,91.61A1.83,1.83,0,0,1,132,91a2.35,2.35,0,0,1-.51-1.62,2.46,2.46,0,0,1,.51-1.66,1.88,1.88,0,0,1,1.48-.58,3.34,3.34,0,0,1,.62.06,2.43,2.43,0,0,1,.48.16l-.2.55a2.89,2.89,0,0,0-.47-.14,2,2,0,0,0-.45-.06c-.87,0-1.3.56-1.3,1.67a2,2,0,0,0,.32,1.21,1.1,1.1,0,0,0,.94.42,3,3,0,0,0,1.1-.23v.57A2.34,2.34,0,0,1,133.39,91.61Z"/><path class="cls-2" d="M139.18,89.39a2.39,2.39,0,0,1-.53,1.64,1.86,1.86,0,0,1-1.46.58,1.94,1.94,0,0,1-1-.27,1.71,1.71,0,0,1-.68-.77,2.7,2.7,0,0,1-.25-1.18,2.35,2.35,0,0,1,.53-1.63,2.06,2.06,0,0,1,2.88,0A2.38,2.38,0,0,1,139.18,89.39Zm-3.26,0a2.07,2.07,0,0,0,.32,1.25,1.31,1.31,0,0,0,1.94,0,2.51,2.51,0,0,0,0-2.49,1.17,1.17,0,0,0-1-.42,1.15,1.15,0,0,0-1,.42A2,2,0,0,0,135.92,89.39Z"/><path class="cls-2" d="M143.24,91.54V88.77A1.15,1.15,0,0,0,143,88a1,1,0,0,0-.75-.26,1.21,1.21,0,0,0-1,.36,1.81,1.81,0,0,0-.32,1.2v2.25h-.65V87.26h.53l.11.58h0a1.34,1.34,0,0,1,.56-.49,1.88,1.88,0,0,1,.8-.17,1.62,1.62,0,0,1,1.16.37,1.59,1.59,0,0,1,.39,1.19v2.8Z"/><path class="cls-2" d="M148,90.37a1.07,1.07,0,0,1-.45.92,2.07,2.07,0,0,1-1.25.32,2.72,2.72,0,0,1-1.33-.27v-.6a3,3,0,0,0,.67.25,2.71,2.71,0,0,0,.68.09,1.51,1.51,0,0,0,.78-.16.55.55,0,0,0,.27-.5.51.51,0,0,0-.22-.42,3.15,3.15,0,0,0-.84-.42,4.75,4.75,0,0,1-.85-.39,1.25,1.25,0,0,1-.38-.38,1,1,0,0,1-.12-.5,1,1,0,0,1,.43-.83,2,2,0,0,1,1.17-.3,3.37,3.37,0,0,1,1.35.28l-.23.53a3.07,3.07,0,0,0-1.17-.27,1.44,1.44,0,0,0-.7.14.46.46,0,0,0-.23.4.49.49,0,0,0,.09.3,1,1,0,0,0,.28.23,5.76,5.76,0,0,0,.75.31,2.84,2.84,0,0,1,1,.56A1,1,0,0,1,148,90.37Z"/><path class="cls-2" d="M149.65,87.26V90a1.1,1.1,0,0,0,.24.78,1,1,0,0,0,.75.26,1.21,1.21,0,0,0,1-.37,1.87,1.87,0,0,0,.31-1.19V87.26h.65v4.28H152L152,91h0a1.25,1.25,0,0,1-.55.49,1.89,1.89,0,0,1-.81.16,1.63,1.63,0,0,1-1.17-.37,1.55,1.55,0,0,1-.39-1.18v-2.8Z"/><path class="cls-2" d="M159.41,91.54V88.75a1.14,1.14,0,0,0-.22-.77.85.85,0,0,0-.68-.25,1.07,1.07,0,0,0-.89.35,1.59,1.59,0,0,0-.29,1.07v2.39h-.65V88.75a1.14,1.14,0,0,0-.22-.77.85.85,0,0,0-.68-.25,1.08,1.08,0,0,0-.9.36,2,2,0,0,0-.28,1.2v2.25H154V87.26h.53l.1.58h0a1.27,1.27,0,0,1,.51-.49,1.72,1.72,0,0,1,.75-.17,1.26,1.26,0,0,1,1.31.72h0a1.43,1.43,0,0,1,.56-.53,1.72,1.72,0,0,1,.83-.19,1.47,1.47,0,0,1,1.09.37,1.68,1.68,0,0,1,.36,1.19v2.8Z"/><path class="cls-2" d="M163.39,91.61a1.92,1.92,0,0,1-.77-.15A1.46,1.46,0,0,1,162,91h0a4.39,4.39,0,0,1,0,.71v1.76h-.65v-6.2h.53l.09.58h0a1.64,1.64,0,0,1,.58-.51,1.86,1.86,0,0,1,.77-.15,1.58,1.58,0,0,1,1.31.58,2.55,2.55,0,0,1,.46,1.63,2.52,2.52,0,0,1-.47,1.64A1.57,1.57,0,0,1,163.39,91.61Zm-.1-3.88a1.16,1.16,0,0,0-.95.36,1.94,1.94,0,0,0-.3,1.16v.14a2.15,2.15,0,0,0,.3,1.29,1.14,1.14,0,0,0,1,.39,1,1,0,0,0,.87-.45,2.13,2.13,0,0,0,.31-1.24,2,2,0,0,0-.31-1.22A1,1,0,0,0,163.29,87.73Z"/><path class="cls-2" d="M167.68,91.08a1.84,1.84,0,0,0,.33,0,1.09,1.09,0,0,0,.25,0v.5a1.23,1.23,0,0,1-.31.08l-.37,0c-.82,0-1.24-.43-1.24-1.3V87.76h-.61v-.31l.61-.27.28-.92H167v1h1.24v.5H167v2.52a.87.87,0,0,0,.18.59A.65.65,0,0,0,167.68,91.08Z"/><path class="cls-2" d="M169.06,86.09a.44.44,0,0,1,.11-.32.4.4,0,0,1,.28-.1.39.39,0,0,1,.27.1.44.44,0,0,1,.11.32.45.45,0,0,1-.11.33.4.4,0,0,1-.27.11.41.41,0,0,1-.28-.11A.45.45,0,0,1,169.06,86.09Zm.71,5.45h-.65V87.26h.65Z"/><path class="cls-2" d="M174.84,89.39a2.39,2.39,0,0,1-.53,1.64,1.86,1.86,0,0,1-1.46.58,1.94,1.94,0,0,1-1-.27,1.71,1.71,0,0,1-.68-.77,2.7,2.7,0,0,1-.25-1.18,2.35,2.35,0,0,1,.53-1.63,2.06,2.06,0,0,1,2.88,0A2.38,2.38,0,0,1,174.84,89.39Zm-3.26,0a2.07,2.07,0,0,0,.32,1.25,1.31,1.31,0,0,0,1.94,0,2.51,2.51,0,0,0,0-2.49,1.17,1.17,0,0,0-1-.42,1.15,1.15,0,0,0-1,.42A2,2,0,0,0,171.58,89.39Z"/><path class="cls-2" d="M178.9,91.54V88.77a1.1,1.1,0,0,0-.23-.78,1,1,0,0,0-.75-.26,1.21,1.21,0,0,0-1,.36,1.81,1.81,0,0,0-.32,1.2v2.25H176V87.26h.53l.11.58h0a1.34,1.34,0,0,1,.56-.49,1.88,1.88,0,0,1,.8-.17,1.62,1.62,0,0,1,1.16.37,1.59,1.59,0,0,1,.39,1.19v2.8Z"/><path class="cls-2" d="M182.91,86.09a.44.44,0,0,1,.11-.32.41.41,0,0,1,.54,0,.4.4,0,0,1,.11.32.41.41,0,0,1-.11.33.39.39,0,0,1-.54,0A.45.45,0,0,1,182.91,86.09Zm.7,5.45H183V87.26h.65Z"/><path class="cls-2" d="M187.92,91.54V88.77a1.1,1.1,0,0,0-.24-.78,1,1,0,0,0-.75-.26,1.23,1.23,0,0,0-1,.36,1.82,1.82,0,0,0-.31,1.2v2.25H185V87.26h.52l.11.58h0a1.34,1.34,0,0,1,.56-.49,1.91,1.91,0,0,1,.8-.17,1.36,1.36,0,0,1,1.55,1.56v2.8Z"/><path class="cls-2" d="M111.8,100.54h-3.75V100l1.5-1.51a12.17,12.17,0,0,0,.91-1,2.61,2.61,0,0,0,.33-.57,1.74,1.74,0,0,0,.11-.61,1,1,0,0,0-.28-.72,1.06,1.06,0,0,0-.77-.27,1.85,1.85,0,0,0-.67.12,2.48,2.48,0,0,0-.71.42l-.35-.44a2.63,2.63,0,0,1,1.72-.66,1.78,1.78,0,0,1,1.26.42,1.38,1.38,0,0,1,.46,1.1,2.18,2.18,0,0,1-.3,1.08,7.44,7.44,0,0,1-1.14,1.34l-1.25,1.22v0h2.93Z"/><path class="cls-2" d="M116.41,97.67a4.15,4.15,0,0,1-.47,2.21,1.57,1.57,0,0,1-1.43.73,1.56,1.56,0,0,1-1.4-.74,4.1,4.1,0,0,1-.48-2.2,4.15,4.15,0,0,1,.47-2.21,1.56,1.56,0,0,1,1.41-.72,1.6,1.6,0,0,1,1.42.75A4.07,4.07,0,0,1,116.41,97.67Zm-3.12,0a4.31,4.31,0,0,0,.29,1.82,1,1,0,0,0,1.87,0,4.13,4.13,0,0,0,.29-1.81,4.08,4.08,0,0,0-.29-1.8,1,1,0,0,0-.94-.57,1,1,0,0,0-.93.56A4.25,4.25,0,0,0,113.29,97.67Z"/><path class="cls-2" d="M119.6,100.54H119V96.47q0-.51,0-1l-.19.17c-.06.06-.37.31-.92.76l-.35-.45,1.51-1.16h.55Z"/><path class="cls-2" d="M125.53,97.26c0,2.24-.87,3.35-2.6,3.35a2.81,2.81,0,0,1-.72-.07V100a2.26,2.26,0,0,0,.71.1,1.72,1.72,0,0,0,1.42-.58,2.94,2.94,0,0,0,.52-1.78h0a1.3,1.3,0,0,1-.57.49,1.71,1.71,0,0,1-.8.17,1.62,1.62,0,0,1-1.2-.45,1.7,1.7,0,0,1-.44-1.26,1.94,1.94,0,0,1,.49-1.41,1.77,1.77,0,0,1,1.31-.52,1.75,1.75,0,0,1,1,.3,1.86,1.86,0,0,1,.67.87A3.54,3.54,0,0,1,125.53,97.26Zm-1.93-2a1.06,1.06,0,0,0-.86.36,1.51,1.51,0,0,0-.3,1,1.27,1.27,0,0,0,.28.88,1,1,0,0,0,.85.32,1.45,1.45,0,0,0,.66-.14,1.3,1.3,0,0,0,.47-.39,1,1,0,0,0,.17-.53,1.79,1.79,0,0,0-.16-.76,1.34,1.34,0,0,0-.45-.54A1.08,1.08,0,0,0,123.6,95.3Z"/><path class="cls-2" d="M132.22,100.54,131.43,98c-.05-.15-.14-.5-.28-1h0c-.1.45-.19.81-.27,1l-.81,2.51h-.75l-1.17-4.28h.68c.28,1.07.49,1.89.63,2.45a8.57,8.57,0,0,1,.25,1.14h0c0-.15.08-.34.14-.58s.12-.42.17-.56l.78-2.45h.71l.76,2.45a7.75,7.75,0,0,1,.3,1.13h0c0-.09,0-.24.08-.43s.32-1.25.82-3.15h.67L133,100.54Z"/><path class="cls-2" d="M137.58,100.54l-.13-.61h0a1.79,1.79,0,0,1-.64.54,1.88,1.88,0,0,1-.8.14,1.45,1.45,0,0,1-1-.32,1.21,1.21,0,0,1-.36-.94c0-.86.69-1.31,2.08-1.36l.72,0V97.7a1.11,1.11,0,0,0-.21-.74.91.91,0,0,0-.7-.24,2.83,2.83,0,0,0-1.21.33l-.2-.5a3.64,3.64,0,0,1,.7-.27,3.22,3.22,0,0,1,.75-.1,1.69,1.69,0,0,1,1.14.34,1.45,1.45,0,0,1,.37,1.09v2.93Zm-1.47-.46a1.31,1.31,0,0,0,.95-.33,1.23,1.23,0,0,0,.35-.93v-.39l-.65,0a2.42,2.42,0,0,0-1.12.24.73.73,0,0,0-.34.66.67.67,0,0,0,.22.54A.89.89,0,0,0,136.11,100.08Z"/><path class="cls-2" d="M142.15,99.37a1.06,1.06,0,0,1-.44.92,2.07,2.07,0,0,1-1.25.32,2.72,2.72,0,0,1-1.33-.27v-.6a3.09,3.09,0,0,0,.66.25,2.83,2.83,0,0,0,.68.09,1.58,1.58,0,0,0,.79-.16.55.55,0,0,0,.27-.5.51.51,0,0,0-.22-.42,3.15,3.15,0,0,0-.84-.42,4.75,4.75,0,0,1-.85-.39,1.15,1.15,0,0,1-.38-.38,1,1,0,0,1-.12-.5,1,1,0,0,1,.43-.83,2,2,0,0,1,1.16-.3,3.37,3.37,0,0,1,1.35.28l-.23.53a3,3,0,0,0-1.16-.27,1.44,1.44,0,0,0-.7.14.44.44,0,0,0-.23.4.56.56,0,0,0,.08.3,1,1,0,0,0,.29.23,5.76,5.76,0,0,0,.75.31,2.84,2.84,0,0,1,1,.56A1,1,0,0,1,142.15,99.37Z"/><path class="cls-2" d="M147.24,96.18a2.64,2.64,0,0,1,.51,0l-.09.61a2.09,2.09,0,0,0-.47-.06,1.13,1.13,0,0,0-.88.42,1.51,1.51,0,0,0-.37,1v2.3h-.65V96.26h.53l.08.79h0a1.92,1.92,0,0,1,.57-.65A1.31,1.31,0,0,1,147.24,96.18Z"/><path class="cls-2" d="M150.36,100.61a2,2,0,0,1-1.5-.57,2.28,2.28,0,0,1-.55-1.61,2.46,2.46,0,0,1,.51-1.64,1.69,1.69,0,0,1,1.37-.61,1.61,1.61,0,0,1,1.28.53,2,2,0,0,1,.47,1.39v.41H149a1.69,1.69,0,0,0,.38,1.15,1.32,1.32,0,0,0,1,.39,3.46,3.46,0,0,0,1.36-.29v.58a3.06,3.06,0,0,1-.65.21A3.88,3.88,0,0,1,150.36,100.61Zm-.17-3.89a1.06,1.06,0,0,0-.83.34A1.58,1.58,0,0,0,149,98h2.24a1.42,1.42,0,0,0-.27-.94A1,1,0,0,0,150.19,96.72Z"/><path class="cls-2" d="M154.75,100.61a1.83,1.83,0,0,1-1.44-.57,2.35,2.35,0,0,1-.51-1.62,2.46,2.46,0,0,1,.52-1.66,1.88,1.88,0,0,1,1.48-.58,3.15,3.15,0,0,1,.61.06,2.34,2.34,0,0,1,.49.16l-.2.55a3.23,3.23,0,0,0-.47-.14,2,2,0,0,0-.45-.06c-.87,0-1.31.56-1.31,1.67a2,2,0,0,0,.32,1.21,1.13,1.13,0,0,0,1,.42,2.92,2.92,0,0,0,1.09-.23v.57A2.28,2.28,0,0,1,154.75,100.61Z"/><path class="cls-2" d="M156.17,96.26h.7l.93,2.44a9,9,0,0,1,.39,1.2h0c0-.13.1-.36.21-.68s.46-1.31,1.06-3h.7l-1.84,4.87a2.64,2.64,0,0,1-.64,1,1.4,1.4,0,0,1-.9.3,2.38,2.38,0,0,1-.59-.07v-.52a2.46,2.46,0,0,0,.49,0,1,1,0,0,0,.95-.75l.24-.61Z"/><path class="cls-2" d="M162.59,100.61a1.83,1.83,0,0,1-1.44-.57,2.35,2.35,0,0,1-.51-1.62,2.46,2.46,0,0,1,.52-1.66,1.88,1.88,0,0,1,1.48-.58,3.15,3.15,0,0,1,.61.06,2.34,2.34,0,0,1,.49.16l-.2.55a3.23,3.23,0,0,0-.47-.14,2,2,0,0,0-.45-.06c-.87,0-1.31.56-1.31,1.67a2,2,0,0,0,.32,1.21,1.13,1.13,0,0,0,1,.42,2.92,2.92,0,0,0,1.09-.23v.57A2.28,2.28,0,0,1,162.59,100.61Z"/><path class="cls-2" d="M165.34,100.54h-.65V94.46h.65Z"/><path class="cls-2" d="M168.52,100.61A2,2,0,0,1,167,100a2.28,2.28,0,0,1-.55-1.61,2.46,2.46,0,0,1,.51-1.64,1.69,1.69,0,0,1,1.37-.61,1.61,1.61,0,0,1,1.28.53,2,2,0,0,1,.47,1.39v.41h-2.95a1.69,1.69,0,0,0,.38,1.15,1.32,1.32,0,0,0,1,.39,3.46,3.46,0,0,0,1.36-.29v.58a3.06,3.06,0,0,1-.65.21A3.88,3.88,0,0,1,168.52,100.61Zm-.17-3.89a1.06,1.06,0,0,0-.83.34,1.58,1.58,0,0,0-.36.93h2.24a1.42,1.42,0,0,0-.27-.94A1,1,0,0,0,168.35,96.72Z"/><path class="cls-2" d="M174.12,100h0a1.51,1.51,0,0,1-1.34.65,1.6,1.6,0,0,1-1.31-.57,2.53,2.53,0,0,1-.47-1.63,2.59,2.59,0,0,1,.47-1.65,1.58,1.58,0,0,1,1.31-.58,1.55,1.55,0,0,1,1.33.63h.05l0-.31,0-.3V94.46h.65v6.08h-.53Zm-1.3.11a1.18,1.18,0,0,0,1-.36,1.82,1.82,0,0,0,.3-1.17v-.13a2.16,2.16,0,0,0-.3-1.3,1.16,1.16,0,0,0-1-.39,1,1,0,0,0-.87.44,2.26,2.26,0,0,0-.3,1.26,2.09,2.09,0,0,0,.3,1.23A1,1,0,0,0,172.82,100.07Z"/><path class="cls-2" d="M110.15,109.61a2,2,0,0,1-1.49-.57,2.23,2.23,0,0,1-.55-1.61,2.46,2.46,0,0,1,.51-1.64,1.68,1.68,0,0,1,1.37-.61,1.59,1.59,0,0,1,1.27.53,2,2,0,0,1,.47,1.39v.41h-3a1.69,1.69,0,0,0,.38,1.15,1.32,1.32,0,0,0,1,.39,3.55,3.55,0,0,0,1.37-.29v.58a3.13,3.13,0,0,1-.66.21A3.88,3.88,0,0,1,110.15,109.61Zm-.17-3.89a1,1,0,0,0-.82.34,1.46,1.46,0,0,0-.36.93H111a1.42,1.42,0,0,0-.27-.94A1,1,0,0,0,110,105.72Z"/><path class="cls-2" d="M114.35,109.61a1.55,1.55,0,0,1-1.29-.58,2.54,2.54,0,0,1-.46-1.62,2.58,2.58,0,0,1,.46-1.64,1.57,1.57,0,0,1,1.31-.59,1.55,1.55,0,0,1,1.35.66h0l.09-.58h.51v6.2h-.65v-1.83a4.17,4.17,0,0,1,.05-.67h-.05A1.52,1.52,0,0,1,114.35,109.61Zm.1-.54a1.17,1.17,0,0,0,1-.35,1.91,1.91,0,0,0,.31-1.17v-.14a2.2,2.2,0,0,0-.3-1.3,1.16,1.16,0,0,0-1-.39,1,1,0,0,0-.87.44,2.26,2.26,0,0,0-.3,1.26,2.13,2.13,0,0,0,.3,1.23A1,1,0,0,0,114.45,109.07Z"/><path class="cls-2" d="M118.35,105.26V108a1.15,1.15,0,0,0,.23.78,1,1,0,0,0,.75.26,1.18,1.18,0,0,0,1-.37,1.81,1.81,0,0,0,.31-1.19v-2.25h.65v4.28h-.53l-.1-.58h0a1.45,1.45,0,0,1-.55.49,1.92,1.92,0,0,1-.81.16,1.63,1.63,0,0,1-1.17-.37,1.55,1.55,0,0,1-.39-1.18v-2.8Z"/><path class="cls-2" d="M122.59,104.09a.44.44,0,0,1,.11-.32.38.38,0,0,1,.27-.1.36.36,0,0,1,.27.1.41.41,0,0,1,.12.32.42.42,0,0,1-.12.33.37.37,0,0,1-.27.11.39.39,0,0,1-.27-.11A.45.45,0,0,1,122.59,104.09Zm.71,5.45h-.65v-4.28h.65Z"/><path class="cls-2" d="M125.61,109.54,124,105.26h.7l.92,2.53c.21.6.33,1,.37,1.16h0c0-.14.12-.42.27-.86s.49-1.38,1-2.83H128l-1.62,4.28Z"/><path class="cls-2" d="M131.31,109.54l-.13-.61h0a1.71,1.71,0,0,1-.64.54,1.83,1.83,0,0,1-.79.14,1.42,1.42,0,0,1-1-.32,1.21,1.21,0,0,1-.36-.94c0-.86.69-1.31,2.07-1.36l.73,0v-.27a1.06,1.06,0,0,0-.22-.74.87.87,0,0,0-.69-.24,2.8,2.8,0,0,0-1.21.33l-.2-.5a3.54,3.54,0,0,1,.69-.27,3.3,3.3,0,0,1,.76-.1,1.64,1.64,0,0,1,1.13.34,1.41,1.41,0,0,1,.37,1.09v2.93Zm-1.46-.46a1.32,1.32,0,0,0,1-.33,1.22,1.22,0,0,0,.34-.93v-.39l-.65,0a2.41,2.41,0,0,0-1.11.24.71.71,0,0,0-.34.66.7.7,0,0,0,.21.54A.9.9,0,0,0,129.85,109.08Z"/><path class="cls-2" d="M133.78,109.54h-.65v-6.08h.65Z"/><path class="cls-2" d="M137,109.61a2,2,0,0,1-1.5-.57,2.28,2.28,0,0,1-.55-1.61,2.46,2.46,0,0,1,.51-1.64,1.69,1.69,0,0,1,1.37-.61,1.58,1.58,0,0,1,1.27.53,2,2,0,0,1,.47,1.39v.41h-2.95a1.69,1.69,0,0,0,.39,1.15,1.31,1.31,0,0,0,1,.39,3.51,3.51,0,0,0,1.37-.29v.58a3.25,3.25,0,0,1-.65.21A4,4,0,0,1,137,109.61Zm-.18-3.89a1.05,1.05,0,0,0-.82.34,1.58,1.58,0,0,0-.36.93h2.24a1.37,1.37,0,0,0-.28-.94A1,1,0,0,0,136.78,105.72Z"/><path class="cls-2" d="M142.57,109.54v-2.77a1.1,1.1,0,0,0-.24-.78,1,1,0,0,0-.75-.26,1.24,1.24,0,0,0-1,.36,1.82,1.82,0,0,0-.31,1.2v2.25h-.65v-4.28h.53l.1.58h0a1.41,1.41,0,0,1,.56-.49,1.77,1.77,0,0,1,.8-.17,1.63,1.63,0,0,1,1.17.37,1.59,1.59,0,0,1,.39,1.19v2.8Z"/><path class="cls-2" d="M145.93,109.08a1.69,1.69,0,0,0,.33,0,1.2,1.2,0,0,0,.26,0v.5a1.37,1.37,0,0,1-.31.08l-.37,0c-.83,0-1.24-.43-1.24-1.3v-2.55H144v-.31l.62-.27.27-.92h.37v1h1.25v.5h-1.25v2.52a.87.87,0,0,0,.19.59A.63.63,0,0,0,145.93,109.08Z"/><path class="cls-2" d="M150.83,109.08a1.87,1.87,0,0,0,.34,0,1.22,1.22,0,0,0,.25,0v.5a1.23,1.23,0,0,1-.31.08l-.37,0c-.83,0-1.24-.43-1.24-1.3v-2.55h-.61v-.31l.61-.27.27-.92h.38v1h1.24v.5h-1.24v2.52a.87.87,0,0,0,.18.59A.63.63,0,0,0,150.83,109.08Z"/><path class="cls-2" d="M156,107.39a2.35,2.35,0,0,1-.53,1.64,1.84,1.84,0,0,1-1.45.58,1.89,1.89,0,0,1-1-.27,1.68,1.68,0,0,1-.69-.77,2.7,2.7,0,0,1-.24-1.18,2.35,2.35,0,0,1,.52-1.63,2.06,2.06,0,0,1,2.88,0A2.38,2.38,0,0,1,156,107.39Zm-3.26,0a2,2,0,0,0,.33,1.25,1.3,1.3,0,0,0,1.93,0,2.51,2.51,0,0,0,0-2.49,1.17,1.17,0,0,0-1-.42,1.15,1.15,0,0,0-1,.42A2,2,0,0,0,152.71,107.39Z"/><path class="cls-2" d="M113.4,137.22a3.14,3.14,0,0,1-.69,2.15,2.44,2.44,0,0,1-1.93.79,2.49,2.49,0,0,1-2-.77,3.8,3.8,0,0,1,0-4.34,2.47,2.47,0,0,1,2-.77,2.43,2.43,0,0,1,1.92.78A3.15,3.15,0,0,1,113.4,137.22Zm-4.55,0a2.71,2.71,0,0,0,.49,1.76,1.76,1.76,0,0,0,1.44.6,1.73,1.73,0,0,0,1.43-.6,2.71,2.71,0,0,0,.49-1.76,2.67,2.67,0,0,0-.49-1.75,1.71,1.71,0,0,0-1.42-.6,1.77,1.77,0,0,0-1.45.6A2.68,2.68,0,0,0,108.85,137.22Z"/><path class="cls-2" d="M115.22,140.08h-.64V134h.64Z"/><path class="cls-2" d="M115.92,135.8h.7l.93,2.44a9,9,0,0,1,.39,1.21h0c0-.14.1-.36.21-.69s.46-1.31,1.06-3h.7l-1.84,4.87a2.57,2.57,0,0,1-.64,1,1.4,1.4,0,0,1-.9.3,2.38,2.38,0,0,1-.59-.07v-.51a2.45,2.45,0,0,0,.48,0,1,1,0,0,0,1-.75l.24-.61Z"/><path class="cls-2" d="M126.09,140.08v-2.79a1.11,1.11,0,0,0-.22-.76.85.85,0,0,0-.68-.26,1.13,1.13,0,0,0-.9.35,1.67,1.67,0,0,0-.28,1.07v2.39h-.65v-2.79a1.17,1.17,0,0,0-.22-.76.86.86,0,0,0-.69-.26,1,1,0,0,0-.89.37,2,2,0,0,0-.28,1.19v2.25h-.65V135.8h.53l.1.58h0a1.27,1.27,0,0,1,.52-.48,1.57,1.57,0,0,1,.75-.18,1.26,1.26,0,0,1,1.31.73h0a1.36,1.36,0,0,1,.56-.53,1.62,1.62,0,0,1,.83-.2,1.43,1.43,0,0,1,1.08.37,1.64,1.64,0,0,1,.37,1.2v2.79Z"/><path class="cls-2" d="M130.06,140.16a1.76,1.76,0,0,1-.76-.16,1.46,1.46,0,0,1-.58-.47h-.05a5.92,5.92,0,0,1,.05.71V142h-.65v-6.2h.53l.09.58h0a1.51,1.51,0,0,1,.58-.5,1.7,1.7,0,0,1,.76-.16,1.59,1.59,0,0,1,1.32.58,3.11,3.11,0,0,1,0,3.27A1.59,1.59,0,0,1,130.06,140.16Zm-.09-3.89a1.16,1.16,0,0,0-.95.36,2,2,0,0,0-.3,1.16v.14a2.16,2.16,0,0,0,.3,1.3,1.17,1.17,0,0,0,1,.38,1,1,0,0,0,.87-.44,2.23,2.23,0,0,0,.31-1.24,2.1,2.1,0,0,0-.31-1.23A1,1,0,0,0,130,136.27Z"/><path class="cls-2" d="M132.92,134.64a.45.45,0,0,1,.11-.33.41.41,0,0,1,.54,0,.42.42,0,0,1,.12.33.41.41,0,0,1-.12.32.39.39,0,0,1-.54,0A.44.44,0,0,1,132.92,134.64Zm.7,5.44H133V135.8h.65Z"/><path class="cls-2" d="M136.71,140.16a1.83,1.83,0,0,1-1.44-.57,2.87,2.87,0,0,1,0-3.28,1.85,1.85,0,0,1,1.47-.59,2.62,2.62,0,0,1,.62.07,1.82,1.82,0,0,1,.48.15l-.2.55-.46-.14a2,2,0,0,0-.45-.06c-.87,0-1.31.56-1.31,1.67a2,2,0,0,0,.32,1.21,1.11,1.11,0,0,0,.94.42,2.93,2.93,0,0,0,1.1-.23v.57A2.33,2.33,0,0,1,136.71,140.16Z"/><path class="cls-2" d="M138.45,138.23v-.59h1.92v.59Z"/><path class="cls-2" d="M144.14,138.91a1.07,1.07,0,0,1-.44.92,2.09,2.09,0,0,1-1.25.33,2.72,2.72,0,0,1-1.33-.27v-.6a3.44,3.44,0,0,0,.66.24,2.77,2.77,0,0,0,.68.09,1.51,1.51,0,0,0,.78-.16.55.55,0,0,0,.06-.92,3.26,3.26,0,0,0-.85-.42,4.57,4.57,0,0,1-.84-.39,1.15,1.15,0,0,1-.38-.38,1,1,0,0,1-.12-.5,1,1,0,0,1,.42-.83,2,2,0,0,1,1.17-.3,3.37,3.37,0,0,1,1.35.28l-.23.53a3.07,3.07,0,0,0-1.17-.27,1.31,1.31,0,0,0-.69.15.44.44,0,0,0-.24.4.48.48,0,0,0,.09.29.89.89,0,0,0,.29.23,7.06,7.06,0,0,0,.75.32,2.79,2.79,0,0,1,1,.55A1,1,0,0,1,144.14,138.91Z"/><path class="cls-2" d="M145.14,134.64a.45.45,0,0,1,.11-.33.39.39,0,0,1,.28-.1.35.35,0,0,1,.26.1.42.42,0,0,1,.12.33.41.41,0,0,1-.12.32.33.33,0,0,1-.26.11.36.36,0,0,1-.28-.11A.44.44,0,0,1,145.14,134.64Zm.71,5.44h-.65V135.8h.65Z"/><path class="cls-2" d="M150,140.08h-3.11v-.44l2.34-3.34H147v-.5h2.9v.5l-2.3,3.28H150Z"/><path class="cls-2" d="M152.77,140.16a2,2,0,0,1-1.5-.58,2.28,2.28,0,0,1-.55-1.61,2.48,2.48,0,0,1,.51-1.64,1.69,1.69,0,0,1,1.37-.61,1.64,1.64,0,0,1,1.28.53,2,2,0,0,1,.47,1.4v.41H151.4a1.68,1.68,0,0,0,.38,1.14,1.31,1.31,0,0,0,1,.39,3.48,3.48,0,0,0,1.37-.29v.58a3.06,3.06,0,0,1-.65.21A3.15,3.15,0,0,1,152.77,140.16Zm-.17-3.9a1.06,1.06,0,0,0-.83.34,1.58,1.58,0,0,0-.36.93h2.24a1.44,1.44,0,0,0-.27-.94A1,1,0,0,0,152.6,136.26Z"/><path class="cls-2" d="M111.11,147.91a1.06,1.06,0,0,1-.45.92,2,2,0,0,1-1.25.33,2.72,2.72,0,0,1-1.33-.27v-.6a3.54,3.54,0,0,0,.67.24,2.71,2.71,0,0,0,.68.09,1.51,1.51,0,0,0,.78-.16.53.53,0,0,0,.27-.49.54.54,0,0,0-.21-.43,3.44,3.44,0,0,0-.85-.42,4.75,4.75,0,0,1-.85-.39,1.11,1.11,0,0,1-.37-.38.91.91,0,0,1-.13-.5,1,1,0,0,1,.43-.83,2,2,0,0,1,1.17-.3A3.37,3.37,0,0,1,111,145l-.23.53a3.07,3.07,0,0,0-1.17-.27,1.32,1.32,0,0,0-.7.15.45.45,0,0,0-.23.4.48.48,0,0,0,.09.29.84.84,0,0,0,.28.23,7.06,7.06,0,0,0,.75.32,2.85,2.85,0,0,1,1,.55A1,1,0,0,1,111.11,147.91Z"/><path class="cls-2" d="M115.66,149.08l-.79-2.51q-.08-.24-.27-1h0c-.1.46-.19.81-.27,1.06l-.81,2.5h-.75l-1.17-4.28h.68q.42,1.6.63,2.46a8.9,8.9,0,0,1,.25,1.13h0c0-.15.08-.34.14-.57s.12-.43.17-.56l.78-2.46H115l.76,2.46a7.35,7.35,0,0,1,.3,1.12h0c0-.09,0-.23.08-.43s.32-1.25.82-3.15h.67l-1.18,4.28Z"/><path class="cls-2" d="M118.33,143.64a.45.45,0,0,1,.11-.33.41.41,0,0,1,.54,0,.42.42,0,0,1,.12.33.41.41,0,0,1-.12.32.39.39,0,0,1-.54,0A.44.44,0,0,1,118.33,143.64Zm.7,5.44h-.65V144.8H119Z"/><path class="cls-2" d="M125.87,149.08v-2.79a1.17,1.17,0,0,0-.22-.76.87.87,0,0,0-.68-.26,1.12,1.12,0,0,0-.9.35,1.67,1.67,0,0,0-.29,1.07v2.39h-.65v-2.79a1.17,1.17,0,0,0-.21-.76.88.88,0,0,0-.69-.26,1,1,0,0,0-.89.37,2,2,0,0,0-.28,1.19v2.25h-.65V144.8h.53l.1.58h0a1.21,1.21,0,0,1,.52-.48,1.54,1.54,0,0,1,.75-.18,1.27,1.27,0,0,1,1.31.73h0a1.31,1.31,0,0,1,.56-.53,1.58,1.58,0,0,1,.82-.2,1.44,1.44,0,0,1,1.09.37,1.69,1.69,0,0,1,.36,1.2v2.79Z"/><path class="cls-2" d="M133.31,149.08v-2.79a1.17,1.17,0,0,0-.22-.76.85.85,0,0,0-.68-.26,1.12,1.12,0,0,0-.9.35,1.67,1.67,0,0,0-.29,1.07v2.39h-.64v-2.79a1.17,1.17,0,0,0-.22-.76.88.88,0,0,0-.69-.26,1,1,0,0,0-.89.37,2,2,0,0,0-.28,1.19v2.25h-.65V144.8h.53l.1.58h0a1.27,1.27,0,0,1,.52-.48,1.54,1.54,0,0,1,.75-.18,1.26,1.26,0,0,1,1.31.73h0a1.36,1.36,0,0,1,.56-.53,1.62,1.62,0,0,1,.83-.2,1.43,1.43,0,0,1,1.08.37,1.69,1.69,0,0,1,.36,1.2v2.79Z"/><path class="cls-2" d="M135.24,143.64a.41.41,0,0,1,.11-.33.36.36,0,0,1,.27-.1.39.39,0,0,1,.27.1.45.45,0,0,1,.11.33.44.44,0,0,1-.11.32.36.36,0,0,1-.27.11.33.33,0,0,1-.27-.11A.4.4,0,0,1,135.24,143.64Zm.7,5.44h-.65V144.8h.65Z"/><path class="cls-2" d="M140.24,149.08v-2.77a1.15,1.15,0,0,0-.23-.78,1,1,0,0,0-.75-.26,1.21,1.21,0,0,0-1,.36,1.85,1.85,0,0,0-.32,1.2v2.25h-.65V144.8h.53l.11.58h0a1.34,1.34,0,0,1,.56-.49,1.88,1.88,0,0,1,.8-.17,1.36,1.36,0,0,1,1.55,1.57v2.79Z"/><path class="cls-2" d="M145.73,144.8v.41l-.79.09a1.49,1.49,0,0,1,.19.36,1.31,1.31,0,0,1,.09.5,1.28,1.28,0,0,1-.43,1,1.74,1.74,0,0,1-1.18.38,2,2,0,0,1-.36,0,.62.62,0,0,0-.42.55.29.29,0,0,0,.15.26,1.11,1.11,0,0,0,.49.08h.76a1.73,1.73,0,0,1,1.07.29,1,1,0,0,1,.37.85,1.22,1.22,0,0,1-.57,1.09,3,3,0,0,1-1.66.37,2.29,2.29,0,0,1-1.3-.31,1,1,0,0,1-.45-.88,1,1,0,0,1,.25-.68,1.3,1.3,0,0,1,.7-.39.6.6,0,0,1-.27-.23.55.55,0,0,1-.11-.36.71.71,0,0,1,.12-.41,1.27,1.27,0,0,1,.4-.34,1.14,1.14,0,0,1-.55-.47,1.56,1.56,0,0,1,.22-1.83,1.73,1.73,0,0,1,1.19-.38,2.25,2.25,0,0,1,.61.08Zm-3.42,5a.58.58,0,0,0,.3.53,1.69,1.69,0,0,0,.84.18,2.4,2.4,0,0,0,1.21-.25.74.74,0,0,0,.39-.66.51.51,0,0,0-.22-.48,1.62,1.62,0,0,0-.8-.14h-.78a1,1,0,0,0-.69.21A.77.77,0,0,0,142.31,149.8Zm.36-3.63a.88.88,0,0,0,.25.68,1,1,0,0,0,.71.23.83.83,0,0,0,1-.92.85.85,0,0,0-1-1,1,1,0,0,0-.71.25A1,1,0,0,0,142.67,146.17Z"/><path class="cls-2" d="M150.68,149.16a1.77,1.77,0,0,1-.77-.16,1.46,1.46,0,0,1-.58-.47h0a5.85,5.85,0,0,1,0,.71V151h-.64v-6.2h.52l.09.58h0a1.47,1.47,0,0,1,.59-.5,1.67,1.67,0,0,1,.76-.16,1.57,1.57,0,0,1,1.31.58,2.55,2.55,0,0,1,.46,1.63,2.5,2.5,0,0,1-.47,1.64A1.58,1.58,0,0,1,150.68,149.16Zm-.1-3.89a1.17,1.17,0,0,0-1,.36,2,2,0,0,0-.3,1.16v.14a2.16,2.16,0,0,0,.3,1.3,1.19,1.19,0,0,0,1,.38,1,1,0,0,0,.87-.44,2.15,2.15,0,0,0,.31-1.24,2,2,0,0,0-.31-1.23A1,1,0,0,0,150.58,145.27Z"/><path class="cls-2" d="M157.28,146.93a2.37,2.37,0,0,1-.52,1.64,1.88,1.88,0,0,1-1.46.59,1.94,1.94,0,0,1-1-.27,1.75,1.75,0,0,1-.69-.78,2.7,2.7,0,0,1-.24-1.18,2.36,2.36,0,0,1,.52-1.63,1.86,1.86,0,0,1,1.46-.58,1.79,1.79,0,0,1,1.42.6A2.32,2.32,0,0,1,157.28,146.93Zm-3.26,0a2,2,0,0,0,.33,1.25,1.13,1.13,0,0,0,1,.43,1.15,1.15,0,0,0,1-.42,2.06,2.06,0,0,0,.33-1.26,2,2,0,0,0-.33-1.24,1.15,1.15,0,0,0-1-.42,1.12,1.12,0,0,0-1,.42A2,2,0,0,0,154,146.93Z"/><path class="cls-2" d="M162.12,146.93a2.38,2.38,0,0,1-.53,1.64,1.87,1.87,0,0,1-1.46.59,1.94,1.94,0,0,1-1-.27,1.81,1.81,0,0,1-.69-.78,2.7,2.7,0,0,1-.24-1.18,2.41,2.41,0,0,1,.52-1.63,1.86,1.86,0,0,1,1.46-.58,1.82,1.82,0,0,1,1.43.6A2.37,2.37,0,0,1,162.12,146.93Zm-3.27,0a2,2,0,0,0,.33,1.25,1.13,1.13,0,0,0,1,.43,1.15,1.15,0,0,0,1-.42,2.06,2.06,0,0,0,.33-1.26,2,2,0,0,0-.33-1.24,1.15,1.15,0,0,0-1-.42,1.12,1.12,0,0,0-1,.42A2,2,0,0,0,158.85,146.93Z"/><path class="cls-2" d="M163.9,149.08h-.65V143h.65Z"/><path class="cls-2" d="M168,147.91a1.06,1.06,0,0,1-.45.92,2.06,2.06,0,0,1-1.25.33,2.72,2.72,0,0,1-1.33-.27v-.6a3.54,3.54,0,0,0,.67.24,2.71,2.71,0,0,0,.68.09,1.51,1.51,0,0,0,.78-.16.53.53,0,0,0,.27-.49.54.54,0,0,0-.21-.43,3.44,3.44,0,0,0-.85-.42,4.75,4.75,0,0,1-.85-.39,1.25,1.25,0,0,1-.38-.38,1,1,0,0,1-.12-.5,1,1,0,0,1,.43-.83,2,2,0,0,1,1.17-.3A3.37,3.37,0,0,1,168,145l-.23.53a3.07,3.07,0,0,0-1.17-.27,1.32,1.32,0,0,0-.7.15.45.45,0,0,0-.23.4.48.48,0,0,0,.09.29.84.84,0,0,0,.28.23,7.06,7.06,0,0,0,.75.32,2.85,2.85,0,0,1,1,.55A1,1,0,0,1,168,147.91Z"/><path class="cls-1" d="M121,131.45H109.24V129.7l4.7-4.72a37.14,37.14,0,0,0,2.83-3.1,8,8,0,0,0,1-1.81,5.16,5.16,0,0,0,.35-1.89,3,3,0,0,0-.87-2.27,3.32,3.32,0,0,0-2.41-.83,6.1,6.1,0,0,0-2.1.36,8.64,8.64,0,0,0-2.22,1.33l-1.07-1.38a8.25,8.25,0,0,1,5.37-2,5.65,5.65,0,0,1,3.94,1.29,4.44,4.44,0,0,1,1.43,3.46,6.75,6.75,0,0,1-.95,3.36,21.74,21.74,0,0,1-3.57,4.2l-3.9,3.82v.1H121Z"/><path class="cls-1" d="M126.58,128.54l.19.28c-.22.81-.52,1.76-.92,2.84s-.81,2.08-1.25,3h-1.52c.22-.85.46-1.89.73-3.14s.44-2.24.55-3Z"/><path class="cls-1" d="M141.49,122.5c0,3.08-.49,5.39-1.46,6.91a5.39,5.39,0,0,1-8.85-.06q-1.5-2.34-1.5-6.85,0-4.66,1.46-6.92a5.39,5.39,0,0,1,8.84.09A12.81,12.81,0,0,1,141.49,122.5Zm-9.76,0a13.1,13.1,0,0,0,.92,5.67,3.29,3.29,0,0,0,5.85,0,13.09,13.09,0,0,0,.91-5.64,13.06,13.06,0,0,0-.91-5.64,3.3,3.3,0,0,0-5.85,0A13,13,0,0,0,131.73,122.5Z"/><path class="cls-1" d="M155,117.8a4,4,0,0,1-1,2.79,4.77,4.77,0,0,1-2.71,1.46v.09a5.11,5.11,0,0,1,3.18,1.37,4,4,0,0,1,1,2.88,4.69,4.69,0,0,1-1.77,3.93,8.07,8.07,0,0,1-5,1.37,14.76,14.76,0,0,1-2.59-.21,9.45,9.45,0,0,1-2.29-.75V128.8a11.74,11.74,0,0,0,5,1.17q4.62,0,4.62-3.63,0-3.24-5.1-3.24H146.6v-1.75h1.78a5.38,5.38,0,0,0,3.31-.92,3,3,0,0,0,1.22-2.56,2.54,2.54,0,0,0-.89-2.05,3.68,3.68,0,0,0-2.44-.74,7.57,7.57,0,0,0-2.21.31,10.37,10.37,0,0,0-2.37,1.18l-1-1.37a8.41,8.41,0,0,1,2.53-1.36,9.2,9.2,0,0,1,3-.5,6.18,6.18,0,0,1,4,1.19A4,4,0,0,1,155,117.8Z"/><path class="cls-1" d="M165.75,131.45h-2V118.73c0-1.06,0-2.06.09-3l-.57.54c-.21.19-1.18,1-2.9,2.38l-1.08-1.39,4.73-3.65h1.7Z"/><path class="cls-3" d="M17.4,18.11v4.16H16.23v-10H19a4.29,4.29,0,0,1,2.71.7,2.55,2.55,0,0,1,.88,2.12,2.66,2.66,0,0,1-2,2.68l2.72,4.49H21.9l-2.42-4.16Zm0-1H19a2.77,2.77,0,0,0,1.8-.49,1.82,1.82,0,0,0,.58-1.47,1.67,1.67,0,0,0-.59-1.43,3.16,3.16,0,0,0-1.87-.43H17.4Z"/><path class="cls-3" d="M27.88,22.41a3.46,3.46,0,0,1-2.62-1,3.94,3.94,0,0,1-1-2.81,4.37,4.37,0,0,1,.89-2.88,3,3,0,0,1,2.4-1.07,2.83,2.83,0,0,1,2.23.93A3.58,3.58,0,0,1,30.64,18v.72H25.48a2.94,2.94,0,0,0,.66,2,2.3,2.3,0,0,0,1.78.69,6,6,0,0,0,2.4-.51v1a5.79,5.79,0,0,1-1.14.37A6.06,6.06,0,0,1,27.88,22.41Zm-.3-6.82a1.84,1.84,0,0,0-1.44.59,2.72,2.72,0,0,0-.64,1.63h3.92a2.5,2.5,0,0,0-.48-1.65A1.68,1.68,0,0,0,27.58,15.59Z"/><path class="cls-3" d="M37.41,20.23a1.88,1.88,0,0,1-.78,1.61,3.66,3.66,0,0,1-2.19.57,4.83,4.83,0,0,1-2.33-.47V20.88a5.54,5.54,0,0,0,1.16.43,4.67,4.67,0,0,0,1.2.16,2.68,2.68,0,0,0,1.36-.28.94.94,0,0,0,.48-.87,1,1,0,0,0-.38-.75,6,6,0,0,0-1.48-.73A8,8,0,0,1,33,18.16a1.89,1.89,0,0,1-.66-.66,1.77,1.77,0,0,1-.22-.88,1.68,1.68,0,0,1,.75-1.45,3.5,3.5,0,0,1,2-.53,6.13,6.13,0,0,1,2.37.49l-.41.93a5.42,5.42,0,0,0-2-.47,2.47,2.47,0,0,0-1.22.25.83.83,0,0,0-.25,1.21,1.48,1.48,0,0,0,.49.41,10.8,10.8,0,0,0,1.32.55,5.11,5.11,0,0,1,1.8,1A1.74,1.74,0,0,1,37.41,20.23Z"/><path class="cls-3" d="M42.74,22.41a3.24,3.24,0,0,1-1.34-.27,2.53,2.53,0,0,1-1-.83H40.3a9.05,9.05,0,0,1,.09,1.24v3.08H39.25V14.78h.92l.16,1h.06a2.61,2.61,0,0,1,1-.88,3,3,0,0,1,1.34-.28,2.77,2.77,0,0,1,2.3,1,4.49,4.49,0,0,1,.81,2.86A4.43,4.43,0,0,1,45,21.38,2.75,2.75,0,0,1,42.74,22.41Zm-.17-6.8a2,2,0,0,0-1.66.63,3.24,3.24,0,0,0-.52,2v.26a3.78,3.78,0,0,0,.52,2.26,2,2,0,0,0,1.69.68,1.77,1.77,0,0,0,1.52-.79,3.71,3.71,0,0,0,.55-2.17,3.58,3.58,0,0,0-.55-2.15A1.8,1.8,0,0,0,42.57,15.61Z"/><path class="cls-3" d="M54.3,18.52a4.12,4.12,0,0,1-.93,2.86,3.26,3.26,0,0,1-2.55,1A3.4,3.4,0,0,1,49,21.94a3.12,3.12,0,0,1-1.2-1.36,4.6,4.6,0,0,1-.43-2.06,4.15,4.15,0,0,1,.92-2.86,3.24,3.24,0,0,1,2.54-1,3.17,3.17,0,0,1,2.5,1A4.09,4.09,0,0,1,54.3,18.52Zm-5.71,0a3.62,3.62,0,0,0,.57,2.19,2.28,2.28,0,0,0,3.38,0,3.51,3.51,0,0,0,.58-2.19,3.43,3.43,0,0,0-.58-2.17,2.31,2.31,0,0,0-3.38,0A3.48,3.48,0,0,0,48.59,18.52Z"/><path class="cls-3" d="M61.41,22.27V17.42A2,2,0,0,0,61,16.06a1.72,1.72,0,0,0-1.31-.45,2.16,2.16,0,0,0-1.72.63,3.18,3.18,0,0,0-.55,2.1v3.93H56.29V14.78h.92l.18,1h.06a2.26,2.26,0,0,1,1-.85,3.06,3.06,0,0,1,1.4-.31,2.84,2.84,0,0,1,2,.65,2.78,2.78,0,0,1,.69,2.09v4.89Z"/><path class="cls-3" d="M69.71,20.23a1.88,1.88,0,0,1-.78,1.61,3.66,3.66,0,0,1-2.19.57,4.81,4.81,0,0,1-2.32-.47V20.88a5.54,5.54,0,0,0,1.16.43,4.59,4.59,0,0,0,1.19.16,2.72,2.72,0,0,0,1.37-.28.94.94,0,0,0,.48-.87,1,1,0,0,0-.38-.75,6.2,6.2,0,0,0-1.48-.73,8.47,8.47,0,0,1-1.49-.68,1.94,1.94,0,0,1-.65-.66,1.81,1.81,0,0,1,.53-2.33,3.46,3.46,0,0,1,2-.53,6.08,6.08,0,0,1,2.36.49l-.4.93a5.42,5.42,0,0,0-2-.47,2.44,2.44,0,0,0-1.22.25.8.8,0,0,0-.41.7.85.85,0,0,0,.15.51,1.53,1.53,0,0,0,.5.41,11.18,11.18,0,0,0,1.31.55,4.93,4.93,0,0,1,1.8,1A1.7,1.7,0,0,1,69.71,20.23Z"/><path class="cls-3" d="M71.46,12.75a.78.78,0,0,1,.19-.57.68.68,0,0,1,.48-.18.67.67,0,0,1,.47.18.71.71,0,0,1,.2.57.74.74,0,0,1-.2.57.69.69,0,0,1-.95,0A.81.81,0,0,1,71.46,12.75Zm1.23,9.52H71.56V14.78h1.13Z"/><path class="cls-3" d="M78.58,14.66a2.8,2.8,0,0,1,2.3,1,4.49,4.49,0,0,1,.82,2.86,4.43,4.43,0,0,1-.83,2.86,2.76,2.76,0,0,1-2.29,1,3.23,3.23,0,0,1-1.33-.27,2.62,2.62,0,0,1-1-.83h-.08l-.24,1H75.1V11.63h1.13v2.59c0,.58,0,1.1,0,1.56h0A2.7,2.7,0,0,1,78.58,14.66Zm-.16.95a2,2,0,0,0-1.67.66,3.73,3.73,0,0,0-.52,2.25,3.77,3.77,0,0,0,.53,2.26,2,2,0,0,0,1.69.68A1.76,1.76,0,0,0,80,20.69a3.9,3.9,0,0,0,.51-2.19A3.79,3.79,0,0,0,80,16.32,1.82,1.82,0,0,0,78.42,15.61Z"/><path class="cls-3" d="M84.81,22.27H83.68V11.63h1.13Z"/><path class="cls-3" d="M90.38,22.41a3.46,3.46,0,0,1-2.62-1,3.94,3.94,0,0,1-1-2.81,4.37,4.37,0,0,1,.89-2.88,3,3,0,0,1,2.4-1.07,2.83,2.83,0,0,1,2.23.93A3.53,3.53,0,0,1,93.14,18v.72H88a2.94,2.94,0,0,0,.66,2,2.31,2.31,0,0,0,1.78.69,6,6,0,0,0,2.4-.51v1a5.79,5.79,0,0,1-1.14.37A6.06,6.06,0,0,1,90.38,22.41Zm-.3-6.82a1.84,1.84,0,0,0-1.44.59A2.72,2.72,0,0,0,88,17.81h3.92a2.5,2.5,0,0,0-.48-1.65A1.68,1.68,0,0,0,90.08,15.59Z"/><path class="cls-3" d="M24.91,30.92a5.56,5.56,0,0,1-1.21,3.77,4.3,4.3,0,0,1-3.38,1.37,4.33,4.33,0,0,1-3.41-1.35,5.54,5.54,0,0,1-1.2-3.81,5.46,5.46,0,0,1,1.21-3.78,4.34,4.34,0,0,1,3.42-1.35,4.27,4.27,0,0,1,3.36,1.37A5.49,5.49,0,0,1,24.91,30.92Zm-8,0A4.68,4.68,0,0,0,17.81,34a3.07,3.07,0,0,0,2.51,1,3,3,0,0,0,2.51-1,4.79,4.79,0,0,0,.85-3.08,4.71,4.71,0,0,0-.85-3.06,3,3,0,0,0-2.49-1.05,3.09,3.09,0,0,0-2.53,1.05A4.69,4.69,0,0,0,17,30.92Z"/><path class="cls-3" d="M30.45,36.06a3.23,3.23,0,0,1-1.33-.27,2.41,2.41,0,0,1-1-.83H28a11,11,0,0,1,.08,1.25v3.08H27V28.43h.92l.16,1h.05a2.6,2.6,0,0,1,1-.89,3.13,3.13,0,0,1,1.33-.27,2.76,2.76,0,0,1,2.3,1,4.46,4.46,0,0,1,.81,2.85A4.46,4.46,0,0,1,32.74,35,2.78,2.78,0,0,1,30.45,36.06Zm-.16-6.8a2,2,0,0,0-1.66.64,3.26,3.26,0,0,0-.53,2v.25a3.73,3.73,0,0,0,.53,2.26,2,2,0,0,0,1.69.68,1.77,1.77,0,0,0,1.52-.78,3.81,3.81,0,0,0,.55-2.17A3.63,3.63,0,0,0,31.84,30,1.82,1.82,0,0,0,30.29,29.26Z"/><path class="cls-3" d="M38.71,36.06a3.45,3.45,0,0,1-2.62-1,3.91,3.91,0,0,1-1-2.81A4.37,4.37,0,0,1,36,29.36a3,3,0,0,1,2.4-1.06,2.85,2.85,0,0,1,2.23.92,3.61,3.61,0,0,1,.82,2.45v.71H36.3a3,3,0,0,0,.67,2,2.33,2.33,0,0,0,1.78.68,6.1,6.1,0,0,0,2.39-.5v1A6.73,6.73,0,0,1,40,36,6.85,6.85,0,0,1,38.71,36.06Zm-.31-6.81a1.84,1.84,0,0,0-1.44.59,2.78,2.78,0,0,0-.63,1.62h3.92a2.49,2.49,0,0,0-.48-1.64A1.68,1.68,0,0,0,38.4,29.25Z"/><path class="cls-3" d="M46.82,28.3a4,4,0,0,1,.89.08l-.15,1.05a3.79,3.79,0,0,0-.82-.1,2,2,0,0,0-1.56.74,2.68,2.68,0,0,0-.64,1.84v4H43.4v-7.5h.94l.13,1.39h.05a3.28,3.28,0,0,1,1-1.13A2.28,2.28,0,0,1,46.82,28.3Z"/><path class="cls-3" d="M53.72,35.93l-.22-1.07h-.06a3,3,0,0,1-1.12,1,3.32,3.32,0,0,1-1.39.25,2.5,2.5,0,0,1-1.74-.57,2.11,2.11,0,0,1-.64-1.64q0-2.26,3.63-2.37l1.28-.05V31a1.9,1.9,0,0,0-.38-1.3,1.58,1.58,0,0,0-1.22-.42,5,5,0,0,0-2.12.57L49.4,29a5,5,0,0,1,1.21-.47,5.43,5.43,0,0,1,1.32-.17,2.85,2.85,0,0,1,2,.6,2.46,2.46,0,0,1,.64,1.9v5.12Zm-2.56-.8a2.31,2.31,0,0,0,1.66-.58,2.13,2.13,0,0,0,.61-1.63v-.68l-1.14,0a4.09,4.09,0,0,0-1.95.42,1.26,1.26,0,0,0-.6,1.16,1.15,1.15,0,0,0,.38.93A1.51,1.51,0,0,0,51.16,35.13Z"/><path class="cls-3" d="M59.32,35.13a3.58,3.58,0,0,0,.58-.05l.45-.09v.87a1.89,1.89,0,0,1-.55.14,3.91,3.91,0,0,1-.64.06c-1.45,0-2.18-.76-2.18-2.29V29.32H55.91v-.55L57,28.3l.48-1.6h.66v1.73h2.17v.89H58.12v4.4a1.47,1.47,0,0,0,.32,1A1.09,1.09,0,0,0,59.32,35.13Z"/><path class="cls-3" d="M61.75,26.4a.74.74,0,0,1,.19-.57.68.68,0,0,1,.48-.18.64.64,0,0,1,.47.19.73.73,0,0,1,.2.56.74.74,0,0,1-.2.57.64.64,0,0,1-.47.19.65.65,0,0,1-.48-.19A.74.74,0,0,1,61.75,26.4ZM63,35.93H61.84v-7.5H63Z"/><path class="cls-3" d="M71.85,32.17A4.15,4.15,0,0,1,70.93,35a3.25,3.25,0,0,1-2.55,1,3.35,3.35,0,0,1-1.79-.47,3.1,3.1,0,0,1-1.2-1.35A4.78,4.78,0,0,1,65,32.17a4.12,4.12,0,0,1,.91-2.85,3.25,3.25,0,0,1,2.55-1,3.21,3.21,0,0,1,2.5,1A4.15,4.15,0,0,1,71.85,32.17Zm-5.71,0a3.51,3.51,0,0,0,.58,2.19,2,2,0,0,0,1.69.75,2,2,0,0,0,1.69-.75,3.57,3.57,0,0,0,.58-2.19A3.53,3.53,0,0,0,70.1,30a2.06,2.06,0,0,0-1.71-.74,2,2,0,0,0-1.68.73A3.52,3.52,0,0,0,66.14,32.17Z"/><path class="cls-3" d="M79,35.93V31.08a2,2,0,0,0-.42-1.37,1.7,1.7,0,0,0-1.31-.45,2.14,2.14,0,0,0-1.72.64A3.23,3.23,0,0,0,75,32v3.93H73.84v-7.5h.92l.19,1h0a2.34,2.34,0,0,1,1-.86,3.23,3.23,0,0,1,1.4-.3,2.84,2.84,0,0,1,2,.65A2.79,2.79,0,0,1,80.1,31v4.89Z"/><path class="cls-3" d="M87.27,33.88a1.89,1.89,0,0,1-.78,1.62,3.73,3.73,0,0,1-2.19.56A4.67,4.67,0,0,1,82,35.59V34.54a6.06,6.06,0,0,0,1.15.43,5.15,5.15,0,0,0,1.2.16,2.64,2.64,0,0,0,1.36-.29.94.94,0,0,0,.48-.86.93.93,0,0,0-.38-.75,5.93,5.93,0,0,0-1.48-.74,7.63,7.63,0,0,1-1.48-.68,1.89,1.89,0,0,1-.66-.66,1.74,1.74,0,0,1-.22-.88,1.66,1.66,0,0,1,.75-1.44,3.43,3.43,0,0,1,2-.53,6,6,0,0,1,2.37.49l-.4.92a5.48,5.48,0,0,0-2-.46,2.3,2.3,0,0,0-1.21.25.77.77,0,0,0-.41.7.85.85,0,0,0,.15.51,1.46,1.46,0,0,0,.49.4,12.15,12.15,0,0,0,1.32.56,4.94,4.94,0,0,1,1.8,1A1.74,1.74,0,0,1,87.27,33.88Z"/></g></svg>