<svg xmlns="http://www.w3.org/2000/svg" viewBox="0 0 54.23 48.42"><defs><style>.cls-1{fill:#4d4e50;}.cls-2{fill:#488e41;}</style></defs><g id="Economic_Opportunities_Image" data-name="Economic Opportunities Image"><path class="cls-1" d="M1.72,37l.33,0,.25-.06v.5a1.23,1.23,0,0,1-.31.08,1.65,1.65,0,0,1-.36,0c-.83,0-1.25-.44-1.25-1.31V33.67H-.23v-.31l.61-.27.28-.91H1v1H2.27v.5H1v2.52a.85.85,0,0,0,.18.59A.65.65,0,0,0,1.72,37Z"/><path class="cls-1" d="M5.11,33.09a2.78,2.78,0,0,1,.52,0l-.09.6a2.23,2.23,0,0,0-.47-.06,1.13,1.13,0,0,0-.89.42,1.51,1.51,0,0,0-.37,1v2.3H3.16V33.17H3.7l.07.79h0a1.81,1.81,0,0,1,.58-.64A1.2,1.2,0,0,1,5.11,33.09Z"/><path class="cls-1" d="M8.23,37.53A2,2,0,0,1,6.74,37a2.23,2.23,0,0,1-.55-1.61A2.48,2.48,0,0,1,6.7,33.7a1.68,1.68,0,0,1,1.37-.61,1.62,1.62,0,0,1,1.27.53A2,2,0,0,1,9.81,35v.41H6.86a1.68,1.68,0,0,0,.38,1.14,1.32,1.32,0,0,0,1,.39,3.55,3.55,0,0,0,1.37-.29v.58a3.37,3.37,0,0,1-1.4.28Zm-.17-3.9a1,1,0,0,0-.82.34,1.46,1.46,0,0,0-.36.93H9.11A1.44,1.44,0,0,0,8.84,34,1,1,0,0,0,8.06,33.63Z"/><path class="cls-1" d="M12.72,37.53a2,2,0,0,1-1.5-.58,2.27,2.27,0,0,1-.54-1.61,2.48,2.48,0,0,1,.51-1.64,1.67,1.67,0,0,1,1.36-.61,1.63,1.63,0,0,1,1.28.53A2,2,0,0,1,14.3,35v.41h-3a1.68,1.68,0,0,0,.38,1.14,1.32,1.32,0,0,0,1,.39,3.46,3.46,0,0,0,1.36-.29v.58a3.06,3.06,0,0,1-.65.21A3.15,3.15,0,0,1,12.72,37.53Zm-.17-3.9a1.06,1.06,0,0,0-.83.34,1.58,1.58,0,0,0-.36.93H13.6a1.44,1.44,0,0,0-.27-.94A1,1,0,0,0,12.55,33.63Z"/><path class="cls-1" d="M20.24,36.28a1.07,1.07,0,0,1-.44.92,2.09,2.09,0,0,1-1.25.33,2.72,2.72,0,0,1-1.33-.27v-.6a3.44,3.44,0,0,0,.66.24,2.77,2.77,0,0,0,.68.09,1.51,1.51,0,0,0,.78-.16.52.52,0,0,0,.28-.49.55.55,0,0,0-.22-.43,3.26,3.26,0,0,0-.85-.42,4.57,4.57,0,0,1-.84-.39,1.15,1.15,0,0,1-.38-.38,1,1,0,0,1-.12-.5,1,1,0,0,1,.42-.83,2,2,0,0,1,1.17-.3,3.37,3.37,0,0,1,1.35.28l-.23.53a3.07,3.07,0,0,0-1.17-.27,1.29,1.29,0,0,0-.69.15.44.44,0,0,0-.24.4.48.48,0,0,0,.09.29.89.89,0,0,0,.29.23A7.06,7.06,0,0,0,19,35a2.79,2.79,0,0,1,1,.55A1,1,0,0,1,20.24,36.28Z"/><path class="cls-1" d="M23.93,37.45l-.13-.61h0a1.71,1.71,0,0,1-.64.54,1.86,1.86,0,0,1-.79.15,1.42,1.42,0,0,1-1-.33,1.2,1.2,0,0,1-.36-.93c0-.87.69-1.32,2.07-1.36l.73,0v-.26a1.07,1.07,0,0,0-.22-.75.89.89,0,0,0-.69-.24,2.8,2.8,0,0,0-1.21.33l-.2-.5a3,3,0,0,1,.69-.26,2.78,2.78,0,0,1,.76-.1,1.61,1.61,0,0,1,1.13.34,1.4,1.4,0,0,1,.37,1.09v2.92ZM22.46,37a1.33,1.33,0,0,0,1-.33,1.22,1.22,0,0,0,.34-.93v-.39l-.65,0a2.41,2.41,0,0,0-1.11.24.71.71,0,0,0-.34.66.67.67,0,0,0,.21.54A.89.89,0,0,0,22.46,37Z"/><path class="cls-1" d="M27.74,37.53a1.8,1.8,0,0,1-.77-.16,1.46,1.46,0,0,1-.58-.47h0a6,6,0,0,1,0,.71v1.76h-.64v-6.2h.52l.09.58h0a1.47,1.47,0,0,1,.59-.5,1.67,1.67,0,0,1,.76-.16,1.57,1.57,0,0,1,1.31.58,2.55,2.55,0,0,1,.47,1.63A2.51,2.51,0,0,1,29,36.94,1.57,1.57,0,0,1,27.74,37.53Zm-.1-3.89a1.14,1.14,0,0,0-.94.36,1.89,1.89,0,0,0-.31,1.16v.14a2.15,2.15,0,0,0,.31,1.3,1.16,1.16,0,0,0,1,.38,1,1,0,0,0,.87-.45,2.09,2.09,0,0,0,.31-1.23,2,2,0,0,0-.31-1.23A1,1,0,0,0,27.64,33.64Z"/><path class="cls-1" d="M31.3,37.45h-.65V31.37h.65Z"/><path class="cls-1" d="M32.62,32a.41.41,0,0,1,.11-.33.36.36,0,0,1,.27-.1.39.39,0,0,1,.27.1.45.45,0,0,1,.11.33.44.44,0,0,1-.11.32.4.4,0,0,1-.27.11.37.37,0,0,1-.27-.11A.4.4,0,0,1,32.62,32Zm.7,5.44h-.65V33.17h.65Z"/><path class="cls-1" d="M37.63,37.45V34.68a1.1,1.1,0,0,0-.24-.78,1,1,0,0,0-.75-.26,1.21,1.21,0,0,0-1,.36,1.85,1.85,0,0,0-.32,1.2v2.25H34.7V33.17h.52l.11.58h0a1.34,1.34,0,0,1,.56-.49,1.88,1.88,0,0,1,.8-.17,1.36,1.36,0,0,1,1.55,1.57v2.79Z"/><path class="cls-1" d="M43.11,33.17v.41l-.79.09a1.49,1.49,0,0,1,.19.36,1.31,1.31,0,0,1,.09.5,1.28,1.28,0,0,1-.43,1,1.74,1.74,0,0,1-1.18.38,1.37,1.37,0,0,1-.36,0,.65.65,0,0,0-.42.56.29.29,0,0,0,.15.26,1.17,1.17,0,0,0,.5.08h.75a1.73,1.73,0,0,1,1.07.29,1,1,0,0,1,.37.85A1.22,1.22,0,0,1,42.48,39a3,3,0,0,1-1.66.37,2.24,2.24,0,0,1-1.29-.31,1,1,0,0,1-.46-.88,1,1,0,0,1,.25-.68,1.3,1.3,0,0,1,.7-.39.6.6,0,0,1-.27-.23.55.55,0,0,1-.11-.36.71.71,0,0,1,.12-.41,1.27,1.27,0,0,1,.4-.34,1.07,1.07,0,0,1-.54-.47,1.32,1.32,0,0,1-.21-.75,1.39,1.39,0,0,1,.42-1.08A1.73,1.73,0,0,1,41,33.09a2.25,2.25,0,0,1,.61.08Zm-3.41,5a.59.59,0,0,0,.29.53,1.6,1.6,0,0,0,.84.17A2.39,2.39,0,0,0,42,38.63a.74.74,0,0,0,.39-.66.51.51,0,0,0-.22-.48,1.62,1.62,0,0,0-.8-.14h-.78a1,1,0,0,0-.69.21A.76.76,0,0,0,39.7,38.17Zm.35-3.63a.86.86,0,0,0,.25.68,1,1,0,0,0,.71.23.83.83,0,0,0,1-.92.85.85,0,0,0-1-1,1,1,0,0,0-.71.25A1,1,0,0,0,40.05,34.54Z"/><path class="cls-1" d="M46.75,36.28a1.06,1.06,0,0,1-.45.92,2,2,0,0,1-1.25.33,2.68,2.68,0,0,1-1.32-.27v-.6a3.21,3.21,0,0,0,.66.24,2.71,2.71,0,0,0,.68.09,1.51,1.51,0,0,0,.78-.16.54.54,0,0,0,.28-.49.55.55,0,0,0-.22-.43,3.44,3.44,0,0,0-.85-.42,4.75,4.75,0,0,1-.85-.39,1.11,1.11,0,0,1-.37-.38,1,1,0,0,1-.13-.5,1,1,0,0,1,.43-.83,2,2,0,0,1,1.17-.3,3.37,3.37,0,0,1,1.35.28l-.23.53a3.07,3.07,0,0,0-1.17-.27,1.26,1.26,0,0,0-.69.15.44.44,0,0,0-.24.4.48.48,0,0,0,.09.29.84.84,0,0,0,.28.23,7.06,7.06,0,0,0,.75.32,2.85,2.85,0,0,1,1,.55A1,1,0,0,1,46.75,36.28Z"/><path class="cls-1" d="M2.33,45.8a1.92,1.92,0,0,1-.77-.15A1.4,1.4,0,0,1,1,45.17h0a6,6,0,0,1,0,.72v1.76H.34V41.44H.86L1,42H1a1.58,1.58,0,0,1,.59-.51,1.81,1.81,0,0,1,.76-.15A1.57,1.57,0,0,1,3.64,42a2.55,2.55,0,0,1,.47,1.63,2.52,2.52,0,0,1-.48,1.64A1.56,1.56,0,0,1,2.33,45.8Zm-.1-3.88a1.14,1.14,0,0,0-.94.36A1.87,1.87,0,0,0,1,43.44v.14a2.07,2.07,0,0,0,.31,1.29,1.13,1.13,0,0,0,1,.39,1,1,0,0,0,.87-.45,2.13,2.13,0,0,0,.31-1.24,2.07,2.07,0,0,0-.31-1.23A1.05,1.05,0,0,0,2.23,41.92Z"/><path class="cls-1" d="M5.89,45.73H5.24V39.65h.65Z"/><path class="cls-1" d="M9.89,45.73l-.12-.61h0a1.78,1.78,0,0,1-.63.54,1.91,1.91,0,0,1-.8.14,1.48,1.48,0,0,1-1-.32,1.21,1.21,0,0,1-.36-.94c0-.86.69-1.32,2.08-1.36l.72,0v-.27a1.11,1.11,0,0,0-.21-.74.91.91,0,0,0-.7-.24,2.83,2.83,0,0,0-1.21.33l-.2-.5a3.4,3.4,0,0,1,.7-.27,3.22,3.22,0,0,1,.75-.1,1.69,1.69,0,0,1,1.14.34,1.45,1.45,0,0,1,.37,1.09v2.93Zm-1.46-.46a1.32,1.32,0,0,0,1-.33A1.26,1.26,0,0,0,9.73,44v-.39l-.65,0A2.42,2.42,0,0,0,8,43.89a.73.73,0,0,0-.34.66.66.66,0,0,0,.21.53A.86.86,0,0,0,8.43,45.27Z"/><path class="cls-1" d="M14.64,45.73V43a1.15,1.15,0,0,0-.24-.79,1,1,0,0,0-.74-.25,1.25,1.25,0,0,0-1,.36,1.82,1.82,0,0,0-.31,1.2v2.25h-.65V41.44h.53l.1.59h0a1.31,1.31,0,0,1,.55-.49,1.77,1.77,0,0,1,.8-.17,1.63,1.63,0,0,1,1.17.37,1.59,1.59,0,0,1,.39,1.19v2.8Z"/><path class="cls-1" d="M18,45.27a1.87,1.87,0,0,0,.34,0l.25-.05v.5a1.23,1.23,0,0,1-.31.08l-.37,0c-.83,0-1.24-.43-1.24-1.31V42h-.62v-.31l.62-.27.27-.92h.38v1h1.24V42H17.32v2.52a.87.87,0,0,0,.18.59A.63.63,0,0,0,18,45.27Z"/><path class="cls-1" d="M21.25,45.8a2,2,0,0,1-1.49-.57,2.25,2.25,0,0,1-.55-1.61A2.46,2.46,0,0,1,19.72,42a1.68,1.68,0,0,1,1.37-.61,1.59,1.59,0,0,1,1.27.53,2,2,0,0,1,.47,1.39v.41H19.88a1.71,1.71,0,0,0,.38,1.15,1.32,1.32,0,0,0,1,.39A3.46,3.46,0,0,0,22.64,45v.58a3.5,3.5,0,0,1-.65.21A3.88,3.88,0,0,1,21.25,45.8Zm-.17-3.89a1,1,0,0,0-.82.33,1.57,1.57,0,0,0-.37.93h2.24a1.41,1.41,0,0,0-.27-.93A1,1,0,0,0,21.08,41.91Z"/><path class="cls-1" d="M26.85,45.15h0a1.5,1.5,0,0,1-1.34.65,1.6,1.6,0,0,1-1.31-.57,2.53,2.53,0,0,1-.46-1.63A2.59,2.59,0,0,1,24.16,42a1.59,1.59,0,0,1,1.31-.58A1.54,1.54,0,0,1,26.8,42h.06l0-.31,0-.3V39.65h.65v6.08h-.53Zm-1.3.11a1.18,1.18,0,0,0,1-.36,1.82,1.82,0,0,0,.3-1.17V43.6a2.16,2.16,0,0,0-.3-1.3,1.14,1.14,0,0,0-1-.39,1,1,0,0,0-.87.44,2.24,2.24,0,0,0-.3,1.25,2.12,2.12,0,0,0,.3,1.24A1,1,0,0,0,25.55,45.26Z"/><path class="cls-1" d="M3,7.17,1,2.1H1c0,.41.06.88.06,1.43V7.17H.43V1.46h1L3.24,6.17h0L5.1,1.46h1V7.17H5.43V3.49c0-.42,0-.88.05-1.38h0L3.5,7.17Z"/><path class="cls-1" d="M11.25,5a2.37,2.37,0,0,1-.52,1.64,1.86,1.86,0,0,1-1.46.58,2,2,0,0,1-1-.26,1.75,1.75,0,0,1-.69-.78A2.7,2.7,0,0,1,7.32,5a2.4,2.4,0,0,1,.52-1.63A1.86,1.86,0,0,1,9.3,2.81a1.81,1.81,0,0,1,1.42.59A2.33,2.33,0,0,1,11.25,5ZM8,5a2,2,0,0,0,.33,1.25,1.13,1.13,0,0,0,1,.43,1.13,1.13,0,0,0,1-.43A2,2,0,0,0,10.58,5a2,2,0,0,0-.33-1.24,1.15,1.15,0,0,0-1-.42,1.12,1.12,0,0,0-1,.42A2,2,0,0,0,8,5Z"/><path class="cls-1" d="M14.34,2.81a2.82,2.82,0,0,1,.52,0l-.09.61a2.23,2.23,0,0,0-.47-.06,1.13,1.13,0,0,0-.89.42A1.51,1.51,0,0,0,13,4.87v2.3h-.65V2.89h.54l.07.79h0A1.94,1.94,0,0,1,13.61,3,1.28,1.28,0,0,1,14.34,2.81Z"/><path class="cls-1" d="M17.46,7.24A2,2,0,0,1,16,6.67a2.23,2.23,0,0,1-.55-1.61,2.46,2.46,0,0,1,.51-1.64,1.68,1.68,0,0,1,1.37-.61,1.59,1.59,0,0,1,1.27.53A2,2,0,0,1,19,4.73v.41H16.09a1.69,1.69,0,0,0,.38,1.15,1.32,1.32,0,0,0,1,.39,3.51,3.51,0,0,0,1.37-.29V7a3.25,3.25,0,0,1-.65.21A4.06,4.06,0,0,1,17.46,7.24Zm-.17-3.89a1,1,0,0,0-.82.34,1.46,1.46,0,0,0-.36.93h2.23a1.42,1.42,0,0,0-.27-.94A1,1,0,0,0,17.29,3.35Z"/><path class="cls-1" d="M23.61,6.71l.33,0,.25,0v.5a1.23,1.23,0,0,1-.31.08l-.37,0c-.83,0-1.24-.43-1.24-1.3V3.39h-.61V3.08l.61-.27.27-.92h.38v1h1.24v.5H22.92V5.91a.87.87,0,0,0,.18.59A.64.64,0,0,0,23.61,6.71Z"/><path class="cls-1" d="M28,7.17V4.4a1.1,1.1,0,0,0-.24-.78A1,1,0,0,0,27,3.36a1.18,1.18,0,0,0-1,.37,1.82,1.82,0,0,0-.31,1.2V7.17h-.65V1.09h.65V2.93a4,4,0,0,1,0,.55h0A1.31,1.31,0,0,1,26.25,3a1.71,1.71,0,0,1,.8-.17,1.64,1.64,0,0,1,1.18.37,1.57,1.57,0,0,1,.4,1.18v2.8Z"/><path class="cls-1" d="M32.59,7.17l-.13-.61h0a1.71,1.71,0,0,1-.64.54,1.86,1.86,0,0,1-.79.14,1.42,1.42,0,0,1-1-.32A1.21,1.21,0,0,1,29.64,6c0-.86.69-1.31,2.07-1.36l.73,0V4.33a1.06,1.06,0,0,0-.22-.74.89.89,0,0,0-.69-.24,2.8,2.8,0,0,0-1.21.33l-.2-.5a3.54,3.54,0,0,1,.69-.27,3.22,3.22,0,0,1,.76-.09,1.64,1.64,0,0,1,1.13.33,1.41,1.41,0,0,1,.37,1.09V7.17Zm-1.46-.46a1.32,1.32,0,0,0,.95-.33,1.22,1.22,0,0,0,.34-.93V5.06l-.65,0a2.41,2.41,0,0,0-1.11.24.71.71,0,0,0-.34.66.69.69,0,0,0,.21.54A.9.9,0,0,0,31.13,6.71Z"/><path class="cls-1" d="M37.34,7.17V4.4a1.1,1.1,0,0,0-.24-.78,1,1,0,0,0-.75-.26,1.23,1.23,0,0,0-1,.36,1.81,1.81,0,0,0-.32,1.2V7.17h-.64V2.89h.52l.11.58h0A1.34,1.34,0,0,1,35.63,3a1.77,1.77,0,0,1,.8-.17,1.6,1.6,0,0,1,1.16.37A1.59,1.59,0,0,1,38,4.37v2.8Z"/><path class="cls-2" d="M11.13,15.06a4.09,4.09,0,0,1-1,2.8,4.81,4.81,0,0,1-2.71,1.45v.09a5.11,5.11,0,0,1,3.18,1.37,4,4,0,0,1,1,2.88,4.69,4.69,0,0,1-1.77,3.93,8.07,8.07,0,0,1-5,1.37,14.76,14.76,0,0,1-2.59-.21A8.66,8.66,0,0,1,0,28V26.06a11.3,11.3,0,0,0,2.47.87,11.19,11.19,0,0,0,2.49.3q4.62,0,4.62-3.63,0-3.24-5.1-3.24H2.72V18.61H4.5a5.38,5.38,0,0,0,3.31-.92A3,3,0,0,0,9,15.13a2.54,2.54,0,0,0-.89-2.05,3.74,3.74,0,0,0-2.44-.74,7.57,7.57,0,0,0-2.21.31,10.37,10.37,0,0,0-2.37,1.18l-1-1.37A8.41,8.41,0,0,1,2.63,11.1a9.2,9.2,0,0,1,3-.5,6.18,6.18,0,0,1,4,1.19A4,4,0,0,1,11.13,15.06Z"/><path class="cls-2" d="M15,27.41a1.87,1.87,0,0,1,.37-1.24,1.36,1.36,0,0,1,1.07-.42,1.47,1.47,0,0,1,1.11.42,1.77,1.77,0,0,1,.39,1.24,1.69,1.69,0,0,1-.4,1.22,1.42,1.42,0,0,1-1.1.43,1.47,1.47,0,0,1-1-.38A1.7,1.7,0,0,1,15,27.41Z"/><path class="cls-2" d="M33.59,24.61H30.94v4.1H29v-4.1H20.32V22.84l8.47-12.08h2.15v12h2.65ZM29,22.76V16.83c0-1.16,0-2.48.13-3.94H29a18.36,18.36,0,0,1-1.1,1.94l-5.58,7.93Z"/><path class="cls-2" d="M44.45,28.71,38.39,12.89h-.1c.12,1.25.17,2.74.17,4.46V28.71H36.55V10.86h3.12l5.65,14.72h.1l5.7-14.72h3.1V28.71H52.15V17.21c0-1.32.06-2.75.17-4.3h-.1l-6.1,15.8Z"/></g></svg>