<svg xmlns="http://www.w3.org/2000/svg" viewBox="0 0 899.31 105.01"><defs><style>.cls-1{fill:#488e41;}.cls-2{fill:#fff;}.cls-3{fill:#010201;}</style></defs><g id="Economic_Opportunities_Image" data-name="Economic Opportunities Image"><path class="cls-1" d="M304.7,103.48h-2a100.75,100.75,0,0,0-201.49,0h-2a102.75,102.75,0,0,1,205.49,0Z"/><path class="cls-2" d="M252.87,83.41c.28-2.43,1-4.56,1-7.06,6,1.39,8.63,6.32,8.45,12.06-1.38.26-4.27.78-5.65.41A4.92,4.92,0,0,1,252.87,83.41Z"/><path class="cls-1" d="M257.9,89.45a5.72,5.72,0,0,1-1.39-.14,5.44,5.44,0,0,1-4.13-6c.1-.94.28-1.83.45-2.69a18.2,18.2,0,0,0,.51-4.3l0-.65.63.14c5.74,1.32,9,6,8.84,12.57v.4l-.4.07A25.64,25.64,0,0,1,257.9,89.45ZM254.34,77a21.75,21.75,0,0,1-.53,3.87c-.16.84-.34,1.71-.44,2.6h0a4.41,4.41,0,0,0,3.4,4.87,14.35,14.35,0,0,0,5-.34C261.85,82.32,259.15,78.36,254.34,77Z"/><path class="cls-3" d="M257.89,89.14a5.13,5.13,0,0,1-5.2-5.75c.1-.92.28-1.8.45-2.65a18.74,18.74,0,0,0,.51-4.38.19.19,0,0,1,.23-.19c5.67,1.3,8.8,5.76,8.6,12.25a.2.2,0,0,1-.15.18A26.7,26.7,0,0,1,257.89,89.14ZM254,76.59a19.73,19.73,0,0,1-.53,4.22c-.16.85-.34,1.72-.44,2.62a4.7,4.7,0,0,0,3.62,5.21,5,5,0,0,0,1.21.12,25.92,25.92,0,0,0,4.22-.5C262.25,82.14,259.32,77.91,254,76.59Z"/><path class="cls-1" d="M257.89,89.64a5.75,5.75,0,0,1-1.43-.15,5.63,5.63,0,0,1-4.27-6.16c.11-.94.29-1.83.46-2.69a19,19,0,0,0,.51-4.27.65.65,0,0,1,.25-.55.67.67,0,0,1,.59-.14c5.91,1.36,9.19,6,9,12.76a.69.69,0,0,1-.57.65A27.27,27.27,0,0,1,257.89,89.64Zm-3.37-12.4a23.08,23.08,0,0,1-.52,3.65c-.18.89-.35,1.74-.44,2.6a4.22,4.22,0,0,0,3.25,4.67,4.44,4.44,0,0,0,1.08.1,22.49,22.49,0,0,0,3.72-.42C261.61,82.45,259.05,78.63,254.52,77.24Z"/><path class="cls-2" d="M262.29,88.41S256,87,255.4,81.05"/><path class="cls-1" d="M262.18,88.9c-.07,0-6.71-1.57-7.28-7.8l1-.09c.5,5.51,6.44,6.9,6.5,6.91Z"/><path class="cls-3" d="M262.29,88.6h0c-.07,0-6.48-1.52-7-7.52a.19.19,0,0,1,.37,0c.52,5.73,6.68,7.18,6.74,7.19a.18.18,0,0,1,.14.22A.18.18,0,0,1,262.29,88.6Z"/><path class="cls-1" d="M262.29,89.1l-.18,0s-6.81-1.59-7.39-8a.66.66,0,0,1,.16-.5.67.67,0,0,1,.46-.24.66.66,0,0,1,.5.15.73.73,0,0,1,.25.47c.49,5.35,6.29,6.74,6.35,6.75a.69.69,0,0,1-.15,1.36Zm-7.2-8Zm.62-.06h0Z"/><path class="cls-2" d="M269.59,91.68a31.56,31.56,0,0,1,1.19-4.76c-4.21-.67-7.13,1.82-8.49,5.53a11.85,11.85,0,0,0,3.5,1.71A3.39,3.39,0,0,0,269.59,91.68Z"/><path class="cls-1" d="M266.27,94.69l-.54,0A11.75,11.75,0,0,1,262,92.87l-.34-.22.14-.37c1.58-4.31,5-6.5,9-5.85l.64.1-.26.59a13.08,13.08,0,0,0-.77,2.85c-.11.6-.23,1.22-.4,1.84h0A3.87,3.87,0,0,1,266.27,94.69Zm-3.37-2.44a9.47,9.47,0,0,0,3,1.42,2.9,2.9,0,0,0,3.25-2.13c.16-.58.27-1.18.38-1.75a16.42,16.42,0,0,1,.59-2.45C266.87,87.07,264.29,88.83,262.9,92.25Z"/><path class="cls-3" d="M266.28,94.38h0a4.36,4.36,0,0,1-.51,0,11.62,11.62,0,0,1-3.58-1.74.19.19,0,0,1-.08-.23c1.53-4.14,4.77-6.27,8.7-5.64a.19.19,0,0,1,.14.09.17.17,0,0,1,0,.17,13,13,0,0,0-.79,2.92c-.11.58-.22,1.19-.39,1.81A3.55,3.55,0,0,1,266.28,94.38Zm-3.76-2a11.25,11.25,0,0,0,3.3,1.61,3.55,3.55,0,0,0,.46,0h0a3.18,3.18,0,0,0,3.13-2.38c.16-.6.28-1.2.38-1.78a14.65,14.65,0,0,1,.73-2.78C266.91,86.6,264,88.57,262.52,92.37Z"/><path class="cls-1" d="M266.28,94.88a5.44,5.44,0,0,1-.57,0A11.62,11.62,0,0,1,261.92,93a.69.69,0,0,1-.28-.81c1.62-4.41,5.08-6.64,9.25-6a.68.68,0,0,1,.5.35.67.67,0,0,1,0,.6,13.13,13.13,0,0,0-.76,2.81c-.1.57-.23,1.21-.4,1.85A4,4,0,0,1,266.28,94.88Zm-3.14-2.71a8,8,0,0,0,2.74,1.31,2.7,2.7,0,0,0,3-2c.16-.57.27-1.13.38-1.75a18.6,18.6,0,0,1,.53-2.24C266.87,87.38,264.46,89,263.14,92.17Z"/><path class="cls-2" d="M262.29,92.45s4.41.72,6.29-2.93"/><path class="cls-1" d="M263.15,93a6.84,6.84,0,0,1-.94-.06l.16-1c.17,0,4.08.61,5.76-2.67l.89.46A6.31,6.31,0,0,1,263.15,93Z"/><path class="cls-3" d="M263.16,92.69a4.85,4.85,0,0,1-.9-.06.18.18,0,1,1,.06-.36s4.3.65,6.09-2.83a.18.18,0,0,1,.25-.08.19.19,0,0,1,.09.25A6,6,0,0,1,263.16,92.69Z"/><path class="cls-1" d="M263.16,93.19a7,7,0,0,1-1-.06.7.7,0,0,1-.47-.28.67.67,0,0,1-.12-.51.68.68,0,0,1,.28-.45.67.67,0,0,1,.51-.12s4,.58,5.57-2.56a.62.62,0,0,1,.4-.34.7.7,0,0,1,.53,0,.75.75,0,0,1,.33.39.7.7,0,0,1,0,.53A6.48,6.48,0,0,1,263.16,93.19Zm-.93-.43h0Zm6.63-3.1Z"/><path class="cls-2" d="M270.39,103.84l-2.94-3.08a1.77,1.77,0,0,0,.19-.79,1.82,1.82,0,0,0-1.82-1.82,1.72,1.72,0,0,0-.72.15L264,97.17a2.36,2.36,0,0,0-3.42,0l-1.54,1.61a1.34,1.34,0,0,0-.35,0,1.24,1.24,0,0,0-1.24,1.24,1.34,1.34,0,0,0,.07.4l-3.31,3.47c-.94,1-.6,1.79.77,1.79h14.63C271,105.63,271.33,104.83,270.39,103.84Z"/><path class="cls-1" d="M269.63,106.13H255c-1.18,0-1.58-.52-1.71-.83s-.23-1,.58-1.8l3.12-3.28a2.11,2.11,0,0,1,0-.25,1.74,1.74,0,0,1,1.74-1.74h.18l1.35-1.41a2.82,2.82,0,0,1,2.07-.9h0a2.82,2.82,0,0,1,2.07.9l.86.89a2.25,2.25,0,0,1,.58-.07,2.3,2.3,0,0,1,2.21,3l2.72,2.85c.82.85.72,1.49.58,1.8S270.8,106.13,269.63,106.13Zm-10.92-6.9a.74.74,0,0,0-.74.74.79.79,0,0,0,0,.24l.09.29-3.52,3.69c-.35.37-.42.63-.38.72s.28.22.79.22h14.63c.5,0,.74-.13.78-.22s0-.35-.38-.72h0l-3.18-3.34.15-.31a1.3,1.3,0,0,0-1.18-1.89,1.16,1.16,0,0,0-.52.11l-.32.14-1.32-1.38a1.85,1.85,0,0,0-1.35-.59h0a1.85,1.85,0,0,0-1.35.59l-1.75,1.83-.29-.09Z"/><path class="cls-3" d="M269.63,105.82H255c-.74,0-1.25-.23-1.42-.64s0-.93.51-1.47l3.24-3.39a1.48,1.48,0,0,1-.05-.35,1.43,1.43,0,0,1,1.43-1.43l.29,0L260.46,97a2.56,2.56,0,0,1,3.7,0l1,1a1.89,1.89,0,0,1,.67-.12,2,2,0,0,1,2,2,2,2,0,0,1-.16.75l2.86,3c.51.54.69,1.06.52,1.47S270.36,105.82,269.63,105.82Zm-10.92-6.91a1.05,1.05,0,0,0-1,1.4.19.19,0,0,1,0,.19L254.37,104c-.4.41-.56.8-.45,1.06s.51.42,1.08.42h14.63c.57,0,1-.15,1.07-.42s-.05-.65-.44-1.06l-2.94-3.08a.19.19,0,0,1,0-.21,1.62,1.62,0,0,0-2.11-2.21.2.2,0,0,1-.21,0l-1.07-1.13a2.18,2.18,0,0,0-3.16,0l-1.53,1.61a.19.19,0,0,1-.19,0A1.17,1.17,0,0,0,258.71,98.91Z"/><path class="cls-1" d="M269.63,106.32H255c-1.28,0-1.73-.59-1.88-.94s-.27-1.08.61-2l3.06-3.21c0-.06,0-.13,0-.19a1.93,1.93,0,0,1,2-1.93l1.28-1.34a3.11,3.11,0,0,1,4.42,0l.78.82a2.31,2.31,0,0,1,.52-.06,2.52,2.52,0,0,1,2.51,2.51,2.28,2.28,0,0,1-.09.63l2.65,2.77c.89.92.77,1.65.62,2S270.91,106.32,269.63,106.32Zm-15.24-1.46a1.62,1.62,0,0,0,.61.09h14.63a1,1,0,0,0,.62-.13,1.79,1.79,0,0,0-.36-.51L267,101.23a.68.68,0,0,1-.11-.78A1.16,1.16,0,0,0,267,100a1.15,1.15,0,0,0-1.57-1,.7.7,0,0,1-.77-.15l-1.08-1.13a1.7,1.7,0,0,0-2.43,0l-1.54,1.61a.69.69,0,0,1-.68.18l-.17,0a.56.56,0,0,0-.55.56.74.74,0,0,0,0,.18.65.65,0,0,1-.16.7l-3.3,3.47c-.29.3-.35.49-.34.54Z"/><path class="cls-3" d="M262.3,96.62a.19.19,0,0,1-.19-.19V88.24a.19.19,0,1,1,.38,0v8.19A.19.19,0,0,1,262.3,96.62Z"/><path class="cls-1" d="M262.3,97.12a.69.69,0,0,1-.69-.69V88.24a.69.69,0,1,1,1.38,0v8.19A.69.69,0,0,1,262.3,97.12Z"/><path class="cls-2" d="M180.33,83.41c.27-2.43,1-4.56,1-7.06,6.05,1.39,8.63,6.32,8.45,12.06-1.38.26-4.27.78-5.65.41A4.9,4.9,0,0,1,180.33,83.41Z"/><path class="cls-1" d="M185.36,89.45a5.81,5.81,0,0,1-1.4-.14,5.44,5.44,0,0,1-4.13-6h0c.11-.94.28-1.82.45-2.68a18.34,18.34,0,0,0,.51-4.31l0-.65.64.14c5.73,1.32,9,6,8.83,12.57v.4l-.39.07A25.76,25.76,0,0,1,185.36,89.45ZM181.8,77a22.7,22.7,0,0,1-.54,3.87c-.16.84-.33,1.71-.44,2.6h0a4.41,4.41,0,0,0,3.4,4.87,14.35,14.35,0,0,0,5-.34C189.3,82.32,186.61,78.36,181.8,77Z"/><path class="cls-3" d="M185.35,89.14A5.18,5.18,0,0,1,184,89a5.13,5.13,0,0,1-3.9-5.61c.11-.92.28-1.8.45-2.65a18.75,18.75,0,0,0,.52-4.38.17.17,0,0,1,.07-.15.18.18,0,0,1,.16,0c5.66,1.3,8.79,5.76,8.59,12.25a.18.18,0,0,1-.15.18A26.71,26.71,0,0,1,185.35,89.14Zm-3.86-12.55a21.08,21.08,0,0,1-.53,4.22c-.17.85-.34,1.72-.45,2.62a4.71,4.71,0,0,0,3.63,5.21,4.91,4.91,0,0,0,1.21.12,25.93,25.93,0,0,0,4.21-.5C189.7,82.14,186.77,77.91,181.49,76.59Z"/><path class="cls-1" d="M185.35,89.64a5.78,5.78,0,0,1-1.44-.15,5.64,5.64,0,0,1-4.27-6.16c.11-.93.29-1.83.46-2.69a18.48,18.48,0,0,0,.51-4.27.69.69,0,0,1,.84-.69c5.92,1.36,9.19,6,9,12.76a.69.69,0,0,1-.57.65A27.27,27.27,0,0,1,185.35,89.64ZM182,77.24a24.15,24.15,0,0,1-.53,3.64c-.18.9-.34,1.75-.44,2.61a4.23,4.23,0,0,0,3.26,4.67,14.13,14.13,0,0,0,4.79-.32C189.06,82.45,186.5,78.63,182,77.24Z"/><path class="cls-2" d="M189.74,88.41s-6.34-1.42-6.88-7.36"/><path class="cls-1" d="M189.63,88.9c-.06,0-6.7-1.57-7.27-7.8l1-.09c.51,5.49,6.26,6.86,6.5,6.92Z"/><path class="cls-3" d="M189.74,88.6h0c-.06,0-6.48-1.52-7-7.52a.19.19,0,0,1,.17-.2.18.18,0,0,1,.2.17c.52,5.73,6.68,7.18,6.74,7.19a.18.18,0,0,1,.15.22A.19.19,0,0,1,189.74,88.6Z"/><path class="cls-1" d="M189.74,89.1l-.18,0s-6.81-1.59-7.39-8a.66.66,0,0,1,.16-.5.69.69,0,0,1,.46-.24.65.65,0,0,1,.5.15.73.73,0,0,1,.25.47c.49,5.35,6.29,6.74,6.35,6.75a.69.69,0,0,1-.15,1.36ZM183.17,81Z"/><path class="cls-2" d="M197,91.68a31.59,31.59,0,0,1,1.2-4.76c-4.22-.67-7.13,1.82-8.5,5.53a11.91,11.91,0,0,0,3.51,1.71A3.38,3.38,0,0,0,197,91.68Z"/><path class="cls-1" d="M193.73,94.69a4.89,4.89,0,0,1-.54,0,11.79,11.79,0,0,1-3.72-1.79l-.33-.22.13-.37c1.58-4.31,5-6.5,9-5.85l.65.1-.27.59a13.08,13.08,0,0,0-.77,2.85c-.11.6-.23,1.22-.4,1.84h0A3.85,3.85,0,0,1,193.73,94.69Zm-3.37-2.44a9.46,9.46,0,0,0,2.95,1.42,2.88,2.88,0,0,0,3.25-2.13c.16-.58.27-1.18.38-1.75a16.42,16.42,0,0,1,.59-2.45C194.32,87.07,191.74,88.83,190.36,92.25Z"/><path class="cls-3" d="M193.73,94.38h0a4.36,4.36,0,0,1-.51,0,11.62,11.62,0,0,1-3.58-1.74.2.2,0,0,1-.07-.23c1.52-4.14,4.76-6.27,8.7-5.64a.2.2,0,0,1,.13.09.2.2,0,0,1,0,.17,12,12,0,0,0-.79,2.92c-.12.58-.23,1.19-.4,1.81A3.55,3.55,0,0,1,193.73,94.38Zm-3.76-2a11.25,11.25,0,0,0,3.3,1.61,3.55,3.55,0,0,0,.46,0h0a3.18,3.18,0,0,0,3.13-2.38c.16-.6.28-1.2.39-1.78a14.61,14.61,0,0,1,.72-2.78C194.36,86.6,191.42,88.57,190,92.37Z"/><path class="cls-1" d="M193.73,94.88a5.44,5.44,0,0,1-.57,0A11.62,11.62,0,0,1,189.37,93a.69.69,0,0,1-.28-.81c1.62-4.41,5.08-6.64,9.25-6a.68.68,0,0,1,.5.35.67.67,0,0,1,0,.6,12.55,12.55,0,0,0-.75,2.81c-.12.6-.23,1.22-.41,1.85A4,4,0,0,1,193.73,94.88Zm-3.14-2.71a8,8,0,0,0,2.74,1.31,2.72,2.72,0,0,0,3-2c.15-.57.26-1.13.38-1.75a19,19,0,0,1,.52-2.24C194.32,87.38,191.92,89,190.59,92.17Z"/><path class="cls-2" d="M189.74,92.45s4.42.72,6.29-2.93"/><path class="cls-1" d="M190.6,93a7,7,0,0,1-.94-.06l.16-1c.17,0,4.08.61,5.77-2.67l.89.46A6.33,6.33,0,0,1,190.6,93Z"/><path class="cls-3" d="M190.61,92.69a4.85,4.85,0,0,1-.9-.06.18.18,0,0,1,.06-.36s4.31.65,6.09-2.83a.19.19,0,0,1,.26-.08.19.19,0,0,1,.08.25A6,6,0,0,1,190.61,92.69Z"/><path class="cls-1" d="M190.61,93.19a6.75,6.75,0,0,1-1-.06.7.7,0,0,1-.48-.28.71.71,0,0,1-.12-.51.74.74,0,0,1,.28-.45.68.68,0,0,1,.52-.12s3.95.58,5.56-2.56a.64.64,0,0,1,.4-.34.69.69,0,0,1,.53,0,.71.71,0,0,1,.33.39.7.7,0,0,1,0,.53A6.5,6.5,0,0,1,190.61,93.19Zm-.92-.43Zm6.62-3.1Z"/><path class="cls-2" d="M197.84,103.84l-2.94-3.08a1.77,1.77,0,0,0,.19-.79,1.81,1.81,0,0,0-1.82-1.82,1.75,1.75,0,0,0-.72.15l-1.07-1.13a2.37,2.37,0,0,0-3.43,0l-1.54,1.61a1.29,1.29,0,0,0-.35,0,1.24,1.24,0,0,0-1.24,1.24,1.1,1.1,0,0,0,.08.4l-3.32,3.47c-.94,1-.59,1.79.77,1.79h14.63C198.44,105.63,198.79,104.83,197.84,103.84Z"/><path class="cls-1" d="M197.08,106.13H182.45c-1.18,0-1.58-.52-1.71-.83s-.23-1,.58-1.8l3.13-3.27a1.22,1.22,0,0,1,0-.26,1.74,1.74,0,0,1,1.74-1.74h.18l1.35-1.41a2.91,2.91,0,0,1,4.15,0l.85.89a2.25,2.25,0,0,1,.58-.07,2.32,2.32,0,0,1,2.32,2.32,2.29,2.29,0,0,1-.1.68l2.72,2.85c.81.85.71,1.49.58,1.8S198.25,106.13,197.08,106.13Zm-10.92-6.9a.74.74,0,0,0-.74.74.86.86,0,0,0,.05.24l.1.29L182,104.19c-.35.37-.42.63-.38.72s.28.22.79.22h14.63c.51,0,.75-.13.79-.22s0-.35-.39-.72h0l-3.18-3.34.15-.31a1.3,1.3,0,0,0-1.18-1.89,1.19,1.19,0,0,0-.52.11l-.32.14-1.32-1.38a1.88,1.88,0,0,0-2.7,0l-1.74,1.83-.3-.09Z"/><path class="cls-3" d="M197.08,105.82H182.45c-.74,0-1.24-.23-1.42-.64s0-.93.52-1.47l3.24-3.39a1.1,1.1,0,0,1,0-.35,1.42,1.42,0,0,1,1.71-1.4L187.92,97a2.55,2.55,0,0,1,3.69,0l1,1a1.93,1.93,0,0,1,.67-.12,2,2,0,0,1,2,2,1.81,1.81,0,0,1-.16.75l2.86,3c.51.54.69,1.06.52,1.47S197.82,105.82,197.08,105.82Zm-10.92-6.91a1.05,1.05,0,0,0-1,1.4.17.17,0,0,1,0,.19L181.82,104c-.4.41-.56.8-.45,1.06s.51.42,1.08.42h14.63c.57,0,1-.15,1.07-.42s-.05-.65-.44-1.06l-2.94-3.08a.17.17,0,0,1,0-.21,1.63,1.63,0,0,0-1.47-2.35,1.57,1.57,0,0,0-.64.14.2.2,0,0,1-.21,0l-1.08-1.13a2.16,2.16,0,0,0-3.15,0l-1.54,1.61a.19.19,0,0,1-.19,0A1.11,1.11,0,0,0,186.16,98.91Z"/><path class="cls-1" d="M197.08,106.32H182.45c-1.28,0-1.73-.59-1.88-.94s-.27-1.08.62-2l3.06-3.21a1.21,1.21,0,0,1,0-.19,1.92,1.92,0,0,1,2-1.93l1.28-1.34a3.11,3.11,0,0,1,4.42,0l.78.82a2.31,2.31,0,0,1,.52-.06,2.52,2.52,0,0,1,2.51,2.51,2.28,2.28,0,0,1-.09.63l2.65,2.77c.89.92.77,1.66.62,2S198.36,106.32,197.08,106.32Zm-15.24-1.46a1.75,1.75,0,0,0,.61.09h14.63a1,1,0,0,0,.62-.13,1.6,1.6,0,0,0-.35-.51l-2.94-3.08a.68.68,0,0,1-.12-.78,1,1,0,0,0,.12-.48,1.16,1.16,0,0,0-1.58-1,.7.7,0,0,1-.77-.15L191,97.65a1.7,1.7,0,0,0-2.43,0L187,99.26a.68.68,0,0,1-.68.18l-.17,0a.56.56,0,0,0-.55.56.45.45,0,0,0,0,.18.7.7,0,0,1-.16.7l-3.31,3.47c-.29.3-.34.49-.34.54Z"/><path class="cls-3" d="M189.75,96.62a.18.18,0,0,1-.18-.19V88.24a.19.19,0,1,1,.37,0v8.19A.18.18,0,0,1,189.75,96.62Z"/><path class="cls-1" d="M189.75,97.12a.68.68,0,0,1-.68-.69V88.24a.68.68,0,0,1,.68-.69.69.69,0,0,1,.69.69v8.19A.69.69,0,0,1,189.75,97.12Z"/><path class="cls-2" d="M215.36,83c.28-2.43,1-4.56,1-7.06,6,1.39,8.63,6.32,8.45,12.06-1.38.27-4.27.78-5.65.41A4.92,4.92,0,0,1,215.36,83Z"/><path class="cls-1" d="M220.39,89.05a5.67,5.67,0,0,1-1.39-.14,5.44,5.44,0,0,1-4.13-6h0c.1-.93.28-1.82.45-2.68a18.34,18.34,0,0,0,.51-4.31l0-.65.63.14c5.74,1.32,9,6,8.84,12.57v.4l-.4.07A25.64,25.64,0,0,1,220.39,89.05ZM216.83,76.6a21.75,21.75,0,0,1-.53,3.87c-.17.84-.34,1.71-.44,2.6h0a4.4,4.4,0,0,0,3.39,4.87,14.41,14.41,0,0,0,5-.34C224.34,81.92,221.64,78,216.83,76.6Z"/><path class="cls-3" d="M220.38,88.74a5.13,5.13,0,0,1-5.2-5.75c.1-.92.28-1.8.45-2.65a18.74,18.74,0,0,0,.51-4.38.19.19,0,0,1,.23-.19c5.66,1.3,8.8,5.77,8.6,12.25a.2.2,0,0,1-.16.18A26.45,26.45,0,0,1,220.38,88.74Zm-3.86-12.55a19.73,19.73,0,0,1-.53,4.22c-.16.85-.34,1.72-.44,2.62a4.7,4.7,0,0,0,3.62,5.21,4.91,4.91,0,0,0,1.21.12,26,26,0,0,0,4.22-.5C224.74,81.74,221.8,77.51,216.52,76.19Z"/><path class="cls-1" d="M220.38,89.24a5.7,5.7,0,0,1-1.43-.15,5.63,5.63,0,0,1-4.27-6.16c.11-.93.28-1.82.45-2.69a18,18,0,0,0,.51-4.27.71.71,0,0,1,.25-.55.7.7,0,0,1,.6-.14c5.91,1.36,9.18,6,9,12.76a.7.7,0,0,1-.57.65A27.27,27.27,0,0,1,220.38,89.24ZM217,76.85a23,23,0,0,1-.52,3.63c-.18.9-.35,1.75-.45,2.61a4.23,4.23,0,0,0,3.26,4.67,14.18,14.18,0,0,0,4.8-.32C224.1,82.05,221.54,78.23,217,76.85Z"/><path class="cls-2" d="M224.78,88s-6.35-1.42-6.89-7.36"/><path class="cls-1" d="M224.67,88.5c-.07,0-6.71-1.57-7.28-7.8l1-.09c.5,5.5,6.25,6.86,6.5,6.92Z"/><path class="cls-3" d="M224.78,88.2h0c-.07,0-6.49-1.53-7-7.53a.18.18,0,0,1,.16-.2.19.19,0,0,1,.21.17c.52,5.73,6.68,7.18,6.74,7.19a.19.19,0,0,1,.14.23A.19.19,0,0,1,224.78,88.2Z"/><path class="cls-1" d="M224.78,88.7l-.18,0s-6.81-1.59-7.39-8a.7.7,0,0,1,.15-.51.7.7,0,0,1,1-.09.73.73,0,0,1,.25.47c.48,5.35,6.29,6.74,6.35,6.75a.69.69,0,0,1-.15,1.36Zm-6.58-8.08Z"/><path class="cls-2" d="M232.08,91.28a31.86,31.86,0,0,1,1.19-4.76c-4.21-.67-7.13,1.82-8.49,5.53a11.73,11.73,0,0,0,3.5,1.71A3.38,3.38,0,0,0,232.08,91.28Z"/><path class="cls-1" d="M228.76,94.29a4.89,4.89,0,0,1-.54,0,11.65,11.65,0,0,1-3.71-1.79l-.34-.21.14-.38c1.58-4.31,5-6.5,9-5.85l.64.1-.26.59a12.48,12.48,0,0,0-.77,2.86c-.11.59-.23,1.21-.4,1.83h0A3.87,3.87,0,0,1,228.76,94.29Zm-3.37-2.44a9.46,9.46,0,0,0,3,1.42,2.88,2.88,0,0,0,3.25-2.12c.16-.59.28-1.18.38-1.76a16.48,16.48,0,0,1,.6-2.45C229.35,86.68,226.77,88.44,225.39,91.85Z"/><path class="cls-3" d="M228.76,94h0l-.5,0a11.51,11.51,0,0,1-3.58-1.74.18.18,0,0,1-.08-.22c1.53-4.15,4.77-6.28,8.7-5.65a.19.19,0,0,1,.14.09.2.2,0,0,1,0,.17,13,13,0,0,0-.79,2.92c-.11.59-.23,1.19-.39,1.81A3.55,3.55,0,0,1,228.76,94ZM225,92a11.25,11.25,0,0,0,3.3,1.61,3.4,3.4,0,0,0,.45,0h0a3.18,3.18,0,0,0,3.13-2.38c.17-.6.28-1.2.39-1.78a14.65,14.65,0,0,1,.73-2.78C229.4,86.2,226.46,88.17,225,92Z"/><path class="cls-1" d="M228.76,94.48l-.56,0a11.44,11.44,0,0,1-3.79-1.82.68.68,0,0,1-.28-.81c1.62-4.41,5.07-6.64,9.25-6a.68.68,0,0,1,.5.35.67.67,0,0,1,0,.6,12.57,12.57,0,0,0-.76,2.81c-.11.6-.23,1.22-.4,1.85A4,4,0,0,1,228.76,94.48Zm-3.14-2.71a8,8,0,0,0,2.75,1.31,2.7,2.7,0,0,0,3-2c.16-.58.27-1.16.38-1.74a17,17,0,0,1,.53-2.25C229.37,87,227,88.63,225.62,91.77Z"/><path class="cls-2" d="M224.78,92.05s4.41.72,6.29-2.93"/><path class="cls-1" d="M225.64,92.6a5.33,5.33,0,0,1-.94-.06l.16-1c.16,0,4.08.61,5.76-2.67l.89.46A6.31,6.31,0,0,1,225.64,92.6Z"/><path class="cls-3" d="M225.65,92.29a7.43,7.43,0,0,1-.9-.05.21.21,0,0,1-.16-.22.19.19,0,0,1,.22-.15s4.3.65,6.09-2.83a.19.19,0,0,1,.25-.08.18.18,0,0,1,.08.25A6,6,0,0,1,225.65,92.29Z"/><path class="cls-1" d="M225.65,92.79a7,7,0,0,1-1-.06.7.7,0,0,1-.47-.28.67.67,0,0,1-.12-.51.73.73,0,0,1,.27-.45.69.69,0,0,1,.52-.12s4,.58,5.57-2.56a.65.65,0,0,1,.4-.34.63.63,0,0,1,.52,0,.67.67,0,0,1,.34.38.7.7,0,0,1,0,.53A6.48,6.48,0,0,1,225.65,92.79Zm-.93-.43h0Zm6.63-3.1h0Z"/><path class="cls-2" d="M232.88,103.44l-2.94-3.08a1.91,1.91,0,0,0,.19-.79,1.82,1.82,0,0,0-1.82-1.82,1.72,1.72,0,0,0-.72.15l-1.08-1.13a2.36,2.36,0,0,0-3.42,0l-1.54,1.61a1.34,1.34,0,0,0-.35,0A1.23,1.23,0,0,0,220,99.57a1.34,1.34,0,0,0,.07.4l-3.31,3.47c-.94,1-.6,1.8.77,1.8h14.62C233.48,105.24,233.82,104.43,232.88,103.44Z"/><path class="cls-1" d="M232.11,105.73H217.49c-1.18,0-1.58-.52-1.71-.83s-.24-1,.58-1.8l3.12-3.27a2.46,2.46,0,0,1,0-.26,1.74,1.74,0,0,1,1.74-1.74h.18l1.35-1.41a2.9,2.9,0,0,1,4.14,0l.86.89a2.25,2.25,0,0,1,.58-.07,2.3,2.3,0,0,1,2.21,3l2.72,2.85c.81.85.71,1.5.58,1.8S233.29,105.73,232.11,105.73Zm-10.91-6.9a.74.74,0,0,0-.74.74.57.57,0,0,0,0,.24l.09.29-3.52,3.69c-.35.37-.42.63-.38.72s.28.22.79.22h14.62c.51,0,.75-.13.79-.22s0-.36-.38-.72h0l-3.18-3.34.15-.31a1.3,1.3,0,0,0-1.18-1.89,1.16,1.16,0,0,0-.52.11l-.32.14-1.32-1.38a1.88,1.88,0,0,0-2.7,0L221.7,99l-.29-.09Z"/><path class="cls-3" d="M232.11,105.42H217.49c-.75,0-1.25-.23-1.42-.64s0-.93.51-1.47l3.24-3.39a1.48,1.48,0,0,1,0-.35,1.43,1.43,0,0,1,1.43-1.43l.29,0L223,96.64a2.56,2.56,0,0,1,3.7,0l1,1a1.89,1.89,0,0,1,.67-.12,2,2,0,0,1,2,2,2,2,0,0,1-.15.75l2.85,3c.52.54.7,1.06.52,1.47S232.85,105.42,232.11,105.42ZM221.2,98.51a1.07,1.07,0,0,0-1.06,1.06,1.09,1.09,0,0,0,.07.34.19.19,0,0,1,0,.19l-3.32,3.47c-.39.42-.55.8-.44,1.06s.5.42,1.08.42h14.62c.57,0,1-.15,1.08-.42s-.05-.64-.44-1.06l-2.95-3.08a.2.2,0,0,1,0-.21,1.62,1.62,0,0,0-2.11-2.21.2.2,0,0,1-.21,0l-1.07-1.13a2.18,2.18,0,0,0-3.16,0l-1.54,1.61a.18.18,0,0,1-.18,0A1.25,1.25,0,0,0,221.2,98.51Z"/><path class="cls-1" d="M232.11,105.92H217.49c-1.29,0-1.73-.59-1.88-.94s-.28-1.08.61-2l3.06-3.21a1.21,1.21,0,0,1,0-.19,1.93,1.93,0,0,1,2-1.93l1.28-1.34a3.11,3.11,0,0,1,4.42,0l.78.82a2.24,2.24,0,0,1,.52-.06,2.51,2.51,0,0,1,2.5,2.51,2.27,2.27,0,0,1-.08.63l2.65,2.77a1.81,1.81,0,0,1,.61,2C233.84,105.33,233.4,105.92,232.11,105.92Zm-15.24-1.46a1.78,1.78,0,0,0,.62.09h14.62a1.06,1.06,0,0,0,.63-.13,1.79,1.79,0,0,0-.36-.51l-2.94-3.08a.67.67,0,0,1-.11-.78,1.13,1.13,0,0,0-1.47-1.52.71.71,0,0,1-.77-.15L226,97.25a1.71,1.71,0,0,0-2.44,0L222,98.86a.69.69,0,0,1-.67.19l-.17,0a.56.56,0,0,0-.56.56.74.74,0,0,0,0,.18.65.65,0,0,1-.16.7l-3.3,3.47c-.29.3-.35.49-.35.54Z"/><path class="cls-3" d="M224.79,96.22a.18.18,0,0,1-.19-.19V87.84a.19.19,0,1,1,.37,0V96A.18.18,0,0,1,224.79,96.22Z"/><path class="cls-1" d="M224.79,96.72a.69.69,0,0,1-.69-.69V87.84a.69.69,0,0,1,.69-.69.68.68,0,0,1,.68.69V96A.68.68,0,0,1,224.79,96.72Z"/><path class="cls-1" d="M449.44,66.82a2,2,0,0,1-2.15-1.34V58.64a1.45,1.45,0,0,1,.49-1,2.72,2.72,0,0,1,2.07-.49l.39,0v9.54l-.37.05A2.58,2.58,0,0,1,449.44,66.82Zm-1.3-1.5c.17.53.82.63,1.24.64V58a1.53,1.53,0,0,0-1,.29.62.62,0,0,0-.21.36Z"/><path class="cls-1" d="M429.72,69.07h-.22l-.13-.17a1.33,1.33,0,0,1-.3-1,1,1,0,0,1,.26-.51l0-4.78c.86-3,3-3.08,3.13-3.08h4.44a.83.83,0,0,0,.66-.24,1.21,1.21,0,0,0,.21-.81,1,1,0,0,1,.9-1.17h4.14a.77.77,0,0,1,.74.29.74.74,0,0,1,.11.62v.63c.14.64.87.68,1,.68h2.49v.86h-2.5a1.84,1.84,0,0,1-1.8-1.45v-.77h-4.1c-.05,0-.09.08-.08.23a2,2,0,0,1-.42,1.46,1.65,1.65,0,0,1-1.3.53h-4.43c-.06,0-1.61.09-2.3,2.4v5l-.2.12s-.06,0-.08.13a.38.38,0,0,0,0,.19H434a.42.42,0,0,0,.2-.1.75.75,0,0,0,0-.11h-.62V64.44c0-.32.28-.8,1-.8h3.77l-.06.49h0s0,1,2.7,1.23c0,0,2.2-.07,2.45-1.41l.07-.35h3.63v.86h-2.95c-.62,1.68-3.12,1.75-3.23,1.75A4.46,4.46,0,0,1,437.81,65a1.68,1.68,0,0,1-.28-.52h-2.92a.62.62,0,0,0-.2,0l.06,2.62h.25l.12.22a1,1,0,0,1-.79,1.7Z"/><path class="cls-1" d="M440.26,57h-.86V55.69a1.09,1.09,0,0,1-.53-.57l-3,.37a1.52,1.52,0,0,1-1.19-.39,1.46,1.46,0,0,1-.4-1.07,1.52,1.52,0,0,1,.47-1.27,1.48,1.48,0,0,1,1.17-.33l2.87.32a1.11,1.11,0,0,1,.43-.62.46.46,0,0,1,.14-.07l0-.69a1.5,1.5,0,0,1,1.37-1.07,1.54,1.54,0,0,1,1.67,1.15v.64a1.22,1.22,0,0,1,.47.65l3.06-.41a1.46,1.46,0,0,1,1.15.43,1.71,1.71,0,0,1,.44,1.22,1.56,1.56,0,0,1-1.7,1.47l-3-.5a1.4,1.4,0,0,1-.56.57V57h-.85v-2l.3-.1a.61.61,0,0,0,.4-.44l.07-.43,3.7.63a.72.72,0,0,0,.75-.69.9.9,0,0,0-.21-.56.61.61,0,0,0-.47-.16l-3.86.52,0-.46c0-.2-.11-.43-.17-.44l-.39,0V51.62a.71.71,0,0,0-.78-.47.67.67,0,0,0-.58.44V53l-.56-.19a2.73,2.73,0,0,0-.09.42l0,.43-3.71-.41a.71.71,0,0,0-.5.12.81.81,0,0,0-.18.64.71.71,0,0,0,.16.46.68.68,0,0,0,.5.14l3.79-.47,0,.45c0,.07,0,.3.22.3h.43Z"/><rect class="cls-1" x="431.88" y="71.18" width="0.86" height="20.83"/><path class="cls-1" d="M425.53,95.17c-.17-3,1.05-3.58,1.46-3.69a4.39,4.39,0,0,1,5.84.81l-.66.55a3.52,3.52,0,0,0-4.77-.61l-.19.07h0s-1,.24-.83,2.82Z"/><path class="cls-1" d="M429.32,89.19A3.51,3.51,0,0,0,425,87l-.13,0-.13-.05a3.43,3.43,0,0,0-2.4,0,2.22,2.22,0,0,0-1.11,1.46l-.82-.25a3,3,0,0,1,1.56-2,4.25,4.25,0,0,1,2.95-.08,4.41,4.41,0,0,1,5.17,2.77Z"/><path class="cls-1" d="M433.29,94.33h-1a4.37,4.37,0,0,1,1.49-3.75,4.51,4.51,0,0,1,3.7-.44l-.31,1a3.59,3.59,0,0,0-2.79.3A3.42,3.42,0,0,0,433.29,94.33Z"/><path class="cls-1" d="M438.06,104.3H406.4a2,2,0,0,1-1.12-3.43,1.82,1.82,0,0,1,1.37-.35h3.11a1.12,1.12,0,0,0,.86-1,.88.88,0,0,0-.83-1h-1.15A1.73,1.73,0,0,1,407,96.69a2,2,0,0,1,1.75-1.77h34.75v.86h-34.7a1.13,1.13,0,0,0-.95,1,.86.86,0,0,0,.84.92h1.14a2.11,2.11,0,0,1,1.34.71,1.6,1.6,0,0,1,.29,1.24,2,2,0,0,1-1.62,1.74h-3.28a1,1,0,0,0-.74.16,1.1,1.1,0,0,0-.29.88,1,1,0,0,0,.92,1h31.6Z"/><rect class="cls-1" x="127.52" y="33.73" width="59.71" height="0.8"/><path class="cls-2" d="M270.39,50.68s-10.63,5.8-16.19-2a11.85,11.85,0,0,1-2.47-11.62s-5.81-4.2-4.95-11.12c0,0,.62-12,12.24-10.25,0,0,2.22-9.15,11.49-8.78,0,0,8.77.37,10.63,8.9,0,0,10.87-.37,12.35,11,0,0,1.11,9.51-5.19,10.5,0,0,2.72,8-3.58,12.6C284.72,49.93,279.16,55.74,270.39,50.68Z"/><path class="cls-1" d="M277.4,53.24a14.26,14.26,0,0,1-7-2c-1.68.83-11.32,5.12-16.58-2.25a12.21,12.21,0,0,1-2.64-11.72c-1.21-1-5.65-5.06-4.86-11.37,0-.19.33-5.62,4.15-8.75a10.46,10.46,0,0,1,8.22-2c.61-1.86,3.49-9,11.87-8.72.09,0,8.91.47,11,8.91,2.06.08,11.1,1,12.46,11.42,0,.11,1,9.46-5.06,11,.48,1.93,1.64,8.59-3.92,12.62A11.23,11.23,0,0,1,277.4,53.24Zm-7-3.14.25.14c8.33,4.82,13.67-.6,13.72-.65,6-4.36,3.58-11.78,3.47-12.1l-.19-.56.59-.09c5.75-.9,4.78-9.86,4.77-10-1.41-10.77-11.42-10.59-11.85-10.56h-.41l-.09-.4c-1.75-8-9.82-8.5-10.16-8.51-8.73-.37-10.9,8-11,8.4l-.11.44-.45-.07c-3.23-.48-5.88.1-7.86,1.72-3.49,2.85-3.79,8-3.8,8.07-.82,6.57,4.68,10.65,4.74,10.69l.29.21-.11.35a11.27,11.27,0,0,0,2.35,11.11c5.3,7.4,15.49,1.94,15.6,1.89Z"/><path class="cls-1" d="M270.39,71.28a.5.5,0,0,1-.5-.5V30.16a.5.5,0,0,1,.5-.5.51.51,0,0,1,.5.5V70.78A.5.5,0,0,1,270.39,71.28Z"/><path class="cls-1" d="M270.26,42.09l-7.14-6.74a.5.5,0,0,1,.69-.73l6.46,6.11,6-5.5a.5.5,0,0,1,.7,0,.5.5,0,0,1,0,.71Z"/><path class="cls-2" d="M241.68,61.51s-10.63,5.81-16.19-2A11.83,11.83,0,0,1,223,47.92s-5.81-4.2-5-11.12c0,0,.62-12,12.24-10.26,0,0,2.22-9.14,11.49-8.77,0,0,8.77.37,10.63,8.89,0,0,10.87-.37,12.35,11,0,0,1.11,9.52-5.19,10.5,0,0,2.72,8-3.58,12.61C256,60.77,250.45,66.58,241.68,61.51Z"/><path class="cls-1" d="M248.69,64.07a14.37,14.37,0,0,1-7-2c-1.68.82-11.32,5.11-16.58-2.26a12.21,12.21,0,0,1-2.64-11.72c-1.21-1-5.65-5.05-4.86-11.37,0-.19.33-5.62,4.16-8.75A10.39,10.39,0,0,1,230,26c.61-1.87,3.49-9,11.87-8.72.09,0,8.91.47,11,8.9,2.06.08,11.1,1,12.46,11.43,0,.1,1,9.46-5.06,10.95.48,1.94,1.64,8.59-3.92,12.62A11.18,11.18,0,0,1,248.69,64.07Zm-20.58-37.2a8.81,8.81,0,0,0-5.74,1.88c-3.48,2.84-3.79,8-3.8,8.07-.82,6.59,4.68,10.65,4.74,10.69l.29.22-.11.34a11.26,11.26,0,0,0,2.35,11.11c5.29,7.39,15.18,2.12,15.6,1.89l.24-.13.25.14c8.33,4.81,13.67-.6,13.72-.66,6-4.36,3.5-12,3.47-12.1l-.19-.56.59-.09c5.75-.9,4.78-9.86,4.77-10-1.41-10.78-11.42-10.58-11.85-10.56l-.41,0-.09-.41c-1.75-8.06-10.08-8.5-10.16-8.5h-.51c-8.33,0-10.46,8.31-10.48,8.4l-.1.44-.46-.07A14.24,14.24,0,0,0,228.11,26.87Z"/><path class="cls-1" d="M241.68,107a.5.5,0,0,1-.5-.5V41a.5.5,0,0,1,.5-.5.5.5,0,0,1,.5.5v65.47A.5.5,0,0,1,241.68,107Z"/><path class="cls-1" d="M241.55,52.93l-7.14-6.75a.5.5,0,0,1,.69-.73l6.46,6.11,6-5.49a.5.5,0,0,1,.67.73Z"/><path class="cls-2" d="M276.6,72.72s-10.62,5.8-16.18-2A11.85,11.85,0,0,1,258,59.12S252.14,54.92,253,48c0,0,.62-12,12.24-10.26,0,0,2.22-9.14,11.49-8.77,0,0,8.77.37,10.62,8.9,0,0,10.88-.37,12.36,11,0,0,1.11,9.51-5.19,10.5,0,0,2.72,8-3.58,12.6C290.94,72,285.38,77.78,276.6,72.72Z"/><path class="cls-1" d="M283.61,75.28a14.26,14.26,0,0,1-7-2c-1.68.83-11.32,5.12-16.58-2.25a12.22,12.22,0,0,1-2.64-11.72c-1.21-1-5.65-5.06-4.86-11.37,0-.19.33-5.63,4.16-8.76a10.45,10.45,0,0,1,8.21-2c.59-1.82,3.37-8.73,11.31-8.73h.56c.09,0,8.91.48,11,8.91,2.06.08,11.1,1,12.46,11.42,0,.1,1,9.46-5.06,11,.48,1.94,1.64,8.6-3.92,12.63A11.25,11.25,0,0,1,283.61,75.28Zm-7-3.14.24.14c8.31,4.8,13.51-.43,13.73-.65,6-4.36,3.57-11.79,3.47-12.1l-.19-.56.58-.09c5.77-.91,4.79-9.87,4.77-10-1.4-10.76-11.4-10.57-11.84-10.55H287l-.09-.4c-1.75-8-9.82-8.49-10.16-8.51-8.78-.38-11,8.31-11,8.39l-.11.45-.45-.07c-3.23-.48-5.87.09-7.86,1.71-3.48,2.85-3.8,8-3.8,8.08-.82,6.58,4.68,10.65,4.74,10.69l.29.21-.11.35a11.39,11.39,0,0,0,2.35,11.1c5.3,7.41,15.49,2,15.59,1.9Z"/><path class="cls-1" d="M276.6,107a.5.5,0,0,1-.5-.5V52.2a.51.51,0,0,1,.5-.5.5.5,0,0,1,.5.5v54.27A.5.5,0,0,1,276.6,107Z"/><path class="cls-1" d="M276.48,64.13l-7.14-6.75a.49.49,0,0,1,0-.7.5.5,0,0,1,.71,0l6.46,6.1,5.95-5.49a.51.51,0,0,1,.71,0,.5.5,0,0,1,0,.71Z"/><path class="cls-1" d="M51,88.56a9.26,9.26,0,0,1-4.33-1.15c-1.28.58-7.11,2.9-10.36-1.42a7.11,7.11,0,0,1-1.71-6.9,7.64,7.64,0,0,1-3-6.76,7.9,7.9,0,0,1,2.52-5.17,6.8,6.8,0,0,1,5.17-1.32,7.48,7.48,0,0,1,7.45-5.08c.06,0,5.53.28,6.93,5.21,1.55.09,6.88.84,7.71,6.86.25,2-.12,5.74-3.06,6.6.32,1.4.78,5.1-2.56,7.4h0A7.27,7.27,0,0,1,51,88.56Zm-4.31-2.31.24.13c5,2.73,8.09-.22,8.22-.35,3.56-2.46,2.14-6.64,2.08-6.82L57,78.62l.62-.09C61,78,60.42,73,60.42,73c-.84-6.08-6.83-6-7.08-6h-.42l-.1-.42c-1-4.52-5.86-4.78-6.06-4.79a6.39,6.39,0,0,0-6.55,4.74l-.12.44-.46-.06a6,6,0,0,0-4.79,1,6.94,6.94,0,0,0-2.15,4.47c-.49,3.71,2.79,6,2.82,6l.32.22-.12.37a6.14,6.14,0,0,0,1.39,6.25c3.18,4.21,9.3,1.1,9.37,1.07Z"/><rect class="cls-1" x="46.19" y="74.85" width="1.03" height="36.86"/><polygon class="cls-1" points="46.63 82.11 42.1 78.05 42.79 77.28 46.63 80.73 50.17 77.64 50.85 78.42 46.63 82.11"/><path class="cls-1" d="M19.46,88.56a9.26,9.26,0,0,1-4.33-1.15C13.85,88,8,90.31,4.77,86a7.11,7.11,0,0,1-1.71-6.9,7.66,7.66,0,0,1-3-6.76,8,8,0,0,1,2.52-5.17,6.8,6.8,0,0,1,5.17-1.32,7.5,7.5,0,0,1,7.45-5.08c.06,0,5.53.28,6.93,5.21,1.55.09,6.89.84,7.72,6.86.24,2-.13,5.74-3.07,6.6.32,1.4.78,5.1-2.55,7.4h0A7.34,7.34,0,0,1,19.46,88.56Zm-4.31-2.31.25.13c5,2.73,8.08-.22,8.21-.35,3.58-2.47,2.1-6.77,2.08-6.82l-.21-.59.62-.09c3.34-.5,2.79-5.36,2.76-5.56C28,66.89,22,67,21.78,67h-.42l-.1-.42c-1-4.54-6-4.79-6.06-4.79a6.56,6.56,0,0,0-6.55,4.74L8.53,67l-.45-.06a6,6,0,0,0-4.79,1,7,7,0,0,0-2.16,4.47c-.48,3.71,2.79,6,2.82,6l.32.22-.12.37a6.14,6.14,0,0,0,1.39,6.25c3.18,4.21,9.31,1.1,9.37,1.07Z"/><rect class="cls-1" x="14.63" y="74.85" width="1.03" height="45.85"/><polygon class="cls-1" points="15.07 82.11 10.54 78.05 11.23 77.28 15.08 80.73 18.61 77.64 19.29 78.42 15.07 82.11"/><path class="cls-2" d="M29.54,75.37s-6.54,3.27-10-1.11a6.34,6.34,0,0,1-1.53-6.55s-3.57-2.36-3-6.26c0,0,.38-6.75,7.53-5.78a7,7,0,0,1,7.08-4.94s5.4.21,6.54,5c0,0,6.7-.21,7.61,6.19,0,0,.68,5.37-3.2,5.92,0,0,1.68,4.53-2.2,7.1C38.37,75,34.94,78.23,29.54,75.37Z"/><path class="cls-1" d="M33.85,77.05a9.52,9.52,0,0,1-4.32-1.11c-1.27.56-7.11,2.8-10.36-1.37a6.72,6.72,0,0,1-1.72-6.66c-.92-.72-3.43-3-2.95-6.53a7.5,7.5,0,0,1,2.44-4.93,6.91,6.91,0,0,1,5.25-1.34,7.5,7.5,0,0,1,7.45-4.9c.05,0,5.51.27,6.92,5,1.54.09,6.89.81,7.72,6.63.24,1.92-.12,5.55-3.06,6.38a6.48,6.48,0,0,1-2.57,7.14h0A7.4,7.4,0,0,1,33.85,77.05Zm-4.3-2.26.23.12c5,2.65,8.2-.3,8.23-.33,3.57-2.38,2.09-6.51,2.08-6.55l-.22-.6.63-.09c3.33-.48,2.78-5.14,2.76-5.34-.84-5.87-6.83-5.74-7.08-5.74h-.42l-.1-.41c-1-4.36-5.86-4.61-6.06-4.62A6.48,6.48,0,0,0,23,55.8l-.11.44-.46-.06a6.11,6.11,0,0,0-4.87,1.06,6.58,6.58,0,0,0-2.07,4.24c-.49,3.56,2.78,5.78,2.81,5.8l.33.22-.13.38a5.76,5.76,0,0,0,1.39,6c3.17,4.06,9.32,1.06,9.38,1Z"/><rect class="cls-1" x="29.02" y="63.82" width="1.03" height="52.55"/><polyline class="cls-2" points="25.28 66.53 29.46 70.15 33.35 66.88"/><polygon class="cls-1" points="29.46 70.83 24.94 66.92 25.62 66.14 29.47 69.47 33.01 66.48 33.68 67.27 29.46 70.83"/><rect class="cls-2" x="94.18" y="74.79" width="13" height="30.42"/><path class="cls-2" d="M56.83,105.92v-4.25s-.09-2.31,3.55-1.75"/><path class="cls-1" d="M57.26,105.92H56.4v-4.25a2.15,2.15,0,0,1,.71-1.57,4,4,0,0,1,3.34-.61l-.13.85a3.3,3.3,0,0,0-2.62.39,1.27,1.27,0,0,0-.44.93Z"/><path class="cls-2" d="M60.43,105.92V97.79s.21-2.13,3.46-1.66"/><path class="cls-1" d="M60.86,105.92H60V97.79a2.33,2.33,0,0,1,.88-1.52A3.92,3.92,0,0,1,64,95.7l-.13.85a3.19,3.19,0,0,0-2.42.39,1.45,1.45,0,0,0-.55.89Z"/><path class="cls-2" d="M59.76,85.71a2,2,0,0,0,1.78,2.43h2.4v13.39"/><path class="cls-1" d="M64.37,101.53h-.86v-13h-2a2.46,2.46,0,0,1-2.21-2.89l.86.07a1.61,1.61,0,0,0,1.38,2h2.8Z"/><path class="cls-2" d="M72.21,102.73l0-6.88s.19-2.06-2.19-1.94H67.33"/><path class="cls-1" d="M72.64,102.73h-.86l0-6.88a1.56,1.56,0,0,0-.36-1.11,1.76,1.76,0,0,0-1.38-.4H67.33v-.86H70a2.49,2.49,0,0,1,2,.67,2.44,2.44,0,0,1,.6,1.74Z"/><path class="cls-2" d="M67.27,99.36l-.12-11.22h3a1.92,1.92,0,0,0,1.51-2.08s.2-2.29-1.84-2.43H67.2"/><path class="cls-1" d="M66.84,99.37l-.12-11.66h3.39s1-.2,1.08-1.67a2.36,2.36,0,0,0-.42-1.52,1.38,1.38,0,0,0-1-.46H67.2V83.2h2.58a2.28,2.28,0,0,1,1.64.76,3.21,3.21,0,0,1,.63,2.13,2.34,2.34,0,0,1-1.89,2.47H67.59l.11,10.79Z"/><path class="cls-2" d="M62.79,83.29a2.74,2.74,0,0,1-3,2.42s-3.19.05-3.19-2.7a2.51,2.51,0,0,1,2.06-2.87h1.15v-1a2.59,2.59,0,0,1,2.87-2.25,2.65,2.65,0,0,1,3,3"/><path class="cls-1" d="M59.81,86.14a4.3,4.3,0,0,1-2.78-1,3.34,3.34,0,0,1,1.6-5.4h.79v-.54a3,3,0,0,1,3.32-2.67,3.49,3.49,0,0,1,2.51.82,3.24,3.24,0,0,1,.88,2.58l-.86,0A2.4,2.4,0,0,0,64.66,78a2.76,2.76,0,0,0-1.9-.6,2.19,2.19,0,0,0-2.48,1.86v1.35H58.7a2.5,2.5,0,0,0-1.06,3.93,3.32,3.32,0,0,0,2.18.78,2.28,2.28,0,0,0,2.54-2l.86.07a3.16,3.16,0,0,1-3.39,2.82Z"/><path class="cls-2" d="M62.72,76.93a2.43,2.43,0,0,1,2.77-2.21s3.05-.3,3.19,2.35c0,0,2.7-.27,3,2.91a2.93,2.93,0,0,1,2.85,3.07s.25,2.52-2.94,2.87"/><path class="cls-1" d="M71.68,86.35l-.09-.86c2.66-.29,2.57-2.18,2.55-2.39a2.5,2.5,0,0,0-2.43-2.69h-.37l0-.37C71,77.37,69,77.48,68.72,77.5l-.45,0,0-.44a1.85,1.85,0,0,0-.61-1.39,3.23,3.23,0,0,0-2.11-.56A2,2,0,0,0,63.15,77l-.86,0a2.83,2.83,0,0,1,3.22-2.62,4,4,0,0,1,2.69.77,2.6,2.6,0,0,1,.86,1.59,3.2,3.2,0,0,1,3,2.94A3.25,3.25,0,0,1,75,83.06h0S75.24,86,71.68,86.35Z"/><path class="cls-2" d="M72.21,100.66H70.13a2.08,2.08,0,0,0-1.71,2.07v3.17"/><path class="cls-1" d="M68.85,105.9H68v-3.17a2.51,2.51,0,0,1,2.08-2.5h2.14v.85H70.13a1.65,1.65,0,0,0-1.28,1.66Z"/><path class="cls-2" d="M93.21,105.9v-2s.1-2.31-3.55-1.76"/><path class="cls-1" d="M93.64,105.9h-.86v-2a1.25,1.25,0,0,0-.44-1,3.3,3.3,0,0,0-2.62-.38l-.13-.85a4,4,0,0,1,3.34.6,2.14,2.14,0,0,1,.71,1.59Z"/><path class="cls-2" d="M89.61,105.81v-4.76s-.38-2.12-3.64-1.66"/><path class="cls-1" d="M90,105.81h-.86v-4.76h0s-.37-1.63-3.14-1.23L85.91,99c3.63-.52,4.12,2,4.12,2Z"/><path class="cls-2" d="M78.61,89a2,2,0,0,0,1.78,2.42h2.4v7.91"/><path class="cls-1" d="M83.22,99.31h-.86V91.83h-2a2.45,2.45,0,0,1-2.21-2.89L79,89c-.14,1.77,1.24,1.95,1.39,2h2.8Z"/><path class="cls-2" d="M78.36,105.9l0-9.25s-.18-2.05,2.2-1.94h2.31"/><path class="cls-1" d="M77.93,105.9l0-9.25a2.4,2.4,0,0,1,.6-1.7,2.52,2.52,0,0,1,2-.67h2.29v.86H80.53a1.76,1.76,0,0,0-1.41.4,1.52,1.52,0,0,0-.36,1.07l0,9.29Z"/><path class="cls-2" d="M86,101.25l0-9.85h3a1.91,1.91,0,0,0,1.52-2.08s.19-2.28-1.84-2.42H86"/><path class="cls-1" d="M86.4,101.26h-.86l0-10.28H89c.06,0,1-.19,1.09-1.66a2.35,2.35,0,0,0-.43-1.53,1.35,1.35,0,0,0-1-.45H86v-.86h2.59a2.2,2.2,0,0,1,1.64.76,3.11,3.11,0,0,1,.62,2.13A2.34,2.34,0,0,1,89,91.83H86.43Z"/><path class="cls-2" d="M81.63,86.55A2.73,2.73,0,0,1,78.68,89s-3.19,0-3.19-2.71a2.48,2.48,0,0,1,2.05-2.86H78.7v-1a2.57,2.57,0,0,1,2.86-2.24,2.65,2.65,0,0,1,3,3"/><path class="cls-1" d="M78.66,89.41a4.27,4.27,0,0,1-2.78-1,2.87,2.87,0,0,1-.82-2.11A2.83,2.83,0,0,1,77.47,83h.8v-.54a3,3,0,0,1,3.32-2.67,3.5,3.5,0,0,1,2.5.83A3.17,3.17,0,0,1,85,83.17l-.86,0a2.39,2.39,0,0,0-.61-1.92,2.71,2.71,0,0,0-1.9-.59,2.17,2.17,0,0,0-2.47,1.86v1.35H77.54a2,2,0,0,0-1.63,2.37,2.1,2.1,0,0,0,.57,1.56,3.63,3.63,0,0,0,2.19.78,2.27,2.27,0,0,0,2.53-2l.86.06a3.15,3.15,0,0,1-3.38,2.83Z"/><path class="cls-2" d="M81.56,80.2A2.44,2.44,0,0,1,84.33,78s3-.3,3.19,2.36c0,0,2.7-.28,3,2.91a2.91,2.91,0,0,1,2.84,3.07s.25,2.52-2.93,2.86"/><path class="cls-1" d="M90.52,89.61l-.09-.85c2.73-.3,2.56-2.31,2.55-2.4a2.47,2.47,0,0,0-2.42-2.68l-.38,0,0-.37c-.29-2.66-2.35-2.55-2.58-2.52l-.44,0,0-.45A1.83,1.83,0,0,0,86.48,79a3.16,3.16,0,0,0-2.1-.57A2,2,0,0,0,82,80.23l-.86-.06a2.86,2.86,0,0,1,3.22-2.62,4,4,0,0,1,2.69.77,2.59,2.59,0,0,1,.87,1.59,3.23,3.23,0,0,1,3,2.94,3.26,3.26,0,0,1,2.89,3.48h0S94.08,89.22,90.52,89.61Z"/><path class="cls-2" d="M78.41,102.1h2.52a2.1,2.1,0,0,1,1.71,2.08v1.69"/><path class="cls-1" d="M83.07,105.87h-.86v-1.69a1.62,1.62,0,0,0-1.35-1.65H78.41v-.86h2.52a2.51,2.51,0,0,1,2.14,2.5Z"/><path class="cls-2" d="M95.29,105.92v-4.25s-.09-2.31,3.56-1.75"/><path class="cls-1" d="M95.72,105.92h-.86v-4.25a2.14,2.14,0,0,1,.72-1.57,4,4,0,0,1,3.33-.61l-.13.85a3.23,3.23,0,0,0-2.63.4,1.28,1.28,0,0,0-.43.91Z"/><path class="cls-2" d="M98.89,105.92V97.79s.21-2.13,3.47-1.66"/><path class="cls-1" d="M99.32,105.92h-.86V97.79a2.33,2.33,0,0,1,.88-1.52,3.92,3.92,0,0,1,3.08-.57l-.12.85a3.24,3.24,0,0,0-2.42.38,1.46,1.46,0,0,0-.56.91Z"/><path class="cls-2" d="M98.22,85.71A2,2,0,0,0,100,88.14h2.4v13.39"/><path class="cls-1" d="M102.83,101.53H102v-13h-2a2.46,2.46,0,0,1-2.21-2.89l.86.07a1.61,1.61,0,0,0,1.39,2h2.79Z"/><path class="cls-2" d="M110.67,102.73l0-6.88s.19-2.06-2.19-1.94h-2.71"/><path class="cls-1" d="M111.1,102.73h-.86l0-6.88a1.59,1.59,0,0,0-.37-1.11,1.76,1.76,0,0,0-1.38-.4h-2.73v-.86h2.71a2.53,2.53,0,0,1,2,.67,2.36,2.36,0,0,1,.59,1.74Z"/><path class="cls-2" d="M105.73,99.36l-.12-11.22h3a1.92,1.92,0,0,0,1.51-2.08s.2-2.29-1.83-2.43h-2.59"/><path class="cls-1" d="M105.3,99.37l-.12-11.66h3.39c.06,0,1-.2,1.08-1.67a2.36,2.36,0,0,0-.42-1.52,1.38,1.38,0,0,0-1-.46h-2.56V83.2h2.59a2.3,2.3,0,0,1,1.64.76,3.24,3.24,0,0,1,.62,2.13,2.34,2.34,0,0,1-1.89,2.47h-2.57l.11,10.79Z"/><path class="cls-2" d="M101.25,83.29a2.74,2.74,0,0,1-3,2.42s-3.19.05-3.19-2.7a2.51,2.51,0,0,1,2.06-2.87h1.16v-1a2.58,2.58,0,0,1,2.86-2.25,2.65,2.65,0,0,1,3,3"/><path class="cls-1" d="M98.28,86.14a4.3,4.3,0,0,1-2.78-1,3.34,3.34,0,0,1,1.59-5.4h.8v-.54a3,3,0,0,1,3.31-2.67,3.49,3.49,0,0,1,2.51.82,3.24,3.24,0,0,1,.88,2.58l-.86,0a2.37,2.37,0,0,0-.61-1.91,2.75,2.75,0,0,0-1.9-.6,2.2,2.2,0,0,0-2.48,1.86v1.35H97.16A2.5,2.5,0,0,0,96.1,84.5a3.46,3.46,0,0,0,2.19.78,2.28,2.28,0,0,0,2.53-2l.86.07a3.16,3.16,0,0,1-3.39,2.82Z"/><path class="cls-2" d="M101.18,76.93A2.43,2.43,0,0,1,104,74.72s3-.3,3.19,2.35c0,0,2.7-.27,3,2.91A2.92,2.92,0,0,1,113,83.05s.25,2.52-2.94,2.87"/><path class="cls-1" d="M110.14,86.35l-.09-.86c2.66-.29,2.57-2.18,2.55-2.39a2.5,2.5,0,0,0-2.43-2.69h-.37l0-.37c-.29-2.66-2.35-2.55-2.58-2.53l-.45,0,0-.44a1.85,1.85,0,0,0-.61-1.39,3.22,3.22,0,0,0-2.11-.56A2,2,0,0,0,101.61,77l-.86,0A2.84,2.84,0,0,1,104,74.29a4,4,0,0,1,2.69.77,2.55,2.55,0,0,1,.86,1.59,3.2,3.2,0,0,1,3,2.94,3.26,3.26,0,0,1,2.9,3.47h0S113.7,86,110.14,86.35Z"/><path class="cls-2" d="M110.67,100.66h-2.08a2.08,2.08,0,0,0-1.71,2.07v3.17"/><path class="cls-1" d="M107.31,105.9h-.86v-3.17a2.51,2.51,0,0,1,2.08-2.5h2.14v.85h-2.08a1.66,1.66,0,0,0-1.28,1.66Z"/><path class="cls-2" d="M131.68,105.9v-2s.09-2.31-3.56-1.76"/><path class="cls-1" d="M132.11,105.9h-.86v-2a1.34,1.34,0,0,0-.44-1,3.33,3.33,0,0,0-2.63-.38l-.13-.85a4,4,0,0,1,3.34.6,2.22,2.22,0,0,1,.72,1.59Z"/><path class="cls-2" d="M128.07,105.81v-4.76s-.38-2.12-3.63-1.66"/><path class="cls-1" d="M128.5,105.81h-.86v-4.76h0s-.38-1.64-3.14-1.23l-.12-.85c3.62-.52,4.11,2,4.12,2Z"/><path class="cls-2" d="M117.07,89a2,2,0,0,0,1.78,2.42h2.4v7.91"/><path class="cls-1" d="M121.68,99.31h-.86V91.83h-2a2.46,2.46,0,0,1-2.21-2.89l.86.07c-.15,1.77,1.23,1.95,1.39,2h2.79Z"/><path class="cls-2" d="M116.82,105.9l0-9.25s-.18-2.05,2.2-1.94h2.31"/><path class="cls-1" d="M116.39,105.9l0-9.25A2.4,2.4,0,0,1,117,95a2.52,2.52,0,0,1,2.05-.67h2.29v.86H119a1.72,1.72,0,0,0-1.4.4,1.56,1.56,0,0,0-.37,1.07l0,9.29Z"/><path class="cls-2" d="M124.44,101.25l0-9.85h3s1.45-.17,1.51-2.08c0,0,.19-2.28-1.84-2.42h-2.58"/><path class="cls-1" d="M124.87,101.26H124L124,91h3.39s1-.19,1.08-1.66a2.38,2.38,0,0,0-.42-1.53,1.41,1.41,0,0,0-1-.45h-2.55v-.86h2.58a2.2,2.2,0,0,1,1.64.76,3.2,3.2,0,0,1,.63,2.13,2.36,2.36,0,0,1-1.89,2.47h-2.58Z"/><path class="cls-2" d="M120.09,86.55a2.73,2.73,0,0,1-3,2.43S114,89,114,86.27A2.48,2.48,0,0,1,116,83.41h1.15v-1A2.57,2.57,0,0,1,120,80.2a2.65,2.65,0,0,1,3,3"/><path class="cls-1" d="M117.12,89.41a4.27,4.27,0,0,1-2.78-1,2.87,2.87,0,0,1-.82-2.11A2.84,2.84,0,0,1,115.94,83h.79v-.54a3,3,0,0,1,3.32-2.67,3.49,3.49,0,0,1,2.5.83,3.13,3.13,0,0,1,.88,2.57l-.85,0a2.43,2.43,0,0,0-.61-1.92,2.74,2.74,0,0,0-1.91-.59,2.17,2.17,0,0,0-2.47,1.86v1.35H116a2.5,2.5,0,0,0-1.07,3.92,3.56,3.56,0,0,0,2.19.79,2.3,2.3,0,0,0,2.54-2l.85.06a3.14,3.14,0,0,1-3.38,2.83Z"/><path class="cls-2" d="M120,80.2A2.45,2.45,0,0,1,122.8,78s3-.3,3.18,2.36c0,0,2.71-.28,3,2.91a2.91,2.91,0,0,1,2.84,3.07s.26,2.52-2.93,2.86"/><path class="cls-1" d="M129,89.61l-.1-.85c2.66-.29,2.57-2.19,2.56-2.4A2.46,2.46,0,0,0,129,83.68l-.37,0-.05-.37c-.29-2.66-2.34-2.55-2.58-2.52l-.44,0,0-.45a1.83,1.83,0,0,0-.61-1.38,3.16,3.16,0,0,0-2.1-.57,2,2,0,0,0-2.39,1.82l-.85-.06a2.84,2.84,0,0,1,3.22-2.62,4,4,0,0,1,2.68.77,2.59,2.59,0,0,1,.87,1.59,3.23,3.23,0,0,1,3,2.94,3.26,3.26,0,0,1,2.89,3.48h0S132.54,89.22,129,89.61Z"/><path class="cls-2" d="M116.88,102.1h2.51a2.1,2.1,0,0,1,1.71,2.08v1.69"/><path class="cls-1" d="M121.53,105.87h-.86v-1.69a1.62,1.62,0,0,0-1.35-1.65h-2.44v-.86h2.51a2.51,2.51,0,0,1,2.14,2.5Z"/><path class="cls-2" d="M877,54.47a8.12,8.12,0,0,1-3.2,7.53s-4.33,4.51-11.15.57c0,0-8.26,4.52-12.58-1.53a9.22,9.22,0,0,1-1.93-9s-4.51-3.26-3.84-8.64c0,0,.48-9.32,9.51-8,0,0,1.73-7.11,8.94-6.82,0,0,6.82.29,8.26,6.92,0,0,8.46-.29,9.61,8.55,0,0,.87,7.4-4,8.17a10,10,0,0,1,.42,2.27"/><path class="cls-1" d="M868.12,64.68a11.16,11.16,0,0,1-5.46-1.54c-1.47.71-8.89,3.91-13-1.81a9.62,9.62,0,0,1-2.1-9.14,10.24,10.24,0,0,1-3.76-8.9c0-.14.26-4.41,3.28-6.88a8.2,8.2,0,0,1,6.38-1.58c.53-1.6,2.82-7,9.31-6.77.07,0,7,.37,8.64,6.93,1.77.08,8.66.94,9.71,9,.3,2.6-.16,7.58-3.91,8.6a12.43,12.43,0,0,1,.29,1.86,8.55,8.55,0,0,1-3.41,8h0A8.86,8.86,0,0,1,868.12,64.68Zm-16-28.93a6.78,6.78,0,0,0-4.4,1.43c-2.67,2.18-2.91,6.16-2.91,6.2-.63,5,3.59,8.19,3.64,8.22l.29.21-.11.35a8.72,8.72,0,0,0,1.8,8.52c4.07,5.69,11.67,1.63,12,1.46l.25-.14.24.14c6.38,3.68,10.37-.32,10.54-.49a7.71,7.71,0,0,0,3.07-7.14h0a9.86,9.86,0,0,0-.4-2.15l-.19-.56.59-.1c4.37-.68,3.62-7.54,3.61-7.61A8.83,8.83,0,0,0,871.05,36h-.42l-.09-.41c-1.34-6.16-7.53-6.51-7.79-6.52-6.68-.3-8.37,6.17-8.43,6.44l-.11.44-.45-.06A10.4,10.4,0,0,0,852.13,35.75Z"/><rect class="cls-1" x="862.17" y="46.62" width="1" height="59.49"/><polyline class="cls-2" points="857.29 50.37 862.58 55.37 867.48 50.85"/><polygon class="cls-1" points="862.57 56.05 856.95 50.73 857.64 50.01 862.58 54.68 867.14 50.48 867.82 51.22 862.57 56.05"/><path class="cls-2" d="M898.18,64a6.87,6.87,0,0,1-2.72,6.39s-3.67,3.84-9.46.49c0,0-7,3.84-10.69-1.31a7.8,7.8,0,0,1-1.63-7.66s-3.84-2.78-3.26-7.35c0,0,.4-7.91,8.07-6.77,0,0,1.47-6,7.59-5.79,0,0,5.79.24,7,5.87,0,0,7.18-.24,8.15,7.26,0,0,.74,6.29-3.42,6.94a8.38,8.38,0,0,1,.35,1.93"/><path class="cls-1" d="M890.62,72.76A9.65,9.65,0,0,1,886,71.47c-1.33.64-7.6,3.28-11.08-1.59a8.19,8.19,0,0,1-1.8-7.77,8.75,8.75,0,0,1-3.18-7.59,8.88,8.88,0,0,1,2.8-5.89,7.05,7.05,0,0,1,5.42-1.37c.5-1.44,2.54-5.94,8-5.74.06,0,5.93.31,7.39,5.88a8.45,8.45,0,0,1,8.26,7.69c.26,2.22-.13,6.45-3.3,7.37a11.33,11.33,0,0,1,.23,1.52h0a7.35,7.35,0,0,1-2.92,6.83h0A7.63,7.63,0,0,1,890.62,72.76ZM877.05,48.2a5.66,5.66,0,0,0-3.69,1.2c-2.24,1.83-2.44,5.17-2.45,5.21-.53,4.25,3,6.88,3.06,6.91l.29.21-.11.35a7.25,7.25,0,0,0,1.52,7.16c3.41,4.78,9.82,1.37,10.09,1.22l.24-.13.25.14c5.36,3.09,8.71-.26,8.85-.41a6.45,6.45,0,0,0,2.59-6h0a8.06,8.06,0,0,0-.34-1.81l-.18-.56.58-.1c3.64-.56,3-6.32,3-6.38a7.47,7.47,0,0,0-7.65-6.82l-.41,0-.09-.41c-1.13-5.18-6.33-5.47-6.55-5.48-5.61-.25-7,5.18-7.08,5.41l-.11.44-.45-.06A8.32,8.32,0,0,0,877.05,48.2Z"/><rect class="cls-1" x="885.5" y="55.97" width="1" height="49.24"/><polyline class="cls-2" points="881.43 60.54 885.92 64.78 890.08 60.95"/><polygon class="cls-1" points="885.91 65.46 881.09 60.9 881.77 60.17 885.92 64.1 889.74 60.58 890.42 61.31 885.91 65.46"/><path class="cls-2" d="M794.88,54.47A8.13,8.13,0,0,1,791.67,62s-4.32,4.51-11.15.57c0,0-8.26,4.52-12.58-1.53A9.23,9.23,0,0,1,766,52s-4.52-3.26-3.85-8.64c0,0,.48-9.32,9.52-8,0,0,1.72-7.11,8.93-6.82,0,0,6.82.29,8.27,6.92,0,0,8.45-.29,9.6,8.55,0,0,.87,7.4-4,8.17a10.66,10.66,0,0,1,.42,2.27"/><path class="cls-1" d="M786,64.68a11.16,11.16,0,0,1-5.46-1.54c-1.46.71-8.89,3.91-13-1.81a9.6,9.6,0,0,1-2.09-9.14,10.19,10.19,0,0,1-3.76-8.9c0-.14.26-4.41,3.27-6.88a8.21,8.21,0,0,1,6.38-1.58c.54-1.6,2.83-7,9.31-6.77.07,0,7,.37,8.64,6.93,1.77.08,8.66.94,9.71,9,.3,2.6-.16,7.58-3.91,8.6a12.22,12.22,0,0,1,.3,1.86,8.58,8.58,0,0,1-3.42,8h0A8.83,8.83,0,0,1,786,64.68ZM770,35.75a6.75,6.75,0,0,0-4.39,1.43c-2.67,2.18-2.91,6.16-2.92,6.2-.63,5.07,3.6,8.19,3.64,8.22l.29.21-.11.35a8.74,8.74,0,0,0,1.8,8.52c4.07,5.69,11.67,1.63,12,1.46l.24-.14.24.14c6.38,3.68,10.37-.32,10.54-.49a7.68,7.68,0,0,0,3.07-7.14h0a9.19,9.19,0,0,0-.4-2.15l-.18-.56.58-.1c4.37-.68,3.62-7.54,3.62-7.61A8.83,8.83,0,0,0,788.9,36h-.42l-.08-.41c-1.34-6.16-7.54-6.51-7.8-6.52-6.69-.3-8.36,6.17-8.43,6.44l-.11.44-.45-.06A10.4,10.4,0,0,0,770,35.75Z"/><rect class="cls-1" x="780.02" y="46.62" width="1" height="59.49"/><polyline class="cls-2" points="775.15 50.37 780.43 55.37 785.33 50.85"/><polygon class="cls-1" points="780.42 56.05 774.8 50.73 775.49 50.01 780.43 54.68 784.99 50.48 785.67 51.22 780.42 56.05"/><path class="cls-2" d="M816,64a6.91,6.91,0,0,1-2.72,6.39s-3.68,3.84-9.47.49c0,0-7,3.84-10.68-1.31a7.79,7.79,0,0,1-1.64-7.66s-3.83-2.78-3.26-7.35c0,0,.41-7.91,8.08-6.77,0,0,1.46-6,7.58-5.79,0,0,5.8.24,7,5.87,0,0,7.18-.24,8.16,7.26,0,0,.73,6.29-3.43,6.94A8.68,8.68,0,0,1,816,64"/><path class="cls-1" d="M808.48,72.76a9.63,9.63,0,0,1-4.64-1.29c-1.34.64-7.61,3.28-11.08-1.59a8.19,8.19,0,0,1-1.8-7.77,8.75,8.75,0,0,1-3.19-7.59,8.91,8.91,0,0,1,2.81-5.89A7,7,0,0,1,796,47.26c.5-1.44,2.54-5.94,8-5.74.06,0,5.93.31,7.4,5.88a8.44,8.44,0,0,1,8.25,7.69c.26,2.22-.13,6.45-3.3,7.37a9.73,9.73,0,0,1,.24,1.52h0a7.34,7.34,0,0,1-2.93,6.83h0A7.59,7.59,0,0,1,808.48,72.76ZM794.9,48.2a5.62,5.62,0,0,0-3.68,1.2c-2.24,1.83-2.45,5.17-2.45,5.21-.53,4.25,3,6.88,3.06,6.91l.29.21-.11.35a7.26,7.26,0,0,0,1.51,7.16c3.42,4.78,9.82,1.37,10.09,1.22l.25-.13.24.14c5.36,3.09,8.72-.26,8.86-.41a6.44,6.44,0,0,0,2.58-6h0a8.45,8.45,0,0,0-.33-1.81l-.19-.56.59-.1c3.64-.57,3-6.32,3-6.38A7.46,7.46,0,0,0,811,48.39l-.42,0-.09-.41c-1.12-5.18-6.33-5.47-6.55-5.48-5.61-.25-7,5.18-7.08,5.41l-.11.44-.45-.06A8.24,8.24,0,0,0,794.9,48.2Z"/><rect class="cls-1" x="803.35" y="55.97" width="1" height="49.24"/><polyline class="cls-2" points="799.28 60.54 803.77 64.78 807.93 60.95"/><polygon class="cls-1" points="803.77 65.46 798.94 60.9 799.63 60.17 803.77 64.1 807.59 60.58 808.27 61.31 803.77 65.46"/><path class="cls-2" d="M769.94,64a6.91,6.91,0,0,1-2.72,6.39s-3.67,3.84-9.47.49c0,0-7,3.84-10.68-1.31a7.8,7.8,0,0,1-1.63-7.66s-3.84-2.78-3.27-7.35c0,0,.41-7.91,8.08-6.77,0,0,1.47-6,7.59-5.79,0,0,5.79.24,7,5.87,0,0,7.18-.24,8.16,7.26,0,0,.74,6.29-3.42,6.94a9.08,9.08,0,0,1,.35,1.93"/><path class="cls-1" d="M762.38,72.76a9.63,9.63,0,0,1-4.64-1.29c-1.33.64-7.6,3.28-11.08-1.59a8.19,8.19,0,0,1-1.8-7.77,8.72,8.72,0,0,1-3.18-7.59,8.88,8.88,0,0,1,2.8-5.89,7,7,0,0,1,5.42-1.37c.49-1.44,2.53-5.94,8-5.74.06,0,5.92.31,7.39,5.88a8.45,8.45,0,0,1,8.26,7.69c.26,2.22-.14,6.45-3.3,7.37a11.33,11.33,0,0,1,.23,1.52h0a7.34,7.34,0,0,1-2.93,6.83h0A7.56,7.56,0,0,1,762.38,72.76ZM748.8,48.2a5.63,5.63,0,0,0-3.68,1.2c-2.24,1.83-2.45,5.17-2.45,5.21-.53,4.25,3,6.88,3.06,6.91l.29.21-.11.35a7.26,7.26,0,0,0,1.51,7.16c3.42,4.78,9.82,1.37,10.09,1.22l.25-.13.24.14c5.37,3.09,8.72-.26,8.86-.41a6.44,6.44,0,0,0,2.58-6h0a8.45,8.45,0,0,0-.33-1.81l-.19-.56.59-.1c3.63-.56,3-6.32,3-6.38a7.46,7.46,0,0,0-7.64-6.82l-.42,0-.09-.41c-1.12-5.18-6.32-5.47-6.55-5.48-5.61-.25-7,5.18-7.07,5.41l-.11.44-.45-.06A8.35,8.35,0,0,0,748.8,48.2Z"/><rect class="cls-1" x="757.25" y="55.97" width="1" height="49.24"/><polyline class="cls-2" points="753.19 60.54 757.67 64.78 761.84 60.95"/><polygon class="cls-1" points="757.67 65.46 752.84 60.9 753.53 60.17 757.68 64.1 761.5 60.58 762.17 61.31 757.67 65.46"/><path class="cls-1" d="M618.41,49.24h-4.12l-.28-3.4h3.63Zm-3.71-.45h3.15l-.57-2.51h-2.79Z"/><path class="cls-1" d="M618.13,49.35H614.5a.34.34,0,0,1-.34-.31l-.24-2.95a.34.34,0,0,1,.33-.37h3.21a.35.35,0,0,1,.33.26l.67,3a.32.32,0,0,1-.07.28A.33.33,0,0,1,618.13,49.35Zm-3.33-.67h2.91l-.52-2.29h-2.57Z"/><path class="cls-1" d="M611.62,46.28h-3.33l.3-3.57h3Zm-2.84-.44h2.39V43.15H609Z"/><path class="cls-1" d="M611.39,46.39h-2.85a.33.33,0,0,1-.25-.11.29.29,0,0,1-.09-.25l.26-3.12a.33.33,0,0,1,.33-.31h2.6a.34.34,0,0,1,.34.33v3.13A.34.34,0,0,1,611.39,46.39Zm-2.49-.67h2.16V43.27h-2Z"/><path class="cls-1" d="M614.49,46.28h-3.32V42.71h3Zm-2.87-.44H614l-.22-2.69h-2.17Z"/><path class="cls-1" d="M614.25,46.39h-2.86a.33.33,0,0,1-.33-.33V42.93a.33.33,0,0,1,.33-.33H614a.33.33,0,0,1,.33.3l.26,3.13a.3.3,0,0,1-.09.25A.33.33,0,0,1,614.25,46.39Zm-2.52-.67h2.16l-.2-2.45h-2Z"/><path class="cls-1" d="M617.74,46.28h-3.69l-.29-3.57h3.17Zm-3.28-.44h2.72l-.61-2.69h-2.33Z"/><path class="cls-1" d="M617.46,46.39h-3.21a.33.33,0,0,1-.33-.3L613.66,43a.41.41,0,0,1,.09-.26.36.36,0,0,1,.25-.1h2.75a.34.34,0,0,1,.33.26l.71,3.12a.35.35,0,0,1-.07.29A.32.32,0,0,1,617.46,46.39Zm-2.9-.67H617l-.56-2.45h-2.12Z"/><path class="cls-1" d="M611.62,49.24h-3.57l.28-3.4h3.29Zm-3.09-.45h2.64V46.28h-2.43Z"/><path class="cls-1" d="M611.39,49.35h-3.1A.34.34,0,0,1,608,49L608.2,46a.35.35,0,0,1,.34-.31h2.85a.34.34,0,0,1,.34.34V49A.34.34,0,0,1,611.39,49.35Zm-2.73-.67h2.4V46.39h-2.22Z"/><path class="cls-1" d="M611.62,52.19h-3.81l.28-3.4h3.53Zm-3.33-.44h2.88V49.24H608.5Z"/><path class="cls-1" d="M611.39,52.31h-3.34a.32.32,0,0,1-.24-.11.31.31,0,0,1-.09-.26L608,49a.34.34,0,0,1,.33-.31h3.1a.34.34,0,0,1,.34.33v3A.34.34,0,0,1,611.39,52.31Zm-3-.67h2.65V49.35H608.6Z"/><path class="cls-1" d="M615,52.19h-3.81v-3.4h3.53Zm-3.36-.44h2.88l-.21-2.51h-2.67Z"/><path class="cls-1" d="M614.74,52.31h-3.35a.34.34,0,0,1-.33-.34V49a.33.33,0,0,1,.33-.33h3.11a.33.33,0,0,1,.33.31l.24,2.95a.32.32,0,0,1-.08.25A.33.33,0,0,1,614.74,52.31Zm-3-.67h2.64l-.18-2.29h-2.46Z"/><path class="cls-1" d="M614.74,49.24h-3.57v-3.4h3.29Zm-3.12-.45h2.64l-.21-2.51h-2.43Z"/><path class="cls-1" d="M614.5,49.35h-3.11a.34.34,0,0,1-.33-.34V46.06a.34.34,0,0,1,.33-.34h2.86a.35.35,0,0,1,.34.31l.24,3a.3.3,0,0,1-.09.25A.32.32,0,0,1,614.5,49.35Zm-2.77-.67h2.4L614,46.39h-2.22Z"/><path class="cls-1" d="M608.5,49.24h-4.12l.77-3.4h3.63Zm-3.56-.45h3.15l.2-2.51h-2.78Z"/><path class="cls-1" d="M608.29,49.35h-3.63a.35.35,0,0,1-.33-.41l.67-3a.34.34,0,0,1,.33-.26h3.21a.32.32,0,0,1,.24.11.34.34,0,0,1,.09.25l-.24,3A.34.34,0,0,1,608.29,49.35Zm-3.21-.67H608l.19-2.29H605.6Z"/><path class="cls-1" d="M615.24,55.32h-4.07V51.75h3.77Zm-3.62-.44h3.13l-.22-2.69h-2.91Z"/><path class="cls-1" d="M615,55.43h-3.6a.33.33,0,0,1-.33-.33V52a.33.33,0,0,1,.33-.33h3.35a.33.33,0,0,1,.33.3l.26,3.13a.3.3,0,0,1-.09.25A.33.33,0,0,1,615,55.43Zm-3.26-.67h2.9l-.2-2.45h-2.7Z"/><path class="cls-1" d="M608.74,46.28h-3.69l.81-3.57H609Zm-3.13-.44h2.72l.22-2.69h-2.33Z"/><path class="cls-1" d="M608.54,46.39h-3.21a.32.32,0,0,1-.27-.13A.34.34,0,0,1,605,46l.71-3.12a.33.33,0,0,1,.33-.26h2.75a.39.39,0,0,1,.25.1.35.35,0,0,1,.08.26l-.25,3.13A.33.33,0,0,1,608.54,46.39Zm-2.79-.67h2.48l.2-2.45h-2.12Z"/><path class="cls-1" d="M619.08,52.19h-4.55l-.27-3.4h4Zm-4.14-.44h3.58L618,49.24h-3.21Z"/><path class="cls-1" d="M618.8,52.31h-4.06a.35.35,0,0,1-.34-.31l-.24-3a.33.33,0,0,1,.08-.25.4.4,0,0,1,.26-.11h3.63a.34.34,0,0,1,.33.26l.67,3a.32.32,0,0,1-.07.28A.33.33,0,0,1,618.8,52.31Zm-3.75-.67h3.33l-.52-2.29h-3Z"/><path class="cls-1" d="M619.79,55.32h-5l-.29-3.57H619Zm-4.59-.44h4l-.61-2.69H615Z"/><path class="cls-1" d="M619.51,55.43H615a.33.33,0,0,1-.33-.31L614.4,52a.41.41,0,0,1,.09-.26.36.36,0,0,1,.25-.1h4.06a.33.33,0,0,1,.33.26l.71,3.12a.38.38,0,0,1-.07.29A.36.36,0,0,1,619.51,55.43Zm-4.21-.67h3.79l-.56-2.45H615.1Z"/><path class="cls-1" d="M608.25,52.19h-4.54l.77-3.4h4Zm-4-.44h3.58l.2-2.51h-3.21Z"/><path class="cls-1" d="M608.05,52.31H604a.34.34,0,0,1-.33-.42l.67-3a.33.33,0,0,1,.33-.26h3.63a.39.39,0,0,1,.25.1.36.36,0,0,1,.09.27l-.25,3A.33.33,0,0,1,608.05,52.31Zm-3.64-.67h3.33l.19-2.29h-3Z"/><path class="cls-1" d="M611.62,55.32h-4.07l.3-3.57h3.77ZM608,54.88h3.14V52.19h-2.92Z"/><path class="cls-1" d="M611.39,55.43h-3.6a.32.32,0,0,1-.24-.11.31.31,0,0,1-.09-.26l.26-3.12a.32.32,0,0,1,.33-.3h3.34a.34.34,0,0,1,.34.33V55.1A.34.34,0,0,1,611.39,55.43Zm-3.23-.67h2.9V52.31h-2.7Z"/><path class="cls-1" d="M608,55.32h-5l.81-3.57h4.48Zm-4.44-.44h4l.22-2.69h-3.64Z"/><path class="cls-1" d="M607.79,55.43h-4.51A.34.34,0,0,1,603,55l.71-3.12a.33.33,0,0,1,.33-.26h4.06a.35.35,0,0,1,.25.1.34.34,0,0,1,.08.26l-.25,3.12A.34.34,0,0,1,607.79,55.43Zm-4.09-.67h3.78l.21-2.45h-3.43Z"/><rect class="cls-1" x="611.17" y="55.1" width="0.44" height="3.01"/><path class="cls-1" d="M611.39,58.44a.33.33,0,0,1-.33-.33v-3a.34.34,0,1,1,.67,0v3A.34.34,0,0,1,611.39,58.44Z"/><path class="cls-1" d="M615.34,59.9v-.45a.1.1,0,0,0-.1.11V58.21h-7.69v.35h-.44v-.45a.34.34,0,0,1,.33-.34h7.9a.34.34,0,0,1,.34.34v1.45A.34.34,0,0,1,615.34,59.9Z"/><path class="cls-1" d="M487.54,105.48c-.12,0-.2-.06-.29-.42h0s0-.13,0-.28c-.12-.71-.26-2.14-.53-5h.13c-.16-1.94-.34-4.09-.49-5.86l0-.46,5,.58-2.5-36.2.33-.06c1-.18,98.89-17.75,186.4,19.94l.23.1V99.73H675V78.31C590.36,42,496,57.35,489.62,58.46l2.53,36.44-5-.59c.53,6.2.76,9,.79,10.17a3.92,3.92,0,0,0,.06.51l-.07,0c0,.44-.12.45-.27.46Z"/><polygon class="cls-1" points="700.77 105.45 686.7 102.97 686.84 99.72 487.07 99.72 487.07 98.95 687.65 98.95 687.5 102.33 700.03 104.54 700.14 100.84 710.73 102.52 710.73 103.83 783.66 103.83 783.66 104.6 709.96 104.6 709.96 103.18 700.89 101.74 700.77 105.45"/><path class="cls-1" d="M714.32,103.83h-.77V49.93a6,6,0,0,0-2-4.56c-4.54-4.16-15.34-3.27-15.45-3.26-25,0-30,23.86-30.09,24.1v8.13h-.77v-8.2c.05-.32,5.15-24.8,30.81-24.8.43,0,11.22-.92,16,3.47a6.66,6.66,0,0,1,2.23,5.12Z"/><rect class="cls-1" x="667.54" y="59.5" width="0.77" height="15.62"/><rect class="cls-1" x="671.74" y="53.05" width="0.77" height="23.63"/><rect class="cls-1" x="677.25" y="47.59" width="0.77" height="51.55"/><rect class="cls-1" x="682.64" y="44.46" width="0.77" height="54.48"/><rect class="cls-1" x="688.03" y="42.7" width="0.77" height="59.95"/><rect class="cls-1" x="693.54" y="41.92" width="0.77" height="61.71"/><rect class="cls-1" x="698.93" y="41.73" width="0.77" height="63.07"/><rect class="cls-1" x="705.16" y="42.31" width="0.77" height="60.34"/><rect class="cls-1" x="710.67" y="44.85" width="0.77" height="58.78"/><path class="cls-1" d="M666,71.76l-.7-.31c.14-.31,14.45-30.84,48.9-17.19l-.29.71C680.15,41.6,666.14,71.46,666,71.76Z"/><path class="cls-1" d="M670.4,75.93l-.63-.45c.14-.2,14.76-20.42,44-11.08l-.23.74C684.85,56,670.54,75.73,670.4,75.93Z"/><path class="cls-1" d="M675.74,82.82l-.53-.56c.15-.14,14.93-13.74,38.83-6.92l-.21.74C690.37,69.39,675.88,82.69,675.74,82.82Z"/><path class="cls-1" d="M675.36,90.52l-.24-.73c1.07-.35,26.42-8.56,38.88-1.53l-.37.67C701.46,82.06,675.62,90.44,675.36,90.52Z"/><rect class="cls-1" x="503.25" y="56.22" width="0.16" height="42.83"/><rect class="cls-1" x="518.02" y="54.74" width="0.16" height="44.31"/><rect class="cls-1" x="532.37" y="54.11" width="0.16" height="44.95"/><rect class="cls-1" x="547.14" y="53.9" width="0.16" height="45.16"/><rect class="cls-1" x="561.06" y="54.32" width="0.16" height="44.73"/><rect class="cls-1" x="575.84" y="56.22" width="0.16" height="42.83"/><rect class="cls-1" x="589.24" y="54.32" width="0.16" height="44.73"/><rect class="cls-1" x="663.3" y="54.32" width="0.16" height="44.73"/><rect class="cls-1" x="604.01" y="56.22" width="0.16" height="42.83"/><path class="cls-1" d="M675.07,84C627.5,69.82,579.7,66.7,548,66.6c-34.38-.12-57.8,3.17-58,3.2l0-.16c.22,0,22.85-3.2,56.25-3.2H548A511,511,0,0,1,607.31,70a410.17,410.17,0,0,1,67.8,13.85Z"/><path class="cls-1" d="M675.07,96.7C627.5,82.48,579.7,79.37,548,79.26h-1.79c-33.4,0-56,3.18-56.24,3.21l0-.15c.22,0,22.85-3.21,56.26-3.21H548a511,511,0,0,1,59.34,3.6,410.17,410.17,0,0,1,67.8,13.85Z"/><rect class="cls-2" x="494.52" y="60.54" width="48.9" height="12.5"/><path class="cls-1" d="M501.57,68.8l-1.81-4.74h0c0,.38,0,.82,0,1.34v3.4h-.57V63.46h.93l1.69,4.41h0l1.71-4.41h.93V68.8h-.62V65.36c0-.4,0-.83.05-1.29h0l-1.83,4.73Z"/><path class="cls-1" d="M508.34,68.8l-.12-.57h0a1.7,1.7,0,0,1-.6.51,1.78,1.78,0,0,1-.74.13,1.38,1.38,0,0,1-.94-.3,1.15,1.15,0,0,1-.33-.88c0-.81.64-1.23,1.94-1.27l.68,0v-.25a1,1,0,0,0-.21-.7.82.82,0,0,0-.65-.22,2.57,2.57,0,0,0-1.13.31l-.19-.47a2.83,2.83,0,0,1,.65-.25,2.94,2.94,0,0,1,.71-.09,1.48,1.48,0,0,1,1.06.32,1.32,1.32,0,0,1,.35,1V68.8ZM507,68.37a1.22,1.22,0,0,0,.89-.31,1.15,1.15,0,0,0,.32-.87v-.36l-.6,0a2.16,2.16,0,0,0-1.05.22.68.68,0,0,0-.32.62.63.63,0,0,0,.2.5A.8.8,0,0,0,507,68.37Z"/><path class="cls-1" d="M510.65,68.8H510V63.11h.61Z"/><path class="cls-1" d="M512.54,68.8h-.61V63.11h.61Z"/><path class="cls-1" d="M519.23,66.79a2.18,2.18,0,0,1-.49,1.53,1.74,1.74,0,0,1-1.37.55,1.8,1.8,0,0,1-1-.25,1.66,1.66,0,0,1-.64-.72,2.56,2.56,0,0,1-.23-1.11,2.17,2.17,0,0,1,.49-1.52,1.92,1.92,0,0,1,2.7,0A2.2,2.2,0,0,1,519.23,66.79Zm-3.05,0a1.84,1.84,0,0,0,.31,1.17,1.05,1.05,0,0,0,.9.41,1.07,1.07,0,0,0,.9-.4,1.89,1.89,0,0,0,.31-1.18,1.84,1.84,0,0,0-.31-1.16,1.08,1.08,0,0,0-.91-.39,1.06,1.06,0,0,0-.9.39A1.89,1.89,0,0,0,516.18,66.79Z"/><path class="cls-1" d="M522.1,65.27h-1V68.8h-.6V65.27h-.72V65l.72-.22v-.22c0-1,.43-1.48,1.29-1.48a2.46,2.46,0,0,1,.74.13l-.16.49a1.87,1.87,0,0,0-.6-.12.59.59,0,0,0-.5.23,1.27,1.27,0,0,0-.17.73v.26h1Z"/><path class="cls-1" d="M528.23,68.8l-.67-1.7h-2.14l-.66,1.7h-.62l2.11-5.37h.52l2.1,5.37Zm-.86-2.26-.62-1.65c-.08-.21-.16-.47-.25-.78a6,6,0,0,1-.23.78l-.63,1.65Z"/><path class="cls-1" d="M532.62,67.38a1.31,1.31,0,0,1-.51,1.1,2.23,2.23,0,0,1-1.39.39,3.54,3.54,0,0,1-1.46-.24V68a3.79,3.79,0,0,0,.72.22,4,4,0,0,0,.77.08,1.52,1.52,0,0,0,.93-.24.76.76,0,0,0,.32-.65.81.81,0,0,0-.12-.46,1,1,0,0,0-.37-.33,5.73,5.73,0,0,0-.79-.33,2.48,2.48,0,0,1-1.07-.64,1.4,1.4,0,0,1-.32-1,1.23,1.23,0,0,1,.46-1,2,2,0,0,1,1.23-.36,3.74,3.74,0,0,1,1.47.29l-.19.54a3.43,3.43,0,0,0-1.29-.27,1.24,1.24,0,0,0-.77.21.68.68,0,0,0-.28.59.88.88,0,0,0,.1.45,1,1,0,0,0,.35.33,5.3,5.3,0,0,0,.74.32,3,3,0,0,1,1.16.65A1.25,1.25,0,0,1,532.62,67.38Z"/><path class="cls-1" d="M533.72,68.8V63.46h.62V68.8Z"/><path class="cls-1" d="M539.17,68.8l-.67-1.7h-2.14l-.66,1.7h-.63l2.11-5.37h.53l2.1,5.37Zm-.86-2.26-.62-1.65a5.55,5.55,0,0,1-.25-.78c-.06.24-.13.5-.23.78l-.63,1.65Z"/><path class="cls-1" d="M635.84,52.62h-4.11l-.28-3.4h3.62Zm-3.7-.44h3.15l-.57-2.51h-2.79Z"/><path class="cls-1" d="M635.57,52.74h-3.64a.34.34,0,0,1-.33-.31l-.24-3a.34.34,0,0,1,.08-.25.36.36,0,0,1,.25-.11h3.21a.33.33,0,0,1,.32.26l.67,3a.31.31,0,0,1-.06.28A.35.35,0,0,1,635.57,52.74Zm-3.33-.67h2.91l-.52-2.29h-2.58Z"/><path class="cls-1" d="M629.05,49.67h-3.32L626,46.1h3Zm-2.84-.45h2.4V46.54h-2.18Z"/><path class="cls-1" d="M628.83,49.78H626a.36.36,0,0,1-.25-.11.33.33,0,0,1-.08-.25l.25-3.13a.35.35,0,0,1,.34-.31h2.6a.34.34,0,0,1,.34.34v3.12A.34.34,0,0,1,628.83,49.78Zm-2.49-.67h2.16V46.65h-2Z"/><path class="cls-1" d="M631.93,49.67h-3.32V46.1h3Zm-2.88-.45h2.4l-.22-2.68h-2.18Z"/><path class="cls-1" d="M631.69,49.78h-2.86a.34.34,0,0,1-.33-.34V46.32a.34.34,0,0,1,.33-.34h2.6a.35.35,0,0,1,.34.31l.25,3.13a.33.33,0,0,1-.08.25A.33.33,0,0,1,631.69,49.78Zm-2.52-.67h2.16l-.2-2.46h-2Z"/><path class="cls-1" d="M635.17,49.67h-3.68l-.3-3.57h3.17Zm-3.27-.45h2.72L634,46.54h-2.33Z"/><path class="cls-1" d="M634.9,49.78h-3.21a.32.32,0,0,1-.33-.31l-.26-3.12a.31.31,0,0,1,.09-.26.32.32,0,0,1,.24-.11h2.76a.33.33,0,0,1,.32.27l.71,3.12a.35.35,0,0,1-.06.28A.33.33,0,0,1,634.9,49.78Zm-2.9-.67h2.48l-.56-2.46H631.8Z"/><path class="cls-1" d="M629.05,52.62h-3.56l.28-3.4h3.28ZM626,52.18h2.64V49.67h-2.43Z"/><path class="cls-1" d="M628.83,52.74h-3.1a.33.33,0,0,1-.25-.11.35.35,0,0,1-.08-.26l.24-2.95a.33.33,0,0,1,.33-.31h2.86a.34.34,0,0,1,.34.33v3A.34.34,0,0,1,628.83,52.74Zm-2.74-.67h2.41V49.78h-2.22Z"/><path class="cls-1" d="M629.05,55.58h-3.8l.28-3.4h3.52Zm-3.32-.44h2.88V52.62h-2.68Z"/><path class="cls-1" d="M628.83,55.69h-3.34a.31.31,0,0,1-.24-.1.39.39,0,0,1-.1-.26l.25-3a.32.32,0,0,1,.33-.3h3.1a.34.34,0,0,1,.34.33v3A.34.34,0,0,1,628.83,55.69Zm-3-.67h2.65V52.74H626Z"/><path class="cls-1" d="M632.42,55.58h-3.81v-3.4h3.53Zm-3.37-.44h2.88l-.2-2.52h-2.68Z"/><path class="cls-1" d="M632.18,55.69h-3.35a.33.33,0,0,1-.33-.33v-3a.33.33,0,0,1,.33-.33h3.1a.34.34,0,0,1,.34.31l.24,2.95a.33.33,0,0,1-.08.25A.36.36,0,0,1,632.18,55.69Zm-3-.67h2.64l-.19-2.28h-2.45Z"/><path class="cls-1" d="M632.17,52.62h-3.56v-3.4h3.29Zm-3.12-.44h2.64l-.2-2.51h-2.44Z"/><path class="cls-1" d="M631.93,52.74h-3.1a.34.34,0,0,1-.33-.34v-3a.33.33,0,0,1,.33-.33h2.86a.33.33,0,0,1,.33.31l.25,2.95a.41.41,0,0,1-.09.26A.33.33,0,0,1,631.93,52.74Zm-2.76-.67h2.4l-.19-2.29h-2.21Z"/><path class="cls-1" d="M625.93,52.62h-4.11l.77-3.4h3.62Zm-3.56-.44h3.16l.2-2.51h-2.79Z"/><path class="cls-1" d="M625.73,52.74H622.1a.33.33,0,0,1-.26-.13.34.34,0,0,1-.07-.29l.67-3a.33.33,0,0,1,.33-.26H626a.35.35,0,0,1,.24.1.39.39,0,0,1,.1.26l-.25,3A.34.34,0,0,1,625.73,52.74Zm-3.21-.67h2.9l.19-2.29H623Z"/><path class="cls-1" d="M632.67,58.7h-4.06V55.14h3.77Zm-3.62-.44h3.14L632,55.58h-2.92Z"/><path class="cls-1" d="M632.43,58.82h-3.6a.34.34,0,0,1-.33-.34V55.36a.34.34,0,0,1,.33-.34h3.35a.34.34,0,0,1,.33.31l.25,3.13a.33.33,0,0,1-.08.25A.36.36,0,0,1,632.43,58.82Zm-3.26-.67h2.9l-.2-2.46h-2.7Z"/><path class="cls-1" d="M626.18,49.67h-3.69l.81-3.57h3.17ZM623,49.22h2.73l.22-2.68h-2.34Z"/><path class="cls-1" d="M626,49.78h-3.2a.34.34,0,0,1-.27-.13.35.35,0,0,1-.06-.28l.71-3.12a.33.33,0,0,1,.33-.27h2.75a.34.34,0,0,1,.33.37l-.25,3.12A.35.35,0,0,1,626,49.78Zm-2.78-.67h2.47l.2-2.46h-2.12Z"/><path class="cls-1" d="M636.51,55.58H632l-.28-3.4h4Zm-4.13-.44H636l-.57-2.52h-3.22Z"/><path class="cls-1" d="M636.24,55.69h-4.06a.33.33,0,0,1-.34-.31l-.24-3a.33.33,0,0,1,.08-.25.36.36,0,0,1,.25-.11h3.64a.32.32,0,0,1,.32.26l.67,3a.32.32,0,0,1-.32.41ZM632.48,55h3.34l-.52-2.28h-3Z"/><path class="cls-1" d="M637.22,58.7h-5l-.29-3.56h4.47Zm-4.58-.44h4l-.61-2.68h-3.64Z"/><path class="cls-1" d="M637,58.82h-4.52a.34.34,0,0,1-.33-.31l-.26-3.12a.34.34,0,0,1,.34-.37h4.06a.32.32,0,0,1,.32.26l.71,3.13a.31.31,0,0,1-.06.28A.35.35,0,0,1,637,58.82Zm-4.21-.67h3.79L636,55.69h-3.43Z"/><path class="cls-1" d="M625.69,55.58h-4.54l.77-3.4H626Zm-4-.44h3.58l.21-2.52h-3.22Z"/><path class="cls-1" d="M625.49,55.69h-4.06a.34.34,0,0,1-.27-.12.37.37,0,0,1-.06-.29l.67-3a.32.32,0,0,1,.33-.26h3.63a.33.33,0,0,1,.33.37l-.24,3A.33.33,0,0,1,625.49,55.69ZM621.85,55h3.33l.19-2.28h-3Z"/><path class="cls-1" d="M629.05,58.7H625l.29-3.56h3.77Zm-3.58-.44h3.14V55.58h-2.92Z"/><path class="cls-1" d="M628.83,58.82h-3.6a.34.34,0,0,1-.25-.11.35.35,0,0,1-.08-.26l.25-3.12a.35.35,0,0,1,.34-.31h3.34a.34.34,0,0,1,.34.34v3.12A.34.34,0,0,1,628.83,58.82Zm-3.24-.67h2.91V55.69h-2.7Z"/><path class="cls-1" d="M625.44,58.7h-5l.81-3.56h4.48ZM621,58.26h4l.22-2.68H621.6Z"/><path class="cls-1" d="M625.23,58.82h-4.51a.36.36,0,0,1-.26-.12.35.35,0,0,1-.07-.29l.71-3.13a.33.33,0,0,1,.33-.26h4.06a.34.34,0,0,1,.33.37l-.26,3.12A.33.33,0,0,1,625.23,58.82Zm-4.09-.67h3.78l.2-2.46h-3.43Z"/><rect class="cls-1" x="628.61" y="58.48" width="0.44" height="3.01"/><path class="cls-1" d="M628.83,61.83a.34.34,0,0,1-.33-.34v-3a.34.34,0,0,1,.67,0v3A.34.34,0,0,1,628.83,61.83Z"/><path class="cls-1" d="M632.78,64.28v-.44a.11.11,0,0,0-.11.11V61.6H625V62h-.44v-.46a.33.33,0,0,1,.33-.33h7.9a.34.34,0,0,1,.34.33V64A.34.34,0,0,1,632.78,64.28Z"/><path class="cls-1" d="M652.85,56.68h-4.12l-.28-3.4h3.63Zm-3.71-.44h3.15l-.57-2.51h-2.78Z"/><path class="cls-1" d="M652.57,56.8h-3.63a.35.35,0,0,1-.34-.31l-.24-3a.34.34,0,0,1,.08-.25.36.36,0,0,1,.25-.11h3.21a.35.35,0,0,1,.33.26l.67,3a.33.33,0,0,1-.07.28A.33.33,0,0,1,652.57,56.8Zm-3.32-.67h2.9l-.52-2.29h-2.57Z"/><path class="cls-1" d="M646.06,53.73h-3.32l.29-3.57h3Zm-2.84-.45h2.39V50.6h-2.17Z"/><path class="cls-1" d="M645.83,53.84H643a.34.34,0,0,1-.34-.36l.26-3.13a.34.34,0,0,1,.33-.31h2.6a.34.34,0,0,1,.34.34V53.5A.34.34,0,0,1,645.83,53.84Zm-2.49-.67h2.16V50.71h-2Z"/><path class="cls-1" d="M648.94,53.73h-3.33V50.16h3Zm-2.88-.45h2.39l-.22-2.68h-2.17Z"/><path class="cls-1" d="M648.69,53.84h-2.86a.34.34,0,0,1-.33-.34V50.38a.34.34,0,0,1,.33-.34h2.61a.34.34,0,0,1,.33.31l.26,3.13a.34.34,0,0,1-.34.36Zm-2.52-.67h2.16l-.2-2.46h-2Z"/><path class="cls-1" d="M652.18,53.73h-3.69l-.29-3.57h3.17Zm-3.28-.45h2.72L651,50.6h-2.33Z"/><path class="cls-1" d="M651.9,53.84h-3.21a.34.34,0,0,1-.33-.31l-.26-3.12a.39.39,0,0,1,.09-.26.33.33,0,0,1,.25-.11h2.75a.34.34,0,0,1,.33.27l.71,3.12a.32.32,0,0,1-.07.28A.33.33,0,0,1,651.9,53.84Zm-2.9-.67h2.48l-.56-2.46H648.8Z"/><path class="cls-1" d="M646.06,56.68h-3.57l.28-3.4h3.29ZM643,56.24h2.64V53.73h-2.43Z"/><path class="cls-1" d="M645.83,56.8h-3.1a.34.34,0,0,1-.33-.37l.24-3a.34.34,0,0,1,.34-.31h2.85a.34.34,0,0,1,.34.33v3A.34.34,0,0,1,645.83,56.8Zm-2.73-.67h2.4V53.84h-2.22Z"/><path class="cls-1" d="M646.06,59.64h-3.81l.28-3.4h3.53Zm-3.33-.44h2.88V56.68h-2.67Z"/><path class="cls-1" d="M645.83,59.75h-3.34a.35.35,0,0,1-.24-.1.32.32,0,0,1-.09-.26l.24-3a.33.33,0,0,1,.33-.3h3.1a.34.34,0,0,1,.34.33v3A.34.34,0,0,1,645.83,59.75Zm-3-.67h2.65V56.8H643Z"/><path class="cls-1" d="M649.42,59.64h-3.81v-3.4h3.53Zm-3.36-.44h2.88l-.21-2.52h-2.67Z"/><path class="cls-1" d="M649.18,59.75h-3.35a.33.33,0,0,1-.33-.33v-3a.33.33,0,0,1,.33-.33h3.11a.33.33,0,0,1,.33.3l.24,3a.33.33,0,0,1-.08.25A.36.36,0,0,1,649.18,59.75Zm-3-.67h2.65l-.19-2.28h-2.46Z"/><path class="cls-1" d="M649.18,56.68h-3.57v-3.4h3.29Zm-3.12-.44h2.64l-.21-2.51h-2.43Z"/><path class="cls-1" d="M648.94,56.8h-3.11a.34.34,0,0,1-.33-.34v-3a.33.33,0,0,1,.33-.33h2.86a.34.34,0,0,1,.34.31l.24,3a.31.31,0,0,1-.09.26A.32.32,0,0,1,648.94,56.8Zm-2.77-.67h2.4l-.18-2.29h-2.22Z"/><path class="cls-1" d="M642.94,56.68h-4.12l.77-3.4h3.63Zm-3.56-.44h3.15l.21-2.51H640Z"/><path class="cls-1" d="M642.73,56.8H639.1a.33.33,0,0,1-.26-.13.32.32,0,0,1-.07-.28l.67-3a.34.34,0,0,1,.33-.26H643a.32.32,0,0,1,.24.11.3.3,0,0,1,.09.25l-.24,3A.35.35,0,0,1,642.73,56.8Zm-3.21-.67h2.91l.18-2.29H640Z"/><path class="cls-1" d="M649.68,62.77h-4.07V59.2h3.77Zm-3.62-.45h3.13L649,59.64h-2.92Z"/><path class="cls-1" d="M649.44,62.88h-3.61a.34.34,0,0,1-.33-.34V59.42a.34.34,0,0,1,.33-.34h3.35a.34.34,0,0,1,.33.31l.26,3.13a.3.3,0,0,1-.09.25A.32.32,0,0,1,649.44,62.88Zm-3.27-.67h2.9l-.2-2.46h-2.7Z"/><path class="cls-1" d="M643.18,53.73h-3.69l.81-3.57h3.17Zm-3.13-.45h2.72L643,50.6h-2.33Z"/><path class="cls-1" d="M643,53.84h-3.21a.33.33,0,0,1-.26-.13.31.31,0,0,1-.07-.28l.71-3.12a.34.34,0,0,1,.33-.27h2.75a.33.33,0,0,1,.25.11.35.35,0,0,1,.08.26l-.25,3.12A.33.33,0,0,1,643,53.84Zm-2.79-.67h2.48l.2-2.46h-2.12Z"/><path class="cls-1" d="M653.52,59.64H649l-.28-3.4h4Zm-4.14-.44H653l-.57-2.52h-3.21Z"/><path class="cls-1" d="M653.24,59.75h-4.06a.34.34,0,0,1-.34-.31l-.24-2.95a.3.3,0,0,1,.09-.25.31.31,0,0,1,.25-.11h3.63a.33.33,0,0,1,.33.26l.67,3a.34.34,0,0,1-.07.29A.32.32,0,0,1,653.24,59.75Zm-3.75-.67h3.33l-.52-2.28h-3Z"/><path class="cls-1" d="M654.23,62.77h-5l-.29-3.57h4.48Zm-4.59-.45h4l-.61-2.68h-3.64Z"/><path class="cls-1" d="M654,62.88h-4.51a.34.34,0,0,1-.34-.31l-.25-3.12a.34.34,0,0,1,.08-.26.33.33,0,0,1,.25-.11h4.06a.34.34,0,0,1,.33.27l.71,3.12a.32.32,0,0,1-.07.28A.33.33,0,0,1,654,62.88Zm-4.21-.67h3.79L653,59.75h-3.43Z"/><path class="cls-1" d="M642.69,59.64h-4.54l.77-3.4H643Zm-4-.44h3.58l.2-2.52h-3.21Z"/><path class="cls-1" d="M642.49,59.75h-4.06a.33.33,0,0,1-.26-.13.31.31,0,0,1-.07-.28l.67-3a.33.33,0,0,1,.33-.26h3.63a.33.33,0,0,1,.25.11.3.3,0,0,1,.09.25l-.25,3A.32.32,0,0,1,642.49,59.75Zm-3.64-.67h3.33l.19-2.28h-3Z"/><path class="cls-1" d="M646.06,62.77H642l.3-3.57h3.77Zm-3.58-.45h3.13V59.64h-2.92Z"/><path class="cls-1" d="M645.83,62.88h-3.6a.34.34,0,0,1-.33-.37l.26-3.12a.34.34,0,0,1,.33-.31h3.34a.34.34,0,0,1,.34.34v3.12A.34.34,0,0,1,645.83,62.88Zm-3.23-.67h2.9V59.75h-2.7Z"/><path class="cls-1" d="M642.44,62.77h-5l.81-3.57h4.48ZM638,62.32h4l.22-2.68h-3.64Z"/><path class="cls-1" d="M642.23,62.88h-4.51a.33.33,0,0,1-.26-.13.35.35,0,0,1-.07-.28l.71-3.13a.34.34,0,0,1,.33-.26h4.06a.36.36,0,0,1,.25.11.35.35,0,0,1,.08.26l-.25,3.12A.35.35,0,0,1,642.23,62.88Zm-4.09-.67h3.79l.2-2.46H638.7Z"/><rect class="cls-1" x="645.61" y="62.54" width="0.44" height="3.01"/><path class="cls-1" d="M645.83,65.89a.34.34,0,0,1-.33-.34v-3a.34.34,0,0,1,.67,0v3A.34.34,0,0,1,645.83,65.89Z"/><path class="cls-1" d="M649.78,68.34V67.9a.11.11,0,0,0-.1.11V65.66H642V66h-.44v-.46a.34.34,0,0,1,.34-.33h7.89a.34.34,0,0,1,.34.33V68A.34.34,0,0,1,649.78,68.34Z"/></g></svg>