<svg xmlns="http://www.w3.org/2000/svg" viewBox="0 0 42.66 44.71"><defs><style>.cls-1{fill:#488e41;}</style></defs><g id="Economic_Opportunities_Image" data-name="Economic Opportunities Image"><path class="cls-1" d="M21.3,38.17a16.66,16.66,0,1,1,0-33.32,16.66,16.66,0,1,1,0,33.32Zm-13.1-8a15.81,15.81,0,1,0-2.32-5.69A15.73,15.73,0,0,0,8.2,30.22"/><path class="cls-1" d="M38.64,33.62a.5.5,0,0,1-.26-.08.48.48,0,0,1-.13-.65A19.93,19.93,0,0,0,40.65,28a20.36,20.36,0,0,0,1-8,.46.46,0,0,1,.43-.5.47.47,0,0,1,.5.43A21.42,21.42,0,0,1,39,33.41.48.48,0,0,1,38.64,33.62Z"/><path class="cls-1" d="M37.11,8.31a.48.48,0,0,1-.36-.16,20.68,20.68,0,0,0-4-3.59.45.45,0,0,1-.13-.64.46.46,0,0,1,.64-.13,21.41,21.41,0,0,1,4.25,3.75.48.48,0,0,1-.05.66A.5.5,0,0,1,37.11,8.31Z"/><path class="cls-1" d="M9,5.14A.47.47,0,0,1,8.58,5a.46.46,0,0,1,.09-.65A21.47,21.47,0,0,1,25.8.63a.48.48,0,0,1,.36.56.47.47,0,0,1-.55.36,20.12,20.12,0,0,0-7.38-.22,20.34,20.34,0,0,0-9,3.72A.49.49,0,0,1,9,5.14Z"/><path class="cls-1" d="M.66,18.88H.59a.46.46,0,0,1-.39-.53A21.11,21.11,0,0,1,3.59,9.6a.47.47,0,0,1,.78.52,20.24,20.24,0,0,0-3.25,8.37A.47.47,0,0,1,.66,18.88Z"/><path class="cls-1" d="M9.67,39.3a.42.42,0,0,1-.26-.08A21.35,21.35,0,0,1,0,22.73a.47.47,0,0,1,.44-.5.47.47,0,0,1,.49.44,20.38,20.38,0,0,0,9,15.78.46.46,0,0,1,.12.65A.46.46,0,0,1,9.67,39.3Z"/><path class="cls-1" d="M21.29,42.85c-.75,0-1.49,0-2.24-.11a21.14,21.14,0,0,1-4.71-1.06.46.46,0,0,1-.29-.59.47.47,0,0,1,.59-.29,20,20,0,0,0,4.51,1,21.17,21.17,0,0,0,3.9,0,.47.47,0,0,1,.51.42.46.46,0,0,1-.43.5C22.52,42.83,21.91,42.85,21.29,42.85Z"/><path class="cls-1" d="M29.48,41.19a.48.48,0,0,1-.43-.28.46.46,0,0,1,.25-.61,20.56,20.56,0,0,0,3.91-2.2.47.47,0,1,1,.55.75,21.13,21.13,0,0,1-4.1,2.3A.39.39,0,0,1,29.48,41.19Z"/></g></svg>