<svg xmlns="http://www.w3.org/2000/svg" viewBox="0 0 44.13 36.59"><defs><style>.cls-1{fill:#4d4e50;}.cls-2{fill:#ee8122;}</style></defs><g id="Layer_3" data-name="Layer 3"><path class="cls-1" d="M4.43,27.59A1.84,1.84,0,0,1,3,27a2.35,2.35,0,0,1-.51-1.62A2.41,2.41,0,0,1,3,23.73a1.84,1.84,0,0,1,1.47-.58,3.26,3.26,0,0,1,.62.06,2,2,0,0,1,.48.16l-.19.55a3.23,3.23,0,0,0-.47-.14,2,2,0,0,0-.45-.06c-.87,0-1.31.56-1.31,1.67a2,2,0,0,0,.32,1.21,1.11,1.11,0,0,0,.94.42,2.93,2.93,0,0,0,1.1-.23v.57A2.3,2.3,0,0,1,4.43,27.59Z"/><path class="cls-1" d="M7.18,27.51H6.53V21.43h.65Z"/><path class="cls-1" d="M11.18,27.51l-.13-.61h0a1.64,1.64,0,0,1-.64.54,1.82,1.82,0,0,1-.79.15,1.44,1.44,0,0,1-1-.33,1.21,1.21,0,0,1-.36-.94c0-.86.69-1.31,2.07-1.36l.73,0v-.26a1.07,1.07,0,0,0-.22-.75.87.87,0,0,0-.69-.24A2.8,2.8,0,0,0,8.91,24l-.2-.5a3.54,3.54,0,0,1,.69-.27,3.35,3.35,0,0,1,.76-.09,1.64,1.64,0,0,1,1.14.34,1.43,1.43,0,0,1,.36,1.09v2.92Zm-1.46-.46a1.32,1.32,0,0,0,.95-.33,1.23,1.23,0,0,0,.35-.93V25.4l-.65,0a2.42,2.42,0,0,0-1.12.24.71.71,0,0,0-.34.66.69.69,0,0,0,.21.54A.91.91,0,0,0,9.72,27.05Z"/><path class="cls-1" d="M15.76,26.34a1.08,1.08,0,0,1-.44.92,2.09,2.09,0,0,1-1.25.33,2.72,2.72,0,0,1-1.33-.27v-.61a2.74,2.74,0,0,0,.66.25,2.77,2.77,0,0,0,.68.09,1.51,1.51,0,0,0,.78-.16.53.53,0,0,0,.28-.5.54.54,0,0,0-.22-.42,3.26,3.26,0,0,0-.85-.42,5.12,5.12,0,0,1-.85-.39,1.21,1.21,0,0,1-.37-.38,1,1,0,0,1-.12-.5,1,1,0,0,1,.42-.83,2,2,0,0,1,1.17-.3,3.37,3.37,0,0,1,1.35.28l-.23.53a3.07,3.07,0,0,0-1.17-.27,1.29,1.29,0,0,0-.69.15.43.43,0,0,0-.24.39.49.49,0,0,0,.09.3.91.91,0,0,0,.29.23,5.76,5.76,0,0,0,.75.31,2.77,2.77,0,0,1,1,.56A1,1,0,0,1,15.76,26.34Z"/><path class="cls-1" d="M19.58,26.34a1.07,1.07,0,0,1-.45.92,2,2,0,0,1-1.25.33,2.72,2.72,0,0,1-1.33-.27v-.61a3,3,0,0,0,.67.25,2.71,2.71,0,0,0,.68.09,1.51,1.51,0,0,0,.78-.16.54.54,0,0,0,.27-.5.53.53,0,0,0-.21-.42,3.44,3.44,0,0,0-.85-.42,4.75,4.75,0,0,1-.85-.39,1.11,1.11,0,0,1-.37-.38.91.91,0,0,1-.13-.5,1,1,0,0,1,.43-.83,2,2,0,0,1,1.17-.3,3.37,3.37,0,0,1,1.35.28l-.23.53a3.07,3.07,0,0,0-1.17-.27,1.32,1.32,0,0,0-.7.15.43.43,0,0,0-.23.39.49.49,0,0,0,.09.3,1,1,0,0,0,.28.23,5.76,5.76,0,0,0,.75.31,2.84,2.84,0,0,1,1,.56A1,1,0,0,1,19.58,26.34Z"/><path class="cls-1" d="M22.59,23.15a2.64,2.64,0,0,1,.51,0L23,23.8a2.23,2.23,0,0,0-.47-.06,1.15,1.15,0,0,0-.89.42,1.51,1.51,0,0,0-.37,1.05v2.3h-.65V23.23h.54l.07.79h0a1.94,1.94,0,0,1,.58-.65A1.29,1.29,0,0,1,22.59,23.15Z"/><path class="cls-1" d="M27.59,25.36A2.37,2.37,0,0,1,27.07,27a1.87,1.87,0,0,1-1.46.59,1.94,1.94,0,0,1-1-.27,1.75,1.75,0,0,1-.69-.78,2.7,2.7,0,0,1-.24-1.18,2.35,2.35,0,0,1,.52-1.63,1.86,1.86,0,0,1,1.46-.58,1.79,1.79,0,0,1,1.42.6A2.28,2.28,0,0,1,27.59,25.36Zm-3.26,0a2,2,0,0,0,.33,1.25,1.3,1.3,0,0,0,1.93,0,2,2,0,0,0,.33-1.25,2,2,0,0,0-.33-1.24,1.15,1.15,0,0,0-1-.42,1.12,1.12,0,0,0-1,.42A2,2,0,0,0,24.33,25.36Z"/><path class="cls-1" d="M32.43,25.36A2.38,2.38,0,0,1,31.9,27a1.87,1.87,0,0,1-1.46.59,1.94,1.94,0,0,1-1-.27,1.88,1.88,0,0,1-.69-.78,2.7,2.7,0,0,1-.24-1.18A2.35,2.35,0,0,1,29,23.73a1.84,1.84,0,0,1,1.45-.58,1.82,1.82,0,0,1,1.43.6A2.33,2.33,0,0,1,32.43,25.36Zm-3.27,0a2,2,0,0,0,.33,1.25,1.3,1.3,0,0,0,1.93,0,2,2,0,0,0,.33-1.25,2,2,0,0,0-.33-1.24,1.32,1.32,0,0,0-1.93,0A2,2,0,0,0,29.16,25.36Z"/><path class="cls-1" d="M39,27.51V24.72A1.14,1.14,0,0,0,38.8,24a.85.85,0,0,0-.68-.25,1.07,1.07,0,0,0-.89.35,1.59,1.59,0,0,0-.29,1.07v2.39h-.65V24.72a1.14,1.14,0,0,0-.22-.77.85.85,0,0,0-.68-.25,1.08,1.08,0,0,0-.9.36,2,2,0,0,0-.28,1.2v2.25h-.65V23.23h.53l.11.58h0a1.27,1.27,0,0,1,.51-.49,1.72,1.72,0,0,1,.75-.17,1.26,1.26,0,0,1,1.31.72h0a1.34,1.34,0,0,1,.55-.53,1.72,1.72,0,0,1,.83-.19,1.45,1.45,0,0,1,1.09.37,1.68,1.68,0,0,1,.36,1.19v2.8Z"/><path class="cls-1" d="M43.77,26.34a1.07,1.07,0,0,1-.45.92,2.06,2.06,0,0,1-1.25.33,2.72,2.72,0,0,1-1.33-.27v-.61a3.09,3.09,0,0,0,.66.25,2.84,2.84,0,0,0,.69.09,1.54,1.54,0,0,0,.78-.16.54.54,0,0,0,.27-.5.51.51,0,0,0-.22-.42,3.15,3.15,0,0,0-.84-.42,4.75,4.75,0,0,1-.85-.39,1.25,1.25,0,0,1-.38-.38,1,1,0,0,1-.12-.5,1,1,0,0,1,.43-.83,2,2,0,0,1,1.16-.3,3.38,3.38,0,0,1,1.36.28l-.23.53a3.07,3.07,0,0,0-1.17-.27,1.32,1.32,0,0,0-.7.15.43.43,0,0,0-.23.39.49.49,0,0,0,.09.3.86.86,0,0,0,.28.23,5.76,5.76,0,0,0,.75.31,2.84,2.84,0,0,1,1,.56A1,1,0,0,1,43.77,26.34Z"/><path class="cls-1" d="M2.14,36.59A1.84,1.84,0,0,1,.7,36a2.35,2.35,0,0,1-.51-1.62,2.41,2.41,0,0,1,.52-1.66,1.86,1.86,0,0,1,1.47-.58,3.18,3.18,0,0,1,.62.06,2.34,2.34,0,0,1,.49.16l-.2.55a3.23,3.23,0,0,0-.47-.14,2,2,0,0,0-.45-.06c-.87,0-1.31.56-1.31,1.67a2,2,0,0,0,.32,1.21,1.12,1.12,0,0,0,1,.42,2.92,2.92,0,0,0,1.09-.23v.57A2.28,2.28,0,0,1,2.14,36.59Z"/><path class="cls-1" d="M7.93,34.36A2.37,2.37,0,0,1,7.41,36,1.88,1.88,0,0,1,6,36.59a1.94,1.94,0,0,1-1-.27,1.75,1.75,0,0,1-.69-.78A2.7,2.7,0,0,1,4,34.36a2.35,2.35,0,0,1,.52-1.63A1.86,1.86,0,0,1,6,32.15a1.79,1.79,0,0,1,1.42.6A2.28,2.28,0,0,1,7.93,34.36Zm-3.26,0A2,2,0,0,0,5,35.61,1.13,1.13,0,0,0,6,36a1.13,1.13,0,0,0,1-.43,2.51,2.51,0,0,0,0-2.49,1.15,1.15,0,0,0-1-.42,1.12,1.12,0,0,0-1,.42A2,2,0,0,0,4.67,34.36Z"/><path class="cls-1" d="M12,36.51V33.74a1.1,1.1,0,0,0-.24-.78A.94.94,0,0,0,11,32.7a1.25,1.25,0,0,0-1,.36,1.82,1.82,0,0,0-.31,1.2v2.25H9.07V32.23H9.6l.1.58h0a1.41,1.41,0,0,1,.56-.49,1.91,1.91,0,0,1,.8-.17,1.63,1.63,0,0,1,1.17.37,1.59,1.59,0,0,1,.39,1.19v2.8Z"/><path class="cls-1" d="M16.74,35.34a1.08,1.08,0,0,1-.44.92,2.09,2.09,0,0,1-1.25.33,2.72,2.72,0,0,1-1.33-.27v-.61a2.74,2.74,0,0,0,.66.25,2.77,2.77,0,0,0,.68.09,1.51,1.51,0,0,0,.78-.16.53.53,0,0,0,.28-.5A.51.51,0,0,0,15.9,35a3.26,3.26,0,0,0-.85-.42,4.57,4.57,0,0,1-.84-.39,1.15,1.15,0,0,1-.38-.38,1,1,0,0,1-.12-.5,1,1,0,0,1,.42-.83,2,2,0,0,1,1.17-.3,3.37,3.37,0,0,1,1.35.28l-.23.53a3.07,3.07,0,0,0-1.17-.27,1.31,1.31,0,0,0-.69.15.43.43,0,0,0-.24.39.49.49,0,0,0,.09.3.91.91,0,0,0,.29.23,5.76,5.76,0,0,0,.75.31,2.77,2.77,0,0,1,1,.56A1,1,0,0,1,16.74,35.34Z"/><path class="cls-1" d="M19.18,36.05a1.76,1.76,0,0,0,.33,0,1.33,1.33,0,0,0,.26-.05v.5a1.37,1.37,0,0,1-.31.08,2.76,2.76,0,0,1-.37,0c-.83,0-1.25-.44-1.25-1.31V32.73h-.61v-.31l.61-.27.28-.92h.37v1h1.24v.5H18.49v2.52a.82.82,0,0,0,.19.59A.63.63,0,0,0,19.18,36.05Z"/><path class="cls-1" d="M22.57,32.15a2.75,2.75,0,0,1,.52,0L23,32.8a2.23,2.23,0,0,0-.47-.06,1.13,1.13,0,0,0-.89.42,1.51,1.51,0,0,0-.37,1.05v2.3h-.65V32.23h.54l.07.79h0a1.94,1.94,0,0,1,.58-.65A1.28,1.28,0,0,1,22.57,32.15Z"/><path class="cls-1" d="M24.5,32.23V35a1.15,1.15,0,0,0,.23.78,1,1,0,0,0,.75.26,1.21,1.21,0,0,0,1-.36,1.86,1.86,0,0,0,.31-1.2V32.23h.65v4.28h-.53l-.1-.58h0a1.31,1.31,0,0,1-.55.49,1.92,1.92,0,0,1-.81.17,1.63,1.63,0,0,1-1.17-.38A1.55,1.55,0,0,1,23.84,35v-2.8Z"/><path class="cls-1" d="M30.51,36.59A1.84,1.84,0,0,1,29.07,36a2.35,2.35,0,0,1-.51-1.62,2.41,2.41,0,0,1,.52-1.66,1.84,1.84,0,0,1,1.47-.58,3.26,3.26,0,0,1,.62.06,2.22,2.22,0,0,1,.48.16l-.2.55a2.89,2.89,0,0,0-.47-.14,1.92,1.92,0,0,0-.44-.06c-.87,0-1.31.56-1.31,1.67a2,2,0,0,0,.32,1.21,1.11,1.11,0,0,0,.94.42,2.93,2.93,0,0,0,1.1-.23v.57A2.33,2.33,0,0,1,30.51,36.59Z"/><path class="cls-1" d="M34,36.05l.33,0a1.09,1.09,0,0,0,.25-.05v.5a1.23,1.23,0,0,1-.31.08,2.6,2.6,0,0,1-.37,0c-.82,0-1.24-.44-1.24-1.31V32.73H32v-.31l.61-.27.28-.92h.37v1h1.24v.5H33.3v2.52a.87.87,0,0,0,.18.59A.66.66,0,0,0,34,36.05Z"/><path class="cls-1" d="M37.24,36.59a2,2,0,0,1-1.5-.58,2.28,2.28,0,0,1-.55-1.61,2.46,2.46,0,0,1,.51-1.64,1.69,1.69,0,0,1,1.37-.61,1.58,1.58,0,0,1,1.27.53,2,2,0,0,1,.47,1.39v.41h-3a1.74,1.74,0,0,0,.38,1.15,1.32,1.32,0,0,0,1,.39,3.51,3.51,0,0,0,1.37-.29v.58a3.25,3.25,0,0,1-.65.21A3.88,3.88,0,0,1,37.24,36.59Zm-.18-3.9a1.05,1.05,0,0,0-.82.34,1.58,1.58,0,0,0-.36.93h2.24a1.37,1.37,0,0,0-.28-.94A1,1,0,0,0,37.06,32.69Z"/><path class="cls-1" d="M42.83,35.93h0a1.53,1.53,0,0,1-1.35.66,1.59,1.59,0,0,1-1.3-.58,2.53,2.53,0,0,1-.47-1.63,2.59,2.59,0,0,1,.47-1.65,1.74,1.74,0,0,1,2.64.05h.05l0-.31v-2h.65v6.08h-.53ZM41.54,36a1.18,1.18,0,0,0,1-.36,1.82,1.82,0,0,0,.3-1.17v-.13a2.09,2.09,0,0,0-.31-1.3,1.13,1.13,0,0,0-1-.39,1,1,0,0,0-.88.44,2.26,2.26,0,0,0-.3,1.26,2.09,2.09,0,0,0,.3,1.23A1,1,0,0,0,41.54,36Z"/><path class="cls-2" d="M3.85,10.58c0-3.51.69-6.13,2.05-7.87A7.21,7.21,0,0,1,12,.1a8.24,8.24,0,0,1,2.17.23V2.08A7.07,7.07,0,0,0,12,1.78,5.42,5.42,0,0,0,7.59,3.56Q6.08,5.36,5.93,9.18h.15a4.68,4.68,0,0,1,4.24-2.09,5,5,0,0,1,3.79,1.45,5.45,5.45,0,0,1,1.39,3.94A6.11,6.11,0,0,1,14,16.86a5.41,5.41,0,0,1-4.11,1.59,5.26,5.26,0,0,1-4.39-2.08A9.17,9.17,0,0,1,3.85,10.58Zm6,6.15a3.42,3.42,0,0,0,2.69-1.09,4.65,4.65,0,0,0,1-3.16,4.07,4.07,0,0,0-.89-2.78,3.37,3.37,0,0,0-2.67-1,4.5,4.5,0,0,0-2,.46,3.69,3.69,0,0,0-1.46,1.24A2.9,2.9,0,0,0,5.93,12a5.55,5.55,0,0,0,.49,2.34A4,4,0,0,0,7.8,16.09,3.42,3.42,0,0,0,9.85,16.73Z"/><path class="cls-2" d="M29,4.56a4,4,0,0,1-1,2.79,4.8,4.8,0,0,1-2.71,1.46V8.9a5.11,5.11,0,0,1,3.18,1.37,4,4,0,0,1,1,2.88,4.69,4.69,0,0,1-1.77,3.93,8.09,8.09,0,0,1-5,1.37,14.76,14.76,0,0,1-2.59-.21,9.45,9.45,0,0,1-2.29-.75V15.56a11.74,11.74,0,0,0,4.95,1.17q4.63,0,4.63-3.63,0-3.24-5.1-3.24H20.59V8.11h1.78a5.4,5.4,0,0,0,3.31-.92A3,3,0,0,0,26.9,4.63a2.52,2.52,0,0,0-.9-2,3.66,3.66,0,0,0-2.43-.74,7.57,7.57,0,0,0-2.21.31A10.37,10.37,0,0,0,19,3.33L18,2A8.41,8.41,0,0,1,20.5.6a9.15,9.15,0,0,1,3-.5,6.2,6.2,0,0,1,4,1.19A4,4,0,0,1,29,4.56Z"/><path class="cls-2" d="M37.81,7.31A6.58,6.58,0,0,1,42.25,8.7a4.79,4.79,0,0,1,1.62,3.83,5.52,5.52,0,0,1-1.77,4.35,7,7,0,0,1-4.86,1.57,9,9,0,0,1-4.6-1v-2a6.76,6.76,0,0,0,2.12.86,10.37,10.37,0,0,0,2.5.31,5,5,0,0,0,3.34-1,3.6,3.6,0,0,0,1.19-2.93Q41.79,9,37.22,9a17.83,17.83,0,0,0-3.11.35l-1-.67L33.74.36h8.87V2.23H35.47L35,7.59A14,14,0,0,1,37.81,7.31Z"/></g></svg>