<svg xmlns="http://www.w3.org/2000/svg" viewBox="0 0 852.11 126.09"><defs><style>.cls-1{fill:#fff;}.cls-2{fill:#ee8122;}</style></defs><g id="Economic_Opportunities_Image" data-name="Economic Opportunities Image"><rect class="cls-1" x="269.38" y="7.27" width="51.78" height="118.46"/><path class="cls-2" d="M321.64,126.2H268.91V6.79h52.73Zm-51.78-1h50.83V7.74H269.86Z"/><rect class="cls-1" x="273.8" y="36.31" width="42.31" height="5.05"/><path class="cls-2" d="M316.59,41.84H273.33v-6h43.26Zm-42.31-1h41.36v-4.1H274.28Z"/><rect class="cls-1" x="273.8" y="47.05" width="42.31" height="5.05"/><path class="cls-2" d="M316.59,52.58H273.33v-6h43.26Zm-42.31-.95h41.36V47.52H274.28Z"/><rect class="cls-1" x="273.8" y="57.15" width="42.31" height="5.05"/><path class="cls-2" d="M316.59,62.68H273.33v-6h43.26Zm-42.31-1h41.36v-4.1H274.28Z"/><rect class="cls-1" x="273.8" y="67.89" width="42.31" height="5.05"/><path class="cls-2" d="M316.59,73.42H273.33v-6h43.26Zm-42.31-1h41.36V68.36H274.28Z"/><rect class="cls-1" x="273.8" y="78.63" width="42.31" height="5.05"/><path class="cls-2" d="M316.59,84.15H273.33v-6h43.26Zm-42.31-1h41.36V79.1H274.28Z"/><path class="cls-2" d="M305.43,22.54A9.74,9.74,0,1,1,286,22.36a9.74,9.74,0,0,1,19.48.18ZM302,16V28.53a1.31,1.31,0,0,1,0,.28c0,.05-.07.13-.11.13h-1V15.81h1A10.83,10.83,0,1,0,302,16Z"/><path class="cls-2" d="M295,26.79a9.7,9.7,0,0,1-.62,1.2,3.08,3.08,0,0,1-2.11,1.34A3.43,3.43,0,0,1,290,29a3.51,3.51,0,0,1-1.56-1.58,5.34,5.34,0,0,1-.43-3.2,8.85,8.85,0,0,1,.87-2.63l1.37,1.06a.27.27,0,0,1,.08-.07c-.07-.13-.12-.25-.19-.37a10.14,10.14,0,0,1-1.09-2.5,4,4,0,0,1,.42-3.28,2.54,2.54,0,0,1,2-1.14,2.88,2.88,0,0,1,2.6,1,4.71,4.71,0,0,1,.9,1.95V15.85h1.13c0,.1,0,.2,0,.3,0,4.16,0,8.32,0,12.48,0,.26-.07.36-.33.33s-.6.06-.75-.08-.05-.48-.06-.73Zm-.75-7.37c-.07-.32-.13-.63-.22-.93a3.12,3.12,0,0,0-1.32-1.94,1.61,1.61,0,0,0-2.38.65,2.56,2.56,0,0,0-.06,1.94,15.26,15.26,0,0,0,.92,2.12c.52,1,1.12,2,1.67,3a4.09,4.09,0,0,1,.51,1.64,1.67,1.67,0,0,1-2.13,1.86,2.11,2.11,0,0,1-1.3-1.11,3.69,3.69,0,0,1-.44-2c0-.59.12-1.17.18-1.72a4.42,4.42,0,0,0-.48,1.49,3.56,3.56,0,0,0,.71,2.87,2.17,2.17,0,0,0,3.78-2.07,9.75,9.75,0,0,0-1.07-2.29c-.55-1-1.11-2-1.63-3a4.35,4.35,0,0,1-.48-2,1.32,1.32,0,0,1,.8-1.26,1.34,1.34,0,0,1,1.46.4,4.25,4.25,0,0,1,1,2.59.28.28,0,0,1-.07.17c-.22.28-.45.54-.69.83-.08-.39-.14-.77-.25-1.14a12.3,12.3,0,0,0-.51-1.48c0-.11-.24-.16-.37-.23a1,1,0,0,0-.17.44,2.1,2.1,0,0,0,.14.64,15.1,15.1,0,0,0,1.37,2.57c.45.79.89,1.59,1.31,2.4A8.9,8.9,0,0,1,295,25V19.09Zm-3.34,4.09-.08,0a3.41,3.41,0,0,0,.29,2.72.65.65,0,0,0,.76.33c.23-.11.32-.41.22-.79a.11.11,0,0,1,0-.05c-.23-.48-.43-.95-.67-1.42C291.25,24,291.06,23.78,290.89,23.51Z"/><path class="cls-2" d="M299.42,25.31c-.21.29-.37.53-.55.75a.44.44,0,0,1-.72,0,4.6,4.6,0,0,1-.32-.45,1,1,0,0,0-.2-.21V29c-.35,0-.67,0-1,0a.26.26,0,0,1-.12-.13.37.37,0,0,1,0-.15V20.12a.36.36,0,0,1,.06-.21c0,.22.1.43.14.65a9,9,0,0,0,.93,3,3,3,0,0,0,.57.67.47.47,0,0,0,.65,0,2.32,2.32,0,0,0,.76-1.12c.33-1,.6-2.06.88-3.11v8.67c0,.34,0,.34-.36.35-.72,0-.72,0-.72-.71V25.31Z"/><path class="cls-2" d="M299.83,15.84h.81l-.06.83a27.71,27.71,0,0,1-.62,4c-.21.81-.53,1.6-.82,2.4a1.48,1.48,0,0,1-.35.49c-.21.24-.45.22-.64-.09a4.24,4.24,0,0,1-.55-1.08,26.61,26.61,0,0,1-.79-3c-.21-1.14-.28-2.31-.41-3.46a.58.58,0,0,1,0-.1h.76c.08.56.12,1.13.24,1.68.24,1.17.51,2.33.78,3.49a1.46,1.46,0,0,0,.18.45c.08.17.2.17.26,0a8.5,8.5,0,0,0,.4-1.17c.21-.9.4-1.81.57-2.71C299.71,17,299.76,16.43,299.83,15.84Z"/><path class="cls-2" d="M833.33,105a15.92,15.92,0,0,1-7.86-2.24c-1.8.89-12.63,5.77-18.53-2.49h0A13.88,13.88,0,0,1,804,87.19c-1.29-1-6.34-5.61-5.45-12.7,0-.22.37-6.28,4.63-9.77,2.37-1.94,5.47-2.69,9.21-2.21.64-2,3.88-10.17,13.25-9.78.1,0,10,.53,12.28,10,2.2.08,12.42,1.07,13.94,12.75,0,.12,1.16,10.6-5.68,12.22a16.9,16.9,0,0,1,.47,2.85h0c.26,3.36-.36,8-4.82,11.28A12.55,12.55,0,0,1,833.33,105Zm-7.84-3.38.24.14c9.38,5.41,15.39-.68,15.44-.75a11.23,11.23,0,0,0,4.49-10.45,15.26,15.26,0,0,0-.58-3.16l-.19-.56.58-.09c6.5-1,5.41-11.11,5.4-11.22C849.29,63.46,838,63.69,837.54,63.7h-.42L837,63.3c-2-9-11.06-9.55-11.44-9.57-9.86-.39-12.27,9.05-12.37,9.45l-.11.44-.45-.07c-3.64-.54-6.62.11-8.85,1.94-3.92,3.2-4.28,9-4.28,9.08-.92,7.4,5.27,12,5.33,12l.29.21-.11.35a12.87,12.87,0,0,0,2.65,12.5c6,8.33,17.42,2.2,17.54,2.13Z"/><rect class="cls-2" x="824.98" y="79.25" width="1" height="46.83"/><polygon class="cls-2" points="825.34 92.53 817.39 85.02 818.07 84.29 825.35 91.17 832.06 84.98 832.74 85.71 825.34 92.53"/><path class="cls-2" d="M78.69,52.86V45h54.94v7.89Zm1-7v6l53.05,0v-6Z"/><path class="cls-2" d="M52.35,126.12V119.8l106.57,0v6.31Zm.94-5.37v4.42l104.68,0v-4.42Z"/><path class="cls-2" d="M81.08,120.58l0-68.67,50.05,0,0,68.68ZM82,52.85l0,66.79,48.15,0,0-66.78Z"/><path class="cls-2" d="M58.17,78.12V71h24v7.11ZM59.12,72v5.21H81.23V72Z"/><path class="cls-2" d="M61.19,120.75l0-43.42h21v43.41Zm.93-42.47V119.8H81.24V78.27Z"/><path class="cls-2" d="M58.17,78.12V71h24v7.11ZM59.12,72v5.21H81.23V72Z"/><path class="cls-2" d="M61.19,120.75l0-43.42h21v43.41Zm.93-42.47V119.8H81.24V78.27Z"/><path class="cls-2" d="M130.33,78.1V71h24V78.1Zm.94-6.16v5.21h22.11V71.94Z"/><path class="cls-2" d="M130.34,120.73V77.31h21v43.41Zm.93-42.47,0,41.52h19.1V78.25Z"/><path class="cls-2" d="M86.51,77.64V63H96.69V77.64Zm.95-13.74V76.69h8.29V63.9Z"/><path class="cls-2" d="M101,77.64V63h10.18V77.63Zm.94-13.74V76.69h8.29V63.9Z"/><path class="cls-2" d="M115.17,77.63V63h10.19V77.63Zm.94-13.73V76.69h8.28V63.89Z"/><path class="cls-2" d="M86.52,95.16V80.48H96.7V95.16Zm.94-13.73V94.22h8.28V81.43Z"/><path class="cls-2" d="M101,95.16V80.48h10.18V95.16Zm1-13.73V94.21h8.29V81.42Z"/><path class="cls-2" d="M96,120V99.66h10.19V120Zm.94-19.42v18.47h8.29V100.61Z"/><path class="cls-2" d="M105.47,120V99.66h10.18V120Zm.94-19.42v18.47h8.29V100.6Z"/><path class="cls-2" d="M115.17,95.16V80.47h10.18V95.15Zm1-13.74V94.21h8.29V81.42Z"/><path class="cls-2" d="M67.81,90.67V82.38H76.1v8.29Zm.94-7.34v6.39h6.39V83.33Z"/><path class="cls-2" d="M67.81,101.8V93.51H76.1v8.29Zm1-7.34v6.39h6.39V94.46Z"/><path class="cls-2" d="M67.81,113.17v-8.29H76.1v8.29Zm1-7.34v6.39h6.4v-6.4Z"/><path class="cls-2" d="M136.49,90.65V82.36h8.29v8.29Zm.94-7.34V89.7h6.4V83.31Z"/><path class="cls-2" d="M136.49,101.78V93.49h8.29v8.29Zm.95-7.34v6.4h6.39V94.44Z"/><path class="cls-2" d="M136.49,113.15v-8.29h8.29v8.29Zm.95-7.34v6.39h6.39v-6.39Z"/><rect class="cls-1" x="709.34" y="0.56" width="54.67" height="125"/><path class="cls-2" d="M764.51,126.06H708.84V.06h55.67Zm-54.67-1h53.67V1.06H709.84Z"/><rect class="cls-1" x="714.01" y="31.23" width="44.67" height="5.33"/><path class="cls-2" d="M759.17,37.06H713.51V30.73h45.66Zm-44.66-1h43.66V31.73H714.51Z"/><rect class="cls-1" x="714.01" y="42.56" width="44.67" height="5.33"/><path class="cls-2" d="M759.17,48.4H713.51V42.06h45.66Zm-44.66-1h43.66V43.06H714.51Z"/><rect class="cls-1" x="714.01" y="53.23" width="44.67" height="5.33"/><path class="cls-2" d="M759.17,59.06H713.51V52.73h45.66Zm-44.66-1h43.66V53.73H714.51Z"/><rect class="cls-1" x="714.01" y="64.56" width="44.67" height="5.33"/><path class="cls-2" d="M759.17,70.4H713.51V64.06h45.66Zm-44.66-1h43.66V65.06H714.51Z"/><rect class="cls-1" x="714.01" y="75.9" width="44.67" height="5.33"/><path class="cls-2" d="M759.17,81.73H713.51V75.4h45.66Zm-44.66-1h43.66V76.4H714.51Z"/><rect class="cls-1" x="764.68" y="29.9" width="51.33" height="95.67"/><path class="cls-2" d="M816.51,126.06H764.17V29.4h52.34Zm-51.34-1h50.34V30.4H765.17Z"/><rect class="cls-1" x="773.34" y="41.9" width="14.67" height="9.33"/><path class="cls-2" d="M788.51,51.73H772.84V41.4h15.67Zm-14.67-1h13.67V42.4H773.84Z"/><rect class="cls-1" x="794.01" y="41.9" width="14.67" height="9.33"/><path class="cls-2" d="M809.17,51.73H793.51V41.4h15.66Zm-14.66-1h13.66V42.4H794.51Z"/><rect class="cls-1" x="773.34" y="57.23" width="14.67" height="9.33"/><path class="cls-2" d="M788.51,67.06H772.84V56.73h15.67Zm-14.67-1h13.67V57.73H773.84Z"/><rect class="cls-1" x="794.01" y="57.23" width="14.67" height="9.33"/><path class="cls-2" d="M809.17,67.06H793.51V56.73h15.66Zm-14.66-1h13.66V57.73H794.51Z"/><rect class="cls-1" x="773.34" y="71.23" width="14.67" height="9.33"/><path class="cls-2" d="M788.51,81.06H772.84V70.73h15.67Zm-14.67-1h13.67V71.73H773.84Z"/><rect class="cls-1" x="794.01" y="71.23" width="14.67" height="9.33"/><path class="cls-2" d="M809.17,81.06H793.51V70.73h15.66Zm-14.66-1h13.66V71.73H794.51Z"/><rect class="cls-1" x="632.52" y="29.9" width="51.33" height="95.67"/><path class="cls-2" d="M684.36,126.06H632V29.4h52.34Zm-51.34-1h50.34V30.4H633Z"/><rect class="cls-1" x="641.19" y="41.9" width="14.67" height="9.33"/><path class="cls-2" d="M656.36,51.73H640.69V41.4h15.67Zm-14.67-1h13.67V42.4H641.69Z"/><rect class="cls-1" x="661.86" y="41.9" width="14.67" height="9.33"/><path class="cls-2" d="M677,51.73H661.36V41.4H677Zm-14.66-1H676V42.4H662.36Z"/><rect class="cls-1" x="641.19" y="57.23" width="14.67" height="9.33"/><path class="cls-2" d="M656.36,67.06H640.69V56.73h15.67Zm-14.67-1h13.67V57.73H641.69Z"/><rect class="cls-1" x="661.86" y="57.23" width="14.67" height="9.33"/><path class="cls-2" d="M677,67.06H661.36V56.73H677Zm-14.66-1H676V57.73H662.36Z"/><rect class="cls-1" x="641.19" y="71.23" width="14.67" height="9.33"/><path class="cls-2" d="M656.36,81.06H640.69V70.73h15.67Zm-14.67-1h13.67V71.73H641.69Z"/><rect class="cls-1" x="661.86" y="71.23" width="14.67" height="9.33"/><path class="cls-2" d="M677,81.06H661.36V70.73H677Zm-14.66-1H676V71.73H662.36Z"/><rect class="cls-1" x="562.68" y="29.9" width="51.33" height="95.67"/><path class="cls-2" d="M614.51,126.06H562.18V29.4h52.33Zm-51.33-1h50.33V30.4H563.18Z"/><rect class="cls-1" x="571.34" y="41.9" width="14.67" height="9.33"/><path class="cls-2" d="M586.51,51.73H570.84V41.4h15.67Zm-14.67-1h13.67V42.4H571.84Z"/><rect class="cls-1" x="592.01" y="41.9" width="14.67" height="9.33"/><path class="cls-2" d="M607.18,51.73H591.51V41.4h15.67Zm-14.67-1h13.67V42.4H592.51Z"/><rect class="cls-1" x="571.34" y="57.23" width="14.67" height="9.33"/><path class="cls-2" d="M586.51,67.06H570.84V56.73h15.67Zm-14.67-1h13.67V57.73H571.84Z"/><rect class="cls-1" x="592.01" y="57.23" width="14.67" height="9.33"/><path class="cls-2" d="M607.18,67.06H591.51V56.73h15.67Zm-14.67-1h13.67V57.73H592.51Z"/><rect class="cls-1" x="571.34" y="71.23" width="14.67" height="9.33"/><path class="cls-2" d="M586.51,81.06H570.84V70.73h15.67Zm-14.67-1h13.67V71.73H571.84Z"/><rect class="cls-1" x="592.01" y="71.23" width="14.67" height="9.33"/><path class="cls-2" d="M607.18,81.06H591.51V70.73h15.67Zm-14.67-1h13.67V71.73H592.51Z"/><rect class="cls-1" x="338.27" y="35.05" width="48.63" height="90.68"/><path class="cls-2" d="M387.37,126.2H337.79V34.58h49.58Zm-48.63-1h47.68V35.53H338.74Z"/><rect class="cls-1" x="346.48" y="46.42" width="13.89" height="8.84"/><path class="cls-2" d="M360.85,55.73H346V46h14.85ZM347,54.79H359.9v-7.9H347Z"/><rect class="cls-1" x="366.06" y="46.42" width="13.89" height="8.84"/><path class="cls-2" d="M380.42,55.73H365.58V46h14.84Zm-13.89-.94h13v-7.9h-13Z"/><rect class="cls-1" x="346.48" y="60.94" width="13.89" height="8.84"/><path class="cls-2" d="M360.85,70.26H346V60.47h14.85Zm-13.9-1H359.9V61.42H347Z"/><rect class="cls-1" x="366.06" y="60.94" width="13.89" height="8.84"/><path class="cls-2" d="M380.42,70.26H365.58V60.47h14.84Zm-13.89-1h13V61.42h-13Z"/><rect class="cls-1" x="346.48" y="74.21" width="13.89" height="8.84"/><path class="cls-2" d="M360.85,83.52H346V73.73h14.85Zm-13.9-1H359.9V74.68H347Z"/><rect class="cls-1" x="366.06" y="74.21" width="13.89" height="8.84"/><path class="cls-2" d="M380.42,83.52H365.58V73.73h14.84Zm-13.89-1h13V74.68h-13Z"/><path class="cls-1" d="M182,101.74a8.4,8.4,0,0,1-3.31,7.76s-4.45,4.65-11.48.59c0,0-8.52,4.65-13-1.58a9.52,9.52,0,0,1-2-9.31s-4.65-3.37-4-8.91c0,0,.5-9.61,9.81-8.22,0,0,1.78-7.33,9.2-7,0,0,7,.29,8.52,7.13,0,0,8.71-.3,9.9,8.81,0,0,.89,7.62-4.16,8.42a10.32,10.32,0,0,1,.44,2.34"/><path class="cls-2" d="M172.83,112.1a11.45,11.45,0,0,1-5.62-1.6c-1.29.63-9,4.12-13.26-1.79h0a10,10,0,0,1-2.1-9.38c-.93-.75-4.54-4-3.9-9.09,0-.16.26-4.49,3.31-7a8.38,8.38,0,0,1,6.59-1.58c.46-1.43,2.75-7.25,9.48-7,.07,0,7.13.38,8.79,7.13,1.57.06,8.88.77,10,9.12,0,.09.82,7.59-4.07,8.74a11.72,11.72,0,0,1,.34,2h0a8.69,8.69,0,0,1-3.45,8.08A9,9,0,0,1,172.83,112.1Zm-5.61-2.42.17.1c6.7,3.87,10.88-.35,11.05-.53a8.06,8.06,0,0,0,3.21-7.48h0a9.6,9.6,0,0,0-.42-2.26l-.13-.4.42-.07c4.65-.73,3.87-8,3.86-8-1.13-8.66-9.19-8.51-9.54-8.5h-.3l-.06-.29c-1.41-6.47-7.9-6.83-8.18-6.84-7.08-.29-8.78,6.46-8.85,6.75l-.08.32-.32,0a7.78,7.78,0,0,0-6.33,1.39c-2.81,2.3-3.06,6.45-3.06,6.49-.66,5.31,3.77,8.58,3.81,8.61l.21.15-.08.25a9.19,9.19,0,0,0,1.9,8.94c4.25,6,12.46,1.57,12.54,1.53Z"/><rect class="cls-2" x="166.86" y="93.65" width="0.71" height="32.54"/><polyline class="cls-1" points="161.67 97.52 167.12 102.66 172.17 98.01"/><polygon class="cls-2" points="167.11 103.15 161.42 97.77 161.92 97.25 167.12 102.17 171.92 97.75 172.41 98.27 167.11 103.15"/><path class="cls-2" d="M231.23,56.71h-6.15a3.23,3.23,0,0,1-3.38-3.05V44.45a3.23,3.23,0,0,1,3.38-3.05h6.15a3.24,3.24,0,0,1,3.39,3.05v9.21A3.24,3.24,0,0,1,231.23,56.71Zm-6.15-14.36a2.28,2.28,0,0,0-2.43,2.1v9.21a2.28,2.28,0,0,0,2.43,2.1h6.15a2.29,2.29,0,0,0,2.44-2.1V44.45a2.29,2.29,0,0,0-2.44-2.1Z"/><path class="cls-2" d="M222.26,51.4l-.17-.93c6.47-1.13,8-4.15,8-4.19l.85.41C230.91,46.83,229.26,50.18,222.26,51.4Z"/><path class="cls-2" d="M233.69,51.93c-.63-2-3.89-4.34-3.92-4.37l.54-.77c.15.1,3.56,2.51,4.28,4.86Z"/><path class="cls-2" d="M219.85,84.27l-.89-.33a20,20,0,0,0,.2-12.71l-1.65,2.06-4.39-3.73,3.9-7.9c1.67-3.18,5.95-3.19,7.46-3.08V56.23h1v3.41l-.54-.07s-5.34-.69-7,2.52l-3.57,7.23,3.09,2.62,2.05-2.57.32.72A20.37,20.37,0,0,1,219.85,84.27Z"/><polygon class="cls-2" points="230.63 59.58 230.63 56.23 231.58 56.23 231.58 58.62 234.45 58.59 234.46 59.54 230.63 59.58"/><path class="cls-2" d="M205.82,52.22h-6.15a3.22,3.22,0,0,1-3.38-3V40a3.22,3.22,0,0,1,3.38-3h6.15a3.23,3.23,0,0,1,3.38,3v9.22A3.23,3.23,0,0,1,205.82,52.22Zm-6.15-14.36a2.28,2.28,0,0,0-2.43,2.1v9.22a2.29,2.29,0,0,0,2.43,2.1h6.15a2.29,2.29,0,0,0,2.43-2.1V40a2.28,2.28,0,0,0-2.43-2.1Z"/><path class="cls-2" d="M196.84,46.92l-.16-.94c6.52-1.14,8-4.15,8-4.18l.86.41C205.5,42.35,203.84,45.69,196.84,46.92Z"/><path class="cls-2" d="M208.27,47.44c-.62-2-3.88-4.34-3.92-4.36l.55-.78c.14.1,3.56,2.51,4.28,4.87Z"/><path class="cls-2" d="M204.42,90.92a4.78,4.78,0,0,1-1.67-.33l-.23-.1-.05-.24c-.06-.33-1.07-2.48-2-4.45-3.5-1.31-11-6-11.27-6.25l-.11-.07-.06-.11c-2.28-4.56-.68-17.48-.61-18a6.4,6.4,0,0,1,3.05-4.65l7.64-2.42V51.75H200V55l-8.21,2.6a5.44,5.44,0,0,0-2.48,3.9c0,.13-1.61,12.95.46,17.37,1,.61,8.05,5,11.15,6.15l.18.06.09.17c.31.63,1.74,3.54,2.12,4.58a2.85,2.85,0,0,0,1.89,0,1.32,1.32,0,0,0,.7-.76c-.33-.86-2-5-4.13-5.72l-.14-.08-8.59-6.87.19-8.65.95,0L194,75.94l8.17,6.53c2.75,1.07,4.62,6.21,4.7,6.43l0,.15,0,.16a2.39,2.39,0,0,1-1.27,1.48A2.89,2.89,0,0,1,204.42,90.92Z"/><rect class="cls-2" x="205.22" y="51.75" width="0.95" height="2.86"/><path class="cls-2" d="M196.36,127c-3-26.81-3.31-40.42-3.31-40.56,0-1.13.18-4.56.19-4.71l.95.05s-.19,3.56-.19,4.65c0,.12.35,13.71,3.3,40.46Z"/><path class="cls-2" d="M222,57c-3.5-.38-16.24-2.32-16.37-2.34l.14-.94c.13,0,12.85,2,16.33,2.33Z"/><rect class="cls-2" x="221.69" y="53.41" width="0.95" height="5.61"/><rect class="cls-2" x="233.65" y="53.41" width="0.95" height="5.61"/><path class="cls-2" d="M211.93,69.54l-.1-4.11c0-1.32,1.66-2.32,2.18-2.61.52-1,2-5.4,2.61-7.08l.9.3c-.22.66-2.18,6.43-2.75,7.38l-.07.12-.13.06c-.46.23-1.79,1.07-1.79,1.82l.09,4.1Z"/><rect class="cls-2" x="216.46" y="59.47" width="0.95" height="2.37" transform="translate(122.75 265.27) rotate(-80.91)"/><path class="cls-1" d="M217,79.77A2.35,2.35,0,0,1,214.48,82h-5.25a2.35,2.35,0,0,1-2.48-2.19V71.91a2.35,2.35,0,0,1,2.48-2.19h5.25A2.35,2.35,0,0,1,217,71.91Z"/><path class="cls-2" d="M214.48,82.44h-5.25a2.82,2.82,0,0,1-2.95-2.67V71.91a2.82,2.82,0,0,1,2.95-2.67h5.25a2.82,2.82,0,0,1,3,2.67v7.86A2.82,2.82,0,0,1,214.48,82.44Zm-5.25-12.25a1.88,1.88,0,0,0-2,1.72v7.86a1.88,1.88,0,0,0,2,1.72h5.25a1.88,1.88,0,0,0,2-1.72V71.91a1.88,1.88,0,0,0-2-1.72Z"/><path class="cls-2" d="M206.83,77.91l-.16-.93c5.53-1,6.79-3.5,6.8-3.53l.85.41C214.27,74,212.84,76.86,206.83,77.91Z"/><path class="cls-2" d="M216.5,78.31c-.52-1.71-3.29-3.66-3.31-3.68l.54-.78c.13.09,3.06,2.16,3.68,4.18Z"/><path class="cls-2" d="M239,64.59l-1.88-.37a1.38,1.38,0,0,1-.9-.29,2,2,0,0,1-.66-1.57c-.27-1.06-1-2.68-1.53-2.73l.07-.94c1.49.11,2.25,3,2.39,3.54a1.39,1.39,0,0,0,.31,1,.38.38,0,0,0,.28.09h.16l1.76.36a1.44,1.44,0,0,0,.39-.81c0-3.82-4.87-4.2-5.07-4.22l.06-.94c2.06.14,6,1.41,6,5.24,0,.22-.28,1.54-1.25,1.68Z"/><path class="cls-2" d="M228.32,62c-2.06,0-3.7-2.57-3.77-2.68l.81-.5c.4.64,1.71,2.29,3,2.24.83-.05,1.6-.79,2.28-2.2l.85.41c-.84,1.75-1.88,2.67-3.08,2.73Z"/><path class="cls-2" d="M237.92,92.81a2.51,2.51,0,0,1-.84-.13l.34-.89c.68.26,2.11-.2,3-.61a127.49,127.49,0,0,0-1.88-27l.93-.18a128.63,128.63,0,0,1,1.88,27.49v.28l-.25.12A8.52,8.52,0,0,1,237.92,92.81Z"/><path class="cls-2" d="M237.61,98.6h-.21l.08-.94a1,1,0,0,0,.83-.26,4,4,0,0,0,.9-2.38l.47-3.13.94.15-.47,3.08a4.93,4.93,0,0,1-1.22,3A2,2,0,0,1,237.61,98.6Z"/><path class="cls-2" d="M220.81,106.82v-.95l15-.09c2.19-16.79.37-21.54.35-21.59-2.27-4.92-.57-13.9-.49-14.28l.93.18c0,.09-1.72,9.06.43,13.72.09.22,2,5-.33,22.5l-.06.41Z"/><rect class="cls-2" x="193.53" y="84.75" width="7.29" height="0.95"/><path class="cls-2" d="M221.17,105.79h-3.44v-1h2.53c.07-2.45.4-14,0-17.5s-6-3.33-6-3.32h-.49V82h.95v1.11c1.53.05,6.09.5,6.53,4.16.46,3.91,0,17.52,0,18.1Z"/><path class="cls-2" d="M204.58,85l-.43-.85a21.25,21.25,0,0,1,5.17-1V82h1v2l-.44,0A22.45,22.45,0,0,0,204.58,85Z"/><path class="cls-2" d="M206.42,105.42h-4.09l-.1-.34c-.76-2.57-.59-15.93-.58-16.5l.94,0c0,.13-.16,12.72.47,15.87h3.36Z"/><path class="cls-2" d="M206.51,126.26c-.1-3.27-.84-32.7-.84-32.7l.94,0s.75,29.43.84,32.7Z"/><path class="cls-2" d="M217.54,126.26l-.94,0c.09-3.27.84-32.7.84-32.7l.94,0S217.64,123,217.54,126.26Z"/><path class="cls-2" d="M212,87.1c-1.8-.31-3.8-2.79-4-3.07l.74-.59c.54.69,2.2,2.52,3.35,2.72,0,0,1.2-.17,3-2.7l.77.55C213.73,87,212.19,87.1,212,87.1Z"/><rect class="cls-2" x="206.42" y="100.26" width="10.84" height="0.95"/><path class="cls-2" d="M206,110.44a5.35,5.35,0,0,1-2.24-.79l-.09-.07c-.85-.85-.81-3.87-.8-4.46l.95,0a8.89,8.89,0,0,0,.48,3.73,3.93,3.93,0,0,0,1.79.62l.51.8A1.07,1.07,0,0,1,206,110.44Z"/><path class="cls-2" d="M218.34,110.64a2.91,2.91,0,0,1-.74-.1l.25-.92a1.56,1.56,0,0,0,1.65-.48,11.14,11.14,0,0,0,.37-3.45h.95c0,1.29-.08,3.54-.61,4.07h0A2.41,2.41,0,0,1,218.34,110.64Z"/><rect class="cls-2" x="202.21" y="104.94" width="0.95" height="21.3"/><rect class="cls-2" x="211.46" y="107.46" width="0.95" height="18.78"/><path class="cls-2" d="M212.05,108.05a3,3,0,0,1-1.61-.48l.55-.77-.27.38.27-.38a2,2,0,0,0,2.26-.1l.54.78A3,3,0,0,1,212.05,108.05Z"/><rect class="cls-2" x="222.96" y="106.47" width="0.95" height="19.84" transform="translate(-11.82 26.26) rotate(-6.55)"/><rect class="cls-2" x="222.78" y="116.05" width="20.28" height="0.95" transform="translate(92.53 335.88) rotate(-83.96)"/><rect class="cls-2" x="227.72" y="106.16" width="0.95" height="20.64"/><polygon class="cls-2" points="203.31 58.85 197.82 55.45 198.32 54.65 203.3 57.73 208.28 54.41 208.8 55.19 203.31 58.85"/><rect class="cls-2" x="188.36" y="70.02" width="5.23" height="0.95"/><path class="cls-1" d="M328.86,83.64a8.54,8.54,0,0,1-3.37,7.9s-4.55,4.74-11.71.6c0,0-8.67,4.74-13.21-1.61a9.66,9.66,0,0,1-2-9.48s-4.74-3.43-4-9.08c0,0,.5-9.78,10-8.37,0,0,1.82-7.46,9.38-7.16,0,0,7.16.3,8.68,7.26,0,0,8.88-.3,10.09,9,0,0,.91,7.76-4.24,8.57a10.52,10.52,0,0,1,.45,2.39"/><path class="cls-2" d="M319.5,94.18a11.65,11.65,0,0,1-5.73-1.63c-1.29.64-9.19,4.21-13.49-1.81h0a10.09,10.09,0,0,1-2.14-9.56c-.94-.75-4.63-4.08-4-9.25,0-.16.27-4.58,3.38-7.12a8.53,8.53,0,0,1,6.71-1.61c.45-1.41,2.68-7.13,9.19-7.13h.46c.07,0,7.26.39,8.94,7.27,1.59,0,9.06.77,10.17,9.28,0,.08.84,7.72-4.14,8.9a12,12,0,0,1,.34,2.08,8.84,8.84,0,0,1-3.51,8.22A9.22,9.22,0,0,1,319.5,94.18Zm-5.71-2.45.17.1c6.82,3.94,11.09-.35,11.27-.54a8.21,8.21,0,0,0,3.27-7.62h0a11.25,11.25,0,0,0-.42-2.3l-.14-.41.42-.06c4.74-.75,3.95-8.11,3.94-8.18-1.16-8.84-9.38-8.67-9.73-8.66h-.3l-.06-.29c-1.44-6.6-8.06-7-8.34-7-7.17-.3-8.95,6.59-9,6.88l-.08.32-.32,0A8,8,0,0,0,298,65.36c-2.86,2.34-3.12,6.59-3.12,6.63-.67,5.39,3.84,8.74,3.89,8.77l.21.15-.08.25a9.41,9.41,0,0,0,1.93,9.12c4.34,6.06,12.71,1.6,12.79,1.55Z"/><rect class="cls-2" x="313.42" y="75.4" width="0.71" height="52.14"/><polyline class="cls-1" points="308.13 79.33 313.68 84.58 318.82 79.84"/><polygon class="cls-2" points="313.68 85.07 307.89 79.59 308.38 79.07 313.68 84.09 318.58 79.58 319.07 80.1 313.68 85.07"/><path class="cls-2" d="M18.52,57.14H12a3.4,3.4,0,0,1-3.56-3.2V44.17A3.4,3.4,0,0,1,12,41h6.52a3.4,3.4,0,0,1,3.56,3.2v9.77A3.4,3.4,0,0,1,18.52,57.14ZM12,41.92a2.45,2.45,0,0,0-2.61,2.25v9.77A2.45,2.45,0,0,0,12,56.19h6.52a2.45,2.45,0,0,0,2.61-2.25V44.17a2.45,2.45,0,0,0-2.61-2.25Z"/><path class="cls-2" d="M9,51.52l-.17-.94c6.87-1.2,8.52-4.42,8.54-4.45l.85.41C18.15,46.69,16.4,50.22,9,51.52Z"/><path class="cls-2" d="M21.15,52.1C20.48,49.92,17,47.47,17,47.45l.54-.78c.16.11,3.77,2.66,4.54,5.15Z"/><path class="cls-2" d="M5.64,97,2.29,92.64.92,66.39c0-3.27,3.78-5.13,3.94-5.21l6.53-1.83V56.67h.94v3.39l-7.14,2h0s-3.33,1.66-3.33,4.31L3.22,92.29l3.17,4.1Z"/><path class="cls-2" d="M25,97.08l-.79-.52L27,92.31l1.35-26c0-2.64-3.37-4.29-3.4-4.3l-7.07-2V56.67h.95v2.68l6.45,1.8c.24.11,4,2,4,5.22L28,92.62Z"/><rect class="cls-2" x="-23.76" y="96.21" width="59.55" height="0.95" transform="translate(-90.72 101.8) rotate(-89.47)"/><rect class="cls-2" x="24.1" y="67.85" width="0.95" height="58.61" transform="translate(-2.47 0.66) rotate(-1.46)"/><path class="cls-2" d="M15.12,85.72l-2.79-2.13.54-18.82a6.45,6.45,0,0,1-3.37-4l.91-.23A5.58,5.58,0,0,0,13.53,64l.31.13-.55,19,1.83,1.4L17,83.14l-1.1-19.2.4-.08s3.16-.66,4.14-3.11l.88.35a6.68,6.68,0,0,1-4.43,3.59l1.08,18.89Z"/><rect class="cls-2" x="14.65" y="78.6" width="0.95" height="17.4" transform="translate(-72.41 101.06) rotate(-89.1)"/><polygon class="cls-2" points="18.86 126.5 15.37 94.52 15.13 94.49 11.38 126.24 10.44 126.13 14.3 93.43 16.23 93.67 19.81 126.4 18.86 126.5"/><path class="cls-2" d="M36.48,59.17H30.22a3.28,3.28,0,0,1-3.44-3.09V46.7a3.28,3.28,0,0,1,3.44-3.09h6.26a3.27,3.27,0,0,1,3.43,3.09v9.38A3.28,3.28,0,0,1,36.48,59.17ZM30.22,44.55a2.35,2.35,0,0,0-2.49,2.15v9.38a2.34,2.34,0,0,0,2.49,2.14h6.26A2.33,2.33,0,0,0,39,56.08V46.7a2.34,2.34,0,0,0-2.48-2.15Z"/><path class="cls-2" d="M27.34,53.77l-.17-.93c6.59-1.16,8.17-4.24,8.19-4.27l.85.41C36.14,49.13,34.46,52.52,27.34,53.77Z"/><path class="cls-2" d="M39,54.31c-.64-2.08-4-4.42-4-4.45l.54-.77c.15.1,3.62,2.55,4.36,4.94Z"/><rect class="cls-2" x="35.72" y="59.13" width="7.34" height="0.95" transform="translate(-20.58 98.44) rotate(-89.47)"/><rect class="cls-2" x="26.81" y="56.13" width="0.95" height="2.79"/><rect class="cls-2" x="30.13" y="59.17" width="0.95" height="2.04"/><path class="cls-1" d="M40.45,82.18a14.9,14.9,0,0,0,.72,3.27s1.94,6.9,1.22,20.23H24.58S23.12,92,26,83.15"/><path class="cls-2" d="M42.83,106.15H24.15l0-.42c-.06-.56-1.44-13.89,1.47-22.73l.9.29c-2.56,7.79-1.68,19.55-1.47,21.92H41.94c.64-12.79-1.2-19.57-1.22-19.63A14.59,14.59,0,0,1,40,82.23l.94-.11a14.17,14.17,0,0,0,.69,3.14c.1.34,2,7.19,1.25,20.45Z"/><path class="cls-1" d="M29.08,66,24,66.6a1,1,0,0,1-1.16-.91l-.62-5.07a1,1,0,0,1,.91-1.17l5.07-.61a1,1,0,0,1,1.17.91L30,64.82A1,1,0,0,1,29.08,66"/><path class="cls-2" d="M23.88,67.08a1.5,1.5,0,0,1-.93-.32,1.47,1.47,0,0,1-.57-1l-.62-5.07A1.52,1.52,0,0,1,23.08,59l5.08-.62a1.53,1.53,0,0,1,1.69,1.33l.61,5.07a1.51,1.51,0,0,1-1.32,1.69l-5.07.62Zm4.46-7.78h-.07l-5.07.61a.58.58,0,0,0-.5.64l.62,5.07a.52.52,0,0,0,.21.38.58.58,0,0,0,.42.12L29,65.51a.55.55,0,0,0,.5-.64l-.61-5.07a.6.6,0,0,0-.22-.38A.55.55,0,0,0,28.34,59.3Z"/><path class="cls-2" d="M22.82,64.71l-.11-.94,1.17-.14-.13-1.09a1.07,1.07,0,0,1,.24-.81,2.46,2.46,0,0,1,1.58-.63l3.82-.47.12.94L25.66,62a1.72,1.72,0,0,0-.94.3l.22,2.11Z"/><path class="cls-2" d="M34.09,106.27a11.86,11.86,0,0,1-3.31-.69l.28-.91a8.7,8.7,0,0,0,3.25.64,1.94,1.94,0,0,0-.9-2l-.35-.23,2.76-5.79.85.41-2.41,5.06a2.69,2.69,0,0,1,.89,3.06.52.52,0,0,1-.3.33A1.3,1.3,0,0,1,34.09,106.27Zm.19-.85,0,.08Z"/><path class="cls-1" d="M22.84,71.72s-.65,7.19-.65,7.67c0,.08,0,3,6.22,4.12"/><path class="cls-2" d="M28.33,84c-6.42-1.16-6.61-4.23-6.61-4.58s.58-7,.65-7.71l.94.08c-.26,2.88-.64,7.29-.64,7.63,0,0,.06,2.61,5.83,3.65Z"/><path class="cls-1" d="M37.78,62.35s-3.63,3.71-4.6,4c0,0-8.56-.49-9.94,2.34a11.36,11.36,0,0,0,1,7.83s.16,3,1.94,3.64l3.31,1.21s-1.61,4.6-1.86,5c0,0-1.77,1.61-.4,3L30,91.1s1.77-.24-.16-2.66l3.71-6.06"/><path class="cls-2" d="M29.93,91.59l-3.06-1.85a2,2,0,0,1-.66-1.55,3.31,3.31,0,0,1,1-2.06c.19-.4,1-2.46,1.64-4.44l-2.87-1c-1.86-.67-2.19-3.35-2.24-3.94a11.76,11.76,0,0,1-1-8.1c1.45-3,9-2.76,10.31-2.69A31.82,31.82,0,0,0,37.44,62l.68.66c-.62.64-3.77,3.81-4.79,4.16l-.09,0h-.09c-2.29-.13-8.47,0-9.48,2.08h0a11,11,0,0,0,1,7.39l.06.21c0,.74.41,2.77,1.62,3.21l3.75,1.38-.15.44c-.38,1.09-1.65,4.68-1.9,5.09l-.09.11a2.51,2.51,0,0,0-.77,1.45,1.14,1.14,0,0,0,.35.81l2.59,1.56a.37.37,0,0,0,.19-.18c0-.11.11-.56-.78-1.68l-.21-.26,3.89-6.34.81.5-3.55,5.78c.72,1,1,1.75.71,2.36a1.37,1.37,0,0,1-1.06.8Z"/><path class="cls-2" d="M33.55,78.8c0-.38-1.43-1.66-3-2.74l-.3-.2.12-.34c.42-1.2-.15-3.7-.41-4.55l-.19-.61h.64A31,31,0,0,0,35,69.17c1.16-.59,3-3.37,3.62-4.4l.81.49c-.1.16-2.35,3.92-4.07,4.78-.39.13-2.95.94-4.3,1.19a10.67,10.67,0,0,1,.35,4.25c1.1.78,3.08,2.32,3.12,3.28Z"/><path class="cls-2" d="M33,82.75c-1.78,0-3.14-.13-3.46-.51-.62-1-1.3-2.83-.18-3.71l.09,0c.12-.06,2.82-1.33,4.62-.24a22,22,0,0,1,4.7-1.45L39,71l1,0-.26,6.59-.4,0a20.49,20.49,0,0,0-5.07,1.53l-.26.12-.22-.17c-1.22-.94-3.46,0-3.82.15-.52.48,0,1.78.35,2.3.78.39,6,.17,10.62-.27,2.16-.6,2-3.14,2-3.25V67.76a3.69,3.69,0,0,0-2-3.08l-5.25-3.19V59.17h1V61l4.74,2.89a4.59,4.59,0,0,1,2.53,3.9V78.06a4,4,0,0,1-2.77,4.21C38.72,82.49,35.47,82.75,33,82.75Z"/><rect class="cls-2" x="27.27" y="105.51" width="0.95" height="20.48" transform="translate(-10.99 3.2) rotate(-5.51)"/><rect class="cls-2" x="32.55" y="105.68" width="0.95" height="21.28"/><rect class="cls-2" x="26.39" y="116.11" width="22.38" height="0.95" transform="translate(-83.03 137.97) rotate(-82.19)"/><path class="cls-2" d="M747.39,16.69a10.28,10.28,0,1,1-20.56-.19,10.28,10.28,0,0,1,20.56.19Zm-3.58-6.93V23a1.51,1.51,0,0,1,0,.3c0,.05-.07.14-.12.14-.34,0-.69,0-1,0V9.59h1A9.66,9.66,0,1,0,731.41,24.5a9.72,9.72,0,0,0,13.64-2.28A9.55,9.55,0,0,0,743.81,9.76Z"/><path class="cls-2" d="M736.37,21.18a12.75,12.75,0,0,1-.66,1.27,3.33,3.33,0,0,1-2.22,1.41,3.62,3.62,0,0,1-2.38-.32,3.7,3.7,0,0,1-1.65-1.67,5.62,5.62,0,0,1-.45-3.38,8.86,8.86,0,0,1,.92-2.77l1.44,1.11.08-.07c-.06-.13-.12-.26-.19-.38a10.78,10.78,0,0,1-1.16-2.65,4.22,4.22,0,0,1,.45-3.46,2.7,2.7,0,0,1,2.11-1.21,3,3,0,0,1,2.75,1.07,5,5,0,0,1,1,2V9.62h1.19c0,.11,0,.22,0,.32,0,4.39,0,8.79,0,13.18,0,.28-.08.37-.35.34s-.64.07-.8-.08,0-.5,0-.77Zm-.8-7.79c-.07-.33-.14-.66-.23-1a3.32,3.32,0,0,0-1.4-2.06,1.69,1.69,0,0,0-2.5.69,2.7,2.7,0,0,0-.07,2,18.33,18.33,0,0,0,1,2.23c.56,1.08,1.18,2.12,1.76,3.19a4.13,4.13,0,0,1,.54,1.72,1.75,1.75,0,0,1-2.24,2A2.14,2.14,0,0,1,731,21a3.76,3.76,0,0,1-.47-2.12c0-.62.13-1.24.19-1.82a4.68,4.68,0,0,0-.51,1.57,3.81,3.81,0,0,0,.75,3,2.3,2.3,0,0,0,4-2.19,10.46,10.46,0,0,0-1.13-2.42c-.58-1.06-1.17-2.11-1.72-3.18a4.77,4.77,0,0,1-.5-2.1,1.37,1.37,0,0,1,.84-1.33,1.42,1.42,0,0,1,1.54.42,4.38,4.38,0,0,1,1.09,2.73.28.28,0,0,1-.07.19l-.72.88c-.09-.42-.15-.82-.27-1.21a14.54,14.54,0,0,0-.54-1.57c0-.11-.25-.16-.39-.24a1.52,1.52,0,0,0-.18.47,2.08,2.08,0,0,0,.15.68,16.07,16.07,0,0,0,1.45,2.71c.47.84.94,1.68,1.38,2.53a9.93,9.93,0,0,1,.44,1.15V13.05Zm-3.52,4.32-.09,0a3.67,3.67,0,0,0,.31,2.88.68.68,0,0,0,.8.34c.24-.11.34-.43.23-.83a.13.13,0,0,0,0-.06c-.23-.5-.45-1-.71-1.49C732.43,18.27,732.23,18,732.05,17.71Z"/><path class="cls-2" d="M741.05,19.61c-.22.31-.38.56-.58.79a.46.46,0,0,1-.76,0,4,4,0,0,1-.34-.47.73.73,0,0,0-.21-.22v3.74h-1s-.1-.08-.13-.13a.4.4,0,0,1,0-.16v-9a.34.34,0,0,1,.06-.21c.05.22.11.45.15.68a9.8,9.8,0,0,0,1,3.12,2.86,2.86,0,0,0,.59.71.5.5,0,0,0,.69,0,2.48,2.48,0,0,0,.8-1.19c.35-1.07.64-2.17.93-3.28V23.1c0,.36,0,.36-.37.36-.77,0-.77,0-.77-.75v-3.1Z"/><path class="cls-2" d="M741.49,9.61h.85l-.06.88a27.69,27.69,0,0,1-.66,4.27,26.17,26.17,0,0,1-.86,2.54,1.84,1.84,0,0,1-.37.52c-.22.25-.47.23-.68-.1a4.72,4.72,0,0,1-.58-1.14,27.5,27.5,0,0,1-.83-3.21c-.22-1.2-.3-2.43-.43-3.65,0,0,0-.06,0-.1h.8c.08.59.13,1.19.25,1.77.25,1.23.54,2.46.82,3.69a2.72,2.72,0,0,0,.19.47c.09.17.21.18.28,0a9.59,9.59,0,0,0,.43-1.24c.22-1,.41-1.9.59-2.86C741.36,10.85,741.41,10.24,741.49,9.61Z"/><rect class="cls-1" x="410.03" y="59.06" width="77.4" height="66.66"/><path class="cls-2" d="M488.06,126.35H409.4V58.42h78.66Zm-77.4-1.27H486.8V59.69H410.66Z"/><path class="cls-2" d="M493.57,60H402.94V49.23h90.63ZM404.21,58.7H492.3V50.49H404.21Z"/><path class="cls-2" d="M430.56,100.76H417.29V70.43h13.27Zm-12-1.27H429.3V71.69H418.56Z"/><path class="cls-2" d="M447.62,100.76H434.36V70.43h13.26Zm-12-1.27h10.74V71.69H435.62Z"/><path class="cls-2" d="M464.05,99.66H450.78V69.34h13.27Zm-12-1.26h10.74V70.6H452.05Z"/><path class="cls-2" d="M481.11,99.66H467.84V69.34h13.27Zm-12-1.26h10.74V70.6H469.11Z"/><rect class="cls-1" x="417.93" y="108.34" width="63.82" height="17.06"/><path class="cls-2" d="M482.37,126H417.29V107.71h65.08Zm-63.81-1.26h62.55V109H418.56Z"/><path class="cls-2" d="M454.58,126.66H445.1v-19h9.48Zm-8.22-1.26h6.95V109h-6.95Z"/><path class="cls-1" d="M347.32,101.29a8.54,8.54,0,0,1-3.36,7.9s-4.54,4.74-11.7.6c0,0-8.68,4.74-13.22-1.61a9.71,9.71,0,0,1-2-9.49s-4.74-3.42-4-9.07c0,0,.5-9.79,10-8.37,0,0,1.81-7.47,9.38-7.17,0,0,7.16.31,8.67,7.27,0,0,8.88-.31,10.09,9,0,0,.9,7.77-4.24,8.58a10.73,10.73,0,0,1,.44,2.39"/><path class="cls-2" d="M338,111.83a11.59,11.59,0,0,1-5.73-1.63c-1.3.64-9.2,4.2-13.5-1.82h0a10.08,10.08,0,0,1-2.14-9.55c-.94-.76-4.62-4.08-4-9.26,0-.16.27-4.57,3.38-7.11a8.46,8.46,0,0,1,6.71-1.61c.46-1.45,2.8-7.4,9.65-7.12.07,0,7.26.38,8.95,7.26,1.59.06,9,.77,10.15,9.29,0,.08.84,7.72-4.14,8.89a12.1,12.1,0,0,1,.35,2.09,8.81,8.81,0,0,1-3.52,8.21A9.07,9.07,0,0,1,338,111.83Zm-5.72-2.45.17.1c6.82,3.94,11.09-.36,11.27-.54a8.19,8.19,0,0,0,3.26-7.63h0a10.66,10.66,0,0,0-.42-2.3l-.13-.4.42-.07c4.74-.74,3.94-8.1,3.93-8.18-1.15-8.83-9.38-8.67-9.72-8.66h-.3l-.06-.29c-1.43-6.6-8.06-7-8.34-7-7.14-.29-9,6.82-9,6.89l-.07.32-.33-.05A7.94,7.94,0,0,0,316.47,83c-2.86,2.34-3.12,6.58-3.12,6.63-.68,5.39,3.84,8.73,3.88,8.77l.21.15-.07.24a9.4,9.4,0,0,0,1.92,9.12c4.35,6.08,12.71,1.6,12.79,1.56Z"/><rect class="cls-2" x="331.9" y="93.05" width="0.71" height="33.15"/><polygon class="cls-2" points="332.15 102.72 326.36 97.24 326.85 96.72 332.16 101.74 337.06 97.22 337.54 97.75 332.15 102.72"/></g></svg>