<svg xmlns="http://www.w3.org/2000/svg" viewBox="0 0 792.23 110.78"><defs><style>.cls-1{fill:#ee8122;}.cls-2{fill:#fff;}</style></defs><g id="Economic_Opportunities_Image" data-name="Economic Opportunities Image"><path class="cls-1" d="M321.78,94.64a12.76,12.76,0,0,1-6.28-1.78c-1.58.78-10.15,4.54-14.85-2a10.94,10.94,0,0,1-2.38-10.49c-1.12-.92-5-4.56-4.34-10.18,0-.17.3-5.05,3.74-7.86A9.35,9.35,0,0,1,305,60.5c.58-1.74,3.18-8.1,10.65-7.79.08,0,8,.42,9.87,8,1.93.08,9.93,1,11.14,10.25,0,.09.92,8.45-4.5,9.83a13.13,13.13,0,0,1,.35,2.2h0A9.78,9.78,0,0,1,328.62,92h0A10.1,10.1,0,0,1,321.78,94.64ZM303.4,61.4a7.82,7.82,0,0,0-5.1,1.66c-3.09,2.53-3.37,7.13-3.37,7.18-.73,5.84,4.16,9.47,4.21,9.5l.29.22-.11.34a10.16,10.16,0,0,0,2.09,9.88c4.7,6.57,13.5,1.88,13.87,1.68l.24-.14.25.14c7.39,4.27,12-.37,12.2-.57A8.9,8.9,0,0,0,331.51,83h0a11.87,11.87,0,0,0-.45-2.5l-.19-.56.58-.09c5.09-.8,4.23-8.76,4.22-8.84-1.25-9.56-10.14-9.39-10.53-9.38h-.41l-.09-.41c-1.56-7.14-8.73-7.54-9-7.55-7.74-.31-9.69,7.14-9.77,7.46l-.1.44-.45-.07A12.57,12.57,0,0,0,303.4,61.4Z"/><rect class="cls-1" x="315.02" y="74.28" width="1" height="37.01"/><polygon class="cls-1" points="315.4 84.7 308.99 78.64 309.68 77.91 315.41 83.33 320.7 78.46 321.38 79.19 315.4 84.7"/><path class="cls-1" d="M221.41,21.77a3.34,3.34,0,0,1-3.33-3.34v-15A3.34,3.34,0,0,1,221.41.1h15a3.29,3.29,0,0,1,2.35,1,3.32,3.32,0,0,1,1,2.36v15a3.34,3.34,0,0,1-3.34,3.33Zm15-20.67h-15a2.33,2.33,0,0,0-2.33,2.34v15a2.34,2.34,0,0,0,2.33,2.34h15a2.33,2.33,0,0,0,2.34-2.33v-15a2.32,2.32,0,0,0-2.33-2.33Z"/><polygon class="cls-1" points="202.41 26.11 202.41 12.68 217.87 12.68 217.87 13.68 203.41 13.68 203.41 25.11 254.08 25.09 254.08 14.09 239.25 14.1 239.25 13.1 255.08 13.09 255.08 26.09 202.41 26.11"/><path class="cls-1" d="M199.92,33.44V25.11l58,0v8.33Zm1-7.33v6.33l56,0V26.09Z"/><path class="cls-1" d="M172.1,110.78v-6.67l112.5,0v6.67Zm1-5.67v4.67l110.5,0v-4.67Z"/><path class="cls-1" d="M202.44,104.94l0-72.5h52.83l0,72.5Zm1-71.5,0,70.5h50.83l0-70.5Z"/><path class="cls-1" d="M178.26,60.11v-7.5h25.34v7.5Zm1-6.5v5.5h23.33v-5.5Z"/><path class="cls-1" d="M181.44,105.11l0-45.83h22.17v45.84Zm1-44.83,0,43.83H202.6V60.27Z"/><path class="cls-1" d="M178.26,60.11v-7.5h25.34v7.5Zm1-6.5v5.5h23.33v-5.5Z"/><path class="cls-1" d="M181.44,105.11l0-45.83h22.17v45.84Zm1-44.83,0,43.83H202.6V60.27Z"/><path class="cls-1" d="M254.42,60.09v-7.5h25.33v7.5Zm1-6.5v5.5h23.34v-5.5Z"/><path class="cls-1" d="M254.44,105.09l0-45.83h22.17v45.84Zm1-44.83,0,43.83H275.6V60.25Z"/><rect class="cls-1" x="227.91" y="4.85" width="1" height="11.5"/><rect class="cls-1" x="222.91" y="10.1" width="11" height="1"/><path class="cls-1" d="M208.17,59.6V44.1h10.75V59.6Zm1-14.5V58.6h8.75V45.1Z"/><path class="cls-1" d="M223.42,59.6V44.1h10.75V59.6Zm1-14.5V58.6h8.75V45.1Z"/><path class="cls-1" d="M238.42,59.6V44.1h10.75v15.5Zm1-14.5V58.6h8.75V45.09Z"/><path class="cls-1" d="M208.18,78.1V62.6h10.75V78.1Zm1-14.5V77.1h8.75V63.6Z"/><path class="cls-1" d="M223.43,78.1V62.6h10.75V78.1Zm1-14.5V77.1h8.75V63.6Z"/><path class="cls-1" d="M218.18,104.35V82.85h10.75v21.5Zm1-20.5v19.5h8.75V83.85Z"/><path class="cls-1" d="M228.18,104.35V82.85h10.75v21.5Zm1-20.5v19.5h8.75V83.85Z"/><path class="cls-1" d="M238.43,78.1V62.6h10.75v15.5Zm1-14.5V77.1h8.75V63.59Z"/><path class="cls-1" d="M188.43,73.36V64.61h8.75v8.75Zm1-7.75v6.75h6.75V65.61Z"/><path class="cls-1" d="M188.43,85.11V76.36h8.75v8.75Zm1-7.75v6.75h6.75V77.36Z"/><path class="cls-1" d="M188.43,97.11V88.36h8.75v8.75Zm1-7.75v6.75h6.75V89.36Z"/><path class="cls-1" d="M260.93,73.34V64.59h8.75v8.75Zm1-7.75v6.75h6.75V65.59Z"/><path class="cls-1" d="M260.93,85.09V76.34h8.75v8.75Zm1-7.75v6.75h6.75V77.34Z"/><path class="cls-1" d="M260.93,97.09V88.34h8.75v8.75Zm1-7.75v6.75h6.75V89.34Z"/><path class="cls-1" d="M3.61,110.72V62.63c0-.84,0-.84-.82-.84-.57,0-1.14,0-1.71,0a1.06,1.06,0,0,1-1-1.64L7.39,43.8a1,1,0,0,1,1-.66h31a1.23,1.23,0,0,0,1.1-.53c2.06-2.65,4.15-5.27,6.21-7.93a1.78,1.78,0,0,0,.34-1q0-10.56,0-21.12c0-.15,0-.3,0-.45a.82.82,0,0,1,.88-.84.8.8,0,0,1,.83.84c0,.45,0,.9,0,1.46h12.7c1.2,0,1.61.61,1.2,1.73s-.93,2.44-1.35,3.68a1.66,1.66,0,0,0,0,1,35.75,35.75,0,0,0,1.42,3.78,1.16,1.16,0,0,1-1.17,1.65c-3.43-.05-6.87,0-10.3,0H48.76v.7c0,2.55,0,5.09,0,7.63a1.7,1.7,0,0,0,.34,1c2.08,2.68,4.19,5.34,6.28,8a1.07,1.07,0,0,0,1,.45c10.19,0,20.38,0,30.57,0a1.57,1.57,0,0,1,1.67,1.09c2.32,5.25,4.69,10.49,7,15.73a2.54,2.54,0,0,1,.2.52,1,1,0,0,1-1,1.32c-.74,0-1.48,0-2.22,0-.34,0-.5.1-.47.45s0,.46,0,.68v47.8ZM47.9,36c-.2.26-.34.43-.48.6Q37.72,48.86,28,61.19a1.43,1.43,0,0,1-1.27.62q-10.36,0-20.72,0c-.74,0-.74,0-.74.75V108.3c0,.78,0,.78.76.78H38.79c.59,0,.72-.16.71-.73,0-6.69,0-13.39,0-20.09a2.67,2.67,0,0,1,3-3H53.33a2.67,2.67,0,0,1,3,3v20c0,.79,0,.79.8.79H89.67c.83,0,.83,0,.83-.82V62.55c0-.75,0-.76-.78-.76q-10.34,0-20.66,0a1.42,1.42,0,0,1-1.28-.61Q59.89,51.15,52,41.12ZM2,60.06l.57,0q11.81,0,23.61,0a1,1,0,0,0,.84-.46L38.3,45.35c.11-.14.19-.29.33-.49l-.57,0H9.32a.71.71,0,0,0-.75.51Q5.42,52.4,2.25,59.45C2.17,59.63,2.11,59.82,2,60.06Zm91.78,0c-.08-.22-.11-.35-.16-.46-2.15-4.79-4.31-9.58-6.44-14.38a.7.7,0,0,0-.75-.43H57.76c-.18,0-.35,0-.62,0l.41.55Q63.13,52.5,68.71,59.6a1.19,1.19,0,0,0,1,.51c7.8,0,15.6,0,23.4,0ZM48.78,109a2.6,2.6,0,0,0,.28,0h5.12c.44,0,.44-.23.44-.54V88.22c0-.84-.34-1.17-1.17-1.18-1.31,0-2.62,0-3.93,0h-.74ZM47,87H42.37c-.86,0-1.19.33-1.19,1.22q0,10.14,0,20.27c0,.47.17.56.6.56,1.55,0,3.11,0,4.66,0,.19,0,.37,0,.57,0Zm1.81-63.39h12c-.46-1.25-.92-2.43-1.32-3.63a1.89,1.89,0,0,1,0-1.08c.34-1,.76-2.06,1.14-3.09.06-.17.11-.34.17-.54-.17,0-.26-.05-.35-.05H49.22c-.39,0-.46.17-.46.52,0,2.48,0,5,0,7.46C48.76,23.35,48.79,23.48,48.81,23.65Z"/><path class="cls-1" d="M47.92,72.51A10.74,10.74,0,1,1,58.67,61.84,10.74,10.74,0,0,1,47.92,72.51Zm9-10.67a9.06,9.06,0,1,0-9.24,9A9.08,9.08,0,0,0,57,61.84Z"/><path class="cls-1" d="M86.14,76.18c0,1.8,0,3.6,0,5.4,0,.83-.34,1.18-1.17,1.18H77.12c-.81,0-1.17-.37-1.17-1.2V70.7c0-.78.36-1.19,1.13-1.2,2.66,0,5.31,0,8,0,.74,0,1.09.41,1.09,1.16C86.15,72.5,86.14,74.34,86.14,76.18ZM77.71,81c.2,0,.36,0,.53,0,1.88,0,3.75,0,5.63,0,.49,0,.6-.16.6-.62,0-2.88,0-5.76,0-8.65,0-.18,0-.36,0-.55H77.71Z"/><path class="cls-1" d="M86.15,96.1c0,1.78,0,3.57,0,5.35,0,.91-.32,1.26-1.21,1.26q-3.89,0-7.79,0c-.82,0-1.19-.38-1.19-1.18V90.66c0-.82.36-1.19,1.17-1.2H85c.83,0,1.17.36,1.17,1.18C86.15,92.46,86.15,94.28,86.15,96.1Zm-8.44-4.92V101H84.4V91.18Z"/><path class="cls-1" d="M24.12,76.09V70.8c0-.94.36-1.3,1.31-1.3h7.62c.93,0,1.27.37,1.27,1.29,0,3.58,0,7.17,0,10.75,0,.89-.34,1.23-1.24,1.23H25.4c-1,0-1.28-.34-1.28-1.32Zm1.75-4.84V81l.5,0c1.89,0,3.79,0,5.68,0,.49,0,.6-.17.59-.62q0-4.32,0-8.64c0-.18,0-.37,0-.57Z"/><path class="cls-1" d="M71.68,76.15c0,1.79,0,3.57,0,5.35,0,.92-.34,1.26-1.27,1.26H62.72c-.9,0-1.25-.35-1.25-1.23V70.78c0-.91.36-1.28,1.28-1.28q3.84,0,7.68,0c.88,0,1.24.38,1.24,1.25C71.68,72.55,71.68,74.35,71.68,76.15ZM63.21,81l.51,0c1.89,0,3.79,0,5.68,0,.5,0,.59-.18.59-.63,0-2.86,0-5.72,0-8.58,0-.2,0-.4,0-.61H63.21Z"/><path class="cls-1" d="M9.65,76.1c0-1.77,0-3.53,0-5.29,0-1,.34-1.31,1.3-1.32h7.62c.92,0,1.28.39,1.28,1.29V81.47c0,.94-.34,1.29-1.25,1.29H10.86c-.85,0-1.21-.35-1.21-1.2C9.64,79.74,9.65,77.92,9.65,76.1Zm1.77-4.85a.67.67,0,0,0-.06.17c0,3.09,0,6.18,0,9.27,0,.35.19.39.47.38H18.1V71.25Z"/><path class="cls-1" d="M9.65,96.08c0-1.78,0-3.56,0-5.35,0-.93.33-1.27,1.26-1.27h7.68c.92,0,1.26.35,1.26,1.28v10.7c0,.92-.34,1.27-1.27,1.27q-3.84,0-7.68,0c-.92,0-1.25-.34-1.25-1.28C9.64,99.64,9.65,97.86,9.65,96.08Zm8.46-4.89-.5,0c-1.9,0-3.79,0-5.69,0-.5,0-.59.18-.59.63,0,2.88,0,5.76,0,8.64,0,.18,0,.37,0,.57h6.73Z"/><path class="cls-1" d="M61.47,96.05V90.71c0-.9.34-1.25,1.24-1.25h7.73c.89,0,1.23.36,1.24,1.25v10.75c0,.89-.35,1.25-1.24,1.25q-3.87,0-7.74,0c-.88,0-1.23-.36-1.23-1.25Zm8.51.06c0-1.48,0-3,0-4.44,0-.39-.12-.53-.52-.52-1.93,0-3.87,0-5.8,0-.42,0-.51.16-.51.53q0,4.41,0,8.81c0,.39.11.53.52.53,1.93,0,3.87,0,5.8,0,.41,0,.51-.15.51-.53C70,99,70,97.57,70,96.11Z"/><path class="cls-1" d="M34.33,96.14c0,1.78,0,3.56,0,5.34,0,.86-.34,1.23-1.19,1.23q-3.9,0-7.8,0c-.85,0-1.21-.37-1.21-1.22V90.68c0-.85.36-1.22,1.21-1.22h7.79c.86,0,1.2.36,1.2,1.22C34.33,92.5,34.32,94.32,34.33,96.14Zm-1.74-5H25.87V101h6.72Z"/><path class="cls-1" d="M48.76,60.92H51.2a2.7,2.7,0,0,1,.57,0,.78.78,0,0,1,.68.9.74.74,0,0,1-.76.76q-1.84,0-3.69,0a1,1,0,0,1-1-1c0-1.46,0-2.92,0-4.38a.81.81,0,0,1,.89-.89c.51,0,.81.36.82,1,0,1,0,2,0,3Z"/><path class="cls-1" d="M429.76,56.74a9.15,9.15,0,0,1-4.12-1c-1.21.52-6.77,2.64-9.87-1.3a6.38,6.38,0,0,1-1.64-6.32,6.9,6.9,0,0,1-2.81-6.19,7.12,7.12,0,0,1,2.32-4.67,6.59,6.59,0,0,1,5-1.28,7.06,7.06,0,0,1,7.09-4.64c.06,0,5.26.26,6.6,4.76,1.48.08,6.56.77,7.35,6.29.24,1.82-.11,5.25-2.9,6a7.83,7.83,0,0,1,.18,1.14h0a5.83,5.83,0,0,1-2.64,5.62h0A7.09,7.09,0,0,1,429.76,56.74Zm-4.1-2.16.22.12c4.75,2.49,7.71-.2,7.83-.32A4.9,4.9,0,0,0,436,49.63h0a6.24,6.24,0,0,0-.28-1.43l-.22-.58.61-.09c3.17-.45,2.65-4.86,2.62-5.05C437.91,37,432.21,37,432,37.05h-.41l-.09-.39c-1-4.14-5.72-4.37-5.77-4.37a6.05,6.05,0,0,0-6.23,4.31l-.11.43-.44-.06a5.85,5.85,0,0,0-4.64,1,6.19,6.19,0,0,0-2,4c-.47,3.38,2.64,5.46,2.67,5.48l.33.22-.13.37a5.41,5.41,0,0,0,1.31,5.66c3,3.85,8.87,1,8.93,1Z"/><rect class="cls-1" x="425.15" y="44.2" width="1" height="67.44"/><polygon class="cls-1" points="425.57 50.85 421.27 47.15 421.92 46.39 425.58 49.54 428.95 46.72 429.59 47.48 425.57 50.85"/><path class="cls-2" d="M449.14,59.46a5.45,5.45,0,0,1-2,4.91s-2.66,2.95-6.85.38c0,0-5.08,3-7.73-1a6.29,6.29,0,0,1-1.18-5.9,6.56,6.56,0,0,1-2.36-5.64s.29-6.08,5.84-5.21c0,0,1.06-4.64,5.49-4.45a5.58,5.58,0,0,1,5.07,4.52,5.87,5.87,0,0,1,5.91,5.58s.53,4.83-2.48,5.33a7.13,7.13,0,0,1,.25,1.48"/><path class="cls-1" d="M436.53,66.3A5,5,0,0,1,432.18,64a6.67,6.67,0,0,1-1.33-6,7,7,0,0,1-2.29-5.88,7.06,7.06,0,0,1,2.18-4.69,5,5,0,0,1,3.8-1c.42-1.22,1.95-4.55,5.87-4.4a6.16,6.16,0,0,1,5.46,4.53,6.35,6.35,0,0,1,6,6c0,.21.49,4.77-2.37,5.75a7.75,7.75,0,0,1,.15,1.09,5.91,5.91,0,0,1-2.16,5.34h0s-2.83,3-7.16.56A8.53,8.53,0,0,1,436.53,66.3Zm-2.68-18.88a3.83,3.83,0,0,0-2.48.81,6.15,6.15,0,0,0-1.81,4,6.07,6.07,0,0,0,2.16,5.23l.27.21-.09.33A5.72,5.72,0,0,0,433,63.41c2.41,3.57,6.93,1,7.12.91l.25-.15.26.15c3.79,2.33,6.19-.25,6.22-.28a5.05,5.05,0,0,0,1.84-4.54,6.86,6.86,0,0,0-.24-1.37l-.17-.55.56-.1c2.51-.41,2.07-4.73,2.07-4.78-.64-5.23-5.21-5.14-5.39-5.13h-.42l-.09-.41a5.11,5.11,0,0,0-4.61-4.12c-3.91-.16-4.93,3.89-5,4.07l-.11.45-.46-.07A5.51,5.51,0,0,0,433.85,47.42Z"/><rect class="cls-1" x="439.83" y="54.34" width="1" height="57.72"/><polyline class="cls-2" points="437.02 56.79 440.27 60.05 443.28 57.1"/><polygon class="cls-1" points="440.26 60.75 436.67 57.14 437.38 56.43 440.27 59.34 442.93 56.74 443.63 57.46 440.26 60.75"/><path class="cls-2" d="M445.54,92.69a5.86,5.86,0,0,1-2.64,5.64s-3.57,3.38-9.19.43c0,0-6.81,3.39-10.37-1.15a6.53,6.53,0,0,1-1.59-6.78s-3.72-2.45-3.16-6.48c0,0,.39-7,7.84-6a7.22,7.22,0,0,1,7.36-5.12s5.62.22,6.81,5.19c0,0,7-.21,7.92,6.41,0,0,.71,5.55-3.33,6.13a7.25,7.25,0,0,1,.35,1.71"/><path class="cls-1" d="M438.2,100.46a9.94,9.94,0,0,1-4.5-1.15c-1.28.56-7.37,2.92-10.76-1.39a7,7,0,0,1-1.77-6.9c-.94-.72-3.58-3.11-3.08-6.74a7.68,7.68,0,0,1,2.52-5.07,7.14,7.14,0,0,1,5.47-1.38,7.72,7.72,0,0,1,7.73-5.08c.06,0,5.73.28,7.18,5.2,1.56.08,7.16.8,8,6.83.26,2-.12,5.74-3.19,6.58a8.77,8.77,0,0,1,.22,1.28h0a6.3,6.3,0,0,1-2.87,6.1h0A7.71,7.71,0,0,1,438.2,100.46Zm-4.48-2.26.22.12c5.24,2.75,8.58-.32,8.61-.36A5.4,5.4,0,0,0,445,92.73h0a7,7,0,0,0-.32-1.58l-.21-.58.61-.09C448.63,90,448,85,448,84.92c-.87-6.11-7.14-6-7.4-6h-.41l-.1-.39C439,74,434,73.76,433.77,73.75a6.73,6.73,0,0,0-6.86,4.75l-.12.42-.43,0A6.36,6.36,0,0,0,421.25,80a6.77,6.77,0,0,0-2.16,4.4c-.51,3.7,2.91,6,2.94,6l.32.21-.12.37a6,6,0,0,0,1.44,6.24c3.33,4.22,9.75,1.1,9.82,1.07Z"/><rect class="cls-1" x="433.21" y="86.8" width="1" height="24.84"/><polyline class="cls-2" points="429.28 89.61 433.63 93.36 437.67 89.97"/><polygon class="cls-1" points="433.63 94.01 428.95 89.99 429.6 89.23 433.64 92.7 437.35 89.59 437.99 90.35 433.63 94.01"/><path class="cls-2" d="M468.12,90.4A7.34,7.34,0,0,1,465.48,97s-3.57,4-9.19.5c0,0-6.81,4-10.37-1.35a8.38,8.38,0,0,1-1.58-7.9,8.86,8.86,0,0,1-3.17-7.58s.39-8.16,7.84-7c0,0,1.42-6.22,7.36-6a7.49,7.49,0,0,1,6.81,6.06s7-.26,7.92,7.48c0,0,.71,6.48-3.33,7.15a9.74,9.74,0,0,1,.35,2"/><path class="cls-1" d="M460.78,99.4a8.84,8.84,0,0,1-4.5-1.34c-1.34.68-7.41,3.37-10.78-1.64a8.8,8.8,0,0,1-1.73-8,9.19,9.19,0,0,1-3.1-7.8c0-.13.23-4,2.87-6.19a6.56,6.56,0,0,1,5.11-1.29c.48-1.48,2.41-6.15,7.74-5.92a8.07,8.07,0,0,1,7.19,6.07c1.59.1,7.16.94,8,7.91,0,.28.66,6.42-3.21,7.58a10.44,10.44,0,0,1,.24,1.59h0a7.8,7.8,0,0,1-2.84,7h0A7.19,7.19,0,0,1,460.78,99.4ZM447.6,74.07a5.25,5.25,0,0,0-3.42,1.12c-2.3,1.87-2.51,5.46-2.51,5.5a8.44,8.44,0,0,0,3,7.15l.27.21-.09.33a7.82,7.82,0,0,0,1.47,7.42c3.3,4.91,9.49,1.41,9.75,1.26l.26-.15.25.15c5.21,3.2,8.52-.37,8.56-.41a6.88,6.88,0,0,0,2.51-6.22,9.34,9.34,0,0,0-.32-1.87l-.18-.55.57-.1c3.52-.59,2.92-6.54,2.91-6.6-.88-7.17-7.15-7.06-7.4-7l-.42,0-.09-.41a6.94,6.94,0,0,0-6.34-5.66c-5.44-.24-6.8,5.35-6.85,5.58l-.11.46-.46-.07A7.7,7.7,0,0,0,447.6,74.07Z"/><rect class="cls-1" x="455.79" y="83.53" width="1" height="27.65"/><polyline class="cls-2" points="451.86 86.81 456.21 91.18 460.25 87.23"/><polygon class="cls-1" points="456.21 91.89 451.5 87.16 452.21 86.45 456.22 90.48 459.9 86.87 460.6 87.58 456.21 91.89"/><path class="cls-1" d="M779.79,40.48H773.3a3.41,3.41,0,0,1-3.57-3.22V27.53a3.41,3.41,0,0,1,3.57-3.21h6.49a3.41,3.41,0,0,1,3.57,3.21v9.73A3.41,3.41,0,0,1,779.79,40.48ZM773.3,25.32a2.41,2.41,0,0,0-2.57,2.21v9.73a2.42,2.42,0,0,0,2.57,2.22h6.49a2.42,2.42,0,0,0,2.57-2.22V27.53a2.41,2.41,0,0,0-2.57-2.21Z"/><path class="cls-1" d="M770.32,34.87l-.17-1c6.82-1.19,8.46-4.38,8.47-4.42l.91.43C779.46,30.05,777.71,33.58,770.32,34.87Z"/><path class="cls-1" d="M782.39,35.43c-.67-2.16-4.11-4.58-4.14-4.61l.57-.82c.15.11,3.76,2.66,4.52,5.14Z"/><path class="cls-1" d="M767.78,69.57l-.94-.34a21.08,21.08,0,0,0,.2-13.42L765.31,58,760.67,54l4.12-8.34c1.76-3.35,6.27-3.36,7.87-3.25V40h1v3.59l-.56-.07c-.06,0-5.64-.73-7.42,2.66l-3.77,7.63,3.26,2.76,2.17-2.71.33.76A21.62,21.62,0,0,1,767.78,69.57Z"/><polygon class="cls-1" points="779.16 43.5 779.16 39.98 780.16 39.98 780.16 42.49 783.18 42.47 783.19 43.47 779.16 43.5"/><path class="cls-1" d="M753,35.74h-6.49a3.41,3.41,0,0,1-3.57-3.21V22.8a3.42,3.42,0,0,1,3.57-3.22H753a3.42,3.42,0,0,1,3.57,3.22v9.73A3.41,3.41,0,0,1,753,35.74Zm-6.49-15.16a2.42,2.42,0,0,0-2.57,2.22v9.73a2.41,2.41,0,0,0,2.57,2.21H753a2.41,2.41,0,0,0,2.57-2.21V22.8A2.42,2.42,0,0,0,753,20.58Z"/><path class="cls-1" d="M743.49,30.14l-.17-1c6.82-1.2,8.46-4.39,8.47-4.42l.91.43C752.63,25.32,750.88,28.85,743.49,30.14Z"/><path class="cls-1" d="M755.56,30.7c-.67-2.16-4.11-4.59-4.14-4.61l.57-.82c.15.11,3.76,2.65,4.52,5.13Z"/><path class="cls-1" d="M751.49,76.59a5.11,5.11,0,0,1-1.76-.34l-.25-.11-.05-.26c-.07-.34-1.13-2.62-2.15-4.69-3.7-1.39-11.56-6.38-11.9-6.6l-.12-.07-.06-.12c-2.41-4.82-.72-18.45-.64-19a6.7,6.7,0,0,1,3.22-4.91l8.06-2.56V35.24h1v3.39l-8.68,2.74a5.86,5.86,0,0,0-2.61,4.13c0,.13-1.7,13.66.49,18.33,1,.65,8.5,5.33,11.76,6.49l.2.07.09.18c.32.66,1.83,3.74,2.23,4.83a3,3,0,0,0,2,0,1.45,1.45,0,0,0,.74-.81c-.35-.91-2.11-5.24-4.36-6l-.15-.08-9.07-7.26.2-9.12,1,0-.19,8.63,8.62,6.9c2.91,1.12,4.88,6.55,5,6.78l.06.16-.06.17a2.5,2.5,0,0,1-1.34,1.56A3,3,0,0,1,751.49,76.59Z"/><rect class="cls-1" x="752.33" y="35.24" width="1" height="3.02"/><path class="cls-1" d="M742.84,113.15c-3.12-28.3-3.35-41.15-3.35-41.28,0-1.19.19-4.81.2-5l1,0s-.19,3.75-.19,4.91c0,.11.23,12.93,3.35,41.17Z"/><path class="cls-1" d="M770,40.8c-3.71-.39-17.15-2.45-17.29-2.47l.15-1c.14,0,13.56,2.08,17.24,2.47Z"/><rect class="cls-1" x="769.72" y="37" width="1" height="5.92"/><rect class="cls-1" x="782.34" y="37" width="1" height="5.92"/><path class="cls-1" d="M759.41,54l-.1-4.34c0-1.4,1.75-2.46,2.31-2.76.54-1,2.15-5.7,2.75-7.48l1,.32c-.24.69-2.31,6.79-2.91,7.79l-.07.13-.13.06c-.5.25-1.9,1.13-1.9,1.92l.1,4.33Z"/><rect class="cls-1" x="764.19" y="43.39" width="1" height="2.5" transform="translate(599.84 792.69) rotate(-80.91)"/><path class="cls-2" d="M764.72,64.83a2.48,2.48,0,0,1-2.62,2.31h-5.53A2.48,2.48,0,0,1,754,64.83v-8.3a2.48,2.48,0,0,1,2.62-2.32h5.53a2.48,2.48,0,0,1,2.62,2.32Z"/><path class="cls-1" d="M762.1,67.64h-5.53a3,3,0,0,1-3.12-2.81v-8.3a3,3,0,0,1,3.12-2.82h5.53a3,3,0,0,1,3.12,2.82v8.3A3,3,0,0,1,762.1,67.64Zm-5.53-12.93a2,2,0,0,0-2.12,1.82v8.3a2,2,0,0,0,2.12,1.81h5.53a2,2,0,0,0,2.12-1.81v-8.3a2,2,0,0,0-2.12-1.82Z"/><path class="cls-1" d="M754,62.86l-.17-1c5.78-1,7.17-3.7,7.18-3.73l.9.43C761.88,58.71,760.37,61.75,754,62.86Z"/><path class="cls-1" d="M764.25,63.29c-.56-1.82-3.48-3.88-3.51-3.9l.58-.82c.13.1,3.22,2.28,3.88,4.42Z"/><path class="cls-1" d="M788,48.8l-2-.4a1.42,1.42,0,0,1-.95-.3,2.13,2.13,0,0,1-.7-1.65c-.29-1.13-1-2.84-1.62-2.89l.08-1c1.57.12,2.38,3.13,2.52,3.73a1.45,1.45,0,0,0,.33,1,.35.35,0,0,0,.29.09h.18l1.85.37a1.55,1.55,0,0,0,.42-.85c0-4-5.14-4.44-5.36-4.45l.06-1c2.18.15,6.29,1.49,6.29,5.53,0,.24-.29,1.63-1.32,1.78Z"/><path class="cls-1" d="M776.71,46.1c-2.17,0-3.9-2.72-4-2.84l.85-.53c.43.69,1.83,2.44,3.21,2.37.88-.05,1.69-.83,2.41-2.32l.9.44c-.89,1.84-2,2.81-3.26,2.88Z"/><path class="cls-1" d="M786.85,78.59a2.46,2.46,0,0,1-.88-.14l.36-.93c.71.27,2.22-.22,3.18-.65a135.1,135.1,0,0,0-2-28.48l1-.19a136,136,0,0,1,2,29l0,.3-.26.13A9.14,9.14,0,0,1,786.85,78.59Z"/><path class="cls-1" d="M786.52,84.7h-.22l.09-1a1.1,1.1,0,0,0,.87-.27,4.16,4.16,0,0,0,1-2.52l.5-3.3,1,.15L789.21,81a5.24,5.24,0,0,1-1.29,3.17A2.1,2.1,0,0,1,786.52,84.7Z"/><path class="cls-1" d="M768.79,93.38v-1l15.84-.1c2.32-17.73.4-22.74.38-22.79-2.4-5.19-.6-14.68-.53-15.08l1,.19c0,.1-1.82,9.57.45,14.49.1.22,2.1,5.29-.35,23.75l-.06.43Z"/><rect class="cls-1" x="739.99" y="70.08" width="7.69" height="1"/><path class="cls-1" d="M769.17,92.29h-3.64v-1h2.67c.08-2.59.43-14.84,0-18.48s-6.31-3.51-6.38-3.5h-.52V67.14h1v1.17c1.62,0,6.44.53,6.89,4.39.5,4.13,0,18.5,0,19.11Z"/><path class="cls-1" d="M751.65,70.34l-.45-.89a22.13,22.13,0,0,1,5.46-1.09V67.14h1v2.12l-.46,0A24,24,0,0,0,751.65,70.34Z"/><path class="cls-1" d="M753.6,91.9h-4.32l-.11-.36c-.8-2.71-.62-16.81-.61-17.41h1c0,.14-.17,13.44.49,16.76h3.55Z"/><path class="cls-1" d="M753.69,113.9c-.1-3.45-.89-34.52-.89-34.52l1,0s.79,31.07.89,34.52Z"/><path class="cls-1" d="M765.34,113.9l-1,0c.1-3.45.89-34.52.89-34.52l1,0S765.44,110.45,765.34,113.9Z"/><path class="cls-1" d="M759.52,72.56c-1.9-.32-4-3-4.24-3.24l.78-.62c.56.71,2.26,2.59,3.48,2.86.23,0,1.46-.37,3.22-2.84l.81.58C761.32,72.47,759.69,72.56,759.52,72.56Z"/><rect class="cls-1" x="753.6" y="86.46" width="11.44" height="1"/><path class="cls-1" d="M753.15,97.2a5.78,5.78,0,0,1-2.37-.83l-.1-.08c-.89-.9-.85-4.08-.84-4.71l1,0c0,1.55.14,3.46.51,3.93a4.19,4.19,0,0,0,1.88.66l.55.84A1.12,1.12,0,0,1,753.15,97.2Z"/><path class="cls-1" d="M766.18,97.41a2.82,2.82,0,0,1-.78-.11l.26-1a1.63,1.63,0,0,0,1.74-.51,11.53,11.53,0,0,0,.39-3.64h1c0,1.36-.08,3.74-.63,4.29h0A2.58,2.58,0,0,1,766.18,97.41Z"/><rect class="cls-1" x="749.15" y="91.4" width="1" height="21.9"/><rect class="cls-1" x="758.92" y="94.06" width="1" height="19.13"/><path class="cls-1" d="M759.54,94.68a3.17,3.17,0,0,1-1.7-.51l.59-.81-.3.4.29-.41a2.1,2.1,0,0,0,2.39-.1l.57.83A3.22,3.22,0,0,1,759.54,94.68Z"/><rect class="cls-1" x="771.05" y="93" width="1" height="20.75" transform="translate(-6.76 88.73) rotate(-6.55)"/><rect class="cls-1" x="771.29" y="102.73" width="20.63" height="1" transform="translate(596.5 869.59) rotate(-83.94)"/><rect class="cls-1" x="776.08" y="92.68" width="1" height="20.61"/><polygon class="cls-1" points="750.32 42.74 744.52 39.15 745.05 38.3 750.3 41.55 755.56 38.05 756.11 38.88 750.32 42.74"/><rect class="cls-1" x="734.53" y="54.53" width="5.52" height="1"/><path class="cls-1" d="M568.1,108.52a1,1,0,0,0,.95-1v-17a.95.95,0,0,0-1.9,0v16H549.53v-16a.94.94,0,0,0-.94-1H541a.94.94,0,0,0-1,1v16h-5.7v-16a.95.95,0,1,0-1.89,0v17a1,1,0,0,0,.95,1H541a1,1,0,0,0,.94-1v-16h5.7v16a1,1,0,0,0,1,1Z"/><path class="cls-1" d="M574.14,87,551.46,67.46a.94.94,0,0,0-1.23,0L527.37,87a1,1,0,0,0-.1,1.33,1,1,0,0,0,1.33.1l22.24-19,22.06,19A.95.95,0,1,0,574.14,87Z"/><path class="cls-1" d="M562.32,98a1,1,0,0,0,.94-1v-6.5a.94.94,0,0,0-.94-1H554a.94.94,0,0,0-1,1v6.5a1,1,0,0,0,1,1ZM555,91.53h6.42v4.62H555Z"/><path class="cls-1" d="M618.27,108.52a1,1,0,0,0,1-1v-17a.95.95,0,1,0-1.89,0v16H599.7v-16a.94.94,0,0,0-.94-1h-7.59a1,1,0,0,0-.95,1v16h-5.69v-16a.95.95,0,1,0-1.89,0v17a1,1,0,0,0,.94,1h7.59a1,1,0,0,0,1-1v-16h5.69v16a1,1,0,0,0,1,1Z"/><path class="cls-1" d="M624.31,87,601.63,67.46a.93.93,0,0,0-.61-.23,1,1,0,0,0-.62.23L577.55,87a.94.94,0,0,0-.11,1.33,1,1,0,0,0,1.33.1l22.24-19,22.07,19A.94.94,0,1,0,624.31,87Z"/><path class="cls-1" d="M612.49,98a1,1,0,0,0,1-1v-6.5a1,1,0,0,0-1-1h-8.31a1,1,0,0,0-.95,1v6.5a1,1,0,0,0,.95,1Zm-7.37-6.51h6.43v4.62h-6.43Z"/><path class="cls-1" d="M668.19,108.52a1,1,0,0,0,.95-1v-17a.95.95,0,1,0-1.89,0v16H649.62v-16a.94.94,0,0,0-.94-1h-7.59a1,1,0,0,0-1,1v16h-5.7v-16a.95.95,0,1,0-1.89,0v17a1,1,0,0,0,1,1h7.59a1,1,0,0,0,.94-1v-16h5.7v16a1,1,0,0,0,.95,1Z"/><path class="cls-1" d="M674.23,87,651.55,67.46a.94.94,0,0,0-1.23,0L627.46,87a1,1,0,0,0-.1,1.33,1,1,0,0,0,1.33.1l22.24-19,22.07,19A.94.94,0,1,0,674.23,87Z"/><path class="cls-1" d="M662.41,98a1,1,0,0,0,1-1v-6.5a1,1,0,0,0-1-1H654.1a1,1,0,0,0-1,1v6.5a1,1,0,0,0,1,1ZM655,91.53h6.42v4.62H655Z"/><path class="cls-1" d="M717.91,108.52a1,1,0,0,0,.94-1v-17a.95.95,0,1,0-1.89,0v16H699.34v-16a1,1,0,0,0-1-1H690.8a.94.94,0,0,0-.94,1v16h-5.7v-16a.95.95,0,1,0-1.89,0v17a1,1,0,0,0,1,1h7.58a1,1,0,0,0,1-1v-16h5.7v16a1,1,0,0,0,.94,1Z"/><path class="cls-1" d="M723.94,87,701.27,67.46a1,1,0,0,0-.62-.23,1,1,0,0,0-.61.23L677.18,87a.94.94,0,0,0-.1,1.33,1,1,0,0,0,1.33.1l22.24-19,22.06,19A.94.94,0,1,0,723.94,87Z"/><path class="cls-1" d="M712.13,98a1,1,0,0,0,.94-1v-6.5a.94.94,0,0,0-.94-1h-8.32a.94.94,0,0,0-.94,1v6.5a1,1,0,0,0,.94,1Zm-7.37-6.51h6.42v4.62h-6.42Z"/></g></svg>