<svg xmlns="http://www.w3.org/2000/svg" viewBox="0 0 56.31 75.99"><defs><style>.cls-1{fill:#4d4e50;}.cls-2{fill:#ee8122;}</style></defs><g id="Economic_Opportunities_Image" data-name="Economic Opportunities Image"><path class="cls-1" d="M16.49,31a1.83,1.83,0,0,1-1.44-.57,2.35,2.35,0,0,1-.51-1.62,2.44,2.44,0,0,1,.51-1.66,1.88,1.88,0,0,1,1.48-.59,2.68,2.68,0,0,1,.62.07,1.92,1.92,0,0,1,.48.16l-.2.55a2.88,2.88,0,0,0-.47-.15,2.68,2.68,0,0,0-.45-.05c-.87,0-1.3.55-1.3,1.66A1.92,1.92,0,0,0,15.53,30a1.1,1.1,0,0,0,.94.42,2.79,2.79,0,0,0,1.1-.23v.58A2.34,2.34,0,0,1,16.49,31Z"/><path class="cls-1" d="M22.28,28.77a2.35,2.35,0,0,1-.53,1.63,1.87,1.87,0,0,1-1.46.59,1.94,1.94,0,0,1-1-.27,1.82,1.82,0,0,1-.68-.77,2.73,2.73,0,0,1-.25-1.18,2.35,2.35,0,0,1,.53-1.63,1.85,1.85,0,0,1,1.45-.59,1.81,1.81,0,0,1,1.43.6A2.38,2.38,0,0,1,22.28,28.77Zm-3.26,0A2.12,2.12,0,0,0,19.34,30a1.31,1.31,0,0,0,1.94,0,2,2,0,0,0,.33-1.25,2,2,0,0,0-.33-1.24,1.32,1.32,0,0,0-1.94,0A2.07,2.07,0,0,0,19,28.77Z"/><path class="cls-1" d="M28.87,30.91V28.13a1.14,1.14,0,0,0-.22-.77A.84.84,0,0,0,28,27.1a1.1,1.1,0,0,0-.89.35,1.67,1.67,0,0,0-.29,1.07v2.39h-.65V28.13a1.14,1.14,0,0,0-.22-.77.84.84,0,0,0-.68-.26,1.06,1.06,0,0,0-.89.37,2,2,0,0,0-.29,1.2v2.24h-.64V26.63h.52l.11.59h0a1.23,1.23,0,0,1,.52-.49,1.53,1.53,0,0,1,.74-.18,1.28,1.28,0,0,1,1.32.73h0a1.4,1.4,0,0,1,.55-.53,1.76,1.76,0,0,1,.83-.2,1.44,1.44,0,0,1,1.09.38,1.64,1.64,0,0,1,.36,1.19v2.79Z"/><path class="cls-1" d="M36.31,30.91V28.13a1.14,1.14,0,0,0-.22-.77.83.83,0,0,0-.67-.26,1.1,1.1,0,0,0-.9.35,1.67,1.67,0,0,0-.29,1.07v2.39h-.65V28.13a1.14,1.14,0,0,0-.22-.77.84.84,0,0,0-.68-.26,1.06,1.06,0,0,0-.89.37,2,2,0,0,0-.28,1.2v2.24h-.65V26.63h.52l.11.59h0a1.29,1.29,0,0,1,.52-.49,1.54,1.54,0,0,1,.75-.18,1.27,1.27,0,0,1,1.31.73h0a1.4,1.4,0,0,1,.55-.53,1.76,1.76,0,0,1,.83-.2,1.44,1.44,0,0,1,1.09.38A1.64,1.64,0,0,1,37,28.12v2.79Z"/><path class="cls-1" d="M38.91,26.63v2.78a1.1,1.1,0,0,0,.24.78,1,1,0,0,0,.74.26,1.22,1.22,0,0,0,1-.37,1.82,1.82,0,0,0,.31-1.2V26.63h.65v4.28H41.3l-.1-.57h0a1.29,1.29,0,0,1-.55.48,1.92,1.92,0,0,1-.81.17,1.63,1.63,0,0,1-1.17-.37,1.58,1.58,0,0,1-.39-1.19v-2.8Z"/><path class="cls-1" d="M46.14,30.91V28.14a1.1,1.1,0,0,0-.24-.78,1,1,0,0,0-.75-.26,1.21,1.21,0,0,0-1,.37,1.82,1.82,0,0,0-.31,1.2v2.24h-.65V26.63h.53l.1.59h0a1.33,1.33,0,0,1,.56-.49,1.77,1.77,0,0,1,.8-.18,1.63,1.63,0,0,1,1.17.38,1.56,1.56,0,0,1,.39,1.19v2.79Z"/><path class="cls-1" d="M48.06,25.47a.37.37,0,0,1,.39-.43.4.4,0,0,1,.27.11.43.43,0,0,1,.11.32.45.45,0,0,1-.11.33.39.39,0,0,1-.27.1.4.4,0,0,1-.28-.1A.45.45,0,0,1,48.06,25.47Zm.71,5.44h-.65V26.63h.65Z"/><path class="cls-1" d="M51.52,30.46a1.87,1.87,0,0,0,.34,0l.25-.05v.49a.89.89,0,0,1-.31.09l-.37,0c-.83,0-1.24-.44-1.24-1.31V27.13h-.61v-.31l.61-.27.27-.91h.38v1h1.24v.5H50.84v2.52a.9.9,0,0,0,.18.6A.63.63,0,0,0,51.52,30.46Z"/><path class="cls-1" d="M52.29,26.63H53l.94,2.44a8.61,8.61,0,0,1,.38,1.21h0c0-.13.11-.36.22-.68s.46-1.31,1.06-3h.69l-1.84,4.88a2.33,2.33,0,0,1-.64,1,1.35,1.35,0,0,1-.89.3,2.88,2.88,0,0,1-.59-.06v-.52a2.33,2.33,0,0,0,.48,0,1,1,0,0,0,1-.75l.24-.6Z"/><path class="cls-1" d="M6.64,39.91V37.14a1.1,1.1,0,0,0-.24-.78,1,1,0,0,0-.74-.26,1.25,1.25,0,0,0-1,.37,1.86,1.86,0,0,0-.31,1.2v2.24H3.71V33.83h.65v1.84a4,4,0,0,1,0,.55h0a1.4,1.4,0,0,1,.54-.48,1.79,1.79,0,0,1,.81-.18,1.7,1.7,0,0,1,1.18.37,1.59,1.59,0,0,1,.39,1.19v2.79Z"/><path class="cls-1" d="M10.43,40a2,2,0,0,1-1.5-.58,2.25,2.25,0,0,1-.55-1.6,2.5,2.5,0,0,1,.51-1.65,1.72,1.72,0,0,1,1.37-.61,1.64,1.64,0,0,1,1.28.53,2.06,2.06,0,0,1,.47,1.4v.41H9.06A1.68,1.68,0,0,0,9.44,39a1.31,1.31,0,0,0,1,.39,3.31,3.31,0,0,0,1.37-.29v.58a3.84,3.84,0,0,1-.65.22A3.88,3.88,0,0,1,10.43,40Zm-.17-3.89a1.08,1.08,0,0,0-.83.33,1.63,1.63,0,0,0-.36.93h2.24a1.44,1.44,0,0,0-.27-.94A1,1,0,0,0,10.26,36.1Z"/><path class="cls-1" d="M15.74,39.91l-.13-.61h0a1.76,1.76,0,0,1-.64.55,2,2,0,0,1-.79.14,1.44,1.44,0,0,1-1-.33,1.2,1.2,0,0,1-.36-.93c0-.87.69-1.32,2.07-1.36l.73,0v-.27a1,1,0,0,0-.22-.74.87.87,0,0,0-.69-.24,2.91,2.91,0,0,0-1.21.32l-.2-.49a2.61,2.61,0,0,1,.69-.27,2.89,2.89,0,0,1,.76-.1,1.59,1.59,0,0,1,1.13.34A1.41,1.41,0,0,1,16.22,37v2.92Zm-1.46-.45a1.33,1.33,0,0,0,1-.34,1.23,1.23,0,0,0,.35-.93v-.38l-.65,0a2.42,2.42,0,0,0-1.12.24.74.74,0,0,0-.34.67.66.66,0,0,0,.21.53A.92.92,0,0,0,14.28,39.46Z"/><path class="cls-1" d="M18.21,39.91h-.65V33.83h.65Z"/><path class="cls-1" d="M21,39.46a1.84,1.84,0,0,0,.33,0l.25,0v.49a.89.89,0,0,1-.31.09l-.37,0c-.83,0-1.24-.44-1.24-1.31V36.13H19v-.31l.61-.27.27-.91h.38v1h1.24v.5H20.28v2.52a.9.9,0,0,0,.18.6A.65.65,0,0,0,21,39.46Z"/><path class="cls-1" d="M25.34,39.91V37.14a1.1,1.1,0,0,0-.24-.78,1,1,0,0,0-.75-.26,1.22,1.22,0,0,0-1,.37,1.86,1.86,0,0,0-.31,1.2v2.24h-.65V33.83h.65v1.84a2.75,2.75,0,0,1,0,.55h0a1.36,1.36,0,0,1,.55-.48,1.73,1.73,0,0,1,.81-.18,1.67,1.67,0,0,1,1.17.37,1.6,1.6,0,0,1,.4,1.19v2.79Z"/><path class="cls-1" d="M31.11,40a1.83,1.83,0,0,1-1.44-.57,2.35,2.35,0,0,1-.51-1.62,2.39,2.39,0,0,1,.52-1.66,1.85,1.85,0,0,1,1.47-.59,2.62,2.62,0,0,1,.62.07,1.92,1.92,0,0,1,.48.16l-.2.55a2.88,2.88,0,0,0-.47-.15,2.68,2.68,0,0,0-.45,0c-.87,0-1.3.55-1.3,1.66A2,2,0,0,0,30.15,39a1.11,1.11,0,0,0,.94.42,2.79,2.79,0,0,0,1.1-.23v.58A2.34,2.34,0,0,1,31.11,40Z"/><path class="cls-1" d="M35,40a2,2,0,0,1-1.5-.58,2.25,2.25,0,0,1-.54-1.6,2.5,2.5,0,0,1,.51-1.65,1.7,1.7,0,0,1,1.36-.61,1.63,1.63,0,0,1,1.28.53,2.06,2.06,0,0,1,.47,1.4v.41h-3A1.68,1.68,0,0,0,34,39a1.32,1.32,0,0,0,1,.39,3.3,3.3,0,0,0,1.36-.29v.58a3.56,3.56,0,0,1-.65.22A3.88,3.88,0,0,1,35,40Zm-.17-3.89a1.08,1.08,0,0,0-.83.33,1.63,1.63,0,0,0-.36.93h2.24a1.44,1.44,0,0,0-.27-.94A.94.94,0,0,0,34.84,36.1Z"/><path class="cls-1" d="M40.62,39.91V37.14a1.1,1.1,0,0,0-.24-.78,1,1,0,0,0-.74-.26,1.22,1.22,0,0,0-1,.37,1.88,1.88,0,0,0-.31,1.2v2.24h-.65V35.63h.53l.11.59h0a1.28,1.28,0,0,1,.56-.49,1.74,1.74,0,0,1,.8-.18,1.62,1.62,0,0,1,1.16.38,1.56,1.56,0,0,1,.39,1.19v2.79Z"/><path class="cls-1" d="M44,39.46a1.84,1.84,0,0,0,.33,0l.25,0v.49a.89.89,0,0,1-.31.09l-.37,0c-.83,0-1.24-.44-1.24-1.31V36.13H42v-.31l.61-.27.27-.91h.38v1h1.24v.5H43.3v2.52a.9.9,0,0,0,.18.6A.64.64,0,0,0,44,39.46Z"/><path class="cls-1" d="M47.24,40a1.94,1.94,0,0,1-1.5-.58,2.21,2.21,0,0,1-.55-1.6,2.5,2.5,0,0,1,.51-1.65,1.72,1.72,0,0,1,1.37-.61,1.62,1.62,0,0,1,1.27.53,2.06,2.06,0,0,1,.47,1.4v.41h-3A1.68,1.68,0,0,0,46.24,39a1.32,1.32,0,0,0,1,.39,3.34,3.34,0,0,0,1.37-.29v.58a4.16,4.16,0,0,1-.65.22A4,4,0,0,1,47.24,40Zm-.18-3.89a1.06,1.06,0,0,0-.82.33,1.51,1.51,0,0,0-.36.93h2.23a1.44,1.44,0,0,0-.27-.94A.94.94,0,0,0,47.06,36.1Z"/><path class="cls-1" d="M51.87,35.55a2.59,2.59,0,0,1,.51.05l-.09.6a2.16,2.16,0,0,0-.47-.06,1.16,1.16,0,0,0-.89.42,1.61,1.61,0,0,0-.37,1.06v2.29h-.64V35.63h.53l.07.79h0a2,2,0,0,1,.57-.64A1.3,1.3,0,0,1,51.87,35.55Z"/><path class="cls-1" d="M55.94,38.74a1.1,1.1,0,0,1-.44.93,2.16,2.16,0,0,1-1.25.32,2.72,2.72,0,0,1-1.33-.27v-.6a3.74,3.74,0,0,0,.66.25,2.77,2.77,0,0,0,.68.09,1.5,1.5,0,0,0,.78-.17.51.51,0,0,0,.28-.49.53.53,0,0,0-.22-.43,3.15,3.15,0,0,0-.84-.42,4.43,4.43,0,0,1-.85-.39,1.12,1.12,0,0,1-.38-.37,1,1,0,0,1-.12-.51,1,1,0,0,1,.42-.82,2,2,0,0,1,1.17-.31,3.55,3.55,0,0,1,1.35.28l-.23.53a3,3,0,0,0-1.17-.26,1.32,1.32,0,0,0-.69.14.45.45,0,0,0-.24.4.48.48,0,0,0,.09.29.89.89,0,0,0,.29.23,7.06,7.06,0,0,0,.75.32,2.78,2.78,0,0,1,1,.56A1,1,0,0,1,55.94,38.74Z"/><path class="cls-1" d="M2.72,44.55a2.7,2.7,0,0,1,.52.05l-.09.6a2.23,2.23,0,0,0-.47-.06,1.13,1.13,0,0,0-.89.42,1.56,1.56,0,0,0-.37,1.06v2.29H.77V44.63h.54l.07.79h0A1.9,1.9,0,0,1,2,44.78,1.29,1.29,0,0,1,2.72,44.55Z"/><path class="cls-1" d="M5.84,49a1.93,1.93,0,0,1-1.49-.58,2.21,2.21,0,0,1-.55-1.6,2.5,2.5,0,0,1,.51-1.65,1.7,1.7,0,0,1,1.37-.61A1.62,1.62,0,0,1,7,45.08a2.06,2.06,0,0,1,.47,1.4v.41H4.47A1.68,1.68,0,0,0,4.85,48a1.32,1.32,0,0,0,1,.39,3.34,3.34,0,0,0,1.37-.29v.58a4.16,4.16,0,0,1-.65.22A4.06,4.06,0,0,1,5.84,49ZM5.67,45.1a1.06,1.06,0,0,0-.82.33,1.51,1.51,0,0,0-.36.93H6.72a1.44,1.44,0,0,0-.27-.94A.94.94,0,0,0,5.67,45.1Z"/><path class="cls-1" d="M11.45,48.91V46.14a1.1,1.1,0,0,0-.23-.78,1,1,0,0,0-.75-.26,1.18,1.18,0,0,0-1,.37,1.81,1.81,0,0,0-.32,1.2v2.24H8.52V44.63h.53l.11.59h0a1.28,1.28,0,0,1,.56-.49,1.74,1.74,0,0,1,.8-.18,1.62,1.62,0,0,1,1.16.38,1.56,1.56,0,0,1,.39,1.19v2.79Z"/><path class="cls-1" d="M17.13,46.77a2.35,2.35,0,0,1-.53,1.63,1.85,1.85,0,0,1-1.45.59,1.89,1.89,0,0,1-1-.27,1.78,1.78,0,0,1-.69-.77,2.73,2.73,0,0,1-.24-1.18,2.35,2.35,0,0,1,.52-1.63,1.85,1.85,0,0,1,1.45-.59,1.81,1.81,0,0,1,1.43.6A2.38,2.38,0,0,1,17.13,46.77Zm-3.26,0A2,2,0,0,0,14.2,48a1.3,1.3,0,0,0,1.93,0,2,2,0,0,0,.33-1.25,2,2,0,0,0-.33-1.24,1.32,1.32,0,0,0-1.94,0A2.07,2.07,0,0,0,13.87,46.77Z"/><path class="cls-1" d="M19.2,48.91l-1.62-4.28h.69l.93,2.54a9,9,0,0,1,.36,1.16h0a7.51,7.51,0,0,1,.28-.86c.15-.43.49-1.38,1-2.84h.7L20,48.91Z"/><path class="cls-1" d="M24.91,48.91l-.13-.61h0a1.94,1.94,0,0,1-.64.55,2,2,0,0,1-.8.14,1.41,1.41,0,0,1-1-.33,1.2,1.2,0,0,1-.37-.93c0-.87.7-1.32,2.08-1.36l.73,0v-.27a1.09,1.09,0,0,0-.22-.74.91.91,0,0,0-.7-.24,3,3,0,0,0-1.21.32l-.2-.49a2.82,2.82,0,0,1,.7-.27,2.76,2.76,0,0,1,.75-.1A1.64,1.64,0,0,1,25,44.9,1.45,1.45,0,0,1,25.39,46v2.92Zm-1.47-.45a1.31,1.31,0,0,0,.95-.34,1.23,1.23,0,0,0,.35-.93v-.38l-.65,0a2.37,2.37,0,0,0-1.11.24.75.75,0,0,0-.35.67.67.67,0,0,0,.22.53A.89.89,0,0,0,23.44,48.46Z"/><path class="cls-1" d="M28.11,48.46a1.84,1.84,0,0,0,.33,0l.25,0v.49a.89.89,0,0,1-.31.09L28,49c-.83,0-1.24-.44-1.24-1.31V45.13h-.61v-.31l.61-.27.27-.91h.38v1h1.24v.5H27.42v2.52a.9.9,0,0,0,.18.6A.65.65,0,0,0,28.11,48.46Z"/><path class="cls-1" d="M31.36,49a1.94,1.94,0,0,1-1.5-.58,2.21,2.21,0,0,1-.55-1.6,2.5,2.5,0,0,1,.51-1.65,1.72,1.72,0,0,1,1.37-.61,1.61,1.61,0,0,1,1.27.53,2.06,2.06,0,0,1,.47,1.4v.41H30A1.73,1.73,0,0,0,30.36,48a1.32,1.32,0,0,0,1,.39,3.34,3.34,0,0,0,1.37-.29v.58a4.16,4.16,0,0,1-.65.22A4,4,0,0,1,31.36,49Zm-.18-3.89a1.06,1.06,0,0,0-.82.33,1.51,1.51,0,0,0-.36.93h2.24a1.44,1.44,0,0,0-.28-.94A.94.94,0,0,0,31.18,45.1Z"/><path class="cls-1" d="M37,48.34h0a1.54,1.54,0,0,1-1.35.65,1.61,1.61,0,0,1-1.31-.57,2.56,2.56,0,0,1-.46-1.64,2.52,2.52,0,0,1,.47-1.64,1.72,1.72,0,0,1,2.64,0H37l0-.31V42.83h.64v6.08H37Zm-1.3.11a1.19,1.19,0,0,0,1-.36,1.82,1.82,0,0,0,.3-1.17v-.14a2.18,2.18,0,0,0-.31-1.3,1.16,1.16,0,0,0-1-.38,1,1,0,0,0-.88.44,2.2,2.2,0,0,0-.3,1.25,2.12,2.12,0,0,0,.3,1.24A1,1,0,0,0,35.65,48.45Z"/><path class="cls-1" d="M44.51,48.91l-.78-2.51c0-.15-.14-.5-.28-1h0c-.1.46-.2.81-.27,1.06l-.81,2.5h-.75l-1.17-4.28h.68q.42,1.62.63,2.46A11.24,11.24,0,0,1,42,48.22h0c0-.14.07-.34.14-.57s.12-.42.16-.56l.79-2.46h.7l.77,2.46a8.58,8.58,0,0,1,.29,1.13h0a3,3,0,0,1,.08-.44l.81-3.15h.68l-1.19,4.28Z"/><path class="cls-1" d="M47.18,43.47a.37.37,0,0,1,.39-.43.4.4,0,0,1,.27.11.43.43,0,0,1,.11.32.45.45,0,0,1-.11.33.39.39,0,0,1-.27.1.4.4,0,0,1-.28-.1A.45.45,0,0,1,47.18,43.47Zm.71,5.44h-.65V44.63h.65Z"/><path class="cls-1" d="M50.65,48.46a1.84,1.84,0,0,0,.33,0l.25,0v.49a.89.89,0,0,1-.31.09l-.37,0c-.83,0-1.24-.44-1.24-1.31V45.13H48.7v-.31l.61-.27.27-.91H50v1H51.2v.5H50v2.52a.9.9,0,0,0,.18.6A.64.64,0,0,0,50.65,48.46Z"/><path class="cls-1" d="M55,48.91V46.14a1.1,1.1,0,0,0-.24-.78A1,1,0,0,0,54,45.1a1.22,1.22,0,0,0-1,.37,1.86,1.86,0,0,0-.31,1.2v2.24h-.65V42.83h.65v1.84a2.75,2.75,0,0,1,0,.55h0a1.36,1.36,0,0,1,.55-.48,1.71,1.71,0,0,1,.8-.18,1.68,1.68,0,0,1,1.18.37,1.6,1.6,0,0,1,.4,1.19v2.79Z"/><path class="cls-1" d="M22.34,53.87a1.58,1.58,0,0,1-.59,1.33,2.68,2.68,0,0,1-1.69.47h-.67v2.24h-.67V52.2H20.2C21.63,52.2,22.34,52.76,22.34,53.87ZM19.39,55.1H20a2.2,2.2,0,0,0,1.27-.29,1.2,1.2,0,0,0,0-1.76,2,2,0,0,0-1.16-.27h-.74Z"/><path class="cls-1" d="M26.37,57.91V55.14a1.1,1.1,0,0,0-.24-.78,1,1,0,0,0-.74-.26,1.25,1.25,0,0,0-1,.37,1.86,1.86,0,0,0-.31,1.2v2.24h-.65V51.83h.65v1.84a4,4,0,0,1,0,.55h0a1.4,1.4,0,0,1,.54-.48,1.79,1.79,0,0,1,.81-.18,1.7,1.7,0,0,1,1.18.37A1.59,1.59,0,0,1,27,55.12v2.79Z"/><path class="cls-1" d="M28.3,52.47a.45.45,0,0,1,.11-.33.41.41,0,0,1,.27-.1.37.37,0,0,1,.27.11.39.39,0,0,1,.11.32.41.41,0,0,1-.11.33.41.41,0,0,1-.54,0A.45.45,0,0,1,28.3,52.47Zm.7,5.44h-.65V53.63H29Z"/><path class="cls-1" d="M31,57.91h-.64V51.83H31Z"/><path class="cls-1" d="M36.83,57.91h-.66V55.22h-3v2.69H32.5V52.2h.66v2.43h3V52.2h.66Z"/><path class="cls-1" d="M40.11,58a2,2,0,0,1-1.5-.58,2.25,2.25,0,0,1-.55-1.6,2.5,2.5,0,0,1,.51-1.65,1.72,1.72,0,0,1,1.37-.61,1.64,1.64,0,0,1,1.28.53,2.06,2.06,0,0,1,.46,1.4v.41H38.74A1.68,1.68,0,0,0,39.12,57a1.31,1.31,0,0,0,1,.39,3.34,3.34,0,0,0,1.37-.29v.58a3.84,3.84,0,0,1-.65.22A3.88,3.88,0,0,1,40.11,58Zm-.18-3.89a1.08,1.08,0,0,0-.82.33,1.63,1.63,0,0,0-.36.93H41a1.44,1.44,0,0,0-.27-.94A1,1,0,0,0,39.93,54.1Z"/><path class="cls-1" d="M45.42,57.91l-.13-.61h0a1.76,1.76,0,0,1-.64.55,2,2,0,0,1-.79.14,1.44,1.44,0,0,1-1-.33,1.2,1.2,0,0,1-.36-.93c0-.87.69-1.32,2.07-1.36l.73,0v-.27a1,1,0,0,0-.22-.74.87.87,0,0,0-.69-.24,2.91,2.91,0,0,0-1.21.32l-.2-.49a2.61,2.61,0,0,1,.69-.27,2.89,2.89,0,0,1,.76-.1,1.59,1.59,0,0,1,1.13.34A1.41,1.41,0,0,1,45.9,55v2.92ZM44,57.46a1.33,1.33,0,0,0,.95-.34,1.23,1.23,0,0,0,.35-.93v-.38l-.65,0a2.42,2.42,0,0,0-1.12.24.74.74,0,0,0-.34.67.66.66,0,0,0,.21.53A.92.92,0,0,0,44,57.46Z"/><path class="cls-1" d="M47.89,57.91h-.65V51.83h.65Z"/><path class="cls-1" d="M50.65,57.46a1.84,1.84,0,0,0,.33,0l.25,0v.49a.89.89,0,0,1-.31.09l-.37,0c-.83,0-1.24-.44-1.24-1.31V54.13H48.7v-.31l.61-.27.27-.91H50v1H51.2v.5H50v2.52a.9.9,0,0,0,.18.6A.64.64,0,0,0,50.65,57.46Z"/><path class="cls-1" d="M55,57.91V55.14a1.1,1.1,0,0,0-.24-.78A1,1,0,0,0,54,54.1a1.22,1.22,0,0,0-1,.37,1.86,1.86,0,0,0-.31,1.2v2.24h-.65V51.83h.65v1.84a2.75,2.75,0,0,1,0,.55h0a1.36,1.36,0,0,1,.55-.48,1.71,1.71,0,0,1,.8-.18,1.68,1.68,0,0,1,1.18.37,1.6,1.6,0,0,1,.4,1.19v2.79Z"/><path class="cls-1" d="M22.47,66.91h-.66V61.79H20V61.2h4.28v.59H22.47Z"/><path class="cls-1" d="M25.14,61.2h1.61a3,3,0,0,1,1.65.34,1.4,1.4,0,0,1,.22,1.91,1.33,1.33,0,0,1-.82.43v0c.86.15,1.3.6,1.3,1.37a1.47,1.47,0,0,1-.52,1.19,2.2,2.2,0,0,1-1.45.43h-2Zm.66,2.45h1.1a1.84,1.84,0,0,0,1-.22.88.88,0,0,0,.31-.75.75.75,0,0,0-.35-.69,2.16,2.16,0,0,0-1.09-.21h-1Zm0,.56v2.14H27A1.71,1.71,0,0,0,28,66.08a1,1,0,0,0,.35-.84.89.89,0,0,0-.36-.78,1.89,1.89,0,0,0-1.09-.25Z"/><path class="cls-1" d="M29.87,65.06v-.59h1.91v.59Z"/><path class="cls-1" d="M37.46,64a2.88,2.88,0,0,1-.77,2.16,3,3,0,0,1-2.21.75H32.9V61.2h1.75a2.83,2.83,0,0,1,2.07.74A2.79,2.79,0,0,1,37.46,64Zm-.71,0a2.33,2.33,0,0,0-.56-1.69,2.22,2.22,0,0,0-1.66-.56h-1v4.56h.81a2.43,2.43,0,0,0,1.78-.59A2.29,2.29,0,0,0,36.75,64Z"/><path class="cls-1" d="M43.69,64.05a3.19,3.19,0,0,1-.7,2.16,2.8,2.8,0,0,1-3.87,0A3.17,3.17,0,0,1,38.43,64a3.11,3.11,0,0,1,.69-2.16,2.49,2.49,0,0,1,2-.77,2.43,2.43,0,0,1,1.92.78A3.1,3.1,0,0,1,43.69,64.05Zm-4.55,0a2.71,2.71,0,0,0,.49,1.76,1.75,1.75,0,0,0,1.43.6,1.73,1.73,0,0,0,1.44-.6A2.78,2.78,0,0,0,43,64.05a2.74,2.74,0,0,0-.48-1.75,1.72,1.72,0,0,0-1.43-.59,1.75,1.75,0,0,0-1.44.59A2.7,2.7,0,0,0,39.14,64.05Z"/><path class="cls-1" d="M46.72,66.91h-.67V61.79H44.24V61.2h4.29v.59H46.72Z"/><path class="cls-1" d="M52.61,65.39a1.39,1.39,0,0,1-.55,1.18,2.37,2.37,0,0,1-1.48.42A3.84,3.84,0,0,1,49,66.73v-.64a3.64,3.64,0,0,0,.77.23,3.81,3.81,0,0,0,.82.09,1.71,1.71,0,0,0,1-.25.85.85,0,0,0,.34-.7.91.91,0,0,0-.12-.49,1.17,1.17,0,0,0-.4-.35,5,5,0,0,0-.85-.36,2.75,2.75,0,0,1-1.14-.68,1.48,1.48,0,0,1-.34-1,1.26,1.26,0,0,1,.49-1.05,2.07,2.07,0,0,1,1.32-.39,3.81,3.81,0,0,1,1.56.31l-.2.58a3.55,3.55,0,0,0-1.38-.3,1.31,1.31,0,0,0-.82.23.74.74,0,0,0-.3.63,1,1,0,0,0,.11.48.9.9,0,0,0,.37.35,4.46,4.46,0,0,0,.79.35,3.21,3.21,0,0,1,1.24.69A1.36,1.36,0,0,1,52.61,65.39Z"/><path class="cls-1" d="M55.62,61.71l-.76,1h0l1.21-.16v.55L54.86,63v0l.77,1-.5.29-.48-1.12h0l-.52,1.12L53.65,64l.76-1v0l-1.18.16v-.55l1.18.15h0l-.76-1,.49-.28.5,1.11h0l.49-1.11Z"/><path class="cls-1" d="M11,75.91l-.13-.61h0a1.85,1.85,0,0,1-.64.55,2,2,0,0,1-.79.14,1.42,1.42,0,0,1-1-.33,1.2,1.2,0,0,1-.36-.93c0-.87.69-1.32,2.07-1.36l.73,0v-.27a1,1,0,0,0-.22-.74A.87.87,0,0,0,10,72.1a2.91,2.91,0,0,0-1.21.32l-.2-.49a2.61,2.61,0,0,1,.69-.27,2.84,2.84,0,0,1,.76-.1,1.59,1.59,0,0,1,1.13.34A1.41,1.41,0,0,1,11.5,73v2.92Zm-1.46-.45a1.33,1.33,0,0,0,.95-.34,1.22,1.22,0,0,0,.34-.93v-.38l-.65,0a2.41,2.41,0,0,0-1.11.24.74.74,0,0,0-.34.67.66.66,0,0,0,.21.53A.9.9,0,0,0,9.56,75.46Z"/><path class="cls-1" d="M14.55,76a1.83,1.83,0,0,1-1.44-.57,2.35,2.35,0,0,1-.51-1.62,2.39,2.39,0,0,1,.52-1.66,1.85,1.85,0,0,1,1.47-.59,2.62,2.62,0,0,1,.62.07,1.78,1.78,0,0,1,.48.16l-.2.55a2.88,2.88,0,0,0-.47-.15,2.47,2.47,0,0,0-.44-.05c-.87,0-1.31.55-1.31,1.66A2,2,0,0,0,13.59,75a1.11,1.11,0,0,0,.94.42,2.75,2.75,0,0,0,1.1-.23v.58A2.34,2.34,0,0,1,14.55,76Z"/><path class="cls-1" d="M18.36,76a1.83,1.83,0,0,1-1.44-.57,2.35,2.35,0,0,1-.51-1.62,2.39,2.39,0,0,1,.52-1.66,1.85,1.85,0,0,1,1.47-.59,2.62,2.62,0,0,1,.62.07,1.92,1.92,0,0,1,.48.16l-.2.55a2.88,2.88,0,0,0-.47-.15,2.68,2.68,0,0,0-.45-.05c-.87,0-1.3.55-1.3,1.66A2,2,0,0,0,17.4,75a1.11,1.11,0,0,0,.94.42,2.79,2.79,0,0,0,1.1-.23v.58A2.34,2.34,0,0,1,18.36,76Z"/><path class="cls-1" d="M22.41,71.55a2.59,2.59,0,0,1,.51,0l-.09.6a2.16,2.16,0,0,0-.47-.06,1.15,1.15,0,0,0-.89.42,1.61,1.61,0,0,0-.37,1.06v2.29h-.65V71.63H21l.07.79h0a2,2,0,0,1,.58-.64A1.3,1.3,0,0,1,22.41,71.55Z"/><path class="cls-1" d="M25.53,76a2,2,0,0,1-1.5-.58,2.25,2.25,0,0,1-.55-1.6A2.5,2.5,0,0,1,24,72.16a1.72,1.72,0,0,1,1.37-.61,1.61,1.61,0,0,1,1.27.53,2,2,0,0,1,.47,1.4v.41h-3A1.73,1.73,0,0,0,24.53,75a1.33,1.33,0,0,0,1,.39,3.34,3.34,0,0,0,1.37-.29v.58a4.16,4.16,0,0,1-.65.22A4,4,0,0,1,25.53,76Zm-.18-3.89a1.08,1.08,0,0,0-.82.33,1.63,1.63,0,0,0-.36.93h2.24a1.39,1.39,0,0,0-.28-.94A.94.94,0,0,0,25.35,72.1Z"/><path class="cls-1" d="M31.12,75.34h0a1.54,1.54,0,0,1-1.35.65,1.58,1.58,0,0,1-1.3-.57,3.1,3.1,0,0,1,0-3.28,1.58,1.58,0,0,1,1.3-.59,1.55,1.55,0,0,1,1.34.64h.05l0-.31v-2h.65v6.08h-.53Zm-1.29.11a1.18,1.18,0,0,0,1-.36,1.82,1.82,0,0,0,.3-1.17v-.14a2.11,2.11,0,0,0-.31-1.3,1.16,1.16,0,0,0-1-.38,1,1,0,0,0-.88.44,2.2,2.2,0,0,0-.3,1.25,2.12,2.12,0,0,0,.3,1.24A1,1,0,0,0,29.83,75.45Z"/><path class="cls-1" d="M33.06,70.47a.41.41,0,0,1,.11-.33.4.4,0,0,1,.54,0,.43.43,0,0,1,.11.32.45.45,0,0,1-.11.33.39.39,0,0,1-.27.1.36.36,0,0,1-.27-.1A.41.41,0,0,1,33.06,70.47Zm.7,5.44h-.65V71.63h.65Z"/><path class="cls-1" d="M36.52,75.46a1.84,1.84,0,0,0,.33,0l.25-.05v.49a.89.89,0,0,1-.31.09l-.37,0c-.83,0-1.24-.44-1.24-1.31V72.13h-.61v-.31l.61-.27.27-.91h.38v1h1.24v.5H35.83v2.52a.9.9,0,0,0,.18.6A.65.65,0,0,0,36.52,75.46Z"/><path class="cls-1" d="M40.59,75.91l-.13-.61h0a1.76,1.76,0,0,1-.64.55A2,2,0,0,1,39,76a1.42,1.42,0,0,1-1-.33,1.2,1.2,0,0,1-.36-.93c0-.87.69-1.32,2.07-1.36l.73,0v-.27a1,1,0,0,0-.22-.74.87.87,0,0,0-.69-.24,2.91,2.91,0,0,0-1.21.32l-.2-.49a2.61,2.61,0,0,1,.69-.27,2.84,2.84,0,0,1,.76-.1,1.59,1.59,0,0,1,1.13.34A1.41,1.41,0,0,1,41.07,73v2.92Zm-1.46-.45a1.33,1.33,0,0,0,.95-.34,1.22,1.22,0,0,0,.34-.93v-.38l-.65,0a2.41,2.41,0,0,0-1.11.24.74.74,0,0,0-.34.67.66.66,0,0,0,.21.53A.9.9,0,0,0,39.13,75.46Z"/><path class="cls-1" d="M43.79,75.46a1.69,1.69,0,0,0,.33,0l.26-.05v.49a1,1,0,0,1-.31.09l-.37,0c-.83,0-1.25-.44-1.25-1.31V72.13h-.61v-.31l.61-.27.28-.91h.37v1h1.24v.5H43.1v2.52a.85.85,0,0,0,.19.6A.63.63,0,0,0,43.79,75.46Z"/><path class="cls-1" d="M45.18,70.47a.41.41,0,0,1,.11-.33.4.4,0,0,1,.54,0,.39.39,0,0,1,.11.32.41.41,0,0,1-.11.33.39.39,0,0,1-.27.1.36.36,0,0,1-.27-.1A.41.41,0,0,1,45.18,70.47Zm.7,5.44h-.65V71.63h.65Z"/><path class="cls-1" d="M51,73.77a2.35,2.35,0,0,1-.53,1.63A1.85,1.85,0,0,1,49,76a1.89,1.89,0,0,1-1-.27,1.78,1.78,0,0,1-.69-.77A2.73,2.73,0,0,1,47,73.77a2.35,2.35,0,0,1,.52-1.63A1.85,1.85,0,0,1,49,71.55a1.81,1.81,0,0,1,1.43.6A2.38,2.38,0,0,1,51,73.77Zm-3.26,0A2,2,0,0,0,48,75,1.3,1.3,0,0,0,50,75a2,2,0,0,0,.33-1.25A2,2,0,0,0,50,72.53a1.32,1.32,0,0,0-1.94,0A2.07,2.07,0,0,0,47.69,73.77Z"/><path class="cls-1" d="M55,75.91V73.14a1.1,1.1,0,0,0-.24-.78A1,1,0,0,0,54,72.1a1.21,1.21,0,0,0-1,.37,1.82,1.82,0,0,0-.31,1.2v2.24h-.65V71.63h.52l.11.59h0a1.28,1.28,0,0,1,.56-.49,1.77,1.77,0,0,1,.8-.18,1.6,1.6,0,0,1,1.16.38,1.53,1.53,0,0,1,.4,1.19v2.79Z"/><path class="cls-2" d="M35.45,2.16a6.08,6.08,0,0,1,3.87,1.13,3.81,3.81,0,0,1,1.43,3.14,3.92,3.92,0,0,1-.82,2.4,7.21,7.21,0,0,1-2.61,2A8.76,8.76,0,0,1,40.41,13a4.09,4.09,0,0,1,.91,2.64,4.43,4.43,0,0,1-1.55,3.55,6.34,6.34,0,0,1-4.25,1.32,6.75,6.75,0,0,1-4.39-1.25,4.28,4.28,0,0,1-1.54-3.54c0-2,1.25-3.64,3.74-4.78a6.87,6.87,0,0,1-2.42-2,4.37,4.37,0,0,1-.73-2.47,3.76,3.76,0,0,1,1.43-3.1A6,6,0,0,1,35.45,2.16Zm-3.86,13.6a2.77,2.77,0,0,0,1,2.28,4.51,4.51,0,0,0,2.86.82A4.28,4.28,0,0,0,38.31,18a3,3,0,0,0,.06-4.45,9.87,9.87,0,0,0-3.32-1.79,7.35,7.35,0,0,0-2.64,1.73A3.34,3.34,0,0,0,31.59,15.76ZM35.43,3.81a3.6,3.6,0,0,0-2.4.73,2.42,2.42,0,0,0-.86,2,2.8,2.8,0,0,0,.72,1.93A7.46,7.46,0,0,0,35.55,10,6.69,6.69,0,0,0,38,8.46a3,3,0,0,0,.73-2,2.42,2.42,0,0,0-.89-2A3.74,3.74,0,0,0,35.43,3.81Z"/><path class="cls-2" d="M49.41,9.36a6.58,6.58,0,0,1,4.44,1.4,4.79,4.79,0,0,1,1.62,3.82,5.55,5.55,0,0,1-1.76,4.35,7.06,7.06,0,0,1-4.87,1.57,9,9,0,0,1-4.6-1V17.59a7.27,7.27,0,0,0,2.12.86,10.39,10.39,0,0,0,2.51.31,5,5,0,0,0,3.33-1,3.63,3.63,0,0,0,1.19-2.93q0-3.73-4.57-3.74a17.82,17.82,0,0,0-3.1.36l-1-.68.67-8.35h8.87V4.28H47.07l-.45,5.36A14,14,0,0,1,49.41,9.36Z"/></g></svg>