<svg xmlns="http://www.w3.org/2000/svg" viewBox="0 0 185.11 107.78"><defs><style>.cls-1{fill:#ee8122;}.cls-2{fill:#fff;}.cls-3{fill:#4d4e50;}</style></defs><g id="Economic_Opportunities_Image" data-name="Economic Opportunities Image"><rect class="cls-1" width="185.11" height="44.23"/><path class="cls-2" d="M30.29,14.23A5.08,5.08,0,0,1,29,18a5.35,5.35,0,0,1-3.87,1.31H22.31v-10h3.07A4.9,4.9,0,0,1,29,10.62,4.91,4.91,0,0,1,30.29,14.23Zm-1.23,0a4,4,0,0,0-1-2.95,4,4,0,0,0-2.92-1H23.47v8h1.42a4.29,4.29,0,0,0,3.12-1A4,4,0,0,0,29.06,14.28Z"/><path class="cls-2" d="M32.25,9.8a.78.78,0,0,1,.19-.57.68.68,0,0,1,.48-.18.64.64,0,0,1,.47.19.7.7,0,0,1,.2.56.74.74,0,0,1-.2.58.67.67,0,0,1-.47.18.68.68,0,0,1-.48-.18A.82.82,0,0,1,32.25,9.8Zm1.23,9.53H32.35v-7.5h1.13Z"/><path class="cls-2" d="M40.72,17.28a1.89,1.89,0,0,1-.78,1.62,3.73,3.73,0,0,1-2.19.56A4.7,4.7,0,0,1,35.43,19v-1a5.54,5.54,0,0,0,1.16.43,4.59,4.59,0,0,0,1.19.16,2.71,2.71,0,0,0,1.37-.29.93.93,0,0,0,.48-.86,1,1,0,0,0-.38-.75,5.83,5.83,0,0,0-1.48-.73,8.47,8.47,0,0,1-1.49-.68,2.14,2.14,0,0,1-.65-.66,1.81,1.81,0,0,1,.53-2.33,3.39,3.39,0,0,1,2-.53,5.91,5.91,0,0,1,2.36.49l-.4.92a5.39,5.39,0,0,0-2-.46,2.34,2.34,0,0,0-1.22.25.79.79,0,0,0-.41.7.85.85,0,0,0,.15.51,1.51,1.51,0,0,0,.5.4,10.73,10.73,0,0,0,1.31.56,4.78,4.78,0,0,1,1.8,1A1.67,1.67,0,0,1,40.72,17.28Z"/><path class="cls-2" d="M47.17,19.33,47,18.26h-.06a3,3,0,0,1-1.11.95,3.36,3.36,0,0,1-1.39.25,2.51,2.51,0,0,1-1.75-.57A2.1,2.1,0,0,1,42,17.26q0-2.28,3.63-2.38l1.27,0v-.47a1.9,1.9,0,0,0-.38-1.3,1.56,1.56,0,0,0-1.21-.42,5,5,0,0,0-2.12.57l-.35-.87a5.64,5.64,0,0,1,1.21-.47,5.43,5.43,0,0,1,1.32-.17,2.84,2.84,0,0,1,2,.6,2.47,2.47,0,0,1,.65,1.9v5.12Zm-2.56-.8A2.35,2.35,0,0,0,46.28,18a2.17,2.17,0,0,0,.6-1.63v-.68l-1.13,0a4.1,4.1,0,0,0-2,.42,1.29,1.29,0,0,0-.59,1.16,1.18,1.18,0,0,0,.37.94A1.58,1.58,0,0,0,44.61,18.53Z"/><path class="cls-2" d="M55.19,17.28a1.89,1.89,0,0,1-.78,1.62,3.73,3.73,0,0,1-2.19.56A4.67,4.67,0,0,1,49.9,19v-1a5.25,5.25,0,0,0,1.15.43,4.67,4.67,0,0,0,1.2.16,2.64,2.64,0,0,0,1.36-.29,1,1,0,0,0,.1-1.61,5.66,5.66,0,0,0-1.48-.73,8.29,8.29,0,0,1-1.48-.68,2.07,2.07,0,0,1-.66-.66,1.78,1.78,0,0,1-.21-.89,1.66,1.66,0,0,1,.74-1.44,3.43,3.43,0,0,1,2-.53,6,6,0,0,1,2.37.49l-.4.92a5.48,5.48,0,0,0-2.05-.46,2.3,2.3,0,0,0-1.21.25.77.77,0,0,0-.41.7.85.85,0,0,0,.15.51,1.46,1.46,0,0,0,.49.4,10.38,10.38,0,0,0,1.32.56,4.78,4.78,0,0,1,1.8,1A1.71,1.71,0,0,1,55.19,17.28Z"/><path class="cls-2" d="M59.45,18.53a3.58,3.58,0,0,0,.58-.05l.45-.09v.87a2.22,2.22,0,0,1-.55.15,5.27,5.27,0,0,1-.64.05c-1.45,0-2.18-.76-2.18-2.29V12.72H56v-.55l1.07-.47.48-1.6h.66v1.73h2.17v.89H58.25v4.41a1.56,1.56,0,0,0,.32,1A1.12,1.12,0,0,0,59.45,18.53Z"/><path class="cls-2" d="M65.14,19.46a3.41,3.41,0,0,1-2.62-1,3.91,3.91,0,0,1-1-2.81,4.35,4.35,0,0,1,.89-2.88,3,3,0,0,1,2.4-1.06,2.83,2.83,0,0,1,2.22.92,3.56,3.56,0,0,1,.82,2.45v.72H62.73a3,3,0,0,0,.67,2,2.33,2.33,0,0,0,1.78.68,6.14,6.14,0,0,0,2.39-.5v1a5.79,5.79,0,0,1-1.14.37A6,6,0,0,1,65.14,19.46Zm-.31-6.81a1.84,1.84,0,0,0-1.44.59,2.78,2.78,0,0,0-.63,1.62h3.92a2.49,2.49,0,0,0-.48-1.64A1.7,1.7,0,0,0,64.83,12.65Z"/><path class="cls-2" d="M73.25,11.7a4.74,4.74,0,0,1,.89.08L74,12.83a3.86,3.86,0,0,0-.82-.1,2,2,0,0,0-1.56.74A2.69,2.69,0,0,0,71,15.31v4H69.83v-7.5h.94l.13,1.39h0a3.28,3.28,0,0,1,1-1.13A2.28,2.28,0,0,1,73.25,11.7Z"/><path class="cls-2" d="M80.51,15.17v4.16H79.35v-10h2.74a4.32,4.32,0,0,1,2.72.71,2.54,2.54,0,0,1,.88,2.12,2.66,2.66,0,0,1-2,2.68l2.71,4.49H85L82.6,15.17Zm0-1h1.6a2.71,2.71,0,0,0,1.8-.49,1.81,1.81,0,0,0,.58-1.46,1.67,1.67,0,0,0-.59-1.43A3.17,3.17,0,0,0,82,10.35H80.51Z"/><path class="cls-2" d="M87.74,9.8a.74.74,0,0,1,.19-.57.68.68,0,0,1,.48-.18.64.64,0,0,1,.47.19.73.73,0,0,1,.2.56.78.78,0,0,1-.2.58.67.67,0,0,1-.47.18.68.68,0,0,1-.48-.18A.78.78,0,0,1,87.74,9.8ZM89,19.33H87.83v-7.5H89Z"/><path class="cls-2" d="M96.21,17.28a1.89,1.89,0,0,1-.78,1.62,3.73,3.73,0,0,1-2.19.56A4.67,4.67,0,0,1,90.92,19v-1a5.34,5.34,0,0,0,1.16.43,4.59,4.59,0,0,0,1.19.16,2.71,2.71,0,0,0,1.37-.29.93.93,0,0,0,.48-.86,1,1,0,0,0-.38-.75,6,6,0,0,0-1.48-.73,8.13,8.13,0,0,1-1.49-.68,2.3,2.3,0,0,1-.66-.66,1.78,1.78,0,0,1-.21-.89,1.68,1.68,0,0,1,.74-1.44,3.44,3.44,0,0,1,2-.53,5.94,5.94,0,0,1,2.36.49l-.4.92a5.4,5.4,0,0,0-2.05-.46,2.32,2.32,0,0,0-1.21.25.77.77,0,0,0-.41.7.85.85,0,0,0,.15.51,1.41,1.41,0,0,0,.5.4,9.45,9.45,0,0,0,1.31.56,4.78,4.78,0,0,1,1.8,1A1.71,1.71,0,0,1,96.21,17.28Z"/><path class="cls-2" d="M99.18,15.49a11.74,11.74,0,0,1,.89-1.09l2.42-2.57h1.35l-3,3.2,3.25,4.3h-1.37L100,15.79l-.85.73v2.81H98.05V8.69h1.13v5.64c0,.25,0,.64-.06,1.16Z"/><path class="cls-2" d="M110.37,15.17v4.16h-1.16v-10H112a4.32,4.32,0,0,1,2.72.71,2.56,2.56,0,0,1,.88,2.12,2.66,2.66,0,0,1-2,2.68l2.71,4.49h-1.37l-2.42-4.16Zm0-1H112a2.71,2.71,0,0,0,1.8-.49,1.81,1.81,0,0,0,.57-1.46,1.67,1.67,0,0,0-.58-1.43,3.17,3.17,0,0,0-1.88-.44h-1.51Z"/><path class="cls-2" d="M120.86,19.46a3.41,3.41,0,0,1-2.62-1,3.91,3.91,0,0,1-1-2.81,4.41,4.41,0,0,1,.89-2.88,3,3,0,0,1,2.4-1.06,2.83,2.83,0,0,1,2.22.92,3.56,3.56,0,0,1,.82,2.45v.72h-5.16a3,3,0,0,0,.67,2,2.31,2.31,0,0,0,1.78.68,6.14,6.14,0,0,0,2.39-.5v1a5.93,5.93,0,0,1-1.13.37A6.12,6.12,0,0,1,120.86,19.46Zm-.31-6.81a1.84,1.84,0,0,0-1.44.59,2.65,2.65,0,0,0-.63,1.62h3.92a2.49,2.49,0,0,0-.48-1.64A1.7,1.7,0,0,0,120.55,12.65Z"/><path class="cls-2" d="M130.65,18.32h-.06a2.68,2.68,0,0,1-2.35,1.14,2.77,2.77,0,0,1-2.29-1,4.39,4.39,0,0,1-.82-2.86,4.57,4.57,0,0,1,.82-2.88,2.78,2.78,0,0,1,2.29-1,2.71,2.71,0,0,1,2.33,1.11h.09l0-.54,0-.53V8.69h1.13V19.33h-.92Zm-2.27.19a2.05,2.05,0,0,0,1.68-.63,3.18,3.18,0,0,0,.53-2V15.6a3.77,3.77,0,0,0-.53-2.27,2,2,0,0,0-1.69-.68,1.74,1.74,0,0,0-1.53.77,3.83,3.83,0,0,0-.53,2.2,3.7,3.7,0,0,0,.52,2.16A1.78,1.78,0,0,0,128.38,18.51Z"/><path class="cls-2" d="M135.19,11.83V16.7a1.93,1.93,0,0,0,.42,1.36,1.72,1.72,0,0,0,1.31.45,2.14,2.14,0,0,0,1.72-.64,3.27,3.27,0,0,0,.54-2.1V11.83h1.13v7.5h-.93l-.17-1h-.06a2.24,2.24,0,0,1-1,.85,3.17,3.17,0,0,1-1.41.29,2.81,2.81,0,0,1-2-.65,2.72,2.72,0,0,1-.68-2.07V11.83Z"/><path class="cls-2" d="M145.71,19.46a3.17,3.17,0,0,1-2.51-1,4.09,4.09,0,0,1-.9-2.83,4.3,4.3,0,0,1,.91-2.91,3.26,3.26,0,0,1,2.58-1,5.65,5.65,0,0,1,1.08.11,3.51,3.51,0,0,1,.85.28l-.35,1a6.07,6.07,0,0,0-.82-.25,4.15,4.15,0,0,0-.79-.1c-1.52,0-2.28,1-2.28,2.92a3.44,3.44,0,0,0,.56,2.11,1.92,1.92,0,0,0,1.65.74,5,5,0,0,0,1.92-.4v1A4.09,4.09,0,0,1,145.71,19.46Z"/><path class="cls-2" d="M151.81,18.53a3.68,3.68,0,0,0,.58-.05l.44-.09v.87a2,2,0,0,1-.54.15,5.42,5.42,0,0,1-.65.05c-1.45,0-2.17-.76-2.17-2.29V12.72h-1.08v-.55l1.08-.47.48-1.6h.65v1.73h2.18v.89H150.6v4.41a1.56,1.56,0,0,0,.32,1A1.14,1.14,0,0,0,151.81,18.53Z"/><path class="cls-2" d="M154.23,9.8a.78.78,0,0,1,.19-.57.68.68,0,0,1,.48-.18.64.64,0,0,1,.47.19.7.7,0,0,1,.2.56.74.74,0,0,1-.2.58.67.67,0,0,1-.47.18.68.68,0,0,1-.48-.18A.82.82,0,0,1,154.23,9.8Zm1.23,9.53h-1.13v-7.5h1.13Z"/><path class="cls-2" d="M164.34,15.57a4.13,4.13,0,0,1-.93,2.87,3.25,3.25,0,0,1-2.55,1,3.31,3.31,0,0,1-1.78-.47,3,3,0,0,1-1.2-1.35,4.64,4.64,0,0,1-.43-2.07,4.12,4.12,0,0,1,.92-2.85,3.24,3.24,0,0,1,2.54-1,3.19,3.19,0,0,1,2.5,1A4.11,4.11,0,0,1,164.34,15.57Zm-5.71,0a3.58,3.58,0,0,0,.57,2.19,2,2,0,0,0,1.69.75,2,2,0,0,0,1.69-.74,3.52,3.52,0,0,0,.58-2.2,3.46,3.46,0,0,0-.58-2.17,2,2,0,0,0-1.7-.74,2,2,0,0,0-1.68.73A3.52,3.52,0,0,0,158.63,15.57Z"/><path class="cls-2" d="M171.45,19.33V14.48a2,2,0,0,0-.41-1.37,1.72,1.72,0,0,0-1.31-.45,2.13,2.13,0,0,0-1.72.64,3.17,3.17,0,0,0-.55,2.1v3.93h-1.13v-7.5h.92l.18,1h.06a2.39,2.39,0,0,1,1-.86,3.24,3.24,0,0,1,1.41-.3,2.84,2.84,0,0,1,2,.65,2.77,2.77,0,0,1,.69,2.09v4.89Z"/><path class="cls-2" d="M26.75,36.13l-.23-1.07h-.05a3.14,3.14,0,0,1-1.12.95,3.32,3.32,0,0,1-1.39.25,2.53,2.53,0,0,1-1.75-.57,2.1,2.1,0,0,1-.63-1.63q0-2.28,3.63-2.38l1.27,0v-.47a1.85,1.85,0,0,0-.38-1.3,1.54,1.54,0,0,0-1.21-.42,5,5,0,0,0-2.12.57l-.35-.87a5.72,5.72,0,0,1,1.22-.47A5.43,5.43,0,0,1,25,28.51a2.83,2.83,0,0,1,2,.6,2.47,2.47,0,0,1,.65,1.9v5.12Zm-2.56-.8a2.33,2.33,0,0,0,1.66-.58,2.17,2.17,0,0,0,.61-1.63v-.68l-1.14.05a4.09,4.09,0,0,0-1.95.42,1.27,1.27,0,0,0-.6,1.16,1.18,1.18,0,0,0,.37.94A1.59,1.59,0,0,0,24.19,35.33Z"/><path class="cls-2" d="M35.05,36.13V31.28a2,2,0,0,0-.41-1.37,1.72,1.72,0,0,0-1.31-.45,2.13,2.13,0,0,0-1.72.64,3.22,3.22,0,0,0-.55,2.1v3.93H29.93v-7.5h.92l.19,1h.05a2.29,2.29,0,0,1,1-.86,3.19,3.19,0,0,1,1.4-.3,2.89,2.89,0,0,1,2,.65,2.81,2.81,0,0,1,.68,2.09v4.89Z"/><path class="cls-2" d="M43.62,35.12h-.06a2.68,2.68,0,0,1-2.35,1.14,2.78,2.78,0,0,1-2.29-1,4.45,4.45,0,0,1-.82-2.86,4.57,4.57,0,0,1,.82-2.88,2.78,2.78,0,0,1,2.29-1,2.71,2.71,0,0,1,2.33,1.11h.09l0-.54,0-.53V25.49h1.13V36.13h-.92Zm-2.27.19A2.08,2.08,0,0,0,43,34.68a3.24,3.24,0,0,0,.52-2V32.4A3.77,3.77,0,0,0,43,30.13a2,2,0,0,0-1.69-.68,1.74,1.74,0,0,0-1.53.77,3.91,3.91,0,0,0-.53,2.2,3.63,3.63,0,0,0,.53,2.16A1.76,1.76,0,0,0,41.35,35.31Z"/><path class="cls-2" d="M55.33,36.13l-3.39-8.86h-.06c.07.7.1,1.53.1,2.5v6.36H50.91v-10h1.75l3.16,8.25h.06l3.19-8.25h1.74v10H59.64V29.69c0-.74,0-1.54.1-2.41h-.06l-3.41,8.85Z"/><path class="cls-2" d="M68,36.13l-.22-1.07H67.7a3,3,0,0,1-1.12.95,3.32,3.32,0,0,1-1.39.25,2.5,2.5,0,0,1-1.74-.57,2.1,2.1,0,0,1-.63-1.63q0-2.28,3.63-2.38l1.27,0v-.47a1.9,1.9,0,0,0-.38-1.3,1.58,1.58,0,0,0-1.22-.42A5,5,0,0,0,64,30l-.34-.87a5.64,5.64,0,0,1,1.21-.47,5.43,5.43,0,0,1,1.32-.17,2.85,2.85,0,0,1,2,.6,2.46,2.46,0,0,1,.64,1.9v5.12Zm-2.56-.8a2.31,2.31,0,0,0,1.66-.58,2.13,2.13,0,0,0,.61-1.63v-.68l-1.14.05a4.09,4.09,0,0,0-2,.42,1.27,1.27,0,0,0-.6,1.16,1.18,1.18,0,0,0,.38.94A1.56,1.56,0,0,0,65.42,35.33Z"/><path class="cls-2" d="M76.29,36.13V31.28a2,2,0,0,0-.42-1.37,1.69,1.69,0,0,0-1.3-.45,2.15,2.15,0,0,0-1.73.64,3.23,3.23,0,0,0-.54,2.1v3.93H71.16v-7.5h.92l.19,1h0a2.34,2.34,0,0,1,1-.86,3.23,3.23,0,0,1,1.4-.3,2.87,2.87,0,0,1,2,.65,2.77,2.77,0,0,1,.68,2.09v4.89Z"/><path class="cls-2" d="M84.36,36.13l-.22-1.07h-.06A3,3,0,0,1,83,36a3.32,3.32,0,0,1-1.39.25,2.5,2.5,0,0,1-1.74-.57,2.1,2.1,0,0,1-.64-1.63q0-2.28,3.63-2.38l1.28,0v-.47a1.9,1.9,0,0,0-.38-1.3,1.58,1.58,0,0,0-1.22-.42,5,5,0,0,0-2.12.57L80,29.15a5.44,5.44,0,0,1,2.53-.64,2.85,2.85,0,0,1,2,.6A2.46,2.46,0,0,1,85.2,31v5.12Zm-2.56-.8a2.33,2.33,0,0,0,1.66-.58,2.13,2.13,0,0,0,.61-1.63v-.68l-1.14.05a4.09,4.09,0,0,0-2,.42,1.27,1.27,0,0,0-.6,1.16,1.18,1.18,0,0,0,.38.94A1.54,1.54,0,0,0,81.8,35.33Z"/><path class="cls-2" d="M93.67,28.63v.72l-1.38.17a2.53,2.53,0,0,1,.34.62,2.41,2.41,0,0,1,.15.87A2.22,2.22,0,0,1,92,32.77a3,3,0,0,1-2.07.66,3.21,3.21,0,0,1-.63-.06,1.13,1.13,0,0,0-.72,1,.48.48,0,0,0,.25.45,1.83,1.83,0,0,0,.87.15h1.32a3,3,0,0,1,1.87.51,1.77,1.77,0,0,1,.66,1.49,2.13,2.13,0,0,1-1,1.9,5.41,5.41,0,0,1-2.91.65,4,4,0,0,1-2.27-.55,1.76,1.76,0,0,1-.8-1.54A1.73,1.73,0,0,1,87,36.22a2.18,2.18,0,0,1,1.23-.68,1.23,1.23,0,0,1-.48-.4,1.1,1.1,0,0,1-.19-.64,1.27,1.27,0,0,1,.21-.72,2.46,2.46,0,0,1,.69-.59,2,2,0,0,1-.94-.82,2.33,2.33,0,0,1-.37-1.31,2.45,2.45,0,0,1,.74-1.9A3,3,0,0,1,90,28.5a3.8,3.8,0,0,1,1.06.13Zm-6,8.75a1,1,0,0,0,.51.93,2.82,2.82,0,0,0,1.47.31,4.07,4.07,0,0,0,2.12-.43A1.31,1.31,0,0,0,92.48,37a.92.92,0,0,0-.37-.85A2.9,2.9,0,0,0,90.69,36H89.33a1.78,1.78,0,0,0-1.2.37A1.28,1.28,0,0,0,87.7,37.38ZM88.31,31a1.51,1.51,0,0,0,.45,1.19,1.77,1.77,0,0,0,1.24.41A1.45,1.45,0,0,0,91.66,31,1.49,1.49,0,0,0,90,29.33a1.66,1.66,0,0,0-1.23.43A1.74,1.74,0,0,0,88.31,31Z"/><path class="cls-2" d="M98.38,36.26a3.44,3.44,0,0,1-2.63-1,3.91,3.91,0,0,1-1-2.81,4.34,4.34,0,0,1,.9-2.88,3,3,0,0,1,2.39-1.06,2.85,2.85,0,0,1,2.23.92,3.56,3.56,0,0,1,.82,2.45v.72H96a2.91,2.91,0,0,0,.67,2,2.31,2.31,0,0,0,1.78.68,6.17,6.17,0,0,0,2.39-.5v1a5.79,5.79,0,0,1-1.14.37A6.08,6.08,0,0,1,98.38,36.26Zm-.31-6.81a1.84,1.84,0,0,0-1.44.59A2.65,2.65,0,0,0,96,31.66h3.91A2.54,2.54,0,0,0,99.44,30,1.7,1.7,0,0,0,98.07,29.45Z"/><path class="cls-2" d="M112.62,36.13V31.25a2,2,0,0,0-.39-1.34,1.47,1.47,0,0,0-1.19-.45,1.91,1.91,0,0,0-1.56.61,2.88,2.88,0,0,0-.51,1.87v4.19h-1.13V31.25a2,2,0,0,0-.39-1.34,1.47,1.47,0,0,0-1.19-.45,1.84,1.84,0,0,0-1.56.64,3.49,3.49,0,0,0-.5,2.1v3.93h-1.13v-7.5H104l.18,1h.06a2.17,2.17,0,0,1,.9-.85,2.72,2.72,0,0,1,1.31-.31,2.23,2.23,0,0,1,2.3,1.27h.05a2.48,2.48,0,0,1,1-.93,3,3,0,0,1,1.45-.34,2.57,2.57,0,0,1,1.91.65,2.94,2.94,0,0,1,.63,2.09v4.89Z"/><path class="cls-2" d="M119.25,36.26a3.43,3.43,0,0,1-2.62-1,3.91,3.91,0,0,1-1-2.81,4.39,4.39,0,0,1,.89-2.88A3,3,0,0,1,119,28.5a2.85,2.85,0,0,1,2.23.92,3.61,3.61,0,0,1,.82,2.45v.72h-5.16a3,3,0,0,0,.66,2,2.33,2.33,0,0,0,1.78.68,6.18,6.18,0,0,0,2.4-.5v1a5.79,5.79,0,0,1-1.14.37A6.12,6.12,0,0,1,119.25,36.26Zm-.3-6.81a1.81,1.81,0,0,0-1.44.59,2.72,2.72,0,0,0-.64,1.62h3.92a2.49,2.49,0,0,0-.48-1.64A1.68,1.68,0,0,0,119,29.45Z"/><path class="cls-2" d="M129.07,36.13V31.28a2,2,0,0,0-.42-1.37,1.69,1.69,0,0,0-1.3-.45,2.15,2.15,0,0,0-1.73.64,3.23,3.23,0,0,0-.54,2.1v3.93h-1.14v-7.5h.93l.18,1h0a2.34,2.34,0,0,1,1-.86,3.23,3.23,0,0,1,1.4-.3,2.85,2.85,0,0,1,2,.65,2.77,2.77,0,0,1,.68,2.09v4.89Z"/><path class="cls-2" d="M135,35.33a3.68,3.68,0,0,0,.58,0l.44-.09v.87a2,2,0,0,1-.54.15,5.42,5.42,0,0,1-.65,0c-1.45,0-2.17-.76-2.17-2.29V29.52h-1.08V29l1.08-.47.48-1.6h.65v1.73h2.18v.89h-2.18v4.41a1.51,1.51,0,0,0,.32,1A1.11,1.11,0,0,0,135,35.33Z"/><path class="cls-3" d="M67.54,88.18A1.43,1.43,0,0,1,67,89.36a2.4,2.4,0,0,1-1.49.42A3.76,3.76,0,0,1,64,89.52v-.65a4.09,4.09,0,0,0,.77.24,3.75,3.75,0,0,0,.82.09,1.66,1.66,0,0,0,1-.26.82.82,0,0,0,.33-.7.85.85,0,0,0-.12-.48,1,1,0,0,0-.4-.35A5.35,5.35,0,0,0,65.5,87a2.63,2.63,0,0,1-1.13-.67,1.49,1.49,0,0,1-.35-1,1.27,1.27,0,0,1,.5-1,2.06,2.06,0,0,1,1.31-.39,3.86,3.86,0,0,1,1.57.31l-.21.58a3.5,3.5,0,0,0-1.37-.3,1.36,1.36,0,0,0-.83.23.73.73,0,0,0-.29.63.88.88,0,0,0,.11.48,1,1,0,0,0,.36.35,5.57,5.57,0,0,0,.8.35,3.09,3.09,0,0,1,1.24.69A1.36,1.36,0,0,1,67.54,88.18Z"/><path class="cls-3" d="M71.24,89.7,69.3,84.64h0c0,.4.06.87.06,1.43V89.7h-.62V84h1l1.81,4.71h0L73.38,84h1V89.7H73.7V86q0-.63.06-1.38h0l-2,5.06Z"/><path class="cls-3" d="M79.12,89.7H75.93V84h3.19v.59H76.6v1.84H79V87H76.6v2.11h2.52Z"/><path class="cls-3" d="M83.05,88.53a1.06,1.06,0,0,1-.45.92,2,2,0,0,1-1.25.33A2.72,2.72,0,0,1,80,89.51v-.6a3.54,3.54,0,0,0,.67.24,2.71,2.71,0,0,0,.68.09,1.51,1.51,0,0,0,.78-.16.53.53,0,0,0,.27-.49.54.54,0,0,0-.21-.43,3.44,3.44,0,0,0-.85-.42,4.75,4.75,0,0,1-.85-.39,1.11,1.11,0,0,1-.37-.38.91.91,0,0,1-.13-.5,1,1,0,0,1,.43-.83,2,2,0,0,1,1.17-.3,3.37,3.37,0,0,1,1.35.28l-.23.53a3.07,3.07,0,0,0-1.17-.27,1.32,1.32,0,0,0-.7.15.45.45,0,0,0-.23.4.48.48,0,0,0,.09.29A.84.84,0,0,0,81,87a7.06,7.06,0,0,0,.75.32,2.85,2.85,0,0,1,1,.55A1,1,0,0,1,83.05,88.53Z"/><path class="cls-3" d="M88.81,89.7l-.13-.61h0a1.64,1.64,0,0,1-.64.54,1.82,1.82,0,0,1-.79.15,1.42,1.42,0,0,1-1-.33,1.2,1.2,0,0,1-.36-.93c0-.87.69-1.32,2.07-1.36l.73,0v-.26a1.07,1.07,0,0,0-.22-.75.87.87,0,0,0-.69-.24,2.8,2.8,0,0,0-1.21.33l-.2-.5a3,3,0,0,1,.69-.26,2.89,2.89,0,0,1,.76-.1,1.59,1.59,0,0,1,1.13.34,1.4,1.4,0,0,1,.37,1.09V89.7Zm-1.46-.46a1.32,1.32,0,0,0,1-.33,1.23,1.23,0,0,0,.35-.93v-.39l-.65,0a2.42,2.42,0,0,0-1.12.24.71.71,0,0,0-.34.66.67.67,0,0,0,.21.54A.9.9,0,0,0,87.35,89.24Z"/><path class="cls-3" d="M91.57,89.7l-1.63-4.28h.7L91.56,88c.21.59.33,1,.37,1.15h0c0-.13.12-.42.27-.85s.49-1.38,1-2.84H94L92.33,89.7Z"/><path class="cls-3" d="M97.27,89.7l-.13-.61h0a1.71,1.71,0,0,1-.64.54,1.86,1.86,0,0,1-.79.15,1.42,1.42,0,0,1-1-.33,1.2,1.2,0,0,1-.36-.93c0-.87.69-1.32,2.07-1.36l.73,0v-.26a1.07,1.07,0,0,0-.22-.75.87.87,0,0,0-.69-.24,2.8,2.8,0,0,0-1.21.33l-.2-.5a3,3,0,0,1,.69-.26,2.78,2.78,0,0,1,.76-.1,1.59,1.59,0,0,1,1.13.34,1.4,1.4,0,0,1,.37,1.09V89.7Zm-1.46-.46a1.32,1.32,0,0,0,1-.33A1.22,1.22,0,0,0,97.1,88v-.39l-.65,0a2.41,2.41,0,0,0-1.11.24.71.71,0,0,0-.34.66.67.67,0,0,0,.21.54A.9.9,0,0,0,95.81,89.24Z"/><path class="cls-3" d="M99,84.26a.45.45,0,0,1,.11-.33.39.39,0,0,1,.28-.1.35.35,0,0,1,.26.1.42.42,0,0,1,.12.33.41.41,0,0,1-.12.32.33.33,0,0,1-.26.11.36.36,0,0,1-.28-.11A.44.44,0,0,1,99,84.26Zm.71,5.44h-.65V85.42h.65Z"/><path class="cls-3" d="M101.76,89.7h-.65V83.62h.65Z"/><path class="cls-3" d="M104.94,89.78a2,2,0,0,1-1.5-.58,2.27,2.27,0,0,1-.54-1.61,2.48,2.48,0,0,1,.51-1.64,1.67,1.67,0,0,1,1.36-.61,1.63,1.63,0,0,1,1.28.53,2,2,0,0,1,.47,1.4v.41h-3a1.68,1.68,0,0,0,.38,1.14,1.32,1.32,0,0,0,1,.39,3.46,3.46,0,0,0,1.36-.29v.58a3.06,3.06,0,0,1-.65.21A3.15,3.15,0,0,1,104.94,89.78Zm-.17-3.9a1.06,1.06,0,0,0-.83.34,1.58,1.58,0,0,0-.36.93h2.24a1.44,1.44,0,0,0-.27-.94A1,1,0,0,0,104.77,85.88Z"/><path class="cls-3" d="M110.54,89.12h0a1.52,1.52,0,0,1-1.34.66,1.58,1.58,0,0,1-1.31-.58,2.51,2.51,0,0,1-.47-1.63,2.56,2.56,0,0,1,.47-1.64,1.6,1.6,0,0,1,1.31-.59,1.55,1.55,0,0,1,1.33.63h.05l0-.31,0-.3V83.62h.65V89.7h-.53Zm-1.3.11a1.18,1.18,0,0,0,1-.36,1.81,1.81,0,0,0,.3-1.16v-.14a2.16,2.16,0,0,0-.3-1.3,1.16,1.16,0,0,0-1-.39,1,1,0,0,0-.87.45,2.2,2.2,0,0,0-.3,1.25,2.14,2.14,0,0,0,.3,1.24A1,1,0,0,0,109.24,89.23Z"/><path class="cls-3" d="M118.3,87.55a2.38,2.38,0,0,1-.53,1.64,1.87,1.87,0,0,1-1.46.59,1.94,1.94,0,0,1-1-.27,1.79,1.79,0,0,1-.68-.78,2.54,2.54,0,0,1-.25-1.18,2.37,2.37,0,0,1,.53-1.63,1.84,1.84,0,0,1,1.45-.58,1.81,1.81,0,0,1,1.43.6A2.35,2.35,0,0,1,118.3,87.55Zm-3.26,0a2.07,2.07,0,0,0,.32,1.25,1.13,1.13,0,0,0,1,.43,1.17,1.17,0,0,0,1-.42,2.06,2.06,0,0,0,.33-1.26,2,2,0,0,0-.33-1.24,1.17,1.17,0,0,0-1-.42,1.15,1.15,0,0,0-1,.42A2,2,0,0,0,115,87.55Z"/><path class="cls-3" d="M121.36,85.92h-1.09V89.7h-.64V85.92h-.77v-.29l.77-.24v-.23c0-1.06.45-1.58,1.37-1.58a2.82,2.82,0,0,1,.8.13l-.17.52a2.14,2.14,0,0,0-.64-.12.61.61,0,0,0-.54.25,1.32,1.32,0,0,0-.18.78v.28h1.09Z"/><path class="cls-3" d="M126.15,85.92h-1.09V89.7h-.64V85.92h-.77v-.29l.77-.24v-.23c0-1.06.45-1.58,1.37-1.58a2.82,2.82,0,0,1,.8.13l-.17.52a2.14,2.14,0,0,0-.64-.12.61.61,0,0,0-.54.25,1.32,1.32,0,0,0-.18.78v.28h1.09Z"/><path class="cls-3" d="M128.89,85.34a2.59,2.59,0,0,1,.51,0l-.09.6a2.16,2.16,0,0,0-.47-.06,1.15,1.15,0,0,0-.89.42,1.56,1.56,0,0,0-.37,1.05v2.3h-.65V85.42h.54l.07.79h0a1.7,1.7,0,0,1,.57-.64A1.3,1.3,0,0,1,128.89,85.34Z"/><path class="cls-3" d="M132,89.78a2,2,0,0,1-1.5-.58,2.23,2.23,0,0,1-.55-1.61,2.48,2.48,0,0,1,.51-1.64,1.69,1.69,0,0,1,1.37-.61,1.61,1.61,0,0,1,1.27.53,2,2,0,0,1,.47,1.4v.41h-3a1.73,1.73,0,0,0,.38,1.14,1.32,1.32,0,0,0,1,.39,3.51,3.51,0,0,0,1.37-.29v.58a3.25,3.25,0,0,1-.65.21A3.21,3.21,0,0,1,132,89.78Zm-.18-3.9a1,1,0,0,0-.82.34,1.58,1.58,0,0,0-.36.93h2.24a1.39,1.39,0,0,0-.28-.94A1,1,0,0,0,131.83,85.88Z"/><path class="cls-3" d="M136.5,89.78a2,2,0,0,1-1.5-.58,2.23,2.23,0,0,1-.55-1.61A2.48,2.48,0,0,1,135,86a1.69,1.69,0,0,1,1.37-.61,1.61,1.61,0,0,1,1.27.53,2,2,0,0,1,.47,1.4v.41h-2.95a1.68,1.68,0,0,0,.38,1.14,1.32,1.32,0,0,0,1,.39,3.51,3.51,0,0,0,1.37-.29v.58a3.25,3.25,0,0,1-.65.21A3.21,3.21,0,0,1,136.5,89.78Zm-.18-3.9a1,1,0,0,0-.82.34,1.46,1.46,0,0,0-.36.93h2.24a1.44,1.44,0,0,0-.28-.94A1,1,0,0,0,136.32,85.88Z"/><path class="cls-3" d="M144.17,89.12h0a1.51,1.51,0,0,1-1.34.66,1.58,1.58,0,0,1-1.31-.58,3.11,3.11,0,0,1,0-3.27,1.73,1.73,0,0,1,2.64,0h.05l0-.31,0-.3V83.62h.65V89.7h-.53Zm-1.3.11a1.17,1.17,0,0,0,1-.36,1.81,1.81,0,0,0,.3-1.16v-.14a2.16,2.16,0,0,0-.3-1.3,1.14,1.14,0,0,0-1-.39,1,1,0,0,0-.87.45,2.2,2.2,0,0,0-.3,1.25,2.14,2.14,0,0,0,.3,1.24A1,1,0,0,0,142.87,89.23Z"/><path class="cls-3" d="M148.79,89.7l-.13-.61h0a1.71,1.71,0,0,1-.64.54,1.86,1.86,0,0,1-.79.15,1.42,1.42,0,0,1-1-.33,1.2,1.2,0,0,1-.36-.93c0-.87.69-1.32,2.07-1.36l.73,0v-.26a1.07,1.07,0,0,0-.22-.75.89.89,0,0,0-.69-.24,2.8,2.8,0,0,0-1.21.33l-.2-.5a3,3,0,0,1,.69-.26,2.78,2.78,0,0,1,.76-.1,1.59,1.59,0,0,1,1.13.34,1.4,1.4,0,0,1,.37,1.09V89.7Zm-1.46-.46a1.32,1.32,0,0,0,.95-.33,1.22,1.22,0,0,0,.34-.93v-.39l-.65,0a2.41,2.41,0,0,0-1.11.24.71.71,0,0,0-.34.66.67.67,0,0,0,.21.54A.9.9,0,0,0,147.33,89.24Z"/><path class="cls-3" d="M152,89.24l.33,0,.26-.06v.5a1.48,1.48,0,0,1-.32.08,1.65,1.65,0,0,1-.36,0c-.83,0-1.25-.44-1.25-1.31V85.92H150v-.31l.61-.27.28-.91h.37v1h1.24v.5H151.3v2.52a.85.85,0,0,0,.19.6A.65.65,0,0,0,152,89.24Z"/><path class="cls-3" d="M156.06,89.7l-.13-.61h0a1.64,1.64,0,0,1-.64.54,1.82,1.82,0,0,1-.79.15,1.42,1.42,0,0,1-1-.33,1.2,1.2,0,0,1-.36-.93c0-.87.69-1.32,2.07-1.36l.73,0v-.26a1.07,1.07,0,0,0-.22-.75.87.87,0,0,0-.69-.24,2.8,2.8,0,0,0-1.21.33l-.2-.5a3,3,0,0,1,.69-.26,2.89,2.89,0,0,1,.76-.1,1.59,1.59,0,0,1,1.13.34,1.4,1.4,0,0,1,.37,1.09V89.7Zm-1.46-.46a1.32,1.32,0,0,0,1-.33,1.23,1.23,0,0,0,.35-.93v-.39l-.65,0a2.42,2.42,0,0,0-1.12.24.71.71,0,0,0-.34.66.67.67,0,0,0,.21.54A.9.9,0,0,0,154.6,89.24Z"/><path class="cls-3" d="M67,97.53a1.06,1.06,0,0,1-.45.92,2.06,2.06,0,0,1-1.25.33A2.72,2.72,0,0,1,64,98.51v-.6a3.71,3.71,0,0,0,.66.24,2.84,2.84,0,0,0,.69.09,1.56,1.56,0,0,0,.78-.16.53.53,0,0,0,.27-.49.53.53,0,0,0-.22-.43,3.15,3.15,0,0,0-.84-.42,4.75,4.75,0,0,1-.85-.39,1.25,1.25,0,0,1-.38-.38,1,1,0,0,1-.12-.5,1,1,0,0,1,.43-.83,2,2,0,0,1,1.16-.3,3.42,3.42,0,0,1,1.36.28l-.23.53a3.07,3.07,0,0,0-1.17-.27,1.32,1.32,0,0,0-.7.15.45.45,0,0,0-.23.4.48.48,0,0,0,.09.29.75.75,0,0,0,.28.23,7.06,7.06,0,0,0,.75.32,2.85,2.85,0,0,1,1,.55A1,1,0,0,1,67,97.53Z"/><path class="cls-3" d="M69.42,98.24l.33,0,.26-.06v.5a1.37,1.37,0,0,1-.31.08,1.73,1.73,0,0,1-.37,0c-.83,0-1.24-.44-1.24-1.31V94.92h-.62v-.31l.62-.27.27-.91h.38v1H70v.5H68.74v2.52a.9.9,0,0,0,.18.6A.65.65,0,0,0,69.42,98.24Z"/><path class="cls-3" d="M74.56,96.55A2.38,2.38,0,0,1,74,98.19a1.86,1.86,0,0,1-1.45.59,1.89,1.89,0,0,1-1-.27,1.75,1.75,0,0,1-.69-.78,2.67,2.67,0,0,1-.24-1.18,2.36,2.36,0,0,1,.52-1.63,1.84,1.84,0,0,1,1.45-.58,1.81,1.81,0,0,1,1.43.6A2.35,2.35,0,0,1,74.56,96.55Zm-3.26,0a2,2,0,0,0,.33,1.25,1.12,1.12,0,0,0,1,.43,1.17,1.17,0,0,0,1-.42,2.06,2.06,0,0,0,.33-1.26,2,2,0,0,0-.33-1.24,1.17,1.17,0,0,0-1-.42,1.15,1.15,0,0,0-1,.42A2,2,0,0,0,71.3,96.55Z"/><path class="cls-3" d="M77.65,94.34a2.59,2.59,0,0,1,.51,0l-.09.6a2.16,2.16,0,0,0-.47-.06,1.16,1.16,0,0,0-.89.42,1.56,1.56,0,0,0-.37,1.05v2.3H75.7V94.42h.53l.08.79h0a1.89,1.89,0,0,1,.57-.64A1.3,1.3,0,0,1,77.65,94.34Z"/><path class="cls-3" d="M81.59,98.7l-.12-.61h0a1.69,1.69,0,0,1-.63.54,1.9,1.9,0,0,1-.8.15,1.44,1.44,0,0,1-1-.33,1.2,1.2,0,0,1-.36-.93c0-.87.69-1.32,2.08-1.36l.72,0v-.26a1.12,1.12,0,0,0-.21-.75.91.91,0,0,0-.7-.24,2.8,2.8,0,0,0-1.21.33l-.2-.5a2.9,2.9,0,0,1,.7-.26,2.76,2.76,0,0,1,.75-.1,1.64,1.64,0,0,1,1.14.34,1.43,1.43,0,0,1,.37,1.09V98.7Zm-1.46-.46a1.32,1.32,0,0,0,1-.33,1.23,1.23,0,0,0,.35-.93v-.39l-.65,0a2.42,2.42,0,0,0-1.12.24.71.71,0,0,0-.34.66.67.67,0,0,0,.21.54A.91.91,0,0,0,80.13,98.24Z"/><path class="cls-3" d="M86.92,94.42v.41l-.8.09a1.49,1.49,0,0,1,.2.36,1.54,1.54,0,0,1,.08.5,1.25,1.25,0,0,1-.43,1,1.72,1.72,0,0,1-1.18.38,1.47,1.47,0,0,1-.36,0,.65.65,0,0,0-.41.56.29.29,0,0,0,.15.26,1.11,1.11,0,0,0,.49.08h.76a1.75,1.75,0,0,1,1.07.29,1,1,0,0,1,.37.85,1.22,1.22,0,0,1-.57,1.09,3,3,0,0,1-1.66.37,2.27,2.27,0,0,1-1.3-.31,1,1,0,0,1-.45-.88,1,1,0,0,1,.25-.68,1.27,1.27,0,0,1,.7-.39.68.68,0,0,1-.28-.23.61.61,0,0,1-.11-.36.65.65,0,0,1,.13-.41A1.22,1.22,0,0,1,84,97a1.16,1.16,0,0,1-.54-.47,1.32,1.32,0,0,1-.21-.75,1.39,1.39,0,0,1,.42-1.08,1.76,1.76,0,0,1,1.2-.38,2.23,2.23,0,0,1,.6.08Zm-3.42,5a.6.6,0,0,0,.29.53,1.76,1.76,0,0,0,.84.17,2.36,2.36,0,0,0,1.21-.24.75.75,0,0,0,.4-.66.53.53,0,0,0-.22-.48,1.64,1.64,0,0,0-.81-.14h-.78a1,1,0,0,0-.68.21A.74.74,0,0,0,83.5,99.42Zm.35-3.63a.88.88,0,0,0,.26.68,1,1,0,0,0,.7.23.83.83,0,0,0,1-.92.85.85,0,0,0-1-1,.92.92,0,0,0-.7.25A1,1,0,0,0,83.85,95.79Z"/><path class="cls-3" d="M89.6,98.78a2,2,0,0,1-1.5-.58,2.27,2.27,0,0,1-.54-1.61A2.48,2.48,0,0,1,88.07,95a1.67,1.67,0,0,1,1.36-.61,1.63,1.63,0,0,1,1.28.53,2,2,0,0,1,.47,1.4v.41h-3a1.68,1.68,0,0,0,.38,1.14,1.32,1.32,0,0,0,1,.39A3.46,3.46,0,0,0,91,97.92v.58a3.06,3.06,0,0,1-.65.21A3.15,3.15,0,0,1,89.6,98.78Zm-.17-3.9a1.06,1.06,0,0,0-.83.34,1.58,1.58,0,0,0-.36.93h2.24a1.44,1.44,0,0,0-.27-.94A1,1,0,0,0,89.43,94.88Z"/><path class="cls-3" d="M97.12,97.53a1.07,1.07,0,0,1-.44.92,2.09,2.09,0,0,1-1.25.33,2.72,2.72,0,0,1-1.33-.27v-.6a3.21,3.21,0,0,0,.66.24,2.77,2.77,0,0,0,.68.09,1.51,1.51,0,0,0,.78-.16.52.52,0,0,0,.28-.49.55.55,0,0,0-.22-.43,3.26,3.26,0,0,0-.85-.42,5.12,5.12,0,0,1-.85-.39,1.21,1.21,0,0,1-.37-.38,1,1,0,0,1-.12-.5,1,1,0,0,1,.42-.83,2,2,0,0,1,1.17-.3,3.37,3.37,0,0,1,1.35.28l-.23.53a3.07,3.07,0,0,0-1.17-.27,1.29,1.29,0,0,0-.69.15.44.44,0,0,0-.24.4.48.48,0,0,0,.09.29.79.79,0,0,0,.29.23,7.06,7.06,0,0,0,.75.32,2.79,2.79,0,0,1,1,.55A1,1,0,0,1,97.12,97.53Z"/><path class="cls-3" d="M100,98.78a2,2,0,0,1-1.5-.58,2.23,2.23,0,0,1-.55-1.61A2.48,2.48,0,0,1,98.45,95a1.68,1.68,0,0,1,1.37-.61,1.62,1.62,0,0,1,1.27.53,2,2,0,0,1,.47,1.4v.41h-3A1.68,1.68,0,0,0,99,97.82a1.32,1.32,0,0,0,1,.39,3.55,3.55,0,0,0,1.37-.29v.58a3.28,3.28,0,0,1-1.39.28Zm-.18-3.9a1,1,0,0,0-.82.34,1.46,1.46,0,0,0-.36.93h2.23a1.44,1.44,0,0,0-.27-.94A1,1,0,0,0,99.81,94.88Z"/><path class="cls-3" d="M104.62,94.34a2.59,2.59,0,0,1,.51,0L105,95a2.16,2.16,0,0,0-.47-.06,1.15,1.15,0,0,0-.89.42,1.56,1.56,0,0,0-.37,1.05v2.3h-.64V94.42h.53l.07.79h0a1.79,1.79,0,0,1,.57-.64A1.3,1.3,0,0,1,104.62,94.34Z"/><path class="cls-3" d="M106.87,98.7l-1.63-4.28h.7l.92,2.54c.21.59.33,1,.37,1.15h0c0-.13.12-.42.27-.85s.49-1.38,1-2.84h.69l-1.62,4.28Z"/><path class="cls-3" d="M109.88,93.26a.45.45,0,0,1,.11-.33.4.4,0,0,1,.28-.1.39.39,0,0,1,.27.1.45.45,0,0,1,.11.33.44.44,0,0,1-.11.32.36.36,0,0,1-.27.11.37.37,0,0,1-.28-.11A.44.44,0,0,1,109.88,93.26Zm.71,5.44h-.65V94.42h.65Z"/><path class="cls-3" d="M113.67,98.78a1.83,1.83,0,0,1-1.44-.57,2.38,2.38,0,0,1-.51-1.62,2.44,2.44,0,0,1,.52-1.66,1.88,1.88,0,0,1,1.48-.59,2.54,2.54,0,0,1,.61.07,1.91,1.91,0,0,1,.49.15l-.2.55c-.15,0-.3-.1-.47-.14a2,2,0,0,0-.45-.06c-.87,0-1.3.56-1.3,1.67a2,2,0,0,0,.31,1.21,1.13,1.13,0,0,0,1,.42,2.92,2.92,0,0,0,1.09-.23v.57A2.28,2.28,0,0,1,113.67,98.78Z"/><path class="cls-3" d="M117.58,98.78a2,2,0,0,1-1.5-.58,2.23,2.23,0,0,1-.55-1.61A2.48,2.48,0,0,1,116,95a1.69,1.69,0,0,1,1.37-.61,1.61,1.61,0,0,1,1.27.53,2,2,0,0,1,.47,1.4v.41h-3a1.73,1.73,0,0,0,.38,1.14,1.35,1.35,0,0,0,1,.39,3.51,3.51,0,0,0,1.37-.29v.58a3.25,3.25,0,0,1-.65.21A3.21,3.21,0,0,1,117.58,98.78Zm-.18-3.9a1.05,1.05,0,0,0-.82.34,1.58,1.58,0,0,0-.36.93h2.24a1.39,1.39,0,0,0-.28-.94A1,1,0,0,0,117.4,94.88Z"/><path class="cls-3" d="M126,96.55a2.33,2.33,0,0,1-.53,1.64,1.85,1.85,0,0,1-1.45.59,1.94,1.94,0,0,1-1-.27,1.75,1.75,0,0,1-.69-.78,2.67,2.67,0,0,1-.24-1.18,2.36,2.36,0,0,1,.52-1.63,1.86,1.86,0,0,1,1.46-.58,1.8,1.8,0,0,1,1.42.6A2.3,2.3,0,0,1,126,96.55Zm-3.26,0a2,2,0,0,0,.33,1.25,1.13,1.13,0,0,0,1,.43,1.15,1.15,0,0,0,1-.42,2.06,2.06,0,0,0,.33-1.26,2,2,0,0,0-.33-1.24,1.33,1.33,0,0,0-1.94,0A2,2,0,0,0,122.77,96.55Z"/><path class="cls-3" d="M129.1,94.92H128V98.7h-.65V94.92h-.77v-.29l.77-.24v-.23c0-1.06.46-1.58,1.38-1.58a2.87,2.87,0,0,1,.8.13l-.17.52a2.2,2.2,0,0,0-.64-.12.62.62,0,0,0-.55.25,1.41,1.41,0,0,0-.17.78v.28h1.09Z"/><path class="cls-3" d="M133.34,98.24l.33,0,.26-.06v.5a1.37,1.37,0,0,1-.31.08,1.73,1.73,0,0,1-.37,0c-.83,0-1.25-.44-1.25-1.31V94.92h-.61v-.31l.61-.27.28-.91h.37v1h1.25v.5h-1.25v2.52a.85.85,0,0,0,.19.6A.65.65,0,0,0,133.34,98.24Z"/><path class="cls-3" d="M137.71,98.7V95.93a1.1,1.1,0,0,0-.24-.78,1,1,0,0,0-.74-.26,1.22,1.22,0,0,0-1,.37,1.82,1.82,0,0,0-.31,1.2V98.7h-.65V92.62h.65v1.84a4.11,4.11,0,0,1,0,.55h0a1.33,1.33,0,0,1,.54-.48,1.79,1.79,0,0,1,.81-.18,1.65,1.65,0,0,1,1.18.37,1.58,1.58,0,0,1,.39,1.19V98.7Z"/><path class="cls-3" d="M141.5,98.78a2,2,0,0,1-1.5-.58,2.28,2.28,0,0,1-.55-1.61A2.48,2.48,0,0,1,140,95a1.69,1.69,0,0,1,1.37-.61,1.64,1.64,0,0,1,1.28.53,2,2,0,0,1,.47,1.4v.41h-3a1.68,1.68,0,0,0,.38,1.14,1.31,1.31,0,0,0,1,.39,3.48,3.48,0,0,0,1.37-.29v.58a3.06,3.06,0,0,1-.65.21A3.15,3.15,0,0,1,141.5,98.78Zm-.17-3.9a1.06,1.06,0,0,0-.83.34,1.58,1.58,0,0,0-.36.93h2.24a1.44,1.44,0,0,0-.27-.94A1,1,0,0,0,141.33,94.88Z"/><path class="cls-3" d="M67.54,106.18a1.43,1.43,0,0,1-.54,1.18,2.4,2.4,0,0,1-1.49.42,3.76,3.76,0,0,1-1.56-.26v-.65a4.09,4.09,0,0,0,.77.24,3.75,3.75,0,0,0,.82.09,1.66,1.66,0,0,0,1-.26.82.82,0,0,0,.33-.7.85.85,0,0,0-.12-.48,1,1,0,0,0-.4-.35,5.35,5.35,0,0,0-.85-.37,2.63,2.63,0,0,1-1.13-.67,1.49,1.49,0,0,1-.35-1,1.27,1.27,0,0,1,.5-1,2.06,2.06,0,0,1,1.31-.39,3.86,3.86,0,0,1,1.57.31l-.21.58a3.5,3.5,0,0,0-1.37-.3,1.36,1.36,0,0,0-.83.23.73.73,0,0,0-.29.63.88.88,0,0,0,.11.48,1,1,0,0,0,.36.35,5.57,5.57,0,0,0,.8.35,3.09,3.09,0,0,1,1.24.69A1.36,1.36,0,0,1,67.54,106.18Z"/><path class="cls-3" d="M71.24,107.7l-1.94-5.06h0c0,.4.06.87.06,1.43v3.63h-.62V102h1l1.81,4.71h0L73.38,102h1v5.71H73.7V104q0-.63.06-1.38h0l-2,5.06Z"/><path class="cls-3" d="M78.68,105.32v2.38H78V102h1.57a2.44,2.44,0,0,1,1.55.4,1.44,1.44,0,0,1,.5,1.21,1.51,1.51,0,0,1-1.14,1.53L82,107.7h-.79l-1.38-2.38Zm0-.57h.91a1.55,1.55,0,0,0,1-.28,1,1,0,0,0,.33-.83,1,1,0,0,0-.34-.82,1.78,1.78,0,0,0-1.07-.25h-.86Z"/><path class="cls-3" d="M84.67,107.78a2,2,0,0,1-1.5-.58,2.23,2.23,0,0,1-.55-1.61,2.48,2.48,0,0,1,.51-1.64,1.69,1.69,0,0,1,1.37-.61,1.61,1.61,0,0,1,1.27.53,2,2,0,0,1,.47,1.4v.41H83.29a1.73,1.73,0,0,0,.38,1.14,1.33,1.33,0,0,0,1,.39,3.51,3.51,0,0,0,1.37-.29v.58a3.25,3.25,0,0,1-.65.21A3.21,3.21,0,0,1,84.67,107.78Zm-.18-3.9a1.05,1.05,0,0,0-.82.34,1.58,1.58,0,0,0-.36.93h2.24a1.39,1.39,0,0,0-.28-.94A1,1,0,0,0,84.49,103.88Z"/><path class="cls-3" d="M90.11,106.53a1.07,1.07,0,0,1-.44.92,2.09,2.09,0,0,1-1.25.33,2.7,2.7,0,0,1-1.33-.27v-.6a3.21,3.21,0,0,0,.66.24,2.71,2.71,0,0,0,.68.09,1.51,1.51,0,0,0,.78-.16.54.54,0,0,0,.28-.49.55.55,0,0,0-.22-.43,3.44,3.44,0,0,0-.85-.42,4.75,4.75,0,0,1-.85-.39,1.21,1.21,0,0,1-.37-.38,1,1,0,0,1-.12-.5,1,1,0,0,1,.42-.83,2,2,0,0,1,1.17-.3,3.37,3.37,0,0,1,1.35.28l-.23.53a3.07,3.07,0,0,0-1.17-.27,1.26,1.26,0,0,0-.69.15.44.44,0,0,0-.24.4.48.48,0,0,0,.09.29.84.84,0,0,0,.28.23,7.06,7.06,0,0,0,.75.32,2.85,2.85,0,0,1,1,.55A1,1,0,0,1,90.11,106.53Z"/><path class="cls-3" d="M91.11,102.26a.45.45,0,0,1,.11-.33.41.41,0,0,1,.54,0,.42.42,0,0,1,.12.33.41.41,0,0,1-.12.32.39.39,0,0,1-.54,0A.44.44,0,0,1,91.11,102.26Zm.7,5.44h-.64v-4.28h.64Z"/><path class="cls-3" d="M93.84,107.7h-.65v-6.08h.65Z"/><path class="cls-3" d="M95.16,102.26a.41.41,0,0,1,.11-.33.36.36,0,0,1,.27-.1.39.39,0,0,1,.27.1.45.45,0,0,1,.11.33.44.44,0,0,1-.11.32.36.36,0,0,1-.27.11.33.33,0,0,1-.27-.11A.4.4,0,0,1,95.16,102.26Zm.7,5.44h-.65v-4.28h.65Z"/><path class="cls-3" d="M99,107.78a2,2,0,0,1-1.49-.58,2.23,2.23,0,0,1-.55-1.61,2.48,2.48,0,0,1,.51-1.64,1.68,1.68,0,0,1,1.37-.61,1.62,1.62,0,0,1,1.27.53,2,2,0,0,1,.47,1.4v.41h-3a1.68,1.68,0,0,0,.38,1.14,1.32,1.32,0,0,0,1,.39,3.46,3.46,0,0,0,1.36-.29v.58a2.89,2.89,0,0,1-.65.21A3.15,3.15,0,0,1,99,107.78Zm-.17-3.9a1,1,0,0,0-.82.34,1.52,1.52,0,0,0-.37.93h2.24a1.44,1.44,0,0,0-.27-.94A1,1,0,0,0,98.87,103.88Z"/><path class="cls-3" d="M104.65,107.7v-2.77a1.15,1.15,0,0,0-.23-.78,1,1,0,0,0-.75-.26,1.25,1.25,0,0,0-1,.36,1.92,1.92,0,0,0-.31,1.2v2.25h-.65v-4.28h.53l.11.58h0a1.34,1.34,0,0,1,.56-.49,1.88,1.88,0,0,1,.8-.17,1.36,1.36,0,0,1,1.55,1.57v2.79Z"/><path class="cls-3" d="M108.34,107.78a1.81,1.81,0,0,1-1.43-.57,2.38,2.38,0,0,1-.51-1.62,2.44,2.44,0,0,1,.51-1.66,1.88,1.88,0,0,1,1.48-.59,2.54,2.54,0,0,1,.61.07,1.91,1.91,0,0,1,.49.15l-.2.55a4.41,4.41,0,0,0-.47-.14,2,2,0,0,0-.45-.06c-.87,0-1.3.56-1.3,1.67a1.94,1.94,0,0,0,.32,1.21,1.1,1.1,0,0,0,.94.42,3,3,0,0,0,1.1-.23v.57A2.35,2.35,0,0,1,108.34,107.78Z"/><path class="cls-3" d="M112.25,107.78a2,2,0,0,1-1.5-.58,2.28,2.28,0,0,1-.55-1.61,2.48,2.48,0,0,1,.51-1.64,1.69,1.69,0,0,1,1.37-.61,1.64,1.64,0,0,1,1.28.53,2,2,0,0,1,.47,1.4v.41h-3a1.68,1.68,0,0,0,.38,1.14,1.31,1.31,0,0,0,1,.39,3.48,3.48,0,0,0,1.37-.29v.58a3.06,3.06,0,0,1-.65.21A3.15,3.15,0,0,1,112.25,107.78Zm-.17-3.9a1.06,1.06,0,0,0-.83.34,1.58,1.58,0,0,0-.36.93h2.24a1.44,1.44,0,0,0-.27-.94A1,1,0,0,0,112.08,103.88Z"/><path class="cls-3" d="M119.55,102.5a1.84,1.84,0,0,0-1.48.63,2.48,2.48,0,0,0-.55,1.71,2.6,2.6,0,0,0,.53,1.74,1.89,1.89,0,0,0,1.49.61,4.91,4.91,0,0,0,1.37-.22v.58a4.2,4.2,0,0,1-1.47.23,2.46,2.46,0,0,1-1.94-.77,3.12,3.12,0,0,1-.69-2.17,3.44,3.44,0,0,1,.33-1.55,2.4,2.4,0,0,1,1-1,2.91,2.91,0,0,1,1.47-.36,3.67,3.67,0,0,1,1.57.32l-.28.57A3.08,3.08,0,0,0,119.55,102.5Z"/><path class="cls-3" d="M123.86,107.78a2,2,0,0,1-1.49-.58,2.23,2.23,0,0,1-.55-1.61,2.48,2.48,0,0,1,.51-1.64,1.68,1.68,0,0,1,1.37-.61,1.62,1.62,0,0,1,1.27.53,2,2,0,0,1,.47,1.4v.41h-3a1.68,1.68,0,0,0,.38,1.14,1.32,1.32,0,0,0,1,.39,3.46,3.46,0,0,0,1.36-.29v.58a2.89,2.89,0,0,1-.65.21A3.15,3.15,0,0,1,123.86,107.78Zm-.17-3.9a1,1,0,0,0-.82.34,1.52,1.52,0,0,0-.37.93h2.24a1.44,1.44,0,0,0-.27-.94A1,1,0,0,0,123.69,103.88Z"/><path class="cls-3" d="M129.47,107.7v-2.77a1.15,1.15,0,0,0-.23-.78,1,1,0,0,0-.75-.26,1.25,1.25,0,0,0-1,.36,1.92,1.92,0,0,0-.31,1.2v2.25h-.65v-4.28h.53l.11.58h0a1.34,1.34,0,0,1,.56-.49,1.88,1.88,0,0,1,.8-.17,1.36,1.36,0,0,1,1.55,1.57v2.79Z"/><path class="cls-3" d="M132.84,107.24l.33,0,.25-.06v.5a1.23,1.23,0,0,1-.31.08,1.67,1.67,0,0,1-.37,0c-.82,0-1.24-.44-1.24-1.31v-2.55h-.61v-.31l.61-.27.27-.91h.38v1h1.24v.5h-1.24v2.52a.9.9,0,0,0,.18.6A.68.68,0,0,0,132.84,107.24Z"/><path class="cls-3" d="M136.09,107.78a2,2,0,0,1-1.5-.58,2.23,2.23,0,0,1-.55-1.61,2.48,2.48,0,0,1,.51-1.64,1.69,1.69,0,0,1,1.37-.61,1.61,1.61,0,0,1,1.27.53,2,2,0,0,1,.47,1.4v.41h-2.95a1.68,1.68,0,0,0,.38,1.14,1.32,1.32,0,0,0,1,.39,3.51,3.51,0,0,0,1.37-.29v.58a3.25,3.25,0,0,1-.65.21A3.21,3.21,0,0,1,136.09,107.78Zm-.18-3.9a1,1,0,0,0-.82.34,1.46,1.46,0,0,0-.36.93H137a1.44,1.44,0,0,0-.28-.94A1,1,0,0,0,135.91,103.88Z"/><path class="cls-3" d="M140.72,103.34a2.59,2.59,0,0,1,.51,0l-.09.6a2.16,2.16,0,0,0-.47-.06,1.16,1.16,0,0,0-.89.42,1.56,1.56,0,0,0-.36,1.05v2.3h-.65v-4.28h.53l.08.79h0a1.89,1.89,0,0,1,.57-.64A1.32,1.32,0,0,1,140.72,103.34Z"/><path class="cls-1" d="M73,78H71V65.28q0-1.59.09-3l-.57.54c-.21.18-1.18,1-2.9,2.38l-1.08-1.39,4.72-3.65H73Z"/><path class="cls-1" d="M82.82,75.1l.19.28c-.22.81-.52,1.76-.92,2.84s-.81,2.08-1.25,3H79.32c.22-.84.46-1.89.72-3.13s.46-2.24.56-3Z"/><path class="cls-1" d="M86.11,70.37c0-3.5.68-6.13,2-7.87a7.23,7.23,0,0,1,6-2.6,8.24,8.24,0,0,1,2.17.23v1.75a6.72,6.72,0,0,0-2.15-.31,5.43,5.43,0,0,0-4.38,1.79c-1,1.19-1.56,3.07-1.66,5.62h.15a4.67,4.67,0,0,1,4.25-2.1,5,5,0,0,1,3.79,1.45,5.51,5.51,0,0,1,1.38,4,6,6,0,0,1-1.52,4.37,5.41,5.41,0,0,1-4.11,1.6,5.3,5.3,0,0,1-4.39-2.08A9.24,9.24,0,0,1,86.11,70.37Zm6,6.15a3.39,3.39,0,0,0,2.69-1.09,4.64,4.64,0,0,0,1-3.15,4.12,4.12,0,0,0-.89-2.79,3.38,3.38,0,0,0-2.66-1,4.5,4.5,0,0,0-2,.45,3.78,3.78,0,0,0-1.46,1.25,2.9,2.9,0,0,0-.54,1.65,5.61,5.61,0,0,0,.49,2.34,4.22,4.22,0,0,0,1.38,1.72A3.48,3.48,0,0,0,92.1,76.52Z"/><path class="cls-1" d="M111.92,78H100.19V76.26l4.7-4.73a32.48,32.48,0,0,0,2.83-3.1,7.83,7.83,0,0,0,1-1.81,5.08,5.08,0,0,0,.34-1.89,3,3,0,0,0-.86-2.26,3.32,3.32,0,0,0-2.41-.84,6,6,0,0,0-2.11.37,8.33,8.33,0,0,0-2.21,1.33L100.42,62a8.24,8.24,0,0,1,5.38-2.05,5.67,5.67,0,0,1,3.94,1.29,4.44,4.44,0,0,1,1.43,3.46,6.6,6.6,0,0,1-1,3.35,21,21,0,0,1-3.56,4.2L102.74,76v.1h9.18Z"/><path class="cls-1" d="M116.75,78l7.39-16h-9.73V60.16h11.88v1.62L119,78Z"/></g></svg>