<svg xmlns="http://www.w3.org/2000/svg" viewBox="0 0 188.88 120.61"><defs><style>.cls-1{fill:#a88c52;}.cls-2{fill:#fff;}.cls-3{fill:#4d4e50;}</style></defs><g id="Economic_Opportunities_Image" data-name="Economic Opportunities Image"><rect class="cls-1" y="0.22" width="186.62" height="20"/><path class="cls-2" d="M19.37,15.3V5.3h1.17v10Z"/><path class="cls-2" d="M28.23,15.3V10.45a2,2,0,0,0-.41-1.37,1.72,1.72,0,0,0-1.31-.45,2.13,2.13,0,0,0-1.72.64,3.17,3.17,0,0,0-.55,2.1V15.3H23.11V7.8H24l.18,1h.06a2.29,2.29,0,0,1,1-.86,3.19,3.19,0,0,1,1.4-.3,2.84,2.84,0,0,1,2,.65,2.77,2.77,0,0,1,.69,2.09V15.3Z"/><path class="cls-2" d="M34.69,15.43a3.2,3.2,0,0,1-2.52-1,4.14,4.14,0,0,1-.89-2.83,4.23,4.23,0,0,1,.91-2.91,3.26,3.26,0,0,1,2.58-1,5.65,5.65,0,0,1,1.08.11,3.51,3.51,0,0,1,.85.28l-.35,1a6.07,6.07,0,0,0-.82-.25,4.15,4.15,0,0,0-.79-.1q-2.28,0-2.28,2.91A3.39,3.39,0,0,0,33,13.7a1.92,1.92,0,0,0,1.65.74,5,5,0,0,0,1.92-.4v1A4.12,4.12,0,0,1,34.69,15.43Z"/><path class="cls-2" d="M39.5,15.3H38.36V4.66H39.5Z"/><path class="cls-2" d="M43,7.8v4.86A1.94,1.94,0,0,0,43.39,14a1.69,1.69,0,0,0,1.3.45,2.11,2.11,0,0,0,1.72-.64,3.2,3.2,0,0,0,.55-2.1V7.8h1.13v7.5h-.93l-.17-1h-.06a2.3,2.3,0,0,1-1,.85,3.17,3.17,0,0,1-1.41.29,2.85,2.85,0,0,1-2-.65,2.76,2.76,0,0,1-.68-2.07V7.8Z"/><path class="cls-2" d="M55.33,13.25a1.89,1.89,0,0,1-.78,1.62,3.73,3.73,0,0,1-2.19.56A4.7,4.7,0,0,1,50,15V13.91a6.16,6.16,0,0,0,1.16.43,5.07,5.07,0,0,0,1.19.16,2.71,2.71,0,0,0,1.37-.29.93.93,0,0,0,.48-.86,1,1,0,0,0-.38-.75,6.12,6.12,0,0,0-1.48-.74,7.21,7.21,0,0,1-1.49-.68,2,2,0,0,1-.65-.65A1.68,1.68,0,0,1,50,9.64a1.68,1.68,0,0,1,.74-1.44,3.44,3.44,0,0,1,2.05-.53,5.94,5.94,0,0,1,2.36.49l-.4.92a5.39,5.39,0,0,0-2-.46,2.34,2.34,0,0,0-1.22.25.79.79,0,0,0-.41.7.85.85,0,0,0,.15.51,1.51,1.51,0,0,0,.5.4,10.05,10.05,0,0,0,1.31.56,4.78,4.78,0,0,1,1.8,1A1.71,1.71,0,0,1,55.33,13.25Z"/><path class="cls-2" d="M57.08,5.77a.78.78,0,0,1,.19-.57A.68.68,0,0,1,57.75,5a.64.64,0,0,1,.47.19.7.7,0,0,1,.2.56.71.71,0,0,1-.2.57.64.64,0,0,1-.47.19.65.65,0,0,1-.48-.19A.78.78,0,0,1,57.08,5.77Zm1.23,9.53H57.18V7.8h1.13Z"/><path class="cls-2" d="M62.36,15.3,59.51,7.8h1.22l1.61,4.45c.37,1,.58,1.71.65,2h0a15,15,0,0,1,.48-1.5c.26-.76.86-2.41,1.79-5h1.22l-2.85,7.5Z"/><path class="cls-2" d="M70.9,15.43a3.4,3.4,0,0,1-2.62-1,3.87,3.87,0,0,1-1-2.81,4.32,4.32,0,0,1,.9-2.88A3,3,0,0,1,70.6,7.67a2.85,2.85,0,0,1,2.23.92A3.56,3.56,0,0,1,73.65,11v.72H68.49a3,3,0,0,0,.67,2,2.31,2.31,0,0,0,1.78.68,6.17,6.17,0,0,0,2.39-.5v1a5.79,5.79,0,0,1-1.14.37A6.08,6.08,0,0,1,70.9,15.43Zm-.31-6.81a1.84,1.84,0,0,0-1.44.59,2.65,2.65,0,0,0-.63,1.62h3.91A2.49,2.49,0,0,0,72,9.19,1.7,1.7,0,0,0,70.59,8.62Z"/><path class="cls-2" d="M85,12.64a2.45,2.45,0,0,1-1,2,4.12,4.12,0,0,1-2.6.74A6.63,6.63,0,0,1,78.74,15V13.85a6.76,6.76,0,0,0,1.34.41,7.19,7.19,0,0,0,1.44.15A2.86,2.86,0,0,0,83.27,14a1.44,1.44,0,0,0,.59-1.22,1.55,1.55,0,0,0-.21-.85,1.88,1.88,0,0,0-.7-.62,9.44,9.44,0,0,0-1.49-.63,4.77,4.77,0,0,1-2-1.18,2.62,2.62,0,0,1-.6-1.79,2.23,2.23,0,0,1,.87-1.84A3.66,3.66,0,0,1,82,5.16a6.67,6.67,0,0,1,2.74.55l-.36,1A6.16,6.16,0,0,0,82,6.2a2.37,2.37,0,0,0-1.44.39,1.32,1.32,0,0,0-.52,1.1,1.71,1.71,0,0,0,.19.86,1.74,1.74,0,0,0,.65.6,7.71,7.71,0,0,0,1.39.62A5.38,5.38,0,0,1,84.44,11,2.34,2.34,0,0,1,85,12.64Z"/><path class="cls-2" d="M88,7.8v4.86A1.94,1.94,0,0,0,88.39,14a1.7,1.7,0,0,0,1.31.45,2.11,2.11,0,0,0,1.71-.64,3.2,3.2,0,0,0,.55-2.1V7.8h1.13v7.5h-.93l-.17-1h-.06a2.24,2.24,0,0,1-1,.85,3.17,3.17,0,0,1-1.41.29,2.85,2.85,0,0,1-2-.65,2.76,2.76,0,0,1-.68-2.07V7.8Z"/><path class="cls-2" d="M99,15.43a3.24,3.24,0,0,1-1.34-.27,2.54,2.54,0,0,1-1-.83h-.08a9.13,9.13,0,0,1,.08,1.25v3.08H95.5V7.8h.92l.16,1h0a2.74,2.74,0,0,1,1-.89A3.14,3.14,0,0,1,99,7.67a2.77,2.77,0,0,1,2.3,1,4.48,4.48,0,0,1,.81,2.85,4.46,4.46,0,0,1-.83,2.87A2.77,2.77,0,0,1,99,15.43Zm-.17-6.8a2,2,0,0,0-1.66.64,3.28,3.28,0,0,0-.53,2v.25a3.73,3.73,0,0,0,.53,2.26,2,2,0,0,0,1.69.68,1.76,1.76,0,0,0,1.52-.78,3.73,3.73,0,0,0,.55-2.17,3.58,3.58,0,0,0-.55-2.15A1.81,1.81,0,0,0,98.82,8.63Z"/><path class="cls-2" d="M107.56,15.43a3.23,3.23,0,0,1-1.33-.27,2.47,2.47,0,0,1-1-.83h-.08a9.13,9.13,0,0,1,.08,1.25v3.08h-1.13V7.8H105l.16,1h0a2.6,2.6,0,0,1,1-.89,3.13,3.13,0,0,1,1.33-.27,2.76,2.76,0,0,1,2.3,1,4.42,4.42,0,0,1,.81,2.85,4.46,4.46,0,0,1-.82,2.87A2.78,2.78,0,0,1,107.56,15.43Zm-.16-6.8a2,2,0,0,0-1.66.64,3.28,3.28,0,0,0-.53,2v.25a3.73,3.73,0,0,0,.53,2.26,2,2,0,0,0,1.69.68A1.77,1.77,0,0,0,109,13.7a3.73,3.73,0,0,0,.55-2.17A3.58,3.58,0,0,0,109,9.38,1.81,1.81,0,0,0,107.4,8.63Z"/><path class="cls-2" d="M113.79,15.3h-1.13V4.66h1.13Z"/><path class="cls-2" d="M115,7.8h1.22l1.64,4.28a16.71,16.71,0,0,1,.67,2.11h0c.06-.23.18-.63.37-1.19s.81-2.3,1.86-5.2H122l-3.22,8.54a4.31,4.31,0,0,1-1.12,1.79,2.4,2.4,0,0,1-1.57.53,4.46,4.46,0,0,1-1-.12v-.91a3.76,3.76,0,0,0,.85.09,1.73,1.73,0,0,0,1.66-1.32l.42-1.06Z"/><path class="cls-2" d="M131.34,6.2a3.23,3.23,0,0,0-2.6,1.1,4.39,4.39,0,0,0-1,3,4.52,4.52,0,0,0,.92,3,3.3,3.3,0,0,0,2.63,1.07,8.93,8.93,0,0,0,2.38-.37v1a7.33,7.33,0,0,1-2.56.39,4.32,4.32,0,0,1-3.41-1.34,5.5,5.5,0,0,1-1.2-3.8,5.94,5.94,0,0,1,.58-2.71,4.08,4.08,0,0,1,1.67-1.79,5,5,0,0,1,2.56-.63,6.22,6.22,0,0,1,2.75.57l-.49,1A5.37,5.37,0,0,0,131.34,6.2Z"/><path class="cls-2" d="M140.85,15.3V10.45a2,2,0,0,0-.42-1.37,1.69,1.69,0,0,0-1.3-.45,2.17,2.17,0,0,0-1.73.64,3.28,3.28,0,0,0-.54,2.11V15.3h-1.14V4.66h1.14V7.88a6.28,6.28,0,0,1-.06,1h.07a2.31,2.31,0,0,1,.95-.85,3.12,3.12,0,0,1,1.42-.31,2.92,2.92,0,0,1,2.06.65,2.8,2.8,0,0,1,.68,2.08V15.3Z"/><path class="cls-2" d="M148.92,15.3l-.22-1.07h-.06a3,3,0,0,1-1.12.95,3.32,3.32,0,0,1-1.39.25,2.5,2.5,0,0,1-1.74-.57,2.07,2.07,0,0,1-.64-1.63q0-2.28,3.63-2.38l1.28,0v-.47a1.9,1.9,0,0,0-.38-1.3,1.58,1.58,0,0,0-1.22-.42,5,5,0,0,0-2.12.57l-.35-.87a5.72,5.72,0,0,1,1.22-.47,5.43,5.43,0,0,1,1.32-.17,2.85,2.85,0,0,1,2,.6,2.46,2.46,0,0,1,.64,1.9V15.3Zm-2.56-.8a2.31,2.31,0,0,0,1.66-.58,2.13,2.13,0,0,0,.61-1.63v-.68l-1.14.05a4.09,4.09,0,0,0-2,.42,1.27,1.27,0,0,0-.6,1.16,1.18,1.18,0,0,0,.38.94A1.54,1.54,0,0,0,146.36,14.5Z"/><path class="cls-2" d="M152,5.77a.74.74,0,0,1,.2-.57.64.64,0,0,1,.47-.18.66.66,0,0,1,.48.19.73.73,0,0,1,.19.56.74.74,0,0,1-.19.57.66.66,0,0,1-.48.19.61.61,0,0,1-.47-.19A.74.74,0,0,1,152,5.77Zm1.24,9.53H152.1V7.8h1.14Z"/><path class="cls-2" d="M160.77,15.3V10.45a2,2,0,0,0-.42-1.37,1.69,1.69,0,0,0-1.3-.45,2.15,2.15,0,0,0-1.73.64,3.23,3.23,0,0,0-.54,2.1V15.3h-1.14V7.8h.92l.19,1h.05a2.34,2.34,0,0,1,1-.86,3.23,3.23,0,0,1,1.4-.3,2.89,2.89,0,0,1,2,.65,2.77,2.77,0,0,1,.68,2.09V15.3Z"/><path class="cls-2" d="M169.07,13.25a1.89,1.89,0,0,1-.78,1.62,3.73,3.73,0,0,1-2.19.56,4.67,4.67,0,0,1-2.32-.47V13.91a5.91,5.91,0,0,0,1.16.43,5,5,0,0,0,1.19.16,2.64,2.64,0,0,0,1.36-.29,1,1,0,0,0,.1-1.61,5.93,5.93,0,0,0-1.48-.74,7.07,7.07,0,0,1-1.48-.68,2,2,0,0,1-.66-.65,1.78,1.78,0,0,1-.21-.89,1.66,1.66,0,0,1,.74-1.44,3.43,3.43,0,0,1,2-.53,6,6,0,0,1,2.37.49l-.4.92a5.48,5.48,0,0,0-2-.46,2.32,2.32,0,0,0-1.21.25.77.77,0,0,0-.41.7.85.85,0,0,0,.15.51,1.41,1.41,0,0,0,.5.4,9.45,9.45,0,0,0,1.31.56,4.78,4.78,0,0,1,1.8,1A1.71,1.71,0,0,1,169.07,13.25Z"/><path class="cls-3" d="M17.26,60.08a2.59,2.59,0,0,1,.51.05l-.09.6a2.09,2.09,0,0,0-.47-.06,1.16,1.16,0,0,0-.89.42,1.56,1.56,0,0,0-.36,1v2.3h-.65V60.16h.53l.08.79h0a1.89,1.89,0,0,1,.57-.64A1.32,1.32,0,0,1,17.26,60.08Z"/><path class="cls-3" d="M20.38,64.52a2,2,0,0,1-1.5-.58,2.28,2.28,0,0,1-.55-1.61,2.48,2.48,0,0,1,.51-1.64,1.69,1.69,0,0,1,1.37-.61,1.64,1.64,0,0,1,1.28.53A2,2,0,0,1,22,62v.41H19a1.68,1.68,0,0,0,.38,1.14,1.32,1.32,0,0,0,1,.39,3.46,3.46,0,0,0,1.36-.29v.58a3.06,3.06,0,0,1-.65.21A3.15,3.15,0,0,1,20.38,64.52Zm-.17-3.9a1.06,1.06,0,0,0-.83.34,1.58,1.58,0,0,0-.36.93h2.24A1.44,1.44,0,0,0,21,61,1,1,0,0,0,20.21,60.62Z"/><path class="cls-3" d="M26.57,60.16v.41l-.8.09A1.21,1.21,0,0,1,26,61a1.31,1.31,0,0,1,.08.5,1.25,1.25,0,0,1-.43,1,1.72,1.72,0,0,1-1.18.38,1.47,1.47,0,0,1-.36,0,.65.65,0,0,0-.41.56.29.29,0,0,0,.15.26,1.11,1.11,0,0,0,.49.08h.76a1.75,1.75,0,0,1,1.07.29,1,1,0,0,1,.37.85A1.22,1.22,0,0,1,25.94,66a3,3,0,0,1-1.66.37,2.27,2.27,0,0,1-1.3-.31,1,1,0,0,1-.45-.88,1,1,0,0,1,.25-.68,1.27,1.27,0,0,1,.7-.39.68.68,0,0,1-.28-.23.61.61,0,0,1-.11-.36.65.65,0,0,1,.13-.41,1.22,1.22,0,0,1,.39-.34,1.16,1.16,0,0,1-.54-.47,1.32,1.32,0,0,1-.21-.75,1.39,1.39,0,0,1,.42-1.08,1.76,1.76,0,0,1,1.2-.38,2.18,2.18,0,0,1,.6.08Zm-3.42,5a.6.6,0,0,0,.29.53,1.76,1.76,0,0,0,.84.17,2.36,2.36,0,0,0,1.21-.24.75.75,0,0,0,.4-.66.53.53,0,0,0-.22-.48,1.64,1.64,0,0,0-.81-.14h-.78a1,1,0,0,0-.68.21A.74.74,0,0,0,23.15,65.16Zm.35-3.63a.88.88,0,0,0,.26.68,1,1,0,0,0,.7.23.83.83,0,0,0,.95-.92.85.85,0,0,0-1-1,.92.92,0,0,0-.7.25A1,1,0,0,0,23.5,61.53Z"/><path class="cls-3" d="M27.39,59a.45.45,0,0,1,.11-.33.41.41,0,0,1,.54,0,.42.42,0,0,1,.12.33.41.41,0,0,1-.12.32.39.39,0,0,1-.54,0A.44.44,0,0,1,27.39,59Zm.7,5.44h-.65V60.16h.65Z"/><path class="cls-3" d="M32.23,63.27a1.06,1.06,0,0,1-.45.92,2,2,0,0,1-1.25.33,2.68,2.68,0,0,1-1.32-.27v-.6a3.21,3.21,0,0,0,.66.24,2.71,2.71,0,0,0,.68.09,1.51,1.51,0,0,0,.78-.16.53.53,0,0,0,.27-.49.54.54,0,0,0-.21-.43,3.44,3.44,0,0,0-.85-.42,4.75,4.75,0,0,1-.85-.39,1.11,1.11,0,0,1-.37-.38,1,1,0,0,1-.13-.5,1,1,0,0,1,.43-.83,2,2,0,0,1,1.17-.3,3.37,3.37,0,0,1,1.35.28l-.23.53a3.07,3.07,0,0,0-1.17-.27,1.26,1.26,0,0,0-.69.15.44.44,0,0,0-.24.4.48.48,0,0,0,.09.29.84.84,0,0,0,.28.23,7.06,7.06,0,0,0,.75.32,2.85,2.85,0,0,1,1,.55A1,1,0,0,1,32.23,63.27Z"/><path class="cls-3" d="M34.67,64,35,64l.25-.06v.5a1.23,1.23,0,0,1-.31.08,1.67,1.67,0,0,1-.37,0c-.83,0-1.24-.44-1.24-1.31V60.66h-.61v-.31l.61-.27.27-.91H34v1h1.24v.5H34v2.52a.9.9,0,0,0,.18.6A.66.66,0,0,0,34.67,64Z"/><path class="cls-3" d="M37.92,64.52a2,2,0,0,1-1.5-.58,2.23,2.23,0,0,1-.55-1.61,2.48,2.48,0,0,1,.51-1.64,1.69,1.69,0,0,1,1.37-.61,1.62,1.62,0,0,1,1.27.53,2,2,0,0,1,.47,1.4v.41h-3a1.68,1.68,0,0,0,.38,1.14,1.32,1.32,0,0,0,1,.39,3.51,3.51,0,0,0,1.37-.29v.58a3.25,3.25,0,0,1-.65.21A3.21,3.21,0,0,1,37.92,64.52Zm-.18-3.9a1,1,0,0,0-.82.34,1.46,1.46,0,0,0-.36.93H38.8a1.44,1.44,0,0,0-.28-.94A1,1,0,0,0,37.74,60.62Z"/><path class="cls-3" d="M42.55,60.08a2.59,2.59,0,0,1,.51.05l-.09.6a2.16,2.16,0,0,0-.47-.06,1.16,1.16,0,0,0-.89.42,1.56,1.56,0,0,0-.37,1v2.3H40.6V60.16h.53l.08.79h0a1.89,1.89,0,0,1,.57-.64A1.3,1.3,0,0,1,42.55,60.08Z"/><path class="cls-3" d="M45.67,64.52a2,2,0,0,1-1.5-.58,2.28,2.28,0,0,1-.55-1.61,2.48,2.48,0,0,1,.51-1.64,1.69,1.69,0,0,1,1.37-.61,1.64,1.64,0,0,1,1.28.53,2,2,0,0,1,.46,1.4v.41H44.3a1.68,1.68,0,0,0,.38,1.14,1.31,1.31,0,0,0,1,.39,3.48,3.48,0,0,0,1.37-.29v.58a3.25,3.25,0,0,1-.65.21A3.15,3.15,0,0,1,45.67,64.52Zm-.18-3.9a1.05,1.05,0,0,0-.82.34,1.58,1.58,0,0,0-.36.93h2.24a1.44,1.44,0,0,0-.27-.94A1,1,0,0,0,45.49,60.62Z"/><path class="cls-3" d="M51.26,63.86h0a1.52,1.52,0,0,1-1.34.66,1.58,1.58,0,0,1-1.31-.58,2.51,2.51,0,0,1-.47-1.63,2.56,2.56,0,0,1,.47-1.64,1.59,1.59,0,0,1,1.31-.59,1.55,1.55,0,0,1,1.33.63h.05l0-.31v-2h.65v6.08h-.53ZM50,64a1.18,1.18,0,0,0,1-.36,1.81,1.81,0,0,0,.3-1.16v-.14a2.16,2.16,0,0,0-.3-1.3,1.17,1.17,0,0,0-1-.39,1,1,0,0,0-.87.45,2.12,2.12,0,0,0-.31,1.25,2.14,2.14,0,0,0,.3,1.24A1,1,0,0,0,50,64Z"/><path class="cls-3" d="M18.63,71.92a1.41,1.41,0,0,1-.55,1.18,2.37,2.37,0,0,1-1.48.42A3.84,3.84,0,0,1,15,73.26v-.65a4.34,4.34,0,0,0,.77.24,3.88,3.88,0,0,0,.82.09,1.64,1.64,0,0,0,1-.26A.83.83,0,0,0,18,72a.85.85,0,0,0-.12-.48,1.08,1.08,0,0,0-.4-.35,5.8,5.8,0,0,0-.85-.37,2.74,2.74,0,0,1-1.14-.67,1.48,1.48,0,0,1-.34-1,1.26,1.26,0,0,1,.49-1,2.09,2.09,0,0,1,1.32-.39,3.81,3.81,0,0,1,1.56.31l-.2.58a3.55,3.55,0,0,0-1.38-.3,1.33,1.33,0,0,0-.82.23.74.74,0,0,0-.3.63,1,1,0,0,0,.11.48,1,1,0,0,0,.37.35,5.35,5.35,0,0,0,.79.35,3.09,3.09,0,0,1,1.24.69A1.32,1.32,0,0,1,18.63,71.92Z"/><path class="cls-3" d="M22.32,73.44l-1.93-5.06h0c0,.4.06.87.06,1.43v3.63H19.8V67.73h1l1.8,4.71h0l1.82-4.71h1v5.71h-.66V69.76c0-.42,0-.88.05-1.38h0l-1.95,5.06Z"/><path class="cls-3" d="M29.76,71.06v2.38H29.1V67.73h1.56a2.49,2.49,0,0,1,1.56.4,1.47,1.47,0,0,1,.5,1.21,1.51,1.51,0,0,1-1.15,1.53l1.55,2.57h-.79L31,71.06Zm0-.57h.91a1.55,1.55,0,0,0,1-.28,1,1,0,0,0,.33-.83,1,1,0,0,0-.33-.82,1.81,1.81,0,0,0-1.08-.25h-.86Z"/><path class="cls-3" d="M35.75,73.52a2,2,0,0,1-1.5-.58,2.27,2.27,0,0,1-.54-1.61,2.48,2.48,0,0,1,.51-1.64,1.67,1.67,0,0,1,1.36-.61,1.63,1.63,0,0,1,1.28.53,2,2,0,0,1,.47,1.4v.41H34.38a1.68,1.68,0,0,0,.38,1.14,1.32,1.32,0,0,0,1,.39,3.46,3.46,0,0,0,1.36-.29v.58a3.06,3.06,0,0,1-.65.21A3.15,3.15,0,0,1,35.75,73.52Zm-.17-3.9a1.06,1.06,0,0,0-.83.34,1.58,1.58,0,0,0-.36.93h2.24a1.44,1.44,0,0,0-.27-.94A1,1,0,0,0,35.58,69.62Z"/><path class="cls-3" d="M39.82,73l.33,0,.25-.06v.5a1.23,1.23,0,0,1-.31.08,1.73,1.73,0,0,1-.37,0c-.83,0-1.24-.44-1.24-1.31V69.66h-.61v-.31l.61-.27.27-.91h.38v1h1.24v.5H39.13v2.52a.9.9,0,0,0,.18.6A.66.66,0,0,0,39.82,73Z"/><path class="cls-3" d="M43.89,73.44l-.13-.61h0a1.71,1.71,0,0,1-.64.54,1.86,1.86,0,0,1-.79.15,1.42,1.42,0,0,1-1-.33,1.2,1.2,0,0,1-.36-.93c0-.87.69-1.32,2.07-1.36l.73,0v-.26a1.12,1.12,0,0,0-.22-.75.89.89,0,0,0-.69-.24,2.8,2.8,0,0,0-1.21.33l-.2-.5a3,3,0,0,1,.69-.26,2.78,2.78,0,0,1,.76-.1,1.61,1.61,0,0,1,1.13.34,1.4,1.4,0,0,1,.37,1.09v2.92ZM42.42,73a1.33,1.33,0,0,0,1-.33,1.22,1.22,0,0,0,.34-.93v-.39l-.65,0A2.41,2.41,0,0,0,42,71.6a.71.71,0,0,0-.34.66.67.67,0,0,0,.21.54A.89.89,0,0,0,42.42,73Z"/><path class="cls-3" d="M45.65,68a.45.45,0,0,1,.11-.33.41.41,0,0,1,.54,0,.42.42,0,0,1,.12.33.41.41,0,0,1-.12.32.39.39,0,0,1-.54,0A.44.44,0,0,1,45.65,68Zm.7,5.44h-.64V69.16h.64Z"/><path class="cls-3" d="M48.38,73.44h-.65V67.36h.65Z"/><path class="cls-3" d="M54.59,72.27a1.07,1.07,0,0,1-.44.92,2.09,2.09,0,0,1-1.25.33,2.72,2.72,0,0,1-1.33-.27v-.6a3.71,3.71,0,0,0,.66.24,2.77,2.77,0,0,0,.68.09,1.51,1.51,0,0,0,.78-.16.55.55,0,0,0,.06-.92,3.33,3.33,0,0,0-.84-.42,4.43,4.43,0,0,1-.85-.39,1.15,1.15,0,0,1-.38-.38,1,1,0,0,1-.12-.5,1,1,0,0,1,.42-.83,2,2,0,0,1,1.17-.3,3.37,3.37,0,0,1,1.35.28l-.23.53a3.07,3.07,0,0,0-1.17-.27,1.31,1.31,0,0,0-.69.15.44.44,0,0,0-.24.4.48.48,0,0,0,.09.29.89.89,0,0,0,.29.23,7.06,7.06,0,0,0,.75.32,2.79,2.79,0,0,1,1,.55A1,1,0,0,1,54.59,72.27Z"/><path class="cls-3" d="M56.26,69.16v2.78a1.19,1.19,0,0,0,.23.78,1,1,0,0,0,.75.25,1.21,1.21,0,0,0,1-.36,1.86,1.86,0,0,0,.31-1.2V69.16h.65v4.28h-.53l-.1-.58h0a1.24,1.24,0,0,1-.55.49,1.92,1.92,0,0,1-.81.17A1.67,1.67,0,0,1,56,73.15,1.59,1.59,0,0,1,55.6,72v-2.8Z"/><path class="cls-3" d="M62.55,73.52a1.73,1.73,0,0,1-.76-.16,1.39,1.39,0,0,1-.58-.47h-.05a6.07,6.07,0,0,1,.05.71v1.76h-.65v-6.2h.52l.09.58h0a1.44,1.44,0,0,1,.58-.5,1.67,1.67,0,0,1,.76-.16,1.55,1.55,0,0,1,1.31.58,3.08,3.08,0,0,1,0,3.27A1.6,1.6,0,0,1,62.55,73.52Zm-.09-3.89a1.15,1.15,0,0,0-1,.36,1.83,1.83,0,0,0-.3,1.16v.14a2.16,2.16,0,0,0,.3,1.3,1.16,1.16,0,0,0,1,.38,1,1,0,0,0,.87-.44,2.15,2.15,0,0,0,.32-1.24,2,2,0,0,0-.32-1.23A1,1,0,0,0,62.46,69.63Z"/><path class="cls-3" d="M67.45,73.52a1.73,1.73,0,0,1-.76-.16,1.39,1.39,0,0,1-.58-.47h0a6.07,6.07,0,0,1,0,.71v1.76h-.65v-6.2H66l.09.58h0a1.51,1.51,0,0,1,.58-.5,1.7,1.7,0,0,1,.76-.16,1.59,1.59,0,0,1,1.32.58,2.61,2.61,0,0,1,.46,1.63,2.56,2.56,0,0,1-.47,1.64A1.59,1.59,0,0,1,67.45,73.52Zm-.09-3.89a1.15,1.15,0,0,0-1,.36,1.83,1.83,0,0,0-.3,1.16v.14a2.16,2.16,0,0,0,.3,1.3,1.16,1.16,0,0,0,1,.38,1,1,0,0,0,.87-.44,2.15,2.15,0,0,0,.32-1.24,2,2,0,0,0-.32-1.23A1,1,0,0,0,67.36,69.63Z"/><path class="cls-3" d="M71,73.44h-.65V67.36H71Z"/><path class="cls-3" d="M72.33,68a.45.45,0,0,1,.11-.33.41.41,0,0,1,.54,0,.42.42,0,0,1,.12.33.41.41,0,0,1-.12.32.39.39,0,0,1-.54,0A.44.44,0,0,1,72.33,68Zm.7,5.44h-.64V69.16H73Z"/><path class="cls-3" d="M76.22,73.52a2,2,0,0,1-1.5-.58,2.23,2.23,0,0,1-.55-1.61,2.48,2.48,0,0,1,.51-1.64,1.69,1.69,0,0,1,1.37-.61,1.61,1.61,0,0,1,1.27.53,2,2,0,0,1,.47,1.4v.41h-3a1.73,1.73,0,0,0,.38,1.14,1.32,1.32,0,0,0,1,.39,3.51,3.51,0,0,0,1.37-.29v.58a3.25,3.25,0,0,1-.65.21A3.21,3.21,0,0,1,76.22,73.52ZM76,69.62a1,1,0,0,0-.82.34,1.52,1.52,0,0,0-.36.93H77.1a1.39,1.39,0,0,0-.28-.94A1,1,0,0,0,76,69.62Z"/><path class="cls-3" d="M80.85,69.08a2.59,2.59,0,0,1,.51,0l-.09.6a2.09,2.09,0,0,0-.47-.06,1.16,1.16,0,0,0-.89.42,1.56,1.56,0,0,0-.36,1v2.3H78.9V69.16h.53l.08.79h0a1.89,1.89,0,0,1,.57-.64A1.32,1.32,0,0,1,80.85,69.08Z"/><path class="cls-3" d="M84.92,72.27a1,1,0,0,1-.44.92,2.06,2.06,0,0,1-1.25.33,2.72,2.72,0,0,1-1.33-.27v-.6a3.71,3.71,0,0,0,.66.24,2.83,2.83,0,0,0,.68.09,1.58,1.58,0,0,0,.79-.16.53.53,0,0,0,.27-.49.53.53,0,0,0-.22-.43,3.15,3.15,0,0,0-.84-.42,4.75,4.75,0,0,1-.85-.39,1.15,1.15,0,0,1-.38-.38,1,1,0,0,1-.12-.5,1,1,0,0,1,.43-.83,2,2,0,0,1,1.16-.3,3.37,3.37,0,0,1,1.35.28l-.23.53a3.06,3.06,0,0,0-1.16-.27,1.32,1.32,0,0,0-.7.15.43.43,0,0,0-.23.4.55.55,0,0,0,.08.29.89.89,0,0,0,.29.23,7.06,7.06,0,0,0,.75.32,2.85,2.85,0,0,1,1,.55A1,1,0,0,1,84.92,72.27Z"/><path class="cls-1" d="M21,53H19V40.31c0-1.06,0-2.06.1-3a7.8,7.8,0,0,1-.58.53c-.21.19-1.18,1-2.9,2.39l-1.08-1.4,4.73-3.65H21Z"/><path class="cls-1" d="M39.57,44.08c0,3.09-.48,5.39-1.46,6.91a4.92,4.92,0,0,1-4.46,2.28,4.87,4.87,0,0,1-4.38-2.33q-1.5-2.34-1.5-6.86c0-3.11.48-5.41,1.45-6.92a4.92,4.92,0,0,1,4.43-2.26,4.93,4.93,0,0,1,4.42,2.36A12.75,12.75,0,0,1,39.57,44.08Zm-9.75,0a13,13,0,0,0,.92,5.67,3.28,3.28,0,0,0,5.85,0,13.11,13.11,0,0,0,.91-5.65,13,13,0,0,0-.91-5.63,3.3,3.3,0,0,0-5.85,0A13,13,0,0,0,29.82,44.08Z"/><path class="cls-1" d="M45.09,50.13l.18.28a28.93,28.93,0,0,1-.91,2.83c-.4,1.08-.81,2.09-1.25,3H41.59c.22-.84.46-1.89.72-3.13s.45-2.25.56-3Z"/><path class="cls-1" d="M60,44.08q0,4.64-1.46,6.91a5.4,5.4,0,0,1-8.85-.05q-1.5-2.34-1.5-6.86c0-3.11.49-5.41,1.45-6.92a5.39,5.39,0,0,1,8.85.1A12.75,12.75,0,0,1,60,44.08Zm-9.76,0a13,13,0,0,0,.92,5.67,3.28,3.28,0,0,0,5.85,0,13.11,13.11,0,0,0,.91-5.65A13,13,0,0,0,57,38.45a3.3,3.3,0,0,0-5.85,0A13,13,0,0,0,50.24,44.08Z"/><path class="cls-1" d="M74.29,44.08q0,4.64-1.46,6.91a4.93,4.93,0,0,1-4.46,2.28A4.87,4.87,0,0,1,64,50.94q-1.5-2.34-1.5-6.86c0-3.11.48-5.41,1.45-6.92a5.38,5.38,0,0,1,8.84.1Q74.3,39.61,74.29,44.08Zm-9.75,0a13.06,13.06,0,0,0,.91,5.67,3.29,3.29,0,0,0,5.86,0,13.27,13.27,0,0,0,.91-5.65,13.16,13.16,0,0,0-.91-5.63,3.31,3.31,0,0,0-5.86,0A13,13,0,0,0,64.54,44.08Z"/><path class="cls-1" d="M88.58,44.08q0,4.64-1.45,6.91a4.94,4.94,0,0,1-4.47,2.28,4.87,4.87,0,0,1-4.38-2.33q-1.5-2.34-1.5-6.86c0-3.11.49-5.41,1.45-6.92a5.39,5.39,0,0,1,8.85.1A12.75,12.75,0,0,1,88.58,44.08Zm-9.75,0a13,13,0,0,0,.92,5.67,3.28,3.28,0,0,0,5.85,0,13.11,13.11,0,0,0,.91-5.65,13,13,0,0,0-.91-5.63,3.3,3.3,0,0,0-5.85,0A13,13,0,0,0,78.83,44.08Z"/><path class="cls-3" d="M116,64.52a1.82,1.82,0,0,1-1.44-.58,2.39,2.39,0,0,1-.5-1.61,2.44,2.44,0,0,1,.51-1.66,1.88,1.88,0,0,1,1.48-.59,2.54,2.54,0,0,1,.61.07,1.91,1.91,0,0,1,.49.15l-.2.55a4.41,4.41,0,0,0-.47-.14,2,2,0,0,0-.45-.06c-.87,0-1.3.56-1.3,1.67a1.94,1.94,0,0,0,.32,1.21A1.1,1.1,0,0,0,116,64a3,3,0,0,0,1.1-.23v.57A2.35,2.35,0,0,1,116,64.52Z"/><path class="cls-3" d="M118.68,60.16v2.78a1.14,1.14,0,0,0,.24.78,1,1,0,0,0,.75.25,1.24,1.24,0,0,0,1-.36,1.86,1.86,0,0,0,.31-1.2V60.16h.65v4.28h-.54l-.09-.58h0a1.19,1.19,0,0,1-.55.49,1.86,1.86,0,0,1-.81.17,1.67,1.67,0,0,1-1.17-.37A1.63,1.63,0,0,1,118,63v-2.8Z"/><path class="cls-3" d="M124.94,60.08a2.59,2.59,0,0,1,.51.05l-.09.6a2.23,2.23,0,0,0-.47-.06,1.15,1.15,0,0,0-.89.42,1.51,1.51,0,0,0-.37,1v2.3H123V60.16h.54l.07.79h0a1.81,1.81,0,0,1,.58-.64A1.3,1.3,0,0,1,124.94,60.08Z"/><path class="cls-3" d="M128.2,60.08a2.59,2.59,0,0,1,.51.05l-.09.6a2.09,2.09,0,0,0-.47-.06,1.13,1.13,0,0,0-.88.42,1.51,1.51,0,0,0-.37,1v2.3h-.65V60.16h.53l.08.79h0a1.89,1.89,0,0,1,.57-.64A1.32,1.32,0,0,1,128.2,60.08Z"/><path class="cls-3" d="M131.32,64.52a2,2,0,0,1-1.5-.58,2.27,2.27,0,0,1-.54-1.61,2.53,2.53,0,0,1,.5-1.64,1.69,1.69,0,0,1,1.37-.61,1.64,1.64,0,0,1,1.28.53,2,2,0,0,1,.47,1.4v.41h-3a1.68,1.68,0,0,0,.38,1.14,1.32,1.32,0,0,0,1,.39,3.46,3.46,0,0,0,1.36-.29v.58a3.06,3.06,0,0,1-.65.21A3.15,3.15,0,0,1,131.32,64.52Zm-.17-3.9a1.06,1.06,0,0,0-.83.34,1.58,1.58,0,0,0-.36.93h2.24a1.44,1.44,0,0,0-.27-.94A1,1,0,0,0,131.15,60.62Z"/><path class="cls-3" d="M136.93,64.44V61.67a1.1,1.1,0,0,0-.24-.78,1,1,0,0,0-.74-.26,1.25,1.25,0,0,0-1,.36,1.86,1.86,0,0,0-.31,1.2v2.25H134V60.16h.53l.1.58h0a1.38,1.38,0,0,1,.55-.49,1.92,1.92,0,0,1,.81-.17,1.36,1.36,0,0,1,1.55,1.57v2.79Z"/><path class="cls-3" d="M140.29,64l.34,0,.25-.06v.5a1.23,1.23,0,0,1-.31.08,1.73,1.73,0,0,1-.37,0c-.83,0-1.24-.44-1.24-1.31V60.66h-.61v-.31l.61-.27.27-.91h.38v1h1.24v.5h-1.24v2.52a.9.9,0,0,0,.18.6A.65.65,0,0,0,140.29,64Z"/><path class="cls-3" d="M145.2,64l.33,0,.25-.06v.5a1.23,1.23,0,0,1-.31.08,1.67,1.67,0,0,1-.37,0c-.82,0-1.24-.44-1.24-1.31V60.66h-.61v-.31l.61-.27.27-.91h.38v1h1.24v.5h-1.24v2.52a.9.9,0,0,0,.18.6A.68.68,0,0,0,145.2,64Z"/><path class="cls-3" d="M148.45,64.52a2,2,0,0,1-1.5-.58,2.23,2.23,0,0,1-.55-1.61,2.48,2.48,0,0,1,.51-1.64,1.69,1.69,0,0,1,1.37-.61,1.61,1.61,0,0,1,1.27.53A2,2,0,0,1,150,62v.41h-3a1.73,1.73,0,0,0,.38,1.14,1.32,1.32,0,0,0,1,.39,3.51,3.51,0,0,0,1.37-.29v.58a3.25,3.25,0,0,1-.65.21A3.21,3.21,0,0,1,148.45,64.52Zm-.18-3.9a1,1,0,0,0-.82.34,1.46,1.46,0,0,0-.36.93h2.24a1.39,1.39,0,0,0-.28-.94A1,1,0,0,0,148.27,60.62Z"/><path class="cls-3" d="M154.06,64.44V61.67a1.1,1.1,0,0,0-.24-.78,1,1,0,0,0-.75-.26,1.23,1.23,0,0,0-1,.36,1.86,1.86,0,0,0-.31,1.2v2.25h-.65V60.16h.52l.11.58h0a1.34,1.34,0,0,1,.56-.49,1.91,1.91,0,0,1,.8-.17,1.36,1.36,0,0,1,1.55,1.57v2.79Z"/><path class="cls-3" d="M158.67,64.44l-.13-.61h0a1.71,1.71,0,0,1-.64.54,1.86,1.86,0,0,1-.79.15,1.42,1.42,0,0,1-1-.33,1.2,1.2,0,0,1-.36-.93c0-.87.69-1.32,2.07-1.36l.73,0v-.26a1.07,1.07,0,0,0-.22-.75.87.87,0,0,0-.69-.24,2.8,2.8,0,0,0-1.21.33l-.2-.5a3,3,0,0,1,.69-.26,2.78,2.78,0,0,1,.76-.1,1.61,1.61,0,0,1,1.13.34,1.4,1.4,0,0,1,.37,1.09v2.92ZM157.2,64a1.33,1.33,0,0,0,1-.33,1.22,1.22,0,0,0,.34-.93v-.39l-.65,0a2.41,2.41,0,0,0-1.11.24.71.71,0,0,0-.34.66.67.67,0,0,0,.21.54A.89.89,0,0,0,157.2,64Z"/><path class="cls-3" d="M163.42,64.44V61.67a1.1,1.1,0,0,0-.24-.78,1,1,0,0,0-.75-.26,1.23,1.23,0,0,0-1,.36,1.85,1.85,0,0,0-.32,1.2v2.25h-.64V60.16H161l.11.58h0a1.34,1.34,0,0,1,.56-.49,1.91,1.91,0,0,1,.8-.17,1.36,1.36,0,0,1,1.55,1.57v2.79Z"/><path class="cls-3" d="M166.78,64l.33,0,.25-.06v.5a1.23,1.23,0,0,1-.31.08,1.65,1.65,0,0,1-.36,0c-.83,0-1.25-.44-1.25-1.31V60.66h-.61v-.31l.61-.27.28-.91h.37v1h1.24v.5h-1.24v2.52a.85.85,0,0,0,.19.6A.65.65,0,0,0,166.78,64Z"/><path class="cls-3" d="M171,63.27a1.07,1.07,0,0,1-.44.92,2.09,2.09,0,0,1-1.25.33,2.72,2.72,0,0,1-1.33-.27v-.6a3.44,3.44,0,0,0,.66.24,2.77,2.77,0,0,0,.68.09,1.51,1.51,0,0,0,.78-.16.52.52,0,0,0,.28-.49.55.55,0,0,0-.22-.43,3.26,3.26,0,0,0-.85-.42,4.57,4.57,0,0,1-.84-.39,1.15,1.15,0,0,1-.38-.38,1,1,0,0,1-.12-.5,1,1,0,0,1,.42-.83,2,2,0,0,1,1.17-.3,3.37,3.37,0,0,1,1.35.28l-.23.53a3.07,3.07,0,0,0-1.17-.27,1.29,1.29,0,0,0-.69.15.44.44,0,0,0-.24.4.48.48,0,0,0,.09.29.89.89,0,0,0,.29.23,7.06,7.06,0,0,0,.75.32,2.79,2.79,0,0,1,1,.55A1,1,0,0,1,171,63.27Z"/><path class="cls-3" d="M177.81,62.29a2.38,2.38,0,0,1-.53,1.64,1.85,1.85,0,0,1-1.45.59,1.89,1.89,0,0,1-1-.27,1.75,1.75,0,0,1-.69-.78,2.67,2.67,0,0,1-.24-1.18,2.36,2.36,0,0,1,.52-1.63,1.84,1.84,0,0,1,1.45-.58,1.81,1.81,0,0,1,1.43.6A2.35,2.35,0,0,1,177.81,62.29Zm-3.26,0a2,2,0,0,0,.33,1.25,1.13,1.13,0,0,0,1,.43,1.15,1.15,0,0,0,1-.42,2.06,2.06,0,0,0,.33-1.26,2,2,0,0,0-.33-1.24,1.17,1.17,0,0,0-1-.42,1.15,1.15,0,0,0-1,.42A2,2,0,0,0,174.55,62.29Z"/><path class="cls-3" d="M180.88,60.66h-1.09v3.78h-.65V60.66h-.77v-.29l.77-.24V59.9c0-1.06.46-1.58,1.38-1.58a2.81,2.81,0,0,1,.79.13l-.16.52a2.2,2.2,0,0,0-.64-.12.62.62,0,0,0-.55.25,1.41,1.41,0,0,0-.17.78v.28h1.09Z"/><path class="cls-3" d="M117.58,71.2a1.4,1.4,0,0,1-.54,1.17,2.4,2.4,0,0,1-1.49.42,3.66,3.66,0,0,1-1.56-.26v-.64a4.09,4.09,0,0,0,.77.24,4.56,4.56,0,0,0,.82.08,1.66,1.66,0,0,0,1-.25.83.83,0,0,0,.33-.7.91.91,0,0,0-.12-.49,1.18,1.18,0,0,0-.4-.35,5.1,5.1,0,0,0-.85-.36,2.64,2.64,0,0,1-1.13-.68,1.49,1.49,0,0,1-.35-1,1.27,1.27,0,0,1,.5-1,2.06,2.06,0,0,1,1.31-.39,3.86,3.86,0,0,1,1.57.32l-.21.57a3.67,3.67,0,0,0-1.37-.29,1.36,1.36,0,0,0-.83.22.76.76,0,0,0-.29.63.91.91,0,0,0,.11.49,1.1,1.1,0,0,0,.36.35,5.57,5.57,0,0,0,.8.35,3.22,3.22,0,0,1,1.24.68A1.4,1.4,0,0,1,117.58,71.2Z"/><path class="cls-3" d="M121.28,72.72l-1.94-5.07h0c0,.4,0,.88,0,1.43v3.64h-.61V67h1l1.81,4.72h0L123.42,67h1v5.72h-.67V69c0-.43,0-.88.06-1.38h0l-2,5.06Z"/><path class="cls-3" d="M131.28,71.2a1.41,1.41,0,0,1-.55,1.17,2.4,2.4,0,0,1-1.49.42,3.66,3.66,0,0,1-1.56-.26v-.64a4.34,4.34,0,0,0,.77.24,4.56,4.56,0,0,0,.82.08,1.66,1.66,0,0,0,1-.25.83.83,0,0,0,.33-.7.91.91,0,0,0-.12-.49,1.13,1.13,0,0,0-.39-.35,6,6,0,0,0-.85-.36,2.68,2.68,0,0,1-1.14-.68,1.48,1.48,0,0,1-.34-1,1.26,1.26,0,0,1,.49-1,2.06,2.06,0,0,1,1.31-.39,3.86,3.86,0,0,1,1.57.32l-.21.57a3.67,3.67,0,0,0-1.37-.29,1.36,1.36,0,0,0-.83.22.76.76,0,0,0-.29.63.91.91,0,0,0,.11.49,1,1,0,0,0,.37.35,4.9,4.9,0,0,0,.79.35,3.22,3.22,0,0,1,1.24.68A1.41,1.41,0,0,1,131.28,71.2Z"/><path class="cls-3" d="M133,68.43v2.78a1.1,1.1,0,0,0,.24.78,1,1,0,0,0,.75.26,1.2,1.2,0,0,0,1-.37,1.82,1.82,0,0,0,.31-1.2V68.43h.65v4.29h-.53l-.1-.58h0a1.41,1.41,0,0,1-.56.49,1.84,1.84,0,0,1-.8.16,1.63,1.63,0,0,1-1.17-.37,1.57,1.57,0,0,1-.39-1.18V68.43Z"/><path class="cls-3" d="M139.25,72.79a1.92,1.92,0,0,1-.77-.15,1.4,1.4,0,0,1-.58-.48h0a6,6,0,0,1,0,.72v1.76h-.64V68.43h.52l.09.59h0a1.66,1.66,0,0,1,.59-.51,1.81,1.81,0,0,1,.76-.15,1.57,1.57,0,0,1,1.31.58,2.55,2.55,0,0,1,.47,1.63,2.52,2.52,0,0,1-.48,1.64A1.56,1.56,0,0,1,139.25,72.79Zm-.1-3.88a1.17,1.17,0,0,0-1,.36,1.94,1.94,0,0,0-.3,1.16v.14a2.15,2.15,0,0,0,.3,1.29,1.17,1.17,0,0,0,1,.39,1,1,0,0,0,.87-.45,2.13,2.13,0,0,0,.31-1.24,2.07,2.07,0,0,0-.31-1.23A1.05,1.05,0,0,0,139.15,68.91Z"/><path class="cls-3" d="M144,72.79a2,2,0,0,1-1.5-.57,2.23,2.23,0,0,1-.55-1.61,2.46,2.46,0,0,1,.51-1.64,1.69,1.69,0,0,1,1.37-.61,1.58,1.58,0,0,1,1.27.53,2,2,0,0,1,.47,1.39v.41h-2.95a1.76,1.76,0,0,0,.38,1.15,1.32,1.32,0,0,0,1,.39,3.51,3.51,0,0,0,1.37-.29v.58a3.25,3.25,0,0,1-.65.21A4,4,0,0,1,144,72.79Zm-.18-3.89a1,1,0,0,0-.82.34,1.45,1.45,0,0,0-.36.92h2.24a1.41,1.41,0,0,0-.28-.93A1,1,0,0,0,143.79,68.9Z"/><path class="cls-3" d="M148.6,68.36a2.64,2.64,0,0,1,.51,0L149,69a2.9,2.9,0,0,0-.47,0,1.16,1.16,0,0,0-.89.42,1.56,1.56,0,0,0-.37,1v2.3h-.64V68.43h.53l.08.8h0a1.92,1.92,0,0,1,.57-.65A1.31,1.31,0,0,1,148.6,68.36Z"/><path class="cls-3" d="M155.37,72.72V69.93a1.14,1.14,0,0,0-.22-.77.85.85,0,0,0-.68-.25,1.09,1.09,0,0,0-.89.34,1.63,1.63,0,0,0-.29,1.07v2.4h-.65V69.93a1.14,1.14,0,0,0-.22-.77.85.85,0,0,0-.68-.25,1.08,1.08,0,0,0-.9.36,2.06,2.06,0,0,0-.28,1.2v2.25h-.65V68.43h.53l.1.59h0a1.27,1.27,0,0,1,.51-.49,1.59,1.59,0,0,1,.75-.17,1.26,1.26,0,0,1,1.31.72h0a1.34,1.34,0,0,1,.55-.53,1.72,1.72,0,0,1,.83-.19,1.45,1.45,0,0,1,1.09.37,1.68,1.68,0,0,1,.36,1.19v2.8Z"/><path class="cls-3" d="M160,72.72l-.13-.61h0a1.58,1.58,0,0,1-1.44.68,1.5,1.5,0,0,1-1-.32,1.21,1.21,0,0,1-.36-.94c0-.86.69-1.32,2.08-1.36l.72,0v-.27a1.11,1.11,0,0,0-.21-.74.91.91,0,0,0-.7-.24,2.83,2.83,0,0,0-1.21.33l-.2-.5a3.64,3.64,0,0,1,.7-.27,3.22,3.22,0,0,1,.75-.1,1.69,1.69,0,0,1,1.14.34,1.45,1.45,0,0,1,.37,1.09v2.93Zm-1.47-.46a1.31,1.31,0,0,0,.95-.33,1.23,1.23,0,0,0,.35-.93v-.39l-.65,0a2.42,2.42,0,0,0-1.12.24.73.73,0,0,0-.34.66.64.64,0,0,0,.22.53A.84.84,0,0,0,158.52,72.26Z"/><path class="cls-3" d="M162.45,72.72h-.65V66.64h.65Z"/><path class="cls-3" d="M164.47,72.72h-.64V66.64h.64Z"/><path class="cls-3" d="M168.61,71.55a1.08,1.08,0,0,1-.44.92,2.09,2.09,0,0,1-1.25.32,2.72,2.72,0,0,1-1.33-.27v-.6a2.74,2.74,0,0,0,.66.25,2.77,2.77,0,0,0,.68.09,1.62,1.62,0,0,0,.78-.16.54.54,0,0,0,.28-.5.57.57,0,0,0-.22-.43,4.36,4.36,0,0,0-.85-.42,4.51,4.51,0,0,1-.85-.38,1.21,1.21,0,0,1-.37-.38,1,1,0,0,1-.12-.5,1,1,0,0,1,.42-.83,2,2,0,0,1,1.17-.3,3.37,3.37,0,0,1,1.35.28l-.23.52a3.23,3.23,0,0,0-1.17-.26,1.4,1.4,0,0,0-.69.14.45.45,0,0,0-.24.4.51.51,0,0,0,.09.3,1,1,0,0,0,.28.23c.14.07.39.17.75.31a2.75,2.75,0,0,1,1,.56A1,1,0,0,1,168.61,71.55Z"/><path class="cls-1" d="M121.47,53.29h-2V40.57c0-1.06,0-2.06.1-3a7.8,7.8,0,0,1-.58.53c-.21.19-1.18,1-2.9,2.38L115,39.09l4.73-3.65h1.71Z"/><path class="cls-1" d="M140,43.06q0,10.47-8.11,10.47a8.48,8.48,0,0,1-2.25-.24V51.54a7,7,0,0,0,2.23.32,5.4,5.4,0,0,0,4.42-1.81,9.15,9.15,0,0,0,1.63-5.56h-.15A4.3,4.3,0,0,1,136,46a5.63,5.63,0,0,1-2.5.53,5,5,0,0,1-3.76-1.41,5.42,5.42,0,0,1-1.39-4,6,6,0,0,1,1.56-4.39A5.39,5.39,0,0,1,134,35.19a5.51,5.51,0,0,1,3.18.93,5.82,5.82,0,0,1,2.09,2.72A11.05,11.05,0,0,1,140,43.06Zm-6-6.14a3.35,3.35,0,0,0-2.7,1.12,4.72,4.72,0,0,0-.95,3.13,4,4,0,0,0,.88,2.76,3.37,3.37,0,0,0,2.67,1,4.66,4.66,0,0,0,2.05-.45,3.65,3.65,0,0,0,1.47-1.24,2.81,2.81,0,0,0,.54-1.63,5.66,5.66,0,0,0-.5-2.37,4.23,4.23,0,0,0-1.4-1.71A3.58,3.58,0,0,0,134,36.92Z"/><path class="cls-1" d="M145.6,50.38l.18.28a29,29,0,0,1-.91,2.84c-.4,1.08-.81,2.08-1.25,3H142.1c.22-.85.46-1.89.72-3.14s.45-2.24.56-3Z"/><path class="cls-1" d="M156.19,53.29h-2V40.57c0-1.06,0-2.06.1-3-.18.17-.37.35-.58.53s-1.18,1-2.9,2.38l-1.08-1.39,4.73-3.65h1.71Z"/><path class="cls-1" d="M168.55,42.39a6.53,6.53,0,0,1,4.44,1.4,4.77,4.77,0,0,1,1.62,3.82A5.52,5.52,0,0,1,172.84,52,7,7,0,0,1,168,53.53a9,9,0,0,1-4.61-1v-2a7.23,7.23,0,0,0,2.13.86,10.89,10.89,0,0,0,2.5.31,5,5,0,0,0,3.34-1,3.63,3.63,0,0,0,1.19-2.93q0-3.73-4.58-3.73a18.88,18.88,0,0,0-3.1.35l-1-.67.67-8.35h8.88v1.87h-7.14l-.45,5.36A13.9,13.9,0,0,1,168.55,42.39Z"/><path class="cls-1" d="M188.33,39.64a4.09,4.09,0,0,1-1,2.8,4.82,4.82,0,0,1-2.72,1.45V44a5.14,5.14,0,0,1,3.19,1.36,4.07,4.07,0,0,1,1,2.89,4.7,4.7,0,0,1-1.77,3.92,8.09,8.09,0,0,1-5,1.37,14.88,14.88,0,0,1-2.6-.21,8.78,8.78,0,0,1-2.29-.75V50.64a11.49,11.49,0,0,0,2.47.87,11.26,11.26,0,0,0,2.49.3c3.08,0,4.63-1.21,4.63-3.62,0-2.17-1.71-3.25-5.11-3.25h-1.75V43.19h1.78a5.35,5.35,0,0,0,3.31-.92,3,3,0,0,0,1.22-2.56,2.52,2.52,0,0,0-.9-2.05,3.74,3.74,0,0,0-2.44-.74,7.62,7.62,0,0,0-2.21.32,9.67,9.67,0,0,0-2.36,1.17l-1-1.37a8.54,8.54,0,0,1,2.53-1.36,9.25,9.25,0,0,1,3-.49,6.14,6.14,0,0,1,4,1.19A4,4,0,0,1,188.33,39.64Z"/><path class="cls-3" d="M116.89,111.93,115,106.87h0c0,.4,0,.88,0,1.43v3.63h-.61v-5.71h1l1.81,4.71h0l1.83-4.71h1v5.71h-.67v-3.68c0-.42,0-.88.06-1.37h0l-2,5.05Z"/><path class="cls-3" d="M124.81,110.41a1.41,1.41,0,0,1-.55,1.18,2.37,2.37,0,0,1-1.48.42,3.84,3.84,0,0,1-1.57-.26v-.64a3.64,3.64,0,0,0,.77.23,3.81,3.81,0,0,0,.82.09,1.66,1.66,0,0,0,1-.25.83.83,0,0,0,.33-.7A.91.91,0,0,0,124,110a1.17,1.17,0,0,0-.4-.35,5,5,0,0,0-.85-.36,2.75,2.75,0,0,1-1.14-.68,1.48,1.48,0,0,1-.34-1,1.26,1.26,0,0,1,.49-1,2.07,2.07,0,0,1,1.32-.39,3.81,3.81,0,0,1,1.56.31l-.21.58a3.46,3.46,0,0,0-1.37-.3,1.31,1.31,0,0,0-.82.23.74.74,0,0,0-.3.63,1,1,0,0,0,.11.49,1,1,0,0,0,.37.34,3.83,3.83,0,0,0,.79.35,3.35,3.35,0,0,1,1.24.69A1.38,1.38,0,0,1,124.81,110.41Z"/><path class="cls-3" d="M128.5,111.93l-1.94-5.06h0c0,.4.06.88.06,1.43v3.63H126v-5.71h1l1.81,4.71h0l1.83-4.71h1v5.71H131v-3.68c0-.42,0-.88.05-1.37h0l-2,5.05Z"/><path class="cls-3" d="M136.38,111.93H133.2v-5.71h3.18v.59h-2.52v1.84h2.37v.59h-2.37v2.1h2.52Z"/><path class="cls-3" d="M140.31,110.77a1.08,1.08,0,0,1-.45.92,2.12,2.12,0,0,1-1.25.32,2.71,2.71,0,0,1-1.32-.27v-.6a3.23,3.23,0,0,0,.66.25,2.77,2.77,0,0,0,.68.09,1.5,1.5,0,0,0,.78-.17.53.53,0,0,0,.28-.49.55.55,0,0,0-.22-.43,3.44,3.44,0,0,0-.85-.42,4.75,4.75,0,0,1-.85-.39,1.19,1.19,0,0,1-.37-.37,1,1,0,0,1-.12-.51,1,1,0,0,1,.42-.82,1.93,1.93,0,0,1,1.17-.31,3.38,3.38,0,0,1,1.35.29l-.23.52a3.23,3.23,0,0,0-1.17-.26,1.4,1.4,0,0,0-.69.14.45.45,0,0,0-.24.4.48.48,0,0,0,.09.29.84.84,0,0,0,.28.23,5.4,5.4,0,0,0,.75.32,2.69,2.69,0,0,1,1,.56A1,1,0,0,1,140.31,110.77Z"/><path class="cls-3" d="M145.25,112a2,2,0,0,1-1.5-.58,2.25,2.25,0,0,1-.55-1.6,2.5,2.5,0,0,1,.51-1.65,1.72,1.72,0,0,1,1.37-.61,1.64,1.64,0,0,1,1.28.53,2.06,2.06,0,0,1,.47,1.4v.41h-3a1.68,1.68,0,0,0,.38,1.14,1.32,1.32,0,0,0,1,.4,3.46,3.46,0,0,0,1.36-.29v.57a3.84,3.84,0,0,1-.65.22A3.88,3.88,0,0,1,145.25,112Zm-.17-3.89a1.08,1.08,0,0,0-.83.33,1.63,1.63,0,0,0-.36.93h2.24a1.44,1.44,0,0,0-.27-.94A1,1,0,0,0,145.08,108.12Z"/><path class="cls-3" d="M150.86,111.93v-2.77a1.1,1.1,0,0,0-.24-.78,1,1,0,0,0-.74-.25,1.25,1.25,0,0,0-1,.36,1.82,1.82,0,0,0-.31,1.2v2.24h-.65v-4.28h.53l.1.59h0a1.25,1.25,0,0,1,.55-.49,1.77,1.77,0,0,1,.8-.18,1.63,1.63,0,0,1,1.17.38,1.58,1.58,0,0,1,.39,1.19v2.79Z"/><path class="cls-3" d="M156.35,107.65v.41l-.8.1a1.29,1.29,0,0,1,.2.35,1.35,1.35,0,0,1,.08.5,1.27,1.27,0,0,1-.43,1,1.72,1.72,0,0,1-1.18.37,2.19,2.19,0,0,1-.36,0,.65.65,0,0,0-.41.55.28.28,0,0,0,.15.26,1,1,0,0,0,.49.08h.76a1.68,1.68,0,0,1,1.07.3,1,1,0,0,1,.37.85,1.22,1.22,0,0,1-.57,1.08,3,3,0,0,1-1.66.38,2.29,2.29,0,0,1-1.3-.32,1,1,0,0,1-.45-.88,1,1,0,0,1,.25-.68,1.26,1.26,0,0,1,.7-.38.77.77,0,0,1-.28-.23.69.69,0,0,1,0-.78,1.35,1.35,0,0,1,.39-.34,1.14,1.14,0,0,1-.54-.46,1.53,1.53,0,0,1,.21-1.83,1.72,1.72,0,0,1,1.2-.39,2.18,2.18,0,0,1,.6.08Zm-3.42,5a.6.6,0,0,0,.29.53,1.64,1.64,0,0,0,.84.18,2.36,2.36,0,0,0,1.21-.24.78.78,0,0,0,.4-.67.53.53,0,0,0-.22-.48,1.67,1.67,0,0,0-.81-.13h-.78a1,1,0,0,0-.68.21A.73.73,0,0,0,152.93,112.65Zm.35-3.63a.87.87,0,0,0,.26.68,1,1,0,0,0,.7.23c.64,0,.95-.3.95-.92a.85.85,0,0,0-1-1,1,1,0,0,0-.7.24A1,1,0,0,0,153.28,109Z"/><path class="cls-3" d="M159.86,111.93l-.13-.61h0a1.94,1.94,0,0,1-.64.55,2,2,0,0,1-.8.14,1.41,1.41,0,0,1-1-.33,1.19,1.19,0,0,1-.37-.93c0-.87.7-1.32,2.08-1.36l.72,0v-.27a1.11,1.11,0,0,0-.21-.74.91.91,0,0,0-.7-.24,2.83,2.83,0,0,0-1.21.33l-.2-.5a2.82,2.82,0,0,1,.7-.27,2.76,2.76,0,0,1,.75-.1,1.69,1.69,0,0,1,1.14.34,1.45,1.45,0,0,1,.37,1.09v2.92Zm-1.47-.45a1.27,1.27,0,0,0,1-.34,1.22,1.22,0,0,0,.35-.92v-.39l-.65,0a2.15,2.15,0,0,0-1.11.24.72.72,0,0,0-.35.66.67.67,0,0,0,.22.53A.84.84,0,0,0,158.39,111.48Z"/><path class="cls-3" d="M165.18,107.65v.41l-.8.1a1.29,1.29,0,0,1,.2.35,1.35,1.35,0,0,1,.09.5,1.3,1.3,0,0,1-.43,1,1.74,1.74,0,0,1-1.18.37,2,2,0,0,1-.36,0c-.28.15-.42.33-.42.55a.28.28,0,0,0,.15.26,1,1,0,0,0,.49.08h.76a1.66,1.66,0,0,1,1.07.3,1,1,0,0,1,.37.85,1.22,1.22,0,0,1-.57,1.08,3,3,0,0,1-1.66.38,2.29,2.29,0,0,1-1.3-.32,1,1,0,0,1-.45-.88,1,1,0,0,1,.25-.68,1.29,1.29,0,0,1,.7-.38.67.67,0,0,1-.27-.23.61.61,0,0,1-.12-.37.74.74,0,0,1,.13-.41,1.35,1.35,0,0,1,.39-.34,1.14,1.14,0,0,1-.54-.46,1.37,1.37,0,0,1-.21-.75,1.35,1.35,0,0,1,.43-1.08,1.69,1.69,0,0,1,1.19-.39,2.25,2.25,0,0,1,.61.08Zm-3.42,5a.58.58,0,0,0,.3.53,1.59,1.59,0,0,0,.84.18,2.41,2.41,0,0,0,1.21-.24.77.77,0,0,0,.39-.67.51.51,0,0,0-.22-.48,1.67,1.67,0,0,0-.81-.13h-.77a1,1,0,0,0-.69.21A.76.76,0,0,0,161.76,112.65Zm.35-3.63a.87.87,0,0,0,.26.68,1,1,0,0,0,.71.23c.63,0,.95-.3.95-.92a.86.86,0,0,0-1-1,1,1,0,0,0-.7.24A1,1,0,0,0,162.11,109Z"/><path class="cls-3" d="M167.86,112a1.93,1.93,0,0,1-1.49-.58,2.21,2.21,0,0,1-.55-1.6,2.5,2.5,0,0,1,.51-1.65,1.7,1.7,0,0,1,1.37-.61,1.62,1.62,0,0,1,1.27.53,2.06,2.06,0,0,1,.47,1.4v.41h-2.95a1.68,1.68,0,0,0,.38,1.14,1.32,1.32,0,0,0,1,.4,3.51,3.51,0,0,0,1.37-.29v.57a4.16,4.16,0,0,1-.65.22A4.06,4.06,0,0,1,167.86,112Zm-.17-3.89a1.06,1.06,0,0,0-.82.33,1.51,1.51,0,0,0-.36.93h2.23a1.44,1.44,0,0,0-.27-.94A1,1,0,0,0,167.69,108.12Z"/><path class="cls-3" d="M173.46,111.36h0a1.52,1.52,0,0,1-1.34.65,1.6,1.6,0,0,1-1.31-.57,2.56,2.56,0,0,1-.46-1.64,2.52,2.52,0,0,1,.47-1.64,1.72,1.72,0,0,1,2.64,0h.05l0-.31,0-.3v-1.74h.65v6.07h-.53Zm-1.3.11a1.15,1.15,0,0,0,1-.36,1.82,1.82,0,0,0,.3-1.17v-.14a2.13,2.13,0,0,0-.3-1.29,1.14,1.14,0,0,0-1-.39,1,1,0,0,0-.87.44,2.22,2.22,0,0,0-.3,1.25,2.12,2.12,0,0,0,.3,1.24A1,1,0,0,0,172.16,111.47Z"/><path class="cls-3" d="M179.52,107.58a1.58,1.58,0,0,1,1.31.58,3.11,3.11,0,0,1,0,3.27,1.57,1.57,0,0,1-1.3.58,1.92,1.92,0,0,1-.77-.15,1.48,1.48,0,0,1-.58-.48h0l-.14.55h-.46v-6.07h.64v1.47c0,.33,0,.63,0,.89h0A1.57,1.57,0,0,1,179.52,107.58Zm-.1.55a1.1,1.1,0,0,0-.95.38,2.09,2.09,0,0,0-.3,1.28,2.15,2.15,0,0,0,.3,1.29,1.17,1.17,0,0,0,1,.39,1,1,0,0,0,.89-.44,2.18,2.18,0,0,0,.29-1.25,2.08,2.08,0,0,0-.29-1.24A1,1,0,0,0,179.42,108.13Z"/><path class="cls-3" d="M181.75,107.65h.69l.94,2.44a8.61,8.61,0,0,1,.38,1.21h0c0-.13.11-.36.22-.68s.46-1.31,1.06-3h.69l-1.84,4.88a2.33,2.33,0,0,1-.64,1,1.36,1.36,0,0,1-.89.31,3,3,0,0,1-.59-.07v-.52a2.44,2.44,0,0,0,.48,0,1,1,0,0,0,1-.75l.23-.61Z"/><path class="cls-3" d="M116.12,120.21h-.67v-5.12h-1.8v-.59h4.28v.59h-1.81Z"/><path class="cls-3" d="M123.12,120.21h-.66v-2.69h-3v2.69h-.66V114.5h.66v2.43h3V114.5h.66Z"/><path class="cls-3" d="M127.87,120.21h-3.18V114.5h3.18v.59h-2.52v1.84h2.37v.58h-2.37v2.11h2.52Z"/><path class="cls-3" d="M134.44,118.69a1.4,1.4,0,0,1-.55,1.18,2.37,2.37,0,0,1-1.48.42,3.76,3.76,0,0,1-1.56-.26v-.64a5.22,5.22,0,0,0,.76.23,3.88,3.88,0,0,0,.82.09,1.64,1.64,0,0,0,1-.26.8.8,0,0,0,.34-.7.85.85,0,0,0-.12-.48,1,1,0,0,0-.4-.35,5.8,5.8,0,0,0-.85-.37,2.74,2.74,0,0,1-1.14-.67,1.48,1.48,0,0,1-.34-1,1.27,1.27,0,0,1,.5-1,2,2,0,0,1,1.31-.39,3.78,3.78,0,0,1,1.56.31l-.2.58a3.51,3.51,0,0,0-1.38-.3,1.33,1.33,0,0,0-.82.23.74.74,0,0,0-.3.63,1,1,0,0,0,.11.48,1,1,0,0,0,.37.35,4.46,4.46,0,0,0,.79.35,3,3,0,0,1,1.24.69A1.32,1.32,0,0,1,134.44,118.69Z"/><path class="cls-3" d="M138.13,120.21l-1.93-5.06h0c0,.4.05.87.05,1.43v3.63h-.61V114.5h1l1.81,4.71h0l1.82-4.71h1v5.71h-.66v-3.68c0-.42,0-.88.05-1.37h0l-2,5Z"/><path class="cls-3" d="M148.13,118.69a1.4,1.4,0,0,1-.55,1.18,2.37,2.37,0,0,1-1.48.42,3.76,3.76,0,0,1-1.56-.26v-.64a5.22,5.22,0,0,0,.76.23,3.88,3.88,0,0,0,.82.09,1.62,1.62,0,0,0,1-.26.8.8,0,0,0,.34-.7.85.85,0,0,0-.12-.48,1,1,0,0,0-.4-.35,5.35,5.35,0,0,0-.85-.37,2.74,2.74,0,0,1-1.14-.67,1.53,1.53,0,0,1-.34-1,1.27,1.27,0,0,1,.5-1,2.06,2.06,0,0,1,1.31-.39,3.86,3.86,0,0,1,1.57.31l-.21.58a3.51,3.51,0,0,0-1.38-.3,1.33,1.33,0,0,0-.82.23.74.74,0,0,0-.3.63,1,1,0,0,0,.11.48,1.14,1.14,0,0,0,.37.35,4.63,4.63,0,0,0,.8.35,3,3,0,0,1,1.23.69A1.32,1.32,0,0,1,148.13,118.69Z"/><path class="cls-3" d="M151.06,120.21h-.67v-5.12h-1.81v-.59h4.28v.59h-1.8Z"/><path class="cls-3" d="M158.68,117.35a3.14,3.14,0,0,1-.69,2.15,2.43,2.43,0,0,1-1.93.79,2.49,2.49,0,0,1-1.95-.77,3.22,3.22,0,0,1-.68-2.18,3.16,3.16,0,0,1,.68-2.16,2.5,2.5,0,0,1,2-.77,2.43,2.43,0,0,1,1.92.78A3.15,3.15,0,0,1,158.68,117.35Zm-4.55,0a2.77,2.77,0,0,0,.49,1.76,1.76,1.76,0,0,0,1.44.6,1.73,1.73,0,0,0,1.43-.6,2.71,2.71,0,0,0,.49-1.76,2.74,2.74,0,0,0-.48-1.75,1.74,1.74,0,0,0-1.43-.6,1.78,1.78,0,0,0-1.45.6A2.74,2.74,0,0,0,154.13,117.35Z"/><path class="cls-3" d="M160.62,117.84v2.37H160V114.5h1.57a2.44,2.44,0,0,1,1.55.4,1.45,1.45,0,0,1,.51,1.21,1.51,1.51,0,0,1-1.15,1.53l1.55,2.57h-.79l-1.38-2.37Zm0-.58h.91a1.61,1.61,0,0,0,1-.27,1,1,0,0,0,.33-.84,1,1,0,0,0-.34-.82,1.78,1.78,0,0,0-1.07-.25h-.86Z"/><path class="cls-3" d="M168.08,120.21H164.9V114.5h3.18v.59h-2.52v1.84h2.37v.58h-2.37v2.11h2.52Z"/><path class="cls-1" d="M121.47,100.78h-2V88.06c0-1,0-2,.1-3-.17.17-.36.35-.58.54s-1.18,1-2.9,2.38L115,86.59l4.73-3.65h1.71Z"/><path class="cls-1" d="M131.31,97.88l.18.28c-.21.81-.52,1.76-.92,2.84s-.81,2.08-1.24,3H127.8c.22-.85.47-1.9.73-3.14s.45-2.24.56-3Z"/><path class="cls-1" d="M140,89.88a6.58,6.58,0,0,1,4.44,1.4A4.79,4.79,0,0,1,146,95.11a5.52,5.52,0,0,1-1.77,4.34,7,7,0,0,1-4.86,1.58,8.85,8.85,0,0,1-4.6-1v-2a6.9,6.9,0,0,0,2.12.86,10.37,10.37,0,0,0,2.5.31,5,5,0,0,0,3.34-1,3.65,3.65,0,0,0,1.19-2.93c0-2.49-1.52-3.74-4.58-3.74a18,18,0,0,0-3.1.36l-1-.67.67-8.35h8.88V84.8h-7.14l-.45,5.36A14.67,14.67,0,0,1,140,89.88Z"/><path class="cls-1" d="M160.51,91.84q0,4.62-1.46,6.9a5.39,5.39,0,0,1-8.85,0q-1.5-2.34-1.5-6.85,0-4.66,1.46-6.93A5.4,5.4,0,0,1,159,85,12.78,12.78,0,0,1,160.51,91.84Zm-9.76,0a13.1,13.1,0,0,0,.92,5.67,3.29,3.29,0,0,0,5.85,0,13.09,13.09,0,0,0,.91-5.64,13,13,0,0,0-.91-5.64,3.29,3.29,0,0,0-5.85,0A13,13,0,0,0,150.75,91.84Z"/><path class="cls-1" d="M174.8,91.84q0,4.62-1.46,6.9a5.38,5.38,0,0,1-8.84,0q-1.5-2.34-1.5-6.85,0-4.66,1.45-6.93a5.4,5.4,0,0,1,8.84.1Q174.81,87.37,174.8,91.84Zm-9.75,0a13.13,13.13,0,0,0,.91,5.67,3.3,3.3,0,0,0,5.86,0,13.25,13.25,0,0,0,.91-5.64,13.19,13.19,0,0,0-.91-5.64,3.3,3.3,0,0,0-5.86,0A13,13,0,0,0,165.05,91.84Z"/></g></svg>