<svg xmlns="http://www.w3.org/2000/svg" viewBox="0 0 350.2 75.85"><defs><style>.cls-1{fill:#4d4e50;}.cls-2{fill:#a88c52;}.cls-3{fill:#fff;}.cls-4{fill:#8f1838;}.cls-5{fill:#8f1839;}</style></defs><g id="Layer_3" data-name="Layer 3"><path class="cls-1" d="M264.68,65.2a2,2,0,0,1-1.5-.58,2.28,2.28,0,0,1-.55-1.61,2.46,2.46,0,0,1,.51-1.64,1.69,1.69,0,0,1,1.37-.61,1.58,1.58,0,0,1,1.27.53,2,2,0,0,1,.47,1.39v.41H263.3a1.74,1.74,0,0,0,.38,1.15,1.35,1.35,0,0,0,1,.39,3.51,3.51,0,0,0,1.37-.29v.58a3.25,3.25,0,0,1-.65.21A3.88,3.88,0,0,1,264.68,65.2Zm-.18-3.9a1.05,1.05,0,0,0-.82.34,1.58,1.58,0,0,0-.36.93h2.24a1.37,1.37,0,0,0-.28-.94A1,1,0,0,0,264.5,61.3Z"/><path class="cls-1" d="M272.82,65.12V62.33a1.2,1.2,0,0,0-.22-.77.86.86,0,0,0-.68-.25,1.09,1.09,0,0,0-.9.35,1.65,1.65,0,0,0-.29,1.07v2.39h-.64V62.33a1.2,1.2,0,0,0-.22-.77.87.87,0,0,0-.69-.25,1.07,1.07,0,0,0-.89.36,2,2,0,0,0-.28,1.2v2.25h-.65V60.84h.53l.1.58h0a1.36,1.36,0,0,1,.52-.49,1.66,1.66,0,0,1,.75-.17,1.26,1.26,0,0,1,1.31.72h0a1.37,1.37,0,0,1,.56-.53,1.7,1.7,0,0,1,.83-.19,1.43,1.43,0,0,1,1.08.37,1.68,1.68,0,0,1,.36,1.19v2.8Z"/><path class="cls-1" d="M276.79,65.2A1.88,1.88,0,0,1,276,65a1.39,1.39,0,0,1-.58-.47h-.05a5.92,5.92,0,0,1,.05.71V67h-.65v-6.2h.53l.09.58h0a1.64,1.64,0,0,1,.58-.51,1.84,1.84,0,0,1,.76-.15,1.59,1.59,0,0,1,1.32.58,3.11,3.11,0,0,1,0,3.27A1.59,1.59,0,0,1,276.79,65.2Zm-.09-3.89a1.15,1.15,0,0,0-.95.36,1.81,1.81,0,0,0-.3,1.16V63a2.15,2.15,0,0,0,.3,1.29,1.13,1.13,0,0,0,1,.39,1,1,0,0,0,.87-.45A2.13,2.13,0,0,0,277.9,63a2,2,0,0,0-.32-1.22A1,1,0,0,0,276.7,61.31Z"/><path class="cls-1" d="M280.35,65.12h-.65V59h.65Z"/><path class="cls-1" d="M285.42,63a2.33,2.33,0,0,1-.53,1.64,1.85,1.85,0,0,1-1.45.59,1.89,1.89,0,0,1-1-.27,1.75,1.75,0,0,1-.69-.78,2.7,2.7,0,0,1-.24-1.18,2.35,2.35,0,0,1,.52-1.63,1.84,1.84,0,0,1,1.45-.58,1.81,1.81,0,0,1,1.43.6A2.28,2.28,0,0,1,285.42,63Zm-3.26,0a2,2,0,0,0,.33,1.25,1.3,1.3,0,0,0,1.93,0,2.51,2.51,0,0,0,0-2.49,1.17,1.17,0,0,0-1-.42,1.15,1.15,0,0,0-1,.42A2,2,0,0,0,282.16,63Z"/><path class="cls-1" d="M285.88,60.84h.69l.94,2.44a8.6,8.6,0,0,1,.38,1.2h0c0-.13.1-.36.21-.68s.46-1.31,1.06-3h.69l-1.84,4.87a2.53,2.53,0,0,1-.63,1,1.4,1.4,0,0,1-.9.3,2.38,2.38,0,0,1-.59-.07v-.52a2.44,2.44,0,0,0,.48,0,1,1,0,0,0,1-.75l.23-.61Z"/><path class="cls-1" d="M292.4,65.2a2,2,0,0,1-1.5-.58,2.23,2.23,0,0,1-.55-1.61,2.46,2.46,0,0,1,.51-1.64,1.69,1.69,0,0,1,1.37-.61,1.58,1.58,0,0,1,1.27.53,2,2,0,0,1,.47,1.39v.41h-3a1.74,1.74,0,0,0,.38,1.15,1.32,1.32,0,0,0,1,.39,3.51,3.51,0,0,0,1.37-.29v.58a3.25,3.25,0,0,1-.65.21A3.88,3.88,0,0,1,292.4,65.2Zm-.18-3.9a1,1,0,0,0-.82.34,1.58,1.58,0,0,0-.36.93h2.24a1.37,1.37,0,0,0-.28-.94A1,1,0,0,0,292.22,61.3Z"/><path class="cls-1" d="M298,64.54h0a1.53,1.53,0,0,1-1.35.66,1.59,1.59,0,0,1-1.3-.58,2.53,2.53,0,0,1-.47-1.63,2.59,2.59,0,0,1,.47-1.65,1.74,1.74,0,0,1,2.64,0H298l0-.31V59h.64v6.08h-.52Zm-1.3.11a1.19,1.19,0,0,0,1-.36,1.81,1.81,0,0,0,.3-1.16V63a2.09,2.09,0,0,0-.31-1.3,1.13,1.13,0,0,0-1-.39,1,1,0,0,0-.88.44,2.26,2.26,0,0,0-.3,1.26,2.09,2.09,0,0,0,.3,1.23A1,1,0,0,0,296.69,64.65Z"/><path class="cls-1" d="M302,59.68a.45.45,0,0,1,.11-.33.4.4,0,0,1,.28-.1.39.39,0,0,1,.27.1.45.45,0,0,1,.11.33.44.44,0,0,1-.11.32.4.4,0,0,1-.27.11.41.41,0,0,1-.28-.11A.44.44,0,0,1,302,59.68Zm.71,5.44h-.65V60.84h.65Z"/><path class="cls-1" d="M307,65.12V62.35a1.1,1.1,0,0,0-.24-.78.93.93,0,0,0-.74-.26,1.25,1.25,0,0,0-1,.36,1.82,1.82,0,0,0-.31,1.2v2.25h-.65V60.84h.53l.1.58h0a1.31,1.31,0,0,1,.55-.49,1.91,1.91,0,0,1,.8-.17,1.63,1.63,0,0,1,1.17.37,1.59,1.59,0,0,1,.39,1.19v2.8Z"/><path class="cls-1" d="M314.53,65.12h-3.76v-.56l1.51-1.51a10,10,0,0,0,.9-1,2.26,2.26,0,0,0,.33-.57,1.74,1.74,0,0,0,.11-.61.93.93,0,0,0-.28-.72,1,1,0,0,0-.77-.27,1.89,1.89,0,0,0-.67.12,2.62,2.62,0,0,0-.71.42l-.34-.44a2.62,2.62,0,0,1,1.72-.66,1.81,1.81,0,0,1,1.26.42,1.41,1.41,0,0,1,.45,1.1,2.18,2.18,0,0,1-.3,1.08,6.68,6.68,0,0,1-1.14,1.34l-1.25,1.22v0h2.94Z"/><path class="cls-1" d="M319.13,62.25a4.16,4.16,0,0,1-.46,2.21,1.59,1.59,0,0,1-1.43.74,1.55,1.55,0,0,1-1.4-.75,4.1,4.1,0,0,1-.49-2.2,4.15,4.15,0,0,1,.47-2.21,1.73,1.73,0,0,1,2.83,0A4.07,4.07,0,0,1,319.13,62.25Zm-3.12,0a4.31,4.31,0,0,0,.29,1.82,1.06,1.06,0,0,0,1.88,0,4.29,4.29,0,0,0,.29-1.81,4.23,4.23,0,0,0-.29-1.8,1.06,1.06,0,0,0-1.88,0A4.25,4.25,0,0,0,316,62.25Z"/><path class="cls-1" d="M322.32,65.12h-.63V61.05q0-.51,0-1l-.18.17-.93.76-.34-.45,1.51-1.16h.54Z"/><path class="cls-1" d="M328.25,61.84c0,2.24-.87,3.36-2.59,3.36a2.65,2.65,0,0,1-.72-.08v-.56a2.21,2.21,0,0,0,.71.1,1.7,1.7,0,0,0,1.41-.58,2.94,2.94,0,0,0,.53-1.78h0a1.35,1.35,0,0,1-.57.49,1.77,1.77,0,0,1-.8.17,1.63,1.63,0,0,1-1.21-.45,1.74,1.74,0,0,1-.44-1.26,1.9,1.9,0,0,1,.5-1.41,1.75,1.75,0,0,1,1.31-.52,1.77,1.77,0,0,1,1,.3,1.93,1.93,0,0,1,.67.87A3.74,3.74,0,0,1,328.25,61.84Zm-1.92-2a1.08,1.08,0,0,0-.87.36,1.51,1.51,0,0,0-.3,1,1.27,1.27,0,0,0,.28.88,1.07,1.07,0,0,0,.86.33,1.44,1.44,0,0,0,.65-.15,1.22,1.22,0,0,0,.47-.39.9.9,0,0,0,.17-.53,1.71,1.71,0,0,0-.16-.75,1.21,1.21,0,0,0-.44-.55A1.17,1.17,0,0,0,326.33,59.88Z"/><path class="cls-2" d="M268.25,53.54h-2V40.82c0-1.06,0-2.06.1-3l-.58.54c-.21.19-1.18,1-2.9,2.38l-1.08-1.39,4.73-3.65h1.71Z"/><path class="cls-2" d="M280.61,42.64A6.58,6.58,0,0,1,285.05,44a4.81,4.81,0,0,1,1.62,3.83,5.52,5.52,0,0,1-1.77,4.35A7,7,0,0,1,280,53.78a9,9,0,0,1-4.61-1v-2a6.72,6.72,0,0,0,2.13.86,10.39,10.39,0,0,0,2.5.32,5,5,0,0,0,3.34-1,3.63,3.63,0,0,0,1.19-2.93q0-3.73-4.58-3.73a18.88,18.88,0,0,0-3.1.35L275.86,44l.67-8.35h8.88v1.87h-7.14l-.45,5.36A13.9,13.9,0,0,1,280.61,42.64Z"/><path class="cls-2" d="M291.58,53.54l7.4-16h-9.73V35.69h11.88v1.62l-7.3,16.23Z"/><path class="cls-2" d="M306.67,50.63l.19.28c-.22.82-.52,1.76-.92,2.84s-.81,2.08-1.24,3h-1.53c.22-.85.46-1.89.73-3.14s.45-2.24.55-3Z"/><path class="cls-2" d="M321.48,53.54H309.75V51.79l4.7-4.72a35.57,35.57,0,0,0,2.83-3.1,7.83,7.83,0,0,0,1-1.81,5.37,5.37,0,0,0,.34-1.89,3,3,0,0,0-.87-2.27,3.35,3.35,0,0,0-2.4-.83,6.15,6.15,0,0,0-2.11.36,8.61,8.61,0,0,0-2.21,1.33L310,37.48a8.25,8.25,0,0,1,5.37-2,5.65,5.65,0,0,1,3.94,1.29,4.4,4.4,0,0,1,1.43,3.46,6.65,6.65,0,0,1-1,3.36,21,21,0,0,1-3.56,4.2l-3.91,3.82v.1h9.18Z"/><path class="cls-2" d="M330,35.43a6,6,0,0,1,3.87,1.14,3.8,3.8,0,0,1,1.43,3.14,3.85,3.85,0,0,1-.82,2.4,7.14,7.14,0,0,1-2.61,2,8.76,8.76,0,0,1,3.09,2.18,4.09,4.09,0,0,1,.91,2.64,4.43,4.43,0,0,1-1.55,3.55A6.34,6.34,0,0,1,330,53.78a6.83,6.83,0,0,1-4.39-1.25A4.3,4.3,0,0,1,324.09,49q0-3.06,3.74-4.77a6.78,6.78,0,0,1-2.42-2.06,4.34,4.34,0,0,1-.73-2.47,3.78,3.78,0,0,1,1.43-3.09A6,6,0,0,1,330,35.43ZM326.09,49a2.75,2.75,0,0,0,1,2.28,4.46,4.46,0,0,0,2.87.82,4.27,4.27,0,0,0,2.83-.85,2.92,2.92,0,0,0,1-2.35,2.87,2.87,0,0,0-.95-2.1A9.69,9.69,0,0,0,329.55,45a7.31,7.31,0,0,0-2.64,1.73A3.36,3.36,0,0,0,326.09,49Zm3.84-12a3.66,3.66,0,0,0-2.4.73,2.45,2.45,0,0,0-.86,2,2.8,2.8,0,0,0,.72,1.93,7.7,7.7,0,0,0,2.66,1.61,6.69,6.69,0,0,0,2.47-1.58,2.87,2.87,0,0,0,.73-2,2.4,2.4,0,0,0-.89-2A3.69,3.69,0,0,0,329.93,37.08Z"/><path class="cls-2" d="M344.25,35.43a6.06,6.06,0,0,1,3.87,1.14,3.79,3.79,0,0,1,1.42,3.14,3.91,3.91,0,0,1-.81,2.4,7.28,7.28,0,0,1-2.62,2,8.76,8.76,0,0,1,3.09,2.18,4.1,4.1,0,0,1,.92,2.64,4.46,4.46,0,0,1-1.55,3.55,6.36,6.36,0,0,1-4.25,1.32,6.84,6.84,0,0,1-4.4-1.25A4.32,4.32,0,0,1,338.39,49q0-3.06,3.73-4.77a6.87,6.87,0,0,1-2.42-2.06,4.42,4.42,0,0,1-.73-2.47,3.76,3.76,0,0,1,1.44-3.09A5.92,5.92,0,0,1,344.25,35.43ZM340.39,49a2.75,2.75,0,0,0,1,2.28,4.43,4.43,0,0,0,2.86.82,4.25,4.25,0,0,0,2.83-.85,2.9,2.9,0,0,0,1-2.35,2.84,2.84,0,0,0-1-2.1A9.59,9.59,0,0,0,343.84,45a7.17,7.17,0,0,0-2.63,1.73A3.31,3.31,0,0,0,340.39,49Zm3.83-12a3.63,3.63,0,0,0-2.39.73,2.43,2.43,0,0,0-.87,2,2.8,2.8,0,0,0,.72,1.93,7.7,7.7,0,0,0,2.66,1.61,6.75,6.75,0,0,0,2.48-1.58,2.91,2.91,0,0,0,.72-2,2.4,2.4,0,0,0-.88-2A3.72,3.72,0,0,0,344.22,37.08Z"/><rect class="cls-2" x="82.32" y="0.72" width="121.48" height="20"/><path class="cls-3" d="M102,18.35a2.31,2.31,0,0,1-1-.18v-1a3.73,3.73,0,0,0,1,.13,1.27,1.27,0,0,0,1-.41,1.77,1.77,0,0,0,.35-1.18v-10h1.16v9.89a2.92,2.92,0,0,1-.65,2A2.47,2.47,0,0,1,102,18.35Z"/><path class="cls-3" d="M113.51,12a4.16,4.16,0,0,1-.92,2.86,3.28,3.28,0,0,1-2.55,1,3.44,3.44,0,0,1-1.79-.47,3.12,3.12,0,0,1-1.2-1.36,4.74,4.74,0,0,1-.42-2.06,4.14,4.14,0,0,1,.91-2.86,3.24,3.24,0,0,1,2.54-1,3.15,3.15,0,0,1,2.5,1.05A4.09,4.09,0,0,1,113.51,12Zm-5.71,0a3.5,3.5,0,0,0,.58,2.18,2,2,0,0,0,1.68.76,2,2,0,0,0,1.7-.75,3.58,3.58,0,0,0,.57-2.19,3.49,3.49,0,0,0-.57-2.17,2,2,0,0,0-1.71-.74,2,2,0,0,0-1.68.73A3.48,3.48,0,0,0,107.8,12Z"/><path class="cls-3" d="M119,8.11a2.79,2.79,0,0,1,2.29,1A4.49,4.49,0,0,1,122.1,12a4.48,4.48,0,0,1-.83,2.87,2.77,2.77,0,0,1-2.28,1,3.24,3.24,0,0,1-1.34-.27,2.62,2.62,0,0,1-1-.83h-.08l-.24,1h-.81V5.08h1.13V7.67c0,.58,0,1.1,0,1.56h0A2.7,2.7,0,0,1,119,8.11Zm-.17,1a2,2,0,0,0-1.67.66,3.71,3.71,0,0,0-.52,2.25,3.77,3.77,0,0,0,.53,2.26,2,2,0,0,0,1.69.68,1.75,1.75,0,0,0,1.56-.77,3.9,3.9,0,0,0,.51-2.19,3.79,3.79,0,0,0-.51-2.18A1.81,1.81,0,0,0,118.82,9.06Z"/><path class="cls-3" d="M132.16,6.62a3.29,3.29,0,0,0-2.6,1.1,4.44,4.44,0,0,0-.95,3,4.52,4.52,0,0,0,.92,3,3.25,3.25,0,0,0,2.62,1.07,9,9,0,0,0,2.39-.37v1a7.39,7.39,0,0,1-2.57.39,4.33,4.33,0,0,1-3.4-1.34,5.54,5.54,0,0,1-1.2-3.81A6.11,6.11,0,0,1,127.94,8a4.19,4.19,0,0,1,1.67-1.79,5,5,0,0,1,2.57-.63,6.12,6.12,0,0,1,2.75.58l-.5,1A5.34,5.34,0,0,0,132.16,6.62Z"/><path class="cls-3" d="M140,8.09a4.78,4.78,0,0,1,.9.08l-.16,1.06a3.79,3.79,0,0,0-.82-.11,2,2,0,0,0-1.55.74,2.7,2.7,0,0,0-.65,1.84v4h-1.13V8.23h.93l.13,1.39h.06a3.27,3.27,0,0,1,1-1.13A2.23,2.23,0,0,1,140,8.09Z"/><path class="cls-3" d="M145.43,15.86a3.45,3.45,0,0,1-2.62-1,3.9,3.9,0,0,1-1-2.81,4.32,4.32,0,0,1,.9-2.88,3,3,0,0,1,2.39-1.07,2.83,2.83,0,0,1,2.23.93,3.53,3.53,0,0,1,.82,2.44v.72H143a2.94,2.94,0,0,0,.67,2,2.28,2.28,0,0,0,1.78.69,6,6,0,0,0,2.39-.51v1a5.79,5.79,0,0,1-1.14.37A6,6,0,0,1,145.43,15.86ZM145.12,9a1.87,1.87,0,0,0-1.44.59,2.66,2.66,0,0,0-.63,1.63H147a2.5,2.5,0,0,0-.47-1.65A1.7,1.7,0,0,0,145.12,9Z"/><path class="cls-3" d="M154.72,15.72l-.22-1.07h-.06a3.18,3.18,0,0,1-1.11,1,3.58,3.58,0,0,1-1.4.25,2.46,2.46,0,0,1-1.74-.58,2.08,2.08,0,0,1-.63-1.63c0-1.51,1.21-2.31,3.63-2.38l1.27,0v-.47a1.92,1.92,0,0,0-.38-1.3A1.58,1.58,0,0,0,152.86,9a4.81,4.81,0,0,0-2.11.58l-.35-.87a5.16,5.16,0,0,1,1.21-.47,5,5,0,0,1,1.32-.17,2.84,2.84,0,0,1,2,.59,2.49,2.49,0,0,1,.64,1.91v5.11Zm-2.56-.8a2.27,2.27,0,0,0,1.66-.58,2.13,2.13,0,0,0,.61-1.63V12l-1.14,0a4.34,4.34,0,0,0-1.95.42,1.27,1.27,0,0,0-.59,1.16,1.18,1.18,0,0,0,.37.94A1.56,1.56,0,0,0,152.16,14.92Z"/><path class="cls-3" d="M160.32,14.92a3.6,3.6,0,0,0,.58,0,2.58,2.58,0,0,0,.45-.1v.87a2.22,2.22,0,0,1-.55.15,3.91,3.91,0,0,1-.64.06c-1.45,0-2.18-.77-2.18-2.29V9.11h-1.07V8.56L158,8.09l.48-1.6h.66V8.23h2.17v.88h-2.17v4.41a1.54,1.54,0,0,0,.32,1A1.12,1.12,0,0,0,160.32,14.92Z"/><path class="cls-3" d="M162.75,6.2a.74.74,0,0,1,.19-.57.68.68,0,0,1,.48-.18.67.67,0,0,1,.47.18.74.74,0,0,1,.2.57.77.77,0,0,1-.2.57.69.69,0,0,1-.95,0A.77.77,0,0,1,162.75,6.2ZM164,15.72h-1.14V8.23H164Z"/><path class="cls-3" d="M172.85,12a4.16,4.16,0,0,1-.92,2.86,3.28,3.28,0,0,1-2.55,1,3.4,3.4,0,0,1-1.78-.47A3.21,3.21,0,0,1,166.39,14,4.74,4.74,0,0,1,166,12a4.14,4.14,0,0,1,.91-2.86,3.26,3.26,0,0,1,2.55-1,3.17,3.17,0,0,1,2.5,1.05A4.14,4.14,0,0,1,172.85,12Zm-5.71,0a3.56,3.56,0,0,0,.58,2.18,2,2,0,0,0,1.69.76,2,2,0,0,0,1.69-.75,3.57,3.57,0,0,0,.58-2.19,3.49,3.49,0,0,0-.58-2.17,2,2,0,0,0-1.71-.74,2,2,0,0,0-1.68.73A3.48,3.48,0,0,0,167.14,12Z"/><path class="cls-3" d="M180,15.72V10.87a1.93,1.93,0,0,0-.42-1.36,1.69,1.69,0,0,0-1.3-.45,2.18,2.18,0,0,0-1.73.63,3.23,3.23,0,0,0-.54,2.1v3.93h-1.14V8.23h.92l.19,1H176a2.32,2.32,0,0,1,1-.85,3.09,3.09,0,0,1,1.4-.31,2.87,2.87,0,0,1,2,.65,2.78,2.78,0,0,1,.68,2.09v4.89Z"/><path class="cls-1" d="M82.56,55.93H81.9V50.22h3.18v.59H82.56V52.9h2.37v.59H82.56Z"/><path class="cls-1" d="M89.62,53.78a2.37,2.37,0,0,1-.52,1.64,1.87,1.87,0,0,1-1.46.59,1.94,1.94,0,0,1-1-.27,1.81,1.81,0,0,1-.69-.78,2.7,2.7,0,0,1-.24-1.18,2.41,2.41,0,0,1,.52-1.63,1.86,1.86,0,0,1,1.46-.58,1.82,1.82,0,0,1,1.43.6A2.33,2.33,0,0,1,89.62,53.78Zm-3.26,0A2,2,0,0,0,86.69,55a1.3,1.3,0,0,0,1.93,0,2.51,2.51,0,0,0,0-2.49,1.15,1.15,0,0,0-1-.42,1.12,1.12,0,0,0-1,.42A2,2,0,0,0,86.36,53.78Z"/><path class="cls-1" d="M92.71,51.57a2.68,2.68,0,0,1,.52,0l-.09.61a2.23,2.23,0,0,0-.47-.06,1.15,1.15,0,0,0-.89.42,1.51,1.51,0,0,0-.37,1.05v2.3h-.65V51.65h.54l.07.79h0a1.94,1.94,0,0,1,.58-.65A1.28,1.28,0,0,1,92.71,51.57Z"/><path class="cls-1" d="M96,51.58a1.6,1.6,0,0,1,1.31.57,3.08,3.08,0,0,1,0,3.27A1.6,1.6,0,0,1,96,56a1.88,1.88,0,0,1-.76-.16,1.39,1.39,0,0,1-.58-.47h-.05l-.14.55H94V49.85h.65v1.48a8.09,8.09,0,0,1,0,.89h0A1.53,1.53,0,0,1,96,51.58Zm-.09.54a1.13,1.13,0,0,0-1,.38,2.1,2.1,0,0,0-.29,1.28,2.15,2.15,0,0,0,.3,1.29,1.13,1.13,0,0,0,1,.39,1,1,0,0,0,.89-.43,2.22,2.22,0,0,0,.29-1.26,2.1,2.1,0,0,0-.29-1.24A1,1,0,0,0,95.93,52.12Z"/><path class="cls-1" d="M100.74,56a2,2,0,0,1-1.5-.58,2.23,2.23,0,0,1-.55-1.61,2.46,2.46,0,0,1,.51-1.64,1.69,1.69,0,0,1,1.37-.61,1.58,1.58,0,0,1,1.27.53,2,2,0,0,1,.47,1.39v.41h-3a1.74,1.74,0,0,0,.38,1.15,1.33,1.33,0,0,0,1,.39,3.51,3.51,0,0,0,1.37-.29v.58a3.25,3.25,0,0,1-.65.21A3.88,3.88,0,0,1,100.74,56Zm-.18-3.9a1.05,1.05,0,0,0-.82.34,1.58,1.58,0,0,0-.36.93h2.24a1.37,1.37,0,0,0-.28-.94A1,1,0,0,0,100.56,52.11Z"/><path class="cls-1" d="M106.18,54.76a1.07,1.07,0,0,1-.45.92,2,2,0,0,1-1.25.33,2.68,2.68,0,0,1-1.32-.27v-.61a2.74,2.74,0,0,0,.66.25,2.71,2.71,0,0,0,.68.09,1.51,1.51,0,0,0,.78-.16.54.54,0,0,0,.27-.5.53.53,0,0,0-.21-.42,3.44,3.44,0,0,0-.85-.42,4.75,4.75,0,0,1-.85-.39,1.11,1.11,0,0,1-.37-.38,1,1,0,0,1-.13-.5,1,1,0,0,1,.43-.83,2,2,0,0,1,1.17-.3,3.37,3.37,0,0,1,1.35.28l-.23.53a3.07,3.07,0,0,0-1.17-.27,1.26,1.26,0,0,0-.69.15.43.43,0,0,0-.24.39.49.49,0,0,0,.09.3,1,1,0,0,0,.28.23,5.76,5.76,0,0,0,.75.31,2.84,2.84,0,0,1,1,.56A1,1,0,0,1,106.18,54.76Z"/><path class="cls-1" d="M111.92,52.94h1.94v2.77a5.86,5.86,0,0,1-.92.22,6.81,6.81,0,0,1-1.08.08,2.61,2.61,0,0,1-2-.78,3,3,0,0,1-.73-2.16,3.27,3.27,0,0,1,.36-1.56,2.36,2.36,0,0,1,1-1,3.28,3.28,0,0,1,1.57-.36,4.42,4.42,0,0,1,1.71.34l-.26.59a3.8,3.8,0,0,0-1.49-.33,2.15,2.15,0,0,0-1.63.62,2.4,2.4,0,0,0-.58,1.72,2.47,2.47,0,0,0,.56,1.76,2.21,2.21,0,0,0,1.66.59,5,5,0,0,0,1.16-.13V53.53h-1.28Z"/><path class="cls-1" d="M115.79,55.93h-.65V49.85h.65Z"/><path class="cls-1" d="M120.86,53.78a2.38,2.38,0,0,1-.53,1.64,1.87,1.87,0,0,1-1.46.59,1.94,1.94,0,0,1-1-.27,1.81,1.81,0,0,1-.69-.78,2.7,2.7,0,0,1-.24-1.18,2.37,2.37,0,0,1,.53-1.63,2.05,2.05,0,0,1,2.88,0A2.33,2.33,0,0,1,120.86,53.78Zm-3.27,0a2,2,0,0,0,.33,1.25,1.3,1.3,0,0,0,1.93,0,2.51,2.51,0,0,0,0-2.49,1.15,1.15,0,0,0-1-.42,1.12,1.12,0,0,0-1,.42A2,2,0,0,0,117.59,53.78Z"/><path class="cls-1" d="M124,51.58a1.59,1.59,0,0,1,1.31.57,3.08,3.08,0,0,1,0,3.27A1.59,1.59,0,0,1,124,56a1.91,1.91,0,0,1-.76-.16,1.46,1.46,0,0,1-.58-.47h0l-.13.55H122V49.85h.65v1.48c0,.33,0,.62,0,.89h0A1.53,1.53,0,0,1,124,51.58Zm-.09.54a1.16,1.16,0,0,0-1,.38,2.17,2.17,0,0,0-.29,1.28,2.15,2.15,0,0,0,.3,1.29,1.14,1.14,0,0,0,1,.39,1,1,0,0,0,.89-.43,2.3,2.3,0,0,0,.29-1.26,2.18,2.18,0,0,0-.29-1.24A1.06,1.06,0,0,0,123.89,52.12Z"/><path class="cls-1" d="M129.53,55.93l-.13-.61h0a1.79,1.79,0,0,1-.64.54,1.87,1.87,0,0,1-.8.15,1.41,1.41,0,0,1-1-.33,1.21,1.21,0,0,1-.37-.94c0-.86.7-1.31,2.08-1.36l.72,0V53.1a1.12,1.12,0,0,0-.21-.75.91.91,0,0,0-.7-.24,2.83,2.83,0,0,0-1.21.33l-.2-.5a3.91,3.91,0,0,1,.7-.27,3.2,3.2,0,0,1,.75-.09,1.64,1.64,0,0,1,1.14.34A1.43,1.43,0,0,1,130,53v2.92Zm-1.47-.46a1.31,1.31,0,0,0,.95-.33,1.23,1.23,0,0,0,.35-.93v-.39l-.65,0a2.37,2.37,0,0,0-1.11.24.72.72,0,0,0-.35.66.69.69,0,0,0,.22.54A.89.89,0,0,0,128.06,55.47Z"/><path class="cls-1" d="M132,55.93h-.65V49.85H132Z"/><path class="cls-1" d="M138.9,55.93h-3.75v-.56l1.5-1.51a12.17,12.17,0,0,0,.91-1,3.08,3.08,0,0,0,.33-.57,1.74,1.74,0,0,0,.11-.61,1,1,0,0,0-.28-.72,1.06,1.06,0,0,0-.77-.27,1.85,1.85,0,0,0-.67.12,2.48,2.48,0,0,0-.71.42l-.35-.44a2.63,2.63,0,0,1,1.72-.66,1.78,1.78,0,0,1,1.26.42,1.38,1.38,0,0,1,.46,1.1,2.18,2.18,0,0,1-.3,1.08,7.17,7.17,0,0,1-1.15,1.34L136,55.29v0h2.94Z"/><path class="cls-1" d="M143.51,53.06a4.15,4.15,0,0,1-.47,2.21,1.58,1.58,0,0,1-1.43.74,1.56,1.56,0,0,1-1.4-.75,4.1,4.1,0,0,1-.48-2.2,4.15,4.15,0,0,1,.47-2.21,1.56,1.56,0,0,1,1.41-.72,1.6,1.6,0,0,1,1.42.75A4.07,4.07,0,0,1,143.51,53.06Zm-3.12,0a4.15,4.15,0,0,0,.29,1.82,1,1,0,0,0,1.87,0,4.13,4.13,0,0,0,.29-1.81,4.08,4.08,0,0,0-.29-1.8,1,1,0,0,0-.94-.57,1,1,0,0,0-.93.56A4.1,4.1,0,0,0,140.39,53.06Z"/><path class="cls-1" d="M148.08,53.06a4.16,4.16,0,0,1-.46,2.21,1.59,1.59,0,0,1-1.43.74,1.55,1.55,0,0,1-1.4-.75,4,4,0,0,1-.49-2.2,4.15,4.15,0,0,1,.47-2.21,1.73,1.73,0,0,1,2.83,0A4.07,4.07,0,0,1,148.08,53.06Zm-3.12,0a4.31,4.31,0,0,0,.29,1.82,1.06,1.06,0,0,0,1.88,0,4.29,4.29,0,0,0,.29-1.81,4.23,4.23,0,0,0-.29-1.8,1.06,1.06,0,0,0-1.88,0A4.25,4.25,0,0,0,145,53.06Z"/><path class="cls-1" d="M152.66,53.06a4.15,4.15,0,0,1-.47,2.21,1.58,1.58,0,0,1-1.43.74,1.56,1.56,0,0,1-1.4-.75,4.1,4.1,0,0,1-.48-2.2,4.16,4.16,0,0,1,.46-2.21,1.73,1.73,0,0,1,2.83,0A4,4,0,0,1,152.66,53.06Zm-3.12,0a4.15,4.15,0,0,0,.29,1.82,1,1,0,0,0,.93.57,1,1,0,0,0,.94-.58,4.13,4.13,0,0,0,.29-1.81,4.08,4.08,0,0,0-.29-1.8,1.06,1.06,0,0,0-1.87,0A4.1,4.1,0,0,0,149.54,53.06Z"/><path class="cls-1" d="M86.88,64.93h-.65L85.07,61.1c0-.17-.11-.38-.18-.64a2.73,2.73,0,0,1-.1-.46,8.82,8.82,0,0,1-.28,1.13l-1.12,3.8h-.65l-1.52-5.71h.7l.9,3.52a13.1,13.1,0,0,1,.28,1.35,9.17,9.17,0,0,1,.31-1.4l1-3.47h.71l1.07,3.5a10.3,10.3,0,0,1,.32,1.37,11.3,11.3,0,0,1,.28-1.35l.9-3.52h.7Z"/><path class="cls-1" d="M92.9,62.78a2.33,2.33,0,0,1-.53,1.64,1.85,1.85,0,0,1-1.45.59,1.94,1.94,0,0,1-1-.27,1.75,1.75,0,0,1-.69-.78A2.7,2.7,0,0,1,89,62.78a2.36,2.36,0,0,1,.52-1.63A1.86,1.86,0,0,1,91,60.57a1.8,1.8,0,0,1,1.42.6A2.28,2.28,0,0,1,92.9,62.78Zm-3.26,0A2,2,0,0,0,90,64a1.3,1.3,0,0,0,1.93,0,2.51,2.51,0,0,0,0-2.49,1.33,1.33,0,0,0-1.94,0A2,2,0,0,0,89.64,62.78Z"/><path class="cls-1" d="M96,60.57a2.64,2.64,0,0,1,.51,0l-.09.61a2.08,2.08,0,0,0-.46-.06,1.13,1.13,0,0,0-.89.42,1.51,1.51,0,0,0-.37,1.05v2.3H94V60.65h.53l.08.79h0a2,2,0,0,1,.57-.65A1.31,1.31,0,0,1,96,60.57Z"/><path class="cls-1" d="M98,64.93H97.3V58.85H98Z"/><path class="cls-1" d="M102.24,64.35h0a1.53,1.53,0,0,1-1.35.66,1.59,1.59,0,0,1-1.3-.58,2.53,2.53,0,0,1-.47-1.63,2.59,2.59,0,0,1,.47-1.65,1.74,1.74,0,0,1,2.64.05h0l0-.31v-2h.65v6.08h-.53Zm-1.29.11a1.18,1.18,0,0,0,1-.36,1.81,1.81,0,0,0,.3-1.16V62.8a2.09,2.09,0,0,0-.31-1.3,1.13,1.13,0,0,0-1-.39,1,1,0,0,0-.88.44,2.26,2.26,0,0,0-.3,1.26,2.09,2.09,0,0,0,.3,1.23A1,1,0,0,0,101,64.46Z"/><path class="cls-1" d="M104.79,59.22l-.16,2.06h-.41l-.16-2.06Z"/><path class="cls-1" d="M108.76,63.76a1.08,1.08,0,0,1-.44.92,2.09,2.09,0,0,1-1.25.33,2.72,2.72,0,0,1-1.33-.27v-.61a2.74,2.74,0,0,0,.66.25,2.77,2.77,0,0,0,.68.09,1.51,1.51,0,0,0,.78-.16.53.53,0,0,0,.28-.5.54.54,0,0,0-.22-.42,3.26,3.26,0,0,0-.85-.42,5.12,5.12,0,0,1-.85-.39,1.21,1.21,0,0,1-.37-.38,1,1,0,0,1-.12-.5,1,1,0,0,1,.42-.83,2,2,0,0,1,1.17-.3,3.37,3.37,0,0,1,1.35.28l-.23.53a3.07,3.07,0,0,0-1.17-.27,1.29,1.29,0,0,0-.69.15.43.43,0,0,0-.24.39.49.49,0,0,0,.09.3,1,1,0,0,0,.28.23,7.35,7.35,0,0,0,.75.31,2.75,2.75,0,0,1,1,.56A1,1,0,0,1,108.76,63.76Z"/><path class="cls-1" d="M112,59.22h1.62a3,3,0,0,1,1.64.34,1.18,1.18,0,0,1,.51,1.07,1.24,1.24,0,0,1-.29.84,1.35,1.35,0,0,1-.82.43v0c.87.14,1.3.6,1.3,1.36a1.47,1.47,0,0,1-.52,1.2,2.24,2.24,0,0,1-1.45.43h-2Zm.67,2.44h1.09a1.74,1.74,0,0,0,1-.22.84.84,0,0,0,.31-.74.77.77,0,0,0-.34-.7,2.2,2.2,0,0,0-1.1-.21h-1Zm0,.56v2.14h1.19a1.68,1.68,0,0,0,1-.27,1,1,0,0,0,.35-.83.9.9,0,0,0-.36-.79,2,2,0,0,0-1.09-.25Z"/><path class="cls-1" d="M118.89,65a2,2,0,0,1-1.5-.58,2.23,2.23,0,0,1-.55-1.61,2.46,2.46,0,0,1,.51-1.64,1.69,1.69,0,0,1,1.37-.61,1.58,1.58,0,0,1,1.27.53,2,2,0,0,1,.47,1.39v.41h-2.95a1.74,1.74,0,0,0,.38,1.15,1.32,1.32,0,0,0,1,.39,3.51,3.51,0,0,0,1.37-.29v.58a3.25,3.25,0,0,1-.65.21A3.88,3.88,0,0,1,118.89,65Zm-.18-3.9a1,1,0,0,0-.82.34,1.46,1.46,0,0,0-.36.93h2.24a1.42,1.42,0,0,0-.28-.94A1,1,0,0,0,118.71,61.11Z"/><path class="cls-1" d="M124.33,63.76a1.07,1.07,0,0,1-.45.92,2,2,0,0,1-1.25.33,2.75,2.75,0,0,1-1.33-.27v-.61a3,3,0,0,0,.67.25,2.71,2.71,0,0,0,.68.09,1.51,1.51,0,0,0,.78-.16.54.54,0,0,0,.27-.5.53.53,0,0,0-.21-.42,3.44,3.44,0,0,0-.85-.42,4.75,4.75,0,0,1-.85-.39,1.11,1.11,0,0,1-.37-.38.91.91,0,0,1-.13-.5,1,1,0,0,1,.43-.83,2,2,0,0,1,1.17-.3,3.37,3.37,0,0,1,1.35.28l-.23.53a3.07,3.07,0,0,0-1.17-.27,1.32,1.32,0,0,0-.7.15.43.43,0,0,0-.23.39.49.49,0,0,0,.09.3,1,1,0,0,0,.28.23,5.76,5.76,0,0,0,.75.31,2.84,2.84,0,0,1,1,.56A1,1,0,0,1,124.33,63.76Z"/><path class="cls-1" d="M126.77,64.47a1.84,1.84,0,0,0,.33,0,1.22,1.22,0,0,0,.25,0v.5A1.23,1.23,0,0,1,127,65a2.76,2.76,0,0,1-.37,0c-.83,0-1.24-.44-1.24-1.31V61.15h-.61v-.31l.61-.27.27-.92h.38v1h1.24v.5h-1.24v2.52a.85.85,0,0,0,.18.59A.64.64,0,0,0,126.77,64.47Z"/><path class="cls-1" d="M85.08,73.93H81.9V68.22h3.18v.59H82.56v1.84h2.37v.58H82.56v2.1h2.52Z"/><path class="cls-1" d="M91.71,73.93V71.14a1.2,1.2,0,0,0-.22-.77.85.85,0,0,0-.68-.25,1.1,1.1,0,0,0-.9.35,1.65,1.65,0,0,0-.29,1.07v2.39H89V71.14a1.2,1.2,0,0,0-.22-.77.87.87,0,0,0-.69-.25,1.07,1.07,0,0,0-.89.36,2,2,0,0,0-.28,1.2v2.25h-.65V69.65h.53l.1.58h0a1.36,1.36,0,0,1,.52-.49,1.66,1.66,0,0,1,.75-.17,1.26,1.26,0,0,1,1.31.72h0a1.43,1.43,0,0,1,.56-.53,1.72,1.72,0,0,1,.83-.19,1.43,1.43,0,0,1,1.08.37,1.63,1.63,0,0,1,.37,1.19v2.8Z"/><path class="cls-1" d="M95.68,74a1.91,1.91,0,0,1-.76-.16,1.46,1.46,0,0,1-.58-.47h0a5.92,5.92,0,0,1,0,.71v1.76h-.65v-6.2h.53l.09.58h0a1.64,1.64,0,0,1,.58-.51,1.84,1.84,0,0,1,.76-.15,1.59,1.59,0,0,1,1.32.58,3.11,3.11,0,0,1,0,3.27A1.59,1.59,0,0,1,95.68,74Zm-.09-3.89a1.16,1.16,0,0,0-1,.36,1.94,1.94,0,0,0-.3,1.16v.14a2.15,2.15,0,0,0,.3,1.29,1.14,1.14,0,0,0,1,.39,1,1,0,0,0,.86-.45,2.13,2.13,0,0,0,.32-1.24,2,2,0,0,0-.32-1.22A1,1,0,0,0,95.59,70.12Z"/><path class="cls-1" d="M99.24,73.93h-.65V67.85h.65Z"/><path class="cls-1" d="M104.31,71.78a2.37,2.37,0,0,1-.52,1.64,1.88,1.88,0,0,1-1.46.59,1.94,1.94,0,0,1-1-.27,1.75,1.75,0,0,1-.69-.78,2.7,2.7,0,0,1-.24-1.18,2.36,2.36,0,0,1,.52-1.63,1.86,1.86,0,0,1,1.46-.58,1.8,1.8,0,0,1,1.42.6A2.28,2.28,0,0,1,104.31,71.78Zm-3.26,0a2,2,0,0,0,.33,1.25,1.3,1.3,0,0,0,1.93,0,2.51,2.51,0,0,0,0-2.49,1.33,1.33,0,0,0-1.94,0A2,2,0,0,0,101.05,71.78Z"/><path class="cls-1" d="M104.77,69.65h.69l.94,2.44a9,9,0,0,1,.39,1.2h0c0-.13.1-.36.21-.68s.46-1.31,1.06-3h.7L107,74.52a2.64,2.64,0,0,1-.64,1,1.4,1.4,0,0,1-.9.3,2.38,2.38,0,0,1-.59-.07v-.52a2.44,2.44,0,0,0,.48,0,1,1,0,0,0,1-.75l.24-.61Z"/><path class="cls-1" d="M111.29,74a2,2,0,0,1-1.5-.58,2.28,2.28,0,0,1-.55-1.61,2.46,2.46,0,0,1,.51-1.64,1.69,1.69,0,0,1,1.37-.61,1.58,1.58,0,0,1,1.27.53,2,2,0,0,1,.47,1.39v.41h-3a1.74,1.74,0,0,0,.38,1.15,1.33,1.33,0,0,0,1,.39,3.51,3.51,0,0,0,1.37-.29v.58a3.25,3.25,0,0,1-.65.21A3.79,3.79,0,0,1,111.29,74Zm-.18-3.9a1.05,1.05,0,0,0-.82.34,1.58,1.58,0,0,0-.36.93h2.24a1.37,1.37,0,0,0-.28-.94A1,1,0,0,0,111.11,70.11Z"/><path class="cls-1" d="M115.92,69.57a2.64,2.64,0,0,1,.51,0l-.09.61a2.09,2.09,0,0,0-.47-.06,1.13,1.13,0,0,0-.88.42,1.51,1.51,0,0,0-.37,1v2.3H114V69.65h.53l.08.79h0a2,2,0,0,1,.57-.65A1.31,1.31,0,0,1,115.92,69.57Z"/><path class="cls-1" d="M120,72.76a1.07,1.07,0,0,1-.45.92,2.06,2.06,0,0,1-1.25.33,2.72,2.72,0,0,1-1.33-.27v-.61a3.09,3.09,0,0,0,.66.25,2.84,2.84,0,0,0,.69.09,1.51,1.51,0,0,0,.78-.16.54.54,0,0,0,.27-.5.51.51,0,0,0-.22-.42,3.15,3.15,0,0,0-.84-.42,4.75,4.75,0,0,1-.85-.39,1.25,1.25,0,0,1-.38-.38,1,1,0,0,1-.12-.5,1,1,0,0,1,.43-.83,2,2,0,0,1,1.16-.3,3.38,3.38,0,0,1,1.36.28l-.23.53a3.07,3.07,0,0,0-1.17-.27,1.32,1.32,0,0,0-.7.15.43.43,0,0,0-.23.39.49.49,0,0,0,.09.3.86.86,0,0,0,.28.23,5.76,5.76,0,0,0,.75.31,2.84,2.84,0,0,1,1,.56A1,1,0,0,1,120,72.76Z"/><path class="cls-1" d="M126.59,73.93h-3.76v-.56l1.51-1.51a11.5,11.5,0,0,0,.9-1,2.26,2.26,0,0,0,.33-.57,1.74,1.74,0,0,0,.11-.61.93.93,0,0,0-.28-.72,1,1,0,0,0-.77-.27,1.89,1.89,0,0,0-.67.12,2.62,2.62,0,0,0-.71.42l-.34-.44a2.61,2.61,0,0,1,1.71-.66,1.82,1.82,0,0,1,1.27.42,1.41,1.41,0,0,1,.45,1.1,2.18,2.18,0,0,1-.3,1.08,6.68,6.68,0,0,1-1.14,1.34l-1.25,1.22v0h2.94Z"/><path class="cls-1" d="M131.19,71.06a4.06,4.06,0,0,1-.47,2.21,1.72,1.72,0,0,1-2.83,0,4.1,4.1,0,0,1-.48-2.2,4.15,4.15,0,0,1,.47-2.21,1.73,1.73,0,0,1,2.83,0A4.07,4.07,0,0,1,131.19,71.06Zm-3.12,0a4.31,4.31,0,0,0,.29,1.82,1.06,1.06,0,0,0,1.88,0,4.29,4.29,0,0,0,.29-1.81,4.23,4.23,0,0,0-.29-1.8,1.06,1.06,0,0,0-1.88,0A4.25,4.25,0,0,0,128.07,71.06Z"/><path class="cls-1" d="M134.38,73.93h-.63V69.86q0-.51,0-1l-.18.17-.93.76-.35-.45,1.52-1.16h.54Z"/><path class="cls-1" d="M140.31,70.65c0,2.24-.87,3.36-2.6,3.36a2.62,2.62,0,0,1-.71-.08v-.56a2.17,2.17,0,0,0,.71.1,1.72,1.72,0,0,0,1.41-.58,2.88,2.88,0,0,0,.52-1.78h0a1.52,1.52,0,0,1-.57.5,1.91,1.91,0,0,1-.8.16,1.63,1.63,0,0,1-1.21-.45,1.74,1.74,0,0,1-.44-1.26,1.9,1.9,0,0,1,.5-1.41,1.75,1.75,0,0,1,1.31-.52,1.72,1.72,0,0,1,1,.3,1.8,1.8,0,0,1,.67.87A3.54,3.54,0,0,1,140.31,70.65Zm-1.92-2a1.08,1.08,0,0,0-.87.36,1.51,1.51,0,0,0-.3,1,1.27,1.27,0,0,0,.28.88,1.07,1.07,0,0,0,.86.33,1.44,1.44,0,0,0,.65-.15,1.22,1.22,0,0,0,.47-.39.88.88,0,0,0,.17-.53,1.71,1.71,0,0,0-.16-.75,1.17,1.17,0,0,0-.45-.55A1.14,1.14,0,0,0,138.39,68.69Z"/><path class="cls-2" d="M87.6,41.46l-.45,2.32h1.94v.88H87l-.58,2.94h-.93l.57-2.94H84l-.56,2.94h-.93L83,44.66H81.25v-.88h2l.46-2.32H81.78v-.87h2l.56-3h1l-.56,3h2.09l.57-3h.92l-.57,3h1.8v.87Zm-3.45,2.32h2.07l.45-2.32H84.6Z"/><path class="cls-2" d="M94.83,47.6H93.72V40.48q0-.88.06-1.68l-.32.3c-.12.1-.66.55-1.63,1.33l-.6-.78,2.64-2h1Z"/><path class="cls-2" d="M101.94,37.46a3.44,3.44,0,0,1,2.17.64,2.13,2.13,0,0,1,.8,1.76,2.2,2.2,0,0,1-.46,1.34A4,4,0,0,1,103,42.31a4.85,4.85,0,0,1,1.72,1.22,2.27,2.27,0,0,1,.52,1.48,2.49,2.49,0,0,1-.87,2,3.57,3.57,0,0,1-2.38.74,3.83,3.83,0,0,1-2.46-.7,2.43,2.43,0,0,1-.86-2c0-1.14.7-2,2.09-2.67a3.87,3.87,0,0,1-1.35-1.15A2.44,2.44,0,0,1,99,39.84a2.09,2.09,0,0,1,.8-1.73A3.34,3.34,0,0,1,101.94,37.46Zm-2.16,7.62a1.55,1.55,0,0,0,.57,1.28,2.54,2.54,0,0,0,1.6.46,2.4,2.4,0,0,0,1.59-.48,1.63,1.63,0,0,0,.57-1.32,1.57,1.57,0,0,0-.54-1.17,5.33,5.33,0,0,0-1.86-1,4.1,4.1,0,0,0-1.47,1A1.86,1.86,0,0,0,99.78,45.08Zm2.15-6.69a2,2,0,0,0-1.34.41,1.34,1.34,0,0,0-.49,1.09,1.55,1.55,0,0,0,.4,1.08,4.27,4.27,0,0,0,1.49.9,3.58,3.58,0,0,0,1.39-.88,1.63,1.63,0,0,0,.41-1.1,1.35,1.35,0,0,0-.5-1.1A2.1,2.1,0,0,0,101.93,38.39Z"/><path class="cls-2" d="M112.83,40a2.24,2.24,0,0,1-.54,1.56,2.68,2.68,0,0,1-1.52.82v0a2.89,2.89,0,0,1,1.79.77,2.29,2.29,0,0,1,.58,1.61,2.62,2.62,0,0,1-1,2.2,4.55,4.55,0,0,1-2.82.77,8.1,8.1,0,0,1-1.45-.12,5.12,5.12,0,0,1-1.29-.42V46.12a6.55,6.55,0,0,0,1.39.49,6.31,6.31,0,0,0,1.39.16c1.73,0,2.59-.67,2.59-2s-.95-1.81-2.86-1.81h-1V42h1a3,3,0,0,0,1.85-.52,1.67,1.67,0,0,0,.68-1.43,1.4,1.4,0,0,0-.5-1.15,2,2,0,0,0-1.36-.42,4.18,4.18,0,0,0-1.24.18,5.62,5.62,0,0,0-1.33.66l-.57-.77a4.94,4.94,0,0,1,1.42-.76,5.25,5.25,0,0,1,1.69-.28,3.48,3.48,0,0,1,2.26.67A2.23,2.23,0,0,1,112.83,40Z"/><path class="cls-1" d="M166.79,55.93h-.67V50.22h3.18v.59h-2.51V52.9h2.36v.59h-2.36Z"/><path class="cls-1" d="M173.85,53.78a2.38,2.38,0,0,1-.53,1.64,1.87,1.87,0,0,1-1.46.59,1.94,1.94,0,0,1-1-.27,1.79,1.79,0,0,1-.68-.78,2.57,2.57,0,0,1-.25-1.18,2.37,2.37,0,0,1,.53-1.63,1.84,1.84,0,0,1,1.45-.58,1.82,1.82,0,0,1,1.43.6A2.33,2.33,0,0,1,173.85,53.78Zm-3.26,0a2.07,2.07,0,0,0,.32,1.25,1.13,1.13,0,0,0,1,.43,1.16,1.16,0,0,0,1-.43,2.51,2.51,0,0,0,0-2.49,1.19,1.19,0,0,0-1-.42,1.15,1.15,0,0,0-1,.42A2,2,0,0,0,170.59,53.78Z"/><path class="cls-1" d="M176.94,51.57a2.64,2.64,0,0,1,.51,0l-.09.61a2.16,2.16,0,0,0-.47-.06,1.15,1.15,0,0,0-.89.42,1.56,1.56,0,0,0-.37,1.05v2.3H175V51.65h.54l.07.79h0a1.94,1.94,0,0,1,.58-.65A1.29,1.29,0,0,1,176.94,51.57Z"/><path class="cls-1" d="M180.24,51.58a1.6,1.6,0,0,1,1.31.57,3.08,3.08,0,0,1,0,3.27,1.6,1.6,0,0,1-1.31.59,1.88,1.88,0,0,1-.76-.16,1.39,1.39,0,0,1-.58-.47h-.05l-.14.55h-.46V49.85h.65v1.48c0,.33,0,.62,0,.89h0A1.53,1.53,0,0,1,180.24,51.58Zm-.09.54a1.15,1.15,0,0,0-1,.38,2.17,2.17,0,0,0-.29,1.28,2.15,2.15,0,0,0,.3,1.29,1.13,1.13,0,0,0,1,.39,1,1,0,0,0,.89-.43,2.21,2.21,0,0,0,.3-1.26,2.1,2.1,0,0,0-.3-1.24A1,1,0,0,0,180.15,52.12Z"/><path class="cls-1" d="M185,56a2,2,0,0,1-1.5-.58,2.28,2.28,0,0,1-.55-1.61,2.46,2.46,0,0,1,.51-1.64,1.69,1.69,0,0,1,1.37-.61,1.61,1.61,0,0,1,1.28.53,2,2,0,0,1,.47,1.39v.41h-2.95a1.69,1.69,0,0,0,.38,1.15,1.31,1.31,0,0,0,1,.39,3.48,3.48,0,0,0,1.37-.29v.58a3.06,3.06,0,0,1-.65.21A3.79,3.79,0,0,1,185,56Zm-.17-3.9a1.06,1.06,0,0,0-.83.34,1.58,1.58,0,0,0-.36.93h2.24a1.42,1.42,0,0,0-.27-.94A1,1,0,0,0,184.79,52.11Z"/><path class="cls-1" d="M190.4,54.76a1.08,1.08,0,0,1-.44.92,2.09,2.09,0,0,1-1.25.33,2.72,2.72,0,0,1-1.33-.27v-.61a2.74,2.74,0,0,0,.66.25,2.77,2.77,0,0,0,.68.09,1.51,1.51,0,0,0,.78-.16.53.53,0,0,0,.28-.5.54.54,0,0,0-.22-.42,3.26,3.26,0,0,0-.85-.42,4.57,4.57,0,0,1-.84-.39,1.15,1.15,0,0,1-.38-.38,1,1,0,0,1-.12-.5,1,1,0,0,1,.42-.83,2,2,0,0,1,1.17-.3,3.37,3.37,0,0,1,1.35.28l-.23.53a3.07,3.07,0,0,0-1.17-.27,1.29,1.29,0,0,0-.69.15.43.43,0,0,0-.24.39.49.49,0,0,0,.09.3.91.91,0,0,0,.29.23,5.76,5.76,0,0,0,.75.31,2.77,2.77,0,0,1,1,.56A1,1,0,0,1,190.4,54.76Z"/><path class="cls-1" d="M196.14,52.94h2v2.77a6,6,0,0,1-.93.22,6.81,6.81,0,0,1-1.08.08,2.61,2.61,0,0,1-2-.78,3,3,0,0,1-.72-2.16,3.26,3.26,0,0,1,.35-1.56,2.36,2.36,0,0,1,1-1,3.32,3.32,0,0,1,1.58-.36,4.37,4.37,0,0,1,1.7.34l-.26.59a3.76,3.76,0,0,0-1.49-.33,2.17,2.17,0,0,0-1.63.62,2.4,2.4,0,0,0-.58,1.72,2.51,2.51,0,0,0,.56,1.76,2.21,2.21,0,0,0,1.66.59,5,5,0,0,0,1.16-.13V53.53h-1.28Z"/><path class="cls-1" d="M200,55.93h-.65V49.85H200Z"/><path class="cls-1" d="M205.08,53.78a2.38,2.38,0,0,1-.53,1.64,1.87,1.87,0,0,1-1.46.59,1.94,1.94,0,0,1-1-.27,1.79,1.79,0,0,1-.68-.78,2.57,2.57,0,0,1-.25-1.18,2.37,2.37,0,0,1,.53-1.63,1.84,1.84,0,0,1,1.45-.58,1.81,1.81,0,0,1,1.43.6A2.33,2.33,0,0,1,205.08,53.78Zm-3.26,0a2.07,2.07,0,0,0,.32,1.25,1.13,1.13,0,0,0,1,.43,1.15,1.15,0,0,0,1-.43,2.51,2.51,0,0,0,0-2.49,1.17,1.17,0,0,0-1-.42,1.15,1.15,0,0,0-1,.42A2,2,0,0,0,201.82,53.78Z"/><path class="cls-1" d="M208.21,51.58a1.6,1.6,0,0,1,1.31.57,2.55,2.55,0,0,1,.46,1.63,2.5,2.5,0,0,1-.47,1.64,1.58,1.58,0,0,1-1.3.59,1.93,1.93,0,0,1-.77-.16,1.46,1.46,0,0,1-.58-.47h0l-.14.55h-.47V49.85h.65v1.48c0,.33,0,.62,0,.89h0A1.53,1.53,0,0,1,208.21,51.58Zm-.1.54a1.12,1.12,0,0,0-1,.38,2.09,2.09,0,0,0-.3,1.28,2.15,2.15,0,0,0,.3,1.29,1.16,1.16,0,0,0,1,.39A1,1,0,0,0,209,55a2.3,2.3,0,0,0,.29-1.26,2.18,2.18,0,0,0-.29-1.24A1.06,1.06,0,0,0,208.11,52.12Z"/><path class="cls-1" d="M213.75,55.93l-.13-.61h0a1.71,1.71,0,0,1-.64.54,1.86,1.86,0,0,1-.79.15,1.42,1.42,0,0,1-1-.33,1.21,1.21,0,0,1-.36-.94c0-.86.69-1.31,2.07-1.36l.73,0V53.1a1.07,1.07,0,0,0-.22-.75.89.89,0,0,0-.69-.24,2.8,2.8,0,0,0-1.21.33l-.2-.5a3.54,3.54,0,0,1,.69-.27,3.22,3.22,0,0,1,.76-.09,1.59,1.59,0,0,1,1.13.34,1.4,1.4,0,0,1,.37,1.09v2.92Zm-1.46-.46a1.32,1.32,0,0,0,1-.33,1.22,1.22,0,0,0,.34-.93v-.39l-.65,0a2.41,2.41,0,0,0-1.11.24.71.71,0,0,0-.34.66.69.69,0,0,0,.21.54A.9.9,0,0,0,212.29,55.47Z"/><path class="cls-1" d="M216.21,55.93h-.64V49.85h.64Z"/><path class="cls-1" d="M223.12,55.93h-3.75v-.56l1.5-1.51a12.17,12.17,0,0,0,.91-1,2.26,2.26,0,0,0,.33-.57,1.74,1.74,0,0,0,.11-.61.93.93,0,0,0-.28-.72,1,1,0,0,0-.77-.27,1.85,1.85,0,0,0-.67.12,2.62,2.62,0,0,0-.71.42l-.34-.44a2.59,2.59,0,0,1,1.71-.66,1.82,1.82,0,0,1,1.27.42,1.41,1.41,0,0,1,.45,1.1,2.18,2.18,0,0,1-.3,1.08,7.44,7.44,0,0,1-1.14,1.34l-1.25,1.22v0h2.93Z"/><path class="cls-1" d="M227.73,53.06a4.15,4.15,0,0,1-.47,2.21,1.72,1.72,0,0,1-2.83,0,4.1,4.1,0,0,1-.48-2.2,4.15,4.15,0,0,1,.47-2.21,1.73,1.73,0,0,1,2.83,0A4.07,4.07,0,0,1,227.73,53.06Zm-3.12,0a4.31,4.31,0,0,0,.29,1.82,1.06,1.06,0,0,0,1.88,0,4.29,4.29,0,0,0,.29-1.81,4.23,4.23,0,0,0-.29-1.8,1.06,1.06,0,0,0-1.88,0A4.25,4.25,0,0,0,224.61,53.06Z"/><path class="cls-1" d="M232.3,53.06a4.16,4.16,0,0,1-.46,2.21,1.58,1.58,0,0,1-1.43.74,1.55,1.55,0,0,1-1.4-.75,4.1,4.1,0,0,1-.48-2.2,4.16,4.16,0,0,1,.46-2.21,1.73,1.73,0,0,1,2.83,0A4.07,4.07,0,0,1,232.3,53.06Zm-3.12,0a4.13,4.13,0,0,0,.3,1.82,1,1,0,0,0,.93.57,1,1,0,0,0,.94-.58,4.29,4.29,0,0,0,.29-1.81,4.23,4.23,0,0,0-.29-1.8,1.06,1.06,0,0,0-1.87,0A4.08,4.08,0,0,0,229.18,53.06Z"/><path class="cls-1" d="M236.88,53.06a4.15,4.15,0,0,1-.47,2.21A1.58,1.58,0,0,1,235,56a1.56,1.56,0,0,1-1.4-.75,4.1,4.1,0,0,1-.48-2.2,4.15,4.15,0,0,1,.47-2.21,1.56,1.56,0,0,1,1.41-.72,1.6,1.6,0,0,1,1.42.75A4.07,4.07,0,0,1,236.88,53.06Zm-3.12,0a4.31,4.31,0,0,0,.29,1.82,1,1,0,0,0,1.87,0,4.13,4.13,0,0,0,.29-1.81,4.08,4.08,0,0,0-.29-1.8,1,1,0,0,0-.94-.57,1,1,0,0,0-.93.56A4.25,4.25,0,0,0,233.76,53.06Z"/><path class="cls-1" d="M171.11,64.93h-.66L169.3,61.1c-.06-.17-.12-.38-.19-.64A2.73,2.73,0,0,1,169,60a8.82,8.82,0,0,1-.28,1.13l-1.11,3.8H167l-1.52-5.71h.7l.91,3.52q.18.75.27,1.35a9.17,9.17,0,0,1,.31-1.4l1-3.47h.7l1.07,3.5a10.3,10.3,0,0,1,.32,1.37,11.3,11.3,0,0,1,.28-1.35l.9-3.52h.7Z"/><path class="cls-1" d="M177.12,62.78a2.37,2.37,0,0,1-.52,1.64,1.87,1.87,0,0,1-1.46.59,1.94,1.94,0,0,1-1-.27,1.75,1.75,0,0,1-.69-.78,2.7,2.7,0,0,1-.24-1.18,2.41,2.41,0,0,1,.52-1.63,1.86,1.86,0,0,1,1.46-.58,1.82,1.82,0,0,1,1.43.6A2.33,2.33,0,0,1,177.12,62.78Zm-3.26,0a2,2,0,0,0,.33,1.25,1.3,1.3,0,0,0,1.93,0,2.51,2.51,0,0,0,0-2.49,1.15,1.15,0,0,0-1-.42,1.12,1.12,0,0,0-1,.42A2,2,0,0,0,173.86,62.78Z"/><path class="cls-1" d="M180.21,60.57a2.75,2.75,0,0,1,.52,0l-.09.61a2.23,2.23,0,0,0-.47-.06,1.15,1.15,0,0,0-.89.42,1.51,1.51,0,0,0-.37,1.05v2.3h-.65V60.65h.54l.07.79h0a1.94,1.94,0,0,1,.58-.65A1.28,1.28,0,0,1,180.21,60.57Z"/><path class="cls-1" d="M182.18,64.93h-.65V58.85h.65Z"/><path class="cls-1" d="M186.46,64.35h0a1.52,1.52,0,0,1-1.34.66,1.61,1.61,0,0,1-1.31-.58,2.53,2.53,0,0,1-.47-1.63,2.59,2.59,0,0,1,.47-1.65,1.58,1.58,0,0,1,1.31-.58,1.55,1.55,0,0,1,1.33.63h.05l0-.31,0-.3V58.85h.65v6.08h-.53Zm-1.29.11a1.18,1.18,0,0,0,1-.36,1.81,1.81,0,0,0,.3-1.16V62.8a2.16,2.16,0,0,0-.3-1.3,1.17,1.17,0,0,0-1-.39,1,1,0,0,0-.87.44,2.17,2.17,0,0,0-.31,1.26,2,2,0,0,0,.31,1.23A1,1,0,0,0,185.17,64.46Z"/><path class="cls-1" d="M189,59.22l-.15,2.06h-.41l-.16-2.06Z"/><path class="cls-1" d="M193,63.76a1.06,1.06,0,0,1-.44.92,2.06,2.06,0,0,1-1.25.33,2.72,2.72,0,0,1-1.33-.27v-.61a3.09,3.09,0,0,0,.66.25,2.83,2.83,0,0,0,.68.09,1.58,1.58,0,0,0,.79-.16.54.54,0,0,0,.27-.5.51.51,0,0,0-.22-.42,3.15,3.15,0,0,0-.84-.42,4.75,4.75,0,0,1-.85-.39,1.15,1.15,0,0,1-.38-.38,1,1,0,0,1-.12-.5,1,1,0,0,1,.42-.83,2,2,0,0,1,1.17-.3,3.37,3.37,0,0,1,1.35.28l-.23.53a3.06,3.06,0,0,0-1.16-.27,1.32,1.32,0,0,0-.7.15.42.42,0,0,0-.23.39.56.56,0,0,0,.08.3,1,1,0,0,0,.29.23,5.76,5.76,0,0,0,.75.31,2.84,2.84,0,0,1,1,.56A1,1,0,0,1,193,63.76Z"/><path class="cls-1" d="M196.21,59.22h1.62a3,3,0,0,1,1.64.34,1.18,1.18,0,0,1,.51,1.07,1.24,1.24,0,0,1-.28.84,1.41,1.41,0,0,1-.83.43v0c.87.14,1.3.6,1.3,1.36a1.47,1.47,0,0,1-.52,1.2,2.21,2.21,0,0,1-1.44.43h-2Zm.67,2.44H198a1.74,1.74,0,0,0,1-.22.84.84,0,0,0,.31-.74A.77.77,0,0,0,199,60a2.16,2.16,0,0,0-1.09-.21h-1Zm0,.56v2.14h1.19a1.68,1.68,0,0,0,1-.27,1,1,0,0,0,.35-.83.9.9,0,0,0-.36-.79,1.93,1.93,0,0,0-1.08-.25Z"/><path class="cls-1" d="M203.11,65a2,2,0,0,1-1.5-.58,2.28,2.28,0,0,1-.55-1.61,2.46,2.46,0,0,1,.51-1.64,1.69,1.69,0,0,1,1.37-.61,1.58,1.58,0,0,1,1.27.53,2,2,0,0,1,.47,1.39v.41h-3a1.69,1.69,0,0,0,.39,1.15,1.31,1.31,0,0,0,1,.39,3.51,3.51,0,0,0,1.37-.29v.58a3.25,3.25,0,0,1-.65.21A3.88,3.88,0,0,1,203.11,65Zm-.18-3.9a1.05,1.05,0,0,0-.82.34,1.58,1.58,0,0,0-.36.93H204a1.37,1.37,0,0,0-.28-.94A1,1,0,0,0,202.93,61.11Z"/><path class="cls-1" d="M208.55,63.76a1.08,1.08,0,0,1-.44.92,2.09,2.09,0,0,1-1.25.33,2.7,2.7,0,0,1-1.33-.27v-.61a2.74,2.74,0,0,0,.66.25,2.71,2.71,0,0,0,.68.09,1.51,1.51,0,0,0,.78-.16.55.55,0,0,0,.28-.5.54.54,0,0,0-.22-.42,3.44,3.44,0,0,0-.85-.42,4.75,4.75,0,0,1-.85-.39,1.21,1.21,0,0,1-.37-.38,1,1,0,0,1-.12-.5,1,1,0,0,1,.42-.83,2,2,0,0,1,1.17-.3,3.37,3.37,0,0,1,1.35.28l-.23.53a3.07,3.07,0,0,0-1.17-.27,1.26,1.26,0,0,0-.69.15.43.43,0,0,0-.24.39.49.49,0,0,0,.09.3,1,1,0,0,0,.28.23,5.76,5.76,0,0,0,.75.31,2.84,2.84,0,0,1,1,.56A1,1,0,0,1,208.55,63.76Z"/><path class="cls-1" d="M211,64.47a1.84,1.84,0,0,0,.33,0,1.09,1.09,0,0,0,.25,0v.5a1.23,1.23,0,0,1-.31.08,2.6,2.6,0,0,1-.37,0c-.82,0-1.24-.44-1.24-1.31V61.15H209v-.31l.61-.27.28-.92h.37v1h1.24v.5H210.3v2.52a.85.85,0,0,0,.18.59A.65.65,0,0,0,211,64.47Z"/><path class="cls-1" d="M215.27,62.55v2.38h-.66V59.22h1.56a2.44,2.44,0,0,1,1.55.4,1.45,1.45,0,0,1,.51,1.21,1.51,1.51,0,0,1-1.15,1.53l1.55,2.57h-.79l-1.38-2.38Zm0-.57h.91a1.55,1.55,0,0,0,1-.28,1,1,0,0,0,.33-.84.93.93,0,0,0-.34-.81,1.78,1.78,0,0,0-1.07-.25h-.86Z"/><path class="cls-1" d="M221.26,65a2,2,0,0,1-1.5-.58,2.28,2.28,0,0,1-.55-1.61,2.46,2.46,0,0,1,.51-1.64,1.69,1.69,0,0,1,1.37-.61,1.61,1.61,0,0,1,1.28.53,2,2,0,0,1,.47,1.39v.41h-3a1.69,1.69,0,0,0,.38,1.15,1.32,1.32,0,0,0,1,.39,3.46,3.46,0,0,0,1.36-.29v.58a3.06,3.06,0,0,1-.65.21A3.79,3.79,0,0,1,221.26,65Zm-.17-3.9a1.06,1.06,0,0,0-.83.34,1.58,1.58,0,0,0-.36.93h2.24a1.42,1.42,0,0,0-.27-.94A1,1,0,0,0,221.09,61.11Z"/><path class="cls-1" d="M227.45,60.65v.41l-.8.09a1.32,1.32,0,0,1,.28.86,1.26,1.26,0,0,1-.43,1,1.72,1.72,0,0,1-1.18.37l-.36,0a.65.65,0,0,0-.41.55.27.27,0,0,0,.15.26,1,1,0,0,0,.49.09H226a1.75,1.75,0,0,1,1.07.29,1,1,0,0,1,.37.85,1.22,1.22,0,0,1-.57,1.09,3.14,3.14,0,0,1-1.66.37,2.27,2.27,0,0,1-1.3-.31,1,1,0,0,1-.45-.89,1,1,0,0,1,.25-.67,1.27,1.27,0,0,1,.7-.39.77.77,0,0,1-.28-.23A.61.61,0,0,1,224,64a.63.63,0,0,1,.13-.41,1.22,1.22,0,0,1,.39-.34,1.16,1.16,0,0,1-.54-.47,1.53,1.53,0,0,1,.21-1.83,1.71,1.71,0,0,1,1.2-.38,1.86,1.86,0,0,1,.6.08Zm-3.42,5a.58.58,0,0,0,.29.52,1.64,1.64,0,0,0,.84.18,2.36,2.36,0,0,0,1.21-.24.75.75,0,0,0,.4-.66.54.54,0,0,0-.22-.49,1.67,1.67,0,0,0-.81-.13H225a1,1,0,0,0-.68.21A.74.74,0,0,0,224,65.65Zm.35-3.63a.88.88,0,0,0,.26.68,1,1,0,0,0,.7.23.83.83,0,0,0,.95-.92.85.85,0,0,0-1-1,.92.92,0,0,0-.7.25A1,1,0,0,0,224.38,62Z"/><path class="cls-1" d="M231,64.93l-.13-.61h0a1.79,1.79,0,0,1-.64.54,1.87,1.87,0,0,1-.8.15,1.41,1.41,0,0,1-1-.33,1.18,1.18,0,0,1-.37-.94c0-.86.7-1.31,2.08-1.36l.72,0V62.1a1.12,1.12,0,0,0-.21-.75.91.91,0,0,0-.7-.24,2.83,2.83,0,0,0-1.21.33l-.2-.5a3.91,3.91,0,0,1,.7-.27,3.2,3.2,0,0,1,.75-.09,1.64,1.64,0,0,1,1.14.34,1.43,1.43,0,0,1,.37,1.09v2.92Zm-1.47-.46a1.31,1.31,0,0,0,.95-.33,1.23,1.23,0,0,0,.35-.93v-.39l-.65,0a2.34,2.34,0,0,0-1.11.24.72.72,0,0,0-.35.66.66.66,0,0,0,.22.54A.89.89,0,0,0,229.49,64.47Z"/><path class="cls-1" d="M234.73,60.57a2.64,2.64,0,0,1,.51,0l-.09.61a2.23,2.23,0,0,0-.47-.06,1.15,1.15,0,0,0-.89.42,1.51,1.51,0,0,0-.37,1.05v2.3h-.65V60.65h.54l.07.79h0a1.94,1.94,0,0,1,.58-.65A1.29,1.29,0,0,1,234.73,60.57Z"/><path class="cls-1" d="M239,64.35h0a1.53,1.53,0,0,1-1.35.66,1.59,1.59,0,0,1-1.3-.58,2.53,2.53,0,0,1-.47-1.63,2.59,2.59,0,0,1,.47-1.65,1.74,1.74,0,0,1,2.64.05H239l0-.31v-2h.65v6.08H239Zm-1.29.11a1.18,1.18,0,0,0,1-.36,1.81,1.81,0,0,0,.3-1.16V62.8a2.16,2.16,0,0,0-.3-1.3,1.17,1.17,0,0,0-1-.39,1,1,0,0,0-.87.44,2.17,2.17,0,0,0-.31,1.26,2.09,2.09,0,0,0,.3,1.23A1,1,0,0,0,237.66,64.46Z"/><path class="cls-1" d="M242.75,65a2,2,0,0,1-1.5-.58,2.28,2.28,0,0,1-.55-1.61,2.46,2.46,0,0,1,.51-1.64,1.69,1.69,0,0,1,1.37-.61,1.61,1.61,0,0,1,1.28.53,2,2,0,0,1,.46,1.39v.41h-2.95a1.69,1.69,0,0,0,.39,1.15,1.31,1.31,0,0,0,1,.39,3.51,3.51,0,0,0,1.37-.29v.58a3.25,3.25,0,0,1-.65.21A3.79,3.79,0,0,1,242.75,65Zm-.18-3.9a1.05,1.05,0,0,0-.82.34,1.58,1.58,0,0,0-.36.93h2.24a1.42,1.42,0,0,0-.27-.94A1,1,0,0,0,242.57,61.11Z"/><path class="cls-1" d="M248.34,64.35h0A1.53,1.53,0,0,1,247,65a1.59,1.59,0,0,1-1.3-.58,2.53,2.53,0,0,1-.47-1.63,2.59,2.59,0,0,1,.47-1.65,1.74,1.74,0,0,1,2.64.05h0l0-.31v-2H249v6.08h-.53Zm-1.29.11a1.18,1.18,0,0,0,1-.36,1.81,1.81,0,0,0,.3-1.16V62.8a2.16,2.16,0,0,0-.3-1.3,1.17,1.17,0,0,0-1-.39,1,1,0,0,0-.87.44,2.17,2.17,0,0,0-.31,1.26,2.09,2.09,0,0,0,.3,1.23A1,1,0,0,0,247.05,64.46Z"/><path class="cls-1" d="M168.57,68.73a1.86,1.86,0,0,0-1.49.63,2.52,2.52,0,0,0-.54,1.71,2.55,2.55,0,0,0,.52,1.73,1.87,1.87,0,0,0,1.5.62,5.24,5.24,0,0,0,1.36-.22v.58a4.1,4.1,0,0,1-1.46.23,2.49,2.49,0,0,1-2-.77,3.15,3.15,0,0,1-.69-2.18,3.42,3.42,0,0,1,.33-1.54,2.34,2.34,0,0,1,1-1,2.85,2.85,0,0,1,1.46-.36,3.49,3.49,0,0,1,1.57.33l-.28.57A3,3,0,0,0,168.57,68.73Z"/><path class="cls-1" d="M174.77,71.78a2.38,2.38,0,0,1-.53,1.64,1.87,1.87,0,0,1-1.46.59,1.94,1.94,0,0,1-1-.27,1.81,1.81,0,0,1-.69-.78,2.7,2.7,0,0,1-.24-1.18,2.37,2.37,0,0,1,.53-1.63,2.05,2.05,0,0,1,2.88,0A2.33,2.33,0,0,1,174.77,71.78Zm-3.27,0a2,2,0,0,0,.33,1.25,1.3,1.3,0,0,0,1.93,0,2.51,2.51,0,0,0,0-2.49,1.15,1.15,0,0,0-1-.42,1.12,1.12,0,0,0-1,.42A2,2,0,0,0,171.5,71.78Z"/><path class="cls-1" d="M181.36,73.93V71.14a1.14,1.14,0,0,0-.22-.77.85.85,0,0,0-.68-.25,1.07,1.07,0,0,0-.89.35,1.59,1.59,0,0,0-.29,1.07v2.39h-.65V71.14a1.14,1.14,0,0,0-.22-.77.85.85,0,0,0-.68-.25,1.08,1.08,0,0,0-.9.36,2,2,0,0,0-.28,1.2v2.25h-.65V69.65h.53l.11.58h0a1.27,1.27,0,0,1,.51-.49,1.72,1.72,0,0,1,.75-.17,1.26,1.26,0,0,1,1.31.72h0a1.34,1.34,0,0,1,.55-.53,1.72,1.72,0,0,1,.83-.19,1.45,1.45,0,0,1,1.09.37,1.68,1.68,0,0,1,.36,1.19v2.8Z"/><path class="cls-1" d="M185.34,74a1.93,1.93,0,0,1-.77-.16,1.46,1.46,0,0,1-.58-.47h0a5.85,5.85,0,0,1,0,.71v1.76h-.65v-6.2h.53l.09.58h0a1.64,1.64,0,0,1,.58-.51,1.86,1.86,0,0,1,.77-.15,1.58,1.58,0,0,1,1.31.58,2.55,2.55,0,0,1,.46,1.63,2.5,2.5,0,0,1-.47,1.64A1.58,1.58,0,0,1,185.34,74Zm-.1-3.89a1.16,1.16,0,0,0-1,.36,1.94,1.94,0,0,0-.3,1.16v.14a2.15,2.15,0,0,0,.3,1.29,1.14,1.14,0,0,0,1,.39,1,1,0,0,0,.87-.45,2.13,2.13,0,0,0,.31-1.24,2,2,0,0,0-.31-1.22A1,1,0,0,0,185.24,70.12Z"/><path class="cls-1" d="M190.88,73.93l-.13-.61h0a1.79,1.79,0,0,1-.64.54,1.86,1.86,0,0,1-.79.15,1.42,1.42,0,0,1-1-.33,1.21,1.21,0,0,1-.36-.94c0-.86.69-1.31,2.07-1.36l.73,0V71.1a1.12,1.12,0,0,0-.22-.75.89.89,0,0,0-.69-.24,2.8,2.8,0,0,0-1.21.33l-.2-.5a3.54,3.54,0,0,1,.69-.27,3.22,3.22,0,0,1,.76-.09,1.61,1.61,0,0,1,1.13.34,1.4,1.4,0,0,1,.37,1.09v2.92Zm-1.47-.46a1.35,1.35,0,0,0,1-.33,1.22,1.22,0,0,0,.34-.93v-.39l-.65,0a2.37,2.37,0,0,0-1.11.24.71.71,0,0,0-.34.66.69.69,0,0,0,.21.54A.89.89,0,0,0,189.41,73.47Z"/><path class="cls-1" d="M195.62,73.93V71.16a1.15,1.15,0,0,0-.23-.78,1,1,0,0,0-.75-.26,1.21,1.21,0,0,0-1,.36,1.81,1.81,0,0,0-.32,1.2v2.25h-.64V69.65h.52l.11.58h0a1.34,1.34,0,0,1,.56-.49,1.88,1.88,0,0,1,.8-.17,1.62,1.62,0,0,1,1.16.37,1.59,1.59,0,0,1,.39,1.19v2.8Z"/><path class="cls-1" d="M197.55,68.49a.45.45,0,0,1,.11-.33.41.41,0,0,1,.54,0,.42.42,0,0,1,.12.33.41.41,0,0,1-.12.32.39.39,0,0,1-.54,0A.44.44,0,0,1,197.55,68.49Zm.7,5.44h-.64V69.65h.64Z"/><path class="cls-1" d="M201.44,74a2,2,0,0,1-1.5-.58,2.23,2.23,0,0,1-.55-1.61,2.46,2.46,0,0,1,.51-1.64,1.69,1.69,0,0,1,1.37-.61,1.58,1.58,0,0,1,1.27.53,2,2,0,0,1,.47,1.39v.41h-2.95a1.74,1.74,0,0,0,.38,1.15,1.32,1.32,0,0,0,1,.39,3.51,3.51,0,0,0,1.37-.29v.58a3.25,3.25,0,0,1-.65.21A3.88,3.88,0,0,1,201.44,74Zm-.18-3.9a1,1,0,0,0-.82.34,1.46,1.46,0,0,0-.36.93h2.24a1.42,1.42,0,0,0-.28-.94A1,1,0,0,0,201.26,70.11Z"/><path class="cls-1" d="M206.88,72.76a1.07,1.07,0,0,1-.45.92,2,2,0,0,1-1.25.33,2.68,2.68,0,0,1-1.32-.27v-.61a2.74,2.74,0,0,0,.66.25,2.71,2.71,0,0,0,.68.09,1.51,1.51,0,0,0,.78-.16.54.54,0,0,0,.27-.5.53.53,0,0,0-.21-.42,3.44,3.44,0,0,0-.85-.42,4.75,4.75,0,0,1-.85-.39,1.11,1.11,0,0,1-.37-.38.91.91,0,0,1-.13-.5,1,1,0,0,1,.43-.83,2,2,0,0,1,1.17-.3,3.37,3.37,0,0,1,1.35.28l-.23.53a3.07,3.07,0,0,0-1.17-.27,1.26,1.26,0,0,0-.69.15.43.43,0,0,0-.24.39.49.49,0,0,0,.09.3,1,1,0,0,0,.28.23,5.76,5.76,0,0,0,.75.31,2.84,2.84,0,0,1,1,.56A1,1,0,0,1,206.88,72.76Z"/><path class="cls-1" d="M213.47,73.93h-3.76v-.56l1.51-1.51a10,10,0,0,0,.9-1,2.26,2.26,0,0,0,.33-.57,1.54,1.54,0,0,0,.11-.61,1,1,0,0,0-.27-.72,1.08,1.08,0,0,0-.77-.27,1.91,1.91,0,0,0-.68.12,2.62,2.62,0,0,0-.71.42l-.34-.44a2.62,2.62,0,0,1,1.72-.66,1.81,1.81,0,0,1,1.26.42,1.42,1.42,0,0,1,.46,1.1,2.19,2.19,0,0,1-.31,1.08,6.68,6.68,0,0,1-1.14,1.34l-1.25,1.22v0h2.94Z"/><path class="cls-1" d="M218.07,71.06a4.16,4.16,0,0,1-.46,2.21,1.58,1.58,0,0,1-1.43.74,1.55,1.55,0,0,1-1.4-.75,4.1,4.1,0,0,1-.48-2.2,4.16,4.16,0,0,1,.46-2.21,1.73,1.73,0,0,1,2.83,0A4.07,4.07,0,0,1,218.07,71.06Zm-3.12,0a4.13,4.13,0,0,0,.3,1.82,1,1,0,0,0,.93.57,1,1,0,0,0,.94-.58,4.29,4.29,0,0,0,.29-1.81,4.23,4.23,0,0,0-.29-1.8,1,1,0,0,0-.94-.57,1,1,0,0,0-.93.56A4.08,4.08,0,0,0,215,71.06Z"/><path class="cls-1" d="M221.27,73.93h-.64V69.86q0-.51,0-1l-.18.17-.93.76-.34-.45,1.51-1.16h.55Z"/><path class="cls-1" d="M227.19,70.65c0,2.24-.86,3.36-2.59,3.36a2.7,2.7,0,0,1-.72-.08v-.56a2.21,2.21,0,0,0,.71.1,1.74,1.74,0,0,0,1.42-.58,3,3,0,0,0,.52-1.78h-.05a1.38,1.38,0,0,1-.57.5,1.87,1.87,0,0,1-.8.16,1.59,1.59,0,0,1-1.2-.45,1.7,1.7,0,0,1-.45-1.26,1.94,1.94,0,0,1,.5-1.41,1.9,1.9,0,0,1,2.33-.22,1.93,1.93,0,0,1,.67.87A3.74,3.74,0,0,1,227.19,70.65Zm-1.92-2a1.06,1.06,0,0,0-.86.36,1.46,1.46,0,0,0-.31,1,1.33,1.33,0,0,0,.28.88,1.08,1.08,0,0,0,.86.33,1.44,1.44,0,0,0,.65-.15,1.22,1.22,0,0,0,.47-.39.89.89,0,0,0,.18-.53,1.72,1.72,0,0,0-.17-.75,1.21,1.21,0,0,0-.44-.55A1.14,1.14,0,0,0,225.27,68.69Z"/><path class="cls-2" d="M171.83,41.46l-.45,2.32h1.93v.88h-2.1l-.57,2.94h-.94l.57-2.94H168.2l-.56,2.94h-.93l.55-2.94h-1.79v-.88h2l.47-2.32H166v-.87h2.05l.56-3h.95l-.56,3h2.08l.58-3h.91l-.57,3h1.8v.87Zm-3.46,2.32h2.07l.45-2.32h-2.07Z"/><path class="cls-2" d="M179.05,47.6h-1.11V40.48q0-.88.06-1.68l-.32.3c-.12.1-.66.55-1.63,1.33l-.6-.78,2.65-2h1Z"/><path class="cls-2" d="M184.12,47.6l4.14-9h-5.45v-1h6.65v.91l-4.08,9.08Z"/><path class="cls-2" d="M197.43,47.6h-6.57v-1L193.49,44a19.93,19.93,0,0,0,1.59-1.74,4.51,4.51,0,0,0,.57-1,2.85,2.85,0,0,0,.19-1.06,1.7,1.7,0,0,0-.48-1.27,1.9,1.9,0,0,0-1.35-.47,3.29,3.29,0,0,0-1.18.21,4.69,4.69,0,0,0-1.24.74l-.6-.77a4.63,4.63,0,0,1,3-1.15,3.13,3.13,0,0,1,2.2.73,2.44,2.44,0,0,1,.8,1.93,3.68,3.68,0,0,1-.53,1.88,11.75,11.75,0,0,1-2,2.35l-2.18,2.14v.06h5.14Z"/><path class="cls-4" d="M9.81,9.4a2.27,2.27,0,0,0-.22-1.07.69.69,0,0,0-.65-.39.74.74,0,0,0-.67.39A2.16,2.16,0,0,0,8.05,9.4c0,1.28.29,1.92.89,1.92s.87-.64.87-1.92m-.07,7.22a4.15,4.15,0,0,0,.2-1.38,4.35,4.35,0,0,0-.2-1.45.78.78,0,0,0-.8-.54.79.79,0,0,0-.8.54,4.44,4.44,0,0,0-.2,1.45,4.15,4.15,0,0,0,.2,1.38.79.79,0,0,0,.8.54.78.78,0,0,0,.8-.54M5.65,15.15A4.24,4.24,0,0,1,6,13.34a2.42,2.42,0,0,1,1.08-1.13,3.08,3.08,0,0,1-.91-1.12A3.77,3.77,0,0,1,5.83,9.4,3.34,3.34,0,0,1,6.64,7a3,3,0,0,1,2.3-.85A3,3,0,0,1,11.23,7,3.31,3.31,0,0,1,12,9.35a4.11,4.11,0,0,1-.33,1.75,2.94,2.94,0,0,1-.9,1.11,2.31,2.31,0,0,1,1.08,1.16,4.55,4.55,0,0,1,.36,1.89,4.12,4.12,0,0,1-.79,2.7,3,3,0,0,1-2.5,1q-3.28,0-3.29-3.78"/><path class="cls-4" d="M17.7,10.45h.24l.22,0,.17-.06a.26.26,0,0,0,.11-.1,1.39,1.39,0,0,0,.06-.13.6.6,0,0,0,0-.18c0-.09,0-.15,0-.21V7.48l0-.2a.38.38,0,0,0-.06-.17L18.35,7l-.17-.07H17.7Zm-.86.61V6.31h1.1a2.84,2.84,0,0,1,.71.08,1.1,1.1,0,0,1,.46.27,1.19,1.19,0,0,1,.24.46,2.55,2.55,0,0,1,.07.67V9.5a2.77,2.77,0,0,1-.07.69,1.21,1.21,0,0,1-.24.48,1.06,1.06,0,0,1-.45.29,2,2,0,0,1-.69.1Z"/><polygon class="cls-4" points="19.9 11.06 19.9 6.31 21.86 6.31 21.86 6.92 20.75 6.92 20.75 8.28 21.63 8.28 21.63 8.89 20.75 8.89 20.75 10.46 21.88 10.46 21.88 11.06 19.9 11.06"/><path class="cls-4" d="M23.48,11.11A1.7,1.7,0,0,1,23,11a1,1,0,0,1-.39-.22,1,1,0,0,1-.24-.34,1.51,1.51,0,0,1-.14-.44,3.93,3.93,0,0,1,0-.52V7.86a4.43,4.43,0,0,1,0-.55,1.62,1.62,0,0,1,.14-.44,1,1,0,0,1,.24-.34,1.24,1.24,0,0,1,.38-.2,1.8,1.8,0,0,1,.54-.08,1.54,1.54,0,0,1,.6.1.81.81,0,0,1,.39.27,1.15,1.15,0,0,1,.21.43,2,2,0,0,1,.07.57V8h-.83v-.4a2.42,2.42,0,0,0,0-.48.36.36,0,0,0-.36-.26h-.05a.48.48,0,0,0-.18,0,.25.25,0,0,0-.14.08l-.08.12a.5.5,0,0,0,0,.16,1.28,1.28,0,0,0,0,.19,1.41,1.41,0,0,0,0,.22v2a1.2,1.2,0,0,0,.1.59.4.4,0,0,0,.37.18.39.39,0,0,0,.16,0,.33.33,0,0,0,.12,0,.39.39,0,0,0,.08-.1l.05-.11a.61.61,0,0,0,0-.15,1,1,0,0,0,0-.16v-.6h.83v.38a2.33,2.33,0,0,1,0,.48,1.33,1.33,0,0,1-.12.4.93.93,0,0,1-.23.31A1,1,0,0,1,24,11a1.57,1.57,0,0,1-.51.07"/><polygon class="cls-4" points="25.19 11.06 25.19 6.31 27.16 6.31 27.16 6.92 26.05 6.92 26.05 8.28 26.92 8.28 26.92 8.89 26.05 8.89 26.05 10.46 27.17 10.46 27.17 11.06 25.19 11.06"/><polygon class="cls-4" points="27.51 11.06 27.51 6.31 28.1 6.31 29.25 9 29.25 6.31 29.96 6.31 29.96 11.06 29.4 11.06 28.24 8.23 28.24 11.06 27.51 11.06"/><polygon class="cls-4" points="30.97 11.06 30.97 6.95 30.18 6.95 30.18 6.31 32.58 6.31 32.58 6.95 31.82 6.95 31.82 11.06 30.97 11.06"/><polygon class="cls-4" points="34.58 11.06 33.91 6.31 34.63 6.31 35.01 9.37 35.52 6.31 36.09 6.31 36.6 9.37 36.99 6.31 37.69 6.31 37.02 11.06 36.34 11.06 35.81 7.88 35.28 11.06 34.58 11.06"/><path class="cls-4" d="M39.11,10.44a.66.66,0,0,0,.21,0,.58.58,0,0,0,.21,0,.56.56,0,0,0,.15-.1.6.6,0,0,0,.08-.16,1.62,1.62,0,0,0,0-.19c0-.07,0-.15,0-.24V7.6a2.19,2.19,0,0,0,0-.29.57.57,0,0,0-.07-.22.31.31,0,0,0-.15-.15.58.58,0,0,0-.25-.05.62.62,0,0,0-.25.05.31.31,0,0,0-.15.15.79.79,0,0,0-.06.22,1.23,1.23,0,0,0,0,.29V9.75a1.77,1.77,0,0,0,0,.24,1.62,1.62,0,0,0,0,.19.4.4,0,0,0,.08.16.39.39,0,0,0,.14.1m.21.67a1.27,1.27,0,0,1-1-.39A1.87,1.87,0,0,1,38,9.55V7.8A2.57,2.57,0,0,1,38,7.14a1.34,1.34,0,0,1,.23-.48.89.89,0,0,1,.42-.31,1.93,1.93,0,0,1,.63-.1,1.24,1.24,0,0,1,1,.4,1.79,1.79,0,0,1,.32,1.15V9.55a2.46,2.46,0,0,1-.08.65,1.11,1.11,0,0,1-.23.49A.91.91,0,0,1,40,11a1.67,1.67,0,0,1-.63.1"/><path class="cls-4" d="M42,8.34h.2a.71.71,0,0,0,.54-.17.77.77,0,0,0,.16-.56.79.79,0,0,0-.14-.54.64.64,0,0,0-.51-.17H42Zm-.86,2.72V6.31h1.08a2.86,2.86,0,0,1,.63.06,1.34,1.34,0,0,1,.47.2.85.85,0,0,1,.29.4,1.51,1.51,0,0,1,.1.6,1.7,1.7,0,0,1-.13.73.86.86,0,0,1-.44.42l.65,2.34H43l-.56-2.17H42v2.17Z"/><polygon class="cls-4" points="44.22 11.06 44.22 6.31 45.07 6.31 45.07 8.37 45.99 6.31 46.81 6.31 45.91 8.43 46.9 11.06 46.05 11.06 45.24 8.82 45.07 9.13 45.07 11.06 44.22 11.06"/><path class="cls-4" d="M49.25,9.39h.63l-.32-1.95Zm-1.09,1.67,1-4.75H50l1,4.75h-.8L50,10h-.81L49,11.06Z"/><polygon class="cls-4" points="51.27 11.06 51.27 6.31 51.86 6.31 53.01 9 53.01 6.31 53.71 6.31 53.71 11.06 53.15 11.06 51.99 8.23 51.99 11.06 51.27 11.06"/><path class="cls-4" d="M55.12,10.45h.24l.23,0,.16-.06a.26.26,0,0,0,.11-.1.49.49,0,0,0,.06-.13A.6.6,0,0,0,56,10c0-.09,0-.15,0-.21V7.48a1.62,1.62,0,0,0,0-.2.38.38,0,0,0-.06-.17.48.48,0,0,0-.28-.17h-.48Zm-.86.61V6.31h1.1a2.84,2.84,0,0,1,.71.08,1.1,1.1,0,0,1,.46.27,1.19,1.19,0,0,1,.24.46,2.55,2.55,0,0,1,.07.67V9.5a2.77,2.77,0,0,1-.07.69,1.21,1.21,0,0,1-.24.48,1,1,0,0,1-.45.29,2,2,0,0,1-.69.1Z"/><polygon class="cls-4" points="16.84 18.82 16.84 14.07 18.81 14.07 18.81 14.68 17.7 14.68 17.7 16.04 18.58 16.04 18.58 16.65 17.7 16.65 17.7 18.22 18.82 18.22 18.82 18.82 16.84 18.82"/><path class="cls-4" d="M20.46,18.88a1.8,1.8,0,0,1-.54-.08,1,1,0,0,1-.38-.22,1.11,1.11,0,0,1-.25-.34,2,2,0,0,1-.13-.43,4.09,4.09,0,0,1,0-.53V15.62a4.26,4.26,0,0,1,0-.54,2.13,2.13,0,0,1,.13-.45,1,1,0,0,1,.63-.54,1.77,1.77,0,0,1,.54-.07,1.8,1.8,0,0,1,.6.09.87.87,0,0,1,.39.28,1,1,0,0,1,.21.43,1.93,1.93,0,0,1,.07.57v.4H20.9v-.4a2.42,2.42,0,0,0,0-.48.37.37,0,0,0-.36-.26h-.05a.58.58,0,0,0-.19,0,.35.35,0,0,0-.13.08.83.83,0,0,0-.08.12.58.58,0,0,0,0,.17c0,.06,0,.13,0,.18v2.23a1.27,1.27,0,0,0,.1.6.39.39,0,0,0,.37.18.38.38,0,0,0,.16,0,.33.33,0,0,0,.12-.05.29.29,0,0,0,.08-.1l.05-.11a.54.54,0,0,0,0-.15.92.92,0,0,0,0-.16V17h.83v.39a3.58,3.58,0,0,1,0,.48,1.28,1.28,0,0,1-.13.39.81.81,0,0,1-.23.31.89.89,0,0,1-.36.2,2,2,0,0,1-.51.07"/><path class="cls-4" d="M23.27,18.2a.6.6,0,0,0,.21,0,.65.65,0,0,0,.21,0,.39.39,0,0,0,.14-.1.34.34,0,0,0,.08-.16.65.65,0,0,0,0-.19,1.62,1.62,0,0,0,0-.23V15.36a2.44,2.44,0,0,0,0-.29,1.29,1.29,0,0,0-.07-.21.33.33,0,0,0-.15-.16.62.62,0,0,0-.25,0,.58.58,0,0,0-.25,0,.33.33,0,0,0-.15.16.52.52,0,0,0-.07.21,2.44,2.44,0,0,0,0,.29v2.16a1.62,1.62,0,0,0,0,.23,1.25,1.25,0,0,0,0,.19.35.35,0,0,0,.09.16.39.39,0,0,0,.14.1m.21.68a1.27,1.27,0,0,1-1-.4,1.87,1.87,0,0,1-.31-1.17V15.56a2.62,2.62,0,0,1,.07-.66,1.32,1.32,0,0,1,.22-.48,1,1,0,0,1,.43-.3,1.67,1.67,0,0,1,.63-.1,1.27,1.27,0,0,1,1,.39,1.79,1.79,0,0,1,.31,1.15v1.75a2.62,2.62,0,0,1-.07.66,1.31,1.31,0,0,1-.23.49.89.89,0,0,1-.42.31,1.73,1.73,0,0,1-.63.11"/><polygon class="cls-4" points="25.34 18.82 25.34 14.07 25.93 14.07 27.08 16.76 27.08 14.07 27.79 14.07 27.79 18.82 27.23 18.82 26.07 15.99 26.07 18.82 25.34 18.82"/><path class="cls-4" d="M29.44,18.2a.65.65,0,0,0,.21,0,.6.6,0,0,0,.21,0,.39.39,0,0,0,.14-.1.35.35,0,0,0,.09-.16,1.29,1.29,0,0,0,0-.19c0-.07,0-.14,0-.23V15.36a2.19,2.19,0,0,0,0-.29.74.74,0,0,0-.07-.21.33.33,0,0,0-.15-.16.58.58,0,0,0-.25,0,.62.62,0,0,0-.25,0,.33.33,0,0,0-.15.16,1.29,1.29,0,0,0-.07.21,2.44,2.44,0,0,0,0,.29v2.16a1.62,1.62,0,0,0,0,.23.65.65,0,0,0,0,.19.34.34,0,0,0,.08.16.39.39,0,0,0,.14.1m.21.68a1.27,1.27,0,0,1-1-.4,1.87,1.87,0,0,1-.31-1.17V15.56a2.62,2.62,0,0,1,.07-.66,1.34,1.34,0,0,1,.23-.48.88.88,0,0,1,.42-.3,1.67,1.67,0,0,1,.63-.1,1.27,1.27,0,0,1,1,.39A1.79,1.79,0,0,1,31,15.56v1.75a2.62,2.62,0,0,1-.07.66,1.31,1.31,0,0,1-.23.49.89.89,0,0,1-.42.31,1.65,1.65,0,0,1-.63.11"/><polygon class="cls-4" points="31.51 18.82 31.58 14.07 32.46 14.07 33.14 17.41 33.84 14.07 34.7 14.07 34.78 18.82 34.13 18.82 34.07 15.55 33.4 18.82 32.9 18.82 32.21 15.54 32.16 18.82 31.51 18.82"/><rect class="cls-4" x="35.38" y="14.07" width="0.84" height="4.75"/><path class="cls-4" d="M38.09,18.88a1.8,1.8,0,0,1-.54-.08,1,1,0,0,1-.38-.22,1.11,1.11,0,0,1-.25-.34,2,2,0,0,1-.13-.43,4.09,4.09,0,0,1,0-.53V15.62a4.26,4.26,0,0,1,0-.54,1.69,1.69,0,0,1,.14-.45.91.91,0,0,1,.24-.33,1.07,1.07,0,0,1,.38-.21,2.08,2.08,0,0,1,1.14,0,.82.82,0,0,1,.39.28,1,1,0,0,1,.21.43,1.93,1.93,0,0,1,.07.57v.4h-.83v-.4a2.42,2.42,0,0,0,0-.48.37.37,0,0,0-.36-.26h0a.58.58,0,0,0-.19,0,.35.35,0,0,0-.13.08l-.08.12a.58.58,0,0,0,0,.17c0,.06,0,.13,0,.18v2.23a1.27,1.27,0,0,0,.1.6.39.39,0,0,0,.37.18.38.38,0,0,0,.16,0,.33.33,0,0,0,.12-.05.21.21,0,0,0,.08-.1.54.54,0,0,0,0-.11.54.54,0,0,0,0-.15.92.92,0,0,0,0-.16V17h.83v.39a2.45,2.45,0,0,1,0,.48,1.28,1.28,0,0,1-.13.39.81.81,0,0,1-.23.31.89.89,0,0,1-.36.2,2,2,0,0,1-.51.07"/><path class="cls-4" d="M42.31,18.88a1.08,1.08,0,0,1-1-.42,2.1,2.1,0,0,1-.29-1.22V15.69a3.69,3.69,0,0,1,.06-.71,1.42,1.42,0,0,1,.21-.52.87.87,0,0,1,.42-.33,1.53,1.53,0,0,1,.64-.11,1.26,1.26,0,0,1,1,.34,1.57,1.57,0,0,1,.3,1.05v.23h-.81v-.25c0-.1,0-.19,0-.25a1.52,1.52,0,0,0,0-.21.42.42,0,0,0-.08-.15.34.34,0,0,0-.14-.09.67.67,0,0,0-.22,0,.47.47,0,0,0-.17,0,.23.23,0,0,0-.12.06.22.22,0,0,0-.09.1A.69.69,0,0,0,42,15a.35.35,0,0,0,0,.16,1,1,0,0,0,0,.17,1,1,0,0,0,0,.19v1.92A1.45,1.45,0,0,0,42,18a.41.41,0,0,0,.4.2.49.49,0,0,0,.25-.06.35.35,0,0,0,.16-.18,1.07,1.07,0,0,0,.09-.27c0-.11,0-.23,0-.37V17h-.51v-.56h1.28v2.41h-.55l-.07-.48a.78.78,0,0,1-.79.54"/><path class="cls-4" d="M45.11,16.1h.2a.6.6,0,0,0,.7-.72.87.87,0,0,0-.14-.55.64.64,0,0,0-.51-.16h-.25Zm-.86,2.72V14.07h1.08a2.86,2.86,0,0,1,.63.06,1.26,1.26,0,0,1,.47.21.78.78,0,0,1,.29.39,1.59,1.59,0,0,1,.1.61,1.91,1.91,0,0,1-.13.73.84.84,0,0,1-.44.41l.65,2.34H46l-.56-2.17h-.37v2.17Z"/><path class="cls-4" d="M48.41,18.2a.67.67,0,0,0,.22,0,.65.65,0,0,0,.21,0,.5.5,0,0,0,.14-.1.48.48,0,0,0,.08-.16,1.29,1.29,0,0,0,0-.19,1.62,1.62,0,0,0,0-.23V15.36a1.23,1.23,0,0,0,0-.29.73.73,0,0,0-.06-.21.46.46,0,0,0-.15-.16.62.62,0,0,0-.25,0,.67.67,0,0,0-.26,0,.46.46,0,0,0-.15.16.73.73,0,0,0-.06.21,2.19,2.19,0,0,0,0,.29v2.16c0,.09,0,.16,0,.23a1.29,1.29,0,0,0,0,.19.48.48,0,0,0,.08.16.5.5,0,0,0,.14.1m.22.68a1.26,1.26,0,0,1-1-.4,1.87,1.87,0,0,1-.32-1.17V15.56a3.18,3.18,0,0,1,.07-.66,1.53,1.53,0,0,1,.23-.48,1,1,0,0,1,.42-.3,1.76,1.76,0,0,1,.64-.1,1.24,1.24,0,0,1,1,.39A1.73,1.73,0,0,1,50,15.56v1.75a2.62,2.62,0,0,1-.07.66,1.48,1.48,0,0,1-.23.49,1,1,0,0,1-.42.31,1.73,1.73,0,0,1-.63.11"/><polygon class="cls-4" points="51 18.82 50.33 14.07 51.05 14.07 51.43 17.13 51.93 14.07 52.51 14.07 53.02 17.14 53.41 14.07 54.11 14.07 53.44 18.82 52.76 18.82 52.23 15.65 51.7 18.82 51 18.82"/><polygon class="cls-4" points="54.99 18.82 54.99 14.71 54.21 14.71 54.21 14.07 56.61 14.07 56.61 14.71 55.85 14.71 55.85 18.82 54.99 18.82"/><polygon class="cls-4" points="56.88 18.82 56.88 14.07 57.73 14.07 57.73 16.05 58.69 16.05 58.69 14.07 59.54 14.07 59.54 18.82 58.69 18.82 58.69 16.67 57.73 16.67 57.73 18.82 56.88 18.82"/><path class="cls-4" d="M45.1,32.71,38.52,39a1.11,1.11,0,0,0-.38,1V57.74a.38.38,0,0,0,.38.38h6.79a.38.38,0,0,0,.38-.38V32.87c0-.21-.16-.59-.59-.16"/><path class="cls-4" d="M26.15,41l-6.58,6.33a1.11,1.11,0,0,0-.38,1v9.5a.38.38,0,0,0,.38.38h6.79a.38.38,0,0,0,.38-.38V41.12c0-.21-.17-.59-.59-.16"/><path class="cls-4" d="M48.09,25a.21.21,0,0,0-.18-.2h-.09l-5,1.15h-.09a.19.19,0,0,0-.1.05.21.21,0,0,0,0,.28l.06.05,1.15,1.17L32.39,39.1l-5.28-5.34a.14.14,0,0,0-.21,0l-1.43,1.45h0L17,43.76A.16.16,0,0,0,17,44l1.43,1.45a.14.14,0,0,0,.21,0L27,37l3.82,3.87,0,0,1.43,1.45a.14.14,0,0,0,.21,0L45.44,29.21l1.21,1.22a.18.18,0,0,0,.27,0,.2.2,0,0,0,.06-.12v0l1.1-5.2Z"/><path class="cls-4" d="M35.66,42.07l-3.18,3.25a.15.15,0,0,1-.21,0l-2.88-3c-.53-.54-.64-.1-.64.11V57.74a.37.37,0,0,0,.37.38h6.79a.38.38,0,0,0,.38-.38V42.19c0-.21-.16-.59-.63-.12"/><path class="cls-5" d="M65,65.58H.61V.41H65ZM1.23,65H64.41V1H1.23Z"/></g></svg>