<svg xmlns="http://www.w3.org/2000/svg" viewBox="0 0 321.92 80.75"><defs><style>.cls-1{fill:#a88c52;}.cls-2{fill:#fff;}.cls-3{fill:#4d4e50;}</style></defs><g id="Economic_Opportunities_Image" data-name="Economic Opportunities Image"><rect class="cls-1" width="300.48" height="19.64"/><path class="cls-2" d="M14.54,14.77v-10H15.7v10Z"/><path class="cls-2" d="M23.4,14.77V9.92A2,2,0,0,0,23,8.55a1.68,1.68,0,0,0-1.3-.45A2.13,2.13,0,0,0,20,8.74a3.17,3.17,0,0,0-.55,2.1v3.93H18.27V7.27h.93l.18,1h.06a2.26,2.26,0,0,1,1-.86,3.24,3.24,0,0,1,1.41-.3,2.84,2.84,0,0,1,2,.65,2.77,2.77,0,0,1,.69,2.09v4.89Z"/><path class="cls-2" d="M32,14.77V9.92a2,2,0,0,0-.41-1.37,1.72,1.72,0,0,0-1.31-.45,2.13,2.13,0,0,0-1.72.64,3.17,3.17,0,0,0-.55,2.1v3.93H26.87V7.27h.92l.18,1H28a2.29,2.29,0,0,1,1-.86,3.19,3.19,0,0,1,1.4-.3,2.89,2.89,0,0,1,2,.65,2.81,2.81,0,0,1,.68,2.09v4.89Z"/><path class="cls-2" d="M41.93,11A4.1,4.1,0,0,1,41,13.87a3.22,3.22,0,0,1-2.55,1,3.31,3.31,0,0,1-1.78-.47,3,3,0,0,1-1.2-1.35A4.64,4.64,0,0,1,35,11,4.12,4.12,0,0,1,36,8.16a3.24,3.24,0,0,1,2.54-1,3.19,3.19,0,0,1,2.5,1A4.11,4.11,0,0,1,41.93,11Zm-5.71,0a3.58,3.58,0,0,0,.57,2.19,2.28,2.28,0,0,0,3.38,0A3.47,3.47,0,0,0,40.75,11a3.46,3.46,0,0,0-.58-2.17,2.31,2.31,0,0,0-3.38,0A3.52,3.52,0,0,0,36.22,11Z"/><path class="cls-2" d="M45.56,14.77l-2.85-7.5h1.22l1.61,4.45c.37,1,.58,1.71.65,2h.05a15,15,0,0,1,.48-1.5c.26-.76.86-2.41,1.79-5h1.22l-2.85,7.5Z"/><path class="cls-2" d="M55.54,14.77l-.23-1.07h-.05a3.14,3.14,0,0,1-1.12,1,3.36,3.36,0,0,1-1.39.25A2.53,2.53,0,0,1,51,14.33a2.1,2.1,0,0,1-.63-1.63q0-2.28,3.63-2.38l1.27,0V9.81a1.9,1.9,0,0,0-.38-1.3,1.56,1.56,0,0,0-1.21-.42,5,5,0,0,0-2.12.57l-.35-.87a5.64,5.64,0,0,1,1.21-.47,5.45,5.45,0,0,1,1.33-.17,2.83,2.83,0,0,1,2,.6,2.47,2.47,0,0,1,.65,1.9v5.12ZM53,14a2.35,2.35,0,0,0,1.67-.58,2.17,2.17,0,0,0,.6-1.63v-.68l-1.13.05a4.09,4.09,0,0,0-2,.42,1.27,1.27,0,0,0-.6,1.16,1.18,1.18,0,0,0,.37.94A1.58,1.58,0,0,0,53,14Z"/><path class="cls-2" d="M61.14,14a3.68,3.68,0,0,0,.58-.05l.44-.09v.87a2,2,0,0,1-.54.15,5.42,5.42,0,0,1-.65.05c-1.45,0-2.17-.76-2.17-2.29V8.16H57.72V7.61l1.08-.47.48-1.6h.65V7.27h2.18v.89H59.93v4.41a1.51,1.51,0,0,0,.32,1A1.11,1.11,0,0,0,61.14,14Z"/><path class="cls-2" d="M63.56,5.24a.78.78,0,0,1,.19-.57.68.68,0,0,1,.48-.18.64.64,0,0,1,.47.19.7.7,0,0,1,.2.56.71.71,0,0,1-.2.57.64.64,0,0,1-.47.19.65.65,0,0,1-.48-.19A.78.78,0,0,1,63.56,5.24Zm1.23,9.53H63.66V7.27h1.13Z"/><path class="cls-2" d="M68.84,14.77,66,7.27h1.21l1.62,4.45c.36,1,.57,1.71.64,2h0a15,15,0,0,1,.48-1.5c.27-.76.86-2.41,1.79-5H73l-2.84,7.5Z"/><path class="cls-2" d="M77.38,14.9a3.41,3.41,0,0,1-2.62-1,3.91,3.91,0,0,1-1-2.81,4.33,4.33,0,0,1,.89-2.88,3,3,0,0,1,2.39-1.06,2.84,2.84,0,0,1,2.23.92,3.56,3.56,0,0,1,.82,2.45v.72H75a3,3,0,0,0,.67,2,2.31,2.31,0,0,0,1.78.68,6.14,6.14,0,0,0,2.39-.5v1a5.79,5.79,0,0,1-1.14.37A6,6,0,0,1,77.38,14.9Zm-.31-6.81a1.84,1.84,0,0,0-1.44.59A2.65,2.65,0,0,0,75,10.3h3.92a2.49,2.49,0,0,0-.48-1.64A1.7,1.7,0,0,0,77.07,8.09Z"/><path class="cls-2" d="M85.88,4.77H88.7a5.33,5.33,0,0,1,2.88.6,2.09,2.09,0,0,1,.88,1.88A2.15,2.15,0,0,1,92,8.71a2.33,2.33,0,0,1-1.45.75v.07c1.52.26,2.28,1.06,2.28,2.39A2.54,2.54,0,0,1,91.89,14a3.78,3.78,0,0,1-2.53.76H85.88ZM87,9.05H89a3.18,3.18,0,0,0,1.77-.38,1.51,1.51,0,0,0,.54-1.31,1.32,1.32,0,0,0-.6-1.21,3.74,3.74,0,0,0-1.91-.37H87Zm0,1v3.74h2.08a3,3,0,0,0,1.82-.47,1.73,1.73,0,0,0,.62-1.47,1.56,1.56,0,0,0-.63-1.37A3.36,3.36,0,0,0,89,10Z"/><path class="cls-2" d="M99.38,14.77l-.22-1.07H99.1a3,3,0,0,1-1.12,1,3.32,3.32,0,0,1-1.39.25,2.5,2.5,0,0,1-1.74-.57,2.1,2.1,0,0,1-.64-1.63q0-2.28,3.63-2.38l1.28,0V9.81a1.9,1.9,0,0,0-.38-1.3,1.58,1.58,0,0,0-1.22-.42,5,5,0,0,0-2.12.57l-.34-.87a5.44,5.44,0,0,1,2.53-.64,2.85,2.85,0,0,1,2,.6,2.46,2.46,0,0,1,.64,1.9v5.12ZM96.82,14a2.31,2.31,0,0,0,1.66-.58,2.13,2.13,0,0,0,.61-1.63v-.68L98,11.13a4.09,4.09,0,0,0-2,.42,1.27,1.27,0,0,0-.6,1.16,1.18,1.18,0,0,0,.38.94A1.56,1.56,0,0,0,96.82,14Z"/><path class="cls-2" d="M107.69,14.77V9.92a2,2,0,0,0-.42-1.37A1.69,1.69,0,0,0,106,8.1a2.15,2.15,0,0,0-1.73.64,3.23,3.23,0,0,0-.54,2.1v3.93h-1.14V7.27h.92l.19,1h0a2.34,2.34,0,0,1,1-.86,3.23,3.23,0,0,1,1.4-.3,2.89,2.89,0,0,1,2,.65,2.77,2.77,0,0,1,.68,2.09v4.89Z"/><path class="cls-2" d="M112.28,10.93a11.74,11.74,0,0,1,.89-1.09l2.42-2.57h1.35l-3,3.2,3.25,4.3h-1.37l-2.65-3.54-.85.73v2.81h-1.13V4.13h1.13V9.77c0,.25,0,.64-.06,1.16Z"/><path class="cls-2" d="M118.41,5.24a.74.74,0,0,1,.19-.57.68.68,0,0,1,.48-.18.64.64,0,0,1,.47.19.73.73,0,0,1,.2.56.74.74,0,0,1-.2.57.64.64,0,0,1-.47.19.65.65,0,0,1-.48-.19A.74.74,0,0,1,118.41,5.24Zm1.23,9.53H118.5V7.27h1.14Z"/><path class="cls-2" d="M127.17,14.77V9.92a2,2,0,0,0-.42-1.37,1.68,1.68,0,0,0-1.3-.45,2.11,2.11,0,0,0-1.72.64,3.17,3.17,0,0,0-.55,2.1v3.93H122V7.27H123l.18,1h.06a2.26,2.26,0,0,1,1-.86,3.23,3.23,0,0,1,1.4-.3,2.85,2.85,0,0,1,2,.65,2.77,2.77,0,0,1,.69,2.09v4.89Z"/><path class="cls-2" d="M136.77,7.27V8l-1.39.17a2.24,2.24,0,0,1,.34.62,2.41,2.41,0,0,1,.15.87,2.22,2.22,0,0,1-.75,1.76,3,3,0,0,1-2.06.66,3.06,3.06,0,0,1-.63-.06,1.12,1.12,0,0,0-.73,1,.49.49,0,0,0,.26.45,1.75,1.75,0,0,0,.86.15h1.33a3,3,0,0,1,1.87.51,1.77,1.77,0,0,1,.65,1.49,2.13,2.13,0,0,1-1,1.9,5.36,5.36,0,0,1-2.91.65,3.91,3.91,0,0,1-2.26-.55,1.76,1.76,0,0,1-.8-1.54,1.73,1.73,0,0,1,.44-1.18,2.18,2.18,0,0,1,1.23-.68,1.23,1.23,0,0,1-.48-.4,1.1,1.1,0,0,1-.2-.64,1.2,1.2,0,0,1,.22-.72,2.46,2.46,0,0,1,.69-.59,2,2,0,0,1-.95-.82,2.41,2.41,0,0,1-.36-1.31A2.41,2.41,0,0,1,131,7.8a3,3,0,0,1,2.09-.66,3.9,3.9,0,0,1,1.06.13Zm-6,8.75a1,1,0,0,0,.52.93,2.82,2.82,0,0,0,1.47.31,4,4,0,0,0,2.11-.43,1.3,1.3,0,0,0,.69-1.15.93.93,0,0,0-.38-.85,2.88,2.88,0,0,0-1.41-.23h-1.36a1.84,1.84,0,0,0-1.21.36A1.35,1.35,0,0,0,130.79,16Zm.62-6.35a1.54,1.54,0,0,0,.44,1.19,1.78,1.78,0,0,0,1.24.41,1.45,1.45,0,0,0,1.66-1.62A1.49,1.49,0,0,0,133.07,8a1.67,1.67,0,0,0-1.23.44A1.7,1.7,0,0,0,131.41,9.67Z"/><path class="cls-2" d="M148.45,7.68a2.8,2.8,0,0,1-1,2.34,4.73,4.73,0,0,1-3,.82h-1.17v3.93h-1.17v-10h2.6Q148.45,4.77,148.45,7.68Zm-5.17,2.16h1a3.92,3.92,0,0,0,2.24-.5,1.84,1.84,0,0,0,.69-1.6,1.75,1.75,0,0,0-.65-1.48,3.42,3.42,0,0,0-2-.48h-1.3Z"/><path class="cls-2" d="M153.79,7.14a4.94,4.94,0,0,1,.9.08l-.16,1a3.79,3.79,0,0,0-.82-.1,2,2,0,0,0-1.56.74,2.68,2.68,0,0,0-.64,1.84v4h-1.14V7.27h.94l.13,1.39h.05a3.39,3.39,0,0,1,1-1.13A2.28,2.28,0,0,1,153.79,7.14Z"/><path class="cls-2" d="M162.55,11a4.1,4.1,0,0,1-.92,2.86,3.22,3.22,0,0,1-2.55,1,3.31,3.31,0,0,1-1.78-.47,3.12,3.12,0,0,1-1.21-1.35,4.78,4.78,0,0,1-.42-2.07,4.12,4.12,0,0,1,.92-2.85,3.23,3.23,0,0,1,2.54-1,3.19,3.19,0,0,1,2.5,1A4.1,4.1,0,0,1,162.55,11Zm-5.7,0a3.58,3.58,0,0,0,.57,2.19,2.28,2.28,0,0,0,3.38,0,3.47,3.47,0,0,0,.58-2.19,3.46,3.46,0,0,0-.58-2.17,2.32,2.32,0,0,0-3.39,0A3.53,3.53,0,0,0,156.85,11Z"/><path class="cls-2" d="M169.64,13.76h-.06a2.66,2.66,0,0,1-2.35,1.14,2.79,2.79,0,0,1-2.29-1,4.45,4.45,0,0,1-.81-2.86A4.51,4.51,0,0,1,165,8.16a3,3,0,0,1,4.62.09h.09l0-.54,0-.53v-3h1.14V14.77h-.93Zm-2.27.19a2.08,2.08,0,0,0,1.69-.63,3.18,3.18,0,0,0,.52-2V11a3.77,3.77,0,0,0-.53-2.27,2,2,0,0,0-1.69-.68,1.74,1.74,0,0,0-1.53.77,3.89,3.89,0,0,0-.53,2.19,3.71,3.71,0,0,0,.53,2.17A1.76,1.76,0,0,0,167.37,14Z"/><path class="cls-2" d="M174.19,7.27v4.86a1.94,1.94,0,0,0,.42,1.37,1.68,1.68,0,0,0,1.3.45,2.13,2.13,0,0,0,1.72-.64,3.27,3.27,0,0,0,.54-2.1V7.27h1.14v7.5h-.94l-.16-1h-.06a2.36,2.36,0,0,1-1,.85,3.17,3.17,0,0,1-1.41.29,2.84,2.84,0,0,1-2.05-.65,2.76,2.76,0,0,1-.68-2.07V7.27Z"/><path class="cls-2" d="M184.71,14.9a3.18,3.18,0,0,1-2.52-1,4.09,4.09,0,0,1-.89-2.83,4.28,4.28,0,0,1,.9-2.91,3.29,3.29,0,0,1,2.58-1,5.65,5.65,0,0,1,1.08.11,3.37,3.37,0,0,1,.85.28l-.35,1a5.66,5.66,0,0,0-.82-.25,4,4,0,0,0-.78-.1c-1.52,0-2.29,1-2.29,2.91a3.46,3.46,0,0,0,.56,2.12,1.92,1.92,0,0,0,1.65.74,5,5,0,0,0,1.92-.4v1A4.07,4.07,0,0,1,184.71,14.9Z"/><path class="cls-2" d="M190.8,14a3.68,3.68,0,0,0,.58-.05l.45-.09v.87a2.22,2.22,0,0,1-.55.15,5.27,5.27,0,0,1-.64.05c-1.45,0-2.18-.76-2.18-2.29V8.16h-1.07V7.61l1.07-.47.48-1.6h.66V7.27h2.17v.89H189.6v4.41a1.46,1.46,0,0,0,.32,1A1.09,1.09,0,0,0,190.8,14Z"/><path class="cls-2" d="M198.16,12.72a1.89,1.89,0,0,1-.78,1.62,3.73,3.73,0,0,1-2.19.56,4.71,4.71,0,0,1-2.33-.47v-1a6.16,6.16,0,0,0,1.16.43,5.15,5.15,0,0,0,1.2.16,2.67,2.67,0,0,0,1.36-.29.93.93,0,0,0,.48-.86,1,1,0,0,0-.38-.75,5.93,5.93,0,0,0-1.48-.74,6.83,6.83,0,0,1-1.48-.68,2,2,0,0,1-.66-.65,1.78,1.78,0,0,1-.22-.89,1.66,1.66,0,0,1,.75-1.44,3.41,3.41,0,0,1,2-.53,6,6,0,0,1,2.37.49l-.41.92a5.39,5.39,0,0,0-2-.46,2.36,2.36,0,0,0-1.22.25.79.79,0,0,0-.41.7.86.86,0,0,0,.16.51,1.37,1.37,0,0,0,.49.4,10.38,10.38,0,0,0,1.32.56,4.87,4.87,0,0,1,1.8,1A1.71,1.71,0,0,1,198.16,12.72Z"/><path class="cls-2" d="M208.25,14.77,208,13.7H208a3,3,0,0,1-1.11,1,3.36,3.36,0,0,1-1.39.25,2.51,2.51,0,0,1-1.75-.57,2.1,2.1,0,0,1-.63-1.63q0-2.28,3.63-2.38l1.27,0V9.81a1.9,1.9,0,0,0-.38-1.3,1.56,1.56,0,0,0-1.21-.42,4.93,4.93,0,0,0-2.12.57l-.35-.87a5.64,5.64,0,0,1,1.21-.47,5.43,5.43,0,0,1,1.32-.17,2.84,2.84,0,0,1,2,.6,2.46,2.46,0,0,1,.64,1.9v5.12Zm-2.57-.8a2.35,2.35,0,0,0,1.67-.58,2.17,2.17,0,0,0,.6-1.63v-.68l-1.13.05a4.1,4.1,0,0,0-2,.42,1.29,1.29,0,0,0-.59,1.16,1.18,1.18,0,0,0,.37.94A1.58,1.58,0,0,0,205.68,14Z"/><path class="cls-2" d="M216.55,14.77V9.92a2,2,0,0,0-.42-1.37,1.69,1.69,0,0,0-1.3-.45,2.15,2.15,0,0,0-1.73.64,3.23,3.23,0,0,0-.54,2.1v3.93h-1.14V7.27h.93l.18,1h.05a2.34,2.34,0,0,1,1-.86,3.23,3.23,0,0,1,1.4-.3,2.85,2.85,0,0,1,2,.65,2.77,2.77,0,0,1,.68,2.09v4.89Z"/><path class="cls-2" d="M225.12,13.76h-.07a2.65,2.65,0,0,1-2.35,1.14,2.76,2.76,0,0,1-2.28-1A4.39,4.39,0,0,1,219.6,11a4.51,4.51,0,0,1,.82-2.88,2.77,2.77,0,0,1,2.28-1A2.72,2.72,0,0,1,225,8.25h.09l0-.54,0-.53v-3h1.14V14.77h-.92Zm-2.27.19a2.07,2.07,0,0,0,1.68-.63,3.18,3.18,0,0,0,.52-2V11a3.7,3.7,0,0,0-.53-2.27,2,2,0,0,0-1.69-.68,1.74,1.74,0,0,0-1.52.77,3.81,3.81,0,0,0-.54,2.19,3.71,3.71,0,0,0,.53,2.17A1.78,1.78,0,0,0,222.85,14Z"/><path class="cls-2" d="M238,12.11a2.46,2.46,0,0,1-1,2.06,4.13,4.13,0,0,1-2.59.73,6.63,6.63,0,0,1-2.74-.45V13.32a6.76,6.76,0,0,0,1.34.41,7.19,7.19,0,0,0,1.44.15,2.86,2.86,0,0,0,1.75-.44,1.44,1.44,0,0,0,.59-1.22,1.55,1.55,0,0,0-.21-.85,1.88,1.88,0,0,0-.7-.62,9.44,9.44,0,0,0-1.49-.63,4.77,4.77,0,0,1-2-1.18,2.62,2.62,0,0,1-.6-1.79,2.23,2.23,0,0,1,.87-1.84,3.66,3.66,0,0,1,2.3-.68,6.67,6.67,0,0,1,2.74.55l-.36,1A6.16,6.16,0,0,0,235,5.67a2.35,2.35,0,0,0-1.44.39,1.32,1.32,0,0,0-.52,1.11,1.7,1.7,0,0,0,.19.85,1.74,1.74,0,0,0,.65.6,7.71,7.71,0,0,0,1.39.62,5.45,5.45,0,0,1,2.16,1.2A2.38,2.38,0,0,1,238,12.11Z"/><path class="cls-2" d="M243.08,14.9a3.41,3.41,0,0,1-2.62-1,3.91,3.91,0,0,1-1-2.81,4.39,4.39,0,0,1,.89-2.88,3,3,0,0,1,2.4-1.06,2.82,2.82,0,0,1,2.22.92,3.56,3.56,0,0,1,.82,2.45v.72h-5.16a3,3,0,0,0,.67,2,2.33,2.33,0,0,0,1.78.68,6.1,6.1,0,0,0,2.39-.5v1a5.93,5.93,0,0,1-1.13.37A6.12,6.12,0,0,1,243.08,14.9Zm-.31-6.81a1.84,1.84,0,0,0-1.44.59,2.71,2.71,0,0,0-.63,1.62h3.92a2.49,2.49,0,0,0-.48-1.64A1.68,1.68,0,0,0,242.77,8.09Z"/><path class="cls-2" d="M251.19,7.14a4.74,4.74,0,0,1,.89.08l-.15,1a3.79,3.79,0,0,0-.82-.1,2,2,0,0,0-1.56.74,2.68,2.68,0,0,0-.64,1.84v4h-1.14V7.27h.94l.13,1.39h0a3.28,3.28,0,0,1,1-1.13A2.28,2.28,0,0,1,251.19,7.14Z"/><path class="cls-2" d="M255.13,14.77l-2.85-7.5h1.22l1.61,4.45a18.4,18.4,0,0,1,.64,2h.06c.05-.24.21-.74.47-1.5s.87-2.41,1.8-5h1.22l-2.85,7.5Z"/><path class="cls-2" d="M260.4,5.24a.78.78,0,0,1,.19-.57.68.68,0,0,1,.48-.18.64.64,0,0,1,.47.19.7.7,0,0,1,.2.56.71.71,0,0,1-.2.57.64.64,0,0,1-.47.19.65.65,0,0,1-.48-.19A.78.78,0,0,1,260.4,5.24Zm1.23,9.53H260.5V7.27h1.13Z"/><path class="cls-2" d="M267,14.9a3.2,3.2,0,0,1-2.52-1,4.14,4.14,0,0,1-.89-2.83,4.23,4.23,0,0,1,.91-2.91,3.26,3.26,0,0,1,2.58-1,5.65,5.65,0,0,1,1.08.11,3.51,3.51,0,0,1,.85.28l-.35,1a6.07,6.07,0,0,0-.82-.25,4.15,4.15,0,0,0-.79-.1q-2.28,0-2.28,2.91a3.39,3.39,0,0,0,.56,2.12,1.92,1.92,0,0,0,1.65.74,5,5,0,0,0,1.92-.4v1A4.12,4.12,0,0,1,267,14.9Z"/><path class="cls-2" d="M273.87,14.9a3.41,3.41,0,0,1-2.62-1,3.91,3.91,0,0,1-1-2.81,4.33,4.33,0,0,1,.89-2.88,3,3,0,0,1,2.4-1.06,2.83,2.83,0,0,1,2.22.92,3.56,3.56,0,0,1,.82,2.45v.72h-5.16a3,3,0,0,0,.67,2,2.33,2.33,0,0,0,1.78.68,6.14,6.14,0,0,0,2.39-.5v1a5.93,5.93,0,0,1-1.13.37A6.12,6.12,0,0,1,273.87,14.9Zm-.31-6.81a1.84,1.84,0,0,0-1.44.59,2.65,2.65,0,0,0-.63,1.62h3.92a2.49,2.49,0,0,0-.48-1.64A1.68,1.68,0,0,0,273.56,8.09Z"/><path class="cls-2" d="M283.39,12.72a1.89,1.89,0,0,1-.78,1.62,3.73,3.73,0,0,1-2.19.56,4.7,4.7,0,0,1-2.32-.47v-1a6.16,6.16,0,0,0,1.16.43,5.07,5.07,0,0,0,1.19.16,2.69,2.69,0,0,0,1.37-.29.93.93,0,0,0,.48-.86,1,1,0,0,0-.38-.75,6.12,6.12,0,0,0-1.48-.74,7.21,7.21,0,0,1-1.49-.68,2,2,0,0,1-.65-.65,1.68,1.68,0,0,1-.22-.89,1.66,1.66,0,0,1,.75-1.44,3.39,3.39,0,0,1,2-.53,6,6,0,0,1,2.37.49l-.41.92a5.39,5.39,0,0,0-2-.46,2.34,2.34,0,0,0-1.22.25.83.83,0,0,0-.25,1.21,1.37,1.37,0,0,0,.49.4,10.73,10.73,0,0,0,1.31.56,4.78,4.78,0,0,1,1.8,1A1.67,1.67,0,0,1,283.39,12.72Z"/><path class="cls-3" d="M4.82,61.55a1.69,1.69,0,0,0,.33,0,1.33,1.33,0,0,0,.26-.05V62a1.37,1.37,0,0,1-.31.08l-.37,0c-.83,0-1.24-.43-1.24-1.31V58.23H2.87v-.31l.62-.27.27-.92h.37v1H5.38v.51H4.13v2.52a.87.87,0,0,0,.19.59A.63.63,0,0,0,4.82,61.55Z"/><path class="cls-3" d="M8.22,57.65a2.64,2.64,0,0,1,.51,0l-.09.6a3,3,0,0,0-.47,0,1.15,1.15,0,0,0-.89.42,1.51,1.51,0,0,0-.37,1.05V62H6.26V57.72H6.8l.07.8h0a1.85,1.85,0,0,1,.58-.65A1.29,1.29,0,0,1,8.22,57.65Z"/><path class="cls-3" d="M12.16,62,12,61.4h0a1.81,1.81,0,0,1-.64.54,1.86,1.86,0,0,1-.79.14,1.46,1.46,0,0,1-1-.32,1.21,1.21,0,0,1-.36-.94c0-.86.69-1.32,2.07-1.36l.73,0v-.27a1.06,1.06,0,0,0-.22-.74.87.87,0,0,0-.69-.24,2.8,2.8,0,0,0-1.21.33l-.2-.5a3.54,3.54,0,0,1,.69-.27,3.23,3.23,0,0,1,.76-.1,1.64,1.64,0,0,1,1.13.34,1.41,1.41,0,0,1,.37,1.09V62Zm-1.46-.46a1.32,1.32,0,0,0,1-.33,1.22,1.22,0,0,0,.34-.93V59.9l-.65,0a2.41,2.41,0,0,0-1.11.24.71.71,0,0,0-.34.66.66.66,0,0,0,.21.53A.85.85,0,0,0,10.7,61.55Z"/><path class="cls-3" d="M16.91,62V59.24a1.15,1.15,0,0,0-.24-.79,1,1,0,0,0-.75-.25,1.23,1.23,0,0,0-1,.36,1.82,1.82,0,0,0-.31,1.2V62H14V57.72h.52l.11.59h0a1.34,1.34,0,0,1,.56-.49,1.77,1.77,0,0,1,.8-.17,1.64,1.64,0,0,1,1.17.37,1.59,1.59,0,0,1,.39,1.19V62Z"/><path class="cls-3" d="M21.65,60.84a1.07,1.07,0,0,1-.45.92,2,2,0,0,1-1.25.32,2.68,2.68,0,0,1-1.32-.27v-.6a2.74,2.74,0,0,0,.66.25,2.71,2.71,0,0,0,.68.09,1.62,1.62,0,0,0,.78-.16.55.55,0,0,0,.27-.5.56.56,0,0,0-.21-.43A4.36,4.36,0,0,0,20,60a4.22,4.22,0,0,1-.85-.38,1.2,1.2,0,0,1-.37-.38,1,1,0,0,1-.13-.51A1,1,0,0,1,19,58a2,2,0,0,1,1.17-.3,3.37,3.37,0,0,1,1.35.28l-.23.52a3.23,3.23,0,0,0-1.17-.26,1.37,1.37,0,0,0-.69.14.45.45,0,0,0-.24.4.46.46,0,0,0,.09.29.86.86,0,0,0,.28.24,7.71,7.71,0,0,0,.75.31,2.84,2.84,0,0,1,1,.56A1,1,0,0,1,21.65,60.84Z"/><path class="cls-3" d="M25.34,62l-.13-.61h0a1.58,1.58,0,0,1-1.44.68,1.45,1.45,0,0,1-1-.32,1.18,1.18,0,0,1-.37-.94c0-.86.7-1.32,2.08-1.36l.72,0v-.27a1.11,1.11,0,0,0-.21-.74.91.91,0,0,0-.7-.24,2.83,2.83,0,0,0-1.21.33l-.2-.5a3.91,3.91,0,0,1,.7-.27,3.22,3.22,0,0,1,.75-.1,1.69,1.69,0,0,1,1.14.34,1.45,1.45,0,0,1,.37,1.09V62Zm-1.47-.46a1.31,1.31,0,0,0,.95-.33,1.23,1.23,0,0,0,.35-.93V59.9l-.65,0a2.34,2.34,0,0,0-1.11.24.72.72,0,0,0-.35.66.64.64,0,0,0,.22.53A.84.84,0,0,0,23.87,61.55Z"/><path class="cls-3" d="M28.86,62.08a1.83,1.83,0,0,1-1.44-.57,2.35,2.35,0,0,1-.5-1.62,2.46,2.46,0,0,1,.51-1.66,1.88,1.88,0,0,1,1.48-.58,3.15,3.15,0,0,1,.61.06,2.34,2.34,0,0,1,.49.16l-.2.55a2.15,2.15,0,0,0-.47-.14,2,2,0,0,0-.45-.06c-.87,0-1.3.55-1.3,1.66a2,2,0,0,0,.32,1.22,1.1,1.1,0,0,0,.94.42,3,3,0,0,0,1.1-.23v.57A2.35,2.35,0,0,1,28.86,62.08Z"/><path class="cls-3" d="M32.34,61.55a1.87,1.87,0,0,0,.34,0l.25-.05V62a1.23,1.23,0,0,1-.31.08l-.37,0c-.83,0-1.24-.43-1.24-1.31V58.23H30.4v-.31l.61-.27.27-.92h.38v1H32.9v.51H31.66v2.52a.87.87,0,0,0,.18.59A.63.63,0,0,0,32.34,61.55Z"/><path class="cls-3" d="M33.73,56.56a.44.44,0,0,1,.11-.32.39.39,0,0,1,.54,0,.41.41,0,0,1,.12.32.42.42,0,0,1-.12.33.39.39,0,0,1-.54,0A.45.45,0,0,1,33.73,56.56Zm.7,5.45h-.64V57.72h.64Z"/><path class="cls-3" d="M39.5,59.86A2.39,2.39,0,0,1,39,61.5a1.86,1.86,0,0,1-1.46.58,1.94,1.94,0,0,1-1-.27,1.73,1.73,0,0,1-.69-.77,2.73,2.73,0,0,1-.24-1.18,2.4,2.4,0,0,1,.52-1.63,2.08,2.08,0,0,1,2.89,0A2.37,2.37,0,0,1,39.5,59.86Zm-3.26,0a2,2,0,0,0,.33,1.25,1.3,1.3,0,0,0,1.93,0,2.51,2.51,0,0,0,0-2.49,1.33,1.33,0,0,0-1.93,0A2,2,0,0,0,36.24,59.86Z"/><path class="cls-3" d="M43.57,62V59.24a1.15,1.15,0,0,0-.24-.79,1,1,0,0,0-.74-.25,1.25,1.25,0,0,0-1,.36,1.82,1.82,0,0,0-.31,1.2V62h-.65V57.72h.53l.1.59h0a1.38,1.38,0,0,1,.55-.49,1.78,1.78,0,0,1,.81-.17,1.62,1.62,0,0,1,1.16.37,1.59,1.59,0,0,1,.39,1.19V62Z"/><path class="cls-3" d="M48.31,60.84a1.06,1.06,0,0,1-.44.92,2.09,2.09,0,0,1-1.25.32,2.72,2.72,0,0,1-1.33-.27v-.6a3.09,3.09,0,0,0,.66.25,2.83,2.83,0,0,0,.68.09,1.7,1.7,0,0,0,.79-.16.55.55,0,0,0,.27-.5.54.54,0,0,0-.22-.43,4.2,4.2,0,0,0-.84-.42,4,4,0,0,1-.85-.38,1.25,1.25,0,0,1-.38-.38,1,1,0,0,1-.12-.51A1,1,0,0,1,45.7,58a2,2,0,0,1,1.17-.3,3.37,3.37,0,0,1,1.35.28l-.23.52a3.23,3.23,0,0,0-1.16-.26,1.44,1.44,0,0,0-.7.14.44.44,0,0,0-.23.4A.45.45,0,0,0,46,59a.9.9,0,0,0,.29.24,7.71,7.71,0,0,0,.75.31,2.93,2.93,0,0,1,1,.56A1,1,0,0,1,48.31,60.84Z"/><path class="cls-3" d="M56.9,62V59.22a1.14,1.14,0,0,0-.22-.77A.83.83,0,0,0,56,58.2a1.09,1.09,0,0,0-.89.34,1.69,1.69,0,0,0-.29,1.07V62h-.65V59.22a1.14,1.14,0,0,0-.22-.77.83.83,0,0,0-.68-.25,1.06,1.06,0,0,0-.89.36,2,2,0,0,0-.29,1.2V62h-.64V57.72H52l.11.59h0a1.29,1.29,0,0,1,.52-.49,1.54,1.54,0,0,1,.75-.17,1.28,1.28,0,0,1,1.31.72h0a1.4,1.4,0,0,1,.55-.53,1.75,1.75,0,0,1,.83-.19,1.44,1.44,0,0,1,1.09.37,1.68,1.68,0,0,1,.36,1.19V62Z"/><path class="cls-3" d="M61.52,62l-.13-.61h0a1.81,1.81,0,0,1-.64.54,1.86,1.86,0,0,1-.79.14,1.46,1.46,0,0,1-1-.32,1.21,1.21,0,0,1-.36-.94c0-.86.69-1.32,2.07-1.36l.73,0v-.27a1.06,1.06,0,0,0-.22-.74.87.87,0,0,0-.69-.24,2.8,2.8,0,0,0-1.21.33l-.2-.5a3.54,3.54,0,0,1,.69-.27,3.23,3.23,0,0,1,.76-.1,1.64,1.64,0,0,1,1.13.34A1.41,1.41,0,0,1,62,59.08V62Zm-1.46-.46a1.32,1.32,0,0,0,.95-.33,1.22,1.22,0,0,0,.34-.93V59.9l-.65,0a2.41,2.41,0,0,0-1.11.24.71.71,0,0,0-.34.66.66.66,0,0,0,.21.53A.85.85,0,0,0,60.06,61.55Z"/><path class="cls-3" d="M66.25,61.43h0a1.52,1.52,0,0,1-1.35.65,1.58,1.58,0,0,1-1.3-.57,2.47,2.47,0,0,1-.47-1.63,2.53,2.53,0,0,1,.47-1.65,1.74,1.74,0,0,1,2.64.05h.05l0-.31v-2h.64V62h-.52Zm-1.3.11a1.19,1.19,0,0,0,1-.36,1.82,1.82,0,0,0,.3-1.17v-.13a2.09,2.09,0,0,0-.31-1.3,1.13,1.13,0,0,0-1-.39,1,1,0,0,0-.88.44,2.24,2.24,0,0,0-.3,1.25,2.12,2.12,0,0,0,.3,1.24A1,1,0,0,0,65,61.54Z"/><path class="cls-3" d="M70.05,62.08a2,2,0,0,1-1.5-.57A2.25,2.25,0,0,1,68,59.9a2.46,2.46,0,0,1,.51-1.64,1.69,1.69,0,0,1,1.37-.61,1.58,1.58,0,0,1,1.27.53,2,2,0,0,1,.47,1.39V60h-3a1.76,1.76,0,0,0,.38,1.15,1.32,1.32,0,0,0,1,.39,3.51,3.51,0,0,0,1.37-.29v.58a3.25,3.25,0,0,1-.65.21A4,4,0,0,1,70.05,62.08Zm-.18-3.89a1.06,1.06,0,0,0-.82.33,1.57,1.57,0,0,0-.36.93h2.24a1.36,1.36,0,0,0-.28-.93A1,1,0,0,0,69.87,58.19Z"/><path class="cls-3" d="M4.82,70.55a1.69,1.69,0,0,0,.33,0,1.33,1.33,0,0,0,.26,0V71a1.37,1.37,0,0,1-.31.08l-.37,0c-.83,0-1.24-.43-1.24-1.31V67.23H2.87v-.31l.62-.27.27-.92h.37v1H5.38v.51H4.13v2.52a.87.87,0,0,0,.19.59A.63.63,0,0,0,4.82,70.55Z"/><path class="cls-3" d="M9.19,71V68.24A1.15,1.15,0,0,0,9,67.45a1,1,0,0,0-.74-.25,1.25,1.25,0,0,0-1,.36,1.87,1.87,0,0,0-.31,1.21V71H6.26V64.93h.65v1.84a4.22,4.22,0,0,1,0,.55h0a1.35,1.35,0,0,1,.54-.49,1.79,1.79,0,0,1,.81-.18A1.66,1.66,0,0,1,9.45,67a1.57,1.57,0,0,1,.39,1.18V71Z"/><path class="cls-3" d="M13.13,66.65a2.64,2.64,0,0,1,.51,0l-.09.6a3,3,0,0,0-.47-.05,1.15,1.15,0,0,0-.89.42,1.51,1.51,0,0,0-.37,1V71h-.65V66.72h.54l.07.8h0a1.85,1.85,0,0,1,.58-.65A1.29,1.29,0,0,1,13.13,66.65Z"/><path class="cls-3" d="M18.13,68.86a2.39,2.39,0,0,1-.52,1.64,1.88,1.88,0,0,1-1.46.58,1.94,1.94,0,0,1-1-.27,1.73,1.73,0,0,1-.69-.77,2.73,2.73,0,0,1-.24-1.18,2.4,2.4,0,0,1,.52-1.63,1.86,1.86,0,0,1,1.46-.58,1.81,1.81,0,0,1,1.42.59A2.33,2.33,0,0,1,18.13,68.86Zm-3.26,0a2,2,0,0,0,.33,1.25,1.3,1.3,0,0,0,1.93,0,2.51,2.51,0,0,0,0-2.49,1.33,1.33,0,0,0-1.93,0A2,2,0,0,0,14.87,68.86Z"/><path class="cls-3" d="M19.88,66.72V69.5a1.1,1.1,0,0,0,.24.78,1,1,0,0,0,.74.26,1.22,1.22,0,0,0,1-.37,1.88,1.88,0,0,0,.31-1.2V66.72h.65V71h-.54l-.09-.58h0a1.38,1.38,0,0,1-.55.49,1.92,1.92,0,0,1-.81.16,1.63,1.63,0,0,1-1.17-.37,1.58,1.58,0,0,1-.39-1.19v-2.8Z"/><path class="cls-3" d="M27.68,66.72v.41l-.79.1a1.32,1.32,0,0,1,.28.85,1.27,1.27,0,0,1-.43,1,1.72,1.72,0,0,1-1.18.37,2.19,2.19,0,0,1-.36,0,.65.65,0,0,0-.41.55.28.28,0,0,0,.14.26,1,1,0,0,0,.5.09h.76a1.68,1.68,0,0,1,1.07.29,1,1,0,0,1,.37.85,1.2,1.2,0,0,1-.57,1.08,3,3,0,0,1-1.66.38,2.27,2.27,0,0,1-1.3-.32,1,1,0,0,1-.45-.88,1,1,0,0,1,.25-.67,1.27,1.27,0,0,1,.7-.39.77.77,0,0,1-.28-.23.66.66,0,0,1-.11-.36.63.63,0,0,1,.13-.41,1.22,1.22,0,0,1,.39-.34,1.22,1.22,0,0,1-.54-.47A1.53,1.53,0,0,1,24.4,67a1.7,1.7,0,0,1,1.2-.38,2.25,2.25,0,0,1,.6.07Zm-3.41,5a.58.58,0,0,0,.29.53,1.64,1.64,0,0,0,.84.18,2.36,2.36,0,0,0,1.21-.24.77.77,0,0,0,.39-.67.53.53,0,0,0-.21-.48,1.67,1.67,0,0,0-.81-.13H25.2a1,1,0,0,0-.68.21A.73.73,0,0,0,24.27,71.72Zm.35-3.62a.86.86,0,0,0,.26.67,1,1,0,0,0,.7.24.83.83,0,0,0,1-.93.85.85,0,0,0-1-1,1,1,0,0,0-.7.24A1,1,0,0,0,24.62,68.1Z"/><path class="cls-3" d="M31.49,71V68.24a1.15,1.15,0,0,0-.24-.79,1,1,0,0,0-.74-.25,1.25,1.25,0,0,0-1,.36,1.93,1.93,0,0,0-.31,1.21V71h-.65V64.93h.65v1.84a4.22,4.22,0,0,1,0,.55h0a1.35,1.35,0,0,1,.54-.49,1.79,1.79,0,0,1,.81-.18,1.66,1.66,0,0,1,1.18.38,1.57,1.57,0,0,1,.39,1.18V71Z"/><path class="cls-3" d="M3.54,74.29H5.15a3.06,3.06,0,0,1,1.64.34,1.21,1.21,0,0,1,.51,1.08,1.24,1.24,0,0,1-.28.84,1.35,1.35,0,0,1-.83.42v0c.87.15,1.3.61,1.3,1.37A1.49,1.49,0,0,1,7,79.58,2.26,2.26,0,0,1,5.53,80h-2Zm.66,2.45H5.29a1.8,1.8,0,0,0,1-.22.88.88,0,0,0,.3-.75.74.74,0,0,0-.34-.69,2.16,2.16,0,0,0-1.09-.21h-1Zm0,.56v2.14H5.39a1.68,1.68,0,0,0,1-.27,1,1,0,0,0,.35-.84.89.89,0,0,0-.36-.78,1.93,1.93,0,0,0-1.08-.25Z"/><path class="cls-3" d="M13.28,77.1a2.89,2.89,0,0,1-.77,2.16A3,3,0,0,1,10.3,80H8.72V74.29h1.75a2.8,2.8,0,0,1,2.07.74A2.8,2.8,0,0,1,13.28,77.1Zm-.7,0A2.25,2.25,0,0,0,12,75.44a2.21,2.21,0,0,0-1.66-.57h-1v4.56h.81A2.47,2.47,0,0,0,12,78.85,2.32,2.32,0,0,0,12.58,77.12Z"/><path class="cls-3" d="M19.51,77.14a3.17,3.17,0,0,1-.69,2.16,2.47,2.47,0,0,1-1.93.78,2.46,2.46,0,0,1-2-.77,3.15,3.15,0,0,1-.69-2.18A3.11,3.11,0,0,1,14.94,75a2.5,2.5,0,0,1,2-.77,2.4,2.4,0,0,1,1.92.79A3.14,3.14,0,0,1,19.51,77.14Zm-4.55,0a2.7,2.7,0,0,0,.49,1.76,1.76,1.76,0,0,0,1.44.6,1.73,1.73,0,0,0,1.43-.6,3.39,3.39,0,0,0,0-3.51,1.73,1.73,0,0,0-1.42-.59,1.77,1.77,0,0,0-1.45.6A2.67,2.67,0,0,0,15,77.14Z"/><path class="cls-3" d="M21.2,74.29l.06.09a7.68,7.68,0,0,1-.29.91c-.13.34-.26.66-.4,1h-.48a18,18,0,0,0,.4-2Z"/><path class="cls-3" d="M24.81,78.84a1.07,1.07,0,0,1-.45.92,2.07,2.07,0,0,1-1.25.32,2.72,2.72,0,0,1-1.33-.27v-.6a3.09,3.09,0,0,0,.66.25,2.84,2.84,0,0,0,.69.09,1.68,1.68,0,0,0,.78-.16.55.55,0,0,0,.27-.5.54.54,0,0,0-.22-.43,3.92,3.92,0,0,0-.84-.42,4.22,4.22,0,0,1-.85-.38,1.37,1.37,0,0,1-.38-.38,1,1,0,0,1-.12-.51A1,1,0,0,1,22.2,76a2,2,0,0,1,1.16-.3,3.38,3.38,0,0,1,1.36.28l-.23.52a3.23,3.23,0,0,0-1.17-.26,1.44,1.44,0,0,0-.7.14.46.46,0,0,0-.23.4.46.46,0,0,0,.09.29.76.76,0,0,0,.28.24,7.71,7.71,0,0,0,.75.31,2.84,2.84,0,0,1,1,.56A1,1,0,0,1,24.81,78.84Z"/><path class="cls-3" d="M30.48,74.81a1.87,1.87,0,0,0-1.48.62,2.5,2.5,0,0,0-.55,1.72A2.57,2.57,0,0,0,29,78.88a1.85,1.85,0,0,0,1.49.61,5.26,5.26,0,0,0,1.37-.21v.58a4.22,4.22,0,0,1-1.47.22,2.49,2.49,0,0,1-1.95-.76,3.2,3.2,0,0,1-.68-2.18,3.39,3.39,0,0,1,.33-1.54,2.37,2.37,0,0,1,.95-1,2.91,2.91,0,0,1,1.47-.36,3.52,3.52,0,0,1,1.57.33l-.28.57A3.08,3.08,0,0,0,30.48,74.81Z"/><path class="cls-3" d="M36.67,80,36,78.19H33.67L33,80H32.3l2.26-5.74h.55L37.36,80Zm-.92-2.42-.66-1.77a8.11,8.11,0,0,1-.26-.82,7.35,7.35,0,0,1-.25.82l-.67,1.77Z"/><path class="cls-3" d="M41.37,78.49a1.38,1.38,0,0,1-.55,1.17,2.37,2.37,0,0,1-1.48.42,3.68,3.68,0,0,1-1.57-.26v-.64a4.34,4.34,0,0,0,.77.24,4.65,4.65,0,0,0,.82.08,1.64,1.64,0,0,0,1-.25.84.84,0,0,0,.34-.7.91.91,0,0,0-.12-.49,1.18,1.18,0,0,0-.4-.35,6,6,0,0,0-.85-.36,2.75,2.75,0,0,1-1.14-.68,1.48,1.48,0,0,1-.34-1,1.26,1.26,0,0,1,.49-1.05,2.09,2.09,0,0,1,1.32-.39,4,4,0,0,1,1.56.31l-.2.58a3.72,3.72,0,0,0-1.38-.29,1.33,1.33,0,0,0-.82.22.74.74,0,0,0-.3.63,1,1,0,0,0,.11.49,1.14,1.14,0,0,0,.37.35,5.35,5.35,0,0,0,.79.35,3.22,3.22,0,0,1,1.24.68A1.36,1.36,0,0,1,41.37,78.49Z"/><path class="cls-3" d="M46.87,80h-.66V77.32h-3V80h-.66V74.29h.66v2.43h3V74.29h.66Z"/><path class="cls-3" d="M54.11,80l-.71-1.82H51.11L50.4,80h-.67L52,74.27h.56L54.79,80Zm-.92-2.42-.67-1.77c-.08-.22-.17-.5-.26-.82a7.35,7.35,0,0,1-.25.82l-.67,1.77Z"/><path class="cls-3" d="M58.09,77H60v2.78a5.86,5.86,0,0,1-.92.22,7,7,0,0,1-1.09.07,2.63,2.63,0,0,1-2-.77,3,3,0,0,1-.72-2.16,3.27,3.27,0,0,1,.36-1.56,2.36,2.36,0,0,1,1-1,3.28,3.28,0,0,1,1.57-.36,4.25,4.25,0,0,1,1.71.34l-.26.58a4,4,0,0,0-1.49-.32,2.1,2.1,0,0,0-1.63.62,2.93,2.93,0,0,0,0,3.47,2.18,2.18,0,0,0,1.66.6,4.55,4.55,0,0,0,1.16-.14V77.61H58.09Z"/><path class="cls-3" d="M65,80l-.71-1.82H62L61.29,80h-.67l2.26-5.74h.55L65.68,80Zm-.91-2.42-.67-1.77c-.08-.22-.17-.5-.26-.82a7.35,7.35,0,0,1-.25.82l-.67,1.77Z"/><path class="cls-3" d="M71,77.1a2.89,2.89,0,0,1-.76,2.16,3,3,0,0,1-2.21.75H66.47V74.29h1.75a2.83,2.83,0,0,1,2.07.74A2.8,2.8,0,0,1,71,77.1Zm-.7,0a2.29,2.29,0,0,0-.56-1.68,2.24,2.24,0,0,0-1.67-.57h-1v4.56h.81a2.43,2.43,0,0,0,1.78-.58A2.32,2.32,0,0,0,70.32,77.12Z"/><path class="cls-1" d="M14.8,53.28H3.07V51.53l4.7-4.72a35.57,35.57,0,0,0,2.83-3.1,7.77,7.77,0,0,0,1-1.81A5.16,5.16,0,0,0,12,40a3,3,0,0,0-.87-2.27,3.36,3.36,0,0,0-2.41-.83,6.1,6.1,0,0,0-2.1.36A8.81,8.81,0,0,0,4.37,38.6L3.3,37.22a8.25,8.25,0,0,1,5.37-2,5.65,5.65,0,0,1,3.94,1.29A4.44,4.44,0,0,1,14,39.92a6.75,6.75,0,0,1-.95,3.36,21.1,21.1,0,0,1-3.57,4.2L5.62,51.3v.1H14.8Z"/><path class="cls-1" d="M24.87,53.28h-2V40.56c0-1.06,0-2.06.1-3-.17.18-.36.35-.57.54s-1.18,1-2.91,2.38l-1.07-1.39,4.72-3.65h1.71Z"/><path class="cls-1" d="M32.29,52a1.87,1.87,0,0,1,.37-1.24,1.36,1.36,0,0,1,1.07-.42,1.47,1.47,0,0,1,1.11.42A1.77,1.77,0,0,1,35.23,52a1.69,1.69,0,0,1-.4,1.22,1.42,1.42,0,0,1-1.1.43,1.47,1.47,0,0,1-1-.38A1.7,1.7,0,0,1,32.29,52Z"/><path class="cls-1" d="M50,43.05q0,10.47-8.11,10.47a8.34,8.34,0,0,1-2.24-.24V51.53a7.21,7.21,0,0,0,2.22.32A5.45,5.45,0,0,0,46.34,50,9.24,9.24,0,0,0,48,44.48h-.15A4.36,4.36,0,0,1,46,46a5.81,5.81,0,0,1-2.51.53,5,5,0,0,1-3.76-1.42,5.42,5.42,0,0,1-1.39-4,6,6,0,0,1,1.56-4.39,5.92,5.92,0,0,1,7.27-.68,5.9,5.9,0,0,1,2.1,2.72A11.06,11.06,0,0,1,50,43.05Zm-6-6.14A3.32,3.32,0,0,0,41.34,38a4.67,4.67,0,0,0-1,3.13,4.08,4.08,0,0,0,.88,2.76,3.38,3.38,0,0,0,2.68,1,4.62,4.62,0,0,0,2-.45,3.82,3.82,0,0,0,1.47-1.24A2.81,2.81,0,0,0,48,41.61a5.62,5.62,0,0,0-.5-2.37,4.1,4.1,0,0,0-1.4-1.71A3.48,3.48,0,0,0,44,36.91Z"/><path class="cls-1" d="M61.73,53.28l-6-15.82h-.1c.12,1.25.17,2.74.17,4.46V53.28H53.84V35.43H57l5.65,14.72h.1l5.7-14.72h3.1V53.28H69.44V41.78c0-1.32,0-2.75.17-4.3h-.1l-6.1,15.8Z"/><path class="cls-1" d="M81.92,43.62h5v1.69h-5v5.2H80.23v-5.2h-5V43.62h5V38.4h1.69Z"/><path class="cls-3" d="M104.69,62.67V59.9a1.1,1.1,0,0,0-.24-.78,1,1,0,0,0-.74-.26,1.25,1.25,0,0,0-1,.36,1.92,1.92,0,0,0-.31,1.2v2.25h-.65V58.39h.53l.11.58h0a1.34,1.34,0,0,1,.56-.49,1.88,1.88,0,0,1,.8-.17,1.36,1.36,0,0,1,1.55,1.57v2.79Z"/><path class="cls-3" d="M108.48,62.75a2,2,0,0,1-1.5-.58,2.27,2.27,0,0,1-.54-1.61,2.47,2.47,0,0,1,.5-1.64,1.69,1.69,0,0,1,1.37-.61,1.64,1.64,0,0,1,1.28.53,2,2,0,0,1,.47,1.4v.41h-3a1.68,1.68,0,0,0,.38,1.14,1.32,1.32,0,0,0,1,.39,3.46,3.46,0,0,0,1.36-.29v.58a3.06,3.06,0,0,1-.65.21A3.15,3.15,0,0,1,108.48,62.75Zm-.17-3.9a1.06,1.06,0,0,0-.83.34,1.58,1.58,0,0,0-.36.93h2.24a1.44,1.44,0,0,0-.27-.94A1,1,0,0,0,108.31,58.85Z"/><path class="cls-3" d="M114.66,62.67l-.79-2.51c-.05-.16-.14-.5-.27-1h0c-.1.46-.19.81-.27,1.06l-.81,2.5h-.75l-1.17-4.28h.68q.42,1.61.63,2.46a8.9,8.9,0,0,1,.25,1.13h0c0-.15.08-.34.14-.57s.12-.43.17-.56l.78-2.46H114l.76,2.46A7.35,7.35,0,0,1,115,62h0c0-.09,0-.23.08-.43s.32-1.25.82-3.15h.67l-1.18,4.28Z"/><path class="cls-3" d="M119.56,57h1.61a3,3,0,0,1,1.65.34,1.18,1.18,0,0,1,.51,1.07,1.24,1.24,0,0,1-.29.84,1.38,1.38,0,0,1-.82.43v0c.86.15,1.3.6,1.3,1.36a1.5,1.5,0,0,1-.52,1.2,2.2,2.2,0,0,1-1.45.43h-2Zm.66,2.44h1.1a1.76,1.76,0,0,0,1-.22.82.82,0,0,0,.31-.74.75.75,0,0,0-.35-.69,2,2,0,0,0-1.09-.22h-1Zm0,.57V62.1h1.2a1.77,1.77,0,0,0,1-.26,1,1,0,0,0,.35-.84.87.87,0,0,0-.36-.78,1.89,1.89,0,0,0-1.09-.25Z"/><path class="cls-3" d="M129.3,59.76a2.89,2.89,0,0,1-.76,2.16,3,3,0,0,1-2.21.75h-1.59V57h1.75a2.57,2.57,0,0,1,2.81,2.8Zm-.7,0A2.32,2.32,0,0,0,128,58.1a2.24,2.24,0,0,0-1.67-.57h-1V62.1h.81a2.45,2.45,0,0,0,1.78-.59A2.3,2.3,0,0,0,128.6,59.78Z"/><path class="cls-3" d="M135.53,59.81a3.14,3.14,0,0,1-.69,2.15,2.41,2.41,0,0,1-1.93.79A2.49,2.49,0,0,1,131,62a3.22,3.22,0,0,1-.68-2.18,3.11,3.11,0,0,1,.69-2.16,2.8,2.8,0,0,1,3.87,0A3.15,3.15,0,0,1,135.53,59.81Zm-4.55,0a2.71,2.71,0,0,0,.5,1.76,1.74,1.74,0,0,0,1.43.6,1.76,1.76,0,0,0,1.44-.6,2.78,2.78,0,0,0,.48-1.76,2.74,2.74,0,0,0-.48-1.75,1.73,1.73,0,0,0-1.43-.6,1.76,1.76,0,0,0-1.44.6A2.68,2.68,0,0,0,131,59.81Z"/><path class="cls-3" d="M140.5,62.75a1.83,1.83,0,0,1-1.44-.57,2.87,2.87,0,0,1,0-3.28,1.85,1.85,0,0,1,1.47-.59,2.62,2.62,0,0,1,.62.07,1.82,1.82,0,0,1,.48.15l-.2.55a4.41,4.41,0,0,0-.47-.14,1.85,1.85,0,0,0-.44-.06c-.87,0-1.31.56-1.31,1.67a2,2,0,0,0,.32,1.21,1.11,1.11,0,0,0,.94.42,2.93,2.93,0,0,0,1.1-.23v.57A2.33,2.33,0,0,1,140.5,62.75Z"/><path class="cls-3" d="M145.53,62.67V59.9a1.1,1.1,0,0,0-.24-.78,1,1,0,0,0-.75-.26,1.22,1.22,0,0,0-1,.37,1.88,1.88,0,0,0-.31,1.2v2.24h-.64V56.59h.64v1.84a4.11,4.11,0,0,1,0,.55h0a1.29,1.29,0,0,1,.55-.48,1.71,1.71,0,0,1,.8-.18,1.64,1.64,0,0,1,1.18.37,1.58,1.58,0,0,1,.39,1.19v2.79Z"/><path class="cls-3" d="M149.31,62.75a2,2,0,0,1-1.49-.58,2.23,2.23,0,0,1-.55-1.61,2.48,2.48,0,0,1,.51-1.64,1.68,1.68,0,0,1,1.37-.61,1.62,1.62,0,0,1,1.27.53,2,2,0,0,1,.47,1.4v.41h-2.95a1.68,1.68,0,0,0,.38,1.14,1.32,1.32,0,0,0,1,.39,3.55,3.55,0,0,0,1.37-.29v.58a3.37,3.37,0,0,1-1.4.28Zm-.17-3.9a1,1,0,0,0-.82.34,1.46,1.46,0,0,0-.36.93h2.23a1.44,1.44,0,0,0-.27-.94A1,1,0,0,0,149.14,58.85Z"/><path class="cls-3" d="M153.71,62.75a1.82,1.82,0,0,1-1.44-.57,2.38,2.38,0,0,1-.51-1.62,2.44,2.44,0,0,1,.51-1.66,1.88,1.88,0,0,1,1.48-.59,2.68,2.68,0,0,1,.62.07,2,2,0,0,1,.48.15l-.2.55a4.41,4.41,0,0,0-.47-.14,2,2,0,0,0-.45-.06c-.87,0-1.3.56-1.3,1.67a1.94,1.94,0,0,0,.32,1.21,1.1,1.1,0,0,0,.94.42,3,3,0,0,0,1.1-.23v.57A2.33,2.33,0,0,1,153.71,62.75Z"/><path class="cls-3" d="M156.44,60.48c.12-.16.29-.37.52-.63l1.38-1.46h.77l-1.74,1.82,1.86,2.46h-.79l-1.51-2-.49.42v1.6h-.64V56.59h.64v3.22c0,.15,0,.37,0,.67Z"/><path class="cls-3" d="M160,57.23a.41.41,0,0,1,.11-.33.36.36,0,0,1,.27-.1.39.39,0,0,1,.27.1.45.45,0,0,1,.11.33.44.44,0,0,1-.11.32.36.36,0,0,1-.27.11.33.33,0,0,1-.27-.11A.4.4,0,0,1,160,57.23Zm.7,5.44H160V58.39h.65Z"/><path class="cls-3" d="M165,62.67V59.9a1.1,1.1,0,0,0-.24-.78,1,1,0,0,0-.75-.26,1.21,1.21,0,0,0-1,.36,1.85,1.85,0,0,0-.32,1.2v2.25H162V58.39h.52l.11.58h0a1.34,1.34,0,0,1,.56-.49,1.88,1.88,0,0,1,.8-.17,1.36,1.36,0,0,1,1.55,1.57v2.79Z"/><path class="cls-3" d="M170.44,58.39v.41l-.79.09a1.49,1.49,0,0,1,.19.36,1.31,1.31,0,0,1,.09.5,1.28,1.28,0,0,1-.43,1,1.74,1.74,0,0,1-1.18.38,2,2,0,0,1-.36,0,.62.62,0,0,0-.42.55.29.29,0,0,0,.15.26,1.17,1.17,0,0,0,.5.08h.75a1.73,1.73,0,0,1,1.07.29,1,1,0,0,1,.37.85,1.22,1.22,0,0,1-.57,1.09,3,3,0,0,1-1.66.37,2.24,2.24,0,0,1-1.29-.31,1.06,1.06,0,0,1-.21-1.56,1.3,1.3,0,0,1,.7-.39.6.6,0,0,1-.27-.23.55.55,0,0,1-.11-.36.71.71,0,0,1,.12-.41,1.27,1.27,0,0,1,.4-.34,1.07,1.07,0,0,1-.54-.47,1.32,1.32,0,0,1-.21-.75,1.39,1.39,0,0,1,.42-1.08,1.73,1.73,0,0,1,1.19-.38,2.25,2.25,0,0,1,.61.08Zm-3.41,5a.58.58,0,0,0,.29.53,1.59,1.59,0,0,0,.84.18,2.38,2.38,0,0,0,1.21-.25.74.74,0,0,0,.39-.66.51.51,0,0,0-.22-.48,1.62,1.62,0,0,0-.8-.14H168a1.05,1.05,0,0,0-.69.21A.78.78,0,0,0,167,63.39Zm.35-3.63a.86.86,0,0,0,.25.68,1,1,0,0,0,.71.23.83.83,0,0,0,.95-.92.85.85,0,0,0-1-1,1,1,0,0,0-.71.25A1,1,0,0,0,167.38,59.76Z"/><path class="cls-3" d="M104.4,71.67l-.13-.61h0a1.79,1.79,0,0,1-.64.54,1.87,1.87,0,0,1-.8.15,1.45,1.45,0,0,1-1-.33,1.2,1.2,0,0,1-.36-.93c0-.87.69-1.32,2.08-1.36l.72,0v-.26a1.12,1.12,0,0,0-.21-.75.91.91,0,0,0-.7-.24,2.83,2.83,0,0,0-1.21.33l-.2-.49a2.68,2.68,0,0,1,.7-.27,2.76,2.76,0,0,1,.75-.1,1.64,1.64,0,0,1,1.14.34,1.43,1.43,0,0,1,.37,1.09v2.92Zm-1.47-.46a1.32,1.32,0,0,0,.95-.33,1.23,1.23,0,0,0,.35-.93v-.39l-.65,0a2.42,2.42,0,0,0-1.12.24.73.73,0,0,0-.34.66.65.65,0,0,0,.22.54A.89.89,0,0,0,102.93,71.21Z"/><path class="cls-3" d="M109.14,71.67V68.9a1.1,1.1,0,0,0-.24-.78,1,1,0,0,0-.74-.26,1.25,1.25,0,0,0-1,.36,1.92,1.92,0,0,0-.31,1.2v2.25h-.65V67.39h.53l.11.58h0a1.34,1.34,0,0,1,.56-.49,1.85,1.85,0,0,1,.8-.17,1.36,1.36,0,0,1,1.55,1.57v2.79Z"/><path class="cls-3" d="M114,71.1h0a1.53,1.53,0,0,1-1.34.65,1.58,1.58,0,0,1-1.31-.58,2.51,2.51,0,0,1-.47-1.63,2.56,2.56,0,0,1,.47-1.64,1.6,1.6,0,0,1,1.31-.59,1.55,1.55,0,0,1,1.33.63H114l0-.31,0-.3V65.59h.65v6.08h-.53Zm-1.3.1a1.18,1.18,0,0,0,1-.36,1.81,1.81,0,0,0,.3-1.16v-.14a2.16,2.16,0,0,0-.3-1.3,1.16,1.16,0,0,0-1-.39,1,1,0,0,0-.87.45,2.2,2.2,0,0,0-.3,1.25,2.12,2.12,0,0,0,.3,1.24A1,1,0,0,0,112.74,71.2Z"/><path class="cls-3" d="M120.86,70.5a1,1,0,0,1-.44.92,2.06,2.06,0,0,1-1.25.33,2.72,2.72,0,0,1-1.33-.27v-.6a3.71,3.71,0,0,0,.66.24,2.84,2.84,0,0,0,.69.09,1.56,1.56,0,0,0,.78-.16.53.53,0,0,0,.27-.49.53.53,0,0,0-.22-.43,3.15,3.15,0,0,0-.84-.42,4.75,4.75,0,0,1-.85-.39,1.15,1.15,0,0,1-.38-.38,1,1,0,0,1-.12-.5,1,1,0,0,1,.43-.83,2,2,0,0,1,1.16-.3,3.37,3.37,0,0,1,1.35.28l-.23.53a3,3,0,0,0-1.16-.27,1.32,1.32,0,0,0-.7.15.43.43,0,0,0-.23.4.55.55,0,0,0,.08.29.89.89,0,0,0,.29.23,7.06,7.06,0,0,0,.75.32,2.85,2.85,0,0,1,1,.55A1,1,0,0,1,120.86,70.5Z"/><path class="cls-3" d="M124.55,71.67l-.13-.61h0a1.64,1.64,0,0,1-.64.54,1.82,1.82,0,0,1-.79.15,1.42,1.42,0,0,1-1-.33,1.2,1.2,0,0,1-.36-.93c0-.87.69-1.32,2.07-1.36l.73,0v-.26a1.07,1.07,0,0,0-.22-.75.87.87,0,0,0-.69-.24,2.8,2.8,0,0,0-1.21.33l-.2-.49a2.61,2.61,0,0,1,.69-.27,2.84,2.84,0,0,1,.76-.1,1.59,1.59,0,0,1,1.13.34,1.4,1.4,0,0,1,.37,1.09v2.92Zm-1.46-.46a1.32,1.32,0,0,0,1-.33,1.22,1.22,0,0,0,.34-.93v-.39l-.64,0a2.42,2.42,0,0,0-1.12.24.71.71,0,0,0-.34.66.67.67,0,0,0,.21.54A.9.9,0,0,0,123.09,71.21Z"/><path class="cls-3" d="M127.31,71.67l-1.63-4.28h.7l.92,2.54c.21.59.33,1,.37,1.15h0c0-.13.12-.42.27-.85s.49-1.38,1-2.84h.7l-1.63,4.28Z"/><path class="cls-3" d="M130.32,66.23a.45.45,0,0,1,.11-.33.39.39,0,0,1,.28-.1.35.35,0,0,1,.26.1.42.42,0,0,1,.12.33.41.41,0,0,1-.12.32.33.33,0,0,1-.26.11.36.36,0,0,1-.28-.11A.44.44,0,0,1,130.32,66.23Zm.71,5.44h-.65V67.39H131Z"/><path class="cls-3" d="M135.33,71.67V68.9a1.1,1.1,0,0,0-.24-.78,1,1,0,0,0-.74-.26,1.25,1.25,0,0,0-1,.36,1.86,1.86,0,0,0-.31,1.2v2.25h-.65V67.39h.53l.1.58h0a1.41,1.41,0,0,1,.56-.49,1.91,1.91,0,0,1,.8-.17,1.63,1.63,0,0,1,1.17.37,1.6,1.6,0,0,1,.39,1.2v2.79Z"/><path class="cls-3" d="M140.81,67.39v.41l-.79.09a1.49,1.49,0,0,1,.2.36,1.54,1.54,0,0,1,.08.5,1.25,1.25,0,0,1-.43,1,1.72,1.72,0,0,1-1.18.38,2.19,2.19,0,0,1-.36,0,.63.63,0,0,0-.41.55.3.3,0,0,0,.14.26,1.2,1.2,0,0,0,.5.08h.76a1.75,1.75,0,0,1,1.07.29,1,1,0,0,1,.37.85,1.22,1.22,0,0,1-.57,1.09,3,3,0,0,1-1.66.37,2.27,2.27,0,0,1-1.3-.31,1,1,0,0,1-.45-.88,1,1,0,0,1,.25-.68,1.27,1.27,0,0,1,.7-.39.68.68,0,0,1-.28-.23.61.61,0,0,1-.11-.36.65.65,0,0,1,.13-.41,1.22,1.22,0,0,1,.39-.34,1.16,1.16,0,0,1-.54-.47,1.32,1.32,0,0,1-.21-.75,1.39,1.39,0,0,1,.42-1.08,1.74,1.74,0,0,1,1.2-.38,2.23,2.23,0,0,1,.6.08Zm-3.41,5a.6.6,0,0,0,.29.53,1.64,1.64,0,0,0,.84.18,2.35,2.35,0,0,0,1.21-.25.74.74,0,0,0,.39-.66.53.53,0,0,0-.21-.48,1.64,1.64,0,0,0-.81-.14h-.78a1,1,0,0,0-.68.21A.75.75,0,0,0,137.4,72.39Zm.35-3.63a.87.87,0,0,0,.26.68,1,1,0,0,0,.7.23.83.83,0,0,0,.95-.92.85.85,0,0,0-1-1,.92.92,0,0,0-.7.25A1,1,0,0,0,137.75,68.76Z"/><path class="cls-3" d="M144.46,70.5a1.06,1.06,0,0,1-.45.92,2.06,2.06,0,0,1-1.25.33,2.72,2.72,0,0,1-1.33-.27v-.6a3.71,3.71,0,0,0,.66.24,2.84,2.84,0,0,0,.69.09,1.56,1.56,0,0,0,.78-.16.53.53,0,0,0,.27-.49.53.53,0,0,0-.22-.43,3.15,3.15,0,0,0-.84-.42,4.75,4.75,0,0,1-.85-.39,1.25,1.25,0,0,1-.38-.38,1,1,0,0,1-.12-.5,1,1,0,0,1,.43-.83,2,2,0,0,1,1.16-.3,3.45,3.45,0,0,1,1.36.28l-.24.53a3,3,0,0,0-1.16-.27,1.32,1.32,0,0,0-.7.15.45.45,0,0,0-.23.4.48.48,0,0,0,.09.29.75.75,0,0,0,.28.23,7.06,7.06,0,0,0,.75.32,2.85,2.85,0,0,1,1,.55A1,1,0,0,1,144.46,70.5Z"/><path class="cls-3" d="M150.22,71.67l-.13-.61h0a1.71,1.71,0,0,1-.64.54,1.86,1.86,0,0,1-.79.15,1.42,1.42,0,0,1-1-.33,1.2,1.2,0,0,1-.36-.93c0-.87.69-1.32,2.07-1.36l.73,0v-.26a1.07,1.07,0,0,0-.22-.75.87.87,0,0,0-.69-.24,2.8,2.8,0,0,0-1.21.33l-.2-.49a2.61,2.61,0,0,1,.69-.27,2.78,2.78,0,0,1,.76-.1,1.59,1.59,0,0,1,1.13.34,1.4,1.4,0,0,1,.37,1.09v2.92Zm-1.46-.46a1.32,1.32,0,0,0,1-.33,1.22,1.22,0,0,0,.34-.93v-.39l-.65,0a2.41,2.41,0,0,0-1.11.24.71.71,0,0,0-.34.66.67.67,0,0,0,.21.54A.9.9,0,0,0,148.76,71.21Z"/><path class="cls-3" d="M153.75,71.75a1.83,1.83,0,0,1-1.44-.57,2.87,2.87,0,0,1,0-3.28,1.85,1.85,0,0,1,1.47-.59,2.62,2.62,0,0,1,.62.07,1.82,1.82,0,0,1,.48.15l-.2.55a4.41,4.41,0,0,0-.47-.14,1.85,1.85,0,0,0-.44-.06c-.87,0-1.31.56-1.31,1.67a2,2,0,0,0,.32,1.21,1.11,1.11,0,0,0,.94.42,2.93,2.93,0,0,0,1.1-.23v.57A2.33,2.33,0,0,1,153.75,71.75Z"/><path class="cls-3" d="M157.56,71.75a1.83,1.83,0,0,1-1.44-.57,2.87,2.87,0,0,1,0-3.28,1.85,1.85,0,0,1,1.47-.59,2.62,2.62,0,0,1,.62.07,2,2,0,0,1,.48.15l-.2.55a4.41,4.41,0,0,0-.47-.14,2,2,0,0,0-.45-.06c-.87,0-1.3.56-1.3,1.67a2,2,0,0,0,.32,1.21,1.1,1.1,0,0,0,.94.42,3,3,0,0,0,1.1-.23v.57A2.33,2.33,0,0,1,157.56,71.75Z"/><path class="cls-3" d="M163.35,69.52a2.38,2.38,0,0,1-.53,1.64,1.85,1.85,0,0,1-1.45.59,1.89,1.89,0,0,1-1-.27,1.75,1.75,0,0,1-.69-.78,2.67,2.67,0,0,1-.24-1.18,2.36,2.36,0,0,1,.52-1.63,1.84,1.84,0,0,1,1.45-.58,1.81,1.81,0,0,1,1.43.6A2.37,2.37,0,0,1,163.35,69.52Zm-3.26,0a2,2,0,0,0,.33,1.25,1.12,1.12,0,0,0,1,.43,1.15,1.15,0,0,0,1-.42,2.06,2.06,0,0,0,.33-1.26,2,2,0,0,0-.33-1.24,1.17,1.17,0,0,0-1-.42,1.15,1.15,0,0,0-1,.42A2,2,0,0,0,160.09,69.52Z"/><path class="cls-3" d="M165.1,67.39v2.78a1.14,1.14,0,0,0,.23.78,1,1,0,0,0,.75.25,1.21,1.21,0,0,0,1-.36,1.86,1.86,0,0,0,.31-1.2V67.39H168v4.28h-.53l-.1-.57h0a1.31,1.31,0,0,1-.56.48,1.85,1.85,0,0,1-.8.17,1.67,1.67,0,0,1-1.17-.37,1.59,1.59,0,0,1-.39-1.19v-2.8Z"/><path class="cls-3" d="M172.33,71.67V68.9a1.1,1.1,0,0,0-.24-.78,1,1,0,0,0-.75-.26,1.23,1.23,0,0,0-1,.36,1.85,1.85,0,0,0-.32,1.2v2.25h-.64V67.39h.52L170,68h0a1.34,1.34,0,0,1,.56-.49,1.91,1.91,0,0,1,.8-.17A1.36,1.36,0,0,1,173,68.88v2.79Z"/><path class="cls-3" d="M175.69,71.21l.33,0,.26-.06v.5a1.33,1.33,0,0,1-.32.08,1.59,1.59,0,0,1-.36,0c-.83,0-1.25-.44-1.25-1.31V67.89h-.61v-.31l.61-.27.28-.91H175v1h1.24v.5H175v2.52a.85.85,0,0,0,.19.6A.65.65,0,0,0,175.69,71.21Z"/><path class="cls-3" d="M104.69,80.67V77.9a1.1,1.1,0,0,0-.24-.78,1,1,0,0,0-.74-.26,1.22,1.22,0,0,0-1,.37,1.88,1.88,0,0,0-.31,1.2v2.24h-.65V74.59h.65v1.84a4.11,4.11,0,0,1,0,.55h0a1.33,1.33,0,0,1,.54-.48,1.79,1.79,0,0,1,.81-.18,1.65,1.65,0,0,1,1.18.37,1.58,1.58,0,0,1,.39,1.19v2.79Z"/><path class="cls-3" d="M110.37,78.52a2.38,2.38,0,0,1-.53,1.64,1.87,1.87,0,0,1-1.46.59,1.94,1.94,0,0,1-1-.27,1.79,1.79,0,0,1-.68-.78,2.67,2.67,0,0,1-.24-1.18,2.36,2.36,0,0,1,.52-1.63,1.84,1.84,0,0,1,1.45-.58,1.81,1.81,0,0,1,1.43.6A2.37,2.37,0,0,1,110.37,78.52Zm-3.26,0a2,2,0,0,0,.33,1.25,1.12,1.12,0,0,0,1,.43,1.17,1.17,0,0,0,1-.42,2.06,2.06,0,0,0,.33-1.26,2,2,0,0,0-.33-1.24,1.17,1.17,0,0,0-1-.42,1.15,1.15,0,0,0-1,.42A2,2,0,0,0,107.11,78.52Z"/><path class="cls-3" d="M112.15,80.67h-.64V74.59h.64Z"/><path class="cls-3" d="M116.44,80.1h0a1.54,1.54,0,0,1-1.35.65,1.56,1.56,0,0,1-1.3-.58,2.51,2.51,0,0,1-.47-1.63,2.56,2.56,0,0,1,.47-1.64,1.58,1.58,0,0,1,1.3-.59,1.56,1.56,0,0,1,1.34.63h0l0-.31v-2h.65v6.08h-.53Zm-1.29.1a1.18,1.18,0,0,0,1-.36,1.81,1.81,0,0,0,.3-1.16v-.14a2.09,2.09,0,0,0-.31-1.3,1.13,1.13,0,0,0-1-.39,1,1,0,0,0-.87.45,2.69,2.69,0,0,0,0,2.49A1,1,0,0,0,115.15,80.2Z"/><path class="cls-3" d="M120.24,80.75a2,2,0,0,1-1.5-.58,2.28,2.28,0,0,1-.55-1.61,2.48,2.48,0,0,1,.51-1.64,1.69,1.69,0,0,1,1.37-.61,1.64,1.64,0,0,1,1.28.53,2,2,0,0,1,.46,1.4v.41h-3a1.68,1.68,0,0,0,.39,1.14,1.31,1.31,0,0,0,1,.39,3.51,3.51,0,0,0,1.37-.29v.58a3.25,3.25,0,0,1-.65.21A3.15,3.15,0,0,1,120.24,80.75Zm-.18-3.9a1.05,1.05,0,0,0-.82.34,1.58,1.58,0,0,0-.36.93h2.24a1.44,1.44,0,0,0-.27-.94A1,1,0,0,0,120.06,76.85Z"/><path class="cls-3" d="M124.87,76.31a2.59,2.59,0,0,1,.51,0l-.09.6a2.08,2.08,0,0,0-.46-.06,1.13,1.13,0,0,0-.89.42,1.51,1.51,0,0,0-.37,1.05v2.3h-.65V76.39h.53l.08.79h0a1.89,1.89,0,0,1,.57-.64A1.32,1.32,0,0,1,124.87,76.31Z"/><path class="cls-3" d="M129,79.5a1.06,1.06,0,0,1-.45.92,2,2,0,0,1-1.25.33,2.72,2.72,0,0,1-1.33-.27v-.6a3.54,3.54,0,0,0,.67.24,2.71,2.71,0,0,0,.68.09,1.51,1.51,0,0,0,.78-.16.53.53,0,0,0,.27-.49.54.54,0,0,0-.21-.43,3.44,3.44,0,0,0-.85-.42,4.75,4.75,0,0,1-.85-.39,1.11,1.11,0,0,1-.37-.38.91.91,0,0,1-.13-.5,1,1,0,0,1,.43-.83,2,2,0,0,1,1.17-.3,3.37,3.37,0,0,1,1.35.28l-.23.53a3.07,3.07,0,0,0-1.17-.27,1.32,1.32,0,0,0-.7.15.45.45,0,0,0-.23.4.48.48,0,0,0,.09.29.84.84,0,0,0,.28.23,7.06,7.06,0,0,0,.75.32,2.85,2.85,0,0,1,1,.55A1,1,0,0,1,129,79.5Z"/><path class="cls-3" d="M132,75.23a.45.45,0,0,1,.1-.33.4.4,0,0,1,.28-.1.39.39,0,0,1,.27.1.45.45,0,0,1,.11.33.44.44,0,0,1-.11.32.36.36,0,0,1-.27.11.37.37,0,0,1-.28-.11A.44.44,0,0,1,132,75.23Zm.7,5.44h-.65V76.39h.65Z"/><path class="cls-3" d="M137,80.67V77.9a1.1,1.1,0,0,0-.24-.78,1,1,0,0,0-.74-.26,1.25,1.25,0,0,0-1,.36,1.92,1.92,0,0,0-.31,1.2v2.25h-.65V76.39h.53l.11.58h0a1.34,1.34,0,0,1,.56-.49,1.88,1.88,0,0,1,.8-.17,1.36,1.36,0,0,1,1.55,1.57v2.79Z"/><path class="cls-3" d="M144.55,80.67h-3.76v-.56l1.51-1.51a12.57,12.57,0,0,0,.91-1,2.6,2.6,0,0,0,.32-.58,1.54,1.54,0,0,0,.11-.61,1,1,0,0,0-.27-.72,1.08,1.08,0,0,0-.77-.27,1.91,1.91,0,0,0-.68.12,2.9,2.9,0,0,0-.71.42l-.34-.44a2.68,2.68,0,0,1,1.72-.65,1.81,1.81,0,0,1,1.26.41,1.42,1.42,0,0,1,.46,1.11,2.06,2.06,0,0,1-.31,1.07,6.68,6.68,0,0,1-1.14,1.34L141.61,80v0h2.94Z"/><path class="cls-3" d="M149.15,77.81a4.21,4.21,0,0,1-.46,2.21,1.59,1.59,0,0,1-1.43.73,1.56,1.56,0,0,1-1.4-.75,4.09,4.09,0,0,1-.48-2.19,4.18,4.18,0,0,1,.46-2.22,1.73,1.73,0,0,1,2.83,0A4.11,4.11,0,0,1,149.15,77.81Zm-3.12,0a4.08,4.08,0,0,0,.3,1.81,1,1,0,0,0,.93.57,1,1,0,0,0,.94-.58,4.23,4.23,0,0,0,.29-1.8A4.29,4.29,0,0,0,148.2,76a1,1,0,0,0-.94-.57,1,1,0,0,0-.93.57A4,4,0,0,0,146,77.81Z"/><path class="cls-3" d="M152.35,80.67h-.64V76.6q0-.51,0-1l-.18.17-.93.76-.34-.44L151.8,75h.55Z"/><path class="cls-3" d="M158.27,77.4c0,2.23-.86,3.35-2.59,3.35a2.75,2.75,0,0,1-.72-.08v-.56a2.21,2.21,0,0,0,.71.1,1.74,1.74,0,0,0,1.42-.58,2.92,2.92,0,0,0,.52-1.78h-.05a1.38,1.38,0,0,1-.57.5,1.88,1.88,0,0,1-.8.17,1.56,1.56,0,0,1-1.2-.46,1.7,1.7,0,0,1-.45-1.26,2,2,0,0,1,.5-1.41,1.91,1.91,0,0,1,2.33-.21,1.87,1.87,0,0,1,.67.87A3.67,3.67,0,0,1,158.27,77.4Zm-1.92-2a1.06,1.06,0,0,0-.86.36,1.46,1.46,0,0,0-.31,1,1.35,1.35,0,0,0,.28.89,1.11,1.11,0,0,0,.86.32,1.41,1.41,0,0,0,.65-.15,1.07,1.07,0,0,0,.47-.39.89.89,0,0,0,.18-.52,1.88,1.88,0,0,0-.16-.76,1.37,1.37,0,0,0-.45-.55A1.14,1.14,0,0,0,156.35,75.43Z"/><path class="cls-1" d="M113.12,53.78H101.39V52l4.7-4.72a35.38,35.38,0,0,0,2.83-3.1,8,8,0,0,0,1-1.81,5.15,5.15,0,0,0,.34-1.89,3,3,0,0,0-.87-2.27,3.33,3.33,0,0,0-2.4-.83,6.2,6.2,0,0,0-2.11.36,8.61,8.61,0,0,0-2.21,1.33l-1.08-1.38a8.29,8.29,0,0,1,5.38-2A5.67,5.67,0,0,1,110.94,37a4.44,4.44,0,0,1,1.43,3.46,6.67,6.67,0,0,1-1,3.36,21,21,0,0,1-3.56,4.2l-3.91,3.82v.1h9.18Z"/><path class="cls-1" d="M124.82,53.78,118.76,38h-.09c.11,1.25.17,2.74.17,4.46V53.78h-1.92V35.93H120l5.66,14.72h.09l5.71-14.72h3.09V53.78h-2.07V42.28c0-1.32.06-2.75.17-4.3h-.1l-6.1,15.8Z"/><path class="cls-3" d="M199.56,60.52a2.33,2.33,0,0,1-.53,1.64,1.85,1.85,0,0,1-1.45.59,1.89,1.89,0,0,1-1-.27,1.75,1.75,0,0,1-.69-.78,2.67,2.67,0,0,1-.24-1.18,2.36,2.36,0,0,1,.52-1.63,1.84,1.84,0,0,1,1.45-.58,1.81,1.81,0,0,1,1.43.6A2.37,2.37,0,0,1,199.56,60.52Zm-3.26,0a2,2,0,0,0,.33,1.25,1.13,1.13,0,0,0,1,.43,1.15,1.15,0,0,0,1-.42,2.06,2.06,0,0,0,.33-1.26,2,2,0,0,0-.33-1.24,1.17,1.17,0,0,0-1-.42,1.15,1.15,0,0,0-1,.42A2,2,0,0,0,196.3,60.52Z"/><path class="cls-3" d="M201.31,58.39v2.78a1.14,1.14,0,0,0,.24.78,1,1,0,0,0,.74.25,1.21,1.21,0,0,0,1-.36,1.86,1.86,0,0,0,.31-1.2V58.39h.65v4.28h-.53l-.1-.57h0a1.29,1.29,0,0,1-.55.48,1.92,1.92,0,0,1-.81.17,1.67,1.67,0,0,1-1.17-.37,1.59,1.59,0,0,1-.39-1.19v-2.8Z"/><path class="cls-3" d="M207,62.21l.33,0,.26-.06v.5a1.37,1.37,0,0,1-.31.08,1.73,1.73,0,0,1-.37,0c-.83,0-1.24-.44-1.24-1.31V58.89H205v-.31l.62-.27.27-.91h.37v1h1.25v.5H206.3v2.52a.9.9,0,0,0,.19.6A.65.65,0,0,0,207,62.21Z"/><path class="cls-3" d="M211.19,61.5a1,1,0,0,1-.44.92,2.06,2.06,0,0,1-1.25.33,2.72,2.72,0,0,1-1.33-.27v-.6a3.71,3.71,0,0,0,.66.24,2.83,2.83,0,0,0,.68.09,1.58,1.58,0,0,0,.79-.16.53.53,0,0,0,.27-.49.53.53,0,0,0-.22-.43,3.15,3.15,0,0,0-.84-.42,4.75,4.75,0,0,1-.85-.39,1.15,1.15,0,0,1-.38-.38,1,1,0,0,1-.12-.5,1,1,0,0,1,.42-.83,2,2,0,0,1,1.17-.3,3.37,3.37,0,0,1,1.35.28l-.23.53a3.06,3.06,0,0,0-1.16-.27,1.32,1.32,0,0,0-.7.15.43.43,0,0,0-.23.4.55.55,0,0,0,.08.29.89.89,0,0,0,.29.23,7.06,7.06,0,0,0,.75.32,2.85,2.85,0,0,1,1,.55A1,1,0,0,1,211.19,61.5Z"/><path class="cls-3" d="M213.63,62.21l.33,0,.26-.06v.5a1.37,1.37,0,0,1-.31.08,1.73,1.73,0,0,1-.37,0c-.83,0-1.24-.44-1.24-1.31V58.89h-.62v-.31l.62-.27.27-.91h.37v1h1.25v.5h-1.25v2.52a.9.9,0,0,0,.19.6A.65.65,0,0,0,213.63,62.21Z"/><path class="cls-3" d="M217.71,62.67l-.13-.61h0a1.79,1.79,0,0,1-.64.54,1.87,1.87,0,0,1-.8.15,1.45,1.45,0,0,1-1-.33,1.2,1.2,0,0,1-.36-.93c0-.87.69-1.32,2.08-1.36l.72,0v-.26a1.12,1.12,0,0,0-.21-.75.91.91,0,0,0-.7-.24,2.83,2.83,0,0,0-1.21.33l-.2-.49a2.68,2.68,0,0,1,.7-.27,2.76,2.76,0,0,1,.75-.1,1.64,1.64,0,0,1,1.14.34,1.43,1.43,0,0,1,.37,1.09v2.92Zm-1.47-.46a1.32,1.32,0,0,0,.95-.33,1.23,1.23,0,0,0,.35-.93v-.39l-.65,0a2.42,2.42,0,0,0-1.12.24.73.73,0,0,0-.34.66.65.65,0,0,0,.22.54A.89.89,0,0,0,216.24,62.21Z"/><path class="cls-3" d="M222.45,62.67V59.9a1.1,1.1,0,0,0-.24-.78,1,1,0,0,0-.74-.26,1.25,1.25,0,0,0-1,.36,1.92,1.92,0,0,0-.31,1.2v2.25h-.65V58.39h.53l.11.58h0a1.34,1.34,0,0,1,.56-.49,1.85,1.85,0,0,1,.8-.17,1.36,1.36,0,0,1,1.55,1.57v2.79Z"/><path class="cls-3" d="M227.35,62.1h0a1.53,1.53,0,0,1-1.34.65,1.58,1.58,0,0,1-1.31-.58,2.51,2.51,0,0,1-.47-1.63,2.56,2.56,0,0,1,.47-1.64,1.6,1.6,0,0,1,1.31-.59,1.55,1.55,0,0,1,1.33.63h0l0-.31,0-.3V56.59H228v6.08h-.53Zm-1.3.1a1.18,1.18,0,0,0,1-.36,1.81,1.81,0,0,0,.3-1.16v-.14a2.16,2.16,0,0,0-.3-1.3,1.16,1.16,0,0,0-1-.39,1,1,0,0,0-.87.45,2.2,2.2,0,0,0-.3,1.25,2.12,2.12,0,0,0,.3,1.24A1,1,0,0,0,226.05,62.2Z"/><path class="cls-3" d="M229.28,57.23a.45.45,0,0,1,.11-.33.41.41,0,0,1,.54,0,.42.42,0,0,1,.12.33.41.41,0,0,1-.12.32.39.39,0,0,1-.54,0A.44.44,0,0,1,229.28,57.23Zm.7,5.44h-.65V58.39H230Z"/><path class="cls-3" d="M234.29,62.67V59.9a1.1,1.1,0,0,0-.24-.78,1,1,0,0,0-.75-.26,1.24,1.24,0,0,0-1,.36,1.86,1.86,0,0,0-.31,1.2v2.25h-.65V58.39h.53l.1.58h0a1.41,1.41,0,0,1,.56-.49,1.91,1.91,0,0,1,.8-.17,1.63,1.63,0,0,1,1.17.37,1.6,1.6,0,0,1,.39,1.2v2.79Z"/><path class="cls-3" d="M239.77,58.39v.41l-.79.09a1.21,1.21,0,0,1,.19.36,1.31,1.31,0,0,1,.09.5,1.25,1.25,0,0,1-.43,1,1.74,1.74,0,0,1-1.18.38,2,2,0,0,1-.36,0,.63.63,0,0,0-.41.55.3.3,0,0,0,.14.26,1.17,1.17,0,0,0,.5.08h.76a1.69,1.69,0,0,1,1.06.29,1,1,0,0,1,.38.85,1.22,1.22,0,0,1-.57,1.09,3.06,3.06,0,0,1-1.67.37,2.24,2.24,0,0,1-1.29-.31,1,1,0,0,1-.46-.88,1,1,0,0,1,.25-.68,1.3,1.3,0,0,1,.71-.39.68.68,0,0,1-.28-.23.61.61,0,0,1-.11-.36.71.71,0,0,1,.12-.41,1.4,1.4,0,0,1,.4-.34,1.16,1.16,0,0,1-.54-.47,1.32,1.32,0,0,1-.21-.75,1.39,1.39,0,0,1,.42-1.08,1.74,1.74,0,0,1,1.2-.38,2.23,2.23,0,0,1,.6.08Zm-3.41,5a.6.6,0,0,0,.29.53,1.64,1.64,0,0,0,.84.18,2.35,2.35,0,0,0,1.21-.25.74.74,0,0,0,.39-.66.53.53,0,0,0-.21-.48,1.69,1.69,0,0,0-.81-.14h-.78a1.05,1.05,0,0,0-.69.21A.78.78,0,0,0,236.36,63.39Zm.35-3.63a.86.86,0,0,0,.25.68,1,1,0,0,0,.71.23.83.83,0,0,0,1-.92.85.85,0,0,0-1-1,.91.91,0,0,0-.7.25A1,1,0,0,0,236.71,59.76Z"/><path class="cls-3" d="M242.83,57h1.61a3,3,0,0,1,1.64.34,1.18,1.18,0,0,1,.51,1.07,1.24,1.24,0,0,1-.28.84,1.38,1.38,0,0,1-.83.43v0c.87.15,1.3.6,1.3,1.36a1.49,1.49,0,0,1-.51,1.2,2.2,2.2,0,0,1-1.45.43h-2Zm.66,2.44h1.09a1.8,1.8,0,0,0,1-.22.85.85,0,0,0,.31-.74.75.75,0,0,0-.35-.69,2,2,0,0,0-1.09-.22h-1Zm0,.57V62.1h1.19a1.75,1.75,0,0,0,1-.26,1,1,0,0,0,.35-.84.89.89,0,0,0-.35-.78,1.89,1.89,0,0,0-1.09-.25Z"/><path class="cls-3" d="M252.57,59.76a2.89,2.89,0,0,1-.77,2.16,3,3,0,0,1-2.21.75H248V57h1.75a2.76,2.76,0,0,1,2.07.74A2.79,2.79,0,0,1,252.57,59.76Zm-.7,0a2.32,2.32,0,0,0-.56-1.68,2.25,2.25,0,0,0-1.67-.57h-1V62.1h.81a2.46,2.46,0,0,0,1.79-.59A2.3,2.3,0,0,0,251.87,59.78Z"/><path class="cls-3" d="M258.8,59.81a3.14,3.14,0,0,1-.69,2.15,2.44,2.44,0,0,1-1.93.79,2.49,2.49,0,0,1-2-.77,3.8,3.8,0,0,1,0-4.34,2.47,2.47,0,0,1,2-.77,2.43,2.43,0,0,1,1.92.78A3.15,3.15,0,0,1,258.8,59.81Zm-4.55,0a2.71,2.71,0,0,0,.49,1.76,1.76,1.76,0,0,0,1.44.6,1.73,1.73,0,0,0,1.43-.6,2.71,2.71,0,0,0,.49-1.76,2.68,2.68,0,0,0-.49-1.75,1.71,1.71,0,0,0-1.42-.6,1.77,1.77,0,0,0-1.45.6A2.68,2.68,0,0,0,254.25,59.81Z"/><path class="cls-3" d="M199.19,70.15a1.44,1.44,0,0,1-.55,1.18,2.37,2.37,0,0,1-1.48.42,3.84,3.84,0,0,1-1.57-.26v-.64a5.36,5.36,0,0,0,.77.23,3.81,3.81,0,0,0,.82.09,1.64,1.64,0,0,0,1-.26.82.82,0,0,0,.33-.7,1,1,0,0,0-.11-.48,1.08,1.08,0,0,0-.4-.35,5.8,5.8,0,0,0-.85-.37,2.74,2.74,0,0,1-1.14-.67,1.48,1.48,0,0,1-.34-1,1.26,1.26,0,0,1,.49-1,2.07,2.07,0,0,1,1.32-.39,3.81,3.81,0,0,1,1.56.31l-.21.58a3.46,3.46,0,0,0-1.37-.3,1.31,1.31,0,0,0-.82.23.74.74,0,0,0-.3.63.86.86,0,0,0,.48.83,4.46,4.46,0,0,0,.79.35,3.09,3.09,0,0,1,1.24.69A1.36,1.36,0,0,1,199.19,70.15Z"/><path class="cls-3" d="M202.88,71.67l-1.94-5.06h0c0,.4.06.87.06,1.43v3.63h-.62V66h1l1.81,4.71h0L205,66h1v5.71h-.66V68c0-.42,0-.88.05-1.38h0l-2,5.06Z"/><path class="cls-3" d="M210.76,71.67h-3.18V66h3.18v.59h-2.52v1.84h2.37V69h-2.37v2.11h2.52Z"/><path class="cls-3" d="M214.66,71.67H214V65.59h.65Z"/><path class="cls-3" d="M219.73,69.52a2.38,2.38,0,0,1-.53,1.64,1.87,1.87,0,0,1-1.46.59,1.94,1.94,0,0,1-1-.27,1.81,1.81,0,0,1-.69-.78,2.67,2.67,0,0,1-.24-1.18,2.37,2.37,0,0,1,.53-1.63,2.05,2.05,0,0,1,2.88,0A2.37,2.37,0,0,1,219.73,69.52Zm-3.27,0a2,2,0,0,0,.33,1.25,1.13,1.13,0,0,0,1,.43,1.15,1.15,0,0,0,1-.42,2.06,2.06,0,0,0,.33-1.26,2,2,0,0,0-.33-1.24,1.15,1.15,0,0,0-1-.42,1.12,1.12,0,0,0-1,.42A2,2,0,0,0,216.46,69.52Z"/><path class="cls-3" d="M223.5,71.67l-.13-.61h0a1.69,1.69,0,0,1-.63.54,1.9,1.9,0,0,1-.8.15,1.44,1.44,0,0,1-1-.33,1.2,1.2,0,0,1-.36-.93c0-.87.69-1.32,2.08-1.36l.72,0v-.26a1.12,1.12,0,0,0-.21-.75.91.91,0,0,0-.7-.24,2.83,2.83,0,0,0-1.21.33l-.2-.49a2.55,2.55,0,0,1,.7-.27,2.76,2.76,0,0,1,.75-.1,1.64,1.64,0,0,1,1.14.34,1.43,1.43,0,0,1,.37,1.09v2.92ZM222,71.21a1.32,1.32,0,0,0,.95-.33,1.23,1.23,0,0,0,.35-.93v-.39l-.65,0a2.42,2.42,0,0,0-1.12.24.73.73,0,0,0-.34.66.67.67,0,0,0,.21.54A.93.93,0,0,0,222,71.21Z"/><path class="cls-3" d="M228.24,71.67V68.9a1.1,1.1,0,0,0-.24-.78,1,1,0,0,0-.74-.26,1.25,1.25,0,0,0-1,.36,1.86,1.86,0,0,0-.31,1.2v2.25h-.65V67.39h.53l.1.58h0a1.31,1.31,0,0,1,.55-.49,1.91,1.91,0,0,1,.8-.17,1.63,1.63,0,0,1,1.17.37,1.6,1.6,0,0,1,.39,1.2v2.79Z"/><path class="cls-3" d="M233,70.5a1.07,1.07,0,0,1-.44.92,2.09,2.09,0,0,1-1.25.33,2.72,2.72,0,0,1-1.33-.27v-.6a3.71,3.71,0,0,0,.66.24,2.77,2.77,0,0,0,.68.09,1.51,1.51,0,0,0,.78-.16.55.55,0,0,0,.06-.92,3.33,3.33,0,0,0-.84-.42,4.43,4.43,0,0,1-.85-.39,1.15,1.15,0,0,1-.38-.38,1,1,0,0,1-.12-.5,1,1,0,0,1,.42-.83,2,2,0,0,1,1.17-.3,3.37,3.37,0,0,1,1.35.28l-.23.53a3.06,3.06,0,0,0-1.16-.27,1.32,1.32,0,0,0-.7.15.43.43,0,0,0-.23.4.47.47,0,0,0,.08.29.89.89,0,0,0,.29.23,7.06,7.06,0,0,0,.75.32,3,3,0,0,1,1,.55A1,1,0,0,1,233,70.5Z"/><path class="cls-1" d="M208,41.13a5,5,0,0,1-1.85,4.17,8.37,8.37,0,0,1-5.29,1.46h-2.1v7h-2.07V35.93h4.62Q208,35.93,208,41.13ZM198.8,45h1.87a6.88,6.88,0,0,0,4-.89,3.27,3.27,0,0,0,1.23-2.85,3.07,3.07,0,0,0-1.16-2.64,6,6,0,0,0-3.61-.87H198.8Z"/><path class="cls-1" d="M225.33,53.78h-2.08v-8.4h-9.4v8.4h-2.07V35.93h2.07v7.59h9.4V35.93h2.08Z"/><path class="cls-1" d="M241.54,41.13a5,5,0,0,1-1.85,4.17,8.39,8.39,0,0,1-5.29,1.46h-2.1v7h-2.08V35.93h4.63Q241.54,35.93,241.54,41.13ZM232.3,45h1.87a6.9,6.9,0,0,0,4-.89,3.27,3.27,0,0,0,1.23-2.85,3.1,3.1,0,0,0-1.16-2.64,6,6,0,0,0-3.61-.87H232.3Z"/><path class="cls-1" d="M249.62,42.88a6.58,6.58,0,0,1,4.44,1.39,4.82,4.82,0,0,1,1.61,3.83,5.52,5.52,0,0,1-1.76,4.35A7,7,0,0,1,249.05,54a9,9,0,0,1-4.61-1v-2a6.72,6.72,0,0,0,2.13.86,10.31,10.31,0,0,0,2.5.31,5,5,0,0,0,3.34-1,3.63,3.63,0,0,0,1.19-2.93q0-3.73-4.58-3.73a17.74,17.74,0,0,0-3.1.35l-1-.67.67-8.35h8.88V37.8h-7.14l-.46,5.36A14.07,14.07,0,0,1,249.62,42.88Z"/><path class="cls-1" d="M265.84,53.78h-2V41.06c0-1.06,0-2.06.09-3l-.57.54c-.21.19-1.18,1-2.91,2.38l-1.07-1.39,4.72-3.65h1.71Z"/><path class="cls-1" d="M273.27,52.48a1.82,1.82,0,0,1,.37-1.24,1.35,1.35,0,0,1,1.07-.42,1.43,1.43,0,0,1,1.1.42,1.73,1.73,0,0,1,.4,1.24,1.7,1.7,0,0,1-.41,1.22,1.39,1.39,0,0,1-1.09.43,1.5,1.5,0,0,1-1-.38A1.7,1.7,0,0,1,273.27,52.48Z"/><path class="cls-1" d="M284.86,42.88a6.58,6.58,0,0,1,4.44,1.39,4.79,4.79,0,0,1,1.62,3.83,5.52,5.52,0,0,1-1.77,4.35A7,7,0,0,1,284.29,54a9,9,0,0,1-4.6-1v-2a6.66,6.66,0,0,0,2.12.86,10.37,10.37,0,0,0,2.5.31,5,5,0,0,0,3.34-1,3.63,3.63,0,0,0,1.19-2.93c0-2.49-1.52-3.73-4.58-3.73a17.84,17.84,0,0,0-3.1.35l-1.05-.67.68-8.35h8.87V37.8h-7.14l-.45,5.36A13.9,13.9,0,0,1,284.86,42.88Z"/><path class="cls-1" d="M300.73,40.18a5,5,0,0,1,4.1,1.8,7.91,7.91,0,0,1,1.46,5.09,8,8,0,0,1-1.48,5.12A4.94,4.94,0,0,1,300.73,54a5.86,5.86,0,0,1-2.39-.48,4.54,4.54,0,0,1-1.81-1.49h-.14L296,53.78h-1.45v-19h2V39.4c0,1,0,2-.1,2.78h.1A4.81,4.81,0,0,1,300.73,40.18Zm-.29,1.69a3.54,3.54,0,0,0-3,1.19,6.73,6.73,0,0,0-.92,4,6.76,6.76,0,0,0,.94,4,3.58,3.58,0,0,0,3,1.21A3.12,3.12,0,0,0,303.27,51a7,7,0,0,0,.92-3.91,6.7,6.7,0,0,0-.92-3.89A3.23,3.23,0,0,0,300.44,41.87Z"/><path class="cls-1" d="M319,53.78V45.12a3.52,3.52,0,0,0-.74-2.44,3,3,0,0,0-2.33-.81A3.84,3.84,0,0,0,312.83,43a5.75,5.75,0,0,0-1,3.75v7h-2V40.4h1.64l.33,1.83h.1a4.15,4.15,0,0,1,1.75-1.53,5.56,5.56,0,0,1,2.5-.55,5.09,5.09,0,0,1,3.64,1.17A5,5,0,0,1,321,45.05v8.73Z"/></g></svg>