<svg id="Layer_1" data-name="Layer 1" xmlns="http://www.w3.org/2000/svg" viewBox="0 0 138.41 55.44"><defs><style>.cls-1{fill:#414042;}.cls-2{fill:#32a7c2;}.cls-3{fill:#58595b;}</style></defs><path class="cls-1" d="M27.64,5.58l-7,15.84h-2L25.79,5.58H17.28V4H27.64Z"/><path class="cls-1" d="M34.25,12.12a3.68,3.68,0,0,1-1-.58,4.17,4.17,0,0,1-.83-.9,4.59,4.59,0,0,1-.54-1.14,3.94,3.94,0,0,1-.2-1.28A4.5,4.5,0,0,1,32,6.33a4.42,4.42,0,0,1,1.06-1.44A4.68,4.68,0,0,1,34.65,4,5.49,5.49,0,0,1,38.4,4,4.53,4.53,0,0,1,40,4.89,4.15,4.15,0,0,1,41,6.33a4.36,4.36,0,0,1,.4,1.89,4.23,4.23,0,0,1-.2,1.28,4.59,4.59,0,0,1-.54,1.14,4.17,4.17,0,0,1-.83.9,3.6,3.6,0,0,1-1.05.58v.05a4.12,4.12,0,0,1,2.37,1.62,5,5,0,0,1,.89,3,4.45,4.45,0,0,1-.46,2.05,4.9,4.9,0,0,1-1.21,1.57,5.3,5.3,0,0,1-1.75,1,6.72,6.72,0,0,1-4.22,0,5.4,5.4,0,0,1-1.75-1,5.2,5.2,0,0,1-1.21-1.57A4.57,4.57,0,0,1,31,16.75a4.9,4.9,0,0,1,.89-3,4.13,4.13,0,0,1,2.36-1.62Zm6,4.39A3.7,3.7,0,0,0,40,15.09,3.53,3.53,0,0,0,39.25,14a3.41,3.41,0,0,0-1.18-.75,4.31,4.31,0,0,0-1.55-.27A4.24,4.24,0,0,0,35,13.2,3.36,3.36,0,0,0,33.8,14a3.71,3.71,0,0,0-.75,4,3.49,3.49,0,0,0,.75,1.13,3.36,3.36,0,0,0,1.17.75,4.24,4.24,0,0,0,1.55.27,4.31,4.31,0,0,0,1.55-.27,3.41,3.41,0,0,0,1.18-.75A3.49,3.49,0,0,0,40,17.93,3.7,3.7,0,0,0,40.27,16.51Zm-.64-8.14a3.34,3.34,0,0,0-.23-1.24,2.88,2.88,0,0,0-.66-1,3,3,0,0,0-1-.64,3.3,3.3,0,0,0-2.47,0,3,3,0,0,0-1,.64,2.85,2.85,0,0,0-.65,1,3.15,3.15,0,0,0-.23,1.24,3.13,3.13,0,0,0,.23,1.23,2.85,2.85,0,0,0,.65,1,3,3,0,0,0,1,.65,3.43,3.43,0,0,0,2.47,0,3,3,0,0,0,1-.65,2.88,2.88,0,0,0,.66-1A3.32,3.32,0,0,0,39.63,8.37Z"/><path class="cls-1" d="M48.14,20.23a1.32,1.32,0,0,1-.37.93,1.22,1.22,0,0,1-1,.41,1.25,1.25,0,0,1-1-.41,1.34,1.34,0,0,1,0-1.85,1.25,1.25,0,0,1,1-.41,1.22,1.22,0,0,1,1,.41A1.32,1.32,0,0,1,48.14,20.23Z"/><path class="cls-1" d="M55.27,11.45h.92a6.34,6.34,0,0,0,1.46-.17,3.34,3.34,0,0,0,1.22-.56,2.72,2.72,0,0,0,.83-1A3.2,3.2,0,0,0,60,8.24a2.8,2.8,0,0,0-.85-2.18,3.4,3.4,0,0,0-2.38-.78,3.67,3.67,0,0,0-3.33,1.93l-1.56-.79a5.34,5.34,0,0,1,2-2.09,5.78,5.78,0,0,1,2.83-.68,6.22,6.22,0,0,1,2,.3,4.7,4.7,0,0,1,1.6.88,4.12,4.12,0,0,1,1.1,1.43,4.41,4.41,0,0,1,.41,1.93,3.85,3.85,0,0,1-.24,1.36,4.21,4.21,0,0,1-.64,1.16,4.27,4.27,0,0,1-.95.9,4.09,4.09,0,0,1-1.14.58l.08.05a3.94,3.94,0,0,1,1.36.55,4.58,4.58,0,0,1,1.06,1,4.8,4.8,0,0,1,.93,2.89,4.92,4.92,0,0,1-.44,2.15,4.73,4.73,0,0,1-1.21,1.58,5.38,5.38,0,0,1-1.78,1,6.8,6.8,0,0,1-2.14.33,6.55,6.55,0,0,1-3.36-.84,5,5,0,0,1-2.14-2.68l1.87-.57a3.67,3.67,0,0,0,1.32,1.86,4.32,4.32,0,0,0,2.46.6,4.08,4.08,0,0,0,1.4-.24,3.61,3.61,0,0,0,1.18-.71A3.29,3.29,0,0,0,60.19,18a3.45,3.45,0,0,0,.29-1.41A3.37,3.37,0,0,0,60.11,15a3.09,3.09,0,0,0-1-1.1,4.24,4.24,0,0,0-1.42-.61A7.54,7.54,0,0,0,56,13.08h-.77Z"/><path class="cls-1" d="M73.58,8a4.16,4.16,0,0,1-.34,1.7A4.08,4.08,0,0,1,72.32,11a4.51,4.51,0,0,1-1.38.92,4.57,4.57,0,0,1-3.41,0A4.63,4.63,0,0,1,66.15,11a4.08,4.08,0,0,1-.92-1.37,4.42,4.42,0,0,1,0-3.4,4.18,4.18,0,0,1,.92-1.37A4.44,4.44,0,0,1,70.94,4a4.31,4.31,0,0,1,1.38.91A4.32,4.32,0,0,1,73.58,8ZM72.1,8a2.63,2.63,0,0,0-.24-1.13,2.86,2.86,0,0,0-.61-.9,2.73,2.73,0,0,0-.9-.6,3,3,0,0,0-1.11-.21,2.89,2.89,0,0,0-1.11.21,2.54,2.54,0,0,0-.9.6,2.89,2.89,0,0,0-.62.9A2.63,2.63,0,0,0,66.37,8a2.71,2.71,0,0,0,.24,1.14,3.14,3.14,0,0,0,.62.9,2.66,2.66,0,0,0,.9.59,2.89,2.89,0,0,0,1.11.21,3,3,0,0,0,1.11-.21,2.87,2.87,0,0,0,.9-.59,3.11,3.11,0,0,0,.61-.9A2.71,2.71,0,0,0,72.1,8ZM69.31,22.18,68,21.52,79.15,3.19l1.26.66ZM83.57,17.4a4.4,4.4,0,0,1-.33,1.7,4.32,4.32,0,0,1-.93,1.37,4.48,4.48,0,0,1-4.78.91,4.52,4.52,0,0,1-1.39-.91,4.29,4.29,0,0,1-.92-1.37,4.57,4.57,0,0,1,0-3.41,4.29,4.29,0,0,1,.92-1.37,4.52,4.52,0,0,1,1.39-.91,4.34,4.34,0,0,1,5.71,2.28A4.42,4.42,0,0,1,83.57,17.4Zm-1.48,0a2.83,2.83,0,0,0-.23-1.14,3.35,3.35,0,0,0-.62-.9,2.87,2.87,0,0,0-.9-.59,3,3,0,0,0-1.11-.21,2.89,2.89,0,0,0-1.11.21,2.66,2.66,0,0,0-.9.59,3.14,3.14,0,0,0-.62.9,2.67,2.67,0,0,0-.23,1.14,2.63,2.63,0,0,0,.23,1.13,2.89,2.89,0,0,0,.62.9,2.52,2.52,0,0,0,.9.59,2.89,2.89,0,0,0,1.11.21A3,3,0,0,0,80.34,20a2.7,2.7,0,0,0,.9-.59,3.07,3.07,0,0,0,.62-.9A2.78,2.78,0,0,0,82.09,17.4Z"/><path class="cls-1" d="M20.24,29.71H16.15V28.1h9.9v1.61H22V40.8H20.24Z"/><path class="cls-1" d="M25.08,36.55a4.4,4.4,0,0,1,.35-1.74,4.46,4.46,0,0,1,2.4-2.38,4.68,4.68,0,0,1,3.55,0,4.46,4.46,0,0,1,2.4,2.38,4.4,4.4,0,0,1,.35,1.74,4.45,4.45,0,0,1-.35,1.75,4.68,4.68,0,0,1-1,1.42,4.61,4.61,0,0,1-6.43,0,4.68,4.68,0,0,1-1-1.42A4.45,4.45,0,0,1,25.08,36.55Zm1.73,0A3.5,3.5,0,0,0,27,37.74a2.55,2.55,0,0,0,1.44,1.55,3.19,3.19,0,0,0,2.33,0,2.66,2.66,0,0,0,.88-.61,2.83,2.83,0,0,0,.56-.94,3.82,3.82,0,0,0,0-2.38,2.83,2.83,0,0,0-.56-.94,2.66,2.66,0,0,0-.88-.61,3.19,3.19,0,0,0-2.33,0A2.55,2.55,0,0,0,27,35.36,3.5,3.5,0,0,0,26.81,36.55Z"/><path class="cls-1" d="M40.71,33.7H38.4v3.86c0,.23,0,.47,0,.7a1.72,1.72,0,0,0,.13.63,1,1,0,0,0,.36.45,1.26,1.26,0,0,0,.71.17,4,4,0,0,0,.59,0,1.78,1.78,0,0,0,.56-.2v1.47A2.29,2.29,0,0,1,40,41a5.74,5.74,0,0,1-.71.06,3.28,3.28,0,0,1-1.44-.26,1.86,1.86,0,0,1-.76-.67,2.24,2.24,0,0,1-.28-.93c0-.34,0-.68,0-1V33.7H34.92V32.3h1.86V29.91H38.4V32.3h2.31Z"/><path class="cls-1" d="M42.83,33.34a4.43,4.43,0,0,1,1.58-.94,5.41,5.41,0,0,1,1.79-.32,4.79,4.79,0,0,1,1.61.24,3,3,0,0,1,1.1.62,2.56,2.56,0,0,1,.64.91,2.8,2.8,0,0,1,.21,1.07v4.34c0,.3,0,.57,0,.83s0,.49,0,.71H48.39c0-.43,0-.86,0-1.29h0A3.13,3.13,0,0,1,47,40.68a4,4,0,0,1-1.71.34,4.23,4.23,0,0,1-1.13-.16,2.72,2.72,0,0,1-.94-.49,2.29,2.29,0,0,1-.64-.8,2.51,2.51,0,0,1-.23-1.1,2.41,2.41,0,0,1,.37-1.38,2.84,2.84,0,0,1,1-.91,5,5,0,0,1,1.49-.5,10.59,10.59,0,0,1,1.83-.15h1.18v-.36a1.68,1.68,0,0,0-.13-.65,1.79,1.79,0,0,0-.37-.58,1.86,1.86,0,0,0-.63-.41,2.41,2.41,0,0,0-.9-.16,3.23,3.23,0,0,0-.81.09,3.42,3.42,0,0,0-.64.23,2.65,2.65,0,0,0-.52.31l-.45.34Zm4.56,3.37a9.57,9.57,0,0,0-1.18.07,4.47,4.47,0,0,0-1.09.24,2.06,2.06,0,0,0-.81.5,1.32,1.32,0,0,0,.18,1.88,2.37,2.37,0,0,0,1.34.33A2.59,2.59,0,0,0,47,39.5a2.1,2.1,0,0,0,.75-.58,2.25,2.25,0,0,0,.41-.8,2.91,2.91,0,0,0,.13-.87v-.54Z"/><path class="cls-1" d="M52.23,27.24h1.62V40.8H52.23Z"/><path class="cls-1" d="M61,36.55a4.4,4.4,0,0,1,.35-1.74,4.45,4.45,0,0,1,1-1.42,4.78,4.78,0,0,1,1.44-1,4.68,4.68,0,0,1,3.55,0,4.46,4.46,0,0,1,2.4,2.38A4.39,4.39,0,0,1,70,36.55a4.44,4.44,0,0,1-.34,1.75,4.68,4.68,0,0,1-1,1.42,4.61,4.61,0,0,1-6.43,0,4.35,4.35,0,0,1-1-1.42A4.45,4.45,0,0,1,61,36.55Zm1.72,0a3.5,3.5,0,0,0,.2,1.19,2.55,2.55,0,0,0,1.44,1.55,2.86,2.86,0,0,0,1.16.22,2.94,2.94,0,0,0,1.17-.22,2.5,2.5,0,0,0,1.43-1.55,3.64,3.64,0,0,0,0-2.38,2.5,2.5,0,0,0-1.43-1.55,2.94,2.94,0,0,0-1.17-.22,2.86,2.86,0,0,0-1.16.22,2.55,2.55,0,0,0-1.44,1.55A3.5,3.5,0,0,0,62.71,36.55Z"/><path class="cls-1" d="M72.06,32.3h1.62v1.22h0A3.07,3.07,0,0,1,75,32.46a4,4,0,0,1,1.67-.38,4.64,4.64,0,0,1,1.79.34,4,4,0,0,1,1.36.95,4.26,4.26,0,0,1,.87,1.43A4.85,4.85,0,0,1,81,36.55a4.92,4.92,0,0,1-.31,1.77,4.22,4.22,0,0,1-.87,1.42,4,4,0,0,1-1.36.94,4.46,4.46,0,0,1-1.79.34A3.9,3.9,0,0,1,75,40.63a2.86,2.86,0,0,1-1.24-1.05h0v6.28H72.06Zm4.42,1.29a2.94,2.94,0,0,0-1.17.22,2.5,2.5,0,0,0-1.43,1.55,3.64,3.64,0,0,0,0,2.38,2.5,2.5,0,0,0,1.43,1.55,2.94,2.94,0,0,0,1.17.22,2.86,2.86,0,0,0,1.16-.22,2.55,2.55,0,0,0,1.44-1.55,3.64,3.64,0,0,0,0-2.38,2.55,2.55,0,0,0-1.44-1.55A2.86,2.86,0,0,0,76.48,33.59Z"/><path class="cls-1" d="M84.25,37.14a2.19,2.19,0,0,0,.24,1,2.52,2.52,0,0,0,.64.78,3,3,0,0,0,.91.5,3.31,3.31,0,0,0,1.08.18,2.44,2.44,0,0,0,1.31-.35,4.17,4.17,0,0,0,1-.92l1.22.93A4.49,4.49,0,0,1,86.9,41a4.65,4.65,0,0,1-1.82-.34,4.07,4.07,0,0,1-1.38-.94,4.22,4.22,0,0,1-.87-1.42,5.14,5.14,0,0,1-.31-1.77,4.54,4.54,0,0,1,.34-1.77,4.33,4.33,0,0,1,.91-1.41,4.09,4.09,0,0,1,1.39-.95,4.64,4.64,0,0,1,1.76-.34,4.12,4.12,0,0,1,1.91.4,3.62,3.62,0,0,1,1.28,1,4,4,0,0,1,.73,1.43,6.05,6.05,0,0,1,.23,1.63v.57Zm5.09-1.29a3.42,3.42,0,0,0-.17-1A2,2,0,0,0,88,33.56a2.88,2.88,0,0,0-1.07-.19,2.58,2.58,0,0,0-1.08.23,2.68,2.68,0,0,0-.84.58,2.75,2.75,0,0,0-.52.8,2.1,2.1,0,0,0-.19.87Z"/><path class="cls-1" d="M93,32.3h1.62v1.31h0a2,2,0,0,1,.43-.62,2.75,2.75,0,0,1,.6-.48,3.33,3.33,0,0,1,.72-.31,2.76,2.76,0,0,1,.79-.12,2.27,2.27,0,0,1,.72.11l-.07,1.74c-.13,0-.26-.06-.4-.09a2.58,2.58,0,0,0-.39,0,2.38,2.38,0,0,0-1.81.67,2.9,2.9,0,0,0-.63,2.06V40.8H93Z"/><path class="cls-1" d="M99.68,33.34a4.43,4.43,0,0,1,1.58-.94,5.37,5.37,0,0,1,1.79-.32,4.79,4.79,0,0,1,1.61.24,3,3,0,0,1,1.1.62,2.56,2.56,0,0,1,.64.91,2.8,2.8,0,0,1,.21,1.07v4.34c0,.3,0,.57,0,.83s0,.49.06.71h-1.44c0-.43,0-.86,0-1.29h0a3.13,3.13,0,0,1-1.27,1.17,4,4,0,0,1-1.71.34,4.23,4.23,0,0,1-1.13-.16,2.72,2.72,0,0,1-.94-.49,2.29,2.29,0,0,1-.64-.8,2.51,2.51,0,0,1-.23-1.1,2.41,2.41,0,0,1,.37-1.38,2.84,2.84,0,0,1,1-.91,5,5,0,0,1,1.49-.5,10.56,10.56,0,0,1,1.82-.15h1.19v-.36a1.68,1.68,0,0,0-.13-.65,1.79,1.79,0,0,0-.37-.58,1.86,1.86,0,0,0-.63-.41,2.41,2.41,0,0,0-.9-.16,3.37,3.37,0,0,0-.82.09,3.58,3.58,0,0,0-.63.23,2.65,2.65,0,0,0-.52.31l-.45.34Zm4.56,3.37a9.57,9.57,0,0,0-1.18.07A4.47,4.47,0,0,0,102,37a2.06,2.06,0,0,0-.81.5,1.32,1.32,0,0,0,.18,1.88,2.37,2.37,0,0,0,1.34.33,2.59,2.59,0,0,0,1.13-.23,2.1,2.1,0,0,0,.75-.58,2.25,2.25,0,0,0,.41-.8,2.91,2.91,0,0,0,.13-.87v-.54Z"/><path class="cls-1" d="M113.52,33.7H111.2v3.86c0,.23,0,.47,0,.7a2,2,0,0,0,.13.63,1,1,0,0,0,.36.45,1.26,1.26,0,0,0,.71.17,4,4,0,0,0,.59,0,1.7,1.7,0,0,0,.56-.2v1.47a2.22,2.22,0,0,1-.75.23,5.77,5.77,0,0,1-.7.06,3.3,3.3,0,0,1-1.45-.26,1.77,1.77,0,0,1-.75-.67,2.25,2.25,0,0,1-.29-.93c0-.34,0-.68,0-1V33.7h-1.87V32.3h1.87V29.91h1.61V32.3h2.32Z"/><path class="cls-1" d="M115.35,29.25a1.13,1.13,0,0,1,.35-.84,1.16,1.16,0,0,1,1.66,0,1.13,1.13,0,0,1,.35.84,1.1,1.1,0,0,1-.35.83,1.16,1.16,0,0,1-1.66,0A1.1,1.1,0,0,1,115.35,29.25Zm.37,3h1.62v8.5h-1.62Z"/><path class="cls-1" d="M119.9,32.3h1.62v1.31h0a2.46,2.46,0,0,1,1.06-1.11,3.56,3.56,0,0,1,1.74-.42,3.89,3.89,0,0,1,1.18.19,2.73,2.73,0,0,1,1,.58,2.88,2.88,0,0,1,.67,1,3.81,3.81,0,0,1,.25,1.46V40.8h-1.61v-5a2.73,2.73,0,0,0-.17-1,1.77,1.77,0,0,0-.43-.69,1.51,1.51,0,0,0-.62-.37,2.18,2.18,0,0,0-.72-.12,2.61,2.61,0,0,0-.94.16,2.09,2.09,0,0,0-.75.51,2.55,2.55,0,0,0-.5.89,4,4,0,0,0-.18,1.27V40.8H119.9Z"/><path class="cls-1" d="M138.41,40.73a4.58,4.58,0,0,1-.34,1.77,4,4,0,0,1-.94,1.38,4.4,4.4,0,0,1-1.47.91,5.49,5.49,0,0,1-1.9.32,6.93,6.93,0,0,1-2.24-.34,5.39,5.39,0,0,1-1.93-1.19l1.1-1.36a4.34,4.34,0,0,0,1.36,1,3.76,3.76,0,0,0,1.67.35,3.59,3.59,0,0,0,1.49-.26,2.39,2.39,0,0,0,.94-.67,2.44,2.44,0,0,0,.5-.94,4.37,4.37,0,0,0,.14-1.07V39.4h0a2.85,2.85,0,0,1-1.27,1.14,3.89,3.89,0,0,1-1.68.37,4.48,4.48,0,0,1-1.73-.33,4.08,4.08,0,0,1-1.37-.92,4.23,4.23,0,0,1-.9-1.38,4.67,4.67,0,0,1-.32-1.73,5.07,5.07,0,0,1,.3-1.75,4.61,4.61,0,0,1,.87-1.43,4.16,4.16,0,0,1,1.37-.95,4.63,4.63,0,0,1,1.78-.34,4,4,0,0,1,1.68.38,3,3,0,0,1,1.28,1.06h0V32.3h1.62ZM134,33.59a2.94,2.94,0,0,0-1.17.22,2.62,2.62,0,0,0-.87.61,2.67,2.67,0,0,0-.56.94,3.5,3.5,0,0,0-.2,1.19,2.83,2.83,0,0,0,.76,2.07,2.7,2.7,0,0,0,2,.78,2.74,2.74,0,0,0,2-.78,2.86,2.86,0,0,0,.75-2.07,3.5,3.5,0,0,0-.2-1.19,2.65,2.65,0,0,0-.55-.94,2.77,2.77,0,0,0-.88-.61A2.94,2.94,0,0,0,134,33.59Z"/><path class="cls-1" d="M23.42,49a3.48,3.48,0,0,0-.94-.7A2.57,2.57,0,0,0,21.3,48a2.51,2.51,0,0,0-1.16.25,2.3,2.3,0,0,0-.82.66,2.88,2.88,0,0,0-.5,1,3.58,3.58,0,0,0-.18,1.14,3.22,3.22,0,0,0,.2,1.12,2.77,2.77,0,0,0,.56.92,2.43,2.43,0,0,0,.86.62,2.71,2.71,0,0,0,1.13.23,2.66,2.66,0,0,0,1.17-.24,3.1,3.1,0,0,0,.89-.71l1.15,1.14a3.54,3.54,0,0,1-1.46,1,5.23,5.23,0,0,1-1.77.31,4.73,4.73,0,0,1-1.8-.33,4.11,4.11,0,0,1-1.41-.9,4.21,4.21,0,0,1-.92-1.4,5.28,5.28,0,0,1,0-3.62,4.27,4.27,0,0,1,.91-1.42,4.21,4.21,0,0,1,1.4-.92,4.8,4.8,0,0,1,1.82-.33,4.94,4.94,0,0,1,1.79.33,4,4,0,0,1,1.48,1Z"/><path class="cls-1" d="M25.57,51a4.43,4.43,0,0,1,1.31-3.16,4.43,4.43,0,0,1,1.44-1,4.68,4.68,0,0,1,3.55,0,4.43,4.43,0,0,1,1.44,1,4.68,4.68,0,0,1,1,1.42A4.32,4.32,0,0,1,34.61,51a4.47,4.47,0,0,1-.34,1.75,4.63,4.63,0,0,1-1,1.41,4.57,4.57,0,0,1-1.44,1,4.56,4.56,0,0,1-3.55,0,4.57,4.57,0,0,1-1.44-1,4.3,4.3,0,0,1-1-1.41A4.48,4.48,0,0,1,25.57,51Zm1.72,0a3.54,3.54,0,0,0,.2,1.19,2.57,2.57,0,0,0,1.44,1.54,2.86,2.86,0,0,0,1.16.23,2.94,2.94,0,0,0,1.17-.23,2.52,2.52,0,0,0,.88-.61,2.69,2.69,0,0,0,.56-.93A3.54,3.54,0,0,0,32.89,51a3.59,3.59,0,0,0-.19-1.2,2.89,2.89,0,0,0-.56-.93,2.52,2.52,0,0,0-.88-.61A2.94,2.94,0,0,0,30.09,48a2.86,2.86,0,0,0-1.16.22,2.52,2.52,0,0,0-.88.61,2.72,2.72,0,0,0-.56.93A3.6,3.6,0,0,0,27.29,51Z"/><path class="cls-1" d="M41.16,48.86a2.4,2.4,0,0,0-.7-.6,2.1,2.1,0,0,0-1-.24,2,2,0,0,0-1,.24A.77.77,0,0,0,38,49a.82.82,0,0,0,.24.61,1.87,1.87,0,0,0,.57.37,3.26,3.26,0,0,0,.71.22l.65.12a8.66,8.66,0,0,1,1,.31,2.71,2.71,0,0,1,.79.47,2,2,0,0,1,.52.7,2.48,2.48,0,0,1,.18,1,2.39,2.39,0,0,1-.3,1.23,2.51,2.51,0,0,1-.79.83,3.11,3.11,0,0,1-1.1.47,5.34,5.34,0,0,1-1.25.15,4.83,4.83,0,0,1-1.86-.33,3.27,3.27,0,0,1-1.42-1.18l1.22-1a4.53,4.53,0,0,0,.87.7,2.15,2.15,0,0,0,1.19.31,2.68,2.68,0,0,0,.62-.07,1.78,1.78,0,0,0,.55-.19,1.22,1.22,0,0,0,.4-.34.87.87,0,0,0-.07-1.07,1.58,1.58,0,0,0-.54-.37,3.49,3.49,0,0,0-.67-.21l-.61-.14a8.86,8.86,0,0,1-1-.29,2.84,2.84,0,0,1-.83-.43,1.89,1.89,0,0,1-.57-.68,2.2,2.2,0,0,1-.22-1A2.4,2.4,0,0,1,36.56,48a2.53,2.53,0,0,1,.74-.82,3.42,3.42,0,0,1,1-.48,4.29,4.29,0,0,1,1.17-.16,4.37,4.37,0,0,1,1.65.32,2.65,2.65,0,0,1,1.26,1.08Z"/><path class="cls-1" d="M49.17,48.12H46.85V52c0,.24,0,.48,0,.71a1.82,1.82,0,0,0,.14.63,1,1,0,0,0,.35.45,1.28,1.28,0,0,0,.71.17,3.13,3.13,0,0,0,.6-.06,1.71,1.71,0,0,0,.55-.19v1.47a2,2,0,0,1-.74.22,6.37,6.37,0,0,1-.71.07,3.2,3.2,0,0,1-1.45-.27,1.7,1.7,0,0,1-.75-.67,2.16,2.16,0,0,1-.29-.92c0-.34,0-.69,0-1V48.12H43.37v-1.4h1.87V44.34h1.61v2.38h2.32Z"/><path class="cls-1" d="M55.77,48.86a2.44,2.44,0,0,0-.71-.6A2,2,0,0,0,54,48a2,2,0,0,0-1,.24.77.77,0,0,0-.43.71.83.83,0,0,0,.25.61,1.87,1.87,0,0,0,.57.37,3.26,3.26,0,0,0,.71.22l.65.12a8.49,8.49,0,0,1,1,.31,2.47,2.47,0,0,1,.79.47,1.92,1.92,0,0,1,.52.7,2.32,2.32,0,0,1,.19,1A2.39,2.39,0,0,1,57,54a2.62,2.62,0,0,1-.79.83,3.16,3.16,0,0,1-1.11.47,5.19,5.19,0,0,1-1.24.15A4.83,4.83,0,0,1,52,55.12a3.35,3.35,0,0,1-1.43-1.18l1.22-1a4.92,4.92,0,0,0,.88.7,2.13,2.13,0,0,0,1.19.31,2.68,2.68,0,0,0,.62-.07,1.88,1.88,0,0,0,.55-.19,1.47,1.47,0,0,0,.4-.34.81.81,0,0,0,.15-.48.84.84,0,0,0-.22-.59,1.68,1.68,0,0,0-.54-.37,3.49,3.49,0,0,0-.67-.21l-.62-.14a9.34,9.34,0,0,1-1-.29,2.84,2.84,0,0,1-.83-.43,1.89,1.89,0,0,1-.57-.68,2.08,2.08,0,0,1-.22-1A2.29,2.29,0,0,1,51.17,48a2.53,2.53,0,0,1,.74-.82,3.42,3.42,0,0,1,1-.48,4.23,4.23,0,0,1,1.17-.16,4.37,4.37,0,0,1,1.65.32A2.65,2.65,0,0,1,57,47.91Z"/><rect class="cls-2" x="0.81" y="29.74" width="10.45" height="10.45"/><path class="cls-3" d="M94.65,23.49c-2.93,0-5.31-1.48-5.31-3.29V12.6c0-1.81,2.38-3.29,5.31-3.29S100,10.79,100,12.6v7.6C100,22,97.58,23.49,94.65,23.49Zm-4.81-4.42V20.2C89.84,21.73,92,23,94.65,23s4.81-1.25,4.81-2.78V19.07a7.07,7.07,0,0,1-9.62,0Zm0-1.4c0,1.53,2.16,2.78,4.81,2.78s4.81-1.25,4.81-2.78V16.54a7.07,7.07,0,0,1-9.62,0Zm0-2.54c0,1.54,2.16,2.79,4.81,2.79s4.81-1.25,4.81-2.79V14a7.07,7.07,0,0,1-9.62,0Zm0-2.53c0,1.54,2.16,2.79,4.81,2.79s4.81-1.25,4.81-2.79S97.3,9.82,94.65,9.82,89.84,11.07,89.84,12.6Zm13.42,6.84a8.37,8.37,0,0,1-2.09-.26.25.25,0,0,1-.18-.31.26.26,0,0,1,.31-.18,7.85,7.85,0,0,0,2,.24c2.65,0,4.81-1.25,4.81-2.78V15a6.14,6.14,0,0,1-4.81,1.89,8.37,8.37,0,0,1-2.09-.26.26.26,0,0,1-.18-.32.24.24,0,0,1,.31-.17,7.8,7.8,0,0,0,2,.24c2.65,0,4.81-1.25,4.81-2.78V12.49a6.17,6.17,0,0,1-4.81,1.89,8.37,8.37,0,0,1-2.09-.26.25.25,0,0,1-.18-.31.27.27,0,0,1,.31-.19,7.42,7.42,0,0,0,2,.25c2.65,0,4.81-1.25,4.81-2.79V10a6.17,6.17,0,0,1-4.81,1.89,7.93,7.93,0,0,1-2.09-.27.24.24,0,0,1-.18-.31.26.26,0,0,1,.31-.18,7.79,7.79,0,0,0,2,.25c2.65,0,4.81-1.25,4.81-2.79V7.43a7.07,7.07,0,0,1-9.62,0V8.55a.25.25,0,0,1-.25.26.26.26,0,0,1-.26-.26V3.49c0-1.81,2.39-3.29,5.32-3.29s5.31,1.48,5.31,3.29V16.15C108.57,18,106.19,19.44,103.26,19.44ZM98.45,6c0,1.54,2.16,2.79,4.81,2.79s4.81-1.25,4.81-2.79V4.9a6.17,6.17,0,0,1-4.81,1.88A6.15,6.15,0,0,1,98.45,4.9Zm0-2.53c0,1.54,2.16,2.79,4.81,2.79s4.81-1.25,4.81-2.79S105.91.71,103.26.71,98.45,2,98.45,3.49Z"/></svg>