<svg id="Layer_1" data-name="Layer 1" xmlns="http://www.w3.org/2000/svg" viewBox="0 0 170.52 63.19"><defs><style>.cls-1{fill:#414042;}.cls-2{fill:#58595b;}</style></defs><path class="cls-1" d="M19.87,12.73l.05,0A2.82,2.82,0,0,1,21,12.34a6.25,6.25,0,0,1,1.3-.15,5.47,5.47,0,0,1,2.11.4,5.33,5.33,0,0,1,1.69,1.13,5.14,5.14,0,0,1,1.12,1.7,5.67,5.67,0,0,1,.41,2.17,5.57,5.57,0,0,1-.42,2.2,5.07,5.07,0,0,1-1.19,1.7,5.34,5.34,0,0,1-1.8,1.11,6.8,6.8,0,0,1-4.54,0,5.34,5.34,0,0,1-1.8-1.11,5,5,0,0,1-1.18-1.7,5.57,5.57,0,0,1-.42-2.2,6.79,6.79,0,0,1,.43-2.54,14.83,14.83,0,0,1,1.07-2.15l4.72-7.67h2.09Zm-1.78,4.86a4,4,0,0,0,.29,1.53,3.51,3.51,0,0,0,.8,1.2,3.71,3.71,0,0,0,1.23.77,4.6,4.6,0,0,0,3.16,0,3.5,3.5,0,0,0,2-2,4.32,4.32,0,0,0,0-3.06,3.36,3.36,0,0,0-.81-1.18,3.69,3.69,0,0,0-1.23-.78,4.6,4.6,0,0,0-3.16,0,3.91,3.91,0,0,0-1.23.78,3.34,3.34,0,0,0-.8,1.18A4,4,0,0,0,18.09,17.59Z"/><path class="cls-1" d="M33.61,21.51a1.32,1.32,0,0,1-.37.93,1.24,1.24,0,0,1-1,.41,1.22,1.22,0,0,1-1-.41,1.34,1.34,0,0,1,0-1.85,1.22,1.22,0,0,1,1-.41,1.24,1.24,0,0,1,1,.41A1.32,1.32,0,0,1,33.61,21.51Z"/><path class="cls-1" d="M40.3,13.4a3.6,3.6,0,0,1-1-.58,4.17,4.17,0,0,1-.83-.9,4.59,4.59,0,0,1-.54-1.14,4.23,4.23,0,0,1-.2-1.28,4.36,4.36,0,0,1,.4-1.89,4.15,4.15,0,0,1,1.06-1.44,4.53,4.53,0,0,1,1.55-.91,5.49,5.49,0,0,1,3.75,0A4.68,4.68,0,0,1,46,6.17a4.42,4.42,0,0,1,1.06,1.44,4.5,4.5,0,0,1,.39,1.89,3.94,3.94,0,0,1-.2,1.28,4.59,4.59,0,0,1-.54,1.14,4.13,4.13,0,0,1-.82.9,3.88,3.88,0,0,1-1,.58v0a4.19,4.19,0,0,1,2.37,1.62,5,5,0,0,1,.88,3,4.57,4.57,0,0,1-.45,2,5.2,5.2,0,0,1-1.21,1.57,5.4,5.4,0,0,1-1.75,1,6.72,6.72,0,0,1-4.22,0,5.3,5.3,0,0,1-1.75-1,4.9,4.9,0,0,1-1.21-1.57A4.45,4.45,0,0,1,37,18a5,5,0,0,1,.89-3,4.12,4.12,0,0,1,2.37-1.62Zm6,4.39a3.54,3.54,0,0,0-1-2.56,3.32,3.32,0,0,0-1.18-.75,4.58,4.58,0,0,0-3.1,0,3.36,3.36,0,0,0-1.17.75,3.53,3.53,0,0,0-.75,1.14,3.87,3.87,0,0,0,0,2.84,3.49,3.49,0,0,0,.75,1.13,3.36,3.36,0,0,0,1.17.75,4.43,4.43,0,0,0,3.1,0,3.32,3.32,0,0,0,1.18-.75,3.5,3.5,0,0,0,1-2.55Zm-.64-8.14a3.15,3.15,0,0,0-.24-1.24,2.81,2.81,0,0,0-.65-1,3,3,0,0,0-1-.64,3.3,3.3,0,0,0-2.47,0,3.08,3.08,0,0,0-1,.64,3,3,0,0,0-.66,1,3.43,3.43,0,0,0,0,2.47,2.88,2.88,0,0,0,.66,1,3.11,3.11,0,0,0,1,.65,3.43,3.43,0,0,0,2.47,0,3,3,0,0,0,1-.65,2.72,2.72,0,0,0,.65-1A3.14,3.14,0,0,0,45.68,9.65Z"/><path class="cls-1" d="M59.05,9.25a4.16,4.16,0,0,1-.34,1.7,4.08,4.08,0,0,1-.92,1.37,4.63,4.63,0,0,1-1.38.92,4.57,4.57,0,0,1-3.41,0,4.63,4.63,0,0,1-1.38-.92A4.08,4.08,0,0,1,50.7,11a4.16,4.16,0,0,1-.34-1.7,4.32,4.32,0,0,1,1.26-3.07,4.43,4.43,0,0,1,6.17,0,4.32,4.32,0,0,1,1.26,3.07Zm-1.48,0a2.63,2.63,0,0,0-.24-1.13,2.89,2.89,0,0,0-.62-.9,2.54,2.54,0,0,0-.9-.6,3.09,3.09,0,0,0-1.11-.21,3.17,3.17,0,0,0-1.11.21,2.73,2.73,0,0,0-.9.6,2.86,2.86,0,0,0-.61.9,2.63,2.63,0,0,0-.24,1.13,2.71,2.71,0,0,0,.24,1.14,3.11,3.11,0,0,0,.61.9,2.87,2.87,0,0,0,.9.59,3,3,0,0,0,1.11.21,2.89,2.89,0,0,0,1.11-.21,2.66,2.66,0,0,0,.9-.59,3.14,3.14,0,0,0,.62-.9A2.71,2.71,0,0,0,57.57,9.25ZM54.78,23.46,53.5,22.8,64.62,4.47l1.26.66ZM69,18.68a4.32,4.32,0,0,1-1.26,3.07,4.6,4.6,0,0,1-1.38.91,4.57,4.57,0,0,1-3.41,0,4.6,4.6,0,0,1-1.38-.91,4.32,4.32,0,0,1-1.26-3.07A4.25,4.25,0,0,1,60.69,17a4.29,4.29,0,0,1,.92-1.37A4.6,4.6,0,0,1,63,14.69a4.57,4.57,0,0,1,3.41,0,4.6,4.6,0,0,1,1.38.91A4.29,4.29,0,0,1,68.7,17,4.25,4.25,0,0,1,69,18.68Zm-1.48,0a2.68,2.68,0,0,0-.24-1.14,3.11,3.11,0,0,0-.61-.9,2.87,2.87,0,0,0-.9-.59,3,3,0,0,0-1.11-.21,2.89,2.89,0,0,0-1.11.21,2.8,2.8,0,0,0-.91.59,3.11,3.11,0,0,0-.61.9,2.68,2.68,0,0,0-.24,1.14,2.63,2.63,0,0,0,.24,1.13,2.86,2.86,0,0,0,.61.9,2.65,2.65,0,0,0,.91.59,2.89,2.89,0,0,0,1.11.21,3,3,0,0,0,1.11-.21,2.7,2.7,0,0,0,.9-.59,2.86,2.86,0,0,0,.61-.9A2.63,2.63,0,0,0,67.56,18.68Z"/><path class="cls-1" d="M19.42,31H15.33V29.38h9.91V31H21.15V42.08H19.42Z"/><path class="cls-1" d="M24.27,37.83a4.23,4.23,0,0,1,.35-1.74,4.45,4.45,0,0,1,1-1.42,4.29,4.29,0,0,1,1.43-1,4.7,4.7,0,0,1,3.56,0,4.39,4.39,0,0,1,1.43,1,4.45,4.45,0,0,1,1,1.42,4.23,4.23,0,0,1,.35,1.74A4.43,4.43,0,0,1,32,41a4.7,4.7,0,0,1-1.43,1,4.59,4.59,0,0,1-5-1,4.43,4.43,0,0,1-1.31-3.17Zm1.72,0a3.5,3.5,0,0,0,.2,1.19,2.52,2.52,0,0,0,.55.93,2.65,2.65,0,0,0,.88.62,3.22,3.22,0,0,0,2.34,0A2.57,2.57,0,0,0,31.39,39a3.64,3.64,0,0,0,0-2.38,2.81,2.81,0,0,0-.55-.94,2.77,2.77,0,0,0-.88-.61,3.22,3.22,0,0,0-2.34,0,2.77,2.77,0,0,0-.88.61,2.65,2.65,0,0,0-.55.94A3.5,3.5,0,0,0,26,37.83Z"/><path class="cls-1" d="M39.9,35H37.58v3.85c0,.24,0,.48,0,.71a1.72,1.72,0,0,0,.14.63.92.92,0,0,0,.35.45,1.28,1.28,0,0,0,.71.17,4,4,0,0,0,.59,0,2,2,0,0,0,.56-.2V42a2,2,0,0,1-.74.22,4.61,4.61,0,0,1-.71.07A3.33,3.33,0,0,1,37.05,42a1.78,1.78,0,0,1-.75-.68,2.16,2.16,0,0,1-.29-.92c0-.34,0-.69,0-1V35H34.1v-1.4H36V31.19h1.61v2.39H39.9Z"/><path class="cls-1" d="M42,34.62a4.63,4.63,0,0,1,1.58-.95,5.68,5.68,0,0,1,1.8-.31,5.12,5.12,0,0,1,1.61.23,3.34,3.34,0,0,1,1.1.63,2.56,2.56,0,0,1,.64.91,3,3,0,0,1,.2,1.07v4.34c0,.3,0,.57,0,.82s0,.49,0,.72H47.58q-.06-.64-.06-1.29h0A3.15,3.15,0,0,1,46.21,42a4.09,4.09,0,0,1-1.7.34,4.17,4.17,0,0,1-1.13-.16,2.72,2.72,0,0,1-.94-.49,2.29,2.29,0,0,1-.64-.8,2.38,2.38,0,0,1-.23-1.1,2.49,2.49,0,0,1,.36-1.38,2.79,2.79,0,0,1,1-.91,4.84,4.84,0,0,1,1.49-.5,10.48,10.48,0,0,1,1.82-.15h1.18v-.36a1.87,1.87,0,0,0-.12-.65,1.82,1.82,0,0,0-.38-.58,1.72,1.72,0,0,0-.63-.41,2.21,2.21,0,0,0-.89-.16,3.32,3.32,0,0,0-.82.09A3.7,3.7,0,0,0,44,35a3,3,0,0,0-.52.31l-.45.34ZM46.57,38q-.57,0-1.17.06a5.07,5.07,0,0,0-1.1.25,1.86,1.86,0,0,0-.8.5,1.12,1.12,0,0,0-.32.82,1.18,1.18,0,0,0,.49,1.06A2.4,2.4,0,0,0,45,41a2.59,2.59,0,0,0,1.13-.22,2.23,2.23,0,0,0,.76-.58,2.43,2.43,0,0,0,.41-.8,3.26,3.26,0,0,0,.12-.87V38Z"/><path class="cls-1" d="M51.42,28.52H53V42.08H51.42Z"/><path class="cls-1" d="M61.81,38.42a2.19,2.19,0,0,0,.24,1,2.52,2.52,0,0,0,.64.78,3.08,3.08,0,0,0,.91.5,3.31,3.31,0,0,0,1.08.18A2.44,2.44,0,0,0,66,40.55a4.22,4.22,0,0,0,1-.93l1.22.94a4.48,4.48,0,0,1-3.77,1.74A4.84,4.84,0,0,1,62.64,42a4,4,0,0,1-2.25-2.36,5.14,5.14,0,0,1-.3-1.77,4.72,4.72,0,0,1,.33-1.77,4.38,4.38,0,0,1,.91-1.42,4.32,4.32,0,0,1,1.39-.94,4.45,4.45,0,0,1,1.76-.34,4.09,4.09,0,0,1,1.91.4,3.75,3.75,0,0,1,1.29,1,4.1,4.1,0,0,1,.72,1.43,6.05,6.05,0,0,1,.23,1.63v.57Zm5.1-1.29a3.41,3.41,0,0,0-.18-1,2.16,2.16,0,0,0-.45-.78,2.23,2.23,0,0,0-.77-.52,2.86,2.86,0,0,0-1.06-.19,2.59,2.59,0,0,0-1.09.23,2.52,2.52,0,0,0-.83.58,2.59,2.59,0,0,0-.53.8,2.1,2.1,0,0,0-.19.87Z"/><path class="cls-1" d="M70.57,33.58h1.5V34.9h0a1.49,1.49,0,0,1,.28-.45,3.65,3.65,0,0,1,.57-.51,4,4,0,0,1,.83-.41,3.12,3.12,0,0,1,1-.17,2.93,2.93,0,0,1,1.59.4,2.85,2.85,0,0,1,1.06,1.18,2.72,2.72,0,0,1,1.17-1.18,3.17,3.17,0,0,1,1.52-.4,3.62,3.62,0,0,1,1.62.32,2.6,2.6,0,0,1,1,.86,3.2,3.2,0,0,1,.49,1.2,7,7,0,0,1,.14,1.39v4.95H81.8V37.34a7,7,0,0,0-.06-.93,2.37,2.37,0,0,0-.26-.79,1.55,1.55,0,0,0-.56-.55,2,2,0,0,0-1-.2,1.88,1.88,0,0,0-1.67.72,3.08,3.08,0,0,0-.5,1.84v4.65H76.18V37.63a9.29,9.29,0,0,0-.06-1.11,2.62,2.62,0,0,0-.25-.87,1.44,1.44,0,0,0-.54-.58,1.93,1.93,0,0,0-.94-.2,2,2,0,0,0-.84.17,2,2,0,0,0-.71.51,2.59,2.59,0,0,0-.48.87,3.88,3.88,0,0,0-.18,1.25v4.41H70.57Z"/><path class="cls-1" d="M85.86,33.58h1.61V34.8h0a3,3,0,0,1,1.28-1.06,4,4,0,0,1,1.68-.38,4.42,4.42,0,0,1,1.78.34,4.16,4.16,0,0,1,1.37.95,4.61,4.61,0,0,1,.87,1.43,5,5,0,0,1,.3,1.75,5.14,5.14,0,0,1-.3,1.77A4.4,4.4,0,0,1,93.62,41a4.16,4.16,0,0,1-1.37,1,4.59,4.59,0,0,1-1.78.34,4,4,0,0,1-1.73-.39,3,3,0,0,1-1.23-1h0v6.28H85.86Zm4.41,1.29a2.94,2.94,0,0,0-1.17.22,2.77,2.77,0,0,0-.88.61,2.65,2.65,0,0,0-.55.94,3.64,3.64,0,0,0,0,2.38,2.52,2.52,0,0,0,.55.93,2.65,2.65,0,0,0,.88.62,3.22,3.22,0,0,0,2.34,0A2.57,2.57,0,0,0,92.87,39a3.64,3.64,0,0,0,0-2.38,2.81,2.81,0,0,0-.55-.94,2.77,2.77,0,0,0-.88-.61A2.94,2.94,0,0,0,90.27,34.87Z"/><path class="cls-1" d="M96.94,28.52h1.62V42.08H96.94Z"/><path class="cls-1" d="M100.71,37.83a4.4,4.4,0,0,1,.35-1.74,4.81,4.81,0,0,1,1-1.42,4.43,4.43,0,0,1,1.44-1,4.68,4.68,0,0,1,3.55,0,4.43,4.43,0,0,1,1.44,1,4.81,4.81,0,0,1,1,1.42,4.4,4.4,0,0,1,.35,1.74,4.48,4.48,0,0,1-.35,1.75,4.68,4.68,0,0,1-1,1.42A4.75,4.75,0,0,1,107,42a4.68,4.68,0,0,1-3.55,0A4.75,4.75,0,0,1,102,41a4.68,4.68,0,0,1-1-1.42A4.48,4.48,0,0,1,100.71,37.83Zm1.73,0a3.5,3.5,0,0,0,.19,1.19,2.62,2.62,0,0,0,1.44,1.55,3.19,3.19,0,0,0,2.33,0A2.62,2.62,0,0,0,107.84,39a3.82,3.82,0,0,0,0-2.38,2.55,2.55,0,0,0-1.44-1.55,3.19,3.19,0,0,0-2.33,0,2.55,2.55,0,0,0-1.44,1.55A3.5,3.5,0,0,0,102.44,37.83Z"/><path class="cls-1" d="M110.78,33.58h1.87l2.52,6.64h0l2.42-6.64h1.72l-4,10.33c-.14.37-.29.71-.44,1a3.24,3.24,0,0,1-.56.78,2.23,2.23,0,0,1-.78.5,3,3,0,0,1-1.11.18,6.11,6.11,0,0,1-.73,0,2.77,2.77,0,0,1-.7-.18l.19-1.48a2.41,2.41,0,0,0,1,.2,1.67,1.67,0,0,0,.63-.1,1.18,1.18,0,0,0,.44-.28,2,2,0,0,0,.32-.44c.08-.17.16-.36.25-.58l.52-1.34Z"/><path class="cls-1" d="M122,38.42a2.19,2.19,0,0,0,.24,1,2.52,2.52,0,0,0,.64.78,3,3,0,0,0,.91.5,3.31,3.31,0,0,0,1.08.18,2.44,2.44,0,0,0,1.31-.35,4.22,4.22,0,0,0,1-.93l1.22.94a4.49,4.49,0,0,1-3.77,1.74,4.84,4.84,0,0,1-1.82-.34,4,4,0,0,1-2.25-2.36,5.14,5.14,0,0,1-.31-1.77,4.73,4.73,0,0,1,.34-1.77,4.38,4.38,0,0,1,.91-1.42,4.22,4.22,0,0,1,1.39-.94,4.45,4.45,0,0,1,1.76-.34,4.09,4.09,0,0,1,1.91.4,3.75,3.75,0,0,1,1.29,1,4.1,4.1,0,0,1,.72,1.43,6.05,6.05,0,0,1,.23,1.63v.57Zm5.09-1.29a3.42,3.42,0,0,0-.17-1,2.16,2.16,0,0,0-.45-.78,2.23,2.23,0,0,0-.77-.52,2.86,2.86,0,0,0-1.06-.19,2.59,2.59,0,0,0-1.09.23,2.52,2.52,0,0,0-.83.58,2.59,2.59,0,0,0-.53.8,2.1,2.1,0,0,0-.19.87Z"/><path class="cls-1" d="M132,38.42a2.19,2.19,0,0,0,.24,1,2.52,2.52,0,0,0,.64.78,3,3,0,0,0,.91.5,3.31,3.31,0,0,0,1.08.18,2.44,2.44,0,0,0,1.31-.35,4.22,4.22,0,0,0,1-.93l1.22.94a4.49,4.49,0,0,1-3.77,1.74,4.8,4.8,0,0,1-1.82-.34,4,4,0,0,1-2.25-2.36,4.92,4.92,0,0,1-.31-1.77,4.72,4.72,0,0,1,.33-1.77,4.57,4.57,0,0,1,.92-1.42,4.22,4.22,0,0,1,1.39-.94,4.45,4.45,0,0,1,1.76-.34,4.12,4.12,0,0,1,1.91.4,3.62,3.62,0,0,1,1.28,1,4,4,0,0,1,.73,1.43,6,6,0,0,1,.22,1.63v.57Zm5.09-1.29a3.42,3.42,0,0,0-.17-1,2,2,0,0,0-.46-.78,2.1,2.1,0,0,0-.76-.52,2.88,2.88,0,0,0-1.07-.19,2.58,2.58,0,0,0-1.08.23,2.68,2.68,0,0,0-.84.58,3,3,0,0,0-.53.8,2.26,2.26,0,0,0-.18.87Z"/><path class="cls-1" d="M15.3,50h1.78L19,56.21h0L21,50h1.69l2.11,6.23h0L26.6,50h1.68l-2.69,8.34H24l-2.21-6.23h0l-2,6.23H18.05Zm14.39,1a4.49,4.49,0,0,1,1.55-.92A5.44,5.44,0,0,1,33,49.77a4.86,4.86,0,0,1,1.57.23,3,3,0,0,1,1.08.62,2.3,2.3,0,0,1,.63.89,2.83,2.83,0,0,1,.2,1v4.26c0,.29,0,.56,0,.81s0,.48,0,.7H35.14c0-.42,0-.84,0-1.26h0a3.13,3.13,0,0,1-1.25,1.14,4,4,0,0,1-1.67.33A3.68,3.68,0,0,1,31,58.37a2.72,2.72,0,0,1-.93-.47,2.26,2.26,0,0,1-.62-.78A2.47,2.47,0,0,1,29.25,56a2.41,2.41,0,0,1,.36-1.35,2.76,2.76,0,0,1,1-.89,4.65,4.65,0,0,1,1.46-.49,10,10,0,0,1,1.78-.15H35V52.8a1.85,1.85,0,0,0-.12-.64,1.6,1.6,0,0,0-.37-.57,1.75,1.75,0,0,0-.61-.4A2.35,2.35,0,0,0,33,51a3.09,3.09,0,0,0-.8.09,3.58,3.58,0,0,0-.63.22,2.54,2.54,0,0,0-.51.3l-.44.34Zm4.47,3.31a11.22,11.22,0,0,0-1.15.06,4.39,4.39,0,0,0-1.08.24,2.16,2.16,0,0,0-.79.49,1.13,1.13,0,0,0-.31.81,1.16,1.16,0,0,0,.49,1,2.37,2.37,0,0,0,1.31.32,2.68,2.68,0,0,0,1.11-.22,2.15,2.15,0,0,0,.74-.58,2.22,2.22,0,0,0,.4-.78,3.17,3.17,0,0,0,.12-.85v-.53Zm13,3.94A4.59,4.59,0,0,1,46.82,60a3.92,3.92,0,0,1-.93,1.36,4.22,4.22,0,0,1-1.44.89,5.26,5.26,0,0,1-1.86.31,6.89,6.89,0,0,1-2.19-.33,5.24,5.24,0,0,1-1.9-1.16l1.08-1.34a4.31,4.31,0,0,0,1.33,1,3.76,3.76,0,0,0,1.64.35A3.63,3.63,0,0,0,44,60.81a2.39,2.39,0,0,0,1.41-1.58,4.21,4.21,0,0,0,.14-1V57h-.05a2.85,2.85,0,0,1-1.24,1.12,4,4,0,0,1-1.65.36,4.33,4.33,0,0,1-1.7-.33,3.91,3.91,0,0,1-1.34-.9,4,4,0,0,1-.88-1.35,4.51,4.51,0,0,1-.32-1.7,4.8,4.8,0,0,1,.3-1.71,4.14,4.14,0,0,1,.85-1.4,3.84,3.84,0,0,1,1.34-.93,4.3,4.3,0,0,1,1.75-.34,4,4,0,0,1,1.65.37,3,3,0,0,1,1.25,1h0V50h1.58Zm-4.33-7a2.79,2.79,0,0,0-1.14.22,2.55,2.55,0,0,0-.86.6,2.61,2.61,0,0,0-.55.91,3.42,3.42,0,0,0-.19,1.17,2.8,2.8,0,0,0,.74,2,3,3,0,0,0,4,0,2.8,2.8,0,0,0,.74-2,3.42,3.42,0,0,0-.2-1.17,2.59,2.59,0,0,0-.54-.91,2.66,2.66,0,0,0-.86-.6A2.81,2.81,0,0,0,42.81,51.25Zm7.92,3.48a2.08,2.08,0,0,0,.24,1,2.41,2.41,0,0,0,.62.76,2.8,2.8,0,0,0,.9.49,3.13,3.13,0,0,0,1,.18,2.37,2.37,0,0,0,1.29-.34,4.05,4.05,0,0,0,1-.91l1.2.92a4.42,4.42,0,0,1-3.7,1.7,4.63,4.63,0,0,1-1.78-.33,3.85,3.85,0,0,1-1.36-.92,4.2,4.2,0,0,1-.85-1.39,5,5,0,0,1-.3-1.74,4.48,4.48,0,0,1,.33-1.73A4.19,4.19,0,0,1,50.26,51a4.08,4.08,0,0,1,1.37-.92,4.23,4.23,0,0,1,1.72-.34,4.07,4.07,0,0,1,1.87.39,3.7,3.7,0,0,1,1.26,1,3.91,3.91,0,0,1,.71,1.41,5.7,5.7,0,0,1,.22,1.59v.56Zm5-1.26a3.57,3.57,0,0,0-.17-1,2.2,2.2,0,0,0-.45-.77,2.26,2.26,0,0,0-.75-.51,2.8,2.8,0,0,0-1-.18,2.5,2.5,0,0,0-1.07.22,2.86,2.86,0,0,0-.82.57,3,3,0,0,0-.52.78,2.25,2.25,0,0,0-.18.86Zm8-1.39a2.37,2.37,0,0,0-.7-.59,2.18,2.18,0,0,0-2,0,.76.76,0,0,0-.41.69.78.78,0,0,0,.24.6,1.82,1.82,0,0,0,.56.37,3.8,3.8,0,0,0,.7.21l.63.12q.51.14,1,.3a2.54,2.54,0,0,1,.77.46,1.94,1.94,0,0,1,.51.69,2.23,2.23,0,0,1,.19,1,2.34,2.34,0,0,1-.3,1.21,2.52,2.52,0,0,1-.78.81,2.92,2.92,0,0,1-1.08.46,5,5,0,0,1-1.22.14A4.85,4.85,0,0,1,60,58.22a3.3,3.3,0,0,1-1.4-1.16l1.2-1a4.49,4.49,0,0,0,.86.69,2.13,2.13,0,0,0,1.16.3,3.26,3.26,0,0,0,.61-.07A1.82,1.82,0,0,0,63,56.8a1.27,1.27,0,0,0,.39-.33.78.78,0,0,0,.15-.47.83.83,0,0,0-.22-.58,1.66,1.66,0,0,0-.53-.36,3.3,3.3,0,0,0-.65-.21c-.23-.06-.43-.1-.61-.13-.34-.09-.66-.18-1-.29a2.59,2.59,0,0,1-.81-.42,1.86,1.86,0,0,1-.57-.67,2.15,2.15,0,0,1-.21-1,2.28,2.28,0,0,1,.27-1.13,2.44,2.44,0,0,1,.73-.8,3.19,3.19,0,0,1,1-.48,4.49,4.49,0,0,1,1.15-.16,4.29,4.29,0,0,1,1.62.32,2.61,2.61,0,0,1,1.23,1ZM72.05,51a4.49,4.49,0,0,1,1.55-.92,5.39,5.39,0,0,1,1.76-.31,4.86,4.86,0,0,1,1.57.23,3,3,0,0,1,1.08.62,2.41,2.41,0,0,1,.63.89,2.83,2.83,0,0,1,.2,1v4.26c0,.29,0,.56,0,.81s0,.48,0,.7H77.5c0-.42,0-.84,0-1.26h0a3.13,3.13,0,0,1-1.25,1.14,4,4,0,0,1-1.67.33,3.68,3.68,0,0,1-1.11-.16,2.72,2.72,0,0,1-.93-.47,2.26,2.26,0,0,1-.62-.78A2.47,2.47,0,0,1,71.61,56,2.41,2.41,0,0,1,72,54.68a2.76,2.76,0,0,1,1-.89,4.65,4.65,0,0,1,1.46-.49,10,10,0,0,1,1.78-.15h1.16V52.8a1.85,1.85,0,0,0-.12-.64,1.75,1.75,0,0,0-.37-.57,1.7,1.7,0,0,0-.62-.4,2.31,2.31,0,0,0-.88-.15,3.2,3.2,0,0,0-.8.09,3.77,3.77,0,0,0-.62.22,2.54,2.54,0,0,0-.51.3L73,52Zm4.47,3.31a11.22,11.22,0,0,0-1.15.06,4.39,4.39,0,0,0-1.08.24,2.16,2.16,0,0,0-.79.49A1.29,1.29,0,0,0,73.68,57a2.37,2.37,0,0,0,1.31.32,2.68,2.68,0,0,0,1.11-.22,2,2,0,0,0,.73-.58,2.09,2.09,0,0,0,.41-.78,3.17,3.17,0,0,0,.12-.85v-.53ZM81.14,50h1.59v1.29h0a2.31,2.31,0,0,1,1-1.08,3.39,3.39,0,0,1,1.71-.42,3.43,3.43,0,0,1,1.15.19,2.57,2.57,0,0,1,1,.57,3,3,0,0,1,.66,1A4,4,0,0,1,88.53,53v5.36H87V53.4a2.72,2.72,0,0,0-.16-1,1.87,1.87,0,0,0-.42-.67,1.67,1.67,0,0,0-.61-.37,2.4,2.4,0,0,0-.71-.11,2.54,2.54,0,0,0-.92.16,1.8,1.8,0,0,0-.73.5,2.31,2.31,0,0,0-.5.87A4.2,4.2,0,0,0,82.73,54v4.29H81.14Zm18.14,8.34H97.7V57.13h0a2.93,2.93,0,0,1-1.26,1,3.81,3.81,0,0,1-1.64.37A4.44,4.44,0,0,1,93,58.2a3.84,3.84,0,0,1-1.34-.93,4.3,4.3,0,0,1-.85-1.39,5.14,5.14,0,0,1,0-3.46A4.1,4.1,0,0,1,91.67,51,4,4,0,0,1,93,50.11a4.27,4.27,0,0,1,1.75-.34,3.91,3.91,0,0,1,1.69.38,2.87,2.87,0,0,1,1.21,1h0V45h1.58ZM95,57.06a3,3,0,0,0,1.15-.22,2.66,2.66,0,0,0,.86-.6,2.7,2.7,0,0,0,.54-.92,3.52,3.52,0,0,0,0-2.34,2.75,2.75,0,0,0-.54-.91,2.66,2.66,0,0,0-.86-.6,3.09,3.09,0,0,0-2.29,0,2.55,2.55,0,0,0-.86.6,2.61,2.61,0,0,0-.55.91,3.7,3.7,0,0,0,0,2.34,2.53,2.53,0,0,0,1.41,1.52A3,3,0,0,0,95,57.06Zm11.61-12h1.59v6.16h0a2.9,2.9,0,0,1,1.22-1,3.86,3.86,0,0,1,1.68-.38,4.27,4.27,0,0,1,1.75.34,3.86,3.86,0,0,1,1.34.92,4.1,4.1,0,0,1,.85,1.39,5.14,5.14,0,0,1,0,3.46,4.3,4.3,0,0,1-.85,1.39,3.75,3.75,0,0,1-1.34.93,4.44,4.44,0,0,1-1.75.33,3.81,3.81,0,0,1-1.64-.37,3.06,3.06,0,0,1-1.26-1h0v1.19h-1.59Zm4.33,12a3,3,0,0,0,1.14-.22,2.45,2.45,0,0,0,1.41-1.52,3.7,3.7,0,0,0,0-2.34,2.75,2.75,0,0,0-.54-.91,2.7,2.7,0,0,0-.87-.6,3.06,3.06,0,0,0-2.28,0,2.55,2.55,0,0,0-.86.6,2.61,2.61,0,0,0-.55.91,3.7,3.7,0,0,0,0,2.34,2.53,2.53,0,0,0,1.41,1.52A3,3,0,0,0,110.89,57.06Zm7.62-2.33a2.2,2.2,0,0,0,.23,1,2.44,2.44,0,0,0,.63.76,2.8,2.8,0,0,0,.9.49,3.13,3.13,0,0,0,1,.18,2.39,2.39,0,0,0,1.29-.34,4.24,4.24,0,0,0,1-.91l1.19.92a4.4,4.4,0,0,1-3.69,1.7,4.59,4.59,0,0,1-1.78-.33,3.85,3.85,0,0,1-1.36-.92,4.2,4.2,0,0,1-.85-1.39,5,5,0,0,1-.3-1.74,4.67,4.67,0,0,1,.32-1.73A4.38,4.38,0,0,1,118,51a4.14,4.14,0,0,1,1.36-.92,4.31,4.31,0,0,1,1.73-.34,4.07,4.07,0,0,1,1.87.39,3.7,3.7,0,0,1,1.26,1,3.91,3.91,0,0,1,.71,1.41,5.7,5.7,0,0,1,.22,1.59v.56Zm5-1.26a3.23,3.23,0,0,0-.16-1,2.2,2.2,0,0,0-.45-.77,2.26,2.26,0,0,0-.75-.51,2.82,2.82,0,0,0-1-.18,2.48,2.48,0,0,0-1.06.22,2.73,2.73,0,0,0-.82.57,3,3,0,0,0-.52.78,2.25,2.25,0,0,0-.18.86ZM127.09,50h1.58v1.29h0a2.31,2.31,0,0,1,1-1.08,3.37,3.37,0,0,1,1.7-.42,3.48,3.48,0,0,1,1.16.19,2.46,2.46,0,0,1,1,.57,2.69,2.69,0,0,1,.66,1,3.74,3.74,0,0,1,.25,1.44v5.36H132.9V53.4a3,3,0,0,0-.16-1,2,2,0,0,0-.42-.67,1.67,1.67,0,0,0-.61-.37,2.45,2.45,0,0,0-.71-.11,2.51,2.51,0,0,0-.92.16,1.84,1.84,0,0,0-.74.5,2.44,2.44,0,0,0-.49.87,3.88,3.88,0,0,0-.18,1.25v4.29h-1.58Zm11,4.75a2.08,2.08,0,0,0,.24,1,2.28,2.28,0,0,0,.62.76,2.8,2.8,0,0,0,.9.49,3.13,3.13,0,0,0,1,.18,2.37,2.37,0,0,0,1.29-.34,4.24,4.24,0,0,0,1-.91l1.2.92a4.42,4.42,0,0,1-3.7,1.7,4.59,4.59,0,0,1-1.78-.33,3.85,3.85,0,0,1-1.36-.92,4.2,4.2,0,0,1-.85-1.39,5,5,0,0,1-.3-1.74,4.48,4.48,0,0,1,.33-1.73A4.19,4.19,0,0,1,137.6,51a4.08,4.08,0,0,1,1.37-.92,4.23,4.23,0,0,1,1.72-.34,4.07,4.07,0,0,1,1.87.39,3.7,3.7,0,0,1,1.26,1,3.91,3.91,0,0,1,.71,1.41,5.7,5.7,0,0,1,.22,1.59v.56Zm5-1.26a3.23,3.23,0,0,0-.16-1,2.2,2.2,0,0,0-.45-.77,2.26,2.26,0,0,0-.75-.51,2.82,2.82,0,0,0-1-.18,2.48,2.48,0,0,0-1.06.22,2.73,2.73,0,0,0-.82.57,3,3,0,0,0-.52.78,2.25,2.25,0,0,0-.18.86Zm4.21-2.11h-1.8V50h1.8V48.12a4,4,0,0,1,.64-2.49,2.63,2.63,0,0,1,2.21-.82l.55,0a3.09,3.09,0,0,1,.63.11l-.18,1.4a1.93,1.93,0,0,0-.44-.12,3.15,3.15,0,0,0-.46,0,1.55,1.55,0,0,0-.7.14.92.92,0,0,0-.41.37,1.53,1.53,0,0,0-.2.59,6.21,6.21,0,0,0,0,.79V50h1.88v1.38h-1.9v7h-1.58ZM152,47a1.16,1.16,0,0,1,1.16-1.16,1.09,1.09,0,0,1,.81.34,1.14,1.14,0,0,1,0,1.64,1.09,1.09,0,0,1-.81.34A1.16,1.16,0,0,1,152,47Zm.35,3h1.58v8.34h-1.58Zm8.58,1.38h-2.27v3.78c0,.23,0,.46,0,.69a2,2,0,0,0,.13.62,1.09,1.09,0,0,0,.35.44,1.22,1.22,0,0,0,.7.17,2.93,2.93,0,0,0,.58-.06,1.58,1.58,0,0,0,.54-.19v1.44a1.91,1.91,0,0,1-.73.22,5.48,5.48,0,0,1-.69.06,3.23,3.23,0,0,1-1.42-.25,1.78,1.78,0,0,1-.74-.66,2.26,2.26,0,0,1-.28-.91c0-.33,0-.67,0-1V51.36h-1.83V50h1.83V47.64h1.58V50h2.27Zm6.47.72a2.21,2.21,0,0,0-.69-.59,2,2,0,0,0-1-.24,1.92,1.92,0,0,0-1,.24.76.76,0,0,0-.41.69.78.78,0,0,0,.24.6,1.71,1.71,0,0,0,.56.37,3.94,3.94,0,0,0,.69.21l.64.12q.51.14,1,.3a2.81,2.81,0,0,1,.77.46,1.94,1.94,0,0,1,.51.69,2.38,2.38,0,0,1,.18,1,2.33,2.33,0,0,1-.29,1.21,2.52,2.52,0,0,1-.78.81,3,3,0,0,1-1.08.46,5,5,0,0,1-1.22.14,4.85,4.85,0,0,1-1.82-.31,3.24,3.24,0,0,1-1.4-1.16l1.19-1a4.89,4.89,0,0,0,.87.69,2.11,2.11,0,0,0,1.16.3,3.07,3.07,0,0,0,.6-.07,1.78,1.78,0,0,0,.55-.19,1.27,1.27,0,0,0,.39-.33.78.78,0,0,0,.15-.47.83.83,0,0,0-.22-.58,1.77,1.77,0,0,0-.53-.36,3.53,3.53,0,0,0-.65-.21c-.23-.06-.43-.1-.61-.13-.34-.09-.66-.18-1-.29a2.83,2.83,0,0,1-.81-.42,1.93,1.93,0,0,1-.56-.67,2.15,2.15,0,0,1-.21-1,2.28,2.28,0,0,1,.27-1.13,2.31,2.31,0,0,1,.72-.8,3.19,3.19,0,0,1,1-.48,4.63,4.63,0,0,1,1.16-.16,4.2,4.2,0,0,1,1.61.32,2.58,2.58,0,0,1,1.24,1Z"/><rect class="cls-2" y="31.16" width="10.45" height="10.45"/><path class="cls-2" d="M102.1,25.37h-.55v-7.8h.55v5.28c.86-.09,1.68-.56,1.68-1.38v-5c0-1.62-3.13-2.51-4.74-2.51l-.54,0,0-.56.58,0c1.9,0,5.29,1,5.29,3.07v5c0,1.17-1.1,1.84-2.23,1.94Zm-6.68,0h-.56V15.9h.56v5.82a2.12,2.12,0,0,0,1.67-1.92v-5c0-1.62-3.5-2.51-5.3-2.51s-5.29.89-5.29,2.51v5a2.11,2.11,0,0,0,1.67,1.92V15.9h.56v9.47h-.56V22.29a2.67,2.67,0,0,1-2.23-2.49v-5c0-2,3.75-3.07,5.85-3.07s5.85,1,5.85,3.07v5a2.66,2.66,0,0,1-2.22,2.49ZM82,25.37h-.56v-2c-1.13-.1-2.23-.77-2.23-1.94v-5c0-2,3.39-3.07,5.29-3.07l.59,0,0,.56-.54,0c-1.6,0-4.73.89-4.73,2.51v5c0,.82.81,1.29,1.67,1.38V17.57H82ZM99.6,12.27A2.32,2.32,0,0,1,97.09,10V9a2.52,2.52,0,0,1,5,0v1A2.32,2.32,0,0,1,99.6,12.27Zm0-5a1.78,1.78,0,0,0-2,1.73v1a2,2,0,0,0,3.91,0V9A1.77,1.77,0,0,0,99.6,7.25ZM84,12.27A2.32,2.32,0,0,1,81.48,10V9a2.52,2.52,0,0,1,5,0v1A2.33,2.33,0,0,1,84,12.27Zm0-5A1.77,1.77,0,0,0,82,9v1a2,2,0,0,0,3.9,0V9A1.77,1.77,0,0,0,84,7.25Zm7.8,3.35a2.33,2.33,0,0,1-2.51-2.29v-1a2.52,2.52,0,0,1,5,0v1A2.33,2.33,0,0,1,91.79,10.6Zm0-5a1.77,1.77,0,0,0-2,1.73v1a2,2,0,0,0,3.9,0v-1A1.77,1.77,0,0,0,91.79,5.58Zm5,0A2.32,2.32,0,0,1,94.3,3.3v-1a2.52,2.52,0,0,1,5,0v1A2.33,2.33,0,0,1,96.81,5.58Zm0-5a1.77,1.77,0,0,0-2,1.73v1a2,2,0,0,0,3.9,0v-1A1.77,1.77,0,0,0,96.81.56Zm-10,5A2.33,2.33,0,0,1,84.26,3.3v-1a2.52,2.52,0,0,1,5,0v1A2.32,2.32,0,0,1,86.77,5.58Zm0-5a1.78,1.78,0,0,0-2,1.73v1a2,2,0,0,0,3.9,0v-1A1.77,1.77,0,0,0,86.77.56Z"/></svg>