<svg id="Layer_1" data-name="Layer 1" xmlns="http://www.w3.org/2000/svg" viewBox="0 0 148.99 59.53"><defs><style>.cls-1{fill:#414042;}.cls-2{fill:#231f20;}.cls-3{fill:#58595b;}</style></defs><path class="cls-1" d="M22.05,7.74a5,5,0,0,1,3,.86,5.92,5.92,0,0,1,1.8,2.19,10.18,10.18,0,0,1,.86,2.93,21.18,21.18,0,0,1,0,6.09,10.18,10.18,0,0,1-.86,2.93,5.92,5.92,0,0,1-1.8,2.19,5,5,0,0,1-3,.86,4.9,4.9,0,0,1-3-.86,5.73,5.73,0,0,1-1.8-2.19,9.88,9.88,0,0,1-.87-2.93,21.18,21.18,0,0,1,0-6.09,9.88,9.88,0,0,1,.87-2.93A5.73,5.73,0,0,1,19,8.6,4.9,4.9,0,0,1,22.05,7.74Zm0,1.62a3.21,3.21,0,0,0-2.26.77A4.8,4.8,0,0,0,18.55,12,9,9,0,0,0,18,14.45c-.08.85-.11,1.62-.11,2.31s0,1.47.11,2.32a9.07,9.07,0,0,0,.53,2.42,4.8,4.8,0,0,0,1.24,1.9,3.21,3.21,0,0,0,2.26.77,3.21,3.21,0,0,0,2.26-.77,4.69,4.69,0,0,0,1.24-1.9,9.07,9.07,0,0,0,.53-2.42c.08-.85.12-1.62.12-2.32s0-1.46-.12-2.31A9,9,0,0,0,25.55,12a4.69,4.69,0,0,0-1.24-1.9A3.21,3.21,0,0,0,22.05,9.36Z"/><path class="cls-1" d="M33.67,24.31a1.32,1.32,0,0,1-.37.93,1.25,1.25,0,0,1-1,.41,1.22,1.22,0,0,1-1-.41,1.34,1.34,0,0,1,0-1.85,1.22,1.22,0,0,1,1-.41,1.25,1.25,0,0,1,1,.41A1.32,1.32,0,0,1,33.67,24.31Z"/><path class="cls-1" d="M48.05,25.5H37V23.45l7-7.08c.26-.26.53-.54.79-.84a7.24,7.24,0,0,0,.71-.94,4.75,4.75,0,0,0,.52-1,3.33,3.33,0,0,0,.2-1.14,3.11,3.11,0,0,0-.26-1.28,2.67,2.67,0,0,0-.73-1,3.19,3.19,0,0,0-1.08-.61,4,4,0,0,0-1.31-.21,3.58,3.58,0,0,0-2.27.74,3.4,3.4,0,0,0-1.21,2l-1.87-.19a4.84,4.84,0,0,1,1.79-3.06,5.4,5.4,0,0,1,3.44-1.11,7,7,0,0,1,2,.28,5.12,5.12,0,0,1,1.68.85,4.1,4.1,0,0,1,1.15,1.42,4.31,4.31,0,0,1,.44,2,5.4,5.4,0,0,1-.31,1.85,8.08,8.08,0,0,1-.8,1.58,10.12,10.12,0,0,1-1.13,1.41c-.42.44-.85.88-1.29,1.31l-5.5,5.45h9.17Z"/><path class="cls-1" d="M59.11,12.05a4.34,4.34,0,0,1-.34,1.7,4.08,4.08,0,0,1-.92,1.37,4.31,4.31,0,0,1-3.09,1.25,4.4,4.4,0,0,1-1.7-.33,4.23,4.23,0,0,1-1.38-.92,4.11,4.11,0,0,1-.93-1.37,4.54,4.54,0,0,1,0-3.4,4.25,4.25,0,0,1,2.31-2.28A4.43,4.43,0,0,1,57.85,9a4.18,4.18,0,0,1,.92,1.37A4.37,4.37,0,0,1,59.11,12.05Zm-1.48,0a2.63,2.63,0,0,0-.24-1.13,2.89,2.89,0,0,0-.62-.9,2.52,2.52,0,0,0-.9-.59,2.89,2.89,0,0,0-1.11-.21,3,3,0,0,0-1.11.21,2.7,2.7,0,0,0-.9.59,2.86,2.86,0,0,0-.61.9,2.63,2.63,0,0,0-.24,1.13,2.71,2.71,0,0,0,.24,1.14,3.11,3.11,0,0,0,.61.9,2.87,2.87,0,0,0,.9.59,3,3,0,0,0,1.11.21,2.89,2.89,0,0,0,1.11-.21,2.66,2.66,0,0,0,.9-.59,3.14,3.14,0,0,0,.62-.9A2.71,2.71,0,0,0,57.63,12.05ZM54.84,26.26l-1.29-.66L64.68,7.27l1.26.66ZM69.1,21.48a4.32,4.32,0,0,1-1.26,3.07,4.6,4.6,0,0,1-1.38.91,4.57,4.57,0,0,1-3.41,0,4.6,4.6,0,0,1-1.38-.91,4.32,4.32,0,0,1-1.26-3.07,4.25,4.25,0,0,1,.34-1.71,4.14,4.14,0,0,1,.92-1.36,4.45,4.45,0,0,1,1.38-.92,4.57,4.57,0,0,1,3.41,0,4.45,4.45,0,0,1,1.38.92,4.14,4.14,0,0,1,.92,1.36A4.25,4.25,0,0,1,69.1,21.48Zm-1.48,0a2.71,2.71,0,0,0-.24-1.14,3.11,3.11,0,0,0-.61-.9,2.8,2.8,0,0,0-.91-.59,3,3,0,0,0-2.21,0,2.8,2.8,0,0,0-.91.59,3.11,3.11,0,0,0-.61.9,2.71,2.71,0,0,0-.24,1.14,2.63,2.63,0,0,0,.24,1.13,2.86,2.86,0,0,0,.61.9,2.65,2.65,0,0,0,.91.59,3,3,0,0,0,2.21,0,2.65,2.65,0,0,0,.91-.59,2.86,2.86,0,0,0,.61-.9A2.63,2.63,0,0,0,67.62,21.48Z"/><path class="cls-1" d="M19.48,33.79H15.39V32.18H25.3v1.61H21.21V44.88H19.48Z"/><path class="cls-1" d="M24.33,40.63a4.4,4.4,0,0,1,.35-1.74,4.45,4.45,0,0,1,1-1.42,4.39,4.39,0,0,1,1.43-1,4.7,4.7,0,0,1,3.56,0,4.29,4.29,0,0,1,1.43,1,4.45,4.45,0,0,1,1,1.42,4.23,4.23,0,0,1,.35,1.74,4.39,4.39,0,0,1-1.31,3.16,4.44,4.44,0,0,1-1.43,1,4.56,4.56,0,0,1-5-1,4.3,4.3,0,0,1-1-1.41A4.48,4.48,0,0,1,24.33,40.63Zm1.72,0a3.5,3.5,0,0,0,.2,1.19,2.54,2.54,0,0,0,.56.93,2.48,2.48,0,0,0,.87.61,3.09,3.09,0,0,0,2.34,0,2.62,2.62,0,0,0,.88-.61,2.52,2.52,0,0,0,.55-.93,3.5,3.5,0,0,0,.2-1.19,3.6,3.6,0,0,0-.2-1.2,2.7,2.7,0,0,0-.55-.93,2.62,2.62,0,0,0-.88-.61,3.22,3.22,0,0,0-2.34,0,2.48,2.48,0,0,0-.87.61,2.72,2.72,0,0,0-.56.93A3.6,3.6,0,0,0,26.05,40.63Z"/><path class="cls-1" d="M40,37.77H37.64v3.86c0,.24,0,.48,0,.71a1.82,1.82,0,0,0,.14.63.93.93,0,0,0,.36.45,1.22,1.22,0,0,0,.7.17,3.13,3.13,0,0,0,.6-.06,1.71,1.71,0,0,0,.55-.19v1.47a2,2,0,0,1-.74.22,6.37,6.37,0,0,1-.71.07,3.36,3.36,0,0,1-1.45-.26,1.78,1.78,0,0,1-.75-.68,2.16,2.16,0,0,1-.29-.92c0-.34,0-.69,0-1V37.77H34.16v-1.4H36V34h1.61v2.38H40Z"/><path class="cls-1" d="M42.08,37.42a4.45,4.45,0,0,1,1.58-1,5.31,5.31,0,0,1,1.79-.31,5.12,5.12,0,0,1,1.61.23,3.34,3.34,0,0,1,1.1.63,2.48,2.48,0,0,1,.64.91A2.93,2.93,0,0,1,49,39v4.35c0,.3,0,.57,0,.82s0,.49,0,.72H47.64c0-.43,0-.86,0-1.29h0a3,3,0,0,1-1.27,1.16,4,4,0,0,1-1.71.35,3.86,3.86,0,0,1-1.13-.17,2.7,2.7,0,0,1-.94-.48,2.6,2.6,0,0,1-.5-3.28,2.75,2.75,0,0,1,1-.91,4.84,4.84,0,0,1,1.49-.5,10.48,10.48,0,0,1,1.82-.15H47.5v-.36a1.88,1.88,0,0,0-.13-.65A1.58,1.58,0,0,0,47,38a1.7,1.7,0,0,0-.63-.42,2.4,2.4,0,0,0-.89-.15,3.32,3.32,0,0,0-.82.09,4,4,0,0,0-.64.23,3,3,0,0,0-.52.31l-.44.34Zm4.55,3.37q-.57,0-1.17.06a4.55,4.55,0,0,0-1.1.24,2,2,0,0,0-.8.51,1.12,1.12,0,0,0-.32.82,1.17,1.17,0,0,0,.5,1.06,2.36,2.36,0,0,0,1.33.32,2.56,2.56,0,0,0,1.13-.22A2.14,2.14,0,0,0,47,43a2.25,2.25,0,0,0,.41-.8,3.34,3.34,0,0,0,.13-.87v-.54Z"/><path class="cls-1" d="M51.48,31.31h1.61V44.88H51.48Z"/><path class="cls-1" d="M66.73,38.64a3.19,3.19,0,0,0-.94-.71,2.66,2.66,0,0,0-1.17-.25,2.61,2.61,0,0,0-1.16.25,2.34,2.34,0,0,0-.83.66,3,3,0,0,0-.5,1A3.88,3.88,0,0,0,62,40.7a3.22,3.22,0,0,0,.2,1.12,2.75,2.75,0,0,0,.55.92,2.53,2.53,0,0,0,.86.62,2.78,2.78,0,0,0,1.13.23,2.6,2.6,0,0,0,1.17-.24,3.13,3.13,0,0,0,.9-.71l1.15,1.15a3.64,3.64,0,0,1-1.47,1,5.13,5.13,0,0,1-1.76.31,4.82,4.82,0,0,1-1.81-.33,4,4,0,0,1-1.4-.9,4.06,4.06,0,0,1-.92-1.4,5.28,5.28,0,0,1,0-3.62,4.27,4.27,0,0,1,.91-1.42,4.11,4.11,0,0,1,1.4-.92,4.8,4.8,0,0,1,1.82-.33,4.85,4.85,0,0,1,1.78.33,4,4,0,0,1,1.48,1Z"/><path class="cls-1" d="M68.89,40.63a4.23,4.23,0,0,1,.35-1.74,4.45,4.45,0,0,1,1-1.42,4.29,4.29,0,0,1,1.43-1,4.56,4.56,0,0,1,1.78-.35,4.63,4.63,0,0,1,1.78.35,4.39,4.39,0,0,1,1.43,1,4.45,4.45,0,0,1,1,1.42,4.4,4.4,0,0,1,.35,1.74,4.48,4.48,0,0,1-.35,1.75,4.3,4.3,0,0,1-1,1.41,4.55,4.55,0,0,1-1.43,1,4.63,4.63,0,0,1-1.78.35,4.56,4.56,0,0,1-1.78-.35,4.44,4.44,0,0,1-1.43-1,4.39,4.39,0,0,1-1.31-3.16Zm1.72,0a3.27,3.27,0,0,0,.2,1.19,2.52,2.52,0,0,0,.55.93,2.62,2.62,0,0,0,.88.61,2.94,2.94,0,0,0,1.17.23,2.86,2.86,0,0,0,1.16-.23A2.57,2.57,0,0,0,76,41.82a3.5,3.5,0,0,0,.2-1.19,3.6,3.6,0,0,0-.2-1.2,2.72,2.72,0,0,0-.56-.93,2.52,2.52,0,0,0-.88-.61,2.86,2.86,0,0,0-1.16-.22,2.94,2.94,0,0,0-1.17.22,2.62,2.62,0,0,0-.88.61,2.7,2.7,0,0,0-.55.93A3.36,3.36,0,0,0,70.61,40.63Z"/><path class="cls-1" d="M80,36.37h1.51V37.7h0a1.49,1.49,0,0,1,.28-.45,2.86,2.86,0,0,1,.57-.51,3.57,3.57,0,0,1,.83-.41,3.21,3.21,0,0,1,1-.17,3.06,3.06,0,0,1,1.6.39,3,3,0,0,1,1.06,1.19,2.72,2.72,0,0,1,1.16-1.19,3.28,3.28,0,0,1,1.53-.39,3.57,3.57,0,0,1,1.61.32,2.67,2.67,0,0,1,1,.85,3.32,3.32,0,0,1,.49,1.21,7,7,0,0,1,.14,1.39v5H91.19V40.14a7,7,0,0,0-.06-.93,2.16,2.16,0,0,0-.26-.79,1.48,1.48,0,0,0-.56-.55,2,2,0,0,0-1-.2,1.92,1.92,0,0,0-1.67.71,3.21,3.21,0,0,0-.5,1.85v4.65H85.57V40.43a9.29,9.29,0,0,0-.06-1.11,2.41,2.41,0,0,0-.25-.87,1.32,1.32,0,0,0-.54-.58,1.9,1.9,0,0,0-.94-.2,2,2,0,0,0-.83.17,1.87,1.87,0,0,0-.71.51,2.44,2.44,0,0,0-.49.87,3.88,3.88,0,0,0-.18,1.25v4.41H80Z"/><path class="cls-1" d="M95.25,36.37h1.5V37.7h0a1.49,1.49,0,0,1,.28-.45,2.86,2.86,0,0,1,.57-.51,3.57,3.57,0,0,1,.83-.41,3.17,3.17,0,0,1,1-.17,3,3,0,0,1,1.59.39,2.88,2.88,0,0,1,1.06,1.19,2.8,2.8,0,0,1,1.17-1.19,3.28,3.28,0,0,1,1.53-.39,3.6,3.6,0,0,1,1.61.32,2.67,2.67,0,0,1,1,.85,3.32,3.32,0,0,1,.49,1.21,7,7,0,0,1,.14,1.39v5h-1.62V40.14a7,7,0,0,0-.06-.93,2.16,2.16,0,0,0-.26-.79,1.48,1.48,0,0,0-.56-.55,2,2,0,0,0-.95-.2,1.92,1.92,0,0,0-1.67.71,3.21,3.21,0,0,0-.5,1.85v4.65h-1.62V40.43a9.29,9.29,0,0,0-.06-1.11,2.41,2.41,0,0,0-.25-.87,1.44,1.44,0,0,0-.54-.58,1.93,1.93,0,0,0-.94-.2,2,2,0,0,0-.83.17,1.87,1.87,0,0,0-.71.51,2.44,2.44,0,0,0-.49.87,3.88,3.88,0,0,0-.18,1.25v4.41H95.25Z"/><path class="cls-1" d="M118.07,44.88h-1.61V43.57h0a2.3,2.3,0,0,1-1.06,1.1,3.51,3.51,0,0,1-1.74.43,3.79,3.79,0,0,1-1.18-.19,2.65,2.65,0,0,1-1-.59,2.71,2.71,0,0,1-.67-1,3.81,3.81,0,0,1-.25-1.46V36.37h1.61v5a3,3,0,0,0,.16,1,2,2,0,0,0,.43.69,1.71,1.71,0,0,0,.62.37,2.28,2.28,0,0,0,.73.12,2.79,2.79,0,0,0,.93-.16,2,2,0,0,0,.76-.51,2.55,2.55,0,0,0,.5-.89,4.08,4.08,0,0,0,.18-1.28V36.37h1.61Z"/><path class="cls-1" d="M120.51,36.37h1.62v1.31h0a2.44,2.44,0,0,1,1.06-1.1,3.56,3.56,0,0,1,1.74-.42,3.6,3.6,0,0,1,1.18.19,2.59,2.59,0,0,1,1,.58,2.79,2.79,0,0,1,.67,1,3.81,3.81,0,0,1,.25,1.46v5.47h-1.61v-5a2.79,2.79,0,0,0-.17-1,1.73,1.73,0,0,0-.43-.68,1.65,1.65,0,0,0-.62-.38,2.46,2.46,0,0,0-.72-.11,2.61,2.61,0,0,0-.94.16,2.09,2.09,0,0,0-.75.51,2.46,2.46,0,0,0-.5.89,4,4,0,0,0-.18,1.27v4.38h-1.62Z"/><path class="cls-1" d="M130.24,33.32a1.2,1.2,0,1,1,.35.84A1.14,1.14,0,0,1,130.24,33.32Zm.38,3h1.61v8.51h-1.61Z"/><path class="cls-1" d="M139.36,37.77H137v3.86c0,.24,0,.48,0,.71a2.07,2.07,0,0,0,.13.63,1.06,1.06,0,0,0,.36.45,1.26,1.26,0,0,0,.71.17,3,3,0,0,0,.59-.06,1.69,1.69,0,0,0,.56-.19v1.47a2,2,0,0,1-.74.22,6.59,6.59,0,0,1-.71.07,3.3,3.3,0,0,1-1.45-.26,1.78,1.78,0,0,1-.75-.68,2.16,2.16,0,0,1-.29-.92c0-.34,0-.69,0-1V37.77h-1.87v-1.4h1.87V34H137v2.38h2.32Z"/><path class="cls-1" d="M140.43,36.37h1.87L144.82,43h0l2.42-6.64H149l-4,10.34c-.14.37-.29.71-.44,1a3.24,3.24,0,0,1-.56.78,2.28,2.28,0,0,1-.77.5,3.09,3.09,0,0,1-1.12.18,6.11,6.11,0,0,1-.73,0,2.51,2.51,0,0,1-.7-.19l.2-1.47a2.54,2.54,0,0,0,1,.2,1.67,1.67,0,0,0,.63-.1,1.2,1.2,0,0,0,.45-.29,1.58,1.58,0,0,0,.31-.44,5.34,5.34,0,0,0,.25-.57l.52-1.35Z"/><path class="cls-1" d="M16.16,47.76a1.15,1.15,0,0,1,.35-.84,1.18,1.18,0,0,1,.84-.35,1.14,1.14,0,0,1,.83.35,1.17,1.17,0,0,1,0,1.67,1.14,1.14,0,0,1-.83.35,1.18,1.18,0,0,1-.84-.35A1.14,1.14,0,0,1,16.16,47.76Zm.38,3.05h1.62v8.5H16.54Z"/><path class="cls-1" d="M20.72,50.81h1.62v1.31h0A2.41,2.41,0,0,1,23.43,51a3.5,3.5,0,0,1,1.74-.42,3.6,3.6,0,0,1,1.18.19A2.66,2.66,0,0,1,28,52.38a3.81,3.81,0,0,1,.25,1.46v5.47H26.64v-5a2.84,2.84,0,0,0-.16-1,1.93,1.93,0,0,0-.43-.68,1.65,1.65,0,0,0-.62-.38,2.46,2.46,0,0,0-.72-.11,2.61,2.61,0,0,0-.94.16,2,2,0,0,0-.75.51,2.33,2.33,0,0,0-.5.89,4,4,0,0,0-.18,1.27v4.38H20.72Z"/><path class="cls-1" d="M29.68,50.81h1.86l2.55,6.51,2.44-6.51h1.72l-3.33,8.5H33.14Z"/><path class="cls-1" d="M40.89,55.65a2.19,2.19,0,0,0,.24,1,2.84,2.84,0,0,0,.64.78,3,3,0,0,0,.92.5,3.21,3.21,0,0,0,1.07.18,2.42,2.42,0,0,0,1.31-.35,4.45,4.45,0,0,0,1-.93l1.22.94a4.5,4.5,0,0,1-3.77,1.74,4.8,4.8,0,0,1-1.82-.34,3.78,3.78,0,0,1-1.38-.95,4.26,4.26,0,0,1-.88-1.41,5.14,5.14,0,0,1-.3-1.77,4.72,4.72,0,0,1,.33-1.77,4.51,4.51,0,0,1,.92-1.42,4.22,4.22,0,0,1,1.39-.94,4.42,4.42,0,0,1,1.76-.34,4.12,4.12,0,0,1,1.91.4,3.62,3.62,0,0,1,1.28,1,4,4,0,0,1,.73,1.43,6,6,0,0,1,.22,1.63v.57ZM46,54.36a3.42,3.42,0,0,0-.17-1,2.1,2.1,0,0,0-1.22-1.3,2.92,2.92,0,0,0-1.07-.19,2.55,2.55,0,0,0-1.08.23,2.68,2.68,0,0,0-.84.58,2.79,2.79,0,0,0-.53.8,2.1,2.1,0,0,0-.19.87Z"/><path class="cls-1" d="M54.17,52.94a2.44,2.44,0,0,0-.71-.6,2,2,0,0,0-1-.24,2,2,0,0,0-1,.24.77.77,0,0,0-.43.71.79.79,0,0,0,.25.61,1.9,1.9,0,0,0,.57.38,3.91,3.91,0,0,0,.71.21l.65.13a6.87,6.87,0,0,1,1,.3,2.67,2.67,0,0,1,.79.47,1.92,1.92,0,0,1,.52.7,2.32,2.32,0,0,1,.19,1,2.39,2.39,0,0,1-.3,1.23,2.76,2.76,0,0,1-.79.84,3.34,3.34,0,0,1-1.11.46,5.26,5.26,0,0,1-1.24.15,4.83,4.83,0,0,1-1.86-.33A3.35,3.35,0,0,1,48.93,58l1.22-1a5.52,5.52,0,0,0,.88.7,2.21,2.21,0,0,0,1.19.3,3.15,3.15,0,0,0,.61-.06,1.85,1.85,0,0,0,.56-.2,1.32,1.32,0,0,0,.4-.34.81.81,0,0,0,.15-.48.82.82,0,0,0-.23-.59,1.68,1.68,0,0,0-.53-.37,3.73,3.73,0,0,0-.67-.21l-.62-.14c-.34-.08-.67-.18-1-.28a3,3,0,0,1-.83-.43,1.92,1.92,0,0,1-.57-.69,2.08,2.08,0,0,1-.22-1,2.29,2.29,0,0,1,.28-1.16,2.37,2.37,0,0,1,.73-.81,3.38,3.38,0,0,1,1.05-.49,4.23,4.23,0,0,1,1.17-.16,4.37,4.37,0,0,1,1.65.32A2.65,2.65,0,0,1,55.43,52Z"/><path class="cls-1" d="M62.17,52.21H59.86v3.85c0,.24,0,.48,0,.71a1.72,1.72,0,0,0,.13.63,1,1,0,0,0,.36.45,1.26,1.26,0,0,0,.71.17,4,4,0,0,0,.59-.05,2,2,0,0,0,.56-.2v1.47a2,2,0,0,1-.75.22,4.5,4.5,0,0,1-.7.07,3.3,3.3,0,0,1-1.45-.26,1.78,1.78,0,0,1-.75-.68,2,2,0,0,1-.29-.92c0-.34,0-.68,0-1V52.21H56.38v-1.4h1.86V48.42h1.62v2.39h2.31Z"/><path class="cls-1" d="M64.26,50.81h1.5v1.32h0a1.36,1.36,0,0,1,.28-.44,3.24,3.24,0,0,1,.57-.52,4,4,0,0,1,.83-.41,3.12,3.12,0,0,1,1-.17,2.93,2.93,0,0,1,1.59.4,2.85,2.85,0,0,1,1.06,1.18A2.72,2.72,0,0,1,72.35,51a3.17,3.17,0,0,1,1.52-.4,3.62,3.62,0,0,1,1.62.32,2.6,2.6,0,0,1,1,.86A3.2,3.2,0,0,1,77,53a7,7,0,0,1,.14,1.39v5H75.49V54.57a7,7,0,0,0-.06-.93,2.37,2.37,0,0,0-.26-.79,1.55,1.55,0,0,0-.56-.55,2,2,0,0,0-1-.2,1.88,1.88,0,0,0-1.67.72,3.15,3.15,0,0,0-.5,1.84v4.65H69.87V54.86a9.29,9.29,0,0,0-.06-1.11,2.62,2.62,0,0,0-.25-.87A1.44,1.44,0,0,0,69,52.3a1.93,1.93,0,0,0-.94-.2,2.21,2.21,0,0,0-.84.17,2,2,0,0,0-.71.51,2.59,2.59,0,0,0-.48.87,3.88,3.88,0,0,0-.18,1.25v4.41H64.26Z"/><path class="cls-1" d="M80.77,55.65a2.19,2.19,0,0,0,.24,1,2.52,2.52,0,0,0,.64.78,3,3,0,0,0,.91.5,3.31,3.31,0,0,0,1.08.18A2.44,2.44,0,0,0,85,57.78a4.22,4.22,0,0,0,1-.93l1.22.94a4.49,4.49,0,0,1-3.77,1.74,4.8,4.8,0,0,1-1.82-.34,4,4,0,0,1-1.38-.95,4.08,4.08,0,0,1-.87-1.41A4.92,4.92,0,0,1,79,55.06a4.5,4.5,0,0,1,1.25-3.19,4.22,4.22,0,0,1,1.39-.94,4.45,4.45,0,0,1,1.76-.34,4.12,4.12,0,0,1,1.91.4,3.62,3.62,0,0,1,1.28,1,4,4,0,0,1,.73,1.43,6,6,0,0,1,.22,1.63v.57Zm5.09-1.29a3.42,3.42,0,0,0-.17-1,2,2,0,0,0-.46-.78,2.1,2.1,0,0,0-.76-.52,2.88,2.88,0,0,0-1.07-.19,2.58,2.58,0,0,0-1.08.23,2.68,2.68,0,0,0-.84.58,3,3,0,0,0-.53.8,2.26,2.26,0,0,0-.18.87Z"/><path class="cls-1" d="M89.52,50.81h1.62v1.31h0A2.41,2.41,0,0,1,92.23,51,3.56,3.56,0,0,1,94,50.59a3.6,3.6,0,0,1,1.18.19,2.81,2.81,0,0,1,1,.58,2.88,2.88,0,0,1,.67,1,3.81,3.81,0,0,1,.25,1.46v5.47H95.45v-5a2.83,2.83,0,0,0-.17-1,1.8,1.8,0,0,0-.43-.68,1.65,1.65,0,0,0-.62-.38,2.46,2.46,0,0,0-.72-.11,2.61,2.61,0,0,0-.94.16,2,2,0,0,0-.75.51,2.33,2.33,0,0,0-.5.89,4,4,0,0,0-.18,1.27v4.38H89.52Z"/><path class="cls-1" d="M104.06,52.21h-2.32v3.85c0,.24,0,.48,0,.71a1.72,1.72,0,0,0,.14.63.92.92,0,0,0,.35.45A1.28,1.28,0,0,0,103,58a4.16,4.16,0,0,0,.6-.05,2,2,0,0,0,.55-.2v1.47a2,2,0,0,1-.74.22,4.61,4.61,0,0,1-.71.07,3.36,3.36,0,0,1-1.45-.26,1.78,1.78,0,0,1-.75-.68,2.16,2.16,0,0,1-.29-.92c0-.34,0-.68,0-1V52.21H98.26v-1.4h1.87V48.42h1.61v2.39h2.32Z"/><path class="cls-1" d="M110.66,52.94a2.44,2.44,0,0,0-.71-.6,2,2,0,0,0-1-.24,2,2,0,0,0-1,.24.77.77,0,0,0-.43.71.79.79,0,0,0,.25.61,1.9,1.9,0,0,0,.57.38,3.91,3.91,0,0,0,.71.21l.65.13a6.87,6.87,0,0,1,1,.3,2.67,2.67,0,0,1,.79.47,1.92,1.92,0,0,1,.52.7,2.32,2.32,0,0,1,.19,1,2.39,2.39,0,0,1-.3,1.23,2.76,2.76,0,0,1-.79.84,3.34,3.34,0,0,1-1.11.46,5.26,5.26,0,0,1-1.24.15,4.83,4.83,0,0,1-1.86-.33A3.35,3.35,0,0,1,105.42,58l1.22-1a6,6,0,0,0,.88.7,2.21,2.21,0,0,0,1.19.3,3.15,3.15,0,0,0,.61-.06,1.85,1.85,0,0,0,.56-.2,1.32,1.32,0,0,0,.4-.34.81.81,0,0,0,.15-.48.82.82,0,0,0-.23-.59,1.68,1.68,0,0,0-.53-.37,3.49,3.49,0,0,0-.67-.21l-.62-.14c-.34-.08-.67-.18-1-.28a3,3,0,0,1-.83-.43,1.92,1.92,0,0,1-.57-.69,2.08,2.08,0,0,1-.22-1,2.29,2.29,0,0,1,.28-1.16,2.37,2.37,0,0,1,.73-.81,3.38,3.38,0,0,1,1-.49,4.23,4.23,0,0,1,1.17-.16,4.37,4.37,0,0,1,1.65.32A2.65,2.65,0,0,1,111.92,52Z"/><rect class="cls-2" x="0.06" y="33.95" width="10.45" height="10.45"/><path class="cls-3" d="M97.92,28a.34.34,0,0,1-.21-.08l-4-4H92.14a6.19,6.19,0,0,1-3-.8,9.56,9.56,0,0,1-4,1.38L81.7,27.9a.3.3,0,0,1-.42-.42L84.8,24a.37.37,0,0,1,.2-.09,9.08,9.08,0,0,0,3.54-1.15,6.69,6.69,0,0,1-.76-.65l-2.15-2.15,0,0-4-4a9.89,9.89,0,0,1-1-1.13A5.55,5.55,0,0,0,80,17.21v1.67a.31.31,0,0,1-.09.21l-4.7,4.7a.3.3,0,0,1-.41,0,.29.29,0,0,1,0-.42l4.61-4.61V17.21a6.08,6.08,0,0,1,.8-3,9.52,9.52,0,0,1-1.38-4l-4-4a.29.29,0,1,1,.41-.41l4.11,4.1a.34.34,0,0,1,.09.2A9.17,9.17,0,0,0,82,15.45l3.23,3.23a1.43,1.43,0,0,1,.41-.83l.11-.11a1.43,1.43,0,0,1,.82-.41l-3.27-3.28a1.47,1.47,0,0,1,0-2.07l.09-.1a1.43,1.43,0,0,1,.88-.42,1.48,1.48,0,0,1,.2-1.83l.1-.1a1.46,1.46,0,0,1,1-.43h0a1.46,1.46,0,0,1,.79.23,1.38,1.38,0,0,1,.42-.87l.1-.1a1.47,1.47,0,0,1,2.08,0l.92.92a1.44,1.44,0,0,1,.42-.82l.1-.1a1.47,1.47,0,0,1,.83-.42L90,6.73A5.58,5.58,0,0,0,86.1,5.1H84.43A.27.27,0,0,1,84.22,5L80.11.9a.28.28,0,0,1,0-.41.29.29,0,0,1,.42,0l4,4H86.1a6.19,6.19,0,0,1,3,.8,9.56,9.56,0,0,1,4-1.38L96.54.49a.29.29,0,0,1,.42,0A.3.3,0,0,1,97,.9L93.44,4.42a.37.37,0,0,1-.2.09A9.08,9.08,0,0,0,89.7,5.66a6.69,6.69,0,0,1,.76.65l2,2h0l4.16,4.16a8.39,8.39,0,0,1,1,1.14,5.68,5.68,0,0,0,.58-2.49V9.5a.31.31,0,0,1,.09-.21L103,4.59a.31.31,0,0,1,.42,0,.29.29,0,0,1,0,.42L98.8,9.62v1.55a6.11,6.11,0,0,1-.8,3,9.52,9.52,0,0,1,1.38,4l4,4a.28.28,0,0,1,0,.41.29.29,0,0,1-.42,0l-4.1-4.1a.34.34,0,0,1-.09-.19,9.16,9.16,0,0,0-2.55-5.39L92.09,8.77a.88.88,0,0,0-1.24,0l-.1.1a.88.88,0,0,0,0,1.25h0l2.68,2.68a.3.3,0,0,1,0,.41.29.29,0,0,1-.42,0L88.57,8.77a.89.89,0,0,0-1.25,0l-.09.1a.88.88,0,0,0,0,1.25,0,0,0,0,1,0,0l4.43,4.43a.29.29,0,0,1,0,.42.3.3,0,0,1-.41,0l-5-5a.87.87,0,0,0-.62-.26h0A.84.84,0,0,0,85,10l-.1.1a.86.86,0,0,0,0,1.24l.57.57v0h0l4.44,4.45a.29.29,0,0,1,0,.42.3.3,0,0,1-.41,0L85,12.28a.83.83,0,0,0-.6-.24h0a.91.91,0,0,0-.63.25l-.1.1a.89.89,0,0,0,0,1.25l4.07,4.07,0,0h0l2.08,2.09a.29.29,0,0,1,0,.42.3.3,0,0,1-.41,0l-2.14-2.14a.91.91,0,0,0-.59-.23h0a.91.91,0,0,0-.62.26l-.1.1a.89.89,0,0,0,0,1.22l.12.13h0l2,2a5.58,5.58,0,0,0,3.94,1.63h1.67a.31.31,0,0,1,.21.09l4.11,4.11a.29.29,0,0,1,0,.42A.32.32,0,0,1,97.92,28Z"/></svg>