<svg id="Layer_1" data-name="Layer 1" xmlns="http://www.w3.org/2000/svg" viewBox="0 0 160 62.33"><defs><style>.cls-1{fill:#414042;}.cls-2{fill:#bcbec0;}.cls-3{fill:#58595b;}</style></defs><path class="cls-1" d="M26.66,8.1H19.53l-.12,5.25A6.54,6.54,0,0,1,20.56,13a8,8,0,0,1,1.19-.1,5.77,5.77,0,0,1,2.24.42,5,5,0,0,1,1.74,1.17,5.43,5.43,0,0,1,1.14,1.78,6,6,0,0,1,.4,2.23,5.8,5.8,0,0,1-.44,2.31,5.29,5.29,0,0,1-1.23,1.8,5.7,5.7,0,0,1-1.87,1.17,6.31,6.31,0,0,1-2.33.42,5.7,5.7,0,0,1-3-.79,5.07,5.07,0,0,1-2.05-2.32l1.78-.76A3.94,3.94,0,0,0,19.52,22a3.56,3.56,0,0,0,2,.61,3.93,3.93,0,0,0,1.55-.31,4.33,4.33,0,0,0,1.25-.83,3.87,3.87,0,0,0,.83-1.23,3.77,3.77,0,0,0,.31-1.53A4.37,4.37,0,0,0,25.18,17a4,4,0,0,0-.89-1.32,3.87,3.87,0,0,0-1.36-.85,4.78,4.78,0,0,0-1.72-.3,7,7,0,0,0-1.87.26,9.22,9.22,0,0,0-1.76.7l.17-9h8.91Z"/><path class="cls-1" d="M33.67,22.75a1.37,1.37,0,0,1-.37.93,1.34,1.34,0,0,1-1.93,0,1.34,1.34,0,0,1,0-1.85,1.34,1.34,0,0,1,1.93,0A1.36,1.36,0,0,1,33.67,22.75Z"/><path class="cls-1" d="M47.46,8.1l-7,15.84h-2L45.61,8.1H37.09V6.47H47.46Z"/><path class="cls-1" d="M59.1,10.49a4.33,4.33,0,0,1-.33,1.7,4.11,4.11,0,0,1-.93,1.37,4.48,4.48,0,0,1-4.79.92,4.63,4.63,0,0,1-1.38-.92,4.08,4.08,0,0,1-.92-1.37,4.54,4.54,0,0,1,0-3.4,4.18,4.18,0,0,1,.92-1.37,4.42,4.42,0,0,1,3.09-1.25,4.37,4.37,0,0,1,1.7.34,4.25,4.25,0,0,1,2.31,2.28A4.37,4.37,0,0,1,59.1,10.49Zm-1.48,0a2.63,2.63,0,0,0-.24-1.13,2.86,2.86,0,0,0-.61-.9,2.73,2.73,0,0,0-.9-.6,3.17,3.17,0,0,0-1.11-.21,3.09,3.09,0,0,0-1.11.21,2.54,2.54,0,0,0-.9.6,2.89,2.89,0,0,0-.62.9,2.63,2.63,0,0,0-.23,1.13,2.7,2.7,0,0,0,.23,1.14,3.14,3.14,0,0,0,.62.9,2.66,2.66,0,0,0,.9.59,2.89,2.89,0,0,0,1.11.21,3,3,0,0,0,1.11-.21,2.87,2.87,0,0,0,.9-.59,3.11,3.11,0,0,0,.61-.9A2.71,2.71,0,0,0,57.62,10.49ZM54.83,24.7,53.55,24,64.68,5.71l1.25.66Zm14.26-4.78a4.4,4.4,0,0,1-.33,1.7A4.06,4.06,0,0,1,67.83,23a4.42,4.42,0,0,1-6.16,0,4.06,4.06,0,0,1-.93-1.37,4.57,4.57,0,0,1,0-3.41,4.16,4.16,0,0,1,.93-1.37,4.42,4.42,0,0,1,6.16,0,4.16,4.16,0,0,1,.93,1.37A4.42,4.42,0,0,1,69.09,19.92Zm-1.48,0a2.83,2.83,0,0,0-.23-1.14,3.35,3.35,0,0,0-.62-.9,2.87,2.87,0,0,0-.9-.59,3,3,0,0,0-1.11-.21,2.89,2.89,0,0,0-1.11.21,2.66,2.66,0,0,0-.9.59,3.14,3.14,0,0,0-.62.9,2.83,2.83,0,0,0-.23,1.14,2.78,2.78,0,0,0,.23,1.13,2.89,2.89,0,0,0,.62.9,2.52,2.52,0,0,0,.9.59,2.89,2.89,0,0,0,1.11.21,3,3,0,0,0,1.11-.21,2.7,2.7,0,0,0,.9-.59,3.07,3.07,0,0,0,.62-.9A2.78,2.78,0,0,0,67.61,19.92Z"/><path class="cls-1" d="M19.48,32.23h-4.1V30.62h9.91v1.61H21.2V43.32H19.48Z"/><path class="cls-1" d="M24.32,39.07a4.4,4.4,0,0,1,.35-1.74,4.45,4.45,0,0,1,1-1.42,4.78,4.78,0,0,1,1.44-1,4.68,4.68,0,0,1,3.55,0,4.61,4.61,0,0,1,1.43,1,4.45,4.45,0,0,1,1,1.42,4.23,4.23,0,0,1,.35,1.74A4.28,4.28,0,0,1,33,40.82a4.35,4.35,0,0,1-1,1.42,4.42,4.42,0,0,1-1.43.95,4.61,4.61,0,0,1-5-.95,4.35,4.35,0,0,1-1-1.42A4.45,4.45,0,0,1,24.32,39.07Zm1.72,0a3.5,3.5,0,0,0,.2,1.19,2.55,2.55,0,0,0,1.44,1.55,2.86,2.86,0,0,0,1.16.22A2.94,2.94,0,0,0,30,41.81a2.5,2.5,0,0,0,1.43-1.55,3.64,3.64,0,0,0,0-2.38A2.5,2.5,0,0,0,30,36.33a3.13,3.13,0,0,0-1.17-.22,3,3,0,0,0-1.16.22,2.55,2.55,0,0,0-1.44,1.55A3.5,3.5,0,0,0,26,39.07Z"/><path class="cls-1" d="M40,36.22H37.64v3.86c0,.23,0,.47,0,.7a2,2,0,0,0,.14.63,1,1,0,0,0,.36.45,1.16,1.16,0,0,0,.71.17,4.15,4.15,0,0,0,.59-.05,1.64,1.64,0,0,0,.55-.2v1.47a2.23,2.23,0,0,1-.74.23,5.9,5.9,0,0,1-.71.06,3.28,3.28,0,0,1-1.44-.26,1.74,1.74,0,0,1-.76-.67,2.11,2.11,0,0,1-.28-.93c0-.34,0-.68,0-1V36.22H34.15v-1.4H36V32.43h1.62v2.39H40Z"/><path class="cls-1" d="M42.07,35.86a4.43,4.43,0,0,1,1.58-.94,5.37,5.37,0,0,1,1.79-.32,4.83,4.83,0,0,1,1.61.24,3.07,3.07,0,0,1,1.1.62,2.56,2.56,0,0,1,.64.91,2.79,2.79,0,0,1,.2,1.07v4.34c0,.3,0,.58,0,.83s0,.49.06.71H47.63c0-.43-.05-.86-.05-1.29h0a3.13,3.13,0,0,1-1.27,1.17,4,4,0,0,1-1.71.34,4.23,4.23,0,0,1-1.13-.16,2.72,2.72,0,0,1-.94-.49,2.29,2.29,0,0,1-.64-.8,2.51,2.51,0,0,1-.23-1.1A2.41,2.41,0,0,1,42,39.61a2.84,2.84,0,0,1,1-.91,4.93,4.93,0,0,1,1.49-.5,10.56,10.56,0,0,1,1.82-.15h1.19v-.36A1.78,1.78,0,0,0,47,36.46a1.72,1.72,0,0,0-.62-.41,2.41,2.41,0,0,0-.9-.16,3.37,3.37,0,0,0-.82.09,3.58,3.58,0,0,0-.63.23,2.38,2.38,0,0,0-.52.31l-.45.34Zm4.56,3.37a9.45,9.45,0,0,0-1.18.07,4.37,4.37,0,0,0-1.09.24,2.06,2.06,0,0,0-.81.5,1.3,1.3,0,0,0,.18,1.88,2.36,2.36,0,0,0,1.33.33A2.63,2.63,0,0,0,46.2,42a2.1,2.1,0,0,0,.75-.58,2.25,2.25,0,0,0,.41-.8,2.91,2.91,0,0,0,.13-.87v-.54Z"/><path class="cls-1" d="M51.47,29.76h1.62V43.32H51.47Z"/><path class="cls-1" d="M60.64,34.82h1.62V36h0A3,3,0,0,1,63.58,35a4,4,0,0,1,1.67-.38,4.64,4.64,0,0,1,1.79.34,4,4,0,0,1,1.36,1,4.26,4.26,0,0,1,.87,1.43,4.85,4.85,0,0,1,.31,1.75,4.92,4.92,0,0,1-.31,1.77,4.12,4.12,0,0,1-.87,1.42A4,4,0,0,1,67,43.2a4.46,4.46,0,0,1-1.79.34,3.9,3.9,0,0,1-1.72-.39,2.86,2.86,0,0,1-1.24-1h0v6.28H60.64Zm4.42,1.29a3.13,3.13,0,0,0-1.17.22,2.66,2.66,0,0,0-.88.61,2.83,2.83,0,0,0-.56.94,3.82,3.82,0,0,0,0,2.38,2.83,2.83,0,0,0,.56.94,2.66,2.66,0,0,0,.88.61,2.94,2.94,0,0,0,1.17.22,2.86,2.86,0,0,0,1.16-.22,2.55,2.55,0,0,0,1.44-1.55,3.64,3.64,0,0,0,0-2.38,2.55,2.55,0,0,0-1.44-1.55A3,3,0,0,0,65.06,36.11Z"/><path class="cls-1" d="M71.64,35.86a4.52,4.52,0,0,1,1.58-.94A5.41,5.41,0,0,1,75,34.6a4.79,4.79,0,0,1,1.61.24,3,3,0,0,1,1.1.62,2.56,2.56,0,0,1,.64.91,2.8,2.8,0,0,1,.21,1.07v4.34c0,.3,0,.58,0,.83s0,.49,0,.71H77.2c0-.43,0-.86,0-1.29h0a3.06,3.06,0,0,1-1.27,1.17,4,4,0,0,1-1.7.34A4.11,4.11,0,0,1,73,43.38a2.76,2.76,0,0,1-1-.49,2.16,2.16,0,0,1-.63-.8,2.38,2.38,0,0,1-.24-1.1,2.41,2.41,0,0,1,.37-1.38,2.88,2.88,0,0,1,1-.91,4.87,4.87,0,0,1,1.48-.5,10.59,10.59,0,0,1,1.83-.15h1.18v-.36a1.68,1.68,0,0,0-.13-.65,1.64,1.64,0,0,0-.37-.58,1.86,1.86,0,0,0-.63-.41,2.41,2.41,0,0,0-.9-.16,3.23,3.23,0,0,0-.81.09,3.42,3.42,0,0,0-.64.23,2.65,2.65,0,0,0-.52.31l-.45.34Zm4.56,3.37A9.57,9.57,0,0,0,75,39.3a4.47,4.47,0,0,0-1.09.24,2.06,2.06,0,0,0-.81.5,1.32,1.32,0,0,0,.18,1.88,2.39,2.39,0,0,0,1.34.33A2.59,2.59,0,0,0,75.77,42a2.1,2.1,0,0,0,.75-.58,2.25,2.25,0,0,0,.41-.8,2.91,2.91,0,0,0,.13-.87v-.54Z"/><path class="cls-1" d="M79.91,34.82h1.87l2.52,6.64h0l2.41-6.64h1.72l-4,10.33q-.22.56-.45,1a3.24,3.24,0,0,1-.56.78,2.28,2.28,0,0,1-.77.5,3.09,3.09,0,0,1-1.12.18,5.79,5.79,0,0,1-.72,0,2.86,2.86,0,0,1-.71-.19l.2-1.47a2.53,2.53,0,0,0,1,.19,1.67,1.67,0,0,0,.63-.1,1.22,1.22,0,0,0,.45-.28,1.74,1.74,0,0,0,.31-.44c.08-.17.17-.36.25-.58l.52-1.34Z"/><path class="cls-1" d="M89.89,34.82H91.4v1.33h0a1.49,1.49,0,0,1,.28-.45,2.68,2.68,0,0,1,.58-.51,3.5,3.5,0,0,1,.82-.42,3.21,3.21,0,0,1,1-.17,3,3,0,0,1,1.6.4,3,3,0,0,1,1.06,1.18A2.7,2.7,0,0,1,98,35a3.24,3.24,0,0,1,1.53-.4,3.48,3.48,0,0,1,1.62.33,2.62,2.62,0,0,1,1,.85,3.22,3.22,0,0,1,.5,1.2,7,7,0,0,1,.13,1.39v5h-1.61V38.59a7,7,0,0,0-.07-.94,2.16,2.16,0,0,0-.26-.79,1.5,1.5,0,0,0-.55-.54,1.9,1.9,0,0,0-1-.21,1.88,1.88,0,0,0-1.66.72,3.11,3.11,0,0,0-.51,1.85v4.64H95.51V38.87a9.53,9.53,0,0,0-.06-1.11,2.77,2.77,0,0,0-.26-.87,1.33,1.33,0,0,0-.53-.57,1.86,1.86,0,0,0-1-.21,2.2,2.2,0,0,0-.83.17,1.87,1.87,0,0,0-.71.51,2.43,2.43,0,0,0-.48.87,3.92,3.92,0,0,0-.18,1.25v4.41H89.89Z"/><path class="cls-1" d="M106.4,39.66a2.19,2.19,0,0,0,.24,1,2.67,2.67,0,0,0,.64.78,3,3,0,0,0,.92.5,3.21,3.21,0,0,0,1.07.18,2.44,2.44,0,0,0,1.31-.35,4.17,4.17,0,0,0,1-.92l1.23.93a4.5,4.5,0,0,1-3.77,1.74,4.61,4.61,0,0,1-1.82-.34,4,4,0,0,1-1.39-.94,4.45,4.45,0,0,1-.87-1.42,5.14,5.14,0,0,1-.3-1.77A4.72,4.72,0,0,1,105,37.3a4.36,4.36,0,0,1,.92-1.41,4,4,0,0,1,1.39-1,4.55,4.55,0,0,1,1.75-.34A4.13,4.13,0,0,1,111,35a3.83,3.83,0,0,1,1.28,1,4.12,4.12,0,0,1,.73,1.43,6.46,6.46,0,0,1,.22,1.63v.57Zm5.1-1.29a3.79,3.79,0,0,0-.17-1,2.44,2.44,0,0,0-.46-.78,2.19,2.19,0,0,0-.76-.52,2.92,2.92,0,0,0-1.07-.19,2.59,2.59,0,0,0-1.09.23,2.63,2.63,0,0,0-.83.58,2.79,2.79,0,0,0-.53.8,2.1,2.1,0,0,0-.19.87Z"/><path class="cls-1" d="M115.16,34.82h1.61v1.31h0A2.41,2.41,0,0,1,117.87,35a3.5,3.5,0,0,1,1.74-.42,3.82,3.82,0,0,1,1.17.19,2.73,2.73,0,0,1,1,.58,2.83,2.83,0,0,1,.67,1,3.81,3.81,0,0,1,.25,1.46v5.47h-1.61v-5a2.74,2.74,0,0,0-.16-1,1.89,1.89,0,0,0-.43-.69,1.58,1.58,0,0,0-.62-.37,2.28,2.28,0,0,0-.73-.12,2.6,2.6,0,0,0-.93.16,1.93,1.93,0,0,0-.75.51,2.42,2.42,0,0,0-.51.89,4,4,0,0,0-.18,1.27v4.38h-1.61Z"/><path class="cls-1" d="M129.69,36.22h-2.31v3.86c0,.23,0,.47,0,.7a1.72,1.72,0,0,0,.13.63,1,1,0,0,0,.36.45,1.18,1.18,0,0,0,.71.17,4,4,0,0,0,.59-.05,1.78,1.78,0,0,0,.56-.2v1.47a2.22,2.22,0,0,1-.75.23,5.74,5.74,0,0,1-.71.06,3.28,3.28,0,0,1-1.44-.26,1.77,1.77,0,0,1-.75-.67,2.12,2.12,0,0,1-.29-.93c0-.34,0-.68,0-1V36.22H123.9v-1.4h1.86V32.43h1.62v2.39h2.31Z"/><path class="cls-1" d="M136.3,37a2.44,2.44,0,0,0-.71-.6,2.06,2.06,0,0,0-1-.24,2,2,0,0,0-1,.24.77.77,0,0,0-.42.71.81.81,0,0,0,.24.61,1.83,1.83,0,0,0,.58.38,3.16,3.16,0,0,0,.7.21l.65.13a7,7,0,0,1,1,.3,2.8,2.8,0,0,1,.79.47,2.14,2.14,0,0,1,.52.7,2.53,2.53,0,0,1,.19,1,2.38,2.38,0,0,1-.31,1.22,2.54,2.54,0,0,1-.79.84,3.52,3.52,0,0,1-1.1.47,5.84,5.84,0,0,1-1.25.14,5.07,5.07,0,0,1-1.86-.32A3.36,3.36,0,0,1,131.06,42l1.22-1a5.11,5.11,0,0,0,.88.7,2.2,2.2,0,0,0,1.18.3A3.34,3.34,0,0,0,135,42a1.85,1.85,0,0,0,.56-.2,1.17,1.17,0,0,0,.39-.34.81.81,0,0,0,.15-.48.83.83,0,0,0-.22-.59,1.73,1.73,0,0,0-.54-.37,3.63,3.63,0,0,0-.66-.21l-.62-.13c-.35-.09-.68-.18-1-.29a2.9,2.9,0,0,1-.82-.43,2.12,2.12,0,0,1-.58-.68,2.28,2.28,0,0,1-.21-1,2.39,2.39,0,0,1,.27-1.16,2.61,2.61,0,0,1,.74-.81,3.32,3.32,0,0,1,1-.49,4.72,4.72,0,0,1,1.18-.16,4.26,4.26,0,0,1,1.65.33A2.6,2.6,0,0,1,137.55,36Z"/><path class="cls-1" d="M149.29,36.22H147v3.86c0,.23,0,.47,0,.7a1.72,1.72,0,0,0,.14.63.89.89,0,0,0,.36.45,1.15,1.15,0,0,0,.7.17,4.16,4.16,0,0,0,.6-.05,1.64,1.64,0,0,0,.55-.2v1.47a2.23,2.23,0,0,1-.74.23,5.9,5.9,0,0,1-.71.06,3.36,3.36,0,0,1-1.45-.26,1.77,1.77,0,0,1-.75-.67,2.25,2.25,0,0,1-.29-.93c0-.34,0-.68,0-1V36.22h-1.87v-1.4h1.87V32.43H147v2.39h2.32Z"/><path class="cls-1" d="M151,39.07a4.23,4.23,0,0,1,.35-1.74,4.45,4.45,0,0,1,1-1.42,4.73,4.73,0,0,1,1.43-1,4.56,4.56,0,0,1,5,1,4.45,4.45,0,0,1,1,1.42,4.23,4.23,0,0,1,.35,1.74,4.28,4.28,0,0,1-.35,1.75,4.35,4.35,0,0,1-1,1.42,4.42,4.42,0,0,1-1.43.95,4.7,4.7,0,0,1-3.56,0,4.53,4.53,0,0,1-1.43-.95,4.35,4.35,0,0,1-1-1.42A4.28,4.28,0,0,1,151,39.07Zm1.72,0a3.5,3.5,0,0,0,.2,1.19,2.81,2.81,0,0,0,.55.94,2.77,2.77,0,0,0,.88.61,3.22,3.22,0,0,0,2.34,0,2.77,2.77,0,0,0,.88-.61,2.81,2.81,0,0,0,.55-.94,3.64,3.64,0,0,0,0-2.38,2.81,2.81,0,0,0-.55-.94,2.77,2.77,0,0,0-.88-.61,3.22,3.22,0,0,0-2.34,0,2.77,2.77,0,0,0-.88.61,2.81,2.81,0,0,0-.55.94A3.5,3.5,0,0,0,152.68,39.07Z"/><path class="cls-1" d="M24.93,57.68a4.65,4.65,0,0,1-.33,1.77,4.13,4.13,0,0,1-.94,1.38,4.22,4.22,0,0,1-1.47.9,5.32,5.32,0,0,1-1.91.33,7.15,7.15,0,0,1-2.23-.34,5.45,5.45,0,0,1-1.93-1.19l1.09-1.36a4.53,4.53,0,0,0,1.37,1,3.9,3.9,0,0,0,1.67.35,3.82,3.82,0,0,0,1.49-.26,2.7,2.7,0,0,0,.94-.67,2.39,2.39,0,0,0,.49-.95,3.82,3.82,0,0,0,.15-1.06V56.35h-.06A2.89,2.89,0,0,1,22,57.49a4.07,4.07,0,0,1-1.68.37,4.31,4.31,0,0,1-1.73-.34,4.1,4.1,0,0,1-1.38-.91,4.15,4.15,0,0,1-.89-1.38A4.48,4.48,0,0,1,16,53.5a5,5,0,0,1,.31-1.75,4.16,4.16,0,0,1,.87-1.43,4,4,0,0,1,1.36-1A4.5,4.5,0,0,1,20.32,49,4,4,0,0,1,22,49.4a3.19,3.19,0,0,1,1.28,1.06h0V49.24h1.61Zm-4.41-7.14a2.94,2.94,0,0,0-1.17.22,2.52,2.52,0,0,0-.88.61,2.89,2.89,0,0,0-.56.93,3.59,3.59,0,0,0-.19,1.2,2.86,2.86,0,0,0,.75,2.07,2.72,2.72,0,0,0,2.05.78,2.7,2.7,0,0,0,2-.78,2.87,2.87,0,0,0,.76-2.07,3.6,3.6,0,0,0-.2-1.2,2.72,2.72,0,0,0-.56-.93,2.52,2.52,0,0,0-.88-.61A2.86,2.86,0,0,0,20.52,50.54Z"/><path class="cls-1" d="M27,53.5a4.16,4.16,0,0,1,.35-1.74,4.49,4.49,0,0,1,2.39-2.38,4.7,4.7,0,0,1,3.56,0,4.29,4.29,0,0,1,1.43,1,4.35,4.35,0,0,1,1,1.42A4.16,4.16,0,0,1,36,53.5a4.39,4.39,0,0,1-1.31,3.16,4.59,4.59,0,0,1-5,1,4.53,4.53,0,0,1-1.43-1A4.39,4.39,0,0,1,27,53.5Zm1.72,0a3.54,3.54,0,0,0,.2,1.19,2.67,2.67,0,0,0,.55.93,2.62,2.62,0,0,0,.88.61,3.09,3.09,0,0,0,2.34,0,2.62,2.62,0,0,0,.88-.61,2.67,2.67,0,0,0,.55-.93,3.54,3.54,0,0,0,.2-1.19,3.6,3.6,0,0,0-.2-1.2,2.86,2.86,0,0,0-.55-.93,2.62,2.62,0,0,0-.88-.61,3.22,3.22,0,0,0-2.34,0,2.62,2.62,0,0,0-.88.61,2.86,2.86,0,0,0-.55.93A3.6,3.6,0,0,0,28.68,53.5Z"/><path class="cls-1" d="M37,49.24h1.86l2.55,6.52,2.44-6.52h1.73l-3.34,8.51H40.47Z"/><path class="cls-1" d="M48.22,54.09a2,2,0,0,0,.25,1,2.41,2.41,0,0,0,.63.78,2.94,2.94,0,0,0,.92.51,3.2,3.2,0,0,0,1.07.17,2.41,2.41,0,0,0,1.31-.34,4.48,4.48,0,0,0,1-.93l1.22.93A4.51,4.51,0,0,1,50.88,58a4.61,4.61,0,0,1-1.82-.35,3.76,3.76,0,0,1-1.38-.94,4.2,4.2,0,0,1-.88-1.42,5,5,0,0,1-.3-1.76,4.65,4.65,0,0,1,.33-1.77,4.4,4.4,0,0,1,.92-1.42,4.22,4.22,0,0,1,1.39-.94A4.42,4.42,0,0,1,50.9,49a4.25,4.25,0,0,1,1.91.39,3.85,3.85,0,0,1,1.28,1,4.09,4.09,0,0,1,.73,1.44A5.92,5.92,0,0,1,55,53.51v.58Zm5.1-1.29a3.42,3.42,0,0,0-.17-1,2.18,2.18,0,0,0-.46-.78,2.06,2.06,0,0,0-.76-.52,2.71,2.71,0,0,0-3,.62,2.66,2.66,0,0,0-.53.8,2.28,2.28,0,0,0-.19.87Z"/><path class="cls-1" d="M57,49.24h1.61v1.31h0a2.56,2.56,0,0,1,.43-.62,3,3,0,0,1,.6-.47,3,3,0,0,1,.73-.31,2.71,2.71,0,0,1,.79-.12,2.09,2.09,0,0,1,.72.11l-.07,1.74-.4-.09a1.72,1.72,0,0,0-.39,0,2.4,2.4,0,0,0-1.82.66,3,3,0,0,0-.63,2.07v4.27H57Z"/><path class="cls-1" d="M63.62,49.24h1.61v1.31h0a2.39,2.39,0,0,1,1.06-1.1A3.5,3.5,0,0,1,68.07,49a3.6,3.6,0,0,1,1.18.19,2.63,2.63,0,0,1,1,.58,2.85,2.85,0,0,1,.68,1,4.07,4.07,0,0,1,.25,1.47v5.47H69.54v-5a2.8,2.8,0,0,0-.16-1A1.85,1.85,0,0,0,69,51a1.73,1.73,0,0,0-.62-.38,2.23,2.23,0,0,0-.73-.11,2.6,2.6,0,0,0-.93.16,1.93,1.93,0,0,0-.75.51,2.34,2.34,0,0,0-.51.89,4.32,4.32,0,0,0-.18,1.27v4.38H63.62Z"/><path class="cls-1" d="M73.6,49.24h1.5v1.33h0a1.49,1.49,0,0,1,.28-.45,2.86,2.86,0,0,1,.57-.51,3.57,3.57,0,0,1,.83-.41A3.17,3.17,0,0,1,77.87,49a3.08,3.08,0,0,1,1.6.39,2.92,2.92,0,0,1,1,1.19,2.8,2.8,0,0,1,1.17-1.19A3.28,3.28,0,0,1,83.22,49a3.6,3.6,0,0,1,1.61.32,2.67,2.67,0,0,1,1,.85,3.32,3.32,0,0,1,.49,1.21,7,7,0,0,1,.14,1.39v5H84.83V53a7,7,0,0,0-.06-.93,2.16,2.16,0,0,0-.26-.79,1.48,1.48,0,0,0-.56-.55,2,2,0,0,0-1-.2,1.89,1.89,0,0,0-1.67.71,3.21,3.21,0,0,0-.5,1.85v4.65H79.21V53.3a9.29,9.29,0,0,0-.06-1.11,2.41,2.41,0,0,0-.25-.87,1.44,1.44,0,0,0-.54-.58,1.93,1.93,0,0,0-.94-.2,2,2,0,0,0-.83.17,1.87,1.87,0,0,0-.71.51,2.28,2.28,0,0,0-.49.87,3.88,3.88,0,0,0-.18,1.25v4.41H73.6Z"/><path class="cls-1" d="M90.11,54.09a2.12,2.12,0,0,0,.24,1,2.31,2.31,0,0,0,.64.78,2.79,2.79,0,0,0,.91.51,3.3,3.3,0,0,0,1.08.17,2.44,2.44,0,0,0,1.31-.34,4.44,4.44,0,0,0,1-.93l1.22.93A4.5,4.5,0,0,1,92.76,58a4.65,4.65,0,0,1-1.82-.35,3.94,3.94,0,0,1-1.38-.94,4,4,0,0,1-.87-1.42,5,5,0,0,1-.31-1.76,4.47,4.47,0,0,1,.34-1.77,4.38,4.38,0,0,1,.91-1.42A4.22,4.22,0,0,1,91,49.37,4.45,4.45,0,0,1,92.78,49a4.25,4.25,0,0,1,1.91.39,3.85,3.85,0,0,1,1.28,1,4.09,4.09,0,0,1,.73,1.44,5.93,5.93,0,0,1,.23,1.62v.58ZM95.2,52.8a3.42,3.42,0,0,0-.17-1,2.16,2.16,0,0,0-.45-.78,2.1,2.1,0,0,0-.77-.52,2.69,2.69,0,0,0-1.07-.19,2.74,2.74,0,0,0-1.08.22,2.7,2.7,0,0,0-.84.59,2.63,2.63,0,0,0-.52.8,2.1,2.1,0,0,0-.19.87Z"/><path class="cls-1" d="M98.86,49.24h1.62v1.31h0a2.44,2.44,0,0,1,1.06-1.1,3.56,3.56,0,0,1,1.74-.42,3.6,3.6,0,0,1,1.18.19,2.59,2.59,0,0,1,1,.58,2.83,2.83,0,0,1,.67,1,3.87,3.87,0,0,1,.25,1.47v5.47h-1.61v-5a2.79,2.79,0,0,0-.17-1,1.73,1.73,0,0,0-.43-.68,1.65,1.65,0,0,0-.62-.38,2.17,2.17,0,0,0-.72-.11,2.61,2.61,0,0,0-.94.16,2.09,2.09,0,0,0-.75.51,2.46,2.46,0,0,0-.5.89,4,4,0,0,0-.18,1.27v4.38H98.86Z"/><path class="cls-1" d="M113.4,50.64h-2.31V54.5c0,.24,0,.48,0,.71a1.82,1.82,0,0,0,.14.63,1,1,0,0,0,.36.45,1.22,1.22,0,0,0,.7.17,3.13,3.13,0,0,0,.6-.06,1.63,1.63,0,0,0,.55-.19v1.47a2,2,0,0,1-.74.22A6.37,6.37,0,0,1,112,58a3.2,3.2,0,0,1-1.45-.27,1.7,1.7,0,0,1-.75-.67,2.16,2.16,0,0,1-.29-.92c0-.34,0-.69,0-1V50.64H107.6v-1.4h1.87V46.86h1.62v2.38h2.31Z"/><rect class="cls-2" x="0.05" y="32.39" width="10.45" height="10.45"/><path class="cls-3" d="M112.41,25.07h-30a.28.28,0,0,1-.27-.27V23.18a1.11,1.11,0,0,1,1.11-1.11h0V20.72a1.11,1.11,0,0,1,1.11-1.11h.1V18.26a1.11,1.11,0,0,1,1.1-1.11h.77V9.5h-.89a.5.5,0,0,1-.29-.91L96.4.36h0a1.71,1.71,0,0,1,2,0l11.21,8.24a.49.49,0,0,1,.19.56.5.5,0,0,1-.48.35h-.89v7.65h.77a1.11,1.11,0,0,1,1.11,1.11v1.35h.1a1.11,1.11,0,0,1,1.11,1.11l0,1.35a1.11,1.11,0,0,1,1.11,1.11V24.8A.27.27,0,0,1,112.41,25.07Zm-29.73-.54h29.46V23.18a.57.57,0,0,0-.57-.57h-4.46a.27.27,0,1,1,0-.54H111V20.72a.57.57,0,0,0-.57-.57h-26a.56.56,0,0,0-.57.57v1.35H98a.27.27,0,1,1,0,.54H83.25a.57.57,0,0,0-.57.57ZM85,19.61h24.75V18.26a.57.57,0,0,0-.57-.57H85.6a.56.56,0,0,0-.56.57Zm21.37-2.46h1.5V9.5h-1.5Zm-2,0h1.51V9.5h-1.51Zm-2,0h1.5V9.5h-1.5Zm-9.28,0h8.74V9.5H93Zm-2,0h1.5V9.5H91Zm-2,0h1.51V9.5H89Zm-2,0h1.51V9.5H86.91ZM96.72.79,85.51,9h1a.3.3,0,0,1,.34,0h1.71a.29.29,0,0,1,.33,0h1.72a.29.29,0,0,1,.31,0h1.75a.3.3,0,0,1,.29,0l9,0a.34.34,0,0,1,.2,0H104a.25.25,0,0,1,.17,0h5.16L98.1.79a1.17,1.17,0,0,0-1.38,0Zm.69,6a1.51,1.51,0,1,1,1.51-1.51A1.52,1.52,0,0,1,97.41,6.83Zm0-2.49a1,1,0,1,0,1,1A1,1,0,0,0,97.41,4.34Z"/><path class="cls-3" d="M103.72,22.61a.28.28,0,0,1-.28-.27.26.26,0,0,1,.26-.27h0a.27.27,0,1,1,0,.54Zm-1,0a.28.28,0,0,1-.28-.27.26.26,0,0,1,.26-.27h0a.27.27,0,1,1,0,.54Z"/><path class="cls-3" d="M105.23,22.61h-.53a.27.27,0,0,1,0-.54h.53a.27.27,0,1,1,0,.54Zm-4.49,0h-.54a.27.27,0,0,1,0-.54h.54a.27.27,0,0,1,0,.54Z"/><path class="cls-3" d="M111.42,27.67H96.72a.27.27,0,0,1,0-.54h14.7a.27.27,0,0,1,0,.54Zm-23.24,0H83.41a.27.27,0,0,1,0-.54h4.77a.27.27,0,1,1,0,.54Zm26.44-2.6H80.2a.27.27,0,0,1,0-.54h34.42a.27.27,0,0,1,0,.54Z"/><path class="cls-3" d="M94.33,27.67H93.8a.27.27,0,0,1,0-.54h.53a.27.27,0,1,1,0,.54Zm-2.74,0h-.54a.27.27,0,0,1,0-.54h.54a.27.27,0,1,1,0,.54Z"/></svg>