<?xml version="1.0" encoding="utf-8"?>
<!-- Generator: Adobe Illustrator 25.0.0, SVG Export Plug-In . SVG Version: 6.00 Build 0)  -->
<svg version="1.1" id="Layer_1" xmlns="http://www.w3.org/2000/svg" xmlns:xlink="http://www.w3.org/1999/xlink" x="0px" y="0px"
	 viewBox="0 0 364.1 238.6" style="enable-background:new 0 0 364.1 238.6;" xml:space="preserve">
<style type="text/css">
	.st0{fill:#F7F5F1;}
	.st1{clip-path:url(#SVGID_2_);fill:#ECE9E1;}
	.st2{clip-path:url(#SVGID_4_);fill:#F7F5F1;}
	.st3{clip-path:url(#SVGID_6_);fill:#FFFFFF;}
	.st4{fill:#282829;}
	.st5{fill:#A0926A;}
	.st6{fill:none;stroke:#A0926A;stroke-width:1.5;}
	.st7{fill:#1568A1;}
	.st8{fill:#FFFFFF;}
	.st9{fill:none;stroke:#FFFFFF;stroke-width:0.333;stroke-miterlimit:10;}
	.st10{fill:#0092B2;}
	.st11{fill:none;stroke:#FFFFFF;stroke-width:0.497;stroke-miterlimit:10;}
	.st12{fill:none;stroke:#FFFFFF;stroke-width:0.724;stroke-miterlimit:10;}
	.st13{fill:none;stroke:#FFFFFF;stroke-width:0.62;stroke-miterlimit:10;}
	.st14{fill:#8B9638;}
	.st15{fill:none;stroke:#FFFFFF;stroke-width:0.628;stroke-linecap:round;stroke-linejoin:round;stroke-miterlimit:22.926;}
	.st16{fill:none;stroke:#FFFFFF;stroke-width:0.403;stroke-miterlimit:10;}
</style>
<g>
	<rect x="25.9" y="10" class="st0" width="326.3" height="206.3"/>
	<g>
		<g>
			<defs>
				<rect id="SVGID_1_" x="25.9" y="10" width="326.3" height="206.3"/>
			</defs>
			<clipPath id="SVGID_2_">
				<use xlink:href="#SVGID_1_"  style="overflow:visible;"/>
			</clipPath>
			<path class="st1" d="M27.1,418.9c111.5,0,201.8-90.4,201.8-201.8c0-111.5-90.4-201.8-201.8-201.8s-201.8,90.4-201.8,201.8
				C-174.8,328.6-84.4,418.9,27.1,418.9"/>
		</g>
		<g>
			<defs>
				<rect id="SVGID_3_" x="25.9" y="10" width="326.3" height="206.3"/>
			</defs>
			<clipPath id="SVGID_4_">
				<use xlink:href="#SVGID_3_"  style="overflow:visible;"/>
			</clipPath>
			<path class="st2" d="M27.1,340C95,340,150,285,150,217.1S95,94.2,27.1,94.2s-122.9,55-122.9,122.9S-40.8,340,27.1,340"/>
		</g>
		<g>
			<defs>
				<rect id="SVGID_5_" x="25.9" y="10" width="326.3" height="206.3"/>
			</defs>
			<clipPath id="SVGID_6_">
				<use xlink:href="#SVGID_5_"  style="overflow:visible;"/>
			</clipPath>
			<path class="st3" d="M27.1,274c31.5,0,56.9-25.5,56.9-56.9s-25.5-56.9-56.9-56.9s-56.9,25.5-56.9,56.9
				C-29.9,248.6-4.4,274,27.1,274"/>
		</g>
	</g>
	<path class="st4" d="M79,235.3c0,0.4-0.2,0.8-0.5,1.1s-0.8,0.4-1.3,0.4s-1-0.1-1.4-0.3v-0.8c0.2,0.1,0.5,0.2,0.7,0.3
		s0.5,0.1,0.7,0.1c0.3,0,0.6-0.1,0.7-0.2s0.2-0.3,0.2-0.5c0-0.2-0.1-0.4-0.2-0.5c-0.1-0.1-0.4-0.3-0.9-0.5c-0.5-0.2-0.8-0.4-1-0.6
		c-0.2-0.2-0.3-0.5-0.3-0.9c0-0.4,0.2-0.8,0.4-1c0.3-0.2,0.7-0.4,1.2-0.4c0.5,0,0.9,0.1,1.4,0.3l-0.3,0.7c-0.4-0.2-0.8-0.3-1.2-0.3
		c-0.3,0-0.5,0.1-0.6,0.2c-0.1,0.1-0.2,0.3-0.2,0.5c0,0.1,0,0.2,0.1,0.3s0.1,0.2,0.3,0.3s0.3,0.2,0.7,0.3c0.4,0.1,0.6,0.3,0.8,0.4
		c0.2,0.1,0.3,0.3,0.4,0.4C79,234.9,79,235.1,79,235.3z M79.9,231.9c0-0.1,0-0.3,0.1-0.3s0.2-0.1,0.3-0.1c0.1,0,0.3,0,0.3,0.1
		s0.1,0.2,0.1,0.3s0,0.2-0.1,0.3s-0.2,0.1-0.3,0.1c-0.2,0-0.3,0-0.3-0.1S79.9,232,79.9,231.9z M80.8,236.6h-0.8v-3.8h0.8V236.6z
		 M85.2,232.9v0.4l-0.7,0.1c0.1,0.1,0.1,0.2,0.2,0.3c0,0.1,0.1,0.2,0.1,0.4c0,0.4-0.1,0.7-0.4,0.9c-0.3,0.2-0.6,0.3-1.1,0.3
		c-0.1,0-0.2,0-0.3,0c-0.2,0.1-0.3,0.2-0.3,0.4c0,0.1,0,0.1,0.1,0.2c0.1,0,0.2,0.1,0.4,0.1h0.7c0.4,0,0.7,0.1,0.9,0.3
		c0.2,0.2,0.3,0.4,0.3,0.8c0,0.4-0.2,0.8-0.5,1c-0.3,0.2-0.9,0.4-1.5,0.4c-0.5,0-0.9-0.1-1.2-0.3c-0.3-0.2-0.4-0.4-0.4-0.8
		c0-0.2,0.1-0.4,0.2-0.6s0.3-0.3,0.6-0.3c-0.1-0.1-0.2-0.1-0.3-0.2c-0.1-0.1-0.1-0.2-0.1-0.3c0-0.1,0-0.3,0.1-0.4s0.2-0.2,0.4-0.3
		c-0.2-0.1-0.3-0.2-0.5-0.4c-0.1-0.2-0.2-0.4-0.2-0.7c0-0.4,0.1-0.7,0.4-0.9c0.3-0.2,0.6-0.3,1.1-0.3c0.1,0,0.2,0,0.3,0
		c0.1,0,0.2,0,0.3,0.1L85.2,232.9L85.2,232.9z M82.2,237.2c0,0.2,0.1,0.3,0.2,0.4c0.2,0.1,0.4,0.1,0.7,0.1c0.4,0,0.8-0.1,1-0.2
		c0.2-0.1,0.3-0.3,0.3-0.5c0-0.2-0.1-0.3-0.2-0.4s-0.3-0.1-0.7-0.1h-0.6c-0.2,0-0.4,0.1-0.6,0.2C82.3,236.9,82.2,237.1,82.2,237.2z
		 M82.5,234.1c0,0.2,0.1,0.4,0.2,0.6s0.3,0.2,0.5,0.2c0.5,0,0.7-0.3,0.7-0.8c0-0.3-0.1-0.4-0.2-0.6c-0.1-0.1-0.3-0.2-0.5-0.2
		c-0.2,0-0.4,0.1-0.5,0.2C82.6,233.6,82.5,233.8,82.5,234.1z M89.3,236.6h-0.8v-2.3c0-0.3-0.1-0.5-0.2-0.6s-0.3-0.2-0.6-0.2
		c-0.3,0-0.6,0.1-0.8,0.3s-0.2,0.5-0.2,1v1.9h-0.8v-3.8h0.6l0.1,0.5h0c0.1-0.2,0.3-0.3,0.5-0.4c0.2-0.1,0.4-0.1,0.7-0.1
		c0.9,0,1.4,0.5,1.4,1.4L89.3,236.6L89.3,236.6z M90.4,231.9c0-0.1,0-0.3,0.1-0.3s0.2-0.1,0.3-0.1c0.1,0,0.3,0,0.3,0.1
		s0.1,0.2,0.1,0.3s0,0.2-0.1,0.3s-0.2,0.1-0.3,0.1c-0.2,0-0.3,0-0.3-0.1S90.4,232,90.4,231.9z M91.3,236.6h-0.8v-3.8h0.8V236.6z
		 M94.4,233.5h-0.9v3.2h-0.8v-3.2H92v-0.4l0.6-0.3v-0.3c0-0.4,0.1-0.8,0.3-1c0.2-0.2,0.5-0.3,1-0.3c0.3,0,0.6,0.1,0.8,0.1l-0.2,0.6
		c-0.2-0.1-0.4-0.1-0.6-0.1s-0.3,0.1-0.4,0.2s-0.1,0.3-0.1,0.5v0.3h0.9L94.4,233.5L94.4,233.5z M95,231.9c0-0.1,0-0.3,0.1-0.3
		s0.2-0.1,0.3-0.1c0.1,0,0.3,0,0.3,0.1s0.1,0.2,0.1,0.3s0,0.2-0.1,0.3s-0.2,0.1-0.3,0.1c-0.2,0-0.3,0-0.3-0.1S95,232,95,231.9z
		 M95.8,236.6H95v-3.8h0.8V236.6z M98.6,236.7c-0.6,0-1-0.2-1.3-0.5c-0.3-0.3-0.4-0.8-0.4-1.4c0-0.6,0.2-1.1,0.5-1.5
		s0.8-0.5,1.3-0.5c0.4,0,0.8,0.1,1.1,0.2l-0.2,0.6c-0.3-0.1-0.6-0.2-0.8-0.2c-0.7,0-1,0.4-1,1.3c0,0.4,0.1,0.7,0.2,1
		c0.2,0.2,0.4,0.3,0.7,0.3c0.4,0,0.7-0.1,1-0.3v0.7c-0.1,0.1-0.3,0.1-0.5,0.2C99,236.7,98.8,236.7,98.6,236.7z M102.9,236.6
		l-0.2-0.5h0c-0.2,0.2-0.4,0.4-0.6,0.5s-0.4,0.1-0.7,0.1c-0.4,0-0.7-0.1-0.9-0.3s-0.3-0.5-0.3-0.9c0-0.4,0.1-0.7,0.4-0.9
		c0.3-0.2,0.7-0.3,1.3-0.3l0.7,0v-0.2c0-0.2-0.1-0.4-0.2-0.5s-0.3-0.2-0.5-0.2c-0.2,0-0.4,0-0.6,0.1s-0.3,0.1-0.5,0.2l-0.3-0.6
		c0.2-0.1,0.4-0.2,0.7-0.2c0.2-0.1,0.5-0.1,0.7-0.1c0.5,0,0.8,0.1,1.1,0.3c0.2,0.2,0.4,0.5,0.4,1v2.6L102.9,236.6L102.9,236.6z
		 M101.7,236.1c0.3,0,0.5-0.1,0.7-0.2c0.2-0.2,0.3-0.4,0.3-0.7v-0.3l-0.5,0c-0.4,0-0.7,0.1-0.8,0.2c-0.2,0.1-0.3,0.3-0.3,0.5
		c0,0.2,0.1,0.3,0.2,0.4C101.4,236.1,101.5,236.1,101.7,236.1z M108,236.6h-0.8v-2.3c0-0.3-0.1-0.5-0.2-0.6s-0.3-0.2-0.6-0.2
		c-0.3,0-0.6,0.1-0.8,0.3s-0.2,0.5-0.2,1v1.9h-0.8v-3.8h0.6l0.1,0.5h0c0.1-0.2,0.3-0.3,0.5-0.4c0.2-0.1,0.4-0.1,0.7-0.1
		c0.9,0,1.4,0.5,1.4,1.4L108,236.6L108,236.6z M110.7,236.7c-0.6,0-1-0.2-1.3-0.5c-0.3-0.3-0.4-0.8-0.4-1.4c0-0.6,0.2-1.1,0.5-1.5
		s0.8-0.5,1.3-0.5c0.4,0,0.8,0.1,1.1,0.2l-0.2,0.6c-0.3-0.1-0.6-0.2-0.8-0.2c-0.7,0-1,0.4-1,1.3c0,0.4,0.1,0.7,0.2,1
		c0.2,0.2,0.4,0.3,0.7,0.3c0.4,0,0.7-0.1,1-0.3v0.7c-0.1,0.1-0.3,0.1-0.5,0.2C111.2,236.7,111,236.7,110.7,236.7z M114.4,236.7
		c-0.6,0-1.1-0.2-1.4-0.5c-0.3-0.3-0.5-0.8-0.5-1.4c0-0.6,0.2-1.1,0.5-1.5c0.3-0.4,0.7-0.5,1.3-0.5c0.5,0,0.9,0.1,1.2,0.4
		s0.4,0.7,0.4,1.3v0.4h-2.5c0,0.4,0.1,0.6,0.3,0.9c0.2,0.2,0.4,0.3,0.8,0.3c0.2,0,0.4,0,0.6-0.1s0.4-0.1,0.6-0.2v0.6
		c-0.2,0.1-0.4,0.2-0.6,0.2C114.9,236.7,114.7,236.7,114.4,236.7z M114.3,233.4c-0.3,0-0.5,0.1-0.6,0.2s-0.3,0.4-0.3,0.7h1.7
		c0-0.3-0.1-0.6-0.2-0.7C114.7,233.5,114.5,233.4,114.3,233.4z M122.1,234.8c0,0.6-0.2,1.1-0.5,1.4c-0.3,0.4-0.8,0.5-1.3,0.5
		c-0.3,0-0.7-0.1-0.9-0.2c-0.3-0.2-0.5-0.4-0.6-0.7c-0.2-0.3-0.2-0.6-0.2-1c0-0.6,0.2-1.1,0.5-1.4c0.3-0.3,0.8-0.5,1.3-0.5
		c0.6,0,1,0.2,1.3,0.5C121.9,233.7,122.1,234.2,122.1,234.8z M119.3,234.8c0,0.9,0.3,1.3,1,1.3c0.6,0,1-0.4,1-1.3
		c0-0.9-0.3-1.3-1-1.3c-0.3,0-0.6,0.1-0.7,0.3C119.4,234,119.3,234.3,119.3,234.8z M125,233.5h-0.9v3.2h-0.8v-3.2h-0.6v-0.4l0.6-0.3
		v-0.3c0-0.4,0.1-0.8,0.3-1c0.2-0.2,0.5-0.3,1-0.3c0.3,0,0.6,0.1,0.8,0.1l-0.2,0.6c-0.2-0.1-0.4-0.1-0.6-0.1s-0.3,0.1-0.4,0.2
		s-0.1,0.3-0.1,0.5v0.3h0.9L125,233.5L125,233.5z M127.5,231.9c0-0.1,0-0.3,0.1-0.3s0.2-0.1,0.3-0.1c0.1,0,0.3,0,0.3,0.1
		s0.1,0.2,0.1,0.3s0,0.2-0.1,0.3s-0.2,0.1-0.3,0.1c-0.2,0-0.3,0-0.3-0.1S127.5,232,127.5,231.9z M128.4,236.6h-0.8v-3.8h0.8V236.6z
		 M132.8,236.6H132v-2.3c0-0.3-0.1-0.5-0.2-0.6s-0.3-0.2-0.5-0.2c-0.3,0-0.5,0.1-0.7,0.3s-0.2,0.5-0.2,1v1.9h-0.8v-3.8h0.6l0.1,0.5
		h0c0.1-0.2,0.3-0.3,0.5-0.4c0.2-0.1,0.4-0.1,0.7-0.1c0.6,0,1,0.2,1.2,0.6h0.1c0.1-0.2,0.3-0.3,0.5-0.4c0.2-0.1,0.4-0.2,0.7-0.2
		c0.4,0,0.8,0.1,1,0.3s0.3,0.6,0.3,1v2.5h-0.8v-2.3c0-0.3-0.1-0.5-0.2-0.6s-0.3-0.2-0.5-0.2c-0.3,0-0.5,0.1-0.7,0.3
		c-0.1,0.2-0.2,0.5-0.2,0.9L132.8,236.6L132.8,236.6z M138.3,236.7c-0.5,0-0.9-0.2-1.1-0.5h-0.1c0,0.3,0.1,0.5,0.1,0.6v1.6h-0.8
		v-5.5h0.6c0,0.1,0.1,0.2,0.1,0.5h0c0.3-0.4,0.6-0.6,1.1-0.6c0.5,0,0.8,0.2,1.1,0.5s0.4,0.8,0.4,1.4s-0.1,1.1-0.4,1.4
		C139.1,236.6,138.8,236.7,138.3,236.7z M138.1,233.5c-0.3,0-0.6,0.1-0.7,0.3s-0.2,0.5-0.2,0.9v0.1c0,0.5,0.1,0.8,0.2,1
		s0.4,0.3,0.7,0.3c0.3,0,0.5-0.1,0.6-0.3s0.2-0.6,0.2-1s-0.1-0.7-0.2-1C138.6,233.6,138.4,233.5,138.1,233.5z M143.2,236.6l-0.2-0.5
		h0c-0.2,0.2-0.4,0.4-0.6,0.5s-0.4,0.1-0.7,0.1c-0.4,0-0.7-0.1-0.9-0.3c-0.2-0.2-0.3-0.5-0.3-0.9c0-0.4,0.1-0.7,0.4-0.9
		c0.3-0.2,0.7-0.3,1.3-0.3l0.6,0v-0.2c0-0.2-0.1-0.4-0.2-0.5s-0.3-0.2-0.5-0.2c-0.2,0-0.4,0-0.6,0.1s-0.4,0.1-0.5,0.2l-0.3-0.6
		c0.2-0.1,0.4-0.2,0.7-0.2c0.2-0.1,0.5-0.1,0.7-0.1c0.5,0,0.8,0.1,1.1,0.3c0.2,0.2,0.4,0.5,0.4,1v2.6L143.2,236.6L143.2,236.6z
		 M142,236.1c0.3,0,0.5-0.1,0.7-0.2c0.2-0.2,0.3-0.4,0.3-0.7v-0.3l-0.5,0c-0.4,0-0.6,0.1-0.8,0.2c-0.2,0.1-0.3,0.3-0.3,0.5
		c0,0.2,0.1,0.3,0.1,0.4C141.6,236.1,141.8,236.1,142,236.1z M146.5,236.7c-0.6,0-1-0.2-1.3-0.5c-0.3-0.3-0.4-0.8-0.4-1.4
		c0-0.6,0.2-1.1,0.5-1.5s0.8-0.5,1.4-0.5c0.4,0,0.8,0.1,1.1,0.2l-0.2,0.6c-0.3-0.1-0.6-0.2-0.8-0.2c-0.6,0-1,0.4-1,1.3
		c0,0.4,0.1,0.7,0.2,1c0.2,0.2,0.4,0.3,0.7,0.3c0.4,0,0.7-0.1,1-0.3v0.7c-0.1,0.1-0.3,0.1-0.5,0.2
		C146.9,236.7,146.7,236.7,146.5,236.7z M149.9,236.1c0.2,0,0.4,0,0.6-0.1v0.6c-0.1,0-0.2,0.1-0.3,0.1s-0.3,0-0.4,0
		c-0.8,0-1.1-0.4-1.1-1.2v-2H148v-0.4l0.6-0.3l0.3-0.8h0.5v0.8h1.1v0.6h-1.1v2c0,0.2,0.1,0.3,0.1,0.4
		C149.6,236,149.7,236.1,149.9,236.1z M154.6,236.1c0.2,0,0.4,0,0.6-0.1v0.6c-0.1,0-0.2,0.1-0.3,0.1s-0.3,0-0.4,0
		c-0.8,0-1.1-0.4-1.1-1.2v-2h-0.5v-0.4l0.6-0.3l0.3-0.8h0.5v0.8h1.1v0.6h-1.1v2c0,0.2,0.1,0.3,0.1,0.4
		C154.3,236,154.4,236.1,154.6,236.1z M159.4,234.8c0,0.6-0.2,1.1-0.5,1.4c-0.3,0.4-0.8,0.5-1.3,0.5c-0.4,0-0.7-0.1-0.9-0.2
		s-0.5-0.4-0.6-0.7c-0.1-0.3-0.2-0.6-0.2-1c0-0.6,0.2-1.1,0.5-1.4c0.3-0.3,0.8-0.5,1.3-0.5c0.6,0,1,0.2,1.3,0.5
		C159.2,233.7,159.4,234.2,159.4,234.8z M156.6,234.8c0,0.9,0.3,1.3,1,1.3c0.6,0,1-0.4,1-1.3c0-0.9-0.3-1.3-1-1.3
		c-0.3,0-0.6,0.1-0.7,0.3C156.7,234,156.6,234.3,156.6,234.8z M163.6,236.1c0.2,0,0.4,0,0.6-0.1v0.6c-0.1,0-0.2,0.1-0.3,0.1
		s-0.3,0-0.4,0c-0.8,0-1.1-0.4-1.1-1.2v-2h-0.5v-0.4l0.6-0.3l0.3-0.8h0.5v0.8h1.1v0.6h-1.1v2c0,0.2,0.1,0.3,0.1,0.4
		C163.4,236,163.5,236.1,163.6,236.1z M168.4,236.6h-0.8v-2.3c0-0.3-0.1-0.5-0.2-0.6s-0.3-0.2-0.6-0.2c-0.3,0-0.6,0.1-0.7,0.3
		c-0.2,0.2-0.2,0.5-0.2,1v1.9h-0.8v-5.3h0.8v1.4c0,0.2,0,0.4,0,0.7h0.1c0.1-0.2,0.3-0.3,0.5-0.4c0.2-0.1,0.4-0.1,0.7-0.1
		c0.9,0,1.4,0.5,1.4,1.4L168.4,236.6L168.4,236.6z M171.2,236.7c-0.6,0-1.1-0.2-1.4-0.5s-0.5-0.8-0.5-1.4c0-0.6,0.1-1.1,0.5-1.5
		c0.3-0.4,0.7-0.5,1.3-0.5c0.5,0,0.9,0.1,1.2,0.4s0.4,0.7,0.4,1.3v0.4h-2.5c0,0.4,0.1,0.6,0.3,0.9c0.2,0.2,0.4,0.3,0.8,0.3
		c0.2,0,0.4,0,0.6-0.1s0.4-0.1,0.6-0.2v0.6c-0.2,0.1-0.4,0.2-0.6,0.2C171.7,236.7,171.5,236.7,171.2,236.7z M171.1,233.4
		c-0.3,0-0.5,0.1-0.6,0.2s-0.3,0.4-0.3,0.7h1.7c0-0.3-0.1-0.6-0.2-0.7C171.5,233.5,171.3,233.4,171.1,233.4z M177.2,236.7
		c-0.6,0-1.1-0.2-1.4-0.5s-0.5-0.8-0.5-1.4c0-0.6,0.1-1.1,0.5-1.5c0.3-0.4,0.7-0.5,1.3-0.5c0.5,0,0.9,0.1,1.2,0.4s0.4,0.7,0.4,1.3
		v0.4h-2.5c0,0.4,0.1,0.6,0.3,0.9c0.2,0.2,0.4,0.3,0.8,0.3c0.2,0,0.4,0,0.6-0.1s0.4-0.1,0.6-0.2v0.6c-0.2,0.1-0.4,0.2-0.6,0.2
		C177.7,236.7,177.5,236.7,177.2,236.7z M177.1,233.4c-0.3,0-0.5,0.1-0.6,0.2s-0.3,0.4-0.3,0.7h1.7c0-0.3-0.1-0.6-0.2-0.7
		C177.5,233.5,177.3,233.4,177.1,233.4z M181.2,236.7c-0.6,0-1-0.2-1.3-0.5c-0.3-0.3-0.4-0.8-0.4-1.4c0-0.6,0.2-1.1,0.5-1.5
		s0.8-0.5,1.4-0.5c0.4,0,0.8,0.1,1.1,0.2l-0.2,0.6c-0.3-0.1-0.6-0.2-0.8-0.2c-0.6,0-1,0.4-1,1.3c0,0.4,0.1,0.7,0.2,1
		c0.2,0.2,0.4,0.3,0.7,0.3c0.4,0,0.7-0.1,1-0.3v0.7c-0.1,0.1-0.3,0.1-0.5,0.2S181.4,236.7,181.2,236.7z M186.6,234.8
		c0,0.6-0.2,1.1-0.5,1.4c-0.3,0.4-0.8,0.5-1.3,0.5c-0.4,0-0.7-0.1-0.9-0.2s-0.5-0.4-0.6-0.7c-0.1-0.3-0.2-0.6-0.2-1
		c0-0.6,0.2-1.1,0.5-1.4c0.3-0.3,0.8-0.5,1.3-0.5c0.6,0,1,0.2,1.3,0.5C186.4,233.7,186.6,234.2,186.6,234.8z M183.8,234.8
		c0,0.9,0.3,1.3,1,1.3c0.6,0,1-0.4,1-1.3c0-0.9-0.3-1.3-1-1.3c-0.3,0-0.6,0.1-0.7,0.3C183.9,234,183.8,234.3,183.8,234.8z
		 M190.9,236.6h-0.8v-2.3c0-0.3-0.1-0.5-0.2-0.6s-0.3-0.2-0.6-0.2c-0.3,0-0.6,0.1-0.8,0.3s-0.2,0.5-0.2,1v1.9h-0.8v-3.8h0.6l0.1,0.5
		h0c0.1-0.2,0.3-0.3,0.5-0.4c0.2-0.1,0.4-0.1,0.7-0.1c0.9,0,1.4,0.5,1.4,1.4L190.9,236.6L190.9,236.6z M195.4,234.8
		c0,0.6-0.2,1.1-0.5,1.4c-0.3,0.4-0.8,0.5-1.3,0.5c-0.4,0-0.7-0.1-0.9-0.2s-0.5-0.4-0.6-0.7c-0.1-0.3-0.2-0.6-0.2-1
		c0-0.6,0.2-1.1,0.5-1.4c0.3-0.3,0.8-0.5,1.3-0.5c0.6,0,1,0.2,1.3,0.5C195.3,233.7,195.4,234.2,195.4,234.8z M192.7,234.8
		c0,0.9,0.3,1.3,1,1.3c0.6,0,1-0.4,1-1.3c0-0.9-0.3-1.3-1-1.3c-0.3,0-0.6,0.1-0.7,0.3C192.7,234,192.7,234.3,192.7,234.8z
		 M199.6,236.6h-0.8v-2.3c0-0.3-0.1-0.5-0.2-0.6s-0.3-0.2-0.5-0.2c-0.3,0-0.5,0.1-0.7,0.3s-0.2,0.5-0.2,1v1.9h-0.8v-3.8h0.6l0.1,0.5
		h0c0.1-0.2,0.3-0.3,0.5-0.4c0.2-0.1,0.4-0.1,0.7-0.1c0.6,0,1,0.2,1.2,0.6h0.1c0.1-0.2,0.3-0.3,0.5-0.4c0.2-0.1,0.4-0.2,0.7-0.2
		c0.4,0,0.8,0.1,1,0.3s0.3,0.6,0.3,1v2.5h-0.8v-2.3c0-0.3-0.1-0.5-0.2-0.6s-0.3-0.2-0.5-0.2c-0.3,0-0.5,0.1-0.7,0.3
		c-0.1,0.2-0.2,0.5-0.2,0.9L199.6,236.6L199.6,236.6z M202.6,232.9h0.9l0.8,2.1c0.1,0.3,0.2,0.6,0.2,0.9h0c0-0.1,0.1-0.3,0.1-0.5
		c0.1-0.2,0.3-1,0.9-2.6h0.9l-1.6,4.3c-0.3,0.8-0.8,1.2-1.5,1.2c-0.2,0-0.4,0-0.5-0.1v-0.6c0.1,0,0.3,0,0.4,0c0.4,0,0.7-0.2,0.8-0.7
		l0.1-0.4L202.6,232.9z M207.8,235.9c-0.1,0.4-0.3,1-0.6,1.6h-0.6c0.2-0.6,0.3-1.2,0.4-1.7L207.8,235.9L207.8,235.9z M212.5,236.7
		c-0.6,0-1.1-0.2-1.4-0.5s-0.5-0.8-0.5-1.4c0-0.6,0.1-1.1,0.5-1.5c0.3-0.4,0.7-0.5,1.3-0.5c0.5,0,0.9,0.1,1.2,0.4s0.4,0.7,0.4,1.3
		v0.4h-2.5c0,0.4,0.1,0.6,0.3,0.9c0.2,0.2,0.4,0.3,0.8,0.3c0.2,0,0.4,0,0.6-0.1s0.4-0.1,0.6-0.2v0.6c-0.2,0.1-0.4,0.2-0.6,0.2
		C213,236.7,212.7,236.7,212.5,236.7z M212.3,233.4c-0.3,0-0.5,0.1-0.6,0.2s-0.3,0.4-0.3,0.7h1.7c0-0.3-0.1-0.6-0.2-0.7
		C212.8,233.5,212.6,233.4,212.3,233.4z M218.3,236.6h-0.8v-2.3c0-0.3-0.1-0.5-0.2-0.6s-0.3-0.2-0.6-0.2c-0.3,0-0.6,0.1-0.8,0.3
		s-0.2,0.5-0.2,1v1.9h-0.8v-3.8h0.6l0.1,0.5h0c0.1-0.2,0.3-0.3,0.5-0.4c0.2-0.1,0.4-0.1,0.7-0.1c0.9,0,1.4,0.5,1.4,1.4L218.3,236.6
		L218.3,236.6z M220.3,236.6l-1.4-3.8h0.9l0.8,2.2c0.1,0.4,0.2,0.7,0.2,0.9h0c0-0.2,0.1-0.5,0.2-0.9l0.8-2.2h0.9l-1.4,3.8H220.3z
		 M223.2,231.9c0-0.1,0-0.3,0.1-0.3s0.2-0.1,0.3-0.1c0.1,0,0.3,0,0.3,0.1s0.1,0.2,0.1,0.3s0,0.2-0.1,0.3s-0.2,0.1-0.3,0.1
		c-0.1,0-0.3,0-0.3-0.1S223.2,232,223.2,231.9z M224.1,236.6h-0.8v-3.8h0.8V236.6z M227.2,232.8c0.2,0,0.3,0,0.4,0l-0.1,0.8
		c-0.1,0-0.2,0-0.4,0c-0.3,0-0.6,0.1-0.8,0.3c-0.2,0.2-0.3,0.5-0.3,0.8v2h-0.8v-3.8h0.6l0.1,0.7h0c0.1-0.2,0.3-0.4,0.5-0.5
		C226.8,232.9,227,232.8,227.2,232.8z M231.7,234.8c0,0.6-0.2,1.1-0.5,1.4c-0.3,0.4-0.8,0.5-1.3,0.5c-0.4,0-0.7-0.1-0.9-0.2
		s-0.5-0.4-0.6-0.7c-0.1-0.3-0.2-0.6-0.2-1c0-0.6,0.2-1.1,0.5-1.4c0.3-0.3,0.8-0.5,1.3-0.5c0.6,0,1,0.2,1.3,0.5
		C231.6,233.7,231.7,234.2,231.7,234.8z M229,234.8c0,0.9,0.3,1.3,1,1.3c0.6,0,1-0.4,1-1.3c0-0.9-0.3-1.3-1-1.3
		c-0.3,0-0.6,0.1-0.7,0.3C229,234,229,234.3,229,234.8z M236,236.6h-0.8v-2.3c0-0.3-0.1-0.5-0.2-0.6s-0.3-0.2-0.6-0.2
		c-0.3,0-0.6,0.1-0.8,0.3s-0.2,0.5-0.2,1v1.9h-0.8v-3.8h0.6l0.1,0.5h0c0.1-0.2,0.3-0.3,0.5-0.4c0.2-0.1,0.4-0.1,0.7-0.1
		c0.9,0,1.4,0.5,1.4,1.4L236,236.6L236,236.6z M240.4,236.6h-0.8v-2.3c0-0.3-0.1-0.5-0.2-0.6s-0.3-0.2-0.5-0.2
		c-0.3,0-0.5,0.1-0.7,0.3s-0.2,0.5-0.2,1v1.9h-0.8v-3.8h0.6l0.1,0.5h0c0.1-0.2,0.3-0.3,0.5-0.4c0.2-0.1,0.4-0.1,0.7-0.1
		c0.6,0,1,0.2,1.2,0.6h0.1c0.1-0.2,0.3-0.3,0.5-0.4c0.2-0.1,0.4-0.2,0.7-0.2c0.4,0,0.8,0.1,1,0.3s0.3,0.6,0.3,1v2.5H242v-2.3
		c0-0.3-0.1-0.5-0.2-0.6s-0.3-0.2-0.5-0.2c-0.3,0-0.5,0.1-0.7,0.3c-0.1,0.2-0.2,0.5-0.2,0.9V236.6z M245.6,236.7
		c-0.6,0-1.1-0.2-1.4-0.5s-0.5-0.8-0.5-1.4c0-0.6,0.1-1.1,0.5-1.5c0.3-0.4,0.7-0.5,1.3-0.5c0.5,0,0.9,0.1,1.2,0.4s0.4,0.7,0.4,1.3
		v0.4h-2.5c0,0.4,0.1,0.6,0.3,0.9c0.2,0.2,0.4,0.3,0.8,0.3c0.2,0,0.4,0,0.6-0.1s0.4-0.1,0.6-0.2v0.6c-0.2,0.1-0.4,0.2-0.6,0.2
		C246.1,236.7,245.9,236.7,245.6,236.7z M245.5,233.4c-0.3,0-0.5,0.1-0.6,0.2s-0.3,0.4-0.3,0.7h1.7c0-0.3-0.1-0.6-0.2-0.7
		C245.9,233.5,245.8,233.4,245.5,233.4z M251.4,236.6h-0.8v-2.3c0-0.3-0.1-0.5-0.2-0.6s-0.3-0.2-0.6-0.2c-0.3,0-0.6,0.1-0.8,0.3
		s-0.2,0.5-0.2,1v1.9h-0.8v-3.8h0.6l0.1,0.5h0c0.1-0.2,0.3-0.3,0.5-0.4c0.2-0.1,0.4-0.1,0.7-0.1c0.9,0,1.4,0.5,1.4,1.4L251.4,236.6
		L251.4,236.6z M254,236.1c0.2,0,0.4,0,0.6-0.1v0.6c-0.1,0-0.2,0.1-0.3,0.1s-0.3,0-0.4,0c-0.8,0-1.1-0.4-1.1-1.2v-2h-0.5v-0.4
		l0.6-0.3l0.3-0.8h0.5v0.8h1.1v0.6h-1.1v2c0,0.2,0.1,0.3,0.1,0.4C253.7,236,253.9,236.1,254,236.1z M259.7,236.6l-0.2-0.5h0
		c-0.2,0.2-0.4,0.4-0.5,0.5s-0.4,0.1-0.7,0.1c-0.4,0-0.7-0.1-0.9-0.3s-0.3-0.5-0.3-0.9c0-0.4,0.1-0.7,0.4-0.9
		c0.3-0.2,0.7-0.3,1.3-0.3l0.6,0v-0.2c0-0.2-0.1-0.4-0.2-0.5s-0.3-0.2-0.5-0.2c-0.2,0-0.4,0-0.6,0.1s-0.4,0.1-0.5,0.2l-0.3-0.6
		c0.2-0.1,0.4-0.2,0.7-0.2c0.2-0.1,0.5-0.1,0.7-0.1c0.5,0,0.8,0.1,1.1,0.3c0.2,0.2,0.4,0.5,0.4,1v2.6L259.7,236.6L259.7,236.6z
		 M258.5,236.1c0.3,0,0.5-0.1,0.7-0.2c0.2-0.2,0.3-0.4,0.3-0.7v-0.3l-0.5,0c-0.4,0-0.6,0.1-0.8,0.2c-0.2,0.1-0.3,0.3-0.3,0.5
		c0,0.2,0,0.3,0.1,0.4C258.1,236.1,258.3,236.1,258.5,236.1z M264.8,236.6H264v-2.3c0-0.3-0.1-0.5-0.2-0.6s-0.3-0.2-0.6-0.2
		c-0.3,0-0.6,0.1-0.8,0.3s-0.2,0.5-0.2,1v1.9h-0.8v-3.8h0.6l0.1,0.5h0c0.1-0.2,0.3-0.3,0.5-0.4c0.2-0.1,0.4-0.1,0.7-0.1
		c0.9,0,1.4,0.5,1.4,1.4L264.8,236.6L264.8,236.6z M268.4,236.1c-0.3,0.4-0.6,0.6-1.1,0.6c-0.5,0-0.8-0.2-1.1-0.5s-0.4-0.8-0.4-1.4
		s0.1-1.1,0.4-1.4c0.3-0.4,0.6-0.5,1.1-0.5c0.5,0,0.9,0.2,1.1,0.6h0c0-0.3-0.1-0.5-0.1-0.6v-1.4h0.8v5.3h-0.6L268.4,236.1
		L268.4,236.1L268.4,236.1z M267.5,236.1c0.3,0,0.6-0.1,0.7-0.3s0.2-0.5,0.2-0.9v-0.1c0-0.5-0.1-0.8-0.2-1c-0.1-0.2-0.4-0.3-0.7-0.3
		c-0.3,0-0.5,0.1-0.6,0.3s-0.2,0.6-0.2,1s0.1,0.7,0.2,1C266.9,236,267.2,236.1,267.5,236.1z M274.8,235.6c0,0.4-0.1,0.6-0.4,0.9
		c-0.3,0.2-0.6,0.3-1.2,0.3c-0.5,0-0.9-0.1-1.2-0.2v-0.7c0.4,0.2,0.9,0.3,1.2,0.3c0.5,0,0.7-0.1,0.7-0.4c0-0.1,0-0.2-0.1-0.2
		c0-0.1-0.1-0.1-0.3-0.2c-0.1-0.1-0.3-0.1-0.5-0.2c-0.4-0.2-0.7-0.3-0.9-0.5s-0.2-0.4-0.2-0.7c0-0.3,0.1-0.6,0.4-0.8
		s0.6-0.3,1.1-0.3s0.9,0.1,1.3,0.3l-0.3,0.6c-0.4-0.2-0.8-0.3-1-0.3c-0.4,0-0.6,0.1-0.6,0.4c0,0.1,0.1,0.2,0.2,0.3
		c0.1,0.1,0.4,0.2,0.7,0.3c0.3,0.1,0.5,0.2,0.7,0.3c0.1,0.1,0.3,0.2,0.3,0.4C274.8,235.2,274.8,235.4,274.8,235.6z M279.1,234.8
		c0,0.6-0.2,1.1-0.5,1.4c-0.3,0.4-0.8,0.5-1.3,0.5c-0.4,0-0.7-0.1-0.9-0.2s-0.5-0.4-0.6-0.7s-0.2-0.6-0.2-1c0-0.6,0.2-1.1,0.5-1.4
		c0.3-0.3,0.8-0.5,1.3-0.5c0.5,0,1,0.2,1.3,0.5C279,233.7,279.1,234.2,279.1,234.8z M276.4,234.8c0,0.9,0.3,1.3,1,1.3
		c0.6,0,1-0.4,1-1.3c0-0.9-0.3-1.3-1-1.3c-0.3,0-0.6,0.1-0.7,0.3C276.4,234,276.4,234.3,276.4,234.8z M281.6,236.7
		c-0.6,0-1-0.2-1.3-0.5c-0.3-0.3-0.5-0.8-0.5-1.4c0-0.6,0.2-1.1,0.5-1.5s0.8-0.5,1.4-0.5c0.4,0,0.8,0.1,1.1,0.2l-0.2,0.6
		c-0.3-0.1-0.6-0.2-0.8-0.2c-0.6,0-1,0.4-1,1.3c0,0.4,0.1,0.7,0.2,1c0.2,0.2,0.4,0.3,0.7,0.3c0.4,0,0.7-0.1,1-0.3v0.7
		c-0.1,0.1-0.3,0.1-0.5,0.2C282.1,236.7,281.9,236.7,281.6,236.7z M283.6,231.9c0-0.1,0-0.3,0.1-0.3s0.2-0.1,0.3-0.1
		c0.1,0,0.3,0,0.3,0.1s0.1,0.2,0.1,0.3s0,0.2-0.1,0.3s-0.2,0.1-0.3,0.1c-0.1,0-0.3,0-0.3-0.1S283.6,232,283.6,231.9z M284.5,236.6
		h-0.8v-3.8h0.8V236.6z M287.3,236.7c-0.6,0-1-0.2-1.4-0.5c-0.3-0.3-0.5-0.8-0.5-1.4c0-0.6,0.1-1.1,0.5-1.5c0.3-0.4,0.7-0.5,1.3-0.5
		c0.5,0,0.9,0.1,1.2,0.4c0.3,0.3,0.4,0.7,0.4,1.3v0.4h-2.5c0,0.4,0.1,0.6,0.3,0.9c0.2,0.2,0.5,0.3,0.8,0.3c0.2,0,0.4,0,0.6-0.1
		s0.4-0.1,0.6-0.2v0.6c-0.2,0.1-0.4,0.2-0.6,0.2C287.8,236.7,287.6,236.7,287.3,236.7z M287.2,233.4c-0.3,0-0.5,0.1-0.6,0.2
		s-0.3,0.4-0.3,0.7h1.7c0-0.3-0.1-0.6-0.2-0.7C287.6,233.5,287.4,233.4,287.2,233.4z M291.2,236.1c0.2,0,0.4,0,0.6-0.1v0.6
		c-0.1,0-0.2,0.1-0.3,0.1c-0.1,0-0.3,0-0.4,0c-0.8,0-1.1-0.4-1.1-1.2v-2h-0.5v-0.4l0.5-0.3l0.3-0.8h0.5v0.8h1.1v0.6h-1.1v2
		c0,0.2,0,0.3,0.1,0.4C290.9,236,291,236.1,291.2,236.1z M292,232.9h0.9l0.8,2.1c0.1,0.3,0.2,0.6,0.2,0.9h0c0-0.1,0.1-0.3,0.1-0.5
		c0-0.2,0.3-1,0.9-2.6h0.9l-1.6,4.3c-0.3,0.8-0.8,1.2-1.5,1.2c-0.2,0-0.4,0-0.5-0.1v-0.6c0.1,0,0.3,0,0.4,0c0.4,0,0.7-0.2,0.8-0.7
		l0.1-0.4L292,232.9z"/>
	<path class="st4" d="M2.2,190.4v0.9h3.2v0.8H2.2v0.6H1.8l-0.3-0.6H1.3c-0.4,0-0.8-0.1-1-0.3c-0.2-0.2-0.3-0.5-0.3-1
		c0-0.3,0.1-0.6,0.1-0.8l0.6,0.2c-0.1,0.2-0.1,0.4-0.1,0.6c0,0.2,0.1,0.3,0.2,0.4c0.1,0.1,0.3,0.1,0.5,0.1h0.3v-0.9L2.2,190.4
		L2.2,190.4z M4.8,48.2c0.4,0.3,0.6,0.6,0.6,1.1c0,0.5-0.2,0.8-0.5,1.1S4,50.8,3.4,50.8S2.3,50.7,2,50.4s-0.5-0.6-0.5-1.1
		c0-0.5,0.2-0.9,0.5-1.1v0c-0.3,0-0.5,0.1-0.6,0.1H0v-0.8h5.3V48L4.8,48.2L4.8,48.2L4.8,48.2z M4.8,54.5c0.4,0.3,0.6,0.6,0.6,1.1
		c0,0.5-0.2,0.8-0.5,1.1S4,57.2,3.4,57.2S2.3,57,2,56.8s-0.5-0.6-0.5-1.1c0-0.5,0.2-0.9,0.5-1.1v0c-0.3,0-0.5,0.1-0.6,0.1H0v-0.8
		h5.3v0.6L4.8,54.5L4.8,54.5L4.8,54.5z M4.8,122.4c0.4,0.3,0.6,0.6,0.6,1.1c0,0.5-0.2,0.8-0.5,1.1S4,125,3.4,125s-1.1-0.1-1.5-0.4
		c-0.4-0.3-0.5-0.6-0.5-1.1c0-0.5,0.2-0.9,0.5-1.1v0c-0.3,0-0.5,0.1-0.6,0.1H0v-0.8h5.3v0.6L4.8,122.4L4.8,122.4L4.8,122.4z
		 M5.3,126v0.8H0V126H5.3z M5.3,132.4v0.8H3c-0.3,0-0.5,0.1-0.6,0.2c-0.1,0.1-0.2,0.3-0.2,0.6c0,0.3,0.1,0.6,0.3,0.7
		c0.2,0.2,0.5,0.2,1,0.2h1.9v0.8H0v-0.8h1.4c0.2,0,0.4,0,0.7,0v-0.1c-0.2-0.1-0.3-0.3-0.4-0.5c-0.1-0.2-0.1-0.4-0.1-0.7
		c0-0.9,0.5-1.4,1.4-1.4L5.3,132.4L5.3,132.4z M3.3,143.1l-0.6-0.4l-1.2-1.1v-0.9l1.6,1.5l2.2-1.6v0.9l-1.7,1.2l0.4,0.4h1.3v0.8H0
		v-0.8h2.6L3.3,143.1L3.3,143.1z M5.3,188.9v0.8H0v-0.8H5.3z M0.5,33.1c-0.1,0-0.3,0-0.3-0.1c-0.1-0.1-0.1-0.2-0.1-0.3
		c0-0.1,0-0.3,0.1-0.3s0.2-0.1,0.3-0.1s0.2,0,0.3,0.1S1,32.5,1,32.6c0,0.2,0,0.3-0.1,0.3S0.7,33.1,0.5,33.1z M0.5,38.6
		c-0.1,0-0.3,0-0.3-0.1c-0.1-0.1-0.1-0.2-0.1-0.3c0-0.1,0-0.3,0.1-0.3s0.2-0.1,0.3-0.1s0.2,0,0.3,0.1S1,38,1,38.1
		c0,0.2,0,0.3-0.1,0.3S0.7,38.6,0.5,38.6z M5.3,198.9h-5v-0.8h5V198.9z M4.7,72.3c0-0.2,0-0.4-0.1-0.6h0.6c0,0.1,0.1,0.2,0.1,0.3
		c0,0.1,0,0.3,0,0.4c0,0.8-0.4,1.1-1.2,1.1h-2v0.5H1.8l-0.3-0.6l-0.8-0.3v-0.5h0.8v-1.1h0.6v1.1h2c0.2,0,0.3-0.1,0.4-0.2
		C4.7,72.6,4.7,72.5,4.7,72.3z M4.7,149.4c0-0.2,0-0.4-0.1-0.6h0.6c0,0.1,0.1,0.2,0.1,0.3c0,0.1,0,0.3,0,0.4c0,0.8-0.4,1.1-1.2,1.1
		h-2v0.5H1.8l-0.3-0.6l-0.8-0.3v-0.5h0.8v-1.1h0.6v1.1h2c0.2,0,0.3-0.1,0.4-0.1C4.7,149.7,4.7,149.6,4.7,149.4z M4.2,19.6
		c0.4,0,0.7,0.1,0.8,0.4s0.3,0.6,0.3,1.2c0,0.5-0.1,0.9-0.2,1.2H4.5c0.2-0.4,0.3-0.9,0.3-1.2c0-0.5-0.2-0.7-0.4-0.7
		c-0.1,0-0.2,0-0.2,0.1S4,20.6,3.9,20.8c-0.1,0.1-0.2,0.3-0.2,0.5c-0.2,0.4-0.3,0.7-0.5,0.9c-0.2,0.1-0.4,0.2-0.7,0.2
		c-0.3,0-0.6-0.1-0.8-0.4s-0.3-0.6-0.3-1.1c0-0.4,0.1-0.9,0.3-1.3l0.6,0.3c-0.2,0.4-0.3,0.8-0.3,1c0,0.4,0.1,0.6,0.4,0.6
		c0.1,0,0.2-0.1,0.3-0.2s0.2-0.4,0.3-0.7c0.1-0.3,0.2-0.5,0.3-0.7s0.2-0.3,0.3-0.3C3.9,19.6,4.1,19.6,4.2,19.6z M5.3,23.3v0.8H3
		c-0.3,0-0.5,0.1-0.6,0.2c-0.1,0.1-0.2,0.3-0.2,0.6c0,0.3,0.1,0.6,0.3,0.8s0.5,0.2,1,0.2h1.9v0.8H1.5V26L2,25.9v0
		c-0.2-0.1-0.3-0.3-0.4-0.5S1.5,25,1.5,24.7c0-0.9,0.5-1.4,1.4-1.4L5.3,23.3L5.3,23.3z M3.4,27.7c0.6,0,1.1,0.2,1.4,0.5
		s0.5,0.8,0.5,1.3c0,0.4-0.1,0.7-0.2,0.9S4.8,30.9,4.5,31s-0.6,0.2-1,0.2c-0.6,0-1.1-0.2-1.4-0.5c-0.3-0.3-0.5-0.8-0.5-1.3
		c0-0.5,0.2-1,0.5-1.3C2.3,27.8,2.8,27.7,3.4,27.7z M4.2,34c0.4,0,0.7,0.1,0.8,0.4s0.3,0.7,0.3,1.2c0,0.5-0.1,0.9-0.2,1.2H4.5
		c0.2-0.4,0.3-0.9,0.3-1.2c0-0.5-0.2-0.7-0.4-0.7c-0.1,0-0.2,0-0.2,0.1C4,34.9,4,35,3.9,35.1s-0.2,0.3-0.2,0.5
		c-0.2,0.4-0.3,0.7-0.5,0.9s-0.4,0.2-0.7,0.2c-0.3,0-0.6-0.1-0.8-0.4s-0.3-0.6-0.3-1.1c0-0.4,0.1-0.9,0.3-1.3l0.6,0.3
		c-0.2,0.4-0.3,0.8-0.3,1c0,0.4,0.1,0.6,0.4,0.6c0.1,0,0.2-0.1,0.3-0.2c0.1-0.1,0.2-0.3,0.3-0.7c0.1-0.3,0.2-0.5,0.3-0.7
		s0.2-0.3,0.3-0.3C3.9,34,4.1,34,4.2,34z M5.4,40.5c0,0.6-0.2,1-0.5,1.3c-0.3,0.3-0.8,0.5-1.4,0.5c-0.6,0-1.1-0.2-1.5-0.5
		s-0.5-0.8-0.5-1.3c0-0.4,0.1-0.8,0.2-1.1l0.6,0.2c-0.1,0.3-0.2,0.6-0.2,0.8c0,0.7,0.4,1,1.3,1c0.4,0,0.7-0.1,1-0.2
		c0.2-0.2,0.3-0.4,0.3-0.7c0-0.4-0.1-0.7-0.3-1h0.7c0.1,0.1,0.1,0.3,0.2,0.5C5.4,40.1,5.4,40.3,5.4,40.5z M5.4,44.5
		c0,0.6-0.2,1-0.5,1.4c-0.3,0.3-0.8,0.5-1.4,0.5c-0.6,0-1.1-0.2-1.5-0.5c-0.4-0.3-0.5-0.7-0.5-1.3c0-0.5,0.1-0.9,0.5-1.2
		s0.7-0.4,1.3-0.4h0.4v2.5c0.4,0,0.6-0.1,0.9-0.3c0.2-0.2,0.3-0.5,0.3-0.8c0-0.2,0-0.4-0.1-0.6s-0.1-0.4-0.2-0.6h0.7
		c0.1,0.2,0.2,0.4,0.2,0.6C5.4,44,5.4,44.3,5.4,44.5z M5.3,58.1v0.8H3c-0.3,0-0.5,0.1-0.6,0.2c-0.1,0.1-0.2,0.3-0.2,0.6
		c0,0.3,0.1,0.6,0.3,0.8s0.5,0.2,1,0.2h1.9v0.8H1.5v-0.6L2,60.7v0c-0.2-0.1-0.3-0.3-0.4-0.5c-0.1-0.2-0.1-0.4-0.1-0.7
		c0-0.9,0.5-1.4,1.4-1.4L5.3,58.1L5.3,58.1z M5.3,63.2l-0.5,0.2v0c0.2,0.2,0.4,0.4,0.5,0.5c0.1,0.2,0.1,0.4,0.1,0.7
		c0,0.4-0.1,0.7-0.3,0.9c-0.2,0.2-0.5,0.3-0.8,0.3c-0.4,0-0.7-0.1-0.9-0.4S3,64.7,3,64.1l0-0.7H2.8c-0.2,0-0.4,0.1-0.5,0.2
		s-0.2,0.3-0.2,0.5c0,0.2,0,0.4,0.1,0.6s0.1,0.3,0.2,0.5l-0.6,0.3c-0.1-0.2-0.2-0.4-0.2-0.7c-0.1-0.2-0.1-0.5-0.1-0.7
		c0-0.5,0.1-0.8,0.3-1.1c0.2-0.2,0.5-0.4,1-0.4h2.5L5.3,63.2L5.3,63.2z M4.2,68.4c0.4,0,0.7,0.1,0.8,0.4c0.2,0.3,0.3,0.7,0.3,1.2
		c0,0.5-0.1,0.9-0.2,1.2H4.5c0.2-0.4,0.3-0.9,0.3-1.2c0-0.5-0.2-0.7-0.4-0.7c-0.1,0-0.2,0-0.2,0.1S4,69.4,3.9,69.5s-0.2,0.3-0.2,0.5
		c-0.2,0.4-0.3,0.7-0.5,0.9c-0.2,0.2-0.4,0.2-0.7,0.2c-0.3,0-0.6-0.1-0.8-0.4s-0.3-0.6-0.3-1.1c0-0.4,0.1-0.9,0.3-1.3l0.6,0.3
		c-0.2,0.4-0.3,0.8-0.3,1c0,0.4,0.1,0.6,0.4,0.6c0.1,0,0.2-0.1,0.3-0.2s0.2-0.3,0.3-0.7c0.1-0.3,0.2-0.5,0.3-0.7s0.2-0.3,0.3-0.3
		C3.9,68.4,4.1,68.4,4.2,68.4z M5.3,74.9v0.8H3c-0.3,0-0.5,0.1-0.6,0.2c-0.1,0.1-0.2,0.3-0.2,0.6c0,0.3,0.1,0.6,0.3,0.8
		s0.5,0.2,1,0.2h1.9v0.8H1.5v-0.6L2,77.5v0c-0.2-0.1-0.3-0.3-0.4-0.5c-0.1-0.2-0.1-0.4-0.1-0.7c0-0.9,0.5-1.4,1.4-1.4L5.3,74.9
		L5.3,74.9z M5.4,80.7c0,0.6-0.2,1.1-0.5,1.4c-0.3,0.3-0.8,0.5-1.4,0.5c-0.6,0-1.1-0.2-1.5-0.5c-0.4-0.3-0.5-0.7-0.5-1.3
		c0-0.5,0.1-0.9,0.5-1.2s0.7-0.4,1.3-0.4h0.4v2.5c0.4,0,0.6-0.1,0.9-0.3c0.2-0.2,0.3-0.4,0.3-0.8c0-0.2,0-0.4-0.1-0.6
		s-0.1-0.4-0.2-0.6h0.7c0.1,0.2,0.2,0.4,0.2,0.6C5.4,80.2,5.4,80.5,5.4,80.7z M5.3,85.9v0.8H3c-0.3,0-0.5,0.1-0.6,0.2
		c-0.1,0.1-0.2,0.3-0.2,0.5c0,0.3,0.1,0.5,0.3,0.7s0.5,0.2,1,0.2h1.9v0.8H1.5v-0.6L2,88.4v0c-0.2-0.1-0.3-0.3-0.4-0.5
		s-0.1-0.4-0.1-0.7c0-0.6,0.2-1,0.6-1.2V86c-0.2-0.1-0.3-0.3-0.4-0.5c-0.1-0.2-0.2-0.4-0.2-0.7c0-0.4,0.1-0.8,0.3-1s0.6-0.3,1-0.3
		h2.5v0.8H3c-0.3,0-0.5,0.1-0.6,0.2c-0.1,0.1-0.2,0.3-0.2,0.5c0,0.3,0.1,0.5,0.3,0.7c0.2,0.1,0.5,0.2,0.9,0.2L5.3,85.9L5.3,85.9z
		 M4.2,90.1c0.4,0,0.7,0.1,0.8,0.4c0.2,0.3,0.3,0.7,0.3,1.2c0,0.5-0.1,0.9-0.2,1.2H4.5c0.2-0.4,0.3-0.9,0.3-1.2
		c0-0.5-0.2-0.7-0.4-0.7c-0.1,0-0.2,0-0.2,0.1S4,91.1,3.9,91.2s-0.2,0.3-0.2,0.5c-0.2,0.4-0.3,0.7-0.5,0.9c-0.2,0.2-0.4,0.2-0.7,0.2
		c-0.3,0-0.6-0.1-0.8-0.4s-0.3-0.6-0.3-1.1c0-0.4,0.1-0.9,0.3-1.3l0.6,0.3c-0.2,0.4-0.3,0.8-0.3,1c0,0.4,0.1,0.6,0.4,0.6
		c0.1,0,0.2-0.1,0.3-0.2s0.2-0.3,0.3-0.7c0.1-0.3,0.2-0.5,0.3-0.7s0.2-0.3,0.3-0.3C3.9,90.1,4.1,90.1,4.2,90.1z M4.2,93.6
		c0.4,0,0.7,0.1,0.8,0.4c0.2,0.3,0.3,0.7,0.3,1.2c0,0.5-0.1,0.9-0.2,1.2H4.5c0.2-0.4,0.3-0.9,0.3-1.2c0-0.5-0.2-0.7-0.4-0.7
		c-0.1,0-0.2,0-0.2,0.1S4,94.6,3.9,94.7S3.7,95,3.7,95.2c-0.2,0.4-0.3,0.7-0.5,0.9c-0.2,0.2-0.4,0.2-0.7,0.2c-0.3,0-0.6-0.1-0.8-0.4
		s-0.3-0.6-0.3-1.1c0-0.4,0.1-0.9,0.3-1.3l0.6,0.3c-0.2,0.4-0.3,0.8-0.3,1c0,0.4,0.1,0.6,0.4,0.6c0.1,0,0.2-0.1,0.3-0.2
		s0.2-0.3,0.3-0.7c0.1-0.3,0.2-0.5,0.3-0.7s0.2-0.3,0.3-0.3C3.9,93.6,4.1,93.6,4.2,93.6z M5.4,98.6c0,0.6-0.2,1.1-0.5,1.4
		c-0.3,0.3-0.8,0.5-1.4,0.5c-0.6,0-1.1-0.2-1.5-0.5c-0.4-0.3-0.5-0.7-0.5-1.3c0-0.5,0.1-0.9,0.5-1.2s0.7-0.4,1.3-0.4h0.4v2.5
		c0.4,0,0.6-0.1,0.9-0.3c0.2-0.2,0.3-0.4,0.3-0.8c0-0.2,0-0.4-0.1-0.6s-0.1-0.4-0.2-0.6h0.7c0.1,0.2,0.2,0.4,0.2,0.6
		C5.4,98.1,5.4,98.3,5.4,98.6z M4.2,101.1c0.4,0,0.7,0.1,0.8,0.4c0.2,0.3,0.3,0.7,0.3,1.2c0,0.5-0.1,0.9-0.2,1.2H4.5
		c0.2-0.4,0.3-0.9,0.3-1.2c0-0.5-0.2-0.7-0.4-0.7c-0.1,0-0.2,0-0.2,0.1s-0.1,0.1-0.2,0.3s-0.2,0.3-0.2,0.5c-0.2,0.4-0.3,0.7-0.5,0.9
		c-0.2,0.2-0.4,0.2-0.7,0.2c-0.3,0-0.6-0.1-0.8-0.4s-0.3-0.6-0.3-1.1c0-0.4,0.1-0.9,0.3-1.3l0.6,0.3c-0.2,0.4-0.3,0.8-0.3,1
		c0,0.4,0.1,0.6,0.4,0.6c0.1,0,0.2-0.1,0.3-0.2s0.2-0.3,0.3-0.7c0.1-0.3,0.2-0.5,0.3-0.7s0.2-0.3,0.3-0.3
		C3.9,101.2,4.1,101.1,4.2,101.1z M4.2,104.6c0.4,0,0.7,0.1,0.8,0.4c0.2,0.3,0.3,0.7,0.3,1.2c0,0.5-0.1,0.9-0.2,1.2H4.5
		c0.2-0.4,0.3-0.9,0.3-1.2c0-0.5-0.2-0.7-0.4-0.7c-0.1,0-0.2,0-0.2,0.1s-0.1,0.1-0.2,0.3s-0.2,0.3-0.2,0.5c-0.2,0.4-0.3,0.7-0.5,0.9
		c-0.2,0.2-0.4,0.2-0.7,0.2c-0.3,0-0.6-0.1-0.8-0.4s-0.3-0.6-0.3-1.1c0-0.4,0.1-0.9,0.3-1.3l0.6,0.3c-0.2,0.4-0.3,0.8-0.3,1
		c0,0.4,0.1,0.6,0.4,0.6c0.1,0,0.2-0.1,0.3-0.2s0.2-0.3,0.3-0.7c0.1-0.3,0.2-0.5,0.3-0.7s0.2-0.3,0.3-0.3
		C3.9,104.7,4.1,104.6,4.2,104.6z M5.3,108.9l-0.5,0.2v0c0.2,0.2,0.4,0.4,0.5,0.6s0.1,0.4,0.1,0.7c0,0.4-0.1,0.7-0.3,0.9
		c-0.2,0.2-0.5,0.3-0.8,0.3c-0.4,0-0.7-0.1-0.9-0.4S3,110.4,3,109.8l0-0.7H2.8c-0.2,0-0.4,0.1-0.5,0.2s-0.2,0.3-0.2,0.5
		c0,0.2,0,0.4,0.1,0.6s0.1,0.3,0.2,0.5l-0.6,0.3c-0.1-0.2-0.2-0.4-0.2-0.7c-0.1-0.2-0.1-0.5-0.1-0.7c0-0.5,0.1-0.8,0.3-1.1
		c0.2-0.2,0.5-0.4,1-0.4h2.5L5.3,108.9L5.3,108.9z M1.5,114.3c0-0.2,0-0.3,0-0.4l0.8,0.1c0,0.1,0,0.2,0,0.4c0,0.3,0.1,0.6,0.3,0.8
		s0.5,0.3,0.8,0.3h2v0.8H1.5v-0.6l0.7-0.1v0c-0.2-0.1-0.4-0.3-0.5-0.5C1.5,114.8,1.5,114.6,1.5,114.3z M5.4,118.7
		c0,0.6-0.2,1.1-0.5,1.4c-0.3,0.3-0.8,0.5-1.4,0.5c-0.6,0-1.1-0.2-1.5-0.5c-0.4-0.3-0.5-0.7-0.5-1.3c0-0.5,0.1-0.9,0.5-1.2
		s0.7-0.4,1.3-0.4h0.4v2.5c0.4,0,0.6-0.1,0.9-0.3c0.2-0.2,0.3-0.4,0.3-0.8c0-0.2,0-0.4-0.1-0.6s-0.1-0.4-0.2-0.6h0.7
		c0.1,0.2,0.2,0.4,0.2,0.6C5.4,118.2,5.4,118.4,5.4,118.7z M3.4,127.8c0.6,0,1.1,0.2,1.4,0.5c0.3,0.3,0.5,0.8,0.5,1.3
		c0,0.4-0.1,0.7-0.2,0.9s-0.4,0.5-0.7,0.6c-0.3,0.1-0.6,0.2-1,0.2c-0.6,0-1.1-0.2-1.4-0.5c-0.3-0.3-0.5-0.8-0.5-1.3
		c0-0.6,0.2-1,0.5-1.3C2.3,128,2.8,127.8,3.4,127.8z M5.4,138.1c0,0.6-0.2,1.1-0.5,1.4c-0.3,0.3-0.8,0.5-1.4,0.5
		c-0.6,0-1.1-0.1-1.5-0.5c-0.4-0.3-0.5-0.7-0.5-1.3c0-0.5,0.1-0.9,0.5-1.2s0.7-0.4,1.3-0.4h0.4v2.5c0.4,0,0.6-0.1,0.9-0.3
		c0.2-0.2,0.3-0.4,0.3-0.8c0-0.2,0-0.4-0.1-0.6s-0.1-0.4-0.2-0.6h0.7c0.1,0.2,0.2,0.4,0.2,0.6C5.4,137.6,5.4,137.9,5.4,138.1z
		 M5.3,145.6l-0.5,0.2v0c0.2,0.2,0.4,0.4,0.5,0.6s0.1,0.4,0.1,0.7c0,0.4-0.1,0.7-0.3,0.9c-0.2,0.2-0.5,0.3-0.8,0.3
		c-0.4,0-0.7-0.1-0.9-0.4S3,147.1,3,146.5l0-0.6H2.8c-0.2,0-0.4,0.1-0.5,0.2s-0.2,0.3-0.2,0.5c0,0.2,0,0.4,0.1,0.6s0.1,0.4,0.2,0.5
		l-0.6,0.3c-0.1-0.2-0.2-0.4-0.2-0.7c-0.1-0.2-0.1-0.5-0.1-0.7c0-0.5,0.1-0.8,0.3-1.1c0.2-0.2,0.5-0.4,1-0.4h2.5L5.3,145.6
		L5.3,145.6z M4.2,151.8c0.4,0,0.7,0.1,0.8,0.4c0.2,0.3,0.3,0.6,0.3,1.2c0,0.5-0.1,0.9-0.2,1.2H4.5c0.2-0.4,0.3-0.9,0.3-1.2
		c0-0.5-0.2-0.7-0.4-0.7c-0.1,0-0.2,0-0.2,0.1s-0.1,0.1-0.2,0.3s-0.2,0.3-0.2,0.5c-0.2,0.4-0.3,0.7-0.5,0.9
		c-0.2,0.1-0.4,0.2-0.7,0.2c-0.3,0-0.6-0.1-0.8-0.4s-0.3-0.6-0.3-1.1s0.1-0.9,0.3-1.3l0.6,0.3c-0.2,0.4-0.3,0.8-0.3,1
		c0,0.4,0.1,0.6,0.4,0.6c0.1,0,0.2-0.1,0.3-0.2s0.2-0.4,0.3-0.7c0.1-0.3,0.2-0.5,0.3-0.7s0.2-0.3,0.3-0.3
		C3.9,151.8,4.1,151.8,4.2,151.8z M5.3,157.4v0.8H3c-0.3,0-0.5,0.1-0.6,0.2c-0.1,0.1-0.2,0.3-0.2,0.6c0,0.3,0.1,0.6,0.3,0.8
		s0.5,0.2,1,0.2h1.9v0.8H1.5v-0.6L2,160v0c-0.2-0.1-0.3-0.3-0.4-0.5s-0.1-0.4-0.1-0.7c0-0.9,0.5-1.4,1.4-1.4L5.3,157.4L5.3,157.4z
		 M3.4,161.7c0.6,0,1.1,0.2,1.4,0.5c0.3,0.3,0.5,0.8,0.5,1.3c0,0.4-0.1,0.7-0.2,0.9s-0.4,0.5-0.7,0.6c-0.3,0.1-0.6,0.2-1,0.2
		c-0.6,0-1.1-0.2-1.4-0.5c-0.3-0.3-0.5-0.8-0.5-1.3c0-0.6,0.2-1,0.5-1.3C2.3,161.8,2.8,161.7,3.4,161.7z M5.4,169.4
		c0,0.6-0.2,1.1-0.5,1.4c-0.3,0.3-0.8,0.5-1.4,0.5c-0.6,0-1.1-0.1-1.5-0.5c-0.4-0.3-0.5-0.7-0.5-1.3c0-0.5,0.1-0.9,0.5-1.2
		s0.7-0.4,1.3-0.4h0.4v2.5c0.4,0,0.6-0.1,0.9-0.3c0.2-0.2,0.3-0.4,0.3-0.8c0-0.2,0-0.4-0.1-0.6s-0.1-0.4-0.2-0.6h0.7
		c0.1,0.2,0.2,0.4,0.2,0.6C5.4,168.9,5.4,169.1,5.4,169.4z M5.4,173c0,0.6-0.2,1-0.5,1.3c-0.3,0.3-0.8,0.4-1.4,0.4
		c-0.6,0-1.1-0.2-1.5-0.5s-0.5-0.8-0.5-1.4c0-0.4,0.1-0.8,0.2-1.1l0.6,0.2c-0.1,0.3-0.2,0.6-0.2,0.8c0,0.6,0.4,1,1.3,1
		c0.4,0,0.7-0.1,1-0.2c0.2-0.2,0.3-0.4,0.3-0.7c0-0.4-0.1-0.7-0.3-1h0.7c0.1,0.1,0.1,0.3,0.2,0.5C5.4,172.6,5.4,172.8,5.4,173z
		 M5.3,175.8v0.8H3c-0.3,0-0.5,0.1-0.6,0.2c-0.1,0.1-0.2,0.3-0.2,0.6c0,0.3,0.1,0.6,0.3,0.8s0.5,0.2,1,0.2h1.9v0.8H1.5v-0.6l0.5-0.1
		v0c-0.2-0.1-0.3-0.3-0.4-0.5s-0.1-0.4-0.1-0.7c0-0.9,0.5-1.4,1.4-1.4L5.3,175.8L5.3,175.8z M5.4,181.5c0,0.6-0.2,1.1-0.5,1.4
		c-0.3,0.3-0.8,0.5-1.4,0.5c-0.6,0-1.1-0.1-1.5-0.5c-0.4-0.3-0.5-0.7-0.5-1.3c0-0.5,0.1-0.9,0.5-1.2s0.7-0.4,1.3-0.4h0.4v2.5
		c0.4,0,0.6-0.1,0.9-0.3c0.2-0.2,0.3-0.4,0.3-0.8c0-0.2,0-0.4-0.1-0.6s-0.1-0.4-0.2-0.6h0.7c0.1,0.2,0.2,0.4,0.2,0.6
		C5.4,181,5.4,181.3,5.4,181.5z M5.3,193.4v0.8H3c-0.3,0-0.5,0.1-0.6,0.2c-0.1,0.1-0.2,0.3-0.2,0.6c0,0.3,0.1,0.6,0.3,0.8
		s0.5,0.2,1,0.2h1.9v0.8H1.5v-0.6L2,196v0c-0.2-0.1-0.3-0.3-0.4-0.5s-0.1-0.4-0.1-0.7c0-0.9,0.5-1.4,1.4-1.4L5.3,193.4L5.3,193.4z
		 M5.3,32.2V33H1.5v-0.8H5.3z M5.3,37.7v0.8H1.5v-0.8H5.3z M5.3,185l-0.5,0.1v0c0.2,0.1,0.3,0.3,0.4,0.5c0.1,0.2,0.2,0.4,0.2,0.7
		c0,0.5-0.1,0.8-0.3,1s-0.6,0.3-1,0.3H1.5v-0.8h2.3c0.3,0,0.5-0.1,0.7-0.2s0.2-0.3,0.2-0.6c0-0.3-0.1-0.6-0.3-0.7
		c-0.2-0.2-0.5-0.2-1-0.2H1.5v-0.8h3.8C5.3,184.4,5.3,185,5.3,185z M2.1,44.7c0,0.3,0.1,0.5,0.2,0.6s0.4,0.3,0.7,0.3v-1.7
		c-0.3,0-0.5,0.1-0.7,0.2C2.2,44.2,2.1,44.4,2.1,44.7z M2.1,80.9c0,0.3,0.1,0.5,0.2,0.6s0.4,0.3,0.7,0.3V80c-0.3,0-0.5,0.1-0.7,0.2
		C2.2,80.4,2.1,80.6,2.1,80.9z M2.1,98.7c0,0.3,0.1,0.5,0.2,0.6s0.4,0.3,0.7,0.3v-1.7c-0.3,0-0.5,0.1-0.7,0.2
		C2.2,98.2,2.1,98.4,2.1,98.7z M2.1,118.9c0,0.3,0.1,0.5,0.2,0.6s0.4,0.3,0.7,0.3V118c-0.3,0-0.5,0.1-0.7,0.2
		C2.2,118.4,2.1,118.6,2.1,118.9z M2.1,138.3c0,0.3,0.1,0.5,0.2,0.6s0.4,0.3,0.7,0.3v-1.7c-0.3,0-0.5,0.1-0.7,0.2
		C2.2,137.8,2.1,138,2.1,138.3z M2.1,169.5c0,0.3,0.1,0.5,0.2,0.6s0.4,0.3,0.7,0.3v-1.7c-0.3,0-0.5,0.1-0.7,0.2
		C2.2,169.1,2.1,169.3,2.1,169.5z M2.1,181.7c0,0.3,0.1,0.5,0.2,0.6s0.4,0.3,0.7,0.3v-1.7c-0.3,0-0.5,0.1-0.7,0.2
		C2.2,181.2,2.1,181.4,2.1,181.7z M3.4,30.4c0.9,0,1.3-0.3,1.3-1c0-0.6-0.4-1-1.3-1c-0.9,0-1.3,0.3-1.3,1c0,0.3,0.1,0.6,0.3,0.7
		C2.7,30.3,3,30.4,3.4,30.4z M4.7,49.1c0-0.3-0.1-0.6-0.3-0.7S4,48.2,3.6,48.2H3.4c-0.5,0-0.8,0.1-1,0.2c-0.2,0.2-0.3,0.4-0.3,0.7
		c0,0.3,0.1,0.5,0.3,0.7C2.7,49.9,3,50,3.5,50c0.4,0,0.7-0.1,1-0.2C4.6,49.6,4.7,49.4,4.7,49.1z M4.7,55.4c0-0.3-0.1-0.6-0.3-0.7
		S4,54.5,3.6,54.5H3.4c-0.5,0-0.8,0.1-1,0.2c-0.2,0.2-0.3,0.4-0.3,0.7c0,0.3,0.1,0.5,0.3,0.7s0.6,0.2,1,0.2s0.7-0.1,1-0.2
		C4.6,56,4.7,55.7,4.7,55.4z M4.7,123.3c0-0.3-0.1-0.6-0.3-0.7s-0.5-0.2-0.9-0.2H3.4c-0.5,0-0.8,0.1-1,0.2c-0.2,0.2-0.3,0.4-0.3,0.7
		c0,0.3,0.1,0.5,0.3,0.7s0.6,0.2,1,0.2s0.7-0.1,1-0.2C4.6,123.8,4.7,123.6,4.7,123.3z M3.4,130.6c0.9,0,1.3-0.3,1.3-1
		c0-0.6-0.4-1-1.3-1c-0.9,0-1.3,0.3-1.3,1c0,0.3,0.1,0.6,0.3,0.7C2.7,130.5,3,130.6,3.4,130.6z M3.4,164.4c0.9,0,1.3-0.3,1.3-1
		c0-0.6-0.4-1-1.3-1c-0.9,0-1.3,0.3-1.3,1c0,0.3,0.1,0.6,0.3,0.7C2.7,164.4,3,164.4,3.4,164.4z M4.8,64.4c0-0.3-0.1-0.5-0.2-0.7
		c-0.2-0.2-0.4-0.3-0.7-0.3H3.5l0,0.5c0,0.4,0.1,0.6,0.2,0.8C3.8,64.9,4,65,4.2,65c0.2,0,0.3-0.1,0.4-0.2
		C4.7,64.8,4.8,64.6,4.8,64.4z M4.8,110.1c0-0.3-0.1-0.5-0.2-0.7c-0.2-0.2-0.4-0.3-0.7-0.3H3.5l0,0.5c0,0.4,0.1,0.7,0.2,0.8
		c0.1,0.2,0.3,0.3,0.5,0.3c0.2,0,0.3-0.1,0.4-0.2C4.7,110.5,4.8,110.3,4.8,110.1z M4.8,146.8c0-0.3-0.1-0.5-0.2-0.7
		c-0.2-0.2-0.4-0.3-0.7-0.3H3.5l0,0.5c0,0.4,0.1,0.6,0.2,0.8c0.1,0.2,0.3,0.3,0.5,0.3c0.2,0,0.3-0.1,0.4-0.1
		C4.7,147.2,4.8,147,4.8,146.8z"/>
	<g>
		<path class="st5" d="M27.2,224.1v-5.7h0.9v4.9h2.4v0.8H27.2z"/>
		<path class="st5" d="M35.3,221.9c0,0.7-0.2,1.3-0.5,1.6s-0.9,0.6-1.5,0.6c-0.4,0-0.8-0.1-1.1-0.3s-0.5-0.4-0.7-0.8
			s-0.3-0.7-0.3-1.2c0-0.7,0.2-1.3,0.5-1.6s0.9-0.6,1.5-0.6c0.6,0,1.1,0.2,1.5,0.6S35.3,221.3,35.3,221.9z M32.2,221.9
			c0,1,0.4,1.5,1.1,1.5c0.7,0,1.1-0.5,1.1-1.5c0-1-0.4-1.5-1.1-1.5c-0.4,0-0.7,0.1-0.8,0.4S32.2,221.5,32.2,221.9z"/>
		<path class="st5" d="M40,224.1l-0.6-2c-0.1-0.2-0.2-0.7-0.4-1.5h0c-0.2,0.7-0.3,1.2-0.4,1.5l-0.6,2h-1l-1.2-4.3h0.9l0.5,2.1
			c0.1,0.5,0.2,1,0.3,1.4h0c0-0.2,0.1-0.4,0.1-0.6s0.1-0.4,0.1-0.6l0.7-2.3h1l0.6,2.3c0,0.1,0.1,0.3,0.2,0.6
			c0.1,0.3,0.1,0.5,0.1,0.6h0c0-0.3,0.1-0.8,0.3-1.3l0.6-2.1h0.9l-1.2,4.3L40,224.1L40,224.1z"/>
	</g>
	<g>
		<path class="st5" d="M169.3,224.1l-1.7-4.8h0c0,0.7,0.1,1.4,0.1,2v2.8h-0.9v-5.7h1.3l1.6,4.5h0l1.6-4.5h1.3v5.7h-0.9v-2.8
			c0-0.3,0-0.6,0-1.1s0-0.7,0-0.8h0l-1.7,4.8L169.3,224.1L169.3,224.1z"/>
		<path class="st5" d="M176.1,224.2c-0.7,0-1.2-0.2-1.6-0.6s-0.6-0.9-0.6-1.6c0-0.7,0.2-1.3,0.5-1.7s0.8-0.6,1.4-0.6
			c0.6,0,1,0.2,1.4,0.5s0.5,0.8,0.5,1.4v0.5h-2.9c0,0.4,0.1,0.7,0.3,1s0.5,0.3,0.9,0.3c0.3,0,0.5,0,0.7-0.1s0.5-0.1,0.7-0.2v0.8
			c-0.2,0.1-0.4,0.2-0.7,0.2S176.4,224.2,176.1,224.2z M175.9,220.4c-0.3,0-0.5,0.1-0.7,0.3s-0.3,0.4-0.3,0.8h2
			c0-0.4-0.1-0.6-0.3-0.8S176.2,220.4,175.9,220.4z"/>
		<path class="st5" d="M180.4,224.2c-0.5,0-1-0.2-1.3-0.6s-0.4-0.9-0.4-1.6c0-0.7,0.1-1.3,0.5-1.6s0.7-0.6,1.3-0.6
			c0.6,0,1,0.2,1.3,0.6h0.1c0-0.3-0.1-0.6-0.1-0.7v-1.6h0.9v6.1h-0.7l-0.2-0.6h0C181.4,224,180.9,224.2,180.4,224.2z M180.6,223.4
			c0.4,0,0.6-0.1,0.8-0.3s0.3-0.6,0.3-1V222c0-0.5-0.1-0.9-0.3-1.2s-0.4-0.3-0.8-0.3c-0.3,0-0.6,0.1-0.8,0.4s-0.3,0.6-0.3,1.1
			c0,0.5,0.1,0.8,0.3,1.1S180.3,223.4,180.6,223.4z"/>
		<path class="st5" d="M183.9,218.6c0-0.2,0-0.3,0.1-0.4s0.2-0.1,0.4-0.1s0.3,0,0.4,0.1s0.1,0.2,0.1,0.4c0,0.2,0,0.3-0.1,0.4
			s-0.2,0.1-0.4,0.1c-0.2,0-0.3,0-0.4-0.1S183.9,218.8,183.9,218.6z M184.9,224.1h-0.9v-4.3h0.9V224.1z"/>
		<path class="st5" d="M189.3,224.1l-0.1-0.6h-0.1c-0.1,0.2-0.3,0.4-0.5,0.5s-0.5,0.2-0.8,0.2c-0.5,0-0.9-0.1-1.2-0.4
			s-0.4-0.7-0.4-1.2v-2.8h0.9v2.7c0,0.3,0.1,0.6,0.2,0.7s0.4,0.3,0.6,0.3c0.4,0,0.7-0.1,0.9-0.4s0.3-0.6,0.3-1.2v-2.1h0.9v4.3
			L189.3,224.1L189.3,224.1z"/>
		<path class="st5" d="M195.1,224.1h-0.9v-2.7c0-0.3-0.1-0.6-0.2-0.7s-0.3-0.2-0.6-0.2c-0.4,0-0.6,0.1-0.8,0.4s-0.3,0.6-0.3,1.1v2.1
			h-0.9v-4.3h0.7l0.1,0.6h0.1c0.1-0.2,0.3-0.4,0.5-0.5s0.5-0.2,0.8-0.2c0.7,0,1.1,0.2,1.3,0.7h0.1c0.1-0.2,0.3-0.4,0.5-0.5
			s0.5-0.2,0.8-0.2c0.5,0,0.9,0.1,1.1,0.4s0.4,0.7,0.4,1.2v2.8h-0.9v-2.7c0-0.3-0.1-0.6-0.2-0.7s-0.3-0.2-0.6-0.2
			c-0.4,0-0.6,0.1-0.8,0.3s-0.3,0.6-0.3,1L195.1,224.1L195.1,224.1z"/>
	</g>
	<g>
		<path class="st5" d="M323.3,224.1h-0.9v-2.6h-2.6v2.6h-0.9v-5.7h0.9v2.3h2.6v-2.3h0.9V224.1z"/>
		<path class="st5" d="M324.7,218.6c0-0.2,0-0.3,0.1-0.4s0.2-0.1,0.4-0.1s0.3,0,0.4,0.1s0.1,0.2,0.1,0.4c0,0.2,0,0.3-0.1,0.4
			s-0.2,0.1-0.4,0.1c-0.2,0-0.3,0-0.4-0.1S324.7,218.8,324.7,218.6z M325.7,224.1h-0.9v-4.3h0.9V224.1z"/>
		<path class="st5" d="M330.7,219.8v0.5l-0.7,0.1c0.1,0.1,0.1,0.2,0.2,0.3s0.1,0.3,0.1,0.4c0,0.4-0.1,0.8-0.5,1.1s-0.7,0.4-1.3,0.4
			c-0.1,0-0.3,0-0.4,0c-0.2,0.1-0.3,0.3-0.3,0.4c0,0.1,0,0.2,0.1,0.2s0.3,0.1,0.5,0.1h0.8c0.5,0,0.8,0.1,1.1,0.3s0.4,0.5,0.4,0.9
			c0,0.5-0.2,0.9-0.6,1.1s-1,0.4-1.8,0.4c-0.6,0-1-0.1-1.4-0.3s-0.5-0.5-0.5-0.9c0-0.3,0.1-0.5,0.3-0.7s0.4-0.3,0.7-0.4
			c-0.1-0.1-0.2-0.1-0.3-0.3s-0.1-0.2-0.1-0.4c0-0.2,0-0.3,0.1-0.4s0.2-0.2,0.4-0.3c-0.2-0.1-0.4-0.3-0.5-0.5s-0.2-0.5-0.2-0.8
			c0-0.5,0.1-0.8,0.4-1.1s0.7-0.4,1.3-0.4c0.1,0,0.3,0,0.4,0s0.2,0,0.3,0.1L330.7,219.8L330.7,219.8z M327.3,224.8
			c0,0.2,0.1,0.4,0.3,0.5s0.4,0.2,0.8,0.2c0.5,0,0.9-0.1,1.1-0.2s0.4-0.3,0.4-0.6c0-0.2-0.1-0.3-0.2-0.4s-0.4-0.1-0.8-0.1h-0.7
			c-0.3,0-0.5,0.1-0.6,0.2S327.3,224.6,327.3,224.8z M327.7,221.2c0,0.3,0.1,0.5,0.2,0.6s0.3,0.2,0.6,0.2c0.5,0,0.8-0.3,0.8-0.9
			c0-0.3-0.1-0.5-0.2-0.6s-0.3-0.2-0.6-0.2c-0.3,0-0.5,0.1-0.6,0.2S327.7,220.9,327.7,221.2z"/>
		<path class="st5" d="M335.4,224.1h-0.9v-2.7c0-0.3-0.1-0.6-0.2-0.8s-0.4-0.3-0.6-0.3c-0.4,0-0.7,0.1-0.9,0.4s-0.3,0.6-0.3,1.2v2.1
			h-0.9V218h0.9v1.5c0,0.3,0,0.5,0,0.8h0.1c0.1-0.2,0.3-0.4,0.5-0.5s0.5-0.2,0.8-0.2c1,0,1.6,0.5,1.6,1.6L335.4,224.1L335.4,224.1z"
			/>
	</g>
	<line class="st6" x1="25.8" y1="216.2" x2="25.8" y2="3.1"/>
	<polyline class="st6" points="21.6,7.7 25.8,3.1 30.1,7.7 	"/>
	<line class="st6" x1="25.8" y1="216" x2="361.7" y2="216"/>
	<polyline class="st6" points="357.2,211.8 361.7,216 357.2,220.2 	"/>
	<g>
		<path class="st5" d="M21.4,211.6h-5.7v-0.9h4.9v-2.4h0.8C21.4,208.2,21.4,211.6,21.4,211.6z"/>
		<path class="st5" d="M19.3,203.4c0.7,0,1.3,0.2,1.6,0.5s0.6,0.9,0.6,1.5c0,0.4-0.1,0.8-0.3,1.1s-0.4,0.6-0.8,0.7s-0.7,0.3-1.2,0.3
			c-0.7,0-1.3-0.2-1.6-0.5s-0.6-0.9-0.6-1.5c0-0.6,0.2-1.1,0.6-1.5C18,203.6,18.6,203.4,19.3,203.4z M19.3,206.6
			c1,0,1.5-0.4,1.5-1.1c0-0.7-0.5-1.1-1.5-1.1c-1,0-1.5,0.4-1.5,1.1c0,0.4,0.1,0.7,0.4,0.8S18.8,206.6,19.3,206.6z"/>
		<path class="st5" d="M21.4,198.7l-2,0.6c-0.2,0.1-0.7,0.2-1.5,0.4v0c0.7,0.1,1.2,0.3,1.5,0.4l2,0.6v1l-4.3,1.2v-0.9l2.1-0.6
			c0.5-0.1,1-0.2,1.4-0.3v0c-0.2,0-0.4-0.1-0.6-0.1s-0.4-0.1-0.5-0.1l-2.3-0.7v-1l2.3-0.6c0.1,0,0.3-0.1,0.6-0.1s0.5-0.1,0.6-0.1v0
			c-0.3,0-0.8-0.1-1.3-0.3l-2.1-0.6v-0.9l4.3,1.2L21.4,198.7L21.4,198.7z"/>
	</g>
	<g>
		<path class="st5" d="M21.4,116.5l-4.8,1.7v0c0.7,0,1.4-0.1,2-0.1h2.8v0.8h-5.7v-1.3l4.5-1.6v0l-4.5-1.6v-1.3h5.7v0.9h-2.8
			c-0.3,0-0.6,0-1.1,0c-0.5,0-0.7,0-0.8,0v0l4.8,1.7V116.5z"/>
		<path class="st5" d="M21.5,109.7c0,0.7-0.2,1.2-0.6,1.6s-0.9,0.6-1.6,0.6c-0.7,0-1.3-0.2-1.7-0.5s-0.6-0.8-0.6-1.4
			c0-0.6,0.2-1,0.5-1.3s0.8-0.5,1.4-0.5h0.5v2.9c0.4,0,0.7-0.1,1-0.3s0.3-0.5,0.3-0.9c0-0.3,0-0.5-0.1-0.7s-0.1-0.5-0.2-0.7h0.8
			c0.1,0.2,0.2,0.4,0.2,0.7S21.5,109.4,21.5,109.7z M17.7,109.9c0,0.3,0.1,0.5,0.3,0.7s0.5,0.3,0.8,0.3v-2c-0.4,0-0.6,0.1-0.8,0.3
			S17.7,109.6,17.7,109.9z"/>
		<path class="st5" d="M21.5,105.5c0,0.5-0.2,1-0.6,1.3s-0.9,0.4-1.6,0.4c-0.7,0-1.3-0.2-1.6-0.5s-0.6-0.7-0.6-1.3
			c0-0.6,0.2-1,0.6-1.3v-0.1c-0.3,0-0.5,0.1-0.7,0.1h-1.6v-0.9h6.1v0.7l-0.6,0.2v0C21.3,104.5,21.5,104.9,21.5,105.5z M20.8,105.2
			c0-0.4-0.1-0.7-0.3-0.8s-0.6-0.3-1-0.3h-0.1c-0.5,0-0.9,0.1-1.2,0.3s-0.3,0.4-0.3,0.8c0,0.3,0.1,0.6,0.4,0.8s0.6,0.3,1.1,0.3
			c0.5,0,0.8-0.1,1.1-0.3S20.8,105.6,20.8,105.2z"/>
		<path class="st5" d="M16,101.9c-0.2,0-0.3,0-0.4-0.1s-0.1-0.2-0.1-0.4c0-0.2,0-0.3,0.1-0.4s0.2-0.1,0.4-0.1c0.2,0,0.3,0,0.4,0.1
			s0.1,0.2,0.1,0.4c0,0.2,0,0.3-0.1,0.4S16.1,101.9,16,101.9z M21.4,100.9v0.9h-4.3v-0.9H21.4z"/>
		<path class="st5" d="M21.4,96.5l-0.6,0.1v0.1c0.2,0.1,0.4,0.3,0.5,0.5s0.2,0.5,0.2,0.8c0,0.5-0.1,0.9-0.4,1.2s-0.7,0.4-1.2,0.4
			h-2.8v-0.9h2.7c0.3,0,0.6-0.1,0.7-0.2s0.3-0.3,0.3-0.6c0-0.4-0.1-0.7-0.4-0.8s-0.6-0.3-1.2-0.3h-2.1v-0.9h4.3L21.4,96.5L21.4,96.5
			z"/>
		<path class="st5" d="M21.4,90.8v0.9h-2.7c-0.3,0-0.6,0.1-0.7,0.2s-0.2,0.3-0.2,0.6c0,0.3,0.1,0.6,0.4,0.8s0.6,0.3,1.1,0.3h2.1v0.9
			h-4.3v-0.7l0.6-0.1v0c-0.2-0.1-0.4-0.3-0.5-0.5s-0.2-0.5-0.2-0.8c0-0.7,0.2-1.1,0.7-1.3v-0.1c-0.2-0.1-0.4-0.3-0.5-0.5
			s-0.2-0.5-0.2-0.8c0-0.5,0.1-0.9,0.4-1.1s0.7-0.3,1.2-0.3h2.8V89h-2.7c-0.3,0-0.6,0.1-0.7,0.2s-0.2,0.3-0.2,0.6
			c0,0.4,0.1,0.6,0.3,0.8s0.6,0.3,1,0.3L21.4,90.8L21.4,90.8z"/>
	</g>
	<g>
		<path class="st5" d="M21.4,31.7v0.9h-2.6v2.6h2.6v0.9h-5.7v-0.9h2.3v-2.6h-2.3v-0.9H21.4z"/>
		<path class="st5" d="M16,30.2c-0.2,0-0.3,0-0.4-0.1s-0.1-0.2-0.1-0.4s0-0.3,0.1-0.4s0.2-0.1,0.4-0.1c0.2,0,0.3,0,0.4,0.1
			s0.1,0.2,0.1,0.4c0,0.2,0,0.3-0.1,0.4S16.1,30.2,16,30.2z M21.4,29.3v0.9h-4.3v-0.9H21.4z"/>
		<path class="st5" d="M17.1,24.2h0.5l0.1,0.7c0.1-0.1,0.2-0.1,0.3-0.2s0.3-0.1,0.4-0.1c0.5,0,0.8,0.1,1,0.5
			c0.3,0.3,0.4,0.7,0.4,1.3c0,0.1,0,0.3,0,0.4c0.1,0.2,0.3,0.3,0.4,0.3c0.1,0,0.2,0,0.2-0.1s0.1-0.3,0.1-0.5v-0.8
			c0-0.5,0.1-0.8,0.3-1.1s0.5-0.4,0.9-0.4c0.5,0,0.9,0.2,1.1,0.6s0.4,1,0.4,1.8c0,0.6-0.1,1-0.3,1.4c-0.2,0.3-0.5,0.5-0.9,0.5
			c-0.3,0-0.5-0.1-0.7-0.3s-0.3-0.4-0.4-0.7c0,0.1-0.1,0.2-0.3,0.3c-0.1,0.1-0.2,0.1-0.4,0.1c-0.2,0-0.3,0-0.4-0.1s-0.2-0.2-0.3-0.4
			c-0.1,0.2-0.3,0.4-0.5,0.5c-0.2,0.1-0.5,0.2-0.8,0.2c-0.5,0-0.8-0.1-1.1-0.4S17,26.9,17,26.4c0-0.1,0-0.3,0-0.4s0-0.2,0-0.3
			L17.1,24.2L17.1,24.2z M18.5,27.2c0.3,0,0.5-0.1,0.6-0.2c0.1-0.1,0.2-0.3,0.2-0.6c0-0.5-0.3-0.8-0.9-0.8c-0.3,0-0.5,0.1-0.6,0.2
			s-0.2,0.3-0.2,0.6s0.1,0.5,0.2,0.6C18,27.2,18.2,27.2,18.5,27.2z M22.1,27.6c0.2,0,0.4-0.1,0.5-0.3c0.1-0.2,0.2-0.4,0.2-0.8
			c0-0.5-0.1-0.9-0.2-1.1s-0.3-0.4-0.6-0.4c-0.2,0-0.3,0.1-0.4,0.2c-0.1,0.1-0.1,0.4-0.1,0.8v0.7c0,0.3,0.1,0.5,0.2,0.6
			C21.7,27.5,21.9,27.6,22.1,27.6z"/>
		<path class="st5" d="M21.4,19.6v0.9h-2.7c-0.3,0-0.6,0.1-0.8,0.2s-0.3,0.4-0.3,0.6c0,0.4,0.1,0.7,0.4,0.9s0.6,0.3,1.2,0.3h2.1v0.9
			h-6.1v-0.9h1.5c0.3,0,0.5,0,0.8,0v-0.1c-0.2-0.1-0.4-0.3-0.5-0.5S17,21.4,17,21.1c0-1,0.5-1.6,1.6-1.6H21.4z"/>
	</g>
	<g>
		<g>
			<path class="st7" d="M184.6,139c0,5.6-4.6,10.2-10.2,10.2c-5.6,0-10.2-4.6-10.2-10.2c0-5.6,4.6-10.2,10.2-10.2
				C180,128.8,184.6,133.3,184.6,139"/>
		</g>
		<rect x="169.1" y="137.7" class="st8" width="2.5" height="7.7"/>
		<rect x="172.9" y="136.1" class="st8" width="2.5" height="9.3"/>
		<rect x="176.9" y="134.9" class="st8" width="2.5" height="10.5"/>
		<line class="st9" x1="168.4" y1="137" x2="179.5" y2="132.5"/>
		<polygon class="st8" points="179.8,132.4 178.9,133.6 178.4,132.2 		"/>
	</g>
	<g>
		<path class="st10" d="M255.9,52.9c0,5.7-4.6,10.2-10.2,10.2c-5.6,0-10.2-4.6-10.2-10.2c0-5.7,4.6-10.2,10.2-10.2
			C251.3,42.7,255.9,47.3,255.9,52.9"/>
		<path class="st11" d="M238.8,49.8l-0.8,5.4h2.1l0.8-5L238.8,49.8z M252.1,49.8l0.8,5.4h-2.1l-0.7-5L252.1,49.8z M241.1,50.4
			l2.3-0.3c0,0,0.4-1,2.2-0.8c1.7,0.3,4.4,1.1,4.4,1.1l0.8,4.1l-0.8,0.2c0,0-4.2-3.3-5.1-3.3c-0.9,0.1-3.1,3-1.7-0.9 M240.5,54.2
			c0,0,4,3.8,5.5,3.2l0.3-0.3c0,0,0.6,0.1,1.2-0.4c0.6-0.5,2.3-1.5,2.3-1.5 M246.9,54l2.1,1.8 M245.7,55l2.1,1.4 M244.9,56l1.4,1.1"
			/>
	</g>
	<g>
		<path class="st7" d="M138.5,132.9c0,5.6-4.6,10.2-10.2,10.2c-5.7,0-10.2-4.6-10.2-10.2c0-5.7,4.6-10.2,10.2-10.2
			C133.9,122.6,138.5,127.2,138.5,132.9"/>
		<path class="st8" d="M129.9,135.6c-0.3-2.2-1.1-2.3-1.1-2.3l-2-0.6l0-0.4c0.6-0.3,1.1-0.9,1.3-1.8c0,0.1,0,0.1,0,0.1
			s0.8-0.4,0.8-1.1c0-0.6-0.4-0.5-0.6-0.4c0-0.5,0.1-2.1-0.2-2.5c-0.4-0.5-1.3-0.2-1.3-0.2c-0.7-0.7-2.1-0.3-2.8,0.2
			c-0.7,0.4-0.5,0.8-0.5,0.8l0,1.7c-0.2-0.1-0.6-0.1-0.6,0.4c0,0.7,0.8,1.1,0.8,1.1s0,0,0-0.1c0.2,0.8,0.7,1.4,1.3,1.8l-0.1,0.4
			l-1.7,0.5c0,0-1.1,0.4-1.4,2.4l-0.3,1.4h4.2h0h0h4.2L129.9,135.6z M128.3,129.7L128.3,129.7c0,0.1,0,0.1,0,0.1
			C128.3,129.8,128.3,129.7,128.3,129.7 M123.7,129.8L123.7,129.8C123.7,129.8,123.7,129.8,123.7,129.8
			C123.7,129.8,123.7,129.8,123.7,129.8"/>
		<path class="st8" d="M135.8,131C135.8,131,135.8,131.1,135.8,131c0.4,1.7-0.7,3.1-2.5,3.1c-0.8,1.4-1.5,3-2.2,4.5
			c-0.3,0.6-0.5,1.4-1.1,1.7c-0.1,0-0.1,0-0.2,0.1c-0.6,0.1-1.1-0.2-1.3-0.7c0-0.1,0-0.1-0.1-0.2c-0.1-0.7,0.4-1.3,0.8-1.9
			c0.8-1.4,1.7-2.9,2.5-4.3c-1.1-1.5-0.5-3.2,1.1-3.8c0,0,0.1,0,0.1,0c0.3,0,0.9-0.3,1.1,0.1c0.2,0.4-0.9,1.4-0.8,1.7
			c0,0.1,0.2,0.1,0.3,0.1c0.2,0.1,0.7,0.5,0.8,0.4c0.1-0.1,0.4-0.7,0.4-0.8c0.2-0.4,0.3-0.6,0.6-0.8
			C135.5,130.2,135.6,130.7,135.8,131 M135.3,130.8c-0.3,0.1-0.6,1.3-0.9,1.4c-0.3,0.1-1.5-0.6-1.6-0.9c-0.1-0.5,0.8-1.1,0.6-1.5
			c-1.8,0.2-2.3,2.2-1.2,3.4c-0.7,1.4-1.7,3-2.5,4.5c-0.3,0.4-0.8,1-0.8,1.5c0,0.7,0.7,0.9,1.1,0.7c0.4-0.2,0.6-1.1,0.8-1.5
			c0.8-1.6,1.4-3.2,2.3-4.7C134.8,133.9,136.1,132.4,135.3,130.8"/>
		<path class="st8" d="M129.9,139.4c-0.2,0.1-0.5-0.1-0.5-0.3c-0.1-0.2,0.1-0.5,0.3-0.5c0.2-0.1,0.5,0.1,0.5,0.3
			C130.2,139.1,130.1,139.3,129.9,139.4"/>
	</g>
	<g>
		<path class="st5" d="M212,140.1c0,5.6-4.6,10.2-10.2,10.2c-5.6,0-10.2-4.6-10.2-10.2c0-5.6,4.6-10.2,10.2-10.2
			C207.4,129.8,212,134.4,212,140.1"/>
		<path class="st8" d="M201.7,134c0.2-0.2,0.7-0.1,1.1-0.1c0.8,0.4,0.9,1.4,1.8,1.5c0,0.3,0.2,0.4,0.2,0.7c1.4,0.1,1.1,1.8,0.4,2.5
			c0.4,1.7-0.2,3.1-1,4c-0.1,1.1,0.1,2.5-0.1,3.5c-1.3,0.1-3.2,0.1-4.5,0c-0.2-0.7,0-1.8-0.1-2.6c-0.3-0.7-1.3-1.2-1.8-2.1
			c-0.9-1.3-1.4-2.3-0.6-4.1c0.4-0.9,0.6-1.7,1.5-1.9C198.6,133.9,200.7,132,201.7,134 M199.4,135.6c0.5,0.1,0.7,0.4,1.3,0.4
			c0.1-0.6,0.5-1,0.4-1.8C200.1,133.1,199.6,134.8,199.4,135.6 M203,135.1c-0.3-1.3-1.8,0.1-1.7,1.3c0.5,0,0.7,0.4,1,0.6
			C202.2,136.2,203.1,135.8,203,135.1 M202.6,138c0.3-0.1,0.2,0.3,0.4,0.2c0.6-0.5,0.9-1.4,1.1-2.3
			C203.2,135.2,202.8,137.1,202.6,138 M198.4,136.4c-0.2,1.1-1.1,1.8-1,2.8c0,0.2,0.4,0.7,0.5,1.1c0.7,1.2,1.6,2.2,2.4,3v2.4h3.3
			c0.2-1.3-0.2-2.2,0-3.1c0.2-0.9,1.5-1.6,1.1-3.1c-0.8,0.3-1-0.6-1.4-0.7c-0.8-0.3-1.3,0.5-2.3,0.6c0.6,0,1.4,1.1,0.6,1.4
			c-0.4-0.2-0.4-0.4-0.7-0.7c-0.8-0.7-2.2-0.6-1.8-2c0.7-0.1,1.4,0.4,2.3,0.4C202.6,137.1,199.5,136.1,198.4,136.4 M203.9,138.6
			c0.2,0.1,0.2,0.4,0.5,0.3c0.4-0.4,0.8-1.2,0.7-1.8C204.2,136.7,204.2,138,203.9,138.6"/>
	</g>
	<g>
		<path class="st5" d="M217.2,82.4c0,5.7-4.6,10.2-10.2,10.2c-5.6,0-10.2-4.6-10.2-10.2c0-5.7,4.6-10.2,10.2-10.2
			C212.6,72.2,217.2,76.8,217.2,82.4"/>
		<path class="st8" d="M213.1,85.2c0,0.4-0.4,0.8-0.8,0.8h-10.6c-0.4,0-0.8-0.3-0.8-0.8v-6.7c0-0.4,0.4-0.8,0.8-0.8h10.6
			c0.4,0,0.8,0.3,0.8,0.8V85.2z"/>
		<path class="st8" d="M203.9,84.8c0,0,0.5,2.8-2,3.8c0,0,4.1-0.3,4.1-3.9C205.9,81.1,203.9,83.4,203.9,84.8"/>
		<path class="st5" d="M204.8,81.9c0,0.5-0.4,1-1,1s-1-0.4-1-1s0.4-1,1-1S204.8,81.3,204.8,81.9"/>
		<path class="st5" d="M207.9,81.9c0,0.5-0.4,1-1,1s-1-0.4-1-1s0.4-1,1-1S207.9,81.3,207.9,81.9"/>
		<path class="st5" d="M211.1,81.9c0,0.5-0.4,1-1,1s-1-0.4-1-1s0.4-1,1-1S211.1,81.3,211.1,81.9"/>
	</g>
	<g>
		<path class="st7" d="M122.7,148c0,5.6-4.6,10.2-10.2,10.2c-5.7,0-10.2-4.6-10.2-10.2c0-5.6,4.6-10.2,10.2-10.2
			C118.1,137.8,122.7,142.4,122.7,148"/>
		<path class="st12" d="M116.5,144.3l-10.6,0.6l0.9,5h8.8L116.5,144.3z M107.3,152.5h7.9l1.4-9.3l3.1,0 M108.5,144.7l-1.7,5.2
			 M111.4,144.7l-1.7,5.2 M114.7,144.5l-2,5.4"/>
		<path class="st8" d="M110.3,153.5c0,0.5-0.4,0.9-0.8,0.9s-0.8-0.4-0.8-0.9s0.4-0.9,0.8-0.9S110.3,153,110.3,153.5"/>
		<path class="st8" d="M114.9,153.5c0,0.5-0.4,0.9-0.8,0.9s-0.8-0.4-0.8-0.9s0.4-0.9,0.8-0.9S114.9,153,114.9,153.5"/>
	</g>
	<g>
		<path class="st7" d="M239.3,114.8c0,5.7-4.6,10.2-10.2,10.2c-5.6,0-10.2-4.6-10.2-10.2c0-5.7,4.6-10.2,10.2-10.2
			C234.7,104.6,239.3,109.2,239.3,114.8"/>
		<path class="st8" d="M228.1,109.4c3.3-0.5,6.2,1.6,6.5,4.9c0.6,6.4-7.6,8.2-10.4,3.4c-1.8-3.1,0-6.4,1.8-7.6
			C226.4,109.9,227.1,109.6,228.1,109.4 M228,109.8c1.3,1.9-0.2,2.8-1.8,3.1c0.9,0.4,1.9,0.7,2,1.9c0.6,0,0.6-0.6,1.1-0.6
			c1.2,0.8-0.2,2.1-0.6,2.9c-0.3,0.6-0.6,2.6-2.1,2.3c-0.5-0.6-0.1-1.6-0.2-2.6c-1.3-1-0.4-3.5-2.2-4c-2.8,5.9,5.8,10.1,8.6,5.4
			c-0.5-0.6-0.4-1.3-0.2-2.2c-0.6-0.5-1.3-0.2-1.6-0.8c-0.4-0.8,0.1-1.9,1-2c0.7-0.1,1,0.5,2,0.3c-0.2-0.6-0.5-1-0.7-1.6
			c-0.6,0.3-0.9-0.3-1.6-0.2c-0.5,0.1-0.7,0.6-1.1,0.5c-1-0.3-0.3-1.6,0.2-2.2C229.9,109.7,229,109.7,228,109.8 M224.6,112.3
			c0.4,0.6,1.4,0.9,1.4,1.9c0,0.3-0.2,0.6-0.1,0.9c0.1,0.6,0.8,1,0.9,1.7c0.1,0.7-0.6,1.7,0.3,2.2c0.6-0.6,1.1-1.2,1.1-2.3
			c0.5-0.6,1.1-1,1.1-2.1c-0.5-0.3-0.6,0.6-1.3,0.4c-0.2-1.3-1.8-1.3-2.3-2.4c0.5-0.5,1.5-0.5,2.2-0.8c0.3-0.7,0-1.6-0.5-1.9
			C226.1,110.4,225.1,111.1,224.6,112.3 M230.4,111.5c0.7,0.3,1.6-0.6,2.5-0.2c-0.5-0.4-1-0.8-1.6-1.1
			C230.9,110.6,230.5,110.9,230.4,111.5 M231.4,115c0.9,0.2,1.5,0.3,1.6,1c0.1,0.4-0.4,0.7-0.3,1c0.1,0.4,0.6,0.3,0.4,0.7
			c0.9-0.7,1.2-2.5,0.9-4C232.8,113.6,230.8,113,231.4,115"/>
	</g>
	<path class="st13" d="M234.6,114.9c0,3.1-2.5,5.7-5.6,5.7s-5.6-2.5-5.6-5.7s2.5-5.7,5.6-5.7C232.1,109.2,234.6,111.8,234.6,114.9z"
		/>
	<g>
		<path class="st14" d="M285.4,98.3c0,5.7-4.6,10.2-10.2,10.2c-5.6,0-10.2-4.6-10.2-10.2c0-5.7,4.6-10.2,10.2-10.2
			C280.8,88.1,285.4,92.6,285.4,98.3"/>
		<path class="st8" d="M274.8,101.1l0-1.3l-1.7-2.7l1.7,1.7l0.2-6.7l-4.4,5.9c0,0-2.7,3.8,1.8,5.9l2.2,1.1l0.1-2.6l-3-3L274.8,101.1
			z"/>
		<path class="st8" d="M279.5,98l-4.4-5.9l0.2,6.7l1.7-1.7l-1.7,2.7l0,1.3l3-1.7l-3,3l0.1,2.6l2.2-1.1
			C282.2,101.8,279.5,98,279.5,98"/>
	</g>
	<g>
		<path class="st7" d="M251.6,85.3c0,5.7-4.6,10.2-10.2,10.2c-5.6,0-10.2-4.6-10.2-10.2c0-5.7,4.6-10.2,10.2-10.2
			C247,75.1,251.6,79.7,251.6,85.3"/>
		<path class="st8" d="M243,88c-0.3-2.2-1.1-2.3-1.1-2.3l-2-0.6l0-0.3c0.6-0.3,1.1-0.9,1.4-1.8c0,0.1,0,0.1,0,0.1s0.8-0.4,0.8-1.1
			c0-0.6-0.4-0.5-0.6-0.4c0-0.5,0.1-2.1-0.2-2.5c-0.4-0.5-1.3-0.2-1.3-0.2c-0.6-0.7-2.1-0.3-2.8,0.2s-0.5,0.8-0.5,0.8l0,1.7
			c-0.2-0.1-0.6-0.1-0.6,0.4c0,0.7,0.8,1.1,0.8,1.1s0,0,0-0.1c0.2,0.8,0.7,1.4,1.3,1.8l-0.1,0.3l-1.7,0.5c0,0-1.1,0.4-1.4,2.4
			l-0.3,1.3h4.2h0h0h4.2L243,88z M241.3,82.2L241.3,82.2c0,0.1,0,0.1,0,0.1C241.3,82.3,241.3,82.2,241.3,82.2 M236.7,82.3
			L236.7,82.3C236.7,82.3,236.7,82.3,236.7,82.3C236.8,82.3,236.7,82.3,236.7,82.3"/>
		<path class="st7" d="M247.5,87.9c0,1.8-1.4,3.2-3.2,3.2s-3.2-1.4-3.2-3.2s1.4-3.2,3.2-3.2C246,84.7,247.5,86.2,247.5,87.9"/>
		
			<rect x="245.6" y="89.8" transform="matrix(0.8931 -0.4498 0.4498 0.8931 -14.6813 120.3245)" class="st8" width="0.6" height="2.5"/>
		<path class="st8" d="M247,87.9c0,1.5-1.2,2.8-2.8,2.8s-2.8-1.2-2.8-2.8c0-1.5,1.2-2.8,2.8-2.8S247,86.4,247,87.9"/>
		<path class="st7" d="M246.5,87.9c0,1.2-1,2.2-2.2,2.2s-2.2-1-2.2-2.2s1-2.2,2.2-2.2C245.5,85.7,246.5,86.7,246.5,87.9"/>
	</g>
	<g>
		<path class="st7" d="M172.8,161.8c0,5.6-4.6,10.2-10.2,10.2c-5.6,0-10.2-4.6-10.2-10.2c0-5.6,4.6-10.2,10.2-10.2
			S172.8,156.1,172.8,161.8"/>
		<path class="st15" d="M164.1,166.2l1.8-1.8 M163.2,165.5l2.6-2.6 M159.9,164.9V164 M165.9,160.7l-0.6-3.6 M163.7,160.7
			c-0.1-1.2-0.1-2.4-0.2-3.6 M161.4,160.7c0.1-1.2,0.1-2.4,0.2-3.6 M159.2,160.7l0.6-3.6 M158.1,157h8.9l1.3,3c0,0.1,0,0.1,0,0.2
			c0,0.7-0.6,1.3-1.3,1.3c-0.5,0-0.9-0.3-1.1-0.7c-0.2,0.4-0.6,0.7-1.1,0.7s-0.9-0.3-1.1-0.7c-0.2,0.4-0.6,0.7-1.1,0.7
			s-0.9-0.3-1.1-0.7c-0.2,0.4-0.6,0.7-1.1,0.7s-0.9-0.3-1.1-0.7c-0.2,0.4-0.6,0.7-1.1,0.7c-0.7,0-1.3-0.6-1.3-1.3c0-0.1,0-0.1,0-0.2
			L158.1,157z M167.1,167v-4.4 M160.9,167v-4.4 M158.1,167v-4.4 M156.9,167h11.5"/>
	</g>
	<g>
		<path class="st7" d="M190.2,85c0,5.7-4.6,10.2-10.2,10.2c-5.6,0-10.2-4.6-10.2-10.2c0-5.7,4.6-10.2,10.2-10.2
			C185.6,74.8,190.2,79.3,190.2,85"/>
		<polygon class="st8" points="186.2,83.1 182.1,83.1 182.1,79 178,79 178,83.1 174,83.1 174,87.1 178,87.1 178,91.2 182.1,91.2 
			182.1,87.1 186.2,87.1 		"/>
		<path class="st16" d="M184.9,81.2c-0.9-1.3-2.1,0.4-2.1,0.4l-0.1,0.1l-0.1-0.1c0,0-1.2-1.7-2.1-0.4c-0.9,1.3,0.6,2.5,0.9,2.8
			c0.2,0.2,1.1,0.9,1.3,1.1v0c0,0,0,0,0,0c0,0,0,0,0,0v0c0.2-0.2,1.1-0.9,1.3-1.1C184.3,83.7,185.9,82.4,184.9,81.2z"/>
	</g>
</g>
</svg>
