<?xml version="1.0" encoding="utf-8"?>
<!-- Generator: Adobe Illustrator 24.3.0, SVG Export Plug-In . SVG Version: 6.00 Build 0)  -->
<svg version="1.1" id="Layer_1" xmlns="http://www.w3.org/2000/svg" xmlns:xlink="http://www.w3.org/1999/xlink" x="0px" y="0px"
	 viewBox="0 0 103.68 58.1" style="enable-background:new 0 0 103.68 58.1;" xml:space="preserve">
<style type="text/css">
	.st0{fill:#F7F5F2;}
	.st1{fill:#F1EEE9;}
	.st2{fill:#A0926A;}
	.st3{fill:#0092B2;}
	.st4{fill:#1568A1;}
	.st5{fill:#FFFFFF;}
	.st6{fill:#2D77AA;}
	.st7{fill:#32A7C2;}
	.st8{fill:#AA9D78;}
	.st9{fill:#A1A94F;}
	.st10{fill:#8B9638;}
	.st11{fill:none;stroke:#A0926A;}
	.st12{fill:none;stroke:#FFFFFF;stroke-width:1.25;stroke-miterlimit:10;}
	.st13{fill:none;stroke:#000000;stroke-width:0.25;stroke-miterlimit:10;}
	.st14{fill:#DDDEE0;}
	.st15{fill:#E8F0F5;}
	.st16{fill:#D1E1EB;}
	.st17{fill:#F7F5F1;}
	.st18{fill:#ECE9E1;}
	.st19{fill:#F4F4E9;}
	.st20{fill:#E6F5F8;}
	.st21{fill:none;stroke:#FFFFFF;stroke-width:0.25;stroke-miterlimit:10;}
	.st22{fill:#282829;}
	.st23{fill:none;stroke:#FFFFFF;stroke-width:0.3;stroke-miterlimit:10;}
	.st24{fill:none;stroke:#FFFFFF;stroke-width:0.447;stroke-miterlimit:10;}
	.st25{fill:none;stroke:#FFFFFF;stroke-width:0.652;stroke-miterlimit:10;}
	.st26{fill:none;stroke:#FFFFFF;stroke-width:0.558;stroke-miterlimit:10;}
	.st27{fill:none;stroke:#FFFFFF;stroke-width:0.363;stroke-miterlimit:10;}
	.st28{fill:none;stroke:#FFFFFF;stroke-width:0.628;stroke-linecap:round;stroke-linejoin:round;stroke-miterlimit:22.926;}
	.st29{clip-path:url(#SVGID_2_);fill:#ECE9E1;}
	.st30{clip-path:url(#SVGID_2_);fill:#F7F5F1;}
	.st31{clip-path:url(#SVGID_2_);fill:#FFFFFF;}
	.st32{fill:none;stroke:#A0926A;stroke-width:1.5;}
	.st33{fill:none;stroke:#FFFFFF;stroke-width:0.333;stroke-miterlimit:10;}
	.st34{fill:none;stroke:#FFFFFF;stroke-width:0.497;stroke-miterlimit:10;}
	.st35{fill:none;stroke:#FFFFFF;stroke-width:0.724;stroke-miterlimit:10;}
	.st36{fill:none;stroke:#FFFFFF;stroke-width:0.62;stroke-miterlimit:10;}
	.st37{fill:none;stroke:#FFFFFF;stroke-width:0.4;stroke-miterlimit:10;}
	.st38{fill:none;stroke:#FFFFFF;stroke-width:0.403;stroke-miterlimit:10;}
	.st39{fill:#B4A888;}
	.st40{fill:none;stroke:#FFFFFF;stroke-miterlimit:10;}
	.st41{fill:none;stroke:#A0926A;stroke-width:1.19;stroke-linejoin:round;stroke-miterlimit:10;}
	.st42{fill:none;stroke:#A0926A;stroke-width:1.265;stroke-miterlimit:10;}
	.st43{fill:none;stroke:#A0926A;stroke-width:1.265;stroke-linecap:round;stroke-linejoin:round;stroke-miterlimit:10;}
	.st44{fill:none;stroke:#A0926A;stroke-width:1.265;stroke-linejoin:round;stroke-miterlimit:10;}
	.st45{fill:none;stroke:#A0926A;stroke-width:1.22;stroke-linecap:round;stroke-linejoin:round;stroke-miterlimit:22.926;}
	.st46{fill:none;stroke:#A0926A;stroke-width:1.314;stroke-linecap:round;stroke-linejoin:round;stroke-miterlimit:22.926;}
	.st47{clip-path:url(#SVGID_4_);}
	.st48{clip-path:url(#SVGID_4_);fill:#B4A888;}
	.st49{clip-path:url(#SVGID_4_);fill:#F7F5F1;}
	.st50{clip-path:url(#SVGID_4_);fill:#ECE9E1;}
	.st51{clip-path:url(#SVGID_4_);fill:none;stroke:#FFFFFF;stroke-miterlimit:10;}
	
		.st52{clip-path:url(#SVGID_8_);fill:none;stroke:#A0926A;stroke-width:1.148;stroke-linecap:round;stroke-linejoin:round;stroke-miterlimit:10;}
	
		.st53{clip-path:url(#SVGID_4_);fill:none;stroke:#A0926A;stroke-width:1.148;stroke-linecap:round;stroke-linejoin:round;stroke-miterlimit:10;stroke-dasharray:0.047,2.088;}
	
		.st54{clip-path:url(#SVGID_4_);fill:none;stroke:#A0926A;stroke-width:1.148;stroke-linecap:round;stroke-linejoin:round;stroke-miterlimit:10;}
	.st55{clip-path:url(#SVGID_4_);fill:#282829;}
	.st56{clip-path:url(#SVGID_10_);fill:none;stroke:#A0926A;stroke-width:1.397;stroke-miterlimit:10;}
	.st57{clip-path:url(#SVGID_10_);fill:none;stroke:#A0926A;stroke-width:1.397;stroke-linejoin:round;stroke-miterlimit:10;}
	
		.st58{clip-path:url(#SVGID_12_);fill:none;stroke:#A0926A;stroke-width:1.252;stroke-linecap:round;stroke-linejoin:round;stroke-miterlimit:10;}
	.st59{clip-path:url(#SVGID_14_);fill:none;stroke:#A0926A;stroke-width:1.2112;stroke-linejoin:round;stroke-miterlimit:10;}
	.st60{clip-path:url(#SVGID_16_);fill:none;stroke:#FFFFFF;stroke-width:1.25;stroke-miterlimit:10;}
	.st61{clip-path:url(#SVGID_16_);fill:none;stroke:#000000;stroke-width:0.25;stroke-miterlimit:10;}
	.st62{clip-path:url(#SVGID_16_);fill:none;stroke:#FFFFFF;stroke-width:0.4;stroke-miterlimit:10;}
	.st63{clip-path:url(#SVGID_18_);fill:none;stroke:#FFFFFF;stroke-width:0.4;stroke-miterlimit:10;}
</style>
<g>
	<g>
		<rect class="st9" width="103.68" height="58.1"/>
	</g>
	<g>
		<path class="st5" d="M4.46,14.59c0-0.33,0.07-0.58,0.21-0.76s0.34-0.26,0.6-0.26c0.26,0,0.46,0.09,0.6,0.26
			c0.14,0.17,0.21,0.42,0.21,0.75c0,0.32-0.07,0.57-0.21,0.75s-0.34,0.27-0.6,0.27c-0.25,0-0.45-0.09-0.6-0.26
			S4.46,14.92,4.46,14.59z"/>
	</g>
	<g>
		<path class="st5" d="M12.98,14.6c0,0.87-0.21,1.53-0.64,1.99c-0.43,0.46-1.04,0.69-1.84,0.69H9.2v-5.26h1.44
			c0.74,0,1.32,0.23,1.73,0.68S12.98,13.78,12.98,14.6z M12.18,14.63c0-1.26-0.52-1.89-1.56-1.89H9.96v3.82h0.54
			C11.62,16.56,12.18,15.92,12.18,14.63z"/>
		<path class="st5" d="M13.92,12.25c0-0.15,0.04-0.27,0.11-0.35c0.07-0.08,0.18-0.12,0.31-0.12c0.13,0,0.23,0.04,0.31,0.12
			c0.07,0.08,0.11,0.2,0.11,0.35c0,0.14-0.04,0.26-0.11,0.34c-0.07,0.08-0.18,0.13-0.31,0.13c-0.14,0-0.24-0.04-0.31-0.13
			C13.95,12.5,13.92,12.39,13.92,12.25z M14.71,17.28h-0.75V13.3h0.75V17.28z"/>
		<path class="st5" d="M18.2,16.15c0,0.39-0.13,0.69-0.38,0.89c-0.25,0.21-0.61,0.31-1.08,0.31c-0.47,0-0.85-0.08-1.13-0.24v-0.73
			c0.41,0.22,0.8,0.32,1.16,0.32c0.46,0,0.69-0.16,0.69-0.47c0-0.1-0.03-0.18-0.08-0.25c-0.05-0.07-0.13-0.14-0.25-0.21
			c-0.12-0.07-0.28-0.15-0.49-0.25c-0.41-0.18-0.68-0.36-0.82-0.53s-0.21-0.41-0.21-0.69c0-0.34,0.12-0.61,0.36-0.79
			c0.24-0.19,0.57-0.28,0.99-0.28c0.41,0,0.81,0.1,1.17,0.29l-0.24,0.64c-0.38-0.18-0.7-0.27-0.96-0.27c-0.39,0-0.59,0.13-0.59,0.38
			c0,0.13,0.05,0.23,0.15,0.32c0.1,0.09,0.33,0.21,0.67,0.36c0.29,0.13,0.5,0.24,0.63,0.35c0.13,0.11,0.23,0.23,0.29,0.37
			C18.17,15.79,18.2,15.96,18.2,16.15z"/>
		<path class="st5" d="M21.27,17.28l-0.15-0.55H21.1c-0.17,0.24-0.34,0.41-0.51,0.5c-0.17,0.09-0.39,0.13-0.66,0.13
			c-0.35,0-0.62-0.11-0.81-0.32c-0.19-0.21-0.29-0.51-0.29-0.9c0-0.41,0.13-0.72,0.4-0.93c0.27-0.21,0.68-0.32,1.23-0.34l0.61-0.02
			v-0.21c0-0.25-0.05-0.45-0.16-0.57s-0.27-0.19-0.49-0.19c-0.18,0-0.35,0.03-0.52,0.09c-0.17,0.06-0.32,0.13-0.48,0.21l-0.24-0.61
			c0.19-0.11,0.4-0.2,0.63-0.26s0.44-0.09,0.64-0.09c0.45,0,0.79,0.11,1.01,0.33c0.23,0.22,0.34,0.57,0.34,1.04v2.68H21.27z
			 M20.16,16.71c0.27,0,0.49-0.09,0.65-0.26c0.16-0.17,0.25-0.41,0.25-0.72v-0.35l-0.45,0.02c-0.35,0.01-0.61,0.08-0.77,0.2
			c-0.16,0.12-0.24,0.3-0.24,0.55c0,0.18,0.05,0.31,0.14,0.41C19.83,16.66,19.97,16.71,20.16,16.71z"/>
		<path class="st5" d="M25.28,16.15c0,0.39-0.13,0.69-0.38,0.89c-0.25,0.21-0.61,0.31-1.08,0.31c-0.47,0-0.85-0.08-1.13-0.24v-0.73
			c0.41,0.22,0.8,0.32,1.16,0.32c0.46,0,0.69-0.16,0.69-0.47c0-0.1-0.03-0.18-0.08-0.25c-0.05-0.07-0.13-0.14-0.25-0.21
			c-0.12-0.07-0.28-0.15-0.49-0.25c-0.41-0.18-0.68-0.36-0.82-0.53s-0.21-0.41-0.21-0.69c0-0.34,0.12-0.61,0.36-0.79
			c0.24-0.19,0.57-0.28,0.99-0.28c0.41,0,0.81,0.1,1.17,0.29l-0.24,0.64c-0.38-0.18-0.7-0.27-0.96-0.27c-0.39,0-0.59,0.13-0.59,0.38
			c0,0.13,0.05,0.23,0.15,0.32c0.1,0.09,0.33,0.21,0.67,0.36c0.29,0.13,0.5,0.24,0.63,0.35c0.13,0.11,0.23,0.23,0.29,0.37
			C25.24,15.79,25.28,15.96,25.28,16.15z"/>
		<path class="st5" d="M27.46,16.67c0.18,0,0.37-0.03,0.55-0.1v0.64c-0.08,0.04-0.19,0.08-0.32,0.1c-0.13,0.03-0.27,0.04-0.41,0.04
			c-0.71,0-1.06-0.42-1.06-1.27v-2.15h-0.48v-0.37l0.52-0.31l0.25-0.84h0.46v0.89h1v0.64h-1v2.13c0,0.2,0.05,0.36,0.14,0.45
			C27.19,16.62,27.31,16.67,27.46,16.67z"/>
		<path class="st5" d="M30.3,17.35c-0.55,0-0.98-0.18-1.28-0.54c-0.31-0.36-0.46-0.86-0.46-1.49c0-0.65,0.14-1.16,0.43-1.53
			s0.68-0.56,1.18-0.56c0.46,0,0.83,0.16,1.1,0.48s0.4,0.76,0.4,1.32v0.46h-2.35c0.01,0.39,0.1,0.68,0.28,0.89
			c0.17,0.21,0.42,0.31,0.74,0.31c0.21,0,0.4-0.02,0.58-0.07c0.18-0.04,0.37-0.12,0.58-0.22v0.69c-0.18,0.1-0.37,0.17-0.55,0.21
			C30.76,17.33,30.54,17.35,30.3,17.35z M30.17,13.87c-0.24,0-0.43,0.08-0.57,0.25c-0.14,0.17-0.23,0.42-0.26,0.75h1.6
			c0-0.33-0.07-0.58-0.21-0.75C30.59,13.95,30.4,13.87,30.17,13.87z"/>
		<path class="st5" d="M34.37,13.23c0.15,0,0.27,0.01,0.37,0.04l-0.07,0.79c-0.11-0.03-0.22-0.04-0.33-0.04
			c-0.3,0-0.54,0.11-0.73,0.33c-0.19,0.22-0.28,0.51-0.28,0.86v2.08h-0.75V13.3h0.59l0.1,0.7h0.04c0.12-0.24,0.27-0.43,0.46-0.57
			C33.95,13.3,34.15,13.23,34.37,13.23z"/>
		<path class="st5" d="M38.04,15.18v2.1h-0.76v-5.26h1.31c0.6,0,1.04,0.13,1.33,0.38c0.29,0.25,0.43,0.64,0.43,1.15
			c0,0.66-0.3,1.12-0.9,1.4l1.31,2.33h-0.87l-1.11-2.1H38.04z M38.04,14.47h0.53c0.35,0,0.61-0.07,0.77-0.22s0.24-0.37,0.24-0.66
			c0-0.3-0.09-0.51-0.26-0.64c-0.17-0.13-0.43-0.19-0.78-0.19h-0.5V14.47z"/>
		<path class="st5" d="M41.38,12.25c0-0.15,0.04-0.27,0.11-0.35c0.07-0.08,0.18-0.12,0.31-0.12c0.13,0,0.23,0.04,0.31,0.12
			c0.07,0.08,0.11,0.2,0.11,0.35c0,0.14-0.04,0.26-0.11,0.34c-0.07,0.08-0.18,0.13-0.31,0.13c-0.14,0-0.24-0.04-0.31-0.13
			C41.42,12.5,41.38,12.39,41.38,12.25z M42.17,17.28h-0.75V13.3h0.75V17.28z"/>
		<path class="st5" d="M45.67,16.15c0,0.39-0.13,0.69-0.38,0.89c-0.25,0.21-0.61,0.31-1.08,0.31c-0.47,0-0.85-0.08-1.13-0.24v-0.73
			c0.41,0.22,0.8,0.32,1.16,0.32c0.46,0,0.69-0.16,0.69-0.47c0-0.1-0.03-0.18-0.08-0.25c-0.05-0.07-0.13-0.14-0.25-0.21
			c-0.12-0.07-0.28-0.15-0.49-0.25c-0.41-0.18-0.68-0.36-0.82-0.53s-0.21-0.41-0.21-0.69c0-0.34,0.12-0.61,0.36-0.79
			c0.24-0.19,0.57-0.28,0.99-0.28c0.41,0,0.81,0.1,1.17,0.29l-0.24,0.64c-0.38-0.18-0.7-0.27-0.96-0.27c-0.39,0-0.59,0.13-0.59,0.38
			c0,0.13,0.05,0.23,0.15,0.32c0.1,0.09,0.33,0.21,0.67,0.36c0.29,0.13,0.5,0.24,0.63,0.35c0.13,0.11,0.23,0.23,0.29,0.37
			C45.64,15.79,45.67,15.96,45.67,16.15z"/>
		<path class="st5" d="M47.26,15.18l0.42-0.6l1.06-1.28h0.86l-1.42,1.71l1.51,2.27h-0.88l-1.13-1.75l-0.41,0.38v1.36h-0.74v-5.6
			h0.74v2.73l-0.04,0.77H47.26z"/>
		<path class="st5" d="M52.91,15.18v2.1h-0.76v-5.26h1.31c0.6,0,1.04,0.13,1.33,0.38c0.29,0.25,0.43,0.64,0.43,1.15
			c0,0.66-0.3,1.12-0.9,1.4l1.31,2.33h-0.87l-1.11-2.1H52.91z M52.91,14.47h0.53c0.35,0,0.61-0.07,0.77-0.22s0.24-0.37,0.24-0.66
			c0-0.3-0.09-0.51-0.26-0.64c-0.17-0.13-0.43-0.19-0.78-0.19h-0.5V14.47z"/>
		<path class="st5" d="M57.84,17.35c-0.55,0-0.98-0.18-1.28-0.54c-0.31-0.36-0.46-0.86-0.46-1.49c0-0.65,0.14-1.16,0.43-1.53
			s0.68-0.56,1.18-0.56c0.46,0,0.83,0.16,1.1,0.48s0.4,0.76,0.4,1.32v0.46h-2.35c0.01,0.39,0.1,0.68,0.28,0.89
			c0.17,0.21,0.42,0.31,0.74,0.31c0.21,0,0.4-0.02,0.58-0.07c0.18-0.04,0.37-0.12,0.58-0.22v0.69c-0.18,0.1-0.37,0.17-0.55,0.21
			C58.29,17.33,58.08,17.35,57.84,17.35z M57.7,13.87c-0.24,0-0.43,0.08-0.57,0.25c-0.14,0.17-0.23,0.42-0.26,0.75h1.6
			c0-0.33-0.07-0.58-0.21-0.75C58.12,13.95,57.94,13.87,57.7,13.87z"/>
		<path class="st5" d="M61.3,17.35c-0.44,0-0.78-0.18-1.03-0.54c-0.25-0.36-0.37-0.87-0.37-1.52c0-0.65,0.12-1.16,0.37-1.52
			s0.59-0.55,1.04-0.55c0.46,0,0.81,0.19,1.06,0.58h0.04c-0.04-0.29-0.05-0.51-0.05-0.68v-1.45h0.75v5.6h-0.59l-0.13-0.52h-0.04
			C62.12,17.16,61.76,17.35,61.3,17.35z M61.5,16.67c0.31,0,0.53-0.1,0.67-0.29s0.21-0.51,0.22-0.95v-0.12
			c0-0.5-0.07-0.86-0.22-1.07c-0.14-0.21-0.37-0.32-0.68-0.32c-0.26,0-0.47,0.12-0.61,0.36c-0.14,0.24-0.21,0.58-0.21,1.03
			c0,0.44,0.07,0.78,0.21,1.01C61.02,16.55,61.23,16.67,61.5,16.67z"/>
		<path class="st5" d="M66.72,17.28l-0.1-0.52h-0.04c-0.1,0.18-0.25,0.33-0.44,0.44c-0.19,0.11-0.41,0.16-0.66,0.16
			c-0.43,0-0.74-0.12-0.96-0.36c-0.21-0.24-0.31-0.6-0.31-1.09v-2.6h0.75v2.46c0,0.3,0.06,0.53,0.17,0.69s0.28,0.23,0.52,0.23
			c0.31,0,0.54-0.11,0.69-0.32c0.15-0.21,0.22-0.57,0.22-1.07V13.3h0.75v3.98H66.72z"/>
		<path class="st5" d="M69.85,17.35c-0.53,0-0.94-0.18-1.21-0.53s-0.42-0.86-0.42-1.51c0-0.67,0.15-1.18,0.43-1.54
			c0.29-0.36,0.71-0.54,1.26-0.54c0.37,0,0.71,0.08,1,0.23l-0.23,0.68c-0.32-0.14-0.58-0.21-0.78-0.21c-0.61,0-0.91,0.46-0.91,1.37
			c0,0.45,0.08,0.78,0.23,1.01c0.15,0.22,0.37,0.34,0.67,0.34c0.33,0,0.65-0.09,0.95-0.28v0.74c-0.13,0.09-0.28,0.15-0.43,0.19
			C70.25,17.33,70.07,17.35,69.85,17.35z"/>
		<path class="st5" d="M73.03,16.67c0.18,0,0.37-0.03,0.55-0.1v0.64c-0.08,0.04-0.19,0.08-0.32,0.1c-0.13,0.03-0.27,0.04-0.41,0.04
			c-0.71,0-1.06-0.42-1.06-1.27v-2.15h-0.48v-0.37l0.52-0.31l0.25-0.84h0.46v0.89h1v0.64h-1v2.13c0,0.2,0.05,0.36,0.14,0.45
			C72.77,16.62,72.88,16.67,73.03,16.67z"/>
		<path class="st5" d="M74.3,12.25c0-0.15,0.04-0.27,0.11-0.35c0.07-0.08,0.18-0.12,0.31-0.12c0.13,0,0.23,0.04,0.31,0.12
			c0.07,0.08,0.11,0.2,0.11,0.35c0,0.14-0.04,0.26-0.11,0.34c-0.07,0.08-0.18,0.13-0.31,0.13c-0.14,0-0.24-0.04-0.31-0.13
			C74.33,12.5,74.3,12.39,74.3,12.25z M75.09,17.28h-0.75V13.3h0.75V17.28z"/>
		<path class="st5" d="M79.34,15.28c0,0.65-0.15,1.16-0.44,1.52c-0.29,0.37-0.71,0.55-1.23,0.55c-0.33,0-0.62-0.08-0.87-0.25
			s-0.45-0.41-0.58-0.72s-0.2-0.68-0.2-1.09c0-0.65,0.15-1.15,0.44-1.51c0.29-0.36,0.71-0.54,1.24-0.54c0.51,0,0.91,0.19,1.21,0.56
			C79.19,14.16,79.34,14.66,79.34,15.28z M76.78,15.28c0,0.92,0.3,1.38,0.9,1.38c0.59,0,0.89-0.46,0.89-1.38
			c0-0.91-0.3-1.36-0.9-1.36c-0.31,0-0.54,0.12-0.68,0.35C76.85,14.51,76.78,14.85,76.78,15.28z"/>
		<path class="st5" d="M83.35,17.28H82.6v-2.45c0-0.31-0.05-0.54-0.16-0.69c-0.11-0.15-0.28-0.23-0.52-0.23
			c-0.32,0-0.55,0.11-0.69,0.32c-0.15,0.21-0.22,0.56-0.22,1.06v1.98h-0.75V13.3h0.59l0.1,0.52h0.04c0.11-0.19,0.26-0.34,0.45-0.44
			s0.41-0.16,0.65-0.16c0.84,0,1.27,0.49,1.27,1.46V17.28z"/>
	</g>
	<g>
		<path class="st5" d="M11.32,26.13l-0.15-0.55h-0.03c-0.17,0.24-0.34,0.41-0.51,0.5c-0.17,0.09-0.39,0.13-0.66,0.13
			c-0.35,0-0.62-0.11-0.81-0.32c-0.19-0.21-0.29-0.51-0.29-0.9c0-0.41,0.13-0.72,0.4-0.93c0.27-0.21,0.68-0.32,1.23-0.34l0.61-0.02
			v-0.21c0-0.25-0.05-0.45-0.16-0.57s-0.27-0.19-0.49-0.19c-0.18,0-0.35,0.03-0.52,0.09c-0.17,0.06-0.32,0.13-0.48,0.21l-0.24-0.61
			c0.19-0.11,0.4-0.2,0.63-0.26s0.44-0.09,0.64-0.09c0.45,0,0.79,0.11,1.01,0.33c0.23,0.22,0.34,0.57,0.34,1.04v2.68H11.32z
			 M10.21,25.55c0.27,0,0.49-0.09,0.65-0.26c0.16-0.17,0.25-0.41,0.25-0.72v-0.35l-0.45,0.02c-0.35,0.01-0.61,0.08-0.77,0.2
			c-0.16,0.12-0.24,0.3-0.24,0.55c0,0.18,0.05,0.31,0.14,0.41C9.88,25.5,10.02,25.55,10.21,25.55z"/>
		<path class="st5" d="M16.06,26.13h-0.75v-2.45c0-0.31-0.05-0.54-0.16-0.69c-0.11-0.15-0.28-0.23-0.52-0.23
			c-0.32,0-0.55,0.11-0.69,0.32c-0.15,0.21-0.22,0.56-0.22,1.06v1.98h-0.75v-3.98h0.59l0.1,0.52h0.04c0.11-0.19,0.26-0.34,0.45-0.44
			s0.41-0.16,0.65-0.16c0.84,0,1.27,0.49,1.27,1.46V26.13z"/>
		<path class="st5" d="M18.34,26.2c-0.44,0-0.78-0.18-1.03-0.54c-0.25-0.36-0.37-0.87-0.37-1.52c0-0.65,0.12-1.16,0.37-1.52
			s0.59-0.55,1.04-0.55c0.46,0,0.81,0.19,1.06,0.58h0.04c-0.04-0.29-0.05-0.51-0.05-0.68v-1.45h0.75v5.6h-0.59l-0.13-0.52H19.4
			C19.16,26,18.81,26.2,18.34,26.2z M18.54,25.52c0.31,0,0.53-0.1,0.67-0.29s0.21-0.51,0.22-0.95v-0.12c0-0.5-0.07-0.86-0.22-1.07
			c-0.14-0.21-0.37-0.32-0.68-0.32c-0.26,0-0.47,0.12-0.61,0.36c-0.14,0.24-0.21,0.58-0.21,1.03c0,0.44,0.07,0.78,0.21,1.01
			C18.06,25.4,18.27,25.52,18.54,25.52z"/>
		<path class="st5" d="M23.87,24.03v2.1h-0.76v-5.26h1.31c0.6,0,1.04,0.13,1.33,0.38c0.29,0.25,0.43,0.64,0.43,1.15
			c0,0.66-0.3,1.12-0.9,1.4l1.31,2.33h-0.87l-1.11-2.1H23.87z M23.87,23.31h0.53c0.35,0,0.61-0.07,0.77-0.22s0.24-0.37,0.24-0.66
			c0-0.3-0.09-0.51-0.26-0.64c-0.17-0.13-0.43-0.19-0.78-0.19h-0.5V23.31z"/>
		<path class="st5" d="M28.79,26.2c-0.55,0-0.98-0.18-1.28-0.54c-0.31-0.36-0.46-0.86-0.46-1.49c0-0.65,0.14-1.16,0.43-1.53
			s0.68-0.56,1.18-0.56c0.46,0,0.83,0.16,1.1,0.48s0.4,0.76,0.4,1.32v0.46h-2.35c0.01,0.39,0.1,0.68,0.28,0.89
			c0.17,0.21,0.42,0.31,0.74,0.31c0.21,0,0.4-0.02,0.58-0.07c0.18-0.04,0.37-0.12,0.58-0.22v0.69c-0.18,0.1-0.37,0.17-0.55,0.21
			C29.25,26.18,29.03,26.2,28.79,26.2z M28.66,22.72c-0.24,0-0.43,0.08-0.57,0.25c-0.14,0.17-0.23,0.42-0.26,0.75h1.6
			c0-0.33-0.07-0.58-0.21-0.75C29.08,22.8,28.89,22.72,28.66,22.72z"/>
		<path class="st5" d="M33.43,24.99c0,0.39-0.13,0.69-0.38,0.89c-0.25,0.21-0.61,0.31-1.08,0.31c-0.47,0-0.85-0.08-1.13-0.24v-0.73
			c0.41,0.22,0.8,0.32,1.16,0.32c0.46,0,0.69-0.16,0.69-0.47c0-0.1-0.03-0.18-0.08-0.25c-0.05-0.07-0.13-0.14-0.25-0.21
			c-0.12-0.07-0.28-0.15-0.49-0.25c-0.41-0.18-0.68-0.36-0.82-0.53s-0.21-0.41-0.21-0.69c0-0.34,0.12-0.61,0.36-0.79
			c0.24-0.19,0.57-0.28,0.99-0.28c0.41,0,0.81,0.1,1.17,0.29L33.14,23c-0.38-0.18-0.7-0.27-0.96-0.27c-0.39,0-0.59,0.13-0.59,0.38
			c0,0.13,0.05,0.23,0.15,0.32c0.1,0.09,0.33,0.21,0.67,0.36c0.29,0.13,0.5,0.24,0.63,0.35c0.13,0.11,0.23,0.23,0.29,0.37
			C33.4,24.64,33.43,24.8,33.43,24.99z"/>
		<path class="st5" d="M34.26,21.09c0-0.15,0.04-0.27,0.11-0.35c0.07-0.08,0.18-0.12,0.31-0.12c0.13,0,0.23,0.04,0.31,0.12
			c0.07,0.08,0.11,0.2,0.11,0.35c0,0.14-0.04,0.26-0.11,0.34c-0.07,0.08-0.18,0.13-0.31,0.13c-0.14,0-0.24-0.04-0.31-0.13
			C34.29,21.35,34.26,21.24,34.26,21.09z M35.05,26.13H34.3v-3.98h0.75V26.13z"/>
		<path class="st5" d="M36.93,26.13h-0.75v-5.6h0.75V26.13z"/>
		<path class="st5" d="M38.01,21.09c0-0.15,0.04-0.27,0.11-0.35c0.07-0.08,0.18-0.12,0.31-0.12c0.13,0,0.23,0.04,0.31,0.12
			c0.07,0.08,0.11,0.2,0.11,0.35c0,0.14-0.04,0.26-0.11,0.34c-0.07,0.08-0.18,0.13-0.31,0.13c-0.14,0-0.24-0.04-0.31-0.13
			C38.05,21.35,38.01,21.24,38.01,21.09z M38.8,26.13h-0.75v-3.98h0.75V26.13z"/>
		<path class="st5" d="M41.47,26.2c-0.55,0-0.98-0.18-1.28-0.54c-0.31-0.36-0.46-0.86-0.46-1.49c0-0.65,0.14-1.16,0.43-1.53
			s0.68-0.56,1.18-0.56c0.46,0,0.83,0.16,1.1,0.48s0.4,0.76,0.4,1.32v0.46h-2.35c0.01,0.39,0.1,0.68,0.28,0.89
			c0.17,0.21,0.42,0.31,0.74,0.31c0.21,0,0.4-0.02,0.58-0.07c0.18-0.04,0.37-0.12,0.58-0.22v0.69c-0.18,0.1-0.37,0.17-0.55,0.21
			C41.92,26.18,41.71,26.2,41.47,26.2z M41.33,22.72c-0.24,0-0.43,0.08-0.57,0.25c-0.14,0.17-0.23,0.42-0.26,0.75h1.6
			c0-0.33-0.07-0.58-0.21-0.75C41.76,22.8,41.57,22.72,41.33,22.72z"/>
		<path class="st5" d="M46.84,26.13h-0.75v-2.45c0-0.31-0.05-0.54-0.16-0.69c-0.11-0.15-0.28-0.23-0.52-0.23
			c-0.32,0-0.55,0.11-0.69,0.32c-0.15,0.21-0.22,0.56-0.22,1.06v1.98h-0.75v-3.98h0.59l0.1,0.52h0.04c0.11-0.19,0.26-0.34,0.45-0.44
			s0.41-0.16,0.65-0.16c0.84,0,1.27,0.49,1.27,1.46V26.13z"/>
		<path class="st5" d="M49.36,26.2c-0.53,0-0.94-0.18-1.21-0.53s-0.42-0.86-0.42-1.51c0-0.67,0.15-1.18,0.43-1.54
			c0.29-0.36,0.71-0.54,1.26-0.54c0.37,0,0.71,0.08,1,0.23l-0.23,0.68c-0.32-0.14-0.58-0.21-0.78-0.21c-0.61,0-0.91,0.46-0.91,1.37
			c0,0.45,0.08,0.78,0.23,1.01c0.15,0.22,0.37,0.34,0.67,0.34c0.33,0,0.65-0.09,0.95-0.28v0.74c-0.13,0.09-0.28,0.15-0.43,0.19
			C49.76,26.18,49.58,26.2,49.36,26.2z"/>
		<path class="st5" d="M50.69,22.15h0.81l0.72,2.26c0.11,0.32,0.18,0.62,0.22,0.91h0.03c0.02-0.13,0.05-0.29,0.1-0.48
			c0.05-0.19,0.32-1.08,0.81-2.68h0.81l-1.51,4.51c-0.27,0.83-0.73,1.24-1.37,1.24c-0.17,0-0.33-0.02-0.48-0.06v-0.67
			c0.11,0.03,0.24,0.04,0.39,0.04c0.36,0,0.61-0.24,0.76-0.71l0.13-0.37L50.69,22.15z"/>
	</g>
	<g>
		<path class="st5" d="M4.46,32.28c0-0.33,0.07-0.58,0.21-0.76s0.34-0.26,0.6-0.26c0.26,0,0.46,0.09,0.6,0.26
			C6,31.7,6.07,31.95,6.07,32.28c0,0.32-0.07,0.57-0.21,0.75s-0.34,0.27-0.6,0.27c-0.25,0-0.45-0.09-0.6-0.26S4.46,32.61,4.46,32.28
			z"/>
	</g>
	<g>
		<path class="st5" d="M11.18,30.37c-0.44,0-0.78,0.18-1.03,0.53c-0.25,0.35-0.38,0.83-0.38,1.45c0,0.65,0.12,1.13,0.36,1.46
			c0.24,0.33,0.59,0.5,1.05,0.5c0.2,0,0.39-0.02,0.57-0.07c0.18-0.04,0.38-0.1,0.58-0.17v0.74c-0.37,0.16-0.78,0.23-1.24,0.23
			c-0.68,0-1.2-0.23-1.57-0.7c-0.36-0.47-0.55-1.13-0.55-2c0-0.55,0.09-1.03,0.27-1.44c0.18-0.41,0.43-0.72,0.77-0.94
			c0.33-0.22,0.73-0.33,1.18-0.33c0.48,0,0.91,0.11,1.32,0.34l-0.27,0.72c-0.16-0.08-0.32-0.16-0.5-0.22
			C11.56,30.41,11.37,30.37,11.18,30.37z"/>
		<path class="st5" d="M14.06,34.98h-0.75v-5.6h0.75V34.98z"/>
		<path class="st5" d="M15.14,29.94c0-0.15,0.04-0.27,0.11-0.35c0.07-0.08,0.18-0.12,0.31-0.12c0.13,0,0.23,0.04,0.31,0.12
			c0.07,0.08,0.11,0.2,0.11,0.35c0,0.14-0.04,0.26-0.11,0.34c-0.07,0.08-0.18,0.13-0.31,0.13c-0.14,0-0.24-0.04-0.31-0.13
			C15.18,30.2,15.14,30.08,15.14,29.94z M15.93,34.98h-0.75v-3.98h0.75V34.98z"/>
		<path class="st5" d="M20.03,34.98h-0.75v-2.46c0-0.3-0.05-0.53-0.15-0.68c-0.1-0.15-0.26-0.23-0.48-0.23
			c-0.29,0-0.5,0.11-0.64,0.32c-0.13,0.21-0.2,0.57-0.2,1.06v1.98h-0.75v-3.98h0.59l0.1,0.52h0.04c0.1-0.19,0.24-0.34,0.42-0.44
			c0.19-0.1,0.39-0.16,0.61-0.16c0.54,0,0.9,0.21,1.08,0.63h0.05c0.1-0.2,0.25-0.35,0.44-0.46s0.41-0.17,0.65-0.17
			c0.42,0,0.73,0.12,0.92,0.36c0.19,0.24,0.29,0.61,0.29,1.1v2.6H21.5v-2.46c0-0.3-0.05-0.53-0.15-0.68
			c-0.1-0.15-0.26-0.23-0.48-0.23c-0.29,0-0.5,0.1-0.64,0.31s-0.2,0.52-0.2,0.95V34.98z"/>
		<path class="st5" d="M25.56,34.98l-0.15-0.55h-0.03c-0.17,0.24-0.34,0.41-0.51,0.5c-0.17,0.09-0.39,0.13-0.66,0.13
			c-0.35,0-0.62-0.11-0.81-0.32c-0.19-0.21-0.29-0.51-0.29-0.9c0-0.41,0.13-0.72,0.4-0.93c0.27-0.21,0.68-0.32,1.23-0.34l0.61-0.02
			v-0.21c0-0.25-0.05-0.45-0.16-0.57s-0.27-0.19-0.49-0.19c-0.18,0-0.35,0.03-0.52,0.09c-0.17,0.06-0.32,0.13-0.48,0.21l-0.24-0.61
			c0.19-0.11,0.4-0.2,0.63-0.26s0.44-0.09,0.64-0.09c0.45,0,0.79,0.11,1.01,0.33c0.23,0.22,0.34,0.57,0.34,1.04v2.68H25.56z
			 M24.44,34.4c0.27,0,0.49-0.09,0.65-0.26c0.16-0.17,0.25-0.41,0.25-0.72v-0.35l-0.45,0.02c-0.35,0.01-0.61,0.08-0.77,0.2
			c-0.16,0.12-0.24,0.3-0.24,0.55c0,0.18,0.05,0.31,0.14,0.41C24.12,34.35,24.26,34.4,24.44,34.4z"/>
		<path class="st5" d="M28.51,34.36c0.18,0,0.37-0.03,0.55-0.1v0.64c-0.08,0.04-0.19,0.08-0.32,0.1c-0.13,0.03-0.27,0.04-0.41,0.04
			c-0.71,0-1.06-0.42-1.06-1.27v-2.15h-0.48v-0.37l0.52-0.31l0.25-0.84h0.46v0.89h1v0.64h-1v2.13c0,0.2,0.05,0.36,0.14,0.45
			C28.24,34.32,28.36,34.36,28.51,34.36z"/>
		<path class="st5" d="M31.35,35.05c-0.55,0-0.98-0.18-1.28-0.54c-0.31-0.36-0.46-0.86-0.46-1.49c0-0.65,0.14-1.16,0.43-1.53
			s0.68-0.56,1.18-0.56c0.46,0,0.83,0.16,1.1,0.48s0.4,0.76,0.4,1.32v0.46h-2.35c0.01,0.39,0.1,0.68,0.28,0.89
			c0.17,0.21,0.42,0.31,0.74,0.31c0.21,0,0.4-0.02,0.58-0.07c0.18-0.04,0.37-0.12,0.58-0.22v0.69c-0.18,0.1-0.37,0.17-0.55,0.21
			C31.81,35.03,31.59,35.05,31.35,35.05z M31.22,31.56c-0.24,0-0.43,0.08-0.57,0.25c-0.14,0.17-0.23,0.42-0.26,0.75h1.6
			c0-0.33-0.07-0.58-0.21-0.75C31.64,31.65,31.45,31.56,31.22,31.56z"/>
		<path class="st5" d="M37.44,30.37c-0.44,0-0.78,0.18-1.03,0.53c-0.25,0.35-0.38,0.83-0.38,1.45c0,0.65,0.12,1.13,0.36,1.46
			c0.24,0.33,0.59,0.5,1.05,0.5c0.2,0,0.39-0.02,0.57-0.07c0.18-0.04,0.38-0.1,0.58-0.17v0.74c-0.37,0.16-0.78,0.23-1.24,0.23
			c-0.68,0-1.2-0.23-1.57-0.7c-0.36-0.47-0.55-1.13-0.55-2c0-0.55,0.09-1.03,0.27-1.44c0.18-0.41,0.43-0.72,0.77-0.94
			c0.33-0.22,0.73-0.33,1.18-0.33c0.48,0,0.91,0.11,1.32,0.34l-0.27,0.72c-0.16-0.08-0.32-0.16-0.5-0.22
			C37.82,30.41,37.64,30.37,37.44,30.37z"/>
		<path class="st5" d="M42.67,34.98h-0.75v-2.45c0-0.31-0.05-0.54-0.16-0.69c-0.11-0.15-0.28-0.23-0.52-0.23
			c-0.31,0-0.54,0.11-0.69,0.32c-0.15,0.21-0.22,0.57-0.22,1.07v1.98h-0.75v-5.6h0.75v1.42c0,0.23-0.01,0.47-0.04,0.73h0.05
			c0.1-0.19,0.24-0.34,0.42-0.45c0.18-0.11,0.39-0.16,0.64-0.16c0.85,0,1.28,0.49,1.28,1.46V34.98z"/>
		<path class="st5" d="M45.97,34.98l-0.15-0.55H45.8c-0.17,0.24-0.34,0.41-0.51,0.5c-0.17,0.09-0.39,0.13-0.66,0.13
			c-0.35,0-0.62-0.11-0.81-0.32c-0.19-0.21-0.29-0.51-0.29-0.9c0-0.41,0.13-0.72,0.4-0.93c0.27-0.21,0.68-0.32,1.23-0.34l0.61-0.02
			v-0.21c0-0.25-0.05-0.45-0.16-0.57s-0.27-0.19-0.49-0.19c-0.18,0-0.35,0.03-0.52,0.09c-0.17,0.06-0.32,0.13-0.48,0.21l-0.24-0.61
			c0.19-0.11,0.4-0.2,0.63-0.26s0.44-0.09,0.64-0.09c0.45,0,0.79,0.11,1.01,0.33c0.23,0.22,0.34,0.57,0.34,1.04v2.68H45.97z
			 M44.86,34.4c0.27,0,0.49-0.09,0.65-0.26c0.16-0.17,0.25-0.41,0.25-0.72v-0.35l-0.45,0.02c-0.35,0.01-0.61,0.08-0.77,0.2
			c-0.16,0.12-0.24,0.3-0.24,0.55c0,0.18,0.05,0.31,0.14,0.41C44.53,34.35,44.67,34.4,44.86,34.4z"/>
		<path class="st5" d="M50.71,34.98h-0.75v-2.45c0-0.31-0.05-0.54-0.16-0.69c-0.11-0.15-0.28-0.23-0.52-0.23
			c-0.32,0-0.55,0.11-0.69,0.32c-0.15,0.21-0.22,0.56-0.22,1.06v1.98h-0.75v-3.98h0.59l0.1,0.52h0.04c0.11-0.19,0.26-0.34,0.45-0.44
			s0.41-0.16,0.65-0.16c0.84,0,1.27,0.49,1.27,1.46V34.98z"/>
		<path class="st5" d="M54.78,30.99v0.46l-0.6,0.13c0.06,0.08,0.1,0.19,0.14,0.31c0.04,0.12,0.05,0.25,0.05,0.39
			c0,0.41-0.13,0.73-0.38,0.97c-0.25,0.24-0.6,0.35-1.03,0.35c-0.11,0-0.21-0.01-0.31-0.03c-0.16,0.11-0.24,0.25-0.24,0.4
			c0,0.09,0.04,0.16,0.11,0.21c0.08,0.04,0.21,0.07,0.42,0.07h0.61c0.39,0,0.68,0.09,0.89,0.28c0.2,0.19,0.3,0.46,0.3,0.81
			c0,0.45-0.16,0.8-0.49,1.04c-0.33,0.24-0.8,0.37-1.43,0.37c-0.48,0-0.85-0.1-1.1-0.29c-0.25-0.19-0.38-0.47-0.38-0.82
			c0-0.24,0.07-0.45,0.21-0.62c0.14-0.17,0.33-0.28,0.57-0.35c-0.1-0.05-0.18-0.13-0.25-0.23c-0.06-0.11-0.1-0.22-0.1-0.34
			c0-0.15,0.04-0.27,0.11-0.38s0.18-0.21,0.33-0.31c-0.18-0.09-0.33-0.23-0.44-0.43c-0.11-0.2-0.17-0.43-0.17-0.7
			c0-0.43,0.12-0.77,0.36-1c0.24-0.24,0.58-0.36,1.03-0.36c0.1,0,0.2,0.01,0.31,0.02s0.19,0.03,0.25,0.05H54.78z M52.01,35.59
			c0,0.18,0.07,0.32,0.22,0.42c0.15,0.1,0.35,0.15,0.61,0.15c0.41,0,0.71-0.07,0.91-0.2s0.3-0.31,0.3-0.53
			c0-0.17-0.05-0.3-0.16-0.37s-0.31-0.11-0.61-0.11h-0.57c-0.21,0-0.38,0.06-0.51,0.17C52.08,35.25,52.01,35.4,52.01,35.59z
			 M52.34,32.28c0,0.25,0.06,0.44,0.17,0.58c0.11,0.13,0.28,0.2,0.49,0.2c0.43,0,0.65-0.26,0.65-0.79c0-0.26-0.05-0.46-0.16-0.6
			c-0.11-0.14-0.27-0.21-0.49-0.21c-0.22,0-0.38,0.07-0.49,0.21C52.39,31.81,52.34,32.02,52.34,32.28z"/>
		<path class="st5" d="M57.03,35.05c-0.55,0-0.98-0.18-1.28-0.54c-0.31-0.36-0.46-0.86-0.46-1.49c0-0.65,0.14-1.16,0.43-1.53
			s0.68-0.56,1.18-0.56c0.46,0,0.83,0.16,1.1,0.48s0.4,0.76,0.4,1.32v0.46h-2.35c0.01,0.39,0.1,0.68,0.28,0.89
			c0.17,0.21,0.42,0.31,0.74,0.31c0.21,0,0.4-0.02,0.58-0.07c0.18-0.04,0.37-0.12,0.58-0.22v0.69c-0.18,0.1-0.37,0.17-0.55,0.21
			C57.48,35.03,57.27,35.05,57.03,35.05z M56.89,31.56c-0.24,0-0.43,0.08-0.57,0.25c-0.14,0.17-0.23,0.42-0.26,0.75h1.6
			c0-0.33-0.07-0.58-0.21-0.75C57.32,31.65,57.13,31.56,56.89,31.56z"/>
	</g>
	<g>
		<path class="st5" d="M12.09,43.82l-0.46-1.46H9.84l-0.46,1.46h-0.8l1.74-5.28h0.83l1.74,5.28H12.09z M11.42,41.62l-0.44-1.43
			c-0.03-0.1-0.08-0.25-0.13-0.45c-0.06-0.21-0.1-0.36-0.12-0.45c-0.06,0.29-0.14,0.62-0.25,0.97l-0.42,1.37H11.42z"/>
		<path class="st5" d="M14.91,43.89c-0.53,0-0.94-0.18-1.21-0.53s-0.42-0.86-0.42-1.51c0-0.67,0.15-1.18,0.43-1.54
			c0.29-0.36,0.71-0.54,1.26-0.54c0.37,0,0.71,0.08,1,0.23l-0.23,0.68c-0.32-0.14-0.58-0.21-0.78-0.21c-0.61,0-0.91,0.46-0.91,1.37
			c0,0.45,0.08,0.78,0.23,1.01c0.15,0.22,0.37,0.34,0.67,0.34c0.33,0,0.65-0.09,0.95-0.28v0.74c-0.13,0.09-0.28,0.15-0.43,0.19
			C15.31,43.87,15.12,43.89,14.91,43.89z"/>
		<path class="st5" d="M18.09,43.21c0.18,0,0.37-0.03,0.55-0.1v0.64c-0.08,0.04-0.19,0.08-0.32,0.1c-0.13,0.03-0.27,0.04-0.41,0.04
			c-0.71,0-1.06-0.42-1.06-1.27v-2.15h-0.48v-0.37l0.52-0.31l0.25-0.84h0.46v0.89h1v0.64h-1v2.13c0,0.2,0.05,0.36,0.14,0.45
			C17.82,43.16,17.94,43.21,18.09,43.21z"/>
		<path class="st5" d="M19.35,38.79c0-0.15,0.04-0.27,0.11-0.35c0.07-0.08,0.18-0.12,0.31-0.12c0.13,0,0.23,0.04,0.31,0.12
			c0.07,0.08,0.11,0.2,0.11,0.35c0,0.14-0.04,0.26-0.11,0.34c-0.07,0.08-0.18,0.13-0.31,0.13c-0.14,0-0.24-0.04-0.31-0.13
			C19.39,39.04,19.35,38.93,19.35,38.79z M20.14,43.82H19.4v-3.98h0.75V43.82z"/>
		<path class="st5" d="M24.4,41.82c0,0.65-0.15,1.16-0.44,1.52c-0.29,0.37-0.71,0.55-1.23,0.55c-0.33,0-0.62-0.08-0.87-0.25
			s-0.45-0.41-0.58-0.72s-0.2-0.68-0.2-1.09c0-0.65,0.15-1.15,0.44-1.51c0.29-0.36,0.71-0.54,1.24-0.54c0.51,0,0.91,0.19,1.21,0.56
			C24.25,40.7,24.4,41.2,24.4,41.82z M21.83,41.82c0,0.92,0.3,1.38,0.9,1.38c0.59,0,0.89-0.46,0.89-1.38c0-0.91-0.3-1.36-0.9-1.36
			c-0.31,0-0.54,0.12-0.68,0.35C21.9,41.05,21.83,41.39,21.83,41.82z"/>
		<path class="st5" d="M28.41,43.82h-0.75v-2.45c0-0.31-0.05-0.54-0.16-0.69c-0.11-0.15-0.28-0.23-0.52-0.23
			c-0.32,0-0.55,0.11-0.69,0.32c-0.15,0.21-0.22,0.56-0.22,1.06v1.98h-0.75v-3.98h0.59l0.1,0.52h0.04c0.11-0.19,0.26-0.34,0.45-0.44
			s0.41-0.16,0.65-0.16c0.84,0,1.27,0.49,1.27,1.46V43.82z"/>
		<path class="st5" d="M34.42,40.15c0,0.55-0.16,0.97-0.48,1.26s-0.77,0.44-1.36,0.44H32.1v1.97h-0.76v-5.26h1.34
			c0.58,0,1.02,0.13,1.31,0.4S34.42,39.63,34.42,40.15z M32.1,41.13h0.4c0.39,0,0.68-0.08,0.86-0.23c0.18-0.15,0.27-0.39,0.27-0.72
			c0-0.3-0.08-0.53-0.25-0.68c-0.16-0.15-0.42-0.22-0.76-0.22H32.1V41.13z"/>
		<path class="st5" d="M36.08,43.82h-0.75v-5.6h0.75V43.82z"/>
		<path class="st5" d="M39.41,43.82l-0.15-0.55h-0.03c-0.17,0.24-0.34,0.41-0.51,0.5c-0.17,0.09-0.39,0.13-0.66,0.13
			c-0.35,0-0.62-0.11-0.81-0.32c-0.19-0.21-0.29-0.51-0.29-0.9c0-0.41,0.13-0.72,0.4-0.93c0.27-0.21,0.68-0.32,1.23-0.34l0.61-0.02
			v-0.21c0-0.25-0.05-0.45-0.16-0.57s-0.27-0.19-0.49-0.19c-0.18,0-0.35,0.03-0.52,0.09c-0.17,0.06-0.32,0.13-0.48,0.21l-0.24-0.61
			c0.19-0.11,0.4-0.2,0.63-0.26s0.44-0.09,0.64-0.09c0.45,0,0.79,0.11,1.01,0.33c0.23,0.22,0.34,0.57,0.34,1.04v2.68H39.41z
			 M38.3,43.25c0.27,0,0.49-0.09,0.65-0.26c0.16-0.17,0.25-0.41,0.25-0.72v-0.35l-0.45,0.02c-0.35,0.01-0.61,0.08-0.77,0.2
			c-0.16,0.12-0.24,0.3-0.24,0.55c0,0.18,0.05,0.31,0.14,0.41C37.97,43.2,38.11,43.25,38.3,43.25z"/>
		<path class="st5" d="M44.15,43.82h-0.75v-2.45c0-0.31-0.05-0.54-0.16-0.69c-0.11-0.15-0.28-0.23-0.52-0.23
			c-0.32,0-0.55,0.11-0.69,0.32c-0.15,0.21-0.22,0.56-0.22,1.06v1.98h-0.75v-3.98h0.59l0.1,0.52h0.04c0.11-0.19,0.26-0.34,0.45-0.44
			s0.41-0.16,0.65-0.16c0.84,0,1.27,0.49,1.27,1.46V43.82z"/>
	</g>
</g>
<g>
	<path class="st12" d="M267.29-598.54v-15 M-327.98-598.54v-15 M273.29,249.35h15 M-333.98,249.35h-15 M273.29-592.54h15
		 M-333.98-592.54h-15"/>
	<path class="st13" d="M267.29-598.54v-15 M-327.98-598.54v-15 M273.29,249.35h15 M-333.98,249.35h-15 M273.29-592.54h15
		 M-333.98-592.54h-15"/>
</g>
</svg>
