<?xml version="1.0" encoding="utf-8"?>
<!-- Generator: Adobe Illustrator 24.3.0, SVG Export Plug-In . SVG Version: 6.00 Build 0)  -->
<svg version="1.1" id="Layer_1" xmlns="http://www.w3.org/2000/svg" xmlns:xlink="http://www.w3.org/1999/xlink" x="0px" y="0px"
	 viewBox="0 0 93.66 66.69" style="enable-background:new 0 0 93.66 66.69;" xml:space="preserve">
<style type="text/css">
	.st0{fill:#F7F5F2;}
	.st1{fill:#F1EEE9;}
	.st2{fill:#A0926A;}
	.st3{fill:#0092B2;}
	.st4{fill:#1568A1;}
	.st5{fill:#FFFFFF;}
	.st6{fill:#2D77AA;}
	.st7{fill:#32A7C2;}
	.st8{fill:#AA9D78;}
	.st9{fill:#A1A94F;}
	.st10{fill:#8B9638;}
	.st11{fill:none;stroke:#A0926A;}
	.st12{fill:none;stroke:#FFFFFF;stroke-width:1.25;stroke-miterlimit:10;}
	.st13{fill:none;stroke:#000000;stroke-width:0.25;stroke-miterlimit:10;}
	.st14{fill:#DDDEE0;}
	.st15{fill:#E8F0F5;}
	.st16{fill:#D1E1EB;}
	.st17{fill:#F7F5F1;}
	.st18{fill:#ECE9E1;}
	.st19{fill:#F4F4E9;}
	.st20{fill:#E6F5F8;}
	.st21{fill:none;stroke:#FFFFFF;stroke-width:0.25;stroke-miterlimit:10;}
	.st22{fill:#282829;}
	.st23{fill:none;stroke:#FFFFFF;stroke-width:0.3;stroke-miterlimit:10;}
	.st24{fill:none;stroke:#FFFFFF;stroke-width:0.447;stroke-miterlimit:10;}
	.st25{fill:none;stroke:#FFFFFF;stroke-width:0.652;stroke-miterlimit:10;}
	.st26{fill:none;stroke:#FFFFFF;stroke-width:0.558;stroke-miterlimit:10;}
	.st27{fill:none;stroke:#FFFFFF;stroke-width:0.363;stroke-miterlimit:10;}
	.st28{fill:none;stroke:#FFFFFF;stroke-width:0.628;stroke-linecap:round;stroke-linejoin:round;stroke-miterlimit:22.926;}
	.st29{clip-path:url(#SVGID_2_);fill:#ECE9E1;}
	.st30{clip-path:url(#SVGID_2_);fill:#F7F5F1;}
	.st31{clip-path:url(#SVGID_2_);fill:#FFFFFF;}
	.st32{fill:none;stroke:#A0926A;stroke-width:1.5;}
	.st33{fill:none;stroke:#FFFFFF;stroke-width:0.333;stroke-miterlimit:10;}
	.st34{fill:none;stroke:#FFFFFF;stroke-width:0.497;stroke-miterlimit:10;}
	.st35{fill:none;stroke:#FFFFFF;stroke-width:0.724;stroke-miterlimit:10;}
	.st36{fill:none;stroke:#FFFFFF;stroke-width:0.62;stroke-miterlimit:10;}
	.st37{fill:none;stroke:#FFFFFF;stroke-width:0.4;stroke-miterlimit:10;}
	.st38{fill:none;stroke:#FFFFFF;stroke-width:0.403;stroke-miterlimit:10;}
	.st39{fill:#B4A888;}
	.st40{fill:none;stroke:#FFFFFF;stroke-miterlimit:10;}
	.st41{fill:none;stroke:#A0926A;stroke-width:1.19;stroke-linejoin:round;stroke-miterlimit:10;}
	.st42{fill:none;stroke:#A0926A;stroke-width:1.265;stroke-miterlimit:10;}
	.st43{fill:none;stroke:#A0926A;stroke-width:1.265;stroke-linecap:round;stroke-linejoin:round;stroke-miterlimit:10;}
	.st44{fill:none;stroke:#A0926A;stroke-width:1.265;stroke-linejoin:round;stroke-miterlimit:10;}
	.st45{fill:none;stroke:#A0926A;stroke-width:1.22;stroke-linecap:round;stroke-linejoin:round;stroke-miterlimit:22.926;}
	.st46{fill:none;stroke:#A0926A;stroke-width:1.314;stroke-linecap:round;stroke-linejoin:round;stroke-miterlimit:22.926;}
	.st47{clip-path:url(#SVGID_4_);}
	.st48{clip-path:url(#SVGID_4_);fill:#B4A888;}
	.st49{clip-path:url(#SVGID_4_);fill:#F7F5F1;}
	.st50{clip-path:url(#SVGID_4_);fill:#ECE9E1;}
	.st51{clip-path:url(#SVGID_4_);fill:none;stroke:#FFFFFF;stroke-miterlimit:10;}
	
		.st52{clip-path:url(#SVGID_8_);fill:none;stroke:#A0926A;stroke-width:1.148;stroke-linecap:round;stroke-linejoin:round;stroke-miterlimit:10;}
	
		.st53{clip-path:url(#SVGID_4_);fill:none;stroke:#A0926A;stroke-width:1.148;stroke-linecap:round;stroke-linejoin:round;stroke-miterlimit:10;stroke-dasharray:0.047,2.088;}
	
		.st54{clip-path:url(#SVGID_4_);fill:none;stroke:#A0926A;stroke-width:1.148;stroke-linecap:round;stroke-linejoin:round;stroke-miterlimit:10;}
	.st55{clip-path:url(#SVGID_4_);fill:#282829;}
	.st56{clip-path:url(#SVGID_10_);fill:none;stroke:#A0926A;stroke-width:1.397;stroke-miterlimit:10;}
	.st57{clip-path:url(#SVGID_10_);fill:none;stroke:#A0926A;stroke-width:1.397;stroke-linejoin:round;stroke-miterlimit:10;}
	
		.st58{clip-path:url(#SVGID_12_);fill:none;stroke:#A0926A;stroke-width:1.252;stroke-linecap:round;stroke-linejoin:round;stroke-miterlimit:10;}
	.st59{clip-path:url(#SVGID_14_);fill:none;stroke:#A0926A;stroke-width:1.2112;stroke-linejoin:round;stroke-miterlimit:10;}
	.st60{clip-path:url(#SVGID_16_);fill:none;stroke:#FFFFFF;stroke-width:1.25;stroke-miterlimit:10;}
	.st61{clip-path:url(#SVGID_16_);fill:none;stroke:#000000;stroke-width:0.25;stroke-miterlimit:10;}
	.st62{clip-path:url(#SVGID_16_);fill:none;stroke:#FFFFFF;stroke-width:0.4;stroke-miterlimit:10;}
	.st63{clip-path:url(#SVGID_18_);fill:none;stroke:#FFFFFF;stroke-width:0.4;stroke-miterlimit:10;}
</style>
<g>
	<g>
		<rect class="st7" width="93.66" height="66.69"/>
	</g>
	<g>
		<g>
			<path class="st5" d="M9.97,20.49v3.41c0,0.39-0.07,0.73-0.22,1.02c-0.15,0.29-0.36,0.52-0.64,0.67c-0.28,0.16-0.61,0.24-1,0.24
				c-0.58,0-1.03-0.17-1.35-0.52c-0.32-0.35-0.48-0.82-0.48-1.43v-3.39h0.76v3.33c0,0.43,0.09,0.75,0.27,0.96
				c0.18,0.21,0.45,0.31,0.82,0.31c0.72,0,1.08-0.43,1.08-1.28v-3.32H9.97z M12.93,25.83c-0.45,0-0.79-0.18-1.04-0.54h-0.04
				c0.03,0.34,0.04,0.54,0.04,0.61v1.63h-0.75v-5.75h0.6c0.02,0.07,0.05,0.25,0.11,0.53h0.04c0.23-0.4,0.58-0.6,1.05-0.6
				c0.44,0,0.78,0.18,1.03,0.54c0.25,0.36,0.37,0.87,0.37,1.52c0,0.65-0.12,1.16-0.37,1.52C13.71,25.65,13.37,25.83,12.93,25.83z
				 M12.75,22.39c-0.3,0-0.51,0.1-0.65,0.3c-0.14,0.2-0.21,0.51-0.21,0.94v0.13c0,0.48,0.07,0.84,0.2,1.05
				c0.14,0.22,0.36,0.33,0.67,0.33c0.26,0,0.46-0.12,0.6-0.36c0.14-0.24,0.21-0.58,0.21-1.03c0-0.45-0.07-0.78-0.21-1.01
				C13.22,22.51,13.01,22.39,12.75,22.39z M18.36,25.76h-0.75v-2.45c0-0.31-0.05-0.54-0.16-0.69c-0.11-0.15-0.28-0.23-0.52-0.23
				c-0.31,0-0.54,0.11-0.69,0.32c-0.15,0.21-0.22,0.57-0.22,1.07v1.98h-0.75v-5.6h0.75v1.42c0,0.23-0.01,0.47-0.04,0.73h0.05
				c0.1-0.19,0.24-0.34,0.42-0.45c0.18-0.11,0.39-0.16,0.64-0.16c0.85,0,1.28,0.49,1.28,1.46V25.76z M22.6,23.76
				c0,0.65-0.15,1.16-0.44,1.52c-0.29,0.36-0.71,0.55-1.23,0.55c-0.33,0-0.62-0.08-0.87-0.25c-0.25-0.17-0.45-0.41-0.58-0.72
				c-0.14-0.31-0.2-0.68-0.2-1.09c0-0.65,0.15-1.15,0.44-1.51c0.29-0.36,0.71-0.54,1.24-0.54c0.51,0,0.91,0.19,1.21,0.56
				C22.45,22.63,22.6,23.13,22.6,23.76z M20.03,23.76c0,0.92,0.3,1.38,0.9,1.38c0.59,0,0.89-0.46,0.89-1.38
				c0-0.91-0.3-1.36-0.9-1.36c-0.31,0-0.54,0.12-0.68,0.35C20.1,22.98,20.03,23.32,20.03,23.76z M24.27,25.76h-0.75v-5.6h0.75V25.76
				z M27.65,25.23c-0.24,0.4-0.59,0.59-1.05,0.59c-0.44,0-0.78-0.18-1.03-0.54c-0.25-0.36-0.37-0.87-0.37-1.52
				c0-0.65,0.12-1.16,0.37-1.52c0.25-0.36,0.59-0.55,1.04-0.55c0.46,0,0.81,0.19,1.06,0.58h0.04c-0.04-0.29-0.05-0.51-0.05-0.68
				v-1.45h0.75v5.6h-0.59l-0.13-0.52H27.65L27.65,25.23z M26.79,25.14c0.31,0,0.53-0.1,0.67-0.29c0.14-0.2,0.21-0.51,0.22-0.95
				v-0.12c0-0.5-0.07-0.86-0.22-1.07c-0.14-0.21-0.37-0.32-0.68-0.32c-0.26,0-0.47,0.12-0.61,0.36c-0.14,0.24-0.21,0.58-0.21,1.03
				c0,0.44,0.07,0.78,0.21,1.01C26.31,25.03,26.52,25.14,26.79,25.14z M32.6,25.14c0.18,0,0.36-0.03,0.55-0.1v0.64
				c-0.08,0.04-0.19,0.07-0.32,0.1c-0.13,0.03-0.27,0.04-0.41,0.04c-0.71,0-1.06-0.42-1.06-1.27v-2.15h-0.48v-0.37l0.52-0.31
				l0.25-0.84h0.46v0.89h1v0.64h-1v2.13c0,0.2,0.05,0.35,0.14,0.45C32.34,25.1,32.46,25.14,32.6,25.14z M37.02,25.76h-0.75v-2.45
				c0-0.31-0.05-0.54-0.16-0.69c-0.11-0.15-0.28-0.23-0.52-0.23c-0.31,0-0.54,0.11-0.69,0.32c-0.15,0.21-0.22,0.57-0.22,1.07v1.98
				h-0.75v-5.6h0.75v1.42c0,0.23-0.01,0.47-0.04,0.73h0.05c0.1-0.19,0.24-0.34,0.42-0.45c0.18-0.11,0.39-0.16,0.64-0.16
				c0.85,0,1.28,0.49,1.28,1.46V25.76z M39.66,25.83c-0.55,0-0.98-0.18-1.28-0.54c-0.31-0.36-0.46-0.86-0.46-1.49
				c0-0.65,0.14-1.16,0.43-1.53c0.29-0.37,0.68-0.56,1.18-0.56c0.46,0,0.83,0.16,1.1,0.48c0.27,0.32,0.4,0.76,0.4,1.32v0.46h-2.35
				c0.01,0.39,0.1,0.68,0.28,0.89c0.17,0.21,0.42,0.31,0.74,0.31c0.21,0,0.4-0.02,0.58-0.07c0.18-0.04,0.37-0.12,0.58-0.22v0.69
				c-0.18,0.1-0.37,0.17-0.55,0.21C40.11,25.81,39.9,25.83,39.66,25.83z M39.52,22.34c-0.24,0-0.43,0.09-0.57,0.26
				c-0.14,0.17-0.23,0.42-0.26,0.75h1.6c0-0.33-0.07-0.58-0.21-0.75C39.95,22.43,39.76,22.34,39.52,22.34z M46.8,25.76h-0.75v-2.45
				c0-0.31-0.05-0.54-0.16-0.69c-0.11-0.15-0.28-0.23-0.52-0.23c-0.31,0-0.54,0.11-0.69,0.32c-0.15,0.21-0.22,0.57-0.22,1.07v1.98
				H43.7v-5.6h0.75v1.42c0,0.23-0.01,0.47-0.04,0.73h0.05c0.1-0.19,0.24-0.34,0.42-0.45c0.18-0.11,0.39-0.16,0.64-0.16
				c0.85,0,1.28,0.49,1.28,1.46V25.76z M47.86,20.72c0-0.15,0.04-0.27,0.11-0.35c0.07-0.08,0.18-0.12,0.31-0.12
				c0.13,0,0.23,0.04,0.31,0.12c0.07,0.08,0.11,0.2,0.11,0.35c0,0.14-0.04,0.26-0.11,0.34s-0.18,0.12-0.31,0.12
				c-0.14,0-0.24-0.04-0.31-0.12C47.9,20.98,47.86,20.86,47.86,20.72z M48.66,25.76h-0.75v-3.98h0.75V25.76z M52.77,21.77v0.46
				l-0.6,0.13c0.06,0.08,0.1,0.19,0.14,0.31c0.04,0.12,0.05,0.25,0.05,0.39c0,0.41-0.13,0.73-0.38,0.97
				c-0.25,0.24-0.6,0.35-1.03,0.35c-0.11,0-0.21-0.01-0.31-0.03c-0.16,0.11-0.24,0.24-0.24,0.4c0,0.09,0.04,0.16,0.11,0.21
				c0.08,0.05,0.21,0.07,0.42,0.07h0.61c0.39,0,0.68,0.09,0.88,0.28c0.2,0.19,0.3,0.46,0.3,0.81c0,0.45-0.16,0.8-0.49,1.04
				c-0.33,0.24-0.8,0.37-1.43,0.37c-0.48,0-0.85-0.1-1.1-0.29c-0.25-0.19-0.38-0.47-0.38-0.82c0-0.24,0.07-0.45,0.21-0.62
				c0.14-0.17,0.33-0.28,0.57-0.35c-0.1-0.05-0.18-0.13-0.25-0.23c-0.06-0.11-0.1-0.22-0.1-0.34c0-0.15,0.04-0.27,0.11-0.38
				c0.07-0.1,0.18-0.21,0.33-0.31c-0.18-0.09-0.33-0.23-0.44-0.43c-0.11-0.2-0.17-0.43-0.17-0.7c0-0.43,0.12-0.77,0.36-1
				c0.24-0.24,0.58-0.36,1.03-0.36c0.1,0,0.2,0.01,0.31,0.02c0.11,0.02,0.19,0.03,0.25,0.05H52.77z M50,26.37
				c0,0.18,0.07,0.32,0.22,0.42c0.15,0.1,0.35,0.15,0.61,0.15c0.41,0,0.71-0.07,0.91-0.2c0.2-0.13,0.3-0.31,0.3-0.53
				c0-0.17-0.05-0.3-0.16-0.37c-0.11-0.07-0.31-0.11-0.61-0.11H50.7c-0.21,0-0.38,0.06-0.51,0.17C50.06,26.03,50,26.18,50,26.37z
				 M50.32,23.06c0,0.25,0.06,0.44,0.17,0.58c0.11,0.13,0.28,0.2,0.49,0.2c0.43,0,0.65-0.26,0.65-0.78c0-0.26-0.05-0.46-0.16-0.6
				c-0.11-0.14-0.27-0.21-0.49-0.21c-0.22,0-0.38,0.07-0.49,0.21C50.38,22.59,50.32,22.8,50.32,23.06z M56.58,25.76h-0.75v-2.45
				c0-0.31-0.05-0.54-0.16-0.69c-0.11-0.15-0.28-0.23-0.52-0.23c-0.31,0-0.54,0.11-0.69,0.32c-0.15,0.21-0.22,0.57-0.22,1.07v1.98
				h-0.75v-5.6h0.75v1.42c0,0.23-0.01,0.47-0.04,0.73h0.05c0.1-0.19,0.24-0.34,0.42-0.45c0.18-0.11,0.39-0.16,0.64-0.16
				c0.85,0,1.28,0.49,1.28,1.46V25.76z M59.23,25.83c-0.55,0-0.98-0.18-1.28-0.54c-0.31-0.36-0.46-0.86-0.46-1.49
				c0-0.65,0.14-1.16,0.43-1.53c0.29-0.37,0.68-0.56,1.18-0.56c0.46,0,0.83,0.16,1.1,0.48c0.27,0.32,0.4,0.76,0.4,1.32v0.46h-2.35
				c0.01,0.39,0.1,0.68,0.28,0.89c0.17,0.21,0.42,0.31,0.74,0.31c0.21,0,0.4-0.02,0.58-0.07c0.18-0.04,0.37-0.12,0.58-0.22v0.69
				c-0.18,0.1-0.37,0.17-0.55,0.21C59.68,25.81,59.47,25.83,59.23,25.83z M59.09,22.34c-0.24,0-0.43,0.09-0.57,0.26
				c-0.14,0.17-0.23,0.42-0.26,0.75h1.6c0-0.33-0.07-0.58-0.21-0.75C59.51,22.43,59.33,22.34,59.09,22.34z M63.87,24.62
				c0,0.39-0.13,0.69-0.38,0.89c-0.25,0.21-0.61,0.31-1.08,0.31c-0.47,0-0.85-0.08-1.13-0.24v-0.73c0.41,0.22,0.8,0.32,1.16,0.32
				c0.46,0,0.69-0.16,0.69-0.47c0-0.1-0.03-0.18-0.08-0.25c-0.05-0.07-0.13-0.14-0.25-0.21c-0.12-0.07-0.28-0.15-0.49-0.24
				c-0.41-0.18-0.68-0.36-0.82-0.53c-0.14-0.18-0.21-0.41-0.21-0.69c0-0.34,0.12-0.61,0.36-0.79c0.24-0.19,0.57-0.28,0.99-0.28
				c0.41,0,0.81,0.09,1.17,0.28l-0.24,0.64c-0.38-0.18-0.7-0.27-0.96-0.27c-0.39,0-0.59,0.13-0.59,0.38c0,0.12,0.05,0.23,0.15,0.32
				c0.1,0.09,0.33,0.21,0.67,0.36c0.29,0.13,0.5,0.24,0.63,0.35c0.13,0.11,0.23,0.23,0.29,0.37C63.84,24.26,63.87,24.43,63.87,24.62
				z M66.06,25.14c0.18,0,0.36-0.03,0.55-0.1v0.64c-0.08,0.04-0.19,0.07-0.32,0.1c-0.13,0.03-0.27,0.04-0.41,0.04
				c-0.71,0-1.06-0.42-1.06-1.27v-2.15h-0.48v-0.37l0.52-0.31l0.25-0.84h0.46v0.89h1v0.64h-1v2.13c0,0.2,0.05,0.35,0.14,0.45
				C65.8,25.1,65.91,25.14,66.06,25.14z"/>
		</g>
		<g>
			<path class="st5" d="M8.6,33.47c0,0.39-0.13,0.69-0.38,0.89c-0.25,0.21-0.61,0.31-1.08,0.31c-0.47,0-0.85-0.08-1.13-0.24V33.7
				c0.41,0.22,0.8,0.32,1.16,0.32c0.46,0,0.69-0.16,0.69-0.47c0-0.1-0.03-0.18-0.08-0.25c-0.05-0.07-0.13-0.14-0.25-0.21
				c-0.12-0.07-0.28-0.15-0.49-0.25c-0.41-0.18-0.68-0.36-0.82-0.53s-0.21-0.41-0.21-0.69c0-0.34,0.12-0.61,0.36-0.79
				c0.24-0.19,0.57-0.28,0.99-0.28c0.41,0,0.81,0.1,1.17,0.29L8.3,31.47c-0.38-0.18-0.7-0.27-0.96-0.27c-0.39,0-0.59,0.13-0.59,0.38
				c0,0.13,0.05,0.23,0.15,0.32c0.1,0.09,0.33,0.21,0.67,0.36c0.29,0.13,0.5,0.24,0.63,0.35c0.13,0.11,0.23,0.23,0.29,0.37
				C8.57,33.11,8.6,33.28,8.6,33.47z"/>
			<path class="st5" d="M10.79,33.99c0.18,0,0.37-0.03,0.55-0.1v0.64c-0.08,0.04-0.19,0.08-0.32,0.1c-0.13,0.03-0.27,0.04-0.41,0.04
				c-0.71,0-1.06-0.42-1.06-1.27v-2.15H9.07v-0.37l0.52-0.31l0.25-0.84h0.46v0.89h1v0.64h-1v2.13c0,0.2,0.05,0.36,0.14,0.45
				C10.52,33.94,10.64,33.99,10.79,33.99z"/>
			<path class="st5" d="M14.3,34.6l-0.15-0.55h-0.03c-0.17,0.24-0.34,0.41-0.51,0.5c-0.17,0.09-0.39,0.13-0.66,0.13
				c-0.35,0-0.62-0.11-0.81-0.32c-0.19-0.21-0.29-0.51-0.29-0.9c0-0.41,0.13-0.72,0.4-0.93c0.27-0.21,0.68-0.32,1.23-0.34l0.61-0.02
				v-0.21c0-0.25-0.05-0.45-0.16-0.57s-0.27-0.19-0.49-0.19c-0.18,0-0.35,0.03-0.52,0.09c-0.17,0.06-0.32,0.13-0.48,0.21l-0.24-0.61
				c0.19-0.11,0.4-0.2,0.63-0.26s0.44-0.09,0.64-0.09c0.45,0,0.79,0.11,1.01,0.33c0.23,0.22,0.34,0.57,0.34,1.04v2.68H14.3z
				 M13.19,34.03c0.27,0,0.49-0.09,0.65-0.26c0.16-0.17,0.25-0.41,0.25-0.72V32.7l-0.45,0.02c-0.35,0.01-0.61,0.08-0.77,0.2
				c-0.16,0.12-0.24,0.3-0.24,0.55c0,0.18,0.05,0.31,0.14,0.41C12.86,33.98,13,34.03,13.19,34.03z"/>
			<path class="st5" d="M19.04,34.6h-0.75v-2.45c0-0.31-0.05-0.54-0.16-0.69c-0.11-0.15-0.28-0.23-0.52-0.23
				c-0.32,0-0.55,0.11-0.69,0.32c-0.15,0.21-0.22,0.56-0.22,1.06v1.98h-0.75v-3.98h0.59l0.1,0.52h0.04
				c0.11-0.19,0.26-0.34,0.45-0.44s0.41-0.16,0.65-0.16c0.84,0,1.27,0.49,1.27,1.46V34.6z"/>
			<path class="st5" d="M21.33,34.67c-0.44,0-0.78-0.18-1.03-0.54c-0.25-0.36-0.37-0.87-0.37-1.52c0-0.65,0.12-1.16,0.37-1.52
				s0.59-0.55,1.04-0.55c0.46,0,0.81,0.19,1.06,0.58h0.04c-0.04-0.29-0.05-0.51-0.05-0.68V29h0.75v5.6h-0.59l-0.13-0.52h-0.04
				C22.14,34.48,21.79,34.67,21.33,34.67z M21.53,33.99c0.31,0,0.53-0.1,0.67-0.29s0.21-0.51,0.22-0.95v-0.12
				c0-0.5-0.07-0.86-0.22-1.07c-0.14-0.21-0.37-0.32-0.68-0.32c-0.26,0-0.47,0.12-0.61,0.36c-0.14,0.24-0.21,0.58-0.21,1.03
				c0,0.44,0.07,0.78,0.21,1.01C21.05,33.88,21.25,33.99,21.53,33.99z"/>
			<path class="st5" d="M26.47,34.6l-0.15-0.55h-0.03c-0.17,0.24-0.34,0.41-0.51,0.5c-0.17,0.09-0.39,0.13-0.66,0.13
				c-0.35,0-0.62-0.11-0.81-0.32c-0.19-0.21-0.29-0.51-0.29-0.9c0-0.41,0.13-0.72,0.4-0.93c0.27-0.21,0.68-0.32,1.23-0.34l0.61-0.02
				v-0.21c0-0.25-0.05-0.45-0.16-0.57s-0.27-0.19-0.49-0.19c-0.18,0-0.35,0.03-0.52,0.09c-0.17,0.06-0.32,0.13-0.48,0.21l-0.24-0.61
				c0.19-0.11,0.4-0.2,0.63-0.26s0.44-0.09,0.64-0.09c0.45,0,0.79,0.11,1.01,0.33C26.89,31.1,27,31.45,27,31.92v2.68H26.47z
				 M25.35,34.03c0.27,0,0.49-0.09,0.65-0.26c0.16-0.17,0.25-0.41,0.25-0.72V32.7l-0.45,0.02c-0.35,0.01-0.61,0.08-0.77,0.2
				c-0.16,0.12-0.24,0.3-0.24,0.55c0,0.18,0.05,0.31,0.14,0.41C25.02,33.98,25.16,34.03,25.35,34.03z"/>
			<path class="st5" d="M29.89,30.55c0.15,0,0.27,0.01,0.37,0.04l-0.07,0.79c-0.11-0.03-0.22-0.04-0.33-0.04
				c-0.3,0-0.54,0.11-0.73,0.33c-0.19,0.22-0.28,0.51-0.28,0.86v2.08H28.1v-3.98h0.59l0.1,0.7h0.04c0.12-0.24,0.27-0.43,0.46-0.57
				C29.47,30.62,29.67,30.55,29.89,30.55z"/>
			<path class="st5" d="M32.16,34.67c-0.44,0-0.78-0.18-1.03-0.54c-0.25-0.36-0.37-0.87-0.37-1.52c0-0.65,0.12-1.16,0.37-1.52
				s0.59-0.55,1.04-0.55c0.46,0,0.81,0.19,1.06,0.58h0.04c-0.04-0.29-0.05-0.51-0.05-0.68V29h0.75v5.6h-0.59l-0.13-0.52h-0.04
				C32.97,34.48,32.62,34.67,32.16,34.67z M32.36,33.99c0.31,0,0.53-0.1,0.67-0.29s0.21-0.51,0.22-0.95v-0.12
				c0-0.5-0.07-0.86-0.22-1.07c-0.14-0.21-0.37-0.32-0.68-0.32c-0.26,0-0.47,0.12-0.61,0.36c-0.14,0.24-0.21,0.58-0.21,1.03
				c0,0.44,0.07,0.78,0.21,1.01C31.88,33.88,32.09,33.99,32.36,33.99z"/>
			<path class="st5" d="M37.46,33.47c0,0.39-0.13,0.69-0.38,0.89c-0.25,0.21-0.61,0.31-1.08,0.31c-0.47,0-0.85-0.08-1.13-0.24V33.7
				c0.41,0.22,0.8,0.32,1.16,0.32c0.46,0,0.69-0.16,0.69-0.47c0-0.1-0.03-0.18-0.08-0.25c-0.05-0.07-0.13-0.14-0.25-0.21
				c-0.12-0.07-0.28-0.15-0.49-0.25c-0.41-0.18-0.68-0.36-0.82-0.53s-0.21-0.41-0.21-0.69c0-0.34,0.12-0.61,0.36-0.79
				c0.24-0.19,0.57-0.28,0.99-0.28c0.41,0,0.81,0.1,1.17,0.29l-0.24,0.64c-0.38-0.18-0.7-0.27-0.96-0.27
				c-0.39,0-0.59,0.13-0.59,0.38c0,0.13,0.05,0.23,0.15,0.32c0.1,0.09,0.33,0.21,0.67,0.36c0.29,0.13,0.5,0.24,0.63,0.35
				c0.13,0.11,0.23,0.23,0.29,0.37C37.43,33.11,37.46,33.28,37.46,33.47z"/>
			<path class="st5" d="M43.21,32.6c0,0.65-0.15,1.16-0.44,1.52c-0.29,0.37-0.71,0.55-1.23,0.55c-0.33,0-0.62-0.08-0.87-0.25
				s-0.45-0.41-0.58-0.72s-0.2-0.68-0.2-1.09c0-0.65,0.15-1.15,0.44-1.51c0.29-0.36,0.71-0.54,1.24-0.54c0.51,0,0.91,0.19,1.21,0.56
				C43.07,31.48,43.21,31.98,43.21,32.6z M40.65,32.6c0,0.92,0.3,1.38,0.9,1.38c0.59,0,0.89-0.46,0.89-1.38
				c0-0.91-0.3-1.36-0.9-1.36c-0.31,0-0.54,0.12-0.68,0.35C40.72,31.83,40.65,32.17,40.65,32.6z"/>
			<path class="st5" d="M45.91,31.26h-0.86v3.34H44.3v-3.34h-0.58v-0.4l0.58-0.26v-0.26c0-0.47,0.1-0.82,0.29-1.05
				c0.2-0.23,0.49-0.34,0.89-0.34c0.26,0,0.52,0.05,0.78,0.15l-0.2,0.64c-0.18-0.07-0.36-0.1-0.53-0.1c-0.17,0-0.29,0.06-0.37,0.18
				c-0.08,0.12-0.12,0.3-0.12,0.54v0.26h0.86V31.26z"/>
		</g>
		<g>
			<path class="st5" d="M7.66,43.52c-0.53,0-0.94-0.18-1.21-0.53s-0.42-0.86-0.42-1.51c0-0.67,0.15-1.18,0.43-1.54
				c0.29-0.36,0.71-0.54,1.26-0.54c0.37,0,0.71,0.08,1,0.23L8.5,40.31c-0.32-0.14-0.58-0.21-0.78-0.21c-0.61,0-0.91,0.46-0.91,1.37
				c0,0.45,0.08,0.78,0.23,1.01c0.15,0.22,0.37,0.34,0.67,0.34c0.33,0,0.65-0.09,0.95-0.28v0.74c-0.13,0.09-0.28,0.15-0.43,0.19
				C8.06,43.5,7.87,43.52,7.66,43.52z"/>
			<path class="st5" d="M12.65,41.45c0,0.65-0.15,1.16-0.44,1.52c-0.29,0.37-0.71,0.55-1.23,0.55c-0.33,0-0.62-0.08-0.87-0.25
				s-0.45-0.41-0.58-0.72s-0.2-0.68-0.2-1.09c0-0.65,0.15-1.15,0.44-1.51c0.29-0.36,0.71-0.54,1.24-0.54c0.51,0,0.91,0.19,1.21,0.56
				C12.5,40.32,12.65,40.82,12.65,41.45z M10.09,41.45c0,0.92,0.3,1.38,0.9,1.38c0.59,0,0.89-0.46,0.89-1.38
				c0-0.91-0.3-1.36-0.9-1.36c-0.31,0-0.54,0.12-0.68,0.35C10.16,40.67,10.09,41.01,10.09,41.45z"/>
			<path class="st5" d="M15.36,39.4c0.15,0,0.27,0.01,0.37,0.04l-0.07,0.79c-0.11-0.03-0.22-0.04-0.33-0.04
				c-0.3,0-0.54,0.11-0.73,0.33c-0.19,0.22-0.28,0.51-0.28,0.86v2.08h-0.75v-3.98h0.59l0.1,0.7h0.04c0.12-0.24,0.27-0.43,0.46-0.57
				C14.94,39.47,15.14,39.4,15.36,39.4z"/>
			<path class="st5" d="M18.23,43.52c-0.45,0-0.79-0.18-1.04-0.54h-0.04c0.03,0.34,0.04,0.54,0.04,0.61v1.63h-0.75v-5.75h0.6
				c0.02,0.07,0.05,0.25,0.1,0.53h0.04c0.23-0.4,0.58-0.61,1.05-0.61c0.44,0,0.78,0.18,1.03,0.54c0.25,0.36,0.37,0.87,0.37,1.52
				s-0.12,1.16-0.37,1.52C19.01,43.34,18.67,43.52,18.23,43.52z M18.05,40.09c-0.3,0-0.51,0.1-0.65,0.29
				c-0.14,0.2-0.21,0.51-0.21,0.94v0.13c0,0.49,0.07,0.84,0.2,1.05c0.14,0.22,0.36,0.33,0.67,0.33c0.26,0,0.46-0.12,0.6-0.36
				c0.14-0.24,0.21-0.58,0.21-1.03c0-0.45-0.07-0.78-0.21-1.01C18.52,40.2,18.32,40.09,18.05,40.09z"/>
			<path class="st5" d="M23.69,41.45c0,0.65-0.15,1.16-0.44,1.52c-0.29,0.37-0.71,0.55-1.23,0.55c-0.33,0-0.62-0.08-0.87-0.25
				s-0.45-0.41-0.58-0.72s-0.2-0.68-0.2-1.09c0-0.65,0.15-1.15,0.44-1.51c0.29-0.36,0.71-0.54,1.24-0.54c0.51,0,0.91,0.19,1.21,0.56
				C23.54,40.32,23.69,40.82,23.69,41.45z M21.12,41.45c0,0.92,0.3,1.38,0.9,1.38c0.59,0,0.89-0.46,0.89-1.38
				c0-0.91-0.3-1.36-0.9-1.36c-0.31,0-0.54,0.12-0.68,0.35C21.19,40.67,21.12,41.01,21.12,41.45z"/>
			<path class="st5" d="M26.4,39.4c0.15,0,0.27,0.01,0.37,0.04l-0.07,0.79c-0.11-0.03-0.22-0.04-0.33-0.04
				c-0.3,0-0.54,0.11-0.73,0.33c-0.19,0.22-0.28,0.51-0.28,0.86v2.08h-0.75v-3.98h0.59l0.1,0.7h0.04c0.12-0.24,0.27-0.43,0.46-0.57
				C25.98,39.47,26.18,39.4,26.4,39.4z"/>
			<path class="st5" d="M29.68,43.45l-0.15-0.55h-0.03c-0.17,0.24-0.34,0.41-0.51,0.5c-0.17,0.09-0.39,0.13-0.66,0.13
				c-0.35,0-0.62-0.11-0.81-0.32c-0.19-0.21-0.29-0.51-0.29-0.9c0-0.41,0.13-0.72,0.4-0.93c0.27-0.21,0.68-0.32,1.23-0.34l0.61-0.02
				V40.8c0-0.25-0.05-0.45-0.16-0.57s-0.27-0.19-0.49-0.19c-0.18,0-0.35,0.03-0.52,0.09c-0.17,0.06-0.32,0.13-0.48,0.21l-0.24-0.61
				c0.19-0.11,0.4-0.2,0.63-0.26s0.44-0.09,0.64-0.09c0.45,0,0.79,0.11,1.01,0.33c0.23,0.22,0.34,0.57,0.34,1.04v2.68H29.68z
				 M28.57,42.87c0.27,0,0.49-0.09,0.65-0.26c0.16-0.17,0.25-0.41,0.25-0.72v-0.35l-0.45,0.02c-0.35,0.01-0.61,0.08-0.77,0.2
				c-0.16,0.12-0.24,0.3-0.24,0.55c0,0.18,0.05,0.31,0.14,0.41C28.24,42.82,28.38,42.87,28.57,42.87z"/>
			<path class="st5" d="M32.63,42.84c0.18,0,0.37-0.03,0.55-0.1v0.64c-0.08,0.04-0.19,0.08-0.32,0.1c-0.13,0.03-0.27,0.04-0.41,0.04
				c-0.71,0-1.06-0.42-1.06-1.27v-2.15h-0.48v-0.37l0.52-0.31l0.25-0.84h0.46v0.89h1v0.64h-1v2.13c0,0.2,0.05,0.36,0.14,0.45
				C32.37,42.79,32.49,42.84,32.63,42.84z"/>
			<path class="st5" d="M35.48,43.52c-0.55,0-0.98-0.18-1.28-0.54c-0.31-0.36-0.46-0.86-0.46-1.49c0-0.65,0.14-1.16,0.43-1.53
				s0.68-0.56,1.18-0.56c0.46,0,0.83,0.16,1.1,0.48s0.4,0.76,0.4,1.32v0.46H34.5c0.01,0.39,0.1,0.68,0.28,0.89
				c0.17,0.21,0.42,0.31,0.74,0.31c0.21,0,0.4-0.02,0.58-0.07c0.18-0.04,0.37-0.12,0.58-0.22v0.69c-0.18,0.1-0.37,0.17-0.55,0.21
				C35.93,43.5,35.72,43.52,35.48,43.52z M35.34,40.04c-0.24,0-0.43,0.08-0.57,0.25c-0.14,0.17-0.23,0.42-0.26,0.75h1.6
				c0-0.33-0.07-0.58-0.21-0.75C35.77,40.12,35.58,40.04,35.34,40.04z"/>
			<path class="st5" d="M42.49,39.47v0.46l-0.6,0.13c0.06,0.08,0.1,0.19,0.14,0.31c0.04,0.12,0.05,0.25,0.05,0.39
				c0,0.41-0.13,0.73-0.38,0.97c-0.25,0.24-0.6,0.35-1.03,0.35c-0.11,0-0.21-0.01-0.31-0.03c-0.16,0.11-0.24,0.25-0.24,0.4
				c0,0.09,0.04,0.16,0.11,0.21c0.08,0.04,0.21,0.07,0.42,0.07h0.61c0.39,0,0.68,0.09,0.89,0.28c0.2,0.19,0.3,0.46,0.3,0.81
				c0,0.45-0.16,0.8-0.49,1.04c-0.33,0.24-0.8,0.37-1.43,0.37c-0.48,0-0.85-0.1-1.1-0.29c-0.25-0.19-0.38-0.47-0.38-0.82
				c0-0.24,0.07-0.45,0.21-0.62c0.14-0.17,0.33-0.28,0.57-0.35c-0.1-0.05-0.18-0.13-0.25-0.23c-0.06-0.11-0.1-0.22-0.1-0.34
				c0-0.15,0.04-0.27,0.11-0.38s0.18-0.21,0.33-0.31c-0.18-0.09-0.33-0.23-0.44-0.43c-0.11-0.2-0.17-0.43-0.17-0.7
				c0-0.43,0.12-0.77,0.36-1c0.24-0.24,0.58-0.36,1.03-0.36c0.1,0,0.2,0.01,0.31,0.02s0.19,0.03,0.25,0.05H42.49z M39.72,44.07
				c0,0.18,0.07,0.32,0.22,0.42c0.15,0.1,0.35,0.15,0.61,0.15c0.41,0,0.71-0.07,0.91-0.2s0.3-0.31,0.3-0.53
				c0-0.17-0.05-0.3-0.16-0.37s-0.31-0.11-0.61-0.11h-0.57c-0.21,0-0.38,0.06-0.51,0.17C39.79,43.72,39.72,43.87,39.72,44.07z
				 M40.04,40.76c0,0.25,0.06,0.44,0.17,0.58c0.11,0.13,0.28,0.2,0.49,0.2c0.43,0,0.65-0.26,0.65-0.79c0-0.26-0.05-0.46-0.16-0.6
				c-0.11-0.14-0.27-0.21-0.49-0.21c-0.22,0-0.38,0.07-0.49,0.21C40.1,40.29,40.04,40.49,40.04,40.76z"/>
			<path class="st5" d="M46.32,41.45c0,0.65-0.15,1.16-0.44,1.52c-0.29,0.37-0.71,0.55-1.23,0.55c-0.33,0-0.62-0.08-0.87-0.25
				s-0.45-0.41-0.58-0.72s-0.2-0.68-0.2-1.09c0-0.65,0.15-1.15,0.44-1.51c0.29-0.36,0.71-0.54,1.24-0.54c0.51,0,0.91,0.19,1.21,0.56
				C46.17,40.32,46.32,40.82,46.32,41.45z M43.76,41.45c0,0.92,0.3,1.38,0.9,1.38c0.59,0,0.89-0.46,0.89-1.38
				c0-0.91-0.3-1.36-0.9-1.36c-0.31,0-0.54,0.12-0.68,0.35C43.83,40.67,43.76,41.01,43.76,41.45z"/>
			<path class="st5" d="M48.05,43.45l-1.34-3.98h0.79l0.72,2.31c0.12,0.39,0.2,0.7,0.22,0.94h0.03c0.02-0.17,0.09-0.49,0.22-0.94
				l0.72-2.31h0.8l-1.34,3.98H48.05z"/>
			<path class="st5" d="M52.33,43.52c-0.55,0-0.98-0.18-1.28-0.54c-0.31-0.36-0.46-0.86-0.46-1.49c0-0.65,0.14-1.16,0.43-1.53
				s0.68-0.56,1.18-0.56c0.46,0,0.83,0.16,1.1,0.48s0.4,0.76,0.4,1.32v0.46h-2.35c0.01,0.39,0.1,0.68,0.28,0.89
				c0.17,0.21,0.42,0.31,0.74,0.31c0.21,0,0.4-0.02,0.58-0.07c0.18-0.04,0.37-0.12,0.58-0.22v0.69c-0.18,0.1-0.37,0.17-0.55,0.21
				C52.79,43.5,52.57,43.52,52.33,43.52z M52.2,40.04c-0.24,0-0.43,0.08-0.57,0.25c-0.14,0.17-0.23,0.42-0.26,0.75h1.6
				c0-0.33-0.07-0.58-0.21-0.75C52.62,40.12,52.43,40.04,52.2,40.04z"/>
			<path class="st5" d="M56.4,39.4c0.15,0,0.27,0.01,0.37,0.04l-0.07,0.79c-0.11-0.03-0.22-0.04-0.33-0.04
				c-0.3,0-0.54,0.11-0.73,0.33c-0.19,0.22-0.28,0.51-0.28,0.86v2.08h-0.75v-3.98h0.59l0.1,0.7h0.04c0.12-0.24,0.27-0.43,0.46-0.57
				C55.98,39.47,56.18,39.4,56.4,39.4z"/>
			<path class="st5" d="M60.58,43.45h-0.75V41c0-0.31-0.05-0.54-0.16-0.69c-0.11-0.15-0.28-0.23-0.52-0.23
				c-0.32,0-0.55,0.11-0.69,0.32c-0.15,0.21-0.22,0.56-0.22,1.06v1.98h-0.75v-3.98h0.59l0.1,0.52h0.04
				c0.11-0.19,0.26-0.34,0.45-0.44s0.41-0.16,0.65-0.16c0.84,0,1.27,0.49,1.27,1.46V43.45z"/>
			<path class="st5" d="M63.89,43.45l-0.15-0.55h-0.03c-0.17,0.24-0.34,0.41-0.51,0.5c-0.17,0.09-0.39,0.13-0.66,0.13
				c-0.35,0-0.62-0.11-0.81-0.32c-0.19-0.21-0.29-0.51-0.29-0.9c0-0.41,0.13-0.72,0.4-0.93c0.27-0.21,0.68-0.32,1.23-0.34l0.61-0.02
				V40.8c0-0.25-0.05-0.45-0.16-0.57s-0.27-0.19-0.49-0.19c-0.18,0-0.35,0.03-0.52,0.09c-0.17,0.06-0.32,0.13-0.48,0.21l-0.24-0.61
				c0.19-0.11,0.4-0.2,0.63-0.26s0.44-0.09,0.64-0.09c0.45,0,0.79,0.11,1.01,0.33c0.23,0.22,0.34,0.57,0.34,1.04v2.68H63.89z
				 M62.77,42.87c0.27,0,0.49-0.09,0.65-0.26c0.16-0.17,0.25-0.41,0.25-0.72v-0.35l-0.45,0.02c-0.35,0.01-0.61,0.08-0.77,0.2
				c-0.16,0.12-0.24,0.3-0.24,0.55c0,0.18,0.05,0.31,0.14,0.41C62.44,42.82,62.58,42.87,62.77,42.87z"/>
			<path class="st5" d="M68.62,43.45h-0.75V41c0-0.31-0.05-0.54-0.16-0.69c-0.11-0.15-0.28-0.23-0.52-0.23
				c-0.32,0-0.55,0.11-0.69,0.32c-0.15,0.21-0.22,0.56-0.22,1.06v1.98h-0.75v-3.98h0.59l0.1,0.52h0.04
				c0.11-0.19,0.26-0.34,0.45-0.44s0.41-0.16,0.65-0.16c0.84,0,1.27,0.49,1.27,1.46V43.45z"/>
			<path class="st5" d="M71.15,43.52c-0.53,0-0.94-0.18-1.21-0.53s-0.42-0.86-0.42-1.51c0-0.67,0.15-1.18,0.43-1.54
				c0.29-0.36,0.71-0.54,1.26-0.54c0.37,0,0.71,0.08,1,0.23l-0.23,0.68c-0.32-0.14-0.58-0.21-0.78-0.21c-0.61,0-0.91,0.46-0.91,1.37
				c0,0.45,0.08,0.78,0.23,1.01c0.15,0.22,0.37,0.34,0.67,0.34c0.33,0,0.65-0.09,0.95-0.28v0.74c-0.13,0.09-0.28,0.15-0.43,0.19
				C71.55,43.5,71.36,43.52,71.15,43.52z"/>
			<path class="st5" d="M74.55,43.52c-0.55,0-0.98-0.18-1.28-0.54c-0.31-0.36-0.46-0.86-0.46-1.49c0-0.65,0.14-1.16,0.43-1.53
				s0.68-0.56,1.18-0.56c0.46,0,0.83,0.16,1.1,0.48s0.4,0.76,0.4,1.32v0.46h-2.35c0.01,0.39,0.1,0.68,0.28,0.89
				c0.17,0.21,0.42,0.31,0.74,0.31c0.21,0,0.4-0.02,0.58-0.07c0.18-0.04,0.37-0.12,0.58-0.22v0.69c-0.18,0.1-0.37,0.17-0.55,0.21
				C75,43.5,74.79,43.52,74.55,43.52z M74.41,40.04c-0.24,0-0.43,0.08-0.57,0.25c-0.14,0.17-0.23,0.42-0.26,0.75h1.6
				c0-0.33-0.07-0.58-0.21-0.75C74.84,40.12,74.65,40.04,74.41,40.04z"/>
		</g>
	</g>
</g>
<g>
	<path class="st12" d="M454.28-732.17v-15 M-141-732.17v-15 M460.28,115.72h15 M-147,115.72h-15 M460.28-726.17h15 M-147-726.17h-15
		"/>
	<path class="st13" d="M454.28-732.17v-15 M-141-732.17v-15 M460.28,115.72h15 M-147,115.72h-15 M460.28-726.17h15 M-147-726.17h-15
		"/>
</g>
</svg>
