<?xml version="1.0" encoding="utf-8"?>
<!-- Generator: Adobe Illustrator 24.3.0, SVG Export Plug-In . SVG Version: 6.00 Build 0)  -->
<svg version="1.1" id="Layer_1" xmlns="http://www.w3.org/2000/svg" xmlns:xlink="http://www.w3.org/1999/xlink" x="0px" y="0px"
	 viewBox="0 0 103.68 75.38" style="enable-background:new 0 0 103.68 75.38;" xml:space="preserve">
<style type="text/css">
	.st0{fill:#F7F5F2;}
	.st1{fill:#F1EEE9;}
	.st2{fill:#A0926A;}
	.st3{fill:#0092B2;}
	.st4{fill:#1568A1;}
	.st5{fill:#FFFFFF;}
	.st6{fill:#2D77AA;}
	.st7{fill:#32A7C2;}
	.st8{fill:#AA9D78;}
	.st9{fill:#A1A94F;}
	.st10{fill:#8B9638;}
	.st11{fill:none;stroke:#A0926A;}
	.st12{fill:none;stroke:#FFFFFF;stroke-width:1.25;stroke-miterlimit:10;}
	.st13{fill:none;stroke:#000000;stroke-width:0.25;stroke-miterlimit:10;}
	.st14{fill:#DDDEE0;}
	.st15{fill:#E8F0F5;}
	.st16{fill:#D1E1EB;}
	.st17{fill:#F7F5F1;}
	.st18{fill:#ECE9E1;}
	.st19{fill:#F4F4E9;}
	.st20{fill:#E6F5F8;}
	.st21{fill:none;stroke:#FFFFFF;stroke-width:0.25;stroke-miterlimit:10;}
	.st22{fill:#282829;}
	.st23{fill:none;stroke:#FFFFFF;stroke-width:0.3;stroke-miterlimit:10;}
	.st24{fill:none;stroke:#FFFFFF;stroke-width:0.447;stroke-miterlimit:10;}
	.st25{fill:none;stroke:#FFFFFF;stroke-width:0.652;stroke-miterlimit:10;}
	.st26{fill:none;stroke:#FFFFFF;stroke-width:0.558;stroke-miterlimit:10;}
	.st27{fill:none;stroke:#FFFFFF;stroke-width:0.363;stroke-miterlimit:10;}
	.st28{fill:none;stroke:#FFFFFF;stroke-width:0.628;stroke-linecap:round;stroke-linejoin:round;stroke-miterlimit:22.926;}
	.st29{clip-path:url(#SVGID_2_);fill:#ECE9E1;}
	.st30{clip-path:url(#SVGID_2_);fill:#F7F5F1;}
	.st31{clip-path:url(#SVGID_2_);fill:#FFFFFF;}
	.st32{fill:none;stroke:#A0926A;stroke-width:1.5;}
	.st33{fill:none;stroke:#FFFFFF;stroke-width:0.333;stroke-miterlimit:10;}
	.st34{fill:none;stroke:#FFFFFF;stroke-width:0.497;stroke-miterlimit:10;}
	.st35{fill:none;stroke:#FFFFFF;stroke-width:0.724;stroke-miterlimit:10;}
	.st36{fill:none;stroke:#FFFFFF;stroke-width:0.62;stroke-miterlimit:10;}
	.st37{fill:none;stroke:#FFFFFF;stroke-width:0.4;stroke-miterlimit:10;}
	.st38{fill:none;stroke:#FFFFFF;stroke-width:0.403;stroke-miterlimit:10;}
	.st39{fill:#B4A888;}
	.st40{fill:none;stroke:#FFFFFF;stroke-miterlimit:10;}
	.st41{fill:none;stroke:#A0926A;stroke-width:1.19;stroke-linejoin:round;stroke-miterlimit:10;}
	.st42{fill:none;stroke:#A0926A;stroke-width:1.265;stroke-miterlimit:10;}
	.st43{fill:none;stroke:#A0926A;stroke-width:1.265;stroke-linecap:round;stroke-linejoin:round;stroke-miterlimit:10;}
	.st44{fill:none;stroke:#A0926A;stroke-width:1.265;stroke-linejoin:round;stroke-miterlimit:10;}
	.st45{fill:none;stroke:#A0926A;stroke-width:1.22;stroke-linecap:round;stroke-linejoin:round;stroke-miterlimit:22.926;}
	.st46{fill:none;stroke:#A0926A;stroke-width:1.314;stroke-linecap:round;stroke-linejoin:round;stroke-miterlimit:22.926;}
	.st47{clip-path:url(#SVGID_4_);}
	.st48{clip-path:url(#SVGID_4_);fill:#B4A888;}
	.st49{clip-path:url(#SVGID_4_);fill:#F7F5F1;}
	.st50{clip-path:url(#SVGID_4_);fill:#ECE9E1;}
	.st51{clip-path:url(#SVGID_4_);fill:none;stroke:#FFFFFF;stroke-miterlimit:10;}
	
		.st52{clip-path:url(#SVGID_8_);fill:none;stroke:#A0926A;stroke-width:1.148;stroke-linecap:round;stroke-linejoin:round;stroke-miterlimit:10;}
	
		.st53{clip-path:url(#SVGID_4_);fill:none;stroke:#A0926A;stroke-width:1.148;stroke-linecap:round;stroke-linejoin:round;stroke-miterlimit:10;stroke-dasharray:0.047,2.088;}
	
		.st54{clip-path:url(#SVGID_4_);fill:none;stroke:#A0926A;stroke-width:1.148;stroke-linecap:round;stroke-linejoin:round;stroke-miterlimit:10;}
	.st55{clip-path:url(#SVGID_4_);fill:#282829;}
	.st56{clip-path:url(#SVGID_10_);fill:none;stroke:#A0926A;stroke-width:1.397;stroke-miterlimit:10;}
	.st57{clip-path:url(#SVGID_10_);fill:none;stroke:#A0926A;stroke-width:1.397;stroke-linejoin:round;stroke-miterlimit:10;}
	
		.st58{clip-path:url(#SVGID_12_);fill:none;stroke:#A0926A;stroke-width:1.252;stroke-linecap:round;stroke-linejoin:round;stroke-miterlimit:10;}
	.st59{clip-path:url(#SVGID_14_);fill:none;stroke:#A0926A;stroke-width:1.2112;stroke-linejoin:round;stroke-miterlimit:10;}
	.st60{clip-path:url(#SVGID_16_);fill:none;stroke:#FFFFFF;stroke-width:1.25;stroke-miterlimit:10;}
	.st61{clip-path:url(#SVGID_16_);fill:none;stroke:#000000;stroke-width:0.25;stroke-miterlimit:10;}
	.st62{clip-path:url(#SVGID_16_);fill:none;stroke:#FFFFFF;stroke-width:0.4;stroke-miterlimit:10;}
	.st63{clip-path:url(#SVGID_18_);fill:none;stroke:#FFFFFF;stroke-width:0.4;stroke-miterlimit:10;}
</style>
<g>
	<g>
		<rect class="st6" width="103.68" height="75.38"/>
	</g>
	<g>
		<path class="st5" d="M4.46,16.41c0-0.33,0.07-0.58,0.21-0.76s0.34-0.26,0.6-0.26c0.26,0,0.46,0.09,0.6,0.26
			c0.14,0.17,0.21,0.42,0.21,0.75c0,0.32-0.07,0.57-0.21,0.75s-0.34,0.27-0.6,0.27c-0.25,0-0.45-0.09-0.6-0.26
			S4.46,16.74,4.46,16.41z"/>
		<path class="st5" d="M8.92,19.1v-5.26h0.76v5.26H8.92z"/>
		<path class="st5" d="M13.98,19.1h-0.75v-2.45c0-0.31-0.05-0.54-0.16-0.69c-0.11-0.15-0.28-0.23-0.52-0.23
			c-0.32,0-0.55,0.11-0.69,0.32c-0.15,0.21-0.22,0.56-0.22,1.06v1.98h-0.75v-3.98h0.59l0.1,0.52h0.04c0.11-0.19,0.26-0.34,0.45-0.44
			s0.41-0.16,0.65-0.16c0.84,0,1.27,0.49,1.27,1.46V19.1z"/>
		<path class="st5" d="M16.5,19.17c-0.53,0-0.94-0.18-1.21-0.53s-0.42-0.86-0.42-1.51c0-0.67,0.15-1.18,0.43-1.54
			c0.29-0.36,0.71-0.54,1.26-0.54c0.37,0,0.71,0.08,1,0.23l-0.23,0.68c-0.32-0.14-0.58-0.21-0.78-0.21c-0.61,0-0.91,0.46-0.91,1.37
			c0,0.45,0.08,0.78,0.23,1.01c0.15,0.22,0.37,0.34,0.67,0.34c0.33,0,0.65-0.09,0.95-0.28v0.74c-0.13,0.09-0.28,0.15-0.43,0.19
			C16.9,19.15,16.72,19.17,16.5,19.17z"/>
		<path class="st5" d="M19.12,19.1h-0.75v-5.6h0.75V19.1z"/>
		<path class="st5" d="M22.73,19.1l-0.1-0.52h-0.04c-0.1,0.18-0.25,0.33-0.44,0.44c-0.19,0.11-0.41,0.16-0.66,0.16
			c-0.43,0-0.74-0.12-0.96-0.36c-0.21-0.24-0.31-0.6-0.31-1.09v-2.6h0.75v2.46c0,0.3,0.06,0.53,0.17,0.69s0.28,0.23,0.52,0.23
			c0.31,0,0.54-0.11,0.69-0.32c0.15-0.21,0.22-0.57,0.22-1.07v-1.98h0.75v3.98H22.73z"/>
		<path class="st5" d="M26.81,17.97c0,0.39-0.13,0.69-0.38,0.89c-0.25,0.21-0.61,0.31-1.08,0.31c-0.47,0-0.85-0.08-1.13-0.24V18.2
			c0.41,0.22,0.8,0.32,1.16,0.32c0.46,0,0.69-0.16,0.69-0.47c0-0.1-0.03-0.18-0.08-0.25c-0.05-0.07-0.13-0.14-0.25-0.21
			c-0.12-0.07-0.28-0.15-0.49-0.25c-0.41-0.18-0.68-0.36-0.82-0.53s-0.21-0.41-0.21-0.69c0-0.34,0.12-0.61,0.36-0.79
			c0.24-0.19,0.57-0.28,0.99-0.28c0.41,0,0.81,0.1,1.17,0.29l-0.24,0.64c-0.38-0.18-0.7-0.27-0.96-0.27c-0.39,0-0.59,0.13-0.59,0.38
			c0,0.13,0.05,0.23,0.15,0.32c0.1,0.09,0.33,0.21,0.67,0.36c0.29,0.13,0.5,0.24,0.63,0.35c0.13,0.11,0.23,0.23,0.29,0.37
			C26.77,17.61,26.81,17.77,26.81,17.97z"/>
		<path class="st5" d="M27.63,14.06c0-0.15,0.04-0.27,0.11-0.35c0.07-0.08,0.18-0.12,0.31-0.12c0.13,0,0.23,0.04,0.31,0.12
			c0.07,0.08,0.11,0.2,0.11,0.35c0,0.14-0.04,0.26-0.11,0.34c-0.07,0.08-0.18,0.13-0.31,0.13c-0.14,0-0.24-0.04-0.31-0.13
			C27.67,14.32,27.63,14.21,27.63,14.06z M28.42,19.1h-0.75v-3.98h0.75V19.1z"/>
		<path class="st5" d="M30.35,19.1l-1.34-3.98h0.79l0.72,2.31c0.12,0.39,0.2,0.7,0.22,0.94h0.03c0.02-0.17,0.09-0.49,0.22-0.94
			l0.72-2.31h0.8l-1.34,3.98H30.35z"/>
		<path class="st5" d="M34.63,19.17c-0.55,0-0.98-0.18-1.28-0.54c-0.31-0.36-0.46-0.86-0.46-1.49c0-0.65,0.14-1.16,0.43-1.53
			s0.68-0.56,1.18-0.56c0.46,0,0.83,0.16,1.1,0.48s0.4,0.76,0.4,1.32v0.46h-2.35c0.01,0.39,0.1,0.68,0.28,0.89
			c0.17,0.21,0.42,0.31,0.74,0.31c0.21,0,0.4-0.02,0.58-0.07c0.18-0.04,0.37-0.12,0.58-0.22v0.69c-0.18,0.1-0.37,0.17-0.55,0.21
			C35.09,19.15,34.87,19.17,34.63,19.17z M34.5,15.69c-0.24,0-0.43,0.08-0.57,0.25c-0.14,0.17-0.23,0.42-0.26,0.75h1.6
			c0-0.33-0.07-0.58-0.21-0.75C34.92,15.77,34.74,15.69,34.5,15.69z"/>
		<path class="st5" d="M41.43,17.67c0,0.47-0.15,0.83-0.45,1.1c-0.3,0.27-0.71,0.4-1.24,0.4s-0.96-0.09-1.29-0.28v-0.81
			c0.21,0.11,0.44,0.2,0.68,0.27c0.24,0.06,0.46,0.1,0.67,0.1c0.3,0,0.52-0.06,0.67-0.19c0.14-0.13,0.21-0.3,0.21-0.52
			c0-0.2-0.07-0.36-0.2-0.5c-0.13-0.14-0.4-0.3-0.81-0.49c-0.42-0.19-0.72-0.42-0.9-0.67c-0.17-0.25-0.26-0.55-0.26-0.9
			c0-0.44,0.14-0.78,0.41-1.04s0.65-0.38,1.11-0.38c0.45,0,0.89,0.11,1.33,0.33l-0.24,0.7c-0.41-0.2-0.78-0.29-1.11-0.29
			c-0.25,0-0.43,0.06-0.56,0.18s-0.19,0.28-0.19,0.48c0,0.14,0.03,0.25,0.08,0.35c0.05,0.1,0.13,0.19,0.25,0.28
			c0.12,0.09,0.33,0.2,0.63,0.34c0.34,0.16,0.59,0.31,0.75,0.45c0.16,0.14,0.28,0.3,0.35,0.47C41.39,17.23,41.43,17.43,41.43,17.67z
			"/>
		<path class="st5" d="M44.79,19.1l-0.1-0.52h-0.04c-0.1,0.18-0.25,0.33-0.44,0.44c-0.19,0.11-0.41,0.16-0.66,0.16
			c-0.43,0-0.74-0.12-0.96-0.36c-0.21-0.24-0.31-0.6-0.31-1.09v-2.6h0.75v2.46c0,0.3,0.06,0.53,0.17,0.69s0.28,0.23,0.52,0.23
			c0.31,0,0.54-0.11,0.69-0.32c0.15-0.21,0.22-0.57,0.22-1.07v-1.98h0.75v3.98H44.79z"/>
		<path class="st5" d="M48.29,19.17c-0.45,0-0.79-0.18-1.04-0.54h-0.04c0.03,0.34,0.04,0.54,0.04,0.61v1.63H46.5v-5.75h0.6
			c0.02,0.07,0.05,0.25,0.1,0.53h0.04c0.23-0.4,0.58-0.61,1.05-0.61c0.44,0,0.78,0.18,1.03,0.54c0.25,0.36,0.37,0.87,0.37,1.52
			s-0.12,1.16-0.37,1.52C49.07,18.99,48.73,19.17,48.29,19.17z M48.11,15.74c-0.3,0-0.51,0.1-0.65,0.29
			c-0.14,0.2-0.21,0.51-0.21,0.94v0.13c0,0.49,0.07,0.84,0.2,1.05c0.14,0.22,0.36,0.33,0.67,0.33c0.26,0,0.46-0.12,0.6-0.36
			c0.14-0.24,0.21-0.58,0.21-1.03c0-0.45-0.07-0.78-0.21-1.01C48.58,15.85,48.38,15.74,48.11,15.74z"/>
		<path class="st5" d="M52.41,19.17c-0.45,0-0.79-0.18-1.04-0.54h-0.04c0.03,0.34,0.04,0.54,0.04,0.61v1.63h-0.75v-5.75h0.6
			c0.02,0.07,0.05,0.25,0.1,0.53h0.04c0.23-0.4,0.58-0.61,1.05-0.61c0.44,0,0.78,0.18,1.03,0.54c0.25,0.36,0.37,0.87,0.37,1.52
			s-0.12,1.16-0.37,1.52C53.19,18.99,52.85,19.17,52.41,19.17z M52.23,15.74c-0.3,0-0.51,0.1-0.65,0.29
			c-0.14,0.2-0.21,0.51-0.21,0.94v0.13c0,0.49,0.07,0.84,0.2,1.05c0.14,0.22,0.36,0.33,0.67,0.33c0.26,0,0.46-0.12,0.6-0.36
			c0.14-0.24,0.21-0.58,0.21-1.03c0-0.45-0.07-0.78-0.21-1.01C52.7,15.85,52.5,15.74,52.23,15.74z"/>
		<path class="st5" d="M55.49,19.1h-0.75v-5.6h0.75V19.1z"/>
		<path class="st5" d="M56.09,15.12h0.81l0.72,2.26c0.11,0.32,0.18,0.62,0.22,0.91h0.03c0.02-0.13,0.05-0.29,0.1-0.48
			c0.05-0.19,0.32-1.08,0.81-2.68h0.81l-1.51,4.51c-0.27,0.83-0.73,1.24-1.37,1.24c-0.17,0-0.33-0.02-0.48-0.06v-0.67
			c0.11,0.03,0.24,0.04,0.39,0.04c0.36,0,0.61-0.24,0.76-0.71l0.13-0.37L56.09,15.12z"/>
		<path class="st5" d="M63.99,14.5c-0.44,0-0.78,0.18-1.03,0.53c-0.25,0.35-0.38,0.83-0.38,1.45c0,0.65,0.12,1.13,0.36,1.46
			c0.24,0.33,0.59,0.5,1.05,0.5c0.2,0,0.39-0.02,0.57-0.07c0.18-0.04,0.38-0.1,0.58-0.17v0.74c-0.37,0.16-0.78,0.23-1.24,0.23
			c-0.68,0-1.2-0.23-1.57-0.7c-0.36-0.47-0.55-1.13-0.55-2c0-0.55,0.09-1.03,0.27-1.44c0.18-0.41,0.43-0.72,0.77-0.94
			c0.33-0.22,0.73-0.33,1.18-0.33c0.48,0,0.91,0.11,1.32,0.34l-0.27,0.72c-0.16-0.08-0.32-0.16-0.5-0.22
			C64.36,14.53,64.18,14.5,63.99,14.5z"/>
		<path class="st5" d="M69.22,19.1h-0.75v-2.45c0-0.31-0.05-0.54-0.16-0.69c-0.11-0.15-0.28-0.23-0.52-0.23
			c-0.31,0-0.54,0.11-0.69,0.32c-0.15,0.21-0.22,0.57-0.22,1.07v1.98h-0.75v-5.6h0.75v1.42c0,0.23-0.01,0.47-0.04,0.73h0.05
			c0.1-0.19,0.24-0.34,0.42-0.45c0.18-0.11,0.39-0.16,0.64-0.16c0.85,0,1.28,0.49,1.28,1.46V19.1z"/>
		<path class="st5" d="M72.52,19.1l-0.15-0.55h-0.03c-0.17,0.24-0.34,0.41-0.51,0.5c-0.17,0.09-0.39,0.13-0.66,0.13
			c-0.35,0-0.62-0.11-0.81-0.32c-0.19-0.21-0.29-0.51-0.29-0.9c0-0.41,0.13-0.72,0.4-0.93c0.27-0.21,0.68-0.32,1.23-0.34l0.61-0.02
			v-0.21c0-0.25-0.05-0.45-0.16-0.57s-0.27-0.19-0.49-0.19c-0.18,0-0.35,0.03-0.52,0.09c-0.17,0.06-0.32,0.13-0.48,0.21l-0.24-0.61
			c0.19-0.11,0.4-0.2,0.63-0.26s0.44-0.09,0.64-0.09c0.45,0,0.79,0.11,1.01,0.33c0.23,0.22,0.34,0.57,0.34,1.04v2.68H72.52z
			 M71.4,18.52c0.27,0,0.49-0.09,0.65-0.26c0.16-0.17,0.25-0.41,0.25-0.72V17.2l-0.45,0.02c-0.35,0.01-0.61,0.08-0.77,0.2
			c-0.16,0.12-0.24,0.3-0.24,0.55c0,0.18,0.05,0.31,0.14,0.41C71.08,18.47,71.22,18.52,71.4,18.52z"/>
		<path class="st5" d="M74.11,14.06c0-0.15,0.04-0.27,0.11-0.35c0.07-0.08,0.18-0.12,0.31-0.12c0.13,0,0.23,0.04,0.31,0.12
			c0.07,0.08,0.11,0.2,0.11,0.35c0,0.14-0.04,0.26-0.11,0.34c-0.07,0.08-0.18,0.13-0.31,0.13c-0.14,0-0.24-0.04-0.31-0.13
			C74.15,14.32,74.11,14.21,74.11,14.06z M74.9,19.1h-0.75v-3.98h0.75V19.1z"/>
		<path class="st5" d="M79.13,19.1h-0.75v-2.45c0-0.31-0.05-0.54-0.16-0.69c-0.11-0.15-0.28-0.23-0.52-0.23
			c-0.32,0-0.55,0.11-0.69,0.32c-0.15,0.21-0.22,0.56-0.22,1.06v1.98h-0.75v-3.98h0.59l0.1,0.52h0.04c0.11-0.19,0.26-0.34,0.45-0.44
			s0.41-0.16,0.65-0.16c0.84,0,1.27,0.49,1.27,1.46V19.1z"/>
	</g>
	<g>
		<path class="st5" d="M4.46,25.25c0-0.33,0.07-0.58,0.21-0.76s0.34-0.26,0.6-0.26c0.26,0,0.46,0.09,0.6,0.26
			c0.14,0.17,0.21,0.42,0.21,0.75c0,0.32-0.07,0.57-0.21,0.75s-0.34,0.27-0.6,0.27c-0.25,0-0.45-0.09-0.6-0.26
			S4.46,25.58,4.46,25.25z"/>
		<path class="st5" d="M8.33,29.42c-0.21,0-0.38-0.03-0.52-0.09V28.6c0.18,0.05,0.33,0.08,0.46,0.08c0.42,0,0.62-0.3,0.62-0.89v-5.1
			h0.76v5.07c0,0.54-0.11,0.95-0.34,1.23S8.76,29.42,8.33,29.42z"/>
		<path class="st5" d="M13.97,25.95c0,0.65-0.15,1.16-0.44,1.52c-0.29,0.37-0.71,0.55-1.23,0.55c-0.33,0-0.62-0.08-0.87-0.25
			s-0.45-0.41-0.58-0.72s-0.2-0.68-0.2-1.09c0-0.65,0.15-1.15,0.44-1.51c0.29-0.36,0.71-0.54,1.24-0.54c0.51,0,0.91,0.19,1.21,0.56
			C13.82,24.82,13.97,25.32,13.97,25.95z M11.4,25.95c0,0.92,0.3,1.38,0.9,1.38c0.59,0,0.89-0.46,0.89-1.38
			c0-0.91-0.3-1.36-0.9-1.36c-0.31,0-0.54,0.12-0.68,0.35C11.47,25.17,11.4,25.51,11.4,25.95z"/>
		<path class="st5" d="M16.68,23.89c0.44,0,0.78,0.18,1.03,0.54c0.25,0.36,0.37,0.87,0.37,1.52c0,0.65-0.12,1.16-0.37,1.52
			c-0.25,0.36-0.59,0.55-1.03,0.55c-0.45,0-0.79-0.18-1.04-0.54h-0.05l-0.14,0.47h-0.56v-5.6h0.75v1.33c0,0.1,0,0.25-0.01,0.44
			c-0.01,0.19-0.01,0.32-0.02,0.37h0.03C15.87,24.09,16.22,23.89,16.68,23.89z M16.49,24.58c-0.3,0-0.52,0.1-0.65,0.3
			c-0.13,0.2-0.2,0.54-0.21,1.01v0.06c0,0.49,0.07,0.84,0.2,1.05c0.14,0.22,0.36,0.33,0.67,0.33c0.27,0,0.47-0.12,0.6-0.36
			c0.14-0.24,0.21-0.58,0.21-1.03C17.31,25.04,17.04,24.58,16.49,24.58z"/>
		<path class="st5" d="M22.82,23.35c-0.44,0-0.78,0.18-1.03,0.53c-0.25,0.35-0.38,0.83-0.38,1.45c0,0.65,0.12,1.13,0.36,1.46
			c0.24,0.33,0.59,0.5,1.05,0.5c0.2,0,0.39-0.02,0.57-0.07c0.18-0.04,0.38-0.1,0.58-0.17v0.74c-0.37,0.16-0.78,0.23-1.24,0.23
			c-0.68,0-1.2-0.23-1.57-0.7c-0.36-0.47-0.55-1.13-0.55-2c0-0.55,0.09-1.03,0.27-1.44c0.18-0.41,0.43-0.72,0.77-0.94
			c0.33-0.22,0.73-0.33,1.18-0.33c0.48,0,0.91,0.11,1.32,0.34l-0.27,0.72c-0.16-0.08-0.32-0.16-0.5-0.22
			C23.19,23.38,23.01,23.35,22.82,23.35z"/>
		<path class="st5" d="M26.73,23.89c0.15,0,0.27,0.01,0.37,0.04l-0.07,0.79c-0.11-0.03-0.22-0.04-0.33-0.04
			c-0.3,0-0.54,0.11-0.73,0.33c-0.19,0.22-0.28,0.51-0.28,0.86v2.08h-0.75v-3.98h0.59l0.1,0.7h0.04c0.12-0.24,0.27-0.43,0.46-0.57
			C26.31,23.96,26.52,23.89,26.73,23.89z"/>
		<path class="st5" d="M29.35,28.02c-0.55,0-0.98-0.18-1.28-0.54c-0.31-0.36-0.46-0.86-0.46-1.49c0-0.65,0.14-1.16,0.43-1.53
			s0.68-0.56,1.18-0.56c0.46,0,0.83,0.16,1.1,0.48s0.4,0.76,0.4,1.32v0.46h-2.35c0.01,0.39,0.1,0.68,0.28,0.89
			c0.17,0.21,0.42,0.31,0.74,0.31c0.21,0,0.4-0.02,0.58-0.07c0.18-0.04,0.37-0.12,0.58-0.22v0.69c-0.18,0.1-0.37,0.17-0.55,0.21
			C29.81,28,29.59,28.02,29.35,28.02z M29.22,24.53c-0.24,0-0.43,0.08-0.57,0.25c-0.14,0.17-0.23,0.42-0.26,0.75h1.6
			c0-0.33-0.07-0.58-0.21-0.75C29.64,24.62,29.45,24.53,29.22,24.53z"/>
		<path class="st5" d="M33.83,27.95l-0.15-0.55h-0.03c-0.17,0.24-0.34,0.41-0.51,0.5c-0.17,0.09-0.39,0.13-0.66,0.13
			c-0.35,0-0.62-0.11-0.81-0.32c-0.19-0.21-0.29-0.51-0.29-0.9c0-0.41,0.13-0.72,0.4-0.93c0.27-0.21,0.68-0.32,1.23-0.34l0.61-0.02
			V25.3c0-0.25-0.05-0.45-0.16-0.57s-0.27-0.19-0.49-0.19c-0.18,0-0.35,0.03-0.52,0.09c-0.17,0.06-0.32,0.13-0.48,0.21l-0.24-0.61
			c0.19-0.11,0.4-0.2,0.63-0.26s0.44-0.09,0.64-0.09c0.45,0,0.79,0.11,1.01,0.33c0.23,0.22,0.34,0.57,0.34,1.04v2.68H33.83z
			 M32.72,27.37c0.27,0,0.49-0.09,0.65-0.26c0.16-0.17,0.25-0.41,0.25-0.72v-0.35l-0.45,0.02c-0.35,0.01-0.61,0.08-0.77,0.2
			c-0.16,0.12-0.24,0.3-0.24,0.55c0,0.18,0.05,0.31,0.14,0.41C32.39,27.32,32.53,27.37,32.72,27.37z"/>
		<path class="st5" d="M36.78,27.33c0.18,0,0.37-0.03,0.55-0.1v0.64c-0.08,0.04-0.19,0.08-0.32,0.1c-0.13,0.03-0.27,0.04-0.41,0.04
			c-0.71,0-1.06-0.42-1.06-1.27v-2.15h-0.48v-0.37l0.52-0.31l0.25-0.84h0.46v0.89h1v0.64h-1v2.13c0,0.2,0.05,0.36,0.14,0.45
			C36.52,27.29,36.64,27.33,36.78,27.33z"/>
		<path class="st5" d="M38.05,22.91c0-0.15,0.04-0.27,0.11-0.35c0.07-0.08,0.18-0.12,0.31-0.12c0.13,0,0.23,0.04,0.31,0.12
			c0.07,0.08,0.11,0.2,0.11,0.35c0,0.14-0.04,0.26-0.11,0.34c-0.07,0.08-0.18,0.13-0.31,0.13c-0.14,0-0.24-0.04-0.31-0.13
			C38.09,23.17,38.05,23.05,38.05,22.91z M38.84,27.95h-0.75v-3.98h0.75V27.95z"/>
		<path class="st5" d="M43.09,25.95c0,0.65-0.15,1.16-0.44,1.52c-0.29,0.37-0.71,0.55-1.23,0.55c-0.33,0-0.62-0.08-0.87-0.25
			s-0.45-0.41-0.58-0.72s-0.2-0.68-0.2-1.09c0-0.65,0.15-1.15,0.44-1.51c0.29-0.36,0.71-0.54,1.24-0.54c0.51,0,0.91,0.19,1.21,0.56
			C42.94,24.82,43.09,25.32,43.09,25.95z M40.53,25.95c0,0.92,0.3,1.38,0.9,1.38c0.59,0,0.89-0.46,0.89-1.38
			c0-0.91-0.3-1.36-0.9-1.36c-0.31,0-0.54,0.12-0.68,0.35C40.6,25.17,40.53,25.51,40.53,25.95z"/>
		<path class="st5" d="M47.11,27.95h-0.75V25.5c0-0.31-0.05-0.54-0.16-0.69c-0.11-0.15-0.28-0.23-0.52-0.23
			c-0.32,0-0.55,0.11-0.69,0.32c-0.15,0.21-0.22,0.56-0.22,1.06v1.98h-0.75v-3.98h0.59l0.1,0.52h0.04c0.11-0.19,0.26-0.34,0.45-0.44
			s0.41-0.16,0.65-0.16c0.84,0,1.27,0.49,1.27,1.46V27.95z"/>
		<path class="st5" d="M52.16,27.95l-0.15-0.55h-0.03c-0.17,0.24-0.34,0.41-0.51,0.5c-0.17,0.09-0.39,0.13-0.66,0.13
			c-0.35,0-0.62-0.11-0.81-0.32c-0.19-0.21-0.29-0.51-0.29-0.9c0-0.41,0.13-0.72,0.4-0.93c0.27-0.21,0.68-0.32,1.23-0.34l0.61-0.02
			V25.3c0-0.25-0.05-0.45-0.16-0.57s-0.27-0.19-0.49-0.19c-0.18,0-0.35,0.03-0.52,0.09c-0.17,0.06-0.32,0.13-0.48,0.21l-0.24-0.61
			c0.19-0.11,0.4-0.2,0.63-0.26s0.44-0.09,0.64-0.09c0.45,0,0.79,0.11,1.01,0.33c0.23,0.22,0.34,0.57,0.34,1.04v2.68H52.16z
			 M51.05,27.37c0.27,0,0.49-0.09,0.65-0.26c0.16-0.17,0.25-0.41,0.25-0.72v-0.35l-0.45,0.02c-0.35,0.01-0.61,0.08-0.77,0.2
			c-0.16,0.12-0.24,0.3-0.24,0.55c0,0.18,0.05,0.31,0.14,0.41C50.72,27.32,50.86,27.37,51.05,27.37z"/>
		<path class="st5" d="M56.9,27.95h-0.75V25.5c0-0.31-0.05-0.54-0.16-0.69c-0.11-0.15-0.28-0.23-0.52-0.23
			c-0.32,0-0.55,0.11-0.69,0.32c-0.15,0.21-0.22,0.56-0.22,1.06v1.98H53.8v-3.98h0.59l0.1,0.52h0.04c0.11-0.19,0.26-0.34,0.45-0.44
			s0.41-0.16,0.65-0.16c0.84,0,1.27,0.49,1.27,1.46V27.95z"/>
		<path class="st5" d="M59.18,28.02c-0.44,0-0.78-0.18-1.03-0.54c-0.25-0.36-0.37-0.87-0.37-1.52c0-0.65,0.12-1.16,0.37-1.52
			s0.59-0.55,1.04-0.55c0.46,0,0.81,0.19,1.06,0.58h0.04c-0.04-0.29-0.05-0.51-0.05-0.68v-1.45h0.75v5.6H60.4l-0.13-0.52h-0.04
			C60,27.82,59.65,28.02,59.18,28.02z M59.38,27.33c0.31,0,0.53-0.1,0.67-0.29s0.21-0.51,0.22-0.95v-0.12c0-0.5-0.07-0.86-0.22-1.07
			c-0.14-0.21-0.37-0.32-0.68-0.32c-0.26,0-0.47,0.12-0.61,0.36c-0.14,0.24-0.21,0.58-0.21,1.03c0,0.44,0.07,0.78,0.21,1.01
			C58.9,27.22,59.11,27.33,59.38,27.33z"/>
	</g>
	<g>
		<path class="st5" d="M12.3,32.19c-0.44,0-0.78,0.18-1.03,0.53c-0.25,0.35-0.38,0.83-0.38,1.45c0,0.65,0.12,1.13,0.36,1.46
			c0.24,0.33,0.59,0.5,1.05,0.5c0.2,0,0.39-0.02,0.57-0.07c0.18-0.04,0.38-0.1,0.58-0.17v0.74c-0.37,0.16-0.78,0.23-1.24,0.23
			c-0.68,0-1.2-0.23-1.57-0.7c-0.36-0.47-0.55-1.13-0.55-2c0-0.55,0.09-1.03,0.27-1.44c0.18-0.41,0.43-0.72,0.77-0.94
			c0.33-0.22,0.73-0.33,1.18-0.33c0.48,0,0.91,0.11,1.32,0.34l-0.27,0.72c-0.16-0.08-0.32-0.16-0.5-0.22
			C12.68,32.22,12.49,32.19,12.3,32.19z"/>
		<path class="st5" d="M16.64,36.79l-0.15-0.55h-0.03c-0.17,0.24-0.34,0.41-0.51,0.5c-0.17,0.09-0.39,0.13-0.66,0.13
			c-0.35,0-0.62-0.11-0.81-0.32c-0.19-0.21-0.29-0.51-0.29-0.9c0-0.41,0.13-0.72,0.4-0.93c0.27-0.21,0.68-0.32,1.23-0.34l0.61-0.02
			v-0.21c0-0.25-0.05-0.45-0.16-0.57s-0.27-0.19-0.49-0.19c-0.18,0-0.35,0.03-0.52,0.09c-0.17,0.06-0.32,0.13-0.48,0.21l-0.24-0.61
			c0.19-0.11,0.4-0.2,0.63-0.26s0.44-0.09,0.64-0.09c0.45,0,0.79,0.11,1.01,0.33c0.23,0.22,0.34,0.57,0.34,1.04v2.68H16.64z
			 M15.52,36.22c0.27,0,0.49-0.09,0.65-0.26c0.16-0.17,0.25-0.41,0.25-0.72v-0.35l-0.45,0.02c-0.35,0.01-0.61,0.08-0.77,0.2
			c-0.16,0.12-0.24,0.3-0.24,0.55c0,0.18,0.05,0.31,0.14,0.41C15.19,36.17,15.33,36.22,15.52,36.22z"/>
		<path class="st5" d="M20.06,32.74c0.15,0,0.27,0.01,0.37,0.04l-0.07,0.79c-0.11-0.03-0.22-0.04-0.33-0.04
			c-0.3,0-0.54,0.11-0.73,0.33c-0.19,0.22-0.28,0.51-0.28,0.86v2.08h-0.75v-3.98h0.59l0.1,0.7H19c0.12-0.24,0.27-0.43,0.46-0.57
			C19.64,32.81,19.84,32.74,20.06,32.74z"/>
		<path class="st5" d="M22.68,36.87c-0.55,0-0.98-0.18-1.28-0.54c-0.31-0.36-0.46-0.86-0.46-1.49c0-0.65,0.14-1.16,0.43-1.53
			s0.68-0.56,1.18-0.56c0.46,0,0.83,0.16,1.1,0.48s0.4,0.76,0.4,1.32v0.46H21.7c0.01,0.39,0.1,0.68,0.28,0.89
			c0.17,0.21,0.42,0.31,0.74,0.31c0.21,0,0.4-0.02,0.58-0.07c0.18-0.04,0.37-0.12,0.58-0.22v0.69c-0.18,0.1-0.37,0.17-0.55,0.21
			C23.13,36.84,22.92,36.87,22.68,36.87z M22.54,33.38c-0.24,0-0.43,0.08-0.57,0.25c-0.14,0.17-0.23,0.42-0.26,0.75h1.6
			c0-0.33-0.07-0.58-0.21-0.75C22.97,33.46,22.78,33.38,22.54,33.38z"/>
		<path class="st5" d="M26.49,36.87c-0.55,0-0.98-0.18-1.28-0.54c-0.31-0.36-0.46-0.86-0.46-1.49c0-0.65,0.14-1.16,0.43-1.53
			s0.68-0.56,1.18-0.56c0.46,0,0.83,0.16,1.1,0.48s0.4,0.76,0.4,1.32v0.46h-2.35c0.01,0.39,0.1,0.68,0.28,0.89
			c0.17,0.21,0.42,0.31,0.74,0.31c0.21,0,0.4-0.02,0.58-0.07c0.18-0.04,0.37-0.12,0.58-0.22v0.69c-0.18,0.1-0.37,0.17-0.55,0.21
			C26.95,36.84,26.73,36.87,26.49,36.87z M26.36,33.38c-0.24,0-0.43,0.08-0.57,0.25c-0.14,0.17-0.23,0.42-0.26,0.75h1.6
			c0-0.33-0.07-0.58-0.21-0.75C26.78,33.46,26.6,33.38,26.36,33.38z"/>
		<path class="st5" d="M30.56,32.74c0.15,0,0.27,0.01,0.37,0.04l-0.07,0.79c-0.11-0.03-0.22-0.04-0.33-0.04
			c-0.3,0-0.54,0.11-0.73,0.33c-0.19,0.22-0.28,0.51-0.28,0.86v2.08h-0.75v-3.98h0.59l0.1,0.7h0.04c0.12-0.24,0.27-0.43,0.46-0.57
			C30.14,32.81,30.34,32.74,30.56,32.74z"/>
		<path class="st5" d="M37.26,34.11c0,0.87-0.21,1.53-0.64,1.99c-0.43,0.46-1.04,0.69-1.84,0.69h-1.3v-5.26h1.44
			c0.74,0,1.32,0.23,1.73,0.68S37.26,33.29,37.26,34.11z M36.46,34.14c0-1.26-0.52-1.89-1.56-1.89h-0.66v3.82h0.54
			C35.9,36.07,36.46,35.43,36.46,34.14z"/>
		<path class="st5" d="M39.77,36.87c-0.55,0-0.98-0.18-1.28-0.54c-0.31-0.36-0.46-0.86-0.46-1.49c0-0.65,0.14-1.16,0.43-1.53
			s0.68-0.56,1.18-0.56c0.46,0,0.83,0.16,1.1,0.48s0.4,0.76,0.4,1.32v0.46H38.8c0.01,0.39,0.1,0.68,0.28,0.89
			c0.17,0.21,0.42,0.31,0.74,0.31c0.21,0,0.4-0.02,0.58-0.07c0.18-0.04,0.37-0.12,0.58-0.22v0.69c-0.18,0.1-0.37,0.17-0.55,0.21
			C40.23,36.84,40.01,36.87,39.77,36.87z M39.64,33.38c-0.24,0-0.43,0.08-0.57,0.25c-0.14,0.17-0.23,0.42-0.26,0.75h1.6
			c0-0.33-0.07-0.58-0.21-0.75C40.06,33.46,39.88,33.38,39.64,33.38z"/>
		<path class="st5" d="M42.85,36.79l-1.34-3.98h0.79l0.72,2.31c0.12,0.39,0.2,0.7,0.22,0.94h0.03c0.02-0.17,0.09-0.49,0.22-0.94
			l0.72-2.31h0.8l-1.34,3.98H42.85z"/>
		<path class="st5" d="M47.14,36.87c-0.55,0-0.98-0.18-1.28-0.54c-0.31-0.36-0.46-0.86-0.46-1.49c0-0.65,0.14-1.16,0.43-1.53
			s0.68-0.56,1.18-0.56c0.46,0,0.83,0.16,1.1,0.48s0.4,0.76,0.4,1.32v0.46h-2.35c0.01,0.39,0.1,0.68,0.28,0.89
			c0.17,0.21,0.42,0.31,0.74,0.31c0.21,0,0.4-0.02,0.58-0.07c0.18-0.04,0.37-0.12,0.58-0.22v0.69c-0.18,0.1-0.37,0.17-0.55,0.21
			C47.59,36.84,47.38,36.87,47.14,36.87z M47,33.38c-0.24,0-0.43,0.08-0.57,0.25c-0.14,0.17-0.23,0.42-0.26,0.75h1.6
			c0-0.33-0.07-0.58-0.21-0.75C47.42,33.46,47.24,33.38,47,33.38z"/>
		<path class="st5" d="M50.16,36.79h-0.75v-5.6h0.75V36.79z"/>
		<path class="st5" d="M54.41,34.79c0,0.65-0.15,1.16-0.44,1.52c-0.29,0.37-0.71,0.55-1.23,0.55c-0.33,0-0.62-0.08-0.87-0.25
			s-0.45-0.41-0.58-0.72s-0.2-0.68-0.2-1.09c0-0.65,0.15-1.15,0.44-1.51c0.29-0.36,0.71-0.54,1.24-0.54c0.51,0,0.91,0.19,1.21,0.56
			C54.26,33.67,54.41,34.17,54.41,34.79z M51.85,34.79c0,0.92,0.3,1.38,0.9,1.38c0.59,0,0.89-0.46,0.89-1.38
			c0-0.91-0.3-1.36-0.9-1.36c-0.31,0-0.54,0.12-0.68,0.35C51.92,34.02,51.85,34.36,51.85,34.79z"/>
		<path class="st5" d="M57.12,36.87c-0.45,0-0.79-0.18-1.04-0.54h-0.04c0.03,0.34,0.04,0.54,0.04,0.61v1.63h-0.75v-5.75h0.6
			c0.02,0.07,0.05,0.25,0.1,0.53h0.04c0.23-0.4,0.58-0.61,1.05-0.61c0.44,0,0.78,0.18,1.03,0.54c0.25,0.36,0.37,0.87,0.37,1.52
			s-0.12,1.16-0.37,1.52C57.9,36.68,57.56,36.87,57.12,36.87z M56.94,33.43c-0.3,0-0.51,0.1-0.65,0.29
			c-0.14,0.2-0.21,0.51-0.21,0.94v0.13c0,0.49,0.07,0.84,0.2,1.05c0.14,0.22,0.36,0.33,0.67,0.33c0.26,0,0.46-0.12,0.6-0.36
			c0.14-0.24,0.21-0.58,0.21-1.03c0-0.45-0.07-0.78-0.21-1.01C57.41,33.55,57.21,33.43,56.94,33.43z"/>
		<path class="st5" d="M62.42,36.79h-0.75v-2.46c0-0.3-0.05-0.53-0.15-0.68c-0.1-0.15-0.26-0.23-0.48-0.23
			c-0.29,0-0.5,0.11-0.64,0.32c-0.13,0.21-0.2,0.57-0.2,1.06v1.98h-0.75v-3.98h0.59l0.1,0.52h0.04c0.1-0.19,0.24-0.34,0.42-0.44
			c0.19-0.1,0.39-0.16,0.61-0.16c0.54,0,0.9,0.21,1.08,0.63h0.05c0.1-0.2,0.25-0.35,0.44-0.46s0.41-0.17,0.65-0.17
			c0.42,0,0.73,0.12,0.92,0.36c0.19,0.24,0.29,0.61,0.29,1.1v2.6h-0.75v-2.46c0-0.3-0.05-0.53-0.15-0.68
			c-0.1-0.15-0.26-0.23-0.48-0.23c-0.29,0-0.5,0.1-0.64,0.31s-0.2,0.52-0.2,0.95V36.79z"/>
		<path class="st5" d="M67.28,36.87c-0.55,0-0.98-0.18-1.28-0.54c-0.31-0.36-0.46-0.86-0.46-1.49c0-0.65,0.14-1.16,0.43-1.53
			s0.68-0.56,1.18-0.56c0.46,0,0.83,0.16,1.1,0.48s0.4,0.76,0.4,1.32v0.46H66.3c0.01,0.39,0.1,0.68,0.28,0.89
			c0.17,0.21,0.42,0.31,0.74,0.31c0.21,0,0.4-0.02,0.58-0.07c0.18-0.04,0.37-0.12,0.58-0.22v0.69c-0.18,0.1-0.37,0.17-0.55,0.21
			C67.73,36.84,67.52,36.87,67.28,36.87z M67.14,33.38c-0.24,0-0.43,0.08-0.57,0.25c-0.14,0.17-0.23,0.42-0.26,0.75h1.6
			c0-0.33-0.07-0.58-0.21-0.75C67.57,33.46,67.38,33.38,67.14,33.38z"/>
		<path class="st5" d="M72.66,36.79H71.9v-2.45c0-0.31-0.05-0.54-0.16-0.69c-0.11-0.15-0.28-0.23-0.52-0.23
			c-0.32,0-0.55,0.11-0.69,0.32c-0.15,0.21-0.22,0.56-0.22,1.06v1.98h-0.75v-3.98h0.59l0.1,0.52h0.04c0.11-0.19,0.26-0.34,0.45-0.44
			s0.41-0.16,0.65-0.16c0.84,0,1.27,0.49,1.27,1.46V36.79z"/>
		<path class="st5" d="M75.07,36.18c0.18,0,0.37-0.03,0.55-0.1v0.64c-0.08,0.04-0.19,0.08-0.32,0.1c-0.13,0.03-0.27,0.04-0.41,0.04
			c-0.71,0-1.06-0.42-1.06-1.27v-2.15h-0.48v-0.37l0.52-0.31l0.25-0.84h0.46v0.89h1v0.64h-1v2.13c0,0.2,0.05,0.36,0.14,0.45
			C74.8,36.13,74.92,36.18,75.07,36.18z"/>
	</g>
	<g>
		<path class="st5" d="M14.45,43c0,0.86-0.19,1.52-0.57,2c-0.38,0.47-0.92,0.71-1.61,0.71c-0.7,0-1.24-0.24-1.62-0.71
			c-0.38-0.47-0.56-1.14-0.56-2.01c0-0.87,0.19-1.54,0.57-2c0.38-0.46,0.92-0.7,1.62-0.7c0.69,0,1.23,0.24,1.6,0.71
			C14.26,41.48,14.45,42.14,14.45,43z M10.9,43c0,0.65,0.12,1.14,0.35,1.47c0.23,0.33,0.57,0.5,1.03,0.5c0.45,0,0.79-0.17,1.02-0.5
			s0.35-0.82,0.35-1.48c0-0.65-0.11-1.13-0.34-1.47c-0.23-0.33-0.57-0.5-1.02-0.5c-0.46,0-0.8,0.17-1.03,0.5
			C11.02,41.87,10.9,42.36,10.9,43z"/>
		<path class="st5" d="M17.22,45.71c-0.45,0-0.79-0.18-1.04-0.54h-0.04c0.03,0.34,0.04,0.54,0.04,0.61v1.63h-0.75v-5.75h0.6
			c0.02,0.07,0.05,0.25,0.1,0.53h0.04c0.23-0.4,0.58-0.61,1.05-0.61c0.44,0,0.78,0.18,1.03,0.54c0.25,0.36,0.37,0.87,0.37,1.52
			s-0.12,1.16-0.37,1.52C18,45.53,17.66,45.71,17.22,45.71z M17.04,42.28c-0.3,0-0.51,0.1-0.65,0.29c-0.14,0.2-0.21,0.51-0.21,0.94
			v0.13c0,0.49,0.07,0.84,0.2,1.05c0.14,0.22,0.36,0.33,0.67,0.33c0.26,0,0.46-0.12,0.6-0.36c0.14-0.24,0.21-0.58,0.21-1.03
			c0-0.45-0.07-0.78-0.21-1.01C17.51,42.39,17.31,42.28,17.04,42.28z"/>
		<path class="st5" d="M21.34,45.71c-0.45,0-0.79-0.18-1.04-0.54h-0.04c0.03,0.34,0.04,0.54,0.04,0.61v1.63h-0.75v-5.75h0.6
			c0.02,0.07,0.05,0.25,0.1,0.53h0.04c0.23-0.4,0.58-0.61,1.05-0.61c0.44,0,0.78,0.18,1.03,0.54c0.25,0.36,0.37,0.87,0.37,1.52
			s-0.12,1.16-0.37,1.52C22.12,45.53,21.78,45.71,21.34,45.71z M21.16,42.28c-0.3,0-0.51,0.1-0.65,0.29
			c-0.14,0.2-0.21,0.51-0.21,0.94v0.13c0,0.49,0.07,0.84,0.2,1.05c0.14,0.22,0.36,0.33,0.67,0.33c0.26,0,0.46-0.12,0.6-0.36
			c0.14-0.24,0.21-0.58,0.21-1.03c0-0.45-0.07-0.78-0.21-1.01C21.63,42.39,21.43,42.28,21.16,42.28z"/>
		<path class="st5" d="M26.8,43.64c0,0.65-0.15,1.16-0.44,1.52c-0.29,0.37-0.71,0.55-1.23,0.55c-0.33,0-0.62-0.08-0.87-0.25
			s-0.45-0.41-0.58-0.72s-0.2-0.68-0.2-1.09c0-0.65,0.15-1.15,0.44-1.51c0.29-0.36,0.71-0.54,1.24-0.54c0.51,0,0.91,0.19,1.21,0.56
			C26.65,42.51,26.8,43.01,26.8,43.64z M24.23,43.64c0,0.92,0.3,1.38,0.9,1.38c0.59,0,0.89-0.46,0.89-1.38c0-0.91-0.3-1.36-0.9-1.36
			c-0.31,0-0.54,0.12-0.68,0.35C24.3,42.87,24.23,43.2,24.23,43.64z"/>
		<path class="st5" d="M29.5,41.59c0.15,0,0.27,0.01,0.37,0.04l-0.07,0.79c-0.11-0.03-0.22-0.04-0.33-0.04
			c-0.3,0-0.54,0.11-0.73,0.33c-0.19,0.22-0.28,0.51-0.28,0.86v2.08h-0.75v-3.98h0.59l0.1,0.7h0.04c0.12-0.24,0.27-0.43,0.46-0.57
			C29.08,41.66,29.28,41.59,29.5,41.59z"/>
		<path class="st5" d="M31.89,45.03c0.18,0,0.37-0.03,0.55-0.1v0.64c-0.08,0.04-0.19,0.08-0.32,0.1c-0.13,0.03-0.27,0.04-0.41,0.04
			c-0.71,0-1.06-0.42-1.06-1.27V42.3h-0.48v-0.37l0.52-0.31l0.25-0.84h0.46v0.89h1v0.64h-1v2.13c0,0.2,0.05,0.36,0.14,0.45
			C31.63,44.98,31.75,45.03,31.89,45.03z"/>
		<path class="st5" d="M35.69,45.64l-0.1-0.52h-0.04c-0.1,0.18-0.25,0.33-0.44,0.44c-0.19,0.11-0.41,0.16-0.66,0.16
			c-0.43,0-0.74-0.12-0.96-0.36c-0.21-0.24-0.31-0.6-0.31-1.09v-2.6h0.75v2.46c0,0.3,0.06,0.53,0.17,0.69s0.28,0.23,0.52,0.23
			c0.31,0,0.54-0.11,0.69-0.32c0.15-0.21,0.22-0.57,0.22-1.07v-1.98h0.75v3.98H35.69z"/>
		<path class="st5" d="M40.5,45.64h-0.75v-2.45c0-0.31-0.05-0.54-0.16-0.69c-0.11-0.15-0.28-0.23-0.52-0.23
			c-0.32,0-0.55,0.11-0.69,0.32c-0.15,0.21-0.22,0.56-0.22,1.06v1.98H37.4v-3.98h0.59l0.1,0.52h0.04c0.11-0.19,0.26-0.34,0.45-0.44
			s0.41-0.16,0.65-0.16c0.84,0,1.27,0.49,1.27,1.46V45.64z"/>
		<path class="st5" d="M41.55,40.6c0-0.15,0.04-0.27,0.11-0.35c0.07-0.08,0.18-0.12,0.31-0.12c0.13,0,0.23,0.04,0.31,0.12
			c0.07,0.08,0.11,0.2,0.11,0.35c0,0.14-0.04,0.26-0.11,0.34c-0.07,0.08-0.18,0.13-0.31,0.13c-0.14,0-0.24-0.04-0.31-0.13
			C41.59,40.86,41.55,40.75,41.55,40.6z M42.35,45.64H41.6v-3.98h0.75V45.64z"/>
		<path class="st5" d="M44.79,45.03c0.18,0,0.37-0.03,0.55-0.1v0.64c-0.08,0.04-0.19,0.08-0.32,0.1c-0.13,0.03-0.27,0.04-0.41,0.04
			c-0.71,0-1.06-0.42-1.06-1.27V42.3h-0.48v-0.37l0.52-0.31l0.25-0.84h0.46v0.89h1v0.64h-1v2.13c0,0.2,0.05,0.36,0.14,0.45
			C44.52,44.98,44.64,45.03,44.79,45.03z"/>
		<path class="st5" d="M46.05,40.6c0-0.15,0.04-0.27,0.11-0.35c0.07-0.08,0.18-0.12,0.31-0.12c0.13,0,0.23,0.04,0.31,0.12
			c0.07,0.08,0.11,0.2,0.11,0.35c0,0.14-0.04,0.26-0.11,0.34c-0.07,0.08-0.18,0.13-0.31,0.13c-0.14,0-0.24-0.04-0.31-0.13
			C46.09,40.86,46.05,40.75,46.05,40.6z M46.84,45.64H46.1v-3.98h0.75V45.64z"/>
		<path class="st5" d="M49.51,45.71c-0.55,0-0.98-0.18-1.28-0.54c-0.31-0.36-0.46-0.86-0.46-1.49c0-0.65,0.14-1.16,0.43-1.53
			s0.68-0.56,1.18-0.56c0.46,0,0.83,0.16,1.1,0.48s0.4,0.76,0.4,1.32v0.46h-2.35c0.01,0.39,0.1,0.68,0.28,0.89
			c0.17,0.21,0.42,0.31,0.74,0.31c0.21,0,0.4-0.02,0.58-0.07c0.18-0.04,0.37-0.12,0.58-0.22v0.69c-0.18,0.1-0.37,0.17-0.55,0.21
			C49.96,45.69,49.75,45.71,49.51,45.71z M49.37,42.23c-0.24,0-0.43,0.08-0.57,0.25c-0.14,0.17-0.23,0.42-0.26,0.75h1.6
			c0-0.33-0.07-0.58-0.21-0.75C49.8,42.31,49.61,42.23,49.37,42.23z"/>
		<path class="st5" d="M54.15,44.51c0,0.39-0.13,0.69-0.38,0.89c-0.25,0.21-0.61,0.31-1.08,0.31c-0.47,0-0.85-0.08-1.13-0.24v-0.73
			c0.41,0.22,0.8,0.32,1.16,0.32c0.46,0,0.69-0.16,0.69-0.47c0-0.1-0.03-0.18-0.08-0.25c-0.05-0.07-0.13-0.14-0.25-0.21
			c-0.12-0.07-0.28-0.15-0.49-0.25c-0.41-0.18-0.68-0.36-0.82-0.53s-0.21-0.41-0.21-0.69c0-0.34,0.12-0.61,0.36-0.79
			c0.24-0.19,0.57-0.28,0.99-0.28c0.41,0,0.81,0.1,1.17,0.29l-0.24,0.64c-0.38-0.18-0.7-0.27-0.96-0.27c-0.39,0-0.59,0.13-0.59,0.38
			c0,0.13,0.05,0.23,0.15,0.32c0.1,0.09,0.33,0.21,0.67,0.36c0.29,0.13,0.5,0.24,0.63,0.35c0.13,0.11,0.23,0.23,0.29,0.37
			C54.12,44.15,54.15,44.31,54.15,44.51z"/>
	</g>
	<g>
		<path class="st5" d="M4.46,51.79c0-0.33,0.07-0.58,0.21-0.76s0.34-0.26,0.6-0.26c0.26,0,0.46,0.09,0.6,0.26
			c0.14,0.17,0.21,0.42,0.21,0.75c0,0.32-0.07,0.57-0.21,0.75s-0.34,0.27-0.6,0.27c-0.25,0-0.45-0.09-0.6-0.26
			S4.46,52.13,4.46,51.79z"/>
	</g>
	<g>
		<path class="st5" d="M9.2,54.49v-5.26h0.76v5.26H9.2z"/>
		<path class="st5" d="M14.27,54.49h-0.75v-2.45c0-0.31-0.05-0.54-0.16-0.69c-0.11-0.15-0.28-0.23-0.52-0.23
			c-0.32,0-0.55,0.11-0.69,0.32c-0.15,0.21-0.22,0.56-0.22,1.06v1.98h-0.75V50.5h0.59l0.1,0.52h0.04c0.11-0.19,0.26-0.34,0.45-0.44
			s0.41-0.16,0.65-0.16c0.84,0,1.27,0.49,1.27,1.46V54.49z"/>
		<path class="st5" d="M18.46,54.49h-0.75v-2.45c0-0.31-0.05-0.54-0.16-0.69c-0.11-0.15-0.28-0.23-0.52-0.23
			c-0.32,0-0.55,0.11-0.69,0.32c-0.15,0.21-0.22,0.56-0.22,1.06v1.98h-0.75V50.5h0.59l0.1,0.52h0.04c0.11-0.19,0.26-0.34,0.45-0.44
			s0.41-0.16,0.65-0.16c0.84,0,1.27,0.49,1.27,1.46V54.49z"/>
		<path class="st5" d="M22.68,52.49c0,0.65-0.15,1.16-0.44,1.52c-0.29,0.37-0.71,0.55-1.23,0.55c-0.33,0-0.62-0.08-0.87-0.25
			s-0.45-0.41-0.58-0.72s-0.2-0.68-0.2-1.09c0-0.65,0.15-1.15,0.44-1.51c0.29-0.36,0.71-0.54,1.24-0.54c0.51,0,0.91,0.19,1.21,0.56
			C22.54,51.36,22.68,51.86,22.68,52.49z M20.12,52.49c0,0.92,0.3,1.38,0.9,1.38c0.59,0,0.89-0.46,0.89-1.38
			c0-0.91-0.3-1.36-0.9-1.36c-0.31,0-0.54,0.12-0.68,0.35C20.19,51.71,20.12,52.05,20.12,52.49z"/>
		<path class="st5" d="M24.4,54.49l-1.34-3.98h0.79l0.72,2.31c0.12,0.39,0.2,0.7,0.22,0.94h0.03c0.02-0.17,0.09-0.49,0.22-0.94
			l0.72-2.31h0.8l-1.34,3.98H24.4z"/>
		<path class="st5" d="M29.35,54.49l-0.15-0.55h-0.03c-0.17,0.24-0.34,0.41-0.51,0.5c-0.17,0.09-0.39,0.13-0.66,0.13
			c-0.35,0-0.62-0.11-0.81-0.32c-0.19-0.21-0.29-0.51-0.29-0.9c0-0.41,0.13-0.72,0.4-0.93c0.27-0.21,0.68-0.32,1.23-0.34l0.61-0.02
			v-0.21c0-0.25-0.05-0.45-0.16-0.57s-0.27-0.19-0.49-0.19c-0.18,0-0.35,0.03-0.52,0.09c-0.17,0.06-0.32,0.13-0.48,0.21l-0.24-0.61
			c0.19-0.11,0.4-0.2,0.63-0.26s0.44-0.09,0.64-0.09c0.45,0,0.79,0.11,1.01,0.33c0.23,0.22,0.34,0.57,0.34,1.04v2.68H29.35z
			 M28.24,53.91c0.27,0,0.49-0.09,0.65-0.26c0.16-0.17,0.25-0.41,0.25-0.72v-0.35l-0.45,0.02c-0.35,0.01-0.61,0.08-0.77,0.2
			c-0.16,0.12-0.24,0.3-0.24,0.55c0,0.18,0.05,0.31,0.14,0.41C27.91,53.86,28.05,53.91,28.24,53.91z"/>
		<path class="st5" d="M32.3,53.87c0.18,0,0.37-0.03,0.55-0.1v0.64c-0.08,0.04-0.19,0.08-0.32,0.1c-0.13,0.03-0.27,0.04-0.41,0.04
			c-0.71,0-1.06-0.42-1.06-1.27v-2.15h-0.48v-0.37l0.52-0.31l0.25-0.84h0.46v0.89h1v0.64h-1v2.13c0,0.2,0.05,0.36,0.14,0.45
			C32.04,53.83,32.15,53.87,32.3,53.87z"/>
		<path class="st5" d="M33.57,49.45c0-0.15,0.04-0.27,0.11-0.35c0.07-0.08,0.18-0.12,0.31-0.12c0.13,0,0.23,0.04,0.31,0.12
			c0.07,0.08,0.11,0.2,0.11,0.35c0,0.14-0.04,0.26-0.11,0.34c-0.07,0.08-0.18,0.13-0.31,0.13c-0.14,0-0.24-0.04-0.31-0.13
			C33.6,49.71,33.57,49.59,33.57,49.45z M34.36,54.49h-0.75V50.5h0.75V54.49z"/>
		<path class="st5" d="M36.29,54.49l-1.34-3.98h0.79l0.72,2.31c0.12,0.39,0.2,0.7,0.22,0.94h0.03c0.02-0.17,0.09-0.49,0.22-0.94
			l0.72-2.31h0.8l-1.34,3.98H36.29z"/>
		<path class="st5" d="M40.57,54.56c-0.55,0-0.98-0.18-1.28-0.54c-0.31-0.36-0.46-0.86-0.46-1.49c0-0.65,0.14-1.16,0.43-1.53
			s0.68-0.56,1.18-0.56c0.46,0,0.83,0.16,1.1,0.48s0.4,0.76,0.4,1.32v0.46H39.6c0.01,0.39,0.1,0.68,0.28,0.89
			c0.17,0.21,0.42,0.31,0.74,0.31c0.21,0,0.4-0.02,0.58-0.07c0.18-0.04,0.37-0.12,0.58-0.22v0.69c-0.18,0.1-0.37,0.17-0.55,0.21
			C41.03,54.54,40.81,54.56,40.57,54.56z M40.44,51.07c-0.24,0-0.43,0.08-0.57,0.25c-0.14,0.17-0.23,0.42-0.26,0.75h1.6
			c0-0.33-0.07-0.58-0.21-0.75C40.86,51.16,40.67,51.07,40.44,51.07z"/>
		<path class="st5" d="M47.76,50.81c0,0.55-0.16,0.97-0.48,1.26s-0.77,0.44-1.36,0.44h-0.48v1.97h-0.76v-5.26h1.34
			c0.58,0,1.02,0.13,1.31,0.4S47.76,50.29,47.76,50.81z M45.44,51.79h0.4c0.39,0,0.68-0.08,0.86-0.23c0.18-0.15,0.27-0.39,0.27-0.72
			c0-0.3-0.08-0.53-0.25-0.68c-0.16-0.15-0.42-0.22-0.76-0.22h-0.53V51.79z"/>
		<path class="st5" d="M50.46,50.43c0.15,0,0.27,0.01,0.37,0.04l-0.07,0.79c-0.11-0.03-0.22-0.04-0.33-0.04
			c-0.3,0-0.54,0.11-0.73,0.33c-0.19,0.22-0.28,0.51-0.28,0.86v2.08h-0.75V50.5h0.59l0.1,0.7h0.04c0.12-0.24,0.27-0.43,0.46-0.57
			C50.04,50.5,50.24,50.43,50.46,50.43z"/>
		<path class="st5" d="M54.66,52.49c0,0.65-0.15,1.16-0.44,1.52c-0.29,0.37-0.71,0.55-1.23,0.55c-0.33,0-0.62-0.08-0.87-0.25
			s-0.45-0.41-0.58-0.72s-0.2-0.68-0.2-1.09c0-0.65,0.15-1.15,0.44-1.51c0.29-0.36,0.71-0.54,1.24-0.54c0.51,0,0.91,0.19,1.21,0.56
			C54.52,51.36,54.66,51.86,54.66,52.49z M52.1,52.49c0,0.92,0.3,1.38,0.9,1.38c0.59,0,0.89-0.46,0.89-1.38
			c0-0.91-0.3-1.36-0.9-1.36c-0.31,0-0.54,0.12-0.68,0.35C52.17,51.71,52.1,52.05,52.1,52.49z"/>
		<path class="st5" d="M56.77,54.56c-0.44,0-0.78-0.18-1.03-0.54c-0.25-0.36-0.37-0.87-0.37-1.52c0-0.65,0.12-1.16,0.37-1.52
			s0.59-0.55,1.04-0.55c0.46,0,0.81,0.19,1.06,0.58h0.04c-0.04-0.29-0.05-0.51-0.05-0.68v-1.45h0.75v5.6h-0.59l-0.13-0.52h-0.04
			C57.58,54.36,57.23,54.56,56.77,54.56z M56.97,53.87c0.31,0,0.53-0.1,0.67-0.29s0.21-0.51,0.22-0.95v-0.12
			c0-0.5-0.07-0.86-0.22-1.07c-0.14-0.21-0.37-0.32-0.68-0.32c-0.26,0-0.47,0.12-0.61,0.36c-0.14,0.24-0.21,0.58-0.21,1.03
			c0,0.44,0.07,0.78,0.21,1.01C56.49,53.76,56.69,53.87,56.97,53.87z"/>
		<path class="st5" d="M62.19,54.49l-0.1-0.52h-0.04c-0.1,0.18-0.25,0.33-0.44,0.44c-0.19,0.11-0.41,0.16-0.66,0.16
			c-0.43,0-0.74-0.12-0.96-0.36c-0.21-0.24-0.31-0.6-0.31-1.09v-2.6h0.75v2.46c0,0.3,0.06,0.53,0.17,0.69s0.28,0.23,0.52,0.23
			c0.31,0,0.54-0.11,0.69-0.32c0.15-0.21,0.22-0.57,0.22-1.07V50.5h0.75v3.98H62.19z"/>
		<path class="st5" d="M65.32,54.56c-0.53,0-0.94-0.18-1.21-0.53s-0.42-0.86-0.42-1.51c0-0.67,0.15-1.18,0.43-1.54
			c0.29-0.36,0.71-0.54,1.26-0.54c0.37,0,0.71,0.08,1,0.23l-0.23,0.68c-0.32-0.14-0.58-0.21-0.78-0.21c-0.61,0-0.91,0.46-0.91,1.37
			c0,0.45,0.08,0.78,0.23,1.01c0.15,0.22,0.37,0.34,0.67,0.34c0.33,0,0.65-0.09,0.95-0.28v0.74c-0.13,0.09-0.28,0.15-0.43,0.19
			C65.72,54.54,65.54,54.56,65.32,54.56z"/>
		<path class="st5" d="M68.5,53.87c0.18,0,0.37-0.03,0.55-0.1v0.64c-0.08,0.04-0.19,0.08-0.32,0.1c-0.13,0.03-0.27,0.04-0.41,0.04
			c-0.71,0-1.06-0.42-1.06-1.27v-2.15h-0.48v-0.37l0.52-0.31l0.25-0.84h0.46v0.89h1v0.64h-1v2.13c0,0.2,0.05,0.36,0.14,0.45
			C68.23,53.83,68.35,53.87,68.5,53.87z"/>
		<path class="st5" d="M72.17,53.35c0,0.39-0.13,0.69-0.38,0.89c-0.25,0.21-0.61,0.31-1.08,0.31c-0.47,0-0.85-0.08-1.13-0.24v-0.73
			c0.41,0.22,0.8,0.32,1.16,0.32c0.46,0,0.69-0.16,0.69-0.47c0-0.1-0.03-0.18-0.08-0.25c-0.05-0.07-0.13-0.14-0.25-0.21
			c-0.12-0.07-0.28-0.15-0.49-0.25c-0.41-0.18-0.68-0.36-0.82-0.53s-0.21-0.41-0.21-0.69c0-0.34,0.12-0.61,0.36-0.79
			c0.24-0.19,0.57-0.28,0.99-0.28c0.41,0,0.81,0.1,1.17,0.29l-0.24,0.64c-0.38-0.18-0.7-0.27-0.96-0.27c-0.39,0-0.59,0.13-0.59,0.38
			c0,0.13,0.05,0.23,0.15,0.32c0.1,0.09,0.33,0.21,0.67,0.36c0.29,0.13,0.5,0.24,0.63,0.35c0.13,0.11,0.23,0.23,0.29,0.37
			C72.14,53,72.17,53.16,72.17,53.35z"/>
	</g>
	<g>
		<path class="st5" d="M12.44,63.33l-0.15-0.55h-0.03c-0.17,0.24-0.34,0.41-0.51,0.5c-0.17,0.09-0.39,0.13-0.66,0.13
			c-0.35,0-0.62-0.11-0.81-0.32c-0.19-0.21-0.29-0.51-0.29-0.9c0-0.41,0.13-0.72,0.4-0.93c0.27-0.21,0.68-0.32,1.23-0.34l0.61-0.02
			v-0.21c0-0.25-0.05-0.45-0.16-0.57s-0.27-0.19-0.49-0.19c-0.18,0-0.35,0.03-0.52,0.09c-0.17,0.06-0.32,0.13-0.48,0.21l-0.24-0.61
			c0.19-0.11,0.4-0.2,0.63-0.26s0.44-0.09,0.64-0.09c0.45,0,0.79,0.11,1.01,0.33c0.23,0.22,0.34,0.57,0.34,1.04v2.68H12.44z
			 M11.33,62.76c0.27,0,0.49-0.09,0.65-0.26c0.16-0.17,0.25-0.41,0.25-0.72v-0.35l-0.45,0.02c-0.35,0.01-0.61,0.08-0.77,0.2
			c-0.16,0.12-0.24,0.3-0.24,0.55c0,0.18,0.05,0.31,0.14,0.41C11,62.71,11.14,62.76,11.33,62.76z"/>
		<path class="st5" d="M17.18,63.33h-0.75v-2.45c0-0.31-0.05-0.54-0.16-0.69c-0.11-0.15-0.28-0.23-0.52-0.23
			c-0.32,0-0.55,0.11-0.69,0.32c-0.15,0.21-0.22,0.56-0.22,1.06v1.98h-0.75v-3.98h0.59l0.1,0.52h0.04c0.11-0.19,0.26-0.34,0.45-0.44
			s0.41-0.16,0.65-0.16c0.84,0,1.27,0.49,1.27,1.46V63.33z"/>
		<path class="st5" d="M19.47,63.41c-0.44,0-0.78-0.18-1.03-0.54c-0.25-0.36-0.37-0.87-0.37-1.52c0-0.65,0.12-1.16,0.37-1.52
			s0.59-0.55,1.04-0.55c0.46,0,0.81,0.19,1.06,0.58h0.04c-0.04-0.29-0.05-0.51-0.05-0.68v-1.45h0.75v5.6h-0.59l-0.13-0.52h-0.04
			C20.28,63.21,19.93,63.41,19.47,63.41z M19.67,62.72c0.31,0,0.53-0.1,0.67-0.29s0.21-0.51,0.22-0.95v-0.12
			c0-0.5-0.07-0.86-0.22-1.07c-0.14-0.21-0.37-0.32-0.68-0.32c-0.26,0-0.47,0.12-0.61,0.36c-0.14,0.24-0.21,0.58-0.21,1.03
			c0,0.44,0.07,0.78,0.21,1.01C19.18,62.61,19.39,62.72,19.67,62.72z"/>
		<path class="st5" d="M26.91,61.9c0,0.47-0.15,0.83-0.45,1.1c-0.3,0.27-0.71,0.4-1.24,0.4s-0.96-0.09-1.29-0.28v-0.81
			c0.21,0.11,0.44,0.2,0.68,0.27c0.24,0.06,0.46,0.1,0.67,0.1c0.3,0,0.52-0.06,0.67-0.19c0.14-0.13,0.21-0.3,0.21-0.52
			c0-0.2-0.07-0.36-0.2-0.5c-0.13-0.14-0.4-0.3-0.81-0.49c-0.42-0.19-0.72-0.42-0.9-0.67c-0.17-0.25-0.26-0.55-0.26-0.9
			c0-0.44,0.14-0.78,0.41-1.04s0.65-0.38,1.11-0.38c0.45,0,0.89,0.11,1.33,0.33l-0.24,0.7c-0.41-0.2-0.78-0.29-1.11-0.29
			c-0.25,0-0.43,0.06-0.56,0.18s-0.19,0.28-0.19,0.48c0,0.14,0.03,0.25,0.08,0.35c0.05,0.1,0.13,0.19,0.25,0.28
			c0.12,0.09,0.33,0.2,0.63,0.34c0.34,0.16,0.59,0.31,0.75,0.45c0.16,0.14,0.28,0.3,0.35,0.47C26.88,61.46,26.91,61.67,26.91,61.9z"
			/>
		<path class="st5" d="M29.33,63.41c-0.55,0-0.98-0.18-1.28-0.54c-0.31-0.36-0.46-0.86-0.46-1.49c0-0.65,0.14-1.16,0.43-1.53
			s0.68-0.56,1.18-0.56c0.46,0,0.83,0.16,1.1,0.48s0.4,0.76,0.4,1.32v0.46h-2.35c0.01,0.39,0.1,0.68,0.28,0.89
			c0.17,0.21,0.42,0.31,0.74,0.31c0.21,0,0.4-0.02,0.58-0.07c0.18-0.04,0.37-0.12,0.58-0.22v0.69c-0.18,0.1-0.37,0.17-0.55,0.21
			C29.79,63.38,29.57,63.41,29.33,63.41z M29.2,59.92c-0.24,0-0.43,0.08-0.57,0.25c-0.14,0.17-0.23,0.42-0.26,0.75h1.6
			c0-0.33-0.07-0.58-0.21-0.75C29.62,60,29.43,59.92,29.2,59.92z"/>
		<path class="st5" d="M33.4,59.28c0.15,0,0.27,0.01,0.37,0.04l-0.07,0.79c-0.11-0.03-0.22-0.04-0.33-0.04
			c-0.3,0-0.54,0.11-0.73,0.33c-0.19,0.22-0.28,0.51-0.28,0.86v2.08h-0.75v-3.98h0.59l0.1,0.7h0.04c0.12-0.24,0.27-0.43,0.46-0.57
			C32.98,59.35,33.18,59.28,33.4,59.28z"/>
		<path class="st5" d="M35.28,63.33l-1.34-3.98h0.79l0.72,2.31c0.12,0.39,0.2,0.7,0.22,0.94h0.03c0.02-0.17,0.09-0.49,0.22-0.94
			l0.72-2.31h0.8l-1.34,3.98H35.28z"/>
		<path class="st5" d="M37.98,58.3c0-0.15,0.04-0.27,0.11-0.35c0.07-0.08,0.18-0.12,0.31-0.12c0.13,0,0.23,0.04,0.31,0.12
			c0.07,0.08,0.11,0.2,0.11,0.35c0,0.14-0.04,0.26-0.11,0.34c-0.07,0.08-0.18,0.13-0.31,0.13c-0.14,0-0.24-0.04-0.31-0.13
			C38.02,58.55,37.98,58.44,37.98,58.3z M38.77,63.33h-0.75v-3.98h0.75V63.33z"/>
		<path class="st5" d="M41.32,63.41c-0.53,0-0.94-0.18-1.21-0.53s-0.42-0.86-0.42-1.51c0-0.67,0.15-1.18,0.43-1.54
			c0.29-0.36,0.71-0.54,1.26-0.54c0.37,0,0.71,0.08,1,0.23l-0.23,0.68c-0.32-0.14-0.58-0.21-0.78-0.21c-0.61,0-0.91,0.46-0.91,1.37
			c0,0.45,0.08,0.78,0.23,1.01c0.15,0.22,0.37,0.34,0.67,0.34c0.33,0,0.65-0.09,0.95-0.28v0.74c-0.13,0.09-0.28,0.15-0.43,0.19
			C41.72,63.39,41.54,63.41,41.32,63.41z"/>
		<path class="st5" d="M44.73,63.41c-0.55,0-0.98-0.18-1.28-0.54c-0.31-0.36-0.46-0.86-0.46-1.49c0-0.65,0.14-1.16,0.43-1.53
			s0.68-0.56,1.18-0.56c0.46,0,0.83,0.16,1.1,0.48s0.4,0.76,0.4,1.32v0.46h-2.35c0.01,0.39,0.1,0.68,0.28,0.89
			c0.17,0.21,0.42,0.31,0.74,0.31c0.21,0,0.4-0.02,0.58-0.07c0.18-0.04,0.37-0.12,0.58-0.22v0.69c-0.18,0.1-0.37,0.17-0.55,0.21
			C45.18,63.38,44.97,63.41,44.73,63.41z M44.59,59.92c-0.24,0-0.43,0.08-0.57,0.25c-0.14,0.17-0.23,0.42-0.26,0.75h1.6
			c0-0.33-0.07-0.58-0.21-0.75C45.01,60,44.83,59.92,44.59,59.92z"/>
		<path class="st5" d="M49.37,62.2c0,0.39-0.13,0.69-0.38,0.89c-0.25,0.21-0.61,0.31-1.08,0.31c-0.47,0-0.85-0.08-1.13-0.24v-0.73
			c0.41,0.22,0.8,0.32,1.16,0.32c0.46,0,0.69-0.16,0.69-0.47c0-0.1-0.03-0.18-0.08-0.25c-0.05-0.07-0.13-0.14-0.25-0.21
			c-0.12-0.07-0.28-0.15-0.49-0.25c-0.41-0.18-0.68-0.36-0.82-0.53s-0.21-0.41-0.21-0.69c0-0.34,0.12-0.61,0.36-0.79
			c0.24-0.19,0.57-0.28,0.99-0.28c0.41,0,0.81,0.1,1.17,0.29l-0.24,0.64c-0.38-0.18-0.7-0.27-0.96-0.27c-0.39,0-0.59,0.13-0.59,0.38
			c0,0.13,0.05,0.23,0.15,0.32c0.1,0.09,0.33,0.21,0.67,0.36c0.29,0.13,0.5,0.24,0.63,0.35c0.13,0.11,0.23,0.23,0.29,0.37
			C49.34,61.84,49.37,62.01,49.37,62.2z"/>
	</g>
</g>
<g>
	<path class="st12" d="M267.29-518.84v-15 M-327.98-518.84v-15 M273.29,329.05h15 M-333.98,329.05h-15 M273.29-512.84h15
		 M-333.98-512.84h-15"/>
	<path class="st13" d="M267.29-518.84v-15 M-327.98-518.84v-15 M273.29,329.05h15 M-333.98,329.05h-15 M273.29-512.84h15
		 M-333.98-512.84h-15"/>
</g>
</svg>
