<?xml version="1.0" encoding="utf-8"?>
<!-- Generator: Adobe Illustrator 24.3.0, SVG Export Plug-In . SVG Version: 6.00 Build 0)  -->
<svg version="1.1" id="Layer_1" xmlns="http://www.w3.org/2000/svg" xmlns:xlink="http://www.w3.org/1999/xlink" x="0px" y="0px"
	 viewBox="0 0 93.66 66.69" style="enable-background:new 0 0 93.66 66.69;" xml:space="preserve">
<style type="text/css">
	.st0{fill:#F7F5F2;}
	.st1{fill:#F1EEE9;}
	.st2{fill:#A0926A;}
	.st3{fill:#0092B2;}
	.st4{fill:#1568A1;}
	.st5{fill:#FFFFFF;}
	.st6{fill:#2D77AA;}
	.st7{fill:#32A7C2;}
	.st8{fill:#AA9D78;}
	.st9{fill:#A1A94F;}
	.st10{fill:#8B9638;}
	.st11{fill:none;stroke:#A0926A;}
	.st12{fill:none;stroke:#FFFFFF;stroke-width:1.25;stroke-miterlimit:10;}
	.st13{fill:none;stroke:#000000;stroke-width:0.25;stroke-miterlimit:10;}
	.st14{fill:#DDDEE0;}
	.st15{fill:#E8F0F5;}
	.st16{fill:#D1E1EB;}
	.st17{fill:#F7F5F1;}
	.st18{fill:#ECE9E1;}
	.st19{fill:#F4F4E9;}
	.st20{fill:#E6F5F8;}
	.st21{fill:none;stroke:#FFFFFF;stroke-width:0.25;stroke-miterlimit:10;}
	.st22{fill:#282829;}
	.st23{fill:none;stroke:#FFFFFF;stroke-width:0.3;stroke-miterlimit:10;}
	.st24{fill:none;stroke:#FFFFFF;stroke-width:0.447;stroke-miterlimit:10;}
	.st25{fill:none;stroke:#FFFFFF;stroke-width:0.652;stroke-miterlimit:10;}
	.st26{fill:none;stroke:#FFFFFF;stroke-width:0.558;stroke-miterlimit:10;}
	.st27{fill:none;stroke:#FFFFFF;stroke-width:0.363;stroke-miterlimit:10;}
	.st28{fill:none;stroke:#FFFFFF;stroke-width:0.628;stroke-linecap:round;stroke-linejoin:round;stroke-miterlimit:22.926;}
	.st29{clip-path:url(#SVGID_2_);fill:#ECE9E1;}
	.st30{clip-path:url(#SVGID_2_);fill:#F7F5F1;}
	.st31{clip-path:url(#SVGID_2_);fill:#FFFFFF;}
	.st32{fill:none;stroke:#A0926A;stroke-width:1.5;}
	.st33{fill:none;stroke:#FFFFFF;stroke-width:0.333;stroke-miterlimit:10;}
	.st34{fill:none;stroke:#FFFFFF;stroke-width:0.497;stroke-miterlimit:10;}
	.st35{fill:none;stroke:#FFFFFF;stroke-width:0.724;stroke-miterlimit:10;}
	.st36{fill:none;stroke:#FFFFFF;stroke-width:0.62;stroke-miterlimit:10;}
	.st37{fill:none;stroke:#FFFFFF;stroke-width:0.4;stroke-miterlimit:10;}
	.st38{fill:none;stroke:#FFFFFF;stroke-width:0.403;stroke-miterlimit:10;}
	.st39{fill:#B4A888;}
	.st40{fill:none;stroke:#FFFFFF;stroke-miterlimit:10;}
	.st41{fill:none;stroke:#A0926A;stroke-width:1.19;stroke-linejoin:round;stroke-miterlimit:10;}
	.st42{fill:none;stroke:#A0926A;stroke-width:1.265;stroke-miterlimit:10;}
	.st43{fill:none;stroke:#A0926A;stroke-width:1.265;stroke-linecap:round;stroke-linejoin:round;stroke-miterlimit:10;}
	.st44{fill:none;stroke:#A0926A;stroke-width:1.265;stroke-linejoin:round;stroke-miterlimit:10;}
	.st45{fill:none;stroke:#A0926A;stroke-width:1.22;stroke-linecap:round;stroke-linejoin:round;stroke-miterlimit:22.926;}
	.st46{fill:none;stroke:#A0926A;stroke-width:1.314;stroke-linecap:round;stroke-linejoin:round;stroke-miterlimit:22.926;}
	.st47{clip-path:url(#SVGID_4_);}
	.st48{clip-path:url(#SVGID_4_);fill:#B4A888;}
	.st49{clip-path:url(#SVGID_4_);fill:#F7F5F1;}
	.st50{clip-path:url(#SVGID_4_);fill:#ECE9E1;}
	.st51{clip-path:url(#SVGID_4_);fill:none;stroke:#FFFFFF;stroke-miterlimit:10;}
	
		.st52{clip-path:url(#SVGID_8_);fill:none;stroke:#A0926A;stroke-width:1.148;stroke-linecap:round;stroke-linejoin:round;stroke-miterlimit:10;}
	
		.st53{clip-path:url(#SVGID_4_);fill:none;stroke:#A0926A;stroke-width:1.148;stroke-linecap:round;stroke-linejoin:round;stroke-miterlimit:10;stroke-dasharray:0.047,2.088;}
	
		.st54{clip-path:url(#SVGID_4_);fill:none;stroke:#A0926A;stroke-width:1.148;stroke-linecap:round;stroke-linejoin:round;stroke-miterlimit:10;}
	.st55{clip-path:url(#SVGID_4_);fill:#282829;}
	.st56{clip-path:url(#SVGID_10_);fill:none;stroke:#A0926A;stroke-width:1.397;stroke-miterlimit:10;}
	.st57{clip-path:url(#SVGID_10_);fill:none;stroke:#A0926A;stroke-width:1.397;stroke-linejoin:round;stroke-miterlimit:10;}
	
		.st58{clip-path:url(#SVGID_12_);fill:none;stroke:#A0926A;stroke-width:1.252;stroke-linecap:round;stroke-linejoin:round;stroke-miterlimit:10;}
	.st59{clip-path:url(#SVGID_14_);fill:none;stroke:#A0926A;stroke-width:1.2112;stroke-linejoin:round;stroke-miterlimit:10;}
	.st60{clip-path:url(#SVGID_16_);fill:none;stroke:#FFFFFF;stroke-width:1.25;stroke-miterlimit:10;}
	.st61{clip-path:url(#SVGID_16_);fill:none;stroke:#000000;stroke-width:0.25;stroke-miterlimit:10;}
	.st62{clip-path:url(#SVGID_16_);fill:none;stroke:#FFFFFF;stroke-width:0.4;stroke-miterlimit:10;}
	.st63{clip-path:url(#SVGID_18_);fill:none;stroke:#FFFFFF;stroke-width:0.4;stroke-miterlimit:10;}
</style>
<g>
	<g>
		<rect class="st8" width="93.66" height="66.69"/>
	</g>
	<g>
		<path class="st5" d="M6.32,13.68V8.42h0.76v4.52h1.97v0.74H6.32z"/>
		<path class="st5" d="M12.96,11.68c0,0.65-0.15,1.16-0.44,1.52c-0.29,0.37-0.71,0.55-1.23,0.55c-0.33,0-0.62-0.08-0.87-0.25
			s-0.45-0.41-0.58-0.72s-0.2-0.68-0.2-1.09c0-0.65,0.15-1.15,0.44-1.51c0.29-0.36,0.71-0.54,1.24-0.54c0.51,0,0.91,0.19,1.21,0.56
			C12.81,10.55,12.96,11.05,12.96,11.68z M10.4,11.68c0,0.92,0.3,1.38,0.9,1.38c0.59,0,0.89-0.46,0.89-1.38
			c0-0.91-0.3-1.36-0.9-1.36c-0.31,0-0.54,0.12-0.68,0.35C10.47,10.91,10.4,11.24,10.4,11.68z"/>
		<path class="st5" d="M17.01,11.68c0,0.65-0.15,1.16-0.44,1.52c-0.29,0.37-0.71,0.55-1.23,0.55c-0.33,0-0.62-0.08-0.87-0.25
			s-0.45-0.41-0.58-0.72s-0.2-0.68-0.2-1.09c0-0.65,0.15-1.15,0.44-1.51c0.29-0.36,0.71-0.54,1.24-0.54c0.51,0,0.91,0.19,1.21,0.56
			C16.86,10.55,17.01,11.05,17.01,11.68z M14.45,11.68c0,0.92,0.3,1.38,0.9,1.38c0.59,0,0.89-0.46,0.89-1.38
			c0-0.91-0.3-1.36-0.9-1.36c-0.31,0-0.54,0.12-0.68,0.35C14.52,10.91,14.45,11.24,14.45,11.68z"/>
		<path class="st5" d="M18.66,11.58l0.42-0.6l1.06-1.28H21l-1.42,1.71l1.51,2.27h-0.88l-1.13-1.75l-0.41,0.38v1.36h-0.74v-5.6h0.74
			v2.73l-0.04,0.77H18.66z"/>
		<path class="st5" d="M25.69,13.68l-0.15-0.55h-0.03c-0.17,0.24-0.34,0.41-0.51,0.5c-0.17,0.09-0.39,0.13-0.66,0.13
			c-0.35,0-0.62-0.11-0.81-0.32c-0.19-0.21-0.29-0.51-0.29-0.9c0-0.41,0.13-0.72,0.4-0.93c0.27-0.21,0.68-0.32,1.23-0.34l0.61-0.02
			v-0.21c0-0.25-0.05-0.45-0.16-0.57s-0.27-0.19-0.49-0.19c-0.18,0-0.35,0.03-0.52,0.09c-0.17,0.06-0.32,0.13-0.48,0.21l-0.24-0.61
			c0.19-0.11,0.4-0.2,0.63-0.26s0.44-0.09,0.64-0.09c0.45,0,0.79,0.11,1.01,0.33c0.23,0.22,0.34,0.57,0.34,1.04v2.68H25.69z
			 M24.57,13.1c0.27,0,0.49-0.09,0.65-0.26c0.16-0.17,0.25-0.41,0.25-0.72v-0.35l-0.45,0.02c-0.35,0.01-0.61,0.08-0.77,0.2
			c-0.16,0.12-0.24,0.3-0.24,0.55c0,0.18,0.05,0.31,0.14,0.41C24.25,13.05,24.39,13.1,24.57,13.1z"/>
		<path class="st5" d="M29.09,10.34h-0.86v3.34h-0.75v-3.34H26.9v-0.4l0.58-0.26V9.42c0-0.47,0.1-0.82,0.29-1.05
			c0.2-0.23,0.49-0.34,0.89-0.34c0.26,0,0.52,0.05,0.78,0.15l-0.2,0.64c-0.18-0.07-0.36-0.1-0.53-0.1c-0.17,0-0.29,0.06-0.37,0.18
			c-0.08,0.12-0.12,0.3-0.12,0.54V9.7h0.86V10.34z"/>
		<path class="st5" d="M31.07,13.07c0.18,0,0.37-0.03,0.55-0.1v0.64c-0.08,0.04-0.19,0.08-0.32,0.1c-0.13,0.03-0.27,0.04-0.41,0.04
			c-0.71,0-1.06-0.42-1.06-1.27v-2.15h-0.48V9.96l0.52-0.31l0.25-0.84h0.46V9.7h1v0.64h-1v2.13c0,0.2,0.05,0.36,0.14,0.45
			C30.8,13.02,30.92,13.07,31.07,13.07z"/>
		<path class="st5" d="M33.91,13.75c-0.55,0-0.98-0.18-1.28-0.54c-0.31-0.36-0.46-0.86-0.46-1.49c0-0.65,0.14-1.16,0.43-1.53
			s0.68-0.56,1.18-0.56c0.46,0,0.83,0.16,1.1,0.48s0.4,0.76,0.4,1.32v0.46h-2.35c0.01,0.39,0.1,0.68,0.28,0.89
			c0.17,0.21,0.42,0.31,0.74,0.31c0.21,0,0.4-0.02,0.58-0.07c0.18-0.04,0.37-0.12,0.58-0.22v0.69c-0.18,0.1-0.37,0.17-0.55,0.21
			C34.37,13.73,34.15,13.75,33.91,13.75z M33.78,10.27c-0.24,0-0.43,0.08-0.57,0.25c-0.14,0.17-0.23,0.42-0.26,0.75h1.6
			c0-0.33-0.07-0.58-0.21-0.75C34.2,10.35,34.01,10.27,33.78,10.27z"/>
		<path class="st5" d="M37.98,9.63c0.15,0,0.27,0.01,0.37,0.04l-0.07,0.79c-0.11-0.03-0.22-0.04-0.33-0.04
			c-0.3,0-0.54,0.11-0.73,0.33c-0.19,0.22-0.28,0.51-0.28,0.86v2.08h-0.75V9.7h0.59l0.1,0.7h0.04c0.12-0.24,0.27-0.43,0.46-0.57
			C37.56,9.7,37.76,9.63,37.98,9.63z"/>
		<path class="st5" d="M42.13,13.07c0.18,0,0.37-0.03,0.55-0.1v0.64c-0.08,0.04-0.19,0.08-0.32,0.1c-0.13,0.03-0.27,0.04-0.41,0.04
			c-0.71,0-1.06-0.42-1.06-1.27v-2.15h-0.48V9.96l0.52-0.31l0.25-0.84h0.46V9.7h1v0.64h-1v2.13c0,0.2,0.05,0.36,0.14,0.45
			C41.87,13.02,41.98,13.07,42.13,13.07z"/>
		<path class="st5" d="M46.54,13.68h-0.75v-2.45c0-0.31-0.05-0.54-0.16-0.69c-0.11-0.15-0.28-0.23-0.52-0.23
			c-0.31,0-0.54,0.11-0.69,0.32c-0.15,0.21-0.22,0.57-0.22,1.07v1.98h-0.75v-5.6h0.75V9.5c0,0.23-0.01,0.47-0.04,0.73h0.05
			c0.1-0.19,0.24-0.34,0.42-0.45c0.18-0.11,0.39-0.16,0.64-0.16c0.85,0,1.28,0.49,1.28,1.46V13.68z"/>
		<path class="st5" d="M49.18,13.75c-0.55,0-0.98-0.18-1.28-0.54c-0.31-0.36-0.46-0.86-0.46-1.49c0-0.65,0.14-1.16,0.43-1.53
			s0.68-0.56,1.18-0.56c0.46,0,0.83,0.16,1.1,0.48s0.4,0.76,0.4,1.32v0.46H48.2c0.01,0.39,0.1,0.68,0.28,0.89
			c0.17,0.21,0.42,0.31,0.74,0.31c0.21,0,0.4-0.02,0.58-0.07c0.18-0.04,0.37-0.12,0.58-0.22v0.69c-0.18,0.1-0.37,0.17-0.55,0.21
			C49.63,13.73,49.42,13.75,49.18,13.75z M49.04,10.27c-0.24,0-0.43,0.08-0.57,0.25c-0.14,0.17-0.23,0.42-0.26,0.75h1.6
			c0-0.33-0.07-0.58-0.21-0.75C49.47,10.35,49.28,10.27,49.04,10.27z"/>
		<path class="st5" d="M56.1,13.68l-0.46-1.86c-0.06-0.2-0.15-0.65-0.3-1.37h-0.03c-0.12,0.65-0.22,1.11-0.29,1.38l-0.47,1.85h-0.83
			L52.75,9.7h0.76l0.45,1.96c0.1,0.49,0.17,0.9,0.22,1.25h0.02c0.02-0.17,0.05-0.38,0.1-0.6c0.04-0.23,0.08-0.4,0.11-0.51l0.53-2.09
			h0.82l0.52,2.09c0.03,0.12,0.07,0.3,0.12,0.54c0.05,0.24,0.08,0.43,0.08,0.57h0.03c0.03-0.29,0.11-0.71,0.22-1.24l0.46-1.96h0.75
			l-0.99,3.98H56.1z"/>
		<path class="st5" d="M60.15,13.75c-0.55,0-0.98-0.18-1.28-0.54c-0.31-0.36-0.46-0.86-0.46-1.49c0-0.65,0.14-1.16,0.43-1.53
			s0.68-0.56,1.18-0.56c0.46,0,0.83,0.16,1.1,0.48s0.4,0.76,0.4,1.32v0.46h-2.35c0.01,0.39,0.1,0.68,0.28,0.89
			c0.17,0.21,0.42,0.31,0.74,0.31c0.21,0,0.4-0.02,0.58-0.07c0.18-0.04,0.37-0.12,0.58-0.22v0.69c-0.18,0.1-0.37,0.17-0.55,0.21
			C60.6,13.73,60.39,13.75,60.15,13.75z M60.01,10.27c-0.24,0-0.43,0.08-0.57,0.25c-0.14,0.17-0.23,0.42-0.26,0.75h1.6
			c0-0.33-0.07-0.58-0.21-0.75C60.43,10.35,60.25,10.27,60.01,10.27z"/>
		<path class="st5" d="M63.17,13.68h-0.75v-5.6h0.75V13.68z"/>
		<path class="st5" d="M66.07,10.34h-0.86v3.34h-0.75v-3.34h-0.58v-0.4l0.58-0.26V9.42c0-0.47,0.1-0.82,0.29-1.05
			c0.2-0.23,0.49-0.34,0.89-0.34c0.26,0,0.52,0.05,0.78,0.15l-0.2,0.64c-0.18-0.07-0.36-0.1-0.53-0.1c-0.17,0-0.29,0.06-0.37,0.18
			c-0.08,0.12-0.12,0.3-0.12,0.54V9.7h0.86V10.34z"/>
		<path class="st5" d="M68.94,13.68l-0.15-0.55h-0.03c-0.17,0.24-0.34,0.41-0.51,0.5c-0.17,0.09-0.39,0.13-0.66,0.13
			c-0.35,0-0.62-0.11-0.81-0.32c-0.19-0.21-0.29-0.51-0.29-0.9c0-0.41,0.13-0.72,0.4-0.93c0.27-0.21,0.68-0.32,1.23-0.34l0.61-0.02
			v-0.21c0-0.25-0.05-0.45-0.16-0.57s-0.27-0.19-0.49-0.19c-0.18,0-0.35,0.03-0.52,0.09c-0.17,0.06-0.32,0.13-0.48,0.21l-0.24-0.61
			c0.19-0.11,0.4-0.2,0.63-0.26s0.44-0.09,0.64-0.09c0.45,0,0.79,0.11,1.01,0.33c0.23,0.22,0.34,0.57,0.34,1.04v2.68H68.94z
			 M67.82,13.1c0.27,0,0.49-0.09,0.65-0.26c0.16-0.17,0.25-0.41,0.25-0.72v-0.35l-0.45,0.02c-0.35,0.01-0.61,0.08-0.77,0.2
			c-0.16,0.12-0.24,0.3-0.24,0.55c0,0.18,0.05,0.31,0.14,0.41C67.5,13.05,67.64,13.1,67.82,13.1z"/>
		<path class="st5" d="M72.36,9.63c0.15,0,0.27,0.01,0.37,0.04l-0.07,0.79c-0.11-0.03-0.22-0.04-0.33-0.04
			c-0.3,0-0.54,0.11-0.73,0.33c-0.19,0.22-0.28,0.51-0.28,0.86v2.08h-0.75V9.7h0.59l0.1,0.7h0.04c0.12-0.24,0.27-0.43,0.46-0.57
			C71.94,9.7,72.15,9.63,72.36,9.63z"/>
		<path class="st5" d="M74.98,13.75c-0.55,0-0.98-0.18-1.28-0.54c-0.31-0.36-0.46-0.86-0.46-1.49c0-0.65,0.14-1.16,0.43-1.53
			s0.68-0.56,1.18-0.56c0.46,0,0.83,0.16,1.1,0.48s0.4,0.76,0.4,1.32v0.46h-2.35c0.01,0.39,0.1,0.68,0.28,0.89
			c0.17,0.21,0.42,0.31,0.74,0.31c0.21,0,0.4-0.02,0.58-0.07c0.18-0.04,0.37-0.12,0.58-0.22v0.69c-0.18,0.1-0.37,0.17-0.55,0.21
			C75.44,13.73,75.22,13.75,74.98,13.75z M74.85,10.27c-0.24,0-0.43,0.08-0.57,0.25c-0.14,0.17-0.23,0.42-0.26,0.75h1.6
			c0-0.33-0.07-0.58-0.21-0.75C75.27,10.35,75.08,10.27,74.85,10.27z"/>
	</g>
	<g>
		<path class="st5" d="M9.36,20.53c0,0.65-0.15,1.16-0.44,1.52c-0.29,0.37-0.71,0.55-1.23,0.55c-0.33,0-0.62-0.08-0.87-0.25
			s-0.45-0.41-0.58-0.72s-0.2-0.68-0.2-1.09c0-0.65,0.15-1.15,0.44-1.51c0.29-0.36,0.71-0.54,1.24-0.54c0.51,0,0.91,0.19,1.21,0.56
			C9.21,19.4,9.36,19.9,9.36,20.53z M6.8,20.53c0,0.92,0.3,1.38,0.9,1.38c0.59,0,0.89-0.46,0.89-1.38c0-0.91-0.3-1.36-0.9-1.36
			c-0.31,0-0.54,0.12-0.68,0.35C6.87,19.75,6.8,20.09,6.8,20.53z"/>
		<path class="st5" d="M12.05,19.19h-0.86v3.34h-0.75v-3.34H9.86v-0.4l0.58-0.26v-0.26c0-0.47,0.1-0.82,0.29-1.05
			c0.2-0.23,0.49-0.34,0.89-0.34c0.26,0,0.52,0.05,0.78,0.15l-0.2,0.64c-0.18-0.07-0.36-0.1-0.53-0.1c-0.17,0-0.29,0.06-0.37,0.18
			c-0.08,0.12-0.12,0.3-0.12,0.54v0.26h0.86V19.19z"/>
		<path class="st5" d="M17.6,20.53c0,0.65-0.15,1.16-0.44,1.52c-0.29,0.37-0.71,0.55-1.23,0.55c-0.33,0-0.62-0.08-0.87-0.25
			s-0.45-0.41-0.58-0.72s-0.2-0.68-0.2-1.09c0-0.65,0.15-1.15,0.44-1.51c0.29-0.36,0.71-0.54,1.24-0.54c0.51,0,0.91,0.19,1.21,0.56
			C17.45,19.4,17.6,19.9,17.6,20.53z M15.04,20.53c0,0.92,0.3,1.38,0.9,1.38c0.59,0,0.89-0.46,0.89-1.38c0-0.91-0.3-1.36-0.9-1.36
			c-0.31,0-0.54,0.12-0.68,0.35C15.11,19.75,15.04,20.09,15.04,20.53z"/>
		<path class="st5" d="M21.01,22.53L20.9,22h-0.04c-0.1,0.18-0.25,0.33-0.44,0.44c-0.19,0.11-0.41,0.16-0.66,0.16
			c-0.43,0-0.74-0.12-0.96-0.36c-0.21-0.24-0.31-0.6-0.31-1.09v-2.6h0.75V21c0,0.3,0.06,0.53,0.17,0.69s0.28,0.23,0.52,0.23
			c0.31,0,0.54-0.11,0.69-0.32c0.15-0.21,0.22-0.57,0.22-1.07v-1.98h0.75v3.98H21.01z"/>
		<path class="st5" d="M24.51,18.47c0.15,0,0.27,0.01,0.37,0.04l-0.07,0.79c-0.11-0.03-0.22-0.04-0.33-0.04
			c-0.3,0-0.54,0.11-0.73,0.33c-0.19,0.22-0.28,0.51-0.28,0.86v2.08h-0.75v-3.98h0.59l0.1,0.7h0.04c0.12-0.24,0.27-0.43,0.46-0.57
			C24.09,18.54,24.3,18.47,24.51,18.47z"/>
		<path class="st5" d="M28.89,22.6c-0.55,0-0.98-0.18-1.28-0.54c-0.31-0.36-0.46-0.86-0.46-1.49c0-0.65,0.14-1.16,0.43-1.53
			s0.68-0.56,1.18-0.56c0.46,0,0.83,0.16,1.1,0.48s0.4,0.76,0.4,1.32v0.46h-2.35c0.01,0.39,0.1,0.68,0.28,0.89
			c0.17,0.21,0.42,0.31,0.74,0.31c0.21,0,0.4-0.02,0.58-0.07c0.18-0.04,0.37-0.12,0.58-0.22v0.69c-0.18,0.1-0.37,0.17-0.55,0.21
			C29.34,22.58,29.13,22.6,28.89,22.6z M28.76,19.11c-0.24,0-0.43,0.08-0.57,0.25c-0.14,0.17-0.23,0.42-0.26,0.75h1.6
			c0-0.33-0.07-0.58-0.21-0.75C29.18,19.2,28.99,19.11,28.76,19.11z"/>
		<path class="st5" d="M34.14,22.53h-0.75v-2.46c0-0.3-0.05-0.53-0.15-0.68c-0.1-0.15-0.26-0.23-0.48-0.23
			c-0.29,0-0.5,0.11-0.64,0.32c-0.13,0.21-0.2,0.57-0.2,1.06v1.98h-0.75v-3.98h0.59l0.1,0.52h0.04c0.1-0.19,0.24-0.34,0.42-0.44
			c0.19-0.1,0.39-0.16,0.61-0.16c0.54,0,0.9,0.21,1.08,0.63h0.05c0.1-0.2,0.25-0.35,0.44-0.46s0.41-0.17,0.65-0.17
			c0.42,0,0.73,0.12,0.92,0.36c0.19,0.24,0.29,0.61,0.29,1.1v2.6h-0.75v-2.46c0-0.3-0.05-0.53-0.15-0.68
			c-0.1-0.15-0.26-0.23-0.48-0.23c-0.29,0-0.5,0.1-0.64,0.31s-0.2,0.52-0.2,0.95V22.53z"/>
		<path class="st5" d="M39.25,22.6c-0.45,0-0.79-0.18-1.04-0.54h-0.04c0.03,0.34,0.04,0.54,0.04,0.61v1.63h-0.75v-5.75h0.6
			c0.02,0.07,0.05,0.25,0.1,0.53h0.04c0.23-0.4,0.58-0.61,1.05-0.61c0.44,0,0.78,0.18,1.03,0.54c0.25,0.36,0.37,0.87,0.37,1.52
			s-0.12,1.16-0.37,1.52C40.03,22.42,39.69,22.6,39.25,22.6z M39.07,19.16c-0.3,0-0.51,0.1-0.65,0.29c-0.14,0.2-0.21,0.51-0.21,0.94
			v0.13c0,0.49,0.07,0.84,0.2,1.05c0.14,0.22,0.36,0.33,0.67,0.33c0.26,0,0.46-0.12,0.6-0.36c0.14-0.24,0.21-0.58,0.21-1.03
			c0-0.45-0.07-0.78-0.21-1.01C39.54,19.28,39.34,19.16,39.07,19.16z"/>
		<path class="st5" d="M42.33,22.53h-0.75v-5.6h0.75V22.53z"/>
		<path class="st5" d="M46.59,20.53c0,0.65-0.15,1.16-0.44,1.52c-0.29,0.37-0.71,0.55-1.23,0.55c-0.33,0-0.62-0.08-0.87-0.25
			s-0.45-0.41-0.58-0.72s-0.2-0.68-0.2-1.09c0-0.65,0.15-1.15,0.44-1.51c0.29-0.36,0.71-0.54,1.24-0.54c0.51,0,0.91,0.19,1.21,0.56
			C46.44,19.4,46.59,19.9,46.59,20.53z M44.02,20.53c0,0.92,0.3,1.38,0.9,1.38c0.59,0,0.89-0.46,0.89-1.38c0-0.91-0.3-1.36-0.9-1.36
			c-0.31,0-0.54,0.12-0.68,0.35C44.09,19.75,44.02,20.09,44.02,20.53z"/>
		<path class="st5" d="M46.98,18.54h0.81l0.72,2.26c0.11,0.32,0.18,0.62,0.22,0.91h0.03c0.02-0.13,0.05-0.29,0.1-0.48
			c0.05-0.19,0.32-1.08,0.81-2.68h0.81l-1.51,4.51c-0.27,0.83-0.73,1.24-1.37,1.24c-0.17,0-0.33-0.02-0.48-0.06v-0.67
			c0.11,0.03,0.24,0.04,0.39,0.04c0.36,0,0.61-0.24,0.76-0.71l0.13-0.37L46.98,18.54z"/>
		<path class="st5" d="M52.6,22.6c-0.55,0-0.98-0.18-1.28-0.54c-0.31-0.36-0.46-0.86-0.46-1.49c0-0.65,0.14-1.16,0.43-1.53
			s0.68-0.56,1.18-0.56c0.46,0,0.83,0.16,1.1,0.48s0.4,0.76,0.4,1.32v0.46h-2.35c0.01,0.39,0.1,0.68,0.28,0.89
			c0.17,0.21,0.42,0.31,0.74,0.31c0.21,0,0.4-0.02,0.58-0.07c0.18-0.04,0.37-0.12,0.58-0.22v0.69c-0.18,0.1-0.37,0.17-0.55,0.21
			C53.06,22.58,52.84,22.6,52.6,22.6z M52.47,19.11c-0.24,0-0.43,0.08-0.57,0.25c-0.14,0.17-0.23,0.42-0.26,0.75h1.6
			c0-0.33-0.07-0.58-0.21-0.75C52.89,19.2,52.7,19.11,52.47,19.11z"/>
		<path class="st5" d="M56.42,22.6c-0.55,0-0.98-0.18-1.28-0.54c-0.31-0.36-0.46-0.86-0.46-1.49c0-0.65,0.14-1.16,0.43-1.53
			s0.68-0.56,1.18-0.56c0.46,0,0.83,0.16,1.1,0.48s0.4,0.76,0.4,1.32v0.46h-2.35c0.01,0.39,0.1,0.68,0.28,0.89
			c0.17,0.21,0.42,0.31,0.74,0.31c0.21,0,0.4-0.02,0.58-0.07c0.18-0.04,0.37-0.12,0.58-0.22v0.69c-0.18,0.1-0.37,0.17-0.55,0.21
			C56.87,22.58,56.66,22.6,56.42,22.6z M56.28,19.11c-0.24,0-0.43,0.08-0.57,0.25c-0.14,0.17-0.23,0.42-0.26,0.75h1.6
			c0-0.33-0.07-0.58-0.21-0.75C56.71,19.2,56.52,19.11,56.28,19.11z"/>
		<path class="st5" d="M61.06,21.39c0,0.39-0.13,0.69-0.38,0.89c-0.25,0.21-0.61,0.31-1.08,0.31c-0.47,0-0.85-0.08-1.13-0.24v-0.73
			c0.41,0.22,0.8,0.32,1.16,0.32c0.46,0,0.69-0.16,0.69-0.47c0-0.1-0.03-0.18-0.08-0.25c-0.05-0.07-0.13-0.14-0.25-0.21
			c-0.12-0.07-0.28-0.15-0.49-0.25c-0.41-0.18-0.68-0.36-0.82-0.53s-0.21-0.41-0.21-0.69c0-0.34,0.12-0.61,0.36-0.79
			c0.24-0.19,0.57-0.28,0.99-0.28c0.41,0,0.81,0.1,1.17,0.29l-0.24,0.64c-0.38-0.18-0.7-0.27-0.96-0.27c-0.39,0-0.59,0.13-0.59,0.38
			c0,0.13,0.05,0.23,0.15,0.32c0.1,0.09,0.33,0.21,0.67,0.36c0.29,0.13,0.5,0.24,0.63,0.35c0.13,0.11,0.23,0.23,0.29,0.37
			C61.03,21.04,61.06,21.2,61.06,21.39z"/>
	</g>
	<g>
		<path class="st5" d="M9.4,36.55c0,0.55-0.16,0.97-0.48,1.26s-0.77,0.44-1.36,0.44H7.08v1.97H6.32v-5.26h1.34
			c0.58,0,1.02,0.13,1.31,0.4S9.4,36.02,9.4,36.55z M7.08,37.53h0.4c0.39,0,0.68-0.08,0.86-0.23c0.18-0.15,0.27-0.39,0.27-0.72
			c0-0.3-0.08-0.53-0.25-0.68c-0.16-0.15-0.42-0.22-0.76-0.22H7.08V37.53z"/>
		<path class="st5" d="M12.51,40.22l-0.15-0.55h-0.03c-0.17,0.24-0.34,0.41-0.51,0.5c-0.17,0.09-0.39,0.13-0.66,0.13
			c-0.35,0-0.62-0.11-0.81-0.32c-0.19-0.21-0.29-0.51-0.29-0.9c0-0.41,0.13-0.72,0.4-0.93c0.27-0.21,0.68-0.32,1.23-0.34l0.61-0.02
			v-0.21c0-0.25-0.05-0.45-0.16-0.57s-0.27-0.19-0.49-0.19c-0.18,0-0.35,0.03-0.52,0.09c-0.17,0.06-0.32,0.13-0.48,0.21l-0.24-0.61
			c0.19-0.11,0.4-0.2,0.63-0.26s0.44-0.09,0.64-0.09c0.45,0,0.79,0.11,1.01,0.33c0.23,0.22,0.34,0.57,0.34,1.04v2.68H12.51z
			 M11.4,39.64c0.27,0,0.49-0.09,0.65-0.26c0.16-0.17,0.25-0.41,0.25-0.72v-0.35l-0.45,0.02c-0.35,0.01-0.61,0.08-0.77,0.2
			c-0.16,0.12-0.24,0.3-0.24,0.55c0,0.18,0.05,0.31,0.14,0.41C11.07,39.59,11.21,39.64,11.4,39.64z"/>
		<path class="st5" d="M15.93,36.17c0.15,0,0.27,0.01,0.37,0.04l-0.07,0.79c-0.11-0.03-0.22-0.04-0.33-0.04
			c-0.3,0-0.54,0.11-0.73,0.33c-0.19,0.22-0.28,0.51-0.28,0.86v2.08h-0.75v-3.98h0.59l0.1,0.7h0.04c0.12-0.24,0.27-0.43,0.46-0.57
			C15.52,36.24,15.72,36.17,15.93,36.17z"/>
		<path class="st5" d="M18.33,39.61c0.18,0,0.37-0.03,0.55-0.1v0.64c-0.08,0.04-0.19,0.08-0.32,0.1c-0.13,0.03-0.27,0.04-0.41,0.04
			c-0.71,0-1.06-0.42-1.06-1.27v-2.15h-0.48V36.5l0.52-0.31l0.25-0.84h0.46v0.89h1v0.64h-1v2.13c0,0.2,0.05,0.36,0.14,0.45
			C18.06,39.56,18.18,39.61,18.33,39.61z"/>
		<path class="st5" d="M22.74,40.22h-0.75v-2.45c0-0.31-0.05-0.54-0.16-0.69c-0.11-0.15-0.28-0.23-0.52-0.23
			c-0.32,0-0.55,0.11-0.69,0.32c-0.15,0.21-0.22,0.56-0.22,1.06v1.98h-0.75v-3.98h0.59l0.1,0.52h0.04c0.11-0.19,0.26-0.34,0.45-0.44
			s0.41-0.16,0.65-0.16c0.84,0,1.27,0.49,1.27,1.46V40.22z"/>
		<path class="st5" d="M25.38,40.29c-0.55,0-0.98-0.18-1.28-0.54c-0.31-0.36-0.46-0.86-0.46-1.49c0-0.65,0.14-1.16,0.43-1.53
			s0.68-0.56,1.18-0.56c0.46,0,0.83,0.16,1.1,0.48s0.4,0.76,0.4,1.32v0.46H24.4c0.01,0.39,0.1,0.68,0.28,0.89
			c0.17,0.21,0.42,0.31,0.74,0.31c0.21,0,0.4-0.02,0.58-0.07c0.18-0.04,0.37-0.12,0.58-0.22v0.69c-0.18,0.1-0.37,0.17-0.55,0.21
			C25.83,40.27,25.62,40.29,25.38,40.29z M25.24,36.81c-0.24,0-0.43,0.08-0.57,0.25c-0.14,0.17-0.23,0.42-0.26,0.75h1.6
			c0-0.33-0.07-0.58-0.21-0.75C25.67,36.89,25.48,36.81,25.24,36.81z"/>
		<path class="st5" d="M29.44,36.17c0.15,0,0.27,0.01,0.37,0.04l-0.07,0.79c-0.11-0.03-0.22-0.04-0.33-0.04
			c-0.3,0-0.54,0.11-0.73,0.33c-0.19,0.22-0.28,0.51-0.28,0.86v2.08h-0.75v-3.98h0.59l0.1,0.7h0.04c0.12-0.24,0.27-0.43,0.46-0.57
			C29.02,36.24,29.23,36.17,29.44,36.17z"/>
		<path class="st5" d="M32.24,35.18c0-0.15,0.04-0.27,0.11-0.35c0.07-0.08,0.18-0.12,0.31-0.12c0.13,0,0.23,0.04,0.31,0.12
			c0.07,0.08,0.11,0.2,0.11,0.35c0,0.14-0.04,0.26-0.11,0.34c-0.07,0.08-0.18,0.13-0.31,0.13c-0.14,0-0.24-0.04-0.31-0.13
			C32.28,35.44,32.24,35.33,32.24,35.18z M33.03,40.22h-0.75v-3.98h0.75V40.22z"/>
		<path class="st5" d="M37.27,40.22h-0.75v-2.45c0-0.31-0.05-0.54-0.16-0.69c-0.11-0.15-0.28-0.23-0.52-0.23
			c-0.32,0-0.55,0.11-0.69,0.32c-0.15,0.21-0.22,0.56-0.22,1.06v1.98h-0.75v-3.98h0.59l0.1,0.52h0.04c0.11-0.19,0.26-0.34,0.45-0.44
			s0.41-0.16,0.65-0.16c0.84,0,1.27,0.49,1.27,1.46V40.22z"/>
		<path class="st5" d="M41.44,39.61c0.18,0,0.37-0.03,0.55-0.1v0.64c-0.08,0.04-0.19,0.08-0.32,0.1c-0.13,0.03-0.27,0.04-0.41,0.04
			c-0.71,0-1.06-0.42-1.06-1.27v-2.15h-0.48V36.5l0.52-0.31l0.25-0.84h0.46v0.89h1v0.64h-1v2.13c0,0.2,0.05,0.36,0.14,0.45
			C41.18,39.56,41.3,39.61,41.44,39.61z"/>
		<path class="st5" d="M45.85,40.22H45.1v-2.45c0-0.31-0.05-0.54-0.16-0.69c-0.11-0.15-0.28-0.23-0.52-0.23
			c-0.31,0-0.54,0.11-0.69,0.32c-0.15,0.21-0.22,0.57-0.22,1.07v1.98h-0.75v-5.6h0.75v1.42c0,0.23-0.01,0.47-0.04,0.73h0.05
			c0.1-0.19,0.24-0.34,0.42-0.45c0.18-0.11,0.39-0.16,0.64-0.16c0.85,0,1.28,0.49,1.28,1.46V40.22z"/>
		<path class="st5" d="M48.49,40.29c-0.55,0-0.98-0.18-1.28-0.54c-0.31-0.36-0.46-0.86-0.46-1.49c0-0.65,0.14-1.16,0.43-1.53
			s0.68-0.56,1.18-0.56c0.46,0,0.83,0.16,1.1,0.48s0.4,0.76,0.4,1.32v0.46h-2.35c0.01,0.39,0.1,0.68,0.28,0.89
			c0.17,0.21,0.42,0.31,0.74,0.31c0.21,0,0.4-0.02,0.58-0.07c0.18-0.04,0.37-0.12,0.58-0.22v0.69c-0.18,0.1-0.37,0.17-0.55,0.21
			C48.95,40.27,48.73,40.29,48.49,40.29z M48.36,36.81c-0.24,0-0.43,0.08-0.57,0.25c-0.14,0.17-0.23,0.42-0.26,0.75h1.6
			c0-0.33-0.07-0.58-0.21-0.75C48.78,36.89,48.59,36.81,48.36,36.81z"/>
	</g>
	<g>
		<path class="st5" d="M7.43,49.14c-0.44,0-0.78-0.18-1.03-0.54c-0.25-0.36-0.37-0.87-0.37-1.52c0-0.65,0.12-1.16,0.37-1.52
			S7,45.01,7.44,45.01c0.46,0,0.81,0.19,1.06,0.58h0.04c-0.04-0.29-0.05-0.51-0.05-0.68v-1.45h0.75v5.6H8.65l-0.13-0.52H8.48
			C8.24,48.94,7.89,49.14,7.43,49.14z M7.63,48.45c0.31,0,0.53-0.1,0.67-0.29s0.21-0.51,0.22-0.95v-0.12c0-0.5-0.07-0.86-0.22-1.07
			c-0.14-0.21-0.37-0.32-0.68-0.32c-0.26,0-0.47,0.12-0.61,0.36C6.87,46.31,6.8,46.65,6.8,47.1c0,0.44,0.07,0.78,0.21,1.01
			C7.14,48.34,7.35,48.45,7.63,48.45z"/>
		<path class="st5" d="M11.9,49.14c-0.55,0-0.98-0.18-1.28-0.54c-0.31-0.36-0.46-0.86-0.46-1.49c0-0.65,0.14-1.16,0.43-1.53
			s0.68-0.56,1.18-0.56c0.46,0,0.83,0.16,1.1,0.48s0.4,0.76,0.4,1.32v0.46h-2.35c0.01,0.39,0.1,0.68,0.28,0.89
			c0.17,0.21,0.42,0.31,0.74,0.31c0.21,0,0.4-0.02,0.58-0.07c0.18-0.04,0.37-0.12,0.58-0.22v0.69c-0.18,0.1-0.37,0.17-0.55,0.21
			C12.35,49.12,12.14,49.14,11.9,49.14z M11.76,45.65c-0.24,0-0.43,0.08-0.57,0.25c-0.14,0.17-0.23,0.42-0.26,0.75h1.6
			c0-0.33-0.07-0.58-0.21-0.75C12.18,45.74,12,45.65,11.76,45.65z"/>
		<path class="st5" d="M14.98,49.07l-1.34-3.98h0.79l0.72,2.31c0.12,0.39,0.2,0.7,0.22,0.94h0.03c0.02-0.17,0.09-0.49,0.22-0.94
			l0.72-2.31h0.8l-1.34,3.98H14.98z"/>
		<path class="st5" d="M19.26,49.14c-0.55,0-0.98-0.18-1.28-0.54c-0.31-0.36-0.46-0.86-0.46-1.49c0-0.65,0.14-1.16,0.43-1.53
			s0.68-0.56,1.18-0.56c0.46,0,0.83,0.16,1.1,0.48s0.4,0.76,0.4,1.32v0.46h-2.35c0.01,0.39,0.1,0.68,0.28,0.89
			c0.17,0.21,0.42,0.31,0.74,0.31c0.21,0,0.4-0.02,0.58-0.07c0.18-0.04,0.37-0.12,0.58-0.22v0.69c-0.18,0.1-0.37,0.17-0.55,0.21
			C19.71,49.12,19.5,49.14,19.26,49.14z M19.12,45.65c-0.24,0-0.43,0.08-0.57,0.25c-0.14,0.17-0.23,0.42-0.26,0.75h1.6
			c0-0.33-0.07-0.58-0.21-0.75C19.55,45.74,19.36,45.65,19.12,45.65z"/>
		<path class="st5" d="M22.28,49.07h-0.75v-5.6h0.75V49.07z"/>
		<path class="st5" d="M26.54,47.07c0,0.65-0.15,1.16-0.44,1.52c-0.29,0.37-0.71,0.55-1.23,0.55c-0.33,0-0.62-0.08-0.87-0.25
			s-0.45-0.41-0.58-0.72s-0.2-0.68-0.2-1.09c0-0.65,0.15-1.15,0.44-1.51c0.29-0.36,0.71-0.54,1.24-0.54c0.51,0,0.91,0.19,1.21,0.56
			C26.39,45.94,26.54,46.44,26.54,47.07z M23.98,47.07c0,0.92,0.3,1.38,0.9,1.38c0.59,0,0.89-0.46,0.89-1.38
			c0-0.91-0.3-1.36-0.9-1.36c-0.31,0-0.54,0.12-0.68,0.35C24.05,46.29,23.98,46.63,23.98,47.07z"/>
		<path class="st5" d="M29.25,49.14c-0.45,0-0.79-0.18-1.04-0.54h-0.04c0.03,0.34,0.04,0.54,0.04,0.61v1.63h-0.75v-5.75h0.6
			c0.02,0.07,0.05,0.25,0.1,0.53h0.04c0.23-0.4,0.58-0.61,1.05-0.61c0.44,0,0.78,0.18,1.03,0.54c0.25,0.36,0.37,0.87,0.37,1.52
			s-0.12,1.16-0.37,1.52C30.04,48.96,29.69,49.14,29.25,49.14z M29.07,45.7c-0.3,0-0.51,0.1-0.65,0.29
			c-0.14,0.2-0.21,0.51-0.21,0.94v0.13c0,0.49,0.07,0.84,0.2,1.05c0.14,0.22,0.36,0.33,0.67,0.33c0.26,0,0.46-0.12,0.6-0.36
			c0.14-0.24,0.21-0.58,0.21-1.03c0-0.45-0.07-0.78-0.21-1.01C29.55,45.82,29.34,45.7,29.07,45.7z"/>
		<path class="st5" d="M34.55,49.07H33.8v-2.46c0-0.3-0.05-0.53-0.15-0.68c-0.1-0.15-0.26-0.23-0.48-0.23
			c-0.29,0-0.5,0.11-0.64,0.32c-0.13,0.21-0.2,0.57-0.2,1.06v1.98h-0.75v-3.98h0.59l0.1,0.52h0.04c0.1-0.19,0.24-0.34,0.42-0.44
			c0.19-0.1,0.39-0.16,0.61-0.16c0.54,0,0.9,0.21,1.08,0.63h0.05c0.1-0.2,0.25-0.35,0.44-0.46s0.41-0.17,0.65-0.17
			c0.42,0,0.73,0.12,0.92,0.36c0.19,0.24,0.29,0.61,0.29,1.1v2.6h-0.75v-2.46c0-0.3-0.05-0.53-0.15-0.68
			c-0.1-0.15-0.26-0.23-0.48-0.23c-0.29,0-0.5,0.1-0.64,0.31s-0.2,0.52-0.2,0.95V49.07z"/>
		<path class="st5" d="M39.42,49.14c-0.55,0-0.98-0.18-1.28-0.54c-0.31-0.36-0.46-0.86-0.46-1.49c0-0.65,0.14-1.16,0.43-1.53
			s0.68-0.56,1.18-0.56c0.46,0,0.83,0.16,1.1,0.48s0.4,0.76,0.4,1.32v0.46h-2.35c0.01,0.39,0.1,0.68,0.28,0.89
			c0.17,0.21,0.42,0.31,0.74,0.31c0.21,0,0.4-0.02,0.58-0.07c0.18-0.04,0.37-0.12,0.58-0.22v0.69c-0.18,0.1-0.37,0.17-0.55,0.21
			C39.87,49.12,39.66,49.14,39.42,49.14z M39.28,45.65c-0.24,0-0.43,0.08-0.57,0.25c-0.14,0.17-0.23,0.42-0.26,0.75h1.6
			c0-0.33-0.07-0.58-0.21-0.75C39.7,45.74,39.52,45.65,39.28,45.65z"/>
		<path class="st5" d="M44.79,49.07h-0.75v-2.45c0-0.31-0.05-0.54-0.16-0.69c-0.11-0.15-0.28-0.23-0.52-0.23
			c-0.32,0-0.55,0.11-0.69,0.32c-0.15,0.21-0.22,0.56-0.22,1.06v1.98h-0.75v-3.98h0.59l0.1,0.52h0.04c0.11-0.19,0.26-0.34,0.45-0.44
			s0.41-0.16,0.65-0.16c0.84,0,1.27,0.49,1.27,1.46V49.07z"/>
		<path class="st5" d="M47.21,48.45c0.18,0,0.37-0.03,0.55-0.1v0.64c-0.08,0.04-0.19,0.08-0.32,0.1c-0.13,0.03-0.27,0.04-0.41,0.04
			c-0.71,0-1.06-0.42-1.06-1.27v-2.15h-0.48v-0.37L46,45.04l0.25-0.84h0.46v0.89h1v0.64h-1v2.13c0,0.2,0.05,0.36,0.14,0.45
			C46.95,48.41,47.06,48.45,47.21,48.45z"/>
		<path class="st5" d="M53.4,47.07c0,0.65-0.15,1.16-0.44,1.52c-0.29,0.37-0.71,0.55-1.23,0.55c-0.33,0-0.62-0.08-0.87-0.25
			s-0.45-0.41-0.58-0.72s-0.2-0.68-0.2-1.09c0-0.65,0.15-1.15,0.44-1.51c0.29-0.36,0.71-0.54,1.24-0.54c0.51,0,0.91,0.19,1.21,0.56
			C53.25,45.94,53.4,46.44,53.4,47.07z M50.84,47.07c0,0.92,0.3,1.38,0.9,1.38c0.59,0,0.89-0.46,0.89-1.38c0-0.91-0.3-1.36-0.9-1.36
			c-0.31,0-0.54,0.12-0.68,0.35C50.91,46.29,50.84,46.63,50.84,47.07z"/>
		<path class="st5" d="M56.09,45.73h-0.86v3.34h-0.75v-3.34H53.9v-0.4l0.58-0.26v-0.26c0-0.47,0.1-0.82,0.29-1.05
			c0.2-0.23,0.49-0.34,0.89-0.34c0.26,0,0.52,0.05,0.78,0.15l-0.2,0.64c-0.18-0.07-0.36-0.1-0.53-0.1c-0.17,0-0.29,0.06-0.37,0.18
			c-0.08,0.12-0.12,0.3-0.12,0.54v0.26h0.86V45.73z"/>
		<path class="st5" d="M61.61,49.07h-0.75v-2.45c0-0.31-0.05-0.54-0.16-0.69c-0.11-0.15-0.28-0.23-0.52-0.23
			c-0.31,0-0.54,0.11-0.69,0.32c-0.15,0.21-0.22,0.57-0.22,1.07v1.98h-0.75v-5.6h0.75v1.42c0,0.23-0.01,0.47-0.04,0.73h0.05
			c0.1-0.19,0.24-0.34,0.42-0.45c0.18-0.11,0.39-0.16,0.64-0.16c0.85,0,1.28,0.49,1.28,1.46V49.07z"/>
		<path class="st5" d="M65.84,47.07c0,0.65-0.15,1.16-0.44,1.52c-0.29,0.37-0.71,0.55-1.23,0.55c-0.33,0-0.62-0.08-0.87-0.25
			s-0.45-0.41-0.58-0.72s-0.2-0.68-0.2-1.09c0-0.65,0.15-1.15,0.44-1.51c0.29-0.36,0.71-0.54,1.24-0.54c0.51,0,0.91,0.19,1.21,0.56
			C65.69,45.94,65.84,46.44,65.84,47.07z M63.28,47.07c0,0.92,0.3,1.38,0.9,1.38c0.59,0,0.89-0.46,0.89-1.38
			c0-0.91-0.3-1.36-0.9-1.36c-0.31,0-0.54,0.12-0.68,0.35C63.35,46.29,63.28,46.63,63.28,47.07z"/>
		<path class="st5" d="M69.13,47.93c0,0.39-0.13,0.69-0.38,0.89c-0.25,0.21-0.61,0.31-1.08,0.31c-0.47,0-0.85-0.08-1.13-0.24v-0.73
			c0.41,0.22,0.8,0.32,1.16,0.32c0.46,0,0.69-0.16,0.69-0.47c0-0.1-0.03-0.18-0.08-0.25c-0.05-0.07-0.13-0.14-0.25-0.21
			c-0.12-0.07-0.28-0.15-0.49-0.25c-0.41-0.18-0.68-0.36-0.82-0.53s-0.21-0.41-0.21-0.69c0-0.34,0.12-0.61,0.36-0.79
			c0.24-0.19,0.57-0.28,0.99-0.28c0.41,0,0.81,0.1,1.17,0.29l-0.24,0.64c-0.38-0.18-0.7-0.27-0.96-0.27c-0.39,0-0.59,0.13-0.59,0.38
			c0,0.13,0.05,0.23,0.15,0.32c0.1,0.09,0.33,0.21,0.67,0.36c0.29,0.13,0.5,0.24,0.63,0.35c0.13,0.11,0.23,0.23,0.29,0.37
			C69.1,47.58,69.13,47.74,69.13,47.93z"/>
		<path class="st5" d="M71.32,48.45c0.18,0,0.37-0.03,0.55-0.1v0.64c-0.08,0.04-0.19,0.08-0.32,0.1c-0.13,0.03-0.27,0.04-0.41,0.04
			c-0.71,0-1.06-0.42-1.06-1.27v-2.15h-0.48v-0.37l0.52-0.31l0.25-0.84h0.46v0.89h1v0.64h-1v2.13c0,0.2,0.05,0.36,0.14,0.45
			C71.05,48.41,71.17,48.45,71.32,48.45z"/>
	</g>
	<g>
		<path class="st5" d="M7.66,57.99c-0.53,0-0.94-0.18-1.21-0.53s-0.42-0.86-0.42-1.51c0-0.67,0.15-1.18,0.43-1.54
			c0.29-0.36,0.71-0.54,1.26-0.54c0.37,0,0.71,0.08,1,0.23L8.5,54.77c-0.32-0.14-0.58-0.21-0.78-0.21c-0.61,0-0.91,0.46-0.91,1.37
			c0,0.45,0.08,0.78,0.23,1.01c0.15,0.22,0.37,0.34,0.67,0.34c0.33,0,0.65-0.09,0.95-0.28v0.74c-0.13,0.09-0.28,0.15-0.43,0.19
			C8.06,57.97,7.87,57.99,7.66,57.99z"/>
		<path class="st5" d="M12.65,55.91c0,0.65-0.15,1.16-0.44,1.52c-0.29,0.37-0.71,0.55-1.23,0.55c-0.33,0-0.62-0.08-0.87-0.25
			s-0.45-0.41-0.58-0.72s-0.2-0.68-0.2-1.09c0-0.65,0.15-1.15,0.44-1.51c0.29-0.36,0.71-0.54,1.24-0.54c0.51,0,0.91,0.19,1.21,0.56
			C12.5,54.79,12.65,55.29,12.65,55.91z M10.09,55.91c0,0.92,0.3,1.38,0.9,1.38c0.59,0,0.89-0.46,0.89-1.38
			c0-0.91-0.3-1.36-0.9-1.36c-0.31,0-0.54,0.12-0.68,0.35C10.16,55.14,10.09,55.48,10.09,55.91z"/>
		<path class="st5" d="M16.54,57.91h-0.75v-2.46c0-0.3-0.05-0.53-0.15-0.68c-0.1-0.15-0.26-0.23-0.48-0.23
			c-0.29,0-0.5,0.11-0.64,0.32c-0.13,0.21-0.2,0.57-0.2,1.06v1.98h-0.75v-3.98h0.59l0.1,0.52h0.04c0.1-0.19,0.24-0.34,0.42-0.44
			c0.19-0.1,0.39-0.16,0.61-0.16c0.54,0,0.9,0.21,1.08,0.63h0.05c0.1-0.2,0.25-0.35,0.44-0.46s0.41-0.17,0.65-0.17
			c0.42,0,0.73,0.12,0.92,0.36c0.19,0.24,0.29,0.61,0.29,1.1v2.6h-0.75v-2.46c0-0.3-0.05-0.53-0.15-0.68
			c-0.1-0.15-0.26-0.23-0.48-0.23c-0.29,0-0.5,0.1-0.64,0.31s-0.2,0.52-0.2,0.95V57.91z"/>
		<path class="st5" d="M22.83,57.91h-0.75v-2.46c0-0.3-0.05-0.53-0.15-0.68c-0.1-0.15-0.26-0.23-0.48-0.23
			c-0.29,0-0.5,0.11-0.64,0.32c-0.13,0.21-0.2,0.57-0.2,1.06v1.98h-0.75v-3.98h0.59l0.1,0.52h0.04c0.1-0.19,0.24-0.34,0.42-0.44
			c0.19-0.1,0.39-0.16,0.61-0.16c0.54,0,0.9,0.21,1.08,0.63h0.05c0.1-0.2,0.25-0.35,0.44-0.46s0.41-0.17,0.65-0.17
			c0.42,0,0.73,0.12,0.92,0.36c0.19,0.24,0.29,0.61,0.29,1.1v2.6h-0.75v-2.46c0-0.3-0.05-0.53-0.15-0.68
			c-0.1-0.15-0.26-0.23-0.48-0.23c-0.29,0-0.5,0.1-0.64,0.31s-0.2,0.52-0.2,0.95V57.91z"/>
		<path class="st5" d="M28.64,57.91l-0.1-0.52H28.5c-0.1,0.18-0.25,0.33-0.44,0.44c-0.19,0.11-0.41,0.16-0.66,0.16
			c-0.43,0-0.74-0.12-0.96-0.36c-0.21-0.24-0.31-0.6-0.31-1.09v-2.6h0.75v2.46c0,0.3,0.06,0.53,0.17,0.69s0.28,0.23,0.52,0.23
			c0.31,0,0.54-0.11,0.69-0.32c0.15-0.21,0.22-0.57,0.22-1.07v-1.98h0.75v3.98H28.64z"/>
		<path class="st5" d="M33.46,57.91h-0.75v-2.45c0-0.31-0.05-0.54-0.16-0.69c-0.11-0.15-0.28-0.23-0.52-0.23
			c-0.32,0-0.55,0.11-0.69,0.32c-0.15,0.21-0.22,0.56-0.22,1.06v1.98h-0.75v-3.98h0.59l0.1,0.52h0.04c0.11-0.19,0.26-0.34,0.45-0.44
			s0.41-0.16,0.65-0.16c0.84,0,1.27,0.49,1.27,1.46V57.91z"/>
		<path class="st5" d="M34.52,52.88c0-0.15,0.04-0.27,0.11-0.35c0.07-0.08,0.18-0.12,0.31-0.12c0.13,0,0.23,0.04,0.31,0.12
			c0.07,0.08,0.11,0.2,0.11,0.35c0,0.14-0.04,0.26-0.11,0.34c-0.07,0.08-0.18,0.13-0.31,0.13c-0.14,0-0.24-0.04-0.31-0.13
			C34.55,53.13,34.52,53.02,34.52,52.88z M35.31,57.91h-0.75v-3.98h0.75V57.91z"/>
		<path class="st5" d="M37.76,57.3c0.18,0,0.37-0.03,0.55-0.1v0.64c-0.08,0.04-0.19,0.08-0.32,0.1c-0.13,0.03-0.27,0.04-0.41,0.04
			c-0.71,0-1.06-0.42-1.06-1.27v-2.15h-0.48V54.2l0.52-0.31l0.25-0.84h0.46v0.89h1v0.64h-1v2.13c0,0.2,0.05,0.36,0.14,0.45
			C37.49,57.25,37.61,57.3,37.76,57.3z"/>
		<path class="st5" d="M39.02,52.88c0-0.15,0.04-0.27,0.11-0.35c0.07-0.08,0.18-0.12,0.31-0.12c0.13,0,0.23,0.04,0.31,0.12
			c0.07,0.08,0.11,0.2,0.11,0.35c0,0.14-0.04,0.26-0.11,0.34c-0.07,0.08-0.18,0.13-0.31,0.13c-0.14,0-0.24-0.04-0.31-0.13
			C39.06,53.13,39.02,53.02,39.02,52.88z M39.81,57.91h-0.75v-3.98h0.75V57.91z"/>
		<path class="st5" d="M42.49,57.99c-0.55,0-0.98-0.18-1.28-0.54c-0.31-0.36-0.46-0.86-0.46-1.49c0-0.65,0.14-1.16,0.43-1.53
			s0.68-0.56,1.18-0.56c0.46,0,0.83,0.16,1.1,0.48s0.4,0.76,0.4,1.32v0.46h-2.35c0.01,0.39,0.1,0.68,0.28,0.89
			c0.17,0.21,0.42,0.31,0.74,0.31c0.21,0,0.4-0.02,0.58-0.07c0.18-0.04,0.37-0.12,0.58-0.22v0.69c-0.18,0.1-0.37,0.17-0.55,0.21
			C42.94,57.96,42.73,57.99,42.49,57.99z M42.35,54.5c-0.24,0-0.43,0.08-0.57,0.25c-0.14,0.17-0.23,0.42-0.26,0.75h1.6
			c0-0.33-0.07-0.58-0.21-0.75C42.77,54.58,42.59,54.5,42.35,54.5z"/>
		<path class="st5" d="M47.13,56.78c0,0.39-0.13,0.69-0.38,0.89c-0.25,0.21-0.61,0.31-1.08,0.31c-0.47,0-0.85-0.08-1.13-0.24v-0.73
			c0.41,0.22,0.8,0.32,1.16,0.32c0.46,0,0.69-0.16,0.69-0.47c0-0.1-0.03-0.18-0.08-0.25c-0.05-0.07-0.13-0.14-0.25-0.21
			c-0.12-0.07-0.28-0.15-0.49-0.25c-0.41-0.18-0.68-0.36-0.82-0.53s-0.21-0.41-0.21-0.69c0-0.34,0.12-0.61,0.36-0.79
			c0.24-0.19,0.57-0.28,0.99-0.28c0.41,0,0.81,0.1,1.17,0.29l-0.24,0.64c-0.38-0.18-0.7-0.27-0.96-0.27c-0.39,0-0.59,0.13-0.59,0.38
			c0,0.13,0.05,0.23,0.15,0.32c0.1,0.09,0.33,0.21,0.67,0.36c0.29,0.13,0.5,0.24,0.63,0.35c0.13,0.11,0.23,0.23,0.29,0.37
			C47.1,56.42,47.13,56.59,47.13,56.78z"/>
	</g>
</g>
<g>
	<path class="st12" d="M454.28-661.06v-15 M-141-661.06v-15 M460.28,186.83h15 M-147,186.83h-15 M460.28-655.06h15 M-147-655.06h-15
		"/>
	<path class="st13" d="M454.28-661.06v-15 M-141-661.06v-15 M460.28,186.83h15 M-147,186.83h-15 M460.28-655.06h15 M-147-655.06h-15
		"/>
</g>
</svg>
