<?xml version="1.0" encoding="utf-8"?>
<!-- Generator: Adobe Illustrator 24.3.0, SVG Export Plug-In . SVG Version: 6.00 Build 0)  -->
<svg version="1.1" id="Layer_1" xmlns="http://www.w3.org/2000/svg" xmlns:xlink="http://www.w3.org/1999/xlink" x="0px" y="0px"
	 viewBox="0 0 103.68 22.68" style="enable-background:new 0 0 103.68 22.68;" xml:space="preserve">
<style type="text/css">
	.st0{fill:#F7F5F2;}
	.st1{fill:#F1EEE9;}
	.st2{fill:#A0926A;}
	.st3{fill:#0092B2;}
	.st4{fill:#1568A1;}
	.st5{fill:#FFFFFF;}
	.st6{fill:#2D77AA;}
	.st7{fill:#32A7C2;}
	.st8{fill:#AA9D78;}
	.st9{fill:#A1A94F;}
	.st10{fill:#8B9638;}
	.st11{fill:none;stroke:#A0926A;}
	.st12{fill:none;stroke:#FFFFFF;stroke-width:1.25;stroke-miterlimit:10;}
	.st13{fill:none;stroke:#000000;stroke-width:0.25;stroke-miterlimit:10;}
	.st14{fill:#DDDEE0;}
	.st15{fill:#E8F0F5;}
	.st16{fill:#D1E1EB;}
	.st17{fill:#F7F5F1;}
	.st18{fill:#ECE9E1;}
	.st19{fill:#F4F4E9;}
	.st20{fill:#E6F5F8;}
	.st21{fill:none;stroke:#FFFFFF;stroke-width:0.25;stroke-miterlimit:10;}
	.st22{fill:#282829;}
	.st23{fill:none;stroke:#FFFFFF;stroke-width:0.3;stroke-miterlimit:10;}
	.st24{fill:none;stroke:#FFFFFF;stroke-width:0.447;stroke-miterlimit:10;}
	.st25{fill:none;stroke:#FFFFFF;stroke-width:0.652;stroke-miterlimit:10;}
	.st26{fill:none;stroke:#FFFFFF;stroke-width:0.558;stroke-miterlimit:10;}
	.st27{fill:none;stroke:#FFFFFF;stroke-width:0.363;stroke-miterlimit:10;}
	.st28{fill:none;stroke:#FFFFFF;stroke-width:0.628;stroke-linecap:round;stroke-linejoin:round;stroke-miterlimit:22.926;}
	.st29{clip-path:url(#SVGID_2_);fill:#ECE9E1;}
	.st30{clip-path:url(#SVGID_2_);fill:#F7F5F1;}
	.st31{clip-path:url(#SVGID_2_);fill:#FFFFFF;}
	.st32{fill:none;stroke:#A0926A;stroke-width:1.5;}
	.st33{fill:none;stroke:#FFFFFF;stroke-width:0.333;stroke-miterlimit:10;}
	.st34{fill:none;stroke:#FFFFFF;stroke-width:0.497;stroke-miterlimit:10;}
	.st35{fill:none;stroke:#FFFFFF;stroke-width:0.724;stroke-miterlimit:10;}
	.st36{fill:none;stroke:#FFFFFF;stroke-width:0.62;stroke-miterlimit:10;}
	.st37{fill:none;stroke:#FFFFFF;stroke-width:0.4;stroke-miterlimit:10;}
	.st38{fill:none;stroke:#FFFFFF;stroke-width:0.403;stroke-miterlimit:10;}
	.st39{fill:#B4A888;}
	.st40{fill:none;stroke:#FFFFFF;stroke-miterlimit:10;}
	.st41{fill:none;stroke:#A0926A;stroke-width:1.19;stroke-linejoin:round;stroke-miterlimit:10;}
	.st42{fill:none;stroke:#A0926A;stroke-width:1.265;stroke-miterlimit:10;}
	.st43{fill:none;stroke:#A0926A;stroke-width:1.265;stroke-linecap:round;stroke-linejoin:round;stroke-miterlimit:10;}
	.st44{fill:none;stroke:#A0926A;stroke-width:1.265;stroke-linejoin:round;stroke-miterlimit:10;}
	.st45{fill:none;stroke:#A0926A;stroke-width:1.22;stroke-linecap:round;stroke-linejoin:round;stroke-miterlimit:22.926;}
	.st46{fill:none;stroke:#A0926A;stroke-width:1.314;stroke-linecap:round;stroke-linejoin:round;stroke-miterlimit:22.926;}
	.st47{clip-path:url(#SVGID_4_);}
	.st48{clip-path:url(#SVGID_4_);fill:#B4A888;}
	.st49{clip-path:url(#SVGID_4_);fill:#F7F5F1;}
	.st50{clip-path:url(#SVGID_4_);fill:#ECE9E1;}
	.st51{clip-path:url(#SVGID_4_);fill:none;stroke:#FFFFFF;stroke-miterlimit:10;}
	
		.st52{clip-path:url(#SVGID_8_);fill:none;stroke:#A0926A;stroke-width:1.148;stroke-linecap:round;stroke-linejoin:round;stroke-miterlimit:10;}
	
		.st53{clip-path:url(#SVGID_4_);fill:none;stroke:#A0926A;stroke-width:1.148;stroke-linecap:round;stroke-linejoin:round;stroke-miterlimit:10;stroke-dasharray:0.047,2.088;}
	
		.st54{clip-path:url(#SVGID_4_);fill:none;stroke:#A0926A;stroke-width:1.148;stroke-linecap:round;stroke-linejoin:round;stroke-miterlimit:10;}
	.st55{clip-path:url(#SVGID_4_);fill:#282829;}
	.st56{clip-path:url(#SVGID_10_);fill:none;stroke:#A0926A;stroke-width:1.397;stroke-miterlimit:10;}
	.st57{clip-path:url(#SVGID_10_);fill:none;stroke:#A0926A;stroke-width:1.397;stroke-linejoin:round;stroke-miterlimit:10;}
	
		.st58{clip-path:url(#SVGID_12_);fill:none;stroke:#A0926A;stroke-width:1.252;stroke-linecap:round;stroke-linejoin:round;stroke-miterlimit:10;}
	.st59{clip-path:url(#SVGID_14_);fill:none;stroke:#A0926A;stroke-width:1.2112;stroke-linejoin:round;stroke-miterlimit:10;}
	.st60{clip-path:url(#SVGID_16_);fill:none;stroke:#FFFFFF;stroke-width:1.25;stroke-miterlimit:10;}
	.st61{clip-path:url(#SVGID_16_);fill:none;stroke:#000000;stroke-width:0.25;stroke-miterlimit:10;}
	.st62{clip-path:url(#SVGID_16_);fill:none;stroke:#FFFFFF;stroke-width:0.4;stroke-miterlimit:10;}
	.st63{clip-path:url(#SVGID_18_);fill:none;stroke:#FFFFFF;stroke-width:0.4;stroke-miterlimit:10;}
</style>
<g>
	<g>
		<rect class="st6" width="103.68" height="22.68"/>
	</g>
	<g>
		<path class="st5" d="M17.39,10.17c0,0.82-0.26,1.45-0.77,1.89c-0.52,0.44-1.25,0.65-2.2,0.65h-0.7v2.72H12.1V7.78h2.45
			c0.93,0,1.63,0.2,2.12,0.6C17.14,8.78,17.39,9.38,17.39,10.17z M13.72,11.39h0.53c0.5,0,0.87-0.1,1.12-0.3
			c0.25-0.2,0.37-0.48,0.37-0.86c0-0.38-0.1-0.66-0.31-0.84s-0.53-0.27-0.98-0.27h-0.74V11.39z"/>
		<path class="st5" d="M23.35,15.44h-4.41V7.78h4.41v1.33h-2.79v1.68h2.59v1.33h-2.59v1.97h2.79V15.44z"/>
		<path class="st5" d="M26.66,12.5v2.94h-1.62V7.78h2.23c1.04,0,1.81,0.19,2.31,0.57s0.75,0.95,0.75,1.73c0,0.45-0.12,0.85-0.37,1.2
			c-0.25,0.35-0.6,0.63-1.05,0.83c1.15,1.72,1.9,2.83,2.25,3.33h-1.8l-1.83-2.94H26.66z M26.66,11.18h0.52
			c0.51,0,0.89-0.09,1.14-0.26c0.24-0.17,0.37-0.44,0.37-0.81c0-0.36-0.12-0.62-0.37-0.78c-0.25-0.15-0.64-0.23-1.16-0.23h-0.49
			V11.18z"/>
		<path class="st5" d="M33.81,15.44h-1.6V7.78h4.39v1.33h-2.79v1.97h2.6v1.33h-2.6V15.44z"/>
		<path class="st5" d="M45.16,11.6c0,1.27-0.31,2.24-0.94,2.92s-1.53,1.02-2.7,1.02c-1.17,0-2.07-0.34-2.7-1.02
			s-0.94-1.66-0.94-2.93c0-1.27,0.31-2.25,0.95-2.92c0.63-0.67,1.53-1.01,2.71-1.01S43.6,8,44.22,8.68
			C44.85,9.36,45.16,10.33,45.16,11.6z M39.57,11.6c0,0.86,0.16,1.5,0.49,1.93c0.32,0.43,0.81,0.65,1.46,0.65
			c1.3,0,1.94-0.86,1.94-2.58c0-1.72-0.64-2.59-1.93-2.59c-0.65,0-1.13,0.22-1.46,0.65S39.57,10.75,39.57,11.6z"/>
		<path class="st5" d="M48.47,12.5v2.94h-1.62V7.78h2.23c1.04,0,1.81,0.19,2.31,0.57s0.75,0.95,0.75,1.73c0,0.45-0.12,0.85-0.37,1.2
			c-0.25,0.35-0.6,0.63-1.05,0.83c1.15,1.72,1.9,2.83,2.25,3.33h-1.8l-1.83-2.94H48.47z M48.47,11.18H49c0.51,0,0.89-0.09,1.14-0.26
			c0.24-0.17,0.37-0.44,0.37-0.81c0-0.36-0.12-0.62-0.37-0.78c-0.25-0.15-0.64-0.23-1.16-0.23h-0.49V11.18z"/>
		<path class="st5" d="M57.27,15.44l-1.84-6.01h-0.05c0.07,1.22,0.1,2.04,0.1,2.45v3.56h-1.45V7.78h2.21l1.81,5.85h0.03L60,7.78
			h2.21v7.66H60.7v-3.62c0-0.17,0-0.37,0.01-0.59c0-0.22,0.03-0.82,0.07-1.78h-0.05l-1.97,6H57.27z"/>
		<path class="st5" d="M68.93,15.44l-0.55-1.82h-2.79l-0.55,1.82h-1.75l2.7-7.69h1.98l2.71,7.69H68.93z M67.99,12.26
			c-0.51-1.65-0.8-2.58-0.87-2.8c-0.06-0.22-0.11-0.39-0.14-0.51c-0.12,0.45-0.44,1.55-0.99,3.31H67.99z"/>
		<path class="st5" d="M78.54,15.44h-2.06l-3.33-5.79H73.1c0.07,1.02,0.1,1.75,0.1,2.19v3.6h-1.45V7.78h2.05l3.32,5.73h0.04
			c-0.05-0.99-0.08-1.7-0.08-2.11V7.78h1.46V15.44z"/>
		<path class="st5" d="M83.83,9.03c-0.61,0-1.08,0.23-1.42,0.69c-0.33,0.46-0.5,1.1-0.5,1.92c0,1.71,0.64,2.56,1.92,2.56
			c0.54,0,1.19-0.13,1.95-0.4v1.36c-0.63,0.26-1.33,0.39-2.1,0.39c-1.11,0-1.97-0.34-2.56-1.01c-0.59-0.68-0.88-1.65-0.88-2.91
			c0-0.8,0.15-1.49,0.43-2.09s0.71-1.06,1.25-1.38c0.54-0.32,1.18-0.48,1.91-0.48c0.74,0,1.49,0.18,2.24,0.54l-0.52,1.32
			c-0.29-0.14-0.57-0.25-0.86-0.36C84.39,9.08,84.11,9.03,83.83,9.03z"/>
		<path class="st5" d="M91.91,15.44H87.5V7.78h4.41v1.33h-2.79v1.68h2.59v1.33h-2.59v1.97h2.79V15.44z"/>
	</g>
</g>
<g>
	<path class="st12" d="M267.29-491.74v-15 M-327.98-491.74v-15 M273.29,356.15h15 M-333.98,356.15h-15 M273.29-485.74h15
		 M-333.98-485.74h-15"/>
	<path class="st13" d="M267.29-491.74v-15 M-327.98-491.74v-15 M273.29,356.15h15 M-333.98,356.15h-15 M273.29-485.74h15
		 M-333.98-485.74h-15"/>
</g>
</svg>
