<?xml version="1.0" encoding="utf-8"?>
<!-- Generator: Adobe Illustrator 24.3.0, SVG Export Plug-In . SVG Version: 6.00 Build 0)  -->
<svg version="1.1" id="Layer_1" xmlns="http://www.w3.org/2000/svg" xmlns:xlink="http://www.w3.org/1999/xlink" x="0px" y="0px"
	 viewBox="0 0 108.62 279.98" style="enable-background:new 0 0 108.62 279.98;" xml:space="preserve">
<style type="text/css">
	.st0{fill:#F7F5F2;}
	.st1{fill:#F1EEE9;}
	.st2{fill:#A0926A;}
	.st3{fill:#0092B2;}
	.st4{fill:#1568A1;}
	.st5{fill:#FFFFFF;}
	.st6{fill:#2D77AA;}
	.st7{fill:#32A7C2;}
	.st8{fill:#AA9D78;}
	.st9{fill:#A1A94F;}
	.st10{fill:#8B9638;}
	.st11{fill:none;stroke:#A0926A;}
	.st12{fill:none;stroke:#FFFFFF;stroke-width:1.25;stroke-miterlimit:10;}
	.st13{fill:none;stroke:#000000;stroke-width:0.25;stroke-miterlimit:10;}
	.st14{fill:#DDDEE0;}
	.st15{fill:#E8F0F5;}
	.st16{fill:#D1E1EB;}
	.st17{fill:#F7F5F1;}
	.st18{fill:#ECE9E1;}
	.st19{fill:#F4F4E9;}
	.st20{fill:#E6F5F8;}
	.st21{fill:none;stroke:#FFFFFF;stroke-width:0.25;stroke-miterlimit:10;}
	.st22{fill:#282829;}
	.st23{fill:none;stroke:#FFFFFF;stroke-width:0.3;stroke-miterlimit:10;}
	.st24{fill:none;stroke:#FFFFFF;stroke-width:0.447;stroke-miterlimit:10;}
	.st25{fill:none;stroke:#FFFFFF;stroke-width:0.652;stroke-miterlimit:10;}
	.st26{fill:none;stroke:#FFFFFF;stroke-width:0.558;stroke-miterlimit:10;}
	.st27{fill:none;stroke:#FFFFFF;stroke-width:0.363;stroke-miterlimit:10;}
	.st28{fill:none;stroke:#FFFFFF;stroke-width:0.628;stroke-linecap:round;stroke-linejoin:round;stroke-miterlimit:22.926;}
	.st29{clip-path:url(#SVGID_2_);fill:#ECE9E1;}
	.st30{clip-path:url(#SVGID_2_);fill:#F7F5F1;}
	.st31{clip-path:url(#SVGID_2_);fill:#FFFFFF;}
	.st32{fill:none;stroke:#A0926A;stroke-width:1.5;}
	.st33{fill:none;stroke:#FFFFFF;stroke-width:0.333;stroke-miterlimit:10;}
	.st34{fill:none;stroke:#FFFFFF;stroke-width:0.497;stroke-miterlimit:10;}
	.st35{fill:none;stroke:#FFFFFF;stroke-width:0.724;stroke-miterlimit:10;}
	.st36{fill:none;stroke:#FFFFFF;stroke-width:0.62;stroke-miterlimit:10;}
	.st37{fill:none;stroke:#FFFFFF;stroke-width:0.4;stroke-miterlimit:10;}
	.st38{fill:none;stroke:#FFFFFF;stroke-width:0.403;stroke-miterlimit:10;}
	.st39{fill:#B4A888;}
	.st40{fill:none;stroke:#FFFFFF;stroke-miterlimit:10;}
	.st41{fill:none;stroke:#A0926A;stroke-width:1.19;stroke-linejoin:round;stroke-miterlimit:10;}
	.st42{fill:none;stroke:#A0926A;stroke-width:1.265;stroke-miterlimit:10;}
	.st43{fill:none;stroke:#A0926A;stroke-width:1.265;stroke-linecap:round;stroke-linejoin:round;stroke-miterlimit:10;}
	.st44{fill:none;stroke:#A0926A;stroke-width:1.265;stroke-linejoin:round;stroke-miterlimit:10;}
	.st45{fill:none;stroke:#A0926A;stroke-width:1.22;stroke-linecap:round;stroke-linejoin:round;stroke-miterlimit:22.926;}
	.st46{fill:none;stroke:#A0926A;stroke-width:1.314;stroke-linecap:round;stroke-linejoin:round;stroke-miterlimit:22.926;}
	.st47{clip-path:url(#SVGID_4_);}
	.st48{clip-path:url(#SVGID_4_);fill:#B4A888;}
	.st49{clip-path:url(#SVGID_4_);fill:#F7F5F1;}
	.st50{clip-path:url(#SVGID_4_);fill:#ECE9E1;}
	.st51{clip-path:url(#SVGID_4_);fill:none;stroke:#FFFFFF;stroke-miterlimit:10;}
	
		.st52{clip-path:url(#SVGID_8_);fill:none;stroke:#A0926A;stroke-width:1.148;stroke-linecap:round;stroke-linejoin:round;stroke-miterlimit:10;}
	
		.st53{clip-path:url(#SVGID_4_);fill:none;stroke:#A0926A;stroke-width:1.148;stroke-linecap:round;stroke-linejoin:round;stroke-miterlimit:10;stroke-dasharray:0.047,2.088;}
	
		.st54{clip-path:url(#SVGID_4_);fill:none;stroke:#A0926A;stroke-width:1.148;stroke-linecap:round;stroke-linejoin:round;stroke-miterlimit:10;}
	.st55{clip-path:url(#SVGID_4_);fill:#282829;}
	.st56{clip-path:url(#SVGID_10_);fill:none;stroke:#A0926A;stroke-width:1.397;stroke-miterlimit:10;}
	.st57{clip-path:url(#SVGID_10_);fill:none;stroke:#A0926A;stroke-width:1.397;stroke-linejoin:round;stroke-miterlimit:10;}
	
		.st58{clip-path:url(#SVGID_12_);fill:none;stroke:#A0926A;stroke-width:1.252;stroke-linecap:round;stroke-linejoin:round;stroke-miterlimit:10;}
	.st59{clip-path:url(#SVGID_14_);fill:none;stroke:#A0926A;stroke-width:1.2112;stroke-linejoin:round;stroke-miterlimit:10;}
	.st60{clip-path:url(#SVGID_16_);fill:none;stroke:#FFFFFF;stroke-width:1.25;stroke-miterlimit:10;}
	.st61{clip-path:url(#SVGID_16_);fill:none;stroke:#000000;stroke-width:0.25;stroke-miterlimit:10;}
	.st62{clip-path:url(#SVGID_16_);fill:none;stroke:#FFFFFF;stroke-width:0.4;stroke-miterlimit:10;}
	.st63{clip-path:url(#SVGID_18_);fill:none;stroke:#FFFFFF;stroke-width:0.4;stroke-miterlimit:10;}
</style>
<g>
	<g>
		<polygon class="st4" points="82.15,0 42.83,0 0,0 -0.45,0 -0.45,280.01 0,280.01 42.83,280.01 82.15,280.01 107.62,140.01 		"/>
	</g>
	<g>
		<path class="st5" d="M16.24,100.59c0,0.52-0.19,0.93-0.56,1.23s-0.89,0.45-1.56,0.45c-0.61,0-1.15-0.12-1.63-0.34v-1.13
			c0.39,0.17,0.72,0.29,0.98,0.37c0.27,0.07,0.51,0.11,0.74,0.11c0.27,0,0.47-0.05,0.61-0.15c0.14-0.1,0.21-0.25,0.21-0.46
			c0-0.11-0.03-0.21-0.09-0.3c-0.06-0.09-0.15-0.17-0.28-0.25c-0.12-0.08-0.37-0.21-0.74-0.39c-0.35-0.17-0.61-0.32-0.79-0.48
			c-0.18-0.15-0.32-0.33-0.42-0.53c-0.1-0.2-0.16-0.44-0.16-0.71c0-0.51,0.17-0.91,0.52-1.2c0.34-0.29,0.82-0.44,1.43-0.44
			c0.3,0,0.58,0.04,0.85,0.11c0.27,0.07,0.55,0.17,0.85,0.3l-0.39,0.95c-0.31-0.13-0.56-0.21-0.76-0.26
			c-0.2-0.05-0.4-0.07-0.59-0.07c-0.23,0-0.41,0.05-0.53,0.16c-0.12,0.11-0.18,0.25-0.18,0.42c0,0.11,0.02,0.2,0.07,0.28
			c0.05,0.08,0.13,0.16,0.24,0.23c0.11,0.07,0.37,0.21,0.77,0.4c0.54,0.26,0.9,0.51,1.1,0.77C16.14,99.9,16.24,100.22,16.24,100.59z
			"/>
		<path class="st5" d="M20.38,102.19l-0.16-0.56h-0.06c-0.13,0.2-0.31,0.36-0.55,0.47c-0.24,0.11-0.5,0.17-0.81,0.17
			c-0.52,0-0.9-0.14-1.17-0.41s-0.39-0.67-0.39-1.19v-2.86h1.2v2.56c0,0.32,0.06,0.55,0.17,0.71c0.11,0.16,0.29,0.24,0.54,0.24
			c0.33,0,0.58-0.11,0.73-0.34c0.15-0.22,0.22-0.59,0.22-1.11v-2.07h1.2v4.39H20.38z"/>
		<path class="st5" d="M25.69,100.88c0,0.45-0.16,0.79-0.47,1.03c-0.31,0.24-0.78,0.35-1.4,0.35c-0.32,0-0.59-0.02-0.82-0.06
			s-0.44-0.11-0.63-0.19v-0.99c0.22,0.1,0.47,0.19,0.75,0.26c0.28,0.07,0.52,0.11,0.74,0.11c0.43,0,0.65-0.13,0.65-0.38
			c0-0.09-0.03-0.17-0.09-0.23c-0.06-0.06-0.16-0.13-0.3-0.2c-0.14-0.07-0.33-0.16-0.57-0.26c-0.34-0.14-0.59-0.27-0.74-0.39
			c-0.16-0.12-0.27-0.26-0.35-0.41c-0.07-0.16-0.11-0.35-0.11-0.58c0-0.39,0.15-0.69,0.45-0.9c0.3-0.21,0.73-0.32,1.29-0.32
			c0.53,0,1.04,0.12,1.54,0.35l-0.36,0.86c-0.22-0.09-0.43-0.17-0.62-0.23c-0.19-0.06-0.39-0.09-0.59-0.09
			c-0.35,0-0.53,0.1-0.53,0.29c0,0.11,0.06,0.2,0.17,0.28c0.11,0.08,0.36,0.19,0.75,0.35c0.34,0.14,0.59,0.27,0.75,0.39
			c0.16,0.12,0.28,0.26,0.35,0.42C25.65,100.48,25.69,100.66,25.69,100.88z"/>
		<path class="st5" d="M28.54,101.31c0.21,0,0.46-0.05,0.75-0.14v0.89c-0.3,0.13-0.67,0.2-1.1,0.2c-0.48,0-0.83-0.12-1.05-0.36
			c-0.22-0.24-0.33-0.6-0.33-1.09v-2.12h-0.57v-0.51l0.66-0.4l0.35-0.93h0.77v0.93h1.23v0.9h-1.23v2.12c0,0.17,0.05,0.3,0.14,0.38
			C28.26,101.27,28.39,101.31,28.54,101.31z"/>
		<path class="st5" d="M33.05,102.19l-0.23-0.6h-0.03c-0.2,0.25-0.41,0.43-0.62,0.53c-0.21,0.1-0.49,0.15-0.83,0.15
			c-0.42,0-0.75-0.12-1-0.36c-0.24-0.24-0.36-0.58-0.36-1.03c0-0.47,0.16-0.81,0.49-1.03c0.33-0.22,0.82-0.34,1.47-0.37l0.76-0.02
			v-0.19c0-0.45-0.23-0.67-0.68-0.67c-0.35,0-0.76,0.11-1.24,0.32l-0.4-0.81c0.51-0.26,1.07-0.4,1.68-0.4
			c0.59,0,1.04,0.13,1.35,0.38c0.31,0.26,0.47,0.65,0.47,1.17v2.93H33.05z M32.69,100.15l-0.46,0.02c-0.35,0.01-0.61,0.07-0.78,0.19
			c-0.17,0.12-0.26,0.29-0.26,0.53c0,0.34,0.19,0.51,0.58,0.51c0.28,0,0.5-0.08,0.67-0.24c0.17-0.16,0.25-0.37,0.25-0.64V100.15z"/>
		<path class="st5" d="M35.14,96.66c0-0.39,0.22-0.58,0.65-0.58s0.65,0.2,0.65,0.58c0,0.19-0.05,0.33-0.16,0.43
			c-0.11,0.1-0.27,0.15-0.49,0.15C35.36,97.25,35.14,97.05,35.14,96.66z M36.39,102.19h-1.2v-4.39h1.2V102.19z"/>
		<path class="st5" d="M41.77,102.19h-1.2v-2.56c0-0.32-0.06-0.55-0.17-0.71c-0.11-0.16-0.29-0.24-0.54-0.24
			c-0.33,0-0.58,0.11-0.73,0.34c-0.15,0.22-0.22,0.59-0.22,1.11v2.07h-1.2v-4.39h0.92l0.16,0.56h0.07c0.13-0.21,0.32-0.37,0.55-0.48
			s0.5-0.16,0.8-0.16c0.51,0,0.9,0.14,1.16,0.41c0.26,0.28,0.4,0.67,0.4,1.2V102.19z"/>
		<path class="st5" d="M45.07,102.26c-0.71,0-1.26-0.19-1.66-0.58c-0.4-0.39-0.6-0.94-0.6-1.66c0-0.74,0.18-1.3,0.55-1.71
			c0.37-0.4,0.88-0.6,1.53-0.6c0.62,0,1.1,0.18,1.45,0.53s0.52,0.84,0.52,1.46v0.58h-2.83c0.01,0.34,0.11,0.61,0.3,0.8
			s0.45,0.29,0.79,0.29c0.26,0,0.51-0.03,0.75-0.08c0.24-0.05,0.48-0.14,0.74-0.26v0.93c-0.21,0.1-0.43,0.18-0.67,0.23
			C45.7,102.24,45.41,102.26,45.07,102.26z M44.9,98.56c-0.25,0-0.45,0.08-0.6,0.24s-0.23,0.39-0.25,0.68h1.68
			c0-0.29-0.08-0.52-0.23-0.68S45.15,98.56,44.9,98.56z"/>
		<path class="st5" d="M49.3,102.26c-0.52,0-0.92-0.2-1.22-0.6c-0.29-0.4-0.44-0.96-0.44-1.67c0-0.72,0.15-1.28,0.45-1.68
			c0.3-0.4,0.71-0.6,1.24-0.6c0.55,0,0.97,0.21,1.26,0.64h0.04c-0.06-0.33-0.09-0.62-0.09-0.88v-1.41h1.2v6.11h-0.92l-0.23-0.57
			h-0.05C50.27,102.05,49.86,102.26,49.3,102.26z M49.72,101.31c0.31,0,0.53-0.09,0.67-0.27c0.14-0.18,0.22-0.48,0.23-0.91v-0.13
			c0-0.47-0.07-0.81-0.22-1.01c-0.15-0.2-0.38-0.31-0.71-0.31c-0.27,0-0.47,0.11-0.62,0.34s-0.22,0.56-0.22,0.99
			c0,0.43,0.07,0.76,0.22,0.97C49.23,101.2,49.44,101.31,49.72,101.31z"/>
		<path class="st5" d="M57.53,98.96h2.28v2.98c-0.37,0.12-0.72,0.2-1.04,0.25c-0.33,0.05-0.66,0.07-1,0.07
			c-0.87,0-1.53-0.25-1.99-0.76c-0.46-0.51-0.69-1.24-0.69-2.19c0-0.93,0.27-1.65,0.8-2.17c0.53-0.52,1.27-0.78,2.2-0.78
			c0.59,0,1.16,0.12,1.7,0.35l-0.4,0.97c-0.42-0.21-0.85-0.31-1.31-0.31c-0.53,0-0.95,0.18-1.26,0.53
			c-0.32,0.35-0.48,0.83-0.48,1.43c0,0.62,0.13,1.1,0.38,1.43c0.25,0.33,0.63,0.49,1.11,0.49c0.25,0,0.51-0.03,0.77-0.08v-1.2h-1.09
			V98.96z"/>
		<path class="st5" d="M63.6,97.71c0.16,0,0.3,0.01,0.4,0.04l-0.09,1.12c-0.1-0.03-0.21-0.04-0.35-0.04c-0.38,0-0.68,0.1-0.89,0.29
			c-0.21,0.2-0.32,0.47-0.32,0.83v2.23h-1.2v-4.39h0.91l0.18,0.74h0.06c0.14-0.25,0.32-0.44,0.55-0.59
			C63.07,97.79,63.33,97.71,63.6,97.71z"/>
		<path class="st5" d="M68.86,99.98c0,0.71-0.19,1.27-0.57,1.68s-0.9,0.6-1.57,0.6c-0.42,0-0.79-0.09-1.12-0.28
			c-0.32-0.18-0.57-0.45-0.74-0.79s-0.26-0.75-0.26-1.21c0-0.72,0.19-1.27,0.56-1.67c0.37-0.4,0.9-0.6,1.58-0.6
			c0.42,0,0.79,0.09,1.12,0.27c0.32,0.18,0.57,0.45,0.74,0.79C68.78,99.12,68.86,99.52,68.86,99.98z M65.83,99.98
			c0,0.43,0.07,0.76,0.21,0.99c0.14,0.22,0.38,0.33,0.7,0.33c0.32,0,0.55-0.11,0.69-0.33c0.14-0.22,0.21-0.55,0.21-0.99
			c0-0.43-0.07-0.76-0.21-0.98c-0.14-0.22-0.37-0.33-0.69-0.33c-0.32,0-0.55,0.11-0.69,0.32C65.9,99.22,65.83,99.54,65.83,99.98z"/>
		<path class="st5" d="M73.53,102.19l-0.34-1.54l-0.46-1.94h-0.03l-0.8,3.48h-1.29l-1.25-4.39h1.19l0.51,1.94
			c0.08,0.35,0.16,0.83,0.25,1.44h0.02c0.01-0.2,0.06-0.51,0.14-0.95l0.06-0.33l0.54-2.11h1.32l0.51,2.11
			c0.01,0.06,0.03,0.14,0.05,0.25c0.02,0.11,0.04,0.23,0.06,0.36s0.04,0.25,0.06,0.37s0.03,0.22,0.03,0.29h0.02
			c0.02-0.19,0.07-0.45,0.13-0.78c0.06-0.33,0.1-0.55,0.13-0.67l0.53-1.94h1.17l-1.26,4.39H73.53z"/>
		<path class="st5" d="M78.74,101.31c0.21,0,0.46-0.05,0.75-0.14v0.89c-0.3,0.13-0.67,0.2-1.1,0.2c-0.48,0-0.83-0.12-1.05-0.36
			c-0.22-0.24-0.33-0.6-0.33-1.09v-2.12h-0.57v-0.51l0.66-0.4l0.35-0.93h0.77v0.93h1.23v0.9h-1.23v2.12c0,0.17,0.05,0.3,0.14,0.38
			C78.45,101.27,78.58,101.31,78.74,101.31z"/>
		<path class="st5" d="M84.5,102.19h-1.2v-2.56c0-0.63-0.24-0.95-0.71-0.95c-0.33,0-0.58,0.11-0.73,0.34
			c-0.15,0.23-0.22,0.6-0.22,1.11v2.07h-1.2v-6.11h1.2v1.25c0,0.1-0.01,0.32-0.03,0.68l-0.03,0.35h0.06
			c0.27-0.43,0.69-0.64,1.27-0.64c0.52,0,0.91,0.14,1.17,0.42s0.4,0.68,0.4,1.19V102.19z"/>
	</g>
	<g>
		<path class="st5" d="M16.24,122.04c0,0.52-0.19,0.93-0.56,1.23s-0.89,0.45-1.56,0.45c-0.61,0-1.15-0.12-1.63-0.34v-1.13
			c0.39,0.17,0.72,0.29,0.98,0.37c0.27,0.07,0.51,0.11,0.74,0.11c0.27,0,0.47-0.05,0.61-0.15c0.14-0.1,0.21-0.25,0.21-0.46
			c0-0.11-0.03-0.21-0.09-0.3c-0.06-0.09-0.15-0.17-0.28-0.25c-0.12-0.08-0.37-0.21-0.74-0.39c-0.35-0.17-0.61-0.32-0.79-0.48
			c-0.18-0.15-0.32-0.33-0.42-0.53c-0.1-0.2-0.16-0.44-0.16-0.71c0-0.51,0.17-0.91,0.52-1.2c0.34-0.29,0.82-0.44,1.43-0.44
			c0.3,0,0.58,0.04,0.85,0.11c0.27,0.07,0.55,0.17,0.85,0.3l-0.39,0.95c-0.31-0.13-0.56-0.21-0.76-0.26
			c-0.2-0.05-0.4-0.07-0.59-0.07c-0.23,0-0.41,0.05-0.53,0.16c-0.12,0.11-0.18,0.25-0.18,0.42c0,0.11,0.02,0.2,0.07,0.28
			c0.05,0.08,0.13,0.16,0.24,0.23c0.11,0.07,0.37,0.21,0.77,0.4c0.54,0.26,0.9,0.51,1.1,0.77
			C16.14,121.35,16.24,121.67,16.24,122.04z"/>
		<path class="st5" d="M21.32,123.63h-1.2v-2.56c0-0.63-0.24-0.95-0.71-0.95c-0.33,0-0.58,0.11-0.73,0.34
			c-0.15,0.23-0.22,0.6-0.22,1.11v2.07h-1.2v-6.11h1.2v1.25c0,0.1-0.01,0.32-0.03,0.68l-0.03,0.35h0.06
			c0.27-0.43,0.69-0.64,1.27-0.64c0.52,0,0.91,0.14,1.17,0.42s0.4,0.68,0.4,1.19V123.63z"/>
		<path class="st5" d="M25.41,123.63l-0.23-0.6h-0.03c-0.2,0.25-0.41,0.43-0.62,0.53c-0.21,0.1-0.49,0.15-0.83,0.15
			c-0.42,0-0.75-0.12-1-0.36c-0.24-0.24-0.36-0.58-0.36-1.03c0-0.47,0.16-0.81,0.49-1.03c0.33-0.22,0.82-0.34,1.47-0.37l0.76-0.02
			v-0.19c0-0.45-0.23-0.67-0.68-0.67c-0.35,0-0.76,0.11-1.24,0.32l-0.4-0.81c0.51-0.26,1.07-0.4,1.68-0.4
			c0.59,0,1.04,0.13,1.35,0.38c0.31,0.26,0.47,0.65,0.47,1.17v2.93H25.41z M25.06,121.6l-0.46,0.02c-0.35,0.01-0.61,0.07-0.78,0.19
			c-0.17,0.12-0.26,0.29-0.26,0.53c0,0.34,0.19,0.51,0.58,0.51c0.28,0,0.5-0.08,0.67-0.24c0.17-0.16,0.25-0.37,0.25-0.64V121.6z"/>
		<path class="st5" d="M30.01,119.16c0.16,0,0.3,0.01,0.4,0.04l-0.09,1.12c-0.1-0.03-0.21-0.04-0.35-0.04
			c-0.38,0-0.68,0.1-0.89,0.29c-0.21,0.2-0.32,0.47-0.32,0.83v2.23h-1.2v-4.39h0.91l0.18,0.74h0.06c0.14-0.25,0.32-0.44,0.55-0.59
			C29.49,119.24,29.74,119.16,30.01,119.16z"/>
		<path class="st5" d="M33.27,123.71c-0.71,0-1.26-0.19-1.66-0.58c-0.4-0.39-0.6-0.94-0.6-1.66c0-0.74,0.18-1.3,0.55-1.71
			c0.37-0.4,0.88-0.6,1.53-0.6c0.62,0,1.1,0.18,1.45,0.53s0.52,0.84,0.52,1.46v0.58h-2.83c0.01,0.34,0.11,0.61,0.3,0.8
			s0.45,0.29,0.79,0.29c0.26,0,0.51-0.03,0.75-0.08c0.24-0.05,0.48-0.14,0.74-0.26v0.93c-0.21,0.1-0.43,0.18-0.67,0.23
			C33.91,123.69,33.62,123.71,33.27,123.71z M33.1,120.01c-0.25,0-0.45,0.08-0.6,0.24s-0.23,0.39-0.25,0.68h1.68
			c0-0.29-0.08-0.52-0.23-0.68S33.36,120.01,33.1,120.01z"/>
		<path class="st5" d="M37.51,123.71c-0.52,0-0.92-0.2-1.22-0.6c-0.29-0.4-0.44-0.96-0.44-1.67c0-0.72,0.15-1.28,0.45-1.68
			c0.3-0.4,0.71-0.6,1.24-0.6c0.55,0,0.97,0.21,1.26,0.64h0.04c-0.06-0.33-0.09-0.62-0.09-0.88v-1.41h1.2v6.11h-0.92l-0.23-0.57
			h-0.05C38.48,123.5,38.07,123.71,37.51,123.71z M37.93,122.76c0.31,0,0.53-0.09,0.67-0.27c0.14-0.18,0.22-0.48,0.23-0.91v-0.13
			c0-0.47-0.07-0.81-0.22-1.01c-0.15-0.2-0.38-0.31-0.71-0.31c-0.27,0-0.47,0.11-0.62,0.34s-0.22,0.56-0.22,0.99
			c0,0.43,0.07,0.76,0.22,0.97C37.44,122.65,37.65,122.76,37.93,122.76z"/>
		<path class="st5" d="M46.83,117.89h1.23l-1.95,5.74h-1.33l-1.95-5.74h1.23l1.08,3.42c0.06,0.2,0.12,0.44,0.19,0.71
			s0.1,0.46,0.12,0.56c0.03-0.24,0.13-0.66,0.29-1.26L46.83,117.89z"/>
		<path class="st5" d="M51.55,123.63l-0.23-0.6h-0.03c-0.2,0.25-0.41,0.43-0.62,0.53c-0.21,0.1-0.49,0.15-0.83,0.15
			c-0.42,0-0.75-0.12-1-0.36c-0.24-0.24-0.36-0.58-0.36-1.03c0-0.47,0.16-0.81,0.49-1.03c0.33-0.22,0.82-0.34,1.47-0.37l0.76-0.02
			v-0.19c0-0.45-0.23-0.67-0.68-0.67c-0.35,0-0.76,0.11-1.24,0.32l-0.4-0.81c0.51-0.26,1.07-0.4,1.68-0.4
			c0.59,0,1.04,0.13,1.35,0.38c0.31,0.26,0.47,0.65,0.47,1.17v2.93H51.55z M51.2,121.6l-0.46,0.02c-0.35,0.01-0.61,0.07-0.78,0.19
			c-0.17,0.12-0.26,0.29-0.26,0.53c0,0.34,0.19,0.51,0.58,0.51c0.28,0,0.5-0.08,0.67-0.24c0.17-0.16,0.25-0.37,0.25-0.64V121.6z"/>
		<path class="st5" d="M54.89,123.63h-1.2v-6.11h1.2V123.63z"/>
		<path class="st5" d="M59.33,123.63l-0.16-0.56h-0.06c-0.13,0.2-0.31,0.36-0.55,0.47c-0.24,0.11-0.5,0.17-0.81,0.17
			c-0.52,0-0.9-0.14-1.17-0.41s-0.39-0.67-0.39-1.19v-2.86h1.2v2.56c0,0.32,0.06,0.55,0.17,0.71c0.11,0.16,0.29,0.24,0.54,0.24
			c0.33,0,0.58-0.11,0.73-0.34c0.15-0.22,0.22-0.59,0.22-1.11v-2.07h1.2v4.39H59.33z"/>
		<path class="st5" d="M63.57,123.71c-0.71,0-1.26-0.19-1.66-0.58c-0.4-0.39-0.6-0.94-0.6-1.66c0-0.74,0.18-1.3,0.55-1.71
			c0.37-0.4,0.88-0.6,1.53-0.6c0.62,0,1.1,0.18,1.45,0.53s0.52,0.84,0.52,1.46v0.58h-2.83c0.01,0.34,0.11,0.61,0.3,0.8
			s0.45,0.29,0.79,0.29c0.26,0,0.51-0.03,0.75-0.08c0.24-0.05,0.48-0.14,0.74-0.26v0.93c-0.21,0.1-0.43,0.18-0.67,0.23
			C64.2,123.69,63.91,123.71,63.57,123.71z M63.4,120.01c-0.25,0-0.45,0.08-0.6,0.24s-0.23,0.39-0.25,0.68h1.68
			c0-0.29-0.08-0.52-0.23-0.68S63.65,120.01,63.4,120.01z"/>
	</g>
	<g>
		<path class="st5" d="M15.03,131.13h2.28v2.98c-0.37,0.12-0.72,0.2-1.04,0.25c-0.33,0.05-0.66,0.07-1,0.07
			c-0.87,0-1.53-0.25-1.99-0.76c-0.46-0.51-0.69-1.24-0.69-2.19c0-0.93,0.27-1.65,0.8-2.17c0.53-0.52,1.27-0.78,2.2-0.78
			c0.59,0,1.16,0.12,1.7,0.35l-0.4,0.97c-0.42-0.21-0.85-0.31-1.31-0.31c-0.53,0-0.95,0.18-1.26,0.53
			c-0.32,0.35-0.48,0.83-0.48,1.43c0,0.62,0.13,1.1,0.38,1.43c0.25,0.33,0.63,0.49,1.11,0.49c0.25,0,0.51-0.03,0.77-0.08v-1.2h-1.09
			V131.13z"/>
		<path class="st5" d="M20.64,134.43c-0.71,0-1.26-0.19-1.66-0.58c-0.4-0.39-0.6-0.94-0.6-1.66c0-0.74,0.18-1.3,0.55-1.71
			c0.37-0.4,0.88-0.6,1.53-0.6c0.62,0,1.1,0.18,1.45,0.53s0.52,0.84,0.52,1.46v0.58H19.6c0.01,0.34,0.11,0.61,0.3,0.8
			s0.45,0.29,0.79,0.29c0.26,0,0.51-0.03,0.75-0.08c0.24-0.05,0.48-0.14,0.74-0.26v0.93c-0.21,0.1-0.43,0.18-0.67,0.23
			C21.27,134.41,20.98,134.43,20.64,134.43z M20.47,130.73c-0.25,0-0.45,0.08-0.6,0.24s-0.23,0.39-0.25,0.68h1.68
			c0-0.29-0.08-0.52-0.23-0.68S20.72,130.73,20.47,130.73z"/>
		<path class="st5" d="M27.54,134.36h-1.2v-2.56c0-0.32-0.06-0.55-0.17-0.71c-0.11-0.16-0.29-0.24-0.54-0.24
			c-0.33,0-0.58,0.11-0.73,0.34c-0.15,0.22-0.22,0.59-0.22,1.11v2.07h-1.2v-4.39h0.92l0.16,0.56h0.07c0.13-0.21,0.32-0.37,0.55-0.48
			s0.5-0.16,0.8-0.16c0.51,0,0.9,0.14,1.16,0.41c0.26,0.28,0.4,0.67,0.4,1.2V134.36z"/>
		<path class="st5" d="M30.83,134.43c-0.71,0-1.26-0.19-1.66-0.58c-0.4-0.39-0.6-0.94-0.6-1.66c0-0.74,0.18-1.3,0.55-1.71
			c0.37-0.4,0.88-0.6,1.53-0.6c0.62,0,1.1,0.18,1.45,0.53s0.52,0.84,0.52,1.46v0.58h-2.83c0.01,0.34,0.11,0.61,0.3,0.8
			s0.45,0.29,0.79,0.29c0.26,0,0.51-0.03,0.75-0.08c0.24-0.05,0.48-0.14,0.74-0.26v0.93c-0.21,0.1-0.43,0.18-0.67,0.23
			C31.46,134.41,31.17,134.43,30.83,134.43z M30.66,130.73c-0.25,0-0.45,0.08-0.6,0.24s-0.23,0.39-0.25,0.68h1.68
			c0-0.29-0.08-0.52-0.23-0.68S30.91,130.73,30.66,130.73z"/>
		<path class="st5" d="M36.12,129.88c0.16,0,0.3,0.01,0.4,0.04l-0.09,1.12c-0.1-0.03-0.21-0.04-0.35-0.04
			c-0.38,0-0.68,0.1-0.89,0.29c-0.21,0.2-0.32,0.47-0.32,0.83v2.23h-1.2v-4.39h0.91l0.18,0.74h0.06c0.14-0.25,0.32-0.44,0.55-0.59
			C35.6,129.96,35.85,129.88,36.12,129.88z"/>
		<path class="st5" d="M40.19,134.36l-0.23-0.6h-0.03c-0.2,0.25-0.41,0.43-0.62,0.53c-0.21,0.1-0.49,0.15-0.83,0.15
			c-0.42,0-0.75-0.12-1-0.36c-0.24-0.24-0.36-0.58-0.36-1.03c0-0.47,0.16-0.81,0.49-1.03c0.33-0.22,0.82-0.34,1.47-0.37l0.76-0.02
			v-0.19c0-0.45-0.23-0.67-0.68-0.67c-0.35,0-0.76,0.11-1.24,0.32l-0.4-0.81c0.51-0.26,1.07-0.4,1.68-0.4
			c0.59,0,1.04,0.13,1.35,0.38c0.31,0.26,0.47,0.65,0.47,1.17v2.93H40.19z M39.83,132.32l-0.46,0.02c-0.35,0.01-0.61,0.07-0.78,0.19
			c-0.17,0.12-0.26,0.29-0.26,0.53c0,0.34,0.19,0.51,0.58,0.51c0.28,0,0.5-0.08,0.67-0.24c0.17-0.16,0.25-0.37,0.25-0.64V132.32z"/>
		<path class="st5" d="M44.19,133.48c0.21,0,0.46-0.05,0.75-0.14v0.89c-0.3,0.13-0.67,0.2-1.1,0.2c-0.48,0-0.83-0.12-1.05-0.36
			c-0.22-0.24-0.33-0.6-0.33-1.09v-2.12h-0.57v-0.51l0.66-0.4l0.35-0.93h0.77v0.93h1.23v0.9h-1.23v2.12c0,0.17,0.05,0.3,0.14,0.38
			C43.9,133.44,44.03,133.48,44.19,133.48z"/>
		<path class="st5" d="M45.85,128.83c0-0.39,0.22-0.58,0.65-0.58s0.65,0.2,0.65,0.58c0,0.19-0.05,0.33-0.16,0.43
			c-0.11,0.1-0.27,0.15-0.49,0.15C46.07,129.42,45.85,129.22,45.85,128.83z M47.1,134.36h-1.2v-4.39h1.2V134.36z"/>
		<path class="st5" d="M52.42,132.15c0,0.71-0.19,1.27-0.57,1.68s-0.9,0.6-1.57,0.6c-0.42,0-0.79-0.09-1.12-0.28
			c-0.32-0.18-0.57-0.45-0.74-0.79s-0.26-0.75-0.26-1.21c0-0.72,0.19-1.27,0.56-1.67c0.37-0.4,0.9-0.6,1.58-0.6
			c0.42,0,0.79,0.09,1.12,0.27c0.32,0.18,0.57,0.45,0.74,0.79C52.33,131.29,52.42,131.69,52.42,132.15z M49.38,132.15
			c0,0.43,0.07,0.76,0.21,0.99c0.14,0.22,0.38,0.33,0.7,0.33c0.32,0,0.55-0.11,0.69-0.33c0.14-0.22,0.21-0.55,0.21-0.99
			c0-0.43-0.07-0.76-0.21-0.98c-0.14-0.22-0.37-0.33-0.69-0.33c-0.32,0-0.55,0.11-0.69,0.32C49.45,131.39,49.38,131.71,49.38,132.15
			z"/>
		<path class="st5" d="M57.53,134.36h-1.2v-2.56c0-0.32-0.06-0.55-0.17-0.71c-0.11-0.16-0.29-0.24-0.54-0.24
			c-0.33,0-0.58,0.11-0.73,0.34c-0.15,0.22-0.22,0.59-0.22,1.11v2.07h-1.2v-4.39h0.92l0.16,0.56h0.07c0.13-0.21,0.32-0.37,0.55-0.48
			s0.5-0.16,0.8-0.16c0.51,0,0.9,0.14,1.16,0.41c0.26,0.28,0.4,0.67,0.4,1.2V134.36z"/>
	</g>
	<g>
		<path class="st5" d="M16.82,151.85c0,0.62-0.19,1.09-0.58,1.42s-0.94,0.49-1.65,0.49h-0.52v2.04h-1.22v-5.74h1.83
			c0.7,0,1.23,0.15,1.59,0.45C16.63,150.81,16.82,151.26,16.82,151.85z M14.07,152.77h0.4c0.37,0,0.65-0.07,0.84-0.22
			c0.19-0.15,0.28-0.36,0.28-0.65c0-0.29-0.08-0.5-0.23-0.63c-0.16-0.14-0.4-0.2-0.73-0.2h-0.55V152.77z"/>
		<path class="st5" d="M21.88,153.6c0,0.71-0.19,1.27-0.57,1.68s-0.9,0.6-1.57,0.6c-0.42,0-0.79-0.09-1.12-0.28
			c-0.32-0.18-0.57-0.45-0.74-0.79s-0.26-0.75-0.26-1.21c0-0.72,0.19-1.27,0.56-1.67c0.37-0.4,0.9-0.6,1.58-0.6
			c0.42,0,0.79,0.09,1.12,0.27c0.32,0.18,0.57,0.45,0.74,0.79C21.79,152.74,21.88,153.14,21.88,153.6z M18.84,153.6
			c0,0.43,0.07,0.76,0.21,0.99c0.14,0.22,0.38,0.33,0.7,0.33c0.32,0,0.55-0.11,0.69-0.33c0.14-0.22,0.21-0.55,0.21-0.99
			c0-0.43-0.07-0.76-0.21-0.98c-0.14-0.22-0.37-0.33-0.69-0.33c-0.32,0-0.55,0.11-0.69,0.32C18.91,152.84,18.84,153.16,18.84,153.6z
			"/>
		<path class="st5" d="M26,154.5c0,0.45-0.16,0.79-0.47,1.03c-0.31,0.24-0.78,0.35-1.4,0.35c-0.32,0-0.59-0.02-0.82-0.06
			s-0.44-0.11-0.63-0.19v-0.99c0.22,0.1,0.47,0.19,0.75,0.26c0.28,0.07,0.52,0.11,0.74,0.11c0.43,0,0.65-0.13,0.65-0.38
			c0-0.09-0.03-0.17-0.09-0.23c-0.06-0.06-0.16-0.13-0.3-0.2c-0.14-0.07-0.33-0.16-0.57-0.26c-0.34-0.14-0.59-0.27-0.74-0.39
			c-0.16-0.12-0.27-0.26-0.35-0.41c-0.07-0.16-0.11-0.35-0.11-0.58c0-0.39,0.15-0.69,0.45-0.9c0.3-0.21,0.73-0.32,1.29-0.32
			c0.53,0,1.04,0.12,1.54,0.35l-0.36,0.86c-0.22-0.09-0.43-0.17-0.62-0.23c-0.19-0.06-0.39-0.09-0.59-0.09
			c-0.35,0-0.53,0.1-0.53,0.29c0,0.11,0.06,0.2,0.17,0.28c0.11,0.08,0.36,0.19,0.75,0.35c0.34,0.14,0.59,0.27,0.75,0.39
			c0.16,0.12,0.28,0.26,0.35,0.42C25.96,154.1,26,154.28,26,154.5z"/>
		<path class="st5" d="M26.96,150.28c0-0.39,0.22-0.58,0.65-0.58s0.65,0.2,0.65,0.58c0,0.19-0.05,0.33-0.16,0.43
			c-0.11,0.1-0.27,0.15-0.49,0.15C27.17,150.87,26.96,150.67,26.96,150.28z M28.21,155.8h-1.2v-4.39h1.2V155.8z"/>
		<path class="st5" d="M31.38,154.93c0.21,0,0.46-0.05,0.75-0.14v0.89c-0.3,0.13-0.67,0.2-1.1,0.2c-0.48,0-0.83-0.12-1.05-0.36
			c-0.22-0.24-0.33-0.6-0.33-1.09v-2.12h-0.57v-0.51l0.66-0.4l0.35-0.93h0.77v0.93h1.23v0.9h-1.23v2.12c0,0.17,0.05,0.3,0.14,0.38
			C31.1,154.89,31.23,154.93,31.38,154.93z"/>
		<path class="st5" d="M33.05,150.28c0-0.39,0.22-0.58,0.65-0.58s0.65,0.2,0.65,0.58c0,0.19-0.05,0.33-0.16,0.43
			c-0.11,0.1-0.27,0.15-0.49,0.15C33.26,150.87,33.05,150.67,33.05,150.28z M34.3,155.8h-1.2v-4.39h1.2V155.8z"/>
		<path class="st5" d="M36.67,155.8L35,151.41h1.25l0.85,2.5c0.09,0.32,0.15,0.62,0.18,0.9h0.02c0.01-0.25,0.07-0.55,0.18-0.9
			l0.84-2.5h1.25l-1.67,4.39H36.67z"/>
		<path class="st5" d="M42.27,155.88c-0.71,0-1.26-0.19-1.66-0.58c-0.4-0.39-0.6-0.94-0.6-1.66c0-0.74,0.18-1.3,0.55-1.71
			c0.37-0.4,0.88-0.6,1.53-0.6c0.62,0,1.1,0.18,1.45,0.53s0.52,0.84,0.52,1.46v0.58h-2.83c0.01,0.34,0.11,0.61,0.3,0.8
			s0.45,0.29,0.79,0.29c0.26,0,0.51-0.03,0.75-0.08c0.24-0.05,0.48-0.14,0.74-0.26v0.93c-0.21,0.1-0.43,0.18-0.67,0.23
			C42.9,155.86,42.61,155.88,42.27,155.88z M42.1,152.18c-0.25,0-0.45,0.08-0.6,0.24s-0.23,0.39-0.25,0.68h1.68
			c0-0.29-0.08-0.52-0.23-0.68S42.35,152.18,42.1,152.18z"/>
		<path class="st5" d="M47.38,155.8v-5.74h1.22v5.74H47.38z"/>
		<path class="st5" d="M53.95,155.8h-1.2v-2.56c0-0.32-0.05-0.55-0.16-0.71c-0.11-0.16-0.27-0.24-0.5-0.24
			c-0.31,0-0.53,0.11-0.67,0.34c-0.14,0.22-0.21,0.6-0.21,1.11v2.07h-1.2v-4.39h0.92l0.16,0.56h0.07c0.12-0.2,0.29-0.36,0.51-0.47
			c0.22-0.11,0.48-0.17,0.77-0.17c0.66,0,1.1,0.21,1.33,0.64h0.11c0.12-0.2,0.29-0.36,0.52-0.47s0.49-0.17,0.78-0.17
			c0.5,0,0.87,0.13,1.13,0.38c0.25,0.25,0.38,0.66,0.38,1.23v2.86h-1.2v-2.56c0-0.32-0.05-0.55-0.16-0.71
			c-0.11-0.16-0.27-0.24-0.5-0.24c-0.29,0-0.51,0.1-0.66,0.31c-0.15,0.21-0.22,0.54-0.22,1V155.8z"/>
		<path class="st5" d="M60.41,155.88c-0.52,0-0.92-0.19-1.21-0.56h-0.06c0.04,0.37,0.06,0.58,0.06,0.64v1.78h-1.2v-6.32h0.97
			l0.17,0.57h0.06c0.28-0.43,0.69-0.65,1.24-0.65c0.52,0,0.92,0.2,1.22,0.6c0.29,0.4,0.44,0.96,0.44,1.67
			c0,0.47-0.07,0.88-0.21,1.22c-0.14,0.35-0.33,0.61-0.59,0.79S60.75,155.88,60.41,155.88z M60.05,152.29
			c-0.3,0-0.51,0.09-0.65,0.27c-0.14,0.18-0.21,0.48-0.21,0.9v0.13c0,0.47,0.07,0.81,0.21,1.01c0.14,0.2,0.36,0.31,0.67,0.31
			c0.54,0,0.81-0.44,0.81-1.33c0-0.43-0.07-0.76-0.2-0.97C60.54,152.4,60.33,152.29,60.05,152.29z"/>
		<path class="st5" d="M65.95,155.8l-0.23-0.6h-0.03c-0.2,0.25-0.41,0.43-0.62,0.53c-0.21,0.1-0.49,0.15-0.83,0.15
			c-0.42,0-0.75-0.12-1-0.36c-0.24-0.24-0.36-0.58-0.36-1.03c0-0.47,0.16-0.81,0.49-1.03c0.33-0.22,0.82-0.34,1.47-0.37l0.76-0.02
			v-0.19c0-0.45-0.23-0.67-0.68-0.67c-0.35,0-0.76,0.11-1.24,0.32l-0.4-0.81c0.51-0.26,1.07-0.4,1.68-0.4
			c0.59,0,1.04,0.13,1.35,0.38c0.31,0.26,0.47,0.65,0.47,1.17v2.93H65.95z M65.6,153.77l-0.46,0.02c-0.35,0.01-0.61,0.07-0.78,0.19
			c-0.17,0.12-0.26,0.29-0.26,0.53c0,0.34,0.19,0.51,0.58,0.51c0.28,0,0.5-0.08,0.67-0.24c0.17-0.16,0.25-0.37,0.25-0.64V153.77z"/>
		<path class="st5" d="M69.88,155.88c-1.37,0-2.05-0.75-2.05-2.25c0-0.75,0.19-1.32,0.56-1.71c0.37-0.39,0.9-0.59,1.6-0.59
			c0.51,0,0.96,0.1,1.37,0.3L71,152.56c-0.19-0.08-0.36-0.14-0.53-0.19c-0.16-0.05-0.32-0.07-0.49-0.07c-0.62,0-0.93,0.44-0.93,1.33
			c0,0.86,0.31,1.29,0.93,1.29c0.23,0,0.44-0.03,0.64-0.09s0.39-0.16,0.59-0.29v1.03c-0.19,0.12-0.39,0.21-0.59,0.25
			S70.19,155.88,69.88,155.88z"/>
		<path class="st5" d="M74.16,154.93c0.21,0,0.46-0.05,0.75-0.14v0.89c-0.3,0.13-0.67,0.2-1.1,0.2c-0.48,0-0.83-0.12-1.05-0.36
			c-0.22-0.24-0.33-0.6-0.33-1.09v-2.12h-0.57v-0.51l0.66-0.4l0.35-0.93h0.77v0.93h1.23v0.9h-1.23v2.12c0,0.17,0.05,0.3,0.14,0.38
			C73.88,154.89,74,154.93,74.16,154.93z"/>
	</g>
	<g>
		<path class="st5" d="M16.75,164.32c0,0.71-0.19,1.27-0.57,1.68s-0.9,0.6-1.57,0.6c-0.42,0-0.79-0.09-1.12-0.28
			c-0.32-0.18-0.57-0.45-0.74-0.79s-0.26-0.75-0.26-1.21c0-0.72,0.19-1.27,0.56-1.67c0.37-0.4,0.9-0.6,1.58-0.6
			c0.42,0,0.79,0.09,1.12,0.27c0.32,0.18,0.57,0.45,0.74,0.79C16.66,163.46,16.75,163.86,16.75,164.32z M13.71,164.32
			c0,0.43,0.07,0.76,0.21,0.99c0.14,0.22,0.38,0.33,0.7,0.33c0.32,0,0.55-0.11,0.69-0.33c0.14-0.22,0.21-0.55,0.21-0.99
			c0-0.43-0.07-0.76-0.21-0.98c-0.14-0.22-0.37-0.33-0.69-0.33c-0.32,0-0.55,0.11-0.69,0.32C13.78,163.56,13.71,163.88,13.71,164.32
			z"/>
		<path class="st5" d="M21.86,166.52h-1.2v-2.56c0-0.32-0.06-0.55-0.17-0.71c-0.11-0.16-0.29-0.24-0.54-0.24
			c-0.33,0-0.58,0.11-0.73,0.34c-0.15,0.22-0.22,0.59-0.22,1.11v2.07h-1.2v-4.39h0.92l0.16,0.56h0.07c0.13-0.21,0.32-0.37,0.55-0.48
			s0.5-0.16,0.8-0.16c0.51,0,0.9,0.14,1.16,0.41c0.26,0.28,0.4,0.67,0.4,1.2V166.52z"/>
		<path class="st5" d="M28.82,164.93c0,0.52-0.19,0.93-0.56,1.23s-0.89,0.45-1.56,0.45c-0.61,0-1.15-0.12-1.63-0.34v-1.13
			c0.39,0.17,0.72,0.29,0.98,0.37c0.27,0.07,0.51,0.11,0.74,0.11c0.27,0,0.47-0.05,0.61-0.15c0.14-0.1,0.21-0.25,0.21-0.46
			c0-0.11-0.03-0.21-0.09-0.3c-0.06-0.09-0.15-0.17-0.28-0.25c-0.12-0.08-0.37-0.21-0.74-0.39c-0.35-0.17-0.61-0.32-0.79-0.48
			c-0.18-0.15-0.32-0.33-0.42-0.53c-0.1-0.2-0.16-0.44-0.16-0.71c0-0.51,0.17-0.91,0.52-1.2c0.34-0.29,0.82-0.44,1.43-0.44
			c0.3,0,0.58,0.04,0.85,0.11c0.27,0.07,0.55,0.17,0.85,0.3l-0.39,0.95c-0.31-0.13-0.56-0.21-0.76-0.26
			c-0.2-0.05-0.4-0.07-0.59-0.07c-0.23,0-0.41,0.05-0.53,0.16c-0.12,0.11-0.18,0.25-0.18,0.42c0,0.11,0.02,0.2,0.07,0.28
			c0.05,0.08,0.13,0.16,0.24,0.23c0.11,0.07,0.37,0.21,0.77,0.4c0.54,0.26,0.9,0.51,1.1,0.77
			C28.72,164.24,28.82,164.56,28.82,164.93z"/>
		<path class="st5" d="M33.84,164.32c0,0.71-0.19,1.27-0.57,1.68s-0.9,0.6-1.57,0.6c-0.42,0-0.79-0.09-1.12-0.28
			c-0.32-0.18-0.57-0.45-0.74-0.79s-0.26-0.75-0.26-1.21c0-0.72,0.19-1.27,0.56-1.67c0.37-0.4,0.9-0.6,1.58-0.6
			c0.42,0,0.79,0.09,1.12,0.27c0.32,0.18,0.57,0.45,0.74,0.79C33.75,163.46,33.84,163.86,33.84,164.32z M30.8,164.32
			c0,0.43,0.07,0.76,0.21,0.99c0.14,0.22,0.38,0.33,0.7,0.33c0.32,0,0.55-0.11,0.69-0.33c0.14-0.22,0.21-0.55,0.21-0.99
			c0-0.43-0.07-0.76-0.21-0.98c-0.14-0.22-0.37-0.33-0.69-0.33c-0.32,0-0.55,0.11-0.69,0.32C30.87,163.56,30.8,163.88,30.8,164.32z"
			/>
		<path class="st5" d="M36.68,166.6c-1.37,0-2.05-0.75-2.05-2.25c0-0.75,0.19-1.32,0.56-1.71c0.37-0.39,0.9-0.59,1.6-0.59
			c0.51,0,0.96,0.1,1.37,0.3l-0.35,0.93c-0.19-0.08-0.36-0.14-0.53-0.19c-0.16-0.05-0.32-0.07-0.49-0.07
			c-0.62,0-0.93,0.44-0.93,1.33c0,0.86,0.31,1.29,0.93,1.29c0.23,0,0.44-0.03,0.64-0.09s0.39-0.16,0.59-0.29v1.03
			c-0.19,0.12-0.39,0.21-0.59,0.25S36.98,166.6,36.68,166.6z"/>
		<path class="st5" d="M39.05,161c0-0.39,0.22-0.58,0.65-0.58s0.65,0.2,0.65,0.58c0,0.19-0.05,0.33-0.16,0.43
			c-0.11,0.1-0.27,0.15-0.49,0.15C39.27,161.59,39.05,161.39,39.05,161z M40.3,166.52h-1.2v-4.39h1.2V166.52z"/>
		<path class="st5" d="M43.62,166.6c-0.71,0-1.26-0.19-1.66-0.58c-0.4-0.39-0.6-0.94-0.6-1.66c0-0.74,0.18-1.3,0.55-1.71
			c0.37-0.4,0.88-0.6,1.53-0.6c0.62,0,1.1,0.18,1.45,0.53s0.52,0.84,0.52,1.46v0.58h-2.83c0.01,0.34,0.11,0.61,0.3,0.8
			s0.45,0.29,0.79,0.29c0.26,0,0.51-0.03,0.75-0.08c0.24-0.05,0.48-0.14,0.74-0.26v0.93c-0.21,0.1-0.43,0.18-0.67,0.23
			C44.25,166.58,43.96,166.6,43.62,166.6z M43.45,162.9c-0.25,0-0.45,0.08-0.6,0.24s-0.23,0.39-0.25,0.68h1.68
			c0-0.29-0.08-0.52-0.23-0.68S43.7,162.9,43.45,162.9z"/>
		<path class="st5" d="M48.31,165.65c0.21,0,0.46-0.05,0.75-0.14v0.89c-0.3,0.13-0.67,0.2-1.1,0.2c-0.48,0-0.83-0.12-1.05-0.36
			c-0.22-0.24-0.33-0.6-0.33-1.09v-2.12h-0.57v-0.51l0.66-0.4l0.35-0.93h0.77v0.93h1.23v0.9h-1.23v2.12c0,0.17,0.05,0.3,0.14,0.38
			C48.03,165.61,48.16,165.65,48.31,165.65z"/>
		<path class="st5" d="M49.4,162.13h1.31l0.83,2.47c0.07,0.21,0.12,0.47,0.15,0.76h0.02c0.03-0.27,0.08-0.52,0.17-0.76l0.81-2.47
			h1.28l-1.86,4.95c-0.17,0.46-0.41,0.8-0.73,1.03c-0.32,0.23-0.68,0.34-1.1,0.34c-0.21,0-0.41-0.02-0.61-0.07v-0.95
			c0.14,0.03,0.3,0.05,0.47,0.05c0.21,0,0.4-0.06,0.56-0.19s0.28-0.33,0.37-0.59l0.07-0.22L49.4,162.13z"/>
		<path class="st5" d="M59.64,166.52l-0.23-0.6h-0.03c-0.2,0.25-0.41,0.43-0.62,0.53c-0.21,0.1-0.49,0.15-0.83,0.15
			c-0.42,0-0.75-0.12-1-0.36c-0.24-0.24-0.36-0.58-0.36-1.03c0-0.47,0.16-0.81,0.49-1.03c0.33-0.22,0.82-0.34,1.47-0.37l0.76-0.02
			v-0.19c0-0.45-0.23-0.67-0.68-0.67c-0.35,0-0.76,0.11-1.24,0.32l-0.4-0.81c0.51-0.26,1.07-0.4,1.68-0.4
			c0.59,0,1.04,0.13,1.35,0.38c0.31,0.26,0.47,0.65,0.47,1.17v2.93H59.64z M59.29,164.49l-0.46,0.02c-0.35,0.01-0.61,0.07-0.78,0.19
			c-0.17,0.12-0.26,0.29-0.26,0.53c0,0.34,0.19,0.51,0.58,0.51c0.28,0,0.5-0.08,0.67-0.24c0.17-0.16,0.25-0.37,0.25-0.64V164.49z"/>
		<path class="st5" d="M65.84,166.52h-1.2v-2.56c0-0.32-0.06-0.55-0.17-0.71c-0.11-0.16-0.29-0.24-0.54-0.24
			c-0.33,0-0.58,0.11-0.73,0.34c-0.15,0.22-0.22,0.59-0.22,1.11v2.07h-1.2v-4.39h0.92l0.16,0.56h0.07c0.13-0.21,0.32-0.37,0.55-0.48
			s0.5-0.16,0.8-0.16c0.51,0,0.9,0.14,1.16,0.41c0.26,0.28,0.4,0.67,0.4,1.2V166.52z"/>
		<path class="st5" d="M68.53,166.6c-0.52,0-0.92-0.2-1.22-0.6c-0.29-0.4-0.44-0.96-0.44-1.67c0-0.72,0.15-1.28,0.45-1.68
			c0.3-0.4,0.71-0.6,1.24-0.6c0.55,0,0.97,0.21,1.26,0.64h0.04c-0.06-0.33-0.09-0.62-0.09-0.88v-1.41h1.2v6.11h-0.92l-0.23-0.57
			h-0.05C69.5,166.39,69.09,166.6,68.53,166.6z M68.95,165.65c0.31,0,0.53-0.09,0.67-0.27c0.14-0.18,0.22-0.48,0.23-0.91v-0.13
			c0-0.47-0.07-0.81-0.22-1.01c-0.15-0.2-0.38-0.31-0.71-0.31c-0.27,0-0.47,0.11-0.62,0.34s-0.22,0.56-0.22,0.99
			c0,0.43,0.07,0.76,0.22,0.97C68.46,165.54,68.67,165.65,68.95,165.65z"/>
		<path class="st5" d="M76.33,165.65c0.21,0,0.46-0.05,0.75-0.14v0.89c-0.3,0.13-0.67,0.2-1.1,0.2c-0.48,0-0.83-0.12-1.05-0.36
			c-0.22-0.24-0.33-0.6-0.33-1.09v-2.12h-0.57v-0.51l0.66-0.4l0.35-0.93h0.77v0.93h1.23v0.9h-1.23v2.12c0,0.17,0.05,0.3,0.14,0.38
			C76.05,165.61,76.17,165.65,76.33,165.65z"/>
		<path class="st5" d="M82.1,166.52h-1.2v-2.56c0-0.63-0.24-0.95-0.71-0.95c-0.33,0-0.58,0.11-0.73,0.34
			c-0.15,0.23-0.22,0.6-0.22,1.11v2.07h-1.2v-6.11h1.2v1.25c0,0.1-0.01,0.32-0.03,0.68l-0.03,0.35h0.06
			c0.27-0.43,0.69-0.64,1.27-0.64c0.52,0,0.91,0.14,1.17,0.42s0.4,0.68,0.4,1.19V166.52z"/>
		<path class="st5" d="M85.39,166.6c-0.71,0-1.26-0.19-1.66-0.58c-0.4-0.39-0.6-0.94-0.6-1.66c0-0.74,0.18-1.3,0.55-1.71
			c0.37-0.4,0.88-0.6,1.53-0.6c0.62,0,1.1,0.18,1.45,0.53s0.52,0.84,0.52,1.46v0.58h-2.83c0.01,0.34,0.11,0.61,0.3,0.8
			s0.45,0.29,0.79,0.29c0.26,0,0.51-0.03,0.75-0.08c0.24-0.05,0.48-0.14,0.74-0.26v0.93c-0.21,0.1-0.43,0.18-0.67,0.23
			C86.02,166.58,85.73,166.6,85.39,166.6z M85.22,162.9c-0.25,0-0.45,0.08-0.6,0.24s-0.23,0.39-0.25,0.68h1.68
			c0-0.29-0.08-0.52-0.23-0.68S85.47,162.9,85.22,162.9z"/>
	</g>
	<g>
		<path class="st5" d="M16.16,177.25h-3.31v-5.74h3.31v1h-2.09v1.26h1.94v1h-1.94v1.48h2.09V177.25z"/>
		<path class="st5" d="M21.39,177.25h-1.2v-2.56c0-0.32-0.06-0.55-0.17-0.71c-0.11-0.16-0.29-0.24-0.54-0.24
			c-0.33,0-0.58,0.11-0.73,0.34c-0.15,0.22-0.22,0.59-0.22,1.11v2.07h-1.2v-4.39h0.92l0.16,0.56h0.07c0.13-0.21,0.32-0.37,0.55-0.48
			s0.5-0.16,0.8-0.16c0.51,0,0.9,0.14,1.16,0.41c0.26,0.28,0.4,0.67,0.4,1.2V177.25z"/>
		<path class="st5" d="M23.73,177.25l-1.67-4.39h1.25l0.85,2.5c0.09,0.32,0.15,0.62,0.18,0.9h0.02c0.01-0.25,0.07-0.55,0.18-0.9
			l0.84-2.5h1.25l-1.67,4.39H23.73z"/>
		<path class="st5" d="M27.29,171.72c0-0.39,0.22-0.58,0.65-0.58s0.65,0.2,0.65,0.58c0,0.19-0.05,0.33-0.16,0.43
			c-0.11,0.1-0.27,0.15-0.49,0.15C27.51,172.31,27.29,172.11,27.29,171.72z M28.54,177.25h-1.2v-4.39h1.2V177.25z"/>
		<path class="st5" d="M32.32,172.77c0.16,0,0.3,0.01,0.4,0.04l-0.09,1.12c-0.1-0.03-0.21-0.04-0.35-0.04
			c-0.38,0-0.68,0.1-0.89,0.29c-0.21,0.2-0.32,0.47-0.32,0.83v2.23h-1.2v-4.39h0.91l0.18,0.74h0.06c0.14-0.25,0.32-0.44,0.55-0.59
			C31.8,172.85,32.05,172.77,32.32,172.77z"/>
		<path class="st5" d="M37.59,175.04c0,0.71-0.19,1.27-0.57,1.68s-0.9,0.6-1.57,0.6c-0.42,0-0.79-0.09-1.12-0.28
			c-0.32-0.18-0.57-0.45-0.74-0.79s-0.26-0.75-0.26-1.21c0-0.72,0.19-1.27,0.56-1.67c0.37-0.4,0.9-0.6,1.58-0.6
			c0.42,0,0.79,0.09,1.12,0.27c0.32,0.18,0.57,0.45,0.74,0.79C37.5,174.18,37.59,174.58,37.59,175.04z M34.55,175.04
			c0,0.43,0.07,0.76,0.21,0.99c0.14,0.22,0.38,0.33,0.7,0.33c0.32,0,0.55-0.11,0.69-0.33c0.14-0.22,0.21-0.55,0.21-0.99
			c0-0.43-0.07-0.76-0.21-0.98c-0.14-0.22-0.37-0.33-0.69-0.33c-0.32,0-0.55,0.11-0.69,0.32C34.62,174.28,34.55,174.6,34.55,175.04z
			"/>
		<path class="st5" d="M42.7,177.25h-1.2v-2.56c0-0.32-0.06-0.55-0.17-0.71c-0.11-0.16-0.29-0.24-0.54-0.24
			c-0.33,0-0.58,0.11-0.73,0.34c-0.15,0.22-0.22,0.59-0.22,1.11v2.07h-1.2v-4.39h0.92l0.16,0.56h0.07c0.13-0.21,0.32-0.37,0.55-0.48
			s0.5-0.16,0.8-0.16c0.51,0,0.9,0.14,1.16,0.41c0.26,0.28,0.4,0.67,0.4,1.2V177.25z"/>
		<path class="st5" d="M47.94,177.25h-1.2v-2.56c0-0.32-0.05-0.55-0.16-0.71c-0.11-0.16-0.27-0.24-0.5-0.24
			c-0.31,0-0.53,0.11-0.67,0.34c-0.14,0.22-0.21,0.6-0.21,1.11v2.07h-1.2v-4.39h0.92l0.16,0.56h0.07c0.12-0.2,0.29-0.36,0.51-0.47
			c0.22-0.11,0.48-0.17,0.77-0.17c0.66,0,1.1,0.21,1.33,0.64h0.11c0.12-0.2,0.29-0.36,0.52-0.47s0.49-0.17,0.78-0.17
			c0.5,0,0.87,0.13,1.13,0.38c0.25,0.25,0.38,0.66,0.38,1.23v2.86h-1.2v-2.56c0-0.32-0.05-0.55-0.16-0.71
			c-0.11-0.16-0.27-0.24-0.5-0.24c-0.29,0-0.51,0.1-0.66,0.31c-0.15,0.21-0.22,0.54-0.22,1V177.25z"/>
		<path class="st5" d="M53.97,177.32c-0.71,0-1.26-0.19-1.66-0.58c-0.4-0.39-0.6-0.94-0.6-1.66c0-0.74,0.18-1.3,0.55-1.71
			c0.37-0.4,0.88-0.6,1.53-0.6c0.62,0,1.1,0.18,1.45,0.53s0.52,0.84,0.52,1.46v0.58h-2.83c0.01,0.34,0.11,0.61,0.3,0.8
			s0.45,0.29,0.79,0.29c0.26,0,0.51-0.03,0.75-0.08c0.24-0.05,0.48-0.14,0.74-0.26v0.93c-0.21,0.1-0.43,0.18-0.67,0.23
			C54.61,177.3,54.31,177.32,53.97,177.32z M53.8,173.62c-0.25,0-0.45,0.08-0.6,0.24s-0.23,0.39-0.25,0.68h1.68
			c0-0.29-0.08-0.52-0.23-0.68S54.06,173.62,53.8,173.62z"/>
		<path class="st5" d="M60.87,177.25h-1.2v-2.56c0-0.32-0.06-0.55-0.17-0.71c-0.11-0.16-0.29-0.24-0.54-0.24
			c-0.33,0-0.58,0.11-0.73,0.34c-0.15,0.22-0.22,0.59-0.22,1.11v2.07h-1.2v-4.39h0.92l0.16,0.56h0.07c0.13-0.21,0.32-0.37,0.55-0.48
			s0.5-0.16,0.8-0.16c0.51,0,0.9,0.14,1.16,0.41c0.26,0.28,0.4,0.67,0.4,1.2V177.25z"/>
		<path class="st5" d="M64.02,176.37c0.21,0,0.46-0.05,0.75-0.14v0.89c-0.3,0.13-0.67,0.2-1.1,0.2c-0.48,0-0.83-0.12-1.05-0.36
			c-0.22-0.24-0.33-0.6-0.33-1.09v-2.12h-0.57v-0.51l0.66-0.4l0.35-0.93h0.77v0.93h1.23v0.9H63.5v2.12c0,0.17,0.05,0.3,0.14,0.38
			C63.74,176.33,63.87,176.37,64.02,176.37z"/>
	</g>
</g>
<g>
	<path class="st12" d="M159.57-518.88v-15 M-435.7-518.88v-15 M165.57,329.01h15 M-441.7,329.01h-15 M165.57-512.88h15
		 M-441.7-512.88h-15"/>
	<path class="st13" d="M159.57-518.88v-15 M-435.7-518.88v-15 M165.57,329.01h15 M-441.7,329.01h-15 M165.57-512.88h15
		 M-441.7-512.88h-15"/>
</g>
<g>
	<g>
		<defs>
			<rect id="SVGID_1_" x="301.55" y="-358.8" width="326.26" height="206.31"/>
		</defs>
		<clipPath id="SVGID_2_">
			<use xlink:href="#SVGID_1_"  style="overflow:visible;"/>
		</clipPath>
		<path class="st29" d="M302.67,50.08c111.46,0,201.82-90.35,201.82-201.82c0-111.46-90.36-201.82-201.82-201.82
			S100.85-263.2,100.85-151.74C100.85-40.28,191.21,50.08,302.67,50.08"/>
	</g>
</g>
</svg>
