<?xml version="1.0" encoding="utf-8"?>
<!-- Generator: Adobe Illustrator 24.3.0, SVG Export Plug-In . SVG Version: 6.00 Build 0)  -->
<svg version="1.1" id="Layer_1" xmlns="http://www.w3.org/2000/svg" xmlns:xlink="http://www.w3.org/1999/xlink" x="0px" y="0px"
	 viewBox="0 0 84.71 66.69" style="enable-background:new 0 0 84.71 66.69;" xml:space="preserve">
<style type="text/css">
	.st0{fill:#F7F5F2;}
	.st1{fill:#F1EEE9;}
	.st2{fill:#A0926A;}
	.st3{fill:#0092B2;}
	.st4{fill:#1568A1;}
	.st5{fill:#FFFFFF;}
	.st6{fill:#2D77AA;}
	.st7{fill:#32A7C2;}
	.st8{fill:#AA9D78;}
	.st9{fill:#A1A94F;}
	.st10{fill:#8B9638;}
	.st11{fill:none;stroke:#A0926A;}
	.st12{fill:none;stroke:#FFFFFF;stroke-width:1.25;stroke-miterlimit:10;}
	.st13{fill:none;stroke:#000000;stroke-width:0.25;stroke-miterlimit:10;}
	.st14{fill:#DDDEE0;}
	.st15{fill:#E8F0F5;}
	.st16{fill:#D1E1EB;}
	.st17{fill:#F7F5F1;}
	.st18{fill:#ECE9E1;}
	.st19{fill:#F4F4E9;}
	.st20{fill:#E6F5F8;}
	.st21{fill:none;stroke:#FFFFFF;stroke-width:0.25;stroke-miterlimit:10;}
	.st22{fill:#282829;}
	.st23{fill:none;stroke:#FFFFFF;stroke-width:0.3;stroke-miterlimit:10;}
	.st24{fill:none;stroke:#FFFFFF;stroke-width:0.447;stroke-miterlimit:10;}
	.st25{fill:none;stroke:#FFFFFF;stroke-width:0.652;stroke-miterlimit:10;}
	.st26{fill:none;stroke:#FFFFFF;stroke-width:0.558;stroke-miterlimit:10;}
	.st27{fill:none;stroke:#FFFFFF;stroke-width:0.363;stroke-miterlimit:10;}
	.st28{fill:none;stroke:#FFFFFF;stroke-width:0.628;stroke-linecap:round;stroke-linejoin:round;stroke-miterlimit:22.926;}
	.st29{clip-path:url(#SVGID_2_);fill:#ECE9E1;}
	.st30{clip-path:url(#SVGID_2_);fill:#F7F5F1;}
	.st31{clip-path:url(#SVGID_2_);fill:#FFFFFF;}
	.st32{fill:none;stroke:#A0926A;stroke-width:1.5;}
	.st33{fill:none;stroke:#FFFFFF;stroke-width:0.333;stroke-miterlimit:10;}
	.st34{fill:none;stroke:#FFFFFF;stroke-width:0.497;stroke-miterlimit:10;}
	.st35{fill:none;stroke:#FFFFFF;stroke-width:0.724;stroke-miterlimit:10;}
	.st36{fill:none;stroke:#FFFFFF;stroke-width:0.62;stroke-miterlimit:10;}
	.st37{fill:none;stroke:#FFFFFF;stroke-width:0.4;stroke-miterlimit:10;}
	.st38{fill:none;stroke:#FFFFFF;stroke-width:0.403;stroke-miterlimit:10;}
	.st39{fill:#B4A888;}
	.st40{fill:none;stroke:#FFFFFF;stroke-miterlimit:10;}
	.st41{fill:none;stroke:#A0926A;stroke-width:1.19;stroke-linejoin:round;stroke-miterlimit:10;}
	.st42{fill:none;stroke:#A0926A;stroke-width:1.265;stroke-miterlimit:10;}
	.st43{fill:none;stroke:#A0926A;stroke-width:1.265;stroke-linecap:round;stroke-linejoin:round;stroke-miterlimit:10;}
	.st44{fill:none;stroke:#A0926A;stroke-width:1.265;stroke-linejoin:round;stroke-miterlimit:10;}
	.st45{fill:none;stroke:#A0926A;stroke-width:1.22;stroke-linecap:round;stroke-linejoin:round;stroke-miterlimit:22.926;}
	.st46{fill:none;stroke:#A0926A;stroke-width:1.314;stroke-linecap:round;stroke-linejoin:round;stroke-miterlimit:22.926;}
	.st47{clip-path:url(#SVGID_4_);}
	.st48{clip-path:url(#SVGID_4_);fill:#B4A888;}
	.st49{clip-path:url(#SVGID_4_);fill:#F7F5F1;}
	.st50{clip-path:url(#SVGID_4_);fill:#ECE9E1;}
	.st51{clip-path:url(#SVGID_4_);fill:none;stroke:#FFFFFF;stroke-miterlimit:10;}
	
		.st52{clip-path:url(#SVGID_8_);fill:none;stroke:#A0926A;stroke-width:1.148;stroke-linecap:round;stroke-linejoin:round;stroke-miterlimit:10;}
	
		.st53{clip-path:url(#SVGID_4_);fill:none;stroke:#A0926A;stroke-width:1.148;stroke-linecap:round;stroke-linejoin:round;stroke-miterlimit:10;stroke-dasharray:0.047,2.088;}
	
		.st54{clip-path:url(#SVGID_4_);fill:none;stroke:#A0926A;stroke-width:1.148;stroke-linecap:round;stroke-linejoin:round;stroke-miterlimit:10;}
	.st55{clip-path:url(#SVGID_4_);fill:#282829;}
	.st56{clip-path:url(#SVGID_10_);fill:none;stroke:#A0926A;stroke-width:1.397;stroke-miterlimit:10;}
	.st57{clip-path:url(#SVGID_10_);fill:none;stroke:#A0926A;stroke-width:1.397;stroke-linejoin:round;stroke-miterlimit:10;}
	
		.st58{clip-path:url(#SVGID_12_);fill:none;stroke:#A0926A;stroke-width:1.252;stroke-linecap:round;stroke-linejoin:round;stroke-miterlimit:10;}
	.st59{clip-path:url(#SVGID_14_);fill:none;stroke:#A0926A;stroke-width:1.2112;stroke-linejoin:round;stroke-miterlimit:10;}
	.st60{clip-path:url(#SVGID_16_);fill:none;stroke:#FFFFFF;stroke-width:1.25;stroke-miterlimit:10;}
	.st61{clip-path:url(#SVGID_16_);fill:none;stroke:#000000;stroke-width:0.25;stroke-miterlimit:10;}
	.st62{clip-path:url(#SVGID_16_);fill:none;stroke:#FFFFFF;stroke-width:0.4;stroke-miterlimit:10;}
	.st63{clip-path:url(#SVGID_18_);fill:none;stroke:#FFFFFF;stroke-width:0.4;stroke-miterlimit:10;}
</style>
<g>
	<rect class="st3" width="84.71" height="66.69"/>
</g>
<g>
	<path class="st5" d="M6.96,30.59h2.28v2.98c-0.37,0.12-0.72,0.2-1.04,0.25c-0.33,0.05-0.66,0.07-1,0.07
		c-0.87,0-1.53-0.25-1.99-0.76c-0.46-0.51-0.69-1.24-0.69-2.19c0-0.93,0.27-1.65,0.8-2.17c0.53-0.52,1.27-0.78,2.2-0.78
		c0.59,0,1.16,0.12,1.7,0.35l-0.4,0.97C8.41,29.11,7.97,29,7.52,29c-0.53,0-0.95,0.18-1.26,0.53c-0.32,0.35-0.48,0.83-0.48,1.43
		c0,0.62,0.13,1.1,0.38,1.43c0.25,0.33,0.63,0.49,1.11,0.49c0.25,0,0.51-0.03,0.77-0.08v-1.2H6.96V30.59z"/>
	<path class="st5" d="M15.89,30.93c0,0.95-0.24,1.68-0.71,2.19c-0.47,0.51-1.15,0.77-2.03,0.77c-0.88,0-1.56-0.25-2.03-0.77
		c-0.47-0.51-0.71-1.24-0.71-2.2c0-0.96,0.24-1.68,0.71-2.19c0.47-0.5,1.15-0.76,2.03-0.76c0.88,0,1.56,0.25,2.02,0.76
		C15.66,29.25,15.89,29.98,15.89,30.93z M11.7,30.93c0,0.64,0.12,1.13,0.37,1.45c0.24,0.33,0.61,0.49,1.09,0.49
		c0.97,0,1.46-0.65,1.46-1.94c0-1.29-0.48-1.94-1.45-1.94c-0.48,0-0.85,0.16-1.1,0.49C11.82,29.81,11.7,30.29,11.7,30.93z"/>
	<path class="st5" d="M22.37,30.93c0,0.95-0.24,1.68-0.71,2.19c-0.47,0.51-1.15,0.77-2.03,0.77c-0.88,0-1.56-0.25-2.03-0.77
		c-0.47-0.51-0.71-1.24-0.71-2.2c0-0.96,0.24-1.68,0.71-2.19c0.47-0.5,1.15-0.76,2.03-0.76c0.88,0,1.56,0.25,2.02,0.76
		C22.14,29.25,22.37,29.98,22.37,30.93z M18.18,30.93c0,0.64,0.12,1.13,0.37,1.45c0.24,0.33,0.61,0.49,1.09,0.49
		c0.97,0,1.46-0.65,1.46-1.94c0-1.29-0.48-1.94-1.45-1.94c-0.48,0-0.85,0.16-1.1,0.49C18.3,29.81,18.18,30.29,18.18,30.93z"/>
	<path class="st5" d="M28.41,30.89c0,0.95-0.27,1.67-0.81,2.17c-0.54,0.5-1.31,0.75-2.33,0.75h-1.63v-5.74h1.8
		c0.94,0,1.67,0.25,2.18,0.74C28.15,29.31,28.41,30,28.41,30.89z M27.14,30.92c0-1.23-0.54-1.85-1.63-1.85h-0.65v3.74h0.52
		C26.55,32.81,27.14,32.18,27.14,30.92z"/>
	<path class="st5" d="M34.28,29c-0.46,0-0.81,0.17-1.06,0.52c-0.25,0.34-0.38,0.82-0.38,1.44c0,1.28,0.48,1.92,1.44,1.92
		c0.4,0,0.89-0.1,1.46-0.3v1.02c-0.47,0.2-1,0.29-1.58,0.29c-0.83,0-1.47-0.25-1.92-0.76c-0.44-0.51-0.66-1.23-0.66-2.18
		c0-0.6,0.11-1.12,0.33-1.57c0.22-0.45,0.53-0.79,0.94-1.03c0.41-0.24,0.88-0.36,1.43-0.36c0.56,0,1.12,0.13,1.68,0.4l-0.39,0.99
		c-0.21-0.1-0.43-0.19-0.65-0.27C34.7,29.04,34.49,29,34.28,29z"/>
	<path class="st5" d="M42.25,30.93c0,0.95-0.24,1.68-0.71,2.19c-0.47,0.51-1.15,0.77-2.03,0.77c-0.88,0-1.56-0.25-2.03-0.77
		c-0.47-0.51-0.71-1.24-0.71-2.2c0-0.96,0.24-1.68,0.71-2.19c0.47-0.5,1.15-0.76,2.03-0.76c0.88,0,1.56,0.25,2.02,0.76
		C42.01,29.25,42.25,29.98,42.25,30.93z M38.06,30.93c0,0.64,0.12,1.13,0.37,1.45c0.24,0.33,0.61,0.49,1.09,0.49
		c0.97,0,1.46-0.65,1.46-1.94c0-1.29-0.48-1.94-1.45-1.94c-0.48,0-0.85,0.16-1.1,0.49C38.18,29.81,38.06,30.29,38.06,30.93z"/>
	<path class="st5" d="M44.73,31.61v2.2h-1.22v-5.74h1.67c0.78,0,1.36,0.14,1.73,0.43c0.37,0.28,0.56,0.72,0.56,1.29
		c0,0.34-0.09,0.64-0.28,0.9c-0.19,0.26-0.45,0.47-0.79,0.62c0.86,1.29,1.43,2.13,1.69,2.5h-1.35l-1.37-2.2H44.73z M44.73,30.62
		h0.39c0.38,0,0.67-0.06,0.85-0.19c0.18-0.13,0.27-0.33,0.27-0.61c0-0.27-0.09-0.47-0.28-0.58c-0.19-0.12-0.48-0.17-0.87-0.17h-0.37
		V30.62z"/>
	<path class="st5" d="M52.86,29.86c0,0.62-0.19,1.09-0.58,1.42s-0.94,0.49-1.65,0.49h-0.52v2.04H48.9v-5.74h1.83
		c0.7,0,1.23,0.15,1.59,0.45C52.68,28.82,52.86,29.27,52.86,29.86z M50.11,30.77h0.4c0.37,0,0.65-0.07,0.84-0.22
		c0.19-0.15,0.28-0.36,0.28-0.65c0-0.29-0.08-0.5-0.23-0.63c-0.16-0.14-0.4-0.2-0.73-0.2h-0.55V30.77z"/>
	<path class="st5" d="M59.24,30.93c0,0.95-0.24,1.68-0.71,2.19c-0.47,0.51-1.15,0.77-2.03,0.77c-0.88,0-1.56-0.25-2.03-0.77
		c-0.47-0.51-0.71-1.24-0.71-2.2c0-0.96,0.24-1.68,0.71-2.19c0.47-0.5,1.15-0.76,2.03-0.76c0.88,0,1.56,0.25,2.02,0.76
		C59,29.25,59.24,29.98,59.24,30.93z M55.05,30.93c0,0.64,0.12,1.13,0.37,1.45c0.24,0.33,0.61,0.49,1.09,0.49
		c0.97,0,1.46-0.65,1.46-1.94c0-1.29-0.48-1.94-1.45-1.94c-0.48,0-0.85,0.16-1.1,0.49C55.17,29.81,55.05,30.29,55.05,30.93z"/>
	<path class="st5" d="M61.73,31.61v2.2h-1.22v-5.74h1.67c0.78,0,1.36,0.14,1.73,0.43c0.37,0.28,0.56,0.72,0.56,1.29
		c0,0.34-0.09,0.64-0.28,0.9c-0.19,0.26-0.45,0.47-0.79,0.62c0.86,1.29,1.43,2.13,1.69,2.5h-1.35l-1.37-2.2H61.73z M61.73,30.62
		h0.39c0.38,0,0.67-0.06,0.85-0.19c0.18-0.13,0.27-0.33,0.27-0.61c0-0.27-0.09-0.47-0.28-0.58c-0.19-0.12-0.48-0.17-0.87-0.17h-0.37
		V30.62z"/>
	<path class="st5" d="M69.4,33.81l-0.42-1.37H66.9l-0.42,1.37h-1.31l2.03-5.76h1.49l2.03,5.76H69.4z M68.7,31.42
		c-0.38-1.24-0.6-1.94-0.65-2.1s-0.08-0.29-0.1-0.38c-0.09,0.33-0.33,1.16-0.74,2.49H68.7z"/>
	<path class="st5" d="M73.73,33.81h-1.22v-4.73h-1.56v-1.01h4.34v1.01h-1.56V33.81z"/>
	<path class="st5" d="M79.56,33.81h-3.31v-5.74h3.31v1h-2.09v1.26h1.94v1h-1.94v1.48h2.09V33.81z"/>
</g>
<g>
	<path class="st5" d="M16.85,39.97h2.28v2.98c-0.37,0.12-0.72,0.2-1.04,0.25c-0.33,0.05-0.66,0.07-1,0.07
		c-0.87,0-1.53-0.25-1.99-0.76c-0.46-0.51-0.69-1.24-0.69-2.19c0-0.93,0.27-1.65,0.8-2.17c0.53-0.52,1.27-0.78,2.2-0.78
		c0.59,0,1.16,0.12,1.7,0.35l-0.4,0.97c-0.42-0.21-0.85-0.31-1.31-0.31c-0.53,0-0.95,0.18-1.26,0.53c-0.32,0.35-0.48,0.83-0.48,1.43
		c0,0.62,0.13,1.1,0.38,1.43c0.25,0.33,0.63,0.49,1.11,0.49c0.25,0,0.51-0.03,0.77-0.08v-1.2h-1.09V39.97z"/>
	<path class="st5" d="M25.77,40.32c0,0.95-0.24,1.68-0.71,2.19c-0.47,0.51-1.15,0.77-2.03,0.77c-0.88,0-1.56-0.25-2.03-0.77
		c-0.47-0.51-0.71-1.24-0.71-2.2c0-0.96,0.24-1.68,0.71-2.19c0.47-0.5,1.15-0.76,2.03-0.76c0.88,0,1.56,0.25,2.02,0.76
		C25.54,38.64,25.77,39.37,25.77,40.32z M21.58,40.32c0,0.64,0.12,1.13,0.37,1.45c0.24,0.33,0.61,0.49,1.09,0.49
		c0.97,0,1.46-0.65,1.46-1.94c0-1.29-0.48-1.94-1.45-1.94c-0.48,0-0.85,0.16-1.1,0.49C21.71,39.19,21.58,39.68,21.58,40.32z"/>
	<path class="st5" d="M30.32,37.46h1.23L29.6,43.2h-1.33l-1.95-5.74h1.23l1.08,3.42c0.06,0.2,0.12,0.44,0.19,0.71
		s0.1,0.46,0.12,0.56c0.03-0.24,0.13-0.66,0.29-1.26L30.32,37.46z"/>
	<path class="st5" d="M35.66,43.2h-3.31v-5.74h3.31v1h-2.09v1.26h1.94v1h-1.94v1.48h2.09V43.2z"/>
	<path class="st5" d="M38.15,40.99v2.2h-1.22v-5.74h1.67c0.78,0,1.36,0.14,1.73,0.43c0.37,0.28,0.56,0.72,0.56,1.29
		c0,0.34-0.09,0.64-0.28,0.9c-0.19,0.26-0.45,0.47-0.79,0.62c0.86,1.29,1.43,2.13,1.69,2.5h-1.35l-1.37-2.2H38.15z M38.15,40h0.39
		c0.38,0,0.67-0.06,0.85-0.19c0.18-0.13,0.27-0.33,0.27-0.61c0-0.27-0.09-0.47-0.28-0.58c-0.19-0.12-0.48-0.17-0.87-0.17h-0.37V40z"
		/>
	<path class="st5" d="M47.4,43.2h-1.55l-2.5-4.34h-0.04c0.05,0.77,0.07,1.31,0.07,1.64v2.7h-1.09v-5.74h1.54l2.49,4.3h0.03
		c-0.04-0.75-0.06-1.27-0.06-1.58v-2.72h1.1V43.2z"/>
	<path class="st5" d="M52.44,43.2l-0.42-1.37h-2.09l-0.42,1.37h-1.31l2.03-5.76h1.49l2.03,5.76H52.44z M51.74,40.81
		c-0.38-1.24-0.6-1.94-0.65-2.1s-0.08-0.29-0.1-0.38c-0.09,0.33-0.33,1.16-0.74,2.49H51.74z"/>
	<path class="st5" d="M59.65,43.2H58.1l-2.5-4.34h-0.04c0.05,0.77,0.07,1.31,0.07,1.64v2.7h-1.09v-5.74h1.54l2.49,4.3h0.03
		c-0.04-0.75-0.06-1.27-0.06-1.58v-2.72h1.1V43.2z"/>
	<path class="st5" d="M63.62,38.39c-0.46,0-0.81,0.17-1.06,0.52c-0.25,0.34-0.38,0.82-0.38,1.44c0,1.28,0.48,1.92,1.44,1.92
		c0.4,0,0.89-0.1,1.46-0.3v1.02c-0.47,0.2-1,0.29-1.58,0.29c-0.83,0-1.47-0.25-1.92-0.76c-0.44-0.51-0.66-1.23-0.66-2.18
		c0-0.6,0.11-1.12,0.33-1.57c0.22-0.45,0.53-0.79,0.94-1.03c0.41-0.24,0.88-0.36,1.43-0.36c0.56,0,1.12,0.13,1.68,0.4l-0.39,0.99
		c-0.21-0.1-0.43-0.19-0.65-0.27C64.04,38.42,63.83,38.39,63.62,38.39z"/>
	<path class="st5" d="M69.68,43.2h-3.31v-5.74h3.31v1h-2.09v1.26h1.94v1h-1.94v1.48h2.09V43.2z"/>
</g>
<g>
	<path class="st12" d="M356.36-732.17v-15 M-238.91-732.17v-15 M362.36,115.72h15 M-244.91,115.72h-15 M362.36-726.17h15
		 M-244.91-726.17h-15"/>
	<path class="st13" d="M356.36-732.17v-15 M-238.91-732.17v-15 M362.36,115.72h15 M-244.91,115.72h-15 M362.36-726.17h15
		 M-244.91-726.17h-15"/>
</g>
</svg>
