<?xml version="1.0" encoding="utf-8"?>
<!-- Generator: Adobe Illustrator 24.3.0, SVG Export Plug-In . SVG Version: 6.00 Build 0)  -->
<svg version="1.1" id="Layer_1" xmlns="http://www.w3.org/2000/svg" xmlns:xlink="http://www.w3.org/1999/xlink" x="0px" y="0px"
	 viewBox="0 0 84.71 58.1" style="enable-background:new 0 0 84.71 58.1;" xml:space="preserve">
<style type="text/css">
	.st0{fill:#F7F5F2;}
	.st1{fill:#F1EEE9;}
	.st2{fill:#A0926A;}
	.st3{fill:#0092B2;}
	.st4{fill:#1568A1;}
	.st5{fill:#FFFFFF;}
	.st6{fill:#2D77AA;}
	.st7{fill:#32A7C2;}
	.st8{fill:#AA9D78;}
	.st9{fill:#A1A94F;}
	.st10{fill:#8B9638;}
	.st11{fill:none;stroke:#A0926A;}
	.st12{fill:none;stroke:#FFFFFF;stroke-width:1.25;stroke-miterlimit:10;}
	.st13{fill:none;stroke:#000000;stroke-width:0.25;stroke-miterlimit:10;}
	.st14{fill:#DDDEE0;}
	.st15{fill:#E8F0F5;}
	.st16{fill:#D1E1EB;}
	.st17{fill:#F7F5F1;}
	.st18{fill:#ECE9E1;}
	.st19{fill:#F4F4E9;}
	.st20{fill:#E6F5F8;}
	.st21{fill:none;stroke:#FFFFFF;stroke-width:0.25;stroke-miterlimit:10;}
	.st22{fill:#282829;}
	.st23{fill:none;stroke:#FFFFFF;stroke-width:0.3;stroke-miterlimit:10;}
	.st24{fill:none;stroke:#FFFFFF;stroke-width:0.447;stroke-miterlimit:10;}
	.st25{fill:none;stroke:#FFFFFF;stroke-width:0.652;stroke-miterlimit:10;}
	.st26{fill:none;stroke:#FFFFFF;stroke-width:0.558;stroke-miterlimit:10;}
	.st27{fill:none;stroke:#FFFFFF;stroke-width:0.363;stroke-miterlimit:10;}
	.st28{fill:none;stroke:#FFFFFF;stroke-width:0.628;stroke-linecap:round;stroke-linejoin:round;stroke-miterlimit:22.926;}
	.st29{clip-path:url(#SVGID_2_);fill:#ECE9E1;}
	.st30{clip-path:url(#SVGID_2_);fill:#F7F5F1;}
	.st31{clip-path:url(#SVGID_2_);fill:#FFFFFF;}
	.st32{fill:none;stroke:#A0926A;stroke-width:1.5;}
	.st33{fill:none;stroke:#FFFFFF;stroke-width:0.333;stroke-miterlimit:10;}
	.st34{fill:none;stroke:#FFFFFF;stroke-width:0.497;stroke-miterlimit:10;}
	.st35{fill:none;stroke:#FFFFFF;stroke-width:0.724;stroke-miterlimit:10;}
	.st36{fill:none;stroke:#FFFFFF;stroke-width:0.62;stroke-miterlimit:10;}
	.st37{fill:none;stroke:#FFFFFF;stroke-width:0.4;stroke-miterlimit:10;}
	.st38{fill:none;stroke:#FFFFFF;stroke-width:0.403;stroke-miterlimit:10;}
	.st39{fill:#B4A888;}
	.st40{fill:none;stroke:#FFFFFF;stroke-miterlimit:10;}
	.st41{fill:none;stroke:#A0926A;stroke-width:1.19;stroke-linejoin:round;stroke-miterlimit:10;}
	.st42{fill:none;stroke:#A0926A;stroke-width:1.265;stroke-miterlimit:10;}
	.st43{fill:none;stroke:#A0926A;stroke-width:1.265;stroke-linecap:round;stroke-linejoin:round;stroke-miterlimit:10;}
	.st44{fill:none;stroke:#A0926A;stroke-width:1.265;stroke-linejoin:round;stroke-miterlimit:10;}
	.st45{fill:none;stroke:#A0926A;stroke-width:1.22;stroke-linecap:round;stroke-linejoin:round;stroke-miterlimit:22.926;}
	.st46{fill:none;stroke:#A0926A;stroke-width:1.314;stroke-linecap:round;stroke-linejoin:round;stroke-miterlimit:22.926;}
	.st47{clip-path:url(#SVGID_4_);}
	.st48{clip-path:url(#SVGID_4_);fill:#B4A888;}
	.st49{clip-path:url(#SVGID_4_);fill:#F7F5F1;}
	.st50{clip-path:url(#SVGID_4_);fill:#ECE9E1;}
	.st51{clip-path:url(#SVGID_4_);fill:none;stroke:#FFFFFF;stroke-miterlimit:10;}
	
		.st52{clip-path:url(#SVGID_8_);fill:none;stroke:#A0926A;stroke-width:1.148;stroke-linecap:round;stroke-linejoin:round;stroke-miterlimit:10;}
	
		.st53{clip-path:url(#SVGID_4_);fill:none;stroke:#A0926A;stroke-width:1.148;stroke-linecap:round;stroke-linejoin:round;stroke-miterlimit:10;stroke-dasharray:0.047,2.088;}
	
		.st54{clip-path:url(#SVGID_4_);fill:none;stroke:#A0926A;stroke-width:1.148;stroke-linecap:round;stroke-linejoin:round;stroke-miterlimit:10;}
	.st55{clip-path:url(#SVGID_4_);fill:#282829;}
	.st56{clip-path:url(#SVGID_10_);fill:none;stroke:#A0926A;stroke-width:1.397;stroke-miterlimit:10;}
	.st57{clip-path:url(#SVGID_10_);fill:none;stroke:#A0926A;stroke-width:1.397;stroke-linejoin:round;stroke-miterlimit:10;}
	
		.st58{clip-path:url(#SVGID_12_);fill:none;stroke:#A0926A;stroke-width:1.252;stroke-linecap:round;stroke-linejoin:round;stroke-miterlimit:10;}
	.st59{clip-path:url(#SVGID_14_);fill:none;stroke:#A0926A;stroke-width:1.2112;stroke-linejoin:round;stroke-miterlimit:10;}
	.st60{clip-path:url(#SVGID_16_);fill:none;stroke:#FFFFFF;stroke-width:1.25;stroke-miterlimit:10;}
	.st61{clip-path:url(#SVGID_16_);fill:none;stroke:#000000;stroke-width:0.25;stroke-miterlimit:10;}
	.st62{clip-path:url(#SVGID_16_);fill:none;stroke:#FFFFFF;stroke-width:0.4;stroke-miterlimit:10;}
	.st63{clip-path:url(#SVGID_18_);fill:none;stroke:#FFFFFF;stroke-width:0.4;stroke-miterlimit:10;}
</style>
<g>
	<g>
		<rect class="st10" width="84.71" height="58.1"/>
	</g>
	<g>
		<path class="st5" d="M10.72,26.12H7.41v-5.74h3.31v1H8.63v1.26h1.94v1H8.63v1.48h2.09V26.12z"/>
		<path class="st5" d="M17.08,26.12h-1.55l-2.5-4.34H13c0.05,0.77,0.07,1.31,0.07,1.64v2.7h-1.09v-5.74h1.54l2.49,4.3h0.03
			c-0.04-0.75-0.06-1.27-0.06-1.58v-2.72h1.1V26.12z"/>
		<path class="st5" d="M21.88,20.38h1.23l-1.95,5.74h-1.33l-1.95-5.74h1.23l1.08,3.42c0.06,0.2,0.12,0.44,0.19,0.71
			s0.1,0.46,0.12,0.56c0.03-0.24,0.13-0.66,0.29-1.26L21.88,20.38z"/>
		<path class="st5" d="M23.92,26.12v-5.74h1.22v5.74H23.92z"/>
		<path class="st5" d="M27.87,23.92v2.2h-1.22v-5.74h1.67c0.78,0,1.36,0.14,1.73,0.43c0.37,0.28,0.56,0.72,0.56,1.29
			c0,0.34-0.09,0.64-0.28,0.9c-0.19,0.26-0.45,0.47-0.79,0.62c0.86,1.29,1.43,2.13,1.69,2.5h-1.35l-1.37-2.2H27.87z M27.87,22.93
			h0.39c0.38,0,0.67-0.06,0.85-0.19c0.18-0.13,0.27-0.33,0.27-0.61c0-0.27-0.09-0.47-0.28-0.58c-0.19-0.12-0.48-0.17-0.87-0.17
			h-0.37V22.93z"/>
		<path class="st5" d="M37.24,23.24c0,0.95-0.24,1.68-0.71,2.19c-0.47,0.51-1.15,0.77-2.03,0.77c-0.88,0-1.56-0.25-2.03-0.77
			c-0.47-0.51-0.71-1.24-0.71-2.2c0-0.96,0.24-1.68,0.71-2.19c0.47-0.5,1.15-0.76,2.03-0.76c0.88,0,1.56,0.25,2.02,0.76
			C37.01,21.56,37.24,22.29,37.24,23.24z M33.05,23.24c0,0.64,0.12,1.13,0.37,1.45c0.24,0.33,0.61,0.49,1.09,0.49
			c0.97,0,1.46-0.65,1.46-1.94c0-1.29-0.48-1.94-1.45-1.94c-0.48,0-0.85,0.16-1.1,0.49C33.18,22.11,33.05,22.6,33.05,23.24z"/>
		<path class="st5" d="M43.61,26.12h-1.55l-2.5-4.34h-0.04c0.05,0.77,0.07,1.31,0.07,1.64v2.7h-1.09v-5.74h1.54l2.49,4.3h0.03
			c-0.04-0.75-0.06-1.27-0.06-1.58v-2.72h1.1V26.12z"/>
		<path class="st5" d="M47.56,26.12l-1.38-4.5h-0.04c0.05,0.92,0.07,1.53,0.07,1.83v2.67h-1.09v-5.74h1.66l1.36,4.39h0.02l1.44-4.39
			h1.66v5.74h-1.13V23.4c0-0.13,0-0.28,0.01-0.44s0.02-0.61,0.05-1.33h-0.04l-1.48,4.5H47.56z"/>
		<path class="st5" d="M56.1,26.12H52.8v-5.74h3.31v1h-2.09v1.26h1.94v1h-1.94v1.48h2.09V26.12z"/>
		<path class="st5" d="M62.47,26.12h-1.55l-2.5-4.34h-0.04c0.05,0.77,0.07,1.31,0.07,1.64v2.7h-1.09v-5.74h1.54l2.49,4.3h0.03
			c-0.04-0.75-0.06-1.27-0.06-1.58v-2.72h1.1V26.12z"/>
		<path class="st5" d="M66.21,26.12h-1.22v-4.73h-1.56v-1.01h4.34v1.01h-1.56V26.12z"/>
		<path class="st5" d="M72.24,26.12l-0.42-1.37h-2.09l-0.42,1.37H68l2.03-5.76h1.49l2.03,5.76H72.24z M71.53,23.73
			c-0.38-1.24-0.6-1.94-0.65-2.1s-0.08-0.29-0.1-0.38c-0.09,0.33-0.33,1.16-0.74,2.49H71.53z"/>
		<path class="st5" d="M74.35,26.12v-5.74h1.22v4.74h2.33v1H74.35z"/>
	</g>
	<g>
		<path class="st5" d="M11.73,33.3v2.2h-1.22v-5.74h1.67c0.78,0,1.36,0.14,1.73,0.43c0.37,0.28,0.56,0.72,0.56,1.29
			c0,0.34-0.09,0.64-0.28,0.9c-0.19,0.26-0.45,0.47-0.79,0.62c0.86,1.29,1.43,2.13,1.69,2.5h-1.35l-1.37-2.2H11.73z M11.73,32.31
			h0.39c0.38,0,0.67-0.06,0.85-0.19c0.18-0.13,0.27-0.33,0.27-0.61c0-0.27-0.09-0.47-0.28-0.58c-0.19-0.12-0.48-0.17-0.87-0.17
			h-0.37V32.31z"/>
		<path class="st5" d="M19.21,35.5H15.9v-5.74h3.31v1h-2.09v1.26h1.94v1h-1.94v1.48h2.09V35.5z"/>
		<path class="st5" d="M23.86,33.91c0,0.52-0.19,0.93-0.56,1.23s-0.89,0.45-1.56,0.45c-0.61,0-1.15-0.12-1.63-0.34v-1.13
			c0.39,0.17,0.72,0.29,0.98,0.37c0.27,0.07,0.51,0.11,0.74,0.11c0.27,0,0.47-0.05,0.61-0.15c0.14-0.1,0.21-0.25,0.21-0.46
			c0-0.11-0.03-0.21-0.09-0.3c-0.06-0.09-0.15-0.17-0.28-0.25c-0.12-0.08-0.37-0.21-0.74-0.39c-0.35-0.17-0.61-0.32-0.79-0.48
			c-0.18-0.15-0.32-0.33-0.42-0.53c-0.1-0.2-0.16-0.44-0.16-0.71c0-0.51,0.17-0.91,0.52-1.2c0.34-0.29,0.82-0.44,1.43-0.44
			c0.3,0,0.58,0.04,0.85,0.11c0.27,0.07,0.55,0.17,0.85,0.3l-0.39,0.95c-0.31-0.13-0.56-0.21-0.76-0.26
			c-0.2-0.05-0.4-0.07-0.59-0.07c-0.23,0-0.41,0.05-0.53,0.16c-0.12,0.11-0.18,0.25-0.18,0.42c0,0.11,0.02,0.2,0.07,0.28
			c0.05,0.08,0.13,0.16,0.24,0.23c0.11,0.07,0.37,0.21,0.77,0.4c0.54,0.26,0.9,0.51,1.1,0.77C23.77,33.22,23.86,33.54,23.86,33.91z"
			/>
		<path class="st5" d="M28.95,31.55c0,0.62-0.19,1.09-0.58,1.42s-0.94,0.49-1.65,0.49H26.2v2.04h-1.22v-5.74h1.83
			c0.7,0,1.23,0.15,1.59,0.45C28.77,30.51,28.95,30.96,28.95,31.55z M26.2,32.47h0.4c0.37,0,0.65-0.07,0.84-0.22
			c0.19-0.15,0.28-0.36,0.28-0.65c0-0.29-0.08-0.5-0.23-0.63c-0.16-0.14-0.4-0.2-0.73-0.2H26.2V32.47z"/>
		<path class="st5" d="M35.33,32.63c0,0.95-0.24,1.68-0.71,2.19c-0.47,0.51-1.15,0.77-2.03,0.77c-0.88,0-1.56-0.25-2.03-0.77
			c-0.47-0.51-0.71-1.24-0.71-2.2c0-0.96,0.24-1.68,0.71-2.19c0.47-0.5,1.15-0.76,2.03-0.76c0.88,0,1.56,0.25,2.02,0.76
			C35.09,30.94,35.33,31.67,35.33,32.63z M31.14,32.63c0,0.64,0.12,1.13,0.37,1.45c0.24,0.33,0.61,0.49,1.09,0.49
			c0.97,0,1.46-0.65,1.46-1.94c0-1.29-0.48-1.94-1.45-1.94c-0.48,0-0.85,0.16-1.1,0.49C31.26,31.5,31.14,31.98,31.14,32.63z"/>
		<path class="st5" d="M41.69,35.5h-1.55l-2.5-4.34h-0.04c0.05,0.77,0.07,1.31,0.07,1.64v2.7H36.6v-5.74h1.54l2.49,4.3h0.03
			c-0.04-0.75-0.06-1.27-0.06-1.58v-2.72h1.1V35.5z"/>
		<path class="st5" d="M46.61,33.91c0,0.52-0.19,0.93-0.56,1.23s-0.89,0.45-1.56,0.45c-0.61,0-1.15-0.12-1.63-0.34v-1.13
			c0.39,0.17,0.72,0.29,0.98,0.37c0.27,0.07,0.51,0.11,0.74,0.11c0.27,0,0.47-0.05,0.61-0.15c0.14-0.1,0.21-0.25,0.21-0.46
			c0-0.11-0.03-0.21-0.09-0.3c-0.06-0.09-0.15-0.17-0.28-0.25c-0.12-0.08-0.37-0.21-0.74-0.39c-0.35-0.17-0.61-0.32-0.79-0.48
			c-0.18-0.15-0.32-0.33-0.42-0.53c-0.1-0.2-0.16-0.44-0.16-0.71c0-0.51,0.17-0.91,0.52-1.2c0.34-0.29,0.82-0.44,1.43-0.44
			c0.3,0,0.58,0.04,0.85,0.11c0.27,0.07,0.55,0.17,0.85,0.3l-0.39,0.95c-0.31-0.13-0.56-0.21-0.76-0.26
			c-0.2-0.05-0.4-0.07-0.59-0.07c-0.23,0-0.41,0.05-0.53,0.16c-0.12,0.11-0.18,0.25-0.18,0.42c0,0.11,0.02,0.2,0.07,0.28
			c0.05,0.08,0.13,0.16,0.24,0.23c0.11,0.07,0.37,0.21,0.77,0.4c0.54,0.26,0.9,0.51,1.1,0.77C46.51,33.22,46.61,33.54,46.61,33.91z"
			/>
		<path class="st5" d="M47.73,35.5v-5.74h1.22v5.74H47.73z"/>
		<path class="st5" d="M50.46,29.76h1.79c0.81,0,1.41,0.12,1.77,0.35s0.55,0.6,0.55,1.11c0,0.34-0.08,0.62-0.24,0.84
			c-0.16,0.22-0.38,0.35-0.64,0.4v0.04c0.36,0.08,0.63,0.23,0.79,0.46s0.24,0.52,0.24,0.89c0,0.52-0.19,0.93-0.57,1.23
			c-0.38,0.29-0.89,0.44-1.54,0.44h-2.15V29.76z M51.68,32.04h0.71c0.33,0,0.57-0.05,0.72-0.15c0.15-0.1,0.22-0.27,0.22-0.51
			c0-0.22-0.08-0.38-0.24-0.47s-0.42-0.14-0.76-0.14h-0.64V32.04z M51.68,33v1.5h0.79c0.33,0,0.58-0.06,0.74-0.19
			c0.16-0.13,0.24-0.33,0.24-0.59c0-0.48-0.34-0.71-1.02-0.71H51.68z"/>
		<path class="st5" d="M55.95,35.5v-5.74h1.22v5.74H55.95z"/>
		<path class="st5" d="M58.68,35.5v-5.74h1.22v4.74h2.33v1H58.68z"/>
		<path class="st5" d="M63.3,35.5v-5.74h1.22v5.74H63.3z"/>
		<path class="st5" d="M68.25,35.5h-1.22v-4.73h-1.56v-1.01h4.34v1.01h-1.56V35.5z"/>
		<path class="st5" d="M72.56,32.13l1.2-2.36h1.31l-1.9,3.51v2.23h-1.21v-2.2l-1.9-3.55h1.32L72.56,32.13z"/>
	</g>
</g>
<g>
	<path class="st12" d="M356.36-598.54v-15 M-238.91-598.54v-15 M362.36,249.35h15 M-244.91,249.35h-15 M362.36-592.54h15
		 M-244.91-592.54h-15"/>
	<path class="st13" d="M356.36-598.54v-15 M-238.91-598.54v-15 M362.36,249.35h15 M-244.91,249.35h-15 M362.36-592.54h15
		 M-244.91-592.54h-15"/>
</g>
</svg>
