<?xml version="1.0" encoding="utf-8"?>
<!-- Generator: Adobe Illustrator 24.3.0, SVG Export Plug-In . SVG Version: 6.00 Build 0)  -->
<svg version="1.1" id="Layer_1" xmlns="http://www.w3.org/2000/svg" xmlns:xlink="http://www.w3.org/1999/xlink" x="0px" y="0px"
	 viewBox="0 0 84.71 66.69" style="enable-background:new 0 0 84.71 66.69;" xml:space="preserve">
<style type="text/css">
	.st0{fill:#F7F5F2;}
	.st1{fill:#F1EEE9;}
	.st2{fill:#A0926A;}
	.st3{fill:#0092B2;}
	.st4{fill:#1568A1;}
	.st5{fill:#FFFFFF;}
	.st6{fill:#2D77AA;}
	.st7{fill:#32A7C2;}
	.st8{fill:#AA9D78;}
	.st9{fill:#A1A94F;}
	.st10{fill:#8B9638;}
	.st11{fill:none;stroke:#A0926A;}
	.st12{fill:none;stroke:#FFFFFF;stroke-width:1.25;stroke-miterlimit:10;}
	.st13{fill:none;stroke:#000000;stroke-width:0.25;stroke-miterlimit:10;}
	.st14{fill:#DDDEE0;}
	.st15{fill:#E8F0F5;}
	.st16{fill:#D1E1EB;}
	.st17{fill:#F7F5F1;}
	.st18{fill:#ECE9E1;}
	.st19{fill:#F4F4E9;}
	.st20{fill:#E6F5F8;}
	.st21{fill:none;stroke:#FFFFFF;stroke-width:0.25;stroke-miterlimit:10;}
	.st22{fill:#282829;}
	.st23{fill:none;stroke:#FFFFFF;stroke-width:0.3;stroke-miterlimit:10;}
	.st24{fill:none;stroke:#FFFFFF;stroke-width:0.447;stroke-miterlimit:10;}
	.st25{fill:none;stroke:#FFFFFF;stroke-width:0.652;stroke-miterlimit:10;}
	.st26{fill:none;stroke:#FFFFFF;stroke-width:0.558;stroke-miterlimit:10;}
	.st27{fill:none;stroke:#FFFFFF;stroke-width:0.363;stroke-miterlimit:10;}
	.st28{fill:none;stroke:#FFFFFF;stroke-width:0.628;stroke-linecap:round;stroke-linejoin:round;stroke-miterlimit:22.926;}
	.st29{clip-path:url(#SVGID_2_);fill:#ECE9E1;}
	.st30{clip-path:url(#SVGID_2_);fill:#F7F5F1;}
	.st31{clip-path:url(#SVGID_2_);fill:#FFFFFF;}
	.st32{fill:none;stroke:#A0926A;stroke-width:1.5;}
	.st33{fill:none;stroke:#FFFFFF;stroke-width:0.333;stroke-miterlimit:10;}
	.st34{fill:none;stroke:#FFFFFF;stroke-width:0.497;stroke-miterlimit:10;}
	.st35{fill:none;stroke:#FFFFFF;stroke-width:0.724;stroke-miterlimit:10;}
	.st36{fill:none;stroke:#FFFFFF;stroke-width:0.62;stroke-miterlimit:10;}
	.st37{fill:none;stroke:#FFFFFF;stroke-width:0.4;stroke-miterlimit:10;}
	.st38{fill:none;stroke:#FFFFFF;stroke-width:0.403;stroke-miterlimit:10;}
	.st39{fill:#B4A888;}
	.st40{fill:none;stroke:#FFFFFF;stroke-miterlimit:10;}
	.st41{fill:none;stroke:#A0926A;stroke-width:1.19;stroke-linejoin:round;stroke-miterlimit:10;}
	.st42{fill:none;stroke:#A0926A;stroke-width:1.265;stroke-miterlimit:10;}
	.st43{fill:none;stroke:#A0926A;stroke-width:1.265;stroke-linecap:round;stroke-linejoin:round;stroke-miterlimit:10;}
	.st44{fill:none;stroke:#A0926A;stroke-width:1.265;stroke-linejoin:round;stroke-miterlimit:10;}
	.st45{fill:none;stroke:#A0926A;stroke-width:1.22;stroke-linecap:round;stroke-linejoin:round;stroke-miterlimit:22.926;}
	.st46{fill:none;stroke:#A0926A;stroke-width:1.314;stroke-linecap:round;stroke-linejoin:round;stroke-miterlimit:22.926;}
	.st47{clip-path:url(#SVGID_4_);}
	.st48{clip-path:url(#SVGID_4_);fill:#B4A888;}
	.st49{clip-path:url(#SVGID_4_);fill:#F7F5F1;}
	.st50{clip-path:url(#SVGID_4_);fill:#ECE9E1;}
	.st51{clip-path:url(#SVGID_4_);fill:none;stroke:#FFFFFF;stroke-miterlimit:10;}
	
		.st52{clip-path:url(#SVGID_8_);fill:none;stroke:#A0926A;stroke-width:1.148;stroke-linecap:round;stroke-linejoin:round;stroke-miterlimit:10;}
	
		.st53{clip-path:url(#SVGID_4_);fill:none;stroke:#A0926A;stroke-width:1.148;stroke-linecap:round;stroke-linejoin:round;stroke-miterlimit:10;stroke-dasharray:0.047,2.088;}
	
		.st54{clip-path:url(#SVGID_4_);fill:none;stroke:#A0926A;stroke-width:1.148;stroke-linecap:round;stroke-linejoin:round;stroke-miterlimit:10;}
	.st55{clip-path:url(#SVGID_4_);fill:#282829;}
	.st56{clip-path:url(#SVGID_10_);fill:none;stroke:#A0926A;stroke-width:1.397;stroke-miterlimit:10;}
	.st57{clip-path:url(#SVGID_10_);fill:none;stroke:#A0926A;stroke-width:1.397;stroke-linejoin:round;stroke-miterlimit:10;}
	
		.st58{clip-path:url(#SVGID_12_);fill:none;stroke:#A0926A;stroke-width:1.252;stroke-linecap:round;stroke-linejoin:round;stroke-miterlimit:10;}
	.st59{clip-path:url(#SVGID_14_);fill:none;stroke:#A0926A;stroke-width:1.2112;stroke-linejoin:round;stroke-miterlimit:10;}
	.st60{clip-path:url(#SVGID_16_);fill:none;stroke:#FFFFFF;stroke-width:1.25;stroke-miterlimit:10;}
	.st61{clip-path:url(#SVGID_16_);fill:none;stroke:#000000;stroke-width:0.25;stroke-miterlimit:10;}
	.st62{clip-path:url(#SVGID_16_);fill:none;stroke:#FFFFFF;stroke-width:0.4;stroke-miterlimit:10;}
	.st63{clip-path:url(#SVGID_18_);fill:none;stroke:#FFFFFF;stroke-width:0.4;stroke-miterlimit:10;}
</style>
<g>
	<rect class="st2" width="84.71" height="66.69"/>
</g>
<g>
	<path class="st5" d="M13.38,29.85c0,0.62-0.19,1.09-0.58,1.42s-0.94,0.49-1.65,0.49h-0.52v2.04H9.42v-5.74h1.83
		c0.7,0,1.23,0.15,1.59,0.45C13.2,28.81,13.38,29.25,13.38,29.85z M10.63,30.76h0.4c0.37,0,0.65-0.07,0.84-0.22
		c0.19-0.15,0.28-0.36,0.28-0.65c0-0.29-0.08-0.5-0.23-0.63c-0.16-0.14-0.4-0.2-0.73-0.2h-0.55V30.76z"/>
	<path class="st5" d="M19.76,30.92c0,0.95-0.24,1.68-0.71,2.19c-0.47,0.51-1.15,0.77-2.03,0.77c-0.88,0-1.56-0.25-2.03-0.77
		c-0.47-0.51-0.71-1.24-0.71-2.2c0-0.96,0.24-1.68,0.71-2.19c0.47-0.5,1.15-0.76,2.03-0.76c0.88,0,1.56,0.25,2.02,0.76
		C19.52,29.24,19.76,29.97,19.76,30.92z M15.57,30.92c0,0.64,0.12,1.13,0.37,1.45c0.24,0.33,0.61,0.49,1.09,0.49
		c0.97,0,1.46-0.65,1.46-1.94c0-1.29-0.48-1.94-1.45-1.94c-0.48,0-0.85,0.16-1.1,0.49C15.69,29.8,15.57,30.28,15.57,30.92z"/>
	<path class="st5" d="M24.42,32.2c0,0.52-0.19,0.93-0.56,1.23s-0.89,0.45-1.56,0.45c-0.61,0-1.15-0.12-1.63-0.34V32.4
		c0.39,0.17,0.72,0.29,0.98,0.37c0.27,0.07,0.51,0.11,0.74,0.11c0.27,0,0.47-0.05,0.61-0.15c0.14-0.1,0.21-0.25,0.21-0.46
		c0-0.11-0.03-0.21-0.09-0.3c-0.06-0.09-0.15-0.17-0.28-0.25c-0.12-0.08-0.37-0.21-0.74-0.39c-0.35-0.17-0.61-0.32-0.79-0.48
		c-0.18-0.15-0.32-0.33-0.42-0.53c-0.1-0.2-0.16-0.44-0.16-0.71c0-0.51,0.17-0.91,0.52-1.2c0.34-0.29,0.82-0.44,1.43-0.44
		c0.3,0,0.58,0.04,0.85,0.11c0.27,0.07,0.55,0.17,0.85,0.3L24,29.33c-0.31-0.13-0.56-0.21-0.76-0.26c-0.2-0.05-0.4-0.07-0.59-0.07
		c-0.23,0-0.41,0.05-0.53,0.16c-0.12,0.11-0.18,0.25-0.18,0.42c0,0.11,0.02,0.2,0.07,0.28c0.05,0.08,0.13,0.16,0.24,0.23
		c0.11,0.07,0.37,0.21,0.77,0.4c0.54,0.26,0.9,0.51,1.1,0.77C24.32,31.51,24.42,31.83,24.42,32.2z"/>
	<path class="st5" d="M25.54,33.8v-5.74h1.22v5.74H25.54z"/>
	<path class="st5" d="M30.49,33.8h-1.22v-4.73h-1.56v-1.01h4.34v1.01h-1.56V33.8z"/>
	<path class="st5" d="M33,33.8v-5.74h1.22v5.74H33z"/>
	<path class="st5" d="M39.01,28.06h1.23l-1.95,5.74h-1.33l-1.95-5.74h1.23l1.08,3.42c0.06,0.2,0.12,0.44,0.19,0.71
		s0.1,0.46,0.12,0.56c0.03-0.24,0.13-0.66,0.29-1.26L39.01,28.06z"/>
	<path class="st5" d="M44.35,33.8h-3.31v-5.74h3.31v1h-2.09v1.26h1.94v1h-1.94v1.48h2.09V33.8z"/>
	<path class="st5" d="M51.18,32.2c0,0.52-0.19,0.93-0.56,1.23s-0.89,0.45-1.56,0.45c-0.61,0-1.15-0.12-1.63-0.34V32.4
		c0.39,0.17,0.72,0.29,0.98,0.37c0.27,0.07,0.51,0.11,0.74,0.11c0.27,0,0.47-0.05,0.61-0.15c0.14-0.1,0.21-0.25,0.21-0.46
		c0-0.11-0.03-0.21-0.09-0.3c-0.06-0.09-0.15-0.17-0.28-0.25c-0.12-0.08-0.37-0.21-0.74-0.39c-0.35-0.17-0.61-0.32-0.79-0.48
		c-0.18-0.15-0.32-0.33-0.42-0.53c-0.1-0.2-0.16-0.44-0.16-0.71c0-0.51,0.17-0.91,0.52-1.2c0.34-0.29,0.82-0.44,1.43-0.44
		c0.3,0,0.58,0.04,0.85,0.11c0.27,0.07,0.55,0.17,0.85,0.3l-0.39,0.95c-0.31-0.13-0.56-0.21-0.76-0.26c-0.2-0.05-0.4-0.07-0.59-0.07
		c-0.23,0-0.41,0.05-0.53,0.16c-0.12,0.11-0.18,0.25-0.18,0.42c0,0.11,0.02,0.2,0.07,0.28c0.05,0.08,0.13,0.16,0.24,0.23
		c0.11,0.07,0.37,0.21,0.77,0.4c0.54,0.26,0.9,0.51,1.1,0.77C51.08,31.51,51.18,31.83,51.18,32.2z"/>
	<path class="st5" d="M57.51,30.92c0,0.95-0.24,1.68-0.71,2.19c-0.47,0.51-1.15,0.77-2.03,0.77c-0.88,0-1.56-0.25-2.03-0.77
		c-0.47-0.51-0.71-1.24-0.71-2.2c0-0.96,0.24-1.68,0.71-2.19c0.47-0.5,1.15-0.76,2.03-0.76c0.88,0,1.56,0.25,2.02,0.76
		C57.28,29.24,57.51,29.97,57.51,30.92z M53.32,30.92c0,0.64,0.12,1.13,0.37,1.45c0.24,0.33,0.61,0.49,1.09,0.49
		c0.97,0,1.46-0.65,1.46-1.94c0-1.29-0.48-1.94-1.45-1.94c-0.48,0-0.85,0.16-1.1,0.49C53.45,29.8,53.32,30.28,53.32,30.92z"/>
	<path class="st5" d="M61.22,28.99c-0.46,0-0.81,0.17-1.06,0.52c-0.25,0.34-0.38,0.82-0.38,1.44c0,1.28,0.48,1.92,1.44,1.92
		c0.4,0,0.89-0.1,1.46-0.3v1.02c-0.47,0.2-1,0.29-1.58,0.29c-0.83,0-1.47-0.25-1.92-0.76c-0.44-0.51-0.66-1.23-0.66-2.18
		c0-0.6,0.11-1.12,0.33-1.57c0.22-0.45,0.53-0.79,0.94-1.03c0.41-0.24,0.88-0.36,1.43-0.36c0.56,0,1.12,0.13,1.68,0.4l-0.39,0.99
		c-0.21-0.1-0.43-0.19-0.65-0.27C61.64,29.03,61.43,28.99,61.22,28.99z"/>
	<path class="st5" d="M63.98,33.8v-5.74h1.22v5.74H63.98z"/>
	<path class="st5" d="M70.23,33.8l-0.42-1.37h-2.09L67.3,33.8h-1.31l2.03-5.76h1.49l2.03,5.76H70.23z M69.52,31.41
		c-0.38-1.24-0.6-1.94-0.65-2.1s-0.08-0.29-0.1-0.38c-0.09,0.33-0.33,1.16-0.74,2.49H69.52z"/>
	<path class="st5" d="M72.34,33.8v-5.74h1.22v4.74h2.33v1H72.34z"/>
</g>
<g>
	<path class="st5" d="M27.66,43.19v-5.74h1.22v5.74H27.66z"/>
	<path class="st5" d="M32.83,43.19l-1.38-4.5h-0.04c0.05,0.92,0.07,1.53,0.07,1.83v2.67H30.4v-5.74h1.66l1.36,4.39h0.02l1.44-4.39
		h1.66v5.74H35.4v-2.72c0-0.13,0-0.28,0.01-0.44s0.02-0.61,0.05-1.33h-0.04l-1.48,4.5H32.83z"/>
	<path class="st5" d="M42.03,39.24c0,0.62-0.19,1.09-0.58,1.42s-0.94,0.49-1.65,0.49h-0.52v2.04h-1.22v-5.74h1.83
		c0.7,0,1.23,0.15,1.59,0.45C41.85,38.19,42.03,38.64,42.03,39.24z M39.28,40.15h0.4c0.37,0,0.65-0.07,0.84-0.22
		c0.19-0.15,0.28-0.36,0.28-0.65c0-0.29-0.08-0.5-0.23-0.63c-0.16-0.14-0.4-0.2-0.73-0.2h-0.55V40.15z"/>
	<path class="st5" d="M46.71,43.19l-0.42-1.37H44.2l-0.42,1.37h-1.31l2.03-5.76h1.49l2.03,5.76H46.71z M46,40.8
		c-0.38-1.24-0.6-1.94-0.65-2.1s-0.08-0.29-0.1-0.38c-0.09,0.33-0.33,1.16-0.74,2.49H46z"/>
	<path class="st5" d="M51.26,38.37c-0.46,0-0.81,0.17-1.06,0.52c-0.25,0.34-0.38,0.82-0.38,1.44c0,1.28,0.48,1.92,1.44,1.92
		c0.4,0,0.89-0.1,1.46-0.3v1.02c-0.47,0.2-1,0.29-1.58,0.29c-0.83,0-1.47-0.25-1.92-0.76c-0.44-0.51-0.66-1.23-0.66-2.18
		c0-0.6,0.11-1.12,0.33-1.57c0.22-0.45,0.53-0.79,0.94-1.03c0.41-0.24,0.88-0.36,1.43-0.36c0.56,0,1.12,0.13,1.68,0.4l-0.39,0.99
		c-0.21-0.1-0.43-0.19-0.65-0.27C51.68,38.41,51.47,38.37,51.26,38.37z"/>
	<path class="st5" d="M56.23,43.19h-1.22v-4.73h-1.56v-1.01h4.34v1.01h-1.56V43.19z"/>
</g>
<g>
	<path class="st12" d="M356.36-661.06v-15 M-238.91-661.06v-15 M362.36,186.83h15 M-244.91,186.83h-15 M362.36-655.06h15
		 M-244.91-655.06h-15"/>
	<path class="st13" d="M356.36-661.06v-15 M-238.91-661.06v-15 M362.36,186.83h15 M-244.91,186.83h-15 M362.36-655.06h15
		 M-244.91-655.06h-15"/>
</g>
</svg>
