<?xml version="1.0" encoding="utf-8"?>
<!-- Generator: Adobe Illustrator 24.3.0, SVG Export Plug-In . SVG Version: 6.00 Build 0)  -->
<svg version="1.1" id="Layer_1" xmlns="http://www.w3.org/2000/svg" xmlns:xlink="http://www.w3.org/1999/xlink" x="0px" y="0px"
	 viewBox="0 0 103.68 66.69" style="enable-background:new 0 0 103.68 66.69;" xml:space="preserve">
<style type="text/css">
	.st0{fill:#F7F5F2;}
	.st1{fill:#F1EEE9;}
	.st2{fill:#A0926A;}
	.st3{fill:#0092B2;}
	.st4{fill:#1568A1;}
	.st5{fill:#FFFFFF;}
	.st6{fill:#2D77AA;}
	.st7{fill:#32A7C2;}
	.st8{fill:#AA9D78;}
	.st9{fill:#A1A94F;}
	.st10{fill:#8B9638;}
	.st11{fill:none;stroke:#A0926A;}
	.st12{fill:none;stroke:#FFFFFF;stroke-width:1.25;stroke-miterlimit:10;}
	.st13{fill:none;stroke:#000000;stroke-width:0.25;stroke-miterlimit:10;}
	.st14{fill:#DDDEE0;}
	.st15{fill:#E8F0F5;}
	.st16{fill:#D1E1EB;}
	.st17{fill:#F7F5F1;}
	.st18{fill:#ECE9E1;}
	.st19{fill:#F4F4E9;}
	.st20{fill:#E6F5F8;}
	.st21{fill:none;stroke:#FFFFFF;stroke-width:0.25;stroke-miterlimit:10;}
	.st22{fill:#282829;}
	.st23{fill:none;stroke:#FFFFFF;stroke-width:0.3;stroke-miterlimit:10;}
	.st24{fill:none;stroke:#FFFFFF;stroke-width:0.447;stroke-miterlimit:10;}
	.st25{fill:none;stroke:#FFFFFF;stroke-width:0.652;stroke-miterlimit:10;}
	.st26{fill:none;stroke:#FFFFFF;stroke-width:0.558;stroke-miterlimit:10;}
	.st27{fill:none;stroke:#FFFFFF;stroke-width:0.363;stroke-miterlimit:10;}
	.st28{fill:none;stroke:#FFFFFF;stroke-width:0.628;stroke-linecap:round;stroke-linejoin:round;stroke-miterlimit:22.926;}
	.st29{clip-path:url(#SVGID_2_);fill:#ECE9E1;}
	.st30{clip-path:url(#SVGID_2_);fill:#F7F5F1;}
	.st31{clip-path:url(#SVGID_2_);fill:#FFFFFF;}
	.st32{fill:none;stroke:#A0926A;stroke-width:1.5;}
	.st33{fill:none;stroke:#FFFFFF;stroke-width:0.333;stroke-miterlimit:10;}
	.st34{fill:none;stroke:#FFFFFF;stroke-width:0.497;stroke-miterlimit:10;}
	.st35{fill:none;stroke:#FFFFFF;stroke-width:0.724;stroke-miterlimit:10;}
	.st36{fill:none;stroke:#FFFFFF;stroke-width:0.62;stroke-miterlimit:10;}
	.st37{fill:none;stroke:#FFFFFF;stroke-width:0.4;stroke-miterlimit:10;}
	.st38{fill:none;stroke:#FFFFFF;stroke-width:0.403;stroke-miterlimit:10;}
	.st39{fill:#B4A888;}
	.st40{fill:none;stroke:#FFFFFF;stroke-miterlimit:10;}
	.st41{fill:none;stroke:#A0926A;stroke-width:1.19;stroke-linejoin:round;stroke-miterlimit:10;}
	.st42{fill:none;stroke:#A0926A;stroke-width:1.265;stroke-miterlimit:10;}
	.st43{fill:none;stroke:#A0926A;stroke-width:1.265;stroke-linecap:round;stroke-linejoin:round;stroke-miterlimit:10;}
	.st44{fill:none;stroke:#A0926A;stroke-width:1.265;stroke-linejoin:round;stroke-miterlimit:10;}
	.st45{fill:none;stroke:#A0926A;stroke-width:1.22;stroke-linecap:round;stroke-linejoin:round;stroke-miterlimit:22.926;}
	.st46{fill:none;stroke:#A0926A;stroke-width:1.314;stroke-linecap:round;stroke-linejoin:round;stroke-miterlimit:22.926;}
	.st47{clip-path:url(#SVGID_4_);}
	.st48{clip-path:url(#SVGID_4_);fill:#B4A888;}
	.st49{clip-path:url(#SVGID_4_);fill:#F7F5F1;}
	.st50{clip-path:url(#SVGID_4_);fill:#ECE9E1;}
	.st51{clip-path:url(#SVGID_4_);fill:none;stroke:#FFFFFF;stroke-miterlimit:10;}
	
		.st52{clip-path:url(#SVGID_8_);fill:none;stroke:#A0926A;stroke-width:1.148;stroke-linecap:round;stroke-linejoin:round;stroke-miterlimit:10;}
	
		.st53{clip-path:url(#SVGID_4_);fill:none;stroke:#A0926A;stroke-width:1.148;stroke-linecap:round;stroke-linejoin:round;stroke-miterlimit:10;stroke-dasharray:0.047,2.088;}
	
		.st54{clip-path:url(#SVGID_4_);fill:none;stroke:#A0926A;stroke-width:1.148;stroke-linecap:round;stroke-linejoin:round;stroke-miterlimit:10;}
	.st55{clip-path:url(#SVGID_4_);fill:#282829;}
	.st56{clip-path:url(#SVGID_10_);fill:none;stroke:#A0926A;stroke-width:1.397;stroke-miterlimit:10;}
	.st57{clip-path:url(#SVGID_10_);fill:none;stroke:#A0926A;stroke-width:1.397;stroke-linejoin:round;stroke-miterlimit:10;}
	
		.st58{clip-path:url(#SVGID_12_);fill:none;stroke:#A0926A;stroke-width:1.252;stroke-linecap:round;stroke-linejoin:round;stroke-miterlimit:10;}
	.st59{clip-path:url(#SVGID_14_);fill:none;stroke:#A0926A;stroke-width:1.2112;stroke-linejoin:round;stroke-miterlimit:10;}
	.st60{clip-path:url(#SVGID_16_);fill:none;stroke:#FFFFFF;stroke-width:1.25;stroke-miterlimit:10;}
	.st61{clip-path:url(#SVGID_16_);fill:none;stroke:#000000;stroke-width:0.25;stroke-miterlimit:10;}
	.st62{clip-path:url(#SVGID_16_);fill:none;stroke:#FFFFFF;stroke-width:0.4;stroke-miterlimit:10;}
	.st63{clip-path:url(#SVGID_18_);fill:none;stroke:#FFFFFF;stroke-width:0.4;stroke-miterlimit:10;}
</style>
<g>
	<g>
		<rect class="st7" width="103.68" height="66.69"/>
	</g>
	<g>
		<path class="st5" d="M4.46,12.08c0-0.33,0.07-0.58,0.21-0.76s0.34-0.26,0.6-0.26c0.26,0,0.46,0.09,0.6,0.26
			C6,11.5,6.07,11.75,6.07,12.08c0,0.32-0.07,0.57-0.21,0.75s-0.34,0.27-0.6,0.27c-0.25,0-0.45-0.09-0.6-0.26S4.46,12.41,4.46,12.08
			z"/>
	</g>
	<g>
		<path class="st5" d="M9.2,14.77V9.51h0.76v4.52h1.97v0.74H9.2z"/>
		<path class="st5" d="M14.25,14.85c-0.55,0-0.98-0.18-1.28-0.54c-0.31-0.36-0.46-0.86-0.46-1.49c0-0.65,0.14-1.16,0.43-1.53
			s0.68-0.56,1.18-0.56c0.46,0,0.83,0.16,1.1,0.48s0.4,0.76,0.4,1.32v0.46h-2.35c0.01,0.39,0.1,0.68,0.28,0.89
			c0.17,0.21,0.42,0.31,0.74,0.31c0.21,0,0.4-0.02,0.58-0.07c0.18-0.04,0.37-0.12,0.58-0.22v0.69c-0.18,0.1-0.37,0.17-0.55,0.21
			C14.7,14.83,14.49,14.85,14.25,14.85z M14.11,11.36c-0.24,0-0.43,0.08-0.57,0.25c-0.14,0.17-0.23,0.42-0.26,0.75h1.6
			c0-0.33-0.07-0.58-0.21-0.75C14.54,11.45,14.35,11.36,14.11,11.36z"/>
		<path class="st5" d="M18.73,14.77l-0.15-0.55h-0.03c-0.17,0.24-0.34,0.41-0.51,0.5c-0.17,0.09-0.39,0.13-0.66,0.13
			c-0.35,0-0.62-0.11-0.81-0.32c-0.19-0.21-0.29-0.51-0.29-0.9c0-0.41,0.13-0.72,0.4-0.93c0.27-0.21,0.68-0.32,1.23-0.34l0.61-0.02
			v-0.21c0-0.25-0.05-0.45-0.16-0.57s-0.27-0.19-0.49-0.19c-0.18,0-0.35,0.03-0.52,0.09c-0.17,0.06-0.32,0.13-0.48,0.21l-0.24-0.61
			c0.19-0.11,0.4-0.2,0.63-0.26s0.44-0.09,0.64-0.09c0.45,0,0.79,0.11,1.01,0.33c0.23,0.22,0.34,0.57,0.34,1.04v2.68H18.73z
			 M17.61,14.2c0.27,0,0.49-0.09,0.65-0.26c0.16-0.17,0.25-0.41,0.25-0.72v-0.35l-0.45,0.02c-0.35,0.01-0.61,0.08-0.77,0.2
			c-0.16,0.12-0.24,0.3-0.24,0.55c0,0.18,0.05,0.31,0.14,0.41C17.29,14.15,17.43,14.2,17.61,14.2z"/>
		<path class="st5" d="M21.55,14.85c-0.44,0-0.78-0.18-1.03-0.54c-0.25-0.36-0.37-0.87-0.37-1.52c0-0.65,0.12-1.16,0.37-1.52
			s0.59-0.55,1.04-0.55c0.46,0,0.81,0.19,1.06,0.58h0.04c-0.04-0.29-0.05-0.51-0.05-0.68V9.17h0.75v5.6h-0.59l-0.13-0.52h-0.04
			C22.37,14.65,22.02,14.85,21.55,14.85z M21.76,14.16c0.31,0,0.53-0.1,0.67-0.29s0.21-0.51,0.22-0.95V12.8
			c0-0.5-0.07-0.86-0.22-1.07c-0.14-0.21-0.37-0.32-0.68-0.32c-0.26,0-0.47,0.12-0.61,0.36c-0.14,0.24-0.21,0.58-0.21,1.03
			c0,0.44,0.07,0.78,0.21,1.01C21.27,14.05,21.48,14.16,21.76,14.16z"/>
		<path class="st5" d="M26.02,14.85c-0.55,0-0.98-0.18-1.28-0.54c-0.31-0.36-0.46-0.86-0.46-1.49c0-0.65,0.14-1.16,0.43-1.53
			s0.68-0.56,1.18-0.56c0.46,0,0.83,0.16,1.1,0.48s0.4,0.76,0.4,1.32v0.46h-2.35c0.01,0.39,0.1,0.68,0.28,0.89
			c0.17,0.21,0.42,0.31,0.74,0.31c0.21,0,0.4-0.02,0.58-0.07c0.18-0.04,0.37-0.12,0.58-0.22v0.69c-0.18,0.1-0.37,0.17-0.55,0.21
			C26.48,14.83,26.26,14.85,26.02,14.85z M25.89,11.36c-0.24,0-0.43,0.08-0.57,0.25c-0.14,0.17-0.23,0.42-0.26,0.75h1.6
			c0-0.33-0.07-0.58-0.21-0.75C26.31,11.45,26.13,11.36,25.89,11.36z"/>
		<path class="st5" d="M30.09,10.72c0.15,0,0.27,0.01,0.37,0.04l-0.07,0.79c-0.11-0.03-0.22-0.04-0.33-0.04
			c-0.3,0-0.54,0.11-0.73,0.33c-0.19,0.22-0.28,0.51-0.28,0.86v2.08H28.3v-3.98h0.59l0.1,0.7h0.04c0.12-0.24,0.27-0.43,0.46-0.57
			C29.67,10.79,29.87,10.72,30.09,10.72z"/>
		<path class="st5" d="M33.54,13.64c0,0.39-0.13,0.69-0.38,0.89c-0.25,0.21-0.61,0.31-1.08,0.31c-0.47,0-0.85-0.08-1.13-0.24v-0.73
			c0.41,0.22,0.8,0.32,1.16,0.32c0.46,0,0.69-0.16,0.69-0.47c0-0.1-0.03-0.18-0.08-0.25c-0.05-0.07-0.13-0.14-0.25-0.21
			c-0.12-0.07-0.28-0.15-0.49-0.25c-0.41-0.18-0.68-0.36-0.82-0.53s-0.21-0.41-0.21-0.69c0-0.34,0.12-0.61,0.36-0.79
			c0.24-0.19,0.57-0.28,0.99-0.28c0.41,0,0.81,0.1,1.17,0.29l-0.24,0.64c-0.38-0.18-0.7-0.27-0.96-0.27c-0.39,0-0.59,0.13-0.59,0.38
			c0,0.13,0.05,0.23,0.15,0.32c0.1,0.09,0.33,0.21,0.67,0.36c0.29,0.13,0.5,0.24,0.63,0.35c0.13,0.11,0.23,0.23,0.29,0.37
			C33.51,13.28,33.54,13.45,33.54,13.64z"/>
		<path class="st5" d="M37.5,14.77h-0.75v-2.45c0-0.31-0.05-0.54-0.16-0.69c-0.11-0.15-0.28-0.23-0.52-0.23
			c-0.31,0-0.54,0.11-0.69,0.32c-0.15,0.21-0.22,0.57-0.22,1.07v1.98H34.4v-5.6h0.75v1.42c0,0.23-0.01,0.47-0.04,0.73h0.05
			c0.1-0.19,0.24-0.34,0.42-0.45c0.18-0.11,0.39-0.16,0.64-0.16c0.85,0,1.28,0.49,1.28,1.46V14.77z"/>
		<path class="st5" d="M38.56,9.74c0-0.15,0.04-0.27,0.11-0.35c0.07-0.08,0.18-0.12,0.31-0.12c0.13,0,0.23,0.04,0.31,0.12
			c0.07,0.08,0.11,0.2,0.11,0.35c0,0.14-0.04,0.26-0.11,0.34c-0.07,0.08-0.18,0.13-0.31,0.13c-0.14,0-0.24-0.04-0.31-0.13
			C38.59,10,38.56,9.88,38.56,9.74z M39.35,14.77H38.6v-3.98h0.75V14.77z"/>
		<path class="st5" d="M42.26,14.85c-0.45,0-0.79-0.18-1.04-0.54h-0.04c0.03,0.34,0.04,0.54,0.04,0.61v1.63h-0.75v-5.75h0.6
			c0.02,0.07,0.05,0.25,0.1,0.53h0.04c0.23-0.4,0.58-0.61,1.05-0.61c0.44,0,0.78,0.18,1.03,0.54c0.25,0.36,0.37,0.87,0.37,1.52
			s-0.12,1.16-0.37,1.52C43.05,14.66,42.7,14.85,42.26,14.85z M42.08,11.41c-0.3,0-0.51,0.1-0.65,0.29
			c-0.14,0.2-0.21,0.51-0.21,0.94v0.13c0,0.49,0.07,0.84,0.2,1.05c0.14,0.22,0.36,0.33,0.67,0.33c0.26,0,0.46-0.12,0.6-0.36
			c0.14-0.24,0.21-0.58,0.21-1.03c0-0.45-0.07-0.78-0.21-1.01C42.56,11.53,42.35,11.41,42.08,11.41z"/>
		<path class="st5" d="M50.21,12.09c0,0.87-0.21,1.53-0.64,1.99c-0.43,0.46-1.04,0.69-1.84,0.69h-1.3V9.51h1.44
			c0.74,0,1.32,0.23,1.73,0.68S50.21,11.27,50.21,12.09z M49.41,12.12c0-1.26-0.52-1.89-1.56-1.89h-0.66v3.82h0.54
			C48.85,14.05,49.41,13.41,49.41,12.12z"/>
		<path class="st5" d="M52.73,14.85c-0.55,0-0.98-0.18-1.28-0.54c-0.31-0.36-0.46-0.86-0.46-1.49c0-0.65,0.14-1.16,0.43-1.53
			s0.68-0.56,1.18-0.56c0.46,0,0.83,0.16,1.1,0.48s0.4,0.76,0.4,1.32v0.46h-2.35c0.01,0.39,0.1,0.68,0.28,0.89
			c0.17,0.21,0.42,0.31,0.74,0.31c0.21,0,0.4-0.02,0.58-0.07c0.18-0.04,0.37-0.12,0.58-0.22v0.69c-0.18,0.1-0.37,0.17-0.55,0.21
			C53.18,14.83,52.97,14.85,52.73,14.85z M52.59,11.36c-0.24,0-0.43,0.08-0.57,0.25c-0.14,0.17-0.23,0.42-0.26,0.75h1.6
			c0-0.33-0.07-0.58-0.21-0.75C53.02,11.45,52.83,11.36,52.59,11.36z"/>
		<path class="st5" d="M55.81,14.77l-1.34-3.98h0.79l0.72,2.31c0.12,0.39,0.2,0.7,0.22,0.94h0.03c0.02-0.17,0.09-0.49,0.22-0.94
			l0.72-2.31h0.8l-1.34,3.98H55.81z"/>
		<path class="st5" d="M60.09,14.85c-0.55,0-0.98-0.18-1.28-0.54c-0.31-0.36-0.46-0.86-0.46-1.49c0-0.65,0.14-1.16,0.43-1.53
			s0.68-0.56,1.18-0.56c0.46,0,0.83,0.16,1.1,0.48s0.4,0.76,0.4,1.32v0.46h-2.35c0.01,0.39,0.1,0.68,0.28,0.89
			c0.17,0.21,0.42,0.31,0.74,0.31c0.21,0,0.4-0.02,0.58-0.07c0.18-0.04,0.37-0.12,0.58-0.22v0.69c-0.18,0.1-0.37,0.17-0.55,0.21
			C60.55,14.83,60.33,14.85,60.09,14.85z M59.96,11.36c-0.24,0-0.43,0.08-0.57,0.25c-0.14,0.17-0.23,0.42-0.26,0.75h1.6
			c0-0.33-0.07-0.58-0.21-0.75C60.38,11.45,60.19,11.36,59.96,11.36z"/>
		<path class="st5" d="M63.12,14.77h-0.75v-5.6h0.75V14.77z"/>
		<path class="st5" d="M67.37,12.78c0,0.65-0.15,1.16-0.44,1.52c-0.29,0.37-0.71,0.55-1.23,0.55c-0.33,0-0.62-0.08-0.87-0.25
			s-0.45-0.41-0.58-0.72s-0.2-0.68-0.2-1.09c0-0.65,0.15-1.15,0.44-1.51c0.29-0.36,0.71-0.54,1.24-0.54c0.51,0,0.91,0.19,1.21,0.56
			C67.22,11.65,67.37,12.15,67.37,12.78z M64.81,12.78c0,0.92,0.3,1.38,0.9,1.38c0.59,0,0.89-0.46,0.89-1.38
			c0-0.91-0.3-1.36-0.9-1.36c-0.31,0-0.54,0.12-0.68,0.35C64.88,12,64.81,12.34,64.81,12.78z"/>
		<path class="st5" d="M70.07,14.85c-0.45,0-0.79-0.18-1.04-0.54h-0.04c0.03,0.34,0.04,0.54,0.04,0.61v1.63h-0.75v-5.75h0.6
			c0.02,0.07,0.05,0.25,0.1,0.53h0.04c0.23-0.4,0.58-0.61,1.05-0.61c0.44,0,0.78,0.18,1.03,0.54c0.25,0.36,0.37,0.87,0.37,1.52
			s-0.12,1.16-0.37,1.52C70.86,14.66,70.51,14.85,70.07,14.85z M69.89,11.41c-0.3,0-0.51,0.1-0.65,0.29
			c-0.14,0.2-0.21,0.51-0.21,0.94v0.13c0,0.49,0.07,0.84,0.2,1.05c0.14,0.22,0.36,0.33,0.67,0.33c0.26,0,0.46-0.12,0.6-0.36
			c0.14-0.24,0.21-0.58,0.21-1.03c0-0.45-0.07-0.78-0.21-1.01C70.37,11.53,70.16,11.41,69.89,11.41z"/>
		<path class="st5" d="M73.95,14.85c-0.55,0-0.98-0.18-1.28-0.54c-0.31-0.36-0.46-0.86-0.46-1.49c0-0.65,0.14-1.16,0.43-1.53
			s0.68-0.56,1.18-0.56c0.46,0,0.83,0.16,1.1,0.48s0.4,0.76,0.4,1.32v0.46h-2.35c0.01,0.39,0.1,0.68,0.28,0.89
			c0.17,0.21,0.42,0.31,0.74,0.31c0.21,0,0.4-0.02,0.58-0.07c0.18-0.04,0.37-0.12,0.58-0.22v0.69c-0.18,0.1-0.37,0.17-0.55,0.21
			C74.4,14.83,74.19,14.85,73.95,14.85z M73.81,11.36c-0.24,0-0.43,0.08-0.57,0.25c-0.14,0.17-0.23,0.42-0.26,0.75h1.6
			c0-0.33-0.07-0.58-0.21-0.75C74.23,11.45,74.05,11.36,73.81,11.36z"/>
		<path class="st5" d="M79.19,14.77h-0.75v-2.46c0-0.3-0.05-0.53-0.15-0.68c-0.1-0.15-0.26-0.23-0.48-0.23
			c-0.29,0-0.5,0.11-0.64,0.32c-0.13,0.21-0.2,0.57-0.2,1.06v1.98h-0.75v-3.98h0.59l0.1,0.52h0.04c0.1-0.19,0.24-0.34,0.42-0.44
			c0.19-0.1,0.39-0.16,0.61-0.16c0.54,0,0.9,0.21,1.08,0.63h0.05c0.1-0.2,0.25-0.35,0.44-0.46s0.41-0.17,0.65-0.17
			c0.42,0,0.73,0.12,0.92,0.36c0.19,0.24,0.29,0.61,0.29,1.1v2.6h-0.75v-2.46c0-0.3-0.05-0.53-0.15-0.68
			c-0.1-0.15-0.26-0.23-0.48-0.23c-0.29,0-0.5,0.1-0.64,0.31s-0.2,0.52-0.2,0.95V14.77z"/>
		<path class="st5" d="M84.05,14.85c-0.55,0-0.98-0.18-1.28-0.54c-0.31-0.36-0.46-0.86-0.46-1.49c0-0.65,0.14-1.16,0.43-1.53
			s0.68-0.56,1.18-0.56c0.46,0,0.83,0.16,1.1,0.48s0.4,0.76,0.4,1.32v0.46h-2.35c0.01,0.39,0.1,0.68,0.28,0.89
			c0.17,0.21,0.42,0.31,0.74,0.31c0.21,0,0.4-0.02,0.58-0.07c0.18-0.04,0.37-0.12,0.58-0.22v0.69c-0.18,0.1-0.37,0.17-0.55,0.21
			C84.51,14.83,84.29,14.85,84.05,14.85z M83.92,11.36c-0.24,0-0.43,0.08-0.57,0.25c-0.14,0.17-0.23,0.42-0.26,0.75h1.6
			c0-0.33-0.07-0.58-0.21-0.75C84.34,11.45,84.15,11.36,83.92,11.36z"/>
		<path class="st5" d="M89.43,14.77h-0.75v-2.45c0-0.31-0.05-0.54-0.16-0.69c-0.11-0.15-0.28-0.23-0.52-0.23
			c-0.32,0-0.55,0.11-0.69,0.32c-0.15,0.21-0.22,0.56-0.22,1.06v1.98h-0.75v-3.98h0.59l0.1,0.52h0.04c0.11-0.19,0.26-0.34,0.45-0.44
			s0.41-0.16,0.65-0.16c0.84,0,1.27,0.49,1.27,1.46V14.77z"/>
		<path class="st5" d="M91.84,14.16c0.18,0,0.37-0.03,0.55-0.1v0.64c-0.08,0.04-0.19,0.08-0.32,0.1c-0.13,0.03-0.27,0.04-0.41,0.04
			c-0.71,0-1.06-0.42-1.06-1.27v-2.15h-0.48v-0.37l0.52-0.31l0.25-0.84h0.46v0.89h1v0.64h-1v2.13c0,0.2,0.05,0.36,0.14,0.45
			C91.57,14.11,91.69,14.16,91.84,14.16z"/>
	</g>
	<g>
		<path class="st5" d="M4.46,20.93c0-0.33,0.07-0.58,0.21-0.76s0.34-0.26,0.6-0.26c0.26,0,0.46,0.09,0.6,0.26
			C6,20.35,6.07,20.6,6.07,20.93c0,0.32-0.07,0.57-0.21,0.75s-0.34,0.27-0.6,0.27c-0.25,0-0.45-0.09-0.6-0.26S4.46,21.26,4.46,20.93
			z"/>
	</g>
	<g>
		<path class="st5" d="M11.88,22.19c0,0.47-0.15,0.83-0.45,1.1c-0.3,0.27-0.71,0.4-1.24,0.4S9.24,23.6,8.9,23.42V22.6
			c0.21,0.11,0.44,0.2,0.68,0.27c0.24,0.06,0.46,0.1,0.67,0.1c0.3,0,0.52-0.06,0.67-0.19c0.14-0.13,0.21-0.3,0.21-0.52
			c0-0.2-0.07-0.36-0.2-0.5c-0.13-0.14-0.4-0.3-0.81-0.49c-0.42-0.19-0.72-0.42-0.9-0.67c-0.17-0.25-0.26-0.55-0.26-0.9
			c0-0.44,0.14-0.78,0.41-1.04s0.65-0.38,1.11-0.38c0.45,0,0.89,0.11,1.33,0.33l-0.24,0.7c-0.41-0.2-0.78-0.29-1.11-0.29
			c-0.25,0-0.43,0.06-0.56,0.18s-0.19,0.28-0.19,0.48c0,0.14,0.03,0.25,0.08,0.35c0.05,0.1,0.13,0.19,0.25,0.28
			c0.12,0.09,0.33,0.2,0.63,0.34c0.34,0.16,0.59,0.31,0.75,0.45c0.16,0.14,0.28,0.3,0.35,0.47C11.85,21.75,11.88,21.95,11.88,22.19z
			"/>
		<path class="st5" d="M14.85,23.62l-1.35-4.4h-0.03c0.04,0.65,0.05,1.26,0.05,1.84v2.56h-0.69v-5.26h1.07l1.29,4.19h0.02l1.33-4.19
			h1.08v5.26H16.9v-2.6c0-0.26,0.01-0.6,0.02-1.02s0.02-0.67,0.03-0.76h-0.03l-1.4,4.39H14.85z"/>
		<path class="st5" d="M22.65,19.02c-0.44,0-0.78,0.18-1.03,0.53c-0.25,0.35-0.38,0.83-0.38,1.45c0,0.65,0.12,1.13,0.36,1.46
			c0.24,0.33,0.59,0.5,1.05,0.5c0.2,0,0.39-0.02,0.57-0.07c0.18-0.04,0.38-0.1,0.58-0.17v0.74c-0.37,0.16-0.78,0.23-1.24,0.23
			c-0.68,0-1.2-0.23-1.57-0.7c-0.36-0.47-0.55-1.13-0.55-2c0-0.55,0.09-1.03,0.27-1.44c0.18-0.41,0.43-0.72,0.77-0.94
			c0.33-0.22,0.73-0.33,1.18-0.33c0.48,0,0.91,0.11,1.32,0.34l-0.27,0.72c-0.16-0.08-0.32-0.16-0.5-0.22
			C23.03,19.05,22.84,19.02,22.65,19.02z"/>
		<path class="st5" d="M27.9,21.62c0,0.65-0.15,1.16-0.44,1.52c-0.29,0.37-0.71,0.55-1.23,0.55c-0.33,0-0.62-0.08-0.87-0.25
			s-0.45-0.41-0.58-0.72s-0.2-0.68-0.2-1.09c0-0.65,0.15-1.15,0.44-1.51c0.29-0.36,0.71-0.54,1.24-0.54c0.51,0,0.91,0.19,1.21,0.56
			C27.75,20.5,27.9,20.99,27.9,21.62z M25.34,21.62c0,0.92,0.3,1.38,0.9,1.38c0.59,0,0.89-0.46,0.89-1.38c0-0.91-0.3-1.36-0.9-1.36
			c-0.31,0-0.54,0.12-0.68,0.35C25.41,20.85,25.34,21.18,25.34,21.62z"/>
		<path class="st5" d="M30.01,23.69c-0.44,0-0.78-0.18-1.03-0.54c-0.25-0.36-0.37-0.87-0.37-1.52c0-0.65,0.12-1.16,0.37-1.52
			s0.59-0.55,1.04-0.55c0.46,0,0.81,0.19,1.06,0.58h0.04c-0.04-0.29-0.05-0.51-0.05-0.68v-1.45h0.75v5.6h-0.59L31.1,23.1h-0.04
			C30.82,23.5,30.47,23.69,30.01,23.69z M30.21,23.01c0.31,0,0.53-0.1,0.67-0.29s0.21-0.51,0.22-0.95v-0.12
			c0-0.5-0.07-0.86-0.22-1.07c-0.14-0.21-0.37-0.32-0.68-0.32c-0.26,0-0.47,0.12-0.61,0.36c-0.14,0.24-0.21,0.58-0.21,1.03
			c0,0.44,0.07,0.78,0.21,1.01C29.73,22.89,29.93,23.01,30.21,23.01z"/>
		<path class="st5" d="M34.48,23.69c-0.55,0-0.98-0.18-1.28-0.54c-0.31-0.36-0.46-0.86-0.46-1.49c0-0.65,0.14-1.16,0.43-1.53
			s0.68-0.56,1.18-0.56c0.46,0,0.83,0.16,1.1,0.48s0.4,0.76,0.4,1.32v0.46H33.5c0.01,0.39,0.1,0.68,0.28,0.89
			c0.17,0.21,0.42,0.31,0.74,0.31c0.21,0,0.4-0.02,0.58-0.07c0.18-0.04,0.37-0.12,0.58-0.22v0.69c-0.18,0.1-0.37,0.17-0.55,0.21
			C34.93,23.67,34.72,23.69,34.48,23.69z M34.34,20.21c-0.24,0-0.43,0.08-0.57,0.25c-0.14,0.17-0.23,0.42-0.26,0.75h1.6
			c0-0.33-0.07-0.58-0.21-0.75C34.77,20.29,34.58,20.21,34.34,20.21z"/>
		<path class="st5" d="M41.63,21.62c0,0.65-0.15,1.16-0.44,1.52c-0.29,0.37-0.71,0.55-1.23,0.55c-0.33,0-0.62-0.08-0.87-0.25
			s-0.45-0.41-0.58-0.72s-0.2-0.68-0.2-1.09c0-0.65,0.15-1.15,0.44-1.51c0.29-0.36,0.71-0.54,1.24-0.54c0.51,0,0.91,0.19,1.21,0.56
			C41.48,20.5,41.63,20.99,41.63,21.62z M39.07,21.62c0,0.92,0.3,1.38,0.9,1.38c0.59,0,0.89-0.46,0.89-1.38
			c0-0.91-0.3-1.36-0.9-1.36c-0.31,0-0.54,0.12-0.68,0.35C39.14,20.85,39.07,21.18,39.07,21.62z"/>
		<path class="st5" d="M44.32,20.28h-0.86v3.34h-0.75v-3.34h-0.58v-0.4l0.58-0.26v-0.26c0-0.47,0.1-0.82,0.29-1.05
			c0.2-0.23,0.49-0.34,0.89-0.34c0.26,0,0.52,0.05,0.78,0.15l-0.2,0.64c-0.18-0.07-0.36-0.1-0.53-0.1c-0.17,0-0.29,0.06-0.37,0.18
			c-0.08,0.12-0.12,0.3-0.12,0.54v0.26h0.86V20.28z"/>
		<path class="st5" d="M49.44,23.62H46.8v-5.26h2.63v0.73h-1.87v1.43h1.75v0.72h-1.75v1.65h1.87V23.62z"/>
		<path class="st5" d="M51.73,23.01c0.18,0,0.37-0.03,0.55-0.1v0.64c-0.08,0.04-0.19,0.08-0.32,0.1c-0.13,0.03-0.27,0.04-0.41,0.04
			c-0.71,0-1.06-0.42-1.06-1.27v-2.15h-0.48v-0.37l0.52-0.31l0.25-0.84h0.46v0.89h1v0.64h-1v2.13c0,0.2,0.05,0.36,0.14,0.45
			C51.47,22.96,51.59,23.01,51.73,23.01z"/>
		<path class="st5" d="M56.14,23.62h-0.75v-2.45c0-0.31-0.05-0.54-0.16-0.69c-0.11-0.15-0.28-0.23-0.52-0.23
			c-0.31,0-0.54,0.11-0.69,0.32c-0.15,0.21-0.22,0.57-0.22,1.07v1.98h-0.75v-5.6h0.75v1.42c0,0.23-0.01,0.47-0.04,0.73h0.05
			c0.1-0.19,0.24-0.34,0.42-0.45c0.18-0.11,0.39-0.16,0.64-0.16c0.85,0,1.28,0.49,1.28,1.46V23.62z"/>
		<path class="st5" d="M57.2,18.58c0-0.15,0.04-0.27,0.11-0.35c0.07-0.08,0.18-0.12,0.31-0.12c0.13,0,0.23,0.04,0.31,0.12
			c0.07,0.08,0.11,0.2,0.11,0.35c0,0.14-0.04,0.26-0.11,0.34c-0.07,0.08-0.18,0.13-0.31,0.13c-0.14,0-0.24-0.04-0.31-0.13
			C57.23,18.84,57.2,18.73,57.2,18.58z M57.99,23.62h-0.75v-3.98h0.75V23.62z"/>
		<path class="st5" d="M60.54,23.69c-0.53,0-0.94-0.18-1.21-0.53s-0.42-0.86-0.42-1.51c0-0.67,0.15-1.18,0.43-1.54
			c0.29-0.36,0.71-0.54,1.26-0.54c0.37,0,0.71,0.08,1,0.23l-0.23,0.68c-0.32-0.14-0.58-0.21-0.78-0.21c-0.61,0-0.91,0.46-0.91,1.37
			c0,0.45,0.08,0.78,0.23,1.01c0.15,0.22,0.37,0.34,0.67,0.34c0.33,0,0.65-0.09,0.95-0.28v0.74c-0.13,0.09-0.28,0.15-0.43,0.19
			C60.94,23.67,60.75,23.69,60.54,23.69z"/>
		<path class="st5" d="M64.77,22.49c0,0.39-0.13,0.69-0.38,0.89c-0.25,0.21-0.61,0.31-1.08,0.31c-0.47,0-0.85-0.08-1.13-0.24v-0.73
			c0.41,0.22,0.8,0.32,1.16,0.32c0.46,0,0.69-0.16,0.69-0.47c0-0.1-0.03-0.18-0.08-0.25c-0.05-0.07-0.13-0.14-0.25-0.21
			c-0.12-0.07-0.28-0.15-0.49-0.25c-0.41-0.18-0.68-0.36-0.82-0.53s-0.21-0.41-0.21-0.69c0-0.34,0.12-0.61,0.36-0.79
			c0.24-0.19,0.57-0.28,0.99-0.28c0.41,0,0.81,0.1,1.17,0.29l-0.24,0.64c-0.38-0.18-0.7-0.27-0.96-0.27c-0.39,0-0.59,0.13-0.59,0.38
			c0,0.13,0.05,0.23,0.15,0.32c0.1,0.09,0.33,0.21,0.67,0.36c0.29,0.13,0.5,0.24,0.63,0.35c0.13,0.11,0.23,0.23,0.29,0.37
			C64.74,22.13,64.77,22.29,64.77,22.49z"/>
	</g>
	<g>
		<path class="st5" d="M4.46,29.78c0-0.33,0.07-0.58,0.21-0.76s0.34-0.26,0.6-0.26c0.26,0,0.46,0.09,0.6,0.26
			C6,29.2,6.07,29.45,6.07,29.78c0,0.32-0.07,0.57-0.21,0.75s-0.34,0.27-0.6,0.27c-0.25,0-0.45-0.09-0.6-0.26S4.46,30.11,4.46,29.78
			z"/>
	</g>
	<g>
		<path class="st5" d="M11.83,32.47H9.2v-5.26h2.63v0.73H9.96v1.43h1.75v0.72H9.96v1.65h1.87V32.47z"/>
		<path class="st5" d="M15.91,32.47h-0.75v-2.45c0-0.31-0.05-0.54-0.16-0.69c-0.11-0.15-0.28-0.23-0.52-0.23
			c-0.32,0-0.55,0.11-0.69,0.32c-0.15,0.21-0.22,0.56-0.22,1.06v1.98h-0.75v-3.98h0.59l0.1,0.52h0.04c0.11-0.19,0.26-0.34,0.45-0.44
			s0.41-0.16,0.65-0.16c0.84,0,1.27,0.49,1.27,1.46V32.47z"/>
		<path class="st5" d="M18.32,31.86c0.18,0,0.37-0.03,0.55-0.1v0.64c-0.08,0.04-0.19,0.08-0.32,0.1c-0.13,0.03-0.27,0.04-0.41,0.04
			c-0.71,0-1.06-0.42-1.06-1.27v-2.15H16.6v-0.37l0.52-0.31l0.25-0.84h0.46v0.89h1v0.64h-1v2.13c0,0.2,0.05,0.36,0.14,0.45
			C18.06,31.81,18.18,31.86,18.32,31.86z"/>
		<path class="st5" d="M21.17,32.54c-0.55,0-0.98-0.18-1.28-0.54c-0.31-0.36-0.46-0.86-0.46-1.49c0-0.65,0.14-1.16,0.43-1.53
			s0.68-0.56,1.18-0.56c0.46,0,0.83,0.16,1.1,0.48s0.4,0.76,0.4,1.32v0.46h-2.35c0.01,0.39,0.1,0.68,0.28,0.89
			c0.17,0.21,0.42,0.31,0.74,0.31c0.21,0,0.4-0.02,0.58-0.07c0.18-0.04,0.37-0.12,0.58-0.22v0.69c-0.18,0.1-0.37,0.17-0.55,0.21
			C21.63,32.52,21.41,32.54,21.17,32.54z M21.04,29.06c-0.24,0-0.43,0.08-0.57,0.25c-0.14,0.17-0.23,0.42-0.26,0.75h1.6
			c0-0.33-0.07-0.58-0.21-0.75C21.46,29.14,21.27,29.06,21.04,29.06z"/>
		<path class="st5" d="M25.24,28.41c0.15,0,0.27,0.01,0.37,0.04l-0.07,0.79c-0.11-0.03-0.22-0.04-0.33-0.04
			c-0.3,0-0.54,0.11-0.73,0.33c-0.19,0.22-0.28,0.51-0.28,0.86v2.08h-0.75v-3.98h0.59l0.1,0.7h0.04c0.12-0.24,0.27-0.43,0.46-0.57
			C24.82,28.48,25.02,28.41,25.24,28.41z"/>
		<path class="st5" d="M28.11,32.54c-0.45,0-0.79-0.18-1.04-0.54h-0.04c0.03,0.34,0.04,0.54,0.04,0.61v1.63h-0.75v-5.75h0.6
			c0.02,0.07,0.05,0.25,0.1,0.53h0.04c0.23-0.4,0.58-0.61,1.05-0.61c0.44,0,0.78,0.18,1.03,0.54c0.25,0.36,0.37,0.87,0.37,1.52
			s-0.12,1.16-0.37,1.52C28.89,32.36,28.54,32.54,28.11,32.54z M27.92,29.11c-0.3,0-0.51,0.1-0.65,0.29
			c-0.14,0.2-0.21,0.51-0.21,0.94v0.13c0,0.49,0.07,0.84,0.2,1.05c0.14,0.22,0.36,0.33,0.67,0.33c0.26,0,0.46-0.12,0.6-0.36
			c0.14-0.24,0.21-0.58,0.21-1.03c0-0.45-0.07-0.78-0.21-1.01C28.4,29.22,28.19,29.11,27.92,29.11z"/>
		<path class="st5" d="M32.23,28.41c0.15,0,0.27,0.01,0.37,0.04l-0.07,0.79c-0.11-0.03-0.22-0.04-0.33-0.04
			c-0.3,0-0.54,0.11-0.73,0.33c-0.19,0.22-0.28,0.51-0.28,0.86v2.08h-0.75v-3.98h0.59l0.1,0.7h0.04c0.12-0.24,0.27-0.43,0.46-0.57
			C31.81,28.48,32.01,28.41,32.23,28.41z"/>
		<path class="st5" d="M33.26,27.43c0-0.15,0.04-0.27,0.11-0.35c0.07-0.08,0.18-0.12,0.31-0.12c0.13,0,0.23,0.04,0.31,0.12
			c0.07,0.08,0.11,0.2,0.11,0.35c0,0.14-0.04,0.26-0.11,0.34c-0.07,0.08-0.18,0.13-0.31,0.13c-0.14,0-0.24-0.04-0.31-0.13
			C33.3,27.69,33.26,27.58,33.26,27.43z M34.06,32.47h-0.75v-3.98h0.75V32.47z"/>
		<path class="st5" d="M37.55,31.33c0,0.39-0.13,0.69-0.38,0.89c-0.25,0.21-0.61,0.31-1.08,0.31c-0.47,0-0.85-0.08-1.13-0.24v-0.73
			c0.41,0.22,0.8,0.32,1.16,0.32c0.46,0,0.69-0.16,0.69-0.47c0-0.1-0.03-0.18-0.08-0.25c-0.05-0.07-0.13-0.14-0.25-0.21
			c-0.12-0.07-0.28-0.15-0.49-0.25c-0.41-0.18-0.68-0.36-0.82-0.53s-0.21-0.41-0.21-0.69c0-0.34,0.12-0.61,0.36-0.79
			c0.24-0.19,0.57-0.28,0.99-0.28c0.41,0,0.81,0.1,1.17,0.29l-0.24,0.64c-0.38-0.18-0.7-0.27-0.96-0.27c-0.39,0-0.59,0.13-0.59,0.38
			c0,0.13,0.05,0.23,0.15,0.32c0.1,0.09,0.33,0.21,0.67,0.36c0.29,0.13,0.5,0.24,0.63,0.35c0.13,0.11,0.23,0.23,0.29,0.37
			C37.52,30.98,37.55,31.14,37.55,31.33z"/>
		<path class="st5" d="M39.96,32.54c-0.55,0-0.98-0.18-1.28-0.54c-0.31-0.36-0.46-0.86-0.46-1.49c0-0.65,0.14-1.16,0.43-1.53
			s0.68-0.56,1.18-0.56c0.46,0,0.83,0.16,1.1,0.48s0.4,0.76,0.4,1.32v0.46h-2.35c0.01,0.39,0.1,0.68,0.28,0.89
			c0.17,0.21,0.42,0.31,0.74,0.31c0.21,0,0.4-0.02,0.58-0.07c0.18-0.04,0.37-0.12,0.58-0.22v0.69c-0.18,0.1-0.37,0.17-0.55,0.21
			C40.41,32.52,40.19,32.54,39.96,32.54z M39.82,29.06c-0.24,0-0.43,0.08-0.57,0.25c-0.14,0.17-0.23,0.42-0.26,0.75h1.6
			c0-0.33-0.07-0.58-0.21-0.75C40.24,29.14,40.06,29.06,39.82,29.06z"/>
		<path class="st5" d="M44.82,30.37v2.1h-0.76v-5.26h1.31c0.6,0,1.04,0.13,1.33,0.38c0.29,0.25,0.43,0.64,0.43,1.15
			c0,0.66-0.3,1.12-0.9,1.4l1.31,2.33h-0.87l-1.11-2.1H44.82z M44.82,29.65h0.53c0.35,0,0.61-0.07,0.77-0.22s0.24-0.37,0.24-0.66
			c0-0.3-0.09-0.51-0.26-0.64c-0.17-0.13-0.43-0.19-0.78-0.19h-0.5V29.65z"/>
		<path class="st5" d="M48.17,27.43c0-0.15,0.04-0.27,0.11-0.35c0.07-0.08,0.18-0.12,0.31-0.12c0.13,0,0.23,0.04,0.31,0.12
			c0.07,0.08,0.11,0.2,0.11,0.35c0,0.14-0.04,0.26-0.11,0.34c-0.07,0.08-0.18,0.13-0.31,0.13c-0.14,0-0.24-0.04-0.31-0.13
			C48.2,27.69,48.17,27.58,48.17,27.43z M48.96,32.47h-0.75v-3.98h0.75V32.47z"/>
		<path class="st5" d="M52.45,31.33c0,0.39-0.13,0.69-0.38,0.89c-0.25,0.21-0.61,0.31-1.08,0.31c-0.47,0-0.85-0.08-1.13-0.24v-0.73
			c0.41,0.22,0.8,0.32,1.16,0.32c0.46,0,0.69-0.16,0.69-0.47c0-0.1-0.03-0.18-0.08-0.25c-0.05-0.07-0.13-0.14-0.25-0.21
			c-0.12-0.07-0.28-0.15-0.49-0.25c-0.41-0.18-0.68-0.36-0.82-0.53s-0.21-0.41-0.21-0.69c0-0.34,0.12-0.61,0.36-0.79
			c0.24-0.19,0.57-0.28,0.99-0.28c0.41,0,0.81,0.1,1.17,0.29l-0.24,0.64c-0.38-0.18-0.7-0.27-0.96-0.27c-0.39,0-0.59,0.13-0.59,0.38
			c0,0.13,0.05,0.23,0.15,0.32c0.1,0.09,0.33,0.21,0.67,0.36c0.29,0.13,0.5,0.24,0.63,0.35c0.13,0.11,0.23,0.23,0.29,0.37
			C52.42,30.98,52.45,31.14,52.45,31.33z"/>
		<path class="st5" d="M54.04,30.37l0.42-0.6l1.06-1.28h0.86l-1.42,1.71l1.51,2.27H55.6l-1.13-1.75l-0.41,0.38v1.36h-0.74v-5.6h0.74
			v2.73l-0.04,0.77H54.04z"/>
	</g>
	<g>
		<path class="st5" d="M12.33,41.31l-1.35-4.4h-0.03c0.04,0.65,0.05,1.26,0.05,1.84v2.56h-0.69v-5.26h1.07l1.29,4.19h0.02l1.33-4.19
			h1.08v5.26h-0.73v-2.6c0-0.26,0.01-0.6,0.02-1.02s0.02-0.67,0.03-0.76H14.4l-1.4,4.39H12.33z"/>
		<path class="st5" d="M18.52,41.31l-0.15-0.55h-0.03c-0.17,0.24-0.34,0.41-0.51,0.5c-0.17,0.09-0.39,0.13-0.66,0.13
			c-0.35,0-0.62-0.11-0.81-0.32c-0.19-0.21-0.29-0.51-0.29-0.9c0-0.41,0.13-0.72,0.4-0.93c0.27-0.21,0.68-0.32,1.23-0.34l0.61-0.02
			v-0.21c0-0.25-0.05-0.45-0.16-0.57s-0.27-0.19-0.49-0.19c-0.18,0-0.35,0.03-0.52,0.09c-0.17,0.06-0.32,0.13-0.48,0.21l-0.24-0.61
			c0.19-0.11,0.4-0.2,0.63-0.26s0.44-0.09,0.64-0.09c0.45,0,0.79,0.11,1.01,0.33c0.23,0.22,0.34,0.57,0.34,1.04v2.68H18.52z
			 M17.41,40.74c0.27,0,0.49-0.09,0.65-0.26c0.16-0.17,0.25-0.41,0.25-0.72v-0.35l-0.45,0.02c-0.35,0.01-0.61,0.08-0.77,0.2
			c-0.16,0.12-0.24,0.3-0.24,0.55c0,0.18,0.05,0.31,0.14,0.41C17.08,40.69,17.22,40.74,17.41,40.74z"/>
		<path class="st5" d="M23.26,41.31H22.5v-2.45c0-0.31-0.05-0.54-0.16-0.69c-0.11-0.15-0.28-0.23-0.52-0.23
			c-0.32,0-0.55,0.11-0.69,0.32c-0.15,0.21-0.22,0.56-0.22,1.06v1.98h-0.75v-3.98h0.59l0.1,0.52h0.04c0.11-0.19,0.26-0.34,0.45-0.44
			s0.41-0.16,0.65-0.16c0.84,0,1.27,0.49,1.27,1.46V41.31z"/>
		<path class="st5" d="M26.56,41.31l-0.15-0.55h-0.03c-0.17,0.24-0.34,0.41-0.51,0.5c-0.17,0.09-0.39,0.13-0.66,0.13
			c-0.35,0-0.62-0.11-0.81-0.32c-0.19-0.21-0.29-0.51-0.29-0.9c0-0.41,0.13-0.72,0.4-0.93c0.27-0.21,0.68-0.32,1.23-0.34l0.61-0.02
			v-0.21c0-0.25-0.05-0.45-0.16-0.57s-0.27-0.19-0.49-0.19c-0.18,0-0.35,0.03-0.52,0.09c-0.17,0.06-0.32,0.13-0.48,0.21l-0.24-0.61
			c0.19-0.11,0.4-0.2,0.63-0.26s0.44-0.09,0.64-0.09c0.45,0,0.79,0.11,1.01,0.33c0.23,0.22,0.34,0.57,0.34,1.04v2.68H26.56z
			 M25.44,40.74c0.27,0,0.49-0.09,0.65-0.26c0.16-0.17,0.25-0.41,0.25-0.72v-0.35l-0.45,0.02c-0.35,0.01-0.61,0.08-0.77,0.2
			c-0.16,0.12-0.24,0.3-0.24,0.55c0,0.18,0.05,0.31,0.14,0.41C25.12,40.69,25.26,40.74,25.44,40.74z"/>
		<path class="st5" d="M31.17,37.33v0.46l-0.6,0.13c0.06,0.08,0.1,0.19,0.14,0.31c0.04,0.12,0.05,0.25,0.05,0.39
			c0,0.41-0.13,0.73-0.38,0.97c-0.25,0.24-0.6,0.35-1.03,0.35c-0.11,0-0.21-0.01-0.31-0.03c-0.16,0.11-0.24,0.25-0.24,0.4
			c0,0.09,0.04,0.16,0.11,0.21c0.08,0.04,0.21,0.07,0.42,0.07h0.61c0.39,0,0.68,0.09,0.89,0.28c0.2,0.19,0.3,0.46,0.3,0.81
			c0,0.45-0.16,0.8-0.49,1.04c-0.33,0.24-0.8,0.37-1.43,0.37c-0.48,0-0.85-0.1-1.1-0.29c-0.25-0.19-0.38-0.47-0.38-0.82
			c0-0.24,0.07-0.45,0.21-0.62c0.14-0.17,0.33-0.28,0.57-0.35c-0.1-0.05-0.18-0.13-0.25-0.23c-0.06-0.11-0.1-0.22-0.1-0.34
			c0-0.15,0.04-0.27,0.11-0.38s0.18-0.21,0.33-0.31c-0.18-0.09-0.33-0.23-0.44-0.43c-0.11-0.2-0.17-0.43-0.17-0.7
			c0-0.43,0.12-0.77,0.36-1c0.24-0.24,0.58-0.36,1.03-0.36c0.1,0,0.2,0.01,0.31,0.02s0.19,0.03,0.25,0.05H31.17z M28.4,41.93
			c0,0.18,0.07,0.32,0.22,0.42c0.15,0.1,0.35,0.15,0.61,0.15c0.41,0,0.71-0.07,0.91-0.2s0.3-0.31,0.3-0.53
			c0-0.17-0.05-0.3-0.16-0.37s-0.31-0.11-0.61-0.11H29.1c-0.21,0-0.38,0.06-0.51,0.17C28.46,41.58,28.4,41.74,28.4,41.93z
			 M28.72,38.62c0,0.25,0.06,0.44,0.17,0.58c0.11,0.13,0.28,0.2,0.49,0.2c0.43,0,0.65-0.26,0.65-0.79c0-0.26-0.05-0.46-0.16-0.6
			c-0.11-0.14-0.27-0.21-0.49-0.21c-0.22,0-0.38,0.07-0.49,0.21C28.78,38.15,28.72,38.36,28.72,38.62z"/>
		<path class="st5" d="M33.42,41.39c-0.55,0-0.98-0.18-1.28-0.54c-0.31-0.36-0.46-0.86-0.46-1.49c0-0.65,0.14-1.16,0.43-1.53
			s0.68-0.56,1.18-0.56c0.46,0,0.83,0.16,1.1,0.48s0.4,0.76,0.4,1.32v0.46h-2.35c0.01,0.39,0.1,0.68,0.28,0.89
			c0.17,0.21,0.42,0.31,0.74,0.31c0.21,0,0.4-0.02,0.58-0.07c0.18-0.04,0.37-0.12,0.58-0.22v0.69c-0.18,0.1-0.37,0.17-0.55,0.21
			C33.87,41.37,33.66,41.39,33.42,41.39z M33.28,37.9c-0.24,0-0.43,0.08-0.57,0.25c-0.14,0.17-0.23,0.42-0.26,0.75h1.6
			c0-0.33-0.07-0.58-0.21-0.75C33.7,37.99,33.52,37.9,33.28,37.9z"/>
		<path class="st5" d="M38.66,41.31h-0.75v-2.46c0-0.3-0.05-0.53-0.15-0.68c-0.1-0.15-0.26-0.23-0.48-0.23
			c-0.29,0-0.5,0.11-0.64,0.32c-0.13,0.21-0.2,0.57-0.2,1.06v1.98h-0.75v-3.98h0.59l0.1,0.52h0.04c0.1-0.19,0.24-0.34,0.42-0.44
			c0.19-0.1,0.39-0.16,0.61-0.16c0.54,0,0.9,0.21,1.08,0.63h0.05c0.1-0.2,0.25-0.35,0.44-0.46s0.41-0.17,0.65-0.17
			c0.42,0,0.73,0.12,0.92,0.36c0.19,0.24,0.29,0.61,0.29,1.1v2.6h-0.75v-2.46c0-0.3-0.05-0.53-0.15-0.68
			c-0.1-0.15-0.26-0.23-0.48-0.23c-0.29,0-0.5,0.1-0.64,0.31s-0.2,0.52-0.2,0.95V41.31z"/>
		<path class="st5" d="M43.52,41.39c-0.55,0-0.98-0.18-1.28-0.54c-0.31-0.36-0.46-0.86-0.46-1.49c0-0.65,0.14-1.16,0.43-1.53
			s0.68-0.56,1.18-0.56c0.46,0,0.83,0.16,1.1,0.48s0.4,0.76,0.4,1.32v0.46h-2.35c0.01,0.39,0.1,0.68,0.28,0.89
			c0.17,0.21,0.42,0.31,0.74,0.31c0.21,0,0.4-0.02,0.58-0.07c0.18-0.04,0.37-0.12,0.58-0.22v0.69c-0.18,0.1-0.37,0.17-0.55,0.21
			C43.98,41.37,43.76,41.39,43.52,41.39z M43.39,37.9c-0.24,0-0.43,0.08-0.57,0.25c-0.14,0.17-0.23,0.42-0.26,0.75h1.6
			c0-0.33-0.07-0.58-0.21-0.75C43.81,37.99,43.62,37.9,43.39,37.9z"/>
		<path class="st5" d="M48.9,41.31h-0.75v-2.45c0-0.31-0.05-0.54-0.16-0.69c-0.11-0.15-0.28-0.23-0.52-0.23
			c-0.32,0-0.55,0.11-0.69,0.32c-0.15,0.21-0.22,0.56-0.22,1.06v1.98H45.8v-3.98h0.59l0.1,0.52h0.04c0.11-0.19,0.26-0.34,0.45-0.44
			s0.41-0.16,0.65-0.16c0.84,0,1.27,0.49,1.27,1.46V41.31z"/>
		<path class="st5" d="M51.31,40.7c0.18,0,0.37-0.03,0.55-0.1v0.64c-0.08,0.04-0.19,0.08-0.32,0.1c-0.13,0.03-0.27,0.04-0.41,0.04
			c-0.71,0-1.06-0.42-1.06-1.27v-2.15h-0.48V37.6l0.52-0.31l0.25-0.84h0.46v0.89h1v0.64h-1v2.13c0,0.2,0.05,0.36,0.14,0.45
			C51.04,40.65,51.16,40.7,51.31,40.7z"/>
	</g>
	<g>
		<path class="st5" d="M4.46,47.47c0-0.33,0.07-0.58,0.21-0.76s0.34-0.26,0.6-0.26c0.26,0,0.46,0.09,0.6,0.26
			c0.14,0.17,0.21,0.42,0.21,0.75c0,0.32-0.07,0.57-0.21,0.75s-0.34,0.27-0.6,0.27c-0.25,0-0.45-0.09-0.6-0.26S4.46,47.8,4.46,47.47
			z"/>
		<path class="st5" d="M12.59,50.16h-0.76v-2.37H9.68v2.37H8.92V44.9h0.76v2.15h2.15V44.9h0.76V50.16z"/>
		<path class="st5" d="M16.27,50.16l-0.1-0.52h-0.04c-0.1,0.18-0.25,0.33-0.44,0.44c-0.19,0.11-0.41,0.16-0.66,0.16
			c-0.43,0-0.74-0.12-0.96-0.36c-0.21-0.24-0.31-0.6-0.31-1.09v-2.6h0.75v2.46c0,0.3,0.06,0.53,0.17,0.69s0.28,0.23,0.52,0.23
			c0.31,0,0.54-0.11,0.69-0.32c0.15-0.21,0.22-0.57,0.22-1.07v-1.98h0.75v3.98H16.27z"/>
		<path class="st5" d="M20.95,50.16H20.2v-2.46c0-0.3-0.05-0.53-0.15-0.68c-0.1-0.15-0.26-0.23-0.48-0.23
			c-0.29,0-0.5,0.11-0.64,0.32c-0.13,0.21-0.2,0.57-0.2,1.06v1.98h-0.75v-3.98h0.59l0.1,0.52h0.04c0.1-0.19,0.24-0.34,0.42-0.44
			c0.19-0.1,0.39-0.16,0.61-0.16c0.54,0,0.9,0.21,1.08,0.63h0.05c0.1-0.2,0.25-0.35,0.44-0.46s0.41-0.17,0.65-0.17
			c0.42,0,0.73,0.12,0.92,0.36c0.19,0.24,0.29,0.61,0.29,1.1v2.6h-0.75v-2.46c0-0.3-0.05-0.53-0.15-0.68
			c-0.1-0.15-0.26-0.23-0.48-0.23c-0.29,0-0.5,0.1-0.64,0.31s-0.2,0.52-0.2,0.95V50.16z"/>
		<path class="st5" d="M26.48,50.16l-0.15-0.55h-0.03c-0.17,0.24-0.34,0.41-0.51,0.5c-0.17,0.09-0.39,0.13-0.66,0.13
			c-0.35,0-0.62-0.11-0.81-0.32c-0.19-0.21-0.29-0.51-0.29-0.9c0-0.41,0.13-0.72,0.4-0.93c0.27-0.21,0.68-0.32,1.23-0.34l0.61-0.02
			v-0.21c0-0.25-0.05-0.45-0.16-0.57s-0.27-0.19-0.49-0.19c-0.18,0-0.35,0.03-0.52,0.09c-0.17,0.06-0.32,0.13-0.48,0.21l-0.24-0.61
			c0.19-0.11,0.4-0.2,0.63-0.26s0.44-0.09,0.64-0.09c0.45,0,0.79,0.11,1.01,0.33c0.23,0.22,0.34,0.57,0.34,1.04v2.68H26.48z
			 M25.37,49.58c0.27,0,0.49-0.09,0.65-0.26c0.16-0.17,0.25-0.41,0.25-0.72v-0.35l-0.45,0.02c-0.35,0.01-0.61,0.08-0.77,0.2
			c-0.16,0.12-0.24,0.3-0.24,0.55c0,0.18,0.05,0.31,0.14,0.41C25.04,49.54,25.18,49.58,25.37,49.58z"/>
		<path class="st5" d="M31.22,50.16h-0.75v-2.45c0-0.31-0.05-0.54-0.16-0.69c-0.11-0.15-0.28-0.23-0.52-0.23
			c-0.32,0-0.55,0.11-0.69,0.32c-0.15,0.21-0.22,0.56-0.22,1.06v1.98h-0.75v-3.98h0.59l0.1,0.52h0.04c0.11-0.19,0.26-0.34,0.45-0.44
			s0.41-0.16,0.65-0.16c0.84,0,1.27,0.49,1.27,1.46V50.16z"/>
		<path class="st5" d="M36.27,50.16l-0.15-0.55H36.1c-0.17,0.24-0.34,0.41-0.51,0.5c-0.17,0.09-0.39,0.13-0.66,0.13
			c-0.35,0-0.62-0.11-0.81-0.32c-0.19-0.21-0.29-0.51-0.29-0.9c0-0.41,0.13-0.72,0.4-0.93c0.27-0.21,0.68-0.32,1.23-0.34l0.61-0.02
			v-0.21c0-0.25-0.05-0.45-0.16-0.57s-0.27-0.19-0.49-0.19c-0.18,0-0.35,0.03-0.52,0.09c-0.17,0.06-0.32,0.13-0.48,0.21l-0.24-0.61
			c0.19-0.11,0.4-0.2,0.63-0.26s0.44-0.09,0.64-0.09c0.45,0,0.79,0.11,1.01,0.33c0.23,0.22,0.34,0.57,0.34,1.04v2.68H36.27z
			 M35.16,49.58c0.27,0,0.49-0.09,0.65-0.26c0.16-0.17,0.25-0.41,0.25-0.72v-0.35l-0.45,0.02c-0.35,0.01-0.61,0.08-0.77,0.2
			c-0.16,0.12-0.24,0.3-0.24,0.55c0,0.18,0.05,0.31,0.14,0.41C34.83,49.54,34.97,49.58,35.16,49.58z"/>
		<path class="st5" d="M41.01,50.16h-0.75v-2.45c0-0.31-0.05-0.54-0.16-0.69c-0.11-0.15-0.28-0.23-0.52-0.23
			c-0.32,0-0.55,0.11-0.69,0.32c-0.15,0.21-0.22,0.56-0.22,1.06v1.98h-0.75v-3.98h0.59l0.1,0.52h0.04c0.11-0.19,0.26-0.34,0.45-0.44
			s0.41-0.16,0.65-0.16c0.84,0,1.27,0.49,1.27,1.46V50.16z"/>
		<path class="st5" d="M43.29,50.23c-0.44,0-0.78-0.18-1.03-0.54c-0.25-0.36-0.37-0.87-0.37-1.52c0-0.65,0.12-1.16,0.37-1.52
			s0.59-0.55,1.04-0.55c0.46,0,0.81,0.19,1.06,0.58h0.04c-0.04-0.29-0.05-0.51-0.05-0.68v-1.45h0.75v5.6h-0.59l-0.13-0.52h-0.04
			C44.11,50.04,43.76,50.23,43.29,50.23z M43.49,49.55c0.31,0,0.53-0.1,0.67-0.29s0.21-0.51,0.22-0.95v-0.12
			c0-0.5-0.07-0.86-0.22-1.07c-0.14-0.21-0.37-0.32-0.68-0.32c-0.26,0-0.47,0.12-0.61,0.36c-0.14,0.24-0.21,0.58-0.21,1.03
			c0,0.44,0.07,0.78,0.21,1.01C43.01,49.43,43.22,49.55,43.49,49.55z"/>
		<path class="st5" d="M48.06,50.16V44.9h0.76v4.52h1.97v0.74H48.06z"/>
		<path class="st5" d="M53.77,50.16l-0.15-0.55H53.6c-0.17,0.24-0.34,0.41-0.51,0.5c-0.17,0.09-0.39,0.13-0.66,0.13
			c-0.35,0-0.62-0.11-0.81-0.32c-0.19-0.21-0.29-0.51-0.29-0.9c0-0.41,0.13-0.72,0.4-0.93c0.27-0.21,0.68-0.32,1.23-0.34l0.61-0.02
			v-0.21c0-0.25-0.05-0.45-0.16-0.57s-0.27-0.19-0.49-0.19c-0.18,0-0.35,0.03-0.52,0.09c-0.17,0.06-0.32,0.13-0.48,0.21l-0.24-0.61
			c0.19-0.11,0.4-0.2,0.63-0.26s0.44-0.09,0.64-0.09c0.45,0,0.79,0.11,1.01,0.33c0.23,0.22,0.34,0.57,0.34,1.04v2.68H53.77z
			 M52.66,49.58c0.27,0,0.49-0.09,0.65-0.26c0.16-0.17,0.25-0.41,0.25-0.72v-0.35l-0.45,0.02c-0.35,0.01-0.61,0.08-0.77,0.2
			c-0.16,0.12-0.24,0.3-0.24,0.55c0,0.18,0.05,0.31,0.14,0.41C52.33,49.54,52.47,49.58,52.66,49.58z"/>
		<path class="st5" d="M57.21,46.11c0.44,0,0.78,0.18,1.03,0.54c0.25,0.36,0.37,0.87,0.37,1.52c0,0.65-0.12,1.16-0.37,1.52
			c-0.25,0.36-0.59,0.55-1.03,0.55c-0.45,0-0.79-0.18-1.04-0.54h-0.05l-0.14,0.47h-0.56v-5.6h0.75v1.33c0,0.1,0,0.25-0.01,0.44
			c-0.01,0.19-0.01,0.32-0.02,0.37h0.03C56.4,46.31,56.75,46.11,57.21,46.11z M57.02,46.8c-0.3,0-0.52,0.1-0.65,0.3
			c-0.13,0.2-0.2,0.54-0.21,1.01v0.06c0,0.49,0.07,0.84,0.2,1.05c0.14,0.22,0.36,0.33,0.67,0.33c0.27,0,0.47-0.12,0.6-0.36
			c0.14-0.24,0.21-0.58,0.21-1.03C57.84,47.25,57.56,46.8,57.02,46.8z"/>
		<path class="st5" d="M62.65,48.16c0,0.65-0.15,1.16-0.44,1.52c-0.29,0.37-0.71,0.55-1.23,0.55c-0.33,0-0.62-0.08-0.87-0.25
			s-0.45-0.41-0.58-0.72s-0.2-0.68-0.2-1.09c0-0.65,0.15-1.15,0.44-1.51c0.29-0.36,0.71-0.54,1.24-0.54c0.51,0,0.91,0.19,1.21,0.56
			C62.51,47.04,62.65,47.53,62.65,48.16z M60.09,48.16c0,0.92,0.3,1.38,0.9,1.38c0.59,0,0.89-0.46,0.89-1.38
			c0-0.91-0.3-1.36-0.9-1.36c-0.31,0-0.54,0.12-0.68,0.35C60.16,47.39,60.09,47.72,60.09,48.16z"/>
		<path class="st5" d="M65.36,46.11c0.15,0,0.27,0.01,0.37,0.04l-0.07,0.79c-0.11-0.03-0.22-0.04-0.33-0.04
			c-0.3,0-0.54,0.11-0.73,0.33c-0.19,0.22-0.28,0.51-0.28,0.86v2.08h-0.75v-3.98h0.59l0.1,0.7h0.04c0.12-0.24,0.27-0.43,0.46-0.57
			C64.94,46.18,65.14,46.11,65.36,46.11z"/>
		<path class="st5" d="M69.03,48.06v2.1h-0.76V44.9h1.31c0.6,0,1.04,0.13,1.33,0.38c0.29,0.25,0.43,0.64,0.43,1.15
			c0,0.66-0.3,1.12-0.9,1.4l1.31,2.33H70.9l-1.11-2.1H69.03z M69.03,47.35h0.53c0.35,0,0.61-0.07,0.77-0.22s0.24-0.37,0.24-0.66
			c0-0.3-0.09-0.51-0.26-0.64c-0.17-0.13-0.43-0.19-0.78-0.19h-0.5V47.35z"/>
		<path class="st5" d="M72.38,45.13c0-0.15,0.04-0.27,0.11-0.35c0.07-0.08,0.18-0.12,0.31-0.12c0.13,0,0.23,0.04,0.31,0.12
			c0.07,0.08,0.11,0.2,0.11,0.35c0,0.14-0.04,0.26-0.11,0.34c-0.07,0.08-0.18,0.13-0.31,0.13c-0.14,0-0.24-0.04-0.31-0.13
			C72.41,45.38,72.38,45.27,72.38,45.13z M73.17,50.16h-0.75v-3.98h0.75V50.16z"/>
		<path class="st5" d="M77.27,46.18v0.46l-0.6,0.13c0.06,0.08,0.1,0.19,0.14,0.31c0.04,0.12,0.05,0.25,0.05,0.39
			c0,0.41-0.13,0.73-0.38,0.97c-0.25,0.24-0.6,0.35-1.03,0.35c-0.11,0-0.21-0.01-0.31-0.03c-0.16,0.11-0.24,0.25-0.24,0.4
			c0,0.09,0.04,0.16,0.11,0.21c0.08,0.04,0.21,0.07,0.42,0.07h0.61c0.39,0,0.68,0.09,0.89,0.28c0.2,0.19,0.3,0.46,0.3,0.81
			c0,0.45-0.16,0.8-0.49,1.04c-0.33,0.24-0.8,0.37-1.43,0.37c-0.48,0-0.85-0.1-1.1-0.29c-0.25-0.19-0.38-0.47-0.38-0.82
			c0-0.24,0.07-0.45,0.21-0.62c0.14-0.17,0.33-0.28,0.57-0.35c-0.1-0.05-0.18-0.13-0.25-0.23c-0.06-0.11-0.1-0.22-0.1-0.34
			c0-0.15,0.04-0.27,0.11-0.38s0.18-0.21,0.33-0.31c-0.18-0.09-0.33-0.23-0.44-0.43c-0.11-0.2-0.17-0.43-0.17-0.7
			c0-0.43,0.12-0.77,0.36-1c0.24-0.24,0.58-0.36,1.03-0.36c0.1,0,0.2,0.01,0.31,0.02s0.19,0.03,0.25,0.05H77.27z M74.5,50.78
			c0,0.18,0.07,0.32,0.22,0.42c0.15,0.1,0.35,0.15,0.61,0.15c0.41,0,0.71-0.07,0.91-0.2s0.3-0.31,0.3-0.53
			c0-0.17-0.05-0.3-0.16-0.37s-0.31-0.11-0.61-0.11H75.2c-0.21,0-0.38,0.06-0.51,0.17C74.57,50.43,74.5,50.59,74.5,50.78z
			 M74.82,47.47c0,0.25,0.06,0.44,0.17,0.58c0.11,0.13,0.28,0.2,0.49,0.2c0.43,0,0.65-0.26,0.65-0.79c0-0.26-0.05-0.46-0.16-0.6
			c-0.11-0.14-0.27-0.21-0.49-0.21c-0.22,0-0.38,0.07-0.49,0.21C74.88,47,74.82,47.2,74.82,47.47z"/>
		<path class="st5" d="M81.08,50.16h-0.75v-2.45c0-0.31-0.05-0.54-0.16-0.69c-0.11-0.15-0.28-0.23-0.52-0.23
			c-0.31,0-0.54,0.11-0.69,0.32c-0.15,0.21-0.22,0.57-0.22,1.07v1.98h-0.75v-5.6h0.75v1.42c0,0.23-0.01,0.47-0.04,0.73h0.05
			c0.1-0.19,0.24-0.34,0.42-0.45c0.18-0.11,0.39-0.16,0.64-0.16c0.85,0,1.28,0.49,1.28,1.46V50.16z"/>
		<path class="st5" d="M83.49,49.55c0.18,0,0.37-0.03,0.55-0.1v0.64c-0.08,0.04-0.19,0.08-0.32,0.1c-0.13,0.03-0.27,0.04-0.41,0.04
			c-0.71,0-1.06-0.42-1.06-1.27v-2.15h-0.48v-0.37l0.52-0.31l0.25-0.84H83v0.89h1v0.64h-1v2.13c0,0.2,0.05,0.36,0.14,0.45
			C83.22,49.5,83.34,49.55,83.49,49.55z"/>
		<path class="st5" d="M87.16,49.03c0,0.39-0.13,0.69-0.38,0.89c-0.25,0.21-0.61,0.31-1.08,0.31c-0.47,0-0.85-0.08-1.13-0.24v-0.73
			c0.41,0.22,0.8,0.32,1.16,0.32c0.46,0,0.69-0.16,0.69-0.47c0-0.1-0.03-0.18-0.08-0.25c-0.05-0.07-0.13-0.14-0.25-0.21
			c-0.12-0.07-0.28-0.15-0.49-0.25c-0.41-0.18-0.68-0.36-0.82-0.53s-0.21-0.41-0.21-0.69c0-0.34,0.12-0.61,0.36-0.79
			c0.24-0.19,0.57-0.28,0.99-0.28c0.41,0,0.81,0.1,1.17,0.29l-0.24,0.64c-0.38-0.18-0.7-0.27-0.96-0.27c-0.39,0-0.59,0.13-0.59,0.38
			c0,0.13,0.05,0.23,0.15,0.32c0.1,0.09,0.33,0.21,0.67,0.36c0.29,0.13,0.5,0.24,0.63,0.35c0.13,0.11,0.23,0.23,0.29,0.37
			C87.13,48.67,87.16,48.83,87.16,49.03z"/>
	</g>
	<g>
		<path class="st5" d="M4.46,56.32c0-0.33,0.07-0.58,0.21-0.76s0.34-0.26,0.6-0.26c0.26,0,0.46,0.09,0.6,0.26
			c0.14,0.17,0.21,0.42,0.21,0.75c0,0.32-0.07,0.57-0.21,0.75s-0.34,0.27-0.6,0.27c-0.25,0-0.45-0.09-0.6-0.26
			S4.46,56.65,4.46,56.32z"/>
	</g>
	<g>
		<path class="st5" d="M12.09,59.01l-0.46-1.46H9.84l-0.46,1.46h-0.8l1.74-5.28h0.83l1.74,5.28H12.09z M11.42,56.8l-0.44-1.43
			c-0.03-0.1-0.08-0.25-0.13-0.45c-0.06-0.21-0.1-0.36-0.12-0.45c-0.06,0.29-0.14,0.62-0.25,0.97l-0.42,1.37H11.42z"/>
		<path class="st5" d="M16.59,59.01h-0.75v-2.45c0-0.31-0.05-0.54-0.16-0.69c-0.11-0.15-0.28-0.23-0.52-0.23
			c-0.32,0-0.55,0.11-0.69,0.32c-0.15,0.21-0.22,0.56-0.22,1.06v1.98h-0.75v-3.98h0.59l0.1,0.52h0.04c0.11-0.19,0.26-0.34,0.45-0.44
			s0.41-0.16,0.65-0.16c0.84,0,1.27,0.49,1.27,1.46V59.01z"/>
		<path class="st5" d="M19,58.4c0.18,0,0.37-0.03,0.55-0.1v0.64c-0.08,0.04-0.19,0.08-0.32,0.1c-0.13,0.03-0.27,0.04-0.41,0.04
			c-0.71,0-1.06-0.42-1.06-1.27v-2.15h-0.48v-0.37l0.52-0.31l0.25-0.84h0.46v0.89h1v0.64h-1v2.13c0,0.2,0.05,0.36,0.14,0.45
			C18.73,58.35,18.85,58.4,19,58.4z"/>
		<path class="st5" d="M20.26,53.97c0-0.15,0.04-0.27,0.11-0.35c0.07-0.08,0.18-0.12,0.31-0.12c0.13,0,0.23,0.04,0.31,0.12
			c0.07,0.08,0.11,0.2,0.11,0.35c0,0.14-0.04,0.26-0.11,0.34c-0.07,0.08-0.18,0.13-0.31,0.13c-0.14,0-0.24-0.04-0.31-0.13
			C20.3,54.23,20.26,54.12,20.26,53.97z M21.05,59.01h-0.75v-3.98h0.75V59.01z"/>
		<path class="st5" d="M21.88,57.39v-0.72h1.64v0.72H21.88z"/>
		<path class="st5" d="M25.76,59.08c-0.53,0-0.94-0.18-1.21-0.53s-0.42-0.86-0.42-1.51c0-0.67,0.15-1.18,0.43-1.54
			c0.29-0.36,0.71-0.54,1.26-0.54c0.37,0,0.71,0.08,1,0.23l-0.23,0.68c-0.32-0.14-0.58-0.21-0.78-0.21c-0.61,0-0.91,0.46-0.91,1.37
			c0,0.45,0.08,0.78,0.23,1.01c0.15,0.22,0.37,0.34,0.67,0.34c0.33,0,0.65-0.09,0.95-0.28v0.74c-0.13,0.09-0.28,0.15-0.43,0.19
			C26.16,59.06,25.98,59.08,25.76,59.08z"/>
		<path class="st5" d="M30.75,57.01c0,0.65-0.15,1.16-0.44,1.52c-0.29,0.37-0.71,0.55-1.23,0.55c-0.33,0-0.62-0.08-0.87-0.25
			s-0.45-0.41-0.58-0.72s-0.2-0.68-0.2-1.09c0-0.65,0.15-1.15,0.44-1.51c0.29-0.36,0.71-0.54,1.24-0.54c0.51,0,0.91,0.19,1.21,0.56
			C30.6,55.88,30.75,56.38,30.75,57.01z M28.19,57.01c0,0.92,0.3,1.38,0.9,1.38c0.59,0,0.89-0.46,0.89-1.38
			c0-0.91-0.3-1.36-0.9-1.36c-0.31,0-0.54,0.12-0.68,0.35C28.26,56.23,28.19,56.57,28.19,57.01z"/>
		<path class="st5" d="M33.45,54.95c0.15,0,0.27,0.01,0.37,0.04l-0.07,0.79c-0.11-0.03-0.22-0.04-0.33-0.04
			c-0.3,0-0.54,0.11-0.73,0.33c-0.19,0.22-0.28,0.51-0.28,0.86v2.08h-0.75v-3.98h0.59l0.1,0.7h0.04c0.12-0.24,0.27-0.43,0.46-0.57
			C33.03,55.02,33.24,54.95,33.45,54.95z"/>
		<path class="st5" d="M36.32,54.95c0.15,0,0.27,0.01,0.37,0.04l-0.07,0.79c-0.11-0.03-0.22-0.04-0.33-0.04
			c-0.3,0-0.54,0.11-0.73,0.33c-0.19,0.22-0.28,0.51-0.28,0.86v2.08h-0.75v-3.98h0.59l0.1,0.7h0.04c0.12-0.24,0.27-0.43,0.46-0.57
			C35.9,55.02,36.11,54.95,36.32,54.95z"/>
		<path class="st5" d="M39.89,59.01l-0.1-0.52h-0.04c-0.1,0.18-0.25,0.33-0.44,0.44c-0.19,0.11-0.41,0.16-0.66,0.16
			c-0.43,0-0.74-0.12-0.96-0.36c-0.21-0.24-0.31-0.6-0.31-1.09v-2.6h0.75v2.46c0,0.3,0.06,0.53,0.17,0.69s0.28,0.23,0.52,0.23
			c0.31,0,0.54-0.11,0.69-0.32c0.15-0.21,0.22-0.57,0.22-1.07v-1.98h0.75v3.98H39.89z"/>
		<path class="st5" d="M43.39,59.08c-0.45,0-0.79-0.18-1.04-0.54h-0.04c0.03,0.34,0.04,0.54,0.04,0.61v1.63H41.6v-5.75h0.6
			c0.02,0.07,0.05,0.25,0.1,0.53h0.04c0.23-0.4,0.58-0.61,1.05-0.61c0.44,0,0.78,0.18,1.03,0.54c0.25,0.36,0.37,0.87,0.37,1.52
			s-0.12,1.16-0.37,1.52C44.17,58.9,43.83,59.08,43.39,59.08z M43.21,55.65c-0.3,0-0.51,0.1-0.65,0.29
			c-0.14,0.2-0.21,0.51-0.21,0.94v0.13c0,0.49,0.07,0.84,0.2,1.05c0.14,0.22,0.36,0.33,0.67,0.33c0.26,0,0.46-0.12,0.6-0.36
			c0.14-0.24,0.21-0.58,0.21-1.03c0-0.45-0.07-0.78-0.21-1.01C43.68,55.76,43.48,55.65,43.21,55.65z"/>
		<path class="st5" d="M47.03,58.4c0.18,0,0.37-0.03,0.55-0.1v0.64c-0.08,0.04-0.19,0.08-0.32,0.1c-0.13,0.03-0.27,0.04-0.41,0.04
			c-0.71,0-1.06-0.42-1.06-1.27v-2.15h-0.48v-0.37l0.52-0.31l0.25-0.84h0.46v0.89h1v0.64h-1v2.13c0,0.2,0.05,0.36,0.14,0.45
			C46.77,58.35,46.89,58.4,47.03,58.4z"/>
		<path class="st5" d="M48.3,53.97c0-0.15,0.04-0.27,0.11-0.35c0.07-0.08,0.18-0.12,0.31-0.12c0.13,0,0.23,0.04,0.31,0.12
			c0.07,0.08,0.11,0.2,0.11,0.35c0,0.14-0.04,0.26-0.11,0.34c-0.07,0.08-0.18,0.13-0.31,0.13c-0.14,0-0.24-0.04-0.31-0.13
			C48.34,54.23,48.3,54.12,48.3,53.97z M49.09,59.01h-0.75v-3.98h0.75V59.01z"/>
		<path class="st5" d="M53.34,57.01c0,0.65-0.15,1.16-0.44,1.52c-0.29,0.37-0.71,0.55-1.23,0.55c-0.33,0-0.62-0.08-0.87-0.25
			s-0.45-0.41-0.58-0.72s-0.2-0.68-0.2-1.09c0-0.65,0.15-1.15,0.44-1.51c0.29-0.36,0.71-0.54,1.24-0.54c0.51,0,0.91,0.19,1.21,0.56
			C53.19,55.88,53.34,56.38,53.34,57.01z M50.78,57.01c0,0.92,0.3,1.38,0.9,1.38c0.59,0,0.89-0.46,0.89-1.38
			c0-0.91-0.3-1.36-0.9-1.36c-0.31,0-0.54,0.12-0.68,0.35C50.85,56.23,50.78,56.57,50.78,57.01z"/>
		<path class="st5" d="M57.36,59.01h-0.75v-2.45c0-0.31-0.05-0.54-0.16-0.69c-0.11-0.15-0.28-0.23-0.52-0.23
			c-0.32,0-0.55,0.11-0.69,0.32c-0.15,0.21-0.22,0.56-0.22,1.06v1.98h-0.75v-3.98h0.59l0.1,0.52h0.04c0.11-0.19,0.26-0.34,0.45-0.44
			s0.41-0.16,0.65-0.16c0.84,0,1.27,0.49,1.27,1.46V59.01z"/>
		<path class="st5" d="M63.37,55.34c0,0.55-0.16,0.97-0.48,1.26s-0.77,0.44-1.36,0.44h-0.48v1.97h-0.76v-5.26h1.34
			c0.58,0,1.02,0.13,1.31,0.4S63.37,54.81,63.37,55.34z M61.05,56.32h0.4c0.39,0,0.68-0.08,0.86-0.23c0.18-0.15,0.27-0.39,0.27-0.72
			c0-0.3-0.08-0.53-0.25-0.68c-0.16-0.15-0.42-0.22-0.76-0.22h-0.53V56.32z"/>
		<path class="st5" d="M66.07,54.95c0.15,0,0.27,0.01,0.37,0.04l-0.07,0.79c-0.11-0.03-0.22-0.04-0.33-0.04
			c-0.3,0-0.54,0.11-0.73,0.33c-0.19,0.22-0.28,0.51-0.28,0.86v2.08h-0.75v-3.98h0.59l0.1,0.7H65c0.12-0.24,0.27-0.43,0.46-0.57
			C65.65,55.02,65.85,54.95,66.07,54.95z"/>
		<path class="st5" d="M70.27,57.01c0,0.65-0.15,1.16-0.44,1.52c-0.29,0.37-0.71,0.55-1.23,0.55c-0.33,0-0.62-0.08-0.87-0.25
			s-0.45-0.41-0.58-0.72s-0.2-0.68-0.2-1.09c0-0.65,0.15-1.15,0.44-1.51c0.29-0.36,0.71-0.54,1.24-0.54c0.51,0,0.91,0.19,1.21,0.56
			C70.12,55.88,70.27,56.38,70.27,57.01z M67.71,57.01c0,0.92,0.3,1.38,0.9,1.38c0.59,0,0.89-0.46,0.89-1.38
			c0-0.91-0.3-1.36-0.9-1.36c-0.31,0-0.54,0.12-0.68,0.35C67.78,56.23,67.71,56.57,67.71,57.01z"/>
		<path class="st5" d="M74.16,55.03v0.46l-0.6,0.13c0.06,0.08,0.1,0.19,0.14,0.31c0.04,0.12,0.05,0.25,0.05,0.39
			c0,0.41-0.13,0.73-0.38,0.97c-0.25,0.24-0.6,0.35-1.03,0.35c-0.11,0-0.21-0.01-0.31-0.03c-0.16,0.11-0.24,0.25-0.24,0.4
			c0,0.09,0.04,0.16,0.11,0.21c0.08,0.04,0.21,0.07,0.42,0.07h0.61c0.39,0,0.68,0.09,0.89,0.28c0.2,0.19,0.3,0.46,0.3,0.81
			c0,0.45-0.16,0.8-0.49,1.04c-0.33,0.24-0.8,0.37-1.43,0.37c-0.48,0-0.85-0.1-1.1-0.29c-0.25-0.19-0.38-0.47-0.38-0.82
			c0-0.24,0.07-0.45,0.21-0.62c0.14-0.17,0.33-0.28,0.57-0.35c-0.1-0.05-0.18-0.13-0.25-0.23c-0.06-0.11-0.1-0.22-0.1-0.34
			c0-0.15,0.04-0.27,0.11-0.38s0.18-0.21,0.33-0.31c-0.18-0.09-0.33-0.23-0.44-0.43c-0.11-0.2-0.17-0.43-0.17-0.7
			c0-0.43,0.12-0.77,0.36-1c0.24-0.24,0.58-0.36,1.03-0.36c0.1,0,0.2,0.01,0.31,0.02s0.19,0.03,0.25,0.05H74.16z M71.4,59.63
			c0,0.18,0.07,0.32,0.22,0.42c0.15,0.1,0.35,0.15,0.61,0.15c0.41,0,0.71-0.07,0.91-0.2s0.3-0.31,0.3-0.53
			c0-0.17-0.05-0.3-0.16-0.37s-0.31-0.11-0.61-0.11H72.1c-0.21,0-0.38,0.06-0.51,0.17C71.46,59.28,71.4,59.43,71.4,59.63z
			 M71.72,56.32c0,0.25,0.06,0.44,0.17,0.58c0.11,0.13,0.28,0.2,0.49,0.2c0.43,0,0.65-0.26,0.65-0.79c0-0.26-0.05-0.46-0.16-0.6
			c-0.11-0.14-0.27-0.21-0.49-0.21c-0.22,0-0.38,0.07-0.49,0.21C71.77,55.85,71.72,56.05,71.72,56.32z"/>
		<path class="st5" d="M76.66,54.95c0.15,0,0.27,0.01,0.37,0.04l-0.07,0.79c-0.11-0.03-0.22-0.04-0.33-0.04
			c-0.3,0-0.54,0.11-0.73,0.33c-0.19,0.22-0.28,0.51-0.28,0.86v2.08h-0.75v-3.98h0.59l0.1,0.7h0.04c0.12-0.24,0.27-0.43,0.46-0.57
			C76.24,55.02,76.44,54.95,76.66,54.95z"/>
		<path class="st5" d="M79.95,59.01l-0.15-0.55h-0.03c-0.17,0.24-0.34,0.41-0.51,0.5c-0.17,0.09-0.39,0.13-0.66,0.13
			c-0.35,0-0.62-0.11-0.81-0.32c-0.19-0.21-0.29-0.51-0.29-0.9c0-0.41,0.13-0.72,0.4-0.93c0.27-0.21,0.68-0.32,1.23-0.34l0.61-0.02
			v-0.21c0-0.25-0.05-0.45-0.16-0.57s-0.27-0.19-0.49-0.19c-0.18,0-0.35,0.03-0.52,0.09c-0.17,0.06-0.32,0.13-0.48,0.21l-0.24-0.61
			c0.19-0.11,0.4-0.2,0.63-0.26s0.44-0.09,0.64-0.09c0.45,0,0.79,0.11,1.01,0.33c0.23,0.22,0.34,0.57,0.34,1.04v2.68H79.95z
			 M78.83,58.43c0.27,0,0.49-0.09,0.65-0.26c0.16-0.17,0.25-0.41,0.25-0.72v-0.35l-0.45,0.02c-0.35,0.01-0.61,0.08-0.77,0.2
			c-0.16,0.12-0.24,0.3-0.24,0.55c0,0.18,0.05,0.31,0.14,0.41C78.51,58.38,78.65,58.43,78.83,58.43z"/>
		<path class="st5" d="M84.55,59.01H83.8v-2.46c0-0.3-0.05-0.53-0.15-0.68c-0.1-0.15-0.26-0.23-0.48-0.23
			c-0.29,0-0.5,0.11-0.64,0.32c-0.13,0.21-0.2,0.57-0.2,1.06v1.98h-0.75v-3.98h0.59l0.1,0.52h0.04c0.1-0.19,0.24-0.34,0.42-0.44
			c0.19-0.1,0.39-0.16,0.61-0.16c0.54,0,0.9,0.21,1.08,0.63h0.05c0.1-0.2,0.25-0.35,0.44-0.46s0.41-0.17,0.65-0.17
			c0.42,0,0.73,0.12,0.92,0.36c0.19,0.24,0.29,0.61,0.29,1.1v2.6h-0.75v-2.46c0-0.3-0.05-0.53-0.15-0.68
			c-0.1-0.15-0.26-0.23-0.48-0.23c-0.29,0-0.5,0.1-0.64,0.31s-0.2,0.52-0.2,0.95V59.01z"/>
	</g>
</g>
<g>
	<path class="st12" d="M267.29-732.17v-15 M-327.98-732.17v-15 M273.29,115.72h15 M-333.98,115.72h-15 M273.29-726.17h15
		 M-333.98-726.17h-15"/>
	<path class="st13" d="M267.29-732.17v-15 M-327.98-732.17v-15 M273.29,115.72h15 M-333.98,115.72h-15 M273.29-726.17h15
		 M-333.98-726.17h-15"/>
</g>
</svg>
