<svg xmlns="http://www.w3.org/2000/svg" viewBox="0 0 1120.81 125.48"><defs><style>.cls-1{fill:#fff;}.cls-2{fill:#a88c52;}</style></defs><g id="Economic_Opportunities_Image" data-name="Economic Opportunities Image"><path class="cls-1" d="M894.48,100.94a8.43,8.43,0,0,1-3.32,7.79s-4.47,4.67-11.53.59c0,0-8.55,4.67-13-1.59a9.53,9.53,0,0,1-2-9.34s-4.67-3.38-4-9c0,0,.49-9.64,9.84-8.25,0,0,1.79-7.35,9.24-7,0,0,7.06.29,8.55,7.15,0,0,8.75-.3,9.94,8.85,0,0,.89,7.65-4.18,8.45a10.5,10.5,0,0,1,.44,2.35"/><path class="cls-2" d="M885.27,111.41a11.55,11.55,0,0,1-5.65-1.6c-1.39.68-9.12,4.09-13.35-1.83a9.85,9.85,0,0,1-2.14-9.44c-1-.8-4.54-4.08-3.9-9.15,0-.15.26-4.53,3.35-7.06a8.41,8.41,0,0,1,6.6-1.61c.51-1.53,2.87-7.27,9.57-7,.07,0,7.17.38,8.87,7.16,1.69.07,8.93.87,10,9.21,0,.09.83,7.61-4.06,8.83a11.4,11.4,0,0,1,.32,2,8.77,8.77,0,0,1-3.49,8.16h0A9.05,9.05,0,0,1,885.27,111.41ZM868.72,81.48a7.05,7.05,0,0,0-4.6,1.51c-2.8,2.29-3,6.43-3,6.48-.65,5.27,3.76,8.54,3.8,8.57l.25.18-.09.3a9.17,9.17,0,0,0,1.88,8.91c4.25,5.93,12.18,1.7,12.52,1.52l.21-.12.2.12c6.67,3.85,10.84-.34,11-.52a8,8,0,0,0,3.2-7.45h0a10.66,10.66,0,0,0-.41-2.26l-.16-.48.5-.07c4.61-.73,3.82-7.91,3.81-8-1.13-8.66-9.17-8.48-9.5-8.47h-.35l-.08-.35c-1.4-6.44-7.87-6.81-8.15-6.82-7-.29-8.79,6.66-8.81,6.73l-.09.38-.39,0A11.34,11.34,0,0,0,868.72,81.48Z"/><rect class="cls-2" x="879.2" y="92.82" width="0.85" height="33.67"/><polyline class="cls-1" points="874.07 96.7 879.53 101.87 884.6 97.2"/><polygon class="cls-2" points="879.53 102.45 873.77 97.01 874.36 96.39 879.54 101.28 884.31 96.88 884.89 97.51 879.53 102.45"/><path class="cls-2" d="M740.64,125.42H706V78.09h34.67Zm-34.16-.52h33.64V78.6H706.48Z"/><rect class="cls-2" x="706.22" y="117.05" width="34.17" height="0.52"/><rect class="cls-2" x="706.22" y="115.17" width="34.17" height="0.52"/><rect class="cls-2" x="706.22" y="106.24" width="34.17" height="0.52"/><rect class="cls-2" x="706.22" y="104.37" width="34.17" height="0.52"/><rect class="cls-2" x="706.22" y="94.88" width="34.17" height="0.52"/><rect class="cls-2" x="706.22" y="93" width="34.17" height="0.52"/><rect class="cls-2" x="706.22" y="84.07" width="34.17" height="0.52"/><rect class="cls-2" x="706.22" y="82.2" width="34.17" height="0.52"/><path class="cls-2" d="M738.08,93.44h-7.24v-6.2h7.24Zm-6.72-.52h6.2V87.75h-6.2Z"/><path class="cls-2" d="M734.7,104.6h-9V97.23h9Zm-8.46-.52h7.94V97.75h-7.94Z"/><path class="cls-2" d="M731.36,93.28h-5.43V89.06h5.43Zm-4.91-.51h4.39V89.58h-4.39Z"/><path class="cls-2" d="M730.55,115.66h-5.42v-4.88h5.42Zm-4.9-.52H730v-3.85h-4.38Z"/><path class="cls-2" d="M737.7,115.66H730v-7h7.71Zm-7.19-.52h6.67v-6h-6.67Z"/><path class="cls-2" d="M725.56,115.71h-17V109h17Zm-16.44-.52h15.93v-5.72H709.12Z"/><path class="cls-2" d="M725.53,93.49h-9.37a1,1,0,0,1-.88-1V87.16a.94.94,0,0,1,.88-1h9.37a.94.94,0,0,1,.88,1V92.5A1,1,0,0,1,725.53,93.49Zm-9.37-6.8a.43.43,0,0,0-.36.47V92.5c0,.25.16.47.36.47h9.37a.43.43,0,0,0,.36-.47V87.16a.43.43,0,0,0-.36-.47Z"/><path class="cls-2" d="M720.08,104.9H709.6a.9.9,0,0,1-1-.83V99.84a.9.9,0,0,1,1-.83h10.48a.9.9,0,0,1,1,.83v4.23A.9.9,0,0,1,720.08,104.9ZM709.6,99.52c-.24,0-.44.15-.44.32v4.23c0,.17.2.31.44.31h10.48c.24,0,.44-.14.44-.31V99.84c0-.17-.2-.32-.44-.32Z"/><path class="cls-2" d="M708.56,93.29c-.15-2.74.2-4.59,1.06-5.5a1.85,1.85,0,0,1,1.37-.61,1.82,1.82,0,0,1,1.38.57c.81.84,1.16,2.65,1.06,5.54l-.52,0c.1-2.7-.21-4.44-.91-5.16a1.38,1.38,0,0,0-2,0c-.52.55-1.1,1.88-.92,5.11Z"/><path class="cls-2" d="M722.09,104.65c-.14-4,.24-6.46,1.13-7.38a1.2,1.2,0,0,1,1.77,0c.84.86,1.18,3.21,1.09,7.39h-.51c.08-3.93-.24-6.28-1-7a.66.66,0,0,0-1,0c-.45.46-1.17,2-1,7Z"/><path class="cls-2" d="M734.22,104.65c-.13-4,.25-6.46,1.14-7.38a1.19,1.19,0,0,1,1.76,0c.84.86,1.19,3.21,1.1,7.39h-.52c.08-3.93-.24-6.29-1-7a.65.65,0,0,0-1,0c-.44.46-1.16,2-1,7Z"/><polyline class="cls-1" points="631.28 55.57 685.53 55.57 691.36 66.22 625.08 66.22 630.98 55.59"/><path class="cls-2" d="M692,66.62H624.4l6.23-11.22.65.36v-.59h54.49Zm-66.26-.8h64.91L685.29,56h-54v-.09Z"/><rect class="cls-2" x="630.13" y="66.31" width="0.8" height="30.45"/><rect class="cls-2" x="634.64" y="66.31" width="0.8" height="14.87"/><rect class="cls-2" x="680.85" y="66.31" width="0.8" height="17.91"/><rect class="cls-2" x="685.32" y="66.31" width="0.8" height="30.45"/><rect class="cls-1" x="630.49" y="85.35" width="24.58" height="11.32"/><path class="cls-2" d="M655.48,97.07H630.09V85h25.39Zm-24.58-.8h23.77V85.75H630.9Z"/><path class="cls-2" d="M686.11,97.07h-27.4V88h27.4Zm-26.6-.8H685.3V88.81H659.51Z"/><rect class="cls-1" x="636.47" y="85.33" width="12.82" height="5.94"/><path class="cls-2" d="M649.69,91.67H636.07V84.93h13.62Zm-12.82-.8h12V85.73h-12Z"/><path class="cls-2" d="M631.65,85.33h-.8a4.58,4.58,0,0,1,4.82-4.55,4.67,4.67,0,0,1,.91.08A6.74,6.74,0,0,1,649,80.45a4.7,4.7,0,0,1,1.4-.21,5.13,5.13,0,0,1,4.95,5h-.8A4.31,4.31,0,0,0,650.36,81a4.18,4.18,0,0,0-1.48.28l-.37.15-.15-.37a5.93,5.93,0,0,0-11.14.36l-.12.36-.37-.1a4.23,4.23,0,0,0-1.06-.14A3.81,3.81,0,0,0,631.65,85.33Z"/><path class="cls-2" d="M670.14,88.35h-.81c0-3.07-1.91-6-3.92-6s-3.93,2.9-3.93,6h-.81c0-3.2,2-6.77,4.74-6.77S670.14,85.15,670.14,88.35Z"/><path class="cls-1" d="M667.41,88.35c0-3.12,1.94-6.37,4.33-6.37s4.34,3.25,4.34,6.37"/><path class="cls-2" d="M676.48,88.35h-.81c0-3.07-1.91-6-3.93-6s-3.92,2.9-3.92,6H667c0-3.2,2-6.77,4.73-6.77S676.48,85.15,676.48,88.35Z"/><path class="cls-1" d="M673.67,88.35c0-3.12,1.93-6.37,4.33-6.37s4.33,3.25,4.33,6.37"/><path class="cls-2" d="M682.73,88.35h-.8c0-3.07-1.91-6-3.93-6s-3.93,2.9-3.93,6h-.81c0-3.2,2-6.77,4.74-6.77S682.73,85.15,682.73,88.35Z"/><path class="cls-1" d="M691.62,100.49a3.77,3.77,0,0,1-3.72,3.82H628.35a3.77,3.77,0,0,1-3.71-3.82h0a3.77,3.77,0,0,1,3.71-3.82H687.9a3.77,3.77,0,0,1,3.72,3.82Z"/><path class="cls-2" d="M687.9,104.71H628.35a4.22,4.22,0,0,1,0-8.44H687.9a4.22,4.22,0,0,1,0,8.44Zm-59.55-7.64a3.42,3.42,0,0,0,0,6.83H687.9a3.42,3.42,0,0,0,0-6.83Z"/><rect class="cls-1" x="630.53" y="104.17" width="55.19" height="20.96"/><path class="cls-2" d="M686.12,125.53h-56V103.77h56Zm-55.19-.8h54.39V104.57H630.93Z"/><rect class="cls-2" x="679.02" y="119.17" width="0.8" height="5.69"/><rect class="cls-2" x="637.1" y="119.17" width="0.8" height="5.69"/><path class="cls-2" d="M441.52,56.54h-6.3a3.35,3.35,0,0,1-3.5-3.16V43.93a3.34,3.34,0,0,1,3.5-3.15h6.3A3.34,3.34,0,0,1,445,43.93v9.45A3.35,3.35,0,0,1,441.52,56.54Zm-6.3-14.71a2.3,2.3,0,0,0-2.45,2.1v9.45a2.3,2.3,0,0,0,2.45,2.1h6.3a2.3,2.3,0,0,0,2.46-2.1V43.93a2.3,2.3,0,0,0-2.46-2.1Z"/><path class="cls-2" d="M432.34,51.1l-.18-1c6.59-1.15,8.18-4.23,8.19-4.26l.95.45C441.23,46.4,439.53,49.84,432.34,51.1Z"/><path class="cls-2" d="M444,51.61c-.64-2.07-4-4.43-4-4.45l.6-.86c.15.1,3.66,2.58,4.41,5Z"/><rect class="cls-2" x="443.97" y="53.23" width="1.05" height="6.81"/><rect class="cls-2" x="431.74" y="53.43" width="1.05" height="6.61"/><path class="cls-2" d="M429.08,92.9l-1.61-1.51v-26c0-4.28,1.83-4.8,2-4.85,1.11-.34,4.53-1.89,5.58-2.36V56.49h1.05v2.4l-.3.14c-.19.08-4.65,2.12-6.06,2.56,0,0-1.29.42-1.25,3.83V90.93l1.27,1.21Z"/><path class="cls-2" d="M447.66,92.9l-.72-.76,1.28-1.21V65.42c0-3.41-1.21-3.82-1.22-3.82-1.44-.45-5.9-2.49-6.09-2.57l-.3-.14v-2.4h1.05v1.72c1,.47,4.48,2,5.63,2.38.16,0,2,.55,2,4.84v26Z"/><path class="cls-2" d="M438.33,79.37c-.09-1.75-.05-7,0-7.26a15.88,15.88,0,0,0-.75-8.26L433.29,60l.71-.78,4.46,4.11a16.37,16.37,0,0,1,.87,8.89h0s0,5.39.05,7.11Z"/><path class="cls-2" d="M438.61,64.3l-.3-1c2.12-.64,4.43-3.88,4.45-3.92l.86.61C443.52,60.13,441.08,63.56,438.61,64.3Z"/><path class="cls-2" d="M438.12,83.22c-4.48,0-6.55-2.34-6.67-2.49l-.21-.24.13-.31c1-2.26.31-5.86.2-6.39a6.63,6.63,0,0,1,.7-7.69l.75.74a5.5,5.5,0,0,0-.49,6.52l.05.13c0,.17.88,4-.11,6.78.9.84,4.69,3.61,12.33.35-.32-1.26-1.16-4.89-.81-7l.07-.19a5.57,5.57,0,0,0-.37-6.27l.84-.64a6.7,6.7,0,0,1,.48,7.37c-.32,2.3.91,6.81.92,6.86l.12.43-.41.19A18.48,18.48,0,0,1,438.12,83.22Z"/><path class="cls-2" d="M447.64,103.59H429.2l-.06-.46c-1-8.49,2.41-21.78,2.55-22.34l1,.26c0,.13-3.38,13.17-2.57,21.49h16.48c.05-2.31.09-12.18-2.4-20.91l1-.29c2.88,10.08,2.43,21.64,2.43,21.75Z"/><rect class="cls-2" x="433.01" y="103.28" width="1.05" height="22.34" transform="translate(-8.95 41.92) rotate(-5.48)"/><rect class="cls-2" x="432.21" y="114.12" width="22.64" height="1.05" transform="translate(280.51 542.77) rotate(-83.65)"/><rect class="cls-2" x="437.85" y="103.36" width="1.05" height="22.7"/><path class="cls-2" d="M494.41,56.54H488.1a3.35,3.35,0,0,1-3.5-3.16V43.93a3.34,3.34,0,0,1,3.5-3.15h6.31a3.34,3.34,0,0,1,3.5,3.15v9.45A3.35,3.35,0,0,1,494.41,56.54ZM488.1,41.83a2.3,2.3,0,0,0-2.45,2.1v9.45a2.3,2.3,0,0,0,2.45,2.1h6.31a2.3,2.3,0,0,0,2.45-2.1V43.93a2.3,2.3,0,0,0-2.45-2.1Z"/><path class="cls-2" d="M485.22,51.1l-.18-1c6.59-1.15,8.18-4.23,8.19-4.26l.95.45C494.11,46.4,492.41,49.84,485.22,51.1Z"/><path class="cls-2" d="M496.88,51.61c-.64-2.07-4-4.43-4-4.45l.6-.86c.15.1,3.66,2.58,4.41,5Z"/><rect class="cls-2" x="496.85" y="53.23" width="1.05" height="6.81"/><rect class="cls-2" x="484.62" y="53.43" width="1.05" height="6.61"/><path class="cls-2" d="M482,92.9l-1.61-1.51v-26c-.05-4.28,1.82-4.8,2-4.85,1.11-.34,4.54-1.89,5.58-2.36V56.49h1v2.4l-.3.14c-.19.08-4.65,2.12-6.06,2.56,0,0-1.29.42-1.25,3.83V90.93l1.28,1.21Z"/><path class="cls-2" d="M500.54,92.9l-.71-.76,1.27-1.21V65.42c0-3.41-1.21-3.82-1.22-3.82-1.44-.45-5.9-2.49-6.09-2.57l-.3-.14v-2.4h1.05v1.72c1,.47,4.48,2,5.63,2.38.16,0,2,.55,2,4.84v26Z"/><path class="cls-2" d="M491.21,79.37c-.08-1.75,0-7,0-7.26a16,16,0,0,0-.74-8.26L486.18,60l.7-.78,4.46,4.11a16.37,16.37,0,0,1,.87,8.89h0s0,5.39.05,7.11Z"/><path class="cls-2" d="M491.49,64.3l-.3-1c2.12-.64,4.43-3.88,4.45-3.92l.86.61C496.4,60.13,494,63.56,491.49,64.3Z"/><path class="cls-2" d="M491,83.22c-4.48,0-6.54-2.34-6.67-2.49l-.21-.24.13-.31c1-2.26.31-5.86.2-6.39a6.64,6.64,0,0,1,.7-7.69l.75.74a5.49,5.49,0,0,0-.48,6.52l.05.13c0,.17.87,4-.12,6.78.91.84,4.69,3.61,12.33.35-.32-1.26-1.15-4.89-.81-7l.07-.19a5.57,5.57,0,0,0-.37-6.27l.84-.64a6.7,6.7,0,0,1,.48,7.37c-.32,2.3.91,6.81.92,6.86l.12.43-.41.19A18.48,18.48,0,0,1,491,83.22Z"/><path class="cls-2" d="M500.51,103.59H482.08l-.06-.46c-1-8.49,2.41-21.78,2.56-22.34l1,.26c0,.13-3.38,13.17-2.57,21.49H499.5c.05-2.31.09-12.18-2.4-20.91l1-.29c2.88,10.08,2.43,21.64,2.43,21.75Z"/><rect class="cls-2" x="485.89" y="103.28" width="1.05" height="22.34" transform="translate(-8.71 46.97) rotate(-5.48)"/><rect class="cls-2" x="485.09" y="114.12" width="22.64" height="1.05" transform="translate(327.55 595.33) rotate(-83.65)"/><rect class="cls-2" x="490.73" y="103.36" width="1.05" height="22.7"/><path class="cls-2" d="M444.28,66.16h-4.81V63.7h4.81Zm-3.76-1h2.71v-.36h-2.71Z"/><path class="cls-2" d="M468,57.63h-6.3a3.36,3.36,0,0,1-3.51-3.16V45a3.36,3.36,0,0,1,3.51-3.16H468a3.35,3.35,0,0,1,3.5,3.16v9.44A3.35,3.35,0,0,1,468,57.63Zm-6.3-14.71A2.3,2.3,0,0,0,459.26,45v9.44a2.3,2.3,0,0,0,2.45,2.11H468a2.3,2.3,0,0,0,2.45-2.11V45A2.3,2.3,0,0,0,468,42.92Z"/><path class="cls-2" d="M458.82,52.19l-.18-1c6.6-1.16,8.18-4.23,8.2-4.27l.94.46C467.72,47.49,466,50.93,458.82,52.19Z"/><path class="cls-2" d="M470.49,52.71c-.64-2.08-4-4.43-4-4.46l.61-.86c.14.11,3.65,2.59,4.4,5Z"/><path class="cls-2" d="M455.51,96.08l-3.25-4.2L450.94,66.5c0-3.21,3.68-5,3.84-5.1l6.27-1.76V57.1h1.05v3.33l-7,2h0S452,64,452,66.47l1.3,25,3.06,3.94Z"/><path class="cls-2" d="M474.36,96.18l-.88-.58,2.68-4.08,1.31-25.08c0-2.5-3.22-4.08-3.25-4.09l-6.87-1.92V57.1h1.06v2.54l6.18,1.73c.24.11,3.93,1.92,3.93,5.1L477.2,91.86Z"/><rect class="cls-2" x="426.67" y="95.73" width="58.52" height="1.05" transform="translate(355.44 551.27) rotate(-89.47)"/><rect class="cls-2" x="473.33" y="67.91" width="1.05" height="57.62" transform="translate(-2.28 11.92) rotate(-1.44)"/><path class="cls-2" d="M464.73,85.26,462,83.14,462.49,65a6.27,6.27,0,0,1-3.26-3.89l1-.25a5.26,5.26,0,0,0,3,3.31l.34.14L463,82.63l1.7,1.3,1.69-1.29-1.06-18.56.45-.09s3-.64,3.95-3l1,.39a6.52,6.52,0,0,1-4.27,3.49l1,18.24Z"/><rect class="cls-2" x="464.2" y="78.29" width="1.05" height="16.81" transform="translate(370.79 550.02) rotate(-89.11)"/><polygon class="cls-2" points="468.28 125.57 464.91 93.73 464.8 93.72 461.18 125.32 460.14 125.2 463.87 92.55 465.86 92.79 469.32 125.46 468.28 125.57"/><path class="cls-2" d="M520.54,57.63h-6.3a3.35,3.35,0,0,1-3.5-3.16V45a3.35,3.35,0,0,1,3.5-3.16h6.3A3.35,3.35,0,0,1,524,45v9.44A3.35,3.35,0,0,1,520.54,57.63Zm-6.3-14.71A2.3,2.3,0,0,0,511.79,45v9.44a2.3,2.3,0,0,0,2.45,2.11h6.3A2.3,2.3,0,0,0,523,54.47V45a2.3,2.3,0,0,0-2.45-2.11Z"/><path class="cls-2" d="M511.35,52.19l-.18-1c6.6-1.16,8.18-4.23,8.2-4.27l1,.46C520.25,47.49,518.54,50.93,511.35,52.19Z"/><path class="cls-2" d="M523,52.71c-.64-2.08-4-4.43-4-4.46l.61-.86c.15.11,3.66,2.59,4.4,5Z"/><path class="cls-2" d="M508.05,96.08l-3.26-4.2L503.47,66.5c0-3.21,3.69-5,3.84-5.1l6.27-1.76V57.1h1v3.33l-6.95,2h0s-3.16,1.59-3.16,4.09l1.31,25,3.05,3.94Z"/><path class="cls-2" d="M526.89,96.18,526,95.6l2.68-4.08L530,66.44c0-2.49-3.22-4.08-3.25-4.09l-6.86-1.92V57.1h1.05v2.54l6.18,1.73c.24.11,3.93,1.92,3.93,5.1l-1.32,25.39Z"/><rect class="cls-2" x="479.2" y="95.73" width="58.52" height="1.05" transform="translate(407.48 603.8) rotate(-89.47)"/><rect class="cls-2" x="525.86" y="67.91" width="1.05" height="57.62" transform="translate(-2.26 13.24) rotate(-1.44)"/><path class="cls-2" d="M517.26,85.26l-2.77-2.12L515,65a6.31,6.31,0,0,1-3.26-3.89l1-.25a5.26,5.26,0,0,0,3,3.31l.34.14-.53,18.35,1.7,1.3L519,82.64l-1.06-18.56.45-.09s3-.64,3.95-3l1,.39A6.49,6.49,0,0,1,519,64.9l1,18.24Z"/><rect class="cls-2" x="516.73" y="78.29" width="1.05" height="16.81" transform="translate(422.51 602.54) rotate(-89.11)"/><polygon class="cls-2" points="520.81 125.57 517.44 93.73 517.33 93.72 513.71 125.32 512.67 125.2 516.4 92.55 518.39 92.79 521.85 125.46 520.81 125.57"/><polygon class="cls-2" points="463.5 64.85 462.55 64.41 463.52 62.31 461.1 60.45 461.74 59.62 464.83 61.99 463.5 64.85"/><polygon class="cls-2" points="465.33 64.74 464.46 61.95 467.44 59.68 468.07 60.52 465.68 62.34 466.34 64.42 465.33 64.74"/><path class="cls-2" d="M464.31,64.92h-.05a2.13,2.13,0,0,1-1.37-.62l.77-.72a.86.86,0,0,0,1.3,0l.72.76A2,2,0,0,1,464.31,64.92Z"/><polygon class="cls-2" points="516.21 64.85 515.26 64.41 516.23 62.31 513.81 60.45 514.45 59.62 517.54 61.99 516.21 64.85"/><polygon class="cls-2" points="518.05 64.74 517.17 61.95 520.15 59.68 520.78 60.52 518.39 62.34 519.05 64.42 518.05 64.74"/><path class="cls-2" d="M517,64.92h0a2.09,2.09,0,0,1-1.36-.62l.76-.72a.87.87,0,0,0,1.31,0l.72.76A2,2,0,0,1,517,64.92Z"/><path class="cls-2" d="M318.41,56.54h-6.3a3.35,3.35,0,0,1-3.5-3.16V43.93a3.34,3.34,0,0,1,3.5-3.15h6.3a3.34,3.34,0,0,1,3.51,3.15v9.45A3.35,3.35,0,0,1,318.41,56.54Zm-6.3-14.71a2.3,2.3,0,0,0-2.45,2.1v9.45a2.3,2.3,0,0,0,2.45,2.1h6.3a2.3,2.3,0,0,0,2.46-2.1V43.93a2.3,2.3,0,0,0-2.46-2.1Z"/><path class="cls-2" d="M309.23,51.1l-.19-1c6.6-1.15,8.19-4.23,8.2-4.26l.95.45C318.12,46.4,316.42,49.84,309.23,51.1Z"/><path class="cls-2" d="M320.89,51.61c-.64-2.07-4-4.43-4-4.45l.6-.86c.15.1,3.66,2.58,4.41,5Z"/><rect class="cls-2" x="320.86" y="53.23" width="1.05" height="6.81"/><rect class="cls-2" x="308.63" y="53.43" width="1.05" height="6.61"/><path class="cls-2" d="M306,92.9l-1.61-1.51v-26c0-4.28,1.83-4.8,2-4.85,1.11-.34,4.53-1.89,5.58-2.36V56.49h1v2.4l-.3.14c-.19.08-4.65,2.12-6.07,2.56,0,0-1.28.42-1.25,3.83V90.93l1.28,1.21Z"/><path class="cls-2" d="M324.55,92.9l-.72-.76,1.28-1.21V65.42c0-3.41-1.21-3.82-1.22-3.82-1.44-.45-5.9-2.49-6.09-2.57l-.3-.14v-2.4h1.05v1.72c1.05.47,4.48,2,5.62,2.38.17,0,2,.55,2,4.84v26Z"/><path class="cls-2" d="M315.22,79.37c-.09-1.75-.05-7,0-7.26a15.88,15.88,0,0,0-.75-8.26L310.18,60l.71-.78,4.46,4.11a16.37,16.37,0,0,1,.87,8.89h0s0,5.39,0,7.11Z"/><path class="cls-2" d="M315.5,64.3l-.3-1c2.12-.64,4.43-3.88,4.45-3.92l.86.61C320.41,60.13,318,63.56,315.5,64.3Z"/><path class="cls-2" d="M315,83.22c-4.48,0-6.55-2.34-6.67-2.49l-.21-.24.13-.31c1-2.26.31-5.86.2-6.39a6.66,6.66,0,0,1,.69-7.69l.75.74a5.53,5.53,0,0,0-.48,6.52l.05.13c0,.17.88,4-.12,6.78.91.84,4.7,3.61,12.34.35-.32-1.26-1.16-4.89-.82-7l.08-.19a5.57,5.57,0,0,0-.37-6.27l.84-.64a6.7,6.7,0,0,1,.48,7.37c-.32,2.3.91,6.81.92,6.86l.12.43-.41.19A18.48,18.48,0,0,1,315,83.22Z"/><path class="cls-2" d="M324.52,103.59H306.09l-.06-.46c-1-8.49,2.41-21.78,2.55-22.34l1,.26c0,.13-3.38,13.17-2.57,21.49h16.48c.05-2.31.09-12.18-2.4-20.91l1-.29c2.88,10.08,2.43,21.64,2.43,21.75Z"/><rect class="cls-2" x="309.9" y="103.28" width="1.05" height="22.34" transform="translate(-9.51 30.17) rotate(-5.48)"/><rect class="cls-2" x="309.1" y="114.12" width="22.64" height="1.05" transform="translate(171.02 420.42) rotate(-83.65)"/><rect class="cls-2" x="314.74" y="103.36" width="1.05" height="22.7"/><path class="cls-2" d="M371.3,56.54H365a3.35,3.35,0,0,1-3.5-3.16V43.93a3.34,3.34,0,0,1,3.5-3.15h6.31a3.34,3.34,0,0,1,3.5,3.15v9.45A3.35,3.35,0,0,1,371.3,56.54ZM365,41.83a2.3,2.3,0,0,0-2.45,2.1v9.45a2.3,2.3,0,0,0,2.45,2.1h6.31a2.3,2.3,0,0,0,2.45-2.1V43.93a2.3,2.3,0,0,0-2.45-2.1Z"/><path class="cls-2" d="M362.11,51.1l-.18-1c6.59-1.15,8.18-4.23,8.19-4.26l.95.45C371,46.4,369.3,49.84,362.11,51.1Z"/><path class="cls-2" d="M373.77,51.61c-.64-2.07-4-4.43-4-4.45l.6-.86c.15.1,3.66,2.58,4.41,5Z"/><rect class="cls-2" x="373.74" y="53.23" width="1.05" height="6.81"/><rect class="cls-2" x="361.51" y="53.43" width="1.05" height="6.61"/><path class="cls-2" d="M358.86,92.9l-1.61-1.51v-26c-.05-4.28,1.82-4.8,2-4.85,1.11-.34,4.54-1.89,5.58-2.36V56.49h1.05v2.4l-.3.14c-.19.08-4.65,2.12-6.06,2.56,0,0-1.29.42-1.25,3.83V90.93l1.28,1.21Z"/><path class="cls-2" d="M377.43,92.9l-.72-.76L378,90.93V65.42c0-3.41-1.21-3.82-1.22-3.82-1.44-.45-5.9-2.49-6.09-2.57l-.3-.14v-2.4h1.05v1.72c1.05.47,4.48,2,5.63,2.38.16,0,2,.55,2,4.84v26Z"/><path class="cls-2" d="M368.1,79.37c-.08-1.75,0-7,0-7.26a15.81,15.81,0,0,0-.75-8.26L363.07,60l.7-.78,4.46,4.11a16.37,16.37,0,0,1,.87,8.89h0s0,5.39,0,7.11Z"/><path class="cls-2" d="M368.38,64.3l-.3-1c2.12-.64,4.43-3.88,4.45-3.92l.86.61C373.29,60.13,370.85,63.56,368.38,64.3Z"/><path class="cls-2" d="M367.89,83.22c-4.48,0-6.54-2.34-6.67-2.49l-.21-.24.13-.31c1-2.26.31-5.86.2-6.39a6.64,6.64,0,0,1,.7-7.69l.75.74a5.49,5.49,0,0,0-.48,6.52l0,.13c0,.17.88,4-.11,6.78.91.84,4.69,3.61,12.33.35-.32-1.26-1.16-4.89-.81-7l.07-.19a5.57,5.57,0,0,0-.37-6.27l.84-.64a6.7,6.7,0,0,1,.48,7.37c-.32,2.3.91,6.81.92,6.86l.12.43-.41.19A18.48,18.48,0,0,1,367.89,83.22Z"/><path class="cls-2" d="M377.4,103.59H359l-.06-.46c-1-8.49,2.41-21.78,2.56-22.34l1,.26c0,.13-3.38,13.17-2.57,21.49h16.48c.05-2.31.09-12.18-2.4-20.91l1-.29c2.88,10.08,2.43,21.64,2.43,21.75Z"/><rect class="cls-2" x="362.78" y="103.28" width="1.05" height="22.34" transform="translate(-9.27 35.22) rotate(-5.48)"/><rect class="cls-2" x="361.98" y="114.12" width="22.64" height="1.05" transform="translate(218.06 472.97) rotate(-83.65)"/><rect class="cls-2" x="367.62" y="103.36" width="1.05" height="22.7"/><path class="cls-2" d="M321.17,66.16h-4.81V63.7h4.81Zm-3.76-1h2.71v-.36h-2.71Z"/><path class="cls-2" d="M344.9,57.63h-6.3a3.36,3.36,0,0,1-3.51-3.16V45a3.36,3.36,0,0,1,3.51-3.16h6.3A3.35,3.35,0,0,1,348.4,45v9.44A3.35,3.35,0,0,1,344.9,57.63Zm-6.3-14.71A2.3,2.3,0,0,0,336.15,45v9.44a2.3,2.3,0,0,0,2.45,2.11h6.3a2.3,2.3,0,0,0,2.45-2.11V45a2.3,2.3,0,0,0-2.45-2.11Z"/><path class="cls-2" d="M335.71,52.19l-.18-1c6.6-1.16,8.18-4.23,8.2-4.27l.94.46C344.61,47.49,342.9,50.93,335.71,52.19Z"/><path class="cls-2" d="M347.37,52.71c-.63-2.08-4-4.43-4-4.46l.61-.86c.14.11,3.65,2.59,4.4,5Z"/><path class="cls-2" d="M332.4,96.08l-3.25-4.2L327.83,66.5c0-3.21,3.68-5,3.84-5.1l6.27-1.76V57.1H339v3.33l-6.95,2h0s-3.16,1.59-3.16,4.09l1.3,25,3.05,3.94Z"/><path class="cls-2" d="M351.25,96.18l-.88-.58,2.68-4.08,1.31-25.08c0-2.5-3.22-4.08-3.25-4.09l-6.87-1.92V57.1h1.06v2.54l6.18,1.73c.24.11,3.93,1.92,3.93,5.1l-1.32,25.39Z"/><rect class="cls-2" x="303.56" y="95.73" width="58.52" height="1.05" transform="translate(233.47 428.17) rotate(-89.47)"/><rect class="cls-2" x="350.22" y="67.91" width="1.05" height="57.62" transform="translate(-2.32 8.83) rotate(-1.44)"/><path class="cls-2" d="M341.62,85.26l-2.77-2.12L339.38,65a6.27,6.27,0,0,1-3.26-3.89l1-.25a5.26,5.26,0,0,0,3,3.31l.34.14-.53,18.35,1.7,1.3,1.69-1.29-1.06-18.56.45-.09s3-.64,3.95-3l1,.39a6.52,6.52,0,0,1-4.27,3.49l1,18.24Z"/><rect class="cls-2" x="341.09" y="78.29" width="1.05" height="16.81" transform="translate(249.6 426.92) rotate(-89.11)"/><polygon class="cls-2" points="345.17 125.57 341.8 93.73 341.69 93.72 338.07 125.32 337.02 125.2 340.76 92.55 342.75 92.79 346.21 125.46 345.17 125.57"/><path class="cls-2" d="M397.43,57.63h-6.3a3.35,3.35,0,0,1-3.5-3.16V45a3.35,3.35,0,0,1,3.5-3.16h6.3a3.35,3.35,0,0,1,3.5,3.16v9.44A3.35,3.35,0,0,1,397.43,57.63Zm-6.3-14.71A2.3,2.3,0,0,0,388.68,45v9.44a2.3,2.3,0,0,0,2.45,2.11h6.3a2.3,2.3,0,0,0,2.45-2.11V45a2.3,2.3,0,0,0-2.45-2.11Z"/><path class="cls-2" d="M388.24,52.19l-.18-1c6.6-1.16,8.18-4.23,8.2-4.27l.95.46C397.14,47.49,395.43,50.93,388.24,52.19Z"/><path class="cls-2" d="M399.91,52.71c-.64-2.08-4-4.43-4-4.46l.61-.86c.15.11,3.66,2.59,4.4,5Z"/><path class="cls-2" d="M384.94,96.08l-3.26-4.2L380.36,66.5c0-3.21,3.69-5,3.84-5.1l6.27-1.76V57.1h1v3.33l-6.95,2h0s-3.16,1.59-3.16,4.09l1.31,25,3,3.94Z"/><path class="cls-2" d="M403.78,96.18l-.88-.58,2.68-4.08,1.31-25.08c0-2.49-3.22-4.08-3.25-4.09l-6.86-1.92V57.1h1.05v2.54L404,61.37c.24.11,3.93,1.92,3.93,5.1l-1.32,25.39Z"/><rect class="cls-2" x="356.09" y="95.73" width="58.52" height="1.05" transform="translate(285.52 480.7) rotate(-89.47)"/><rect class="cls-2" x="402.75" y="67.91" width="1.05" height="57.62" transform="translate(-2.3 10.15) rotate(-1.44)"/><path class="cls-2" d="M394.15,85.26l-2.77-2.12L391.91,65a6.31,6.31,0,0,1-3.26-3.89l1-.25a5.26,5.26,0,0,0,3,3.31l.34.14-.53,18.35,1.7,1.3,1.69-1.29-1.06-18.56.45-.09s3-.64,3.95-3l1,.39a6.49,6.49,0,0,1-4.27,3.49l1,18.24Z"/><rect class="cls-2" x="393.62" y="78.29" width="1.05" height="16.81" transform="translate(301.32 479.45) rotate(-89.11)"/><polygon class="cls-2" points="397.7 125.57 394.33 93.73 394.22 93.72 390.6 125.32 389.56 125.2 393.29 92.55 395.29 92.79 398.74 125.46 397.7 125.57"/><polygon class="cls-2" points="340.39 64.85 339.43 64.41 340.41 62.31 337.99 60.45 338.63 59.62 341.72 61.99 340.39 64.85"/><polygon class="cls-2" points="342.23 64.74 341.35 61.95 344.33 59.68 344.96 60.52 342.57 62.34 343.23 64.42 342.23 64.74"/><path class="cls-2" d="M341.2,64.92h-.05a2.13,2.13,0,0,1-1.37-.62l.77-.72a.86.86,0,0,0,1.3,0l.72.76A2,2,0,0,1,341.2,64.92Z"/><polygon class="cls-2" points="393.1 64.85 392.15 64.41 393.12 62.31 390.7 60.45 391.34 59.62 394.43 61.99 393.1 64.85"/><polygon class="cls-2" points="394.94 64.74 394.06 61.95 397.04 59.68 397.68 60.52 395.28 62.34 395.94 64.42 394.94 64.74"/><path class="cls-2" d="M393.91,64.92h-.05a2.09,2.09,0,0,1-1.36-.62l.76-.72a.87.87,0,0,0,1.31,0l.72.76A2,2,0,0,1,393.91,64.92Z"/><polyline class="cls-1" points="756.49 74.92 796.11 74.92 800.37 82.7 751.97 82.7 756.27 74.94"/><path class="cls-2" d="M800.88,83H751.44L756,74.79l.49.27v-.45h39.8Zm-48.39-.61h47.36l-3.92-7.16H756.49v-.06Z"/><rect class="cls-2" x="755.64" y="82.76" width="0.61" height="22.24"/><rect class="cls-2" x="758.93" y="82.76" width="0.61" height="10.86"/><rect class="cls-2" x="792.68" y="82.76" width="0.61" height="13.07"/><rect class="cls-2" x="795.95" y="82.76" width="0.61" height="22.24"/><rect class="cls-1" x="755.91" y="96.67" width="17.95" height="8.27"/><path class="cls-2" d="M774.17,105.24H755.61V96.36h18.56Zm-17.95-.61h17.34V97H756.22Z"/><rect class="cls-1" x="776.81" y="98.9" width="19.43" height="6.03"/><path class="cls-2" d="M796.55,105.24h-20V98.59h20Zm-19.43-.61h18.81V99.21H777.12Z"/><rect class="cls-1" x="760.28" y="96.65" width="9.36" height="4.34"/><path class="cls-2" d="M769.94,101.3H760v-5h10Zm-9.35-.62h8.74V97h-8.74Z"/><path class="cls-1" d="M773.74,96.62a3.45,3.45,0,0,0-3.32-3.39,3.26,3.26,0,0,0-1.18.22,4.64,4.64,0,0,0-8.7.28,3.35,3.35,0,0,0-.85-.11,3.07,3.07,0,0,0-3.23,3"/><path class="cls-2" d="M756.77,96.65h-.61a3.37,3.37,0,0,1,3.53-3.34,3.68,3.68,0,0,1,.66.06,4.94,4.94,0,0,1,9-.3,3.5,3.5,0,0,1,1-.15,3.76,3.76,0,0,1,3.63,3.7h-.61a3.13,3.13,0,0,0-3-3.08,2.79,2.79,0,0,0-1.07.2l-.29.11-.11-.28a4.32,4.32,0,0,0-8.11.26l-.09.28-.29-.08a2.86,2.86,0,0,0-.77-.1A2.77,2.77,0,0,0,756.77,96.65Z"/><path class="cls-1" d="M778.24,98.86c0-2.28,1.42-4.65,3.17-4.65s3.16,2.37,3.16,4.65"/><path class="cls-2" d="M784.88,98.86h-.61c0-2.23-1.39-4.35-2.86-4.35s-2.86,2.12-2.86,4.35h-.61c0-2.34,1.48-5,3.47-5S784.88,96.52,784.88,98.86Z"/><path class="cls-1" d="M782.88,98.86c0-2.28,1.42-4.65,3.16-4.65s3.17,2.37,3.17,4.65"/><path class="cls-2" d="M789.52,98.86h-.62c0-2.23-1.39-4.35-2.86-4.35s-2.85,2.12-2.85,4.35h-.62c0-2.34,1.49-5,3.47-5S789.52,96.52,789.52,98.86Z"/><path class="cls-1" d="M787.45,98.86c0-2.28,1.41-4.65,3.16-4.65s3.16,2.37,3.16,4.65"/><path class="cls-2" d="M794.08,98.86h-.61c0-2.23-1.39-4.35-2.86-4.35s-2.86,2.12-2.86,4.35h-.61c0-2.34,1.48-5,3.47-5S794.08,96.52,794.08,98.86Z"/><path class="cls-1" d="M800.55,107.72a2.75,2.75,0,0,1-2.71,2.79H754.35a2.75,2.75,0,0,1-2.71-2.79h0a2.75,2.75,0,0,1,2.71-2.79h43.49a2.75,2.75,0,0,1,2.71,2.79Z"/><path class="cls-2" d="M797.84,110.82H754.35a3.1,3.1,0,0,1,0-6.19h43.49a3.1,3.1,0,0,1,0,6.19Zm-43.49-5.58a2.48,2.48,0,0,0,0,5h43.49a2.48,2.48,0,0,0,0-5Z"/><rect class="cls-1" x="755.94" y="110.41" width="40.31" height="14.79"/><path class="cls-2" d="M796.56,125.51H755.64V110.1h40.92Zm-40.31-.62H796V110.72h-39.7Z"/><rect class="cls-2" x="791.35" y="121.37" width="0.61" height="3.42"/><rect class="cls-2" x="760.72" y="121.37" width="0.61" height="3.42"/><rect class="cls-1" x="892.29" y="64.86" width="72.61" height="60.62"/><path class="cls-2" d="M965.46,126H891.73V64.29h73.73Zm-72.61-1.12h71.49V65.42H892.85Z"/><path class="cls-2" d="M970.63,65.67h-85V56.06h85ZM886.8,64.54h82.7V57.19H886.8Z"/><rect class="cls-1" x="899.7" y="93.59" width="59.86" height="31.06"/><path class="cls-2" d="M960.35,125.43H898.91V92.8h61.44Zm-59.86-1.57h58.29V94.38H900.49Z"/><path class="cls-2" d="M934.27,126.55H925V92.8h9.28Zm-7.7-1.58h6.13V94.38h-6.13Z"/><path class="cls-2" d="M917.76,73.4H920a4.3,4.3,0,0,1,2.26.45,1.75,1.75,0,0,1,.31,2.5,1.87,1.87,0,0,1-1.13.56V77c1.19.19,1.78.79,1.78,1.79a1.85,1.85,0,0,1-.71,1.56,3.08,3.08,0,0,1-2,.57h-2.73Zm.91,3.21h1.5a2.55,2.55,0,0,0,1.39-.29,1.11,1.11,0,0,0,.43-1,1,1,0,0,0-.48-.9,3,3,0,0,0-1.5-.28h-1.34Zm0,.73v2.8h1.64a2.38,2.38,0,0,0,1.43-.35,1.26,1.26,0,0,0,.48-1.09,1.17,1.17,0,0,0-.49-1,2.73,2.73,0,0,0-1.5-.33Z"/><path class="cls-2" d="M931.14,77.07a3.71,3.71,0,0,1-1,2.84,4.34,4.34,0,0,1-3,1h-2.17V73.4h2.4a4,4,0,0,1,2.85,1A3.59,3.59,0,0,1,931.14,77.07Zm-1,0a2.93,2.93,0,0,0-.77-2.2,3.17,3.17,0,0,0-2.29-.74h-1.33v6h1.11a3.5,3.5,0,0,0,2.46-.76A3,3,0,0,0,930.18,77.1Z"/><path class="cls-2" d="M939.7,77.14a4,4,0,0,1-1,2.82,4,4,0,0,1-5.32,0,4,4,0,0,1-.95-2.86,4,4,0,0,1,.95-2.83,3.49,3.49,0,0,1,2.68-1,3.42,3.42,0,0,1,2.64,1A4,4,0,0,1,939.7,77.14Zm-6.25,0a3.43,3.43,0,0,0,.68,2.3,2.47,2.47,0,0,0,2,.79,2.45,2.45,0,0,0,2-.79,3.49,3.49,0,0,0,.67-2.3,3.45,3.45,0,0,0-.67-2.3,2.42,2.42,0,0,0-2-.78,2.48,2.48,0,0,0-2,.79A3.42,3.42,0,0,0,933.45,77.14Z"/><path class="cls-2" d="M951.45,85.42H905.07V69.74h46.38Zm-45.67-.71h45V70.45h-45Z"/><rect class="cls-1" x="972.82" y="53.35" width="64.91" height="72.07"/><path class="cls-2" d="M1038.31,126H972.24V52.77h66.07Zm-64.91-1.16h63.75V53.93H973.4Z"/><path class="cls-2" d="M1045.94,54H963.19V41.76h82.75Zm-81.49-1.26h80.23V43H964.45Z"/><rect class="cls-1" x="986.45" y="98.45" width="37.9" height="26.37"/><path class="cls-2" d="M1024.92,125.4H985.87V97.87h39.05ZM987,124.24h36.75V99H987Z"/><path class="cls-2" d="M1009.63,126.43h-7.84V97.78h7.84Zm-6.51-1.34h5.17v-26h-5.17Z"/><path class="cls-2" d="M990.46,66.14a1.5,1.5,0,0,0-1.18.47,1.86,1.86,0,0,0-.43,1.3,1.94,1.94,0,0,0,.41,1.31,1.56,1.56,0,0,0,1.19.46,4.14,4.14,0,0,0,1.08-.17V70a3.27,3.27,0,0,1-1.16.17,2,2,0,0,1-1.54-.58,2.26,2.26,0,0,1-.55-1.64,2.46,2.46,0,0,1,.27-1.17,1.8,1.8,0,0,1,.75-.77,2.39,2.39,0,0,1,1.16-.27,2.88,2.88,0,0,1,1.25.25l-.23.43A2.36,2.36,0,0,0,990.46,66.14Z"/><path class="cls-2" d="M994.76,70.06V68a.81.81,0,0,0-.19-.59.78.78,0,0,0-.59-.19,1,1,0,0,0-.78.27,1.39,1.39,0,0,0-.25.91v1.69h-.51V65.47H993v1.39c0,.17,0,.31,0,.42h0a1,1,0,0,1,.43-.37,1.47,1.47,0,0,1,.64-.13,1.34,1.34,0,0,1,.93.28,1.15,1.15,0,0,1,.31.89v2.11Z"/><path class="cls-2" d="M996.28,66a.3.3,0,0,1,.09-.24.33.33,0,0,1,.22-.08.32.32,0,0,1,.21.08.3.3,0,0,1,.09.24.32.32,0,0,1-.09.25.32.32,0,0,1-.21.08.33.33,0,0,1-.22-.08A.32.32,0,0,1,996.28,66Zm.56,4.11h-.51V66.83h.51Z"/><path class="cls-2" d="M1000.25,70.06V68a.81.81,0,0,0-.19-.59.78.78,0,0,0-.59-.19,1,1,0,0,0-.78.27,1.37,1.37,0,0,0-.25.91v1.69h-.51V66.83h.42l.08.44h0a1,1,0,0,1,.44-.37,1.45,1.45,0,0,1,.63-.13,1.35,1.35,0,0,1,.92.28,1.16,1.16,0,0,1,.31.9v2.11Z"/><path class="cls-2" d="M1003.9,70.06l-.1-.46h0a1.32,1.32,0,0,1-.51.41,1.48,1.48,0,0,1-.63.11,1.15,1.15,0,0,1-.79-.25.87.87,0,0,1-.28-.7c0-.65.54-1,1.64-1h.57v-.21a.77.77,0,0,0-.17-.56.73.73,0,0,0-.55-.18,2.28,2.28,0,0,0-1,.25l-.15-.38a2.73,2.73,0,0,1,.55-.2,2.32,2.32,0,0,1,.59-.07,1.33,1.33,0,0,1,.9.25,1,1,0,0,1,.3.83v2.2Zm-1.16-.34a1.14,1.14,0,0,0,.76-.25.91.91,0,0,0,.27-.7v-.3l-.51,0a2,2,0,0,0-.89.19.53.53,0,0,0-.27.5.5.5,0,0,0,.17.4A.73.73,0,0,0,1002.74,69.72Z"/><path class="cls-2" d="M1007.07,65.75h1.27a2.53,2.53,0,0,1,1.31.26.88.88,0,0,1,.4.81,1,1,0,0,1-.22.63,1.09,1.09,0,0,1-.66.32v0c.69.12,1,.46,1,1a1.1,1.1,0,0,1-.41.9,1.76,1.76,0,0,1-1.14.32h-1.58Zm.52,1.85h.87a1.46,1.46,0,0,0,.8-.17.63.63,0,0,0,.24-.56.58.58,0,0,0-.27-.53,1.84,1.84,0,0,0-.86-.16h-.78Zm0,.42v1.62h.95a1.34,1.34,0,0,0,.82-.21.71.71,0,0,0,.28-.63.68.68,0,0,0-.28-.59,1.56,1.56,0,0,0-.87-.19Z"/><path class="cls-2" d="M1013.18,70.06l-.1-.46h0a1.29,1.29,0,0,1-.5.41,1.48,1.48,0,0,1-.63.11,1.14,1.14,0,0,1-.79-.25.88.88,0,0,1-.29-.7c0-.65.55-1,1.64-1h.58v-.21a.81.81,0,0,0-.17-.56.74.74,0,0,0-.55-.18,2.28,2.28,0,0,0-1,.25l-.16-.38a3,3,0,0,1,.55-.2,2.46,2.46,0,0,1,.6-.07,1.36,1.36,0,0,1,.9.25,1.07,1.07,0,0,1,.29.83v2.2Zm-1.16-.34a1.09,1.09,0,0,0,.75-.25.88.88,0,0,0,.28-.7v-.3l-.52,0a2,2,0,0,0-.88.19.53.53,0,0,0-.27.5.5.5,0,0,0,.17.4A.73.73,0,0,0,1012,69.72Z"/><path class="cls-2" d="M1016.94,70.06V68a.81.81,0,0,0-.19-.59.78.78,0,0,0-.59-.19,1,1,0,0,0-.78.27,1.37,1.37,0,0,0-.25.91v1.69h-.51V66.83h.42l.08.44h0a1,1,0,0,1,.44-.37,1.45,1.45,0,0,1,.63-.13,1.35,1.35,0,0,1,.92.28,1.16,1.16,0,0,1,.31.9v2.11Z"/><path class="cls-2" d="M1019,68.41a4,4,0,0,1,.4-.47l1.1-1.11h.61l-1.38,1.38,1.47,1.85h-.62l-1.2-1.52-.38.31v1.21h-.51V65.47h.51v2.44c0,.1,0,.27,0,.5Z"/><path class="cls-2" d="M1025.75,77.81H984.2V59.23h41.55Zm-40.82-.73H1025V60H984.93Z"/><path class="cls-1" d="M1101.36,83.57a6.38,6.38,0,0,1-2.52,5.92s-3.4,3.56-8.77.46c0,0-6.5,3.55-9.9-1.21a7.25,7.25,0,0,1-1.52-7.11s-3.55-2.57-3-6.8c0,0,.38-7.34,7.48-6.28,0,0,1.37-5.59,7-5.37,0,0,5.36.23,6.5,5.45,0,0,6.65-.23,7.56,6.73,0,0,.68,5.82-3.18,6.42a7.92,7.92,0,0,1,.33,1.79"/><path class="cls-2" d="M1094.36,91.51a8.79,8.79,0,0,1-4.3-1.22c-1,.51-6.92,3.13-10.14-1.38h0a7.62,7.62,0,0,1-1.62-7.17,8,8,0,0,1-3-6.95,8.13,8.13,0,0,1,2.54-5.36,6.38,6.38,0,0,1,5-1.21c.36-1.11,2-5.34,6.91-5.34h.35s5.45.29,6.73,5.45a7.7,7.7,0,0,1,7.62,7c0,.06.63,5.78-3.1,6.69a8.44,8.44,0,0,1,.25,1.54h0a6.64,6.64,0,0,1-2.64,6.19A6.91,6.91,0,0,1,1094.36,91.51Zm-12.59-22.76a5.44,5.44,0,0,0-3.52,1.15,7.63,7.63,0,0,0-2.32,4.94c-.5,4,2.87,6.52,2.9,6.55l.18.12-.07.21a6.93,6.93,0,0,0,1.44,6.81c3.24,4.52,9.29,1.29,9.54,1.15l.15-.08.15.09c5.09,2.93,8.27-.27,8.4-.41a6.11,6.11,0,0,0,2.44-5.68,8.45,8.45,0,0,0-.31-1.72l-.12-.34.36-.06c3.52-.55,2.92-6,2.92-6.09a7.06,7.06,0,0,0-7.25-6.46h-.25l-.06-.25c-1.07-4.92-6-5.2-6.22-5.2-5.36-.21-6.67,4.92-6.72,5.13l-.07.27-.27,0A8.41,8.41,0,0,0,1081.77,68.75Z"/><rect class="cls-2" x="1089.77" y="77.4" width="0.6" height="48.81"/><polyline class="cls-1" points="1085.84 80.35 1089.99 84.28 1093.85 80.72"/><polygon class="cls-2" points="1089.99 84.69 1085.63 80.57 1086.05 80.13 1090 83.86 1093.65 80.5 1094.06 80.95 1089.99 84.69"/><path class="cls-1" d="M1118,91.09a5.42,5.42,0,0,1-2.14,5s-2.89,3-7.45.39c0,0-5.52,3-8.4-1a6.16,6.16,0,0,1-1.29-6,6.61,6.61,0,0,1-2.57-5.78s.32-6.23,6.36-5.33c0,0,1.15-4.75,6-4.56,0,0,4.56.2,5.52,4.63a6.29,6.29,0,0,1,6.42,5.71s.58,4.94-2.7,5.46a6.87,6.87,0,0,1,.28,1.52"/><path class="cls-2" d="M1112.07,97.87a7.52,7.52,0,0,1-3.66-1c-.93.46-5.91,2.63-8.64-1.19a6.39,6.39,0,0,1-1.39-6.1,6.8,6.8,0,0,1-2.52-5.93,7,7,0,0,1,2.18-4.57,5.41,5.41,0,0,1,4.26-1,6.24,6.24,0,0,1,6.2-4.53s4.64.25,5.75,4.63a6.56,6.56,0,0,1,6.48,6c.2,1.74-.11,5.07-2.62,5.73a7.55,7.55,0,0,1,.2,1.26h0a5.69,5.69,0,0,1-2.26,5.3h0A5.92,5.92,0,0,1,1112.07,97.87Zm-10.69-19.32a4.56,4.56,0,0,0-3,1,6.52,6.52,0,0,0-2,4.17,6.35,6.35,0,0,0,2.45,5.51l.17.13-.06.21a5.83,5.83,0,0,0,1.21,5.73c2.73,3.81,7.83,1.09,8,1l.15-.08.14.09c4.29,2.47,7-.22,7.08-.34a5.15,5.15,0,0,0,2.06-4.79h0a6.66,6.66,0,0,0-.26-1.45l-.12-.34.36,0c2.94-.47,2.44-5.08,2.44-5.13A6,6,0,0,0,1114,78.7h-.25l-.06-.25a5.65,5.65,0,0,0-5.23-4.38c-4.52-.19-5.66,4.28-5.67,4.32l-.06.27-.28,0A6.91,6.91,0,0,0,1101.38,78.55Z"/><rect class="cls-2" x="1108.12" y="84.75" width="0.6" height="40.75"/><polyline class="cls-1" points="1104.83 88.35 1108.36 91.68 1111.63 88.67"/><polygon class="cls-2" points="1108.36 92.1 1104.62 88.57 1105.04 88.13 1108.36 91.27 1111.43 88.44 1111.84 88.89 1108.36 92.1"/><path class="cls-1" d="M1090.62,98a4.3,4.3,0,0,1-1.69,4s-2.29,2.38-5.89.3c0,0-4.37,2.39-6.65-.81a4.88,4.88,0,0,1-1-4.77,5.25,5.25,0,0,1-2-4.57s.26-4.93,5-4.22c0,0,.91-3.76,4.72-3.6a4.76,4.76,0,0,1,4.37,3.65,5,5,0,0,1,5.07,4.52s.46,3.91-2.13,4.32a5.12,5.12,0,0,1,.22,1.2"/><path class="cls-2" d="M1085.92,103.44a5.92,5.92,0,0,1-2.89-.81c-.82.4-4.72,2.05-6.89-1a5.08,5.08,0,0,1-1.12-4.83,5.61,5.61,0,0,1-.23-8.38,4.34,4.34,0,0,1,3.37-.85A5,5,0,0,1,1083.1,84a5.12,5.12,0,0,1,4.6,3.66,5.23,5.23,0,0,1,5.13,4.77c.17,1.39-.08,4-2,4.58a7,7,0,0,1,.14,1,4.55,4.55,0,0,1-1.81,4.24h0A4.73,4.73,0,0,1,1085.92,103.44Zm-8.45-15.29a3.51,3.51,0,0,0-2.3.75,5,5,0,0,0,.38,7.56l.18.13-.07.21a4.57,4.57,0,0,0,.94,4.47c2.13,3,6.13.85,6.3.76l.14-.08.15.08c3.34,1.93,5.43-.16,5.52-.25a4,4,0,0,0,1.61-3.75h0a5.64,5.64,0,0,0-.2-1.13l-.12-.34.36,0c2.27-.36,1.88-4,1.87-4a4.66,4.66,0,0,0-4.76-4.26h-.25l-.06-.24a4.36,4.36,0,0,0-8.5-.05l-.06.27-.27,0A6.63,6.63,0,0,0,1077.47,88.15Z"/><rect class="cls-2" x="1082.74" y="93" width="0.6" height="32.65"/><polyline class="cls-1" points="1080.2 95.84 1082.99 98.48 1085.58 96.1"/><polygon class="cls-2" points="1082.99 98.9 1079.99 96.06 1080.4 95.62 1082.99 98.07 1085.37 95.87 1085.78 96.32 1082.99 98.9"/><path class="cls-1" d="M269.69,79.22A7.3,7.3,0,0,1,266.81,86s-3.88,4-10,.51c0,0-7.41,4.06-11.29-1.37A8.28,8.28,0,0,1,243.79,77s-4-2.93-3.45-7.76c0,0,.43-8.36,8.54-7.15,0,0,1.55-6.38,8-6.13,0,0,6.13.26,7.42,6.21,0,0,7.59-.26,8.62,7.68,0,0,.78,6.63-3.62,7.32a9.65,9.65,0,0,1,.38,2"/><path class="cls-2" d="M261.7,88.28a10,10,0,0,1-4.9-1.39c-1.19.58-7.9,3.56-11.57-1.58a8.51,8.51,0,0,1-1.85-8.18A9,9,0,0,1,240,69.2c0-.14.23-3.93,2.9-6.12a7.33,7.33,0,0,1,5.73-1.39c.43-1.31,2.45-6.32,8.29-6.08.06,0,6.22.33,7.68,6.21a8.78,8.78,0,0,1,8.69,8c0,.07.72,6.6-3.52,7.64a11.41,11.41,0,0,1,.28,1.75h0a7.62,7.62,0,0,1-3,7.06A7.88,7.88,0,0,1,261.7,88.28Zm-14.35-26a6.11,6.11,0,0,0-4,1.31c-2.43,2-2.65,5.59-2.65,5.63-.58,4.59,3.26,7.42,3.3,7.45l.21.15-.08.25a7.91,7.91,0,0,0,1.64,7.74c3.68,5.16,10.58,1.48,10.87,1.32l.17-.09.17.1c5.8,3.34,9.42-.3,9.57-.46a7,7,0,0,0,2.78-6.48h0a8.37,8.37,0,0,0-.36-1.95l-.13-.4.41-.07c4-.63,3.33-6.87,3.33-6.93a8,8,0,0,0-8.26-7.36H264l-.07-.29c-1.22-5.61-6.84-5.92-7.08-5.93-6.1-.25-7.6,5.6-7.66,5.85l-.08.31-.32,0A9.49,9.49,0,0,0,247.35,62.32Z"/><rect class="cls-2" x="256.45" y="72.17" width="0.71" height="53.38"/><polyline class="cls-1" points="251.98 75.53 256.72 80.02 261.12 75.97"/><polygon class="cls-2" points="256.72 80.5 251.74 75.79 252.22 75.28 256.73 79.53 260.88 75.7 261.36 76.23 256.72 80.5"/><path class="cls-1" d="M288.67,87.78a6.2,6.2,0,0,1-2.44,5.74s-3.29,3.44-8.49.43c0,0-6.3,3.45-9.59-1.17a7,7,0,0,1-1.47-6.88s-3.44-2.49-2.92-6.59c0,0,.36-7.1,7.24-6.07,0,0,1.32-5.42,6.81-5.2,0,0,5.2.22,6.3,5.27a7.19,7.19,0,0,1,7.32,6.52s.66,5.63-3.08,6.22a7.87,7.87,0,0,1,.32,1.73"/><path class="cls-2" d="M281.89,95.53a8.47,8.47,0,0,1-4.16-1.17c-1.08.52-6.75,3-9.87-1.37a7.28,7.28,0,0,1-1.59-7,7.75,7.75,0,0,1-2.87-6.76,7.93,7.93,0,0,1,2.49-5.22,6.2,6.2,0,0,1,4.86-1.2c.4-1.19,2.14-5.37,7.08-5.16.05,0,5.29.28,6.56,5.27a7.5,7.5,0,0,1,7.39,6.82c.23,2-.12,5.78-3,6.54a9,9,0,0,1,.23,1.44,6.5,6.5,0,0,1-2.59,6h0A6.75,6.75,0,0,1,281.89,95.53Zm-12.18-22a5.17,5.17,0,0,0-3.37,1.1,7.33,7.33,0,0,0-2.23,4.74c-.48,3.86,2.75,6.26,2.78,6.29l.21.15L267,86a6.69,6.69,0,0,0,1.38,6.52c3.11,4.35,8.92,1.25,9.17,1.11l.17-.09.17.1c4.88,2.82,7.94-.25,8.07-.38a5.87,5.87,0,0,0,2.34-5.46h0a8.45,8.45,0,0,0-.3-1.65l-.14-.4.42-.06c3.35-.53,2.78-5.78,2.77-5.83a6.77,6.77,0,0,0-6.95-6.2h-.3l-.06-.29a6.44,6.44,0,0,0-6-5c-5.12-.21-6.4,4.71-6.45,4.92l-.08.32-.32,0A7.76,7.76,0,0,0,269.71,73.49Z"/><rect class="cls-2" x="277.38" y="80.56" width="0.71" height="44.99"/><polyline class="cls-1" points="273.64 84.66 277.67 88.47 281.4 85.02"/><polygon class="cls-2" points="277.66 88.95 273.39 84.92 273.88 84.4 277.67 87.98 281.16 84.76 281.64 85.28 277.66 88.95"/><path class="cls-1" d="M257.44,95.68a4.89,4.89,0,0,1-1.93,4.53s-2.61,2.72-6.72.35c0,0-5,2.72-7.58-.93a5.56,5.56,0,0,1-1.16-5.44A6,6,0,0,1,237.73,89s.29-5.62,5.74-4.81c0,0,1-4.28,5.38-4.11,0,0,4.11.18,5,4.17a5.69,5.69,0,0,1,5.79,5.16s.52,4.45-2.43,4.92a6.09,6.09,0,0,1,.25,1.37"/><path class="cls-2" d="M252.07,101.88a6.79,6.79,0,0,1-3.29-.92c-.95.46-5.4,2.33-7.86-1.12a5.82,5.82,0,0,1-1.28-5.52,6.21,6.21,0,0,1-2.26-5.38,6.35,6.35,0,0,1,2-4.19,5,5,0,0,1,3.85-1,5.68,5.68,0,0,1,5.64-4.07s4.21.22,5.25,4.18A6,6,0,0,1,260,89.34c.19,1.58-.09,4.58-2.34,5.23a6.81,6.81,0,0,1,.16,1.08h0a5.2,5.2,0,0,1-2.07,4.85h0A5.42,5.42,0,0,1,252.07,101.88Zm-9.63-17.43a4,4,0,0,0-2.62.85,5.68,5.68,0,0,0-1.73,3.7,5.62,5.62,0,0,0,2.17,4.9l.21.15-.08.25a5.15,5.15,0,0,0,1.07,5.08c2.42,3.39,7,1,7.16.87l.18-.1.17.1c3.8,2.2,6.18-.18,6.28-.28a4.57,4.57,0,0,0,1.84-4.26h0a6,6,0,0,0-.24-1.29l-.13-.4.41-.06c2.58-.41,2.14-4.49,2.14-4.53a5.3,5.3,0,0,0-5.43-4.84h-.3l-.06-.29a5,5,0,0,0-9.67,0l-.08.31-.32,0A6.61,6.61,0,0,0,242.44,84.45Z"/><rect class="cls-2" x="248.44" y="89.97" width="0.71" height="34.95"/><polyline class="cls-1" points="245.55 93.21 248.73 96.22 251.69 93.5"/><polygon class="cls-2" points="248.73 96.7 245.31 93.47 245.79 92.95 248.74 95.73 251.45 93.23 251.93 93.76 248.73 96.7"/><path class="cls-2" d="M11.85,126.32c-.4-.06-9.89-1.48-11.72-4.12l-.1-.15.05-.18c.07-.21,7.07-21.39,7.71-24.07,0-1.2,2-15.75,85.15-20l.66-12.47,14.4.13v.73l-13.7-.12-.65,12.43h-.33C9.31,82.77,8.52,97.68,8.52,97.83v.1c-.56,2.43-6.93,21.75-7.67,24,1.6,1.9,8.52,3.3,11.12,3.68Z"/><path class="cls-2" d="M.73,122.18.56,122l-.48-.13c.13-.45,3.36-4.4,76.49-5.35v.73C5.18,118.2.88,122,.73,122.18Z"/><path class="cls-2" d="M76.94,121.69h-.73V110.48h.36c.45,0,45.39-.61,64.61.52l-.05.73c-18.27-1.07-59.88-.58-64.19-.53Z"/><rect class="cls-2" x="79.08" y="110.84" width="0.73" height="10.85"/><rect class="cls-2" x="91.34" y="110.84" width="0.73" height="10.26" transform="translate(-0.37 0.29) rotate(-0.18)"/><rect class="cls-2" x="94.24" y="110.84" width="0.73" height="10.17" transform="translate(-1.1 0.91) rotate(-0.55)"/><path class="cls-2" d="M76.29,115.16c-.08,0-7.82-4.76-12.39-5.62a3.26,3.26,0,0,1-2.54-3.62l0-.32h.32c.39,0,39.88-1.09,92.46.59l0,.73c-50-1.59-88.15-.7-92.08-.6a2.59,2.59,0,0,0,2,2.52c4.69.88,12.3,5.51,12.62,5.71Z"/><path class="cls-2" d="M92.74,105.51l-.73,0,1.58-40.1h.35c.19,0,18.75,0,28,.26l0,.73c-8.56-.24-25-.26-27.66-.26Z"/><path class="cls-2" d="M142.74,67.45l-7.65-.3L133.19,65l4.17-3.71Zm-7.31-1,5.64.23-3.78-4.32-3.07,2.74Z"/><polygon class="cls-2" points="156.53 77.13 155.52 68.83 152.04 68.59 152.09 67.86 156.17 68.14 157.25 77.05 156.53 77.13"/><path class="cls-2" d="M89.85,82.92l-2.33-3,4.4-.06,1,.89.06,2ZM89,80.65l1.19,1.52,2-.11,0-1-.52-.48Z"/><path class="cls-2" d="M92.92,88.36l-2.67-4.65,2.67-.3Zm-1.48-4,.75,1.31V84.23Z"/><path class="cls-2" d="M84.43,83.36,82.72,80.2l4.1-.13,2.34,3.11Zm-.51-2.47.93,1.72,2.89-.11-1.27-1.68Z"/><path class="cls-2" d="M87.31,88.84,85,84.08l4.34-.35,2.64,4.76Zm-1.23-4.12,1.66,3.36,3-.23-1.86-3.36Z"/><path class="cls-2" d="M88,96.91l0-.4a18.1,18.1,0,0,0-.28-4.33c-.37-2.34-.28-2.48-.2-2.6l.11-.16L92,89.31l.06.29c0,.19,1,4.65.59,6.8l-.06.28Zm.2-6.77c0,.41.14,1.2.25,1.88a16.19,16.19,0,0,1,.31,4.12L92,96a22,22,0,0,0-.57-5.93Z"/><path class="cls-2" d="M90.89,105.5l-4.56-.23.16-.46A29.69,29.69,0,0,0,88,97.88v-.35h4.38v.36c0,.62,0,6.11-1.43,7.5Zm-3.55-.91,3.26.16c.87-1.09,1.09-4.74,1.1-6.49h-3A29.67,29.67,0,0,1,87.34,104.59Z"/><path class="cls-2" d="M85.46,105.22l-4.52-.35.18-.46a19.19,19.19,0,0,0,1.3-6.74l0-.4,4.41.16.72.17-.2.39s0,0,0,.1A22.25,22.25,0,0,1,85.56,105Zm-3.49-1,3,.24a21.56,21.56,0,0,0,1.6-6.3L83.16,98A19.25,19.25,0,0,1,82,104.21Z"/><path class="cls-2" d="M80,104.77l-4.18-.23.14-.45c.42-1.31,1.42-5,1.12-6.36l-.1-.45h4.58l0,.31c0,.17.68,4.24-1.49,7Zm-3.2-.91,2.85.16c1.54-2.11,1.38-5.06,1.28-6H77.87A21.9,21.9,0,0,1,76.82,103.86Z"/><path class="cls-2" d="M74.83,104.37l-4.38-.12.22-.49s1.57-3.6,1.2-6.06l-.07-.42,4.72.06,0,.32c0,.17.38,4.24-1.6,6.58Zm-3.29-.82,3,.08c1.37-1.76,1.38-4.61,1.34-5.57l-3.21,0A14.17,14.17,0,0,1,71.54,103.55Z"/><path class="cls-2" d="M70,104.27H65.75l.11-.45s1.11-4.5.92-5.93l0-.39,4.57-.29,0,.37a15.32,15.32,0,0,1-1.26,6.48Zm-3.28-.73H69.5A14.49,14.49,0,0,0,70.59,98l-3.06.19A30.24,30.24,0,0,1,66.68,103.54Z"/><path class="cls-2" d="M65.05,104.17H60.46l.18-.49S62,100,61.84,98.16l0-.37,4.44-.18V98a23.54,23.54,0,0,1-1.1,5.92Zm-3.55-.73h3a23.23,23.23,0,0,0,.94-5.07l-2.9.12A19,19,0,0,1,61.5,103.44Z"/><path class="cls-2" d="M55.74,104.37l.16-.48a32.71,32.71,0,0,0,1.3-5.39l0-.31,4.27-.3,0,.43c0,.18-.46,4.35-1.32,5.82l-.11.18Zm2.16-5.5a33.36,33.36,0,0,1-1.15,4.76l2.84,0a20.63,20.63,0,0,0,1.08-4.91Z"/><path class="cls-2" d="M87.21,96.79l-4.79-.19v-.37a33.45,33.45,0,0,0-.17-6.1l-.15-.45,4.4-.16.09.26a18.69,18.69,0,0,1,.64,6.65Zm-4-.89,3.35.13A19,19,0,0,0,86,90.27l-2.93.1A40.57,40.57,0,0,1,83.18,95.9Z"/><path class="cls-2" d="M81.78,96.68H77.32v-.36c0-2.49-.1-5.29-.19-5.81L76.62,90l4.76-.26.05.32c0,.19.82,4.79.42,6.34ZM78,96h3.15a26.19,26.19,0,0,0-.42-5.45l-2.9.16C77.94,91.31,78,92.74,78,96Z"/><path class="cls-2" d="M111.92,76.51a6,6,0,1,1-12-.11,6,6,0,0,1,12,.11Zm-2.1-4.06v7.76a1,1,0,0,1,0,.17s0,.08-.07.08h-.61V72.35h.6a5.66,5.66,0,1,0-7.17,8.73,5.69,5.69,0,0,0,8-1.34A5.58,5.58,0,0,0,109.82,72.45Z"/><path class="cls-2" d="M105.47,79.13a6.59,6.59,0,0,1-.38.75,1.92,1.92,0,0,1-1.3.82,2.11,2.11,0,0,1-1.4-.18,2.22,2.22,0,0,1-1-1,3.21,3.21,0,0,1-.26-2,5.32,5.32,0,0,1,.53-1.62l.85.65,0,0a1.51,1.51,0,0,0-.11-.22,6.43,6.43,0,0,1-.67-1.55,2.42,2.42,0,0,1,.26-2,1.55,1.55,0,0,1,1.23-.7,1.8,1.8,0,0,1,1.61.62,2.8,2.8,0,0,1,.55,1.2v-1.5h.7c0,.07,0,.13,0,.19v7.71c0,.16,0,.22-.2.2s-.37,0-.47,0,0-.29,0-.45ZM105,74.58c-.05-.2-.09-.39-.14-.57a1.92,1.92,0,0,0-.82-1.2,1,1,0,0,0-1.46.4,1.56,1.56,0,0,0,0,1.2,11.57,11.57,0,0,0,.56,1.3c.33.63.7,1.24,1,1.87a2.4,2.4,0,0,1,.32,1,1,1,0,0,1-1.31,1.14,1.26,1.26,0,0,1-.8-.68,2.22,2.22,0,0,1-.28-1.24c0-.36.08-.72.12-1.06a2.49,2.49,0,0,0-.3.92,2.2,2.2,0,0,0,.43,1.77,1.34,1.34,0,0,0,2.34-1.27,6.12,6.12,0,0,0-.66-1.42c-.34-.62-.69-1.24-1-1.86a2.75,2.75,0,0,1-.29-1.23.78.78,0,0,1,1.39-.53,2.55,2.55,0,0,1,.64,1.6s0,.08,0,.11l-.42.51c0-.24-.09-.48-.16-.71a8.85,8.85,0,0,0-.31-.91c0-.07-.15-.1-.23-.15a.9.9,0,0,0-.11.28,1.06,1.06,0,0,0,.09.39,9.28,9.28,0,0,0,.84,1.59c.28.49.55,1,.81,1.48a5.2,5.2,0,0,1,.26.67V74.38Zm-2.07,2.53h0a2.14,2.14,0,0,0,.18,1.68.41.41,0,0,0,.47.2c.15-.06.2-.25.14-.49a0,0,0,0,1,0,0l-.41-.87A4.26,4.26,0,0,0,102.94,77.11Z"/><path class="cls-2" d="M108.21,78.22a5,5,0,0,1-.34.46.27.27,0,0,1-.44,0,2.43,2.43,0,0,1-.2-.28.4.4,0,0,0-.13-.13v2.19h-.6s-.06,0-.08-.07a.27.27,0,0,1,0-.09V75a.18.18,0,0,1,0-.12c0,.13.06.26.08.39a5.86,5.86,0,0,0,.59,1.83,1.7,1.7,0,0,0,.34.42.28.28,0,0,0,.4,0,1.3,1.3,0,0,0,.47-.69c.21-.63.38-1.27.55-1.92v5.36c0,.21,0,.21-.22.21-.45,0-.45,0-.45-.44V78.22Z"/><path class="cls-2" d="M108.47,72.37h.5c0,.17,0,.34,0,.51a16.25,16.25,0,0,1-.39,2.5,13.56,13.56,0,0,1-.5,1.48.84.84,0,0,1-.22.31c-.13.14-.27.13-.39-.06a2.59,2.59,0,0,1-.34-.66,15.75,15.75,0,0,1-.49-1.88c-.13-.71-.17-1.43-.25-2.14a.15.15,0,0,1,0-.06h.47c0,.35.07.7.15,1,.14.72.31,1.44.48,2.15a1,1,0,0,0,.11.28c.05.1.12.11.16,0a5.13,5.13,0,0,0,.25-.72c.13-.56.25-1.12.35-1.68C108.39,73.09,108.42,72.74,108.47,72.37Z"/><polygon class="cls-2" points="157.42 110.26 151.53 104.71 152.04 102.55 152.75 102.72 152.34 104.47 157.92 109.73 157.42 110.26"/><polygon class="cls-2" points="158.44 110.17 146.81 96.63 147.83 94.6 142.34 90.48 115.08 58.56 151.62 23.52 186.53 -0.53 186.88 0.1 222.99 63.83 222.73 64.02 185.82 92.28 190.78 96.34 189.7 98.42 175.88 109.31 175.43 108.73 189.18 97.9 189.86 96.54 184.65 92.26 185.01 91.98 222.04 63.63 186.29 0.53 152.08 24.09 116.08 58.61 142.83 89.95 148.75 94.38 147.68 96.52 158.99 109.69 158.44 110.17"/><polygon class="cls-2" points="163.9 109.83 152.1 95 154.19 90.34 166.95 106.14 167.22 109.45 166.5 109.51 166.25 106.42 154.37 91.72 152.95 94.89 164.47 109.38 163.9 109.83"/><rect class="cls-2" x="147.12" y="95.39" width="5.52" height="0.73" transform="translate(-21.61 48.6) rotate(-17.2)"/><polygon class="cls-2" points="166.82 106.57 166.37 106 184.75 91.57 185.42 91.96 185.06 92.59 184.81 92.45 166.82 106.57"/><path class="cls-2" d="M164.72,102.68l-4.5-5.51,10.11-8.06,7.46,3.34Zm-3.47-5.4,3.58,4.39,11.56-9-6-2.66Z"/><path class="cls-2" d="M158,94.6l-2.42-2.9,7.17-5.84L167,87.61Zm-1.39-2.8,1.5,1.79,7.44-5.78-2.68-1.11Z"/><path class="cls-2" d="M152.87,88.48l-2.36-2.77,4.24-3.58,3.73,1.79Zm-1.33-2.68L153,87.46l4.16-3.38L154.86,83Z"/><path class="cls-2" d="M149.16,84l-6.76-8.08,4-3.55,6.65,8.19Zm-5.74-8,5.82,7,2.81-2.48-5.73-7.06Z"/><path class="cls-2" d="M154.92,79.1l-6.77-8.18,9-7.72,6.4,8.65ZM149.17,71,155,78.07l7.53-6.33L157,64.26Z"/><path class="cls-2" d="M132,63.47l-4.2-4.8,4.36-4,4,5Zm-3.18-4.74,3.24,3.7,3.13-2.84-3.11-3.83Z"/><path class="cls-2" d="M137.92,58l-4-4.92,9.1-8.32,3.82,5.08Zm-3-4.85L138,56.9l7.88-7.19-2.94-3.91Z"/><path class="cls-2" d="M145.78,67.92l-6.61-8.19,9-8.17,6.55,8.6Zm-5.61-8.11,5.7,7.06,7.87-6.81-5.66-7.42Z"/><path class="cls-2" d="M150.45,46.82l-3.76-5.23,9.08-8.25,3.76,5Zm-2.78-5.13,2.89,4,8-7.45-2.88-3.84Z"/><path class="cls-2" d="M158.27,57.23l-6.56-8.8,9-8.19,6.35,9.15Zm-5.58-8.7,5.69,7.63,7.74-6.89-5.51-7.93Z"/><path class="cls-2" d="M167,68.88l-6.5-8.59,8.85-7.6,6.08,9.09Zm-5.51-8.48,5.62,7.43,7.35-6.19-5.26-7.86Z"/><path class="cls-2" d="M173.61,71.62l-5.37-1,9-7.42,6.09.23Zm-3.7-1.46,3.5.67,8-6.77-3.94-.15Z"/><path class="cls-2" d="M160.93,82l-4-1.53,8-6.83,2.49,3Zm-2.62-1.78,2.48,1,5.56-4.65-1.55-1.85Z"/><path class="cls-2" d="M172.5,83.55l-6.15-.72L169.79,80Zm-4.35-1.25,2.71.32-1.19-1.56Z"/><path class="cls-2" d="M175.6,80.46l-2.48-3L176,75.14l5.36.8Zm-1.45-2.87,1.56,1.86,3.88-3-3.37-.5Z"/><path class="cls-2" d="M185.26,86.61,179,85.17l-1.43-1.6,7.59-6.42,9.6,2Zm-5.89-2.1,5.71,1.31,8-6.25-7.72-1.63-6.75,5.7Z"/><path class="cls-2" d="M184.59,73.36l-5.45-1,8.71-7,2.3,3.55Zm-3.75-1.44,3.55.66,4.79-3.84-1.5-2.32Z"/><path class="cls-2" d="M194.32,75l-5.27-1,2.89-2.23Zm-3.55-1.43,1.87.36-.85-1.15Z"/><path class="cls-2" d="M200.33,74.92l-4.11-6.38L201,64.68l11.47.49Zm-3.14-6.22,3.32,5.15,10-8-9.25-.39Z"/><polygon class="cls-2" points="196.79 60.84 193.49 60.74 195.39 59.04 196.79 60.84"/><path class="cls-2" d="M213.72,61.27l-11.46-.16-3-5.19L207,49.79Zm-11-.88,9.75.13-5.66-9.63-6.61,5.21Z"/><path class="cls-2" d="M197,52.28l-2-2.83,6.23-.56Zm-.68-2.22.83,1.17,1.74-1.4Z"/><path class="cls-2" d="M192.86,45.75,187.53,37l8.05-6.89,8.21,13.94Zm-4.38-8.58L193.23,45l9.39-1.45-7.23-12.26Z"/><path class="cls-2" d="M182.57,29.09l-8.13-13.22,8.28-7.5,10,16.94ZM175.38,16l7.5,12.19,8.79-3.26L182.54,9.51Z"/><path class="cls-2" d="M177.73,40.38l-3.31-4.81,5.34-1.64,1.83,2.94ZM175.59,36l2.27,3.3,2.78-2.54-1.2-2Z"/><path class="cls-2" d="M182.41,47.36l-2.51-3.63,3.79-3.33,3.95,6.21Zm-1.54-3.51,1.88,2.72,3.67-.52-2.89-4.54Z"/><path class="cls-2" d="M172.71,32.75l-6.2-9.5,4.08-3.68,7.12,11.36Zm-5.24-9.38L173,31.86l3.61-1.31-6.18-9.85Z"/><path class="cls-2" d="M189.54,58.35l-5.36-8,5.58-.46,3.47,5.44ZM185.48,51l4.22,6.29,2.56-2.08-2.88-4.53Z"/><path class="cls-2" d="M184.2,60.8l-6.32-.23-5.81-8.88,5.86-.51Zm-5.91-.95,4.53.17-5.26-8.08-4.21.37Z"/><path class="cls-2" d="M169.18,47.48l-5.7-8.38,5.27-1.76L173,43.85Zm-4.55-8,4.67,6.87,2.79-2.63-3.64-5.52Z"/><path class="cls-2" d="M161.7,36.75,158.12,31l3.95-3.73,4.89,7.6Zm-2.65-5.61,3,4.73,3.84-1.36-3.91-6.09Z"/><path class="cls-2" d="M121.39,56.44,135,43.78l6.8-3L125.44,56.07Zm13.94-12-11.88,11.1,1.68-.16,13-12.18Z"/><path class="cls-2" d="M118.65,56.89l11.38-11,5.8-2.53L121.78,56.45Zm11.73-10.38-9.62,9.35.69-.1,10.77-10Z"/><polygon class="cls-2" points="118.02 56.86 117.97 56.13 119.55 56.02 128.69 47.14 127.82 47.46 127.57 46.77 131.66 45.26 119.86 56.73 118.02 56.86"/><polygon class="cls-2" points="129.42 45.89 129.15 45.21 131.68 44.21 140.81 35.48 139.55 36.15 139.21 35.5 145.13 32.36 132.01 44.86 129.42 45.89"/><path class="cls-2" d="M130.79,45.58l13-12.61,8.62-5.07L137.2,42.26Zm13.45-12-9.37,9.07,1.95-1,10.41-9.81Z"/><path class="cls-2" d="M136.13,42.74l14.89-14,11.32-6.67L143.56,39.36Zm15.3-13.42L139.84,40.25l3.36-1.53,13.63-12.58Z"/><polygon class="cls-2" points="141.33 34.53 140.97 33.89 145.08 31.58 153.45 23.69 150.48 25.68 150.07 25.08 156.72 20.61 157.17 21.18 145.51 32.16 141.33 34.53"/><path class="cls-2" d="M143.91,33.16,158,19.55l8.36-5.62.45.57L153.49,27.14ZM163.19,17l-4.7,3.15-9,8.7,3.58-2.24Z"/><path class="cls-2" d="M151.94,28.12l16.49-15.58,11.62-7.83.45.57L163.1,21.45Zm24.65-20.2-7.7,5.19-11.62,11,5.4-3.22Z"/><path class="cls-2" d="M150.84,91.54l-7.2-4.7L133,74.26l6.74,3.51Zm-6.67-5.21,3.2,2.08-8.18-10.12-3.28-1.69Z"/><rect class="cls-2" x="143.48" y="85.44" width="1.87" height="0.73" transform="translate(-4.21 164.1) rotate(-58.5)"/><rect class="cls-2" x="142.13" y="89.11" width="1.57" height="0.73" transform="translate(47.59 228.55) rotate(-87.62)"/><polygon class="cls-2" points="146.15 93.32 139.69 85.31 134.97 81.81 135.41 81.23 140.23 84.81 146.72 92.86 146.15 93.32"/><path class="cls-2" d="M143.49,86.3l-1.21-.39c-.07,0-.15,0-4.07-2.79l-.07-.06-9.2-10.85,4.87,2.59Zm-4.83-3.75,1.73,1.2-7.09-8.42-1.37-.72Z"/><rect class="cls-2" x="138.14" y="81.95" width="1.2" height="0.73" transform="translate(-5.63 154.3) rotate(-57.18)"/><path class="cls-2" d="M147.67,94.38,139.28,83.9l6.06,4.26,3.86,4.69Zm-4.64-7,4.7,5.87.49-.49-3.41-4.13Z"/><polygon class="cls-2" points="139.94 84.19 133.79 80.3 134.18 79.68 136.37 81.07 130.2 73.7 126.42 71.75 126.76 71.1 130.71 73.17 139.94 84.19"/><rect class="cls-2" x="134" y="79.2" width="1.34" height="0.73" transform="translate(9.09 172.82) rotate(-67.17)"/><path class="cls-2" d="M138,76.13l-5.85-2.78L121.27,60.59l4,.35Zm-5.35-3.31,2.67,1.25L124.94,61.64l-2-.17Z"/><rect class="cls-2" x="132.21" y="72.11" width="1.89" height="0.73" transform="translate(-14.18 108.18) rotate(-42.18)"/><path class="cls-2" d="M132.77,73.7l-4.64-2.27-9.41-11.07,2.86.15.11.12Zm-4.13-2.8,1.35.65-8.76-10.33-.85,0Z"/><rect class="cls-2" x="128.26" y="70.44" width="1.15" height="0.73" transform="translate(-13.85 106.2) rotate(-42.72)"/><polygon class="cls-2" points="129.52 72.01 124.95 70.13 125.23 69.45 126.98 70.17 119.18 61.12 117.45 61.03 117.48 60.3 119.53 60.41 129.52 72.01"/><rect class="cls-2" x="125.13" y="68.97" width="1.29" height="0.73" transform="translate(-14.67 99.36) rotate(-40.93)"/><path class="cls-2" d="M166,104l-.23-.27-37.9-45.09L185,6.17l33.52,57.46ZM128.84,58.73,166.07,103l51.47-39.57L184.79,7.32Z"/><polygon class="cls-2" points="150.88 91.92 122.99 58.32 186.16 -0.27 186.66 0.27 124 58.39 151.44 91.45 150.88 91.92"/><rect class="cls-2" x="115.57" y="58.1" width="7.92" height="0.73" transform="translate(-1.67 3.54) rotate(-1.69)"/><path class="cls-2" d="M211.8,109.68l-3.6-12.25c-4.83-6-12.61-8.57-13.63-8.88a12.9,12.9,0,0,1-3.49-.12l.1-.72a12.62,12.62,0,0,0,3.19.14l.13-.06.15,0c.09,0,8.88,2.55,14.17,9.21l.06.12,3.62,12.32Z"/><path class="cls-2" d="M222.16,125.64l-3.48-13.86c-9-4.21-41.18-2.45-41.5-2.43-40.67,1.26-48.85,6-49.74,6.59L127,118l-31.15,3.45-20.25,1.08,0-.73,20.23-1.08,30.6-3.39.37-1.81.08-.08c.25-.22,6.47-5.48,50.29-6.84,1.33-.07,33-1.81,42,2.58l.15.07,3.56,14.19Z"/><path class="cls-2" d="M79.77,84.07l-2.22-3.52L82,80.31l1.85,3.15Zm-.94-2.85,1.3,2,2.5-.37-1.08-1.83Z"/><path class="cls-2" d="M81.94,89.09l-.09-.27a31.23,31.23,0,0,0-1.46-3.7l-.39-.5,4.1-.56.12.21c.46.8,2,3.46,2,4.14v.34Zm-.7-3.91c.39.86,1,2.43,1.21,3.14l2.9-.24a29,29,0,0,0-1.64-3.23Z"/><path class="cls-2" d="M75.12,84.76,72.83,80.9l3.92-.25.12.16a12.47,12.47,0,0,1,1.83,3l0,.34Zm-1.05-3.21L75.49,84l2.35-.38a21.57,21.57,0,0,0-1.44-2.17Z"/><path class="cls-2" d="M77,89.24,76.86,89A17.2,17.2,0,0,0,75.69,86l-.61-.53,4.22-.57.12.19A11.3,11.3,0,0,1,81,88.56l0,.38Zm-.42-3.18a22.88,22.88,0,0,1,.94,2.41l2.67-.2a11.53,11.53,0,0,0-1.21-2.54Z"/><path class="cls-2" d="M72,96.7v-.38c0-.53,0-5.26.1-5.66l0-.3,4-.23,0,.33a31,31,0,0,1,.39,5.88l0,.3Zm.82-5.65c0,.85-.06,3.2-.08,4.91l3.17,0a32.9,32.9,0,0,0-.38-5Z"/><path class="cls-2" d="M71.82,89.73l-1.15-3.51,3.8-.66.13.23A13.83,13.83,0,0,1,76,89l0,.36Zm-.19-2.94L72.34,89l2.81-.23a18.63,18.63,0,0,0-1.07-2.35Z"/><path class="cls-2" d="M70.43,85.65,68,81.25l3.76-.31,2.45,3.8ZM69.2,81.89l1.6,2.92,2.26-.54L71.4,81.71Z"/><path class="cls-2" d="M65.92,86.43l-.13-.25c-.85-1.66-1.83-3.52-2.09-3.91l-1.5-.5,4.71-.49.13.16c.58.72,2.47,3.15,2.47,4v.3Zm-1.38-4.17c.31.53.83,1.51,1.78,3.35l2.38-.46a19.85,19.85,0,0,0-2.11-3.1Z"/><path class="cls-2" d="M67,90.23,66,87.11l3.88-.78.11.3a19,19,0,0,1,.9,2.81v.32Zm0-2.57.53,1.77,2.61-.31c-.13-.42-.4-1.2-.66-2Z"/><path class="cls-2" d="M67.22,96.91v-.38c0-2.31-.09-4.91-.16-5.36l-.37-.48,4.37-.32.06.33a24.12,24.12,0,0,1,.39,5.65l-.05.27Zm.58-5.57c.06.6.11,1.89.14,4.79l2.89-.19a23.72,23.72,0,0,0-.38-4.79Z"/><path class="cls-2" d="M62.07,97.36l0-.41c.11-2.27.18-4.79.12-5.1l-.3-.49h.6L66.42,91v.39c.2,5.17.11,5.36.06,5.45L66.4,97Zm.88-5.3c0,.57,0,1.78-.11,4.51l3-.24c0-.62,0-2.63-.12-4.54Z"/><path class="cls-2" d="M62.22,90.88l-.7-2.95,3.9-.78.64,3.13Zm.19-2.38.37,1.55,2.41-.38L64.85,88Z"/><path class="cls-2" d="M61.41,87.37l-.12-.27c-.83-1.82-1.79-3.86-2-4.29l-1.37-.45,4.51-.65.13.21c.52.85,2.25,3.69,2.3,4.36l0,.32Zm-1.35-4.59c.29.56.81,1.64,1.77,3.74L64,86a40.3,40.3,0,0,0-2-3.54Z"/><path class="cls-2" d="M57,88.2l-.12-.29a35.8,35.8,0,0,0-2.15-4.75l-.5-.51.69-.12,3-.48.13.22c.91,1.58,2.44,4.32,2.44,4.87v.29Zm-1.42-5c.55,1,1.39,3,1.86,4.19l2.21-.48c-.29-.7-1.22-2.43-2.13-4Z"/><path class="cls-2" d="M57.71,91.51l-.53-2.7,3.59-.73L61.49,91ZM58,89.38l.25,1.31,2.29-.33-.35-1.42Z"/><path class="cls-2" d="M57.58,97.8v-.41s.1-3.81,0-5l0-.34,3.89-.42,0,.37a25.24,25.24,0,0,1,.09,5.17l-.07.24Zm.8-5c0,1.13,0,3.34-.05,4.25L61,96.77a27.5,27.5,0,0,0-.12-4.29Z"/><path class="cls-2" d="M40.73,91.07l-.09-.32a38.47,38.47,0,0,0-1.72-5.33L38.66,85l3.11-.65.13.24c.09.16,2.1,3.87,2.1,5.7v.31Zm-1-5.57a48.07,48.07,0,0,1,1.49,4.75l2-.29a18.86,18.86,0,0,0-1.86-4.8Z"/><path class="cls-2" d="M40.83,95.2l.05-.48a9.67,9.67,0,0,0,0-2.59l-.2-.43,3.44-.59,0,.39a17.73,17.73,0,0,1,.1,2.86l0,.28Zm.85-2.92a11.71,11.71,0,0,1,0,2L43.58,94a15.92,15.92,0,0,0-.08-2Z"/><path class="cls-2" d="M40.46,100.35l.08-.51a23.33,23.33,0,0,0,.35-3.55l-.09-.36.35-.1,3.06-.75,0,.48a33,33,0,0,1-.3,3.94l-.06.23Zm1.17-3.89a25.48,25.48,0,0,1-.3,3l1.9-.35c.1-.66.18-2.15.22-3.07Z"/><path class="cls-2" d="M38.51,106.06l.18-.56c.61-1.81,1.24-3.84,1.26-4.12l-.06-.35.35,0,3.72-.75-.17.58a30.44,30.44,0,0,1-1.62,4.61l-.09.12Zm2.12-4.39c-.09.42-.35,1.36-1.06,3.5l2.09-.28a31.79,31.79,0,0,0,1.26-3.68Z"/><path class="cls-2" d="M37.24,91.77l-.06-.35s-.65-4.1-1.65-5.37l-.38-.49L38.29,85l.12.22A14.16,14.16,0,0,1,40.16,91v.31Zm-.82-5.68A19.05,19.05,0,0,1,37.84,91l1.58-.23a13.87,13.87,0,0,0-1.52-4.88Z"/><path class="cls-2" d="M37.23,96.24v-.49c0-1.36,0-2.89,0-3.11L37,92.21l.48,0,2.69-.41.07.34a8.49,8.49,0,0,1,.09,3.08l-.06.19Zm.74-3.4c0,.38,0,1.08,0,2.43l1.73-.49a7.31,7.31,0,0,0-.09-2.19Z"/><path class="cls-2" d="M36.37,101.42l.09-.54c.28-1.63.56-3.46.56-3.69v-.3l.28-.08,3-.74v.47a19.65,19.65,0,0,1-.34,3.85l0,.2Zm1.36-4c-.07.65-.29,2-.45,3l2-.48a18.76,18.76,0,0,0,.26-3Z"/><path class="cls-2" d="M34.51,106.67l.21-.58c.48-1.29,1.24-3.48,1.29-3.83l0-.24,3.48-.9-.12.58a20.78,20.78,0,0,1-1.34,4.35l-.09.12Zm2.17-4.06c-.18.68-.74,2.26-1.06,3.16l1.93-.28a21.47,21.47,0,0,0,1-3.36Z"/><path class="cls-2" d="M30.75,107.53l1.66-4.65,3.38-.83-.1.55c-.14.73-1.26,3.65-1.39,4l-.07.18Zm2.22-4-1.09,3,1.81-.4c.29-.77.84-2.23,1.12-3.09Z"/><path class="cls-2" d="M27.3,108.38l1.59-4.49,3.39-.83-1.6,4.58Zm2.15-3.87-1,2.87,1.7-.37,1-2.92Z"/><path class="cls-2" d="M24,109.37l1.59-4.23.42.16-.15-.51,3.14-.91-.22.66c-.52,1.61-1.18,3.57-1.31,3.77l-.08.11Zm2.26-3.93-1.07,2.84,1.71-.48c.15-.38.56-1.59,1-2.83Z"/><path class="cls-2" d="M20.78,110.27l.33-.75A28.27,28.27,0,0,0,22.49,106l0-.22,3.06-.92-.2.66a24,24,0,0,1-1.31,3.68l-.07.08Zm2.38-4a26.92,26.92,0,0,1-1.06,2.77l1.45-.46c.15-.33.55-1.5.93-2.7Z"/><path class="cls-2" d="M17.88,111l.34-.69a20.84,20.84,0,0,0,1.4-3.56l0-.26,3.18-.79-.25.66s-1.34,3.42-1.43,3.68l-.07.18Zm2.42-3.92a20.18,20.18,0,0,1-1.1,2.85l1.32-.33c.21-.53.78-2,1.11-2.85Z"/><path class="cls-2" d="M32.84,102.36l.11-.57c.3-1.67.6-3.54.58-3.8l-.07-.34.35-.06,2.87-.71,0,.51a22,22,0,0,1-.67,3.94l-.06.17Zm1.41-4.13c-.06.63-.27,1.91-.48,3.11l1.57-.44a20.48,20.48,0,0,0,.51-3.07Z"/><path class="cls-2" d="M29.21,103.37l.12-.58c.37-1.81.77-3.87.78-4.12l-.05-.33.33,0,2.71-.59-.05.5c-.06.6-.37,3.61-.54,4.11l-.06.19ZM30.8,99c-.05.41-.21,1.32-.64,3.4l1.7-.45c.11-.56.29-2.09.41-3.27Z"/><path class="cls-2" d="M26.07,104.28l.14-.59c.35-1.47.9-3.93.9-4.28v-.29l2.75-.69-.07.53a35,35,0,0,1-.77,4.4l-.08.17Zm1.74-4.58c-.11.77-.52,2.57-.75,3.57l1.34-.35A34.07,34.07,0,0,0,29,99.4Z"/><path class="cls-2" d="M22.93,105l.15-.57c.5-1.93,1.05-4.11,1.06-4.38l0-.28.28-.07,2.37-.46-.08.52c-.11.65-.67,3.94-.87,4.44l-.07.18Zm1.9-4.63c-.14.74-.59,2.5-.89,3.67l1.29-.29c.15-.59.46-2.29.69-3.59Z"/><path class="cls-2" d="M20.36,105.7l.15-.58c.51-2,1-4.24,1.06-4.52l0-.33.31,0,2.29-.51-.12.56c-.29,1.32-1,4.42-1.07,4.66l-.07.17Zm1.9-4.82c-.12.71-.51,2.33-.9,3.83l1-.23c.14-.57.54-2.39.85-3.81Z"/><path class="cls-2" d="M17.81,106.35l.16-.58s1-3.73,1.16-4.72l.05-.23,2.25-.52-.09.53c-.16,1-.72,4.34-1.13,4.89l-.08.11Zm2-4.93c-.2.94-.72,3-1,4l.86-.19a29.61,29.61,0,0,0,.85-3.93Z"/><path class="cls-2" d="M15.66,107.11l.18-.64s1.1-4,1.29-5.09l0-.26,1.94-.36-.09.52a41.46,41.46,0,0,1-1.16,5l-.06.14Zm2.14-5.36c-.21,1-.79,3.19-1.08,4.27l.54-.17a37.57,37.57,0,0,0,.94-4.18Z"/><path class="cls-2" d="M13.61,107.62l.18-.62s1.24-4.24,1.38-5.29l0-.27,1.87-.34-.11.53A36.64,36.64,0,0,1,15.51,107l-.08.13Zm2.24-5.55c-.2,1.06-.86,3.4-1.18,4.52l.27-.07a35.27,35.27,0,0,0,1.2-4.51Z"/><path class="cls-2" d="M11.81,108.25l.17-.63c.58-2.16,1.46-5.45,1.51-5.68l0-.26,1.7-.28-.15.55c-.6,2.16-1.5,5.43-1.54,5.6l0,.21Zm2.34-5.93c-.22.86-.94,3.53-1.3,4.87h0c.21-.81,1-3.63,1.33-4.87Z"/><path class="cls-2" d="M10.22,108.64,11.94,102l1.64-.18-.14.51a55.54,55.54,0,0,1-1.64,5.88l-.08.12Zm2.3-6-1.3,5h0c.18-.59.87-3.14,1.37-5Z"/><path class="cls-2" d="M8.87,109l.15-.56c.55-2.08,1.43-5.49,1.46-5.81l0-.29,1.49-.23-.11.51a46.61,46.61,0,0,1-1.48,6l-.08.11Z"/><path class="cls-2" d="M7.64,109.19l.16-.53c.6-2,1.56-5.26,1.58-5.75v-.26l1.43-.43-.16.63c-1.5,5.9-1.68,6.06-1.78,6.14l-.09.08Z"/><path class="cls-2" d="M6.62,109.36l.16-.52c.63-2.21,1.6-5.58,1.65-5.83l.05-.27,1.26-.13-.13.51c-.56,2.1-1.52,5.67-1.72,6l-.09.15Z"/><path class="cls-2" d="M5.65,109.68l.17-.58c.63-2.11,1.64-5.6,1.68-5.92l0-.35H7.8l1-.16-2,6.78Z"/><path class="cls-2" d="M4.65,109.8l.16-.51c.64-2.09,1.69-5.53,1.72-5.87v-.29l.28,0L8,102.74l-.17.63c-1.66,6-1.73,6.11-1.76,6.15l-.09.17Z"/><path class="cls-2" d="M33.62,97.11l0-.51c0-.83.14-3.09.1-3.51l0-.36,2.93-.33,0,.39a21.53,21.53,0,0,1,0,3.25l0,.24Zm.86-3.73c0,.69,0,2-.09,2.76L36,95.7a20.41,20.41,0,0,0,0-2.48Z"/><path class="cls-2" d="M30.31,97.69l.06-.5a29,29,0,0,0,.28-3.6l-.08-.39.39-.07,2.43-.26v.4a27.46,27.46,0,0,1-.16,3.67l-.07.2Zm1.08-3.87c0,.69-.13,2-.24,3l1.42-.27c0-.48.09-1.67.09-2.83Z"/><path class="cls-2" d="M27.44,98.48l0-.48c.06-1.42.18-3.85.26-4.1l.06-.22,2.5-.37v.44c0,.37-.15,3.55-.2,3.88l0,.24Zm1-4.15c0,.54-.13,1.89-.19,3.22l1.16-.27c0-.58.1-2,.15-3.12Z"/><path class="cls-2" d="M24.53,99.06l0-.5c.14-1.35.35-3.54.37-4l-.19-.37,2.64-.45,0,.44c0,.86-.13,3.7-.26,4.13l-.06.21Zm1.13-4.25c0,.45-.1,1.37-.31,3.34l1.1-.22c.06-.54.14-1.93.19-3.29Z"/><path class="cls-2" d="M22,99.6l.05-.48c.21-1.83.42-3.92.4-4.17l-.19-.43h.49l2-.32,0,.46c-.32,4.15-.36,4.29-.38,4.34l-.07.21Zm1.17-4.4c0,.46-.1,1.43-.34,3.52l.85-.14c.06-.58.19-2.23.29-3.5Z"/><path class="cls-2" d="M19.4,100.09l.07-.49c.28-1.94.55-4.11.52-4.39l-.13-.43h.46l1.87-.16,0,.43c-.28,2.84-.45,4.36-.51,4.52l-.07.2Zm1.31-4.62c0,.63-.18,1.89-.45,3.75l.73-.11c.08-.6.26-2.37.39-3.7Z"/><path class="cls-2" d="M17.36,100.54l.06-.49c.17-1.44.49-4.25.51-4.55l0-.3,2-.27,0,.45c0,.43-.35,4.2-.39,4.52l0,.26Zm1.27-4.7c-.08.8-.32,2.86-.43,3.8l.59-.1c.07-.66.21-2.39.33-3.76Z"/><path class="cls-2" d="M15.45,100.91l.06-.47c.23-1.7.58-4.49.59-4.72v-.33l1.67-.18,0,.43a38.65,38.65,0,0,1-.41,4.83l-.08.2Zm1.35-4.86c-.09.84-.37,3-.5,4l.4,0c.1-.61.22-2.32.3-4Z"/><path class="cls-2" d="M13.76,101.23l.07-.53c.23-1.81.59-4.59.6-4.78l0-.33,1.55,0L16,96c-.07.71-.42,4.27-.52,4.67l-.06.21Zm1.37-4.94c-.09.77-.33,2.59-.51,4l.15,0c.09-.65.29-2.53.43-3.94Z"/><path class="cls-2" d="M12.28,101.46l.06-.46c.18-1.58.54-4.65.55-4.92l0-.34H14.4l0,.41c-.12,1.06-.51,4.56-.63,4.94l-.08.22Z"/><polygon class="cls-2" points="95.48 105.57 94.75 105.57 94.75 103.96 116.01 103.96 116.01 105.5 115.28 105.5 115.28 104.69 95.48 104.69 95.48 105.57"/><path class="cls-2" d="M116,103.91H94.87l.22-6.14H116Zm-20.39-.73h19.66V98.5H95.79Z"/><path class="cls-2" d="M115.81,97.4H95.14V91h20.67Zm-19.94-.74h19.21V91.73H95.87Z"/><path class="cls-2" d="M115.81,90.75H95.46L95.6,84h20.21ZM96.2,90h18.88V84.69H96.32Z"/><path class="cls-2" d="M104.63,83.71h-9l.15-6.07h4l.07.27A6.76,6.76,0,0,0,104.7,83ZM96.34,83h6.41a7.59,7.59,0,0,1-3.55-4.61H96.45Z"/><path class="cls-2" d="M115.68,83.58h-8.6l1.36-.69a7.26,7.26,0,0,0,3.71-4.76l.06-.3h3.47Zm-5.79-.73H115V78.56H112.8A8,8,0,0,1,109.89,82.85Z"/><path class="cls-2" d="M115.42,77.39H112.3l0-.41a4.88,4.88,0,0,0-1.86-4.67l-1-.67h6Zm-2.31-.73h1.58V72.37h-3A5.71,5.71,0,0,1,113.11,76.66Z"/><path class="cls-2" d="M99.71,77.52H95.92L96,71.9h5.55l-.39.57s-1.8,2.65-1.5,4.63Zm-3-.73h2.23a8.49,8.49,0,0,1,1.3-4.16H96.71Z"/><path class="cls-2" d="M115.29,71.39h-6.05l-.1-.09c-.1-.1-2.44-2.2-6.75,0l-.17,0H96.05V66.88h19.24Zm-5.77-.73h5v-3H96.78v3h5.35C106.39,68.48,109,70.21,109.52,70.66Z"/><polygon class="cls-2" points="137.58 105.89 136.85 105.89 136.85 105.47 118.87 105.09 118.87 105.7 118.14 105.7 118.14 104.35 137.58 104.75 137.58 105.89"/><path class="cls-2" d="M137.34,104.44,118.27,104v-6.2l18.7.41ZM119,103.32l17.56.37L136.28,99,119,98.57Z"/><path class="cls-2" d="M137,98l-18.81-.54V91.18l18.37.61Zm-18.08-1.25,17.3.5-.34-4.74-17-.57Z"/><path class="cls-2" d="M136.44,91.21l-18.75-.41L117.62,84l18.16.48Zm-18-1.12,17.22.37-.51-5.26-16.76-.44Z"/><path class="cls-2" d="M135.62,84.31l-18.19-.61V77.82l14.48.34,3.71,4.33ZM118.16,83l16.73.56v-.79l-3.32-3.88-13.41-.31Z"/><path class="cls-2" d="M131.72,77.94l-14.49-.56V71.76l9.27.21ZM118,76.67l12.1.48-3.9-4.46-8.2-.18Z"/><path class="cls-2" d="M126.17,71.8l-8.94-.22V67.2l5.5.08ZM118,70.87l6.71.17-2.3-3L118,68Z"/><path class="cls-2" d="M140.33,72.22,136.56,68l6,.32v1.6Zm-2.07-3.45,2.09,2.37,1.45-1.56V69Z"/><path class="cls-2" d="M154.89,78.06,149.16,71l1.94-1.77,3.64.37,1.12,8Zm-4.73-7,4.88,6-.95-6.82L151.35,70Z"/><rect class="cls-2" x="147.92" y="75.62" width="0.73" height="6.26" transform="translate(61.93 222.74) rotate(-87.02)"/><rect class="cls-2" x="148.51" y="76.4" width="0.73" height="6.26" transform="translate(61.71 224.07) rotate(-87.02)"/><polygon class="cls-2" points="143.65 91.53 137.98 91.32 137.43 85.4 138.16 85.33 138.65 90.62 143.68 90.8 143.65 91.53"/><polygon class="cls-2" points="148.28 98.31 138.7 98.04 138.11 91.7 145.04 91.97 145.02 92.7 138.92 92.46 139.37 97.33 148.3 97.58 148.28 98.31"/><polygon class="cls-2" points="151.93 104.95 139.28 104.55 138.84 98.21 149.15 98.62 149.12 99.35 139.62 98.97 139.96 103.84 151.95 104.22 151.93 104.95"/><polygon class="cls-2" points="139.52 106.07 139.33 104.67 152.6 105.07 152.58 105.8 140.17 105.42 140.25 105.97 139.52 106.07"/></g></svg>